<svg xmlns="http://www.w3.org/2000/svg" viewBox="0 0 29 25.55"><defs><style>.a{opacity:0.8;}.b{fill:#fff;}.c{fill:#708a07;}</style></defs><title>Asset 197</title><g class="a"><path class="b" d="M14.62,24.55a2.38,2.38,0,0,1-1.81-.46,1.24,1.24,0,0,1-.34-.94l.06-6.77c-.07-.17-.2-.45-.37-.78l0,0a9.24,9.24,0,0,0-1.35-2.09,1.08,1.08,0,0,0-.87-.32,6.2,6.2,0,0,1-4-1,3,3,0,0,1-.36-.34,4.16,4.16,0,0,1-1.77.58H3.5C1.25,12.36,1,10.88,1,10.42a2.78,2.78,0,0,1,1.51-2.3V8.07A2.66,2.66,0,0,1,5.43,5.71a3.66,3.66,0,0,1,.86.1,6.65,6.65,0,0,1,.6-.42,2.12,2.12,0,0,1,1.86-1,2.31,2.31,0,0,1,.54.06,9.6,9.6,0,0,1,2.2-.25s0,0,0,0a2.25,2.25,0,0,1,.62-.19,1.78,1.78,0,0,1,1.17,0,9.72,9.72,0,0,1,2.55-.84,3.07,3.07,0,0,1,2.68-2,3.92,3.92,0,0,1,.48,0,3.21,3.21,0,0,1,2.17.78h.15c1.54,0,2.74.8,2.9,1.89C28.11,5.26,28,6.59,28,7c-.06.88-.67,2.36-4.1,2.36-.3,0-.62,0-1,0A10.56,10.56,0,0,1,20.7,9a4.55,4.55,0,0,1-.24.44,3,3,0,0,1,.92-.14,2.79,2.79,0,0,1,1.69.55l.38.07a2.42,2.42,0,0,1,.64-.08,2,2,0,0,1,2,1.46,1.82,1.82,0,0,1,.45,1.5c-.1.54-.54,1.46-2.42,1.54H24a3.21,3.21,0,0,1-1-.14,3.13,3.13,0,0,1-.39.37,6.2,6.2,0,0,1-4,1,1.08,1.08,0,0,0-.87.32,4.62,4.62,0,0,0-1.2,1.58v.15a14.06,14.06,0,0,1,.9,1.84,4.48,4.48,0,0,1,.79-.69,1,1,0,0,1,.42-.15,1,1,0,0,1,1.52-.43,6.69,6.69,0,0,1,.69.59l.21-.06.1,0a7.57,7.57,0,0,1,2.14-2.37,1,1,0,0,1,1.32,1.47,7,7,0,0,0-.7,1,1,1,0,0,1,.39,1l0,.11a1,1,0,0,1,.26,1.6l-.22.25a4.36,4.36,0,0,0,.37,1,1,1,0,0,1-.89,1.46h-8A3.18,3.18,0,0,1,14.62,24.55Zm1.63-12a2.24,2.24,0,0,0,0,.53,4.31,4.31,0,0,1,1.66-.63,1.6,1.6,0,0,1,0-.7A14.39,14.39,0,0,1,16.26,12.57ZM14.68,9.51h0Z"/><path class="b" d="M19.06,2a2,2,0,0,1,1.75.83,3.11,3.11,0,0,1,.57-.05c1.06,0,1.93.52,1.93,1.16a.76.76,0,0,1-.1.38C25,5,27.06,6.05,27,7s-.92,1.43-3.1,1.43l-.91,0c-2.85-.18-2.9-.83-2.9-.83-.19,1.86-2.06,3.22-4.38,4.17-.81.33-.46,2.5-.22,3.69a4,4,0,0,1,.69-1,3.33,3.33,0,0,1,2.5-1,4.12,4.12,0,0,0,2.55-.54h0s-.28,0-.65,0c-.57,0-1.34-.05-1.58-.31-.38-.43-.09-1.12,1-1.47a1.51,1.51,0,0,1,1.42-.76,1.67,1.67,0,0,1,1.25.5,5.92,5.92,0,0,1,.88.17,1.37,1.37,0,0,1,.59-.13c.6,0,1.08.36,1.08.8a.62.62,0,0,1,0,.14c.44.19,1.11,1.47-1,1.56H24a1.63,1.63,0,0,1-1.34-.52,1.69,1.69,0,0,1-.63,1,5.37,5.37,0,0,1-3.34.82,2.09,2.09,0,0,0-1.59.63,5,5,0,0,0-1.48,2.2V18A9.33,9.33,0,0,0,13,15.12a10.44,10.44,0,0,0-1.53-2.34,2.09,2.09,0,0,0-1.59-.62,5.37,5.37,0,0,1-3.34-.82,1.67,1.67,0,0,1-.64-1,4.52,4.52,0,0,1-2.17,1H3.5c-.89,0-1.47-.26-1.5-1S2.92,9,3.65,8.58a1,1,0,0,1-.14-.51c0-.75.86-1.36,1.93-1.36a2.5,2.5,0,0,1,1.08.24,5.35,5.35,0,0,1,1.18-.87,1,1,0,0,1,1.07-.73,1.27,1.27,0,0,1,.51.1,8.57,8.57,0,0,1,2.23-.29c.3,0,.57-.24.86-.24h.05a.74.74,0,0,1,.38-.1.68.68,0,0,1,.55.25h0a9.19,9.19,0,0,1,3.49-1.19l0-.09C16.72,3,17.56,2.17,18.7,2l.36,0M15.57,8.57a10.1,10.1,0,0,1-2.65-.5,3.11,3.11,0,0,0,.83,2,2.56,2.56,0,0,0,1,.59,2.71,2.71,0,0,1,.5-.27,5.66,5.66,0,0,0,2.2-1.53,3,3,0,0,0,.68-1.28H17c1.1.17,0,.92-1.15,1h-.26m-3.51.25a5.58,5.58,0,0,1-.11-.75H10.73a6,6,0,0,1,1.33.75m-1.56,1.85a18,18,0,0,1-3.18-.35,1.15,1.15,0,0,0,.18.14,4.74,4.74,0,0,0,2.42.45,3.33,3.33,0,0,1,2.5,1,4.39,4.39,0,0,1,.95,1.61,5,5,0,0,1,.26-1.39,3.31,3.31,0,0,1,.37-.75,3.39,3.39,0,0,1-1.27-1.06,7.81,7.81,0,0,1-1.88.34h-.33M13,15.11h0m0,0a14.74,14.74,0,0,1,2.59,5.27v1.16a4.19,4.19,0,0,0-1.83-1.22,6.4,6.4,0,0,1,1.74,3h0c-.12.11-.38.18-1,.18-1.23,0-1.15-.17-1.15-.42h0l.06-6.95h0s-.19-.46-.49-1m10.88,2.14h0m0,0a11.89,11.89,0,0,0-2.19,5.29,6.37,6.37,0,0,1,.07.81H19c0-.06,0-.12,0-.18s0,.12,0,.18h-3.4c.14-.12.08-.29.08-.42h0V21.56a4.14,4.14,0,0,1,.4.54c-.1-.52-.24-1.1-.41-1.71l0-2.41a13.7,13.7,0,0,1,1.58,3.83,6.39,6.39,0,0,1,.49-.89c-.22-.22-.38-.36-.38-.36a3,3,0,0,1,.51.18,4.36,4.36,0,0,1,1-1,5.9,5.9,0,0,0-.74,1.17,3.77,3.77,0,0,1,.72.52,5.91,5.91,0,0,1,1.24-1,6.79,6.79,0,0,0-.41-1.27,5.46,5.46,0,0,1,1,1,4.35,4.35,0,0,1,.74-.26,7.21,7.21,0,0,0-.55.52,5,5,0,0,1,.45.75,7.59,7.59,0,0,1,2.65-3.8m-3.87,5.84a5.57,5.57,0,0,0,.12-2,7.66,7.66,0,0,0-.7,1.07,6.32,6.32,0,0,1,.59,1m-2.56.24a8.84,8.84,0,0,1,.93-1.49,6,6,0,0,0-.49-.65,9.7,9.7,0,0,0-.53,1.63c0,.17.07.33.09.51m5.91-3.61a5.65,5.65,0,0,0-.11,1.51,2.69,2.69,0,0,1,.62-.29,4.68,4.68,0,0,0-.58.71,5.3,5.3,0,0,0,.54,1.7h-2a3.25,3.25,0,0,1,.38-1.12,3.94,3.94,0,0,1,1.1-2.51M23.91,21h0M19.06,0a4.87,4.87,0,0,0-.61,0,4.2,4.2,0,0,0-3.29,2.17,10.29,10.29,0,0,0-1.94.64,2.78,2.78,0,0,0-1.29.1,3.15,3.15,0,0,0-.69.21,10.62,10.62,0,0,0-1.94.22,3.34,3.34,0,0,0-.53,0A3.15,3.15,0,0,0,6.17,4.66L6,4.75a4.69,4.69,0,0,0-.61,0A3.73,3.73,0,0,0,1.55,7.59,3.46,3.46,0,0,0,0,10.46c.05,1.34,1,2.9,3.5,2.9h.36A4.6,4.6,0,0,0,5.42,13a7.26,7.26,0,0,0,4.5,1.19.52.52,0,0,1,.16,0,8.43,8.43,0,0,1,1.12,1.75l.1.21.23.47-.06,6.51s0,0,0,.05a2.21,2.21,0,0,0,.63,1.63,3.26,3.26,0,0,0,2.53.76A4.48,4.48,0,0,0,16,25.37h7.87a2,2,0,0,0,1.78-2.92q-.08-.15-.14-.3a2,2,0,0,0-.11-2.53,2,2,0,0,0-.19-.74l.22-.29a2,2,0,0,0-.9-3.22c2.39-.23,2.92-1.69,3-2.34A2.77,2.77,0,0,0,27,10.9a2.67,2.67,0,0,0-.47-.87A3.25,3.25,0,0,0,29,7.11c.11-1.61-1.13-3-3.88-4.17A3.78,3.78,0,0,0,21.58.78,4.31,4.31,0,0,0,19.06,0Zm4.26,15.36,0,0h0l-.06,0ZM17.7,17.62a8.8,8.8,0,0,1,.82-.94.4.4,0,0,1,.15,0A8.55,8.55,0,0,0,22.29,16a9.15,9.15,0,0,0-1.4,1.53l-.06,0a2,2,0,0,0-2.77.38l-.18.09-.17-.33Z"/></g><path class="c" d="M15.71,11.72c2.33-.95,4.2-2.3,4.38-4.17,0,0,0,.65,2.9.83s3.94-.46,4-1.4-2-2-3.8-2.66a.76.76,0,0,0,.1-.38c0-.64-.86-1.16-1.93-1.16a3.11,3.11,0,0,0-.57.05A2.12,2.12,0,0,0,18.7,2c-1.14.15-2,.94-1.88,1.77l0,.09a9.19,9.19,0,0,0-3.49,1.19h0a.68.68,0,0,0-.55-.25.74.74,0,0,0-.38.1c-.3,0-.59.24-.91.24a8.57,8.57,0,0,0-2.23.29,1.27,1.27,0,0,0-.51-.1,1,1,0,0,0-1.07.73,5.35,5.35,0,0,0-1.18.87,2.5,2.5,0,0,0-1.08-.24c-1.06,0-1.93.61-1.93,1.36a1,1,0,0,0,.14.51C2.92,9,2,9.59,2,10.38s.73,1,1.76,1a4.52,4.52,0,0,0,2.17-1,1.67,1.67,0,0,0,.64,1,5.37,5.37,0,0,0,3.34.82,2.09,2.09,0,0,1,1.59.62,13.56,13.56,0,0,1,2,3.4h0l-.06,6.95h0c0,.25-.08.42,1.15.42s1-.35,1-.61h0l0-5.46a5,5,0,0,1,1.48-2.2,2.09,2.09,0,0,1,1.59-.62A5.37,5.37,0,0,0,22,13.84a1.69,1.69,0,0,0,.63-1,1.68,1.68,0,0,0,1.47.52c2.14-.09,1.48-1.37,1-1.56a.62.62,0,0,0,0-.14c0-.44-.48-.8-1.08-.8a1.37,1.37,0,0,0-.59.13,5.92,5.92,0,0,0-.88-.17,1.67,1.67,0,0,0-1.25-.5A1.51,1.51,0,0,0,20,11.1c-1,.36-1.34,1-1,1.47s2.23.29,2.23.29h0a4.12,4.12,0,0,1-2.55.54,3.33,3.33,0,0,0-2.5,1,4,4,0,0,0-.69,1C15.26,14.22,14.91,12,15.71,11.72ZM11.95,8.07a5.59,5.59,0,0,0,.11.75,6,6,0,0,0-1.33-.75Zm1.67,4.05a5,5,0,0,0-.26,1.39,4.39,4.39,0,0,0-.95-1.61,3.33,3.33,0,0,0-2.5-1,4.74,4.74,0,0,1-2.42-.45,1.15,1.15,0,0,1-.18-.14,17,17,0,0,0,3.51.34,7.81,7.81,0,0,0,1.88-.34A3.39,3.39,0,0,0,14,11.37,3.31,3.31,0,0,0,13.61,12.12Zm1.11-1.49a2.56,2.56,0,0,1-1-.59,3.11,3.11,0,0,1-.83-2,9.31,9.31,0,0,0,2.91.49c1.18-.09,2.25-.84,1.15-1H18.1a3,3,0,0,1-.68,1.28,5.66,5.66,0,0,1-2.2,1.53A2.7,2.7,0,0,0,14.72,10.63Zm8.57,10.62a5.65,5.65,0,0,1,.11-1.51,3.94,3.94,0,0,0-1.1,2.51,3.25,3.25,0,0,0-.38,1.12h2a5.3,5.3,0,0,1-.54-1.7,4.67,4.67,0,0,1,.58-.71A2.69,2.69,0,0,0,23.29,21.25Zm.63-4a7.59,7.59,0,0,0-2.65,3.8,5,5,0,0,0-.45-.75,7.21,7.21,0,0,1,.55-.52,4.36,4.36,0,0,0-.74.26,5.46,5.46,0,0,0-1-1A6.79,6.79,0,0,1,20,20.36a5.91,5.91,0,0,0-1.24,1,3.77,3.77,0,0,0-.72-.52,5.89,5.89,0,0,1,.74-1.17,4.36,4.36,0,0,0-1,1,3,3,0,0,0-.51-.18s.16.14.38.36a6.38,6.38,0,0,0-.49.89C16,17,13,15.11,13,15.11a16.37,16.37,0,0,1,3,7,4.23,4.23,0,0,0-2.23-1.77,6.4,6.4,0,0,1,1.74,3H19c0-.06,0-.12,0-.18s0,.12,0,.18H21.8a6.38,6.38,0,0,0-.07-.81A11.89,11.89,0,0,1,23.92,17.27ZM17.5,23.35c0-.18-.06-.34-.09-.51a9.7,9.7,0,0,1,.53-1.63,6,6,0,0,1,.49.65A8.84,8.84,0,0,0,17.5,23.35Zm2.56-.24a6.32,6.32,0,0,0-.59-1,7.66,7.66,0,0,1,.7-1.07A5.57,5.57,0,0,1,20.05,23.11Z"/></svg>