<svg xmlns="http://www.w3.org/2000/svg" width="28.0005" height="24.5474" viewBox="0 0 28.0005 24.5474"><title>Asset 315</title><g id="Layer_2" data-name="Layer 2"><g id="Layer_1-2" data-name="Layer 1"><g opacity="0.8"><path d="M14.1212,23.7979c-.8325,0-1.314-.06-1.6333-.3848a.9958.9958,0,0,1-.2705-.76l.0635-6.8262c-.07-.1621-.2124-.4736-.4023-.85l-.0151-.0293a9.5122,9.5122,0,0,0-1.397-2.1514,1.347,1.347,0,0,0-1.05-.3965,6.0549,6.0549,0,0,1-3.8149-.9893,2.748,2.748,0,0,1-.459-.4687,4.0952,4.0952,0,0,1-1.8442.6582c-.1035.0049-.2046.0078-.3027.0078C1.0294,11.6084.7711,10.4209.7511,9.91A2.6527,2.6527,0,0,1,2.2687,7.751a1.6668,1.6668,0,0,1-.0093-.1777A2.4183,2.4183,0,0,1,4.9347,5.459a3.3893,3.3893,0,0,1,.916.125,6.1385,6.1385,0,0,1,.7344-.5205A1.8546,1.8546,0,0,1,8.26,4.0957a2.0513,2.0513,0,0,1,.5381.07,9.3959,9.3959,0,0,1,2.1987-.2568c.0078-.0039.0908-.0391.146-.0625a1.9687,1.9687,0,0,1,.585-.1729,1.53,1.53,0,0,1,1.1338.0049,9.6531,9.6531,0,0,1,2.7368-.9,2.7749,2.7749,0,0,1,2.5054-2A3.59,3.59,0,0,1,18.5572.75a2.9217,2.9217,0,0,1,2.0747.7861c.0806-.0049.1626-.0078.2456-.0078,1.481,0,2.6079.7754,2.6724,1.8184,3.8047,1.5459,3.7246,2.7705,3.6973,3.1855-.0635.9707-.7817,2.127-3.8457,2.127-.2949,0-.6133-.01-.9551-.0322a9.8239,9.8239,0,0,1-2.3882-.3857,5.231,5.231,0,0,1-1.6108,2.0156,3.0893,3.0893,0,0,1,.4946-.2637,2.3656,2.3656,0,0,1,1.93-.9033,2.52,2.52,0,0,1,1.5869.5371q.252.04.4941.0967a2.1451,2.1451,0,0,1,.6289-.0928,1.7406,1.7406,0,0,1,1.8154,1.33,1.5944,1.5944,0,0,1,.4365,1.3418c-.0845.4648-.48,1.2568-2.1846,1.3311l-.1533.0039a2.8668,2.8668,0,0,1-1.0444-.1846,2.78,2.78,0,0,1-.4619.4707,6.0514,6.0514,0,0,1-3.8149.9883,1.3467,1.3467,0,0,0-1.0508.3975,5.4717,5.4717,0,0,0-1.2705,1.7285l.0024.2393a13.825,13.825,0,0,1,.9834,2.042.76.76,0,0,1,.1313.0186c.03.0068.06.0146.0894.0225a4.5275,4.5275,0,0,1,.8647-.7842.7538.7538,0,0,1,.4043-.1182c.0225,0,.0449.001.0669.0029a.7491.7491,0,0,1,1.1841-.4717,6.3238,6.3238,0,0,1,.7725.6738c.1157-.0381.2295-.0713.3423-.0986a.7116.7116,0,0,1,.18-.0225h.0107A7.37,7.37,0,0,1,23.02,16.1348a.75.75,0,0,1,.98,1.11,7.3874,7.3874,0,0,0-.8413,1.2871.8232.8232,0,0,1,.11.05.75.75,0,0,1,.3687.8105q-.0352.1641-.0586.3281a.75.75,0,0,1,.36,1.2617,3.5323,3.5323,0,0,0-.3164.3623,4.5736,4.5736,0,0,0,.4185,1.1777.75.75,0,0,1-.6665,1.0938H15.2784A2.8051,2.8051,0,0,1,14.1212,23.7979ZM15.4972,11.91a4.2846,4.2846,0,0,0-.02,1.1719,3.9868,3.9868,0,0,1,2.2163-.9033,1.3454,1.3454,0,0,1-.0576-.8691,1.7249,1.7249,0,0,1,.54-.8447A12.4444,12.4444,0,0,1,15.4967,11.91Zm-2.001-3.2812a1.7048,1.7048,0,0,0,.2827.373,1.6581,1.6581,0,0,0,.3911.2871c.09-.0459.1816-.0879.2744-.125a5.7581,5.7581,0,0,0,.7075-.3447c-.0269.001-.0537.001-.0806.001A7.8789,7.8789,0,0,1,13.4962,8.6289Z" fill="#fff"/><path d="M18.5577,1.5a2.0011,2.0011,0,0,1,1.7492.83,3.1073,3.1073,0,0,1,.5706-.0519c1.0635,0,1.9255.5206,1.9255,1.163a.76.76,0,0,1-.1049.3784c1.8327.6882,3.8614,1.7325,3.8007,2.6635-.0538.8247-.9169,1.4263-3.0961,1.4263q-.4209,0-.9085-.0307c-2.8517-.182-2.8963-.8287-2.8963-.8287-.1894,1.8623-2.0578,3.2178-4.3846,4.1658-.8066.3285-.4567,2.5009-.223,3.6938a3.9816,3.9816,0,0,1,.6883-.9919,3.33,3.33,0,0,1,2.4953-1.0113,4.117,4.117,0,0,0,2.5536-.5428l.0012-.0008s-.2826.0212-.65.0212c-.57,0-1.3435-.0513-1.5773-.3131-.3843-.43-.0919-1.1173.9541-1.4723A1.5086,1.5086,0,0,1,20.8722,9.84a1.6713,1.6713,0,0,1,1.2473.4964,5.9188,5.9188,0,0,1,.8766.1719,1.3656,1.3656,0,0,1,.5862-.1279c.5983,0,1.0831.3591,1.0831.8025a.6187.6187,0,0,1-.0166.14c.443.1883,1.1054,1.4675-1.0321,1.5613-.0418.0018-.0825.0027-.1223.0027a1.6346,1.6346,0,0,1-1.3437-.5243,1.6875,1.6875,0,0,1-.6331.9776,5.3688,5.3688,0,0,1-3.343.8219,2.0939,2.0939,0,0,0-1.5892.625,4.9883,4.9883,0,0,0-1.4825,2.1954l.0046.5056a9.3315,9.3315,0,0,0-2.571-2.8711,10.4357,10.4357,0,0,0-1.5315-2.3421A2.0935,2.0935,0,0,0,9.4163,11.65a5.374,5.374,0,0,1-3.3434-.8218,1.6726,1.6726,0,0,1-.64-1.0167,4.5163,4.5163,0,0,1-2.1725,1.04q-.1355.0069-.2629.0069c-.8857,0-1.469-.258-1.4967-.9777-.03-.7888.9163-1.3339,1.6458-1.8031a1.0208,1.0208,0,0,1-.1372-.5052c0-.7534.862-1.3637,1.9255-1.3637a2.5033,2.5033,0,0,1,1.0809.2354,5.351,5.351,0,0,1,1.1777-.8677A1.0438,1.0438,0,0,1,8.26,4.8452a1.275,1.275,0,0,1,.508.1031,8.5686,8.5686,0,0,1,2.2291-.2891c.2993,0,.5731-.2415.8585-.2415a.4869.4869,0,0,1,.0507.0026.74.74,0,0,1,.3822-.1033.6807.6807,0,0,1,.55.2543l.01.0026a9.19,9.19,0,0,1,3.4877-1.186c-.0065-.03-.0118-.06-.0159-.09-.1059-.8352.7347-1.63,1.8776-1.7747A2.8561,2.8561,0,0,1,18.5577,1.5M15.0709,8.07a10.0988,10.0988,0,0,1-2.6483-.504A3.1131,3.1131,0,0,0,13.25,9.534a2.5557,2.5557,0,0,0,.9729.5939,2.7058,2.7058,0,0,1,.502-.2688A5.66,5.66,0,0,0,16.92,8.3308a3.01,3.01,0,0,0,.6777-1.28H16.4852c1.0965.17.0326.9191-1.1506,1.01-.0854.0066-.1735.01-.2637.01m-3.5133.2471a5.5829,5.5829,0,0,1-.1125-.7513H10.23a5.9657,5.9657,0,0,1,1.3277.7513m-1.563,1.8453a18.036,18.036,0,0,1-3.1783-.35,1.1472,1.1472,0,0,0,.1823.1351,4.7369,4.7369,0,0,0,2.4174.4471,3.33,3.33,0,0,1,2.4951,1.0114,4.3863,4.3863,0,0,1,.9474,1.607,4.963,4.963,0,0,1,.2552-1.3922,3.3131,3.3131,0,0,1,.3706-.7464,3.3912,3.3912,0,0,1-1.2735-1.0623,7.805,7.805,0,0,1-1.8819.3418c-.1038.0059-.2159.0087-.3344.0087m2.5361,4.4507.006.0039.0045.0089-.0105-.0128m.0105.0128a14.7392,14.7392,0,0,1,2.5884,5.273l.0106,1.1629a4.1891,4.1891,0,0,0-1.83-1.2236,6.3971,6.3971,0,0,1,1.7381,3.0281h.0244c-.1187.1058-.3822.1808-.9515.1808-1.2329,0-1.1531-.17-1.1531-.4235l0-.0012h-.001l.0649-6.9482-.0033,0c0-.0089-.1879-.4567-.4878-1.0481m10.8809,2.1414h.005m-.005,0a11.8889,11.8889,0,0,0-2.1938,5.29,6.3739,6.3739,0,0,1,.07.8093H18.55c-.0123-.0594-.0159-.1221-.03-.1811-.0188.0593-.03.1223-.0465.1811h-3.4c.1384-.1232.08-.2882.08-.4247l0-.0012h0L15.14,21.0621a4.1378,4.1378,0,0,1,.4033.5446c-.1047-.5181-.24-1.0969-.4139-1.7075l-.022-2.4108a13.6988,13.6988,0,0,1,1.5791,3.83,6.3853,6.3853,0,0,1,.4929-.8926c-.2177-.2225-.3791-.3579-.3791-.3579a2.9864,2.9864,0,0,1,.51.1771,4.36,4.36,0,0,1,1.02-1.037,5.8976,5.8976,0,0,0-.7413,1.1727,3.768,3.768,0,0,1,.7192.52,5.9128,5.9128,0,0,1,1.2384-1.0389,6.7915,6.7915,0,0,0-.4123-1.27,5.4636,5.4636,0,0,1,1.0054.96,4.3506,4.3506,0,0,1,.7358-.2593,7.2092,7.2092,0,0,0-.55.5169,5.0426,5.0426,0,0,1,.4489.7533,7.592,7.592,0,0,1,2.6485-3.7951m-3.8695,5.8449a5.5733,5.5733,0,0,0,.1163-2.05,7.6611,7.6611,0,0,0-.7048,1.0719,6.3237,6.3237,0,0,1,.5885.9779m-2.5553.2385a8.8352,8.8352,0,0,1,.93-1.4946,6.0161,6.0161,0,0,0-.4907-.6492,9.6989,9.6989,0,0,0-.5319,1.634c.0311.17.0658.3339.0923.51m5.9068-3.6138a5.6492,5.6492,0,0,0-.1144,1.5085,2.69,2.69,0,0,1,.62-.2943,4.676,4.676,0,0,0-.579.7115,5.2973,5.2973,0,0,0,.5442,1.7037H21.4233a3.2506,3.2506,0,0,1,.384-1.1223,3.9414,3.9414,0,0,1,1.0967-2.5071m.5055,1.2142h.005M18.5577,0A4.3659,4.3659,0,0,0,18.01.0348a3.6473,3.6473,0,0,0-3.0016,2.1059,10.0942,10.0942,0,0,0-2.2221.7314,2.2755,2.2755,0,0,0-1.2389.0691,2.7912,2.7912,0,0,0-.6994.2155l-.0087.0038a10.1129,10.1129,0,0,0-2.04.2361A2.82,2.82,0,0,0,8.26,3.3452,2.6362,2.6362,0,0,0,6.0286,4.5264q-.185.1194-.3588.2475a4.1793,4.1793,0,0,0-.7348-.0648A3.1968,3.1968,0,0,0,1.5184,7.36,3.09,3.09,0,0,0,.0019,9.9387c.045,1.17.8556,2.42,2.9956,2.42q.1641,0,.3385-.0088a4.3384,4.3384,0,0,0,1.6594-.4691q.0648.0578.1329.113A6.6569,6.6569,0,0,0,9.4163,13.15c.3484,0,.4464.1012.5112.1682a8.6866,8.6866,0,0,1,1.2237,1.884,1.485,1.485,0,0,0,.091.1791c.1222.2438.22.453.2871.6013l-.0619,6.6257a1.7618,1.7618,0,0,0,.4852,1.3292,2.816,2.816,0,0,0,2.1685.61,3.83,3.83,0,0,0,1.3024-.1808h3.05l.0383,0,.0383,0h2.7491q.0312,0,.0623-.0013.0311.0013.0623.0013h1.9515a1.5,1.5,0,0,0,1.3334-2.187,3.8971,3.8971,0,0,1-.2632-.6417,1.5,1.5,0,0,0-.0433-2.2149,1.5007,1.5007,0,0,0-.2811-.9634,6.1619,6.1619,0,0,1,.4261-.5977,1.4991,1.4991,0,0,0-1.1081-2.4942h-.0172a1.4976,1.4976,0,0,0-.838.2563,7.8742,7.8742,0,0,0-2.096,2.2341q-.2209-.1938-.46-.3711a1.5005,1.5005,0,0,0-2.1548.3923,1.5,1.5,0,0,0-.3527.1662,3.6613,3.6613,0,0,0-.34.2529q-.2592-.5653-.56-1.097a6.0858,6.0858,0,0,1,1.0431-1.27c.065-.0671.1631-.1685.5116-.1685a6.6519,6.6519,0,0,0,4.2872-1.1564q.1191-.0964.228-.2008a3.846,3.846,0,0,0,.8046.082c.0612,0,.1238-.0013.1882-.0042,2.308-.1013,2.7895-1.3958,2.8893-1.9476a2.2868,2.2868,0,0,0-.4838-1.8244A2.2826,2.2826,0,0,0,25.05,9.277c2.3982-.4306,2.8882-1.8133,2.9457-2.6962.0923-1.4164-1.1147-2.6263-3.7812-3.7693A3.2646,3.2646,0,0,0,20.907.7784,3.7664,3.7664,0,0,0,18.5577,0Z" fill="#fff"/></g><path d="M15.2133,11.2159c2.3268-.948,4.1953-2.3035,4.3846-4.1658,0,0,.0446.6467,2.8963.8287s3.9439-.4647,4.0045-1.3955S24.5308,4.5079,22.6981,3.82a.76.76,0,0,0,.1049-.3784c0-.6424-.862-1.163-1.9255-1.163a3.1054,3.1054,0,0,0-.5706.0519,2.1205,2.1205,0,0,0-2.108-.8074c-1.1429.1451-1.9835.94-1.8776,1.7747.004.0306.0094.0606.0159.09a9.19,9.19,0,0,0-3.4877,1.186l-.01-.0026a.6808.6808,0,0,0-.55-.2543.7394.7394,0,0,0-.3822.1033c-.3038-.032-.5922.2389-.9092.2389a8.5681,8.5681,0,0,0-2.2291.2892,1.275,1.275,0,0,0-.508-.1031,1.0438,1.0438,0,0,0-1.0667.7314,5.3512,5.3512,0,0,0-1.1777.8677A2.5034,2.5034,0,0,0,4.9349,6.209c-1.0635,0-1.9255.61-1.9255,1.3638a1.0207,1.0207,0,0,0,.1372.5052C2.4172,8.5471,1.47,9.0922,1.5008,9.881s.7279,1.0229,1.76.9708a4.5162,4.5162,0,0,0,2.1725-1.04,1.6725,1.6725,0,0,0,.64,1.0167,5.3741,5.3741,0,0,0,3.3434.8218,2.0936,2.0936,0,0,1,1.5889.6249,13.5586,13.5586,0,0,1,2.0238,3.3991l.0033,0-.0649,6.9482h.001l0,.0012c0,.2537-.08.4235,1.1531.4235s1.0317-.3518,1.0317-.6056l0-.0012h0l-.05-5.4579a4.9884,4.9884,0,0,1,1.4825-2.1954,2.0939,2.0939,0,0,1,1.5892-.625,5.3687,5.3687,0,0,0,3.343-.822,1.6874,1.6874,0,0,0,.6331-.9775,1.6816,1.6816,0,0,0,1.466.5215c2.1375-.0939,1.4751-1.373,1.0321-1.5613a.6185.6185,0,0,0,.0166-.14c0-.4434-.4849-.8025-1.0831-.8025a1.3654,1.3654,0,0,0-.5862.1279,5.9157,5.9157,0,0,0-.8766-.172A1.6714,1.6714,0,0,0,20.8722,9.84a1.5086,1.5086,0,0,0-1.4163.7586c-1.046.355-1.3385,1.0419-.9541,1.4723s2.2269.2919,2.2269.2919l-.0012.0008a4.117,4.117,0,0,1-2.5535.5428,3.33,3.33,0,0,0-2.4953,1.0113,3.9815,3.9815,0,0,0-.6883.9919C14.7566,13.7168,14.4067,11.5443,15.2133,11.2159Zm-3.7682-3.65a5.5868,5.5868,0,0,0,.1125.7513A5.9648,5.9648,0,0,0,10.23,7.5661Zm1.6686,4.0548a4.9635,4.9635,0,0,0-.2552,1.3922,4.3865,4.3865,0,0,0-.9474-1.607A3.33,3.33,0,0,0,9.416,10.3946a4.7369,4.7369,0,0,1-2.4174-.4471,1.1464,1.1464,0,0,1-.1823-.1351,16.9451,16.9451,0,0,0,3.5127.3417,7.8053,7.8053,0,0,0,1.8819-.3418,3.391,3.391,0,0,0,1.2735,1.0623A3.3134,3.3134,0,0,0,13.1137,11.6209Zm1.1093-1.4929A2.5557,2.5557,0,0,1,13.25,9.534a3.1131,3.1131,0,0,1-.8275-1.9677,9.3061,9.3061,0,0,0,2.912.4944c1.1832-.091,2.247-.84,1.1506-1.01H17.598a3.01,3.01,0,0,1-.6777,1.28,5.66,5.66,0,0,1-2.1953,1.5284A2.7032,2.7032,0,0,0,14.2231,10.128ZM22.79,20.7456a5.6486,5.6486,0,0,1,.1144-1.5084,3.9414,3.9414,0,0,0-1.0967,2.5071,3.2509,3.2509,0,0,0-.384,1.1223h1.9515a5.2968,5.2968,0,0,1-.5442-1.7037,4.6744,4.6744,0,0,1,.579-.7115A2.6917,2.6917,0,0,0,22.79,20.7456Zm.6324-3.9781a7.592,7.592,0,0,0-2.6485,3.7951,5.0391,5.0391,0,0,0-.4489-.7533,7.2058,7.2058,0,0,1,.55-.5169,4.355,4.355,0,0,0-.7358.2593,5.4634,5.4634,0,0,0-1.0054-.96,6.7913,6.7913,0,0,1,.4123,1.27,5.9123,5.9123,0,0,0-1.2384,1.0389,3.7693,3.7693,0,0,0-.7192-.52A5.8947,5.8947,0,0,1,18.33,19.208a4.3593,4.3593,0,0,0-1.02,1.037,2.9857,2.9857,0,0,0-.51-.177s.1614.1353.3791.3579a6.3822,6.3822,0,0,0-.4929.8926c-1.2176-4.8507-4.1561-6.705-4.1561-6.705a16.3738,16.3738,0,0,1,3.0129,6.9932A4.2263,4.2263,0,0,0,13.31,19.8385a6.3968,6.3968,0,0,1,1.7381,3.028h3.4249c.0166-.0588.0277-.1218.0465-.1811.0142.059.0178.1217.03.1811h2.7491a6.3763,6.3763,0,0,0-.07-.8093A11.8891,11.8891,0,0,1,23.4222,16.7676Zm-6.4248,6.0833c-.0265-.1759-.0612-.34-.0923-.51a9.7,9.7,0,0,1,.5319-1.6339,6.01,6.01,0,0,1,.4907.6492A8.8356,8.8356,0,0,0,16.9973,22.8509Zm2.5553-.2384a6.3245,6.3245,0,0,0-.5885-.9779,7.66,7.66,0,0,1,.7048-1.0719A5.5729,5.5729,0,0,1,19.5527,22.6125Z" fill="#708a07"/></g></g></svg>