<svg xmlns="http://www.w3.org/2000/svg" width="32" height="21.5" viewBox="0 0 32 21.5">
  <title>feature-beehive_fence</title>
  <g id="Layer_2" data-name="Layer 2">
    <g id="Layer_1-2" data-name="Layer 1">
      <g>
        <path d="M24.6,15.3c-.3.3-1,1-.3,1.7a1.4,1.4,0,0,0,1,.5,1.2,1.2,0,0,0,1-.5l.2-.2a1.1,1.1,0,0,0,1.1-.7,9.3,9.3,0,0,1,.3-1,.6.6,0,0,0,.1.4,1.3,1.3,0,0,0,.6,1.7.1.1,0,0,0,.1.1c.1,0,.2,0,.2-.1s.1-.3,0-.3a1.2,1.2,0,0,1-.5-1,8.5,8.5,0,0,0,1.4.9l1.2.3c.2,0,.4,0,.5-.2s-.6-2.5-1-3.1a1,1,0,0,1,.9.5h.4c.1,0,.1-.2,0-.3a1.3,1.3,0,0,0-1.7-.6h-.5l1.1-.4a.9.9,0,0,0,.6-.9l.3-.2a1.5,1.5,0,0,0,.2-1.8l-.3-.4c-.7-.5-1.3.1-1.6.5A14.4,14.4,0,0,0,28,12.2h0l-.5-.2v-.5c0-.2-.1-.3-.2-.3s-.2.1-.2.3v.5l-.4.2-.2.4h-.6l-.2.2c0,.1.1.3.2.3h.6l.2.4h.1Z" fill="#1a2026"/>
        <path d="M25.2,1C25,.6,24.7-.2,23.9.1a1.1,1.1,0,0,0-.8.7,1.2,1.2,0,0,0,0,1,.4.4,0,0,0,.1.3.8.8,0,0,0,.2,1l.7.7h-.4a1.1,1.1,0,0,0-1.6-.2c-.1,0-.1,0-.1.1s-.1.1,0,.2.2.1.3.1.8-.2.9-.1a7.4,7.4,0,0,0-1.2.9,2.3,2.3,0,0,0-.7.8,1.1,1.1,0,0,0-.1.5c.3.8,2.3.5,3,.3s-.2.5-.8.6h-.1v.2c0,.1.1.2.3.2s1.1-1,1.1-1.3l.3-.3a5.8,5.8,0,0,0-.2,1,1,1,0,0,0,.6.9c0,.1.1.2.1.3a1.2,1.2,0,0,0,1.4.8h.4c.7-.3.4-1.1.2-1.5A14.5,14.5,0,0,0,26.4,5h.1l.4-.3.4.2c.2.1.3,0,.3-.1s0-.2-.1-.3L27,4.3c.1-.1,0-.3,0-.4s-.1-.2-.2-.3l.2-.5a.4.4,0,0,0-.1-.3l-.3.2-.2.4h-.5C25.8,3.2,25.2,1.1,25.2,1Z" fill="#1a2026"/>
        <path d="M10.4,1.2A4,4,0,0,0,7,3.6,2.4,2.4,0,0,0,4.7,5.8,2.4,2.4,0,0,0,2.2,8a2,2,0,0,0,.3,1.1h0A2.4,2.4,0,0,0,0,11.3a2.4,2.4,0,0,0,2.5,2.2h0a2,2,0,0,0,.9,3,2.8,2.8,0,0,0,1.3.3A2.2,2.2,0,0,0,7,19a4.2,4.2,0,0,0,4.2,2.5A4.2,4.2,0,0,0,15.3,19a2.3,2.3,0,0,0,2.4-2.2,2.4,2.4,0,0,0,2.5-2.2,1.7,1.7,0,0,0-.4-1.1h.1a2.3,2.3,0,0,0,2.4-2.2,2.3,2.3,0,0,0-2.4-2.2h-.1a2.1,2.1,0,0,0-.9-3,2.7,2.7,0,0,0-1.2-.3,2.4,2.4,0,0,0-2.4-2.2A4,4,0,0,0,12,1.2H10.4Zm.8,19.2A3.4,3.4,0,0,1,8.3,19H14A3.4,3.4,0,0,1,11.2,20.4Zm4-2.5H7.1a1.2,1.2,0,0,1-1.2-1.1H16.4A1.1,1.1,0,0,1,15.2,17.9Zm3.7-3.3a1.1,1.1,0,0,1-1.2,1.1H4.7a1.2,1.2,0,0,1-1.3-1.1,1.2,1.2,0,0,1,1.3-1.1h13A1.1,1.1,0,0,1,18.9,14.6Zm2.2-3.3a1.2,1.2,0,0,1-1.2,1.1H16.6a.8.8,0,0,0,.2-.5,1.2,1.2,0,0,0-1.3-1.1,1.1,1.1,0,0,0-1.2,1.1.7.7,0,0,0,.1.5H2.5a1.2,1.2,0,0,1-1.3-1.1,1.2,1.2,0,0,1,1.3-1.1H19.9A1.2,1.2,0,0,1,21.1,11.3ZM18.9,8a1.1,1.1,0,0,1-1.2,1.1H4.7A1.2,1.2,0,0,1,3.4,8,1.2,1.2,0,0,1,4.7,6.9h13A1.1,1.1,0,0,1,18.9,8ZM16.4,5.8H5.9A1.2,1.2,0,0,1,7.1,4.7h8.1A1.1,1.1,0,0,1,16.4,5.8ZM14,3.6H8.3A3.7,3.7,0,0,1,13,2.7,4.3,4.3,0,0,1,14,3.6Z" fill="#1a2026"/>
      </g>
    </g>
  </g>
</svg>
