<?xml version="1.0" encoding="UTF-8" standalone="no"?>
<svg
   xmlns:dc="http://purl.org/dc/elements/1.1/"
   xmlns:cc="http://creativecommons.org/ns#"
   xmlns:rdf="http://www.w3.org/1999/02/22-rdf-syntax-ns#"
   xmlns:svg="http://www.w3.org/2000/svg"
   xmlns="http://www.w3.org/2000/svg"
   xmlns:sodipodi="http://sodipodi.sourceforge.net/DTD/sodipodi-0.dtd"
   xmlns:inkscape="http://www.inkscape.org/namespaces/inkscape"
   width="15.4445"
   height="19"
   viewBox="0 0 15.4445 19"
   version="1.1"
   id="svg42"
   sodipodi:docname="building-brown.svg"
   inkscape:version="1.0.1 (3bc2e813f5, 2020-09-07)">
  <metadata
     id="metadata48">
    <rdf:RDF>
      <cc:Work
         rdf:about="">
        <dc:format>image/svg+xml</dc:format>
        <dc:type
           rdf:resource="http://purl.org/dc/dcmitype/StillImage" />
        <dc:title>building</dc:title>
      </cc:Work>
    </rdf:RDF>
  </metadata>
  <defs
     id="defs46" />
  <sodipodi:namedview
     pagecolor="#ffffff"
     bordercolor="#666666"
     borderopacity="1"
     objecttolerance="10"
     gridtolerance="10"
     guidetolerance="10"
     inkscape:pageopacity="0"
     inkscape:pageshadow="2"
     inkscape:window-width="1920"
     inkscape:window-height="1001"
     id="namedview44"
     showgrid="false"
     inkscape:zoom="42.157895"
     inkscape:cx="15.95704"
     inkscape:cy="9.5"
     inkscape:window-x="-9"
     inkscape:window-y="-9"
     inkscape:window-maximized="1"
     inkscape:current-layer="Layer_1-2" />
  <title
     id="title30">building</title>
  <g
     id="Layer_2"
     data-name="Layer 2">
    <g
       id="Layer_1-2"
       data-name="Layer 1">
      <g
         opacity="0.8"
         id="g36">
        <path
           d="M11.542,18.25a.75.75,0,0,1-.75-.75V11.1387H10V17.5a.75.75,0,0,1-.75.75H1.5a.75.75,0,0,1-.75-.75V1.5A.75.75,0,0,1,1.5.75H13.9443a.75.75,0,0,1,.75.75v16a.75.75,0,0,1-.75.75ZM6.083,14.9727v-3.834H5.0273v3.834Zm4.334-7.1113V5.8057H9.3613V7.8613Zm-4.334,0V5.8057H5.0273V7.8613Z"
           fill="#fff"
           id="path32" />
        <path
           d="M13.9445,1.5v16H11.5416V10.3889H9.25V17.5H1.5V1.5H13.9445M8.6111,8.6111h2.5555V5.0555H8.6111V8.6111m-4.3333,0H6.8334V5.0555H4.2778V8.6111m0,7.1111H6.8334V10.3889H4.2778v5.3333M13.9445,0H1.5A1.5,1.5,0,0,0,0,1.5v16A1.5,1.5,0,0,0,1.5,19H9.25a1.4965,1.4965,0,0,0,1.1458-.5319A1.4969,1.4969,0,0,0,11.5416,19h2.4028a1.5,1.5,0,0,0,1.5-1.5V1.5a1.5,1.5,0,0,0-1.5-1.5Z"
           fill="#fff"
           id="path34" />
      </g>
      <path
         d="M1.5,1.5v16H8.6111V10.3889h3.5556V17.5h1.7778V1.5ZM6.8333,15.7222H3.2778V10.3889H6.8333Zm0-7.1111H3.2778V5.0556H6.8333Zm5.3333,0H8.6111V5.0556h3.5556Z"
         fill="#1a2026"
         id="path38"
         style="fill:#a05a2c" />
    </g>
  </g>
</svg>
