<svg xmlns="http://www.w3.org/2000/svg" width="20" height="16.6" viewBox="0 0 20 16.6">
  <title>camera trap</title>
  <g id="Layer_2" data-name="Layer 2">
    <g id="Layer_1-2" data-name="Layer 1">
      <path d="M10,6.4A3.2,3.2,0,0,0,6.8,9.7,3.2,3.2,0,0,0,10,12.9a3.2,3.2,0,0,0,3.3-3.2A3.3,3.3,0,0,0,10,6.4Zm8.6-4.1H14.9L14.4.9C14.2.1,13.8,0,13,0H7C6.2,0,5.8.1,5.6.9L5.1,2.3H3.9V1.8a.3.3,0,0,0-.3-.3H2a.3.3,0,0,0-.3.3v.5H1.4A1.5,1.5,0,0,0,0,3.8V15.1a1.5,1.5,0,0,0,1.4,1.5H18.6A1.5,1.5,0,0,0,20,15.1V3.8A1.5,1.5,0,0,0,18.6,2.3ZM10,14.5A4.8,4.8,0,0,1,5.2,9.7,4.7,4.7,0,0,1,10,4.9a4.7,4.7,0,0,1,4.8,4.8A4.8,4.8,0,0,1,10,14.5Z" fill="#1a2026"/>
    </g>
  </g>
</svg>
