<svg xmlns="http://www.w3.org/2000/svg" viewBox="0 0 22 18.76"><defs><style>.a{opacity:0.8;}.b{fill:#fff;}.c{fill:#1a2026;}</style></defs><title>Asset 200</title><g class="a"><path class="b" d="M3.2,17.76A2.16,2.16,0,0,1,1,15.56v-1.2a2.16,2.16,0,0,1,2.2-2.2h0L9.55,1.84A1.62,1.62,0,0,1,11,1a1.66,1.66,0,0,1,1.5.92l6.27,10.25h0a2.16,2.16,0,0,1,2.2,2.2v1.2a2.16,2.16,0,0,1-2.2,2.2Zm9.12-5.6L11,9l-1.4,3.11Z"/><path class="b" d="M11,2a.66.66,0,0,1,.6.36l6.6,10.8h.6a1.18,1.18,0,0,1,1.2,1.2v1.2a1.18,1.18,0,0,1-1.2,1.2H3.2A1.18,1.18,0,0,1,2,15.56v-1.2a1.18,1.18,0,0,1,1.2-1.2h.6l6.6-10.8A.66.66,0,0,1,11,2M8,13.16h5.8L11,6.56l-3,6.6M11,0A2.65,2.65,0,0,0,8.66,1.37l-6,9.83A3.14,3.14,0,0,0,0,14.36v1.2a3.13,3.13,0,0,0,3.2,3.2H18.8a3.13,3.13,0,0,0,3.2-3.2v-1.2a3.14,3.14,0,0,0-2.65-3.16l-6-9.83A2.65,2.65,0,0,0,11,0Z"/></g><path class="c" d="M10.4,2.36,3.8,13.16H3.2A1.18,1.18,0,0,0,2,14.36v1.2a1.18,1.18,0,0,0,1.2,1.2H18.8a1.18,1.18,0,0,0,1.2-1.2v-1.2a1.18,1.18,0,0,0-1.2-1.2h-.6L11.6,2.36A.68.68,0,0,0,10.4,2.36Zm.6,4.2,3.84,6.6H7Z"/></svg>