<svg xmlns="http://www.w3.org/2000/svg" width="21" height="17.76" viewBox="0 0 21 17.76"><title>Asset 318</title><g id="Layer_2" data-name="Layer 2"><g id="Layer_1-2" data-name="Layer 1"><g opacity="0.8"><path d="M2.7,17.01A1.8954,1.8954,0,0,1,.75,15.06V13.86A1.8954,1.8954,0,0,1,2.7,11.91h.1787L9.2607,1.4688A1.3772,1.3772,0,0,1,10.5.75a1.4042,1.4042,0,0,1,1.2705.7764L18.1211,11.91H18.3a1.8954,1.8954,0,0,1,1.95,1.95V15.06a1.8954,1.8954,0,0,1-1.95,1.95Zm9.501-5.1L10.4854,7.9238,8.6982,11.91Z" fill="#fff"/><path d="M10.5,1.5a.66.66,0,0,1,.6.36l6.6,10.8h.6a1.1753,1.1753,0,0,1,1.2,1.2v1.2a1.1753,1.1753,0,0,1-1.2,1.2H2.7a1.1753,1.1753,0,0,1-1.2-1.2v-1.2a1.1753,1.1753,0,0,1,1.2-1.2h.6L9.9,1.86a.66.66,0,0,1,.6-.36M7.54,12.66h5.8L10.5,6.06l-2.96,6.6M10.5,0A2.1547,2.1547,0,0,0,8.5962,1.1169L2.453,11.1695A2.6423,2.6423,0,0,0,0,13.86v1.2a2.6443,2.6443,0,0,0,2.7,2.7H18.3a2.6443,2.6443,0,0,0,2.7-2.7v-1.2a2.6423,2.6423,0,0,0-2.453-2.6905L12.4038,1.1169A2.1547,2.1547,0,0,0,10.5,0ZM9.8567,11.16l.6149-1.3711.59,1.3711Z" fill="#fff"/></g><path d="M9.9,1.86,3.3,12.66H2.7a1.1753,1.1753,0,0,0-1.2,1.2v1.2a1.1753,1.1753,0,0,0,1.2,1.2H18.3a1.1753,1.1753,0,0,0,1.2-1.2v-1.2a1.1753,1.1753,0,0,0-1.2-1.2h-.6L11.1,1.86A.68.68,0,0,0,9.9,1.86Zm.6,4.2,3.84,6.6H6.54Z" fill="#708a07"/></g></g></svg>