<svg xmlns="http://www.w3.org/2000/svg" viewBox="0 0 30 29.4"><defs><style>.cls-1{fill:#1a2026;}</style></defs><g id="Layer_2" data-name="Layer 2"><g id="Layer_1-2" data-name="Layer 1"><path class="cls-1" d="M.75,18.9a.76.76,0,0,1,.75.75V23.4H7.85L13.44,15l-7.81-4.5a.74.74,0,0,1-.29-1l0,0L10.61.37a.75.75,0,0,1,1-.27l15.59,9a.74.74,0,0,1,.28,1h0l-5.25,9.09a.75.75,0,0,1-1,.28h0l-6.48-3.75L8.87,24.56a.75.75,0,0,1-.62.34H1.5v3.75a.75.75,0,0,1-1.5,0v-9a.76.76,0,0,1,.75-.75Z"/><path class="cls-1" d="M29.62,14a.74.74,0,0,1,.28,1l-2.25,3.9a.74.74,0,0,1-1,.27h0L24.67,18l3-5.2Z"/></g></g></svg>
