<svg xmlns="http://www.w3.org/2000/svg" viewBox="0 0 15 21.48">
    <defs>
        <style>.a{fill:#fff;}</style>
    </defs>
    <path d="M14.19,0H.81A.81.81,0,0,0,0,.81V14.19A.81.81,0,0,0,.81,15H5l2.13,6.25a.4.4,0,0,0,.72,0L10,15h4.2a.81.81,0,0,0,.81-.81V.81A.81.81,0,0,0,14.19,0Z"/>
    <path class="a"
          d="M11.18,7.43l2.28-1.32a.06.06,0,0,0,0-.09L11.72,3a.08.08,0,0,0-.1,0L9.34,4.24V1.61a.07.07,0,0,0-.07-.07H5.73a.07.07,0,0,0-.07.07V4.24L3.38,2.93a.08.08,0,0,0-.1,0L1.51,6a.06.06,0,0,0,0,.09L3.82,7.43,1.54,8.75a.07.07,0,0,0,0,.1l1.77,3.06a.07.07,0,0,0,.1,0l2.28-1.32v2.64a.07.07,0,0,0,.07.07H9.27a.07.07,0,0,0,.07-.07V10.62l2.28,1.32a.07.07,0,0,0,.1,0l1.77-3.06a.07.07,0,0,0,0-.1ZM7.72,2.06a.12.12,0,0,1,.12.12c0,.14,0,.38,0,.71a2.29,2.29,0,0,0-.33,0,2,2,0,0,0-.4.11h0V2.73A.65.65,0,0,1,7.72,2.06Zm-.83,9.18v.09l.07.09.08.09.12.09v0a2.42,2.42,0,0,0,0,.25l-.06,0a1.19,1.19,0,0,1-.23-.16l-.11-.1a1,1,0,0,1-.09-.13l0,0s0,0,0,0,0,0,0,0v-.07h0v0a.29.29,0,0,1,0-.09,1.09,1.09,0,0,1,.08-.15l.1-.12a1.3,1.3,0,0,1,.23-.18,1.88,1.88,0,0,1,.23-.16l.46-.31A1.56,1.56,0,0,0,8,10a.63.63,0,0,0,.12-.18V9.76h0v0h0s0,0,0,0A.33.33,0,0,0,8,9.51a1.05,1.05,0,0,0-.21-.12V9.06l.11,0a1.28,1.28,0,0,1,.27.16l.13.11a.86.86,0,0,1,.1.16l0,.09v0h0v.05h0v.07l0,.1-.09.15-.11.12-.24.18-.47.3-.23.15A1.56,1.56,0,0,0,7,11a.41.41,0,0,0-.13.17.06.06,0,0,0,0,0h0Zm.3-3,0,0a2.36,2.36,0,0,1,.23-.13L7.58,8,7.71,8c0,.22,0,.43,0,.65v.22c0,.23,0,.45,0,.67s0,.4,0,.58a2.23,2.23,0,0,1-.3.2l-.11.08h0c0-.25,0-.52,0-.8s0-.68,0-1C7.2,8.43,7.19,8.34,7.19,8.24Zm.45,3c0,.06,0,.11,0,.17h0v.16h0c0,.08,0,.29,0,.54v.05h0c0,.12,0,.24,0,.37a.09.09,0,0,1-.18,0v-.07h0c0-.07,0-.14,0-.21h0v-.07h0v-.13h0v-.05h0c0-.23,0-.41,0-.45s0-.13,0-.2,0-.29,0-.45l0,0,.23-.14a.41.41,0,0,1,.11-.07h0C7.64,10.92,7.64,11.11,7.64,11.28Zm.87,1a5.33,5.33,0,0,1-.76-.17l-.09,0,0-.2.13.07.7.32S8.52,12.31,8.51,12.3Zm.14-5.51h0v0h0a.13.13,0,0,1,0,.06V7l0,0a.88.88,0,0,1-.2.29,1.5,1.5,0,0,1-.24.2l-.24.16L7.41,8l-.24.13L7,8.25a.59.59,0,0,0-.16.15.13.13,0,0,0,0,.07v0h0s0,0,0,0l0,0,.07.07.21.12,0,0v.36L7,9.08a1.91,1.91,0,0,1-.28-.15.75.75,0,0,1-.14-.12l-.06-.08a1,1,0,0,0,0-.1v-.1h0a.49.49,0,0,1,0-.12.54.54,0,0,1,.07-.19l.12-.14A.63.63,0,0,1,6.73,8,2.2,2.2,0,0,1,7,7.79l.24-.15a5.5,5.5,0,0,0,.48-.28l.22-.15.18-.16a.45.45,0,0,0,.11-.17V6.82h0v0h0v0h0a.31.31,0,0,0-.07-.16L8.08,6.5A.6.6,0,0,0,8,6.42l-.14-.1c0-.17,0-.35,0-.52a3.35,3.35,0,0,1,.4.29l.11.1.11.13.09.16a1,1,0,0,1,.05.18v.13ZM7.1,4a.65.65,0,0,1,.15-.05h0a1.16,1.16,0,0,1,.32,0,.52.52,0,0,1,.18,0c0,.49,0,1.07,0,1.67,0,.27,0,.54,0,.82s0,.52,0,.79l-.09.06-.37.21-.08,0c0-.48,0-1,0-1.43s0-.91,0-1.33S7.1,4.2,7.1,4Zm2,0s-.09.08-.71-.06a4.12,4.12,0,0,0-.73-.16,1.42,1.42,0,0,0-.36,0,.94.94,0,0,0-.38.15.93.93,0,0,0-.29.35.79.79,0,0,0-.1.45.79.79,0,0,0,.14.34.63.63,0,0,0,.18.16l.07,0L7,5.32c0,.18,0,.36,0,.55l-.37-.2L6.52,5.6a2.66,2.66,0,0,1-.26-.2A1.27,1.27,0,0,1,6,5.11a1.1,1.1,0,0,1-.11-.69,1.39,1.39,0,0,1,.46-.77,3.31,3.31,0,0,1,.26-.23l.05,0,.09-.06.09-.05.06,0,.07,0,.13-.06a1.84,1.84,0,0,1,.39-.1,1.58,1.58,0,0,1,.8,0,1.25,1.25,0,0,1,.57.35C9,3.58,9.16,3.86,9.07,4Z"/>
    <path class="a" d="M8.56,3.35c-.09,0-.18,0-.2,0s0,.15.11.19.17,0,.2,0S8.64,3.4,8.56,3.35Z"/>
</svg>