<svg xmlns="http://www.w3.org/2000/svg" width="28.6151" height="21.4944" viewBox="0 0 28.6151 21.4944"><title>Asset 319</title><g id="Layer_2" data-name="Layer 2"><g id="Layer_1-2" data-name="Layer 1"><path d="M0,0" transform="translate(-2.5954 -7.4458)" fill="#1a2026"/><path d="M2.3425,32.9458" transform="translate(-2.5954 -7.4458)" fill="#1a2026"/><g opacity="0.8"><path d="M11.539,28.1628a.9077.9077,0,0,1-.5654-.2236.8554.8554,0,0,1-.2607-.6016V9.0212a.9006.9006,0,0,1,.2422-.583.83.83,0,0,1,.584-.2422h2.38a.891.891,0,0,1,.8047.6406l4.3945,18.3086a.9.9,0,0,1-.1553.7041.821.821,0,0,1-.6484.3135Z" transform="translate(-2.5954 -7.4458)" fill="#fff"/><path d="M13.9188,8.9458a.0754.0754,0,0,1,.0735.058L18.3881,27.32a.0755.0755,0,0,1-.0736.0935H11.5391a.0761.0761,0,0,1-.0759-.0757V9.0217a.0761.0761,0,0,1,.0759-.0759h2.38m0-1.5h-2.38A1.576,1.576,0,0,0,9.9632,9.0217V27.3375a1.576,1.576,0,0,0,1.5759,1.5757h6.7754a1.5681,1.5681,0,0,0,1.2321-.5932,1.5844,1.5844,0,0,0,.3-1.3519L15.451,8.6537a1.5684,1.5684,0,0,0-1.5321-1.208Z" transform="translate(-2.5954 -7.4458)" fill="#fff"/><path d="M28.3876,24.5905a2.6284,2.6284,0,0,1-1.8008-.71l-.0908-.0869a3.5559,3.5559,0,0,0-2.4434-.9717l-.041.001a3.5416,3.5416,0,0,0-1.3486.2793,3.5831,3.5831,0,0,0-.9316.584.7892.7892,0,0,1-.1152.0811.4873.4873,0,0,0-.0947.07,2.5878,2.5878,0,0,1-.82.5459,2.6344,2.6344,0,0,1-.9932.207h-.001a2.664,2.664,0,0,1-1.0156-.19c-.0771-.0312-.1484-.0635-.22-.1006a.7526.7526,0,0,1-.3828-.4873l-.7246-2.9512a.75.75,0,0,1,1.2051-.7578c.0928.0762.1641.1357.2314.1992l.1094.1055a1.1432,1.1432,0,0,0,.3408.2139,1.1147,1.1147,0,0,0,.4248.0811,1.1263,1.1263,0,0,0,.7969-.3242,1.9464,1.9464,0,0,1,.3311-.2588,5.0093,5.0093,0,0,1,3.1787-1.1846H24a5.0629,5.0629,0,0,1,3.5107,1.3643l.11.1084a1.129,1.129,0,0,0,.7646.2949,1.1276,1.1276,0,0,0,.4424-.0879,1.1672,1.1672,0,0,0,.3564-.2373.7507.7507,0,0,1,1.2764.5342l-.001,2.3877a.7474.7474,0,0,1-.2256.5361,2.6375,2.6375,0,0,1-1.8154.7549h-.0312Z" transform="translate(-2.5954 -7.4458)" fill="#fff"/><path d="M24.0525,19.6851a4.3087,4.3087,0,0,1,2.9462,1.1635l.0181.0176.08.0785a1.8958,1.8958,0,0,0,.5846.3725,1.8761,1.8761,0,0,0,.7043.1357h.0223a1.8692,1.8692,0,0,0,.7128-.1476,1.8991,1.8991,0,0,0,.5875-.3916l.0018-.0018L29.71,23.2993l-.0013.0013a1.8813,1.8813,0,0,1-1.3013.54h-.02a1.87,1.87,0,0,1-.7054-.1357,1.8956,1.8956,0,0,1-.5841-.3725l-.0808-.0787-.0184-.0176a4.3062,4.3062,0,0,0-2.9454-1.1633l-.0528,0h.0034a4.2675,4.2675,0,0,0-2.7607,1.0444,1.2086,1.2086,0,0,0-.245.1839,1.8788,1.8788,0,0,1-1.3014.54h-.02a1.8708,1.8708,0,0,1-.7054-.1357c-.0523-.0209-.1033-.0448-.1541-.0707l-.724-2.9516c.0658.0547.1326.108.1948.1666l.02.0189.079.0772a1.88,1.88,0,0,0,1.2887.5082h.0223a1.8712,1.8712,0,0,0,.7131-.1476,1.8953,1.8953,0,0,0,.5869-.3917,1.2229,1.2229,0,0,1,.244-.1831,4.2668,4.2668,0,0,1,2.7617-1.0454l-.0036,0,.0526-.0005m0-1.5-.0348,0h-.03a5.7635,5.7635,0,0,0-3.6289,1.3283,2.709,2.709,0,0,0-.4066.325.4064.4064,0,0,1-.1269.086.3713.3713,0,0,1-.144.0286.3811.3811,0,0,1-.271-.1052l-.0538-.0532-.0373-.0355c-.0769-.0724-.155-.1382-.2338-.2032a1.5524,1.5524,0,0,0-.9844-.3517A1.5034,1.5034,0,0,0,16.6362,21.04l.724,2.9517a1.5,1.5,0,0,0,.7759.9792c.0915.0466.1836.0891.2778.1268a3.3649,3.3649,0,0,0,1.2626.2431l.04,0v0a3.3782,3.3782,0,0,0,2.3013-.9388,1.4958,1.4958,0,0,0,.2021-.1461,2.8249,2.8249,0,0,1,.7363-.4618,2.79,2.79,0,0,1,1.064-.2211h.0015l.0318,0a2.8061,2.8061,0,0,1,1.9211.7592l.0768.0749a3.42,3.42,0,0,0,1.0709.69,3.366,3.366,0,0,0,1.2654.2442l.04-.0005v0a3.3815,3.3815,0,0,0,2.3277-.9642A1.5,1.5,0,0,0,31.21,23.3l.0005-2.3875a1.5,1.5,0,0,0-2.5562-1.0655.4.4,0,0,1-.1183.0775.37.37,0,0,1-.1442.0289.3877.3877,0,0,1-.1509-.0277.3967.3967,0,0,1-.12-.0773l-.055-.0543-.0424-.0408a5.8087,5.8087,0,0,0-3.97-1.5677Z" transform="translate(-2.5954 -7.4458)" fill="#fff"/><path d="M28.3866,28.19a5.0531,5.0531,0,0,1-3.46-1.3662l-.11-.1074a1.141,1.141,0,0,0-1.207-.2061,1.1512,1.1512,0,0,0-.3574.2383,1.9407,1.9407,0,0,1-.3291.2578,5.0167,5.0167,0,0,1-3.19,1.1826c-.0225,0-.2393-.002-.3115-.0059a.7512.7512,0,0,1-.6885-.57l-.6436-2.626a.75.75,0,0,1,1.0635-.85l.1025.0469a1.107,1.107,0,0,0,.4219.08,1.139,1.139,0,0,0,.7959-.3252,1.9591,1.9591,0,0,1,.332-.26,5.0022,5.0022,0,0,1,3.1914-1.1826v.001A5.0524,5.0524,0,0,1,27.5106,23.86l.1074.1055a1.144,1.144,0,0,0,.3438.2168,1.147,1.147,0,0,0,.8662-.0078,1.1527,1.1527,0,0,0,.3564-.2363.75.75,0,0,1,1.2744.5361l.001,2.7568a.75.75,0,0,1-.5205.7139,5.0663,5.0663,0,0,1-1.4961.2441Z" transform="translate(-2.5954 -7.4458)" fill="#fff"/><path d="M24.0531,23.2459a4.3062,4.3062,0,0,1,2.9454,1.1633l.0184.0179.0808.0782a1.8815,1.8815,0,0,0,1.2895.5085h.02a1.87,1.87,0,0,0,.7139-.1484,1.893,1.893,0,0,0,.5875-.3914l.0016-.001v2.7587a4.3155,4.3155,0,0,1-1.2747.2077h-.0013l-.0474.0005a4.3067,4.3067,0,0,1-2.9483-1.1641l-.0181-.0176-.0808-.079a1.879,1.879,0,0,0-1.2866-.5078h-.02l-.0039.0005a1.8638,1.8638,0,0,0-.7131.1476,1.8955,1.8955,0,0,0-.5867.3914,1.2079,1.2079,0,0,1-.2453.1839A4.2683,4.2683,0,0,1,19.725,27.44h-.0013l-.0474.0005c-.072,0-.1435-.0018-.215-.0054l-.6442-2.6266c.0508.0257.1018.0493.1541.07a1.8721,1.8721,0,0,0,.7054.136h.02a1.8837,1.8837,0,0,0,1.3014-.54,1.2073,1.2073,0,0,1,.245-.1837,4.2638,4.2638,0,0,1,2.7607-1.0444H24l.0528-.0005m0-1.5-.0591,0-.01,0a5.7594,5.7594,0,0,0-3.6228,1.3262,2.6792,2.6792,0,0,0-.4124.33.3868.3868,0,0,1-.1212.0814.37.37,0,0,1-.14.03.401.401,0,0,1-.1558-.0272,1.5418,1.5418,0,0,0-.6953-.1648A1.5093,1.5093,0,0,0,17.36,25.1654l.6442,2.6266a1.5,1.5,0,0,0,1.3812,1.1408c.0967.0049.1933.0073.2906.0073.0166,0,.0806-.0009.0971-.0014a5.7308,5.7308,0,0,0,2.1677-.4578,5.7888,5.7888,0,0,0,1.425-.8676,2.6931,2.6931,0,0,0,.4112-.3287.4021.4021,0,0,1,.1234-.0835.3662.3662,0,0,1,.1438-.0292l.0112,0a.3884.3884,0,0,1,.1421.0276.3926.3926,0,0,1,.1187.0767l.0556.0549.0422.0406A5.8072,5.8072,0,0,0,28.3869,28.94c.0166,0,.0806-.0009.0971-.0014A5.7487,5.7487,0,0,0,30.17,28.66,1.5,1.5,0,0,0,31.21,27.2316V24.473a1.5,1.5,0,0,0-2.3128-1.2607l-.0458.0307a1.4975,1.4975,0,0,0-.1937.1605.3952.3952,0,0,1-.1218.0806.3683.3683,0,0,1-.138.03.3994.3994,0,0,1-.155-.0269.3851.3851,0,0,1-.12-.0767l-.063-.0612-.037-.0356a5.8062,5.8062,0,0,0-3.97-1.5675Z" transform="translate(-2.5954 -7.4458)" fill="#fff"/><rect x="0.7502" y="15.3928" width="7.6016" height="5.2969" rx="0.75" ry="0.75" fill="#fff"/><path d="M10.1969,23.5889v3.7969H4.0954V23.5889h6.1014m0-1.5H4.0954a1.5,1.5,0,0,0-1.5,1.5v3.7969a1.5,1.5,0,0,0,1.5,1.5h6.1014a1.5,1.5,0,0,0,1.5-1.5V23.5889a1.5,1.5,0,0,0-1.5-1.5Z" transform="translate(-2.5954 -7.4458)" fill="#fff"/><rect x="0.7502" y="10.5979" width="7.6016" height="5.2969" rx="0.75" ry="0.75" fill="#fff"/><path d="M10.1969,18.7935v3.7971H4.0954V18.7935h6.1014m0-1.5H4.0954a1.5,1.5,0,0,0-1.5,1.5v3.7971a1.5,1.5,0,0,0,1.5,1.5h6.1014a1.5,1.5,0,0,0,1.5-1.5V18.7935a1.5,1.5,0,0,0-1.5-1.5Z" transform="translate(-2.5954 -7.4458)" fill="#fff"/><rect x="0.7502" y="5.802" width="7.6016" height="5.2969" rx="0.75" ry="0.75" fill="#fff"/><path d="M10.1969,13.9981v3.7966H4.0954V13.9981h6.1014m0-1.5H4.0954a1.5,1.5,0,0,0-1.5,1.5v3.7966a1.5,1.5,0,0,0,1.5,1.5h6.1014a1.5,1.5,0,0,0,1.5-1.5V13.9981a1.5,1.5,0,0,0-1.5-1.5Z" transform="translate(-2.5954 -7.4458)" fill="#fff"/></g><path d="M18.3881,27.32,13.9924,9.0038a.0754.0754,0,0,0-.0736-.058h-2.38a.0761.0761,0,0,0-.0759.0759V27.3375a.0761.0761,0,0,0,.0759.0756h6.7754a.0755.0755,0,0,0,.0736-.0935Z" transform="translate(-2.5954 -7.4458)" fill="#1a2026"/><path d="M18.9712,23.7047a1.8712,1.8712,0,0,0,.7053.1357h.02a1.879,1.879,0,0,0,1.3014-.54,1.208,1.208,0,0,1,.245-.1839,4.2676,4.2676,0,0,1,2.7607-1.0444H24l.0528,0a4.3061,4.3061,0,0,1,2.9454,1.1633l.0184.0176.0808.0787a1.8952,1.8952,0,0,0,.5841.3725,1.87,1.87,0,0,0,.7053.1357h.02a1.8816,1.8816,0,0,0,1.3014-.54l.0013-.0013.0005-2.3875-.0018.0018a1.8986,1.8986,0,0,1-.5875.3917,1.8693,1.8693,0,0,1-.7128.1476h-.0223a1.876,1.876,0,0,1-.7043-.1357,1.8958,1.8958,0,0,1-.5846-.3725l-.08-.0785-.0181-.0176a4.3086,4.3086,0,0,0-2.9462-1.1636L24,19.6856l.0036,0a4.2667,4.2667,0,0,0-2.7618,1.0454,1.2244,1.2244,0,0,0-.244.1831,1.8948,1.8948,0,0,1-.587.3917,1.8706,1.8706,0,0,1-.7131.1476h-.0223a1.88,1.88,0,0,1-1.2887-.5082l-.079-.0772-.02-.0189c-.0622-.0585-.129-.1119-.1948-.1666l.724,2.9516C18.8678,23.66,18.9189,23.6837,18.9712,23.7047Z" transform="translate(-2.5954 -7.4458)" fill="#1a2026"/><path d="M29.7087,24.474a1.8933,1.8933,0,0,1-.5875.3914,1.87,1.87,0,0,1-.7139.1484h-.02a1.8816,1.8816,0,0,1-1.2894-.5085l-.0808-.0782-.0184-.0179a4.3061,4.3061,0,0,0-2.9454-1.1633L24,23.2464h.0034a4.264,4.264,0,0,0-2.7607,1.0444,1.2066,1.2066,0,0,0-.245.1837,1.8838,1.8838,0,0,1-1.3014.54h-.02a1.8713,1.8713,0,0,1-.7053-.136c-.0523-.021-.1034-.0446-.1541-.07l.6442,2.6265c.0715.0036.143.0054.215.0054l.0474-.0005h.0013a4.268,4.268,0,0,0,2.7594-1.0447,1.2071,1.2071,0,0,0,.2453-.1839,1.8959,1.8959,0,0,1,.5867-.3914,1.864,1.864,0,0,1,.7131-.1476l.0039-.0005h.02a1.8793,1.8793,0,0,1,1.2866.5077l.0808.079.0181.0176A4.3066,4.3066,0,0,0,28.3869,27.44l.0474-.0005h.0013a4.3165,4.3165,0,0,0,1.2747-.2077V24.4729Z" transform="translate(-2.5954 -7.4458)" fill="#1a2026"/><polygon points="1.5 16.143 1.5 17.981 1.5 18.103 1.5 19.94 7.601 19.94 7.601 18.103 7.601 17.981 7.601 16.143 1.5 16.143" fill="#1a2026"/><polygon points="1.5 11.348 1.5 13.185 1.5 13.307 1.5 15.145 7.601 15.145 7.601 13.307 7.601 13.185 7.601 11.348 1.5 11.348" fill="#1a2026"/><polygon points="1.5 6.552 1.5 8.389 1.5 8.512 1.5 10.349 7.601 10.349 7.601 8.512 7.601 8.389 7.601 6.552 1.5 6.552" fill="#1a2026"/></g></g></svg>