<?xml version="1.0" encoding="utf-8"?>
<!-- Generator: Adobe Illustrator 23.0.2, SVG Export Plug-In . SVG Version: 6.00 Build 0)  -->
<svg version="1.0" id="Layer_1" xmlns="http://www.w3.org/2000/svg" xmlns:xlink="http://www.w3.org/1999/xlink" x="0px" y="0px"
	 width="29.6px" height="22.5px" viewBox="0 0 29.6 22.5" enable-background="new 0 0 29.6 22.5" xml:space="preserve">
<title>Asset 260</title>
<path fill="#1A2026" d="M0.2,26"/>
<g opacity="0.8">
	<path fill="#FFFFFF" d="M9.4,21.5c-0.3,0-0.5-0.1-0.7-0.3c-0.2-0.2-0.3-0.5-0.3-0.8V2.1c0-0.3,0.1-0.6,0.3-0.8C8.9,1.1,9.2,1,9.4,1
		h2.4c0.5,0,0.9,0.4,1,0.8l4.4,18.3c0.1,0.3,0,0.7-0.2,0.9c-0.2,0.3-0.5,0.4-0.8,0.4H9.4z"/>
	<path fill="#FFFFFF" d="M11.8,2C11.9,2,11.9,2,11.8,2l4.5,18.4c0,0,0,0.1-0.1,0.1c0,0,0,0,0,0H9.4H9.4c0,0,0,0,0,0V2.1c0,0,0,0,0,0
		h0.1L11.8,2 M11.8,0H9.4c-1.1,0-2.1,0.9-2.1,2v18.3c0,1.1,0.9,2.1,2.1,2.1h6.8c0.6,0,1.2-0.3,1.6-0.8c0.4-0.5,0.5-1.2,0.4-1.8
		L13.8,1.6C13.6,0.7,12.8,0,11.8,0L11.8,0z"/>
	<path fill="#FFFFFF" d="M26.3,17.9c-0.7,0-1.5-0.3-2-0.8L24.2,17c-0.6-0.6-1.4-0.9-2.3-0.9l0,0c-0.4,0-0.9,0.1-1.2,0.3
		c-0.3,0.1-0.6,0.3-0.9,0.5L19.7,17c-0.3,0.3-0.6,0.5-0.9,0.6c-0.3,0.1-0.7,0.2-1.1,0.2l0,0c-0.4,0-0.8-0.1-1.1-0.2l-0.2-0.1
		c-0.3-0.1-0.4-0.4-0.5-0.6L15,14c-0.1-0.5,0.2-1.1,0.7-1.2c0.3-0.1,0.6,0,0.9,0.2l0.2,0.2l0.1,0.1c0.1,0.1,0.2,0.1,0.3,0.2
		c0.2,0.1,0.5,0.1,0.7,0c0.1,0,0.2-0.1,0.3-0.2c0.1-0.1,0.2-0.2,0.4-0.3c0.9-0.8,2.1-1.2,3.3-1.2l0,0c1.4,0,2.7,0.5,3.7,1.4l0.1,0.1
		c0.1,0.1,0.2,0.1,0.3,0.2c0.2,0.1,0.5,0.1,0.7,0c0.1,0,0.2-0.1,0.3-0.2c0.2-0.2,0.4-0.3,0.7-0.3c0.6,0,1,0.4,1,1v2.4
		c0,0.3-0.1,0.5-0.3,0.7c-0.3,0.3-0.6,0.5-0.9,0.6C27,17.9,26.7,17.9,26.3,17.9L26.3,17.9L26.3,17.9z"/>
	<path fill="#FFFFFF" d="M22,12.7c1.1,0,2.1,0.4,2.9,1.2l0,0L25,14c0.2,0.2,0.4,0.3,0.6,0.4c0.2,0.1,0.5,0.1,0.7,0.1l0,0
		c0.2,0,0.5-0.1,0.7-0.1c0.2-0.1,0.4-0.2,0.6-0.4l0,0v2.4l0,0c-0.3,0.3-0.8,0.5-1.3,0.5l0,0c-0.2,0-0.5,0-0.7-0.1
		c-0.2-0.1-0.4-0.2-0.6-0.4l-0.1-0.1l0,0c-0.8-0.7-1.8-1.2-2.9-1.2l0,0c-1,0-2,0.4-2.8,1c-0.1,0-0.2,0.1-0.2,0.2
		c-0.3,0.3-0.8,0.5-1.3,0.5l0,0c-0.2,0-0.5,0-0.7-0.1l-0.1-0.1l-0.7-3l0.2,0.2l0,0l0.1,0.1c0.3,0.3,0.8,0.5,1.3,0.5l0,0
		c0.2,0,0.5-0.1,0.7-0.1c0.2-0.1,0.4-0.1,0.5-0.3c0.1-0.1,0.2-0.1,0.2-0.2c0.8-0.6,1.8-1,2.8-1l0,0 M21.9,10.8L21.9,10.8
		c-1.5,0-2.8,0.5-3.9,1.4c-0.1,0.1-0.3,0.2-0.4,0.3l0,0l-0.3-0.2c-0.4-0.3-0.8-0.5-1.3-0.5c-1.1,0-2,0.8-2.1,1.9
		c0,0.2,0,0.3,0.1,0.5l0.7,3c0.1,0.6,0.5,1,1,1.3l0.3,0.1c0.5,0.2,1,0.3,1.5,0.3l0,0c1,0,1.9-0.4,2.6-1l0.2-0.2
		c0.2-0.2,0.4-0.3,0.6-0.4c0.3-0.1,0.6-0.2,0.9-0.2l0,0c0.3,0,0.6,0.1,0.9,0.2c0.3,0.1,0.5,0.3,0.7,0.5l0.1,0.1
		c0.4,0.3,0.8,0.6,1.2,0.8c0.5,0.2,1,0.3,1.5,0.3l0,0c1.1,0,2.1-0.4,2.8-1.2c0.4-0.4,0.6-0.9,0.6-1.5V14c0-1.1-0.9-2-2-2
		c-0.5,0-1,0.2-1.3,0.5l0,0c-1.2-1.1-2.7-1.7-4.3-1.8L21.9,10.8z"/>
	<path fill="#FFFFFF" d="M26.3,21.5c-1.3,0-2.6-0.5-3.6-1.4l-0.1-0.1c-0.1-0.1-0.2-0.1-0.3-0.2c-0.2-0.1-0.5-0.1-0.7,0
		c-0.1,0-0.2,0.1-0.3,0.2c-0.1,0.1-0.2,0.2-0.4,0.3c-0.9,0.8-2.1,1.2-3.3,1.2h-0.3c-0.4,0-0.8-0.3-0.9-0.8l-0.6-2.6
		c-0.1-0.5,0.2-1.1,0.8-1.2c0.2,0,0.5,0,0.7,0.1c0.1,0.1,0.3,0.1,0.4,0.1c0.2,0,0.5-0.1,0.6-0.2c0.1-0.1,0.2-0.2,0.4-0.3
		c0.9-0.8,2.1-1.2,3.3-1.2H22c1.3,0,2.6,0.5,3.6,1.4l0.1,0.1c0.1,0.1,0.2,0.1,0.3,0.1c0.2,0.1,0.5,0.1,0.7,0c0.1,0,0.2-0.1,0.3-0.2
		c0.4-0.4,1-0.4,1.4,0c0.2,0.2,0.3,0.4,0.3,0.7v2.8c0,0.5-0.3,0.9-0.7,1c-0.5,0.2-1,0.3-1.6,0.3L26.3,21.5z"/>
	<path fill="#FFFFFF" d="M22,16.3c1.1,0,2.1,0.4,3,1.2l0,0l0.1,0.1c0.3,0.3,0.8,0.5,1.3,0.5l0,0c0.2,0,0.5-0.1,0.7-0.1
		c0.2-0.1,0.4-0.2,0.6-0.4l0,0v2.8c-0.4,0.1-0.8,0.2-1.3,0.2l0,0c-1.1,0-2.1-0.4-3-1.2l0,0l-0.1-0.1c-0.4-0.3-0.8-0.5-1.3-0.5l0,0
		c-0.2,0-0.5,0.1-0.7,0.1c-0.2,0.1-0.4,0.2-0.6,0.4c-0.1,0.1-0.2,0.1-0.2,0.2c-0.8,0.6-1.8,1-2.8,1h-0.3l-0.6-2.6l0.1,0.1
		c0.2,0.1,0.5,0.1,0.7,0.1l0,0c0.5,0,1-0.2,1.3-0.5c0.1-0.1,0.2-0.1,0.2-0.2C20,16.7,21,16.3,22,16.3L22,16.3 M22,14.3L22,14.3
		c-1.5,0-2.9,0.5-4,1.4c-0.1,0.1-0.3,0.2-0.4,0.3c-0.3-0.1-0.6-0.2-0.9-0.2c-1.1,0-2,0.9-2,2c0,0.2,0,0.3,0.1,0.5l0.6,2.7
		c0.2,0.9,1,1.5,1.8,1.5h0.4c1.4,0,2.8-0.5,3.9-1.4c0.1-0.1,0.3-0.2,0.4-0.3l0,0c1.2,1.1,2.7,1.7,4.3,1.7h0.1c0.6,0,1.2-0.1,1.8-0.3
		c0.8-0.3,1.4-1,1.4-1.9v-2.8c0-1.1-0.9-2-2-2c-0.5,0-1,0.2-1.3,0.5l0,0C25.1,14.9,23.6,14.3,22,14.3L22,14.3z"/>
	<path fill="#FFFFFF" d="M2,15.6h6.1c0.6,0,1,0.4,1,1v3.8c0,0.6-0.4,1-1,1H2c-0.6,0-1-0.4-1-1v-3.8C1,16.1,1.4,15.6,2,15.6z"/>
	<path fill="#FFFFFF" d="M8.1,16.6v3.8H2v-3.8H8.1 M8.1,14.6H2c-1.1,0-2,0.9-2,2v3.8c0,1.1,0.9,2,2,2h6.1c1.1,0,2-0.9,2-2v-3.8
		C10.1,15.5,9.2,14.6,8.1,14.6z"/>
	<path fill="#FFFFFF" d="M2,10.9h6.1c0.6,0,1,0.4,1,1v3.8c0,0.6-0.4,1-1,1H2c-0.6,0-1-0.4-1-1v-3.8C1,11.3,1.4,10.9,2,10.9z"/>
	<path fill="#FFFFFF" d="M8.1,11.9v3.8H2v-3.8H8.1 M8.1,9.9H2c-1.1,0-2,0.9-2,2v3.8c0,1.1,0.9,2,2,2c0,0,0,0,0,0h6.1
		c1.1,0,2-0.9,2-2v-3.8C10.1,10.7,9.2,9.9,8.1,9.9z"/>
	<path fill="#FFFFFF" d="M2,6.1h6.1c0.6,0,1,0.4,1,1v3.8c0,0.6-0.4,1-1,1H2c-0.6,0-1-0.4-1-1V7.1C1,6.5,1.4,6.1,2,6.1z"/>
	<path fill="#FFFFFF" d="M8.1,7.1v3.8H2V7.1H8.1 M8.1,5.1H2c-1.1,0-2,0.9-2,2v3.8c0,1.1,0.9,2,2,2h6.1c1.1,0,2-0.9,2-2V7.1
		C10.1,5.9,9.2,5.1,8.1,5.1z"/>
</g>
<path fill="#268CFB" d="M16.3,20.4L11.9,2.1c0,0,0-0.1-0.1-0.1H9.4h0c0,0,0,0,0,0v18.3c0,0,0,0,0,0h0.1L16.3,20.4
	C16.3,20.4,16.3,20.4,16.3,20.4C16.3,20.4,16.3,20.4,16.3,20.4L16.3,20.4z"/>
<path fill="#268CFB" d="M16.9,16.8c0.2,0.1,0.5,0.1,0.7,0.1l0,0c0.5,0,1-0.2,1.3-0.5c0.1-0.1,0.2-0.1,0.2-0.2c0.8-0.6,1.8-1,2.8-1
	l0,0c1.1,0,2.1,0.4,3,1.2l0,0l0.1,0.1c0.2,0.2,0.4,0.3,0.6,0.4c0.2,0.1,0.5,0.1,0.7,0.1l0,0c0.5,0,1-0.2,1.3-0.5l0,0V14l0,0
	c-0.2,0.2-0.4,0.3-0.6,0.4c-0.2,0.1-0.5,0.1-0.7,0.1l0,0c-0.2,0-0.5,0-0.7-0.1c-0.2-0.1-0.4-0.2-0.5-0.4l-0.1-0.1l0,0
	c-0.8-0.7-1.8-1.2-2.9-1.2l0,0c-1,0-2,0.4-2.8,1c-0.1,0-0.2,0.1-0.2,0.2c-0.2,0.2-0.4,0.3-0.6,0.4c-0.2,0.1-0.5,0.1-0.7,0.1l0,0
	c-0.5,0-1-0.1-1.4-0.5l-0.1-0.1l0,0L16,13.7l0.7,3L16.9,16.8z"/>
<path fill="#268CFB" d="M27.6,17.5c-0.2,0.2-0.4,0.3-0.6,0.4c-0.2,0.1-0.5,0.1-0.7,0.1l0,0c-0.5,0-1-0.2-1.3-0.5l-0.1-0.1l0,0
	c-0.8-0.7-1.8-1.2-2.9-1.2l0,0c-1,0-2,0.4-2.8,1c-0.1,0-0.2,0.1-0.2,0.2c-0.3,0.3-0.8,0.5-1.3,0.5l0,0c-0.2,0-0.5,0-0.7-0.1
	l-0.1-0.1l0.6,2.6h0.3c1,0,2-0.4,2.8-1c0.1,0,0.2-0.1,0.2-0.2c0.2-0.2,0.4-0.3,0.6-0.4c0.2-0.1,0.5-0.1,0.7-0.1l0,0
	c0.5,0,0.9,0.2,1.3,0.5l0.1,0.1l0,0c0.8,0.7,1.9,1.2,3,1.2l0,0c0.4,0,0.9-0.1,1.3-0.2L27.6,17.5L27.6,17.5z"/>
<polygon fill="#268CFB" points="2,16.6 2,18.5 2,18.6 2,20.4 8.1,20.4 8.1,18.6 8.1,18.5 8.1,16.6 "/>
<polygon fill="#268CFB" points="2,11.9 2,13.7 2,13.8 2,15.6 8.1,15.6 8.1,13.8 8.1,13.7 8.1,11.9 "/>
<polygon fill="#268CFB" points="2,7.1 2,8.9 2,9 2,10.9 8.1,10.9 8.1,9 8.1,8.9 8.1,7.1 "/>
</svg>
