<svg xmlns="http://www.w3.org/2000/svg" viewBox="0 0 14.99 14.99"><defs><style>.cls-1{fill:#e40000;}</style></defs><g id="Layer_2" data-name="Layer 2"><g id="Layer_1-2" data-name="Layer 1"><path class="cls-1" d="M7.5,1.42A6.08,6.08,0,1,1,1.42,7.5,6.08,6.08,0,0,1,7.5,1.42M7.5,0A7.5,7.5,0,1,0,15,7.5,7.5,7.5,0,0,0,7.5,0Z"/><path class="cls-1" d="M9.65,10.89H5.35A.36.36,0,0,1,5,10.54V4.46a.36.36,0,0,1,.36-.36h4.3a.36.36,0,0,1,.35.36V5.6A.35.35,0,0,1,9.65,6H7v.58H9.58a.36.36,0,0,1,.36.35V8a.36.36,0,0,1-.36.36H7V9H9.65A.36.36,0,0,1,10,9.4v1.14A.35.35,0,0,1,9.65,10.89Z"/></g></g></svg>