<svg xmlns="http://www.w3.org/2000/svg" width="15" height="21.4762" viewBox="0 0 15 21.4762"><title>feature-POI-star_flag</title><g id="Layer_2" data-name="Layer 2"><g id="Layer_1-2" data-name="Layer 1"><path d="M14.19,0H.81A.81.81,0,0,0,0,.81V14.19A.81.81,0,0,0,.81,15H5.0117l2.1262,6.2525a.4048.4048,0,0,0,.7241,0L9.9883,15H14.19a.81.81,0,0,0,.81-.81V.81A.81.81,0,0,0,14.19,0ZM12.1139,5.6932l-.94.6815-.94.681v0l-.6929.502.2627.81L10.16,9.4662l.3563,1.0993c.1445.445-.0506.5857-.433.3116L9.14,10.2017,7.5,9.0279,5.86,10.2017l-.9439.6753c-.3826.2741-.5777.1332-.433-.3116L4.84,9.4662l.3567-1.0985.2629-.81-.6929-.502,0,0-.94-.681-.94-.6815c-.3807-.2762-.3063-.503.1656-.5048l1.1647-.0033L5.38,5.1817h0l.8583-.0028L6.87,3.2739l.3629-1.0966c.1474-.4446.3882-.4446.5354,0l.3631,1.0966.6309,1.905.8581.0028h0l1.1641.0035,1.1645.0033C12.42,5.19,12.4945,5.417,12.1139,5.6932Z" fill="#1a2026"/></g></g></svg>