<svg xmlns="http://www.w3.org/2000/svg" width="19.8321" height="17.3105" viewBox="0 0 19.8321 17.3105"><title>feature-airstrip</title><g id="Layer_2" data-name="Layer 2"><g id="Layer_1-2" data-name="Layer 1"><path d="M18.15,7.6423c.9523-.19,1.6817-1.3681,1.6817-2.8213,0-1.5715-.8089-2.75-1.9187-2.8614L7.1116.0266S6.8985,0,6.792,0C6.0462,0,5.46.6126,5.0873,1.4916l-3.4892,2.53V1.5327C1.5981,1.08,1.2518,1,.7991,1S0,1.08,0,1.5327V16.7778c0,.4528.3462.5327.7991.5327s.7991-.08.7991-.5327V5.9929L5.2737,8.2835A1.8306,1.8306,0,0,0,6.792,9.4022a2.35,2.35,0,0,0,.3314-.0472l10.56-1.6458ZM2.0242,5.034l2.61-1.8911a10.08,10.08,0,0,0-.1332,1.5448,12.1051,12.1051,0,0,0,.1864,1.9976ZM6.8,8.5127c-.6944,0-1.2572-1.6757-1.2572-3.7427S6.1054,1.0273,6.8,1.0273,8.0571,2.703,8.0571,4.77,7.4942,8.5127,6.8,8.5127Zm8.5694-1.3014-3.3035.4863a7.784,7.784,0,0,0,.5327-2.8766,7.6823,7.6823,0,0,0-.5327-2.8766l3.3035.4387a8.0835,8.0835,0,0,1,.4688,2.4375A7.7818,7.7818,0,0,1,15.3691,7.2112Z" fill="#1a2026"/></g></g></svg>