<svg xmlns="http://www.w3.org/2000/svg" viewBox="0 0 30 29.2"><path d="M29 27.2h-8.3a2.4 2.4 0 0 0-.2-.8 3.5 3.5 0 0 1-.7-1.8c0-.1.1-.3.1-.4a4.1 4.1 0 0 0 0-1.1 2.4 2.4 0 0 0-.2-.8 3.7 3.7 0 0 1-.2-.9v-.2a8.8 8.8 0 0 0 3.1-2.9c.5-.9 1.1-1.6 1.3-1.6h.2l1.1.4H27a1.8 1.8 0 0 0 1.6-.8c.2-.6-.1-.8-.3-.9h-.1L28 15l-.6-1-.5-.7-.3-.6a2.4 2.4 0 0 0-1.1-.9l-.8-.8c-.3-.1-.5.1-.7.2s-.1.5-.1.8H19l-1.2-.2a8.1 8.1 0 0 0-2.4.2l-2.9.3H5a2.7 2.7 0 0 0-2.2.9 6.4 6.4 0 0 0-1.5 4.6 7.5 7.5 0 0 0 .1 2.8h.5a23.9 23.9 0 0 0 .1-3.1 11.5 11.5 0 0 1 .1-1.9c0 .2.1.3.1.4a11.5 11.5 0 0 0 .2 1.6 12.6 12.6 0 0 1 .3 2.1 3.9 3.9 0 0 1-.7 1.6.6.6 0 0 0 0 .7c0 .2.1.3.1.4s-.2 2.3-.3 3.3-.1 1.2-.1 1.4H1a1 1 0 0 0-1 1 .9.9 0 0 0 1 1h28a.9.9 0 0 0 1-1 1 1 0 0 0-1-.9Zm-11.5-2.6a.8.8 0 0 0 .2-.4l.2-.4h.1a.5.5 0 0 1 .2.4 8.3 8.3 0 0 1 .4 2.7v.2h-.8a1.1 1.1 0 0 0-.1-.6 2.7 2.7 0 0 1-.2-1.9ZM7.2 23.2a1.4 1.4 0 0 0 .1-.9 4.1 4.1 0 0 1 .2-.7 13 13 0 0 0 .3-1.3l2.5.7a16.7 16.7 0 0 0 5.2.3 5.1 5.1 0 0 1 .4 2.2c-.1.1 0 .2 0 .3a.8.8 0 0 1 .1.4 28.1 28.1 0 0 1-.4 2.8v.2H8.4c0-.4-.3-.7-.5-1.1a2.6 2.6 0 0 1-.5-.9 5 5 0 0 1-.2-1.5Zm-3.3 3a1.7 1.7 0 0 1-.3-1 2.8 2.8 0 0 1 .3-1.4c0-.2.1-.3.2-.5a3.6 3.6 0 0 0 .4-.9l.2-.3a.5.5 0 0 1 .2.4 21.8 21.8 0 0 1 .6 2.2 10.4 10.4 0 0 0 .3 1.2c.1.4.2.5.1.8s.1.2.1.4H4.1a2.9 2.9 0 0 0-.2-.9ZM1 2h10.4v.2l.9.5.4-.7h4.9l.3.7.9-.5V2H29a.9.9 0 0 0 1-1 .9.9 0 0 0-1-1H1a.9.9 0 0 0-1 1 .9.9 0 0 0 1 1Zm6.42 7.323.966-1.75.876.482-.967 1.751zm1.902-3.642.967-1.75.875.483-.967 1.75zM14.5 3.5h1v2h-1zm0 4h1v2h-1zm4.29-2.99.876-.483.966 1.75-.875.484zm2.043 3.398.875-.483.967 1.75-.875.484z"/></svg>
