<?xml version="1.0" encoding="utf-8"?>
<!-- Generator: Adobe Illustrator 23.0.3, SVG Export Plug-In . SVG Version: 6.00 Build 0)  -->
<svg version="1.1" id="Layer_1" xmlns="http://www.w3.org/2000/svg" xmlns:xlink="http://www.w3.org/1999/xlink" x="0px" y="0px"
	 viewBox="0 0 100 100" style="enable-background:new 0 0 100 100;" xml:space="preserve">
<style type="text/css">
	.st0{fill:#FFFFFF;}
</style>
<path d="M80,100H20C9,100,0,91,0,80V20C0,9,9,0,20,0h60c11,0,20,9,20,20v60C100,91,91,100,80,100z"/>
<g>
	<path class="st0" d="M89.5,41.9c-0.8-1-2.2-1.6-3.2-2.6c-1.8-1.8-3.6-3.7-5-5.8c-2.1-3-4.8-5.3-8-7.1c-3.2-1.7-6.6-2.5-10.1-2.4
		c-2.6,0-5.1,0.2-7.5,1.3c-3.1,1.3-6.3,1.4-9.5,1.1c-2-0.2-4-0.4-5.9-0.4c-2.5,0-4.7,1.2-6.6,2.8c-0.3,0.2-0.6,0.4-1,0.6
		c-0.2-0.4-0.5-0.8-0.5-1.3c0-0.8,0.2-1.5,0.3-2.3c-1.7,2.1-2.5,4.7-2.7,7.4c-0.2,0-0.3,0-0.5,0c-0.2-1-0.3-2.1-0.5-3.1
		c-0.1,0-0.2,0-0.3-0.1c-0.7,2.7-1.2,5.4-1.5,8.4c-1.1-1.1-0.7-2.2-0.9-3.6c-0.4,0.6-0.7,1-0.8,1.3c-0.3,1.3-0.5,2.6-0.8,3.9
		c-0.1,0.3-0.3,0.5-0.5,0.7c-0.2-0.2-0.4-0.4-0.5-0.6c-0.3-0.9-0.6-1.8-0.9-2.9c-0.2,0.5-0.5,0.7-0.5,1c0,1.2,0,2.5,0.2,3.7
		c0.1,0.7,0.2,1.2-0.5,1.7c-1,0.6-1.3,1.6-1.2,2.7c0.3,4-0.5,7.9-1.7,11.7c-0.2,0.6-0.6,0.7-1,0.2c-0.3-0.4-0.6-1-0.7-1.4
		c-0.2-0.4-0.2-0.8-0.3-1.2c-0.1,0-0.2,0-0.3,0c-0.1,0.3-0.4,0.6-0.4,0.8c0.2,1.3,0.4,2.7,0.8,4c0.2,0.7,0.4,1.1-0.5,1.2
		c-1.2,0.1-1.9,1.4-1.4,2.5c0.6,1.5,2.2,2.3,3.8,2.1c0.9-0.1,1.7-0.1,2.6,0c1.8,0.2,3-1.3,2.6-2.9c-0.4-1.3-0.4-2.7-0.6-4.1
		c0-0.2,0.2-0.4,0.4-0.8c0.1,0.6,0.1,0.9,0.2,1.1c0.4,1,0.7,2.1,1.2,3.1c0.4,0.9,1,0.8,1.8,0.4c1-0.5,2-1,3.1-1.4s2.2-0.4,3.3-0.8
		c3.1-1.1,5.1-3.2,6.1-6.3c0.2-0.5,0.3-1,0.5-1.5c0.4,0.4,0.7,0.7,1,1.1c2.7,3.4,2.6,7.1,0.8,10.8c-0.8,1.7-1.8,3.2-2.8,4.7
		c-0.4,0.6-0.3,1,0.5,1c0.9,0,1.8,0,2.8,0c0.3,0,0.7-0.2,0.8-0.4c0.4-0.9,0.6-1.9,1-2.9c0.8-2.1,1.5-4.1,2.5-6.1c1.1-2,1.4-4,0.3-6
		c-0.1-0.2,0-0.5,0-0.7c0.1-0.1,0.2-0.1,0.3-0.2c0.4,0.6,0.9,1.1,1.3,1.7c1.6,2.5,2.3,5.1,1,8c-0.4,0.9-0.7,2-0.8,2.9
		c-0.1,0.8-0.3,1.3-1,1.7c-0.4,0.2-0.7,0.6-1,1c0.1,0.1,0.1,0.2,0.2,0.3c1.2,0,2.3,0,3.5,0c0.2,0,0.5-0.4,0.5-0.5
		c-0.2-1.6,0.6-2.9,1.3-4.2c1-1.7,1.6-3.4,1.7-5.3c0-0.4,0.2-0.8,0.2-1.1c1.3,0.3,2.6,0.7,3.8,1c4.3,1,8.4,0.3,12.3-1.4
		c0.6-0.2,0.9-0.7,0.4-1.4c-0.8-1.3-0.5-2.7,0.9-4.1c0,0.6,0,0.9-0.1,1.2c-0.3,1.4,0.1,2.6,1.2,3.6c0.6,0.5,1,1,1.5,1.6
		c1.7,2,1.7,3.3,0.4,5.4c-0.5,0.7-0.8,1.5-1.3,2.3c-0.4,0.6-0.9,1.3-1.3,1.8c-0.5,0.5-1,1-1.5,1.5c0.1,0.1,0.1,0.2,0.2,0.3
		c1.1,0,2.2,0,3.2,0c1.7,0,1.7,0,2.2-1.6c0.1-0.3,0.2-0.6,0.4-0.8c0.8-1.1,1.7-2.2,2.5-3.4c0.5-0.8,1-1.8,1-2.7
		c-0.1-1.2-0.6-2.3-1.1-3.4c-0.7-1.4-0.5-2.2,1.1-3c0.1,0.1,0.1,0.1,0.2,0.2c0,0.1,0.1,0.2,0.1,0.3c-0.4,1.4,0.3,2.6,0.9,3.9
		c0.3,0.7,0.5,1.5,0.4,2.2c-0.1,2.1-0.7,3.9-2.1,5.5c-0.8,0.8-1.3,1.7-2.2,2.8c1.9,0,3.5,0,5.2,0c0.2,0,0.6-0.6,0.6-0.9
		c0.1-1.8,0.1-3.7,1.1-5.3c0.1-0.2,0.2-0.4,0.2-0.6c0.4-2.7,0.7-5.4,0.2-8.1c-0.2-1-0.2-2.3,0.2-3.1c2.1-4,1.6-7.8-0.2-11.7
		c-0.1-0.2,0-0.5,0-0.7c0.2,0,0.5-0.1,0.6,0c1.7,1.2,3.5,2.4,4.3,4.5c0.3,1,0.7,1.9-0.1,2.9c-0.2,0.2-0.2,0.8-0.1,1.1
		c0.6,1.1,1.3,2.2,2,3.4c0.1-0.3,0.3-0.6,0.4-0.9C92.1,47.9,91.7,44.7,89.5,41.9z"/>
	<ellipse class="st0" cx="17.8" cy="69.5" rx="13.2" ry="2"/>
</g>
<ellipse cx="26" cy="47.6" rx="1.9" ry="2"/>
</svg>
