<?xml version="1.0" encoding="UTF-8" standalone="no"?>
<svg
   xmlns:dc="http://purl.org/dc/elements/1.1/"
   xmlns:cc="http://creativecommons.org/ns#"
   xmlns:rdf="http://www.w3.org/1999/02/22-rdf-syntax-ns#"
   xmlns:svg="http://www.w3.org/2000/svg"
   xmlns="http://www.w3.org/2000/svg"
   xmlns:sodipodi="http://sodipodi.sourceforge.net/DTD/sodipodi-0.dtd"
   xmlns:inkscape="http://www.inkscape.org/namespaces/inkscape"
   viewBox="0 0 21 21"
   version="1.1"
   id="svg108"
   sodipodi:docname="fence_attendant_house_in_circle.svg"
   inkscape:version="1.0.1 (3bc2e813f5, 2020-09-07)">
  <metadata
     id="metadata112">
    <rdf:RDF>
      <cc:Work
         rdf:about="">
        <dc:format>image/svg+xml</dc:format>
        <dc:type
           rdf:resource="http://purl.org/dc/dcmitype/StillImage" />
        <dc:title>Asset 199</dc:title>
      </cc:Work>
    </rdf:RDF>
  </metadata>
  <sodipodi:namedview
     pagecolor="#ffffff"
     bordercolor="#666666"
     borderopacity="1"
     objecttolerance="10"
     gridtolerance="10"
     guidetolerance="10"
     inkscape:pageopacity="0"
     inkscape:pageshadow="2"
     inkscape:window-width="1920"
     inkscape:window-height="1001"
     id="namedview110"
     showgrid="false"
     inkscape:object-paths="true"
     inkscape:zoom="38.175351"
     inkscape:cx="5.6295181"
     inkscape:cy="11.547797"
     inkscape:window-x="-9"
     inkscape:window-y="-9"
     inkscape:window-maximized="1"
     inkscape:current-layer="svg108"
     inkscape:document-rotation="0" />
  <defs
     id="defs96">
    <style
       id="style94">.a{opacity:0.8;}.b{fill:#fff;}.c{fill:#1a2026;}</style>
  </defs>
  <title
     id="title98">Asset 199</title>
  <g
     class="a"
     id="g104"
     transform="translate(-0.1896165,0.05060241)">
    <path
       class="b"
       d="M 4.64,20 A 1.85,1.85 0 0 1 2.79,18.15 V 12.82 A 1.83,1.83 0 0 1 1.79,12.47 1.86,1.86 0 0 1 1,11 V 8.23 A 1.85,1.85 0 0 1 2.24,6.49 L 17.54,1.11 A 1.85,1.85 0 0 1 19.22,1.34 1.85,1.85 0 0 1 20,2.85 v 2.74 a 1.85,1.85 0 0 1 -1.27,1.75 l -9.5,3.17 v 3 h 8.92 a 1.85,1.85 0 0 1 1.85,1.9 v 2.74 A 1.85,1.85 0 0 1 18.15,20 Z"
       id="path100" />
    <path
       class="b"
       d="M 18.15,2 A 0.85,0.85 0 0 1 19,2.85 V 5.59 A 0.85,0.85 0 0 1 18.42,6.4 L 8.23,9.79 v 4.77 h 9.92 A 0.85,0.85 0 0 1 19,15.41 v 2.74 A 0.85,0.85 0 0 1 18.15,19 H 4.64 A 0.85,0.85 0 0 1 3.79,18.15 v -6.59 l -0.68,0.22 a 0.86,0.86 0 0 1 -0.27,0 A 0.85,0.85 0 0 1 2,11 V 8.23 A 0.85,0.85 0 0 1 2.57,7.43 L 17.87,2 a 0.84,0.84 0 0 1 0.28,0 m 0,-2 a 2.84,2.84 0 0 0 -1,0.16 L 1.9,5.54 A 2.85,2.85 0 0 0 0,8.23 V 11 a 2.86,2.86 0 0 0 1.18,2.31 2.83,2.83 0 0 0 0.62,0.34 v 4.53 A 2.85,2.85 0 0 0 4.64,21 H 18.15 A 2.85,2.85 0 0 0 21,18.15 V 15.41 A 2.85,2.85 0 0 0 18.15,12.56 H 10.23 V 11.23 L 19.05,8.29 A 2.84,2.84 0 0 0 21,5.59 V 2.85 A 2.85,2.85 0 0 0 18.15,0 Z"
       id="path102" />
  </g>
  <ellipse
     style="fill:none;stroke:#000000;stroke-width:1.08377;stroke-opacity:1"
     id="path117"
     ry="9.7953281"
     rx="9.6385994"
     cy="10.510542"
     cx="10.556225" />
  <path
     class="c"
     d="M 15.745785,17.054906 H 5.2518359 A 0.66024107,0.66581522 0 0 1 4.5915948,16.389091 V 11.227065 L 4.063402,11.399393 A 0.66024107,0.66581522 0 0 1 3.2012048,10.788409 V 8.6186355 a 0.66024107,0.66581522 0 0 1 0.44275,-0.6266496 L 15.528294,3.7386016 a 0.66024107,0.66581522 0 0 1 0.877732,0.6266496 V 6.5506918 A 0.66024107,0.66581522 0 0 1 15.955509,7.1851745 L 8.0403835,9.8406024 v 3.7363986 h 7.7054015 a 0.66024107,0.66581522 0 0 1 0.660241,0.665815 v 2.146275 a 0.66024107,0.66581522 0 0 1 -0.660241,0.665815 z"
     id="path106"
     style="stroke-width:0.780026" />
  <g
     inkscape:groupmode="layer"
     id="layer1"
     inkscape:label="Layer 3" />
</svg>
