<svg xmlns="http://www.w3.org/2000/svg" width="20" height="20.0004" viewBox="0 0 20 20.0004"><title>Asset 317</title><g id="Layer_2" data-name="Layer 2"><g id="Layer_1-2" data-name="Layer 1"><g opacity="0.8"><path d="M4.1445,19.25a1.6018,1.6018,0,0,1-1.6-1.6v-5.59a1.65,1.65,0,0,1-.1968.0117,1.5791,1.5791,0,0,1-.9365-.3037A1.6039,1.6039,0,0,1,.75,10.4727V7.7334a1.602,1.602,0,0,1,1.07-1.51L17.1187.8418A1.5752,1.5752,0,0,1,17.65.75a1.5994,1.5994,0,0,1,1.6,1.6006V5.09a1.5967,1.5967,0,0,1-1.0947,1.5176L8.4834,9.832v3.4795H17.65a1.6018,1.6018,0,0,1,1.6,1.6V17.65a1.6018,1.6018,0,0,1-1.6,1.6Z" fill="#fff"/><path d="M17.65,1.5a.85.85,0,0,1,.85.85V5.09a.849.849,0,0,1-.5811.806L7.7335,9.2907v4.77H17.65a.85.85,0,0,1,.85.85V17.65a.85.85,0,0,1-.85.85H4.1446a.85.85,0,0,1-.85-.85V11.0563L2.616,11.28a.8568.8568,0,0,1-.2679.0431.8494.8494,0,0,1-.8482-.85V7.7335a.8493.8493,0,0,1,.5678-.8018l15.3-5.3831A.8441.8441,0,0,1,17.65,1.5m0-1.5a2.3382,2.3382,0,0,0-.7835.1348L1.57,5.5166A2.3524,2.3524,0,0,0,0,7.7335v2.7393a2.3573,2.3573,0,0,0,.9721,1.9038,2.3235,2.3235,0,0,0,.8225.3806V17.65A2.3527,2.3527,0,0,0,4.1446,20H17.65A2.3527,2.3527,0,0,0,20,17.65V14.9111a2.3526,2.3526,0,0,0-2.35-2.35H9.2335V10.3718l9.16-3.0531A2.3456,2.3456,0,0,0,20,5.09V2.35A2.35,2.35,0,0,0,17.65,0Z" fill="#fff"/></g><path d="M17.65,18.5H4.1446a.85.85,0,0,1-.85-.85V11.0563L2.616,11.28A.8493.8493,0,0,1,1.5,10.4727V7.7335a.8493.8493,0,0,1,.5678-.8019l15.3-5.3831A.85.85,0,0,1,18.5,2.35V5.09a.8491.8491,0,0,1-.5811.806L7.7335,9.2907v4.77H17.65a.85.85,0,0,1,.85.85V17.65A.85.85,0,0,1,17.65,18.5Z" fill="#708a07"/></g></g></svg>