<svg xmlns="http://www.w3.org/2000/svg" viewBox="0 0 21 21"><defs><style>.a{opacity:0.8;}.b{fill:#fff;}.c{fill:#708a07;}</style></defs><title>Asset 263</title><g class="a"><path class="b" d="M4.64,20a1.85,1.85,0,0,1-1.85-1.85V12.82a1.83,1.83,0,0,1-1-.35A1.86,1.86,0,0,1,1,11V8.23A1.85,1.85,0,0,1,2.24,6.49l15.3-5.38a1.85,1.85,0,0,1,1.68.23A1.85,1.85,0,0,1,20,2.85V5.59a1.85,1.85,0,0,1-1.27,1.75l-9.5,3.17v3h8.92A1.85,1.85,0,0,1,20,15.41v2.74A1.85,1.85,0,0,1,18.15,20Z"/><path class="b" d="M18.15,2a.85.85,0,0,1,.85.85V5.59a.85.85,0,0,1-.58.81L8.23,9.79v4.77h9.92a.85.85,0,0,1,.85.85v2.74a.85.85,0,0,1-.85.85H4.64a.85.85,0,0,1-.85-.85V11.56l-.68.22a.86.86,0,0,1-.27,0A.85.85,0,0,1,2,11V8.23a.85.85,0,0,1,.57-.8L17.87,2a.84.84,0,0,1,.28,0m0-2a2.84,2.84,0,0,0-1,.16L1.9,5.54A2.85,2.85,0,0,0,0,8.23V11a2.86,2.86,0,0,0,1.18,2.31,2.83,2.83,0,0,0,.62.34v4.53A2.85,2.85,0,0,0,4.64,21H18.15A2.85,2.85,0,0,0,21,18.15V15.41a2.85,2.85,0,0,0-2.85-2.85H10.23V11.23l8.82-2.94A2.84,2.84,0,0,0,21,5.59V2.85A2.85,2.85,0,0,0,18.15,0Z"/></g><path class="c" d="M18.15,19H4.64a.85.85,0,0,1-.85-.85V11.56l-.68.22A.85.85,0,0,1,2,11V8.23a.85.85,0,0,1,.57-.8L17.87,2a.85.85,0,0,1,1.13.8V5.59a.85.85,0,0,1-.58.81L8.23,9.79v4.77h9.92a.85.85,0,0,1,.85.85v2.74A.85.85,0,0,1,18.15,19Z"/></svg>