<?xml version="1.0" encoding="utf-8"?>
<!-- Generator: Adobe Illustrator 23.0.3, SVG Export Plug-In . SVG Version: 6.00 Build 0)  -->
<svg version="1.1" id="Layer_1" xmlns="http://www.w3.org/2000/svg" xmlns:xlink="http://www.w3.org/1999/xlink" x="0px" y="0px"
	 viewBox="0 0 119.8 119.8" style="enable-background:new 0 0 119.8 119.8;" xml:space="preserve">
<style type="text/css">
	.st0{fill:none;}
</style>
<g>
	<path class="st0" d="M97.2,94.9H85.8c-0.4-2.6-0.8-5.8-1.5-9.9c-1.4-9.2-3.6-22.4-6.4-39.8V21.9h4.2L59.3,2.7L37.6,21.9h4.3v23.9
		h0.1c-4.3,24.4-7.1,40.8-8.2,49.2H22.4c-2.1,0-3.9,1.7-3.9,3.9c0,2.1,1.7,3.9,3.9,3.9h74.8c2.1,0,3.9-1.7,3.9-3.9
		C101.1,96.6,99.4,94.9,97.2,94.9z M78.1,86.4l-14-15.9l9.3-10.6L78.1,86.4z M60.1,67.1L47.5,53l1-6.4l22.7-0.1l1.1,6.7L60.1,67.1z
		 M47.1,21.9h25.5v8H47.1V21.9z M46,58.7l10.9,12.1L40.4,89.2L46,58.7z M41.5,94.9l18.5-20.2l18.3,20.2H41.5z"/>
	<polygon points="48.4,46.6 47.5,53 60.1,67.1 72.2,53.3 71.1,46.6 	"/>
	<rect x="47.1" y="21.9" width="25.5" height="8"/>
	<polygon points="78.1,86.4 73.4,59.9 64.1,70.5 	"/>
	<path d="M59.9,0C26.8,0,0,26.8,0,59.9c0,33.1,26.8,59.9,59.9,59.9c33.1,0,59.9-26.8,59.9-59.9C119.8,26.8,93,0,59.9,0z M97.2,102.7
		H22.4c-2.1,0-3.9-1.7-3.9-3.9c0-2.2,1.7-3.9,3.9-3.9h11.4c1.1-8.4,3.9-24.8,8.2-49.2h-0.1V21.9h-4.3L59.3,2.7l22.8,19.2h-4.2v23.4
		c2.8,17.3,4.9,30.6,6.4,39.8c0.7,4.1,1.1,7.3,1.5,9.9h11.4c2.1,0,3.9,1.7,3.9,3.9C101.1,100.9,99.4,102.7,97.2,102.7z"/>
	<polygon points="41.5,94.9 78.3,94.9 60.1,74.7 	"/>
	<polygon points="46,58.7 40.4,89.2 56.9,70.8 	"/>
</g>
</svg>
