<?xml version="1.0" encoding="utf-8"?>
<!-- Generator: Adobe Illustrator 23.0.3, SVG Export Plug-In . SVG Version: 6.00 Build 0)  -->
<svg version="1.1" id="Layer_1" xmlns="http://www.w3.org/2000/svg" xmlns:xlink="http://www.w3.org/1999/xlink" x="0px" y="0px"
	 viewBox="0 0 135.8 135" style="enable-background:new 0 0 135.8 135;" xml:space="preserve">
<path d="M105.9,107.6H94.4c-0.4-2.6-0.8-5.8-1.5-9.9c-1.4-9.2-3.6-22.4-6.4-39.8V34.6h4.2L67.9,15.4L46.3,34.6h4.3v23.9h0.1
	c-4.3,24.4-7.1,40.8-8.2,49.2H31.1c-2.1,0-3.9,1.7-3.9,3.9c0,2.1,1.7,3.9,3.9,3.9h74.8c2.1,0,3.9-1.7,3.9-3.9
	C109.7,109.4,108,107.6,105.9,107.6z M86.7,99.1l-14-15.9L82,72.7L86.7,99.1z M68.8,79.8L56.1,65.7l1-6.4l22.7-0.1l1.1,6.7
	L68.8,79.8z M55.7,34.6h25.5v8H55.7V34.6z M54.6,71.4l10.9,12.1L49,102L54.6,71.4z M50.1,107.6l18.5-20.2L87,107.6H50.1z"/>
</svg>
