<svg xmlns="http://www.w3.org/2000/svg" viewBox="0 0 15 21.48">
    <defs>
        <style>.a{fill:#d00;}.b{fill:#fff;}</style>
    </defs>
    <path class="a"
          d="M14.19,0H.81A.81.81,0,0,0,0,.81V14.19A.81.81,0,0,0,.81,15H5l2.13,6.25a.4.4,0,0,0,.72,0L10,15h4.2a.81.81,0,0,0,.81-.81V.81A.81.81,0,0,0,14.19,0Z"/>
    <path class="b"
          d="M7.5,2A5.5,5.5,0,1,0,13,7.45,5.5,5.5,0,0,0,7.5,2ZM10.8,7V8.31a.34.34,0,0,1-.34.34H8.69v1.76a.34.34,0,0,1-.34.34H6.65a.34.34,0,0,1-.34-.34V8.65H4.54a.34.34,0,0,1-.34-.34V6.6a.34.34,0,0,1,.34-.34H6.31V4.5a.35.35,0,0,1,.34-.35h1.7a.35.35,0,0,1,.34.35V6.26h1.77a.34.34,0,0,1,.34.34Z"/>
</svg>