<svg xmlns="http://www.w3.org/2000/svg" width="28.0992" height="15" viewBox="0 0 28.0992 15"><title>Asset 310</title><g id="Layer_2" data-name="Layer 2"><g id="Layer_1-2" data-name="Layer 1"><g opacity="0.8"><path d="M21.44,9.1353a.75.75,0,0,1-.75-.75V4.3736H7.4384V8.3853a.75.75,0,0,1-.75.75H4.5653a.75.75,0,0,1-.75-.75V4.3736H1.5a.75.75,0,0,1-.75-.75V1.5A.75.75,0,0,1,1.5.75h25.1a.75.75,0,0,1,.75.75v2.124a.75.75,0,0,1-.75.75H24.3134V8.3853a.75.75,0,0,1-.75.75Z" fill="#fff"/><path d="M26.6,1.5h0m0,0,0,2.1231H23.5637V8.3854H21.4406V3.6231H6.6887V8.3854H4.5656V3.6231H1.5V1.5H26.5992m0-1.5H1.5A1.5,1.5,0,0,0,0,1.5V3.6231a1.5,1.5,0,0,0,1.5,1.5H3.0656V8.3854a1.5,1.5,0,0,0,1.5,1.5H6.6887a1.5,1.5,0,0,0,1.5-1.5V5.1231H19.9406V8.3854a1.5,1.5,0,0,0,1.5,1.5h2.1232a1.5,1.5,0,0,0,1.5-1.5V5.1231h1.5355a1.5,1.5,0,0,0,1.5-1.5V1.5A1.5,1.5,0,0,0,26.6,0Z" fill="#fff"/><path d="M19.5731,14.25a7.3315,7.3315,0,0,1-2.458-.5723,5.7886,5.7886,0,0,0-1.9268-.4766,5.9976,5.9976,0,0,0-1.95.4766,7.4136,7.4136,0,0,1-2.4336.5723,7.3291,7.3291,0,0,1-2.5-.5732,5.8384,5.8384,0,0,0-1.9277-.4756,5.7825,5.7825,0,0,0-1.9238.4756,7.3073,7.3073,0,0,1-2.46.5732.75.75,0,0,1-.75-.75V10.0084a.75.75,0,0,1,.75-.75,5.8738,5.8738,0,0,0,1.9287-.4766,7.2058,7.2058,0,0,1,2.4551-.5732,7.4438,7.4438,0,0,1,2.4766.5723,6.0231,6.0231,0,0,0,1.9512.4775A5.977,5.977,0,0,0,12.7137,8.78a7.4231,7.4231,0,0,1,2.4746-.5713A7.3912,7.3912,0,0,1,17.621,8.78a6.0167,6.0167,0,0,0,1.9521.4785,5.8765,5.8765,0,0,0,1.9277-.4775,7.2238,7.2238,0,0,1,2.4551-.5723,7.3463,7.3463,0,0,1,2.4092.5488.75.75,0,0,1,.4912.7041v3.499a.75.75,0,0,1-1.0137.7021,5.7407,5.7407,0,0,0-1.8867-.4619,5.7825,5.7825,0,0,0-1.9238.4756A7.3327,7.3327,0,0,1,19.5731,14.25Z" fill="#fff"/><path d="M23.9559,8.9585a6.7287,6.7287,0,0,1,2.1508.5029v3.4992a6.5944,6.5944,0,0,0-2.1508-.51,6.6388,6.6388,0,0,0-2.1908.5249,6.6986,6.6986,0,0,1-2.192.5246,6.7017,6.7017,0,0,1-2.1931-.5246,6.6385,6.6385,0,0,0-2.1912-.5249,6.83,6.83,0,0,0-2.2139.5249,6.8374,6.8374,0,0,1-2.17.5246A6.7267,6.7267,0,0,1,8.57,12.9754,6.6584,6.6584,0,0,0,6.3773,12.45a6.6371,6.6371,0,0,0-2.1913.5249A6.6924,6.6924,0,0,1,1.993,13.5V10.0084a6.6791,6.6791,0,0,0,2.193-.5253,6.6248,6.6248,0,0,1,2.1913-.5246,6.8279,6.8279,0,0,1,2.2137.5246,6.8709,6.8709,0,0,0,2.2137.5253,6.8214,6.8214,0,0,0,2.17-.5253,6.8174,6.8174,0,0,1,2.2139-.5246,6.8053,6.8053,0,0,1,2.17.5246,6.8636,6.8636,0,0,0,2.2141.5253,6.6853,6.6853,0,0,0,2.192-.5253,6.6265,6.6265,0,0,1,2.1908-.5246m0-1.5a7.9324,7.9324,0,0,0-2.7239.6225,5.187,5.187,0,0,1-1.6589.4274,5.3742,5.3742,0,0,1-1.6908-.4311,8.0646,8.0646,0,0,0-2.6935-.6188,8.1192,8.1192,0,0,0-2.739.62,5.328,5.328,0,0,1-1.645.43,5.37,5.37,0,0,1-1.69-.431,8.1242,8.1242,0,0,0-2.7372-.6189A7.9335,7.9335,0,0,0,3.653,8.081a5.1846,5.1846,0,0,1-1.66.4274,1.5,1.5,0,0,0-1.5,1.5V13.5a1.5,1.5,0,0,0,1.5,1.5,8,8,0,0,0,2.7227-.6212A5.1594,5.1594,0,0,1,6.3773,13.95a5.1709,5.1709,0,0,1,1.6613.4276A8.0455,8.0455,0,0,0,10.8048,15a8.11,8.11,0,0,0,2.693-.6187,5.3448,5.3448,0,0,1,1.691-.4309,5.15,5.15,0,0,1,1.6587.4272A8.0259,8.0259,0,0,0,19.5731,15a8.0164,8.0164,0,0,0,2.7209-.6209,5.1618,5.1618,0,0,1,1.6619-.4286,5.1105,5.1105,0,0,1,1.6241.4147,1.5,1.5,0,0,0,2.0266-1.4045V9.4614a1.5,1.5,0,0,0-.9825-1.4079,8.0332,8.0332,0,0,0-2.6682-.595Z" fill="#fff"/></g><path d="M1.5,1.5V3.6231H4.5656V8.3854H6.6887V3.6231H21.4406V8.3854h2.1232V3.6231h3.0354V1.5H1.5Z" fill="#1a2026"/><path d="M23.9559,8.9585a6.6269,6.6269,0,0,0-2.1909.5246,6.6843,6.6843,0,0,1-2.192.5253,6.8636,6.8636,0,0,1-2.2141-.5253,6.8055,6.8055,0,0,0-2.17-.5246,6.8169,6.8169,0,0,0-2.2138.5246,6.8214,6.8214,0,0,1-2.17.5253,6.87,6.87,0,0,1-2.2138-.5253,6.8286,6.8286,0,0,0-2.2138-.5246,6.6242,6.6242,0,0,0-2.1912.5246,6.68,6.68,0,0,1-2.1931.5253V13.5a6.6939,6.6939,0,0,0,2.1931-.5246,6.6366,6.6366,0,0,1,2.1912-.525,6.6579,6.6579,0,0,1,2.1927.525,6.7279,6.7279,0,0,0,2.2348.5246,6.8383,6.8383,0,0,0,2.17-.5246,6.83,6.83,0,0,1,2.2138-.525,6.6388,6.6388,0,0,1,2.1912.525,6.7019,6.7019,0,0,0,2.1931.5246,6.6984,6.6984,0,0,0,2.192-.5246,6.6393,6.6393,0,0,1,2.1909-.525,6.5931,6.5931,0,0,1,2.1507.51V9.4614A6.7282,6.7282,0,0,0,23.9559,8.9585Z" fill="#1a2026"/></g></g></svg>