<svg xmlns="http://www.w3.org/2000/svg" width="22.7368" height="16.8158" viewBox="0 0 22.7368 16.8158"><title>Asset 321</title><g id="Layer_2" data-name="Layer 2"><g id="Layer_1-2" data-name="Layer 1"><g opacity="0.8"><path d="M20.5793,16.0659a1.3774,1.3774,0,0,1-1.4082-1.4082V13.4341H3.5657v1.2236a1.3774,1.3774,0,0,1-1.4082,1.4082A1.3766,1.3766,0,0,1,.75,14.6577v-12.5A1.3766,1.3766,0,0,1,2.1575.75,1.3774,1.3774,0,0,1,3.5657,2.1577V3.1646a2.7671,2.7671,0,0,1,2.54-1.7568A2.77,2.77,0,0,1,8.7522,3.5a2.6034,2.6034,0,0,1,1.958-.7754h7.2373a3.8939,3.8939,0,0,1,4.0391,4.0391v3.2891a.75.75,0,0,1-.6943.748,1.378,1.378,0,0,1,.6943,1.2256v2.6318A1.3766,1.3766,0,0,1,20.5793,16.0659ZM4.0725,10.6187a1.341,1.341,0,0,1-.5068-.5059v.5059ZM3.5657,7.3608a1.38,1.38,0,0,1,1.2236-.6895h.3516A2.8063,2.8063,0,0,1,3.5657,5.0981Zm4.4209-.6895V6.0806a2.7863,2.7863,0,0,1-.916.5908Z" fill="#fff"/><path d="M2.1579,1.5a.6216.6216,0,0,1,.6579.6579v9.2105H20.5789a.6215.6215,0,0,1,.6579.6579v2.6316a.6579.6579,0,1,1-1.3158,0V12.6842H2.8158v1.9737a.6216.6216,0,0,1-.6579.6579A.6216.6216,0,0,1,1.5,14.6579v-12.5A.6215.6215,0,0,1,2.1579,1.5m3.9473.6579A2.0236,2.0236,0,0,1,8.0789,4.1316,2.0236,2.0236,0,0,1,6.1052,6.1053,2.0236,2.0236,0,0,1,4.1316,4.1316,2.0236,2.0236,0,0,1,6.1052,2.1579M17.9473,3.4737a3.2217,3.2217,0,0,1,3.2895,3.2895v3.2895H4.7895a.6215.6215,0,0,1-.6579-.6579V8.0789a.6215.6215,0,0,1,.6579-.6579H8.7368V5.4474a1.933,1.933,0,0,1,1.9737-1.9737h7.2368M2.1579,0A2.1105,2.1105,0,0,0,0,2.1579v12.5a2.1105,2.1105,0,0,0,2.1579,2.1579,2.1105,2.1105,0,0,0,2.1579-2.1579v-.4737H18.421v.4737a2.1579,2.1579,0,0,0,4.3158,0V12.0263a2.2154,2.2154,0,0,0-.2817-1.0985,1.4933,1.4933,0,0,0,.2817-.8752V6.7632a4.6549,4.6549,0,0,0-4.7895-4.7895H10.7105a3.6383,3.6383,0,0,0-1.6493.3619A3.51,3.51,0,0,0,6.1052.6579a3.42,3.42,0,0,0-1.9609.6263A2.1056,2.1056,0,0,0,2.1579,0Z" fill="#fff"/></g><path d="M2.1579,1.5A.6216.6216,0,0,0,1.5,2.1579v12.5a.6216.6216,0,0,0,.6579.6579.6216.6216,0,0,0,.6579-.6579V12.6842H19.921v1.9737a.6579.6579,0,0,0,1.3158,0V12.0263a.6216.6216,0,0,0-.6579-.6579H2.8158V2.1579A.6216.6216,0,0,0,2.1579,1.5Zm3.9474.6579A2.0236,2.0236,0,0,0,4.1316,4.1316h0A2.0236,2.0236,0,0,0,6.1053,6.1053h0A2.0236,2.0236,0,0,0,8.0789,4.1316h0A2.0236,2.0236,0,0,0,6.1053,2.1579Zm4.6053,1.3158A1.933,1.933,0,0,0,8.7368,5.4474V7.421H4.7895a.6216.6216,0,0,0-.6579.6579V9.3947a.6216.6216,0,0,0,.6579.6579H21.2368V6.7631a3.2217,3.2217,0,0,0-3.2895-3.2895Z" fill="#1a2026"/></g></g></svg>