<svg xmlns="http://www.w3.org/2000/svg" viewBox="0 0 26.82 16.78"><defs><style>.a{opacity:0.8;}.b{fill:#fff;}.c{fill:#1a2026;}</style></defs><title>Asset 193</title><g class="a"><path class="b" d="M24,15.78a1.87,1.87,0,0,1-1.71-1.12H4.57A1.86,1.86,0,0,1,1,13.92V2.86a1.86,1.86,0,0,1,3.66-.49H22.13A1.87,1.87,0,0,1,23.93,1a1.9,1.9,0,0,1,1.89,1.81V13.92A1.87,1.87,0,0,1,24,15.78Z"/><path class="b" d="M23.93,2a.9.9,0,0,1,.89.86V13.92a.86.86,0,1,1-1.73,0v-.84a.86.86,0,0,1-.81.58H4.46A1,1,0,0,1,4,13.49a.55.55,0,0,1-.23-.18v.61a.86.86,0,0,1-1.73,0V2.86a.86.86,0,1,1,1.73,0v.91a.91.91,0,0,1,.74-.41h18l.08,0s.05,0,.08.08a2085.94,2085.94,0,0,1,.15.05l.08.05s0,0,.05.05,0,0,.05.05,0,0,.05.05,0,.05.05.08,0,0,0,.05v0s0,.05,0,.08V2.86A.86.86,0,0,1,23.93,2M20.07,6.22h2.21a.87.87,0,0,1,.81.61V4.49a0,0,0,0,0,0,0,.09.09,0,0,1,0,.08s0,.05-.05.08,0,.05-.05.08,0,.05-.05.08,0,0-.05.05,0,0-.05.05L22.71,5s0,0-.05,0L20.07,6.22M3.73,6.62a.91.91,0,0,1,.74-.41H16.08l2.41-1.14h-14a.84.84,0,0,1-.74-.43v2M14,9.09h8.23a.82.82,0,0,1,.81.58V7.34a.86.86,0,0,1-.81.58H16.46L14,9.09M3.73,9.5a.91.91,0,0,1,.74-.41v0h5.62L12.5,7.92h-8a.85.85,0,0,1-.74-.41v2M8,11.94H22.28a.87.87,0,0,1,.81.61V10.21a.86.86,0,0,1-.81.58H10.46L8,11.94m-4.32.25A.79.79,0,0,1,4,12l2.46-1.17h-2a.85.85,0,0,1-.74-.41v1.8M23.93,0a2.87,2.87,0,0,0-2.44,1.37H5.31A2.86,2.86,0,0,0,0,2.86V13.92a2.86,2.86,0,0,0,5.13,1.75H21.69a2.86,2.86,0,0,0,5.13-1.75V2.86s0-.07,0-.11A2.9,2.9,0,0,0,23.93,0Z"/></g><path class="c" d="M23.93,2a.86.86,0,0,0-.86.86V4s0-.05,0-.08v0s0,0,0-.05,0-.05-.05-.08,0-.05-.05-.05,0-.05-.05-.05-.05,0-.05-.05l-.08-.05a8078462144290,8078462144290,0,0,1-.15-.05c0-.08-.05-.08-.08-.08l-.08,0h-18a.91.91,0,0,0-.74.41V2.86A.86.86,0,0,0,2,2.86V13.92a.86.86,0,1,0,1.73,0v-.61a.55.55,0,0,0,.23.18,1,1,0,0,0,.51.18H22.28a.86.86,0,0,0,.81-.58v.84a.86.86,0,0,0,1.73,0V2.86A.9.9,0,0,0,23.93,2ZM4,12a.79.79,0,0,0-.28.23v-1.8a.85.85,0,0,0,.74.41h2Zm.46-2.87a.91.91,0,0,0-.74.41v-2a.85.85,0,0,0,.74.41h8L10.08,9.06H4.46Zm12-1.17h5.82a.86.86,0,0,0,.81-.58V9.67a.82.82,0,0,0-.81-.58H14Zm5.82-1.7H20.07L22.66,5s0,0,.05,0l.08-.05s.05,0,.05-.05.05,0,.05-.05,0-.05.05-.08,0-.05.05-.08,0-.05.05-.08a.09.09,0,0,0,0-.08,0,0,0,0,1,0,0V6.83A.87.87,0,0,0,22.28,6.22ZM4.46,5.07h14L16.08,6.22H4.46a.91.91,0,0,0-.74.41v-2A.84.84,0,0,0,4.46,5.07Zm17.81,6.86H8l2.41-1.14H22.28a.86.86,0,0,0,.81-.58v2.34A.87.87,0,0,0,22.28,11.94Z"/></svg>