<svg xmlns="http://www.w3.org/2000/svg" width="18.4815" height="22" viewBox="0 0 18.4815 22"><title>Asset 323</title><g id="Layer_2" data-name="Layer 2"><g id="Layer_1-2" data-name="Layer 1"><g opacity="0.8"><path d="M11.352,21.25a.75.75,0,0,1-.75-.75V15.6207H7.8793V20.5a.75.75,0,0,1-.75.75H1.5a.75.75,0,0,1-.75-.75V12.0553a.75.75,0,0,1,.3906-.6582L7.7875,7.773V2.9078a.75.75,0,0,1,.4141-.6709L11.0161.8287a.7529.7529,0,0,1,.6719,0l2.4785,1.24,2.4795-1.24A.7573.7573,0,0,1,16.9819.75a.75.75,0,0,1,.75.75V5.7223a.7489.7489,0,0,1-.415.6709L14.5014,7.8a.7488.7488,0,0,1-.67,0L11.352,6.5611l-.6572.3291V7.773l6.6465,3.624a.75.75,0,0,1,.3906.6582V20.5a.75.75,0,0,1-.75.75Z" fill="#fff"/><path d="M16.9815,1.5V5.7222L14.1667,7.13,11.3519,5.7222l-1.4074.7037V8.2181l7.037,3.8374V20.5h-5.63V14.87H7.13V20.5H1.5V12.0555L8.537,8.2181V2.9074L11.3519,1.5l2.8148,1.4074L16.9815,1.5M11.3519,0a1.5,1.5,0,0,0-.6708.1584L7.8662,1.5658A1.5,1.5,0,0,0,7.037,2.9074v4.42L.7819,10.7386A1.5,1.5,0,0,0,0,12.0555V20.5A1.5,1.5,0,0,0,1.5,22H7.13a1.5,1.5,0,0,0,1.5-1.5V16.37H9.8519V20.5a1.5,1.5,0,0,0,1.5,1.5h5.63a1.5,1.5,0,0,0,1.5-1.5V12.0555A1.5,1.5,0,0,0,17.7,10.7386l-4.0106-2.187a1.5,1.5,0,0,0,1.1484-.08l2.8148-1.4074a1.5,1.5,0,0,0,.8292-1.3416V1.5A1.5,1.5,0,0,0,16.3107.1584L14.1667,1.23,12.0227.1584A1.5,1.5,0,0,0,11.3519,0Z" fill="#fff"/></g><path d="M11.3519,1.5,8.5371,2.9074V8.2181L1.5,12.0556V20.5H7.13V14.87h4.2222V20.5h5.63V12.0556L9.9445,8.2181V6.4259l1.4074-.7037L14.1667,7.13l2.8148-1.4074V1.5L14.1667,2.9074Z" fill="#708a07"/></g></g></svg>