<svg xmlns="http://www.w3.org/2000/svg" width="25.8199" height="15.7822" viewBox="0 0 25.8199 15.7822"><title>park_gate-black</title><g id="Layer_2" data-name="Layer 2"><g id="Layer_1-2" data-name="Layer 1"><g opacity="0.8"><path d="M23.4561,15.0322a1.6168,1.6168,0,0,1-1.5381-1.124q-.0688.0059-.1392.0059S3.9219,13.9131,3.9,13.9121A1.6139,1.6139,0,0,1,.75,13.418V2.3643a1.6141,1.6141,0,0,1,3.21-.2422H21.8345A1.6172,1.6172,0,0,1,23.4307.75a1.65,1.65,0,0,1,1.6382,1.5752L25.07,13.418A1.6163,1.6163,0,0,1,23.4561,15.0322Z" fill="#fff"/><path d="M23.43,1.5a.8953.8953,0,0,1,.8894.864V13.4182a.864.864,0,1,1-1.728,0V12.58a.8553.8553,0,0,1-.8132.5845H3.965a.9459.9459,0,0,1-.5082-.1779.5536.5536,0,0,1-.2287-.1779v.61a.864.864,0,0,1-1.728,0V2.364a.864.864,0,1,1,1.728,0v.9148a.9132.9132,0,0,1,.7369-.4066H21.9312c.0254,0,.0508.0254.0762.0254s.0508,0,.0762.0762a2085.9425,2085.9425,0,0,1,.1525.0508c.0254.0254.0508.0254.0762.0508,0,.0254.0254.0254.0508.0508.0254,0,.0254.0254.0508.0508.0254,0,.0254.0254.0508.0508s.0254.0508.0508.0763c0,.0254.0254.0254.0254.0508V3.38c0,.0254.0254.0508.0254.0762V2.364A.8569.8569,0,0,1,23.43,1.5M19.5679,5.7184h2.2108a.87.87,0,0,1,.8132.61V3.99a.0249.0249,0,0,0-.0254.0254.0933.0933,0,0,1-.0254.0762c-.0254.0254-.0254.0508-.0508.0762s-.0254.0508-.0508.0762-.0254.0508-.0508.0763c0,.0254-.0254.0254-.0508.0508,0,.0254-.0254.0254-.0508.0508s-.0508.0254-.0762.0508c-.0254,0-.0254.0254-.0508.0254l-2.592,1.22M3.228,6.125a.9132.9132,0,0,1,.7369-.4066H15.5782l2.4141-1.1436H3.965a.8443.8443,0,0,1-.7369-.432V6.125M13.5453,8.59h8.2335a.8242.8242,0,0,1,.8132.5845V6.8365a.8554.8554,0,0,1-.8132.5845H15.9594L13.5453,8.59M3.228,8.9965A.9132.9132,0,0,1,3.965,8.59V8.5645H9.581L11.9951,7.421H3.965a.8528.8528,0,0,1-.7369-.4066V8.9965m4.32,2.44H21.7787a.87.87,0,0,1,.8132.61V9.7081a.8554.8554,0,0,1-.8132.5845H9.9622L7.548,11.4361m-4.32.2541a.7942.7942,0,0,1,.28-.2287l2.465-1.1689H3.965a.8528.8528,0,0,1-.7369-.4066V11.69M23.43,0a2.3672,2.3672,0,0,0-2.1458,1.3723H4.51A2.3639,2.3639,0,0,0,0,2.364V13.4182a2.3636,2.3636,0,0,0,4.3724,1.2458H21.4476A2.3636,2.3636,0,0,0,25.82,13.4182V2.364q0-.0394-.0021-.0788A2.4,2.4,0,0,0,23.43,0Z" fill="#fff"/></g><path d="M23.4305,1.5a.8569.8569,0,0,0-.864.864V3.4567c0-.0254-.0254-.0508-.0254-.0762V3.3551c0-.0254-.0254-.0254-.0254-.0508-.0254-.0254-.0254-.0508-.0508-.0762s-.0254-.0508-.0508-.0508c-.0254-.0254-.0254-.0508-.0508-.0508-.0254-.0254-.0508-.0254-.0508-.0508-.0254-.0254-.0508-.0254-.0762-.0508a8078462144290.684,8078462144290.684,0,0,1-.1525-.0508c-.0254-.0762-.0508-.0762-.0762-.0762s-.0508-.0254-.0762-.0254H3.965a.9131.9131,0,0,0-.7369.4066V2.364a.864.864,0,0,0-1.728,0V13.4182a.864.864,0,1,0,1.728,0v-.61a.5534.5534,0,0,0,.2287.1779.9457.9457,0,0,0,.5082.1779H21.7787a.8554.8554,0,0,0,.8132-.5845v.8386a.864.864,0,0,0,1.728,0V2.364A.8953.8953,0,0,0,23.4305,1.5ZM3.5075,11.4615a.7944.7944,0,0,0-.28.2287V9.8859a.8528.8528,0,0,0,.7369.4066H5.9725ZM3.965,8.59a.9131.9131,0,0,0-.7369.4066V7.0144a.8528.8528,0,0,0,.7369.4066h8.03L9.581,8.5645H3.965ZM15.9594,7.421h5.8193a.8554.8554,0,0,0,.8132-.5845V9.1744a.8242.8242,0,0,0-.8132-.5845H13.5453Zm5.8193-1.7026H19.5679l2.592-1.22c.0254,0,.0254-.0254.0508-.0254.0254-.0254.0508-.0254.0762-.0508s.0508-.0254.0508-.0508c.0254-.0254.0508-.0254.0508-.0508.0254-.0254.0254-.0508.0508-.0762s.0254-.0508.0508-.0762.0254-.0508.0508-.0762a.0934.0934,0,0,0,.0254-.0762.0249.0249,0,0,1,.0254-.0254V6.3283A.87.87,0,0,0,21.7787,5.7184ZM3.965,4.5748H17.9923L15.5782,5.7184H3.965a.9131.9131,0,0,0-.7369.4066V4.1428A.8443.8443,0,0,0,3.965,4.5748Zm17.8138,6.8612H7.548l2.4141-1.1435H21.7787a.8554.8554,0,0,0,.8132-.5845V12.046A.87.87,0,0,0,21.7787,11.4361Z" fill="#1a2026"/></g></g></svg>