<svg xmlns="http://www.w3.org/2000/svg" viewBox="0 0 21.48 25"><defs><style>.a{opacity:0.8;}.b{fill:#fff;}</style></defs><title>Asset 266</title><g class="a"><path class="b" d="M12.85,23.5a1.5,1.5,0,0,1-1.5-1.5V17.87H10.13V22a1.5,1.5,0,0,1-1.5,1.5H3A1.5,1.5,0,0,1,1.5,22V13.56a1.5,1.5,0,0,1,.78-1.32L8.54,8.83V4.41a1.5,1.5,0,0,1,.83-1.34l2.81-1.41a1.5,1.5,0,0,1,1.34,0l2.14,1.07,2.14-1.07A1.5,1.5,0,0,1,20,3V7.22a1.5,1.5,0,0,1-.83,1.34L16.34,10a1.5,1.5,0,0,1-1.15.08l4,2.19A1.5,1.5,0,0,1,20,13.56V22a1.5,1.5,0,0,1-1.5,1.5Z"/><path class="b" d="M18.48,3V7.22L15.67,8.63,12.85,7.22l-1.41.7V9.72l7,3.84V22H12.85V16.37H8.63V22H3V13.56l7-3.84V4.41L12.85,3l2.81,1.41L18.48,3m0-3a3,3,0,0,0-1.34.32l-1.47.74L14.19.32a3,3,0,0,0-2.68,0L8.7,1.72A3,3,0,0,0,7,4.41V7.94l-5.47,3A3,3,0,0,0,0,13.56V22a3,3,0,0,0,3,3H8.63a3,3,0,0,0,2.11-.87,3,3,0,0,0,2.11.87h5.63a3,3,0,0,0,3-3V13.56a3,3,0,0,0-1.56-2.63l-1-.55.92-.46a3,3,0,0,0,1.66-2.68V3a3,3,0,0,0-3-3Z"/></g><path d="M12.85,3,10,4.41V9.72L3,13.56V22H8.63V16.37h4.22V22h5.63V13.56l-7-3.84V7.93l1.41-.7,2.81,1.41,2.81-1.41V3L15.67,4.41Z"/></svg>