<svg xmlns="http://www.w3.org/2000/svg" width="18.7501" height="17" viewBox="0 0 18.7501 17"><title>Asset 309</title><g id="Layer_2" data-name="Layer 2"><g id="Layer_1-2" data-name="Layer 1"><g opacity="0.8"><path d="M13.75,16.25a.75.75,0,0,1-.7168-.5293l-1.72-5.5957H7.4371L5.7164,15.7207A.75.75,0,0,1,5,16.25H3.25a.75.75,0,0,1-.7168-.9707l1.585-5.1543H2.8121a2.0625,2.0625,0,1,1,0-4.125H5.3892l.3457-1.125H4.5621a2.0625,2.0625,0,0,1,0-4.125h9.625a2.0625,2.0625,0,0,1,0,4.125H13.0142L13.36,6h2.5771a2.0625,2.0625,0,0,1,0,4.125H14.6324l1.584,5.1543A.75.75,0,0,1,15.5,16.25ZM10.0416,6,9.6959,4.875H9.0533L8.7076,6Z" fill="#fff"/><path d="M14.1875,1.5a1.3125,1.3125,0,0,1,0,2.625H12l.8066,2.625h3.1309a1.3125,1.3125,0,0,1,0,2.625H13.6166L15.5,15.5H13.75L11.8668,9.375H6.8834L5,15.5H3.25L5.1334,9.375H2.8125a1.3125,1.3125,0,0,1,0-2.625H5.9434L6.75,4.125H4.5625a1.3125,1.3125,0,0,1,0-2.625h9.625M7.6934,6.75h3.3632L10.25,4.125H8.5L7.6934,6.75M14.1875,0H4.5625A2.8121,2.8121,0,0,0,3.16,5.25h-.348a2.8125,2.8125,0,0,0,0,5.625h.29L1.8162,15.0591A1.5,1.5,0,0,0,3.25,17H5a1.5,1.5,0,0,0,1.4338-1.0591L7.9915,10.875h2.7673l1.5575,5.0658A1.5,1.5,0,0,0,13.75,17H15.5a1.5,1.5,0,0,0,1.4338-1.9409L15.6472,10.875h.29a2.8125,2.8125,0,1,0,0-5.625H15.59A2.8121,2.8121,0,0,0,14.1875,0Z" fill="#fff"/></g><path d="M4.5625,1.5a1.3125,1.3125,0,0,0,0,2.625H6.75L5.9434,6.75H2.8125a1.3125,1.3125,0,0,0,0,2.625H5.1333L3.25,15.5H5L6.8833,9.375h4.9835L13.75,15.5H15.5L13.6166,9.375h2.3209a1.3125,1.3125,0,0,0,0-2.625H12.8066L12,4.125h2.1875a1.3125,1.3125,0,0,0,0-2.625ZM8.5,4.125h1.75l.8066,2.625H7.6934Z" fill="#1a2026"/></g></g></svg>