<svg xmlns="http://www.w3.org/2000/svg" viewBox="0 0 26 26.23"><defs><style>.cls-1{fill:#1a2026;}</style></defs><g id="Layer_2" data-name="Layer 2"><g id="Layer_1-2" data-name="Layer 1"><path class="cls-1" d="M6.56,17.48l.1.91a15.9,15.9,0,0,0,12.72,0l.11-.91A15.91,15.91,0,0,0,6.56,17.48Z"/><path class="cls-1" d="M20.57,13.18l-.1-.06a15.8,15.8,0,0,1-5-3.24,3.5,3.5,0,0,0-4.85,0,15.84,15.84,0,0,1-5,3.24.57.57,0,0,0-.31.73l0,.09,1.48,2.23a15.88,15.88,0,0,1,12.47,0l1.47-2.23A.54.54,0,0,0,20.57,13.18ZM13,13.57a2.3,2.3,0,0,1-1.36-2.29v-.06a2.13,2.13,0,0,1,1.36-.5h0a2.15,2.15,0,0,1,1.37.5v.06A2.31,2.31,0,0,1,13,13.57Z"/><path class="cls-1" d="M25,6.72,14.21.38A1.76,1.76,0,0,0,12,.37L1.06,6.7A2.51,2.51,0,0,0,0,8.72V24.11a2.12,2.12,0,0,0,2.11,2.12H23.89A2.12,2.12,0,0,0,26,24.11V8.63A2.44,2.44,0,0,0,25,6.72ZM23,23.19H3V9L13.11,3.52,23,9Z"/></g></g></svg>