<svg xmlns="http://www.w3.org/2000/svg" width="24" height="26.6" viewBox="0 0 24 26.6">
  <title>alert</title>
  <g id="Layer_2" data-name="Layer 2">
    <g id="Layer_1-2" data-name="Layer 1">
      <path id="Path_2596" data-name="Path 2596" d="M16,23.1a4,4,0,0,1-8,0H1.2A1.1,1.1,0,0,1,0,22H0V20.5a2.6,2.6,0,0,1,2.6-2.6c.1,0,.2,0,.2-.2h0V12.1A9.2,9.2,0,0,1,9.2,3.3V2.9A2.7,2.7,0,0,1,11.9,0a2.8,2.8,0,0,1,2.9,2.8h0v.4a9.2,9.2,0,0,1,6.4,8.8v5.6a.2.2,0,0,0,.2.2h0A2.6,2.6,0,0,1,24,20.5v1.4a1.2,1.2,0,0,1-1.2,1.2H16Z" fill="#1a2026"/>
    </g>
  </g>
</svg>
