<svg xmlns="http://www.w3.org/2000/svg" width="21.7503" height="18.7933" viewBox="0 0 21.7503 18.7933"><title>Asset 313</title><g id="Layer_2" data-name="Layer 2"><g id="Layer_1-2" data-name="Layer 1"><g opacity="0.8"><path d="M4.3672,18.043a1.602,1.602,0,0,1-1.6206-1.6895V12.8887A1.6473,1.6473,0,0,1,3.21,11.6621L9.7852,6.18a1.6586,1.6586,0,0,1,1.1538-.4521,1.704,1.704,0,0,1,1.2085.502l6.4531,5.3965a1.7813,1.7813,0,0,1,.5977,1.2627v3.4648A1.7825,1.7825,0,0,1,17.377,18.043Z" fill="#fff"/><path d="M10.9394,6.4776a.96.96,0,0,1,.6794.2834l6.5,5.4406a1.0176,1.0176,0,0,1,.3291.6874v3.4648a1.0356,1.0356,0,0,1-1.0711.94H4.367a.8638.8638,0,0,1-.8707-.94V12.8889a.9289.9289,0,0,1,.24-.6924L10.265,6.756a.96.96,0,0,1,.6744-.2784m0-1.5h0a2.4486,2.4486,0,0,0-1.6712.6566l-6.4919,5.41q-.0474.04-.0915.0829a2.3861,2.3861,0,0,0-.6884,1.7619v3.4648a2.3531,2.3531,0,0,0,2.3707,2.44h13.01a2.5108,2.5108,0,0,0,2.5711-2.44V12.8889a2.4823,2.4823,0,0,0-.77-1.7491q-.0465-.0464-.0968-.0885l-6.4613-5.408a2.446,2.446,0,0,0-1.681-.6657Z" fill="#fff"/><path d="M19.2793,11.05a1.7122,1.7122,0,0,1-1.2153-.502L10.9248,4.374,3.6377,10.5869a1.6746,1.6746,0,0,1-1.1665.457A1.7208,1.7208,0,0,1,1.2656,8.0947L8.9663,1.5293A2.8058,2.8058,0,0,1,10.9292.75a2.8363,2.8363,0,0,1,2.0156.83l7.5107,6.4941a1.7321,1.7321,0,0,1,.0425,2.47A1.7066,1.7066,0,0,1,19.2793,11.05Z" fill="#fff"/><path d="M10.9292,1.5a2.1,2.1,0,0,1,1.4866.611l7.5493,6.5307a.9709.9709,0,0,1-1.3715,1.3746l-7.5487-6.53a.1651.1651,0,0,0-.2315,0l-7.6619,6.53A.9709.9709,0,1,1,1.79,8.6306l7.6623-6.53A2.1023,2.1023,0,0,1,10.9292,1.5m0-1.5A3.5866,3.5866,0,0,0,8.4451.9885L.8175,7.489q-.04.0344-.0782.0715a2.4709,2.4709,0,0,0,3.4165,3.57l6.7667-5.7667L17.58,11.1233A2.4709,2.4709,0,0,0,21.0243,7.58q-.0377-.0376-.0779-.0724L13.4317,1.0065A3.5817,3.5817,0,0,0,10.9292,0Z" fill="#fff"/></g><path d="M17.377,17.2933H4.367a.8638.8638,0,0,1-.8707-.94V12.889a.9288.9288,0,0,1,.24-.6924L10.265,6.756a.9562.9562,0,0,1,1.3538.005l6.5,5.4405a1.0176,1.0176,0,0,1,.3291.6874v3.4647A1.0356,1.0356,0,0,1,17.377,17.2933Z" fill="#36520c"/><path d="M19.2792,10.3a.9672.9672,0,0,1-.6856-.2835l-7.5487-6.53a.1652.1652,0,0,0-.2315,0l-7.6619,6.53A.9709.9709,0,0,1,1.79,8.6306l7.6623-6.53a2.1145,2.1145,0,0,1,2.963.01l7.5493,6.5307A.9707.9707,0,0,1,19.2792,10.3Z" fill="#36520c"/></g></g></svg>