<svg xmlns="http://www.w3.org/2000/svg" viewBox="0 0 32 25"><defs><style>.a{opacity:0.8;}.b{fill:#82724e;}.c{fill:#fff;}</style></defs><title>newAsset 1</title><g class="a"><polygon class="b" points="6 7 3 7 3 3 29 3 29 7 26 7 26 22 22 22 22 11 10 11 10 22 6 22 6 7"/><path class="c" d="M29,3V7H26V22H22V11H10V22H6V7H3V3H29m0-3H3A3,3,0,0,0,0,3V7a3,3,0,0,0,3,3V22a3,3,0,0,0,3,3h4a3,3,0,0,0,3-3V14h6v8a3,3,0,0,0,3,3h4a3,3,0,0,0,3-3V10a3,3,0,0,0,3-3V3a3,3,0,0,0-3-3Z"/></g><polygon class="b" points="6 7 3 7 3 3 29 3 29 7 26 7 26 22 22 22 22 11 10 11 10 22 6 22 6 7"/></svg>