<svg xmlns="http://www.w3.org/2000/svg" width="13.9906" height="21" viewBox="0 0 13.9906 21"><title>Asset 308</title><g id="Layer_2" data-name="Layer 2"><g id="Layer_1-2" data-name="Layer 1"><g opacity="0.8"><path d="M9.7512,8.4836a1.0869,1.0869,0,0,1-1.084-1.085,1.0847,1.0847,0,0,1,.3262-.7734,2.0677,2.0677,0,0,0-.0088-2.9131,1.0834,1.0834,0,0,1,1.5332-1.5312,4.2319,4.2319,0,0,1,0,5.9844A1.078,1.078,0,0,1,9.7512,8.4836Z" fill="#fff"/><path d="M9.7509,2.613a.3337.3337,0,0,1,.2363.0978,3.4825,3.4825,0,0,1,0,4.9242.3334.3334,0,0,1-.4718,0,.3321.3321,0,0,1,0-.472,2.8152,2.8152,0,0,0,0-3.98.334.334,0,0,1,.2355-.57m0-1.5A1.8338,1.8338,0,0,0,8.4557,4.2448,1.3153,1.3153,0,0,1,8.454,6.1031,1.81,1.81,0,0,0,7.917,7.399a1.8424,1.8424,0,0,0,.5461,1.305,1.8334,1.8334,0,0,0,2.5833-.0068,4.9826,4.9826,0,0,0,.0019-7.0467A1.8247,1.8247,0,0,0,9.7509,1.113Z" fill="#fff"/><path d="M10.7736,9.5959a1.0834,1.0834,0,0,1-.7656-1.8506,3.639,3.639,0,0,0,0-5.1455,1.0835,1.0835,0,1,1,1.5342-1.53,5.8068,5.8068,0,0,1-.002,8.209A1.0777,1.0777,0,0,1,10.7736,9.5959Z" fill="#fff"/><path d="M10.7739,1.5a.332.332,0,0,1,.2359.0978,5.0566,5.0566,0,0,1,0,7.1506.3338.3338,0,1,1-.4718-.4724,4.3885,4.3885,0,0,0,0-6.206.3339.3339,0,0,1,.2359-.57m0-1.5A1.8344,1.8344,0,0,0,8.94,1.8354a1.8207,1.8207,0,0,0,.54,1.2977,2.8885,2.8885,0,0,1-.0024,4.082A1.8338,1.8338,0,0,0,12.07,9.8091a6.5566,6.5566,0,0,0,0-9.2722A1.8189,1.8189,0,0,0,10.7739,0Z" fill="#fff"/><path d="M8.7287,7.4445a1.0834,1.0834,0,0,1-.7666-1.8506.49.49,0,0,0,0-.6934A1.0834,1.0834,0,1,1,9.4943,3.3683a2.6559,2.6559,0,0,1,.001,3.7578A1.078,1.078,0,0,1,8.7287,7.4445Z" fill="#fff"/><path d="M8.7276,3.8a.3338.3338,0,0,1,.2362.0978,1.9068,1.9068,0,0,1,0,2.6984A.3339.3339,0,0,1,8.492,6.124a1.24,1.24,0,0,0,0-1.7538.3338.3338,0,0,1,.2356-.57m0-1.5A1.834,1.834,0,0,0,7.27,5.2472a1.8339,1.8339,0,0,0,2.7557,2.4084,3.4068,3.4068,0,0,0-.0023-4.8187A1.8237,1.8237,0,0,0,8.7276,2.3Z" fill="#fff"/><path d="M4.24,8.4836a1.077,1.077,0,0,1-.7686-.32,4.2319,4.2319,0,0,1,.002-5.9824,1.0845,1.0845,0,0,1,1.5352.002,1.086,1.086,0,0,1-.002,1.53,2.0653,2.0653,0,0,0,0,2.92A1.07,1.07,0,0,1,5.3244,7.4a1.0865,1.0865,0,0,1-.3213.77A1.0721,1.0721,0,0,1,4.24,8.4836Z" fill="#fff"/><path d="M4.24,2.613a.334.334,0,0,1,.236.57,2.8145,2.8145,0,0,0,0,3.98.3338.3338,0,1,1-.472.472,3.4827,3.4827,0,0,1,0-4.9244A.3322.3322,0,0,1,4.24,2.613m0-1.5a1.8208,1.8208,0,0,0-1.2983.5388,4.9827,4.9827,0,0,0,.0015,7.0439A1.8338,1.8338,0,1,0,5.5327,6.0982,1.3145,1.3145,0,0,1,5.5369,4.244,1.834,1.834,0,0,0,4.24,1.113Z" fill="#fff"/><path d="M3.217,9.5959A1.08,1.08,0,0,1,2.4523,9.28,5.8068,5.8068,0,0,1,2.45,1.0676,1.0838,1.0838,0,0,1,3.9836,2.6a3.639,3.639,0,0,0,0,5.1455A1.084,1.084,0,0,1,3.217,9.5959Z" fill="#fff"/><path d="M3.2172,1.5a.3339.3339,0,0,1,.2362.57,4.3885,4.3885,0,0,0,0,6.206.334.334,0,0,1-.4724.4724,5.056,5.056,0,0,1,0-7.1506A.3332.3332,0,0,1,3.2172,1.5m0-1.5A1.8225,1.8225,0,0,0,1.9211.5363,6.5561,6.5561,0,0,0,1.92,9.8089,1.834,1.834,0,0,0,4.5157,7.217a2.8885,2.8885,0,0,1-.0016-4.0863A1.8339,1.8339,0,0,0,3.2172,0Z" fill="#fff"/><path d="M5.2629,7.4445a1.08,1.08,0,0,1-.7646-.3154,2.6582,2.6582,0,0,1-.002-3.7607A1.0838,1.0838,0,1,1,6.0275,4.9025a.49.49,0,0,0,.002.6914,1.084,1.084,0,0,1-.7666,1.8506Z" fill="#fff"/><path d="M5.2634,3.8A.3338.3338,0,0,1,5.5,4.37a1.24,1.24,0,0,0,0,1.7538.3342.3342,0,0,1-.4726.4726,1.9087,1.9087,0,0,1,0-2.6984A.3338.3338,0,0,1,5.2634,3.8m0-1.5a1.823,1.823,0,0,0-1.2953.5355,3.4087,3.4087,0,0,0-.0022,4.8208,1.8344,1.8344,0,0,0,2.7554-2.41A1.8339,1.8339,0,0,0,5.2634,2.3Z" fill="#fff"/><path d="M6.9953,20.25a1.5021,1.5021,0,0,1-1.501-1.501V10.8156a1.5008,1.5008,0,0,1,.3223-.9277V5.4767a1.1792,1.1792,0,0,1,2.3584,0V9.8889a1.5031,1.5031,0,0,1,.3213.9268v7.9336A1.5021,1.5021,0,0,1,6.9953,20.25Z" fill="#fff"/><path d="M6.9954,5.0476a.4293.4293,0,0,1,.4292.4292V10.2a.75.75,0,0,1,.3218.6158V18.749a.751.751,0,0,1-1.502,0V10.8158A.75.75,0,0,1,6.5662,10.2V5.4768a.4291.4291,0,0,1,.4292-.4292m0-1.5A1.9314,1.9314,0,0,0,5.0662,5.4768v4.18a2.25,2.25,0,0,0-.3218,1.1588V18.749a2.251,2.251,0,0,0,4.502,0V10.8158a2.2441,2.2441,0,0,0-.3218-1.159v-4.18A1.9314,1.9314,0,0,0,6.9954,3.5476Z" fill="#fff"/></g><path d="M9.9872,2.7108a.3338.3338,0,0,0-.4718.4724,2.8152,2.8152,0,0,1,0,3.98.3322.3322,0,0,0,0,.472.3334.3334,0,0,0,.4718,0,3.4825,3.4825,0,0,0,0-4.9242Z" fill="#1a2026"/><path d="M11.01,1.5978a.3338.3338,0,1,0-.4718.4722,4.3886,4.3886,0,0,1,0,6.206.3338.3338,0,1,0,.4718.4724,5.0566,5.0566,0,0,0,0-7.1506Z" fill="#1a2026"/><path d="M8.9638,3.8982a.3337.3337,0,1,0-.4718.472,1.24,1.24,0,0,1,0,1.7538.3339.3339,0,0,0,.4718.4726,1.9067,1.9067,0,0,0,0-2.6984Z" fill="#1a2026"/><path d="M3.6522,5.1728a2.7949,2.7949,0,0,1,.8242-1.99.3339.3339,0,1,0-.472-.4724,3.4827,3.4827,0,0,0,0,4.9244.3338.3338,0,1,0,.472-.472A2.7961,2.7961,0,0,1,3.6522,5.1728Z" fill="#1a2026"/><path d="M2.1682,5.1728A4.3594,4.3594,0,0,1,3.4534,2.07a.334.334,0,0,0-.4724-.4722,5.0561,5.0561,0,0,0,0,7.1506.334.334,0,1,0,.4724-.4724A4.36,4.36,0,0,1,2.1682,5.1728Z" fill="#1a2026"/><path d="M5.5,3.8982a.3344.3344,0,0,0-.4726,0,1.9087,1.9087,0,0,0,0,2.6984A.3342.3342,0,0,0,5.5,6.124,1.24,1.24,0,0,1,5.5,4.37.3344.3344,0,0,0,5.5,3.8982Z" fill="#1a2026"/><path d="M7.4246,10.2V5.4768a.4292.4292,0,0,0-.8584,0V10.2a.75.75,0,0,0-.3218.6158V18.749a.751.751,0,1,0,1.502,0V10.8158A.75.75,0,0,0,7.4246,10.2Z" fill="#1a2026"/></g></g></svg>