<svg xmlns="http://www.w3.org/2000/svg" width="29.5309" height="20.3582" viewBox="0 0 29.5309 20.3582"><title>Asset 322</title><g id="Layer_2" data-name="Layer 2"><g id="Layer_1-2" data-name="Layer 1"><g opacity="0.8"><path d="M11.2306,19.6082a1.8954,1.8954,0,0,1-1.95-1.95v-1.2a1.8951,1.8951,0,0,1,1.95-1.9492h.18L13.1,11.745a2.0488,2.0488,0,0,1-1.4883.6924l-.2852.0049a.7483.7483,0,0,1-.2051-.0283.7721.7721,0,0,1-.2187.0371l-7.2363.1484a.7343.7343,0,0,1-.2031-.0283.75.75,0,0,1-.2187.0371l-.3008.0049A2.0984,2.0984,0,0,1,.8693,10.5555L.75,4.7479a2.0606,2.0606,0,0,1,2.0322-2.082s.27-.0059.2754-.0059a.7447.7447,0,0,1,.2031.0283.7712.7712,0,0,1,.2178-.0371l.2266-.0049A2.307,2.307,0,0,1,5.9181.7967L8.19.7508a2.3331,2.3331,0,0,1,2.2812,1.7578l.2432-.0049a.7483.7483,0,0,1,.2051.0283.7653.7653,0,0,1,.2178-.0371l.27-.0059a2.049,2.049,0,0,1,2.1074,1.998l.1191,5.8066a2.133,2.133,0,0,1-.1426.8115l4.3008-7.0381a1.3791,1.3791,0,0,1,1.24-.7188,1.4083,1.4083,0,0,1,1.2705.7734l6.35,10.3867h.18A1.8949,1.8949,0,0,1,28.78,16.4579v1.2a1.8951,1.8951,0,0,1-1.9492,1.95Zm10.3369-5.1-2.5469-4.376-2.626,4.376Z" fill="#fff"/><path d="M8.2363,1.5A1.5475,1.5475,0,0,1,9.7844,3.013l.0053.26.924-.0189.173,8.4478-7.2158.1478H3.6665l-.173-8.4478.924-.0189-.0053-.26A1.5514,1.5514,0,0,1,5.9337,1.5468L8.204,1.5l.0323,0m-2.94,1.6049h.0044l.0053.26L8.9142,3.29l-.0053-.26A.6676.6676,0,0,0,8.24,2.38H8.2264l-2.27.0465a.6715.6715,0,0,0-.66.6782m6.1542.134A1.2934,1.2934,0,0,1,12.764,4.5014l.119,5.8079a1.3472,1.3472,0,0,1-1.2879,1.3777l-.2684.0055-.173-8.4478.2684-.0055.0287,0M3.0578,3.41l.173,8.4478-.26.0053-.0259,0A1.3559,1.3559,0,0,1,1.6192,10.54L1.5,4.7321a1.3019,1.3019,0,0,1,1.298-1.3163l.26-.0053m15.973.6878a.66.66,0,0,1,.6.36l6.6,10.8h.6a1.1753,1.1753,0,0,1,1.2,1.2v1.2a1.1753,1.1753,0,0,1-1.2,1.2h-15.6a1.1753,1.1753,0,0,1-1.2-1.2v-1.2a1.1753,1.1753,0,0,1,1.2-1.2h.6l6.6-10.8a.66.66,0,0,1,.6-.36m-3.96,11.16h7.8l-3.84-6.6-3.96,6.6M8.2363,0,8.1734.0006,5.903.0471a3.0637,3.0637,0,0,0-2.7546,1.866Q3.1034,1.91,3.0579,1.91l-.0309,0-.26.0053A2.81,2.81,0,0,0,.0006,4.7627L.12,10.5706a2.8541,2.8541,0,0,0,2.8258,2.7932l.0569-.0005.2593-.0053a1.4989,1.4989,0,0,0,.2175-.02,1.501,1.501,0,0,0,.1874.0117l.0411-.0005,7.21-.1476a1.5149,1.5149,0,0,0,.22-.0205,1.5108,1.5108,0,0,0,.1891.0118h.0093l-.3516.5752a2.6422,2.6422,0,0,0-2.4529,2.6906v1.2a2.6443,2.6443,0,0,0,2.7,2.7h15.6a2.6443,2.6443,0,0,0,2.7-2.7v-1.2a2.6422,2.6422,0,0,0-2.4529-2.6906L20.9346,3.715a2.181,2.181,0,0,0-3.8074,0L14.3416,8.2732l-.0779-3.8025a2.7831,2.7831,0,0,0-2.813-2.7318l-.06.0006-.2679.0055c-.0437.0009-.087.0037-.13.0082A3.0669,3.0669,0,0,0,8.2363,0ZM17.72,13.7582l1.2908-2.1514,1.2517,2.1514Z" fill="#fff"/></g><path d="M26.8308,15.2582h-.6l-6.6-10.8a.68.68,0,0,0-1.2,0l-6.6,10.8h-.6a1.1753,1.1753,0,0,0-1.2,1.2v1.2a1.1753,1.1753,0,0,0,1.2,1.2h15.6a1.1753,1.1753,0,0,0,1.2-1.2v-1.2A1.1753,1.1753,0,0,0,26.8308,15.2582Zm-11.76,0,3.96-6.6,3.84,6.6ZM10.7137,3.2536l-.924.0189-.0053-.26A1.5476,1.5476,0,0,0,8.204,1.5l-2.27.0465A1.5514,1.5514,0,0,0,4.4121,3.123l.0053.26-.924.0189.173,8.4478h.0044l7.2158-.1478Zm-5.4075.1108-.0053-.26H5.2965a.6715.6715,0,0,1,.66-.6782l2.27-.0465a.6677.6677,0,0,1,.6824.6507l.0053.26Zm6.1158-.1252-.2684.0055.173,8.4478.2684-.0055a1.3471,1.3471,0,0,0,1.2879-1.3777L12.764,4.5014A1.2943,1.2943,0,0,0,11.4221,3.2392ZM3.0579,3.41l-.26.0053A1.3019,1.3019,0,0,0,1.5,4.7321L1.6192,10.54a1.3547,1.3547,0,0,0,1.352,1.3236l.26-.0053Z" fill="#1a2026"/></g></g></svg>