<svg xmlns="http://www.w3.org/2000/svg" width="17.6667" height="19" viewBox="0 0 17.6667 19"><title>Asset 307</title><g id="Layer_2" data-name="Layer 2"><g id="Layer_1-2" data-name="Layer 1"><g opacity="0.8"><path d="M1.5,18.25a.75.75,0,0,1-.75-.75v-.667a1.3823,1.3823,0,0,1,1.3359-1.4141,1.38,1.38,0,0,1,1.3311-1.334V8.9171h-.583a.75.75,0,0,1-.6709-.4141L.8289,5.8361A.75.75,0,0,1,1.5,4.75a.63.63,0,0,1,.0742.0039c.64.0635,1.2871.0957,1.9258.0957.5693,0,1.1455-.0254,1.7168-.0762a11.7577,11.7577,0,0,0,2.2-2.1934V2.1671A1.37,1.37,0,0,1,8.8337.75a1.3853,1.3853,0,0,1,1.416,1.417V2.58a11.7872,11.7872,0,0,0,2.2,2.1934c.5713.0508,1.1475.0762,1.7168.0762.6387,0,1.2871-.0322,1.9258-.0957a.63.63,0,0,1,.0742-.0039.75.75,0,0,1,.6709,1.085l-1.333,2.667a.7489.7489,0,0,1-.6709.415H14.25v5.168a1.3613,1.3613,0,0,1,1.332,1.334,1.3834,1.3834,0,0,1,1.335,1.4141V17.5a.75.75,0,0,1-.75.75Zm9.917-4.167V8.9171H10.25v5.166Zm-4,0V8.9171H6.25v5.166Z" fill="#fff"/><path d="M8.8334,1.5A.63.63,0,0,1,9.5,2.1667v.6667A12.6417,12.6417,0,0,0,12.1667,5.5q1,.1,2,.1t2-.1L14.8334,8.1667H13.5v6.6667h.6667a.63.63,0,0,1,.6667.6666v.6667H15.5a.63.63,0,0,1,.6667.6667V17.5H1.5v-.6666a.63.63,0,0,1,.6667-.6667h.6667V15.5A.63.63,0,0,1,3.5,14.8333h.6667V8.1667H2.8334L1.5,5.5q1,.1,2,.1t2-.1A12.6417,12.6417,0,0,0,8.1667,2.8333V2.1667A.63.63,0,0,1,8.8334,1.5M9.5,14.8333h2.6667V8.1667H9.5v6.6667m-4,0H8.1667V8.1667H5.5v6.6667M8.8334,0A2.1191,2.1191,0,0,0,6.6667,2.1667v.1525A10.9209,10.9209,0,0,1,4.93,4.0447C4.4535,4.0814,3.9741,4.1,3.5,4.1c-.6138,0-1.2365-.0312-1.8508-.0926Q1.5742,4,1.5,4A1.5,1.5,0,0,0,.1584,6.1708L1.4918,8.8375a1.5,1.5,0,0,0,1.1749.82v3.83a2.0768,2.0768,0,0,0-1.22,1.2924A2.111,2.111,0,0,0,0,16.8333V17.5A1.5,1.5,0,0,0,1.5,19H16.1667a1.5,1.5,0,0,0,1.5-1.5v-.6666A2.111,2.111,0,0,0,16.22,14.78,2.0771,2.0771,0,0,0,15,13.4876v-3.83a1.5,1.5,0,0,0,1.175-.82l1.3333-2.6667A1.5,1.5,0,0,0,16.1669,4q-.0744,0-.1495.0075c-.6142.0614-1.2369.0926-1.8508.0926-.4741,0-.9535-.0186-1.43-.0553A10.9209,10.9209,0,0,1,11,2.3192V2.1667A2.1191,2.1191,0,0,0,8.8334,0Z" fill="#fff"/></g><path d="M15.5,16.1667h-.6667V15.5a.63.63,0,0,0-.6667-.6667H13.5V8.1667h1.3333L16.1667,5.5a20.05,20.05,0,0,1-4,0A12.6415,12.6415,0,0,1,9.5,2.8333V2.1667a.6667.6667,0,0,0-1.3333,0v.6667A12.6415,12.6415,0,0,1,5.5,5.5a20.05,20.05,0,0,1-4,0L2.8333,8.1667H4.1667v6.6667H3.5a.63.63,0,0,0-.6667.6667v.6667H2.1667a.63.63,0,0,0-.6667.6667V17.5H16.1667v-.6667A.63.63,0,0,0,15.5,16.1667ZM8.1667,14.8333H5.5V8.1667H8.1667Zm4,0H9.5V8.1667h2.6667Z" fill="#1a2026"/></g></g></svg>