<svg xmlns="http://www.w3.org/2000/svg" width="19.5118" height="23" viewBox="0 0 19.5118 23"><title>Asset 320</title><g id="Layer_2" data-name="Layer 2"><g id="Layer_1-2" data-name="Layer 1"><g opacity="0.8"><path d="M4.79,22.25a1.9652,1.9652,0,0,1-.793-.2285l-.0957-.042-.084-.0283a1.4463,1.4463,0,0,1-.9766-.6934,1.6658,1.6658,0,0,1,.1611-1.3418l1.1572-3.0977a8.9975,8.9975,0,1,1,11.2334-.0186l1.1631,3.13a1.7566,1.7566,0,0,1,.1367,1.3164c-.1943.4531-.623.6-1.0771.7549a2.135,2.135,0,0,1-.8291.2275h-.001c-.7129,0-.9551-.5908-1.168-1.1123l-.9932-2.791a9.0636,9.0636,0,0,1-5.6807.001l-.9795,2.7188C5.7119,21.6821,5.4873,22.25,4.79,22.25Zm4.9658-18.28A5.7866,5.7866,0,1,0,15.543,9.7563,5.7255,5.7255,0,0,0,9.7559,3.9692Zm0,11.3545a5.5679,5.5679,0,1,1,5.5674-5.5674A5.5731,5.5731,0,0,1,9.7559,15.3237Zm0-7.916a2.3481,2.3481,0,1,0,2.3486,2.3486A2.3514,2.3514,0,0,0,9.7559,7.4077Zm0,4.4971A2.1314,2.1314,0,0,1,7.627,9.7759a2.1289,2.1289,0,1,1,4.2578,0A2.1314,2.1314,0,0,1,9.7559,11.9048Z" fill="#fff"/><path d="M9.7559,1.5a8.266,8.266,0,0,1,4.7377,15.0325l1.3593,3.6582c.28.82.28.84-.48,1.0994a1.8367,1.8367,0,0,1-.5875.188c-.2162,0-.291-.1978-.4919-.6877l-1.2194-3.4383a8.2491,8.2491,0,0,1-3.2983.68,8.1533,8.1533,0,0,1-3.2784-.68L5.2581,20.79c-.205.5184-.279.71-.4677.71a1.9762,1.9762,0,0,1-.5918-.21c-.78-.28-.84-.24-.5-1.0994l1.3594-3.6382A8.2609,8.2609,0,0,1,9.7559,1.5m0,14.7927A6.5368,6.5368,0,1,0,3.2191,9.7559a6.5138,6.5138,0,0,0,6.5367,6.5368m0-11.3544A4.8176,4.8176,0,1,1,4.9382,9.7559,4.82,4.82,0,0,1,9.7559,4.9383m0,7.9161A3.0985,3.0985,0,1,0,6.6574,9.7559a3.1011,3.1011,0,0,0,3.0984,3.0985m0-4.4578A1.3793,1.3793,0,1,1,8.3765,9.7759,1.3952,1.3952,0,0,1,9.7559,8.3966M9.7559,0A9.76,9.76,0,0,0,3.271,17.05l-.9773,2.6155a2.3137,2.3137,0,0,0-.1356,1.9021,2.1408,2.1408,0,0,0,1.41,1.09l.08.0284.05.0215A2.6139,2.6139,0,0,0,4.79,23c1.2072,0,1.6144-1.03,1.8578-1.6458l.0211-.0552.7416-2.0573a9.8407,9.8407,0,0,0,4.7421,0l.727,2.05q.0121.0342.0259.0679a2.0779,2.0779,0,0,0,1.88,1.6185,2.8367,2.8367,0,0,0,1.1256-.287c1.8651-.66,1.7576-1.824,1.3611-2.9851l-.9932-2.6742A9.7708,9.7708,0,0,0,9.7559,0Z" fill="#fff"/></g><path d="M9.7559,8.3966a1.3793,1.3793,0,1,0,1.3793,1.3793A1.3951,1.3951,0,0,0,9.7559,8.3966Zm0,4.4578a3.0985,3.0985,0,1,1,3.0985-3.0985A3.1011,3.1011,0,0,1,9.7559,12.8544Zm0-7.9161a4.8176,4.8176,0,1,0,4.8176,4.8176A4.82,4.82,0,0,0,9.7559,4.9383ZM3.2191,9.7559a6.5368,6.5368,0,1,1,6.5368,6.5368A6.5138,6.5138,0,0,1,3.2191,9.7559Zm11.2744,6.7766a8.2615,8.2615,0,1,0-9.4353.02L3.6989,20.1907c-.34.86-.28.82.5,1.0995.74.32.72.36,1.0595-.5l1.2394-3.4383a8.1538,8.1538,0,0,0,3.2784.68,8.25,8.25,0,0,0,3.2984-.68L14.2936,20.79c.32.78.32.82,1.0795.5.76-.26.76-.28.48-1.0995Z" fill="#708a07"/></g></g></svg>