<svg xmlns="http://www.w3.org/2000/svg" width="34.8" height="22.9" viewBox="0 0 34.8 22.9">
  <title>feature-solar_station-alt</title>
  <g id="Layer_2" data-name="Layer 2">
    <g id="Layer_1-2" data-name="Layer 1">
      <g>
        <path d="M14.4,16.9v4.4a1.8,1.8,0,0,0-1.2.7H11.5a.5.5,0,0,0-.4.5.4.4,0,0,0,.4.4h6.7a.4.4,0,0,0,.4-.4.5.5,0,0,0-.4-.5H16.4a1.3,1.3,0,0,0-1.1-.7V16.9Z" fill="#1a2026"/>
        <path d="M30.1,15,25.2,7.4a.8.8,0,0,0-.8-.5H5.6a1.1,1.1,0,0,0-.9.5L.1,15.1a1,1,0,0,0,.4,1.3H29.3a1,1,0,0,0,.9-1A1.1,1.1,0,0,0,30.1,15Zm-4.8-3.7.5.9c.1.3,0,.5-.3.5h-1a.8.8,0,0,1-.7-.5l-.4-.9a.3.3,0,0,1,.2-.5h1A1.3,1.3,0,0,1,25.3,11.3ZM22.4,8.6h.8c.3.1.6.2.7.5l.5.9c.1.3,0,.5-.2.5h-.9c-.3-.1-.6-.2-.7-.5l-.4-.9C22.1,8.8,22.2,8.6,22.4,8.6Zm-4.6,0h.8a.6.6,0,0,1,.6.5l.2.9c.1.2,0,.4-.2.4H18.1a.5.5,0,0,1-.5-.5V9.1c-.1-.2,0-.4.3-.5ZM10.5,10l.2-.9c.1-.3.3-.4.6-.5h.8c.2,0,.4.2.3.4h0V10a.6.6,0,0,1-.6.5h-.9a.3.3,0,0,1-.3-.3Zm-5,0L6,9.1c.1-.3.3-.4.6-.5h.8c.3,0,.4.2.3.5l-.4.9a.8.8,0,0,1-.7.5H5.7C5.4,10.5,5.3,10.3,5.5,10ZM4.1,12.2l.5-.9a1.3,1.3,0,0,1,.7-.5h.9a.3.3,0,0,1,.3.5l-.4.9a.8.8,0,0,1-.7.5h-1C4.1,12.7,4,12.5,4.1,12.2Zm0,2.8H3c-.4,0-.5-.3-.4-.5l.5-.9a1,1,0,0,1,.8-.5h1c.2,0,.4.1.4.3v.2l-.4.9a1.4,1.4,0,0,1-.8.5Zm3.8-1.5-.4,1a.8.8,0,0,1-.7.4H5.7c-.4,0-.5-.2-.4-.4l.4-1a.8.8,0,0,1,.7-.4h1c.2-.1.4.1.5.3Zm.9-2.2-.3.9a.7.7,0,0,1-.6.5H6.8c-.2,0-.3-.1-.3-.2v-.3l.4-.9a1.5,1.5,0,0,1,.6-.5h1c.2,0,.3.2.3.4Zm0-.8H7.9c-.3,0-.4-.2-.3-.5L8,9.1a.6.6,0,0,1,.6-.5h.8a.3.3,0,0,1,.3.5l-.3.9a.6.6,0,0,1-.6.5Zm3,3-.2,1c-.1.2-.3.5-.6.4H9.8c-.3,0-.5-.2-.4-.4l.2-1a.8.8,0,0,1,.6-.4h1.1c.2-.1.5.1.5.4Zm-.5-.8h-1c-.2,0-.4-.1-.4-.3v-.2l.2-.9a1.5,1.5,0,0,1,.6-.5h1a.4.4,0,0,1,.4.4h0l-.2.9a.6.6,0,0,1-.6.5Zm3,1.8a.6.6,0,0,1-.6.5H12.6c-.4,0-.6-.3-.5-.5v-.9a.6.6,0,0,1,.6-.5h1a.5.5,0,0,1,.5.4h0Zm.1-2.3a.6.6,0,0,1-.6.5h-1c-.2,0-.5-.1-.5-.4h0v-.9c.1-.2.3-.5.6-.5h.9a.5.5,0,0,1,.5.5Zm0-2.2a.5.5,0,0,1-.5.5H13a.4.4,0,0,1-.4-.4h0V9.1a.5.5,0,0,1,.5-.5H14c.3,0,.4.2.4.5h0Zm1-.9a.5.5,0,0,1,.4-.5h.8a.5.5,0,0,1,.5.5V10c.1.2-.1.4-.3.5h-1a.5.5,0,0,1-.5-.5Zm.1,2.2a.5.5,0,0,1,.5-.5h.9a.5.5,0,0,1,.5.5v.9a.3.3,0,0,1-.3.5H16.1a.6.6,0,0,1-.6-.5Zm1.8,3.6H16.2a.5.5,0,0,1-.6-.4v-1a.5.5,0,0,1,.5-.4h1c.3,0,.6.2.6.4v1a.5.5,0,0,1-.5.4Zm.6-2.7v-.9c-.1-.2.1-.4.3-.5h1a1,1,0,0,1,.6.5l.3.9a.5.5,0,0,1-.3.5H18.5A.6.6,0,0,1,17.9,12.2ZM20,15H18.9a.8.8,0,0,1-.7-.5v-.9c0-.3.1-.5.4-.5h1.1a.8.8,0,0,1,.7.5l.2.9c0,.2-.2.4-.5.5Zm.4-5-.3-.9c0-.3.1-.5.3-.5h.9a.7.7,0,0,1,.6.5l.3.9c.1.3,0,.5-.2.5H21A.7.7,0,0,1,20.4,10Zm.9,2.2-.2-.9c-.1-.1,0-.4.1-.4h1.1a1.3,1.3,0,0,1,.7.5l.4.9c0,.2,0,.4-.2.5H22c-.3,0-.5-.2-.7-.5ZM24.2,15H23a.8.8,0,0,1-.7-.5l-.3-.9a.8.8,0,0,1,.2-.5h1.2a.9.9,0,0,1,.8.5l.4.9c.1.2-.1.4-.4.5Zm2.7,0H25.8a.8.8,0,0,1-.8-.5l-.4-.9c-.1-.2-.1-.4.1-.5H26a.8.8,0,0,1,.7.5l.5.9c.2.2,0,.4-.3.5Z" fill="#1a2026"/>
        <path d="M33,8l1.8-1.4-2.1-.8-.3-.7.9-2.2L31,3.3l-.3-.2-.3-.2L30.1.5,28.3,2h-.7L26.2,0l-.9,2.2-.6.3-2.2-1,.3,2.4c0,.1-.1.1-.2.2l-.2.3-2.3.3.8,1h2.8l.4-.5a3.7,3.7,0,0,1,2.6-1.5,4.3,4.3,0,0,1,2.9.8,3.5,3.5,0,0,1,1.5,2.6,4,4,0,0,1-.7,3,3.9,3.9,0,0,1-1,.8l.9,2.2,1.6.6-.3-2.3a.2.2,0,0,1,.2-.2l.2-.3,2.3-.3L32.9,8.7A2,2,0,0,1,33,8Z" fill="#1a2026" fill-rule="evenodd"/>
      </g>
    </g>
  </g>
</svg>
