<svg xmlns="http://www.w3.org/2000/svg" width="34.3" height="22.7" viewBox="0 0 34.3 22.7">
  <title>feature-solar_station</title>
  <g id="Layer_2" data-name="Layer 2">
    <g id="Layer_1-2" data-name="Layer 1">
      <g>
        <path d="M32.4,8l1.9-1.4-2.2-.8c-.1-.3-.1-.5-.3-.7l1-2.2-2.4.4a.2.2,0,0,0-.2-.2l-.3-.2L29.6.5,27.8,2h-.7L25.6,0l-.8,2.2-.7.3-2.2-1,.4,2.4-.2.2c-.1.1-.2.2-.2.3l-2.4.3.8,1h2.9l.3-.5a4.1,4.1,0,0,1,2.6-1.5,4.6,4.6,0,0,1,3,.8,3.9,3.9,0,0,1,1.5,2.6,4.1,4.1,0,0,1-.8,3l-.9.8.9,2.2,1.6.6L31,11.4l.2-.2.3-.3,2.3-.3L32.3,8.7A1.5,1.5,0,0,0,32.4,8Z" fill="#1a2026" fill-rule="evenodd"/>
        <g>
          <path d="M24.3,7.1h.8l.6.2a1,1,0,0,1,.5.4l.3.4,4.8,12.6a1.1,1.1,0,0,1,0,.8.9.9,0,0,1-.3.6c-.1.2-.4.3-.6.4l-1,.2H1.9L1,22.5l-.7-.4L0,21.5a2.2,2.2,0,0,1,.1-.8L4.9,8.1c0-.2.1-.3.3-.4a1,1,0,0,1,.5-.4l.6-.2h18Zm4.5,13.6L24.7,8.1H6.7L2.6,20.7H28.8" fill="#1a2026"/>
          <polyline points="11.8 9.5 11.4 13.1 7.2 13.1 8.3 9.5 11.8 9.5" fill="#1a2026"/>
          <polyline points="17.4 9.5 17.7 13.1 13.7 13.1 14 9.5 17.4 9.5" fill="#1a2026"/>
          <polyline points="23.1 9.5 24.1 13.1 20 13.1 19.6 9.5 23.1 9.5" fill="#1a2026"/>
          <polyline points="24.8 15.2 25.8 18.8 20.6 18.8 20.2 15.2 24.8 15.2" fill="#1a2026"/>
          <polyline points="17.9 15.2 18.2 18.8 13.1 18.8 13.5 15.2 17.9 15.2" fill="#1a2026"/>
          <polyline points="11.1 15.2 10.8 18.8 5.5 18.8 6.6 15.2 11.1 15.2" fill="#1a2026"/>
        </g>
      </g>
    </g>
  </g>
</svg>
