<svg xmlns="http://www.w3.org/2000/svg" width="20.8973" height="21" viewBox="0 0 20.8973 21"><title>Asset 306</title><g id="Layer_2" data-name="Layer 2"><g id="Layer_1-2" data-name="Layer 1"><g opacity="0.8"><path d="M1.6748,11.6165a.75.75,0,0,1-.749-.7939c.0264-.45.0176-.9219.01-1.3877a6.0111,6.0111,0,0,1,.5713-3.4336A2.2865,2.2865,0,0,1,3.22,5.17,1.5868,1.5868,0,0,1,2.9785,4.53a2.1978,2.1978,0,0,1,.4209-1.8564,2.0465,2.0465,0,0,1,1.5967-.6846A2.5392,2.5392,0,0,1,7.2852,3.3352,2.0063,2.0063,0,0,1,7.1592,5.2a2.7329,2.7329,0,0,1,1.916,1.6572A2.9069,2.9069,0,0,1,9.64,6.2415V3.9807a.75.75,0,0,1,.75-.75h1.29a.75.75,0,0,1,.75.75V7.055a.75.75,0,0,1-.7119.749,2.5029,2.5029,0,0,1-.418.792,8.2326,8.2326,0,0,1-1.03,1.0479l-.2959.3311a1.6165,1.6165,0,0,1-1.18.6016,1.3854,1.3854,0,0,1-.99-.44v.73a.75.75,0,0,1-.75.75Z" fill="#fff"/><path d="M4.9964,2.7383c1.1476,0,2.4523,1.08,1.1971,2.5336l.1614.3048-.0538.3409a2.9428,2.9428,0,0,1,.3051-.0166c1.4818,0,1.6878,1.2758,2.2771,2.1682.6948-.2732.8024-1.1339,1.5062-1.3986v-2.69H11.68V7.0548h-.6986s.2448.3933-.28,1.0886a7.6553,7.6553,0,0,1-.9174.9295l-.3629.3949a.9.9,0,0,1-.6275.3583c-.7071,0-1.1105-1.5095-1.7393-1.8647v2.905H1.6748c.0941-1.5913-.2292-3.4467.4507-4.4425A1.8865,1.8865,0,0,1,3.6541,5.9c.1273,0,.2571.006.3876.0181l-.0535-.3768.2689-.269c-.2689-.3855-.4752-.4617-.5379-.8607-.1927-1.1866.5068-1.6729,1.2773-1.6729m0-1.5a2.7833,2.7833,0,0,0-2.168.9486A2.9114,2.9114,0,0,0,2.2322,4.612a2.5758,2.5758,0,0,0-1.3454.9659,6.526,6.526,0,0,0-.701,3.8678c.0082.4734.0159.92-.0084,1.3322a1.5,1.5,0,0,0,1.4974,1.5886H7.054A1.5008,1.5008,0,0,0,8.4891,11.304a2.0653,2.0653,0,0,0,.3042.0222,2.33,2.33,0,0,0,1.7273-.8384l.31-.337a8.4351,8.4351,0,0,0,1.0675-1.1031,3.5573,3.5573,0,0,0,.3774-.6155A1.5,1.5,0,0,0,13.18,7.0548V3.9811a1.5,1.5,0,0,0-1.5-1.5H10.3895a1.5,1.5,0,0,0-1.5,1.5V5.3028a3.0742,3.0742,0,0,0-.7565-.5546,2.7,2.7,0,0,0-.166-1.7253A3.2637,3.2637,0,0,0,4.9964,1.2383Z" fill="#fff"/><circle cx="15.9568" cy="3.0523" r="2.3022" fill="#fff"/><path d="M15.9567,1.5a1.5524,1.5524,0,1,1-1.5524,1.5524A1.5524,1.5524,0,0,1,15.9567,1.5m0-1.5A3.0524,3.0524,0,1,0,19.009,3.0524,3.0559,3.0559,0,0,0,15.9567,0Z" fill="#fff"/><path d="M14.8955,20.25a1.5871,1.5871,0,0,1-1.6143-1.5986V11.8a1.3878,1.3878,0,0,1-1.374,1.0225,1.4185,1.4185,0,0,1-1.4375-1.458.7308.7308,0,0,1,.0244-.1895c0-.001.76-2.91,1.1973-4.7041.4121-1.6973,1.52-2.1963,2.1084-2.2227l4.24-.001a2.2107,2.2107,0,0,1,1.498.6436,2.3733,2.3733,0,0,1,.6074,1.8037v4.6895a1.4185,1.4185,0,0,1-1.4375,1.458,1.6839,1.6839,0,0,1-.1738-.0088v5.7822A1.5812,1.5812,0,0,1,16.92,20.2307a1.6158,1.6158,0,0,1-1-.3145A1.6008,1.6008,0,0,1,14.8955,20.25Z" fill="#fff"/><path d="M18.04,4.9978a1.42,1.42,0,0,1,1.3559,1.67v4.7162a.688.688,0,1,1-1.3755,0V7.1594h-.2358V18.6158a.8468.8468,0,0,1-.8646.8646.8309.8309,0,0,1-.8647-.8646V11.9738H15.76v6.6616a.8308.8308,0,0,1-.8646.8646.8637.8637,0,0,1-.8646-.8646V7.1594h-.2358l-1.2,4.2053a.688.688,0,1,1-1.3755,0s.762-2.9166,1.2-4.7162c.39-1.6039,1.4148-1.6507,1.4148-1.6507H18.04m0-1.5H13.8344q-.0342,0-.0685.0016a3.2783,3.2783,0,0,0-2.8038,2.7944c-.43,1.7664-1.1863,4.6626-1.1938,4.6917a1.5,1.5,0,0,0-.0487.3792,2.1769,2.1769,0,0,0,2.1877,2.2074,2.2844,2.2844,0,0,0,.6236-.0842v5.1475A2.344,2.344,0,0,0,14.8955,21a2.45,2.45,0,0,0,1.0341-.2154,2.4641,2.4641,0,0,0,.99.1957,2.3158,2.3158,0,0,0,2.3646-2.3646V13.52a2.1967,2.1967,0,0,0,1.6113-2.136V6.692a3.0911,3.0911,0,0,0-.8168-2.3209A2.9544,2.9544,0,0,0,18.04,3.4978Z" fill="#fff"/><rect x="0.75" y="10.0364" width="17.0137" height="3.082" rx="0.75" ry="0.75" fill="#fff"/><path d="M17.0132,10.7859v1.582H1.5v-1.582H17.0132m0-1.5H1.5a1.5,1.5,0,0,0-1.5,1.5v1.582a1.5,1.5,0,0,0,1.5,1.5H17.0132a1.5,1.5,0,0,0,1.5-1.5v-1.582a1.5,1.5,0,0,0-1.5-1.5Z" fill="#fff"/></g><path d="M4.0416,5.9176a2.1968,2.1968,0,0,0-1.9161.5063c-.68.9958-.3566,2.8512-.4507,4.4425H7.054V7.9614c.7934.4483,1.228,2.7344,2.3668,1.5064l.3629-.3949a7.6552,7.6552,0,0,0,.9174-.9295c.5251-.6953.28-1.0886.28-1.0886H11.68V3.9811H10.3895v2.69c-.7038.2647-.8114,1.1254-1.5062,1.3986-.6276-.95-.82-2.3354-2.5822-2.1517l.0538-.3409-.1614-.3048c2.0979-2.43-2.9543-3.8147-2.4744-.8607.0628.399.269.4752.5379.8607l-.269.269Z" fill="#1a2026"/><circle cx="15.9566" cy="3.0524" r="1.5524" fill="#1a2026"/><path d="M18.04,4.9978H13.8344S12.81,5.0447,12.42,6.6485c-.438,1.8-1.2,4.7162-1.2,4.7162a.688.688,0,1,0,1.3755,0l1.2-4.2052h.2358v11.476a.8637.8637,0,0,0,.8646.8646.8308.8308,0,0,0,.8646-.8646V11.9738h.2948v6.6419a.8308.8308,0,0,0,.8646.8646.8468.8468,0,0,0,.8646-.8646V7.1594H18.02v4.2249a.688.688,0,1,0,1.3755,0V6.6681A1.42,1.42,0,0,0,18.04,4.9978Z" fill="#1a2026"/><rect x="1.5" y="10.786" width="15.5132" height="1.582" fill="#1a2026"/></g></g></svg>