<svg xmlns="http://www.w3.org/2000/svg" width="18.7358" height="20.25" viewBox="0 0 18.7358 20.25"><title>Asset 305</title><g id="Layer_2" data-name="Layer 2"><g id="Layer_1-2" data-name="Layer 1"><g opacity="0.8"><path d="M1.5,4.5288a.75.75,0,0,1-.75-.75V1.8979a.75.75,0,0,1,.75-.75H8.1618a.75.75,0,0,1,.75.75v.6465a.75.75,0,0,1-.6475.7432.75.75,0,0,1-.6836.7148S1.5212,4.5288,1.5,4.5288Z" fill="#fff"/><path d="M8.1617,1.8982v.6458H7.5156v.7113L1.5,3.7785v-1.88H8.1617m0-1.5H1.5a1.5,1.5,0,0,0-1.5,1.5v1.88a1.5,1.5,0,0,0,1.5,1.5q.0648,0,.13-.0056L7.6455,4.75a1.5,1.5,0,0,0,1.2451-.8944,1.5,1.5,0,0,0,.7711-1.3113V1.8982a1.5,1.5,0,0,0-1.5-1.5Z" fill="#fff"/><path d="M10.9577,3.8229A1.5365,1.5365,0,1,0,9.4189,2.2884a1.5313,1.5313,0,0,0,1.5388,1.5345" fill="#fff" stroke="#fff" stroke-linecap="round" stroke-linejoin="round" stroke-width="1.5"/><path d="M15.9968,19.5a1.9964,1.9964,0,0,1-1.998-1.99V9.605L11.65,7.2554l-.708.708a1.4727,1.4727,0,0,1-1.1211.4961,1.5193,1.5193,0,0,1-1.1152-.4922L6.5934,5.8511a1.5359,1.5359,0,0,1,.1182-2.1865,1.5159,1.5159,0,0,1,2.1338.1826L9.8962,4.9,11.59,3.2065a1.8791,1.8791,0,0,1,2.6455-.0029l3.3262,3.3223a1.4372,1.4372,0,0,1,.4248,1.0254V17.51A1.992,1.992,0,0,1,15.9968,19.5Z" fill="#fff"/><path d="M12.9136,3.4107a1.1253,1.1253,0,0,1,.7939.326L17.0314,7.056a.6985.6985,0,0,1,.2045.495v9.96a1.2437,1.2437,0,0,1-2.4874,0V9.2945L11.65,6.1937,10.4116,7.4326A.7639.7639,0,0,1,9.2585,7.46L7.1246,5.3221A.7744.7744,0,0,1,7.197,4.2367a.7532.7532,0,0,1,.4873-.1777.7711.7711,0,0,1,.5887.2731L9.8955,5.9613,12.12,3.7367a1.1253,1.1253,0,0,1,.7939-.326m0-1.5a2.6125,2.6125,0,0,0-1.8489.76L9.8976,3.8377l-.53-.5326a2.2579,2.2579,0,0,0-3.39,2.9831q.0408.0485.0857.0935L8.1815,8.5047a2.2636,2.2636,0,0,0,3.3266-.0473l.1418-.1419,1.5985,1.6v7.5953a2.7437,2.7437,0,0,0,5.4874,0V7.551a2.1842,2.1842,0,0,0-.6451-1.5569L14.7675,2.6753a2.6168,2.6168,0,0,0-1.8538-.7646Z" fill="#fff"/><path d="M4.5056,19.4233a.75.75,0,0,1-.75-.75V7.1841a.81.81,0,0,1,.0107-.1289l.5186-2.9658a1.073,1.073,0,0,1,2.1084-.03L6.92,7.0542a.7033.7033,0,0,1,.0117.1289l.0176,9.1113H8.8913a.75.75,0,0,1,.75.75v1.6289a.75.75,0,0,1-.75.75Z" fill="#fff"/><path d="M5.3421,3.9507a.3231.3231,0,0,1,.3162.2579L6.181,7.184l.0186,9.86H8.8913v1.6292H4.5054V7.184l.5184-2.966a.3218.3218,0,0,1,.3182-.2673m0-1.5A1.8227,1.8227,0,0,0,3.5477,3.9517l-.52,2.9741a1.5012,1.5012,0,0,0-.0224.2583V18.6733a1.5,1.5,0,0,0,1.5,1.5H8.8913a1.5,1.5,0,0,0,1.5-1.5V17.0442a1.5,1.5,0,0,0-1.5-1.5H7.6968L7.681,7.1812a1.5022,1.5022,0,0,0-.0226-.2567L7.1357,3.9491A1.8384,1.8384,0,0,0,5.3421,2.4507Z" fill="#fff"/></g><path d="M1.5,1.8982H8.1618V2.544H7.5156v.7114L1.5,3.7785Z" fill="#1a2026"/><path d="M10.9577,3.8229A1.5365,1.5365,0,1,0,9.4189,2.2884a1.5313,1.5313,0,0,0,1.5388,1.5345" fill="#1a2026"/><path d="M12.12,3.7367a1.13,1.13,0,0,1,1.5878,0l3.3238,3.3193a.6983.6983,0,0,1,.2045.495v9.96a1.2437,1.2437,0,0,1-2.4874,0V9.2945L11.65,6.1937,10.4116,7.4326a.7639.7639,0,0,1-1.1531.0279L7.1246,5.3221A.7745.7745,0,0,1,7.197,4.2367a.7654.7654,0,0,1,1.076.0954L9.8955,5.9613Z" fill="#1a2026"/><path d="M5.6583,4.2087a.323.323,0,0,0-.6345.0094L4.5055,7.184V18.6733H8.8913V17.0442H6.2l-.0185-9.86Z" fill="#1a2026"/></g></g></svg>