<svg xmlns="http://www.w3.org/2000/svg" width="33.0004" height="20.809" viewBox="0 0 33.0004 20.809"><title>Asset 316</title><g id="Layer_2" data-name="Layer 2"><g id="Layer_1-2" data-name="Layer 1"><g opacity="0.8"><path d="M18.2614,20.0586a.75.75,0,0,1-.75-.75V15.2607H15.3942v4.0479a.75.75,0,0,1-.75.75h-4.06A1.7768,1.7768,0,0,1,8.8747,18.35V18.251c-.0186-.001-.0645-.0049-.0645-.0049L4.8288,18.25a1.6423,1.6423,0,0,1-1.7095-1.5615V11.2373H1.507a.7524.7524,0,0,1-.53-.2187.881.881,0,0,1-.1548-.8965C1.1892,9.2354,8.6711.75,10.7346.75c.3418,0,.9775,0,3.7549,2.5967a.6173.6173,0,0,1,.0625.0664,4.1014,4.1014,0,0,1,1.938-1.002,4.38,4.38,0,0,1,1.9243,1.0449.7315.7315,0,0,1,.0967-.1094C21.2883.75,21.924.75,22.2658.75c2.0635,0,9.5454,8.4854,9.9121,9.3721a.881.881,0,0,1-.1548.8965.7524.7524,0,0,1-.53.2188H29.8811v5.4512A1.6423,1.6423,0,0,1,28.1716,18.25h-4.06c-.0259.0029-.0786.0039-.08.0039v.2432a1.6425,1.6425,0,0,1-1.71,1.5615Z" fill="#fff"/><path d="M22.2659,1.5c1.5687,0,9.4994,8.7155,9.2274,8.9875H29.1312v6.2008a.9076.9076,0,0,1-.96.812h-4.06l-.0092,0V12.8867h1.93l.2162-.2162a.7836.7836,0,0,0,.1516-.883,50.2375,50.2375,0,0,0-7.3765-7.8927C20.4812,2.5317,21.766,1.5,22.2659,1.5m-11.5314,0c.5,0,1.7847,1.0317,3.2426,2.3948a50.2375,50.2375,0,0,0-7.3765,7.8927.7836.7836,0,0,0,.1516.883l.2162.2162h1.93v4.6141l-.0092,0h-4.06a.9076.9076,0,0,1-.96-.812V10.4875H1.507C1.2351,10.2155,9.1658,1.5,10.7345,1.5M16.49,3.1609c1.4764,0,9.7922,8.9875,9.2274,8.9875H23.2813v6.3485a.9076.9076,0,0,1-.96.812h-4.06V14.5107H14.6444V19.309h-4.06a1.0314,1.0314,0,0,1-.96-.96V12.1485H7.2624c-.272-.272,7.6588-8.9875,9.2274-8.9875M22.2659,0c-.6393,0-1.424.1943-3.8884,2.4488-1.1119-.7878-1.56-.7878-1.8876-.7878a2.9428,2.9428,0,0,0-1.8935.7636C12.1528.1929,11.3715,0,10.7345,0,10.1233,0,9.1,0,4.6321,4.5617,4.592,4.6028.61,8.6761.13,9.835a1.5442,1.5442,0,0,0,.3168,1.7132,1.5,1.5,0,0,0,1.0606.4393h.8622v4.7008A2.392,2.392,0,0,0,4.8289,19H8.22a2.5387,2.5387,0,0,0,2.3644,1.8086h4.06a1.5,1.5,0,0,0,1.5-1.5V16.0107h.6172V19.309a1.5,1.5,0,0,0,1.5,1.5h4.06A2.4348,2.4348,0,0,0,24.7227,19L28.1715,19a2.392,2.392,0,0,0,2.46-2.312V11.9875h.8622a1.5,1.5,0,0,0,1.0606-.4393,1.5442,1.5442,0,0,0,.3168-1.7132c-.48-1.1589-4.4623-5.2322-4.5025-5.2733C23.9,0,22.8771,0,22.2659,0Z" fill="#fff"/></g><path d="M16.49,3.1609c-1.5687,0-9.4994,8.7155-9.2274,8.9875H9.6247v6.2008a1.0314,1.0314,0,0,0,.96.96h4.06V14.5107h3.6172V19.309h4.06a.9076.9076,0,0,0,.96-.812V12.1485h2.436C26.2821,12.1485,17.9663,3.1609,16.49,3.1609ZM8.8982,12.8866v4.6141l-.0092,0h-4.06a.9076.9076,0,0,1-.96-.812V10.4875H1.507C1.2351,10.2156,9.1658,1.5,10.7345,1.5c.5,0,1.7847,1.0317,3.2427,2.3948a50.2384,50.2384,0,0,0-7.3765,7.8927.7836.7836,0,0,0,.1516.883l.2162.2162h1.93Zm15.204,0v4.6141l.0092,0h4.06a.9076.9076,0,0,0,.96-.812V10.4875h2.3622c.272-.272-7.6588-8.9875-9.2274-8.9875-.5,0-1.7847,1.0317-3.2427,2.3948A50.2384,50.2384,0,0,1,26.4,11.7875a.7836.7836,0,0,1-.1516.883l-.2162.2162h-1.93Z" fill="#708a07"/></g></g></svg>