<svg xmlns="http://www.w3.org/2000/svg" viewBox="0 0 33.99 21.81"><defs><style>.a{opacity:0.8;}.b{fill:#fff;}.c{fill:#1a2026;}</style></defs><title>Asset 198</title><g class="a"><path class="b" d="M18.76,20.81a1,1,0,0,1-1-1V16H16.14v3.8a1,1,0,0,1-1,1H11.08a2,2,0,0,1-2-1.81H5.33a1.89,1.89,0,0,1-2-1.81V12H2a1,1,0,0,1-.71-.29,1.13,1.13,0,0,1-.21-1.17C1.47,9.6,9,1,11.23,1c.52,0,1.28.2,3.85,2.59A4,4,0,0,1,17,2.66a4.24,4.24,0,0,1,1.88,1C21.47,1.2,22.24,1,22.76,1,25,1,32.52,9.6,32.91,10.53a1.13,1.13,0,0,1-.21,1.17A1,1,0,0,1,32,12H30.63v5.2a1.89,1.89,0,0,1-2,1.81H24.78a1.89,1.89,0,0,1-2,1.81Z"/><path class="b" d="M22.76,2c1.57,0,9.5,8.72,9.23,9H29.63v6.2a.91.91,0,0,1-1,.81H24.6V13.39h1.93l.22-.22a.78.78,0,0,0,.15-.88,50.24,50.24,0,0,0-7.38-7.89C21,3,22.26,2,22.76,2M11.23,2c.5,0,1.78,1,3.24,2.39A50.24,50.24,0,0,0,7.1,12.29a.78.78,0,0,0,.15.88l.22.22H9.4V18H5.33a.91.91,0,0,1-1-.81V11H2c-.27-.27,7.66-9,9.23-9M17,3.66c1.48,0,9.79,9,9.23,9H23.78V19a.91.91,0,0,1-1,.81H18.76V15H15.14v4.8H11.08a1,1,0,0,1-1-1v-6.2H7.76c-.27-.27,7.66-9,9.23-9M22.76,0C21.9,0,21,.39,18.83,2.31A2.92,2.92,0,0,0,17,1.66a3,3,0,0,0-1.84.63C13,.38,12.1,0,11.23,0S9.39,0,4.77,4.71C4.35,5.14.67,8.92.16,10.14A2.06,2.06,0,0,0,.59,12.4,2,2,0,0,0,2,13h.36v4.2a2.89,2.89,0,0,0,3,2.81h3a3,3,0,0,0,2.71,1.81h4.06a2,2,0,0,0,1.81-1.15,2,2,0,0,0,1.81,1.15h4.06A3,3,0,0,0,25.58,20h3.08a2.89,2.89,0,0,0,3-2.81V13H32a2,2,0,0,0,1.41-.59,2.06,2.06,0,0,0,.43-2.26c-.51-1.23-4.19-5-4.61-5.43C24.61,0,23.5,0,22.76,0Z"/></g><path class="c" d="M17,3.66c-1.57,0-9.5,8.72-9.23,9h2.36v6.2a1,1,0,0,0,1,1h4.06V15h3.62v4.8h4.06a.91.91,0,0,0,1-.81V12.65h2.44C26.78,12.65,18.46,3.66,17,3.66ZM9.4,13.39V18H5.33a.91.91,0,0,1-1-.81V11H2c-.27-.27,7.66-9,9.23-9,.5,0,1.78,1,3.24,2.39A50.24,50.24,0,0,0,7.1,12.29a.78.78,0,0,0,.15.88l.22.22H9.4Zm15.2,0V18h4.07a.91.91,0,0,0,1-.81V11H32c.27-.27-7.66-9-9.23-9-.5,0-1.78,1-3.24,2.39a50.24,50.24,0,0,1,7.38,7.89.78.78,0,0,1-.15.88l-.22.22H24.6Z"/></svg>