<svg xmlns="http://www.w3.org/2000/svg" width="24" height="22.7" viewBox="0 0 24 22.7">
  <title>feature-pump</title>
  <g id="Layer_2" data-name="Layer 2">
    <g id="Layer_1-2" data-name="Layer 1">
      <g>
        <path d="M17.7.5H15.5a8.5,8.5,0,0,1,.5,2h.5l5.7,9.9,1.8-1Z" fill="#1a2026"/>
        <path d="M10.7,3.4V2.5h1.1a4,4,0,0,1,.2-2H9.7A1.1,1.1,0,0,0,8.6,1.6V3.4Z" fill="#1a2026"/>
        <path d="M11.7,14.4h1.2V13.3H6.5v1.1H7.7v6.5H6.4v1.8h6.5V20.9H11.7Z" fill="#1a2026"/>
        <path d="M15.2,1.2A1.4,1.4,0,0,0,13.8,0a1.5,1.5,0,0,0-1.4.9c-.2.3-.2.6-.2,1.3V3.9H5.9V5.5h9.8l.3-.3C15.5,2.8,15.3,1.6,15.2,1.2Zm-1,.3a.5.5,0,0,1-.5.4.4.4,0,0,1-.4-.4.4.4,0,0,1,.4-.4A.5.5,0,0,1,14.2,1.5Z" fill="#1a2026"/>
        <path d="M7.1,5.8V7.1H2.3A1.6,1.6,0,0,0,.7,8.6v2.5H0v1.5H4.5V11.1H3.8v-.9H7.7V12H6.5v1.1h6.4V12H11.7V9l3.6-3.2Z" fill="#1a2026"/>
      </g>
    </g>
  </g>
</svg>
