<svg xmlns="http://www.w3.org/2000/svg" viewBox="0 0 17.25 17.83"><defs><style>.cls-1{fill:#1a2026;}</style></defs><g id="Layer_2" data-name="Layer 2"><g id="Layer_1-2" data-name="Layer 1"><circle class="cls-1" cx="5" cy="5.03" r="0.88"/><polygon class="cls-1" points="6.26 6.49 5.82 6.76 5.81 6.77 7.11 9.56 7.12 9.58 7.98 9.09 8 9.08 6.27 6.5 6.26 6.49"/><polygon class="cls-1" points="3.75 3.57 4.18 3.29 4.2 3.28 2.9 0.49 2.89 0.47 2.03 0.97 2.01 0.98 3.73 3.55 3.75 3.57"/><path class="cls-1" d="M6.41,9.86h0l-.74-3v0l-.5.11h0v.15H5V7L4.5,6.88l-.79,3v0l.19,0L2.3,17.83h.57l.26-1.56L5,14.41l1.89,1.9.25,1.52h.58L6.08,9.92Zm-2.32.59.79.79-1.1,1.1ZM3.17,16l.48-2.92L4.88,14.3Zm3.67,0L5.1,14.3l1.25-1.25Zm-.52-3.18L5,14.19l-1.3-1.3,0-.28L5,11.35l1.29,1.3ZM5.1,11.24l.82-.81.32,2ZM5.85,10l0,.22-.9.9-.87-.87,0-.29h0l.53.1.32-3h.15l0,.07L5.44,10v0l.4-.07Z"/><polygon class="cls-1" points="4.32 3.23 4.83 3.12 4.84 3.11 4.58 0.05 4.57 0.02 3.59 0.2 3.57 0.2 4.32 3.21 4.32 3.23"/><polygon class="cls-1" points="6.31 0.2 6.31 0.18 5.33 0 5.31 0 4.98 3.08 4.98 3.1 5.51 3.17 6.31 0.2"/><polygon class="cls-1" points="3 9.65 4.36 6.87 4.37 6.85 3.9 6.6 2.13 9.12 2.12 9.14 2.98 9.64 3 9.65"/><polygon class="cls-1" points="5.64 3.21 6.11 3.46 7.88 0.94 7.89 0.92 7.03 0.42 7.01 0.41 5.65 3.19 5.64 3.21"/><polygon class="cls-1" points="3.79 6.52 3.44 6.14 3.43 6.13 0.91 7.89 0.89 7.91 1.52 8.66 1.54 8.68 3.77 6.54 3.79 6.52"/><polygon class="cls-1" points="6.22 3.54 6.57 3.92 6.58 3.93 9.11 2.17 9.13 2.15 8.48 1.39 8.47 1.37 6.24 3.52 6.22 3.54"/><polygon class="cls-1" points="3.35 6.01 3.15 5.54 3.15 5.52 0.17 6.32 0.15 6.32 0.49 7.25 0.5 7.27 3.33 6.02 3.35 6.01"/><polygon class="cls-1" points="3.1 4.72 3.26 4.23 3.26 4.21 0.47 2.91 0.45 2.9 0.1 3.85 3.08 4.71 3.1 4.72"/><polygon class="cls-1" points="3.32 4.09 3.65 3.67 1.45 1.47 0.82 2.23 0.8 2.25 3.31 4.08 3.32 4.09"/><polygon class="cls-1" points="6.68 5.97 6.36 6.39 8.55 8.58 9.19 7.82 9.21 7.8 6.7 5.98 6.68 5.97"/><polygon class="cls-1" points="3.09 4.87 3.09 4.85 0.02 4.59 0 4.58 0 5.6 3.11 5.39 3.09 4.87"/><path class="cls-1" d="M17.25,3.43a35.2,35.2,0,0,0-5.32.72c0,.15,0,.3,0,.45l-2-.06V4.45l-.85.06L7.21,4.44l2.63-.7h0l-.34-.94v0L6.68,4h0l.19.48v0L7,4.5l.71,0v.08l-.76,0h0l0,.52v0l.74.07v0H6.9v0l-.16.51,2.79,1.3h0l.35-1L7.14,5.4l1.64,0,1.2.11h0V5.34l2,0c0,.21,0,.41-.05.62a35.2,35.2,0,0,0,5.32.72A6.42,6.42,0,0,1,17.25,3.43ZM7.73,5.31v0l.3,0Zm0-.7V4.53l.73,0Zm3.77.61L10,5.25V4.61l1.52,0Zm.47,0h-.41l0-.56H12c0,.09,0,.17,0,.25Z"/></g></g></svg>