<svg xmlns="http://www.w3.org/2000/svg" viewBox="0 0 46.34 24.3"><path d="M0,22a6.22,6.22,0,0,0,6-.32,15.55,15.55,0,0,0,4.81-5.54s.54-1.54.86-1.13l.18,2.27s-.5.27-.27,1.09l.54,2.54a3.21,3.21,0,0,0,.23,1.69s.32,1.76.77.22l.73,1.09s.82.86,1.13,0c0,0,1.41.36,1.18-.28,0,0,1-.45-1.31-1.22a2.58,2.58,0,0,1-.64-2.72l.5-.32s1.27-.14,1.45-.64l1.68,1.82.28.5s-.09,1,.59.77c0,0-.55,1.18.45.82,0,0-.05.86.64.31,0,0,.63-.13.59-1.22a3,3,0,0,0-1.46-2.36l-1-1v-.64l1.41-.86a4.93,4.93,0,0,1,4.67,1.36L25.24,21s1,2.41,1.9,2.45c0,0,1.18,1.14.69.23,0,0,.86.09.9-.14,0,0,1.37.68,1.09,0,0,0,1.32.18.77-.68,0,0,1,.54,1.18.27,0,0,1.37.54,1.14.09,0,0,.88.26.12-.62,0,0,.61,0-1.6-1a1.78,1.78,0,0,1-1-1.87l.72-3.61s2.33-2.6,5.48-1.9a4.72,4.72,0,0,0,1.45.39l1.94.42a8.31,8.31,0,0,0,2.06.73l1.51.91a1.21,1.21,0,0,0,1.76-.24,1,1,0,0,0,.94-1s.39-1.72-1.73-1.36l-1-.61-.91-1a8.42,8.42,0,0,0-1.54-2.17l-1.33-1-1-.76.15-.7.24-.51a5.16,5.16,0,0,0,1.55-1.73A4.66,4.66,0,0,0,42,1.87s0-1.15-.76-.27l-.57.54a3.94,3.94,0,0,0-1.27,2l-.61,1.24-.67,1.36s-.45.76-.63.61l-.12-.33L37.6,5.8a6.23,6.23,0,0,0-.27-4.26l-.4-.7s-.57-.69-.57.24l-.12,1.28s-1.73,2.69-.58,5.11l-1.09-.88-1.24-.94-3.75-2.9S26.24-.82,20,.18c0,0-5.54-.09-7.8,3.45l-1.5,3A20.68,20.68,0,0,0,8.49,13.7s-.23,4.81-3,7A6.57,6.57,0,0,1,0,22Zm28.14-2.54.78,2.59C27.46,21.87,28.14,19.47,28.14,19.47Z"/></svg>