<svg xmlns="http://www.w3.org/2000/svg" viewBox="0 0 43.75 48.69"><defs><style>.cls-1{fill:#1a2026;fill-rule:evenodd;}</style></defs><g id="Layer_2" data-name="Layer 2"><g id="Layer_1-2" data-name="Layer 1"><path class="cls-1" d="M41.86,19.63a5.88,5.88,0,0,1,1.33,3.85,32.23,32.23,0,0,0-.06,3.66c.19,1.27.89,2.38.51,3.65,0,0-.37,1-.29.52s.09-1.33,0-.92a10.72,10.72,0,0,0-.25,1.22,2.89,2.89,0,0,1,0-1.12,1.58,1.58,0,0,0-.19-1,2.75,2.75,0,0,1-.12.85,3.59,3.59,0,0,0-.05.91,2.62,2.62,0,0,1-.17-1.3c0-.57-.16-.62-.22-.44a2.58,2.58,0,0,0,.07,1.42c-.75-1.18.2-2.22.07-3.36-.21-1.88-.42-3.37-.42-3.37-.42,1.29-1.73,4.4-1.89,5.07a3.45,3.45,0,0,0,.65,2.6,30.67,30.67,0,0,0,2.47,3.26c.41.51.35.79.26,1.61s-.38,4.82-.43,5.58S43,45.12,43,45.58c0,.73.34,1.49-.18,1.59-.32.07-.52.39-.43,1s-1.09.49-1.9.47.46-.58.5-1.07.47-1.27.48-1.9a52.37,52.37,0,0,0,.35-5.4A7,7,0,0,0,41,37.24a9.26,9.26,0,0,0-1.62-2.06c.14.39.55.76.55,1.16a19.56,19.56,0,0,1-1.24,2.91c-.44,1-1.88,4.23-2.29,5s-.77,1.93-1,2.54c-.32.78-.52.57-.76.55s-.42.6-.51.88-1.39.36-2,.09c-.46-.21.82-.64,1-1,.18-.56.68-.81,1-1.59.24-.56,1.67-3.55,2-4.33a8,8,0,0,0,.7-2.66,5.69,5.69,0,0,0-1-3c-.62-1-1.47-2.56-2-3.46s-1.94-3-1.94-3a23.21,23.21,0,0,1-3.43.82,18.51,18.51,0,0,1-3.9-.28,9.41,9.41,0,0,0-2.27,0A9.17,9.17,0,0,0,22.11,33c.06.71.07,2.84.1,3.45s-.17,2-.15,2.83.09,1.84.18,2.72.35,2.78.41,3.37S23,47,22.59,46.94s-.52.39-.43,1-1.09.5-1.9.48.46-.59.5-1.08a17.59,17.59,0,0,0,.36-2.18,37.11,37.11,0,0,0-.28-4.6A6.61,6.61,0,0,0,20.38,39a16.9,16.9,0,0,1-.5-1.69,13.7,13.7,0,0,1-.3,1.91c-.09.55-.21,2-.27,2.72s-.07,2.46-.09,3.34c0,.73.24,1.56-.18,1.54s-.52.39-.42,1-1.1.5-1.91.48.47-.59.5-1.08.41-1.27.48-1.89c.1-.89.26-1.89.33-2.74a14.3,14.3,0,0,0,0-2.93,13.26,13.26,0,0,1-.32-2.51,30.51,30.51,0,0,0-.34-5.8l-.42-1.12c-.66-.91-1.23-.62-2.87-.84-.2,0-.67-.7-.69-.75-.24-1.23-2.58-1.77-3.52-2.1-1.5-.52-2.35-3.84-1.74-4.69-.29.4-1.19.13-1.52-.05-1.19-.63-.12-4.82-1.05-4.76A17.89,17.89,0,0,0,3,16.9a6.67,6.67,0,0,1-3-.88c-.41-.2,2-1,3-1.07a14.51,14.51,0,0,1,2.4.2c.18,0,.53-.63.51-.76-.22-1.3-.73-1.5-1.26-2.42A7.5,7.5,0,0,1,4,10.69c-.3-.82.7-1.26,1.08-1.63A2.86,2.86,0,0,0,5.75,7,9.11,9.11,0,0,1,5,3.79a10.49,10.49,0,0,1,.34-3c.5-.26.45.89.48,1.56A17.88,17.88,0,0,0,7,6.63a3.71,3.71,0,0,1-.14,2.16c-.17.42-1,1.53-.82,1.83,0,.08,1.6,2.33,1.65,2.59.08.11.61-.11.73,0a9.29,9.29,0,0,1,1.22-1.48c.3-.24,2-1.68,2.09-1.77a0,0,0,0,0,0,0s0,0,0,0c.35-.41-.73-1.77-.84-2.28C10.46,5.9,14,.1,14.34,0c.27.7-1.54,5.65-1.94,7.06-.16.51.52,1.68.86,2.14a1.31,1.31,0,0,1,0,1.79,19,19,0,0,1-1.44,1.46c-.26.17-1.34,1.26-1.35,1.62-.07.09.06.49.24.61s1.12-.3,1.83-.31a10.36,10.36,0,0,1,1.32.11,5.39,5.39,0,0,1,1.7.44c.19.11-3.46,1.56-3.3,1.59.62.13,5.8-1.18,6.19-1.24,3.8-.72,5,1.52,8.45,1.57,4,.07,9.82-1.23,13,.91A18.53,18.53,0,0,1,41.86,19.63Z"/></g></g></svg>