<svg xmlns="http://www.w3.org/2000/svg" viewBox="0 0 43.75 48.69"><defs><style>.cls-1{fill:#1a2026;fill-rule:evenodd;}</style></defs><g id="Layer_2" data-name="Layer 2"><g id="Layer_1-2" data-name="Layer 1"><path class="cls-1" d="M1.89,19.63A5.82,5.82,0,0,0,.57,23.48a34.73,34.73,0,0,1,.06,3.66c-.19,1.27-.9,2.38-.52,3.65,0,0,.38,1,.29.52s-.09-1.33,0-.92a8.81,8.81,0,0,1,.25,1.22,3,3,0,0,0,0-1.12,1.51,1.51,0,0,1,.19-1A2.69,2.69,0,0,0,1,30.3a3.59,3.59,0,0,1,.05.91,2.62,2.62,0,0,0,.17-1.3c0-.57.17-.62.22-.44a2.58,2.58,0,0,1-.07,1.42c.76-1.18-.19-2.22-.07-3.36.21-1.88.42-3.37.42-3.37.43,1.29,1.73,4.4,1.89,5.07A3.48,3.48,0,0,1,3,31.83,31.94,31.94,0,0,1,.47,35.09c-.41.51-.35.79-.26,1.61s.38,4.82.44,5.58.13,2.84.13,3.3c0,.73-.34,1.49.19,1.59.31.07.52.39.42,1s1.1.49,1.9.47-.46-.58-.5-1.07-.46-1.27-.48-1.9A52.87,52.87,0,0,1,2,40.3a6.89,6.89,0,0,1,.77-3.06,9.18,9.18,0,0,1,1.63-2.06c-.15.39-.56.76-.56,1.16a19.86,19.86,0,0,0,1.25,2.91c.43,1,1.87,4.23,2.28,5s.78,1.93,1,2.54c.33.78.53.57.76.55s.42.6.51.88,1.39.36,2,.09-.82-.64-1-1c-.18-.56-.68-.81-1-1.59-.24-.56-1.66-3.55-2-4.33A8.54,8.54,0,0,1,7,38.75a5.71,5.71,0,0,1,1-3c.61-1,1.46-2.56,2-3.46s1.93-3,1.93-3a23.54,23.54,0,0,0,3.43.82,18.46,18.46,0,0,0,3.9-.28,9.38,9.38,0,0,1,2.27,0A9.17,9.17,0,0,1,21.64,33c-.05.71-.07,2.84-.1,3.45s.18,2,.15,2.83-.09,1.84-.18,2.72-.35,2.78-.41,3.37-.35,1.56.07,1.54.52.39.42,1,1.1.5,1.9.48-.46-.59-.5-1.08a19.7,19.7,0,0,1-.36-2.18,34.68,34.68,0,0,1,.29-4.6A7.08,7.08,0,0,1,23.37,39a14.52,14.52,0,0,0,.5-1.69,13.77,13.77,0,0,0,.31,1.91c.09.55.2,2,.26,2.72s.07,2.46.09,3.34c0,.73-.24,1.56.19,1.54s.51.39.42,1,1.09.5,1.9.48-.46-.59-.5-1.08-.41-1.27-.48-1.89c-.1-.89-.25-1.89-.33-2.74a14.3,14.3,0,0,1,0-2.93,13.26,13.26,0,0,0,.32-2.51,30.59,30.59,0,0,1,.35-5.8s.31-.86.41-1.12c.66-.91,1.24-.62,2.87-.84.21,0,.67-.7.69-.75.25-1.23,2.58-1.77,3.52-2.1,1.5-.52,2.35-3.84,1.75-4.69.28.4,1.18.13,1.52-.05,1.19-.63.12-4.82,1.05-4.76a17.54,17.54,0,0,1,2.5-.15,6.67,6.67,0,0,0,3-.88c.4-.2-2-1-3-1.07a14.32,14.32,0,0,0-2.39.2c-.19,0-.53-.63-.51-.76.21-1.3.72-1.5,1.25-2.42a6.86,6.86,0,0,0,.74-1.28c.31-.82-.7-1.26-1.08-1.63A2.85,2.85,0,0,1,38,7a8.9,8.9,0,0,0,.74-3.18,10.14,10.14,0,0,0-.34-3c-.5-.26-.44.89-.47,1.56-.08,1.81-.91,3.2-1.15,4.26a3.74,3.74,0,0,0,.13,2.16c.18.42,1,1.53.82,1.83,0,.08-1.59,2.33-1.65,2.59-.08.11-.61-.11-.72,0a10.53,10.53,0,0,0-1.22-1.48c-.31-.24-2-1.68-2.1-1.77l0,0s0,0,0,0c-.34-.41.73-1.77.84-2.28C33.29,5.9,29.74.1,29.41,0,29.14.7,31,5.65,31.35,7.06c.17.51-.51,1.68-.85,2.14a1.32,1.32,0,0,0,0,1.79A17.67,17.67,0,0,0,32,12.45c.25.17,1.33,1.26,1.35,1.62a.73.73,0,0,1-.24.61c-.3.21-1.13-.3-1.83-.31a10.21,10.21,0,0,0-1.32.11,5.45,5.45,0,0,0-1.71.44c-.18.11,3.46,1.56,3.3,1.59-.62.13-5.79-1.18-6.19-1.24-3.79-.72-5,1.52-8.45,1.57-4,.07-9.82-1.23-13,.91A18.53,18.53,0,0,0,1.89,19.63Z"/></g></g></svg>