<svg xmlns="http://www.w3.org/2000/svg" viewBox="0 0 40.31 41"><defs><style>.a{opacity:0.8;}.b{fill:#fff;}.c{fill:#1a2026;}</style></defs><title>Asset 173</title><g class="a"><path class="b" d="M29,39.5l-.41,0a1.5,1.5,0,0,1-1.27-1.16,2.91,2.91,0,0,1,.13-1.61l0-.11a4.22,4.22,0,0,1,.62-1.2,6.64,6.64,0,0,0,.53-1.18,7,7,0,0,1,.47-1.07,16,16,0,0,0,1.27-3c0-.17,0-.37,0-.46s-.07-.08-.2-.22a9.08,9.08,0,0,0-.79-.76c-.25-.22-.51-.45-.91-.85l-.39-.38c-.15-.15-.32-.3-.47-.47a10.29,10.29,0,0,1-2,.23,5.51,5.51,0,0,1-.8-.05c-.61-.09-1-.18-1.29-.25a2.32,2.32,0,0,0-.65-.1h-.17a5.62,5.62,0,0,0-.59.06c0,.18-.08.36-.14.57l-.11.38a7.39,7.39,0,0,0-.35,1.54,4,4,0,0,1-.16,1.33,1.6,1.6,0,0,0-.08.4c0,.27,0,.76-.08,1.3s-.12,1.44-.09,1.69a2.49,2.49,0,0,0,.09.31A3,3,0,0,1,21,37.29a.75.75,0,0,0-.08.21,2,2,0,0,1-1.91,1.62h-.3a2.75,2.75,0,0,1-1.41-.32l-.89,0A1.5,1.5,0,0,1,15,37.71a2.64,2.64,0,0,1,.1-1.45,3.49,3.49,0,0,1,.33-.67,2.87,2.87,0,0,0,.18-.32,10.92,10.92,0,0,0,.49-2.43l.1-.73c.14-.93.33-1.81.46-2.39.05-.25.1-.44.12-.56a15.44,15.44,0,0,0-.18-1.58l0-.29c0-.1,0-.18,0-.25a5.52,5.52,0,0,1-.39-.43,3.5,3.5,0,0,0-1.14-1,20.07,20.07,0,0,1-3-1.85,4,4,0,0,1-.88-.86.59.59,0,0,0-.24-.17A4.85,4.85,0,0,1,9,20.37l0-.09a2.44,2.44,0,0,1-1.12-.66,2.61,2.61,0,0,1-.23-.27c-1.41.19-3.66.23-3.68.23a2,2,0,0,1-1.72-.75,1.68,1.68,0,0,1-.15-.24,2.41,2.41,0,0,1-.58-1.46,2.07,2.07,0,0,1,.68-1.58c.23-.21.51-.45.81-.7A11.11,11.11,0,0,0,3.92,14a6.46,6.46,0,0,0,.36-.86c.11-.3.21-.56.3-.73a5,5,0,0,0,.36-1.15A9.84,9.84,0,0,1,7.52,6.08c.35-.38.71-.72,1.05-1a7,7,0,0,0,1.18-1.3,3.41,3.41,0,0,0,.05-.49c.08-1.28.78-1.65,1.35-1.73l.23,0a1.59,1.59,0,0,1,1,.32h.08a1.66,1.66,0,0,1,1.53,1.05c.41,1,.15,2.71-1.38,4.28a15.56,15.56,0,0,0-1.92,2.29h.12a1.91,1.91,0,0,1,.48.07c.31.09,1.82.66,1.26,3a6.31,6.31,0,0,1-.18.64l.2.31A5.78,5.78,0,0,0,14,14.94,4.3,4.3,0,0,0,16,16l.44-.18a3.69,3.69,0,0,1,1.7-.4c.24,0,.54,0,1,.05s.8.05,1.19.05a16.64,16.64,0,0,0,2.64-.23,40.86,40.86,0,0,1,5.86-.56,12.62,12.62,0,0,1,2.11.16,13.82,13.82,0,0,1,3.88,1.21l.41.19a2.15,2.15,0,0,1,1.39,2v0a5.77,5.77,0,0,1,.76,3.26,3.58,3.58,0,0,0,.09.56,1.88,1.88,0,0,1-.25,1.72,1.57,1.57,0,0,1-1,.55,2.09,2.09,0,0,0-.09.26,4.63,4.63,0,0,0,.61,1.63.71.71,0,0,0,.23.24A2.57,2.57,0,0,1,38,29c0,.6.1,1.42.19,2.29s.22,2,.24,2.92a6.64,6.64,0,0,0,.2,1.67,4.25,4.25,0,0,1,.13.7,5.48,5.48,0,0,1,0,1v.1a1.67,1.67,0,0,1-.34,1.14,2.68,2.68,0,0,1-2.27.7,1.5,1.5,0,0,1-1.46-1.17,5.76,5.76,0,0,1,.06-1.81,9.29,9.29,0,0,0,0-2.08v-.14a13.21,13.21,0,0,0-.39-2.58h0c-.93,1.78-1.69,3.38-2.26,4.76a4.33,4.33,0,0,1-.83,1.31c0,.07,0,.15,0,.21A1.5,1.5,0,0,1,30,39.44,9,9,0,0,1,29,39.5Z"/><path class="b" d="M11.38,3c.26,0,.22,1.16,0,1.63s-1.05,1.42-.89,1.42A.34.34,0,0,0,10.65,6a3.81,3.81,0,0,0,1.47-1.29c.25-.47.15-1.36.28-1.38h0c.31,0,.44,1.37-.93,2.79a15.94,15.94,0,0,0-2.3,2.84c-.72,1.2-1.42,2.64-1.27,3.16,0,.05,0,.13.05.13H8a.93.93,0,0,1,.47.24,3.34,3.34,0,0,1,.58-.06,1.17,1.17,0,0,1,.35,0,.6.6,0,0,0,.18,0c.11,0,.18-.08.27-.33s.55-1.23.9-1.23h.05c.35.1.37.58.23,1.18s-.25.83-.5,1,.23.29.68,1.05A7.18,7.18,0,0,0,13,16.11a5.74,5.74,0,0,0,3,1.44,1.45,1.45,0,0,0,.55-.1A3.52,3.52,0,0,1,18.13,17c.21,0,.47,0,.83,0s.89.06,1.32.06a18.27,18.27,0,0,0,2.87-.24,39,39,0,0,1,5.62-.55,11.19,11.19,0,0,1,1.86.13,13.49,13.49,0,0,1,4,1.3c.79.33.23.81.72,1.49a4.35,4.35,0,0,1,.52,2.44c0,.6.3,1.35.15,1.35a.18.18,0,0,1-.09,0c-.31-.25-.59-.47-.64-.69a.41.41,0,0,0,0-.09.23.23,0,0,0,0,.06v0a2.54,2.54,0,0,1-.15.87,6.85,6.85,0,0,0-.5,1.49,5.46,5.46,0,0,0,.85,2.56c.62,1,1,.43,1.05,1.8s.39,3.56.43,5.23a11.45,11.45,0,0,0,.33,2.46c0,.5-.06.89,0,1.07s-.58.21-1.12.21a6.45,6.45,0,0,1,.08-1.32,11.08,11.08,0,0,0,0-2.48,12.57,12.57,0,0,0-.76-3.82,4.59,4.59,0,0,0-1.25-2l0,0A11.64,11.64,0,0,1,33,31c-1.26,2.42-2,4-2.32,4.88s-.79,1-.87,1.3a3.81,3.81,0,0,0-.08.79A6.93,6.93,0,0,1,29,38h-.22a1.43,1.43,0,0,1,.06-.74,2.89,2.89,0,0,1,.52-1c.5-.76.74-1.82,1-2.32a15.93,15.93,0,0,0,1.47-3.53,1.77,1.77,0,0,0-.54-1.88c-.68-.74-.93-.85-1.74-1.65s-1.22-1.07-1.12-1.54a11.17,11.17,0,0,1-2.8.48,4,4,0,0,1-.58,0A15.74,15.74,0,0,0,23,25.36h-.23a8.55,8.55,0,0,0-1.87.32,5.61,5.61,0,0,1-.24,1.39,8.87,8.87,0,0,0-.52,2.43c0,.64-.24,1-.24,1.63s-.24,2.59-.16,3.18.6,1.43.12,2.07-.2,1.19-.88,1.23h-.21a1.16,1.16,0,0,1-.67-.13,8.19,8.19,0,0,1,.48-1.27,4.29,4.29,0,0,0,.24-2.43c0-1-.12-2.39-.12-2.39a5.39,5.39,0,0,0-.28,1.29c0,.49-.63,2.17-.38,2.38s-.31,1-.34,1.1c-.15.51,0,1.09-.35,1.11l-.89.05a1.19,1.19,0,0,1,.07-.61c.08-.24.29-.5.46-.87a15.74,15.74,0,0,0,.71-3.55c.22-1.51.59-2.86.59-3.1A17.75,17.75,0,0,0,18,27.07,1.54,1.54,0,0,0,17.57,26a6.54,6.54,0,0,0-1.91-1.67,18.39,18.39,0,0,1-2.75-1.71c-.76-.56-.48-.72-1.31-1.15S10.29,19.24,10,19s-.6,0-1-.44-.31-.84-.69-.84a.78.78,0,0,0-.23,0A27.93,27.93,0,0,1,4,18.09c-.64,0-.56-.28-.56-.28s-.76-.64-.2-1.15S4.72,15.42,5.08,15a10.89,10.89,0,0,0,.84-1.87,5.76,5.76,0,0,0,.52-1.79A8.72,8.72,0,0,1,8.62,7.1a18.09,18.09,0,0,0,2.45-2.64c.3-.55.19-1.44.3-1.46h0m0-3-.44,0A3.1,3.1,0,0,0,8.31,3.15v0c-.19.21-.52.52-.77.77s-.73.69-1.12,1.11a11.54,11.54,0,0,0-3,6.08,4.38,4.38,0,0,1-.21.64,8.49,8.49,0,0,0-.36.88c-.05.14-.13.35-.19.5L2,13.71c-.31.26-.62.52-.86.75A3.55,3.55,0,0,0,0,17.17a3.86,3.86,0,0,0,.82,2.24,3.15,3.15,0,0,0,.22.33A3.51,3.51,0,0,0,4,21.09s1.65,0,3.12-.16a3.92,3.92,0,0,0,.82.54A5.68,5.68,0,0,0,10.09,24a5.56,5.56,0,0,0,1,1,21.44,21.44,0,0,0,3.19,2,2.13,2.13,0,0,1,.67.61l.12.15v.07c0,.32.13.88.16,1.24l-.08.36c-.13.6-.33,1.51-.48,2.5,0,.25-.07.5-.11.75a11.81,11.81,0,0,1-.38,2,1.84,1.84,0,0,1-.1.17,4.88,4.88,0,0,0-.46,1,4.12,4.12,0,0,0-.14,2.29,3,3,0,0,0,2.91,2.29h.17l.42,0a4.56,4.56,0,0,0,1.71.3h.38A3.5,3.5,0,0,0,22.38,38a4.58,4.58,0,0,0,.35-4l0-.08c0-.32.06-1,.09-1.36,0-.6.08-1,.08-1.34l0-.1a5.46,5.46,0,0,0,.21-1.72,9.33,9.33,0,0,1,.25-1c.29.07.72.16,1.33.26a7,7,0,0,0,1,.07,10.44,10.44,0,0,0,1.49-.12l.31.31c.43.43.73.69,1,.91l.37.33a19.87,19.87,0,0,1-1,2.19,8.28,8.28,0,0,0-.58,1.3,6.23,6.23,0,0,1-.38.9,5.6,5.6,0,0,0-.8,1.58,4.4,4.4,0,0,0-.19,2.48A3,3,0,0,0,28.43,41,4.63,4.63,0,0,0,29,41a9.57,9.57,0,0,0,1.12-.08,3,3,0,0,0,2.59-2.6,5.71,5.71,0,0,0,.41-.62,3.61,3.61,0,0,0,.08.9,3,3,0,0,0,2.93,2.35,4.07,4.07,0,0,0,3.44-1.27,3.06,3.06,0,0,0,.67-2.09,6.78,6.78,0,0,0,0-1.18,5.61,5.61,0,0,0-.17-.94A5.26,5.26,0,0,1,40,34.13c0-1-.14-2-.25-3-.09-.8-.18-1.63-.18-2.15a4,4,0,0,0-1.6-3.48l-.06-.11a3,3,0,0,0,.49-.48,3.36,3.36,0,0,0,.54-3c0-.09,0-.22-.06-.29A7.29,7.29,0,0,0,38,17.87a3.59,3.59,0,0,0-2.27-2.92l-.36-.16a15.18,15.18,0,0,0-4.26-1.33,13.93,13.93,0,0,0-2.37-.18,42.12,42.12,0,0,0-6.09.58,15.23,15.23,0,0,1-2.41.21c-.36,0-.71,0-1.06,0s-.8-.06-1.09-.06a5,5,0,0,0-2.22.49,6.26,6.26,0,0,1-1-.68,5.65,5.65,0,0,1-1-.91v0a3.86,3.86,0,0,0-.94-4c.23-.25.44-.47.62-.65C15.38,6.4,16.06,4,15.32,2.29A3.19,3.19,0,0,0,12.79.34,3.08,3.08,0,0,0,11.38,0Z"/></g><path class="c" d="M28.52,25.28a9.66,9.66,0,0,1-3.38.44,10.8,10.8,0,0,0-2.39-.36,8.55,8.55,0,0,0-1.87.32,5.61,5.61,0,0,1-.24,1.39,8.87,8.87,0,0,0-.52,2.43c0,.64-.24,1-.24,1.63s-.24,2.59-.16,3.18.6,1.43.12,2.07-.2,1.19-.88,1.23-.88-.12-.88-.12a8.2,8.2,0,0,1,.48-1.27,4.29,4.29,0,0,0,.24-2.43c0-1-.12-2.39-.12-2.39a5.39,5.39,0,0,0-.28,1.29c0,.49-.63,2.17-.38,2.38s-.31,1-.34,1.1c-.15.51,0,1.09-.35,1.11l-.89.05a1.19,1.19,0,0,1,.07-.61c.08-.24.29-.5.46-.87a15.74,15.74,0,0,0,.71-3.55c.22-1.51.59-2.86.59-3.1A17.74,17.74,0,0,0,18,27.07,1.54,1.54,0,0,0,17.57,26a6.54,6.54,0,0,0-1.91-1.67,18.4,18.4,0,0,1-2.75-1.71c-.76-.56-.48-.72-1.31-1.15S10.29,19.24,10,19s-.6,0-1-.44-.28-1-.92-.8A27.93,27.93,0,0,1,4,18.09c-.64,0-.56-.28-.56-.28s-.76-.64-.2-1.15S4.72,15.42,5.08,15a10.88,10.88,0,0,0,.84-1.87,5.76,5.76,0,0,0,.52-1.79A8.72,8.72,0,0,1,8.62,7.1a18.09,18.09,0,0,0,2.45-2.64c.3-.55.19-1.44.3-1.46.28,0,.24,1.15,0,1.63S10.09,6.34,10.65,6a3.81,3.81,0,0,0,1.47-1.29c.25-.47.15-1.36.28-1.38.32,0,.48,1.35-.92,2.79a15.94,15.94,0,0,0-2.3,2.84c-.72,1.2-1.42,2.64-1.27,3.16,0,.06,0,.14.06.13.21,0,.52.24.52.24a2.41,2.41,0,0,1,.93,0c.24.08.32.06.44-.29s.6-1.32,1-1.22.37.58.23,1.18-.25.83-.5,1,.23.29.68,1.05A7.18,7.18,0,0,0,13,16.11c.74.6,2.4,1.79,3.51,1.34A3.33,3.33,0,0,1,19,17a16.84,16.84,0,0,0,4.2-.19c1.45-.23,5.21-.81,7.48-.41a13.49,13.49,0,0,1,4,1.3c.79.33.23.81.72,1.49a4.35,4.35,0,0,1,.52,2.44c0,.68.39,1.57.06,1.3s-.62-.5-.64-.72a2,2,0,0,1-.14.91,6.85,6.85,0,0,0-.5,1.49,5.46,5.46,0,0,0,.85,2.56c.62,1,1,.43,1.05,1.8s.39,3.56.43,5.23a11.45,11.45,0,0,0,.33,2.46c0,.5-.06.89,0,1.07s-.58.21-1.12.21a6.45,6.45,0,0,1,.08-1.32,11.08,11.08,0,0,0,0-2.48,12.57,12.57,0,0,0-.76-3.82c-.56-1.34-1.18-2.15-1.28-2A11.64,11.64,0,0,1,33,31c-1.26,2.42-2,4-2.32,4.88s-.79,1-.87,1.3a3.81,3.81,0,0,0-.08.79,5.22,5.22,0,0,1-1,0,1.43,1.43,0,0,1,.06-.74,2.89,2.89,0,0,1,.52-1c.5-.76.74-1.82,1-2.32a15.93,15.93,0,0,0,1.47-3.53,1.77,1.77,0,0,0-.54-1.88c-.68-.74-.93-.85-1.74-1.65s-1.22-1.07-1.12-1.54Z"/></svg>