<svg xmlns="http://www.w3.org/2000/svg" viewBox="0 0 40.31 33.06"><defs><style>.a{opacity:0.8;}.b{fill:#fff;}.c{fill:#1a2026;}</style></defs><title>Asset 188</title><g class="a"><path class="b" d="M11.27,31.56a9,9,0,0,1-.92-.06A1.5,1.5,0,0,1,9,30c0-.06,0-.14,0-.21A4.4,4.4,0,0,1,8.2,28.5c-.57-1.37-1.33-3-2.26-4.76h0a13.41,13.41,0,0,0-.39,2.58v.14a9.29,9.29,0,0,0,0,2.08,5.76,5.76,0,0,1,.06,1.81,1.5,1.5,0,0,1-1.46,1.17,2.68,2.68,0,0,1-2.27-.7,1.66,1.66,0,0,1-.34-1.14v-.1a5.51,5.51,0,0,1,0-1,4.33,4.33,0,0,1,.13-.7,6.59,6.59,0,0,0,.2-1.67c0-.92.13-1.94.24-2.92s.18-1.7.19-2.29a2.57,2.57,0,0,1,1.06-2.36.7.7,0,0,0,.23-.24,4.31,4.31,0,0,0,.61-1.7,1.51,1.51,0,0,1-.08-.18,1.57,1.57,0,0,1-1-.56,1.88,1.88,0,0,1-.25-1.72A3.58,3.58,0,0,0,3,13.7a5.77,5.77,0,0,1,.76-3.26v0a2.15,2.15,0,0,1,1.39-2l.41-.19A13.82,13.82,0,0,1,9.41,7a12.63,12.63,0,0,1,2.11-.16,40.8,40.8,0,0,1,5.86.56A16.66,16.66,0,0,0,20,7.63c.39,0,.79,0,1.19-.05s.72-.05,1-.05a3.69,3.69,0,0,1,1.7.4l.46.19a4.55,4.55,0,0,0,2-1.12,5.78,5.78,0,0,0,1.45-1.52l.2-.31a6.34,6.34,0,0,1-.18-.64c-.56-2.31,1-2.88,1.26-3a1.91,1.91,0,0,1,.48-.07,2.4,2.4,0,0,1,2,1.49h.08a3.51,3.51,0,0,1,1.12-.19l.33,0s2.08.48,2.68,1.68c.09.17.19.44.3.73a6,6,0,0,0,.37.87,11.64,11.64,0,0,0,.92.81c.29.24.58.48.8.69a2.07,2.07,0,0,1,.68,1.58,2.41,2.41,0,0,1-.58,1.46,1.69,1.69,0,0,1-.15.25,2,2,0,0,1-1.72.75s-2.28,0-3.68-.23a2.57,2.57,0,0,1-.23.27,2.44,2.44,0,0,1-1.12.66l0,.08a4.85,4.85,0,0,1-1.87,2.38,1.24,1.24,0,0,0-.19.11,4.16,4.16,0,0,1-.93.92,20,20,0,0,1-3,1.85,3.51,3.51,0,0,0-1.14,1,5.47,5.47,0,0,1-.39.43c0,.07,0,.15,0,.25l0,.29a15.49,15.49,0,0,0-.18,1.57c0,.12.07.32.12.56.13.58.32,1.46.46,2.39l.1.73a10.91,10.91,0,0,0,.49,2.43,3.08,3.08,0,0,0,.18.33,3.47,3.47,0,0,1,.33.67,2.65,2.65,0,0,1,.1,1.45,1.5,1.5,0,0,1-1.46,1.14l-.89,0a2.75,2.75,0,0,1-1.41.32h-.3a2,2,0,0,1-1.91-1.62.73.73,0,0,0-.08-.22A3,3,0,0,1,19,26.5a2.43,2.43,0,0,0,.09-.31c0-.24-.05-1.18-.09-1.69s-.08-1-.08-1.3a1.59,1.59,0,0,0-.08-.4,4,4,0,0,1-.16-1.33,7.5,7.5,0,0,0-.35-1.54l-.11-.38c-.06-.2-.1-.39-.14-.57a5.62,5.62,0,0,0-.59-.06h-.17a2.33,2.33,0,0,0-.66.1c-.3.07-.68.16-1.28.25a5.51,5.51,0,0,1-.8.05,10.29,10.29,0,0,1-2-.23c-.15.17-.32.33-.47.47l-.39.38c-.39.39-.66.63-.91.85a9,9,0,0,0-.79.76,1.62,1.62,0,0,0-.23.28h0a1.6,1.6,0,0,1,.07.39,15.73,15.73,0,0,0,1.28,3,7,7,0,0,1,.47,1.07,6.61,6.61,0,0,0,.53,1.18,4.21,4.21,0,0,1,.62,1.2l0,.11A2.9,2.9,0,0,1,13,30.38a1.5,1.5,0,0,1-1.27,1.16Z"/><path class="b" d="M29.55,3c.34,0,.78.89.9,1.23s.15.33.27.33a.6.6,0,0,0,.18,0,1.17,1.17,0,0,1,.35,0,3.34,3.34,0,0,1,.58.06,2.14,2.14,0,0,1,.92-.23h.16s1.3.46,1.5.86A10.88,10.88,0,0,0,35.24,7c.36.44,1.31,1.15,1.87,1.67s-.2,1.15-.2,1.15.08.28-.56.28a27.93,27.93,0,0,1-4.06-.32.78.78,0,0,0-.23,0c-.37,0-.31.46-.69.84s-.72.2-1,.44-.79,2-1.62,2.42-.56.6-1.31,1.15a18.39,18.39,0,0,1-2.75,1.71A6.54,6.54,0,0,0,22.74,18a1.54,1.54,0,0,0-.48,1.11A17.75,17.75,0,0,0,22,21.29c0,.25.37,1.59.59,3.1a15.74,15.74,0,0,0,.71,3.55c.17.38.38.64.46.87a1.19,1.19,0,0,1,.07.61L23,29.37c-.34,0-.2-.61-.35-1.11,0-.09-.64-.84-.34-1.1s-.34-1.89-.38-2.38a5.39,5.39,0,0,0-.28-1.29s-.08,1.39-.12,2.39a4.29,4.29,0,0,0,.24,2.43,8.2,8.2,0,0,1,.48,1.27,1.16,1.16,0,0,1-.67.13h-.21c-.68,0-.4-.6-.88-1.23s0-1.47.12-2.07-.16-2.55-.16-3.18-.28-1-.24-1.63a8.87,8.87,0,0,0-.52-2.43,5.61,5.61,0,0,1-.24-1.39,8.55,8.55,0,0,0-1.87-.32h-.23a15.74,15.74,0,0,0-2.16.36,4,4,0,0,1-.58,0,11.17,11.17,0,0,1-2.8-.48c.1.48-.31.74-1.12,1.54s-1.05.91-1.74,1.65a1.77,1.77,0,0,0-.54,1.88A15.93,15.93,0,0,0,9.87,26c.29.5.54,1.55,1,2.32a2.89,2.89,0,0,1,.52,1,1.43,1.43,0,0,1,.06.74h-.22a6.93,6.93,0,0,1-.73-.05,3.81,3.81,0,0,0-.08-.79c-.08-.31-.52-.45-.87-1.3S8.53,25.46,7.27,23a11.64,11.64,0,0,1-1.18-2.67l0,0a4.59,4.59,0,0,0-1.25,2A12.57,12.57,0,0,0,4,26.21a11.08,11.08,0,0,0,0,2.48A6.45,6.45,0,0,1,4.15,30C3.61,30,3,30,3,29.8S3,29.22,3,28.73a11.45,11.45,0,0,0,.33-2.46c0-1.67.41-3.87.43-5.23s.43-.85,1.05-1.8a5.46,5.46,0,0,0,.85-2.56,6.85,6.85,0,0,0-.5-1.49A2.54,2.54,0,0,1,5,14.32v0a.22.22,0,0,0,0-.06.41.41,0,0,0,0,.09c0,.22-.32.43-.64.69a.18.18,0,0,1-.09,0c-.15,0,.15-.75.15-1.35A4.35,4.35,0,0,1,5,11.26c.5-.68-.06-1.16.72-1.49a13.49,13.49,0,0,1,4-1.3,11.19,11.19,0,0,1,1.86-.13,39,39,0,0,1,5.62.55A18.27,18.27,0,0,0,20,9.13c.44,0,.88,0,1.32-.06s.62,0,.83,0a3.52,3.52,0,0,1,1.59.49,1.45,1.45,0,0,0,.55.1,5.74,5.74,0,0,0,3-1.44,7.18,7.18,0,0,0,1.8-1.92c.46-.76.93-.87.68-1.05s-.35-.41-.5-1-.12-1.07.23-1.18h.05m0-3h0a3.19,3.19,0,0,0-.9.13c-1.2.35-3,1.75-2.3,4.76v0a5.65,5.65,0,0,1-1,.91,6.26,6.26,0,0,1-1,.68A5,5,0,0,0,22.18,6c-.29,0-.61,0-1.09.06s-.71,0-1.07,0a15.23,15.23,0,0,1-2.41-.21,42.12,42.12,0,0,0-6.09-.58,13.93,13.93,0,0,0-2.37.18A15.18,15.18,0,0,0,4.89,6.85L4.53,7A3.58,3.58,0,0,0,2.26,9.94a7.3,7.3,0,0,0-.81,3.71c0,.07,0,.21-.06.29a3.36,3.36,0,0,0,.54,3,3,3,0,0,0,.49.48l-.06.11A4,4,0,0,0,.78,21c0,.53-.1,1.35-.18,2.15-.11,1-.22,2.06-.25,3a5.26,5.26,0,0,1-.15,1.35,5.6,5.6,0,0,0-.17.94,6.78,6.78,0,0,0,0,1.17,3.06,3.06,0,0,0,.67,2.09A4.07,4.07,0,0,0,4.15,33a3,3,0,0,0,2.93-2.35,3.61,3.61,0,0,0,.08-.9,5.7,5.7,0,0,0,.41.62A3,3,0,0,0,10.15,33a9.57,9.57,0,0,0,1.12.08,4.62,4.62,0,0,0,.61,0,3,3,0,0,0,2.53-2.32,4.4,4.4,0,0,0-.19-2.48,5.57,5.57,0,0,0-.8-1.58,6.25,6.25,0,0,1-.38-.89,8.28,8.28,0,0,0-.58-1.3,19.88,19.88,0,0,1-1-2.19l.37-.33c.24-.21.55-.48,1-.91l.31-.31a10.44,10.44,0,0,0,1.49.12,7,7,0,0,0,1-.07c.62-.09,1-.19,1.33-.26a9.33,9.33,0,0,1,.25,1,5.47,5.47,0,0,0,.21,1.72l0,.1c0,.33,0,.73.08,1.34,0,.38.08,1,.09,1.36l0,.08a4.58,4.58,0,0,0,.35,4,3.5,3.5,0,0,0,3.24,2.63h.38a4.56,4.56,0,0,0,1.71-.3l.42,0h.17a3,3,0,0,0,2.91-2.29,4.12,4.12,0,0,0-.14-2.29,4.88,4.88,0,0,0-.46-1,1.82,1.82,0,0,1-.1-.17,11.86,11.86,0,0,1-.38-2c0-.25-.07-.5-.1-.75-.15-1-.34-1.89-.48-2.5L25,21.1c0-.36.11-.92.16-1.24v-.07l.12-.15A2.13,2.13,0,0,1,26,19a21.43,21.43,0,0,0,3.18-2,5.55,5.55,0,0,0,1-1,5.68,5.68,0,0,0,2.19-2.55,3.91,3.91,0,0,0,.82-.54c1.47.14,3.09.16,3.12.16a3.51,3.51,0,0,0,2.92-1.34,3.15,3.15,0,0,0,.22-.33,3.86,3.86,0,0,0,.82-2.24,3.55,3.55,0,0,0-1.16-2.71c-.24-.23-.55-.49-.86-.75l-.65-.56c-.06-.14-.14-.36-.19-.5a8.53,8.53,0,0,0-.36-.89c-1-2-3.83-2.5-3.86-2.5l-.49,0a4.75,4.75,0,0,0-.52,0A3.42,3.42,0,0,0,29.55,0Z"/></g><path class="c" d="M11.8,17.35a9.66,9.66,0,0,0,3.38.44,10.8,10.8,0,0,1,2.39-.36,8.55,8.55,0,0,1,1.87.32,5.61,5.61,0,0,0,.24,1.39,8.87,8.87,0,0,1,.52,2.43c0,.64.24,1,.24,1.63s.24,2.59.16,3.18-.6,1.43-.12,2.07.2,1.19.88,1.23.88-.12.88-.12a8.2,8.2,0,0,0-.48-1.27,4.29,4.29,0,0,1-.24-2.43c0-1,.12-2.39.12-2.39a5.39,5.39,0,0,1,.28,1.29c0,.49.63,2.17.38,2.38s.31,1,.34,1.1c.15.51,0,1.09.35,1.11l.89.05a1.19,1.19,0,0,0-.07-.61c-.08-.24-.29-.5-.46-.87a15.74,15.74,0,0,1-.71-3.55c-.22-1.51-.59-2.86-.59-3.1a17.74,17.74,0,0,1,.24-2.15A1.54,1.54,0,0,1,22.74,18a6.54,6.54,0,0,1,1.91-1.67,18.4,18.4,0,0,0,2.75-1.71c.76-.56.48-.72,1.31-1.15S30,11.3,30.34,11.06s.6,0,1-.44.28-1,.92-.8a27.93,27.93,0,0,0,4.06.32c.64,0,.56-.28.56-.28s.76-.64.2-1.15S35.6,7.48,35.24,7a10.88,10.88,0,0,1-.84-1.87c-.2-.4-1.45-.86-1.5-.86a2.07,2.07,0,0,0-1.08.22,2.41,2.41,0,0,0-.93,0c-.24.08-.32.06-.44-.29s-.6-1.32-1-1.22-.37.58-.23,1.18.25.83.5,1-.23.29-.68,1.05a7.18,7.18,0,0,1-1.8,1.92c-.74.6-2.4,1.79-3.51,1.34a3.33,3.33,0,0,0-2.42-.44,16.84,16.84,0,0,1-4.2-.19c-1.45-.23-5.21-.81-7.48-.41a13.49,13.49,0,0,0-4,1.3c-.79.33-.23.81-.72,1.49a4.35,4.35,0,0,0-.52,2.44c0,.68-.39,1.57-.06,1.3s.62-.5.64-.72a2,2,0,0,0,.14.91,6.85,6.85,0,0,1,.5,1.49,5.46,5.46,0,0,1-.85,2.56c-.62,1-1,.43-1.05,1.8s-.39,3.56-.43,5.23A11.45,11.45,0,0,1,3,28.73c0,.5.06.89,0,1.07s.58.21,1.12.21a6.45,6.45,0,0,0-.08-1.32,11.08,11.08,0,0,1,0-2.48,12.57,12.57,0,0,1,.76-3.82c.56-1.34,1.18-2.15,1.28-2A11.64,11.64,0,0,0,7.27,23c1.26,2.42,2,4,2.32,4.88s.79,1,.87,1.3a3.81,3.81,0,0,1,.08.79,5.22,5.22,0,0,0,1,0,1.43,1.43,0,0,0-.06-.74,2.89,2.89,0,0,0-.52-1c-.5-.76-.74-1.82-1-2.32a15.93,15.93,0,0,1-1.47-3.53,1.77,1.77,0,0,1,.54-1.88c.68-.74.93-.85,1.74-1.65s1.22-1.07,1.12-1.54Z"/></svg>