<svg xmlns="http://www.w3.org/2000/svg" viewBox="0 0 52 17.75">
    <path d="M.17,9.27S-.74,8.82,1.69,8A42.55,42.55,0,0,1,18.26,5.12a2.34,2.34,0,0,0,1.92-.94S22.83.78,24,.36s1.23-.78,1.3.84-.07,4,.65,4.7a9.92,9.92,0,0,0,1,.88s8,1.81,9.34,2,1.4-.2,1.4-.2.68-.55.84.2.68.51.68.51l2.89.39a2.23,2.23,0,0,0,2.66-1.1c.87-1.69,5.87-5.29,6.45-5.54s1.26-.72.32,1.07S49.46,8,49.1,9s-.87,1-.19,3.08,1.42,4.57,1.42,4.57.59,1-.58.23A33.29,33.29,0,0,1,45,12.48c-.94-1.1-.78-1.39-2.53-1.07a21.39,21.39,0,0,1-2.33.36s.06,1-.46.91a1.56,1.56,0,0,1-.68-.29s0-.23-.84-.1-3.89.55-3.89.55-.59.42-.1.71-.84.26-1.14.2-.58.84-.51,1.2-.56.19-.88-.07l-1.52-1.23s-6.49,1.14-7.53,1.23c1.85,1.56-.19,1.27-.32,1.24a9.2,9.2,0,0,1-3.67-1.3c-.61.23-.26,1.23-.26,1.23v1.06s-.06,1.24-1.13.27A9.91,9.91,0,0,1,14.47,14c-7.75-.49-8.86-1.56-8.86-1.56S4.06,12,3.77,11.19L4,10.9a2,2,0,0,1-.94,0C2.63,10.77.68,10.25.17,9.27Z"/>
</svg>