<svg xmlns="http://www.w3.org/2000/svg" width="49.1" height="18" viewBox="0 0 49.1 18">
  <title>subject-husky_airplane</title>
  <g id="Layer_2" data-name="Layer 2">
    <g id="Layer_1-2" data-name="Layer 1">
      <path d="M48,10.8c-.1,0,0-.4,0-.4.3-1.7-.3-6-.9-6.5a1.7,1.7,0,0,0-1.8-.5c-1.5.3-4.6,3.9-6.2,4.7C35.6,9.6,29.9,6.4,26,6l2.1.2a8.1,8.1,0,0,0-.2-.9L16.7.9A19.9,19.9,0,0,0,8.3.2L7.8.5,7.3.9v.3a38.2,38.2,0,0,0,4.9,2.1h0A6.3,6.3,0,0,0,9.3,5.6H2.9c.2-.7.5-4.1.6-5.4H3.3s-.8,4-1,5.5A4.9,4.9,0,0,0,0,6.1c-.2.8,1.2,1.3,1.8,1.6-.2,1.9-.6,3.7-.7,5.6,0,0,.2,0,.2-.1S2.5,8.5,2.5,7.9h.3c0,.6-.1.7.1,1l1.8.9.3.8H6.1l1,.2h.1l4.4,1.2-.2.7a.8.8,0,0,0-.7.3,1.2,1.2,0,0,0-.1.8,2,2,0,0,0-.4,4c1.6.1,1.8-.2,1.8-.2a2.6,2.6,0,0,0,.9-2.1h.4a1.2,1.2,0,0,0,.5-.7l.3-.5L16.3,13c.8,0,18.8-.2,26.7-.6l.3.3h.4l1.2.7.3.2a1.6,1.6,0,0,0,.5,1.5h.6a1.8,1.8,0,0,0-.6-1.6c-.5,0-.8-.4-1.3-.6v-.5c1.1,0,2.8-.2,3-1.1a4.3,4.3,0,0,1,1.6,0h0C48.9,11.1,48.1,11,48,10.8ZM11.1,6.6a7.9,7.9,0,0,1-1.6-.8,7.9,7.9,0,0,1,1.6-1.6,3.3,3.3,0,0,1,1.2-.6c.3.5.5,1.2.4,1.2S11.1,6.6,11.1,6.6Zm.3.2,1.4-1.4h.1l.5,1.8A10.1,10.1,0,0,1,11.4,6.8Zm2.7-.2h0c-.3-.8-.8-1.8-.2-2.4h.6A7.3,7.3,0,0,1,14.1,6.6Zm5.3,1.5h-.7a9,9,0,0,0,.7-1.4h.1ZM18.3,8l-3.8-.6c.2-1,.4-3,.4-3l4.7.9C19.5,5.6,18.4,7.6,18.3,8Zm1.5.2.3-2.8,3.7.8a21.7,21.7,0,0,1,.7,2.4ZM28,9l-3-.3a16.8,16.8,0,0,1-.6-2.4,32.8,32.8,0,0,1,4.5,1.1Zm16.1,3.5h0Z" fill="#1a2026"/>
    </g>
  </g>
</svg>
