<svg xmlns="http://www.w3.org/2000/svg" viewBox="0 0 36 31.86"><defs><style>.a{opacity:0.8;}.b{fill:#fff;}</style></defs><title>Asset 74</title><g class="a"><path class="b" d="M18.15,30.36a3.15,3.15,0,0,1-2.39-.64,1.79,1.79,0,0,1-.5-1.34l.07-8.06c-.09-.2-.23-.5-.41-.86l0-.05A10.8,10.8,0,0,0,13.33,17a1,1,0,0,0-.83-.29,7.71,7.71,0,0,1-5-1.32l-.3-.27a5.06,5.06,0,0,1-2.06.63H4.79c-3,0-3.27-2-3.29-2.62a3.49,3.49,0,0,1,1.81-2.92c.06-1.71,1.71-3,3.81-3a4.7,4.7,0,0,1,1,.1q.28-.21.58-.4a2.86,2.86,0,0,1,2.46-1.33,3,3,0,0,1,.65.07,11.78,11.78,0,0,1,2.51-.29l.06,0A3,3,0,0,1,15.13,5,2.43,2.43,0,0,1,16.58,5,11.8,11.8,0,0,1,19.44,4a4,4,0,0,1,3.41-2.49,5,5,0,0,1,.62,0,4.19,4.19,0,0,1,2.71.93h.07c1.93,0,3.44,1,3.75,2.36,4.14,1.75,4.56,3.27,4.49,4.29s-.78,2.93-4.62,3.1a2.65,2.65,0,0,1,2.36,1.9,2.47,2.47,0,0,1,.56,2c-.13.73-.72,2-3.19,2.09h-.21A4.25,4.25,0,0,1,28.33,18a3.94,3.94,0,0,1-.37.34,7.7,7.7,0,0,1-5,1.32,1,1,0,0,0-.83.29,5.8,5.8,0,0,0-1.35,1.73v.05a17.09,17.09,0,0,1,.88,1.76,4.88,4.88,0,0,1,.68-.55,1.48,1.48,0,0,1,.46-.2,1.5,1.5,0,0,1,2.21-.49,8.37,8.37,0,0,1,.74.61l.1,0a9.13,9.13,0,0,1,2.61-2.84,1.5,1.5,0,0,1,2,2.22,7.76,7.76,0,0,0-.69,1,1.5,1.5,0,0,1,.39,1.27,1.5,1.5,0,0,1,.19,2.28L30.2,27a4.94,4.94,0,0,0,.38,1,1.5,1.5,0,0,1-1.33,2.19h-9.6A4.21,4.21,0,0,1,18.15,30.36Zm3.38-15,.19,0v-.05Zm7.21-3.12.31-.06-.66,0,0,0Z"/><path class="b" d="M23.47,3a2.4,2.4,0,0,1,2.1,1,3.73,3.73,0,0,1,.68-.06c1.28,0,2.31.62,2.31,1.4a.91.91,0,0,1-.13.45c2.2.83,4.63,2.08,4.56,3.2s-1.1,1.71-3.72,1.71q-.51,0-1.09,0c-3.42-.22-3.48-1-3.48-1-.23,2.23-2.47,3.86-5.26,5-1,.39-.55,3-.27,4.43A4.78,4.78,0,0,1,20,17.9a4,4,0,0,1,3-1.21c2,0,2.76-.41,3.06-.65h0s-.34,0-.78,0c-.68,0-1.61-.06-1.89-.38-.46-.52-.11-1.34,1.14-1.77a1.81,1.81,0,0,1,1.7-.91,2,2,0,0,1,1.5.6,7.1,7.1,0,0,1,1.05.21,1.64,1.64,0,0,1,.7-.15c.72,0,1.3.43,1.3,1a.74.74,0,0,1,0,.17c.53.23,1.33,1.76-1.24,1.87h-.15A2,2,0,0,1,27.78,16,2,2,0,0,1,27,17.21a6.44,6.44,0,0,1-4,1,2.51,2.51,0,0,0-1.91.75,6,6,0,0,0-1.78,2.63v.61a11.2,11.2,0,0,0-3.09-3.45,12.52,12.52,0,0,0-1.84-2.81,2.51,2.51,0,0,0-1.91-.75,6.45,6.45,0,0,1-4-1A2,2,0,0,1,7.72,13a5.42,5.42,0,0,1-2.61,1.25H4.8c-1.06,0-1.76-.31-1.8-1.17s1.1-1.6,2-2.16a1.22,1.22,0,0,1-.16-.61c0-.9,1-1.64,2.31-1.64a3,3,0,0,1,1.3.28,6.42,6.42,0,0,1,1.41-1A1.25,1.25,0,0,1,11.11,7a1.53,1.53,0,0,1,.61.12,10.28,10.28,0,0,1,2.67-.35c.36,0,.69-.29,1-.29h.06a.89.89,0,0,1,.46-.12.82.82,0,0,1,.66.31h0A11,11,0,0,1,20.8,5.27l0-.11c-.13-1,.88-2,2.25-2.13l.43,0m-4.18,7.88a12.12,12.12,0,0,1-3.18-.6,3.74,3.74,0,0,0,1,2.36,3.07,3.07,0,0,0,1.17.71,3.24,3.24,0,0,1,.6-.32A6.79,6.79,0,0,0,21.5,11.2a3.61,3.61,0,0,0,.81-1.54H21c1.32.2,0,1.1-1.38,1.21h-.32m-4.22.3a6.7,6.7,0,0,1-.13-.9H13.48a7.16,7.16,0,0,1,1.59.9M13.19,13.4A21.64,21.64,0,0,1,9.38,13a1.38,1.38,0,0,0,.22.16,5.68,5.68,0,0,0,2.9.54,4,4,0,0,1,3,1.21,5.26,5.26,0,0,1,1.14,1.93,6,6,0,0,1,.31-1.67,4,4,0,0,1,.44-.9A4.07,4.07,0,0,1,15.85,13a9.37,9.37,0,0,1-2.26.41h-.4m3,5.34h0v0m0,0a17.69,17.69,0,0,1,3.11,6.33v1.4A5,5,0,0,0,17.17,25a7.68,7.68,0,0,1,2.09,3.63h0c-.14.13-.46.22-1.14.22-1.48,0-1.38-.2-1.38-.51h0L16.84,20h0s-.23-.55-.59-1.26m13.06,2.57h0m0,0a14.27,14.27,0,0,0-2.63,6.35,7.65,7.65,0,0,1,.08,1h-3.3c0-.07,0-.15,0-.22s0,.15-.06.22H19.29c.17-.15.1-.35.1-.51h0l0-1.65a5,5,0,0,1,.48.65c-.13-.62-.29-1.32-.5-2l0-2.89a16.44,16.44,0,0,1,1.89,4.6,7.66,7.66,0,0,1,.59-1.07c-.26-.27-.45-.43-.45-.43a3.58,3.58,0,0,1,.61.21,5.23,5.23,0,0,1,1.22-1.24,7.08,7.08,0,0,0-.89,1.41,4.52,4.52,0,0,1,.86.62A7.09,7.09,0,0,1,24.66,25a8.15,8.15,0,0,0-.49-1.52,6.56,6.56,0,0,1,1.21,1.15,5.23,5.23,0,0,1,.88-.31,8.65,8.65,0,0,0-.66.62,6,6,0,0,1,.54.9,9.11,9.11,0,0,1,3.18-4.55m-4.64,7a6.69,6.69,0,0,0,.14-2.46A9.19,9.19,0,0,0,24,27.16a7.59,7.59,0,0,1,.71,1.17m-3.07.29a10.6,10.6,0,0,1,1.12-1.79,7.21,7.21,0,0,0-.59-.78,11.64,11.64,0,0,0-.64,2c0,.2.08.4.11.61m7.09-4.34a6.78,6.78,0,0,0-.14,1.81,3.23,3.23,0,0,1,.74-.35,5.61,5.61,0,0,0-.69.85,6.36,6.36,0,0,0,.65,2H26.91a3.9,3.9,0,0,1,.46-1.35,4.73,4.73,0,0,1,1.32-3m.61,1.46h0M23.47,0h0a6.45,6.45,0,0,0-.81.05,5.7,5.7,0,0,0-4.28,2.68,12.6,12.6,0,0,0-2,.67l-.42,0a3.92,3.92,0,0,0-1.18.18A4.3,4.3,0,0,0,14,3.8a13.34,13.34,0,0,0-2.23.26,4.62,4.62,0,0,0-.62,0A4.4,4.4,0,0,0,7.65,5.67l-.52,0A5.12,5.12,0,0,0,1.91,9.37,4.59,4.59,0,0,0,0,13.17C.08,15,1.37,17.23,4.8,17.23h.47A5.92,5.92,0,0,0,7,16.84a9.54,9.54,0,0,0,5.37,1.34A10.44,10.44,0,0,1,13.5,20a3,3,0,0,0,.14.28l.2.41-.07,7.68s0,0,0,.07a3.26,3.26,0,0,0,.93,2.38,4.52,4.52,0,0,0,3.46,1.09,6.1,6.1,0,0,0,1.75-.22h9.35a3,3,0,0,0,2.67-4.37l0,0a3,3,0,0,0-.24-3.33,3,3,0,0,0-.13-.56l0-.06a3,3,0,0,0,0-4,3.9,3.9,0,0,0,2.72-3,4,4,0,0,0-.68-3,3.76,3.76,0,0,0-.19-.45A4.36,4.36,0,0,0,36,9.18c.17-2.67-2.3-4.37-4.79-5.5A5.15,5.15,0,0,0,26.69.95,5.8,5.8,0,0,0,23.47,0Z"/></g><path d="M19.46,14.66c2.79-1.14,5-2.76,5.26-5,0,0,.05.78,3.48,1S32.93,10.1,33,9s-2.36-2.37-4.56-3.2a.91.91,0,0,0,.13-.45c0-.77-1-1.4-2.31-1.4a3.73,3.73,0,0,0-.68.06A2.54,2.54,0,0,0,23,3c-1.37.17-2.38,1.13-2.25,2.13l0,.11a11,11,0,0,0-4.19,1.42h0a.82.82,0,0,0-.66-.31.89.89,0,0,0-.46.12c-.36,0-.71.29-1.09.29a10.28,10.28,0,0,0-2.67.35A1.53,1.53,0,0,0,11.11,7a1.25,1.25,0,0,0-1.28.88,6.42,6.42,0,0,0-1.41,1,3,3,0,0,0-1.3-.28c-1.28,0-2.31.73-2.31,1.64a1.22,1.22,0,0,0,.16.61c-.88.56-2,1.22-2,2.16s.87,1.23,2.11,1.16A5.42,5.42,0,0,0,7.72,13a2,2,0,0,0,.77,1.22,6.45,6.45,0,0,0,4,1,2.51,2.51,0,0,1,1.91.75A16.27,16.27,0,0,1,16.84,20h0l-.08,8.34h0c0,.3-.1.51,1.38.51s1.24-.42,1.24-.73h0l-.06-6.55a6,6,0,0,1,1.78-2.63A2.51,2.51,0,0,1,23,18.19a6.44,6.44,0,0,0,4-1A2,2,0,0,0,27.78,16a2,2,0,0,0,1.76.63c2.56-.11,1.77-1.65,1.24-1.87a.74.74,0,0,0,0-.17c0-.53-.58-1-1.3-1a1.64,1.64,0,0,0-.7.15,7.1,7.1,0,0,0-1.05-.21,2,2,0,0,0-1.5-.6,1.81,1.81,0,0,0-1.7.91c-1.26.43-1.61,1.25-1.14,1.77s2.67.35,2.67.35h0c-.3.24-1.1.65-3.06.65a4,4,0,0,0-3,1.21,4.78,4.78,0,0,0-.83,1.19C18.91,17.66,18.49,15.05,19.46,14.66Zm-4.52-4.38a6.7,6.7,0,0,0,.13.9,7.16,7.16,0,0,0-1.59-.9Zm2,4.87a6,6,0,0,0-.31,1.67,5.26,5.26,0,0,0-1.14-1.93,4,4,0,0,0-3-1.21,5.68,5.68,0,0,1-2.9-.54A1.38,1.38,0,0,1,9.38,13a20.33,20.33,0,0,0,4.22.41A9.37,9.37,0,0,0,15.85,13a4.07,4.07,0,0,0,1.53,1.27A4,4,0,0,0,16.94,15.15Zm1.33-1.79a3.07,3.07,0,0,1-1.17-.71,3.74,3.74,0,0,1-1-2.36,11.17,11.17,0,0,0,3.49.59c1.42-.11,2.7-1,1.38-1.21h1.34a3.61,3.61,0,0,1-.81,1.54A6.79,6.79,0,0,1,18.87,13,3.24,3.24,0,0,0,18.27,13.35ZM28.55,26.09a6.78,6.78,0,0,1,.14-1.81,4.73,4.73,0,0,0-1.32,3,3.9,3.9,0,0,0-.46,1.35h2.34a6.36,6.36,0,0,1-.65-2,5.61,5.61,0,0,1,.69-.85A3.23,3.23,0,0,0,28.55,26.09Zm.76-4.77a9.11,9.11,0,0,0-3.18,4.55,6,6,0,0,0-.54-.9,8.65,8.65,0,0,1,.66-.62,5.23,5.23,0,0,0-.88.31,6.56,6.56,0,0,0-1.21-1.15A8.15,8.15,0,0,1,24.66,25a7.09,7.09,0,0,0-1.49,1.25,4.52,4.52,0,0,0-.86-.62,7.07,7.07,0,0,1,.89-1.41A5.23,5.23,0,0,0,22,25.49a3.58,3.58,0,0,0-.61-.21s.19.16.45.43a7.66,7.66,0,0,0-.59,1.07c-1.46-5.82-5-8-5-8a19.65,19.65,0,0,1,3.62,8.39A5.07,5.07,0,0,0,17.17,25a7.68,7.68,0,0,1,2.09,3.63h4.11c0-.07,0-.15.06-.22s0,.15,0,.22h3.3a7.65,7.65,0,0,0-.08-1A14.27,14.27,0,0,1,29.31,21.32Zm-7.71,7.3c0-.21-.07-.41-.11-.61a11.64,11.64,0,0,1,.64-2,7.21,7.21,0,0,1,.59.78A10.6,10.6,0,0,0,21.6,28.62Zm3.07-.29A7.59,7.59,0,0,0,24,27.16a9.19,9.19,0,0,1,.85-1.29A6.69,6.69,0,0,1,24.66,28.33Z"/></svg>