<svg xmlns="http://www.w3.org/2000/svg" viewBox="0 0 36 36.7"><defs><style>.cls-1{fill:#1a2026;}</style></defs><g id="Layer_2" data-name="Layer 2"><g id="Layer_1-2" data-name="Layer 1"><path class="cls-1" d="M35.72,16.4c-.32-1.51-2.23-2.18-2.37-2.23h0c-1.12-1.67-5.23-2.56-6.31-2.71a21.36,21.36,0,0,0-4.15.2l-1.2.11a12.72,12.72,0,0,1-4.36-.64,3.13,3.13,0,0,0-.39-.24,7.23,7.23,0,0,0-2.29-1.54,1,1,0,0,0-.79,0,6.88,6.88,0,0,1-1.51-.92A2.42,2.42,0,0,0,13,7.82a5.6,5.6,0,0,0,1-2v0a5.9,5.9,0,0,0,.28-2.13,2.76,2.76,0,0,0-.52-1.39,4.79,4.79,0,0,0-1.3-1.09,4,4,0,0,0-.92-.41A7.27,7.27,0,0,0,9.79.54H9.33A6.32,6.32,0,0,0,7.19.87,2.72,2.72,0,0,0,6.55.29,2.79,2.79,0,0,0,4.26.19a2,2,0,0,0-1.5,1.14,3.26,3.26,0,0,0,0,1.74l0,.08a3.84,3.84,0,0,1,.1.4h0a5.77,5.77,0,0,0-.73,2.09c-.05.07-.51.77-.9,1.23l-.35.38a2.15,2.15,0,0,0-.49.64,2.63,2.63,0,0,0-.35.9C0,9,0,9.25.07,9.33a.17.17,0,0,0,.1,0H.26a.43.43,0,0,0,0,.05c0,.13.15.29.46.46a1.16,1.16,0,0,0,.57.18h0a.27.27,0,0,0,.13.15c.16.09.52.12,1.32-.24s1.37-.62,1.53-.52.08.11.09.25a3.78,3.78,0,0,1-.08.72c0,.24-.1.58-.16,1.11,0,.07,0,.14,0,.21a4.49,4.49,0,0,0-.89,2.43,4.65,4.65,0,0,0,.23,2.09,13,13,0,0,1,.67-2.64h0a5.4,5.4,0,0,0-.33,2.44,13,13,0,0,0,.88,3.19,5.93,5.93,0,0,1,0-2.88,5.07,5.07,0,0,1,.27-.91c0,.1.09.2.13.32a1.11,1.11,0,0,1,0,.17,17.16,17.16,0,0,0,.32,3.23s0-1.41.14-2.33c0,.14.12.29.19.44,0,1.51,0,2.9.11,3.65l-.13.3.14-.11c0,.25,0,.4,0,.4s0-.21.08-.51a2.64,2.64,0,0,0,.53-.78,7.26,7.26,0,0,1-.13,1.3,3.1,3.1,0,0,0,.55-1.36,5.27,5.27,0,0,0,.67,2.51,7.31,7.31,0,0,1-.16-2.44l.08.12a5.77,5.77,0,0,0,.2.84c0,1.26-.09,2.25-.09,2.25s.19-.6.42-1.44a4.13,4.13,0,0,0,1.3,1.54,4,4,0,0,1-.51-1.76l.08.05a4.83,4.83,0,0,0,.94,1.43,4.29,4.29,0,0,1-.3-.87A11.35,11.35,0,0,1,10,24c.06.22.13.44.19.67a7.61,7.61,0,0,1,0,2.73c0,.16,0,.3,0,.4a3.17,3.17,0,0,1-.1.59A3.5,3.5,0,0,0,10,29h0c-.32,1-.27,2.82-1.25,4A3.21,3.21,0,0,0,10,31a.77.77,0,0,1,0,.15l0,.14a3.73,3.73,0,0,1-1,2.12c-.26.16-.53,1-.56,1.13a5.41,5.41,0,0,0-1.1,1.34s0,0,0,0h0l.16.07-.17.23s0,0,0,0l0,0a2.94,2.94,0,0,0,.44,0,4.34,4.34,0,0,0,1.88-.39A2.42,2.42,0,0,0,10,34.8c0-.06,0-.13,0-.19.07-.33.17-.33.43-.36a1.47,1.47,0,0,0,.33,0c.43-.08.4-.46.36-.94,0-.13,0-.25,0-.39a7.17,7.17,0,0,1,.22-1.31,5.83,5.83,0,0,1-.1.73,7,7,0,0,0,.46-2.21l0-.06A2.28,2.28,0,0,0,12,31s0-.58,0-1.11a1.41,1.41,0,0,0,.41.69s-.2-1-.28-2.06l0-.1c.11-.38.29-.85.5-1.39,0,.12,0,.25,0,.38a2,2,0,0,0,.16,1,2.44,2.44,0,0,1,.1.24h0a7.69,7.69,0,0,1-.49,3A5.35,5.35,0,0,0,13,29.79a13,13,0,0,1-.23,2.08,12.63,12.63,0,0,0,.39-1.26,3.57,3.57,0,0,1-.55,1.93,3,3,0,0,0-.3,1.22,5.44,5.44,0,0,0-.78,1.55v0h0l.17,0c-.07.14-.11.25-.12.26a0,0,0,0,0,0,0h0a4.48,4.48,0,0,0,2.19-.87A2.45,2.45,0,0,0,14,33.64v-.2c0-.33.09-.36.34-.44.08,0,.19-.06.32-.12.39-.17.28-.53.14-1,0-.11-.07-.23-.11-.37a12.26,12.26,0,0,1-.06-2.22,4.93,4.93,0,0,0,.36,1,8.92,8.92,0,0,1-.21-1.47,1.66,1.66,0,0,0,.39.62,19.73,19.73,0,0,1-.39-3.17c.06-.49.15-1.07.25-1.73,0-.22.08-.44.11-.67l.63,0c.65,0,2.25.12,3.17.2a9.79,9.79,0,0,1,1.5.28c.44.1.9.2,1.29.25a1.88,1.88,0,0,1,.72.21A1.09,1.09,0,0,0,23,25h.2a17.29,17.29,0,0,0,3.08-1.21,16,16,0,0,0,1.89,3.08l.09.12a3.2,3.2,0,0,1,.54,1.19c.06.19.13.42.22.69a3.32,3.32,0,0,1-.45,2.31l-.11.25a8.63,8.63,0,0,1-2.05,2.78,6.66,6.66,0,0,0-1.64,1.94v0l0,0a1.36,1.36,0,0,0,.29.11.92.92,0,0,0-.09.23v0h0a4.18,4.18,0,0,0,1,.13,1.07,1.07,0,0,0,.87-.31,6,6,0,0,0,.57-1.09c.06-.17.13-.25.17-.26h0c0,.06.18.25.34.25h0a.22.22,0,0,0,.18-.11,1.25,1.25,0,0,0,.15-.45,3.36,3.36,0,0,1,.3-.85,9.59,9.59,0,0,1,.82-1.18,7.32,7.32,0,0,0,.82-1.21,7.76,7.76,0,0,1,1-1.5c.2-.24.39-.48.52-.67.33-.45.13-.87-.27-1.7-.15-.31-.32-.67-.51-1.11l0-.08a22.84,22.84,0,0,0,2,1.66l.18.13c.4.31.61,1.67.57,2.76,0,1.71-.33,2.82-.82,3.18A5.32,5.32,0,0,0,31.71,36s0,0,0,0a.92.92,0,0,0,.39.07h.19c0,.12-.05.21-.05.22v0h0c1.46,0,1.65-.55,1.73-1.08s.07-.57.51-.73.47-.75.47-1.48.13-3,.23-4.9V28c.07-1.44-.06-1.55-.51-1.91a5.31,5.31,0,0,1-.49-.44,2.47,2.47,0,0,1-.82-1.37,5.11,5.11,0,0,0-.16-.56C33,23,33.55,21.93,34,21c.08-.14.15-.28.22-.42a12.33,12.33,0,0,0,.77-3,3,3,0,0,0,.94.82h0a0,0,0,0,0,0,0A6.54,6.54,0,0,0,35.72,16.4ZM9.87,3.71h.18l.36,0a1.49,1.49,0,0,1,.77.17,1.39,1.39,0,0,1,.51.87v0a2.27,2.27,0,0,1,.08.8,2,2,0,0,1-.51,1.38,1.8,1.8,0,0,1-.31.22c-.51-.5-1-1-1.28-1.37a.37.37,0,0,0,0-.11c0-.08-.12-.13-.24-.16l-.22-.25A3,3,0,0,0,9.87,3.71ZM6,20.25c.1-.59.23-1.25.32-1.67l.13.23C6.35,19.31,6.18,19.83,6,20.25Z"/></g></g></svg>