<?xml version="1.0" encoding="utf-8"?>
<!-- Generator: Adobe Illustrator 23.0.1, SVG Export Plug-In . SVG Version: 6.00 Build 0)  -->
<svg version="1.0" id="Layer_1" xmlns="http://www.w3.org/2000/svg" xmlns:xlink="http://www.w3.org/1999/xlink" x="0px" y="0px"
	 width="42px" height="29px" viewBox="0 0 42 29" enable-background="new 0 0 42 29" xml:space="preserve">
<title>subject-bison-female</title>
<g>
	<g id="Layer_1-2">
		<path fill="#1A2026" d="M0.3,6.4L0.3,6.4c0.5-1.6,2-2.3,3.4-3s1.8-1,2.7-1.3c0.7-0.2,1.4-0.1,2,0.1h1.2c1.7,0.1,3.3-0.5,5-0.8
			l5.1-1C21.4,0.1,23.1,0,24.8,0c1.6-0.1,3.2,0.1,4.8,0.6c1.2,0.4,2.2,1,3.1,1.8l1,1c0.2,0.2,0.3,0.4,0.4,0.7h0.1
			c0.3-0.3,0.8-0.5,1.3-0.5h0.1c0.1,0,0.1,0.1,0,0.1c-0.4,0.1-0.8,0.4-1,0.8h0.1c0.4,0.1,0.7,0.1,1.1,0h0.9c0.5,0,1.1,0.1,1.6,0.3
			c0.8,0.4,1.5,1.1,1.7,2c0.5-0.4,1.1-0.7,1.2-1.4s-0.6-1.3-1-1.8l0,0c-0.1-0.1-0.1-0.2,0-0.1h0.1C41.3,3.9,42,4.9,42,6
			c-0.2,1-1,1.8-2,2.1c0.1,0.3,0.2,0.6,0.2,0.9v0.5c0,0.2-0.2,0.3-0.3,0.4c0,0.7,0,1.3,0,2c0,0.8,0.2,1.6,0.6,2.3l0,0
			c0,0.6-0.2,1.3-0.7,1.7h-0.2c0,0.3-0.2,0.6-0.4,0.8l0,0c0,0.3-0.1,0.5-0.1,0.7H39c-0.1,0.4-0.4,0.8-0.8,1h-0.1
			c-0.2,0.2-0.4,0.4-0.7,0.4h-0.1C37,19,36.5,19,36.2,18.7c0-0.1,0-0.1,0.1-0.1l0,0c-0.4,0-0.5-0.4-0.8-0.6l0,0
			c-0.4-0.1-0.6-0.5-0.8-0.9l-1,0.2c-0.1,0-0.1,0-0.1-0.1l0,0c-0.2,0.3-0.6,0.3-0.9,0.3h-0.1c-0.3,0.3-0.7,0.4-1.1,0.5l0,0
			c-0.4,0.3-0.8,0.5-1.2,0.7c-0.1,0.3-0.4,0.6-0.7,0.7l0,0l-1,0.5l0,0c-0.5,0.2-1.1,0.2-1.6,0.1l0,0l-0.7,0.2l0,0
			c-0.7,0.7-1.7,0.9-2.6,0.7l0,0c0,0.8-0.3,1.5-0.7,2.2l0,0c0,1.7,0,3.5,1.5,4.6h0.1c0,0.1,0,0.1-0.1,0.1l0,0h-0.9
			c0.1,0,0.1,0.1,0,0.1c-1,0.4-2.1,0.2-2.9-0.4h-0.1c-0.1-0.2-0.1-0.4,0-0.6l0,0c-0.1-0.2-0.3-0.3-0.5-0.2l0,0c0,0.1-0.1,0.1-0.1,0
			c-0.1-1,0-1.9,0.4-2.8h0.1v-0.7l-1.1,0.7l0,0c0,0.1-0.1,0.1-0.1,0c0-0.2,0-0.4,0.1-0.6l0,0c0.1-0.3,0.2-0.7,0.3-1h-0.2
			c0-0.1-0.1-0.3,0-0.4l-0.4,0.2l0,0c-0.1-0.1-0.1-0.4,0-0.5h-0.3c0-0.4,0.2-0.7,0.4-1l-0.3,0.2h-0.1c-0.1-0.4,0.1-0.9,0.4-1.2l0,0
			c-0.1-0.5,0.3-0.9,0.6-1.2l0,0c-0.9,0.3-1.8,0.6-2.7,0.7c-1,0.1-2.1,0-3.1-0.1c-1.7-0.1-3.4-0.8-4.6-2c-0.2,0.8-0.6,1.6-1,2.4
			c-0.2,0.4-0.4,0.7-0.5,1.1c-0.2,0.4-0.4,0.8-0.4,1.2c-0.2,1.3-0.1,2.7,0.4,3.9l0,0c0.4,0.8,0.9,1.5,1.5,2.2c0-0.1-0.2-0.2-0.3-0.3
			l0.3,0.3l0,0c0,0-0.1,0.9-0.9,0.9H8.2c-0.6-0.2-1.2-0.5-1.6-1v-0.6c-0.1-0.1-0.1-0.2-0.1-0.4c-0.1-0.5-0.2-1-0.3-1.5
			c-0.1,0-0.1-0.1-0.1-0.2c-0.4-0.7-0.8-1.5-1-2.3H5c-0.2,1.7,0.1,3.4,0.8,5l0,0L6,28l0,0c0.1,0,0.1,0,0.1,0.1l0,0
			c-0.3,0.3-0.8,0.4-1.2,0.4c-0.4,0-0.8-0.1-1.1-0.4l0,0l-0.6-1l0,0c0-0.6,0.3-1.1,0.3-1.7c0-0.3,0-0.7-0.1-1v-1c0-0.7,0-1.3-0.2-2
			c-0.3-0.5-0.4-1-0.3-1.6l0,0c0.7-0.7,0.5-2,0.3-2.9c-0.1-0.6-0.3-1.2-0.6-1.7c-0.2-0.5-0.6-0.9-0.8-1.4c-0.2,0.5-0.5,1-0.9,1.5
			c0,0.1-0.1,0-0.1,0l0,0c0.1-1.5,0-3-0.3-4.5C0.3,10.1,0.1,9.4,0,8.7C0,7.9,0.1,7.2,0.3,6.4z"/>
	</g>
</g>
</svg>
