<?xml version="1.0" encoding="utf-8"?>
<!-- Generator: Adobe Illustrator 23.0.1, SVG Export Plug-In . SVG Version: 6.00 Build 0)  -->
<svg version="1.0" id="Layer_1" xmlns="http://www.w3.org/2000/svg" xmlns:xlink="http://www.w3.org/1999/xlink" x="0px" y="0px"
	 width="42px" height="29px" viewBox="0 0 42 29" enable-background="new 0 0 42 29" xml:space="preserve">
<title>subject-bison-male</title>
<g>
	<g id="Layer_1-2">
		<path fill="#1A2026" d="M41.7,6.4L41.7,6.4c-0.5-1.6-2-2.3-3.4-3s-1.8-1-2.7-1.3c-0.7-0.2-1.4-0.1-2,0.1h-1.2
			c-1.7,0.1-3.3-0.5-5-0.8l-5.1-0.9C20.6,0.2,18.9,0,17.2,0c-1.6-0.1-3.2,0.1-4.8,0.6c-1.2,0.4-2.2,1-3.1,1.8c-0.4,0.3-0.7,0.6-1,1
			C8.1,3.6,8,3.8,7.9,4.1H7.8C7.5,3.8,7,3.6,6.5,3.6H6.4c-0.1,0-0.1,0.1,0,0.1c0.4,0.1,0.8,0.4,1,0.8H7.3c-0.4,0.1-0.7,0.1-1.1,0
			H5.3c-0.5,0-1.1,0.1-1.6,0.3C2.8,5.2,2.2,6,2,6.9C1.5,6.5,0.9,6.2,0.8,5.5s0.6-1.3,1-1.8l0,0c0.1-0.1,0.1-0.2,0-0.1H1.7
			C0.7,4,0,4.9,0,6c0.2,1,1,1.8,2,2.1C1.9,8.4,1.8,8.7,1.8,9v0.5c0,0.2,0.2,0.3,0.3,0.4c0,0.7,0,1.3,0,2c0,0.8-0.2,1.6-0.6,2.3l0,0
			c0,0.6,0.2,1.3,0.7,1.7h0.2c0,0.3,0.2,0.6,0.4,0.8l0,0c0,0.3,0.1,0.5,0.1,0.7H3c0.1,0.4,0.4,0.8,0.8,1h0.1
			c0.2,0.2,0.4,0.4,0.7,0.4h0.1C5,19,5.5,19,5.8,18.7c0-0.1,0-0.1-0.1-0.1c0,0,0,0,0,0l0,0c0.4,0,0.5-0.4,0.8-0.6l0,0
			c0.4-0.1,0.6-0.5,0.8-0.9l1,0.2c0.1,0,0.1,0,0.1-0.1l0,0l0,0c0.2,0.3,0.6,0.3,0.9,0.3h0.1c0.3,0.3,0.7,0.4,1.1,0.5l0,0
			c0.4,0.3,0.8,0.5,1.2,0.7c0.1,0.3,0.4,0.6,0.7,0.7l0,0l1,0.5l0,0c0.5,0.2,1.1,0.2,1.6,0.1l0,0l0.7,0.2l0,0
			c0.7,0.7,1.7,0.9,2.6,0.7l0,0c0,0.8,0.3,1.5,0.7,2.2l0,0c0,1.7,0,3.5-1.5,4.6h-0.1c0,0.1,0,0.1,0.1,0.1l0,0h0.9
			c-0.1,0-0.1,0.1,0,0.1c1,0.4,2.1,0.2,2.9-0.4h0.1c0.1-0.2,0.1-0.4,0-0.6l0,0c0.1-0.2,0.3-0.3,0.5-0.2l0,0c0,0.1,0.1,0.1,0.1,0
			c0.1-1,0-1.9-0.4-2.8h-0.1v-0.7l1.1,0.7l0,0c0,0.1,0.1,0.1,0.1,0c0-0.2,0-0.4-0.1-0.6l0,0c-0.1-0.3-0.2-0.7-0.3-1h0.2
			c0-0.1,0.1-0.3,0-0.4l0.4,0.2l0,0c0.1-0.1,0.1-0.4,0-0.5h0.3c0-0.4-0.2-0.7-0.4-1l0.3,0.2h0.1c0.1-0.4-0.1-0.9-0.4-1.2l0,0
			c0.1-0.5-0.3-0.9-0.6-1.2l0,0c0.9,0.3,1.8,0.6,2.7,0.7c1,0.1,2.1,0,3.1-0.1c1.7-0.1,3.4-0.8,4.6-2c0.2,0.8,0.6,1.6,1,2.4
			c0.2,0.4,0.4,0.7,0.5,1.1c0.2,0.4,0.4,0.8,0.4,1.2c0.2,1.3,0.1,2.7-0.4,3.9l0,0c-0.4,0.8-0.9,1.5-1.5,2.2c0-0.1,0.2-0.2,0.3-0.3
			s-0.1,0.1-0.3,0.3l0,0c0,0,0.1,0.9,0.9,0.9h0.3c0.6-0.2,1.2-0.5,1.6-1v-0.6c0.1-0.1,0.1-0.2,0.1-0.4c0.1-0.5,0.2-1,0.3-1.5
			c0.1,0,0.1-0.1,0.1-0.2c0.4-0.7,0.8-1.5,1-2.3H37c0.2,1.7-0.1,3.4-0.8,5l0,0L36,28l0,0c-0.1,0-0.1,0-0.1,0.1
			c0.3,0.3,0.8,0.4,1.2,0.4c0.4,0,0.8-0.1,1.1-0.4l0,0l0.6-1l0,0c0-0.6-0.3-1.1-0.3-1.7c0-0.3,0-0.7,0.1-1v-1c0-0.7,0-1.3,0.2-2
			c0.3-0.5,0.4-1,0.3-1.6l0,0c-0.7-0.7-0.5-2-0.3-2.9c0.1-0.6,0.3-1.2,0.6-1.7c0.2-0.5,0.6-0.9,0.8-1.4c0.2,0.5,0.5,1,0.9,1.5
			c0,0.1,0.1,0,0.1,0l0,0c-0.1-1.5,0-3,0.3-4.5c0.2-0.7,0.4-1.4,0.5-2.1C42,7.9,41.9,7.2,41.7,6.4z"/>
	</g>
</g>
</svg>
