<svg xmlns="http://www.w3.org/2000/svg" viewBox="0 0 30.1 32.42"><defs><style>.cls-1{fill:#1a2026;}</style></defs><g id="Layer_2" data-name="Layer 2"><g id="Layer_1-2" data-name="Layer 1"><path class="cls-1" d="M13.11,27a.83.83,0,0,1-.75.2c-.22,0-.61-.09-.62.24a.46.46,0,0,0-.19.18,3.87,3.87,0,0,1-.12-.77c0-.19,0-.44,0-.65l.22-.12c.15-.1.31-.18.46-.3a4.12,4.12,0,0,0,.31-.28h0c.12.22.52.06.78-.13,0,.1.06.21.08.3a3.43,3.43,0,0,1,.11.46,3,3,0,0,1,.06.59C13.37,26.84,13.18,27,13.11,27Zm-4-11.87c-.25.25-.47.53-.71.8-.65.71-1.37,1.35-2,2-.82.87-1.66,1.71-2.54,2.53-.2.18-2,1.68-1.63,2,.19.17.74-.14.91-.23A4.83,4.83,0,0,0,3.65,22c-.64.82-1.3,1.61-2,2.37a2.85,2.85,0,0,0-.8,1.11c-.13.54.54.31.78.21a8.18,8.18,0,0,0,1.69-1,21.65,21.65,0,0,1-2.17,3.88,10.57,10.57,0,0,0-1,1.53c-.16.34-.17.8.3.72a2,2,0,0,0,.9-.55L1.57,30a.79.79,0,0,0,.7-.15,3.47,3.47,0,0,0,.65-.62,2.65,2.65,0,0,1,.29-.29A.87.87,0,0,0,4,28.72a4.26,4.26,0,0,0,1-1.16H5a.86.86,0,0,0,.77-.33,4.11,4.11,0,0,0,.7-1.13,1.37,1.37,0,0,0,.86-.69c.19-.27.35-.55.52-.84s.26-.39.37-.59a1.34,1.34,0,0,0,.46.3,1.37,1.37,0,0,0,.39.06,2.48,2.48,0,0,0-.25.3c-.1.13-.31.36-.31.55s.28.28.58.25c-.09.18-.16.38-.2.48s-.19.47,0,.63a1.22,1.22,0,0,0,.78.07,2.26,2.26,0,0,0,.8-.25,14.94,14.94,0,0,1,.63,2.36,1.89,1.89,0,0,1-.18.06,1.66,1.66,0,0,1-.91-.07c-.22-.1-.51-.18-.63.07a.59.59,0,0,0-.57.32.51.51,0,0,0,.21.75.48.48,0,0,1,.36-.59c0,.4.51.48.84.44a5.7,5.7,0,0,0,.55-.16,1.22,1.22,0,0,1,.38,0c.11.22.17.47.29.69s.29.38.4.59.08.39.17.56a.94.94,0,0,0,.43.43.45.45,0,0,0,.55-.05,1.53,1.53,0,0,1,.31.26c.13.13.12.24.17.41a.79.79,0,0,0,.16-.82.68.68,0,0,0-.47-.39,1,1,0,0,0-.28-.56.66.66,0,0,1-.13-.36l.21.16c.12.08.25.12.37.2a2.28,2.28,0,0,0,.62.36c.27.08.47,0,.67.26a1.11,1.11,0,0,0,.58.42c.24,0,.37.09.51-.08a1.42,1.42,0,0,1,.46.23l.23.2c.06.08.07.16.12.24a1,1,0,0,0-.23-1,.87.87,0,0,0-.52-.32.78.78,0,0,0-.48-.25L15,30.65c-.17-.42-.74-.41-1.09-.66a3.23,3.23,0,0,1,.68.08.4.4,0,0,0,.51-.28,1.62,1.62,0,0,1,.28-.11c.23-.05.27.11.45.18,0-.62-1-1.1-1.37-.56l-.26,0a1.41,1.41,0,0,1-.54,0c-.22,0-.44,0-.67-.11l-.35-.08h0a3.83,3.83,0,0,0-.28-.29,2.45,2.45,0,0,1-.68-1c.07-.12.22-.09.35-.11.19.21.45.2.76.1a3.55,3.55,0,0,1,1-.34,1.65,1.65,0,0,1,.63.17,2.43,2.43,0,0,0,.71.21,1.16,1.16,0,0,1,.6.31c.15.15.15.4.35.51a.46.46,0,0,0,.56-.13.65.65,0,0,1,.47.55c.15,0,.2-.39.15-.63l.2-.06c.22.06.53.33.9.15a.7.7,0,0,1,.57.44c.15-.36-.17-.8-.44-1a1.91,1.91,0,0,0-.38-.21c0-.2,0-.72-1.22-.64-.28,0-.61-.12-.89-.08a2.38,2.38,0,0,1-1.18-.4A4.49,4.49,0,0,1,14,24.17a5.85,5.85,0,0,0,.49-.38c.28-.24.5-.57.75-.83a1.87,1.87,0,0,1,0,.34c.18,0,.28-.26.36-.39a1.48,1.48,0,0,0,.16-.27,1,1,0,0,1,.06-.2c0,.12,0,.19.14.13s.13-.16.18-.22c1.67-1.12,4-1.56,5.55-2.35a14.83,14.83,0,0,0,2.78-1.86,22.82,22.82,0,0,0,1.83-2,9.48,9.48,0,0,0,1.61-3.52,2.48,2.48,0,0,0-.36-1.79.83.83,0,0,0-1-.25,3.85,3.85,0,0,0,0-.76A3.1,3.1,0,0,0,26.3,9a.63.63,0,0,0-.13-.55c-.11-.09-.18-.12-.17-.28s.06-.16,0-.23,0,0-.1-.06,0-.17-.07-.35-.17,0-.24-.14.18-.29,0-.39-.24.06-.15-.15.17-.17,0-.23a1.41,1.41,0,0,1-.38-.21,2.21,2.21,0,0,1,.25-.27c.06,0,.15-.08.17-.15s0-.2-.09-.27.12-.07.14-.11,0-.07,0-.12a.21.21,0,0,1,.09-.19c.1-.09.14,0,.11-.19s-.1-.15-.07-.25.13-.08.11-.23-.05-.09.06-.24,0-.07,0-.21.18-.18.27-.26-.18-.11-.25-.2a.59.59,0,0,1,.23,0c0-.19-.09-.38-.12-.57l.14-.05a5.07,5.07,0,0,0,.55-.34,7.73,7.73,0,0,1,1.16-.64c.26,0,.52-.07.78-.08a5.56,5.56,0,0,1,.71,0h.32c.08.09.21.28.33.3s.17-.23.17-.37A1,1,0,0,0,29.59,1,3,3,0,0,0,28.43.89a8,8,0,0,1-1.1-.12,2.57,2.57,0,0,0-.94-.11A.77.77,0,0,0,26.2.5,2.94,2.94,0,0,0,24.68.09a4.08,4.08,0,0,0-1.52.19l-.09,0L22.68,0a2.53,2.53,0,0,0-.12.36.7.7,0,0,0-.33-.12c0,.11.05.22,0,.33a.86.86,0,0,0-.59-.26c.11.18.19.38.29.57h-.3c0,.11,0,.21,0,.32a.53.53,0,0,0-.28,0c0,.14.14.34.17.48a1.88,1.88,0,0,0-.41,0c.06.11.13.26.25.31l-.37.13c.05.07.12.22.2.32l-.2.12a1.33,1.33,0,0,0-.5.44c.12,0,.24,0,.36,0-.07.14-.2.26-.27.41.1,0,.18-.08.28-.06s-.14.23-.19.34H21c0,.11-.25.26-.33.35a1.73,1.73,0,0,0-.25.41,1.14,1.14,0,0,1,.44-.11c0,.09-.15.17-.2.26a.82.82,0,0,0-.12.25.84.84,0,0,1,.27,0c0,.11-.22.31-.28.43a1.92,1.92,0,0,0-.21.46c.14,0,.39-.28.54-.25-.08.15-.15.3-.22.46h.24c0,.13-.17.35-.22.48a1,1,0,0,0-.12.46c.09,0,.17,0,.25,0a2.59,2.59,0,0,1-.11.37,2.63,2.63,0,0,0-.06.39c0,.19,0,.38,0,.56a12.14,12.14,0,0,0-2.07.46,13.23,13.23,0,0,0-3.12,1.07,19.27,19.27,0,0,0-2.95,2.06A25.16,25.16,0,0,0,10,14a8,8,0,0,0-.9,1.16Z"/></g></g></svg>