<svg xmlns="http://www.w3.org/2000/svg" viewBox="0 0 44 25.01"><defs><style>.cls-1{fill:#1a2026;}</style></defs><g id="Layer_2" data-name="Layer 2"><g id="Layer_1-2" data-name="Layer 1"><path class="cls-1" d="M43.14,19.17a30.85,30.85,0,0,1-1.45-3.46,4.63,4.63,0,0,1-.37-1.09A9.77,9.77,0,0,1,41,12.8a46.26,46.26,0,0,0,.18-4.73C41,7.46,40,4.38,39.65,3.69A7.28,7.28,0,0,0,35.81.57,16.12,16.12,0,0,0,29.37.16c-1.17.18-4.3,1.08-6.07,1.35a14.5,14.5,0,0,1-2.37.19c0,.06-6.18-.37-6.18-.37s-1.16-.05-1.46,0a7.49,7.49,0,0,1-1.64,0A4.24,4.24,0,0,0,9.1,1.7H8.19A.18.18,0,0,0,8,1.51c0-.42,0-.6,0-1C7.89.26,8,.26,7.83.06H7.28L6.74,1.88a15.51,15.51,0,0,0-1.64.54A33.91,33.91,0,0,0,1.46,6.07L0,7.16C0,8.57.32,8.43,1.07,8.92a12.33,12.33,0,0,0,1.57.41s3.58.28,4.64.38a20.67,20.67,0,0,1,3.46,1.82c.39.32.53,1.75,1,3.07.23,1,.79,1.11,1.14,1.81a5.63,5.63,0,0,1,.47,1.38c.06,0-.27,1.36-.39,2.11s-.49,3.47-.61,3.53a1.66,1.66,0,0,1-.35.67s-1.94.17-2.32.17a1.75,1.75,0,0,0-.41.12,2.27,2.27,0,0,1,.28,0c.09,0,.12.09.17.14s.25.45.31.48,1.83,0,1.83,0a17.49,17.49,0,0,0,2.37-.17,16.51,16.51,0,0,0,1.31-1.67,8.74,8.74,0,0,1,2.33-1.8c.09.36.15.66.27,1.22a.81.81,0,0,1-.26.61c-.4.09-1.23.31-1.81.47.06,0,.15,0,.22,0s.25.44.62.6a5.07,5.07,0,0,0,2.26,0,4.8,4.8,0,0,0,1.59-1.25A8.41,8.41,0,0,0,22,21.17a12.64,12.64,0,0,0,0-2s-.71-3.31-.71-3.61a.25.25,0,0,1,.18-.18c3.4.83,4.33,1.06,6.23,1.45,0,0,1.86.31,2.33.37A17,17,0,0,0,30.77,21a8.56,8.56,0,0,1,.37,2.86c-.37.07-2.18.45-2.17.46a.48.48,0,0,0-.26.14,1.56,1.56,0,0,1,.31,0l.27.54.07,0s3.45,0,4.38-.12a4.57,4.57,0,0,0,1.72-.56,4.14,4.14,0,0,0-.14-.82,9.69,9.69,0,0,1,0-1.23,15,15,0,0,1,.91-3.83c.05,0,3.28,2.21,3.28,2.33A14.24,14.24,0,0,1,41,23a2,2,0,0,1-1.64.73c0,.14.23.08.25.18s.08.41.12.51a5.85,5.85,0,0,0,1.82-.1A6.11,6.11,0,0,0,43,22.55c.21-.41,1-1.39,1-1.47A3.23,3.23,0,0,0,43.14,19.17Z"/></g></g></svg>