<svg xmlns="http://www.w3.org/2000/svg" viewBox="0 0 30.1 32.42"><defs><style>.cls-1{fill:#1a2026;}</style></defs><g id="Layer_2" data-name="Layer 2"><g id="Layer_1-2" data-name="Layer 1"><path class="cls-1" d="M17,27a.83.83,0,0,0,.75.2c.23,0,.61-.09.63.24a.62.62,0,0,1,.19.18,4.76,4.76,0,0,0,.11-.77c0-.19,0-.44,0-.65l-.21-.12a4.66,4.66,0,0,1-.47-.3c-.11-.08-.2-.19-.31-.28h0c-.13.22-.53.06-.79-.13,0,.1-.06.21-.08.3s-.08.3-.11.46a3,3,0,0,0-.06.59C16.73,26.84,16.92,27,17,27Zm4-11.87c.25.25.47.53.71.8.65.71,1.37,1.35,2,2,.83.87,1.66,1.71,2.54,2.53.2.18,2,1.68,1.63,2-.19.17-.74-.14-.91-.23a4.83,4.83,0,0,1-.59-.32c.64.82,1.3,1.61,2,2.37a2.75,2.75,0,0,1,.8,1.11c.14.54-.54.31-.78.21a7.86,7.86,0,0,1-1.68-1A21.61,21.61,0,0,0,29,28.57a10.57,10.57,0,0,1,1,1.53c.16.34.17.8-.3.72a1.89,1.89,0,0,1-.89-.55,3.7,3.7,0,0,1-.28-.28.79.79,0,0,1-.7-.15,3.47,3.47,0,0,1-.65-.62,2.65,2.65,0,0,0-.29-.29.87.87,0,0,1-.77-.21,4.45,4.45,0,0,1-1-1.16h0a.87.87,0,0,1-.77-.33,4.11,4.11,0,0,1-.7-1.13,1.37,1.37,0,0,1-.86-.69c-.18-.27-.35-.55-.52-.84s-.26-.39-.37-.59a1.34,1.34,0,0,1-.46.3,1.32,1.32,0,0,1-.39.06,2.48,2.48,0,0,1,.25.3c.1.13.31.36.31.55s-.28.28-.58.25c.09.18.16.38.2.48s.19.47,0,.63a1.21,1.21,0,0,1-.78.07,2.33,2.33,0,0,1-.8-.25A14.94,14.94,0,0,0,19,28.73a1.89,1.89,0,0,0,.18.06,1.66,1.66,0,0,0,.91-.07c.22-.1.52-.18.63.07a.59.59,0,0,1,.57.32.51.51,0,0,1-.21.75.48.48,0,0,0-.36-.59c0,.4-.51.48-.84.44a5.7,5.7,0,0,1-.55-.16,1.2,1.2,0,0,0-.38,0c-.11.22-.17.47-.29.69s-.29.38-.4.59-.08.39-.16.56a1,1,0,0,1-.44.43.45.45,0,0,1-.55-.05,1.48,1.48,0,0,0-.3.26c-.14.13-.13.24-.18.41a.81.81,0,0,1-.16-.82.68.68,0,0,1,.47-.39,1,1,0,0,1,.28-.56.66.66,0,0,0,.13-.36c-.07.05-.13.11-.21.16s-.25.12-.37.2a2.28,2.28,0,0,1-.62.36c-.27.08-.47,0-.67.26a1.11,1.11,0,0,1-.58.42c-.24,0-.37.09-.51-.08a1.42,1.42,0,0,0-.46.23l-.23.2c-.06.08-.07.16-.12.24a1,1,0,0,1,.24-1,.82.82,0,0,1,.51-.32.78.78,0,0,1,.48-.25l.22-.06c.17-.42.74-.41,1.09-.66a3.23,3.23,0,0,0-.68.08.4.4,0,0,1-.51-.28,1.36,1.36,0,0,0-.28-.11c-.23-.05-.27.11-.45.18,0-.62,1-1.1,1.37-.56l.26,0a1.41,1.41,0,0,0,.54,0c.22,0,.44,0,.67-.11l.35-.08h0a3.83,3.83,0,0,1,.28-.29,2.35,2.35,0,0,0,.68-1c-.07-.12-.22-.09-.35-.11-.19.21-.45.2-.76.1a3.55,3.55,0,0,0-.95-.34,1.65,1.65,0,0,0-.63.17,2.43,2.43,0,0,1-.71.21,1.2,1.2,0,0,0-.6.31c-.15.15-.15.4-.35.51a.46.46,0,0,1-.56-.13.65.65,0,0,0-.47.55c-.15,0-.2-.39-.15-.63l-.2-.06c-.22.06-.53.33-.9.15a.72.72,0,0,0-.57.44c-.15-.36.17-.8.44-1a2,2,0,0,1,.39-.21c0-.2,0-.72,1.21-.64.28,0,.61-.12.89-.08a2.38,2.38,0,0,0,1.18-.4,4.58,4.58,0,0,0,.82-2.55,4.7,4.7,0,0,1-.5-.38c-.28-.24-.5-.57-.75-.83a1.87,1.87,0,0,0,0,.34c-.18,0-.28-.26-.36-.39a1,1,0,0,1-.15-.27c0-.07,0-.15-.07-.2,0,.12,0,.19-.14.13s-.13-.16-.18-.22c-1.67-1.12-4-1.56-5.55-2.35a14.83,14.83,0,0,1-2.78-1.86,22.82,22.82,0,0,1-1.83-2,9.48,9.48,0,0,1-1.61-3.52,2.43,2.43,0,0,1,.37-1.79.81.81,0,0,1,1-.25,3.22,3.22,0,0,1,0-.76A2.73,2.73,0,0,1,3.8,9a.63.63,0,0,1,.13-.55c.11-.09.18-.12.17-.28S4,8,4.07,7.93s0,0,.1-.06,0-.17.07-.35.17,0,.24-.14-.18-.29,0-.39.24.06.15-.15-.17-.17,0-.23A1.53,1.53,0,0,0,5,6.4a2.21,2.21,0,0,0-.25-.27c-.06,0-.14-.08-.17-.15s0-.2.09-.27-.12-.07-.14-.11,0-.07,0-.12a.21.21,0,0,0-.09-.19c-.1-.09-.14,0-.11-.19s.1-.15.07-.25-.13-.08-.11-.23.06-.09,0-.24,0-.07,0-.21S4.11,4,4,3.91s.19-.11.25-.2a.59.59,0,0,0-.23,0c0-.19.09-.38.12-.57L4,3.05a4.38,4.38,0,0,1-.56-.34,7.64,7.64,0,0,0-1.15-.64C2.05,2,1.79,2,1.53,2A5.56,5.56,0,0,0,.82,2H.51c-.09.09-.22.28-.34.3S0,2.09,0,2A1,1,0,0,1,.51,1,3,3,0,0,1,1.67.89,8,8,0,0,0,2.77.77,2.57,2.57,0,0,1,3.71.66.77.77,0,0,1,3.9.5,2.94,2.94,0,0,1,5.42.09,4.16,4.16,0,0,1,7,.28L7,.24,7.42,0c.07.11.07.25.13.36A.63.63,0,0,1,7.87.24c0,.11,0,.22,0,.33A.82.82,0,0,1,8.42.31c-.11.18-.19.38-.29.57h.3c0,.11,0,.21,0,.32a.53.53,0,0,1,.28,0,4.5,4.5,0,0,0-.16.48,1.76,1.76,0,0,1,.4,0c-.06.11-.13.26-.25.31L9,2.12c0,.07-.12.22-.19.32L9,2.56a1.33,1.33,0,0,1,.5.44c-.12,0-.24,0-.36,0,.07.14.2.26.27.41-.09,0-.18-.08-.28-.06s.14.23.19.34H9.12c0,.11.26.26.33.35a1.73,1.73,0,0,1,.25.41,1.14,1.14,0,0,0-.44-.11c0,.09.15.17.2.26a.82.82,0,0,1,.12.25.84.84,0,0,0-.27,0c0,.11.22.31.28.43a1.59,1.59,0,0,1,.21.46c-.14,0-.39-.28-.54-.25a2.77,2.77,0,0,1,.22.46H9.24c0,.13.17.35.22.48a.93.93,0,0,1,.12.46c-.09,0-.17,0-.25,0a1.77,1.77,0,0,0,.12.37c0,.13,0,.26.05.39s0,.38,0,.56a11.94,11.94,0,0,1,2.07.46A13.46,13.46,0,0,1,14.7,9.66a19.68,19.68,0,0,1,2.94,2.06A25.16,25.16,0,0,1,20.11,14a8,8,0,0,1,.9,1.16Z"/></g></g></svg>