<svg xmlns="http://www.w3.org/2000/svg" viewBox="0 0 40 22.5"><path d="M.9,20.2,1.7,22H1.3a.2.2,0,0,0-.2.2c0,.2.1.3.2.3s16.5,0,25.7-.7h1.1a26.4,26.4,0,0,0,4.8-.7c.2,0,.3-.2.2-.3H33a24.7,24.7,0,0,0,3.8-2.8C28.1,19.5,5.1,20.1.9,20.2Z"/><polygon points="24 6.9 16.2 6.9 15.9 6.9 15.9 6.9 15.9 0 15.1 0 15.1 6.9 13.2 6.9 13.2 7.5 24 7.5 24 6.9"/><path d="M38.3,16,40,14.7l-.5-.6H27.4l-.6-.4-2-5.1h.8V8H12.1v.6h.3L12,15.9l-.7.6-10.1.8H.5a.4.4,0,0,0-.4.6l.4.9H.2c-.1,0-.2.1-.2.3l.2.2H.3c.3,0,30.3-.6,38-2.8h0c.1-.1.2-.2.2-.3A.2.2,0,0,0,38.3,16Zm-20-3h-3V9.5h3Zm.6,0V9.5h5.6L25.9,13Z"/></svg>
