<svg xmlns="http://www.w3.org/2000/svg" viewBox="0 0 28 22.04"><defs><style>.cls-1{fill:#1a2026;}</style></defs><g id="Layer_2" data-name="Layer 2"><g id="Layer_1-2" data-name="Layer 1"><path class="cls-1" d="M27.22,15.88A16.42,16.42,0,0,1,25.92,13c-.33-2.49.23-4.13-.44-5.06a5.3,5.3,0,0,0-.37-.76c1.14-1.6,2.44-2.66,1.74-5.22-.08-.3-.1-.39-.56-.43-1.05-.1-1.53,2.5-1.52,2.78s-1,.34-1.28,1.22a7,7,0,0,0-4.57-1c-10.62,1-3.51,1.3-10,.22A3.17,3.17,0,0,1,7.71,4C7.44,3,6,3,5.11,2a.83.83,0,0,1-.25-.71A6,6,0,0,0,5.07.31c-.14.18-.29.91-.22.2,0,0,0-.15-.11-.12s.1.21-.13.76c-.28-.07-.44.8-.58.65-.34-.39-.51-.34-.63-.63A11.2,11.2,0,0,1,3.45,0c0-.11-.11.21-.12.37a.76.76,0,0,0-.06-.2c-.06-.14,0,.73-.09,1A2.68,2.68,0,0,0,3,2.36c0,1.22-.29.33-1.31,1.35-.8.81-.34.94-.74,1.85a8.53,8.53,0,0,0-1,1c-.08.17.11.49.22.64A.67.67,0,0,0,.67,8c.19,1.61,1.83.73,2,.7.72.15.13.53.45.73.12.08.19,0,.21.1.16.6.23.3.37.51a1,1,0,0,0,.23.41c.25.2.4,0,.54,0a1.1,1.1,0,0,0,.38,0,5.26,5.26,0,0,0,1.23,1.06c.1,2,1.27,4.6.18,8.35-.21.74-.38.51-.88.58s-.53.52-.53.52c-.13.18-.19.58.12.64,0,.28.77.2,1.16.26a4,4,0,0,0,1.46,0,.79.79,0,0,0,.32-.18,1.35,1.35,0,0,0,.21-.2,4.25,4.25,0,0,0,.83.05,5.14,5.14,0,0,0,1.29,0c.09,0,.3,0,.37-.13a3.32,3.32,0,0,0,.47-1.49h0c.28-.74.53-2,1-4a9.12,9.12,0,0,0,.19-2.26,1.4,1.4,0,0,0,.32.06c.77.09,1.28-.16,2.7-.13a7.61,7.61,0,0,0,2-.2,4.48,4.48,0,0,0,0,1.5c.16.83.5,3.4.07,4.14A3.85,3.85,0,0,1,16,20.6c-1.14,0-1.14.08-1.25.42a.42.42,0,0,0,.07.58c.16.53.55.28,1.08.34a2.46,2.46,0,0,0,1.27,0c.12,0,.18-.25.31-.33.82-.46,1.15-1.19,1.93-2.17.66-.83.83-.74.84-1.76a3.93,3.93,0,0,1,1.3-2.87c.71.69,1.71,1,2.87,2.2,1.4,1.4,1.4,1.4,1.46,2a2.32,2.32,0,0,1-.39,1.46,6.05,6.05,0,0,0-1,.18c-.73.13-.47.52-.47.52-.09.26.06.52.45.54a.58.58,0,0,0,.63.29A4.26,4.26,0,0,0,27,22c.17,0,.19-.29.28-.55s.23-.83.39-1.29A17.11,17.11,0,0,0,28,17C28.06,16.26,27.6,16.24,27.22,15.88ZM9.07,19.83h0c-.08.21-.07.29-.17.35a.86.86,0,0,1-.32.1,1.49,1.49,0,0,0,.06-.36,12.39,12.39,0,0,1,.67-2.61A9.83,9.83,0,0,1,9.07,19.83Z"/></g></g></svg>