<svg xmlns="http://www.w3.org/2000/svg" viewBox="0 0 38 36.69"><defs><style>.a{fill:#010101;}</style></defs><path class="a" d="M36.67,19.67c-.19-.22-.42-.41-.61-.63s-.29-.46-.48-.66a6.19,6.19,0,0,0-1.87-1.29,7.93,7.93,0,0,1-.83-.4,7.24,7.24,0,0,1-.94-.71q-.93-.8-1.92-1.5a16.5,16.5,0,0,0-4.7-2,44.57,44.57,0,0,0-5.24-1c-1.67-.3-3.39-.8-5-1.22A18.29,18.29,0,0,1,12,9.2,7.54,7.54,0,0,1,9.91,8a6,6,0,0,1-.62-1.61,2.31,2.31,0,0,0,1.26-1.84A14.16,14.16,0,0,0,10.42.38a.47.47,0,0,0-.19-.33.42.42,0,0,0-.42,0A7.74,7.74,0,0,0,8,1.91,3.85,3.85,0,0,0,7.1,4.77s.07.37-.16.42a5.37,5.37,0,0,0-1.33-.27,4.41,4.41,0,0,0-1.3.35S3.88,5.5,4,5a6.65,6.65,0,0,0-.53-2.16C2.85,2,2.08,1.37,1.44.6A.28.28,0,0,0,1.35.5a.54.54,0,0,0-.71,0C.26.88.31,1.47.28,1.94.23,2.59.08,3.22,0,3.86A2.64,2.64,0,0,0,1,6.39s.62.21.6.51-.17.48-.21.71,0,.49-.09.74a7,7,0,0,0-.21,1.18,3.44,3.44,0,0,0,.31,1.18,5.65,5.65,0,0,0,1.47,1.95,7.52,7.52,0,0,1,1.36,1.77A1.69,1.69,0,0,0,6,15.1c.23,0,.48,0,.7-.06a37.26,37.26,0,0,1,2,4.17A13.35,13.35,0,0,0,10,21.74c.53.71,1.27,1.25,1.82,2a11.25,11.25,0,0,1,1.27,3c.37.9.29,7,.29,7a1,1,0,0,1-.48.9c-.52-.18-1.8.49-1.8.49-.46.19-.74.52-.68.89s1.53.18,1.53.18c-.25.49.93.5.93.5a3,3,0,0,0,1.94-1c.78-.55,1-2.31,1-2.31a13.25,13.25,0,0,0,.29-1.65c.11-.84.18-1.69.25-2.53,0-.36.06-.72.08-1.08s0-.77.15-1a1,1,0,0,1,.25-.22,4.56,4.56,0,0,1,1.48-.55,6.57,6.57,0,0,1,1.59-.23A17.07,17.07,0,0,0,22.7,26c.49-.08,1.49-.38,1.84.15.53.83,1.24,2.26,1.24,2.26s.27.35.36.43a4.66,4.66,0,0,0,.49.39c.31.23.7.38,1,.63a.81.81,0,0,1,.18.19,3.16,3.16,0,0,1,.67,1.36,1.39,1.39,0,0,1,0,.73l-.83,1.7-1.24,1.57-1.08.07c-.65.4-.06,1.08-.06,1.08l1.2.12c.62,0,1-.68,1-.68l.93-1.3L30,32.52a1.83,1.83,0,0,0,.34-1.73l-.22-1,.41-.43,2,2c.56.4,0,1.45,0,1.45L31.71,35l-1.36.4-.55.53v.58l.58.19,1.18-.31c.86-.09.95-.59.95-.59,0-.77,1.44-3.55,1.72-3.92a5.08,5.08,0,0,0,.51-1.11c0-.6-1.3-1.11-1.3-1.11-.88-.69-.7-3.15-.7-3.15a13.61,13.61,0,0,1,0-3.06c0-.38.09-.75.16-1.13s0-.64.31-.79a.92.92,0,0,1,.32-.1c.28,0,.45.2.57.42a.85.85,0,0,1,.09.31,6.22,6.22,0,0,1-.2,1,8.77,8.77,0,0,0-.11,1A8.38,8.38,0,0,0,34,26a7.55,7.55,0,0,0,.94,2.55,11.07,11.07,0,0,0,1.3,1.81,7.28,7.28,0,0,0,.81.76c.15.11.28.32.47.19a1.11,1.11,0,0,0,.34-.72c0-1.94,0-3.86.14-5.79A7,7,0,0,0,36.67,19.67Z"/></svg>