<svg xmlns="http://www.w3.org/2000/svg" viewBox="0 0 44 23.51"><defs><style>.cls-1{fill:#1a2026;}</style></defs><g id="Layer_2" data-name="Layer 2"><g id="Layer_1-2" data-name="Layer 1"><path class="cls-1" d="M44,19.43c-.29-1.44,0-3.52-1.61-4a2.21,2.21,0,0,1-1.25-1A8.42,8.42,0,0,1,40.34,12c-.06-.25-.2-2.45-.21-2.64a1,1,0,0,0,0-.17c0-.06,0-.12,0-.18a5.66,5.66,0,0,0-.39-1.72,6.94,6.94,0,0,0-1.25-2A12,12,0,0,0,32.3,2.18c-2-.33-5.91-1.25-7.45-.68A6.2,6.2,0,0,1,21.73,2a9.78,9.78,0,0,1-2.39-.7L18.74,1c-.48-.2-.95-.4-1.39-.56l-.57-.2-.08,0-.16,0A3,3,0,0,0,13.3.9a2.12,2.12,0,0,1-.69.35l-.33.07-.54.07-.51.05-.16,0-.31,0H10a6.79,6.79,0,0,1-.78,0,6.1,6.1,0,0,1-1-.17L8,1.21a.27.27,0,0,0-.08-.07s0,0-.05,0A2.68,2.68,0,0,0,6.69.54a2.05,2.05,0,0,0-.49,0L6,.54,5.8.62a.84.84,0,0,0-.27.32l0,0,0,0-.05.15c0,.05,0,.11,0,.17s0,.06,0,.08a1.46,1.46,0,0,0,0,.8A3.92,3.92,0,0,0,3.7,3.57a3.07,3.07,0,0,0-.27.55s0,0,0,0a.36.36,0,0,1,0,.09,2,2,0,0,1-.26.45A9.62,9.62,0,0,1,1,6.56c-.52.38-1.39.51-.68,1.2.28.27.19.21.26.57s.21.45.6.38a1.22,1.22,0,0,0,1.12.76c.61,0,1.7.3,1.69.25H4A21.57,21.57,0,0,1,7.53,10c1.12.12,3.76.89,3.68,1.76,0,.14-.94,3-1.08,3.26-1,1.8-1.9,3.73-2.9,5.16a7.66,7.66,0,0,1-1.77.27c-.6.05-1.41.17-1.29,1,0,0,0,0,0-.05s-.16.27-.08.38a.7.7,0,0,1,.76-.38c-.1.15-.26.31-.14.51a.92.92,0,0,1,.47-.36c.2-.06.3.1.46.18a1.13,1.13,0,0,0,.53.16l.83,0c.3,0,.52.22.83.32a4.42,4.42,0,0,0,1.15,0,2.22,2.22,0,0,0,.43-.06,5,5,0,0,0,2.45-1,13.9,13.9,0,0,0,2.69-3,15,15,0,0,0,2.09-2.62l.63,1.06c1.51,2.66,2,3.2,2.39,5,.06.26-1,.33-1.34.41s-.84.16-1.12.76a1,1,0,0,0-.07.51c.05,0,.08-.19.12-.1s-.09.3,0,.33a.73.73,0,0,1,.19-.31.26.26,0,0,0,.08.27c0-.25.18-.47.45-.48,0,0,0,.07,0,.12a3.14,3.14,0,0,0,1.64,0,3.58,3.58,0,0,1,1,0,3.35,3.35,0,0,0,.91-.06c2.2-.33,1.34-1.16,1.71-2.56.1-.38-.2-2.55.26-3,3,.95,5.18,1,5.35.68-.73,2.56-.11,2.66-.69,3.43-2,.31-2,.7-2.05.9s-.15.16-.2.34c.25-.09.6-.27.87-.12,0,.29,1.22.33,1.5.31a6.18,6.18,0,0,1,1.61.12c.49.1,1.79.07,2.19-.49s2.42-4.8,3.23-4.95h.11a3.53,3.53,0,0,1,.78.38c.23.15.44.32.64.47s.67.5.74.54a30.15,30.15,0,0,0,4.27,1.14c.81.42.15,1.94.63,2.55a1.5,1.5,0,0,0,0-.26.75.75,0,0,0,.24.63c0-.3-.06-.77.2-1,.13,0,.49-.27.66-.68A3.45,3.45,0,0,0,44,19.43Z"/></g></g></svg>