<svg xmlns="http://www.w3.org/2000/svg" viewBox="0 0 38 36.69"><defs><style>.a{fill:#010101;}</style></defs><path class="a" d="M1.33,19.67c.19-.22.42-.41.61-.63s.29-.46.48-.66a6.19,6.19,0,0,1,1.87-1.29,7.93,7.93,0,0,0,.83-.4A7.24,7.24,0,0,0,6.06,16Q7,15.18,8,14.48a16.5,16.5,0,0,1,4.7-2,44.57,44.57,0,0,1,5.24-1c1.67-.3,3.39-.8,5-1.22A18.29,18.29,0,0,0,26,9.2,7.54,7.54,0,0,0,28.09,8a6,6,0,0,0,.62-1.61,2.31,2.31,0,0,1-1.26-1.84A14.16,14.16,0,0,1,27.58.38a.47.47,0,0,1,.19-.33.42.42,0,0,1,.42,0A7.74,7.74,0,0,1,30,1.91a3.85,3.85,0,0,1,.86,2.86s-.07.37.16.42a5.37,5.37,0,0,1,1.33-.27,4.41,4.41,0,0,1,1.3.35s.43.23.35-.3a6.65,6.65,0,0,1,.53-2.16c.58-.85,1.35-1.44,2-2.21a.28.28,0,0,1,.09-.1.54.54,0,0,1,.71,0c.38.35.33.94.36,1.41.05.65.2,1.28.26,1.92a2.64,2.64,0,0,1-1,2.53s-.62.21-.6.51.17.48.21.71,0,.49.09.74a7,7,0,0,1,.21,1.18,3.44,3.44,0,0,1-.31,1.18,5.65,5.65,0,0,1-1.47,1.95,7.52,7.52,0,0,0-1.36,1.77A1.69,1.69,0,0,1,32,15.1c-.23,0-.48,0-.7-.06a37.26,37.26,0,0,0-2,4.17A13.35,13.35,0,0,1,28,21.74c-.53.71-1.27,1.25-1.82,2a11.25,11.25,0,0,0-1.27,3c-.37.9-.29,7-.29,7a1,1,0,0,0,.48.9c.52-.18,1.8.49,1.8.49.46.19.74.52.68.89s-1.53.18-1.53.18c.25.49-.93.5-.93.5a3,3,0,0,1-1.94-1c-.78-.55-1-2.31-1-2.31a13.25,13.25,0,0,1-.29-1.65c-.11-.84-.18-1.69-.25-2.53,0-.36-.06-.72-.08-1.08s0-.77-.15-1a1,1,0,0,0-.25-.22,4.56,4.56,0,0,0-1.48-.55,6.57,6.57,0,0,0-1.59-.23A17.07,17.07,0,0,1,15.3,26c-.49-.08-1.49-.38-1.84.15-.53.83-1.24,2.26-1.24,2.26s-.27.35-.36.43a4.66,4.66,0,0,1-.49.39c-.31.23-.7.38-1,.63a.81.81,0,0,0-.18.19,3.16,3.16,0,0,0-.67,1.36,1.39,1.39,0,0,0,0,.73l.83,1.7,1.24,1.57,1.08.07c.65.4.06,1.08.06,1.08l-1.2.12c-.62,0-1-.68-1-.68l-.93-1.3L8.05,32.52a1.83,1.83,0,0,1-.34-1.73l.22-1-.41-.43-2,2c-.56.4,0,1.45,0,1.45L6.29,35l1.36.4.55.53v.58l-.58.19-1.18-.31c-.86-.09-1-.59-1-.59,0-.77-1.44-3.55-1.72-3.92a5.08,5.08,0,0,1-.51-1.11c0-.6,1.3-1.11,1.3-1.11.88-.69.7-3.15.7-3.15a13.61,13.61,0,0,0,0-3.06c0-.38-.09-.75-.16-1.13s0-.64-.31-.79a.92.92,0,0,0-.32-.1c-.28,0-.45.2-.57.42a.85.85,0,0,0-.09.31,6.22,6.22,0,0,0,.2,1,8.77,8.77,0,0,1,.11,1A8.38,8.38,0,0,1,4,26a7.55,7.55,0,0,1-.94,2.55,11.07,11.07,0,0,1-1.3,1.81,7.28,7.28,0,0,1-.81.76c-.15.11-.28.32-.47.19a1.11,1.11,0,0,1-.34-.72c0-1.94,0-3.86-.14-5.79A7,7,0,0,1,1.33,19.67Z"/></svg>