<svg xmlns="http://www.w3.org/2000/svg" viewBox="0 0 44 32.82"><g id="Layer_2" data-name="Layer 2"><g id="Layer_1-2" data-name="Layer 1"><path d="M41.15,6.38a1.77,1.77,0,0,1,.6-.34,3.84,3.84,0,0,0,1.37-1,2.88,2.88,0,0,0,.41-3.61A5.23,5.23,0,0,0,41.77,0a.15.15,0,0,0-.16,0c-.19.21.49.62.75.88A1.85,1.85,0,0,1,43,2.66a2,2,0,0,1-1,1.31,2.41,2.41,0,0,1-1.25.48,5.39,5.39,0,0,1-1.31-.51,3.46,3.46,0,0,0-1.56-.18c-.75.1-1.25.67-2,.81s-1-.28-1.47-.51a3.42,3.42,0,0,0-2.59.05,2.67,2.67,0,0,1-1.22.37A3.11,3.11,0,0,1,29.48,4a2,2,0,0,1-1.05-1.32A1.84,1.84,0,0,1,29.05,1c.26-.26.94-.67.75-.88a.13.13,0,0,0-.16,0,5.21,5.21,0,0,0-1.76,1.39A2.88,2.88,0,0,0,28.29,5a4,4,0,0,0,1.37,1,1.77,1.77,0,0,1,.6.34,4.13,4.13,0,0,0,.42.31c.11.07-.18.38-.36.54-.11,0-.23-.07-.34-.12a18.79,18.79,0,0,0-12-.66,11,11,0,0,1-5.85,0A8.68,8.68,0,0,0,2.36,9.88a2.2,2.2,0,0,0-.27.53,5.66,5.66,0,0,0-.76,3,9.81,9.81,0,0,1,0,4.25l0,.11c0,.13-.08.27-.13.41L.94,19c-.16.23-.45.37-.51.65a2.44,2.44,0,0,1,0,.39,2.13,2.13,0,0,1-.27.46c-.26.49-.06,1.62.55.83a4.31,4.31,0,0,1,.65-.63,2,2,0,0,0,.53-.8c.13-.42-.05-.69-.05-1.08a3.75,3.75,0,0,0,0-.48,17.65,17.65,0,0,0,.3-3.44,13.69,13.69,0,0,1,0-1.79,24,24,0,0,0,1.26,4.18c-.2,1.55-.57,3.62-.76,4.4A1.14,1.14,0,0,1,2.4,22a8.19,8.19,0,0,0-1.25,4.36v5a2.92,2.92,0,0,0,.79,1.45h1.4a.06.06,0,0,0,.06-.06.06.06,0,0,0,0,0A5.27,5.27,0,0,1,2.32,30.8,8.58,8.58,0,0,1,2.51,26a1.26,1.26,0,0,1,.26-.45l2.28-2.6c.06-.23.26-.74.44-1.25a2.37,2.37,0,0,1,0,1.68,4,4,0,0,0,.81,4.13,18.4,18.4,0,0,1,3.48,5.32.06.06,0,0,0,.06,0h2a.07.07,0,0,0,0-.08,6.52,6.52,0,0,0-2.08-2.46A25.11,25.11,0,0,1,7.28,25a2.44,2.44,0,0,1-.09-1.2A10.39,10.39,0,0,1,7.71,22a1.32,1.32,0,0,1,1.61-.79,12.72,12.72,0,0,0,9.51-.86h0a2.13,2.13,0,0,1,1.73-.1l.7.34L22,21.76v1c0,.34.05.68,0,1a5.34,5.34,0,0,1-.31,1A5.85,5.85,0,0,0,21.51,26a4,4,0,0,0,0,.6,3.13,3.13,0,0,1-.12,1.1c-.1.3-.19.6-.28.9l-.4,1.27a1.88,1.88,0,0,0,0,1.26l.69,1.7a.05.05,0,0,0,.06,0h1.42a.05.05,0,0,0,0-.08,9.22,9.22,0,0,1-.75-1.38,3.46,3.46,0,0,1-.24-2,23.7,23.7,0,0,1,.74-2.87.94.94,0,0,1,.15-.32c.18-.28.68-1.09,1-1.63,0,0,.23.4.25.45a2.46,2.46,0,0,1,.15.53c0,.25.09.52.14.78a3,3,0,0,0,.25.79l.26.56.12.27a1.09,1.09,0,0,1,.05.26,1.27,1.27,0,0,1,0,.33,3.11,3.11,0,0,0,0,.43,2.3,2.3,0,0,0,.16.86l1,3a0,0,0,0,0,.06,0h2.1s0,0,0,0a.06.06,0,0,0,0-.08,24.75,24.75,0,0,1-1.93-3,2.41,2.41,0,0,1-.28-1.12V24.5a2.36,2.36,0,0,0-.13-.75,3.9,3.9,0,0,1,1.06-4.2L32,15.17a1.35,1.35,0,0,1,.27-.2l.63-.32a.78.78,0,0,0,.32-.3l.72-1.19a.46.46,0,0,1,.07.07,2.43,2.43,0,0,1,.14.2,1.49,1.49,0,0,0,.6.34,3.26,3.26,0,0,0,1.21.07,3.78,3.78,0,0,0,.67-.05l.28-.09a2,2,0,0,0,.33-.15.58.58,0,0,0,.21-.28l0-.06c.07-.12.21-.19.28-.31a.81.81,0,0,0,.15-.49c0-.29-.21-.57-.15-.87a2.44,2.44,0,0,1,.19-.44,4,4,0,0,0,.17-.49,2.11,2.11,0,0,0,.12-.43c0-.13,0-.27,0-.4s.14-.21.25-.29A1.08,1.08,0,0,0,38.78,9a2.83,2.83,0,0,0,.43.2,2.62,2.62,0,0,0,.28,0c.2,0,.34.19.52.27a1.81,1.81,0,0,0,1,0,1.75,1.75,0,0,0,.85-.47.88.88,0,0,1,.33-.24,1.83,1.83,0,0,0,.42-.26c.28-.25.23-.5-.1-.6a3.78,3.78,0,0,1-1.28-.61c-.09-.06-.61-.55-.48-.65A3,3,0,0,0,41.15,6.38Z"/></g></g></svg>
