<svg width="24" height="24" viewBox="0 0 24 24" fill="none" xmlns="http://www.w3.org/2000/svg">
    <path d="M12 10.0865C11.293 10.0867 10.6018 10.2964 10.014 10.6893C9.4262 11.0823 8.96808 11.6406 8.6976 12.2939C8.42712 12.9472 8.35642 13.6659 8.49443 14.3594C8.63245 15.0528 8.97299 15.6898 9.47299 16.1897C9.97299 16.6896 10.61 17.03 11.3035 17.1679C11.9969 17.3058 12.7157 17.2349 13.3689 16.9643C14.0221 16.6937 14.5804 16.2355 14.9732 15.6476C15.366 15.0597 15.5757 14.3686 15.5757 13.6615C15.5757 13.192 15.4832 12.7271 15.3035 12.2933C15.1238 11.8595 14.8604 11.4654 14.5283 11.1334C14.1963 10.8014 13.8021 10.5381 13.3683 10.3585C12.9345 10.1788 12.4695 10.0864 12 10.0865V10.0865ZM21.4086 5.54617H17.3606L16.8464 3.93808C16.5956 3.11924 16.1615 3 15.2824 3H8.71837C7.83914 3 7.40563 3.11924 7.15428 3.93808L6.63948 5.54617H5.31684V4.98924C5.31693 4.94732 5.30874 4.9058 5.29273 4.86706C5.27673 4.82832 5.25324 4.79312 5.2236 4.76348C5.19396 4.73384 5.15876 4.71035 5.12002 4.69435C5.08128 4.67834 5.03976 4.67015 4.99784 4.67024H3.16843C3.12651 4.67015 3.08499 4.67834 3.04625 4.69435C3.00751 4.71035 2.97231 4.73384 2.94267 4.76348C2.91303 4.79312 2.88954 4.82832 2.87354 4.86706C2.85753 4.9058 2.84934 4.94732 2.84943 4.98924V5.54606H2.59137C2.38238 5.54602 2.17542 5.58715 1.98233 5.66711C1.78923 5.74707 1.61379 5.86428 1.466 6.01206C1.31822 6.15985 1.20101 6.33529 1.12105 6.52839C1.04109 6.72148 0.999957 6.92844 1 7.13743V19.6294C0.999957 19.8384 1.04109 20.0453 1.12105 20.2384C1.20101 20.4315 1.31822 20.6069 1.466 20.7547C1.61379 20.9025 1.78923 21.0197 1.98233 21.0997C2.17542 21.1796 2.38238 21.2208 2.59137 21.2207H21.4086C21.6176 21.2208 21.8246 21.1796 22.0177 21.0997C22.2108 21.0197 22.3862 20.9025 22.534 20.7547C22.6818 20.6069 22.799 20.4315 22.879 20.2384C22.9589 20.0453 23 19.8384 23 19.6294V7.13743C23.0001 6.92847 22.959 6.72154 22.8791 6.52846C22.7992 6.33539 22.682 6.15995 22.5343 6.01217C22.3866 5.86439 22.2112 5.74718 22.0181 5.66722C21.8251 5.58726 21.6181 5.54613 21.4092 5.54617H21.4086ZM12 18.9532C10.9535 18.9532 9.93058 18.6429 9.06048 18.0615C8.19038 17.4801 7.51222 16.6538 7.11175 15.687C6.71129 14.7202 6.60651 13.6563 6.81067 12.63C7.01482 11.6036 7.51874 10.6608 8.2587 9.92089C8.99866 9.18093 9.94142 8.67701 10.9678 8.47285C11.9941 8.2687 13.058 8.37348 14.0248 8.77394C14.9916 9.17441 15.8179 9.85257 16.3993 10.7227C16.9807 11.5928 17.291 12.6157 17.291 13.6622C17.291 15.0654 16.7336 16.4112 15.7413 17.4035C14.749 18.3957 13.4033 18.9532 12 18.9532V18.9532Z"
          fill="white"/>
</svg>
