<svg xmlns="http://www.w3.org/2000/svg" viewBox="0 0 44 28.8"><path d="M37.4 0c.5.3.2.8.2 1.2l.8-.9c.3 0 0 1.3-.1 2s-.2.8.5 1.1 1.6.4 1.9.8.5 1.3.6 1.7S43.9 7.2 44 8s-1.7 1.6-2.6 1.7-2.2 0-3.1.8a11.3 11.3 0 0 0-2.3 2.6 16.6 16.6 0 0 1-1.5 3.3c-.5.8-1.9 1.2-2.3 2A8.8 8.8 0 0 0 32 20c-.1.7-.1 1.4-.2 2.2a22.6 22.6 0 0 0-.1 2.6c.1.5-.1 1.6.2 2s.8.6 1.2.9.8.7.4 1a4.1 4.1 0 0 1-1.9 0c-.4-.1-.6-.5-1-.6s-1.1.2-1.5 0a1.6 1.6 0 0 1-.9-1.1c-.1-.3-.1-.6-.2-.8s-.3-.1-.3-.3a11.2 11.2 0 0 1-.4-3.2c-.1-.5-.2-2.2-.7-2.6a5.7 5.7 0 0 0-1.3 0l-2.2-.2a26.9 26.9 0 0 0-4-.3 4.4 4.4 0 0 0-2.2 1.4l-2.4 2c-.2.2-1.1.7-1.2 1s.2 1.2.2 1.5a1.7 1.7 0 0 0 .7 1.3 2.7 2.7 0 0 1 .7 1.3 2.3 2.3 0 0 1-2.4-.5 4.4 4.4 0 0 1-.6-2.3c-.2-.8-.7-1.1-.7-1.9a3 3 0 0 1 1.2-1.9l-2.4 1a10.4 10.4 0 0 0-2.4 1.1c-1 .7-1.6 2.8-.8 3.7s.5.4.5.9 0 .4-.5.5-1.6 0-1.9-.8a7 7 0 0 1 0-2.5 8.2 8.2 0 0 1 .2-2.2c.3-.7 1.2-.8 1.8-1.2a8.6 8.6 0 0 0 1.3-1.4c-1 .6-2.5 1.9-3.7 2s-3.1-.8-4.5-1.5a9.5 9.5 0 0 0 2.4-.1 2.8 2.8 0 0 0 1.9-1.2c1.1-1.5 2-2.9 3-4.5a6 6 0 0 1 .9-1.5 13.5 13.5 0 0 1 2.2-1.4 29.9 29.9 0 0 1 3.8-1.5c1.3-.4 2.6-1 3.9-1.3l4.9-.7 5.9-.9a5 5 0 0 0 2.4-1.2l2.6-1.9a7.1 7.1 0 0 0 1.4-1 9.8 9.8 0 0 0 .8-1.8Z" style="fill-rule:evenodd"/></svg>
