<svg xmlns="http://www.w3.org/2000/svg" viewBox="0 0 26.73 36"><defs><style>.cls-1{fill:#1a2026;}</style></defs><g id="Layer_2" data-name="Layer 2"><g id="Layer_1-2" data-name="Layer 1"><path class="cls-1" d="M0,16.52c.22-.66,3.07-3.45,3.07-3.45A.36.36,0,0,1,3,13c-.69.12-1.25.15-1.19,0a1.93,1.93,0,0,1,.64-.47c-.62.05-.64-.18-.64-.18a4.59,4.59,0,0,1,1.26-.82c-.67.07-1.08,0-.78-.26a6,6,0,0,1,2.28-1c-.5-.06-.8-.14-.65-.29a9.87,9.87,0,0,1,2.93-.68c-.68-.13-1-.3-.54-.51.8-.34,5.27-.23,6.7,0C13,8.36,14.42,7,14.82,7c2.76-.37,3.59.82,3.59.82s-.34.42-.22.28c1.11-1.22-.62-1.35-.76-4.44S20.19,0,21.22,0a4,4,0,0,1,1.91.74,2.33,2.33,0,0,1,.86.4h0a4.28,4.28,0,0,1,2,.45,1.62,1.62,0,0,1,.53,2.14,1.52,1.52,0,0,0,0-.36,3.92,3.92,0,0,1-.84-.08,4.12,4.12,0,0,0-1-.13A3.61,3.61,0,0,1,24,3.09a11,11,0,0,1-1.28.29c-.91.17-1.82.14-1.65,1.06s1,2,.64,3.63a3.36,3.36,0,0,1-1.45,2.32c.55,1.27,2.12,5.14.86,5.35,0,0,.13,3.23-1,3.45,0,0-.76,2.41-1.64,1.93a6,6,0,0,1-.86.73c-.59,1.51-2.33,5.72-3.65,6.46A3.21,3.21,0,0,0,14.5,30l.22.18a4.7,4.7,0,0,0,.88-.11,1.4,1.4,0,0,1,.85.08.78.78,0,0,1,1.05.29.78.78,0,0,0-.81,0,.5.5,0,0,1,0,.16c.43,0,.73.09.85.33l0,.05c.4,0,1.14,0,1,.78,0,0-.09-.3-.81-.33.06.22,0,.38-.47.25-.82-.22-1.18-.49-1.76-.42a3.68,3.68,0,0,1-1.24-.11l-.18,0a.74.74,0,0,1,.23.26.78.78,0,0,0-.81,0,.5.5,0,0,1,0,.16c.43,0,.73.1.85.33l0,.05c.4,0,1.14.05,1,.78,0,0-.09-.29-.81-.32.06.22,0,.37-.47.25-.82-.22-1.18-.49-1.76-.43a2.43,2.43,0,0,1-.93-.06h0l-.29-.05c-.57-.08-.94,0-1.15.32s-1,.8-1.16.48a.35.35,0,0,1-.05-.18,1.22,1.22,0,0,0-.49.4h0c0-.65.31-.87.59-.94a1.3,1.3,0,0,1,.4-.48h0a.75.75,0,0,1,0-.42l-.18-.05a.57.57,0,0,0-.67.22c0-.33.14-.71.69-.69a.48.48,0,0,1,.44.18,1,1,0,0,1,.29-.08c0-.05,0-.11,0-.17l-.18-1a2,2,0,0,1-1.77.87c-.39,1.07-1.44,3.54-2.72,4.06-.45.19-.63.13-.66-.06C4,35.29,3.21,36.13,2.78,36s-.19-.66,0-1.3c-.33.25-.71.47-1,.39s-.22-.57-.08-1.17a.53.53,0,0,1-.45-.27c-.52-.71,0-2.83.39-4.43a2,2,0,0,1-.28-.94c-.21-.19-.46-.8-.23-2.68-.78.43.13-2.36.61-3.73-.44.23-.79.33-.7.13a10.3,10.3,0,0,0,.4-1.32c-.64.53-.94.86-.84.51a5.38,5.38,0,0,1,.53-1.05c-.59.25-1,.23-.75-.4a5.61,5.61,0,0,1,.62-1.16C.37,19,.39,18.57.6,18c-.26.19-.44.23-.42,0a7.37,7.37,0,0,1,.76-1.83C.35,16.57-.1,16.88,0,16.52ZM24.22,2.21h0ZM11.35,31l.22.17.53,0a1.1,1.1,0,0,1,.33-.35l0,0a.72.72,0,0,1,0-.41l-.18-.06a.57.57,0,0,0-.67.22c0-.33.14-.7.69-.69.26,0,.38.09.44.19a.74.74,0,0,1,.29-.08c0-.06,0-.11,0-.17s-.07-.38-.12-.63c-.31.26-.74.45-1.11,0a3.6,3.6,0,0,1-.9.79A2.06,2.06,0,0,0,11.35,31Z"/></g></g></svg>