<svg xmlns="http://www.w3.org/2000/svg" viewBox="0 0 26.73 36"><defs><style>.cls-1{fill:#1a2026;}</style></defs><g id="Layer_2" data-name="Layer 2"><g id="Layer_1-2" data-name="Layer 1"><path class="cls-1" d="M26.71,16.52c-.22-.66-3.07-3.45-3.07-3.45a.36.36,0,0,0,.07-.1c.69.12,1.25.15,1.19,0a1.93,1.93,0,0,0-.64-.47c.63.05.64-.18.64-.18a4.43,4.43,0,0,0-1.26-.82c.67.07,1.08,0,.78-.26a6,6,0,0,0-2.28-1c.5-.06.8-.14.65-.29a9.87,9.87,0,0,0-2.93-.68c.68-.13,1.05-.3.54-.51-.8-.34-5.27-.23-6.7,0C13.75,8.36,12.31,7,11.91,7c-2.76-.37-3.58.82-3.58.82s.33.42.21.28c-1.11-1.22.63-1.35.77-4.44S6.54,0,5.52,0A4,4,0,0,0,3.6.74a2.24,2.24,0,0,0-.85.4h0a4.24,4.24,0,0,0-2,.45A1.6,1.6,0,0,0,.22,3.74a1.52,1.52,0,0,1,0-.36,3.85,3.85,0,0,0,.83-.08,4.14,4.14,0,0,1,1-.13,3.84,3.84,0,0,0,.65-.08A10.3,10.3,0,0,0,4,3.38c.92.17,1.82.14,1.65,1.06s-1,2-.64,3.63a3.43,3.43,0,0,0,1.45,2.32c-.55,1.27-2.12,5.14-.86,5.35,0,0-.13,3.23,1,3.45,0,0,.76,2.41,1.64,1.93a6,6,0,0,0,.86.73c.59,1.51,2.33,5.72,3.65,6.46A3.12,3.12,0,0,1,12.23,30L12,30.2a4.7,4.7,0,0,1-.88-.11,1.4,1.4,0,0,0-.85.08.78.78,0,0,0-1,.29.8.8,0,0,1,.82,0,.31.31,0,0,0,0,.16c-.43,0-.72.09-.85.33l0,.05c-.4,0-1.13,0-1,.78,0,0,.09-.3.82-.33-.07.22,0,.38.46.25.82-.22,1.18-.49,1.77-.42a3.71,3.71,0,0,0,1.24-.11l.17,0a.85.85,0,0,0-.23.26.8.8,0,0,1,.82,0,.31.31,0,0,0,0,.16c-.43,0-.72.1-.85.33l0,.05c-.4,0-1.14.05-1,.78,0,0,.09-.29.82-.32-.07.22,0,.37.46.25.82-.22,1.18-.49,1.76-.43a2.42,2.42,0,0,0,.93-.06h0l.3-.05c.56-.08.94,0,1.14.32s1,.8,1.16.48a.35.35,0,0,0,.05-.18,1.16,1.16,0,0,1,.49.4h0c0-.65-.31-.87-.59-.94a1.22,1.22,0,0,0-.4-.48h0a.67.67,0,0,0,0-.42l.18-.05a.58.58,0,0,1,.68.22c0-.33-.15-.71-.7-.69a.48.48,0,0,0-.44.18,1,1,0,0,0-.29-.08,1.11,1.11,0,0,1,0-.17c0-.22.1-.6.17-1a2,2,0,0,0,1.77.87c.39,1.07,1.44,3.54,2.72,4.06.45.19.64.13.66-.06.57.72,1.33,1.56,1.76,1.41s.19-.66,0-1.3c.32.25.7.47,1,.39s.22-.57.08-1.17a.53.53,0,0,0,.45-.27c.52-.71,0-2.83-.39-4.43a1.87,1.87,0,0,0,.28-.94c.21-.19.46-.8.23-2.68.78.43-.13-2.36-.61-3.73.44.23.8.33.7.13a12.21,12.21,0,0,1-.4-1.32c.64.53.94.86.84.51a5.38,5.38,0,0,0-.53-1.05c.59.25,1,.23.75-.4a5.61,5.61,0,0,0-.62-1.16c.69.43.67,0,.45-.55.26.19.44.23.43,0a7.94,7.94,0,0,0-.77-1.83C26.38,16.57,26.83,16.88,26.71,16.52ZM2.51,2.21h0ZM15.38,31l-.22.17-.53,0a1.1,1.1,0,0,0-.33-.35l0,0a.64.64,0,0,0,0-.41l.18-.06a.58.58,0,0,1,.68.22c0-.33-.15-.7-.7-.69-.26,0-.38.09-.44.19a.74.74,0,0,0-.29-.08,1,1,0,0,1,0-.17c0-.15.06-.38.11-.63.32.26.74.45,1.11,0a3.48,3.48,0,0,0,.91.79A2.14,2.14,0,0,1,15.38,31Z"/></g></g></svg>