<svg xmlns="http://www.w3.org/2000/svg" viewBox="0 0 40 16.7"><defs><style>.a{fill:#1a2026;}</style></defs><path class="a" d="M0,12.1c0,2.3,1.1,2.7,2.8,2.7H5.4V14A4.1,4.1,0,0,1,9.5,9.9,4.1,4.1,0,0,1,13.6,14a1.9,1.9,0,0,1-.1.8H25.3a1.9,1.9,0,0,1-.1-.8,4.1,4.1,0,1,1,8.2,0,1.9,1.9,0,0,1-.1.8h4.1A2.4,2.4,0,0,0,40,12.2v-5c0-.6-.2-1-1-1.3s-1.9-.8-2.9-1.3a9.2,9.2,0,0,1-1.5-1.1C32,1.2,30.6,0,26.5,0H19a11.1,11.1,0,0,0-6,1.4C11.9,2,10,3.5,7.9,5S4.1,6.8,2,8,0,9.6,0,12.1ZM22.6,6.3l.2-4.5h3.7C29,1.8,30,2.5,32,4s.6.5.6.8v1c0,.3-.1.5-.4.5ZM10.2,5.7,14,2.9a5.9,5.9,0,0,1,3.8-1.1h3l-.2,4.5H10.5C10,6.3,10,5.9,10.2,5.7Z"/><path class="a" d="M9.5,11.2A2.8,2.8,0,1,0,12.3,14,2.8,2.8,0,0,0,9.5,11.2Zm0,4.1A1.4,1.4,0,0,1,8.1,14a1.4,1.4,0,0,1,1.4-1.4A1.4,1.4,0,0,1,10.9,14,1.3,1.3,0,0,1,9.5,15.3Z"/><path class="a" d="M29.3,11.2a2.8,2.8,0,1,0,0,5.5,2.8,2.8,0,1,0,0-5.5Zm0,4.1A1.3,1.3,0,0,1,28,14a1.3,1.3,0,0,1,1.3-1.4A1.4,1.4,0,0,1,30.7,14,1.3,1.3,0,0,1,29.3,15.3Z"/></svg>