<svg xmlns="http://www.w3.org/2000/svg" viewBox="0 0 44 36.06"><g id="Layer_2" data-name="Layer 2"><g id="Layer_1-2" data-name="Layer 1"><path d="M21,14.44s7-1.41,11.2-.74c2.78,1,4-.89,4-.89s3.89-4,1.89-8.93a2.29,2.29,0,0,0-3.82-.63s-.78.48-1,0S33.08,1.1,36.12.13s6.56,3.41,5.23,9.16c-1.41,5-3.15,6.12-3.15,6.12s-1.11,1.18.29,3.67a6.09,6.09,0,0,1,.45,2.37,4.14,4.14,0,0,0,1,3.08c1.26,1.37,1.93,1.48,2.81,4.15s1.6,4.45,1,5.12-1.37,1.14-1.67-.6-.67-4.26-2.74-5-2.67-.44-4.16-1.15c-.81-.18,0,1.52,0,1.52s1.82,2.82-2.22,6.16c-2.45,2.4-4,.92-4,.92s-.78-1.07,1.59-1.22a4.23,4.23,0,0,0,1.78-1.89s.59-.82-.67-2.08a8.13,8.13,0,0,1-2-3.11c-.29-.82-1-1-1.92-.78s-3.75-.82-5-.52a20.68,20.68,0,0,0-2.49.82,20.68,20.68,0,0,0,1,4.82c.39,1.35.78,4-1,3.85s-1.9-.55-1.89-.78a1,1,0,0,1,1.15-.85c.93.11-2.37-5.56-2.37-5.56s-1.63-2.56-5.08-.67a10.41,10.41,0,0,0-1.81,2c-.3.29-6,4.82-6,4.82s-.85,1-3.3.85C-.18,35.2,0,34.69,0,34.69s0-.86,1.75-.82S6.5,28.42,7,27.34s1-7-1-8.6c-1.53-.92-2.3-.71-2.3-.71S2.53,18.41,2,16.85s-.15-1.48.33-1.92a8.34,8.34,0,0,0,1.11-1.71,3.4,3.4,0,0,1,1.85-1.07,4.94,4.94,0,0,0-.22-2l.48.15.12-.59S7.87,12,8.17,12.26s1.11-.19,4.37,2.74c1,.82,2.64.44,2.93.52S21,14.44,21,14.44Z"/></g></g></svg>
