<svg xmlns="http://www.w3.org/2000/svg" viewBox="0 0 44 36.06"><g id="Layer_2" data-name="Layer 2"><g id="Layer_1-2" data-name="Layer 1"><path d="M23,14.44S16,13,11.77,13.7c-2.78,1-4-.89-4-.89s-3.89-4-1.89-8.93a2.29,2.29,0,0,1,3.82-.63s.78.48,1,0S10.92,1.1,7.88.13,1.32,3.54,2.65,9.29c1.41,5,3.15,6.12,3.15,6.12s1.11,1.18-.29,3.67a6.09,6.09,0,0,0-.45,2.37,4.14,4.14,0,0,1-1,3.08C2.76,25.9,2.09,26,1.21,28.68s-1.6,4.45-1,5.12,1.37,1.14,1.67-.6.67-4.26,2.74-5S7.32,27.72,8.81,27c.81-.18,0,1.52,0,1.52S7,31.35,11,34.69c2.45,2.4,4,.92,4,.92s.78-1.07-1.59-1.22a4.23,4.23,0,0,1-1.78-1.89s-.59-.82.67-2.08a8.13,8.13,0,0,0,2-3.11c.29-.82,1-1,1.92-.78s3.75-.82,5-.52a20.68,20.68,0,0,1,2.49.82,20.68,20.68,0,0,1-1,4.82c-.39,1.35-.78,4,1,3.85s1.9-.55,1.89-.78a1,1,0,0,0-1.15-.85c-.93.11,2.37-5.56,2.37-5.56s1.63-2.56,5.08-.67a10.41,10.41,0,0,1,1.81,2c.3.29,6,4.82,6,4.82s.85,1,3.3.85c1.12-.15.93-.66.93-.66s0-.86-1.75-.82-4.74-5.45-5.19-6.53-1-7,1-8.6c1.53-.92,2.3-.71,2.3-.71s1.15.38,1.66-1.18.15-1.48-.33-1.92a8.34,8.34,0,0,1-1.11-1.71,3.4,3.4,0,0,0-1.85-1.07,4.94,4.94,0,0,1,.22-2l-.48.15-.12-.59S36.13,12,35.83,12.26s-1.11-.19-4.37,2.74c-1,.82-2.64.44-2.93.52S23,14.44,23,14.44Z"/></g></g></svg>
