<svg xmlns="http://www.w3.org/2000/svg" viewBox="0 0 34 39.73"><defs><style>.cls-1{fill:#1a2026;}</style></defs><g id="Layer_2" data-name="Layer 2"><g id="Layer_1-2" data-name="Layer 1"><path class="cls-1" d="M33.92,29.46a1.62,1.62,0,0,0-.61-.58,6.48,6.48,0,0,1-1.86-3,6.46,6.46,0,0,1-.6-2.68,9.51,9.51,0,0,1,.35-1.65,9.87,9.87,0,0,0,.26-3l.2.52a3.92,3.92,0,0,0-.13-2.28,2.29,2.29,0,0,0-1.79-1.31,10.32,10.32,0,0,1-2.4-1h0a8.25,8.25,0,0,0-2.69-.92c-1.82-.23-3.61.49-5.44.55-2.2.08-4.45-.78-6.56-.17a2.53,2.53,0,0,1-1.81-.85,5.32,5.32,0,0,1-.72-1.19c-.49-1-1-2.07-1.41-3.14-.16-.41-.32-.83-.51-1.23a3.37,3.37,0,0,0-.32-.87,2.9,2.9,0,0,0-.81-.93,2.34,2.34,0,0,0-.16-1.35A3.52,3.52,0,0,0,6,2.93c-.17-.16-.37-.29-.53-.45-.34-.31-.59-.75-1-.9v1C4.27,2.32,4,2,3.67,1.91a9,9,0,0,1,.25,1.87,3.69,3.69,0,0,0,.17,1.37,1.45,1.45,0,0,0,.2.34,2.26,2.26,0,0,0-.35.17A5.35,5.35,0,0,1,3,4a4.38,4.38,0,0,1-.29-2.52A2.22,2.22,0,0,1,3.33.4a.76.76,0,0,1,1,.27A.88.88,0,0,0,3.22,0a1.24,1.24,0,0,0-.57.32,2.38,2.38,0,0,0-.58,1.29A5.69,5.69,0,0,0,3,5.81a13.25,13.25,0,0,1-1.46-2.4A6.87,6.87,0,0,1,1.1,1.58c0-.28,0-.8.49-.91a1.24,1.24,0,0,1,.68.09A1.21,1.21,0,0,0,1.56.4.89.89,0,0,0,.83.66c-.94,1,.78,5,1.92,6.1a3.81,3.81,0,0,0-.33.55,5.52,5.52,0,0,1-.84,1.48C1.13,9.24.42,9.45.12,10a1.17,1.17,0,0,0,.14,1.24,1.15,1.15,0,0,0,1.2.34c.14,0,.27-.11.41-.16a4.71,4.71,0,0,1,1.19-.09c.47,0,.92-.23,1.39-.31l.12,0,.1.17a3.37,3.37,0,0,1,.25,1c.19,1.12.57,2.09.81,3.19a7.88,7.88,0,0,0,.81,2.41c.28.48.76.84,1,1.33a5.72,5.72,0,0,1,.37,1.15,3.73,3.73,0,0,0,.2.56,5.36,5.36,0,0,0,.15.78,3.82,3.82,0,0,0,1.31,2.09,4.15,4.15,0,0,0,2.09.74,1.31,1.31,0,0,1,.48.59,2,2,0,0,1,.07.55l0,3a4.39,4.39,0,0,1,0,.89A12.7,12.7,0,0,0,12,30.92c0,.64.06,1.27.13,1.91v.1c0,.82-.06,1.64-.1,2.46a2.91,2.91,0,0,1-.08.66,3,3,0,0,1-.32.64,4.45,4.45,0,0,0-.79,2.3.33.33,0,0,0,0,.17c.06.11.21.13.34.14a3.61,3.61,0,0,0,.73-.07.54.54,0,0,0,.22-.09.48.48,0,0,0,.12-.21,2.62,2.62,0,0,1,.36-.8c.23-.32.56-.55.66-.93a.53.53,0,0,1,.08.27,1.56,1.56,0,0,0,.22-1.15,27.43,27.43,0,0,1,.1-4,10,10,0,0,0,.47-1.62,7.31,7.31,0,0,0,.11-1.33,4.39,4.39,0,0,1,0-.89,2.36,2.36,0,0,1,.28-.74,6.84,6.84,0,0,1,.09.91c0,.43,0,.86.06,1.28a15.33,15.33,0,0,0,.63,2.2,16.39,16.39,0,0,1,.47,4.3c0,.79.09,1.39.14,2.17.44.05,1,0,1.12-.48a1.92,1.92,0,0,0,0-1.08.68.68,0,0,1,.24-.6l.09.27a3.65,3.65,0,0,0-.15-2.3,17.73,17.73,0,0,1-.52-2.57c-.07-.64,0-1.28-.09-1.91,0-.31-.12-.61-.18-.92a8.78,8.78,0,0,1-.13-1.45,3.44,3.44,0,0,1,.18-1.39c.14-.35.37-.65.52-1a2.6,2.6,0,0,0,.17-.54l.13,0c.62.11,1.23.28,1.86.33a8.15,8.15,0,0,0,2.89-.4l.48-.15a5.22,5.22,0,0,0,.18.56,18.72,18.72,0,0,0,1.43,3.12,8.92,8.92,0,0,1,.59,1.15,6.62,6.62,0,0,1-.29,4.11A7.66,7.66,0,0,1,22.81,37c-.32.3-.69.55-1,.86a2.35,2.35,0,0,0-.72,1.43,1.6,1.6,0,0,0,1.45.21c.5-.13.43-.62,1.08-1.11l0,.29c.47-.39,1-.42,1.25-.87a8.86,8.86,0,0,0,.57-1.48,15.25,15.25,0,0,1,.83-1.79q.78-1.53,1.44-3.12a1.08,1.08,0,0,0,.11-.8,1.36,1.36,0,0,0-.24-.35A4.09,4.09,0,0,1,27,28q-.06-.79-.09-1.59a6.2,6.2,0,0,1,.05-1.22,3.51,3.51,0,0,1,.27-.85,10,10,0,0,0,.6,1.06c1.09,1.64,2.71,2.92,3.53,4.71a11.15,11.15,0,0,1,.8,4.05,7.76,7.76,0,0,1,0,1.67A9.22,9.22,0,0,1,31.85,37c-.15.51-.46,1-.62,1.47s-.13.72-.26,1.12a3.22,3.22,0,0,0,1.74,0,4.36,4.36,0,0,0,.7-1.77c.23,0,.34-.27.35-.5L34,30.06A1.37,1.37,0,0,0,33.92,29.46Z"/></g></g></svg>