<svg xmlns="http://www.w3.org/2000/svg" viewBox="0 0 61 35.22"><defs><style>.a{opacity:0.8;}.b,.c{fill:#fff;}.b,.d{fill-rule:evenodd;}.d{fill:#1a2026;}</style></defs><title>Asset 253</title><g class="a"><path class="b" d="M14.67,33.72a2.45,2.45,0,0,1-.58-.07h-.25a2.79,2.79,0,0,1-.72-.09H13a2.16,2.16,0,0,1-1.69-.72,2,2,0,0,1-.45-1.45H10.6a1.94,1.94,0,0,1-2-2.36,2.56,2.56,0,0,1,.82-1.46,3.24,3.24,0,0,1,1.65-.76l.18,0a1.45,1.45,0,0,0,.19-.35,6.34,6.34,0,0,0,.1-1.26v-.12a22.84,22.84,0,0,0,0-2.49,8.41,8.41,0,0,0-.17-1c-.06-.29-.12-.58-.17-.88S11,20,11,19.91l-.22-.23a4.67,4.67,0,0,1-.72-.85,5.43,5.43,0,0,1-.53-1.22l-.1-.3-.16-.4a10,10,0,0,1-.49-1.46,4.29,4.29,0,0,1-.09-1,2.38,2.38,0,0,0,0-.33,1.47,1.47,0,0,0-.21-.43,19.62,19.62,0,0,0-1.29-1.75L7,11.71a2.16,2.16,0,0,0-.4.1c-.29.11-.67.22-1,.3a2.27,2.27,0,0,1-.59.07,2.62,2.62,0,0,1-1-.19A2.42,2.42,0,0,1,3,11.05l-.07-.12-.17-.13a3.26,3.26,0,0,1-.56-.66,3.94,3.94,0,0,1-.59-1.36,2.47,2.47,0,0,1,.14-1.7,3.13,3.13,0,0,1,.76-.92L2.64,6h0a2.78,2.78,0,0,1,.17-.95A3.74,3.74,0,0,1,3.6,3.91a4.79,4.79,0,0,1,.81-.66A1.6,1.6,0,0,1,6,1.76a2.78,2.78,0,0,1,1.27.36l.15.08h.06c.38,0,.72-.06,1.07-.06a5.83,5.83,0,0,1,.66,0l.16-.11a2.68,2.68,0,0,1,.74-.37,2.82,2.82,0,0,1,1-.2,1.72,1.72,0,0,1,1.16.42,2.26,2.26,0,0,1,.67,1.81,11.63,11.63,0,0,1,1.26.81,5.57,5.57,0,0,1,.7.69,2.54,2.54,0,0,0,.35.35,2.67,2.67,0,0,0,.57.16,6,6,0,0,1,1,.28,6.79,6.79,0,0,1,1.41.78l.28.21a2.75,2.75,0,0,0,.72.44,7.36,7.36,0,0,0,2,.32h.13c1.51,0,2.8-.07,4.19-.2s3-.32,4.57-.55c.53-.08,1.06-.18,1.59-.29a21.85,21.85,0,0,1,2.66-.41q.5,0,1,0a13.76,13.76,0,0,1,2.39.21,13.08,13.08,0,0,1,6.16,2.7A16.17,16.17,0,0,1,45.56,11c.37.42.71.82,1.08,1.18l.63.63a8.18,8.18,0,0,0,1.8,1.53,6.39,6.39,0,0,0,2.71.69h.16a3.38,3.38,0,0,0,1.64-.41,2.32,2.32,0,0,0,.89-1,2.27,2.27,0,0,0,.11-1.24,1.25,1.25,0,0,0-.32-.7.31.31,0,0,0-.18-.09.21.21,0,0,0-.13.06l-.07.17c-.23.54-.76,1.81-2.11,1.81h0a2.29,2.29,0,0,1-1.67-.82,3.14,3.14,0,0,1-.75-2.35A4.22,4.22,0,0,1,53.15,6.3a4.58,4.58,0,0,1,.75-.06A5.67,5.67,0,0,1,59,10.15a6.93,6.93,0,0,1,.19,4.37,7,7,0,0,1-2.42,3.58,7.53,7.53,0,0,1-3.64,1.71,9.5,9.5,0,0,1-1.52.12,11.18,11.18,0,0,1-3-.42,13.31,13.31,0,0,1-3.44-1.67c.14.32.3.65.47,1l.12.25a7.52,7.52,0,0,0,1.8,2.44l.55.57A2.83,2.83,0,0,1,49,23.7a7.41,7.41,0,0,1-.1,2.12,14.78,14.78,0,0,1-.35,1.48c-.09.31-.17.63-.24.95a5.88,5.88,0,0,0-.08.62,6,6,0,0,1-.3,1.57,2.38,2.38,0,0,1-.82,1.05h0a2.8,2.8,0,0,1-1.87,1.89,3,3,0,0,1-.88.12h-.56l-.46,0-.54,0a4.35,4.35,0,0,1-.65,0,2,2,0,0,1-1.7-1.26,2.54,2.54,0,0,1,.21-2.07,3.06,3.06,0,0,1,2.13-1.43A9.3,9.3,0,0,0,42.85,27a2.61,2.61,0,0,0-.16-.87,2.67,2.67,0,0,0-.41-.42l-.22-.2c-.64-.6-1.31-1.18-2-1.75l-.54-.46c0,.17,0,.35,0,.53s.22,1.1.3,1.49A2.56,2.56,0,0,1,40,26.64a5.06,5.06,0,0,1-1.17,2l-.14.17a9.89,9.89,0,0,1-1.09,1.08l-.44.41-.49.48c-.35.35-.7.69-1.07,1l-.22.18-.11.1a2.82,2.82,0,0,0-.27.4,2.21,2.21,0,0,1-2.1,1.15l-.34,0a8.32,8.32,0,0,1-1,.07H31a2.69,2.69,0,0,1-1.33-.32,2.24,2.24,0,0,1-1.36-1.81,2.54,2.54,0,0,1,1.16-2.23A2.75,2.75,0,0,1,31,28.85h.13l.34,0c.14-.13.3-.34.42-.47a13.21,13.21,0,0,0,1.4-2.06l.19-.35a5.64,5.64,0,0,0-.46-.82,8.16,8.16,0,0,1-.72-1.31l-.21-.51c-.27-.65-.53-1.28-.77-2a5.16,5.16,0,0,1-2.94.86c-1,.05-2,.07-3,.09l-1.82,0-2.54.1h-.14l-.12.55c-.1.46-.21.92-.29,1.39s-.1.69-.13,1-.11,1-.2,1.45-.28,1.2-.44,1.76l-.14.5-.05.2a3.89,3.89,0,0,1-.4,1.08,1.59,1.59,0,0,1-.36.43A2.5,2.5,0,0,1,18,32.43c-.09.08-.35.25-.59.41l-.31.21a3.06,3.06,0,0,1-1.28.5l-.2,0A3.47,3.47,0,0,1,14.67,33.72Z"/><path class="c" d="M11,3a.25.25,0,0,1,.17.05c.17.15.16.51.16.74s0,.51,0,.77c.5.33,1.39.79,1.86,1.16s.75.89,1.24,1.17a13.64,13.64,0,0,0,1.75.53,5.34,5.34,0,0,1,1.1.61,4.68,4.68,0,0,0,1.51.88,8.79,8.79,0,0,0,2.34.36h.15c1.49,0,2.83-.07,4.31-.21s3.1-.34,4.64-.56c1.39-.2,2.75-.59,4.15-.69q.45,0,.9,0A12.28,12.28,0,0,1,37.43,8a11.51,11.51,0,0,1,5.45,2.36c1,.86,1.77,2,2.72,2.89a13.39,13.39,0,0,0,2.76,2.4,7.92,7.92,0,0,0,3.35.87h.23a4.9,4.9,0,0,0,2.38-.6,3.81,3.81,0,0,0,1.52-1.73,3.75,3.75,0,0,0,.23-2.1,2.72,2.72,0,0,0-.8-1.59A1.77,1.77,0,0,0,54.08,10a1.74,1.74,0,0,0-1.32.64c-.27.31-.46,1.4-1,1.4a.87.87,0,0,1-.58-.35,1.71,1.71,0,0,1-.35-1.24A2.73,2.73,0,0,1,53.4,7.78a3.08,3.08,0,0,1,.5,0,4.19,4.19,0,0,1,3.73,2.9,5.51,5.51,0,0,1,.15,3.52A5.72,5.72,0,0,1,55.84,17a6,6,0,0,1-2.9,1.36,7.93,7.93,0,0,1-1.28.1,9.75,9.75,0,0,1-2.58-.36,14.2,14.2,0,0,1-3.49-1.77c-.92-.56-1.72-1.29-2.59-1.93a23.09,23.09,0,0,0,.41,2.85,14.89,14.89,0,0,0,1.06,2.52,10.74,10.74,0,0,0,2.62,3.39,1.36,1.36,0,0,1,.39.75,6.1,6.1,0,0,1-.1,1.7c-.13.8-.41,1.57-.57,2.37a13.44,13.44,0,0,1-.32,2c-.11.3-.48.43-.66.7s-.19.61-.39.86a1.36,1.36,0,0,1-.66.48,1.61,1.61,0,0,1-.46.06l-.56,0h-.09c-.3,0-.6,0-.9,0a2.8,2.8,0,0,1-.43,0c-.2,0-.45-.1-.52-.29a1.05,1.05,0,0,1,.11-.83,1.58,1.58,0,0,1,1.22-.69h.06a2.32,2.32,0,0,1,.61.23,11,11,0,0,0,.4-1.41,10.77,10.77,0,0,0,.1-2.13A3.74,3.74,0,0,0,44,25.41a4.07,4.07,0,0,0-.94-1c-.77-.73-1.59-1.42-2.4-2.12S39.24,21,38.51,20.43A13.24,13.24,0,0,0,38,23.78c0,.45.49,2.41.48,2.48a4.38,4.38,0,0,1-1,1.59,17.23,17.23,0,0,1-1.42,1.36c-.5.48-1,1-1.51,1.45a3.28,3.28,0,0,0-.52.48c-.7.89-.24.88-1.33,1-.43,0-.77.1-1.18.1H31a1.23,1.23,0,0,1-.65-.17c-1-.48-.43-1.15,0-1.5a1.38,1.38,0,0,1,.71-.2h0c.22,0,.35.09.52.09a.53.53,0,0,0,.2,0,3.36,3.36,0,0,0,1.23-1.09,14.55,14.55,0,0,0,1.53-2.25A1.89,1.89,0,0,0,35,25.8a19.56,19.56,0,0,0-1.31-2.51c-.39-1-.7-1.66-1-2.64-.18-.58-.27-1.47-.44-2-.44.38-.87.77-1.32,1.13a3.71,3.71,0,0,1-2.63.94c-1.58.09-3.17.07-4.75.12l-3.86.15-.19.92c-.16.74-.34,1.48-.47,2.22s-.17,1.65-.33,2.46-.36,1.43-.56,2.15a3.68,3.68,0,0,1-.31.94c-.05.09-.27.08-.32.17-.24.4-.16,1.18-.5,1.45-.14.11-.69.46-.86.58a3.12,3.12,0,0,1-1,.32,2,2,0,0,1-.5.07.54.54,0,0,1-.4-.12,1.48,1.48,0,0,1-.43.06,1.21,1.21,0,0,1-.43-.07.49.49,0,0,1-.13,0,1.73,1.73,0,0,1-.32,0c-.37,0-.72-.14-.64-.63a1.07,1.07,0,0,1,.34-.6,4.68,4.68,0,0,1,1.45-.72c.18-.09.43-.12.55-.29a2.77,2.77,0,0,0,.48-.89,5.72,5.72,0,0,0,.16-1.33,8.26,8.26,0,0,0-.35,1.09,1.21,1.21,0,0,1-.13.4c-.08.09-.22.09-.32.15a4.76,4.76,0,0,1-.54.43,6.51,6.51,0,0,1-1,.32,2.12,2.12,0,0,1-.52.07A.5.5,0,0,1,12,30a1.34,1.34,0,0,1-.39.06,1,1,0,0,1-.61-.18,2.38,2.38,0,0,1-.44.05c-.33,0-.6-.12-.52-.61a1.07,1.07,0,0,1,.34-.6c.51-.46,1-.33,1.56-.58a2.38,2.38,0,0,0,.91-1.32A8.08,8.08,0,0,0,13,25.1,24.27,24.27,0,0,0,13,22.45c-.06-.66-.25-1.31-.35-2a7,7,0,0,0-.26-1.25c-.27-.45-.75-.75-1-1.19a6.62,6.62,0,0,1-.5-1.25,13.46,13.46,0,0,1-.58-1.68c-.1-.43,0-.9-.1-1.33a2.89,2.89,0,0,0-.41-.9A21.13,21.13,0,0,0,8.37,11c-.24-.3-.22-.39-.56-.58a1.25,1.25,0,0,0-.68-.22H7a3.52,3.52,0,0,0-.91.21c-.25.09-.57.18-.83.25l-.2,0a1.14,1.14,0,0,1-.4-.06.94.94,0,0,1-.43-.35c-.08-.12,0-.29-.05-.43s-.37-.07-.47-.16a2.14,2.14,0,0,1-.35-.44,2.37,2.37,0,0,1-.32-.79,1,1,0,0,1,0-.68c.17-.33.53-.52.76-.82a1.75,1.75,0,0,0,.29-.55c.07-.25,0-.53.11-.77a2.29,2.29,0,0,1,.48-.7,4.28,4.28,0,0,1,.69-.54c.15-.1.31-.18.47-.27a4.21,4.21,0,0,1,0-.49c0-.09,0-.38.13-.38H6a1.51,1.51,0,0,1,.63.22,4.75,4.75,0,0,1,.4.26c.59,0,1-.11,1.52-.11a4.28,4.28,0,0,1,1.12.14A2.32,2.32,0,0,1,10,3.42a2.14,2.14,0,0,1,.55-.31A1.62,1.62,0,0,1,11,3m0-3A4.18,4.18,0,0,0,9.64.27a4.35,4.35,0,0,0-.84.38H8.54c-.3,0-.57,0-.83,0A4,4,0,0,0,6.05.27H6A3.09,3.09,0,0,0,3.1,2.34a5.32,5.32,0,0,0-.59.54A5.2,5.2,0,0,0,1.43,4.53a3.78,3.78,0,0,0-.22.78A4.26,4.26,0,0,0,.4,6.4,3.89,3.89,0,0,0,.13,9.14,5.26,5.26,0,0,0,.91,11a4.78,4.78,0,0,0,.83,1h0a3.91,3.91,0,0,0,1.71,1.42,4.07,4.07,0,0,0,1.6.31,3.78,3.78,0,0,0,1-.12l.43-.12c.28.37.53.71.74,1a5.63,5.63,0,0,0,.12,1.29,11.29,11.29,0,0,0,.55,1.68l.15.38.09.25a6.84,6.84,0,0,0,.68,1.54,5.69,5.69,0,0,0,.82,1l0,.23v.07c0,.33.12.65.18,1a7.59,7.59,0,0,1,.14.8A21.32,21.32,0,0,1,10,25v.13c0,.13,0,.26,0,.39a4.46,4.46,0,0,0-1.61.92,4.06,4.06,0,0,0-1.3,2.33,3.49,3.49,0,0,0,.74,2.89A3.37,3.37,0,0,0,9.5,32.76a3.4,3.4,0,0,0,.61,1.07A3.64,3.64,0,0,0,13,35.08h0a4.39,4.39,0,0,0,.87.08H14a4,4,0,0,0,.69.06A5,5,0,0,0,16,35h.08A4.5,4.5,0,0,0,18,34.26l.25-.17c.32-.21.53-.35.7-.49a3.73,3.73,0,0,0,1.27-2.06,3.09,3.09,0,0,0,.28-.41A5.35,5.35,0,0,0,21,29.66l0-.16.14-.48c.16-.57.35-1.21.48-1.9s.17-1.1.22-1.57.07-.67.12-1,.09-.49.14-.74l1.51-.05,1.8,0c1,0,2,0,3-.09a8.56,8.56,0,0,0,2-.3l.23.56.21.5A9.42,9.42,0,0,0,31.79,26h0a11.57,11.57,0,0,1-1,1.37,4.26,4.26,0,0,0-2.23.8,4,4,0,0,0-1.75,3.57,3.76,3.76,0,0,0,2.18,3,4.2,4.2,0,0,0,2,.48h.51a9.66,9.66,0,0,0,1.15-.08l.31,0a3.66,3.66,0,0,0,3.27-1.9l.07-.11.21-.18c.42-.37.79-.73,1.14-1.09l.47-.46.4-.37.29-.26a3.86,3.86,0,0,0,.17,2A3.47,3.47,0,0,0,41.9,35a5.75,5.75,0,0,0,.88.06l.62,0h.93a4.56,4.56,0,0,0,1.3-.18,4.31,4.31,0,0,0,2.18-1.51,4,4,0,0,0,.54-.95,3.67,3.67,0,0,0,1-1.42A7.41,7.41,0,0,0,49.71,29c0-.18,0-.36.05-.46.05-.26.13-.55.22-.85a15.92,15.92,0,0,0,.38-1.63,9,9,0,0,0,.11-2.54,4.32,4.32,0,0,0-1-2.3,12.36,12.36,0,0,0,2.24.21,11,11,0,0,0,1.76-.14,9,9,0,0,0,4.37-2.05,8.45,8.45,0,0,0,2.67-9.59A7.19,7.19,0,0,0,53.9,4.74a6.1,6.1,0,0,0-1,.08,5.7,5.7,0,0,0-5.06,5.47,5.5,5.5,0,0,0,0,1l-.19-.19c-.32-.31-.64-.68-1-1.08A17.56,17.56,0,0,0,44.83,8a14.58,14.58,0,0,0-6.88-3,15.3,15.3,0,0,0-2.65-.23c-.37,0-.75,0-1.12,0a23.1,23.1,0,0,0-2.84.44c-.53.11-1,.2-1.51.27-1.6.23-3.07.4-4.51.54s-2.6.17-4.07.2h-.1A5.6,5.6,0,0,1,19.64,6l-.31-.22L19,5.58a8.34,8.34,0,0,0-1.72-.95,7.46,7.46,0,0,0-1.24-.35l-.1,0,0,0a6.94,6.94,0,0,0-.89-.87,8.77,8.77,0,0,0-.75-.52A3.43,3.43,0,0,0,13.2.8,3.25,3.25,0,0,0,11,0ZM41.21,27.67c.05-.13.11-.27.15-.42q0,.17,0,.34l-.15.07Z"/></g><path class="d" d="M15.29,27.62a8.27,8.27,0,0,0-.35,1.09,1.21,1.21,0,0,1-.13.4c-.08.09-.22.09-.32.15a4.75,4.75,0,0,1-.54.43,6.51,6.51,0,0,1-1,.32c-.18.05-.74.14-.88,0a1.18,1.18,0,0,1-1-.12c-.46.09-1.08.14-1-.55a1.07,1.07,0,0,1,.34-.6c.51-.46,1-.33,1.56-.58a2.38,2.38,0,0,0,.91-1.32A8.08,8.08,0,0,0,13,25.1,24.26,24.26,0,0,0,13,22.45c-.06-.66-.25-1.31-.35-2a7,7,0,0,0-.26-1.25c-.27-.45-.75-.75-1-1.19a6.62,6.62,0,0,1-.5-1.25,13.46,13.46,0,0,1-.58-1.68c-.1-.43,0-.9-.1-1.33a2.89,2.89,0,0,0-.41-.9A21.13,21.13,0,0,0,8.37,11c-.24-.3-.22-.39-.56-.58A1.21,1.21,0,0,0,7,10.2a3.52,3.52,0,0,0-.91.21c-.25.09-.57.18-.83.25a1.2,1.2,0,0,1-.6,0,.94.94,0,0,1-.43-.35c-.08-.12,0-.29-.05-.43s-.37-.07-.47-.16a2.14,2.14,0,0,1-.35-.44,2.37,2.37,0,0,1-.32-.79,1,1,0,0,1,0-.68c.17-.33.53-.52.76-.82a1.75,1.75,0,0,0,.29-.55c.07-.25,0-.53.11-.77a2.29,2.29,0,0,1,.48-.7,4.28,4.28,0,0,1,.69-.54c.15-.1.31-.18.47-.27a4.21,4.21,0,0,1,0-.49c0-.09,0-.38.13-.38a1.51,1.51,0,0,1,.63.22,4.75,4.75,0,0,1,.4.26,7.14,7.14,0,0,1,2.64,0A2.32,2.32,0,0,1,10,3.42a2.14,2.14,0,0,1,.55-.31c.18-.06.49-.19.63-.06s.16.51.16.74,0,.51,0,.77c.5.33,1.39.79,1.86,1.16s.75.89,1.24,1.17a13.64,13.64,0,0,0,1.75.53,5.34,5.34,0,0,1,1.1.61,4.68,4.68,0,0,0,1.51.88,8.53,8.53,0,0,0,2.49.36c1.49,0,2.83-.07,4.31-.21s3.1-.34,4.64-.56c1.39-.2,2.75-.59,4.15-.69a12.23,12.23,0,0,1,3,.15,11.51,11.51,0,0,1,5.45,2.36c1,.86,1.77,2,2.72,2.89a13.39,13.39,0,0,0,2.76,2.4,7.92,7.92,0,0,0,3.35.87,4.93,4.93,0,0,0,2.61-.6,3.81,3.81,0,0,0,1.52-1.73,3.75,3.75,0,0,0,.23-2.1,2.72,2.72,0,0,0-.8-1.59,1.7,1.7,0,0,0-2.5.17c-.35.41-.56,2.12-1.56,1a1.71,1.71,0,0,1-.35-1.24A2.73,2.73,0,0,1,53.4,7.78a4.06,4.06,0,0,1,4.24,2.86,5.51,5.51,0,0,1,.15,3.52A5.72,5.72,0,0,1,55.84,17a6,6,0,0,1-2.9,1.36,9.13,9.13,0,0,1-3.85-.26,14.2,14.2,0,0,1-3.49-1.77c-.92-.56-1.72-1.29-2.59-1.93a23.09,23.09,0,0,0,.41,2.85,14.89,14.89,0,0,0,1.06,2.52,10.74,10.74,0,0,0,2.62,3.39,1.36,1.36,0,0,1,.39.75,6.1,6.1,0,0,1-.1,1.7c-.13.8-.41,1.57-.57,2.37a13.44,13.44,0,0,1-.32,2c-.11.3-.48.43-.66.7s-.19.61-.39.86a1.36,1.36,0,0,1-.66.48,4.51,4.51,0,0,1-1.11,0,8.57,8.57,0,0,1-1.33,0c-.2,0-.45-.1-.52-.29a1.05,1.05,0,0,1,.11-.83,1.56,1.56,0,0,1,1.28-.68,2.32,2.32,0,0,1,.61.23,11,11,0,0,0,.4-1.41,10.77,10.77,0,0,0,.1-2.13A3.74,3.74,0,0,0,44,25.41a4.07,4.07,0,0,0-.94-1c-.77-.73-1.59-1.42-2.4-2.12S39.24,21,38.51,20.43A13.24,13.24,0,0,0,38,23.78c0,.45.49,2.41.48,2.48a4.38,4.38,0,0,1-1,1.59,17.22,17.22,0,0,1-1.42,1.36c-.5.48-1,1-1.51,1.45a3.28,3.28,0,0,0-.52.48c-.7.89-.24.88-1.33,1a9.87,9.87,0,0,1-1.32.1,1.76,1.76,0,0,1-1-.17c-1-.48-.43-1.15,0-1.5a1.38,1.38,0,0,1,.71-.2c.33,0,.46.17.77.05a3.36,3.36,0,0,0,1.23-1.09,14.55,14.55,0,0,0,1.53-2.25A1.89,1.89,0,0,0,35,25.8a19.57,19.57,0,0,0-1.31-2.51c-.39-1-.7-1.66-1-2.64-.18-.58-.27-1.47-.44-2-.44.38-.87.77-1.32,1.13a3.71,3.71,0,0,1-2.63.94c-1.58.09-3.17.07-4.75.12l-3.86.15-.19.92c-.16.74-.34,1.48-.47,2.22s-.17,1.65-.33,2.46-.36,1.43-.56,2.15a3.68,3.68,0,0,1-.31.94c-.05.09-.27.08-.32.17-.24.4-.16,1.18-.5,1.45-.14.11-.69.46-.86.58a3.12,3.12,0,0,1-1,.32c-.2.06-.74.14-.9,0a1.44,1.44,0,0,1-.86,0,.49.49,0,0,1-.13,0c-.45.09-1.07,0-1-.6a1.07,1.07,0,0,1,.34-.6,4.68,4.68,0,0,1,1.45-.72c.18-.09.43-.12.55-.29a2.77,2.77,0,0,0,.48-.89,5.72,5.72,0,0,0,.16-1.33Z"/></svg>