<svg xmlns="http://www.w3.org/2000/svg" viewBox="0 0 61 35.22"><defs><style>.a{opacity:0.8;}.b,.c{fill:#fff;}.b,.d{fill-rule:evenodd;}.d{fill:#1a2026;}</style></defs><title>Asset 252</title><g class="a"><path class="b" d="M46.33,33.72a3.47,3.47,0,0,1-.92-.13l-.2,0A3.05,3.05,0,0,1,43.92,33l-.31-.21c-.24-.16-.5-.33-.6-.41a2.5,2.5,0,0,1-.83-1.62,1.59,1.59,0,0,1-.36-.44,3.89,3.89,0,0,1-.4-1.08l-.05-.2-.14-.5c-.16-.56-.33-1.14-.44-1.76s-.15-1-.2-1.45-.07-.7-.13-1-.18-.93-.29-1.39L40,22.4h-.14l-2.54-.1-1.82,0c-1,0-2,0-3-.09a5.17,5.17,0,0,1-2.94-.86c-.25.76-.5,1.39-.77,2l-.21.51a8.1,8.1,0,0,1-.72,1.31,5.62,5.62,0,0,0-.46.82l.19.35a13.16,13.16,0,0,0,1.37,2c.13.16.31.38.45.51l.34,0H30a2.76,2.76,0,0,1,1.53.5,2.54,2.54,0,0,1,1.16,2.24,2.24,2.24,0,0,1-1.36,1.81,2.69,2.69,0,0,1-1.33.32h-.5a8.52,8.52,0,0,1-1-.07l-.34,0A2.21,2.21,0,0,1,26,32.47a2.84,2.84,0,0,0-.27-.4l-.11-.1-.22-.18c-.37-.33-.72-.67-1.07-1l-.49-.48-.45-.41a9.85,9.85,0,0,1-1.09-1.08l-.14-.17a5.05,5.05,0,0,1-1.17-2,2.54,2.54,0,0,1,.12-1.36c.09-.39.29-1.29.31-1.53s0-.33,0-.49l-.54.46c-.67.57-1.33,1.14-2,1.75l-.22.2a2.62,2.62,0,0,0-.41.42,2.6,2.6,0,0,0-.15.87,9.31,9.31,0,0,0,.08,1.76,3.05,3.05,0,0,1,2.13,1.42,2.54,2.54,0,0,1,.21,2.08,2,2,0,0,1-1.7,1.25,4.3,4.3,0,0,1-.65,0l-.54,0h-1a3,3,0,0,1-.88-.12,2.81,2.81,0,0,1-1.87-1.89h0a2.38,2.38,0,0,1-.82-1.05,5.94,5.94,0,0,1-.3-1.56,6,6,0,0,0-.08-.62c-.07-.32-.15-.64-.24-1a14.7,14.7,0,0,1-.34-1.47A7.43,7.43,0,0,1,12,23.7a2.86,2.86,0,0,1,.79-1.61l.55-.56a7.53,7.53,0,0,0,1.8-2.44l.13-.27c.16-.33.32-.65.46-1a13.34,13.34,0,0,1-3.44,1.67,11.18,11.18,0,0,1-3,.42,9.47,9.47,0,0,1-1.52-.12,7.51,7.51,0,0,1-3.64-1.71,7,7,0,0,1-2.42-3.58,7,7,0,0,1,.19-4.37A5.67,5.67,0,0,1,7.1,6.24a4.6,4.6,0,0,1,.75.06,4.22,4.22,0,0,1,3.81,4.07,3.14,3.14,0,0,1-.75,2.35,2.29,2.29,0,0,1-1.68.82c-1.35,0-1.88-1.27-2.11-1.81L7,11.56a.21.21,0,0,0-.13-.06.31.31,0,0,0-.18.09,1.26,1.26,0,0,0-.32.7,2.27,2.27,0,0,0,.11,1.24,2.32,2.32,0,0,0,.89,1A3.39,3.39,0,0,0,9.06,15h.16a6.39,6.39,0,0,0,2.71-.69,8.18,8.18,0,0,0,1.8-1.53l.63-.63c.37-.35.71-.76,1.08-1.18a16.22,16.22,0,0,1,1.71-1.78,13.09,13.09,0,0,1,6.17-2.7,13.77,13.77,0,0,1,2.38-.21c.34,0,.68,0,1,0a21.8,21.8,0,0,1,2.66.41c.53.1,1.06.21,1.59.29,1.62.23,3.12.41,4.58.55s2.69.18,4.19.2h.13a7.33,7.33,0,0,0,2-.32A2.7,2.7,0,0,0,42.55,7l.28-.21A6.81,6.81,0,0,1,44.25,6a6.06,6.06,0,0,1,1-.28,2.67,2.67,0,0,0,.57-.16,2.52,2.52,0,0,0,.35-.35,5.57,5.57,0,0,1,.7-.69,11.63,11.63,0,0,1,1.26-.81,2.25,2.25,0,0,1,.67-1.81,1.72,1.72,0,0,1,1.16-.42,2.71,2.71,0,0,1,.91.18,2.79,2.79,0,0,1,.78.39l.16.11a5.81,5.81,0,0,1,.66,0c.35,0,.69,0,1.07.06h.06l.11-.06A2.86,2.86,0,0,1,55,1.76h0a1.6,1.6,0,0,1,1.61,1.48,4.83,4.83,0,0,1,.81.66,3.73,3.73,0,0,1,.78,1.17,2.62,2.62,0,0,1,.17.9h0a1,1,0,0,0,.17.17,3.15,3.15,0,0,1,.76.92,2.47,2.47,0,0,1,.14,1.71,3.87,3.87,0,0,1-.55,1.3,3.43,3.43,0,0,1-.59.71l-.17.13-.07.12a2.41,2.41,0,0,1-1.1.94,2.62,2.62,0,0,1-1,.19,2.27,2.27,0,0,1-.59-.07c-.3-.08-.68-.19-1-.3a2.17,2.17,0,0,0-.4-.1l-.18.24a19.37,19.37,0,0,0-1.29,1.75,1.46,1.46,0,0,0-.21.43,2.39,2.39,0,0,0,0,.33,4.31,4.31,0,0,1-.09,1,10,10,0,0,1-.49,1.46l-.16.4-.1.3a5.51,5.51,0,0,1-.53,1.22,4.62,4.62,0,0,1-.72.85l-.22.23c0,.12-.07.34-.12.74s-.12.65-.18.94a8.39,8.39,0,0,0-.17,1,23,23,0,0,0,0,2.49v.12a6.35,6.35,0,0,0,.11,1.27,1.45,1.45,0,0,0,.19.34l.18,0a3.23,3.23,0,0,1,1.65.76,2.55,2.55,0,0,1,.82,1.47,1.94,1.94,0,0,1-2,2.35h-.22a2,2,0,0,1-.45,1.45,2.17,2.17,0,0,1-1.69.72h-.17a2.78,2.78,0,0,1-.72.09H46.9A2.44,2.44,0,0,1,46.33,33.72Z"/><path class="c" d="M49.95,3a1.62,1.62,0,0,1,.47.12,2.14,2.14,0,0,1,.55.31,2.32,2.32,0,0,1,.38.36,4.28,4.28,0,0,1,1.12-.14c.47,0,.93.07,1.52.11a4.74,4.74,0,0,1,.4-.26A1.51,1.51,0,0,1,55,3.26h0c.09,0,.12.29.13.38a4.21,4.21,0,0,1,0,.49c.16.09.32.17.47.27a4.28,4.28,0,0,1,.69.54,2.29,2.29,0,0,1,.48.7c.1.24,0,.52.11.77a1.75,1.75,0,0,0,.29.55c.23.3.59.49.76.82a1,1,0,0,1,0,.68,2.37,2.37,0,0,1-.32.79,2.14,2.14,0,0,1-.35.44c-.1.09-.35.1-.47.16s0,.31-.05.43a.94.94,0,0,1-.43.35,1.14,1.14,0,0,1-.4.06l-.2,0c-.26-.07-.58-.16-.83-.25A3.52,3.52,0,0,0,54,10.2h-.12a1.25,1.25,0,0,0-.68.22c-.34.19-.32.28-.56.58a21.13,21.13,0,0,0-1.38,1.88,2.89,2.89,0,0,0-.41.9c-.1.43,0,.9-.1,1.33a13.47,13.47,0,0,1-.58,1.68,6.62,6.62,0,0,1-.5,1.25c-.28.44-.76.74-1,1.19a7,7,0,0,0-.26,1.25c-.1.66-.29,1.3-.35,2A24.24,24.24,0,0,0,48,25.1a8.08,8.08,0,0,0,.15,1.71A2.38,2.38,0,0,0,49,28.12c.53.26,1,.12,1.56.58a1.07,1.07,0,0,1,.34.6c.08.48-.19.61-.52.61a2.38,2.38,0,0,1-.44-.05,1,1,0,0,1-.61.18A1.34,1.34,0,0,1,49,30a.5.5,0,0,1-.37.1,2.12,2.12,0,0,1-.52-.07,6.51,6.51,0,0,1-1-.32,4.75,4.75,0,0,1-.54-.43c-.1-.07-.25-.06-.32-.15a1.21,1.21,0,0,1-.13-.4,8.27,8.27,0,0,0-.35-1.09A5.72,5.72,0,0,0,45.86,29a2.77,2.77,0,0,0,.48.89c.12.17.36.2.55.29a4.68,4.68,0,0,1,1.45.72,1.07,1.07,0,0,1,.34.6c.08.49-.27.63-.64.63a1.73,1.73,0,0,1-.32,0,.49.49,0,0,1-.13,0,1.21,1.21,0,0,1-.43.07,1.48,1.48,0,0,1-.43-.06.54.54,0,0,1-.4.12,2,2,0,0,1-.5-.07,3.12,3.12,0,0,1-1-.32c-.17-.12-.72-.47-.86-.58-.34-.27-.25-1-.5-1.45-.06-.09-.27-.08-.32-.17a3.68,3.68,0,0,1-.31-.94c-.2-.71-.42-1.42-.56-2.15s-.19-1.64-.33-2.46-.31-1.48-.47-2.22l-.19-.92-3.86-.15c-1.58,0-3.17,0-4.75-.12A3.71,3.71,0,0,1,30,19.74c-.45-.36-.88-.75-1.32-1.13-.18.58-.26,1.47-.44,2-.3,1-.62,1.69-1,2.64A19.57,19.57,0,0,0,26,25.8a1.89,1.89,0,0,0,.39,1.25,14.55,14.55,0,0,0,1.53,2.25,3.36,3.36,0,0,0,1.23,1.09.53.53,0,0,0,.2,0c.17,0,.3-.09.52-.09h0a1.38,1.38,0,0,1,.71.2c.47.36,1,1,0,1.5a1.23,1.23,0,0,1-.65.17h-.51c-.41,0-.75-.06-1.18-.1-1.09-.1-.63-.09-1.33-1a3.28,3.28,0,0,0-.52-.48c-.52-.46-1-1-1.51-1.45a17.23,17.23,0,0,1-1.42-1.36,4.38,4.38,0,0,1-1-1.59c0-.07.48-2,.48-2.48a13.24,13.24,0,0,0-.47-3.36c-.73.61-1.47,1.21-2.19,1.83s-1.62,1.38-2.4,2.12a4.07,4.07,0,0,0-.94,1,3.74,3.74,0,0,0-.31,1.46,10.77,10.77,0,0,0,.1,2.13,11,11,0,0,0,.4,1.41,2.32,2.32,0,0,1,.61-.23h.06a1.58,1.58,0,0,1,1.22.69,1.05,1.05,0,0,1,.11.83c-.07.19-.32.26-.52.29a2.8,2.8,0,0,1-.43,0c-.3,0-.6,0-.9,0h-.09l-.56,0a1.61,1.61,0,0,1-.46-.06,1.36,1.36,0,0,1-.66-.48c-.19-.25-.21-.6-.39-.86s-.55-.4-.66-.7a13.44,13.44,0,0,1-.32-2c-.16-.79-.44-1.57-.57-2.37a6.1,6.1,0,0,1-.1-1.7,1.36,1.36,0,0,1,.39-.75,10.74,10.74,0,0,0,2.62-3.39,14.89,14.89,0,0,0,1.06-2.52A23.1,23.1,0,0,0,18,14.37c-.86.64-1.67,1.37-2.59,1.93a14.2,14.2,0,0,1-3.49,1.77,9.75,9.75,0,0,1-2.58.36,7.93,7.93,0,0,1-1.28-.1A6,6,0,0,1,5.16,17a5.72,5.72,0,0,1-1.94-2.8,5.51,5.51,0,0,1,.15-3.52A4.18,4.18,0,0,1,7.1,7.74a3.08,3.08,0,0,1,.5,0,2.73,2.73,0,0,1,2.55,2.67,1.71,1.71,0,0,1-.35,1.24.87.87,0,0,1-.58.35c-.53,0-.72-1.08-1-1.4A1.74,1.74,0,0,0,6.92,10a1.77,1.77,0,0,0-1.18.47,2.72,2.72,0,0,0-.8,1.59,3.75,3.75,0,0,0,.23,2.1,3.81,3.81,0,0,0,1.52,1.73,4.9,4.9,0,0,0,2.38.6h.23a7.92,7.92,0,0,0,3.35-.87,13.39,13.39,0,0,0,2.76-2.4c1-.92,1.71-2,2.72-2.89A11.51,11.51,0,0,1,23.57,8a12.28,12.28,0,0,1,2.13-.19q.45,0,.9,0c1.4.1,2.76.49,4.15.69,1.54.22,3.09.41,4.64.56s2.82.18,4.31.21h.15a8.79,8.79,0,0,0,2.34-.36A4.68,4.68,0,0,0,43.7,8a5.34,5.34,0,0,1,1.1-.61,13.65,13.65,0,0,0,1.75-.53c.49-.28.8-.82,1.24-1.17s1.36-.83,1.86-1.16c0-.26,0-.51,0-.77s0-.58.16-.74A.25.25,0,0,1,49.95,3m0-3A3.25,3.25,0,0,0,47.8.8a3.43,3.43,0,0,0-1.11,2,8.75,8.75,0,0,0-.75.52,6.94,6.94,0,0,0-.89.87l0,0-.1,0a7.46,7.46,0,0,0-1.24.35A8.34,8.34,0,0,0,42,5.58l-.3.22L41.35,6a5.6,5.6,0,0,1-1.5.24h-.1c-1.47,0-2.73-.07-4.07-.2s-2.91-.31-4.51-.54c-.48-.07-1-.17-1.51-.27a23.11,23.11,0,0,0-2.84-.44c-.37,0-.75,0-1.12,0A15.3,15.3,0,0,0,23,5a14.58,14.58,0,0,0-6.88,3A17.56,17.56,0,0,0,14.3,10c-.34.4-.67.77-1,1.08l-.19.19a5.51,5.51,0,0,0,0-1A5.7,5.7,0,0,0,8.09,4.82a6.1,6.1,0,0,0-1-.08A7.19,7.19,0,0,0,.53,9.66,8.45,8.45,0,0,0,3.2,19.24,9,9,0,0,0,7.57,21.3a11,11,0,0,0,1.76.14,12.36,12.36,0,0,0,2.24-.21,4.32,4.32,0,0,0-1,2.3,8.94,8.94,0,0,0,.11,2.54A15.89,15.89,0,0,0,11,27.69c.08.31.16.6.22.85,0,.1,0,.28.05.46a7.41,7.41,0,0,0,.39,1.94,3.67,3.67,0,0,0,1,1.42,4,4,0,0,0,.54.95,4.31,4.31,0,0,0,2.18,1.51,4.56,4.56,0,0,0,1.3.18h.93l.62,0a5.76,5.76,0,0,0,.88-.06A3.47,3.47,0,0,0,22,32.73a3.86,3.86,0,0,0,.17-2l.29.26.4.37.47.46c.36.35.73.72,1.14,1.08l.21.18.07.11A3.66,3.66,0,0,0,28,35.11l.31,0a9.66,9.66,0,0,0,1.15.08H30a4.2,4.2,0,0,0,2-.48,3.76,3.76,0,0,0,2.18-3,4,4,0,0,0-1.75-3.57,4.26,4.26,0,0,0-2.23-.8,11.78,11.78,0,0,1-1-1.37h0A9.42,9.42,0,0,0,30,24.43l.21-.5.23-.56a8.56,8.56,0,0,0,2,.3c1,.06,2,.07,3,.09l1.8,0,1.51.05c.05.25.1.5.14.74s.08.61.12,1,.11,1,.22,1.57.31,1.33.48,1.89l.14.48,0,.16a5.35,5.35,0,0,0,.55,1.47,3.09,3.09,0,0,0,.28.41,3.73,3.73,0,0,0,1.27,2.06c.18.14.38.28.7.49l.27.18a4.47,4.47,0,0,0,1.86.76L45,35a4.92,4.92,0,0,0,1.3.18,4,4,0,0,0,.69-.06h.14a4.39,4.39,0,0,0,.87-.08h0a3.64,3.64,0,0,0,2.84-1.25,3.4,3.4,0,0,0,.61-1.07,3.37,3.37,0,0,0,1.64-1.06,3.49,3.49,0,0,0,.74-2.89,4.06,4.06,0,0,0-1.3-2.33A4.46,4.46,0,0,0,51,25.55c0-.12,0-.26,0-.39V25a21.3,21.3,0,0,1,0-2.32,7.6,7.6,0,0,1,.14-.8c.07-.32.14-.64.18-1v-.08l0-.23a5.69,5.69,0,0,0,.82-1,6.84,6.84,0,0,0,.68-1.54l.09-.25.15-.38a11.3,11.3,0,0,0,.55-1.68,5.63,5.63,0,0,0,.12-1.29c.22-.33.46-.68.74-1l.43.12a3.78,3.78,0,0,0,1,.12,4.07,4.07,0,0,0,1.6-.31,3.92,3.92,0,0,0,1.71-1.42h0a4.65,4.65,0,0,0,.8-.93,5.32,5.32,0,0,0,.81-1.85A3.89,3.89,0,0,0,60.6,6.4a4.26,4.26,0,0,0-.82-1.09,3.74,3.74,0,0,0-.21-.78,5.2,5.2,0,0,0-1.08-1.65,5.31,5.31,0,0,0-.59-.54A3.09,3.09,0,0,0,55,.26h-.06a4,4,0,0,0-1.66.41c-.26,0-.53,0-.83,0h-.26a4.16,4.16,0,0,0-.81-.37A4.24,4.24,0,0,0,49.95,0ZM19.64,27.59q0-.18,0-.34c0,.14.1.28.15.42l-.15-.07Z"/></g><path class="d" d="M45.71,27.62a8.27,8.27,0,0,1,.35,1.09,1.21,1.21,0,0,0,.13.4c.08.09.22.09.32.15a4.75,4.75,0,0,0,.54.43,6.51,6.51,0,0,0,1,.32c.18.05.74.14.88,0a1.18,1.18,0,0,0,1-.12c.46.09,1.08.14,1-.55a1.07,1.07,0,0,0-.34-.6c-.51-.46-1-.33-1.56-.58a2.38,2.38,0,0,1-.91-1.32A8.08,8.08,0,0,1,48,25.1,24.26,24.26,0,0,1,48,22.45c.06-.66.25-1.31.35-2a7,7,0,0,1,.26-1.25c.27-.45.75-.75,1-1.19a6.62,6.62,0,0,0,.5-1.25,13.46,13.46,0,0,0,.58-1.68c.1-.43,0-.9.1-1.33a2.89,2.89,0,0,1,.41-.9A21.13,21.13,0,0,1,52.62,11c.24-.3.22-.39.56-.58a1.21,1.21,0,0,1,.8-.22,3.52,3.52,0,0,1,.91.21c.25.09.57.18.83.25a1.2,1.2,0,0,0,.6,0,.94.94,0,0,0,.43-.35c.08-.12,0-.29.05-.43s.37-.07.47-.16a2.14,2.14,0,0,0,.35-.44,2.37,2.37,0,0,0,.32-.79,1,1,0,0,0,0-.68c-.17-.33-.53-.52-.76-.82a1.75,1.75,0,0,1-.29-.55c-.07-.25,0-.53-.11-.77a2.29,2.29,0,0,0-.48-.7,4.28,4.28,0,0,0-.69-.54c-.15-.1-.31-.18-.47-.27a4.21,4.21,0,0,0,0-.49c0-.09,0-.38-.13-.38a1.51,1.51,0,0,0-.63.22,4.75,4.75,0,0,0-.4.26,7.14,7.14,0,0,0-2.64,0A2.32,2.32,0,0,0,51,3.42a2.14,2.14,0,0,0-.55-.31c-.18-.06-.49-.19-.63-.06s-.16.51-.16.74,0,.51,0,.77c-.5.33-1.39.79-1.86,1.16s-.75.89-1.24,1.17a13.64,13.64,0,0,1-1.75.53A5.34,5.34,0,0,0,43.7,8a4.68,4.68,0,0,1-1.51.88,8.53,8.53,0,0,1-2.49.36c-1.49,0-2.83-.07-4.31-.21s-3.1-.34-4.64-.56c-1.39-.2-2.75-.59-4.15-.69a12.23,12.23,0,0,0-3,.15,11.51,11.51,0,0,0-5.45,2.36c-1,.86-1.77,2-2.72,2.89a13.39,13.39,0,0,1-2.76,2.4,7.92,7.92,0,0,1-3.35.87,4.93,4.93,0,0,1-2.61-.6,3.81,3.81,0,0,1-1.52-1.73,3.75,3.75,0,0,1-.23-2.1,2.72,2.72,0,0,1,.8-1.59,1.7,1.7,0,0,1,2.5.17c.35.41.56,2.12,1.56,1a1.71,1.71,0,0,0,.35-1.24A2.73,2.73,0,0,0,7.6,7.78a4.06,4.06,0,0,0-4.24,2.86,5.51,5.51,0,0,0-.15,3.52A5.72,5.72,0,0,0,5.16,17a6,6,0,0,0,2.9,1.36,9.13,9.13,0,0,0,3.85-.26,14.2,14.2,0,0,0,3.49-1.77c.92-.56,1.72-1.29,2.59-1.93a23.09,23.09,0,0,1-.41,2.85,14.89,14.89,0,0,1-1.06,2.52,10.74,10.74,0,0,1-2.62,3.39,1.36,1.36,0,0,0-.39.75,6.1,6.1,0,0,0,.1,1.7c.13.8.41,1.57.57,2.37a13.44,13.44,0,0,0,.32,2c.11.3.48.43.66.7s.19.61.39.86a1.36,1.36,0,0,0,.66.48,4.51,4.51,0,0,0,1.11,0,8.57,8.57,0,0,0,1.33,0c.2,0,.45-.1.52-.29a1.05,1.05,0,0,0-.11-.83,1.56,1.56,0,0,0-1.28-.68,2.32,2.32,0,0,0-.61.23,11,11,0,0,1-.4-1.41,10.77,10.77,0,0,1-.1-2.13A3.74,3.74,0,0,1,17,25.41a4.07,4.07,0,0,1,.94-1c.77-.73,1.59-1.42,2.4-2.12s1.46-1.22,2.19-1.83A13.24,13.24,0,0,1,23,23.78c0,.45-.49,2.41-.48,2.48a4.38,4.38,0,0,0,1,1.59,17.22,17.22,0,0,0,1.42,1.36c.5.48,1,1,1.51,1.45a3.28,3.28,0,0,1,.52.48c.7.89.24.88,1.33,1a9.87,9.87,0,0,0,1.32.1,1.76,1.76,0,0,0,1-.17c1-.48.43-1.15,0-1.5a1.38,1.38,0,0,0-.71-.2c-.33,0-.46.17-.77.05a3.36,3.36,0,0,1-1.23-1.09,14.55,14.55,0,0,1-1.53-2.25A1.89,1.89,0,0,1,26,25.8a19.57,19.57,0,0,1,1.31-2.51c.39-1,.7-1.66,1-2.64.18-.58.27-1.47.44-2,.44.38.87.77,1.32,1.13a3.71,3.71,0,0,0,2.63.94c1.58.09,3.17.07,4.75.12l3.86.15.19.92c.16.74.34,1.48.47,2.22s.17,1.65.33,2.46.36,1.43.56,2.15a3.68,3.68,0,0,0,.31.94c.05.09.27.08.32.17.24.4.16,1.18.5,1.45.14.11.69.46.86.58a3.12,3.12,0,0,0,1,.32c.2.06.74.14.9,0a1.44,1.44,0,0,0,.86,0,.49.49,0,0,0,.13,0c.45.09,1.07,0,1-.6a1.07,1.07,0,0,0-.34-.6,4.68,4.68,0,0,0-1.45-.72c-.18-.09-.43-.12-.55-.29a2.77,2.77,0,0,1-.48-.89,5.72,5.72,0,0,1-.16-1.33Z"/></svg>