<svg xmlns="http://www.w3.org/2000/svg" viewBox="0 0 43.96 30.19"><g id="Layer_2" data-name="Layer 2"><g id="Layer_1-2" data-name="Layer 1"><path d="M42.54,26.13a26,26,0,0,1-2.12-3.72c-.85-1.66-3.89-6.75-4.38-7.73A8.09,8.09,0,0,1,35,11.92a4.68,4.68,0,0,1,.61-2.38c.23-.57.6,0,.92.56a10.92,10.92,0,0,0,1.06,1.27,4.25,4.25,0,0,0,1.72,1.19,2.36,2.36,0,0,0,1.74.06,1.53,1.53,0,0,0,.6-.42c.18-.21.19-.35.38-.48s.37-.05.57-.15c.45-.24.42-1.11.41-1.21a2.92,2.92,0,0,0-.37-1.22A6,6,0,0,1,42,7.72a.9.9,0,0,1,0-.43c.1-.44.45-.48.66-1a1.55,1.55,0,0,0,.09-.81,2.81,2.81,0,0,0-.25-.62c-.21-.49-.21-.55-.35-.84a4.47,4.47,0,0,0-.4-.7c-.46-.67-.61-1.8-1.64-2.33s-4-.64-5.3-.9S28.08-.09,26,.81a52.14,52.14,0,0,1-6.35,2.38,66.42,66.42,0,0,0-9.37,4.09C9.16,8.05,7.65,9,7.14,10s-.76,3,.53,5.88a4.71,4.71,0,0,0,.93,2c.65.58.1.75-.79.82a42.81,42.81,0,0,1-5,0c-1.85-.14-2.94-.17-2.77.82s.07,3.11.54,4.11a4.48,4.48,0,0,1,.69,2.7c-.17.82-.31,2,.51,2.05S3,27.37,3.2,26.62a7.17,7.17,0,0,0,0-2.8C3,22.9,3,22.59,3.88,22.59c1.55,0,4.62.73,5.81.7a3,3,0,0,0,1.43-.4,25,25,0,0,0-1.43,3.28,3.91,3.91,0,0,1-.8,1.24c-.7.66-.94,1.11-.7,1.55.33.61,2.56.84,4.14.7a11.42,11.42,0,0,1,3.68.46c.93.19,2.41,0,2.41-.69S16,28.45,15,28.17s-1.26-.68-.26-2.24a36.57,36.57,0,0,0,3-5.62,5.17,5.17,0,0,0,.17-3c1,0,1.43.51,2.89.38a9.86,9.86,0,0,0,3.42-1.13c2.89-1.71,3.58-3.83,4.47-3.59.39.1.85.7,1,3a14,14,0,0,0,.7,3c.92,2.63,2.07,3.45,1.79,5.06-.17,1-1,1.52-1.46,2.21s-1.13.69-1.33.3-.87-1.41-.95-.3a2.6,2.6,0,0,0,1.08,2.4c.71.56,1.94.56,2.25.1s1.46-1.51,2.05-2.22,1.69-1.77,1.59-3-1.57-4.2-1.11-3.71,2.26,2.17,3.41,3.33,1.54,3.17,1.92,3.61a2.27,2.27,0,0,0,1.61.84c1.39-.06,1.69,1.1,2.67-.08C44.28,27.05,43.13,26.87,42.54,26.13Z"/></g></g></svg>