<svg xmlns="http://www.w3.org/2000/svg" viewBox="0 0 44 18.33"><defs><style>.cls-1{fill:#1a2026;}</style></defs><g id="Layer_2" data-name="Layer 2"><g id="Layer_1-2" data-name="Layer 1"><path class="cls-1" d="M39.72,18.05A6,6,0,0,0,38,17.17a40.42,40.42,0,0,1-3.67-3.74,2.52,2.52,0,0,0-.55-.65A3.49,3.49,0,0,1,33,11.6c-.19-.46-.32-.64-.45-.6-.57-.12-.55-.31-1.25-.07l-.32.1a2.86,2.86,0,0,0-.52.2,2.43,2.43,0,0,1-.86.17c-.57,0-.79.22-1.95,1.78-.37.5-.89,1.18-1.16,1.52a9.11,9.11,0,0,0-.63.88c-.15.29-.08.41.55.85a.91.91,0,0,1,.32.91c-.12.46-.7.4-1.22.4l-1.08,0-.32-.46c-.24-.27-.4-.53-.37-.59-.24-.31-.08-.84.05-1.24a3.52,3.52,0,0,0,.23-.87A18.58,18.58,0,0,1,25.28,11a8.23,8.23,0,0,0,.4-.78s-.19-.05-.42-.05a4.41,4.41,0,0,1-1.57-.39,4.14,4.14,0,0,0-.5-.14,5.55,5.55,0,0,1-1.55-1.13,1.39,1.39,0,0,0-.57-.41.68.68,0,0,1-.37-.24c-.25-.33-.48-.24-.48.18.16,1.62-1.22,2.23-1.9,3.13a6.13,6.13,0,0,1-.56.68A7.08,7.08,0,0,0,16.69,14a6.79,6.79,0,0,0,1.16,1.58,1.82,1.82,0,0,0,.61,0q1.13-.1,1.14,1v.54l-.69,0a7.86,7.86,0,0,1-1.75,0,3.64,3.64,0,0,0-.67-.49,1.64,1.64,0,0,1-.57-.5,7.69,7.69,0,0,0-.64-.86,9.05,9.05,0,0,1-1.27-2c0-.2-.13-.09-.11-.42a3.76,3.76,0,0,1,.37-1.09,7.37,7.37,0,0,1,.36-.92c.2-.24-.05-.33-.5-.18a5.69,5.69,0,0,1-.71.18l-.72.12a3.34,3.34,0,0,0-1.47.77,1.52,1.52,0,0,0-.19.55c0,.2-.08.5-.12.66a11.85,11.85,0,0,0,0,2.44c.33.3.61.42.81.79a2,2,0,0,1,0,.87c-.09.37-.8.17-1.05.15-.63-.06-1.35.14-1.35-.2-.05-1.29-.28-2.55-.39-3.82a5.42,5.42,0,0,0,0-.57,2.66,2.66,0,0,1,.12-.86,2.85,2.85,0,0,0,.19-.88c.05-.33,0-.42-.11-.42a.31.31,0,0,0-.25.22,8.81,8.81,0,0,1-7.79,2.83c-.75-.14-.88-.2-1-.48a1.26,1.26,0,0,1-.08-.7c.06-.32.14-.4.56-.54a1.07,1.07,0,0,1,.64-.08.83.83,0,0,0,.44,0l1.09-.11A7.72,7.72,0,0,0,6.31,10,12.07,12.07,0,0,0,8.06,8.23c.09-.16.54-.79,1-1.41A23,23,0,0,0,10.78,4.4a9.57,9.57,0,0,1,.67-.89,5.8,5.8,0,0,1,3.71-3l1-.27a11.75,11.75,0,0,1,4.26,0,7.15,7.15,0,0,0,1,.24c.22,0,1,.18,1.82.34a21.1,21.1,0,0,1,4.27,1.1,5.85,5.85,0,0,0,1.76.53,7.78,7.78,0,0,1,.87.15,1.88,1.88,0,0,0,.83-.11,9.42,9.42,0,0,1,2.51-.23,14.28,14.28,0,0,1,2.64.63,7.7,7.7,0,0,1,.86.17,13.43,13.43,0,0,0,3.58-.08c.47,0,.47-.78,1.06-.87.6.37.14.67,1,.53.52,0,.76.15.79.36.06.75-.52,1.08-.05,1.78a1.62,1.62,0,0,1,.31,1.12c0,.38,0,.69.08.69A3.1,3.1,0,0,1,44,7.59a2.49,2.49,0,0,1-.61,1.15A2.46,2.46,0,0,1,42,9c-.38,0-.7-.41-.9-.66a1.46,1.46,0,0,0-.88-.53.73.73,0,0,1-.26-.11,3.49,3.49,0,0,0-.83-.12c-.75,0-1.66.27-1.76.61a21.93,21.93,0,0,0-.2,2.61,3.76,3.76,0,0,0,.47,1.51c.49,1,1.14,2,1.73,3a1.26,1.26,0,0,0,.66.55.6.6,0,0,1,.39.27c.14.21.25.27.44.22a1.46,1.46,0,0,1,1.32.28c.48.35.57.46.54.64a5.47,5.47,0,0,1-.48,1,7.21,7.21,0,0,1-1.11.08c-1,0-1.09,0-1.39-.27ZM11.57,8.28c.78-.4,1-.59,1.15-.86a.84.84,0,0,0-.37-1s-.17.16-.27.35a6.54,6.54,0,0,1-1,1.12c-1.14,1.12-1.06,1.19.46.4Z"/></g></g></svg>