<svg xmlns="http://www.w3.org/2000/svg" viewBox="0 0 47.99 31.11"><defs><style>.a{opacity:0.8;}.b{fill:#fff;}.c{fill:#1a2026;}</style></defs><title>Asset 258</title><g class="a"><path class="b" d="M29.35,29.6a1.51,1.51,0,0,1-.58-.12,1.5,1.5,0,0,1-.58.12H24.93a1.5,1.5,0,0,1-1.49-1.69l.06-.46s.23-1.76.56-4.12a2.44,2.44,0,0,1-.25-1.24,6.41,6.41,0,0,0-.09-1.68c-.57,0-1.17,0-1.79,0a22.71,22.71,0,0,1-5.53-.58c-.77-.25-1.55-.48-2.24-.69q-.09.34-.19.65c-.07.22-.14.43-.17.58A6.52,6.52,0,0,1,13.63,22a3.3,3.3,0,0,0-.07.41,5.25,5.25,0,0,0,.29,1.83,3.9,3.9,0,0,0,.47.87l.21.33a4,4,0,0,1,.84,2.22v.41a1.5,1.5,0,0,1-1.5,1.5H10.19a1.5,1.5,0,0,1-1.43-1,1.5,1.5,0,0,1-1.43,1H3.65a1.5,1.5,0,0,1-1.5-1.5V27.7a12.41,12.41,0,0,1,.12-1.3l.17-1.53c.15-1.39.34-3.11.34-4.25h0s0-.05-.05-.11A2.75,2.75,0,0,1,2.6,18.8a1.9,1.9,0,0,1-.65-.61c-.33-.5-.57-1.2-.37-5.15,0-3.4.93-6.22,2.74-8.07A5.54,5.54,0,0,1,8.64,3.21h.17c.86,0,2.22.05,3.43.1l.07,1.5.06-1.5c1,0,1.9.08,2.36.08s1.31.06,2.2.12c1.12.08,2.33.18,3.26.18s2.7-.27,4.23-.49A32.58,32.58,0,0,1,28,2.8l.37,0c.42,0,1.08.18,2,.38.64.13,2,.41,2.29.42h0c.65,0,2.13-.14,2.72-.2l.59,0h.36a2.47,2.47,0,0,1,.29-.82,2.34,2.34,0,0,1,2-1.06,2.24,2.24,0,0,1,.9.19,6.08,6.08,0,0,1,1.77,1.58c.2.11.36.22.46.29A3.52,3.52,0,0,1,43.36,5.5l.25.38c.25.37.55.8.68,1a10.37,10.37,0,0,1,1,1.73l.18.35a2.55,2.55,0,0,1,.84,3c-.62,1.76-2.78,2.32-3.74,2.32H42.4a2.19,2.19,0,0,1-1-.32l-.24,0a15.47,15.47,0,0,1-1.85-.27c-.32-.08-.73-.21-1.11-.34a6.84,6.84,0,0,0-1.17,1.6,13.35,13.35,0,0,1-4.52,4.63c0,.15.09.3.13.41A9.17,9.17,0,0,1,33,21.19,7,7,0,0,1,33,23.28c0,.19,0,.29-.06.39v.05a4.29,4.29,0,0,0,.69,2.06,3.35,3.35,0,0,1,.58,1.92v.41a1.5,1.5,0,0,1-1.5,1.5ZM8.08,25a2.1,2.1,0,0,0,.27.87l.14.33c-.11-.39-.24-.92-.39-1.53C8.09,24.73,8.09,24.84,8.08,25Z"/><path class="b" d="M38.65,3a.75.75,0,0,1,.3.06,5.22,5.22,0,0,1,1.17,1.11,1,1,0,0,1,.1.22A4.75,4.75,0,0,1,41,4.8l.05,0c.14.09.85.58.9,1.1a2.17,2.17,0,0,0,.33.58l.12.18c.24.37.59.86.79,1.09A11.93,11.93,0,0,1,44,9.25c.14.27.27.51.33.62a.84.84,0,0,0,.15.13,1.06,1.06,0,0,1,.44,1.36c-.34,1-1.85,1.32-2.32,1.32h-.06a.7.7,0,0,1-.45-.22s0,0-.09,0l-.64-.08a14.85,14.85,0,0,1-1.64-.23,13.12,13.12,0,0,1-1.61-.54l-.31.12a6.44,6.44,0,0,0-2.05,2.44A12.58,12.58,0,0,1,31,18.65l0,.23a4,4,0,0,0,.31,1.44,7.51,7.51,0,0,1,.31,1.11,6,6,0,0,1-.07,1.72,5,5,0,0,0-.08.58,5.93,5.93,0,0,0,.94,2.85,1.87,1.87,0,0,1,.34,1.1v.41H29.35l.14-.44a16.31,16.31,0,0,0-.54-4.23,1.87,1.87,0,0,0-.33-.61l-.14-.2c-.1.23-.21.45-.3.65s-.26.5-.29.6A3.59,3.59,0,0,0,28,26.8a1.88,1.88,0,0,1,.18.9v.41H24.93l.06-.46s.18-1.39.59-4.35a1,1,0,0,0-.14-.53,1.06,1.06,0,0,1-.14-.54,7.84,7.84,0,0,0-.47-3.39c-.88.09-1.89.13-2.91.13a20,20,0,0,1-5.07-.5C15.46,18,14,17.58,13,17.32a13.28,13.28,0,0,1-.5,2.1,4,4,0,0,0-.24,1,4.85,4.85,0,0,1-.14,1.3,4.56,4.56,0,0,0-.1.65,6.76,6.76,0,0,0,.35,2.32,5.8,5.8,0,0,0,.74,1.4,3.23,3.23,0,0,1,.71,1.59v.41H10.19V27.7c0-.2,0-.37,0-.52a3.27,3.27,0,0,0-.2-1.3c-.13-.43-.29-1.09-.47-1.86-.29-1.19-.61-2.55-.91-3.37a2,2,0,0,0-.34-.56,2.31,2.31,0,0,0-.28.54A7.09,7.09,0,0,1,7.36,22c-.14.26-.28.5-.34.68a6.67,6.67,0,0,0-.44,2.23A3.3,3.3,0,0,0,7,26.43a3.13,3.13,0,0,1,.36,1.27v.41H3.65V27.7c0-.33.1-1,.21-2,.17-1.54.42-3.64.42-5A1.81,1.81,0,0,0,4.14,20a.93.93,0,0,1,.07-1.06,8.08,8.08,0,0,0,1-2.57c0-.35-.25-1.79-.46-3.07-.17-1-.32-1.9-.39-2.45,0-.2,0-.41-.06-.62a14.5,14.5,0,0,0-.27,2.86h0A41.46,41.46,0,0,1,4,17.29a.56.56,0,0,1-.43.26h0a.4.4,0,0,1-.34-.18c-.26-.4-.21-2.53-.12-4.24,0-3.08.81-5.56,2.31-7.1A4.15,4.15,0,0,1,8.65,4.71h.16c.85,0,2.23.06,3.45.1,1,0,2,.08,2.46.08S16,5,16.87,5c1.09.08,2.33.18,3.32.18s2.78-.27,4.46-.5,2.85-.4,3.4-.4h.2c.38,0,1.12.2,1.9.36a24.8,24.8,0,0,0,2.56.45h.07c.72,0,2.32-.15,2.84-.21l.46,0a4.5,4.5,0,0,0,1.28-.17l.47-.14A3,3,0,0,1,38,3.35.83.83,0,0,1,38.65,3m0-3h0a3.82,3.82,0,0,0-3.23,1.76l-.09.16h0c-.71.08-2,.18-2.49.19s-1.5-.28-2.06-.39c-.9-.18-1.66-.34-2.16-.4a4.75,4.75,0,0,0-.55,0,32,32,0,0,0-3.82.43c-1.34.19-3.36.47-4,.47-.87,0-2.05-.09-3.09-.17s-1.76-.13-2.37-.13c-.41,0-1.37,0-2.31-.07h-.15c-1.26,0-2.57-.1-3.45-.1H8.62A7.07,7.07,0,0,0,3.18,4C1.14,6.11.07,9.24.07,13.05c-.2,4,0,5.06.62,6a3.44,3.44,0,0,0,.32.41,4.67,4.67,0,0,0,.27,1.48c0,1.06-.19,2.56-.33,3.8l-.07.62c0,.32-.07.62-.1.88A13.32,13.32,0,0,0,.65,27.7v.41a3,3,0,0,0,3,3H7.33a3,3,0,0,0,1.43-.36,3,3,0,0,0,1.43.36h3.68a3,3,0,0,0,3-3V27.7a5.41,5.41,0,0,0-1.08-3l-.11-.17-.11-.17a4.87,4.87,0,0,1-.3-.5,3.92,3.92,0,0,1-.22-1.27c0-.07,0-.14,0-.22a9.92,9.92,0,0,0,.19-1.22l.65.21a23.5,23.5,0,0,0,6,.65h.38v0a3.7,3.7,0,0,0,.21,1.53c-.34,2.41-.49,3.6-.51,3.73l-.06.48a3,3,0,0,0,3,3.38h3.26a3,3,0,0,0,.59-.06,3,3,0,0,0,.58.06h3.34a3,3,0,0,0,3-3V27.7A4.83,4.83,0,0,0,34.86,25a2.67,2.67,0,0,1-.43-1.22l0-.18v-.09a8.29,8.29,0,0,0,0-2.53,8,8,0,0,0-.21-.9,14.14,14.14,0,0,0,4.08-4.52,5.17,5.17,0,0,1,.35-.57L39,15a15.47,15.47,0,0,0,2,.3,3.63,3.63,0,0,0,1.28.36h.33c1.54,0,4.31-.9,5.15-3.33a4.07,4.07,0,0,0-1.06-4.4l0-.05a11.41,11.41,0,0,0-1.22-2c-.08-.1-.34-.45-.57-.8l-.13-.2h0a5,5,0,0,0-2.09-2.54l0,0-.31-.2A6.84,6.84,0,0,0,40.15.31,3.73,3.73,0,0,0,38.65,0Z"/></g><path class="c" d="M42.53,12.68a.7.7,0,0,1-.45-.22s0,0-.09,0l-.64-.08a14.85,14.85,0,0,1-1.64-.23,13.12,13.12,0,0,1-1.61-.54l-.31.12a6.43,6.43,0,0,0-2.05,2.44A12.58,12.58,0,0,1,31,18.65l0,.23a4,4,0,0,0,.31,1.44,7.51,7.51,0,0,1,.31,1.11,6,6,0,0,1-.07,1.72,5,5,0,0,0-.08.58,5.93,5.93,0,0,0,.94,2.85,1.87,1.87,0,0,1,.34,1.1v.41H29.35l.14-.44a16.31,16.31,0,0,0-.54-4.23,1.87,1.87,0,0,0-.33-.61l-.14-.2-.3.65c-.12.25-.26.5-.29.6A3.59,3.59,0,0,0,28,26.8a1.88,1.88,0,0,1,.18.9v.41H24.93l.06-.46s.18-1.39.59-4.35a1,1,0,0,0-.14-.53,1.06,1.06,0,0,1-.14-.54,7.84,7.84,0,0,0-.47-3.39,26.15,26.15,0,0,1-8-.37C15.46,18,14,17.58,13,17.32a13.27,13.27,0,0,1-.5,2.1,4,4,0,0,0-.24,1,4.85,4.85,0,0,1-.14,1.3,4.57,4.57,0,0,0-.1.65,6.76,6.76,0,0,0,.35,2.32,5.8,5.8,0,0,0,.74,1.4,3.23,3.23,0,0,1,.71,1.59v.41H10.19V27.7c0-.2,0-.37,0-.52a3.27,3.27,0,0,0-.2-1.3c-.13-.43-.29-1.09-.47-1.86-.29-1.19-.61-2.55-.91-3.37a2,2,0,0,0-.34-.56,2.31,2.31,0,0,0-.28.54A7.1,7.1,0,0,1,7.36,22c-.14.26-.28.5-.34.68a6.67,6.67,0,0,0-.44,2.23A3.3,3.3,0,0,0,7,26.43a3.13,3.13,0,0,1,.36,1.27v.41H3.65V27.7c0-.33.1-1,.21-2,.17-1.54.42-3.64.42-5A1.81,1.81,0,0,0,4.14,20a.93.93,0,0,1,.07-1.06,8.08,8.08,0,0,0,1-2.57c0-.35-.25-1.79-.46-3.07-.17-1-.32-1.9-.39-2.45,0-.2,0-.41-.06-.62a14.5,14.5,0,0,0-.27,2.86h0A41.46,41.46,0,0,1,4,17.29a.56.56,0,0,1-.43.26h0a.4.4,0,0,1-.34-.18c-.26-.4-.21-2.53-.12-4.24,0-3.08.81-5.56,2.31-7.1A4.15,4.15,0,0,1,8.65,4.71c.83,0,2.31.05,3.61.1,1,0,2,.08,2.46.08S16,5,16.87,5c1.09.08,2.33.18,3.32.18s2.78-.27,4.46-.5a24.12,24.12,0,0,1,3.6-.39c.38,0,1.12.2,1.9.36a24.79,24.79,0,0,0,2.56.45c.68,0,2.37-.15,2.91-.21l.46,0a4.5,4.5,0,0,0,1.28-.17l.47-.14A3,3,0,0,1,38,3.35a.83.83,0,0,1,1-.29,5.22,5.22,0,0,1,1.17,1.11,1,1,0,0,1,.1.22A4.75,4.75,0,0,1,41,4.8l.05,0c.14.09.85.58.9,1.1a2.16,2.16,0,0,0,.33.58l.12.18c.24.37.59.86.79,1.09A11.93,11.93,0,0,1,44,9.25c.14.27.27.51.33.62a.84.84,0,0,0,.15.13,1.06,1.06,0,0,1,.44,1.36C44.55,12.39,42.91,12.71,42.53,12.68Z"/></svg>