<svg xmlns="http://www.w3.org/2000/svg" viewBox="0 0 34.94 41.29"><defs><style>.cls-1{fill:#1a2026;}</style></defs><g id="Layer_2" data-name="Layer 2"><g id="Layer_1-2" data-name="Layer 1"><path class="cls-1" d="M34.94,28.12c-.32-.51-.48-1.34-.71-1.77A12.1,12.1,0,0,0,33.34,25c-.29-.36-1-.78-1.07-1.21a8.64,8.64,0,0,1,1.51.71,6.24,6.24,0,0,0-.48-.71,8.17,8.17,0,0,0-1.54-1.2,22.06,22.06,0,0,0-2.48-1.34,2.66,2.66,0,0,0-1.18-1,9.16,9.16,0,0,0-2.75-1.12l.07.09c-1.08-.52-3-1.59-3.38-1.74s-4.3-2.71-5.2-3c-1.2-.37-2.33-1-3.56-1.3S9.2,12.19,8.76,12s-.81-.14-1.19-.31A3.63,3.63,0,0,1,5.44,8.35a.25.25,0,0,0-.08,0,4.29,4.29,0,0,1,.09-.73A5.58,5.58,0,0,1,6.25,6a6,6,0,0,0,.82-.46.07.07,0,0,0,0,0c.07-.11.19-.17.26-.28l0,.06a1.75,1.75,0,0,0,.46-.72,1.33,1.33,0,0,0,.13-.33A1.44,1.44,0,0,1,8,3.9c0,.05.25,1.2.26,1.25,0-.2.09-1.64.1-1.86a1.14,1.14,0,0,1,.17.35c0-.38-.2-.91-.22-1.4A2.51,2.51,0,0,0,6.56.15,3.22,3.22,0,0,0,3.87.48a4.55,4.55,0,0,1-.38.39.15.15,0,0,0,0-.06,4.73,4.73,0,0,1-1.25.88,15,15,0,0,0-2.15.77.33.33,0,0,0,0,.43,4.63,4.63,0,0,1,1.38-.32c.89-.08,2-.07,2-.07a15.43,15.43,0,0,1,1.71.27c.91.2.75,1.07,0,2S4,6.81,3.52,9.71a20.61,20.61,0,0,0,.28,7c.1.53.34,1.44.44,1.86A1,1,0,0,1,4.35,18a16.22,16.22,0,0,0,1,2.37,4.14,4.14,0,0,0,.91.84l-.19-.32a3.59,3.59,0,0,1-.28-1.11,23,23,0,0,0,1.46,1.82,3.56,3.56,0,0,0,1.39.91,7.9,7.9,0,0,1-.79-.67,3.1,3.1,0,0,1-.16-.91l1.15.91-.13-.58.11.13c.55.68,1.4,1.93,2.34,2.12,0-.07,0-.19,0-.25a3.56,3.56,0,0,0,1.3.66,1.64,1.64,0,0,0,0-.38,3.55,3.55,0,0,1,.8,2.29.92.92,0,0,0,.14-.14,1.14,1.14,0,0,0,0,.26l.09-.1a18.19,18.19,0,0,1,.25,2.92,3.46,3.46,0,0,0,.16,1.33,6.88,6.88,0,0,1-.06,1.16c0,.17-.08,6.39-.06,6.52s-.28.08-.52,0-.69,0-1-.07a1.06,1.06,0,0,0-.5,0,.37.37,0,0,0-.17.05c-.07,0,0,.19,0,.19l0-.07s.05,0,.09,0a.7.7,0,0,0,.49.14,10.31,10.31,0,0,1,1.07.12,11.74,11.74,0,0,0-1.19.16.86.86,0,0,0-.45.19.61.61,0,0,0-.14.09c-.06.06,0,.21,0,.21l.05-.08a.16.16,0,0,1,.11,0h0c.1.16.7,0,1-.14a3.74,3.74,0,0,1,1-.11,4.49,4.49,0,0,0-.76.47,2.92,2.92,0,0,0-.44.43h0a.19.19,0,0,0-.07.06c-.07.07,0,.24,0,.24a.23.23,0,0,1,.08-.13l.13,0a.23.23,0,0,0,.33-.06,1.31,1.31,0,0,1,.93-.58c.22,0,.38-.22.47-.22s.18.09.64.19.61.1.7,0h.1c.1,0,.08.11.07.15l0-.14c0-.15-.18-.18-.18-.18h0c-.14-.23-1.13-.26-1.24-.46a3.72,3.72,0,0,1-.22-.78c-.06-.26,0-3.91.06-4.79a23.45,23.45,0,0,1,.5-3.19,3.13,3.13,0,0,0-.2-1.32c-.07-.31-.21-1.37-.3-2.15,0,0,.06.07.06.11,0-.42.11-.71-.18-1.07.26.27.1.16.32.42a5.37,5.37,0,0,0,.59.58h0a30.44,30.44,0,0,1,.9,3.55,3.77,3.77,0,0,0,.39,1.4,8.45,8.45,0,0,1,.13,1.24c0,.18,1,6.84,1,7s-.29.13-.55.13-.74.08-1,.08a1.11,1.11,0,0,0-.53.07.59.59,0,0,0-.18.09c-.06.06,0,.21,0,.21l0-.08s.05-.05.1-.06a.75.75,0,0,0,.54.06c.34-.05,1.16-.05,1.16-.05a12.57,12.57,0,0,0-1.24.37,1,1,0,0,0-.45.28s-.07.05-.13.12,0,.23,0,.23l0-.09s.06-.06.11-.08v0c.14.15.74-.14,1.06-.32a3.85,3.85,0,0,1,1.06-.29,4.54,4.54,0,0,0-.74.63,3.6,3.6,0,0,0-.4.53h0l-.06.08c-.06.08,0,.26,0,.26a.25.25,0,0,1,.06-.15.41.41,0,0,1,.13-.08.25.25,0,0,0,.35-.12,1.4,1.4,0,0,1,.89-.77c.22-.08.37-.3.46-.31s.21.06.72.1c.36,0,.67,0,.75-.13a.2.2,0,0,0,.1,0c.11-.05.11.1.11.15v-.15c0-.17-.23-.17-.24-.17-.19-.22-1.25-.08-1.4-.28a3.45,3.45,0,0,1-.37-.8c-.11-.26-.64-4.17-.74-5.12a26.68,26.68,0,0,1,0-3.49,3.27,3.27,0,0,0-.43-1.37c-.15-.37-.55-1.75-.78-2.57l0,0-.08-.17c-.08-.27-.12-.45-.13-.46A3.12,3.12,0,0,1,15.76,24c.49.17.87.67,1.4.85a5.78,5.78,0,0,0,1.91.2,14.57,14.57,0,0,1,2.47.07,5.65,5.65,0,0,0,1.57.29,1.5,1.5,0,0,0,0-.22,1.3,1.3,0,0,0,1.08.38,1.7,1.7,0,0,0-.22-.15c.34,0,1,.05,1.18.32-.1-.31-.36-.83-.67-.87a7.83,7.83,0,0,1,2.6,1.23c.34.18.71.22,1.06.38a6.77,6.77,0,0,1,.87.65,2.46,2.46,0,0,0,.27.24A13.31,13.31,0,0,1,30.84,30a15.05,15.05,0,0,0-1.19-3.34l-.13-.14a3,3,0,0,1,0-.41c.41.17.79.42,1.19.61a34.19,34.19,0,0,1,2.66,4.48s-.9-2.34-1.69-4a2,2,0,0,1,.7.6,4.92,4.92,0,0,0-.69-1.42l.54.35C33.36,28,34.94,30,34.94,30s-.54-1.13-1.17-2.3l.19.09A7.24,7.24,0,0,1,34.94,28.12Z"/></g></g></svg>