<svg xmlns="http://www.w3.org/2000/svg" viewBox="0 0 41.84 30.07"><defs><style>.a{opacity:0.8;}.b,.c{fill:#fff;}.b,.d{fill-rule:evenodd;}.d{fill:#0abaff;}</style></defs><title>Asset 2</title><g class="a"><path class="b" d="M36.66,8a5.08,5.08,0,0,0-.47-1.48C35.91,6.16,35,6,34.61,5.86c-.54-.25-.41-.29-.39-.93s.33-1.72.07-1.72L33.66,4c0-.35.22-.79-.21-1-.35.6-.71,1.19-1,1.79a12.08,12.08,0,0,1-.64,1.43,6.15,6.15,0,0,1-1.15.86l-2.14,1.6a3.89,3.89,0,0,1-1.92,1l-4.79.74c-1.31.2-2.68.32-4,.61a31,31,0,0,0-3.2,1.09,18,18,0,0,0-3.06,1.18,10.15,10.15,0,0,0-1.83,1.2,5.69,5.69,0,0,0-.77,1.29A35,35,0,0,1,6.5,19.5a2,2,0,0,1-1.52,1,6.76,6.76,0,0,1-2,.09c1.14.6,2.26,1.41,3.63,1.25,1-.12,2.2-1.13,3.07-1.67a8.84,8.84,0,0,1-1.1,1.16c-.5.38-1.22.46-1.41,1.06A7.45,7.45,0,0,0,7,24.18,6.6,6.6,0,0,0,7,26.26c.28.74.92.73,1.57.69.46,0,.41.1.43-.37s-.13-.43-.38-.75a2.61,2.61,0,0,1,.6-3.15,9.28,9.28,0,0,1,2-.87l2-.87c-.47.54-.94.89-1,1.61s.4.93.52,1.58a4,4,0,0,0,.54,1.9,1.87,1.87,0,0,0,1.91.44,2.09,2.09,0,0,0-.54-1.11,1.48,1.48,0,0,1-.56-1A4.2,4.2,0,0,1,13.8,23c.08-.26.84-.7,1-.87.64-.54,1.29-1.07,1.93-1.62s1-1.14,1.76-1.18a25.47,25.47,0,0,1,3.31.24l1.78.13a3.22,3.22,0,0,1,1,.07c.47.27.5,1.69.57,2.14a15.77,15.77,0,0,0,.34,2.68c0,.12.22.15.27.26a3.63,3.63,0,0,1,.15.6,1.3,1.3,0,0,0,.74,1c.35.13.84-.11,1.2,0s.5.43.85.53a4.08,4.08,0,0,0,1.51,0c.35-.3-.13-.71-.32-.87s-.81-.41-1-.73a5.51,5.51,0,0,1-.12-1.68,11.31,11.31,0,0,1,0-2.22l.2-1.82a4.84,4.84,0,0,1,.15-1.32c.33-.68,1.44-1,1.9-1.65A14.67,14.67,0,0,0,32.32,14a8.34,8.34,0,0,1,1.9-2.19c.69-.71,1.56-.59,2.53-.71.72-.09,2.2-.37,2.08-1.4C38.76,9,37.24,8.36,36.66,8ZM27.31,25.15c-.81-.32-.33-2.8-.29-3.41a11.84,11.84,0,0,0,.72,3.7Z"/><path class="c" d="M33.45,3c.43.21.2.65.21,1l.63-.79c.26,0,0,1.15-.07,1.72s-.16.68.39.93c.39.18,1.3.3,1.58.63A5.09,5.09,0,0,1,36.66,8c.57.4,2.1,1.09,2.17,1.72.12,1-1.36,1.31-2.08,1.4-1,.12-1.84,0-2.53.71A8.35,8.35,0,0,0,32.32,14a14.67,14.67,0,0,1-1.18,2.74c-.46.62-1.56,1-1.9,1.65a4.85,4.85,0,0,0-.15,1.32l-.2,1.82a11.3,11.3,0,0,0,0,2.22A5.51,5.51,0,0,0,29,25.4c.17.32.7.49,1,.73s.66.57.32.87a1.24,1.24,0,0,1-.56.07,5.57,5.57,0,0,1-1-.07c-.35-.09-.52-.42-.85-.53a.75.75,0,0,0-.23,0c-.23,0-.49.07-.72.07a.72.72,0,0,1-.25,0,1.3,1.3,0,0,1-.74-1,3.63,3.63,0,0,0-.15-.6c-.05-.11-.23-.15-.27-.26A15.77,15.77,0,0,1,25.21,22c-.07-.46-.09-1.87-.57-2.14a1.16,1.16,0,0,0-.51-.08h-.52l-1.78-.13c-.94-.07-1.95-.25-2.91-.25h-.4c-.72,0-1.19.7-1.76,1.18s-1.28,1.08-1.93,1.62c-.2.17-1,.61-1,.87A4.2,4.2,0,0,0,14,24.33a1.48,1.48,0,0,0,.56,1,2.09,2.09,0,0,1,.54,1.11,3.39,3.39,0,0,1-.67.08A1.58,1.58,0,0,1,13.21,26a4,4,0,0,1-.54-1.9c-.13-.65-.56-1-.52-1.58s.51-1.06,1-1.61l-2,.87a9.29,9.29,0,0,0-2,.87,2.61,2.61,0,0,0-.6,3.15c.26.32.4.32.38.75s0,.36-.16.36H8.53l-.41,0A1.07,1.07,0,0,1,7,26.26,6.6,6.6,0,0,1,7,24.18a7.45,7.45,0,0,1,.18-1.77c.19-.59.91-.67,1.41-1.06a8.84,8.84,0,0,0,1.1-1.16c-.86.54-2.08,1.55-3.07,1.67l-.36,0A7.32,7.32,0,0,1,3,20.62l.92,0A4.28,4.28,0,0,0,5,20.53a2,2,0,0,0,1.52-1,35,35,0,0,0,2.41-3.68,5.69,5.69,0,0,1,.77-1.29,10.15,10.15,0,0,1,1.83-1.2,18,18,0,0,1,3.06-1.18,31,31,0,0,1,3.2-1.09c1.3-.3,2.66-.41,4-.61l4.79-.74a3.89,3.89,0,0,0,1.92-1l2.14-1.6a6.15,6.15,0,0,0,1.15-.86,12.08,12.08,0,0,0,.64-1.43c.34-.6.7-1.19,1-1.79M27.74,25.45a11.84,11.84,0,0,1-.72-3.7c0,.6-.51,3.08.29,3.41l.43.3M33.45,0a3,3,0,0,0-2.59,1.49l-.34.58c-.25.42-.49.83-.73,1.25a6.47,6.47,0,0,0-.44,1c-.19.12-.38.24-.53.36l-2.14,1.6-.31.23L26,6.74l-4.75.73L20,7.65c-.95.12-1.93.25-2.94.48A19.85,19.85,0,0,0,14.48,9l-.9.33-.74.25a14.93,14.93,0,0,0-2.8,1.15,12.31,12.31,0,0,0-2.42,1.64A5.83,5.83,0,0,0,6.42,14.1l-.11.22a32.21,32.21,0,0,1-2.17,3.31H3.92l-.52,0H3A3,3,0,0,0,1.6,23.27l.51.28a13.19,13.19,0,0,0,1.85.9,6.08,6.08,0,0,0,.18,2.86,4,4,0,0,0,4,2.65l.61,0H8.8a3.11,3.11,0,0,0,2.67-1.44,4.57,4.57,0,0,0,3,1,6.32,6.32,0,0,0,1.27-.14A3,3,0,0,0,18,25.7,5.34,5.34,0,0,0,17.32,24l1.4-1.18c.17-.15.34-.31.5-.46.36,0,.76.07,1.18.11s.82.09,1.21.12l.65,0c0,.14,0,.3,0,.44a8.77,8.77,0,0,0,.45,2.62,3.12,3.12,0,0,0,.35.67,4.15,4.15,0,0,0,2.56,2.89,3.71,3.71,0,0,0,1.3.23h.1a3.75,3.75,0,0,0,.92.39,8,8,0,0,0,1.74.18,3.7,3.7,0,0,0,2.51-.8,3.32,3.32,0,0,0,1.17-2.51,3.77,3.77,0,0,0-1.47-2.89l-.07-.06c0-.1,0-.2,0-.3a8.29,8.29,0,0,1,0-1.67l.1-.91.1-.91c0-.06,0-.13,0-.2a5.65,5.65,0,0,0,1.46-1.32,9.67,9.67,0,0,0,1.25-2.6c.1-.28.19-.54.27-.72a6.32,6.32,0,0,1,.69-.71l.35-.33.26,0,.75-.07c3.81-.46,4.92-2.83,4.71-4.72A4.63,4.63,0,0,0,39.27,6a4.19,4.19,0,0,0-.82-1.51,3.73,3.73,0,0,0-1.06-.84,3.3,3.3,0,0,0-.75-2.38,3.07,3.07,0,0,0-2-1.07A3,3,0,0,0,33.45,0Z"/></g><path class="d" d="M36.66,8a5.08,5.08,0,0,0-.47-1.48C35.91,6.16,35,6,34.61,5.86c-.54-.25-.41-.29-.39-.93s.33-1.72.07-1.72L33.66,4c0-.35.22-.79-.21-1-.35.6-.71,1.19-1,1.79a12.08,12.08,0,0,1-.64,1.43,6.15,6.15,0,0,1-1.15.86l-2.14,1.6a3.89,3.89,0,0,1-1.92,1l-4.79.74c-1.31.2-2.68.32-4,.61a31,31,0,0,0-3.2,1.09,18,18,0,0,0-3.06,1.18,10.15,10.15,0,0,0-1.83,1.2,5.69,5.69,0,0,0-.77,1.29A35,35,0,0,1,6.5,19.5a2,2,0,0,1-1.52,1,6.76,6.76,0,0,1-2,.09c1.14.6,2.26,1.41,3.63,1.25,1-.12,2.2-1.13,3.07-1.67a8.84,8.84,0,0,1-1.1,1.16c-.5.38-1.22.46-1.41,1.06A7.45,7.45,0,0,0,7,24.18,6.6,6.6,0,0,0,7,26.26c.28.74.92.73,1.57.69.46,0,.41.1.43-.37s-.13-.43-.38-.75a2.61,2.61,0,0,1,.6-3.15,9.28,9.28,0,0,1,2-.87l2-.87c-.47.54-.94.89-1,1.61s.4.93.52,1.58a4,4,0,0,0,.54,1.9,1.87,1.87,0,0,0,1.91.44,2.09,2.09,0,0,0-.54-1.11,1.48,1.48,0,0,1-.56-1A4.2,4.2,0,0,1,13.8,23c.08-.26.84-.7,1-.87.64-.54,1.29-1.07,1.93-1.62s1-1.14,1.76-1.18a25.47,25.47,0,0,1,3.31.24l1.78.13a3.22,3.22,0,0,1,1,.07c.47.27.5,1.69.57,2.14a15.77,15.77,0,0,0,.34,2.68c0,.12.22.15.27.26a3.63,3.63,0,0,1,.15.6,1.3,1.3,0,0,0,.74,1c.35.13.84-.11,1.2,0s.5.43.85.53a4.08,4.08,0,0,0,1.51,0c.35-.3-.13-.71-.32-.87s-.81-.41-1-.73a5.51,5.51,0,0,1-.12-1.68,11.31,11.31,0,0,1,0-2.22l.2-1.82a4.84,4.84,0,0,1,.15-1.32c.33-.68,1.44-1,1.9-1.65A14.67,14.67,0,0,0,32.32,14a8.34,8.34,0,0,1,1.9-2.19c.69-.71,1.56-.59,2.53-.71.72-.09,2.2-.37,2.08-1.4C38.76,9,37.24,8.36,36.66,8ZM27.31,25.15c-.81-.32-.33-2.8-.29-3.41a11.84,11.84,0,0,0,.72,3.7Z"/></svg>