<svg xmlns="http://www.w3.org/2000/svg" width="41.5" height="33.629" viewBox="0 0 41.5 33.629"><title>drone</title><g id="Layer_2" data-name="Layer 2"><g id="Layer_1-2" data-name="Layer 1"><path d="M19.9657,33.2538a.364.364,0,0,1-.1025-.0146c-.7593-.2158-1.1812-1.0059-1.2544-2.3477L18.6024,30.4l-6.1577-.3789a.3745.3745,0,0,1-.3521-.374V26.4159a.3751.3751,0,0,1,.3623-.375l6.0928-.2021c-.0269-2.2051-.0557-3.3359-.083-4.4258-.0278-1.1006-.0547-2.1592-.0776-4.2334L1.5341,15.4052a.3752.3752,0,0,1-.3311-.3125L.38,10.0907a.3753.3753,0,0,1,.3687-.4355l15.7021-.0576V3.69c.0332-1.9287,1.1851-3.041,3.4238-3.3125,2.3418.2773,3.4829,1.3916,3.4829,3.3125V9.5975l17.394.0576a.3753.3753,0,0,1,.3687.4355l-.8228,5.002a.3748.3748,0,0,1-.334.3125L21.5395,17.1805l-.0361,4.0078c-.02,1.707-.0405,2.0391-.061,2.375-.02.3242-.0391.6523-.0591,2.2764l6.062.2012a.3751.3751,0,0,1,.3623.375v3.2314a.3745.3745,0,0,1-.3521.374l-6.126.377-.0063.4775c-.0737,1.3574-.4956,2.1475-1.2549,2.3633A.364.364,0,0,1,19.9657,33.2538Z" fill-rule="evenodd"/><path d="M19.9194.75c1.9911.2449,3.0631,1.1639,3.0631,2.9406V9.9711h0L40.75,10.03l-.8231,5.0022L21.1717,16.84l-.0038-.0106-.04,4.3559c-.0408,3.4747-.0818,1.2059-.1245,5.0076l-.0268.0078,6.4557.2155v3.2313l-6.4739.3976v-.0114l-.0268.013.0267-.0016q-.0052.4179-.01.8259c-.0686,1.2549-.4342,1.8509-.9826,2.0078-.5483-.1569-.914-.7529-.9824-2.0078-.0034-.264-.0068-.5512-.01-.8372l-.02.0121-6.4855-.3985V26.4163l6.46-.2156,0-.0077c-.0564-4.9113-.1214-4.7762-.169-9.3634l-.033.0084L1.5731,15.0321.75,10.03l16.0546-.0585h.021V3.6906C16.8562,1.9139,17.8977.9949,19.9194.75m0-.75a.7555.7555,0,0,0-.09.0054c-3.0564.37-3.7282,2.2014-3.7536,3.6722V9.2242L.7473,9.28a.75.75,0,0,0-.7373.8718l.823,5.0022a.75.75,0,0,0,.6615.6241l16.5212,1.74c.0222,1.8544.0474,2.8507.074,3.8992.0261,1.0287.053,2.0919.0785,4.059l-5.7258.1911a.75.75,0,0,0-.725.75v3.2313a.75.75,0,0,0,.704.7486l5.81.357.0016.1276c.0838,1.549.5969,2.4534,1.526,2.7193a.75.75,0,0,0,.4127,0c.9291-.2659,1.4422-1.17,1.5251-2.688l.0021-.1609,5.7792-.355a.75.75,0,0,0,.704-.7486V26.4163a.75.75,0,0,0-.725-.75l-5.6948-.19c.0185-1.303.0365-1.6008.0541-1.89.0212-.35.0412-.68.0613-2.392l.0335-3.672,18.0873-1.7437a.75.75,0,0,0,.6681-.6248l.8231-5.0022a.75.75,0,0,0-.7376-.8718l-17.02-.0563V3.6906c0-1.4722-.6456-3.3066-3.7215-3.6849A.7538.7538,0,0,0,19.9194,0Z" fill="#fff"/></g></g></svg>