<svg xmlns="http://www.w3.org/2000/svg" viewBox="0 0 44 31.76"><defs><style>.cls-1{fill:#1a2026;}</style></defs><g id="Layer_2" data-name="Layer 2"><g id="Layer_1-2" data-name="Layer 1"><path class="cls-1" d="M4.57,21.54c3.64-9.27,7.16-12.3,9.8-13.27a19.72,19.72,0,0,0,5.32-2.55c2.24-1.56,2.24-2.34,4.21-3.55a15.22,15.22,0,0,1,6.66-2,15.94,15.94,0,0,1,7.11.54c1.67.56,4,1.31,5.3,3.57,1,1.69,1.55,4.34.34,6.09-.17.25-1.08,1.57-2.33,1.45A2.2,2.2,0,0,1,39.6,11a1.21,1.21,0,0,1-.74.3c-.68,0-1.4-.67-1.65-1.74a20,20,0,0,1-2.37,2.05l-.86.6a7,7,0,0,1-1.65,9.43,18.79,18.79,0,0,1-1.22-2.44c-.51-1.24-.6-1.83-1.11-2.88a11.19,11.19,0,0,0-1.33-2.11,12.89,12.89,0,0,1-6,3.75,12.77,12.77,0,0,1-7,0,20.87,20.87,0,0,0-8.77,7.19c.18.59,1,3.58-.62,5.63-.27.34-.81,1-1.33.91-1.2-.23-.88-4.24-2.25-4.57C1.91,27,1.15,28.29.49,28S0,26.36,0,26.22C.26,23.44,4,21.8,4.57,21.54Z"/></g></g></svg>