<svg xmlns="http://www.w3.org/2000/svg" viewBox="0 0 44 31.76"><defs><style>.cls-1{fill:#1a2026;}</style></defs><g id="Layer_2" data-name="Layer 2"><g id="Layer_1-2" data-name="Layer 1"><path class="cls-1" d="M39.43,21.54c-3.64-9.27-7.16-12.3-9.8-13.27a19.72,19.72,0,0,1-5.32-2.55c-2.24-1.56-2.24-2.34-4.21-3.55a15.22,15.22,0,0,0-6.66-2A15.94,15.94,0,0,0,6.33.71C4.66,1.27,2.35,2,1,4.28,0,6-.52,8.62.69,10.37c.17.25,1.08,1.57,2.33,1.45A2.2,2.2,0,0,0,4.4,11a1.21,1.21,0,0,0,.74.3c.68,0,1.4-.67,1.65-1.74a20,20,0,0,0,2.37,2.05l.86.6a7,7,0,0,0,1.65,9.43,18.79,18.79,0,0,0,1.22-2.44c.51-1.24.6-1.83,1.11-2.88a11.19,11.19,0,0,1,1.33-2.11,12.89,12.89,0,0,0,6,3.75,12.77,12.77,0,0,0,7,0,20.87,20.87,0,0,1,8.77,7.19c-.18.59-1,3.58.62,5.63.27.34.81,1,1.33.91,1.2-.23.88-4.24,2.25-4.57.82-.2,1.58,1.11,2.24.8s.49-1.62.48-1.76C43.74,23.44,40,21.8,39.43,21.54Z"/></g></g></svg>