<svg xmlns="http://www.w3.org/2000/svg" viewBox="0 0 34.47 37.86"><defs><style>.cls-1{fill:#1a2026;}</style></defs><g id="Layer_2" data-name="Layer 2"><g id="Layer_1-2" data-name="Layer 1"><path class="cls-1" d="M32.18,2.61c.06-.39,2.29-1.2,2.29-1.2A3.14,3.14,0,0,0,33,1.32c.5-.32,1.07-.6,1.07-.6a2.77,2.77,0,0,0-1.69.07c-.56.17-.86.84-1,1.27L31.16,2a5.28,5.28,0,0,0-1.38-.35,7.49,7.49,0,0,1-1.13-.16c-.44-.05-.88-.08-1.32-.15s-.71-.2-1.07-.25a3.72,3.72,0,0,0-1.45,0,4.73,4.73,0,0,0-1.12.43A2.12,2.12,0,0,0,22.51.16,3.25,3.25,0,0,0,20.78.07a13.51,13.51,0,0,1,1.28.64,3.22,3.22,0,0,0-1.55.3A12.48,12.48,0,0,1,23,1.93c-.3.42-.6.84-.92,1.25A5.17,5.17,0,0,0,21.34,5a14.43,14.43,0,0,0-.52,3,.26.26,0,0,1-.18.25A1.73,1.73,0,0,0,20,9a19.06,19.06,0,0,0-1.41,2.91,1.27,1.27,0,0,1-.26.39,9.89,9.89,0,0,0-1.61,1.81c-.14.24-.29.47-.44.69A.65.65,0,0,1,16,15a12,12,0,0,0-2.54,1.77c-.59.54-1.21,1.07-1.77,1.65a13.07,13.07,0,0,0-1.16,1.42,4.84,4.84,0,0,1-.81.76A8.13,8.13,0,0,0,8.1,22.62c-.46.78-.88,1.59-1.29,2.4a8.09,8.09,0,0,0-.4,1.07c-.08.26-.32.29-.49.42-.47.35-1,.66-1.44,1s-1.11.86-1.64,1.32-.89.81-1.33,1.23-.59.58-.85.89a4.35,4.35,0,0,0-.6.89c-.18.38.08.68.5.59.27-.06.53-.16.79-.24.09.37.42.51.83.27a11.31,11.31,0,0,0,1-.77,1.56,1.56,0,0,1,.19-.14,1.32,1.32,0,0,1-.21.68A15.19,15.19,0,0,0,1.46,34.9c-.21.47-.49.9-.7,1.36a1.39,1.39,0,0,0-.17,1c.13.41.36.56.8.39a4.9,4.9,0,0,0,.88-.51L4,36l.1-.05.05,0c-.1.14-.2.29-.31.43s-.4.46-.59.7a.9.9,0,0,0-.12.3c-.07.25.11.47.35.4a9.24,9.24,0,0,0,1.45-.51c.82-.42,1.63-.87,2.43-1.34,1.12-.66,2.21-1.37,3.32-2,.95-.56,1.83-1.2,2.73-1.82.4-.27.69-.62,1.05-.91A1.2,1.2,0,0,1,15,31a4.41,4.41,0,0,0,.91-.3l.22-.11c0,.55,0,1.08,0,1.6a1.49,1.49,0,0,0,0,.21,1,1,0,0,0,.17-.12s0,0,.07-.1c.05.24.08.42.12.6.12.46.24.93.35,1.39a.29.29,0,0,1-.17.36c-.53.26-1.06.51-1.58.78-.09,0-.15.16-.23.23a1.63,1.63,0,0,1-.29.23,4.06,4.06,0,0,0-.62.33,4.42,4.42,0,0,0-.53.68s.08.14.11.13a.83.83,0,0,0,.35-.1,3,3,0,0,1,1.58-.36,2.82,2.82,0,0,0,1.8-.57,2.28,2.28,0,0,1,1.22-.33c.23,0,.47,0,.7-.07a2.16,2.16,0,0,1,1,0,12.49,12.49,0,0,0,1.6.29,1.1,1.1,0,0,0,.53-.11,1.31,1.31,0,0,1,1.55.57,1.66,1.66,0,0,0,.13.14,1.53,1.53,0,0,0,.11-.16.21.21,0,0,0,0-.11,2.92,2.92,0,0,0-.62-1.53,3.61,3.61,0,0,1-.57-.67.61.61,0,0,0-.19-.17,3.5,3.5,0,0,0-1.48-.42c-.39,0-.78,0-1.19,0,0-.26,0-.5,0-.77.28.07.28-.1.29-.26,0-.46,0-.93.08-1.39a3.16,3.16,0,0,1,.11-.75,1.06,1.06,0,0,1,.31-.4l.89-.77c.09-.08.16-.19.26-.3.11.29.3.25.51.17a4.78,4.78,0,0,0,1.57-.92c.45-.41,1-.76,1.4-1.19.67-.66,1.32-1.35,1.95-2.06.3-.34.54-.73.82-1.12.41.17.55-.21.76-.41a6.17,6.17,0,0,0,1.1-1.71c.31-.6.66-1.19,1-1.77a4,4,0,0,0,.54-1.6,16.18,16.18,0,0,0-.05-3.68c0-.41-.16-.81-.24-1.22,0-.06,0-.18.06-.21a1.61,1.61,0,0,0,.59-.77c.23-.42.46-.85.65-1.28s.24-.65.35-1c.22-.62.47-1.23.63-1.86a9.43,9.43,0,0,0,.16-1.51A4.65,4.65,0,0,0,33,3.47,4.76,4.76,0,0,0,32.18,2.61Z"/></g></g></svg>