<svg xmlns="http://www.w3.org/2000/svg" viewBox="0 0 34.47 37.86"><defs><style>.cls-1{fill:#1a2026;}</style></defs><g id="Layer_2" data-name="Layer 2"><g id="Layer_1-2" data-name="Layer 1"><path class="cls-1" d="M2.29,2.61C2.23,2.22,0,1.41,0,1.41a3.11,3.11,0,0,1,1.49-.09C1,1,.42.72.42.72A2.77,2.77,0,0,1,2.11.79c.56.17.86.84,1,1.27L3.31,2a5.28,5.28,0,0,1,1.38-.35,7.49,7.49,0,0,0,1.13-.16c.44-.05.88-.08,1.32-.15s.71-.2,1.07-.25a3.72,3.72,0,0,1,1.45,0,4.73,4.73,0,0,1,1.12.43A2.12,2.12,0,0,1,12,.16,3.26,3.26,0,0,1,13.69.07a13.51,13.51,0,0,0-1.28.64A3.22,3.22,0,0,1,14,1a12.73,12.73,0,0,0-2.54.92c.31.42.61.84.92,1.25A5.38,5.38,0,0,1,13.13,5a14.43,14.43,0,0,1,.52,3,.26.26,0,0,0,.18.25,1.73,1.73,0,0,1,.68.76,19.06,19.06,0,0,1,1.41,2.91,1.27,1.27,0,0,0,.26.39,10.28,10.28,0,0,1,1.61,1.81,8.09,8.09,0,0,0,.44.69.56.56,0,0,0,.21.16A11.74,11.74,0,0,1,21,16.74c.6.54,1.22,1.07,1.78,1.65a14.36,14.36,0,0,1,1.16,1.42,4.84,4.84,0,0,0,.81.76,8.09,8.09,0,0,1,1.64,2.05c.47.78.89,1.59,1.3,2.4a8.09,8.09,0,0,1,.4,1.07c.08.26.32.29.49.42.47.35,1,.66,1.44,1s1.11.86,1.64,1.32.89.81,1.33,1.23.59.58.85.89a4.35,4.35,0,0,1,.6.89c.18.38-.08.68-.5.59-.27-.06-.53-.16-.79-.24-.09.37-.42.51-.83.27a11.31,11.31,0,0,1-1.05-.77,1.56,1.56,0,0,0-.19-.14,1.32,1.32,0,0,0,.21.68A15.19,15.19,0,0,1,33,34.9c.2.47.49.9.7,1.36a1.39,1.39,0,0,1,.17,1c-.13.41-.36.56-.81.39a4.5,4.5,0,0,1-.87-.51c-.57-.37-1.13-.76-1.69-1.13l-.1-.05-.05,0c.1.14.2.29.31.43s.4.46.58.7a.74.74,0,0,1,.13.3.3.3,0,0,1-.36.4,9.49,9.49,0,0,1-1.44-.51c-.82-.42-1.63-.87-2.43-1.34-1.12-.66-2.21-1.37-3.33-2-.94-.56-1.82-1.2-2.72-1.82-.4-.27-.69-.62-1.05-.91a1.23,1.23,0,0,0-.62-.26,4.32,4.32,0,0,1-.9-.3l-.22-.11c0,.55,0,1.08,0,1.6a1.49,1.49,0,0,1,0,.21,1,1,0,0,1-.17-.12s0,0-.07-.1c-.05.24-.08.42-.12.6l-.36,1.39a.3.3,0,0,0,.18.36c.53.26,1.06.51,1.58.78.09,0,.15.16.22.23a2.92,2.92,0,0,0,.29.23,3.74,3.74,0,0,1,.63.33,4.42,4.42,0,0,1,.53.68s-.08.14-.11.13a.83.83,0,0,1-.35-.1A3,3,0,0,0,19,36.42a2.82,2.82,0,0,1-1.8-.57,2.28,2.28,0,0,0-1.22-.33c-.23,0-.47,0-.7-.07a2.16,2.16,0,0,0-1,0,12.81,12.81,0,0,1-1.6.29,1.1,1.1,0,0,1-.53-.11,1.31,1.31,0,0,0-1.55.57,1.66,1.66,0,0,1-.13.14,1.53,1.53,0,0,1-.11-.16.21.21,0,0,1,0-.11,2.92,2.92,0,0,1,.62-1.53,3.61,3.61,0,0,0,.57-.67.52.52,0,0,1,.19-.17,3.5,3.5,0,0,1,1.48-.42c.39,0,.78,0,1.19,0,0-.26,0-.5,0-.77-.28.07-.29-.1-.29-.26,0-.46,0-.93-.08-1.39a3.16,3.16,0,0,0-.11-.75,1.17,1.17,0,0,0-.31-.4l-.89-.77c-.09-.08-.16-.19-.26-.3-.11.29-.3.25-.51.17a4.78,4.78,0,0,1-1.57-.92c-.45-.41-1-.76-1.4-1.19C8.23,26,7.58,25.35,7,24.64c-.3-.34-.54-.73-.82-1.12-.41.17-.55-.21-.76-.41a6.17,6.17,0,0,1-1.1-1.71c-.32-.6-.66-1.19-1-1.77A4,4,0,0,1,2.72,18a16.18,16.18,0,0,1,0-3.68c0-.41.16-.81.23-1.22a.22.22,0,0,0,0-.21,1.61,1.61,0,0,1-.59-.77c-.23-.42-.46-.85-.65-1.28s-.24-.65-.35-1A18.51,18.51,0,0,1,.73,8,8.41,8.41,0,0,1,.57,6.53a4.65,4.65,0,0,1,.9-3.06A4.76,4.76,0,0,1,2.29,2.61Z"/></g></g></svg>