<svg xmlns="http://www.w3.org/2000/svg" width="29" height="30.8" viewBox="0 0 29 30.8">
  <title>subject-eland</title>
  <g id="Layer_2" data-name="Layer 2">
    <g id="Layer_1-2" data-name="Layer 1">
      <g>
        <path d="M8.2,28.8l-.5-.7c-.2-.4-.6-1-.8-1.5A6,6,0,0,1,6.1,25a6.6,6.6,0,0,1-.3-2.1c.1-.4,0-.8.1-1.2s.4-.9.5-1.3.1-1,.2-1.4A3,3,0,0,1,7,18a2.5,2.5,0,0,0,.2-1c.2-.8.7-.4,1.5,0v-.3a15.9,15.9,0,0,1,.3-2.9,15.6,15.6,0,0,0,0-5.7H7.7a14.7,14.7,0,0,1,0,2.1A21.9,21.9,0,0,1,7.1,15v.7l-.4-.6a19.2,19.2,0,0,1,.3-3.7A19.3,19.3,0,0,0,6.9,8H6.7a8.2,8.2,0,0,0-3.5.3A4.5,4.5,0,0,0,.7,9.7,4.8,4.8,0,0,0,0,12.1a7.6,7.6,0,0,0,.5,3.4,2.9,2.9,0,0,1,0,1.6c-.2.3-.3.3-.2.8s.5,1.7.7,1.6v.4c0,.1.2.3.2.5s.1-1.7.1-2.1A5.3,5.3,0,0,0,1.3,17a6.9,6.9,0,0,1-.5-1.3,8.5,8.5,0,0,1-.5-2.4c0-.4.3-2.5.6-2.5,0,3,2.6,5.8,1.4,8.8a18.8,18.8,0,0,1-1.2,1.8c-.4.7-.1,1.8,0,2.7s.7,5,.4,5-.2.1-.1.4l.2.4c.2-.1.4-.3.6-.1s-.3.9.6,1,2-.1,1-.6h.1c-.2,0-.1-.4-.3-.5h0c-.5,0-.6-1-.6-1.4a14.6,14.6,0,0,1-.3-2.2,5.3,5.3,0,0,1,.2-2.2c0-.2.2-.9.5-1a11.1,11.1,0,0,0,.9,1.9l.8,1.5a14.2,14.2,0,0,1,1.2,2.5c.1,0,0,.9.1.9s.3-.1.3-.1.4,0,.5.2-.4.7.2.7.5.2.7.2h1C9.6,30,8.3,28.9,8.2,28.8Z" fill="#1a2026" fill-rule="evenodd"/>
        <path d="M10.7,8.1h-1a23.2,23.2,0,0,1-.3,7.3L9,17.3l1.1.4.4-.7.4-1.1a21.4,21.4,0,0,0,.6-3.5A25.4,25.4,0,0,0,10.7,8.1Z" fill="#1a2026" fill-rule="evenodd"/>
        <path d="M28.1,5c-.4.2-.7.8-1.2.9s.1-.3.2-.5.1-.2.1-.4,0-.5-.1-.9.2-.4.2-.6a3.2,3.2,0,0,0,.3-1.4c0-.5,0-1.3-.3-1.6a10.1,10.1,0,0,1-.4,2l-.6,1c-.2.4-.1.8-.3,1.2s-.5.4-.5.6-.8-.3-.7-.4-.5-.8-.6-1.1a3.3,3.3,0,0,0-.6-1l-.7-1.2c-.2-.4-.8-1.6-1.3-1.6s.5,1,.6,1.5a5.6,5.6,0,0,0,.4,1.2c.2.6.5.8.5,1.6s.1.5.2.7-.1.2,0,.3.4-.1.4.1v.4c-.4,0-.8-.6-1-.8l-.5-.4c-.3-.1-.4-.3-.7-.3a3,3,0,0,0,1,2l.4.4c.1.1.2.4.4.4a1.7,1.7,0,0,1-1.7,1.5L20.5,8A5.2,5.2,0,0,0,17,7.2h-.1c0,.5.1,1,.1,1.5V9c0,.3.2,2,.3,2.7V12a3.7,3.7,0,0,1-.1,1.7,4.6,4.6,0,0,1-.8,2.5l-1,1.2.6-1.5a9.2,9.2,0,0,0,.5-3.7c0-.4-.4-3.1-.6-4.8h0L14.4,8l.3,1.4s.3,1.7.5,3c.2,3.3-1.4,4.6-1.5,4.6h-.1l-1.7.7,1.5-1.1a6.3,6.3,0,0,0,.9-2.7,43.4,43.4,0,0,0-.7-5.8H11.4v.2s.5,1.7.8,3.2a9.9,9.9,0,0,1-.9,5.1c-.3.4-.5.7-.6.7l-.5.4,2.5.3,1.7-.2c.3,0,.7-.2.9-.1s0,1.5,0,1.8-.1,1.5-.3,2.4a20.6,20.6,0,0,0-.2,2.1,4.6,4.6,0,0,1-.2,1.4,8,8,0,0,1-.3,1.5,4.5,4.5,0,0,1-.2.8,8.7,8.7,0,0,0-.2,1h.4c-.2.6-.2,1.1.2,1.4a3.4,3.4,0,0,0,2,0c-.1-.2,0-.3-.1-.5s-.3-.3-.3-.5l-.4-.4a6.1,6.1,0,0,1-.1-1.9,8.8,8.8,0,0,1,.2-1.6c.1-.6.4-.8.7-1.3a7.1,7.1,0,0,0,.4-2.1c.1-.3.6-2.4.7-2.6a.7.7,0,0,1,.5-.4,10.7,10.7,0,0,1,.5,2.1c.1.8.4,1.6.5,2.3a5.3,5.3,0,0,0,.3,1.2c.1.2.1.9.2,1.3s.1,1.2.1,1.8,0,.8.2,1.1.2.1.5.3,0,.7.4.9a2,2,0,0,0,1.7,0c0-.2-.5-.8-.4-1s-.8-.9-.9-1.5-1.1-2.7-.5-3a6.7,6.7,0,0,0,.1-1.6,4.4,4.4,0,0,0-.2-1.3,6.2,6.2,0,0,1,.2-2.3c0-.6,0-.5.4-.8l.5-.3c.1-.1,0-.1.2-.2h.4c.1,0,.3-.3.6-.2l.4.3h.4l.4-.2h.4c.3-.3.3-1,.4-1.2a22.3,22.3,0,0,1,.3-2.7l.6-1.8a16.8,16.8,0,0,0,.9-3.2c.1-.4,0-.9.3-1.3l.7-.8c.7-.7,1.2-.9,1.2-2Z" fill="#1a2026" fill-rule="evenodd"/>
      </g>
    </g>
  </g>
</svg>
