<svg xmlns="http://www.w3.org/2000/svg" viewBox="0 0 59.26 37.09"><defs><style>.a{opacity:0.8;}.b{fill:#fff;}.c{fill:#1a2026;}</style></defs><title>Asset 71</title><g class="a"><path class="b" d="M55.44,21.08a9.55,9.55,0,0,0,.58-6c-1.11-5.22-6.24-11-11.94-10.68-2.85.17-5.43,1.3-8.31.76C33.33,4.72,31,3.8,28.44,4a5.72,5.72,0,0,1-2.9-.61,5.71,5.71,0,0,0-3.62-.2A11.72,11.72,0,0,0,19,4.59c-.86.49-1.91.67-2.8,1.14a12.08,12.08,0,0,0-4.32,4.42,18.56,18.56,0,0,0-1.15,2.57c-.19.46-.28.45-.77.65a14.49,14.49,0,0,1-1.43.49A13.28,13.28,0,0,1,5,14.38c-.43,0-1.89-.32-2,.17-.33,1.21,6.42.86,7.08.72A9.89,9.89,0,0,0,10,18.56a19.54,19.54,0,0,0,.46,4.14,28.65,28.65,0,0,0,1.06,3.69c.14.37.29,1.16.73,1s.13-.77.34-1,.6-.13.59-.63a9.49,9.49,0,0,0-.55-1.59,13.07,13.07,0,0,1-.51-4,11.37,11.37,0,0,1,1.23-4.3c.27-.55.34-.67.93-.79.18,0,.36-.11.54-.15.4-.09.34-.07.68.09a1.49,1.49,0,0,0,1.69,0c.18-.1.84-.75,1.05-.74s.44.39.6.44a2,2,0,0,0,.76,0,3,3,0,0,1,1.66-.08c-.31.49-.82,1.25-.39,1.75s1.68.46,2.28.42S25.47,16.6,26,16a13.09,13.09,0,0,1,.75,3.57,18.82,18.82,0,0,1,.12,4.09c-.15,2.39.68,4.7.11,7a5.89,5.89,0,0,1-1,1.8c-.38.61-.66,1.34.27,1.45A16.81,16.81,0,0,0,30,34c1.41-.19.67-2,.91-3.07.05-.21.85-3.38.92-3.38.1.89.63,1.77.77,2.68.16,1.13-.4,2.15-.29,3.25.06.63.3.51.89.51h1.92c.63,0,1.61.25,1.78-.46a6.21,6.21,0,0,0-.26-1.92c-.16-1-.4-2-.5-3a20.08,20.08,0,0,1,.76-6.55,17,17,0,0,0,4.61,1.64,8.29,8.29,0,0,1,2.12.39c.59.31.83,1,1.53,1.06A6.25,6.25,0,0,0,46.89,25c.82-.12,1.18-.17,1.8.43a6.58,6.58,0,0,1,2.12,3.89,5.17,5.17,0,0,1-.18,2.26c-.21.59-.88,1.65-.27,2.23.42.4,1.38.18,1.95.18a16.58,16.58,0,0,0,2.23,0c1.46-.2.7-2.57.69-3.59a34.59,34.59,0,0,0-.53-4.8,10.69,10.69,0,0,1-.19-2.52A6.77,6.77,0,0,1,55.44,21.08Zm-1.45,0c-.52-.54-.53-1.75-.61-2.46a3.26,3.26,0,0,1,.36-2.49c.23-.33.35-.7.66-.28.18.24.11.76.13,1A8.78,8.78,0,0,1,54,21.09Z"/><path class="b" d="M23.45,3a5.54,5.54,0,0,1,2.08.4A6.25,6.25,0,0,0,28,4l.42,0c.26,0,.51,0,.77,0,2.24,0,4.38.78,6.57,1.19a8.72,8.72,0,0,0,1.6.14c2.26,0,4.39-.77,6.7-.9h.47C50.06,4.4,54.94,10,56,15.09a9.55,9.55,0,0,1-.58,6,6.77,6.77,0,0,0-.94,2,10.69,10.69,0,0,0,.19,2.52,34.59,34.59,0,0,1,.53,4.8c0,1,.76,3.39-.69,3.59a5.23,5.23,0,0,1-.72,0c-.5,0-1,0-1.51,0h0c-.29,0-.69.06-1.07.06a1.25,1.25,0,0,1-.87-.24c-.6-.58.06-1.64.27-2.23a5.17,5.17,0,0,0,.18-2.26,6.58,6.58,0,0,0-2.12-3.89,1.43,1.43,0,0,0-1.08-.5,5.29,5.29,0,0,0-.72.08,10.12,10.12,0,0,1-1.43.19l-.34,0c-.7-.11-.93-.75-1.53-1.06a8.29,8.29,0,0,0-2.12-.39,17,17,0,0,1-4.61-1.64,20.08,20.08,0,0,0-.76,6.55c.09,1,.34,2,.5,3a6.21,6.21,0,0,1,.26,1.92c-.1.42-.48.5-.9.5s-.61,0-.86,0H32.75c-.29,0-.42-.07-.47-.52-.11-1.1.46-2.12.29-3.25-.13-.91-.67-1.79-.77-2.68-.07,0-.87,3.17-.92,3.38-.24,1,.5,2.87-.91,3.07a14.08,14.08,0,0,1-1.85.11,17.14,17.14,0,0,1-1.91-.1c-.93-.11-.65-.84-.27-1.45a5.89,5.89,0,0,0,1-1.8c.58-2.35-.26-4.66-.11-7a18.82,18.82,0,0,0-.12-4.09A13.09,13.09,0,0,0,26,16c-.54.57-2.17.67-2.89.72l-.67,0a2.24,2.24,0,0,1-1.62-.45c-.43-.51.08-1.26.39-1.75a1.45,1.45,0,0,0-.54-.1,8.82,8.82,0,0,0-1.12.18l-.4,0a1.23,1.23,0,0,1-.36,0c-.16-.05-.49-.44-.6-.44h0c-.22,0-.87.64-1,.74a1.67,1.67,0,0,1-.84.28,2.08,2.08,0,0,1-.85-.25c-.21-.1-.26-.14-.37-.14a1.68,1.68,0,0,0-.31.05c-.18,0-.36.11-.54.15-.6.12-.66.25-.93.79a11.37,11.37,0,0,0-1.23,4.3,13.07,13.07,0,0,0,.51,4,9.49,9.49,0,0,1,.55,1.59c0,.51-.31.28-.59.63s.13.81-.34,1a.33.33,0,0,1-.14,0c-.34,0-.47-.66-.59-1a28.65,28.65,0,0,1-1.06-3.69A19.54,19.54,0,0,1,10,18.56a9.89,9.89,0,0,1,.14-3.29A25.69,25.69,0,0,1,7,15.43c-2,0-4.13-.18-3.94-.88.06-.21.36-.27.73-.27s1,.1,1.3.1H5a13.28,13.28,0,0,0,3.48-.52A14.49,14.49,0,0,0,10,13.37c.49-.19.58-.19.77-.65a18.56,18.56,0,0,1,1.15-2.57A12.08,12.08,0,0,1,16.2,5.74c.9-.48,1.94-.66,2.8-1.14A11.72,11.72,0,0,1,21.91,3.2,6.13,6.13,0,0,1,23.45,3M54,21.09a8.78,8.78,0,0,0,.54-4.2c0-.28.05-.8-.13-1s-.18-.19-.25-.19-.25.24-.42.47a3.26,3.26,0,0,0-.36,2.49c.09.71.09,1.92.61,2.46M23.45,0h0a9.15,9.15,0,0,0-2.3.3A12.24,12.24,0,0,0,18,1.73L17.52,2a6.57,6.57,0,0,1-.93.36,11.93,11.93,0,0,0-1.81.74,14.75,14.75,0,0,0-5.47,5.5A13.46,13.46,0,0,0,8.26,10.8L7.72,11a10.41,10.41,0,0,1-2.63.41l-.18,0a10.54,10.54,0,0,0-1.18-.08,3.49,3.49,0,0,0-3.62,2.5,3.29,3.29,0,0,0,.57,2.87c1,1.3,2.69,1.78,6.26,1.78q0,.08,0,.15a22.56,22.56,0,0,0,.53,4.77,31.26,31.26,0,0,0,1.18,4.08l0,.08c.79,2.5,2.46,2.87,3.38,2.87a3.31,3.31,0,0,0,1.42-.32A3.41,3.41,0,0,0,15.3,28a3.35,3.35,0,0,0,.83-2.36,5.35,5.35,0,0,0-.56-2.09l-.09-.22a10.07,10.07,0,0,1-.41-3,7.62,7.62,0,0,1,.49-2.16,4.17,4.17,0,0,0,.75.07,4.35,4.35,0,0,0,1.88-.44,4,4,0,0,0,.36.5,5,5,0,0,0,3.9,1.5c.33,0,.63,0,.86,0l.43,0,0,.33a15.79,15.79,0,0,1,.09,3.46A19.75,19.75,0,0,0,24,26.93a9.71,9.71,0,0,1,0,3l-.18.25c-.14.2-.33.44-.51.74a4,4,0,0,0-.46,4,3.62,3.62,0,0,0,2.93,2,20,20,0,0,0,2.26.12,17.29,17.29,0,0,0,2.26-.14,4.57,4.57,0,0,0,1-.24,3.61,3.61,0,0,0,1.41.27H35.3L36,37a3.67,3.67,0,0,0,3.82-2.81,5.92,5.92,0,0,0-.15-2.76c0-.12-.05-.22-.07-.32-.06-.39-.14-.78-.21-1.17-.11-.58-.21-1.13-.26-1.63a10.57,10.57,0,0,1,0-2.12c.58.17,1.17.32,1.76.44a9.94,9.94,0,0,0,1,.13l.27,0a4.43,4.43,0,0,0,2.49,1.31,5.26,5.26,0,0,0,.79.06A8.57,8.57,0,0,0,47,28h0a3.27,3.27,0,0,1,.81,1.63,2.28,2.28,0,0,1,0,.93l-.08.19c-1,2.19-.76,3.94.56,5.21A4.1,4.1,0,0,0,51.23,37c.32,0,.61,0,.84,0l.24,0,.59,0,.91,0A8.16,8.16,0,0,0,55,37a4,4,0,0,0,3.42-3.56,9.25,9.25,0,0,0-.09-2.54c0-.18-.06-.42-.06-.51a31.34,31.34,0,0,0-.46-4.53l-.1-.67,0-.18a10.22,10.22,0,0,1-.15-1.42l.15-.24a9.12,9.12,0,0,0,.54-1A12.47,12.47,0,0,0,59,14.47a18.12,18.12,0,0,0-4.89-8.75A13.65,13.65,0,0,0,44.55,1.4l-.64,0a26.26,26.26,0,0,0-3.47.5,17,17,0,0,1-3.05.4,5.71,5.71,0,0,1-1.05-.09c-.63-.12-1.28-.27-2-.44A21.68,21.68,0,0,0,29.2,1c-.34,0-.69,0-1,0H28A3.75,3.75,0,0,1,26.65.62,8.54,8.54,0,0,0,23.45,0Z"/></g><path class="c" d="M55.44,21.08a9.55,9.55,0,0,0,.58-6c-1.11-5.22-6.24-11-11.94-10.68-2.85.17-5.43,1.3-8.31.76C33.33,4.72,31,3.8,28.44,4a5.72,5.72,0,0,1-2.9-.61,5.71,5.71,0,0,0-3.62-.2A11.72,11.72,0,0,0,19,4.59c-.86.49-1.91.67-2.8,1.14a12.08,12.08,0,0,0-4.32,4.42,18.56,18.56,0,0,0-1.15,2.57c-.19.46-.28.45-.77.65a14.49,14.49,0,0,1-1.43.49A13.28,13.28,0,0,1,5,14.38c-.43,0-1.89-.32-2,.17-.33,1.21,6.42.86,7.08.72A9.89,9.89,0,0,0,10,18.56a19.54,19.54,0,0,0,.46,4.14,28.65,28.65,0,0,0,1.06,3.69c.14.37.29,1.16.73,1s.13-.77.34-1,.6-.13.59-.63a9.49,9.49,0,0,0-.55-1.59,13.07,13.07,0,0,1-.51-4,11.37,11.37,0,0,1,1.23-4.3c.27-.55.34-.67.93-.79.18,0,.36-.11.54-.15.4-.09.34-.07.68.09a1.49,1.49,0,0,0,1.69,0c.18-.1.84-.75,1.05-.74s.44.39.6.44a2,2,0,0,0,.76,0,3,3,0,0,1,1.66-.08c-.31.49-.82,1.25-.39,1.75s1.68.46,2.28.42S25.47,16.6,26,16a13.09,13.09,0,0,1,.75,3.57,18.82,18.82,0,0,1,.12,4.09c-.15,2.39.68,4.7.11,7a5.89,5.89,0,0,1-1,1.8c-.38.61-.66,1.34.27,1.45A16.81,16.81,0,0,0,30,34c1.41-.19.67-2,.91-3.07.05-.21.85-3.38.92-3.38.1.89.63,1.77.77,2.68.16,1.13-.4,2.15-.29,3.25.06.63.3.51.89.51h1.92c.63,0,1.61.25,1.78-.46a6.21,6.21,0,0,0-.26-1.92c-.16-1-.4-2-.5-3a20.08,20.08,0,0,1,.76-6.55,17,17,0,0,0,4.61,1.64,8.29,8.29,0,0,1,2.12.39c.59.31.83,1,1.53,1.06A6.25,6.25,0,0,0,46.89,25c.82-.12,1.18-.17,1.8.43a6.58,6.58,0,0,1,2.12,3.89,5.17,5.17,0,0,1-.18,2.26c-.21.59-.88,1.65-.27,2.23.42.4,1.38.18,1.95.18a16.58,16.58,0,0,0,2.23,0c1.46-.2.7-2.57.69-3.59a34.59,34.59,0,0,0-.53-4.8,10.69,10.69,0,0,1-.19-2.52A6.77,6.77,0,0,1,55.44,21.08Zm-1.45,0c-.52-.54-.53-1.75-.61-2.46a3.26,3.26,0,0,1,.36-2.49c.23-.33.35-.7.66-.28.18.24.11.76.13,1A8.78,8.78,0,0,1,54,21.09Z"/></svg>