<svg xmlns="http://www.w3.org/2000/svg" viewBox="0 0 58.8 36.07"><defs><style>.a{opacity:0.8;}.b{fill:#fff;}.c{fill:#1a2026;}</style></defs><title>Asset 70</title><g class="a"><path class="b" d="M54.61,6.49c.64,0,.37.42.66.67.1.09.4.09.45.16.25.38-.3,1.54-.49,1.9a6.35,6.35,0,0,1-2.94,2.62,13.76,13.76,0,0,1-4.4,1.45,18.15,18.15,0,0,1-2.17.17c-.42,0-2.3-.47-2.38.05s1.66,1.34,2,1.51a8,8,0,0,0,3,.73,8.45,8.45,0,0,0,3-.25c.31-.1.73-.43,1-.08s-.22.67-.55.82a10.81,10.81,0,0,1-6.88.3,9.76,9.76,0,0,1-3.1-1.45c-.51-.37-.48-.19-1.08,0A1.67,1.67,0,0,1,39.62,15c-.59-.22-1.71-1.38-2.42-1-.37.2-.09,1.87,0,2.24.09.55.16.65-.41.92a2.72,2.72,0,0,1-.93.24c-.27,0-3.06.1-3-.44-.15,1-.63,1.67-.5,2.76A22.59,22.59,0,0,0,33.17,23c.74,2.69.39,5.65,1.41,8.26.18.47.53,1.24-.09,1.61a3,3,0,0,1-1.17.07c-.61,0-2.71.32-3.08-.24-.27-.4.13-1.15.19-1.56a6.36,6.36,0,0,0-.07-1.75c-.09-.68-.18-2.41-.82-2.83a19.31,19.31,0,0,1-.48,3.11,4.87,4.87,0,0,0,0,1.44c.08.42.44.95.36,1.37-.12.66-.75.47-1.29.46s-1.05,0-1.58,0c-.34,0-1.06.08-1.33-.18s.18-1.63.23-2.1a23.08,23.08,0,0,0-.17-6.86c-.11-.62-.24-1.23-.4-1.84a4,4,0,0,0-.39-1.26c-.32-.39,0-.28-.43-.15a5.15,5.15,0,0,0-.79.5c-.51.28-1.06.49-1.6.73a9.85,9.85,0,0,1-3.45.86c-.55,0-1.11.09-1.66.1a4.71,4.71,0,0,0-2.26.15,3.91,3.91,0,0,0-.91.9,4.65,4.65,0,0,1-1.3.93,4,4,0,0,0-1.67,2,4.73,4.73,0,0,0,.23,3.68,4.37,4.37,0,0,1,.53,2c-.06.54-.33.56-.87.58C9.08,33,7.77,33,6.5,33c-.33,0-.73.08-.93-.24s0-1.11,0-1.45A12.43,12.43,0,0,1,6.33,28,6.31,6.31,0,0,0,6.9,24.4a42.7,42.7,0,0,0-.5-4.3,14.09,14.09,0,0,1-.82-3.74c-.78.6-.9,2-1,2.88a28.23,28.23,0,0,0-.1,3.13A21.13,21.13,0,0,0,4.91,26c.21,1.31-.79,2.22-.78,3.46-.7-.42-.23-1.81-.07-2.4-.54.07-.48,1.49-.49,1.86-1.2-1-.24-2.19.18-3.3s0-2.64-.07-3.88A22.61,22.61,0,0,1,4,15.12a11.39,11.39,0,0,1,1.81-4c.82-1.19,1.55-2.51,2.43-3.65,1.84-2.4,5.4-3.19,8.27-2.66S22,5.93,24.67,4.65a22.7,22.7,0,0,1,2.54-1.3,9,9,0,0,1,4.74-.06c.74.2,1.42.74,2.14.9C35,4.39,36,3.66,37,3.9c2.29.54,3.5,2.77,5.14,4.24a9,9,0,0,0,6.3,2.05,9.26,9.26,0,0,0,4.31-1.11A4.26,4.26,0,0,0,54.11,8a2.58,2.58,0,0,0,.37-.67c.07-.18.07-.67.19-.8Z"/><path class="b" d="M29.74,3h.15a8.36,8.36,0,0,1,2.06.28c.74.2,1.42.74,2.14.9a1.69,1.69,0,0,0,.36,0c.69,0,1.41-.37,2.14-.37a1.9,1.9,0,0,1,.44,0c2.29.54,3.5,2.77,5.14,4.24a8.85,8.85,0,0,0,5.93,2.06h.37a9.26,9.26,0,0,0,4.31-1.11A4.26,4.26,0,0,0,54.11,8a2.58,2.58,0,0,0,.37-.67c.07-.18.07-.66.18-.8.57,0,.33.42.61.67.1.09.4.09.45.16.25.38-.3,1.54-.49,1.9a6.35,6.35,0,0,1-2.94,2.62,13.76,13.76,0,0,1-4.4,1.45,18.15,18.15,0,0,1-2.17.17h0c-.28,0-1.15-.19-1.75-.19-.34,0-.59.06-.62.24-.1.62,1.66,1.34,2,1.51a8,8,0,0,0,3,.73l.84,0a7.14,7.14,0,0,0,2.11-.27,2.67,2.67,0,0,1,.68-.23.34.34,0,0,1,.29.16c.32.46-.22.67-.55.82A9.19,9.19,0,0,1,48,17a12,12,0,0,1-3.14-.42,9.76,9.76,0,0,1-3.1-1.45.84.84,0,0,0-.46-.22,4.43,4.43,0,0,0-.62.18,1.75,1.75,0,0,1-.43.06,1.73,1.73,0,0,1-.62-.12c-.5-.19-1.4-1.07-2.1-1.07a.66.66,0,0,0-.32.08c-.37.2-.09,1.87,0,2.24.09.55.16.65-.41.92a2.72,2.72,0,0,1-.93.24c-.08,0-.36,0-.72,0-.91,0-2.33-.08-2.27-.47-.15,1-.63,1.67-.5,2.76A22.59,22.59,0,0,0,33.17,23c.74,2.69.39,5.65,1.41,8.26.18.47.53,1.24-.09,1.61A1.12,1.12,0,0,1,34,33l-.62,0h0c-.32,0-1.07.1-1.75.1s-1.15-.07-1.33-.33.13-1.15.19-1.56a6.36,6.36,0,0,0-.07-1.75c-.09-.68-.18-2.41-.82-2.83a19.31,19.31,0,0,1-.48,3.11,4.87,4.87,0,0,0,0,1.44c.08.42.44.95.36,1.37s-.35.49-.67.49-.41,0-.61,0H26.1a1.25,1.25,0,0,1-.82-.19c-.38-.38.18-1.63.23-2.1a23.08,23.08,0,0,0-.17-6.86c-.11-.62-.24-1.23-.4-1.84a4,4,0,0,0-.39-1.26.62.62,0,0,1-.16-.27.64.64,0,0,1-.28.12,5.15,5.15,0,0,0-.79.5c-.51.28-1.06.49-1.6.73a9.85,9.85,0,0,1-3.45.86c-.55,0-1.11.09-1.66.1h0c-.39,0-.82-.06-1.24-.06a2,2,0,0,0-1,.21,3.91,3.91,0,0,0-.91.9,4.65,4.65,0,0,1-1.3.93,4,4,0,0,0-1.67,2,4.73,4.73,0,0,0,.23,3.68,4.37,4.37,0,0,1,.53,2c-.06.54-.33.56-.87.58s-1.12,0-1.68,0c-.73,0-1.45,0-2.17,0H6.15a.61.61,0,0,1-.58-.24c-.19-.3,0-1.11,0-1.45A12.43,12.43,0,0,1,6.33,28,6.31,6.31,0,0,0,6.9,24.4a42.7,42.7,0,0,0-.5-4.3,14.09,14.09,0,0,1-.82-3.74c-.78.6-.9,2-1,2.88a28.23,28.23,0,0,0-.1,3.13A21.13,21.13,0,0,0,4.91,26c.21,1.31-.79,2.22-.78,3.46-.7-.42-.23-1.81-.07-2.4-.54.07-.48,1.49-.49,1.86-1.2-1-.24-2.19.18-3.3s0-2.64-.07-3.88A22.61,22.61,0,0,1,4,15.12a11.39,11.39,0,0,1,1.81-4c.82-1.19,1.55-2.51,2.43-3.65a8.19,8.19,0,0,1,6.51-2.82,9.69,9.69,0,0,1,1.75.16,25.64,25.64,0,0,0,4.58.6,8.07,8.07,0,0,0,3.56-.76,22.7,22.7,0,0,1,2.54-1.3A8.15,8.15,0,0,1,29.74,3M54.67,6.49h0m0,0h0M29.74,0a11,11,0,0,0-3.47.5,11.25,11.25,0,0,0-2.14,1c-.27.16-.53.31-.75.41a5.09,5.09,0,0,1-2.27.47,20.36,20.36,0,0,1-3.56-.46l-.48-.09a12.69,12.69,0,0,0-2.3-.21,11.13,11.13,0,0,0-8.9,4C5.27,6.43,4.75,7.25,4.26,8c-.31.49-.6.95-.89,1.37a14.37,14.37,0,0,0-2.27,5A25.28,25.28,0,0,0,.69,22c0,.42.09.81.14,1.2a6.24,6.24,0,0,1,.1,1.41c-.05.13-.12.28-.19.43-.44,1-1.78,3.85.8,6.11a3.68,3.68,0,0,0,1,.85A3.86,3.86,0,0,0,3,34.32,3.52,3.52,0,0,0,6.15,36h.29c.57,0,1.38,0,2.23,0,.66,0,1.26,0,1.84,0a3.53,3.53,0,0,0,3.7-3.26,6.35,6.35,0,0,0-.66-3.24l-.08-.2a2.13,2.13,0,0,1-.24-1.37,1.08,1.08,0,0,1,.38-.51l.09,0a7.16,7.16,0,0,0,2-1.48l.09-.11c.28,0,.56,0,.83,0h.06c.66,0,1.27-.05,1.89-.11a12.91,12.91,0,0,0,3.93-.9,20.06,20.06,0,0,1,.09,5.45l-.05.19c-.28,1-.86,3,.68,4.51A4.06,4.06,0,0,0,26.1,36h2.14l.56,0a4,4,0,0,0,1.06-.14,6.31,6.31,0,0,0,1.71.2c.54,0,1.07,0,1.45-.07l.32,0h.08L34,36A3.93,3.93,0,0,0,36,35.48c.65-.39,2.67-1.92,1.36-5.22l0-.06a14.32,14.32,0,0,1-.66-3.77,23.59,23.59,0,0,0-.65-4.19c-.08-.3-.17-.61-.26-.91s-.18-.62-.26-.91c.21,0,.45,0,.63,0A5.66,5.66,0,0,0,38,19.88a3.78,3.78,0,0,0,1.87-1.76h.32a4.64,4.64,0,0,0,.59,0,13.17,13.17,0,0,0,3.23,1.37A15,15,0,0,0,48,20a12.16,12.16,0,0,0,5-1,3.8,3.8,0,0,0,2.3-2.41,3.39,3.39,0,0,0-.44-2.73,8.4,8.4,0,0,0,3.1-3.29c.46-.92,1.53-3.06.3-4.91a3,3,0,0,0-.8-.82,3.45,3.45,0,0,0-2.61-1.35l-.14.06V3.49h0v.07h0l0-.08h-.05V3.6l-2.16.93a3.48,3.48,0,0,0-.78,1.73,2.06,2.06,0,0,1-.34.23,6.25,6.25,0,0,1-2.91.71H48.1a5.91,5.91,0,0,1-3.92-1.29A16,16,0,0,1,43,4.7,10.25,10.25,0,0,0,37.72,1,4.91,4.91,0,0,0,36.59.85a7.15,7.15,0,0,0-1.85.28l-.16,0-.23-.12A8,8,0,0,0,32.72.39,11.36,11.36,0,0,0,29.92,0ZM54.67,9.49h0Z"/></g><path class="c" d="M54.61,6.49c.64,0,.37.42.66.67.1.09.4.09.45.16.25.38-.3,1.54-.49,1.9a6.35,6.35,0,0,1-2.94,2.62,13.76,13.76,0,0,1-4.4,1.45,18.15,18.15,0,0,1-2.17.17c-.42,0-2.3-.47-2.38.05s1.66,1.34,2,1.51a8,8,0,0,0,3,.73,8.45,8.45,0,0,0,3-.25c.31-.1.73-.43,1-.08s-.22.67-.55.82a10.81,10.81,0,0,1-6.88.3,9.76,9.76,0,0,1-3.1-1.45c-.51-.37-.48-.19-1.08,0A1.67,1.67,0,0,1,39.62,15c-.59-.22-1.71-1.38-2.42-1-.37.2-.09,1.87,0,2.24.09.55.16.65-.41.92a2.72,2.72,0,0,1-.93.24c-.27,0-3.06.1-3-.44-.15,1-.63,1.67-.5,2.76A22.59,22.59,0,0,0,33.17,23c.74,2.69.39,5.65,1.41,8.26.18.47.53,1.24-.09,1.61a3,3,0,0,1-1.17.07c-.61,0-2.71.32-3.08-.24-.27-.4.13-1.15.19-1.56a6.36,6.36,0,0,0-.07-1.75c-.09-.68-.18-2.41-.82-2.83a19.31,19.31,0,0,1-.48,3.11,4.87,4.87,0,0,0,0,1.44c.08.42.44.95.36,1.37-.12.66-.75.47-1.29.46s-1.05,0-1.58,0c-.34,0-1.06.08-1.33-.18s.18-1.63.23-2.1a23.08,23.08,0,0,0-.17-6.86c-.11-.62-.24-1.23-.4-1.84a4,4,0,0,0-.39-1.26c-.32-.39,0-.28-.43-.15a5.15,5.15,0,0,0-.79.5c-.51.28-1.06.49-1.6.73a9.85,9.85,0,0,1-3.45.86c-.55,0-1.11.09-1.66.1a4.71,4.71,0,0,0-2.26.15,3.91,3.91,0,0,0-.91.9,4.65,4.65,0,0,1-1.3.93,4,4,0,0,0-1.67,2,4.73,4.73,0,0,0,.23,3.68,4.37,4.37,0,0,1,.53,2c-.06.54-.33.56-.87.58C9.08,33,7.77,33,6.5,33c-.33,0-.73.08-.93-.24s0-1.11,0-1.45A12.43,12.43,0,0,1,6.33,28,6.31,6.31,0,0,0,6.9,24.4a42.7,42.7,0,0,0-.5-4.3,14.09,14.09,0,0,1-.82-3.74c-.78.6-.9,2-1,2.88a28.23,28.23,0,0,0-.1,3.13A21.13,21.13,0,0,0,4.91,26c.21,1.31-.79,2.22-.78,3.46-.7-.42-.23-1.81-.07-2.4-.54.07-.48,1.49-.49,1.86-1.2-1-.24-2.19.18-3.3s0-2.64-.07-3.88A22.61,22.61,0,0,1,4,15.12a11.39,11.39,0,0,1,1.81-4c.82-1.19,1.55-2.51,2.43-3.65,1.84-2.4,5.4-3.19,8.27-2.66S22,5.93,24.67,4.65a22.7,22.7,0,0,1,2.54-1.3,9,9,0,0,1,4.74-.06c.74.2,1.42.74,2.14.9C35,4.39,36,3.66,37,3.9c2.29.54,3.5,2.77,5.14,4.24a9,9,0,0,0,6.3,2.05,9.26,9.26,0,0,0,4.31-1.11A4.26,4.26,0,0,0,54.11,8a2.58,2.58,0,0,0,.37-.67c.07-.18.07-.67.19-.8Z"/></svg>