<svg xmlns="http://www.w3.org/2000/svg" viewBox="0 0 43.3 33"><defs><style>.a{fill-rule:evenodd;}</style></defs><path class="a" d="M40.2,6.1a6.6,6.6,0,0,0-2.3-2.5c-2.4-.6-.5-2-3.6-3.6-.2,0-.3.7-.1,1.4s.5,1.3.5,1.7-1-1.1-1.4-1.4-1.4-.9-1.7-.6-.1.8,1.3,3c.1.2-.7,1.1-.9,1.2a5.1,5.1,0,0,1-4.2,1.4l-1.2-.3a3.4,3.4,0,0,1-1.1-.7,1.2,1.2,0,0,1-.5-.5,5.7,5.7,0,0,0-2.6-1.1A12.5,12.5,0,0,0,20,3.9H18.2L17,4.3a15.7,15.7,0,0,1-4.2.4L9.5,4.4A10.8,10.8,0,0,0,3,6.1c-.2.1-3.3,1.7-3,2.8s.4.4.7,1.1a7.9,7.9,0,0,1,.4,1.2C1.4,13,2.7,14.5,2.6,16A6.4,6.4,0,0,1,.2,20.2c-.5,2.8.1,6.5.1,9.9a2,2,0,0,0,.1,1.3l.2-.5.5,1H2.8v-.3L1.7,30.4c-.1-2.7-.6-5.6.6-8.1a32.3,32.3,0,0,1,1.1,7.2,1.8,1.8,0,0,0,.3,1.2,1.1,1.1,0,0,0,.2-.4,4.7,4.7,0,0,1,.5,1H6v-.4a7.6,7.6,0,0,1-.9-.9A10.6,10.6,0,0,1,4,23.7a12.1,12.1,0,0,1,1.6-4.3A13.3,13.3,0,0,0,7,17.7c.6-.7.9-1.2,1.5-1.3h.8a2.9,2.9,0,0,1,1.3.9,6.6,6.6,0,0,0,4.1,2c1.6.2,3.1-.5,3.3,0v.2c-1.5,6.6-2.6,11.2-2.7,11.6s-.1.2-.1.5l.2.5.2-.5a5.4,5.4,0,0,1,.5,1.1h1.6v-.4a2,2,0,0,0-.8-.8c.3-2.6.3-4.2,1.6-6.6S21.1,19,22,18.4c2.5,5,4.7,8.2,5.9,13.8,0,.1.2.2.2.3l.2-.5a4.7,4.7,0,0,1,.5,1h1.6v-.3a1.9,1.9,0,0,0-.7-.8,17.5,17.5,0,0,1-2.5-6.2c0-2.2-1.5-5.3-1.9-8-.1-.2.6-.7.7-.9s.4-1.4,1-1.8l.7-.4c.6-.1,1.1.2,1.7.1a4.1,4.1,0,0,0,1.7-.4A4.3,4.3,0,0,0,32.5,13a12,12,0,0,0,.9-1.2,6.4,6.4,0,0,1,2.7-2.2c1.6.8,3.1.6,4.5.9s1.8.8,1.8,0C45.2,10.7,40.3,6.4,40.2,6.1Z"/></svg>