<svg xmlns="http://www.w3.org/2000/svg" viewBox="0 0 44 44">
    <defs>
        <style>.a{fill-rule:evenodd;}</style>
    </defs>
    <path class="a"
          d="M14.88,27.31c-1-1.84-2.25-1.56-3-2.82-1.45-.17-1.11-.43-2.38-.43-1.1-1.75-1.93-1.6-2.26-4.1-.58-.09-.43-1-.38-1.66l-1.29,0a1.16,1.16,0,0,1-.55.41c-.13.24-.84.08-1.1.08a1.48,1.48,0,0,1-.58-1.57A7.57,7.57,0,0,0,4.8,15.37a2.26,2.26,0,0,1,1.11-2.24c0-.29,0-.21-.34-.23-.29-.31-.57-.63-.85-.94-1.93-.1-2-.53-3.6-1.65.88-.76,1.94,1.06,3,1.06-.12-.27-.54-.89-.33-1.24C6.67,12,4.71,9.1,3,8.56S.85,6.41,0,5.05c1.24.08,1.29,3,3.15,2.71-.06-1-.86-5.87-1.1-6.64C2.84.9,3.1,3.21,3.3,3.88c.88,0,1.5-2.59,1.64-3.27.63,0,.25,1,.19,1.7A7,7,0,0,0,8.29,1C8.83,2,5.78,2.82,5.1,2.92c-3,4-.79,5.52,2.42,9.07.72,0,1.36-.26,1.36-1.09C7,9.21,6.93,8.75,7.55,6.22c.42.28-.48,3.57,2.2,4.09l2.1-2.15c.74-1.32.46-3,.24-4.76,1,.32.88,3.52.91,4.44,1.59-1.58,1.7-2,1.7-3.88A5.91,5.91,0,0,1,13.29.72c1,.4.8,2.09,1.55,2.16A16.18,16.18,0,0,0,15.49,0c.84,1.34-.25,2.26,0,4.27,1.12-.74,2.21-2.42,1.79-3.71,1.62.94-.52,3.66-1.59,4.44A7,7,0,0,1,13,8.8a13.15,13.15,0,0,0-3.43,3.4c0,1.17,4.08-1.56,4.36.34a7.79,7.79,0,0,0-3.11,1.12c.72,1.26,1.69,2.36,4.83,2.05a24.79,24.79,0,0,1,9-1h8.24a4.63,4.63,0,0,1,3.08.16c4.59,1.27,7.9,2.58,8,7.54-1.14-.49-1.82-2.07-2.21-2.35-1.06,2.69-4.2,6.32.43,10.91.53,2.81-.14,6.55-.13,10.05a1.38,1.38,0,0,1-.1,1.3s-.05-.16-.14-.48a3.23,3.23,0,0,0-.54,1.06l-1.68,0v-.36c.27-.42.75-.8,1.1-1.23.05-2.74.61-5.7-.63-8.19a31.39,31.39,0,0,0-1.17,7.33c.18.43,0,.81-.29,1.25,0,0,0-.16-.14-.48a3.29,3.29,0,0,0-.54,1H36.29v-.36c.1-.17,1-.83,1-.92.5-4.08,2.54-9.63-.58-10.78Q34,28.74,31.22,27.31c-1.4.69-4,.88-7.87.58,1.37,3.44,2.38,10,3.55,14.15a1.05,1.05,0,0,1-.18,1s0-.16-.13-.48a3.29,3.29,0,0,0-.54,1.05H24.37v-.37a2.38,2.38,0,0,1,.82-.79c-.27-2.61-.23-4.31-1.61-6.72-1.5-3.52-2.58-6-3.51-6.61-2.6,5.11-4.83,8.3-6,14,0,0-.24.21-.26.25L13.67,43a3.19,3.19,0,0,0-.54,1H11.45v-.37a2.39,2.39,0,0,1,.78-.77,19.38,19.38,0,0,0,2.55-6.28c0-2.22,1.47-5.44,1.94-8.21C16.37,27.94,15.2,27.89,14.88,27.31Z"/>
</svg>
