<svg xmlns="http://www.w3.org/2000/svg" viewBox="0 0 41.41 30.7"><defs><style>.cls-1{fill:#1a2026;}</style></defs><g id="Layer_2" data-name="Layer 2"><g id="Layer_1-2" data-name="Layer 1"><path class="cls-1" d="M41.41,7.77c-.92-.36-.86-.49-.22-.4-.8-.18-1.25-1-.12-.57-2-.82,1.85.53-.85-.57.54-1.14-.92-.89-1.6-1.48-.27-.13-1.06-.64-.74-.89-.9,0-.43-.44-.38-1-.33,1.23-.52.29-.07-.48-.41,1-.6,1.54-.62.06-.05.75-.28.06-.21-.33-.17.45.23.9.14,1.37-.23-.31-.29-.87-.17-.16.19.54-.58-.39-.61-.67.16.53.65,1.25,0,.76-.36.21-.26-.28-.39-.1s.07-.28-.14-.08-.27,0-.14-.21c-.33.19-.21.07-.21-.16,0,0-.1.1-.16.15s.08-.41,0-.21c-.26.45.14-.66-.18-.12.11-.38,0-.22,0-.36.13-.32.08-.3-.08-.14,0-.15.07-.5-.07-.17,0-.77-.17.23-.12-.45,0-.12,0-.13-.06,0,0-.77-.83-.33-.72-1.11-.09,1.11-.35-1.32-.17.18-.58-1.18-.33-.4,0,.27-.58-.65.38.46-.19,0,1,.51.4,2,.1,2.66C31.59,2,31.3,3.15,30.54,2.22c.3.26.52.58.06.15.29.37-.11,0-.36,0,.85.36,0,.09,1.07.5-.53-.11.12.09.32.1-.94-.05-1.1-.13,0,.11,0,.95.52,2.55-.63,2.59.58.15-.21.34-.43.43.56.2-1.51.67-1.07.64C25.38,8,23.8,8.92,20.26,8.62c-.68.1-4.47-.24-3.67-.08-.57-.2-4.3-.51-3.4-.29-2-.2-6.16.24-7,.78-.21.23-1.48.14-.79.28-.28.07-2.42.34-1.49.35-.2.12-.53-.14-.58-.17.32.51-.24,0-.45-.14s.31.37.15.26c-.32-.39-.19-.14-.4-.36s-.19-.55-.18-.14c-.08-.17-.13-.43-.18-.53-.08.06.13.67-.07.24-.1-.21-.22-.6-.17-.13-.08-.26-.15-.33-.1,0-.12-.79,0,.11-.4-.29-.11,0,.51.64.06.25-.09-.06-.3-.34-.21-.1s0,0-.12,0c.26.48,0,.12-.24.06,0,.14.41.24,0,.2-.08,0,.49.22.18.14-.71-.26.23.22-.3.06,0,.13,0,.17.28.24-.21,0-.48,0-.15.11-.46,0,0,0-.29.24.2,0,0,.25.08.46s.22.17.17.61c.12-.13.09.17.19-.09.06.12.06.46.15.24.27.49.31.6.69.61,0,.27.13-.09.14.12.08-.09.11.21.2,0-.07.32.06.07.14.13s.16.32.26.13c.3.32.28.12.85.05-.44.31,1-.19.82,0s.34-.36.36-.32a4.54,4.54,0,0,0-.47,1.52c0,.41.07,0,.13-.19-.11.76.14.72,0,1.15.27.09-.32.66.19.33-.17.33.2.15-.14.55.33-.2,0,.14.07.21.26-.24.12,0-.07.09s.19.08.26,0c-.28.33.08.14-.25.44.22-.06.29-.09.08.11.46-.09,0,.15.41.09-.39.19-.4.2,0,.19-.07.12-.26.16-.35.2.07.08.31-.05.22.15s-.36.3,0,.15c0,.14-.28.34,0,.15,0,.12-.25.35-.06.24-.16.19-.12.22.12.05-.29.36-.25.49.07.1,0,.3-.64.47-.36.5,0,.25.09,0,.38,0-.61.59.25.07-.29.47.17,0,1-.33.47-.06.29.1-.29.16-.33.26,1-.09.07.78-.36.89.41.08-.71.58.22.17a.57.57,0,0,1-.49.3c.44.09,0,.28-.26.34s.14.07.15.08a2.22,2.22,0,0,1-.49.14c.47.13,0,.11-.28.19s-.55.38-.16.15c.94-.28-.09.34-.56.52,1-.1-.95.37-.1.27-1,.3-.18.11-.54.33s-.45.21,0,.15C-.55,21.68,0,23.72.28,25.35a19,19,0,0,0,1,4.2c0,.22.46.34.5.33-.41,0-.1.2,0,.31-.18,0-.23,0-.07.11-.19,0-.31,0-.1.07s.25.12.57.06c-.55.29-.13.25.19,0,.6.5,1.49,0,1.8.19,1.39.27,2.08-2.2.32-2.26-1.7.88-1.48-1.83-1.69-3.08.14.37.08,0,0-.19.26.47.14.11.31.28-.1-.17-.19-1.31,0-.29,0-.29.09-.29.13-.35.08.46,0,0,.31-.16,0,.58.06-.13.3-.16-.15.55-.06.24.28-.1-.16.78.1,0,.3-.23-.16.44-.22.49-.12.69,0-.06.16-.5.23-.4s-.06.17.06,0c.41-.47-.15.15.13,0-.18.38.28-.24.37-.3.45-.22-.17.2-.16.34.77-.7.12.27.74-.5-.32.49.19,0,.28-.27-.19.55-.13.53.13,0-.36,1,.05-.06.13.43,0,.05.11-.73.14-.48.06.51.11.5.13,0,.09-.28,0,.72.12.28.07-.24,0-.19.11,0,.09-.34,0-.37.2-.09.06,0-.06-.33,0-.3,0,.19.13,0,.16.25.09-.24.19.14.24-.27.07.14.13.23.11.05.06.23.06-.27.11-.13s0,.21.06.22.09-.46.14,0c.14-.15.24-.54.2-.06.33-.34.09-.46.28,0,.07-.66.27,1.28.47,1.66a5.34,5.34,0,0,1,.87,1.51c.07.37.09-.19.06-.33.12.34.72.71.83,1.12s.08-.12,0-.26c.36.13.52,1,.51.41,1.08,1.32,4.84,2.53,5.45.55.13-1.36-1.67-1.39-2.51-1-3.7-2.7-1.38-3.33-.44-4.89,0,.19,0,.68,0,.21.1-.78.23.08.23-.62.08.61.13-.24.28-.34-.2.74,0,.4.19-.08-.17.67.3,0,.23-.53.09.43.14.72.15.08.05.09.13.31.11.06s-.14-.33,0,0c.12-.06,0-.61.22-.19,0-.12-.08-.55.08-.22s0-.25,0-.39c.08.1.17.42.19.41s0-1.46.09-.86,0,.59.12.11a.81.81,0,0,0,.1.29s-.05-1,0-.54c.24,1.18,0-1,.17-.15,0,.32,0,.71.11.16.09.42.09,0,.06-.17.15.13.2.87.24.39s.14.23.14,0c.1.13-.05-.41,0-.55.16-.64.11,1.55.26.28,0,.15,0,.46.1.15,0,.23,0,.28.07,0,.26.61-.06-.17.25.16-.38-1,.25.5.05-.37.22.87.33.66.15-.11.23.43.43.85.18.11.58.94.36.38.27-.46.23.11.25,1,.33.43.37.64-.07-1.06.43-.13.23.11-.13.85.13.37.05-.2.07.09.09.06s0-.29,0-.39c.35,1.29,0-.32.14-.38.22.44.23,1.5.26.35.16.36,0,1,.16.28.1.12.2.8.21.41.14.58-.05-1.83.16.28.14-.84,0-.72.15,0,.09-.41.16-.09.08-.93.11.61.16,1,.15.14.18.67.13.17.07-.2.06.24.1.66.13.16.16.75,0-.64.16-.84a7.14,7.14,0,0,1,0,.92c0,.26,0,.26.06,0,.1-.67.06,1.28.22,0,.07.81.11.69.13,0,.45,1.56-.15-1.32.19,0,.1.12.05.49,0,.55s.2-.6.27-1.08c0,.49-.08,1.59.12.42.26,1,.09-.13.08-.48s.16,1.62.26.42c.1-.53-.1,1.39.16.17,0,.46.05.79.11.23.22.53.08-.08,0-.3-.05-.79.24.72.27.28-.09-.63.36.51,0-.54-.18-.67.31.41.25.65.15-.38.09,0,.18-.06-.15-.93,0-.6.15,0,0-.06,0-.37.1-.07.05-.3.11-.31.13.06.12,0,.15-.75.21-.17a3.35,3.35,0,0,0,.1-.72c.16,1,.21.46.14-.21.17-.16,0,1.09.17.57,0-.24.06.24.09.18a3.62,3.62,0,0,0-.05-.84l.07.18c.51,1.16-.12-.52.3.11.15.32.24.5.15,0,.19.52,0,0,.29.29-.38-.78.17.11.17,0,0,0-.35-.53-.22-.46s.21.75.3.36c.14.26.05,0,0-.16.09.07.27.35.25.26s-.23-.8-.08-.57c.12.63.23.79.16,0a1.4,1.4,0,0,1,.26,1.06c-.11.26.23-.18.19-.34a2.3,2.3,0,0,1,.1,1.06s.1-.13.11-.21c.06.24.17.71.16.38.06.2.07.59.21.24-.08.52.07.19.1-.12.09.4.12,1.34.2.51,0,.42-.07,1.25.09.45l.06.16a1.92,1.92,0,0,1,0,.55c.09,0,.09-.56.17-.12.06.19-.41.53-.07.35s0,.35,0,.41c.19-.21.06.53.28-.36.07.76-1.67,1.73-1.22,1.88,0,.06-.68.16-.23.17-.26.11-.38.2,0,.13-.75.25,0,0-.43.56s-.37,1-.35,1.68c.51,1.14,2,.29,2-.7.13-.53,1.81-2.39,1.68-.66-.12.6.67,1.58.09,1.67.06.08.34,0,.09.19.43-.07.19,0-.07.08.34.12.42,0,.18.3.33-.27.16.24.29.33.09-.21,0-.54.22-.13.55.67.66,2,1.72,2.08s2.85.4,3.34-.9a1.66,1.66,0,0,0-2.29-1.07c-1.79-2.15-.76-5.59-1.09-6.13.63.9,0-.14-.09-.6.52.94,0,0,0-.4.58.73-.1-.26,0-.61.26.86.26.41.12-.2.1.26.32.31.23.16-.33-.57.18.07-.2-.6.29,0,.35.46,0-.44.2.37.62.77.22.11.2.2.43.4.18,0s.27.22.27.19-.25-.48-.29-.75c.46.71.18.33.23,0,.14.33.2.42.1,0,.1,0,.45.22.19,0-.59-.46-.09-.24-.16-.38-.6-.83,1.19.37,0-.48.74.3.55.11,0-.17.69.21.25.09.51,0-.57-.14,0-.2.27-.22-.23-.14-.09-.08,0-.21a1.5,1.5,0,0,1-.7,0c.13-.22,1.14-.13.57-.28.48-.16-.18,0-.19-.09s.7,0,.34-.18c.41-.17.19-.11-.09-.09.71-.34.41-.56.54-1.23.07.72.12.38.15-.12,0-.3.11.35.13.24a.62.62,0,0,0,0-.2c.14.47.06-.56.06-.71.17.6,0-.13.27.28-.13-.55.07-.25,0-.79.28.57,0-.25.27.1a3,3,0,0,0-.13-.43c.09.1.17.16.19.15a2.18,2.18,0,0,0-.13-.28c-.26-.32.65.27.27,0-.33-.16.44.07.09-.1-.57-.47-.64-.58,0-.11.5.2-.59-.52-.2-.35.93.34-.21-.14-.19-.55,1,1,.15.2.13-.38.26.26.43,1.2.27.25.26.19.35.21.11,0,.53.15-.16-.15-.24-.35.25.22.08-.36.51.25-.42-.8-.06-.29.4-.22-1.63-.94.36-.11,0-.46-.09-.12.28-.14-.1-.13-.26-.39.27,0,.31,0s-.24-.45,0-.1c0-.19.42,0,0-.17-.23-.72.13,0,.19-.08s-.42-.56-.27-.47.37.8.41.38c.25.4.11,0,0-.32.33.21.31.74.34.16.23,0,.41.39.49.47,0-.27-.15-.36.12-.14.11.14,0,.1.13,0,.21.11-.24-.24-.1-.22.47.43,0,0,.39.21,0-.11.11,0,.12,0s-.45-.8-.2-.51.44.74.26.17c.21.15.11,0,.07-.15.36.15.07-.1,0-.23-.16-.63,0-.19.18.06a1.37,1.37,0,0,0-.12-.45c.23.4.3.38.1-.05.27.33.39.15,0-.2,0-.24.48.4.59.4a3,3,0,0,0-.39-.49c.21.18.74.63.32.15.52.12-.09-.08-.22-.24.58.28-.09-.06.43,0-.18-.13-.14-.06,0-.11-.13-.1-.32-.08,0-.11-.14,0-.38-.35-.07-.11,0,0-.11-.21-.13-.3.22.3.11.13,0-.29.34.64-.21-1.57.52.88-.24-1-.42-1.44.1-1.33,0,.14.22.06.26.42-.1-.14,0-.63,0-.35.43-.26.41,1.46.32,0,.35-.37.71.71,1.28.57a1.45,1.45,0,0,1-1-.68,1.94,1.94,0,0,0,1.27.54c-.79-.11-1.55-.62-.89-1,.06-.31.55.08.82-.09-.77,0-.73-.08-.53-.69,1.12,1.34-.54-.9.34,0C42.08,8.76,39.09,6.56,41.41,7.77ZM33.52.8h0ZM37.3,3.59s0,0,0,.06S37.29,3.61,37.3,3.59Zm-.51-.39c.09.42,0,.26,0-.06A.14.14,0,0,1,36.79,3.2ZM39,8.68Zm1.28-1.6c-.12-.34.42.14.53.24A.81.81,0,0,1,40.32,7.08Z"/></g></g></svg>