<svg xmlns="http://www.w3.org/2000/svg" viewBox="0 0 41.41 30.7"><defs><style>.cls-1{fill:#1a2026;}</style></defs><g id="Layer_2" data-name="Layer 2"><g id="Layer_1-2" data-name="Layer 1"><path class="cls-1" d="M0,7.77c.91-.36.86-.49.22-.4.8-.18,1.25-1,.11-.57,2-.82-1.84.53.85-.57-.53-1.14.92-.89,1.61-1.48.26-.13,1.06-.64.74-.89.89,0,.42-.44.38-1,.32,1.23.52.29.07-.48.41,1,.6,1.54.61.06.06.75.28.06.22-.33.16.45-.23.9-.15,1.37.24-.31.29-.87.18-.16-.2.54.58-.39.61-.67-.16.53-.66,1.25,0,.76.37.21.27-.28.39-.1S5.8,3,6,3.24s.26,0,.13-.21c.33.19.21.07.21-.16,0,0,.1.1.16.15s-.08-.41,0-.21c.27.45-.14-.66.19-.12-.11-.38,0-.22,0-.36-.12-.32-.07-.3.08-.14,0-.15-.06-.5.07-.17,0-.77.18.23.13-.45q-.08-.18.06,0c0-.77.83-.33.71-1.11.09,1.11.35-1.32.17.18.58-1.18.34-.4,0,.27.59-.65-.37.46.2,0-1,.51-.4,2-.1,2.66C9.81,2,10.11,3.15,10.86,2.22c-.29.26-.51.58,0,.15-.29.37.1,0,.35,0-.84.36,0,.09-1.06.5.52-.11-.12.09-.32.1.93-.05,1.09-.13,0,.11,0,.95-.52,2.55.62,2.59-.58.15.21.34.43.43-.56.2,1.52.67,1.07.64C16,8,17.61,8.92,21.14,8.62c.68.1,4.47-.24,3.67-.08.58-.2,4.31-.51,3.41-.29,2-.2,6.16.24,7,.78.2.23,1.48.14.79.28.28.07,2.42.34,1.49.35.19.12.53-.14.58-.17-.32.51.23,0,.45-.14s-.32.37-.16.26c.33-.39.19-.14.41-.36S39,8.7,39,9.11c.08-.17.13-.43.19-.53.07.06-.13.67.07.24.1-.21.21-.6.16-.13.09-.26.16-.33.11,0,.12-.79,0,.11.4-.29.11,0-.52.64-.06.25.09-.06.3-.34.21-.1s0,0,.12,0c-.26.48,0,.12.24.06,0,.14-.41.24,0,.2.07,0-.49.22-.18.14.71-.26-.23.22.3.06,0,.13,0,.17-.28.24.2,0,.48,0,.15.11.46,0,0,0,.29.24-.21,0,0,.25-.08.46s-.23.17-.18.61c-.12-.13-.08.17-.18-.09-.06.12-.07.46-.15.24-.27.49-.31.6-.7.61,0,.27-.12-.09-.13.12-.09-.09-.12.21-.2,0,.06.32-.07.07-.15.13s-.15.32-.25.13c-.3.32-.28.12-.85.05.43.31-1-.19-.83,0s-.34-.36-.36-.32a4.32,4.32,0,0,1,.47,1.52c0,.41-.06,0-.13-.19.11.76-.14.72,0,1.15-.27.09.32.66-.19.33.17.33-.21.15.14.55-.33-.2-.05.14-.07.21-.26-.24-.12,0,.06.09s-.19.08-.25,0c.27.33-.08.14.25.44-.22-.06-.29-.09-.09.11-.45-.09,0,.15-.4.09.38.19.39.2,0,.19.07.12.27.16.36.2-.08.08-.32-.05-.22.15s.36.3,0,.15c0,.14.28.34,0,.15,0,.12.25.35.05.24.16.19.12.22-.11.05.28.36.25.49-.08.1.06.3.65.47.37.5-.05.25-.09,0-.38,0,.6.59-.26.07.29.47-.17,0-1-.33-.48-.06-.28.1.3.16.33.26-1-.09-.06.78.37.89-.41.08.7.58-.22.17a.55.55,0,0,0,.48.3c-.43.09,0,.28.27.34s-.14.07-.16.08a2.22,2.22,0,0,0,.49.14c-.46.13,0,.11.28.19s.55.38.17.15c-.94-.28.09.34.56.52-1-.1.94.37.1.27,1,.3.18.11.53.33s.46.21.05.15c2.4-.13,1.89,1.91,1.57,3.54a19,19,0,0,1-1,4.2c.05.22-.46.34-.5.33.42,0,.1.2,0,.31.17,0,.22,0,.07.11.18,0,.31,0,.09.07s-.24.12-.56.06c.55.29.13.25-.19,0-.61.5-1.49,0-1.81.19-1.39.27-2.08-2.2-.31-2.26,1.69.88,1.48-1.83,1.68-3.08-.13.37-.07,0-.05-.19-.25.47-.13.11-.31.28.1-.17.19-1.31,0-.29a.55.55,0,0,0-.13-.35c-.09.46,0,0-.32-.16,0,.58-.06-.13-.3-.16.15.55.07.24-.27-.1.16.78-.1,0-.3-.23.16.44.22.49.11.69,0-.06-.16-.5-.22-.4s.06.17-.06,0c-.41-.47.15.15-.14,0,.19.38-.28-.24-.37-.3-.44-.22.17.2.16.34-.77-.7-.12.27-.74-.5.32.49-.18,0-.28-.27.2.55.13.53-.12,0,.36,1-.05-.06-.13.43,0,.05-.11-.73-.15-.48-.05.51-.1.5-.13,0-.08-.28,0,.72-.12.28-.07-.24,0-.19-.1,0-.1-.34,0-.37-.21-.09-.06,0,.06-.33,0-.3,0,.19-.13,0-.17.25-.08-.24-.19.14-.24-.27-.07.14-.12.23-.1.05-.06.23-.07-.27-.12-.13s0,.21,0,.22-.1-.46-.15,0c-.13-.15-.23-.54-.19-.06-.34-.34-.1-.46-.28,0-.07-.66-.27,1.28-.48,1.66-.75.81-.73,1.46-.87,1.51-.06.37-.09-.19-.06-.33-.12.34-.72.71-.82,1.12s-.09-.12,0-.26c-.36.13-.53,1-.52.41-1.07,1.32-4.83,2.53-5.44.55-.13-1.36,1.67-1.39,2.5-1,3.71-2.7,1.39-3.33.45-4.89,0,.19,0,.68-.05.21-.1-.78-.24.08-.24-.62-.07.61-.12-.24-.28-.34.2.74,0,.4-.19-.08.17.67-.3,0-.22-.53-.09.43-.14.72-.16.08-.05.09-.12.31-.1.06s.13-.33-.06,0c-.11-.06,0-.61-.22-.19,0-.12.09-.55-.07-.22s0-.25,0-.39c-.08.1-.17.42-.19.41s0-1.46-.1-.86c.05.61,0,.59-.11.11a.73.73,0,0,1-.11.29c-.05,0,.06-1,0-.54-.24,1.18,0-1-.18-.15,0,.32,0,.71-.11.16-.08.42-.09,0-.06-.17-.15.13-.19.87-.23.39s-.15.23-.15,0c-.09.13.06-.41,0-.55-.16-.64-.12,1.55-.27.28,0,.15,0,.46-.09.15,0,.23,0,.28-.07,0-.27.61.05-.17-.26.16.39-1-.25.5-.05-.37-.22.87-.33.66-.14-.11-.23.43-.44.85-.19.11-.57.94-.36.38-.27-.46-.23.11-.24,1-.33.43-.37.64.08-1.06-.42-.13-.24.11.12.85-.14.37,0-.2-.06.09-.09.06s.05-.29,0-.39c-.35,1.29,0-.32-.14-.38-.21.44-.23,1.5-.25.35-.17.36,0,1-.17.28-.1.12-.19.8-.2.41-.15.58,0-1.83-.17.28-.13-.84,0-.72-.14,0-.09-.41-.16-.09-.08-.93-.12.61-.17,1-.15.14-.18.67-.14.17-.08-.2-.06.24-.09.66-.13.16-.15.75,0-.64-.15-.84a4.75,4.75,0,0,0,0,.92c0,.26,0,.26-.07,0-.09-.67-.05,1.28-.22,0-.07.81-.1.69-.13,0-.44,1.56.16-1.32-.19,0-.1.12,0,.49,0,.55s-.21-.6-.28-1.08c0,.49.08,1.59-.12.42-.26,1-.09-.13-.08-.48s-.15,1.62-.25.42c-.11-.53.1,1.39-.17.17,0,.46,0,.79-.1.23-.23.53-.09-.08,0-.3,0-.79-.24.72-.27.28.08-.63-.36.51,0-.54.18-.67-.31.41-.25.65-.14-.38-.09,0-.17-.06.15-.93,0-.6-.16,0,0-.06,0-.37-.09-.07,0-.3-.11-.31-.14.06-.11,0-.14-.75-.21-.17a4.17,4.17,0,0,1-.1-.72c-.16,1-.2.46-.13-.21-.17-.16,0,1.09-.17.57,0-.24-.07.24-.09.18a3.56,3.56,0,0,1,0-.84,1,1,0,0,1-.07.18c-.5,1.16.12-.52-.29.11-.16.32-.24.5-.15,0-.19.52,0,0-.29.29.37-.78-.17.11-.18,0,0,0,.36-.53.22-.46s-.2.75-.3.36c-.13.26,0,0,0-.16-.09.07-.27.35-.25.26s.23-.8.08-.57c-.11.63-.22.79-.16,0a1.36,1.36,0,0,0-.25,1.06c.1.26-.24-.18-.2-.34a2.44,2.44,0,0,0-.1,1.06s-.09-.13-.1-.21c-.07.24-.17.71-.16.38-.06.2-.08.59-.22.24.09.52-.06.19-.09-.12-.1.4-.12,1.34-.2.51,0,.42.07,1.25-.1.45a.64.64,0,0,1-.06.16,2.36,2.36,0,0,0,0,.55c-.08,0-.09-.56-.17-.12-.05.19.42.53.08.35s0,.35,0,.41c-.19-.21-.07.53-.28-.36-.07.76,1.66,1.73,1.21,1.88,0,.06.68.16.23.17.26.11.38.2,0,.13.74.25,0,0,.42.56s.38,1,.36,1.68c-.51,1.14-2,.29-2-.7-.13-.53-1.8-2.39-1.68-.66.12.6-.67,1.58-.08,1.67-.06.08-.34,0-.1.19-.43-.07-.18,0,.08.08-.34.12-.42,0-.19.3-.33-.27-.16.24-.29.33-.09-.21,0-.54-.22-.13-.54.67-.66,2-1.71,2.08s-2.86.4-3.34-.9a1.65,1.65,0,0,1,2.28-1.07c1.79-2.15.76-5.59,1.09-6.13-.62.9,0-.14.09-.6-.52.94,0,0,0-.4-.58.73.09-.26,0-.61-.25.86-.26.41-.11-.2-.1.26-.33.31-.23.16.33-.57-.19.07.2-.6-.3,0-.36.46,0-.44-.2.37-.62.77-.22.11-.2.2-.44.4-.18,0s-.28.22-.27.19.25-.48.28-.75c-.46.71-.17.33-.22,0-.14.33-.2.42-.11,0-.09,0-.45.22-.19,0,.59-.46.09-.24.17-.38.6-.83-1.2.37,0-.48-.74.3-.56.11,0-.17-.69.21-.25.09-.52,0,.57-.14,0-.2-.27-.22.23-.14.09-.08,0-.21.16,0,.5.1.69,0-.13-.22-1.14-.13-.56-.28-.48-.16.18,0,.19-.09s-.7,0-.35-.18c-.4-.17-.18-.11.1-.09-.72-.34-.41-.56-.55-1.23-.07.72-.12.38-.14-.12,0-.3-.11.35-.13.24a.6.6,0,0,1,0-.2c-.13.47,0-.56-.06-.71-.16.6,0-.13-.27.28.13-.55-.06-.25,0-.79-.27.57,0-.25-.26.1a2.5,2.5,0,0,1,.12-.43c-.08.1-.17.16-.18.15s.06-.14.12-.28c.27-.32-.64.27-.27,0,.33-.16-.44.07-.08-.1.57-.47.63-.58,0-.11-.49.2.6-.52.2-.35-.93.34.21-.14.2-.55-1,1-.16.2-.13-.38-.27.26-.44,1.2-.28.25-.26.19-.34.21-.1,0-.54.15.16-.15.24-.35-.26.22-.08-.36-.51.25.41-.8.06-.29-.4-.22,1.62-.94-.36-.11,0-.46.09-.12-.27-.14.1-.13.26-.39-.27,0-.3,0s.24-.45,0-.1c0-.19-.43,0,0-.17.22-.72-.13,0-.19-.08s.42-.56.27-.47c-.31,0-.38.8-.41.38-.25.4-.11,0,0-.32-.34.21-.31.74-.35.16-.22,0-.4.39-.48.47,0-.27.15-.36-.13-.14-.11.14,0,.1-.13,0-.2.11.24-.24.11-.22-.47.43,0,0-.4.21,0-.11-.11,0-.12,0s.46-.8.21-.51-.44.74-.27.17c-.2.15-.1,0-.07-.15-.36.15-.07-.1,0-.23.16-.63,0-.19-.19.06a1.21,1.21,0,0,1,.13-.45c-.23.4-.3.38-.1-.05-.28.33-.39.15,0-.2,0-.24-.47.4-.58.4a2.85,2.85,0,0,1,.38-.49c-.2.18-.74.63-.31.15-.52.12.09-.08.21-.24-.58.28.09-.06-.43,0,.18-.13.15-.06,0-.11.12-.1.32-.08,0-.11.14,0,.38-.35.08-.11,0,0,.11-.21.13-.3-.23.3-.12.13,0-.29-.34.64.21-1.57-.51.88.23-1,.41-1.44-.11-1.33,0,.14-.22.06-.25.42.09-.14,0-.63,0-.35-.42-.26-.41,1.46-.31,0-.35-.37-.71.71-1.28.57a1.47,1.47,0,0,0,1-.68,1.94,1.94,0,0,1-1.27.54c.78-.11,1.55-.62.88-1C1.48,8,1,8.37.72,8.2c.78,0,.73-.08.54-.69-1.13,1.34.54-.9-.35,0C-.67,8.76,2.32,6.56,0,7.77ZM7.88.8h0ZM4.11,3.59v.06S4.11,3.61,4.11,3.59Zm.5-.39c-.08.42,0,.26,0-.06A.14.14,0,0,1,4.61,3.2ZM2.37,8.68ZM1.08,7.08c.13-.34-.42.14-.53.24A.77.77,0,0,0,1.08,7.08Z"/></g></g></svg>