<svg xmlns="http://www.w3.org/2000/svg" viewBox="0 0 46.3 35.71"><defs><style>.cls-1{fill:#1a2026;}</style></defs><g id="Layer_2" data-name="Layer 2"><g id="Layer_1-2" data-name="Layer 1"><path class="cls-1" d="M15.27,0h.07c.6.37,0,.92-.07,1.42.49-.13.85-.73,1.19-1.15.59.77-.52,1.12-.43,2,.25.19.54-.12.81,0-.08.47-.56.58-.77.85a10.23,10.23,0,0,0-.69,2C14.79,6.6,13.31,7.29,12,8c-.52.28-1.65.62-1.11,1.38.29,0,.36-.41.61-.61a2,2,0,0,1,1.61-.35,1.59,1.59,0,0,1-.73,1.42,13.77,13.77,0,0,0,4.8-.54,7.13,7.13,0,0,1,4.41-.23,20.84,20.84,0,0,1,2.15,1.11,10.69,10.69,0,0,0,5,.58,12.59,12.59,0,0,1,2.72-.15,7.85,7.85,0,0,1,1.95.65c.64.28,1.32.46,1.88.69a10.4,10.4,0,0,1,2.11,1.46c.42.28,1.14.28,1.46.65a7.15,7.15,0,0,1,.73,1.57c.13.32.7,1.51.19,1.65s-.78-.45-1.11-.57a7.43,7.43,0,0,0-.08,1.38c-.11.87-.67,1.39-.76,2.14A3.14,3.14,0,0,0,38,21.71a3.07,3.07,0,0,0,.73,1,5.31,5.31,0,0,0,2,1.61,6.91,6.91,0,0,0,1.3.62c.25.06.63,0,.77.23s.1.56.15.88c.13.75.31,1.67.47,2.53a7.31,7.31,0,0,0,1.38,3.53c0,.24-.51,0-.46.38.23.18.32-.09.61-.07.78,0,.88,2.24,1.34,2.64v.27c-.75,0-1-.46-1.8-.46a15.71,15.71,0,0,0-1.38-1.19c-.77-.89-.66-2.4-1-3.8A4.57,4.57,0,0,0,40.36,27c-.63-.4-1.34-.45-1.92-.81a10.32,10.32,0,0,1-1.57-1.15c-1-.88-2.25-1.27-3.19-2.26a2.12,2.12,0,0,0-1.15,2.26A8.89,8.89,0,0,0,33.11,27c.3.74,1.26,1.86.23,2.26-.58.91-1.38,1.48-2,2.3a10.56,10.56,0,0,0-1.26,2c-.23.51-.41,1.08-.66,1.61-.25-.07-.21-.42-.49-.46-.23.19.1.33.07.58a1.66,1.66,0,0,1-.42.49H25.51s0,0,0,0c.17-.58.7-.84,1-1.23.08-.1.09-.28.19-.39a5.09,5.09,0,0,1,.62-.3c.2-.14.3-.47.49-.73s.44-.31.66-.5a7.65,7.65,0,0,0,1.07-1.3,5,5,0,0,0,1-1.92,6.25,6.25,0,0,0,0-1.73,4.49,4.49,0,0,0-.61-1.19A11.28,11.28,0,0,1,29,23.67a5.37,5.37,0,0,1-.5-2.11,12.32,12.32,0,0,1-2.38.77c-.86.07-1.86,0-2.76.07A31.26,31.26,0,0,0,23,27.31a10.71,10.71,0,0,1,.19,2c0,.21-.17.41-.19.61-.15,1.78,1.08,3.26.69,4.92-.36,0-.31-.34-.62-.35-.08.44.19,1.16-.46,1.26H19.87c-.19-.36.49-.69.73-1,.07-.1.09-.32.15-.38.21-.24.68-.35.73-.66s.28-.89.31-1.34a6.31,6.31,0,0,0-.38-2.3,6.45,6.45,0,0,1-.31-.58A4.08,4.08,0,0,1,21,28c0-1.64-1-3.21-1-4.64a19.55,19.55,0,0,0-2.53,1.49,9.72,9.72,0,0,0-2.57,1.46,6.91,6.91,0,0,0-1,1.42,6,6,0,0,0-.26,4c-.16.14-.48-.12-.58.07.09.34.53.18.73.35.69.61-1,2.56-1.15,3.11-.25-.18-.3-.54-.43-.85s-.34-.58-.42-.84,0-.66-.11-1a7.29,7.29,0,0,1-.31-.77A5.94,5.94,0,0,1,12,29.69a8.81,8.81,0,0,0,.46-2.18,8.21,8.21,0,0,1-.08-1.08c.14-1.34,1.33-1.86,2.11-2.64a11.21,11.21,0,0,1,2-2A5.5,5.5,0,0,1,15,20c-.24-.38-.57-.77-.77-1.15-.26-.53-.22-1.21-.53-1.69a1.75,1.75,0,0,0-.54-.39,10.27,10.27,0,0,0-1.73-.92c-.57-.22-1.5-.71-1.84,0-.21,0-.15-.28-.38-.27s0,.3-.08.53c-.23-.06-.44.09-.65.16a.53.53,0,0,0-.08.38c-.06.16-.21-.21-.42-.15-.09.22.07.57-.11.77-.27,0-.31-.21-.5-.27s0,.22-.19.19c-.43-.84-1-1.54-1.46-2.34a16.64,16.64,0,0,0-2.42-.23c-.22.16-.23.74-.57.8-.17,0-.39-.2-.58-.23s-.52.1-.69.08A2.29,2.29,0,0,1,.08,14.08c-.07-.26.11-.5-.08-.69V13a3.25,3.25,0,0,1,.77-.89,3,3,0,0,1,2.34-1.19c.31,0,.64.12,1,.12a7.61,7.61,0,0,0,2.72-.62c.22-.16.36-.44.69-.49s.42.06.61,0c.42-.05.71-.37,1.08-.39C8.88,8.33,7.05,8.89,6,8.36a2.24,2.24,0,0,1-.76-.65,1.92,1.92,0,0,1-.5-1.26c.56,0,.49.58,1,.57,0-.54-.32-1.51.12-2,.35.1.26.64.46.89s.33,0,.42.15a5.24,5.24,0,0,0,.69,1.15C8.2,7.87,10,8.36,9.7,6.6,9.63,6.22,9,5.5,9.59,5.1c.2,0,.27.2.54.16.49-.49.08-1.15.15-1.73s.81-1.21.54-2.3C11,1.16,11,.86,11.2,1c.07.51.08,1.07.43,1.3.68-.15.58-1.1,1-1.53.47.34-.16,1.09.19,1.42.59.11.93-.35,1.42-.46C14.51,1.06,15.06.7,15.27,0Z"/></g></g></svg>