<svg xmlns="http://www.w3.org/2000/svg" viewBox="0 0 34.95 27.81"><defs><style>.cls-1{fill:#1a2026;}</style></defs><g id="Layer_2" data-name="Layer 2"><g id="Layer_1-2" data-name="Layer 1"><path class="cls-1" d="M34.8,9.32a4,4,0,0,0-.57-1.22c-.25-.28-.85-.67-1.09-.92a8.18,8.18,0,0,1-.75-1.28A1.84,1.84,0,0,0,32,5c-.09-.19,0-.16-.07-.42a1,1,0,0,0-.4-.66A1.23,1.23,0,0,1,31,3.32a1.07,1.07,0,0,0-.48-.49,1.1,1.1,0,0,0,0-.24c0-.14-.23-.23-.23-.23a4.31,4.31,0,0,0-.14-.77A6,6,0,0,0,29,.21c-.36-.33-.45-.24-.61.08A3.76,3.76,0,0,0,28.13,2a2.49,2.49,0,0,0,.23.73h-.15c-.18,0-.35,0-.37,0s0,0,.09.09l0,0-.17,0L27.21,3a1.35,1.35,0,0,1-.54.06c-.14,0-.23,0-.24,0s.07.08.22.13l.1,0-.09,0-.34.09a2.82,2.82,0,0,1-.52.11,1.41,1.41,0,0,1-.46,0,1.72,1.72,0,0,0-.22,0s0,0,.07.06a2.41,2.41,0,0,1-.56-.09,1.22,1.22,0,0,1-.38-.2C24.16,3,24.11,3,24.09,3s0,.06.06.14a4.41,4.41,0,0,0-.46-.19c-.2-.09-.44-.18-.66-.29a1.84,1.84,0,0,1-.52-.38c-.12-.12-.18-.22-.19-.22a.41.41,0,0,0,.08.22h0l-.28-.15a1.24,1.24,0,0,1-.23-.17c-.05,0-.09-.1-.1-.09s0,0,0,.06l-.14-.12a.86.86,0,0,1-.23-.3c0-.09-.05-.16-.07-.16s0,.07,0,.19,0,0,0,0L21,1.34C20.8,1.2,20.69,1,20.66,1s0,.07,0,.17a.38.38,0,0,0,.06.13,1.08,1.08,0,0,1-.24-.12.74.74,0,0,1-.2-.19c0-.06-.07-.11-.09-.11s0,.06,0,.15V1a2.52,2.52,0,0,0-.29-.12A1.22,1.22,0,0,0,19.5.83c-.12,0-.19,0-.19.06l.19,0h.05l-.26,0a1.7,1.7,0,0,0-.38.12l-.54.22a2.08,2.08,0,0,1-.49.14c-.13,0-.22,0-.23,0s.07.08.22.1h.06l-.17.1a2,2,0,0,0-.28.21,2.92,2.92,0,0,1-.4.29,1.15,1.15,0,0,1-.42.14c-.12,0-.2,0-.21,0a.32.32,0,0,0,.16.06l-.18.06a2.36,2.36,0,0,0-.35.16c-.08,0-.26.14-.46.27s-.45.27-.69.39a3.05,3.05,0,0,1-.67.24,2.48,2.48,0,0,0-.31,0,.6.6,0,0,0,.32,0h0a1.82,1.82,0,0,1-.67.18c-.42,0-1.82.24-2.5.26-.34,0-.6,0-.83.05H10a3.94,3.94,0,0,0-.58,0C9.2,4,8.9,4,8.61,4l-.77,0L7.6,4,7.52,4s0,0,.07.07l.1,0-.2,0a6.16,6.16,0,0,0-.8.19l-.19,0-.19,0H6a1.07,1.07,0,0,0-.32,0s.08,0,.22.06a3.93,3.93,0,0,0-.66.22L5,4.77l0,0,0,0-.08.05A1.55,1.55,0,0,1,4.58,5a.47.47,0,0,1-.2,0L4.3,5s0,0,.06.06l0,0H4.26s.06,0,.18.07H4.36a.71.71,0,0,1-.15-.08C4.13,5,4.09,5,4.07,5s0,.08.08.16l0,0h0c-.07,0-.12,0-.13,0s0,0,.07.06H3.7c-.11,0-.19,0-.19,0l.19,0,.29,0H4a1.46,1.46,0,0,0-.53.14.59.59,0,0,0-.24.16,1.77,1.77,0,0,0,.25-.07c-.12.09-.18.17-.17.18s.09-.06.24-.12l0,0a1.94,1.94,0,0,0-.85,1.73A27.18,27.18,0,0,1,3,10.1a30.1,30.1,0,0,1-.34,3.24,6.11,6.11,0,0,1-1,2.26c-.32.42-.78,1.09-1,1.34a.81.81,0,0,0-.29.86A8.41,8.41,0,0,1,.7,20.08c0,1-.29,4.93-.34,5.2s-.51,1.18-.31,1.24.33-.24.4-.21.38.05.36.13a1.62,1.62,0,0,0,.08.86c.16.27.27.46.56.5a15.26,15.26,0,0,0,1.56,0c.18,0,.24-.19.07-.32a2.66,2.66,0,0,1-1.14-1.06,6,6,0,0,1-.33-2.57A16.11,16.11,0,0,1,2,19.87a8.43,8.43,0,0,1,1.23-2.26c.41-.6,1.14-2,1.34-2.28s.79-.91,1.25-1.48.69-1.08,1.56-1.28A5.15,5.15,0,0,1,8.42,15a10.19,10.19,0,0,1-.15,2.74c-.08.27-.4.78,0,1.21s1.83,2,2.29,2.6S12,23.4,12.21,23.73a2.65,2.65,0,0,1,.38,1c.05.21,0,.61,0,.7s.22-.05.22-.05.08.23.2.26.23-.13.23-.13l.15.4a1.13,1.13,0,0,0,.49.59,8.17,8.17,0,0,0,1,.23c.06.13.12.22.14.26s.23.47.38-.18c.16,0,.28,0,.3,0s-.07-.19-.23-.38a6.17,6.17,0,0,0,.09-1.12s.32-.64.48-.94.43-.91.59-1.28a19.78,19.78,0,0,1,1.18-2.13,10.83,10.83,0,0,0,1.06-1.63c.13-.35.16-1.1.36-1.94.06-.28.22-.81.41-1.41a4.86,4.86,0,0,0,.32,1.44,12.82,12.82,0,0,1,.8,1.86,3.22,3.22,0,0,0,.35,1,13,13,0,0,1,.49,2.34c.06.67.13,1.65.16,1.93s0,.58,0,.58-.19.59-.09.63.35-.3.35-.3.11.24.17.27a.35.35,0,0,0,.19,0s.18.65.53.71a6.59,6.59,0,0,0,1.86-.12c.12-.1-.25-.32-.46-.43a3.59,3.59,0,0,1-1.05-1.12,16.15,16.15,0,0,1-1-3.76c-.19-1.39.08-1.79-.26-3a17,17,0,0,1-.46-3.44,2.12,2.12,0,0,1,.24-1.37l.83-.25c.21-.08.22-.13.33-.37a2.16,2.16,0,0,0,.28-.57c.07-.31.06-.51.12-.85a1.29,1.29,0,0,0,0-.33,0,0,0,0,0,0,0s0-.07,0-.15a.31.31,0,0,1,.07-.14l.11-.16c.05-.07.11-.14.16-.22a.11.11,0,0,0,0,.05c0,.1,0,.17,0,.17s0-.06.07-.14A.77.77,0,0,1,24,10v0c0,.08,0,.14,0,.14s0,0,.09-.11a.8.8,0,0,1,.21-.19l.07,0a.38.38,0,0,0-.09.13c-.06.11,0,.2,0,.2s0-.07.11-.15a1,1,0,0,1,.36-.23,2.64,2.64,0,0,1,.46-.13L25,9.71a.91.91,0,0,0-.26.2,2.53,2.53,0,0,0,.3-.12,4.07,4.07,0,0,1,.7-.19c.27,0,.56-.09.8-.15a2.85,2.85,0,0,0,.53-.21l.07-.05,0,0,0,0L27.41,9a1.43,1.43,0,0,0,.14-.2,1.25,1.25,0,0,1,0,.21c0,.07,0,.12,0,.13s.06,0,.1-.1a.75.75,0,0,0,.11-.3v0c0,.07,0,.14,0,.21a1.48,1.48,0,0,1,0,.36.49.49,0,0,0,0,.16s.06,0,.1-.14a.54.54,0,0,0,0-.15,1.46,1.46,0,0,1,.05.2c0,.11,0,.24,0,.33s0,.15,0,.15,0-.06.05-.14a1.37,1.37,0,0,0,.05-.25,3.23,3.23,0,0,1,.14.47,1.61,1.61,0,0,1,0,.46,1.74,1.74,0,0,1,0,.21s0,0,0,0a.71.71,0,0,0,.07-.15.73.73,0,0,0,0-.22,1.61,1.61,0,0,0,.12.23l0,.06c0,.06-.05.09,0,.1l.06,0,0,0a.25.25,0,0,0,.09.08s0-.06,0-.14l0-.06a1.4,1.4,0,0,0,.09-.53V9.61a.6.6,0,0,0,.05.16.33.33,0,0,0,.09.14,3.41,3.41,0,0,1,0-.49,1.67,1.67,0,0,1,.23-.5.25.25,0,0,1,.26.13c.09.15.37.22.58.34s.23,0,.36,0a8,8,0,0,0,.85.52,3.57,3.57,0,0,1,.59.31c.08,0,.1.47.11.76a.52.52,0,0,0,.48.52,6,6,0,0,0,.91,0s.24.28.37.22a.2.2,0,0,0,.13-.2s.18,0,.18,0,.15.25.31.18.19-.26.23-.34a4.8,4.8,0,0,0,.21-.48,2.44,2.44,0,0,0,.19-.6A5.18,5.18,0,0,0,34.8,9.32ZM17.58,15a2.51,2.51,0,0,0-.19,1.56,9.72,9.72,0,0,1,.12,2,3.94,3.94,0,0,1-.76,2.12c-.43.71-1.27,2.29-1.51,2.53s-.48.54-.48.54-.54.4-.5.59.2.13.2.13.09.13.14.13a1.09,1.09,0,0,0,.25-.15,7.64,7.64,0,0,0-.53.66,6.46,6.46,0,0,1-.57-1c-.2-.49-1.08-1.4-1.73-2.39a8.58,8.58,0,0,1-1.37-2.58c0-.5-.05-.91-.1-1.28a16.35,16.35,0,0,1,.26-1.91c0-.46.06-2.14.39-2.2s2.67-.14,4-.29A10,10,0,0,0,17,13.08a7.52,7.52,0,0,0,.78.18A3.93,3.93,0,0,1,17.58,15Z"/></g></g></svg>