<svg xmlns="http://www.w3.org/2000/svg" viewBox="0 0 40 23.9"><path d="M37.8,16.1V10.4H29.9V.9H22.1L19.3,3.6v6.8L13.8,3.7a1.3,1.3,0,0,0,.1-.6,3.1,3.1,0,1,0-6.2,0c0,.2.1.5.1.7L3,11.8a1.8,1.8,0,0,0-1.8,1.7,2.4,2.4,0,0,0,.2.8c-.8,1.5-4.3,8.3,4.1,8.9H7.9L4,14.9a1.5,1.5,0,0,0,.7-1.4.7.7,0,0,0-.1-.5l5.5-6.9h.5l7.2,10.1h20ZM21.3,4.4,23,2.7h4.8V8.6H21.3ZM4.1,13.6a1.1,1.1,0,0,1-1.1,1,1,1,0,0,1-1-1.1.8.8,0,0,1,.5-.8l.5-.2a1.1,1.1,0,0,1,1.1,1Zm6.7-8.5a2,2,0,0,1-1.1-.3,2.1,2.1,0,0,1-.9-1.7,2,2,0,0,1,2-2.1,2,2,0,0,1,2,1.5,1.3,1.3,0,0,1,.1.6A2,2,0,0,1,10.8,5.1Z"/><path d="M37,17.4H18.5a3.1,3.1,0,0,0-3,3v.5a3,3,0,0,0,3,3H37a2.9,2.9,0,0,0,3-3v-.5A3,3,0,0,0,37,17.4ZM20.3,22.2a1.6,1.6,0,0,1-1.5-1.6,1.5,1.5,0,0,1,1.5-1.5,1.6,1.6,0,0,1,1.6,1.5A1.7,1.7,0,0,1,20.3,22.2Zm5,0a1.6,1.6,0,0,1-1.6-1.6,1.6,1.6,0,0,1,1.6-1.5,1.5,1.5,0,0,1,1.5,1.5A1.6,1.6,0,0,1,25.3,22.2Zm5,0a1.6,1.6,0,0,1-1.6-1.6,1.6,1.6,0,0,1,1.6-1.5,1.5,1.5,0,0,1,1.5,1.5A1.6,1.6,0,0,1,30.3,22.2Zm4.9,0a1.6,1.6,0,0,1-1.5-1.6,1.5,1.5,0,0,1,3,0A1.6,1.6,0,0,1,35.2,22.2Z"/></svg>