<svg xmlns="http://www.w3.org/2000/svg" viewBox="0 0 36 48.58"><defs><style>.a{opacity:0.8;}.b{fill:#fff;}.c{fill:#1a2026;}</style></defs><title>Asset 259</title><g class="a"><circle class="b" cx="21.52" cy="6.5" r="5"/><path class="b" d="M21.52,3A3.5,3.5,0,1,1,18,6.5,3.5,3.5,0,0,1,21.52,3m0-3A6.5,6.5,0,1,0,28,6.5,6.51,6.51,0,0,0,21.52,0Z"/><path class="b" d="M22.6,47.08a3.1,3.1,0,0,1-3.36-2.84V33.76l-2.81-2.68-1.81,3.81h0c-.21.4-1.18,1.82-7.24,10.32a2.56,2.56,0,0,1-2.15,1,3.79,3.79,0,0,1-2.14-.71c-1.52-1.06-2-2.88-1.16-4.15L8.45,32l6.05-19.16a5.23,5.23,0,0,1,4.87-3.8,4.68,4.68,0,0,1,1.42.22,5,5,0,0,1,2.88,2.23L27,16.12l2.31,0a1.93,1.93,0,0,1,1.83-1.32l.26,0a1.88,1.88,0,0,1,1.25.7,2,2,0,0,1,.41,1,3.28,3.28,0,0,1,1.39,2.77,3.11,3.11,0,0,1-2.07,3.12L29.6,45.18a1.94,1.94,0,0,1-1.92,1.69h-.19a2,2,0,0,1-1.71-1.66A3.34,3.34,0,0,1,22.6,47.08ZM20.9,25.25C23,27.31,26,30.47,26,32.51V43.14L28.52,22.5l-3.46,0A2.66,2.66,0,0,1,22.73,21L22.66,21l-.34-.46Z"/><path class="b" d="M19.38,10.56a3.18,3.18,0,0,1,1,.15,3.48,3.48,0,0,1,2.06,1.61l3.89,5.31,4.35,0,.11-.93a.43.43,0,0,1,.43-.38h.06a.43.43,0,0,1,.37.48l-.1.81h.23c.69,0,1.24.76,1.25,1.69S32.45,21,31.76,21h-.67l-3,24a.43.43,0,0,1-.44.38h0a.43.43,0,0,1-.37-.48l3-23.9-5.17,0h0A1.26,1.26,0,0,1,24,20.15a.37.37,0,0,1-.1-.09l-2.12-2.9L19.2,25.71s5.26,4.85,5.26,6.8V44.25c0,.74-.83,1.34-1.86,1.34s-1.86-.6-1.86-1.34V33.12L16,28.56l-2.71,5.68c-.08.22-7.11,10.09-7.11,10.09a1.08,1.08,0,0,1-.93.42,2.29,2.29,0,0,1-1.28-.44c-.83-.58-1.18-1.5-.78-2.06L9.73,32.8l.07-.07,6.14-19.43a3.73,3.73,0,0,1,3.44-2.75m0-3h0a6.7,6.7,0,0,0-6.28,4.79l0,.06-6,18.94L.7,40.54c-1.35,2-.68,4.7,1.53,6.24a5.3,5.3,0,0,0,3,1A4,4,0,0,0,8.61,46c5.95-8.34,7-9.92,7.35-10.51h0l.92-1.94.85.81v9.84a4.57,4.57,0,0,0,4.86,4.34,5.26,5.26,0,0,0,3-.91,3.41,3.41,0,0,0,1.62.67h.1l.34,0a3.44,3.44,0,0,0,3.41-3l2.73-22A4.76,4.76,0,0,0,36,19.25a4.88,4.88,0,0,0-1.56-3.64,3.41,3.41,0,0,0-2.83-2.3l-.42,0a3.43,3.43,0,0,0-2.71,1.33H27.8l-2.87-3.92a6.5,6.5,0,0,0-3.67-2.84,6.19,6.19,0,0,0-1.88-.29ZM22.6,24.81l.4-1.35A3.93,3.93,0,0,0,25,24l1.78,0-.63,5.06a26.1,26.1,0,0,0-3.6-4.27Z"/><path class="b" d="M8.64,25a6.43,6.43,0,0,1-2.41-.47,6.14,6.14,0,0,1-3-2.65,5.34,5.34,0,0,1-.49-4.2l2.24-7.37A5.31,5.31,0,0,1,7.67,7.09a6.09,6.09,0,0,1,2.74-.65,6.3,6.3,0,0,1,1.27.13,6.17,6.17,0,0,1,4.18,3,5.44,5.44,0,0,1,.49,4.19L14.1,21.15a5.34,5.34,0,0,1-2.73,3.22A6,6,0,0,1,8.64,25Z"/><path class="b" d="M10.41,7.94a4.8,4.8,0,0,1,1,.1,4.72,4.72,0,0,1,3.17,2.26,3.94,3.94,0,0,1,.35,3l-2.23,7.37a3.86,3.86,0,0,1-2,2.32,4.48,4.48,0,0,1-2.06.49,4.89,4.89,0,0,1-1.84-.36,4.61,4.61,0,0,1-2.3-2,3.86,3.86,0,0,1-.36-3l2.23-7.37a3.87,3.87,0,0,1,2-2.34,4.56,4.56,0,0,1,2.06-.48m0-3A7.59,7.59,0,0,0,7,5.75a6.85,6.85,0,0,0-3.5,4.18L2,15l-.69,2.26a6.83,6.83,0,0,0,.61,5.37,7.64,7.64,0,0,0,3.79,3.31,7.83,7.83,0,0,0,3,.58,7.52,7.52,0,0,0,3.43-.82,6.81,6.81,0,0,0,3.47-4.12l.69-2.26,1.55-5.11a7,7,0,0,0-.61-5.38A7.67,7.67,0,0,0,12,5.1a7.81,7.81,0,0,0-1.57-.16Z"/></g><path class="c" d="M21.52,10A3.5,3.5,0,1,0,18,6.5,3.5,3.5,0,0,0,21.52,10Z"/><path class="c" d="M31.74,17.57h-.23l.1-.81a.43.43,0,1,0-.86-.11l-.11.93-4.35,0L22.4,12.32a3.48,3.48,0,0,0-2.06-1.61,3.58,3.58,0,0,0-4.4,2.6L9.8,32.74l-.07.07L3.16,42.25c-.39.57,0,1.49.78,2.06s1.81.58,2.2,0c0,0,7-9.87,7.11-10.09L16,28.56l4.77,4.56V44.24c0,.74.83,1.34,1.86,1.34s1.86-.6,1.86-1.34V32.51c0-1.94-5.26-6.8-5.26-6.8l2.54-8.55,2.12,2.9a.37.37,0,0,0,.1.09,1.25,1.25,0,0,0,1.09.88l5.17,0-3,23.9a.43.43,0,1,0,.86.1l3-24h.67c.69,0,1.24-.76,1.24-1.71S32.43,17.57,31.74,17.57Z"/><path class="c" d="M6.79,23.16a4.7,4.7,0,0,0,3.9-.12,3.86,3.86,0,0,0,2-2.32l2.23-7.37a3.94,3.94,0,0,0-.35-3A4.72,4.72,0,0,0,11.37,8a4.64,4.64,0,0,0-3,.38,3.87,3.87,0,0,0-2,2.34L4.14,18.14a3.86,3.86,0,0,0,.36,3A4.61,4.61,0,0,0,6.79,23.16Z"/></svg>