<svg xmlns="http://www.w3.org/2000/svg" viewBox="0 0 30.1 30.19"><defs><style>.cls-1{fill:#1a2026;}</style></defs><g id="Layer_2" data-name="Layer 2"><g id="Layer_1-2" data-name="Layer 1"><path class="cls-1" d="M0,15.56a1.08,1.08,0,0,1,.12-.36A3.88,3.88,0,0,1,.61,15a2.78,2.78,0,0,0,.4-.3.93.93,0,0,0,.21-.24.91.91,0,0,0,.18-.29.8.8,0,0,0,.07-.29L1.33,14l0-.1L1.17,14s0-.12,0-.23a2.22,2.22,0,0,1,.23-.58,1.65,1.65,0,0,1,.25-.28H1.52a1.21,1.21,0,0,0-.2.1l.12-.15-.13,0L1,13a.63.63,0,0,1,0-.14s0-.16.09-.26.14-.15.23-.26.08-.2.08-.2l-.28.12s0-.09.06-.22a1.83,1.83,0,0,1,.39-.58A5.33,5.33,0,0,1,3,10.84C4.75,10,5.07,9.07,7,8.5A16.12,16.12,0,0,1,11.77,8c1.05.15,2.13.15,3.18.33.59.11,3.66.39,4.83.44a21.45,21.45,0,0,1,3.12.4c.26.09.47.07.58-.06.35-.42.09-1.78.12-2.29A17.87,17.87,0,0,1,24.22,3l-.13-.19a2.35,2.35,0,0,1-.23-.33,4.22,4.22,0,0,1-.2-.86A6.87,6.87,0,0,1,23.71.41c.05-.37.23-.26.28-.22a2,2,0,0,1,.28.19,6.16,6.16,0,0,1,.67.59,2.48,2.48,0,0,1,.45.57l.21-.09a2.7,2.7,0,0,1,.54-.05,8.12,8.12,0,0,1,1.16.27.56.56,0,0,1,.1-.3,5.43,5.43,0,0,1,.73-.64A7.8,7.8,0,0,1,29.21.1c.38-.2.36,0,.37,0a4.07,4.07,0,0,1-.07.43A5.28,5.28,0,0,1,29,1.8a2.47,2.47,0,0,1-.68.93l.05.17a2.81,2.81,0,0,0,.19.42,3.17,3.17,0,0,1,.14.57,4.34,4.34,0,0,0,.48.58,7.43,7.43,0,0,0,.62.65,2.42,2.42,0,0,1,.27.25c0,.06,0,.17,0,.17l0,0a.59.59,0,0,1,0,.4c-.07.13-.32.21-.32.21l-.31.23a4.43,4.43,0,0,1-.93.11c-.3,0-1.32,0-1.33,0s-.06.94-.06,1c0,.76.23,1.49.32,2.23,0,.35,0,1.49,0,1.7a11.62,11.62,0,0,1-.66,1.56c0,.08-.45.82-.54,1.08S26,15,25.91,15.4a16,16,0,0,1-1,2.12,13.42,13.42,0,0,1-1.35,1.31s-.22.79-.26,1a8.15,8.15,0,0,0-.23,1c0,.21,0,1.36,0,1.74s-.09,1.41-.09,1.67.2,2.6.25,2.87.07,1.43.13,1.71.12.95.18,1.14-1.19-.1-1.26-.28a8.81,8.81,0,0,1-.1-1.19c0-.12,0-1.65,0-1.69S22,25.66,22,25.49s-.24-1.18-.3-1.43-.23-1.38-.39-2A25.75,25.75,0,0,1,21,19.48a3,3,0,0,0-.22.24,2.92,2.92,0,0,0-.35.73c-.05.25-.23,1.53-.25,1.77s0,.87,0,1.12a13.78,13.78,0,0,1-.29,1.55,7,7,0,0,0-.23.76c0,.26-.1,1-.1,1.24s.06,2,.06,2.19a4.45,4.45,0,0,0,.15.9c.06.16-.19.2-.24.21a2.28,2.28,0,0,1-.6-.08.75.75,0,0,1-.44-.33.48.48,0,0,1,0-.45c.06-.18.18-.93.25-1.26s.16-2.46.16-2.54a17.28,17.28,0,0,0-.15-1.81c-.1-.42-.52-4.67-.52-4.67l-1.46-.25-1.94-.3c-.27-.06-2.86-.79-2.86-.79s-.29.45-.54.81-.61.86-.75,1.1-.47.72-.7,1.13A6,6,0,0,1,9.1,21.8a11.82,11.82,0,0,0-.71,1.11,3.28,3.28,0,0,0-.06.74c0,.25.11,1.48.12,1.72a7.64,7.64,0,0,0,.12.92c0,.17.23,1,.3,1.13s.35.8.48,1a2.24,2.24,0,0,1,.3.56c0,.13-.16.27-.38.28s-.91-.21-.85-.09.42.47.41.58-.31.18-.37.21a2.5,2.5,0,0,1-.63-.17,3.32,3.32,0,0,1-.62-.42,2.19,2.19,0,0,1-.13-.52c0-.12-.32-1.5-.33-1.53s-.27-.87-.35-1.11S6,25,5.94,24.79a9.83,9.83,0,0,0-.68-1.65A1.08,1.08,0,0,1,5.34,22s.46-.83.57-1a7.06,7.06,0,0,0,.59-1.2,3.26,3.26,0,0,0,0-1.32,2.86,2.86,0,0,0-.58-1c-.2-.26-1.36-1.91-1.63-2.38a10.06,10.06,0,0,1-.48-2.22s-.93.43-1,.6-.24.46-.28.57a7.23,7.23,0,0,1-.35.65,5.4,5.4,0,0,1-.62.5,3.44,3.44,0,0,1-1.07.32,3.13,3.13,0,0,0-.49.1Z"/></g></g></svg>