<svg xmlns="http://www.w3.org/2000/svg" viewBox="0 0 26 37.86"><defs><style>.cls-1{fill:#1a2026;}</style></defs><g id="Layer_2" data-name="Layer 2"><g id="Layer_1-2" data-name="Layer 1"><path class="cls-1" d="M.29,8.9a2.15,2.15,0,0,0,.43.42c.18.12.45,0,.49-.06s0-.17,0-.24S1,8.28,1,8.14s-.11-1-.11-1.07a2.61,2.61,0,0,0-.08-.56A2.51,2.51,0,0,0,.61,6.2c-.13-.18,0-.26,0-.35a.78.78,0,0,1,.07-.18,5.46,5.46,0,0,0-.13-.6A.83.83,0,0,1,.2,4.68c-.2-.35,0-.13.06-.13a1.14,1.14,0,0,1,.23.17,1.38,1.38,0,0,0,0-.14,2.11,2.11,0,0,0,0-.23c0-.12,0-.2,0-.27s.21,0,.21,0a1.41,1.41,0,0,0,0-.27.7.7,0,0,1,0-.29c0-.11.13,0,.13,0s.05-.17.06-.23a5.59,5.59,0,0,1,.81-1.41c.34-.29.27,0,.17.16a4.44,4.44,0,0,0-.33.67.31.31,0,0,0,.06.18A.17.17,0,0,1,1.54,3c0,.08-.14.11-.23.18a1.57,1.57,0,0,0-.18.65,4.32,4.32,0,0,0,.08.95,6,6,0,0,1,.12,1.12c0,.14.11,1.64.11,1.69s.23,1.18.34,1.56.73.61.73.61-.18-.41-.21-.45a2.51,2.51,0,0,1-.16-.78c0-.44.16-.14.16-.14l.12.24a6,6,0,0,0,.37.62,3.19,3.19,0,0,0,.46.49,2.33,2.33,0,0,1,.54-.12c.24,0,.13.07.1.1a.58.58,0,0,1-.17.06l-.25.14,0,0a1.86,1.86,0,0,0,.78.18,2.9,2.9,0,0,1,.68.5s.31-.15.41-.18a1.31,1.31,0,0,1,.36,0,.45.45,0,0,0,.18-.15c.06-.09-.07-.16-.12-.27s-.26-.23-.44-.4A1,1,0,0,1,5.05,9a3.52,3.52,0,0,1,.18-1.08c0-.13.11.08.13.36a2.8,2.8,0,0,0,.22.64c.06.21.93.94.93.94a2.76,2.76,0,0,1,.34-.21A10.55,10.55,0,0,1,8,9.33c.45-.07,1.67-.4,1.92-.47a1.94,1.94,0,0,0,.79-.74,3.27,3.27,0,0,0,.37-.91c.06-.32.31-.14.36,0s0,.15,0,.41a4.57,4.57,0,0,1-.22.81A3.24,3.24,0,0,0,12,8.3a4.87,4.87,0,0,0,.88-.45c.25-.12.48-.64.62-.91a8.33,8.33,0,0,0,.42-1.71A10.79,10.79,0,0,0,14,3.9a5.62,5.62,0,0,1,.25-1,3.42,3.42,0,0,0-.07-1,2.31,2.31,0,0,0-.37-.72c-.1-.11-.3-.29-.12-.42s.3,0,.34.1a.81.81,0,0,0,.23.2A.27.27,0,0,0,14.6.89,1,1,0,0,0,14.67.5a1.34,1.34,0,0,1,0-.5,1.28,1.28,0,0,1,.53.32c.19.18.09.65.1.7s.13.05.17.09a1,1,0,0,1,.08.4,6.33,6.33,0,0,0,.14.73.82.82,0,0,0,.11.28c0,.07.12,0,.21,0a3.24,3.24,0,0,0,.32-.17.53.53,0,0,0,.2-.39,1.86,1.86,0,0,0-.06-.49.91.91,0,0,1,.05-.53c0-.06.23.12.31.23a1.66,1.66,0,0,1,.23.65,1.07,1.07,0,0,1-.2.72c-.06.1-.47.57-.52.63s0,.14.07.21a.35.35,0,0,0,.32.15,1.3,1.3,0,0,0,.55-.28,1.27,1.27,0,0,1,.93-.17c.34.12.06.19,0,.21a.7.7,0,0,0-.24.09,2.5,2.5,0,0,0-.3.28l-.33.41a1.3,1.3,0,0,0,.08.32c0,.09.13.13.48.17s0,.26,0,.26a1.31,1.31,0,0,0-.36.09.39.39,0,0,0-.24.21c-.06.09,0,.16,0,.25s.09.06.22.11.14.08.11.15-.13,0-.2,0l-.29.07c-.05,0-.35.12-.43.17s-.38.27-.49.37a.92.92,0,0,0-.18.49c0,.1.16.18.22.1a.27.27,0,0,1,.26-.05s0,.18-.09.31a1.29,1.29,0,0,1-.5.49c-.27.14-1.35.45-1.49.51l-.35.18-.28.24a.34.34,0,0,0-.09.29.35.35,0,0,0,.1.23.88.88,0,0,1,.09.21l-.19,0a2.84,2.84,0,0,1-.4-.24,1.13,1.13,0,0,0-.62-.18,6.78,6.78,0,0,0-1.1.22l-1.94.58a1.76,1.76,0,0,0-.13.35,2.72,2.72,0,0,1-.37.89A5,5,0,0,1,8,12l.16.24c.09.13.05.26.12.46a13.82,13.82,0,0,0,.54,1.61c.33.72,1.35,2.35,1.35,2.35a5.36,5.36,0,0,1,1.13-.19,6.71,6.71,0,0,1,2.07.13,10.36,10.36,0,0,0,2.59,0c.38,0,2.41-.36,3.53-.54a4.93,4.93,0,0,1,2.69.19,10.9,10.9,0,0,1,2.25,1.27,8.36,8.36,0,0,1,.73.73,10.54,10.54,0,0,1,.52,1A5.54,5.54,0,0,1,26,20.81a8.42,8.42,0,0,1,0,1,2.71,2.71,0,0,1-.16.86c0,.09-.29.62-.32.72s-.06.29-.06.29a1.24,1.24,0,0,0,.14.2c.08.09.09.11.14.14s0,.08,0,.08l.1.14-.45-.16a2.74,2.74,0,0,0,.22.25c.06.07,0,.1.06.14l.05.08-.05.1a.21.21,0,0,1,0,.2c-.05.09-.13,0-.13,0l-.26-.31c-.06-.09-.06.14-.06.14a8.39,8.39,0,0,0-.18,1.13c0,.14.14,1.07.2,1.36s.52,1.2.61,1.42A1.33,1.33,0,0,1,26,29c0,.09-.05.38-.12,1s-.05,1.59-.05,1.75.13.42.13.55-.17.37-.2.45a2,2,0,0,0-.07.5c0,.1-.18,1.17-.18,1.36s.08,1.26.08,1.38,0,.35,0,.51a3.3,3.3,0,0,1-.15.47c0,.09-.3.12-.45.14l-.39,0a3.51,3.51,0,0,1-.76,0c-.13-.06.1-.28.16-.32a.48.48,0,0,1-.14.06,6.66,6.66,0,0,1-.59-.55A3.79,3.79,0,0,1,22.41,35a1.8,1.8,0,0,1-.07-1.21c0-.19.19-1.23.32-1.93s.2-2.14.23-2.38a1.88,1.88,0,0,0-.19-.9c-.16-.36-.41-.27-.75-.42s-1.12-.46-1.64-.72-2.08-1.18-2.08-1.18a6.44,6.44,0,0,0-1,.36,2.7,2.7,0,0,1-.67.18c-.13,0-.86.29-1.35.42a7.07,7.07,0,0,0-1.56.7c0,.05.24,1,.27,1.28s.12,1.95.12,2.24.38,3.13.39,3.34.4,1.6.53,2a.59.59,0,0,1-.31.74c-.13,0-.62.06-.82.09s-.21-.21-.21-.27a2.26,2.26,0,0,1,0-.25c0-.09,0-.32.07-.5a4.41,4.41,0,0,0,0-.71c0-.24-.07-.65-.11-1s-.31-.9-.35-1.19-.26-1.13-.33-1.39-.31-1.21-.45-1.51-.53-2-.53-2-.5.94-.63,1.14-.82,1.17-.92,1.34-.47.73-.59,1-.26.44-.35.6S9.06,34.34,9,34.53a12.6,12.6,0,0,0-.27,1.67,2.87,2.87,0,0,0,.27,1,.57.57,0,0,1-.22.64l-.5,0H7.69c-.29,0-.32-.15-.36-.26s0-.25.06-.38,0-.37,0-.55a3,3,0,0,1,.26-.76c.07-.19.68-1.66.75-1.88a9,9,0,0,0,.39-1.75,2.32,2.32,0,0,1,.08-.73,14.23,14.23,0,0,1,.61-1.44,18.3,18.3,0,0,0,.85-2.49s0-.35,0-.44a.76.76,0,0,0-.19-.38c-.08-.08-.49-.71-.49-.71a2,2,0,0,1-.33-.23,5,5,0,0,1-.94-1.08A5.5,5.5,0,0,1,8,23.44c-.08-.14-.81-.91-.88-1s-.79-.92-1-1.18S5.28,20,5,19.54a7.32,7.32,0,0,1-.41-1.66c-.57-1.08-.28-1.66-.28-1.66l-.26,0a1,1,0,0,1-.22-.09,2.83,2.83,0,0,1-.33-.27,2.54,2.54,0,0,1-.26-.44.56.56,0,0,1,.1-.48,1.61,1.61,0,0,0,.23-.53,3.87,3.87,0,0,0,0-.45,1.39,1.39,0,0,0-.2-.31.68.68,0,0,1-.2-.66,2.48,2.48,0,0,1,.08-.27s0-.25,0-.34a1.7,1.7,0,0,1,.26-.42l0-.13a.92.92,0,0,1-.11-.24c0-.11-.09-.36-.11-.45s.16-.4.12-.42l-.39-.1a3.4,3.4,0,0,1-.61-.17c-.27-.1-.41-.11-.58-.18a2.15,2.15,0,0,1-.55-.38,3.15,3.15,0,0,0-.71-.3A1.49,1.49,0,0,1,0,8.83C-.11,8.46.21,8.81.29,8.9ZM23.56,34.21a1.37,1.37,0,0,0,0,.29c0,.06.08.19.08.19a1.82,1.82,0,0,1,.13.24c0,.1.26.27.32.38a.67.67,0,0,1,.06.32.71.71,0,0,1,.08-.15c.05-.09.12-.29.19-.47a4.71,4.71,0,0,0,0-.84c0-.18.09-1,.1-1.18s.07-1.09.07-1.63a6.7,6.7,0,0,0-.31-1.5s-.08.11-.12.18-.07.44-.14.64a8.07,8.07,0,0,1-.2.82,4.38,4.38,0,0,0-.2,1c0,.16-.06.7-.06,1S23.56,34.21,23.56,34.21ZM7.35,10.49c.06,0,.09,0,.19-.05a3.72,3.72,0,0,0,.44-.2c.16-.07.54-.28.54-.28l-.38.09a1.48,1.48,0,0,0-.24,0l-.37.12a.94.94,0,0,0-.27.2S7.28,10.46,7.35,10.49Z"/></g></g></svg>