<svg xmlns="http://www.w3.org/2000/svg" width="22.6" height="30.7" viewBox="0 0 22.6 30.7">
  <title>subject-ranger-fence_attendant</title>
  <g id="Layer_2" data-name="Layer 2">
    <g id="Layer_1-2" data-name="Layer 1">
      <g>
        <path d="M22.5,10.9v-.4c0-1.2-.4-2.7-1.8-3.1H12a2.9,2.9,0,0,0-1.9,3.1v.4h0v2.7a4.7,4.7,0,0,0-2.9-1.5v-.6l-1.1-.5-.3.3v1.3a10.4,10.4,0,0,1,3.7,2.2l.7,1.1v1.9A1.1,1.1,0,0,0,11.2,19a1,1,0,0,0,1-1.1V11h.9v7.4h0v11a1.3,1.3,0,0,0,1.3,1.3h0a1.3,1.3,0,0,0,1.3-1.3v-11h1.2v11a1.3,1.3,0,0,0,1.3,1.3h0a1.3,1.3,0,0,0,1.4-1.3v-11h0V11h.8v6.9a1.1,1.1,0,0,0,2.2,0V11Z" fill="#1a2026"/>
        <path d="M16.3,6.5a3.3,3.3,0,0,0,3.3-3.3A3.3,3.3,0,0,0,16.3,0a3.2,3.2,0,0,0-3.2,3.2A3.2,3.2,0,0,0,16.3,6.5Z" fill="#1a2026"/>
        <path d="M4.3,12.5H3.6v-.8L.1,7.4v.4a31.6,31.6,0,0,0,1.1,3.1c.4.9.8,1.6.8,1.6l1.2.9H4.2Z" fill="#1a2026"/>
        <path d="M5.8,16.6a19.6,19.6,0,0,1-.2-5.2L5,10,3.5,8.9.7,7.2H.3l3.5,4.2.8.2a17,17,0,0,0-.1,1.9H4c-.3,0-.5.3-.4.5v.5a.4.4,0,0,0,.5.3h.2a5.3,5.3,0,0,0,.3,2,9.2,9.2,0,0,0,2.9,3,1.3,1.3,0,0,0,1-.1S6.2,17.8,5.8,16.6Z" fill="#1a2026"/>
      </g>
    </g>
  </g>
</svg>
