<svg xmlns="http://www.w3.org/2000/svg" width="35.9518" height="48" viewBox="0 0 35.9518 48"><title>giraffe-male</title><g id="Layer_2" data-name="Layer 2"><g id="Layer_1-2" data-name="Layer 1"><g opacity="0.8"><path d="M17.796,47a7.3853,7.3853,0,0,1-1.2139-.1123,1.8175,1.8175,0,0,1-1.2861-.6631c-.0342.001-.0674.002-.1016.002a4.7947,4.7947,0,0,1-.8154-.085c-.0986-.0166-.1982-.03-.2949-.043a1.9573,1.9573,0,0,1-1.67-.8018,1.2877,1.2877,0,0,1-.0371-1.166,3.87,3.87,0,0,1,.5928-.8213c.0928-.1094.2617-.3105.36-.4434-.0088-.084-.0264-.1748-.0391-.2607a2.8835,2.8835,0,0,1-.0137-1.2354c.06-.2656.19-1.79.2334-2.291l.0459-.5137a5.052,5.052,0,0,0-.0107-.5781,7.9826,7.9826,0,0,1,.0107-1.2041,3.1084,3.1084,0,0,0-.0713-.8555c-.0234-.1309-.0469-.2627-.0645-.3965a19.98,19.98,0,0,1-.0332-3.22,18.9917,18.9917,0,0,0,.0264-1.9453,9.6721,9.6721,0,0,0-.9756-3.002,3.1009,3.1009,0,0,1-.5127-3.1553,8.97,8.97,0,0,0,.5537-1.9473,2.4016,2.4016,0,0,0-.1562-.2451L12.15,21.775a7.8506,7.8506,0,0,1-.7646-1.2129s-.2471-.4756-.3174-.6055a12.1168,12.1168,0,0,1-.7627-1.6211s-.0937-.248-.1025-.2764l-.0674-.2129c-.0684-.2236-.1367-.4678-.2012-.7324-.1143-.4795-.458-1.57-.46-1.5752-.2314-.916-.3809-1.6562-.4883-2.2139a24.0506,24.0506,0,0,0-1.32-3.5889,7.07,7.07,0,0,0-.37-.7793h-.01c-.0088.0156-.2393.1455-.3926.2314-.1924.1094-.3594.2021-.5264.2832a6.1463,6.1463,0,0,1-1.7324.4561c-.0859.07-.1777.1631-.2471.2295-.1191.1143-.2217.21-.3037.2764a1.6351,1.6351,0,0,1-1.041.3828,1.5963,1.5963,0,0,1-.2432-.0186,1.3627,1.3627,0,0,1-.6133.1748,1.1556,1.1556,0,0,1-.3105-.042,1.1813,1.1813,0,0,1-.7295-.5937A2.4273,2.4273,0,0,1,1.0216,9.05,4.08,4.08,0,0,1,2.3868,6.693a1.6565,1.6565,0,0,0,.2744-.6611c.0586-.1963.124-.4131.209-.6514A2.9635,2.9635,0,0,1,4.004,3.9215c-.0166-.15-.0342-.2812-.0488-.3535a2.3747,2.3747,0,0,1-.0635-.2861,1.38,1.38,0,0,1-.1035-1.3926,1.8277,1.8277,0,0,1,1.67-.8887A2.0883,2.0883,0,0,1,5.9,1.0455,1.5461,1.5461,0,0,1,6.2,1.1412a1.523,1.523,0,0,1,.585-.1143,1.7826,1.7826,0,0,1,1.5713.959,1.2958,1.2958,0,0,1,.0811.8818A5.811,5.811,0,0,1,9.4,2.5348a2.1917,2.1917,0,0,1,.4863-.0586,1.3168,1.3168,0,0,1,1.2529.7529,1.4432,1.4432,0,0,1-.3311,1.5957c-.124.1455-.2119.2549-.2988.3779.4727.59,1.2441,1.584,2.56,3.28,2.8906,3.7246,7.6846,9.9023,8.3154,10.6191A6.8008,6.8008,0,0,0,24.5,20.4869c.7285.1816,1.5439.3848,2.415.6563,2.6982.84,3.7334,1.9063,4.0928,2.4141a5.5219,5.5219,0,0,1,1.0479,2.1113l.1523.4473a11.4135,11.4135,0,0,1,.4,2.5967c.0352.4492.0645.8271.11,1.1055a5.92,5.92,0,0,0,.5557,1.5537.9784.9784,0,0,1,.0918.1768l.0371.0938c.0166.0352.0537.0986.0957.1738a5.0868,5.0868,0,0,1,.6992,1.65,3.4976,3.4976,0,0,1,.0176.7549c-.0039.0625-.0088.1094-.0068.1543a.5868.5868,0,0,1,.168.1416,1.8234,1.8234,0,0,1,.5117,1.8281,5.62,5.62,0,0,1-.1758.6045c-.0156.0469-.03.0879-.043.125a1.2771,1.2771,0,0,1,.0059,1.165,1.2339,1.2339,0,0,1-1.1035.667,1.7377,1.7377,0,0,1-1.45-.957.846.846,0,0,0-.084-.1055,2.7625,2.7625,0,0,1-.6914-1.8984,1.671,1.671,0,0,1,.3281-1.07c-.0088-.0713-.0176-.1445-.0254-.2187a3.144,3.144,0,0,0-.0557-.3848l-.0859-.3711a1.6627,1.6627,0,0,0-.4648-.9541.9777.9777,0,0,1-.165-.3057,1.5536,1.5536,0,0,1-.125-.3223h0s-.0205-.08-.1074-.3164a6.336,6.336,0,0,0,.1543,1.59,5.86,5.86,0,0,0,.2549.709,2.28,2.28,0,0,1,.1621,1.6855c-.12.4053-.4287,2.333-.6758,4.2109a6.416,6.416,0,0,0,.0449,2.208c.0313.1846.05.2949.0625.3975a3.1825,3.1825,0,0,1-.4824,1.8613l-.0479.0908a1.2523,1.2523,0,0,1-.1123,1.124c-.3525.5264-.9482.7314-2.0723.7314a4.4424,4.4424,0,0,1-1.6348-.3145,1.1334,1.1334,0,0,1-.668-.8467,1.1948,1.1948,0,0,1,.1289-.7881s-.1973.1533-.2666.2119a1.0167,1.0167,0,0,0,.0156.1094,1.1678,1.1678,0,0,1-.749,1.3281,3.5975,3.5975,0,0,1-1.2178.1768L23.171,46.48a1.8027,1.8027,0,0,1-1.6582-.6514,1.3054,1.3054,0,0,1-.0771-1.251.9974.9974,0,0,1,.0713-.1357,7.1468,7.1468,0,0,1,1.1494-1.4336,2.5451,2.5451,0,0,0,.377-.54,3.0956,3.0956,0,0,1,.1748-.6885c.0361-.1064.0771-.2285.1113-.3535.0283-.1143.16-.5381.332-1.0928.2324-.7432.9395-3.0049.999-3.3818,0-.0645-.0342-.2354-.0635-.4326a7.5865,7.5865,0,0,1-.11-1.51,2.6191,2.6191,0,0,0-.09-1.1162c-.0527-.1338-.2-.4053-.3535-.6943-.2539-.4834-.5137-.9775-.6709-1.3682a7.0772,7.0772,0,0,1-.2275-.6982c-.1953.0049-.38.0068-.5137.0068-.1523,0-.3057-.002-.4551-.0059a4.4912,4.4912,0,0,1-1.8437-.5654c-.1426-.0693-.2861-.1416-.4316-.2021-.0762.8691-.1758,1.9463-.251,2.5049a9.446,9.446,0,0,0,.0156,2.2578,6.5544,6.5544,0,0,1-.2109,2.64A27.9166,27.9166,0,0,0,19.669,42.14a3.005,3.005,0,0,1-.19,2.1406c.0059.0635.0215.1328.0352.2119l.042.2676a1.6874,1.6874,0,0,0,.0469.1963,1.4349,1.4349,0,0,1-.6172,1.7891A2.2626,2.2626,0,0,1,17.796,47Zm12.291-2.1846Zm-2.8877-4.1191c-.2266.7158-.4189,1.3213-.5039,1.5469a4.9237,4.9237,0,0,0-.1582.72,3.9728,3.9728,0,0,1-.3174,1.1758c.1279-.1348.3027-.3252.5156-.5713.1992-.2314.2285-.3633.34-1.17l.08-.5684a9.7063,9.7063,0,0,0,.0654-1.2012Z" fill="#fff"/><path d="M5.4581,2a1.0877,1.0877,0,0,1,.2287.0228.3961.3961,0,0,1,.3.2087.586.586,0,0,1-.09.5074.2113.2113,0,0,1-.0344.0524l-.0006-.0009L5.86,2.8488a3.7874,3.7874,0,0,0,.0683,1.0957,1.1516,1.1516,0,0,0,.19-.4353,2.5588,2.5588,0,0,1,.0885-.2771,1.4936,1.4936,0,0,0,.0922-.3134A.4131.4131,0,0,1,6.1647,2.54a.6336.6336,0,0,1,.4072-.47.53.53,0,0,1,.2137-.0426.7942.7942,0,0,1,.6629.3766.2774.2774,0,0,1-.0312.3077,2.4426,2.4426,0,0,0-.38,1.2444l.0052.0981c.002.0143.002.0271.0027.038l.0163.0031.1171.0227a.8811.8811,0,0,1,.3353.1718.3612.3612,0,0,0,.1892.0946A.1958.1958,0,0,0,7.82,4.3372,6.2466,6.2466,0,0,1,9.6254,3.51a1.1769,1.1769,0,0,1,.2613-.0336c.2109,0,.3053.0844.341.163.0654.1407.0051.3181-.184.5416a5.567,5.567,0,0,0-.5937.8188,1.4572,1.4572,0,0,1-.1935.218c.0533.02,11.1447,14.406,11.47,14.6423a7.7914,7.7914,0,0,0,3.532,1.5981c.709.1765,1.5132.3767,2.36.6406,2.7336.8517,3.4991,1.9146,3.6108,2.0918a4.4634,4.4634,0,0,1,.8774,1.7928c.051.1516.1021.3064.1564.4626a10.7747,10.7747,0,0,1,.3481,2.348c.0362.4509.07.8781.121,1.1882a7.1449,7.1449,0,0,0,.6946,1.9341l.0095.0007.0369.093c.03.0765.105.2076.1923.3647a4.4581,4.4581,0,0,1,.5425,1.23,2.62,2.62,0,0,1,.01.5614.9214.9214,0,0,0,.1729.7313,3.2237,3.2237,0,0,0,.2569.3042.8473.8473,0,0,1,.2647.9281,4.791,4.791,0,0,1-.1513.5139c-.1245.3645-.1883.5793-.0609.7567.0411.0565.1649.2291.086.3838a.2326.2326,0,0,1-.2141.1222.7782.7782,0,0,1-.574-.4384,1.6322,1.6322,0,0,0-.1942-.2662,1.7735,1.7735,0,0,1-.4581-1.29c-.0189-.5634.5076-.6287.3862-.8826-.084-.1777-.0827-.6531-.166-.9963a3.057,3.057,0,0,0-.74-1.7083,1.0853,1.0853,0,0,0-.0932-.2084,8.4471,8.4471,0,0,0-.4055-1.1224,20.3337,20.3337,0,0,1-1.0345-3.5253c-.0586.5044-.2124,1.2754-.3532,1.9771-.0638.3157-.121.6046-.16.8215a10.1107,10.1107,0,0,0,.0587,3.5994,6.7544,6.7544,0,0,0,.2941.82,1.3127,1.3127,0,0,1,.1262,1.0176c-.1573.53-.4829,2.6436-.7089,4.363a7.3857,7.3857,0,0,0,.0515,2.51c.0214.1273.0413.2415.0541.3453a2.26,2.26,0,0,1-.37,1.2677c-.0384.0709-.0729.1349-.0986.19a.9874.9874,0,0,0-.0071.72.2524.2524,0,0,1-.0178.2419c-.0432.0659-.1745.2679-1.2281.2679a3.5759,3.5759,0,0,1-1.2178-.2235.1649.1649,0,0,1-.1022-.1241.169.169,0,0,1,.0508-.1543c.0025-.0026.3162-.2965.8273-.8894a2.7414,2.7414,0,0,0,.5732-1.6855c.0233-.1689.049-.3544.08-.5607A29.6509,29.6509,0,0,0,28,36.4663c-.03-.1525-.06-.2789-.0867-.382a11.1239,11.1239,0,0,1-.6342,1.235c-.135.22-.6326,1.8029-.997,2.9591-.2338.7412-.4347,1.3816-.5224,1.6122a5.4971,5.4971,0,0,0-.2122.927c-.092.5409-.1529.8528-.3215.9918-.0523.0419-.1084.0853-.1657.13a2.3921,2.3921,0,0,0-.5148.4832,1.3918,1.3918,0,0,0-.0173.7561.1692.1692,0,0,1-.1089.1914,2.8113,2.8113,0,0,1-.88.1174q-.0714,0-.1478-.0027l-.1945-.0056c-.456-.0128-.731-.0205-.8456-.196a.3088.3088,0,0,1,.001-.3079,6.8082,6.8082,0,0,1,.9384-1.1949,3.1241,3.1241,0,0,0,.7383-1.11,1.48,1.48,0,0,1,.1262-.57c.0428-.1279.0911-.2705.13-.4175.0311-.1174.1564-.5229.3217-1.0525.3582-1.1475,1.0242-3.2839,1.038-3.5753a4.1073,4.1073,0,0,0-.0687-.6875,6.5816,6.5816,0,0,1-.1-1.3088,3.5723,3.5723,0,0,0-.1561-1.5266c-.0626-.1594-.2277-.4717-.4028-.8025-.2269-.4314-.4836-.9181-.6265-1.2743A8.141,8.141,0,0,1,24,30.49c-.036-.1412-.0782-.308-.11-.4032-.0627.0085-.1434.0154-.2313.0214a.1634.1634,0,0,1-.03.0044l-.0035-.0017c-.3256.0212-.7572.0287-1.0038.0287-.1435,0-.2877-.0016-.4271-.0055a3.5928,3.5928,0,0,1-1.4351-.4655,5.8941,5.8941,0,0,0-.795-.3407A5.2184,5.2184,0,0,0,19,29.08c-.0085.0872-.0224.2479-.04.4572-.0757.87-.2159,2.4882-.3112,3.2015a10.3241,10.3241,0,0,0,.02,2.5549,5.6276,5.6276,0,0,1-.1742,2.16,23.931,23.931,0,0,0,.1949,4.89,1.9871,1.9871,0,0,1-.1435,1.5623,1.1639,1.1639,0,0,0-.0189.755c.0128.075.0259.1534.0372.2333a2.8405,2.8405,0,0,0,.0729.3275c.0618.2317.1323.494-.1548.6608A1.42,1.42,0,0,1,17.7963,46a6.39,6.39,0,0,1-1.0433-.098c-.3695-.0636-.5722-.1241-.6548-.2808a.47.47,0,0,1,.0483-.417,6.143,6.143,0,0,0,.2079-.5809c.06-.1871.1227-.3811.19-.5516a1.4226,1.4226,0,0,0,.0387-.6765,2.0962,2.0962,0,0,1-.0208-.81c.0807-.3033.1237-1.85.1845-2.5637.0172-.2028.0312-.3638.04-.454a6.1022,6.1022,0,0,0-.0043-.7319,7.0217,7.0217,0,0,1,.005-1.046c.0405-.3683.0721-.244-.0405-.5325-.0463-.1206-.0038-.4216-.046-.56a4.9948,4.9948,0,0,1,.0138-1.5913,7.2737,7.2737,0,0,0-.1051-1.2218,14.1945,14.1945,0,0,0-.1881-1.6272c-.0482.8595-.234,1.8923-.1772,2.2263a5.605,5.605,0,0,1-.1523,2.1587,22.9169,22.9169,0,0,0,.3069,4.722,1.8785,1.8785,0,0,1-.2976,1.4945,2.6819,2.6819,0,0,0-.1576,1.0636l.0181.1254c.0626.4133.1264.8412-.1994,1.0327a1.0379,1.0379,0,0,1-.5681.146,3.9506,3.9506,0,0,1-.6455-.0709c-.141-.024-.2843-.0422-.4193-.06-.4269-.0541-.7348-.0928-.8405-.2836a.2887.2887,0,0,1-.0023-.2655,3.5433,3.5433,0,0,1,.446-.5906,4.1164,4.1164,0,0,0,.5747-.7794,1.8171,1.8171,0,0,0-.03-.7338,2.1344,2.1344,0,0,1-.0344-.8138c.08-.3042.2061-1.7882.268-2.5023.0173-.2024.03-.3634.04-.4531a5.9957,5.9957,0,0,0-.0052-.7322,7.3123,7.3123,0,0,1,.0052-1.0466,3.9342,3.9342,0,0,0-.0807-1.1412c-.0216-.1194-.0422-.2388-.0586-.359a19.7188,19.7188,0,0,1-.0223-3.0857,18.47,18.47,0,0,0,.0214-2.0359,10.2749,10.2749,0,0,0-1.1689-3.5111,2.1106,2.1106,0,0,1-.3764-2.2094,8.9179,8.9179,0,0,0,.6205-2.3424,1.4225,1.4225,0,0,0-.3411-.7648v0c-.0576-.0831-.1206-.1681-.185-.2571a6.97,6.97,0,0,1-.6752-1.0618c-.0385-.0791-.0782-.156-.1179-.2329-.0722-.14-.146-.2769-.22-.4139v0a11.0019,11.0019,0,0,1-.7037-1.4888l-.0706-.1891.0051-.0009c-.0051-.0142-.01-.0286-.0146-.0432l-.0061.0035-.0646-.2054-.0006-.0021c-.0638-.2063-.1266-.4294-.1848-.6732-.12-.4985-.4785-1.64-.4785-1.64-.2106-.8378-.356-1.5612-.4615-2.105a23.5856,23.5856,0,0,0-1.38-3.7888c-.5844-1.3824-.7914-1.3838-1.1189-1.3861-.0422,0-.0815,0-.1556-.0029a2.1588,2.1588,0,0,0-.9246.37c-.15.0848-.3017.1707-.4547.2443a5.4766,5.4766,0,0,1-1.5.3754l-.12.0175a2.1016,2.1016,0,0,0-.6232.4786c-.0918.0869-.1745.166-.2413.22a.62.62,0,0,1-.7184.0713,1.5164,1.5164,0,0,0-.4532.2134.1647.1647,0,0,1-.134.02A.1685.1685,0,0,1,2.036,9.88c-.0148-.0315-.0619-.126-.0173-.76a3.341,3.341,0,0,1,1.096-1.7422A2.389,2.389,0,0,0,3.6189,6.32c.055-.1847.1161-.3853.1941-.605A2.1064,2.1064,0,0,1,4.7492,4.62c.103-.0706.2069-.1411.3076-.2224-.0344-.3806-.0945-.9456-.133-1.0764a1.7534,1.7534,0,0,1-.0465-.2128A.899.899,0,0,0,4.72,2.6814a.3169.3169,0,0,1-.0369-.3444A.8834.8834,0,0,1,5.4581,2m0-2A2.7907,2.7907,0,0,0,2.8923,1.4467a2.301,2.301,0,0,0,.0112,2.089,3.8512,3.8512,0,0,0-.9714,1.5c-.0946.2661-.1661.4994-.23.7142-.0327.1089-.0721.24-.1.3167A4.8415,4.8415,0,0,0,.0239,8.9781,3.362,3.362,0,0,0,.2254,10.73c.0092.02.0191.04.029.0592a2.17,2.17,0,0,0,1.3736,1.11,2.364,2.364,0,0,0,.5587.0734,2.1606,2.1606,0,0,0,.81-.1572l.0445,0a2.6165,2.6165,0,0,0,1.6723-.6063c.085-.0686.202-.1755.33-.2964l.0453-.0436a6.3838,6.3838,0,0,0,1.71-.4967l.0416-.02A23.3539,23.3539,0,0,1,8.004,13.52c.1172.6041.2671,1.343.4843,2.207q.0142.0566.0317.1123c.1309.4163.3665,1.1934.4416,1.5067.0689.2881.1433.5529.219.7976l.001.0033.0025.0081.0646.2054q.0224.0712.05.14l.07.1888a12.7736,12.7736,0,0,0,.8146,1.7341c.0791.1471.1429.2656.2054.3868l.0971.1914a8.8358,8.8358,0,0,0,.8578,1.3652l.05.0691.031.0431a12.724,12.724,0,0,1-.4383,1.386,4.1486,4.1486,0,0,0,.63,4.076,8.94,8.94,0,0,1,.8018,2.5179c.0311.335,0,1.0881-.0278,1.7527l-.0023.0553a20.6492,20.6492,0,0,0,.0419,3.4077c.019.139.0441.2869.0708.4346a2.3944,2.3944,0,0,1,.0611.5646,8.8052,8.8052,0,0,0-.0165,1.33c.0072.1678.0177.4082.0126.4878-.0054.05-.0155.1676-.028.3156l-.0126.1492-.0079.0916c-.0385.4445-.1541,1.78-.2127,2.1156a3.587,3.587,0,0,0-.0226,1.4187l-.0689.0815a4.6921,4.6921,0,0,0-.7371,1.0483,2.2732,2.2732,0,0,0,.07,2.0674,2.7918,2.7918,0,0,0,2.3374,1.3l.041.0054c.096.0127.1965.0255.2954.0425.24.0413.4459.0687.632.0842a3.0881,3.0881,0,0,0,1.5694.6616A8.3441,8.3441,0,0,0,17.7963,48a3.309,3.309,0,0,0,1.7076-.3988A2.4122,2.4122,0,0,0,20.5886,46.23q.0374.0679.08.1339a2.7446,2.7446,0,0,0,2.472,1.1146l.1931.0056c.0614.0023.1347.0035.2056.0035a4.7091,4.7091,0,0,0,1.5719-.241,2.0784,2.0784,0,0,0,.4469-.2242,2.1362,2.1362,0,0,0,.4307.2279,5.5428,5.5428,0,0,0,1.9451.36,3.1739,3.1739,0,0,0,2.9013-1.1724,2.284,2.284,0,0,0,.3442-1.5531,3.8735,3.8735,0,0,0,.4618-2.1995c-.0157-.1268-.0367-.2559-.0606-.3977l-.0094-.0555a5.4581,5.4581,0,0,1-.0387-1.9048c.0573-.4359.1161-.8616.1741-1.2638a2.5889,2.5889,0,0,0,1.8655.842,2.2305,2.2305,0,0,0,2.1558-2.8413c.049-.1536.0982-.323.139-.5117a2.7613,2.7613,0,0,0-.639-2.584,4.169,4.169,0,0,0-.0391-.6423,5.613,5.613,0,0,0-.7728-1.92l-.0354-.0636c-.0262-.047-.05-.09-.07-.1261l-.0147-.0374a1.9987,1.9987,0,0,0-.1459-.2947,4.8994,4.8994,0,0,1-.445-1.2338c-.0354-.2134-.0663-.5991-.0963-.9722l-1.4974.0811.0024-.0131,1.4909-.119a11.9975,11.9975,0,0,0-.4529-2.8414l-.11-.3253-.0388-.1157A6.4862,6.4862,0,0,0,31.78,22.9183c-.4769-.6382-1.7026-1.8372-4.566-2.7292-.9018-.2811-1.7356-.4888-2.4713-.6719a5.8225,5.8225,0,0,1-2.6745-1.1559c-.857-1.02-5.59-7.1184-8.1831-10.4595-.93-1.1986-1.6047-2.0677-2.1052-2.702a2.3707,2.3707,0,0,0,.262-2.4039,2.3175,2.3175,0,0,0-2.1546-1.32,3.1286,3.1286,0,0,0-.6328.0676A2.7913,2.7913,0,0,0,6.7855.0273a2.5543,2.5543,0,0,0-.5747.0646Q6.1556.0776,6.0993.0658A3.0561,3.0561,0,0,0,5.4581,0ZM20.4386,37.9377a7.6952,7.6952,0,0,0,.2038-2.9707,8.5158,8.5158,0,0,1-.0112-1.9647c.0386-.2882.0826-.7.1268-1.15a4.3366,4.3366,0,0,0,1.3793.28c.09.0026.1808.0043.2723.0052l.0231.059c.18.45.4579.9773.7028,1.4429.116.219.2865.541.3292.64a2.4853,2.4853,0,0,1,.0142.6713,8.4077,8.4077,0,0,0,.1185,1.71c.0135.0907.0276.1748.0374.25-.1064.4209-.4209,1.469-.9374,3.1234-.1785.572-.3125,1.01-.346,1.1371-.0259.0989-.058.19-.0858.2733a4.9238,4.9238,0,0,0-.1921.6824,1.7774,1.7774,0,0,1-.1064.1527,7.7927,7.7927,0,0,0-1.2835,1.5922,4.5336,4.5336,0,0,0-.0353-1.9365,28.2843,28.2843,0,0,1-.21-3.9988Z" fill="#fff"/></g><path d="M24.917,32.7308c-.2268-.4314-.4835-.9181-.6265-1.2743A8.1372,8.1372,0,0,1,24,30.49c-.036-.1411-.0782-.3079-.11-.4032-.0628.0086-.1435.0154-.2313.0214a.1639.1639,0,0,1-.03.0043l-.0035-.0017c-.3256.0213-.7572.0287-1.0038.0287-.1435,0-.2876-.0017-.4271-.0055a3.5946,3.5946,0,0,1-1.435-.4654,5.8884,5.8884,0,0,0-.7951-.3407A5.2221,5.2221,0,0,0,19,29.08c-.0085.0872-.0224.2479-.04.4571-.0757.87-.2159,2.4882-.3112,3.2015a10.3246,10.3246,0,0,0,.02,2.5549,5.6284,5.6284,0,0,1-.1742,2.16,23.9325,23.9325,0,0,0,.1949,4.89,1.9874,1.9874,0,0,1-.1435,1.5622,1.164,1.164,0,0,0-.0189.7551c.0128.0749.0259.1534.0372.2333a2.8467,2.8467,0,0,0,.0729.3275c.0618.2316.1323.494-.1548.6607A1.4184,1.4184,0,0,1,17.7963,46a6.3956,6.3956,0,0,1-1.0433-.098c-.3695-.0636-.5722-.1242-.6548-.2808a.47.47,0,0,1,.0483-.417,6.1462,6.1462,0,0,0,.2079-.581c.06-.1871.1227-.3811.19-.5516a1.4225,1.4225,0,0,0,.0387-.6765,2.0954,2.0954,0,0,1-.0208-.81c.0807-.3034.1237-1.85.1845-2.5637.0173-.2028.0312-.3638.04-.454a6.106,6.106,0,0,0-.0043-.732,7.0222,7.0222,0,0,1,.005-1.046c.0405-.3683.0721-.2441-.0405-.5325-.0463-.1206-.0038-.4216-.046-.56a4.9944,4.9944,0,0,1,.0138-1.5913,7.273,7.273,0,0,0-.1051-1.2218,14.1884,14.1884,0,0,0-.1881-1.6272c-.0482.8595-.234,1.8924-.1772,2.2263a5.6048,5.6048,0,0,1-.1523,2.1587,22.918,22.918,0,0,0,.3069,4.7221,1.8784,1.8784,0,0,1-.2976,1.4945,2.6816,2.6816,0,0,0-.1576,1.0636l.0181.1254c.0626.4133.1264.8412-.1994,1.0327a1.0379,1.0379,0,0,1-.5681.146,3.9465,3.9465,0,0,1-.6455-.0709c-.141-.0241-.2843-.0422-.4193-.06-.4269-.0541-.7348-.0928-.8406-.2836a.2888.2888,0,0,1-.0023-.2655,3.5369,3.5369,0,0,1,.446-.59,4.1173,4.1173,0,0,0,.5747-.7795,1.817,1.817,0,0,0-.03-.7338,2.1347,2.1347,0,0,1-.0344-.8138c.08-.3042.2061-1.7882.268-2.5023.0173-.2024.03-.3635.04-.4532a5.9928,5.9928,0,0,0-.0051-.7321,7.3107,7.3107,0,0,1,.0051-1.0466,3.9343,3.9343,0,0,0-.0807-1.1413c-.0216-.1194-.0422-.2388-.0586-.359a19.7171,19.7171,0,0,1-.0223-3.0856,18.4778,18.4778,0,0,0,.0214-2.036,10.2755,10.2755,0,0,0-1.1689-3.5111,2.1106,2.1106,0,0,1-.3764-2.2094,8.9177,8.9177,0,0,0,.6205-2.3424,1.4223,1.4223,0,0,0-.3411-.7648v0c-.0576-.0832-.1206-.168-.185-.2571a6.9771,6.9771,0,0,1-.6752-1.0618c-.0385-.0792-.0782-.1561-.1179-.233-.0722-.14-.146-.2768-.22-.414v0a10.9953,10.9953,0,0,1-.7037-1.4887l-.0706-.1891.0051-.0008c-.0051-.0141-.01-.0286-.0146-.0432l-.0061.0035-.0646-.2054-.0007-.0022c-.0638-.2062-.1265-.4294-.1848-.6732-.12-.4985-.4786-1.64-.4786-1.64-.2106-.8377-.356-1.5611-.4615-2.1049a23.5884,23.5884,0,0,0-1.38-3.7889c-.5843-1.3824-.7914-1.3837-1.1189-1.3861-.0422,0-.0815,0-.1556-.003a2.16,2.16,0,0,0-.9246.3695c-.15.0849-.3017.1707-.4547.2443a5.4763,5.4763,0,0,1-1.5.3754l-.12.0174a2.1025,2.1025,0,0,0-.6232.4786c-.0918.087-.1745.1661-.2413.22a.6194.6194,0,0,1-.7183.0712,1.52,1.52,0,0,0-.4532.2134.1641.1641,0,0,1-.134.02.1686.1686,0,0,1-.1058-.086c-.0148-.0314-.0619-.1259-.0173-.76a3.3407,3.3407,0,0,1,1.096-1.7422A2.3889,2.3889,0,0,0,3.6189,6.32c.055-.1847.1161-.3852.1941-.6049A2.1059,2.1059,0,0,1,4.7492,4.62c.103-.0706.2069-.1411.3075-.2225-.0344-.3806-.0945-.9455-.133-1.0764a1.7578,1.7578,0,0,1-.0465-.2127A.8985.8985,0,0,0,4.72,2.6814a.317.317,0,0,1-.0369-.3444c.14-.2818.6626-.3882,1.0036-.3142a.3962.3962,0,0,1,.3.2087.5861.5861,0,0,1-.09.5075c-.0163.03-.0344.0578-.035.0515L5.86,2.8488a3.7877,3.7877,0,0,0,.0682,1.0956,1.1514,1.1514,0,0,0,.19-.4352,2.563,2.563,0,0,1,.0885-.2771,1.4933,1.4933,0,0,0,.0922-.3133A.4131.4131,0,0,1,6.1647,2.54a.6335.6335,0,0,1,.4072-.47.761.761,0,0,1,.8766.3339.2773.2773,0,0,1-.0312.3077,2.443,2.443,0,0,0-.38,1.2444l.0051.0981c.002.0143.002.0271.0027.038l.0163.003.1171.0227a.8816.8816,0,0,1,.3353.1717c.1194.0857.1853.1373.3059.0475A6.2505,6.2505,0,0,1,9.6254,3.51c.4-.0923.5543.0237.6023.1294.0654.1408.0051.3182-.184.5417a5.5662,5.5662,0,0,0-.5936.8188,1.4553,1.4553,0,0,1-.1935.218c.0533.02,11.1447,14.406,11.47,14.6423a7.79,7.79,0,0,0,3.532,1.5981c.7091.1765,1.5133.3768,2.36.6406,2.7336.8517,3.4991,1.9146,3.6109,2.0918a4.4655,4.4655,0,0,1,.8774,1.7929c.051.1516.1021.3064.1564.4626a10.7759,10.7759,0,0,1,.348,2.348c.0362.451.07.8781.1211,1.1883a7.1457,7.1457,0,0,0,.6946,1.934l.0095.0008.0369.093c.03.0766.1049.2076.1923.3647a4.4568,4.4568,0,0,1,.5425,1.23,2.62,2.62,0,0,1,.01.5614.9215.9215,0,0,0,.1729.7313,3.229,3.229,0,0,0,.2569.3042.8471.8471,0,0,1,.2647.9281,4.8056,4.8056,0,0,1-.1513.5139c-.1245.3645-.1883.5794-.0609.7567.0412.0565.1649.2292.086.3838a.2326.2326,0,0,1-.214.1222.7782.7782,0,0,1-.574-.4384,1.63,1.63,0,0,0-.1941-.2662,1.7735,1.7735,0,0,1-.4581-1.29c-.0189-.5634.5076-.6287.3862-.8826-.084-.1777-.0827-.6531-.1661-.9963a3.0564,3.0564,0,0,0-.74-1.7082,1.0814,1.0814,0,0,0-.0932-.2084,8.4568,8.4568,0,0,0-.4055-1.1225,20.3375,20.3375,0,0,1-1.0345-3.5252c-.0586.5043-.2124,1.2753-.3532,1.977-.0638.3157-.1211.6046-.16.8215a10.1115,10.1115,0,0,0,.0586,3.5994,6.7555,6.7555,0,0,0,.2941.82,1.3129,1.3129,0,0,1,.1262,1.0176c-.1573.53-.4829,2.6436-.7089,4.3631a7.3859,7.3859,0,0,0,.0515,2.51c.0214.1274.0413.2414.0541.3454a2.26,2.26,0,0,1-.37,1.2677c-.0384.0709-.0729.1348-.0986.19a.9881.9881,0,0,0-.0071.7205.2525.2525,0,0,1-.0178.2419c-.0432.0659-.1745.268-1.2281.268a3.5778,3.5778,0,0,1-1.2178-.2235.165.165,0,0,1-.1021-.1242.1688.1688,0,0,1,.0508-.1543c.0025-.0027.3162-.2966.8273-.8894a2.7416,2.7416,0,0,0,.5732-1.6856c.0232-.1689.049-.3544.08-.5606A29.6556,29.6556,0,0,0,28,36.4663c-.03-.1524-.06-.279-.0867-.3819a11.1343,11.1343,0,0,1-.6342,1.2349c-.135.22-.6327,1.8029-.997,2.9591-.2338.7413-.4347,1.3816-.5224,1.6122a5.4908,5.4908,0,0,0-.2122.9269c-.092.541-.1529.8529-.3215.9918-.0523.0418-.1084.0854-.1657.1305a2.3913,2.3913,0,0,0-.5148.4832,1.391,1.391,0,0,0-.0173.756.1693.1693,0,0,1-.1089.1915,2.9621,2.9621,0,0,1-1.0279.1147l-.1944-.0056c-.456-.0128-.731-.0206-.8455-.1961a.3086.3086,0,0,1,.001-.3079,6.8148,6.8148,0,0,1,.9384-1.1949,3.1242,3.1242,0,0,0,.7383-1.11,1.4813,1.4813,0,0,1,.1262-.57c.0428-.1279.0912-.2705.13-.4175.0311-.1174.1564-.5229.3216-1.0525.3582-1.1474,1.0242-3.2839,1.038-3.5753a4.1032,4.1032,0,0,0-.0687-.6875,6.5817,6.5817,0,0,1-.1-1.3088,3.5736,3.5736,0,0,0-.1561-1.5267C25.2573,33.3737,25.0922,33.0615,24.917,32.7308Z" fill="#1a2026"/></g></g></svg>