<svg xmlns="http://www.w3.org/2000/svg" width="35.951" height="48" viewBox="0 0 35.951 48"><title>giraffe-female</title><g id="Layer_2" data-name="Layer 2"><g id="Layer_1-2" data-name="Layer 1"><g opacity="0.8"><path d="M18.1549,47a2.2617,2.2617,0,0,1-1.1973-.2588,1.4264,1.4264,0,0,1-.6113-1.7744,1.8962,1.8962,0,0,0,.0518-.2266l.0342-.2187c.0176-.1016.0342-.1768.04-.2412a3.0035,3.0035,0,0,1-.19-2.1406,26.544,26.544,0,0,0,.2109-4.4189,6.4827,6.4827,0,0,1-.1973-2.59,9.472,9.472,0,0,0,.0156-2.2607c-.0752-.5586-.1748-1.6348-.251-2.5039-.1455.0605-.29.1328-.4316.2021a4.4912,4.4912,0,0,1-1.8428.5654c-.15.0039-.3027.0059-.4561.0059-.1338,0-.3193-.002-.5137-.0068a6.9182,6.9182,0,0,1-.2256.6934c-.1592.3955-.4189.89-.6484,1.3262-.1777.3359-.3252.6074-.38.7461a2.6246,2.6246,0,0,0-.0889,1.1074,7.5541,7.5541,0,0,1-.1084,1.51,3.1945,3.1945,0,0,0-.06.4961c.0547.3174.7617,2.5791.9932,3.3223.1719.5508.3027.9717.335,1.0947.0332.127.0742.2471.11.3545a3.0556,3.0556,0,0,1,.1738.6855,2.5259,2.5259,0,0,0,.3789.54A7.1606,7.1606,0,0,1,14.444,44.442a.9974.9974,0,0,1,.0713.1357,1.3054,1.3054,0,0,1-.0771,1.251,1.801,1.801,0,0,1-1.6562.6514l-.3721.0078a3.5959,3.5959,0,0,1-1.25-.1885,1.1571,1.1571,0,0,1-.72-1.3076c.0078-.0391.0137-.0811.0176-.12-.0586-.0479-.2666-.21-.2666-.21a1.1669,1.1669,0,0,1-.5967,1.6592,4.4643,4.4643,0,0,1-1.5771.29c-1.124,0-1.72-.2051-2.0586-.709a1.272,1.272,0,0,1-.126-1.1475l-.04-.0762a3.1974,3.1974,0,0,1-.49-1.873c.0166-.123.0361-.2432.0586-.377a6.48,6.48,0,0,0,.05-2.23c-.252-1.9131-.5557-3.8018-.6768-4.209a2.281,2.281,0,0,1,.1621-1.6865,5.7732,5.7732,0,0,0,.2549-.709,6.3492,6.3492,0,0,0,.1543-1.5908c-.0879.24-.1084.3223-.11.3281a1.2236,1.2236,0,0,1-.0986.2656l-.0078-.0029a.9941.9941,0,0,1-.18.3535,1.6705,1.6705,0,0,0-.4668.958l-.085.3662a3.1881,3.1881,0,0,0-.0557.3857c-.0078.0752-.0166.1484-.0264.2217a1.6629,1.6629,0,0,1,.3291,1.0684,2.7668,2.7668,0,0,1-.6924,1.8994.708.708,0,0,0-.084.1064,1.7375,1.7375,0,0,1-1.4482.9541,1.2349,1.2349,0,0,1-1.1025-.6621,1.2869,1.2869,0,0,1,.0049-1.1689l-.0381-.1074a5.7716,5.7716,0,0,1-.1816-.625A1.8144,1.8144,0,0,1,1.567,34.525a2.2626,2.2626,0,0,0,.1826-.2119h-.001c-.0068,0-.0107-.0391-.0137-.083a3.5825,3.5825,0,0,1,.0176-.7646,4.8336,4.8336,0,0,1,.6611-1.5791c.083-.15.12-.2148.1426-.2617l.0254-.0674a.9882.9882,0,0,1,.0967-.1895A5.8754,5.8754,0,0,0,3.232,29.817c.0459-.2773.0752-.6553.1074-1.0576a11.5191,11.5191,0,0,1,.4043-2.6436l.126-.37a5.7218,5.7218,0,0,1,1.0752-2.1914c.3223-.4482,1.3584-1.56,4.09-2.4111.8721-.2715,1.6875-.4746,2.4082-.6543a6.8161,6.8161,0,0,0,3.123-1.3867c.6309-.7168,5.4248-6.8945,8.3154-10.6191,1.3154-1.6963,2.0869-2.69,2.56-3.28-.0889-.125-.1758-.2324-.2969-.376a1.4454,1.4454,0,0,1-.3271-1.6094,1.3118,1.3118,0,0,1,1.2471-.7412,2.1767,2.1767,0,0,1,.4854.0586,5.8489,5.8489,0,0,1,.959.3311,1.3176,1.3176,0,0,1,.0859-.8809,1.7836,1.7836,0,0,1,1.5713-.958,1.5428,1.5428,0,0,1,.5859.1143,1.5484,1.5484,0,0,1,.3076-.0967,2.0257,2.0257,0,0,1,.4336-.0439,1.8277,1.8277,0,0,1,1.67.8887,1.3187,1.3187,0,0,1-.0937,1.3389,3.289,3.289,0,0,1-.0869.39c-.0088.0488-.0225.1631-.0371.3027a2.97,2.97,0,0,1,1.1338,1.4551c.0869.2432.1523.46.2119.66a1.6628,1.6628,0,0,0,.2705.6533,4.0913,4.0913,0,0,1,1.3682,2.36,2.4444,2.4444,0,0,1-.1094,1.2559,1.1907,1.1907,0,0,1-.7441.625,1.336,1.336,0,0,1-.3105.042,1.1616,1.1616,0,0,1-.6133-.1748,1.5833,1.5833,0,0,1-.2422.0186,1.635,1.635,0,0,1-1.0371-.3779c-.0869-.0713-.1895-.167-.3018-.2744-.0752-.0713-.168-.165-.2539-.2363a6.1636,6.1636,0,0,1-1.7324-.4561c-.167-.0811-.334-.1738-.499-.2676-.1455-.082-.33-.1865-.4385-.2314a7.3236,7.3236,0,0,0-.3613.7617,23.2009,23.2009,0,0,0-1.3193,3.5928c-.1074.5557-.2568,1.2969-.4736,2.1563-.0176.0605-.3613,1.1514-.4756,1.6289-.0645.2666-.1328.5107-.2012.7344l-.1.3018-.07.1895a11.9,11.9,0,0,1-.76,1.6123l-.3232.6182a7.8016,7.8016,0,0,1-.7637,1.209l-.1719.2383a2.4893,2.4893,0,0,0-.1562.2461,9.0323,9.0323,0,0,0,.5537,1.9473,3.1009,3.1009,0,0,1-.5127,3.1553,9.6721,9.6721,0,0,0-.9756,3.002A18.0744,18.0744,0,0,0,22.56,32.234a20.5608,20.5608,0,0,1-.03,3.3008c-.0176.13-.041.2617-.0645.3945a3.0391,3.0391,0,0,0-.07.8525,8.07,8.07,0,0,1,.0107,1.1895,4.8305,4.8305,0,0,0-.01.6045l.04.4639c.0469.54.1777,2.0645.2412,2.3438a2.886,2.886,0,0,1-.0166,1.2188c-.0137.09-.0322.1846-.041.27.0869.1123.2656.3232.36.4365a3.8924,3.8924,0,0,1,.5928.8193,1.29,1.29,0,0,1-.0342,1.166,1.8768,1.8768,0,0,1-1.5918.7939c-.1768.0234-.2764.0371-.375.0537a4.7947,4.7947,0,0,1-.8154.085c-.0342,0-.0684-.001-.1016-.002a1.8245,1.8245,0,0,1-1.2881.6631A7.3436,7.3436,0,0,1,18.1549,47ZM5.858,44.694ZM8.73,40.6266a9.4452,9.4452,0,0,0,.0645,1.1953l.082.5732c.11.8086.14.9395.3408,1.1729.2129.2461.3867.4365.5146.57a3.84,3.84,0,0,1-.3145-1.1533,5.0522,5.0522,0,0,0-.1611-.7383c-.0859-.2295-.2783-.835-.5049-1.5508Z" fill="#fff"/><path d="M30.4929,2a.8835.8835,0,0,1,.7749.337.317.317,0,0,1-.0369.3444.8987.8987,0,0,0-.1573.4274,1.7592,1.7592,0,0,1-.0465.2128c-.0385.1309-.0986.6958-.133,1.0764.1006.0813.2046.1519.3075.2224a2.1062,2.1062,0,0,1,.9362,1.095c.078.22.1392.42.1941.605a2.3886,2.3886,0,0,0,.5042,1.0581,3.3409,3.3409,0,0,1,1.0959,1.7422c.0447.6337-.0025.7281-.0173.76a.1684.1684,0,0,1-.1058.0859.166.166,0,0,1-.0449.0062.1643.1643,0,0,1-.0891-.0262,1.5167,1.5167,0,0,0-.4532-.2134.62.62,0,0,1-.7184-.0713c-.0668-.054-.1494-.1331-.2413-.22a2.1017,2.1017,0,0,0-.6232-.4786l-.12-.0175a5.4764,5.4764,0,0,1-1.5-.3754c-.153-.0736-.3044-.1594-.4547-.2443a2.1587,2.1587,0,0,0-.9246-.37c-.0741.0027-.1134.0029-.1556.0029-.3275.0023-.5345.0037-1.1189,1.3861a23.5864,23.5864,0,0,0-1.38,3.7888c-.1054.5438-.2509,1.2672-.4615,2.105,0,0-.359,1.1417-.4786,1.64-.0583.2438-.1211.4669-.1848.6732l-.0007.0021-.0646.2054-.0061-.0035c-.0043.0146-.0095.0291-.0146.0432l.0052.0009-.0706.1891a10.9945,10.9945,0,0,1-.7037,1.4888v0c-.0739.1371-.1476.2739-.22.4139-.04.0769-.0794.1538-.1179.2329a6.97,6.97,0,0,1-.6752,1.0618c-.0644.089-.1273.174-.185.2571v0a1.4226,1.4226,0,0,0-.3411.7648,8.9191,8.9191,0,0,0,.6205,2.3424,2.1106,2.1106,0,0,1-.3764,2.2094,10.2755,10.2755,0,0,0-1.1689,3.5111,18.4774,18.4774,0,0,0,.0214,2.0359,19.7191,19.7191,0,0,1-.0222,3.0857c-.0164.12-.037.24-.0586.359a3.9332,3.9332,0,0,0-.0807,1.1412,7.308,7.308,0,0,1,.0051,1.0466,5.9949,5.9949,0,0,0-.0051.7322c.0093.09.0222.2507.04.4531.0619.7141.1881,2.1981.268,2.5023a2.135,2.135,0,0,1-.0344.8138,1.8164,1.8164,0,0,0-.03.7338,4.115,4.115,0,0,0,.5747.7794,3.541,3.541,0,0,1,.446.5906.2888.2888,0,0,1-.0023.2655c-.1058.1908-.4136.2295-.8406.2836-.135.0179-.2783.0361-.4193.06a3.95,3.95,0,0,1-.6454.0709,1.038,1.038,0,0,1-.5681-.146c-.3258-.1915-.262-.6194-.1994-1.0327l.0181-.1254a2.682,2.682,0,0,0-.1576-1.0636,1.8782,1.8782,0,0,1-.2976-1.4945,22.9146,22.9146,0,0,0,.3069-4.722,5.6044,5.6044,0,0,1-.1523-2.1587c.0568-.334-.129-1.3668-.1772-2.2263a14.1807,14.1807,0,0,0-.1881,1.6272,7.27,7.27,0,0,0-.1051,1.2218,4.9946,4.9946,0,0,1,.0138,1.5913c-.0422.1382,0,.4392-.046.56-.1126.2885-.081.1642-.0405.5325a7.0217,7.0217,0,0,1,.005,1.046,6.1086,6.1086,0,0,0-.0043.7319c.0086.09.0226.2512.04.454.0608.7134.1038,2.26.1845,2.5637a2.0962,2.0962,0,0,1-.0208.81,1.4226,1.4226,0,0,0,.0387.6765c.0673.1705.13.3645.19.5516a6.1439,6.1439,0,0,0,.2079.5809.47.47,0,0,1,.0483.417c-.0825.1566-.2853.2172-.6547.2808A6.39,6.39,0,0,1,18.1547,46a1.42,1.42,0,0,1-.6866-.1185c-.2871-.1667-.2165-.4291-.1548-.6608a2.84,2.84,0,0,0,.0729-.3275c.0113-.08.0244-.1583.0372-.2333a1.1636,1.1636,0,0,0-.019-.755,1.9874,1.9874,0,0,1-.1435-1.5623,23.9332,23.9332,0,0,0,.1949-4.89,5.6288,5.6288,0,0,1-.1742-2.16,10.3241,10.3241,0,0,0,.02-2.5549c-.0953-.7134-.2355-2.3315-.3112-3.2015-.0178-.2092-.0317-.37-.04-.4572a5.219,5.219,0,0,0-.9643.2479,5.8957,5.8957,0,0,0-.795.3407,3.5928,3.5928,0,0,1-1.4351.4655c-.1395.0039-.2836.0055-.4271.0055-.2466,0-.6782-.0074-1.0038-.0287l-.0035.0017a.1634.1634,0,0,1-.03-.0044c-.0879-.006-.1685-.0128-.2313-.0214-.0317.0952-.0739.262-.11.4032a8.1407,8.1407,0,0,1-.29.9667c-.143.3562-.4.8429-.6265,1.2743-.1752.3308-.34.6431-.4029.8025A3.5732,3.5732,0,0,0,10.475,35.06a6.58,6.58,0,0,1-.1,1.3088,4.1041,4.1041,0,0,0-.0687.6875c.0138.2914.68,2.4279,1.038,3.5753.1652.53.2906.9351.3217,1.0525.0385.147.0868.29.13.4175a1.4808,1.4808,0,0,1,.1262.57,3.1241,3.1241,0,0,0,.7383,1.11,6.81,6.81,0,0,1,.9384,1.1949.3087.3087,0,0,1,.001.3079c-.1146.1755-.39.1832-.8456.196l-.1945.0056q-.0765.0027-.1478.0027a2.8114,2.8114,0,0,1-.88-.1174.1692.1692,0,0,1-.1089-.1914,1.3912,1.3912,0,0,0-.0173-.7561,2.3928,2.3928,0,0,0-.5148-.4832c-.0573-.0452-.1134-.0886-.1657-.13-.1685-.139-.2295-.4509-.3215-.9918a5.4941,5.4941,0,0,0-.2122-.927c-.0877-.2306-.2886-.871-.5224-1.6122-.3643-1.1562-.862-2.7391-.997-2.9591a11.1345,11.1345,0,0,1-.6342-1.235c-.0266.103-.0566.2295-.0867.382a29.6535,29.6535,0,0,0-.1451,5.5073c.0309.2063.0566.3917.08.5607A2.7414,2.7414,0,0,0,8.4591,44.22c.5111.5929.8248.8868.8273.8894a.169.169,0,0,1,.0508.1543.1649.1649,0,0,1-.1021.1241,3.5763,3.5763,0,0,1-1.2178.2235c-1.0536,0-1.185-.202-1.2281-.2679a.2525.2525,0,0,1-.0178-.2419.9877.9877,0,0,0-.0071-.72c-.0257-.0553-.06-.1193-.0986-.19a2.26,2.26,0,0,1-.37-1.2677c.0128-.1039.0327-.218.0541-.3453a7.3868,7.3868,0,0,0,.0515-2.51c-.226-1.7195-.5516-3.8329-.7089-4.363a1.3127,1.3127,0,0,1,.1262-1.0176,6.7588,6.7588,0,0,0,.2941-.82,10.1106,10.1106,0,0,0,.0586-3.5994c-.039-.2169-.0963-.5059-.16-.8215-.1408-.7017-.2946-1.4727-.3532-1.9771a20.3364,20.3364,0,0,1-1.0345,3.5253,8.4512,8.4512,0,0,0-.4055,1.1224,1.0835,1.0835,0,0,0-.0932.2084,3.0567,3.0567,0,0,0-.74,1.7083c-.0834.3433-.082.8186-.166.9963-.1214.2539.4052.3192.3862.8826a1.7734,1.7734,0,0,1-.4581,1.29,1.632,1.632,0,0,0-.1941.2662.7782.7782,0,0,1-.5741.4384.2325.2325,0,0,1-.214-.1222c-.0789-.1547.0448-.3273.086-.3838.1274-.1774.0636-.3922-.0609-.7567a4.7983,4.7983,0,0,1-.1513-.5139.8471.8471,0,0,1,.2647-.9281,3.224,3.224,0,0,0,.2569-.3042.9216.9216,0,0,0,.1729-.7313,2.62,2.62,0,0,1,.01-.5614,4.4564,4.4564,0,0,1,.5425-1.23c.0873-.1571.1622-.2882.1923-.3647l.0369-.093.0095-.0007a7.1459,7.1459,0,0,0,.6946-1.9341c.0515-.31.0848-.7373.121-1.1882a10.7767,10.7767,0,0,1,.3481-2.348c.0543-.1562.1055-.311.1564-.4626A4.4642,4.4642,0,0,1,5.7216,24.19c.1118-.1772.8773-1.24,3.6108-2.0918.8467-.2639,1.6509-.4641,2.36-.6406a7.7915,7.7915,0,0,0,3.532-1.5981c.3253-.2363,11.4167-14.6228,11.47-14.6423a1.4607,1.4607,0,0,1-.1935-.218,5.5692,5.5692,0,0,0-.5936-.8188c-.1891-.2235-.2494-.4009-.184-.5416.0357-.0786.13-.163.3409-.163a1.1769,1.1769,0,0,1,.2613.0336,6.2468,6.2468,0,0,1,1.8057.8276.1958.1958,0,0,0,.1166.0471.3612.3612,0,0,0,.1892-.0946.8813.8813,0,0,1,.3353-.1718l.1171-.0227.0163-.0031c.0006-.0109.0006-.0237.0027-.038l.0051-.0981a2.4426,2.4426,0,0,0-.38-1.2444.2774.2774,0,0,1-.0312-.3077.7942.7942,0,0,1,.6629-.3766.5305.5305,0,0,1,.2137.0426.6336.6336,0,0,1,.4072.47.4132.4132,0,0,1-.1342.3783,1.4955,1.4955,0,0,0,.0922.3134,2.5588,2.5588,0,0,1,.0885.2771,1.1511,1.1511,0,0,0,.19.4353,3.79,3.79,0,0,0,.0682-1.0957l-.0022-.0582-.0006.0009a.2113.2113,0,0,1-.0344-.0524.586.586,0,0,1-.09-.5074.3962.3962,0,0,1,.3-.2087A1.0875,1.0875,0,0,1,30.4929,2m0-2A3.0823,3.0823,0,0,0,29.84.0684q-.0506.0106-.1.0233a2.56,2.56,0,0,0-.5739-.0643A2.7915,2.7915,0,0,0,26.697,1.5436a3.1339,3.1339,0,0,0-.6328-.0676,2.3231,2.3231,0,0,0-2.1621,1.3363,2.3639,2.3639,0,0,0,.27,2.3877c-.5.6339-1.1745,1.5027-2.1042,2.7006-2.5933,3.3416-7.3271,9.4412-8.1841,10.4608a5.8225,5.8225,0,0,1-2.6741,1.1558c-.736.1832-1.57.3909-2.4719.672-2.8632.8921-4.0888,2.0911-4.5658,2.7292a6.5079,6.5079,0,0,0-1.2255,2.4348l-.0363.1084-.111.3275a11.9951,11.9951,0,0,0-.4521,2.8392c-.0339.4232-.0649.81-.1009,1.0262a4.9111,4.9111,0,0,1-.4465,1.2349,1.9728,1.9728,0,0,0-.1439.2905l-.0148.0375c-.02.0366-.0438.0791-.07.1261l-.033.0593a5.6237,5.6237,0,0,0-.7751,1.924,4.1855,4.1855,0,0,0-.0391.6438A2.7691,2.7691,0,0,0,.0856,36.56c.0406.1875.09.3579.1367.5031A2.2328,2.2328,0,0,0,2.379,39.9065a2.59,2.59,0,0,0,1.8656-.8417c.0579.4021.1167.8275.174,1.2633A5.4594,5.4594,0,0,1,4.38,42.233l-.01.0568c-.0239.1416-.0449.27-.0594.3888a3.8814,3.8814,0,0,0,.4607,2.207,2.25,2.25,0,0,0,.33,1.5308,3.177,3.177,0,0,0,2.9158,1.1948,5.5468,5.5468,0,0,0,1.9451-.36h0a2.137,2.137,0,0,0,.433-.2295,2.1247,2.1247,0,0,0,.4611.2318,4.7129,4.7129,0,0,0,1.5554.235q.1063,0,.22-.004l.18-.0051a2.7388,2.7388,0,0,0,2.4625-1.1019c.0315-.049.061-.0989.0885-.1493a2.4307,2.4307,0,0,0,1.1007,1.3833A3.2974,3.2974,0,0,0,18.1547,48a8.3559,8.3559,0,0,0,1.3873-.1278,3.0786,3.0786,0,0,0,1.5648-.6608c.1863-.0155.3922-.0431.6338-.0846.0971-.0166.1977-.0294.2938-.0421l.0508-.0067a2.7824,2.7824,0,0,0,2.3263-1.2964,2.2747,2.2747,0,0,0,.0709-2.0693,4.5976,4.5976,0,0,0-.7213-1.03l-.0848-.1a3.6048,3.6048,0,0,0-.0222-1.417c-.0586-.3335-.1747-1.6748-.2133-2.1206l-.0079-.0907-.0123-.145c-.0125-.1484-.0227-.2666-.03-.3411-.0028-.0559.0076-.2961.0139-.44a8.9521,8.9521,0,0,0-.0152-1.3517,2.4232,2.4232,0,0,1,.0625-.5774c.0249-.1376.05-.2852.07-.4337a20.6672,20.6672,0,0,0,.0407-3.3981L23.56,32.213c-.0276-.6652-.059-1.4191-.0277-1.7556a8.9423,8.9423,0,0,1,.8016-2.5166,4.1475,4.1475,0,0,0,.6309-4.0746,12.665,12.665,0,0,1-.4385-1.3876l.0337-.0471.0517-.071A8.81,8.81,0,0,0,25.4653,21c.0312-.064.0639-.127.0964-.19.0669-.13.135-.256.2032-.3826a12.8441,12.8441,0,0,0,.8187-1.7435l.0688-.1842.0015-.004q.0265-.0668.0482-.136l.0646-.2054.0009-.0027.0028-.0088h0c.0757-.2448.15-.51.2191-.7987.075-.3127.3105-1.09.4413-1.5054q.0175-.0558.0318-.1125c.2175-.8652.3673-1.6036.4852-2.2118A23.3938,23.3938,0,0,1,29.11,10.3523l.0408.02a6.3915,6.3915,0,0,0,1.71.4971l.0153.0146c.1586.15.2755.257.37.3331a2.6074,2.6074,0,0,0,1.6628.5985l.041,0a2.1774,2.1774,0,0,0,.814.1572,2.3421,2.3421,0,0,0,.59-.0819,2.1521,2.1521,0,0,0,1.3426-1.1016c.01-.0193.02-.04.029-.0592a3.3585,3.3585,0,0,0,.2017-1.75,4.8423,4.8423,0,0,0-1.5787-2.9136c-.0275-.077-.067-.2084-.1-.3184-.0634-.2131-.135-.4464-.2258-.702a3.8881,3.8881,0,0,0-.9743-1.51,2.3076,2.3076,0,0,0,.0074-2.0953A2.7892,2.7892,0,0,0,30.4929,0ZM13.5413,32.1382c.0913-.001.1821-.0027.2711-.0051a4.3416,4.3416,0,0,0,1.38-.28c.0442.45.0883.8618.1269,1.1506a8.5179,8.5179,0,0,1-.01,1.9581,7.7007,7.7007,0,0,0,.2029,2.9762,28.2648,28.2648,0,0,1-.21,4.0006,4.5241,4.5241,0,0,0-.0345,1.9353,7.82,7.82,0,0,0-1.2837-1.5924,1.7649,1.7649,0,0,1-.1063-.1525A4.7916,4.7916,0,0,0,13.69,41.46c-.0323-.0962-.0645-.1882-.0894-.2833-.0348-.1313-.1688-.57-.3471-1.1412-.2011-.6443-.7788-2.4951-.9375-3.1237.01-.0754.0238-.1592.0372-.2491a8.4016,8.4016,0,0,0,.1189-1.7063,2.0971,2.0971,0,0,1,.0243-.7024c.0325-.0734.2029-.3951.3048-.5875.26-.4944.5367-1.0209.7151-1.4653l.0248-.0632Z" fill="#fff"/></g><path d="M11.034,32.7308c.2268-.4314.4835-.9181.6265-1.2743a8.1372,8.1372,0,0,0,.29-.9668c.036-.1411.0782-.3079.11-.4032.0628.0086.1435.0154.2313.0214a.1639.1639,0,0,0,.03.0043l.0035-.0017c.3256.0213.7572.0287,1.0038.0287.1435,0,.2876-.0017.4271-.0055a3.5946,3.5946,0,0,0,1.435-.4654,5.8884,5.8884,0,0,1,.7951-.3407,5.2221,5.2221,0,0,1,.9643-.2479c.0085.0872.0224.2479.04.4571.0757.87.2159,2.4882.3112,3.2015a10.3246,10.3246,0,0,1-.02,2.5549,5.6284,5.6284,0,0,0,.1742,2.16,23.9325,23.9325,0,0,1-.1949,4.89,1.9874,1.9874,0,0,0,.1435,1.5622,1.164,1.164,0,0,1,.0189.7551c-.0128.0749-.0259.1534-.0372.2333a2.8467,2.8467,0,0,1-.0729.3275c-.0618.2316-.1323.494.1548.6607A1.4184,1.4184,0,0,0,18.1547,46a6.3956,6.3956,0,0,0,1.0433-.098c.3695-.0636.5722-.1242.6548-.2808a.47.47,0,0,0-.0483-.417,6.1462,6.1462,0,0,1-.2079-.581c-.06-.1871-.1227-.3811-.19-.5516a1.4225,1.4225,0,0,1-.0387-.6765,2.0954,2.0954,0,0,0,.0208-.81c-.0807-.3034-.1237-1.85-.1845-2.5637-.0173-.2028-.0312-.3638-.04-.454a6.106,6.106,0,0,1,.0043-.732,7.0222,7.0222,0,0,0-.005-1.046c-.0405-.3683-.0721-.2441.0405-.5325.0463-.1206.0038-.4216.046-.56a4.9944,4.9944,0,0,0-.0138-1.5913,7.273,7.273,0,0,1,.1051-1.2218,14.1884,14.1884,0,0,1,.1881-1.6272c.0482.8595.234,1.8924.1772,2.2263a5.6048,5.6048,0,0,0,.1523,2.1587,22.918,22.918,0,0,1-.3069,4.7221,1.8784,1.8784,0,0,0,.2976,1.4945,2.6816,2.6816,0,0,1,.1576,1.0636l-.0181.1254c-.0626.4133-.1264.8412.1994,1.0327a1.0379,1.0379,0,0,0,.5681.146,3.9465,3.9465,0,0,0,.6455-.0709c.141-.0241.2843-.0422.4193-.06.4269-.0541.7348-.0928.8406-.2836a.2888.2888,0,0,0,.0023-.2655,3.5369,3.5369,0,0,0-.446-.59,4.1173,4.1173,0,0,1-.5747-.7795,1.817,1.817,0,0,1,.03-.7338,2.1347,2.1347,0,0,0,.0344-.8138c-.08-.3042-.2061-1.7882-.268-2.5023-.0173-.2024-.03-.3635-.04-.4532a5.9928,5.9928,0,0,1,.0051-.7321,7.3107,7.3107,0,0,0-.0051-1.0466,3.9343,3.9343,0,0,1,.0807-1.1413c.0216-.1194.0422-.2388.0586-.359a19.7171,19.7171,0,0,0,.0223-3.0856,18.4778,18.4778,0,0,1-.0214-2.036A10.2755,10.2755,0,0,1,22.71,26.7616a2.1106,2.1106,0,0,0,.3764-2.2094,8.9177,8.9177,0,0,1-.6205-2.3424,1.4223,1.4223,0,0,1,.3411-.7648v0c.0576-.0832.1206-.168.185-.2571a6.9771,6.9771,0,0,0,.6752-1.0618c.0385-.0792.0782-.1561.1179-.233.0722-.14.146-.2768.22-.414v0a10.9953,10.9953,0,0,0,.7037-1.4887l.0706-.1891L24.7736,17.8c.0051-.0141.01-.0286.0146-.0432l.0061.0035.0646-.2054.0007-.0022c.0638-.2062.1265-.4294.1848-.6732.12-.4985.4786-1.64.4786-1.64.2106-.8377.356-1.5611.4615-2.1049a23.5884,23.5884,0,0,1,1.38-3.7889c.5843-1.3824.7914-1.3837,1.1189-1.3861.0422,0,.0815,0,.1556-.003a2.16,2.16,0,0,1,.9246.3695c.15.0849.3017.1707.4547.2443a5.4763,5.4763,0,0,0,1.5.3754l.12.0174a2.1025,2.1025,0,0,1,.6232.4786c.0918.087.1745.1661.2413.22a.6194.6194,0,0,0,.7183.0712,1.52,1.52,0,0,1,.4532.2134.1641.1641,0,0,0,.134.02.1686.1686,0,0,0,.1058-.086c.0148-.0314.0619-.1259.0173-.76a3.3407,3.3407,0,0,0-1.096-1.7422A2.3889,2.3889,0,0,1,32.3321,6.32c-.055-.1847-.1161-.3852-.1941-.6049a2.1059,2.1059,0,0,0-.9362-1.095c-.103-.0706-.2069-.1411-.3075-.2225.0344-.3806.0945-.9455.133-1.0764a1.7578,1.7578,0,0,0,.0465-.2127.8985.8985,0,0,1,.1573-.4274.317.317,0,0,0,.0369-.3444c-.14-.2818-.6626-.3882-1.0036-.3142a.3962.3962,0,0,0-.3.2087.5861.5861,0,0,0,.09.5075c.0163.03.0344.0578.035.0515l.0022.0583a3.7877,3.7877,0,0,1-.0682,1.0956,1.1514,1.1514,0,0,1-.19-.4352,2.563,2.563,0,0,0-.0885-.2771,1.4933,1.4933,0,0,1-.0922-.3133.4131.4131,0,0,0,.1342-.3783.6335.6335,0,0,0-.4072-.47.761.761,0,0,0-.8766.3339.2773.2773,0,0,0,.0312.3077,2.443,2.443,0,0,1,.38,1.2444l-.0051.0981c-.002.0143-.002.0271-.0027.038l-.0163.003-.1171.0227a.8816.8816,0,0,0-.3353.1717c-.1194.0857-.1853.1373-.3059.0475A6.2505,6.2505,0,0,0,26.3256,3.51c-.4-.0923-.5543.0237-.6023.1294-.0654.1408-.0051.3182.184.5417a5.5662,5.5662,0,0,1,.5936.8188,1.4553,1.4553,0,0,0,.1935.218c-.0533.02-11.1447,14.406-11.47,14.6423a7.79,7.79,0,0,1-3.532,1.5981c-.7091.1765-1.5133.3768-2.36.6406C6.5988,22.95,5.8333,24.0131,5.7216,24.19a4.4655,4.4655,0,0,0-.8774,1.7929c-.051.1516-.1021.3064-.1564.4626a10.7759,10.7759,0,0,0-.348,2.348c-.0362.451-.07.8781-.1211,1.1883a7.1457,7.1457,0,0,1-.6946,1.934l-.0095.0008-.0369.093c-.03.0766-.1049.2076-.1923.3647a4.4568,4.4568,0,0,0-.5425,1.23,2.62,2.62,0,0,0-.01.5614.9215.9215,0,0,1-.1729.7313,3.229,3.229,0,0,1-.2569.3042.8471.8471,0,0,0-.2647.9281,4.8056,4.8056,0,0,0,.1513.5139c.1245.3645.1883.5794.0609.7567-.0412.0565-.1649.2292-.086.3838a.2326.2326,0,0,0,.214.1222.7782.7782,0,0,0,.574-.4384,1.63,1.63,0,0,1,.1941-.2662,1.7735,1.7735,0,0,0,.4581-1.29c.0189-.5634-.5076-.6287-.3862-.8826.084-.1777.0827-.6531.1661-.9963a3.0564,3.0564,0,0,1,.74-1.7082,1.0814,1.0814,0,0,1,.0932-.2084,8.4568,8.4568,0,0,1,.4055-1.1225,20.3375,20.3375,0,0,0,1.0345-3.5252c.0586.5043.2124,1.2753.3532,1.977.0638.3157.1211.6046.16.8215a10.1115,10.1115,0,0,1-.0586,3.5994,6.7555,6.7555,0,0,1-.2941.82,1.3129,1.3129,0,0,0-.1262,1.0176c.1573.53.4829,2.6436.7089,4.3631a7.3859,7.3859,0,0,1-.0515,2.51c-.0214.1274-.0413.2414-.0541.3454a2.26,2.26,0,0,0,.37,1.2677c.0384.0709.0729.1348.0986.19a.9881.9881,0,0,1,.0071.7205.2525.2525,0,0,0,.0178.2419c.0432.0659.1745.268,1.2281.268a3.5778,3.5778,0,0,0,1.2178-.2235.165.165,0,0,0,.1021-.1242.1688.1688,0,0,0-.0508-.1543c-.0025-.0027-.3162-.2966-.8273-.8894a2.7416,2.7416,0,0,1-.5732-1.6856c-.0232-.1689-.049-.3544-.08-.5606a29.6556,29.6556,0,0,1,.1451-5.5074c.03-.1524.06-.279.0867-.3819a11.1343,11.1343,0,0,0,.6342,1.2349c.135.22.6327,1.8029.997,2.9591.2338.7413.4347,1.3816.5224,1.6122a5.4908,5.4908,0,0,1,.2122.9269c.092.541.1529.8529.3215.9918.0523.0418.1084.0854.1657.1305a2.3913,2.3913,0,0,1,.5148.4832,1.391,1.391,0,0,1,.0173.756.1693.1693,0,0,0,.1089.1915,2.9621,2.9621,0,0,0,1.0279.1147l.1944-.0056c.456-.0128.731-.0206.8455-.1961a.3086.3086,0,0,0-.001-.3079,6.8148,6.8148,0,0,0-.9384-1.1949,3.1242,3.1242,0,0,1-.7383-1.11,1.4813,1.4813,0,0,0-.1262-.57c-.0428-.1279-.0912-.2705-.13-.4175-.0311-.1174-.1564-.5229-.3216-1.0525-.3582-1.1474-1.0242-3.2839-1.038-3.5753a4.1032,4.1032,0,0,1,.0687-.6875,6.5817,6.5817,0,0,0,.1-1.3088,3.5736,3.5736,0,0,1,.1561-1.5267C10.6937,33.3737,10.8588,33.0615,11.034,32.7308Z" fill="#1a2026"/></g></g></svg>