<?xml version="1.0" encoding="utf-8"?>
<!-- Generator: Adobe Illustrator 23.0.1, SVG Export Plug-In . SVG Version: 6.00 Build 0)  -->
<svg version="1.0" id="Layer_1" xmlns="http://www.w3.org/2000/svg" xmlns:xlink="http://www.w3.org/1999/xlink" x="0px" y="0px"
	 width="50px" height="30px" viewBox="0 0 50 30" enable-background="new 0 0 50 30" xml:space="preserve">
<title>subject-gray_wolf-female</title>
<g>
	<g id="Layer_1-2">
		<path fill="#1A2026" d="M28.5,3.4c-3.6-0.1-13.4,1.1-15.9,1.5c-2.1,0.3-4.1,0.8-6,1.6C6.1,6.8,5.7,7.2,5.4,7.7h0.4
			C5.5,7.9,5.3,8.1,5.2,8.4C5.1,8.5,4.6,9.3,5.1,8.8S4.4,9.6,4.2,10h0.5c-0.2,0.3-0.5,0.5-0.6,0.8h0.4c-0.1,0.2-1,2.8-1.2,3.2h0.4
			l-0.6,0.6h0.2c-0.2,0.2-0.5,0.3-0.6,0.5s0.1,0.2-0.1,0.6l0.2-0.2c-0.1,0.1-0.6,0.7-0.2,0.5s-2.1,4.3-2.2,4.4s-0.2,0.8,0.1,0.3
			s-0.1,0.4-0.3,0.6h0.1c-0.1,0.1-0.1,0.3-0.1,0.4c-0.1,0.3,0,0.3,0.2,0l-0.3,0.6c0.1-0.3-0.1,1.2,0,0.4S0,23.5,0,23.9l0.3-0.4V24
			c0-0.1,0.1-0.3,0.1-0.4c0.1,0.1,0.1,0.3,0.1,0.4c0.1-0.1,0.1-0.3,0.2-0.4S1,23,1,23.8c0.1-0.2,0.2-0.5,0.1-0.8
			c0,0.2,0.1,0.4,0.1,0.6s2.6-1.8,2.6-1.9c0.9-0.7,1.7-1.5,2.5-2.4v0.6c0.2-0.3,0.3-0.7,0.3-1.1c0.1,0.3,0.1,0.5,0.2,0.8l0.3-1.3
			v0.4c0.4-0.5,0.7-1.1,0.9-1.8c0,1-0.3,2-0.9,2.9c-0.3,0.5-0.7,1-1.1,1.4c-0.4,0.4-1,0.6-1.2,1.2s0.2,2.3,0.4,3.2
			c0.1,0.6,0.3,1.2,0.6,1.8c0.3,0.5,0.4,1.4,0.8,1.8s2.3,0.4,3,0.5s2.3,0.3,1.1-0.8c-0.6-0.4-1.2-0.6-1.9-0.7
			c-0.5-0.1-0.5-0.3-0.7-0.8c-0.4-0.8-0.5-1.6-0.5-2.5c0.5-3.5,4.1-4,6.1-6.2c-0.2,0.8-0.5,1.6-0.8,2.3c-0.2,0.5-0.7,1-0.9,1.6
			s0.1,0.8,0.4,1.2c0.8,1.1,1.8,2.1,3,2.8c0.4,0.4,0.8,0.7,1.3,0.9c0.4,0.2,0.8,0.4,1.2,0.4c0.5,0.2,1.4,1.1,1.9,0.8
			s0.6-0.6,0.6-0.7s-0.5-0.8-0.8-1s-4.6-2.6-4.1-4.8s1.7-2.4,2.5-3.5c0.3-0.3,0.6-0.7,0.8-1.1c0.1-0.2,0.3-0.8,0.5-0.8
			c5.5,0.8,7.9,0.8,8,0.7c-0.1,1.8-0.3,3.5-0.5,5.2L26.5,25c-0.1,0.2-0.6,2.3,0.1,1.5c0.2,1.2,0.1,3.4,1.6,3.5
			c0.8,0.1,1.5,0,2.3-0.1l1.1-0.2c0.4-0.1,0.6,0,0.5-0.4S30,29,29.5,28.4c-0.4-0.7-0.7-1.5-0.7-2.3c0.1-0.8,0.3-1.6,0.6-2.4
			c0.4-1.4,0.8-2.7,1.4-4c0.2-0.3,1-2.3,1.4-1.9c0.4,0.4,0,0.9,0,1s0.1,0.8,0.6,1.1c1.1,0.6,2.2,1.1,3.3,1.6c1.2,0.6,2.4,1,3.6,1.5
			c0.4,0.2,0.8,0.4,1.2,0.7c0.4,0.5,0.5,1.2,0.9,1.8s1,1.6,1.6,2.4s2.1,2,2.7,0.9s-0.7-1.6-0.9-2s-1.4-4.3-3.2-5.7s-2.5-1.4-3.6-2.3
			s-1.3-0.9-1.2-1.4s5.7-4.5,5.9-4.6l0.4-0.3c0.1,0.4,0.1,0.2,0.2-0.1s0.2,0,0.3-0.3s0,0.3,0.1,0.4c0-0.2,0.1-0.3,0.2-0.4
			c0-0.2,0.1-0.2,0.1,0s0.1,0.2,0.3-0.4s0.9-0.4,1.4-0.4l1,0.5c0.7,0.4,0.9,0.3,1.7,0s1.4-0.5,1-1.4s-1.3-1.8-1.3-2.8
			c0.2-1.1,0.2-2.2,0-3.3c-0.1-0.5-0.5-1-0.6-1.6s0.4-0.7,0.6-1c0.3-0.3,0.6-0.7,0.8-1.1c0.2-0.4,0.3-0.5-0.1-0.6S48,0.5,47.7,0.5
			l-1.2,0.7h-1.6c-0.2-0.6-0.4-1.4-1.1-1.2s-0.2,1.5-1.5,2.1S36.6,3.3,35.9,4s-0.3,0-0.4-0.1s-0.4-0.2-0.6-0.3s-0.1,0.2-0.4,0.1
			s-0.1,0.1-0.2,0s-0.4-0.5-0.2,0.1l-0.6-0.2l0.2,0.2l0,0C33.5,3.9,32.1,3.5,28.5,3.4z"/>
	</g>
</g>
</svg>
