<?xml version="1.0" encoding="utf-8"?>
<!-- Generator: Adobe Illustrator 23.0.1, SVG Export Plug-In . SVG Version: 6.00 Build 0)  -->
<svg version="1.0" id="Layer_1" xmlns="http://www.w3.org/2000/svg" xmlns:xlink="http://www.w3.org/1999/xlink" x="0px" y="0px"
	 width="50px" height="30px" viewBox="0 0 50 30" enable-background="new 0 0 50 30" xml:space="preserve">
<title>subject-gray_wolf-male</title>
<g>
	<g id="Layer_1-2">
		<path fill="#1A2026" d="M21.5,3.4c3.6-0.1,13.4,1.1,15.9,1.5c2.1,0.3,4.1,0.8,6,1.6c0.5,0.3,0.9,0.7,1.2,1.2h-0.4l0.6,0.7
			c0.1,0.1,0.6,0.9,0,0.4l1,1.2h-0.5c0.1,0.3,0.4,0.5,0.5,0.8h-0.4c0.1,0.2,1,2.8,1.3,3.2h-0.4l0.5,0.6h-0.1l0.6,0.5
			c-0.5,0-0.1,0.2,0.1,0.6l-0.2-0.2c0,0.1,0.5,0.7,0.2,0.5s2,4.7,2.1,4.8s0.3,0.8-0.1,0.3l0.3,0.6l0,0c0,0.1,0.1,0.3,0.1,0.4
			s-0.1,0.3-0.3,0l0.4,0.6c-0.1-0.3,0.1,1.2-0.1,0.4s0.2,0.8,0.1,1.2l-0.3-0.4c0,0.2,0.1,0.3,0.1,0.5c0-0.1-0.1-0.1-0.1-0.2V24
			c-0.1-0.1-0.1-0.3-0.2-0.4s-0.1,0.3-0.1,0.4s-0.1-0.3-0.1-0.4s-0.4-0.6-0.4,0.2c-0.1-0.3-0.1-0.5-0.1-0.8v0.6
			c-0.2-0.2-2.7-1.8-2.7-1.9c-0.9-0.7-1.7-1.5-2.4-2.4c0,0.2,0,0.4-0.1,0.6c-0.1-0.4-0.3-0.7-0.2-1.1s-0.1,0.5-0.2,0.8
			c-0.1-0.4-0.2-0.9-0.3-1.3c-0.1,0.1-0.1,0.3-0.2,0.4c-0.3-0.6-0.5-1.2-0.6-1.8c0,1,0.2,2,0.8,2.9c0.3,0.5,0.7,1,1.2,1.4
			c0.4,0.4,1,0.6,1.1,1.2c0.1,1.1,0,2.2-0.3,3.2l-0.6,1.8c-0.2,0.6-0.5,1.2-0.9,1.8c-0.5,0.6-2.2,0.4-2.9,0.5s-2.3,0.3-1.1-0.8
			c0.6-0.4,1.2-0.6,1.9-0.7c0.5-0.1,0.5-0.3,0.7-0.8c0.4-0.8,0.5-1.6,0.5-2.5c-0.5-3.5-4.1-4-6.2-6.2c0.2,0.7,0.5,1.5,0.8,2.3
			c0.4,0.5,0.7,1,0.9,1.6c0.2,0.5,0,0.8-0.3,1.2c-0.8,1.1-1.8,2.1-3,2.8l-1.3,0.9c-0.4,0.2-0.8,0.4-1.2,0.4c-0.5,0.2-1.4,1.1-2,0.8
			c-0.3-0.2-0.5-0.4-0.6-0.7c0-0.4,0.6-0.8,0.8-1s4.7-2.6,4.1-4.8s-1.6-2.4-2.5-3.5l-0.8-1.1c-0.1-0.2-0.3-0.8-0.5-0.8
			c-5.4,0.8-7.9,0.8-7.9,0.7c0,1.7,0.2,3.5,0.5,5.2l0.3,2.3c0,0.2,0.5,2.3-0.1,1.5c-0.2,1.2-0.1,3.4-1.6,3.5c-0.8,0.1-1.6,0-2.4-0.1
			l-1-0.2c-0.4-0.1-0.6,0-0.5-0.4s2.1-0.3,2.6-0.9c0.4-0.7,0.6-1.5,0.7-2.3c-0.1-0.8-0.4-1.6-0.7-2.4c-0.4-1.4-0.8-2.7-1.4-4
			c-0.1-0.3-1-2.3-1.4-1.9s0,0.9,0,1c0.1,0.4-0.1,0.9-0.5,1.1c-1,0.6-2.3,1.1-3.3,1.6s-2.5,1-3.7,1.5c-0.4,0.2-0.8,0.4-1.1,0.7
			c-0.4,0.6-0.7,1.2-0.9,1.8c-0.5,0.8-1,1.6-1.6,2.4s-2.2,2-2.7,0.9s0.7-1.6,0.9-2s1.4-4.3,3.1-5.7s2.5-1.4,3.6-2.3s1.4-0.9,1.2-1.4
			s-5.6-4.5-5.8-4.6l-0.4-0.3c-0.1,0.4-0.1,0.2-0.2-0.1s-0.2,0-0.3-0.3c0,0.2-0.1,0.3-0.2,0.4c0-0.2,0-0.3-0.1-0.4s-0.1-0.2-0.2,0
			s0,0.2-0.3-0.4s-0.9-0.4-1.3-0.4l-1,0.5c-0.5,0.4-1.2,0.4-1.7,0c-0.9-0.3-1.5-0.5-1.1-1.4s1.4-1.8,1.3-2.8c-0.1-1.1-0.1-2.2,0-3.3
			C1.5,3.8,2,3.3,2,2.7C1.9,2.3,1.8,2,1.5,1.7C1.2,1.4,0.9,1,0.7,0.6C0.5,0.2,0.3,0.1,0.8,0S2,0.5,2.3,0.5l1.2,0.7h1.6
			c0.2-0.6,0.4-1.4,1-1.2s0.3,1.5,1.6,2.1s5.7,1.2,6.4,1.9s0.2,0,0.4-0.1l0.6-0.3c-0.4,0.6,0,0.2,0.3,0.1s0.2,0.1,0.3,0
			s0.4-0.5,0.2,0.1l0.5-0.2v0.2l0,0C16.4,3.9,17.8,3.5,21.5,3.4z"/>
	</g>
</g>
</svg>
