<svg xmlns="http://www.w3.org/2000/svg" viewBox="0 0 40 16.37"><defs><style>.cls-1{fill:#1a2026;}</style></defs><g id="Layer_2" data-name="Layer 2"><g id="Layer_1-2" data-name="Layer 1"><path class="cls-1" d="M40,2.21a.2.2,0,0,0-.24-.06,12.29,12.29,0,0,0-4.58,3.17c-1.48,1.86-1.78,2.05-2,2.07A31.08,31.08,0,0,1,29,6.82.61.61,0,0,1,29,6.36a.18.18,0,0,0,0-.16.21.21,0,0,0-.13-.1,2.68,2.68,0,0,0-1.28.34c-.49-.13-1-.27-1.46-.42L24.62,5.6c-.89-.25-2.06-.51-3-.72-.74-.16-1.37-.3-1.59-.38a1.67,1.67,0,0,1-.93-1.23l0-.11A14.64,14.64,0,0,1,18.7.21.21.21,0,0,0,18.5,0c-.05,0-1.19,0-2.39,2C15,3.8,15,3.8,14.23,3.88l-.14,0A55.31,55.31,0,0,0,4.76,5.48C0,7,0,7.41,0,7.66c0,.45,1.18,1,1.34,1.07a4,4,0,0,0,1.15.21,6,6,0,0,0,.84-.15,10,10,0,0,1,1.24-.22,2.85,2.85,0,0,1,.49,0c-.22.06-.51.15-.84.22l-.3.07A5,5,0,0,0,3,9.17a.29.29,0,0,0-.2.31c0,.18,0,.47,2.79,1.09a13,13,0,0,0,2,.25,6.45,6.45,0,0,1,.82.08l.34.08a19.72,19.72,0,0,0,3,.54,18,18,0,0,0,2,2.7,6.43,6.43,0,0,0,3.78,2.15.49.49,0,0,0,.48-.23c.15-.32-.15-.72-.65-1.36-.14-.18-.28-.36-.38-.51l0,0a12.42,12.42,0,0,1-1.37-2.48l1.57.07a17.62,17.62,0,0,0,2.82,0c.81-.06,1.49-.15,2-.22a8.41,8.41,0,0,1,1.26-.11,2.94,2.94,0,0,1,.88.47,3.3,3.3,0,0,0,1,.51c.3.07.51.09.65,0a.59.59,0,0,0,.13-.51c0-.08,0-.19-.05-.3-.1-.51-.07-.67.11-.72s.92-.25,1.68-.48l.73-.21a2.59,2.59,0,0,0,.91.39c.3,0,.46-.42.55-.81l.25-.07a18.88,18.88,0,0,1,3-.49.91.91,0,0,1,.81.46A13.92,13.92,0,0,0,36.14,12a5.57,5.57,0,0,0,2.41,1.07h.1a.43.43,0,0,0,.41-.19c.13-.24-.09-.51-.32-.79l-.16-.2A7.59,7.59,0,0,1,37,8.81a11,11,0,0,1,1.33-3.54c.28-.48.5-.83.63-1l.16.08a.2.2,0,0,0,.2,0,.2.2,0,0,0,.09-.17A3.29,3.29,0,0,1,40,2.46.23.23,0,0,0,40,2.21Z"/></g></g></svg>