<svg xmlns="http://www.w3.org/2000/svg" xmlns:xlink="http://www.w3.org/1999/xlink" viewBox="0 0 45.99 38.06"><defs><style>.a{fill:none;}.b{opacity:0.8;}.c{fill:#fff;}.d{clip-path:url(#a);}.e{fill:#1a2026;}</style><clipPath id="a"><path class="a" d="M39.21,12.93c.14.13.09,0,.12,0,.57.74.89,1.62,2,1.57A1.64,1.64,0,0,0,43,12.87a4.34,4.34,0,0,0-1.28-2.39A12.72,12.72,0,0,1,40.14,8a9.58,9.58,0,0,1-.46-1.46c0-.18-.09-.36-.15-.54A8,8,0,0,1,39,5.05c0-.33.41-.6.23-1s-.92-.69-1.4-.81A5.77,5.77,0,0,0,36.37,3a2.16,2.16,0,0,0-.74.1c-.18.07-.44.41-.57.44-.49.14-.91-.2-1.44,0-.29.1-.2.14-.42.17a4.34,4.34,0,0,1-.45-.09,6,6,0,0,0-3.53,1.55c-.37.3-1,.72-.88,1.27-.19-.38-.47.1-.62.3-.42.58-.38.95-1.13,1.06a14.55,14.55,0,0,0-4,1.4,23.55,23.55,0,0,1-2.42,1,7.69,7.69,0,0,1-3.61,0c-3-.42-6.48-1.19-9.36.16a6.08,6.08,0,0,0-3.44,6,10.68,10.68,0,0,1,0,2.83c-.18.95-.31,1.92-.53,2.86a2.59,2.59,0,0,0-.1,1.7c0-.08.21-.34.27-.42-.12.26-.41,1.09-.22,1.36.39.54,1.08-1.43,1.26-1.87a3,3,0,0,0,.1-2,6.29,6.29,0,0,1,.29-2.93c.5,1.26,1.95,2.4,1.73,3.86s-1.94,2.15-2,3.68,1,3,1.41,4.4a8.92,8.92,0,0,0,1.27,2.27c.34.52.46,1.73,1.16,1.59-.09.49-.12.55.23.73a4,4,0,0,0,1.75.14c1-.15.23-.65-.08-1.08s-.33-1.16-.61-1.71a13.4,13.4,0,0,1-1.36-2.65c-.58-2.21.69-4.27,2-6,.45-.6.93-1.18,1.39-1.78a4.32,4.32,0,0,1,.47-.63c.34-.3.18-.17.59-.2a20.76,20.76,0,0,1,2.74.25,28.45,28.45,0,0,0,8-.44c.63-.07.68.21.78.79a13.82,13.82,0,0,1,.15,3.32q0-.31,0-.62a18.31,18.31,0,0,0-.2,2c.07.91.36,1.78.49,2.69a11.91,11.91,0,0,1,0,2,2.58,2.58,0,0,0,.19,1.13c.06.14.43.9.27.52.19.43-.39,1.72.58,1.57-.45,1.63,3,1.65,2.36.33-.17-.35-.52-.55-.67-.92-.28-.68-.68-1.41-.9-2.11a3.2,3.2,0,0,1,.26-2.22,5.65,5.65,0,0,0,.55-3.13c-.23-2.09.89-4,1.87-5.76.67-1.21,1.27-2.43,1.83-3.69A10,10,0,0,1,34,12.73l-.35.3c.66-.57,1.54-1.82,2.44-1.56A9,9,0,0,1,39.21,12.93Z"/></clipPath></defs><title>Asset 167</title><g class="b"><path class="c" d="M39.21,12.93c.14.13.09,0,.12,0,.57.74.89,1.62,2,1.57A1.64,1.64,0,0,0,43,12.87a4.34,4.34,0,0,0-1.28-2.39A12.72,12.72,0,0,1,40.14,8a9.58,9.58,0,0,1-.46-1.46c0-.18-.09-.36-.15-.54A8,8,0,0,1,39,5.05c0-.33.41-.6.23-1s-.92-.69-1.4-.81A5.77,5.77,0,0,0,36.37,3a2.16,2.16,0,0,0-.74.1c-.18.07-.44.41-.57.44-.49.14-.91-.2-1.44,0-.29.1-.2.14-.42.17a4.34,4.34,0,0,1-.45-.09,6,6,0,0,0-3.53,1.55c-.37.3-1,.72-.88,1.27-.19-.38-.47.1-.62.3-.42.58-.38.95-1.13,1.06a14.55,14.55,0,0,0-4,1.4,23.55,23.55,0,0,1-2.42,1,7.69,7.69,0,0,1-3.61,0c-3-.42-6.48-1.19-9.36.16a6.08,6.08,0,0,0-3.44,6,10.68,10.68,0,0,1,0,2.83c-.18.95-.31,1.92-.53,2.86a2.59,2.59,0,0,0-.1,1.7c0-.08.21-.34.27-.42-.12.26-.41,1.09-.22,1.36.39.54,1.08-1.43,1.26-1.87a3,3,0,0,0,.1-2,6.29,6.29,0,0,1,.29-2.93c.5,1.26,1.95,2.4,1.73,3.86s-1.94,2.15-2,3.68,1,3,1.41,4.4a8.92,8.92,0,0,0,1.27,2.27c.34.52.46,1.73,1.16,1.59-.09.49-.12.55.23.73a4,4,0,0,0,1.75.14c1-.15.23-.65-.08-1.08s-.33-1.16-.61-1.71a13.4,13.4,0,0,1-1.36-2.65c-.58-2.21.69-4.27,2-6,.45-.6.93-1.18,1.39-1.78a4.32,4.32,0,0,1,.47-.63c.34-.3.18-.17.59-.2a20.76,20.76,0,0,1,2.74.25,28.45,28.45,0,0,0,8-.44c.63-.07.68.21.78.79a13.82,13.82,0,0,1,.15,3.32q0-.31,0-.62a18.31,18.31,0,0,0-.2,2c.07.91.36,1.78.49,2.69a11.91,11.91,0,0,1,0,2,2.58,2.58,0,0,0,.19,1.13c.06.14.43.9.27.52.19.43-.39,1.72.58,1.57-.45,1.63,3,1.65,2.36.33-.17-.35-.52-.55-.67-.92-.28-.68-.68-1.41-.9-2.11a3.2,3.2,0,0,1,.26-2.22,5.65,5.65,0,0,0,.55-3.13c-.23-2.09.89-4,1.87-5.76.67-1.21,1.27-2.43,1.83-3.69A10,10,0,0,1,34,12.73l-.35.3c.66-.57,1.54-1.82,2.44-1.56A9,9,0,0,1,39.21,12.93Z"/><path class="c" d="M36.44,3a5.94,5.94,0,0,1,1.43.21c.48.12,1.19.31,1.4.81s-.25.7-.23,1a8,8,0,0,0,.49.92c.06.18.1.36.15.54A9.57,9.57,0,0,0,40.14,8a12.72,12.72,0,0,0,1.57,2.51A4.34,4.34,0,0,1,43,12.87a1.64,1.64,0,0,1-1.67,1.65h-.1c-1,0-1.35-.85-1.89-1.57h0s0,0,0,0,0,0-.09-.06a9,9,0,0,0-3.16-1.46.88.88,0,0,0-.25,0c-.81,0-1.59,1.08-2.19,1.6l.22-.19A9.7,9.7,0,0,0,31,16.28c-.56,1.27-1.16,2.48-1.83,3.69-1,1.78-2.1,3.67-1.87,5.76a5.65,5.65,0,0,1-.55,3.13,3.2,3.2,0,0,0-.26,2.22c.23.7.62,1.43.9,2.11.15.37.49.57.67.92.31.62-.29.94-1,.94s-1.63-.41-1.39-1.27H25.6c-.72,0-.31-1-.41-1.5l0,0,0-.1,0,.08c-.06-.1-.25-.5-.29-.6a2.58,2.58,0,0,1-.19-1.13,11.91,11.91,0,0,0,0-2c-.13-.9-.41-1.77-.49-2.69a9.07,9.07,0,0,1,.18-1.73q0,.16,0,.32,0-.23,0-.45t0-.17v.3a13.69,13.69,0,0,0-.17-3c-.09-.52-.15-.8-.6-.8h-.18a27.23,27.23,0,0,1-5.5.55q-1.26,0-2.54-.1c-.79-.06-1.66-.26-2.47-.26h-.57c-.07,0-.1,0-.29.2a4.32,4.32,0,0,0-.47.63c-.46.59-.94,1.18-1.39,1.78-1.28,1.7-2.55,3.76-2,6a13.4,13.4,0,0,0,1.36,2.65c.28.55.27,1.23.61,1.71s1.12.93.08,1.08a4.69,4.69,0,0,1-.61,0,2.84,2.84,0,0,1-1.14-.17c-.34-.19-.32-.25-.23-.73H8.26c-.6,0-.73-1.11-1.05-1.6a8.92,8.92,0,0,1-1.27-2.27c-.41-1.38-1.49-3-1.41-4.4s1.81-2.21,2-3.68S5.32,19.16,4.82,17.9a6.29,6.29,0,0,0-.29,2.93,3,3,0,0,1-.1,2c-.17.39-.72,2-1.11,2a.19.19,0,0,1-.15-.09c-.19-.27.1-1.1.22-1.36-.06.08-.28.34-.27.42a2.59,2.59,0,0,1,.1-1.7c.22-.94.36-1.91.53-2.86a10.68,10.68,0,0,0,0-2.83,6.08,6.08,0,0,1,3.44-6,9,9,0,0,1,3.88-.76,40.23,40.23,0,0,1,5.48.6,15.2,15.2,0,0,0,2.07.21,4.9,4.9,0,0,0,1.53-.23,23.55,23.55,0,0,0,2.42-1,14.55,14.55,0,0,1,4-1.4c.75-.11.71-.47,1.13-1.06.11-.15.29-.45.45-.45s.12,0,.17.14c-.12-.55.5-1,.88-1.27A6.28,6.28,0,0,1,32.6,3.61h.15c.12,0,.32.09.43.09h0c.22,0,.13-.07.42-.17A1.05,1.05,0,0,1,34,3.48c.29,0,.55.1.83.1a.94.94,0,0,0,.26,0c.13,0,.39-.37.57-.44a2.16,2.16,0,0,1,.74-.1h.07M34,12.73h0m0,0-.14.12.14-.12M36.44,0h-.13a4.93,4.93,0,0,0-1.8.32l-.34.16H34A4.07,4.07,0,0,0,32.9.62h-.3a8.7,8.7,0,0,0-5.24,2.2l-.08.06A6.09,6.09,0,0,0,26,4.12a4.65,4.65,0,0,0-.74.84l0,0a18,18,0,0,0-3.58,1.32l-.35.16a21.29,21.29,0,0,1-2.11.87,1.92,1.92,0,0,1-.61.08,10.92,10.92,0,0,1-1.41-.14l-.25,0-1.09-.16a32.32,32.32,0,0,0-4.81-.47,11.92,11.92,0,0,0-5.15,1A9.12,9.12,0,0,0,.77,16.51c0,.23,0,.45,0,.65a5.3,5.3,0,0,1,0,1.47c-.06.32-.11.64-.17,1-.11.62-.2,1.2-.33,1.75l0,.2a5.32,5.32,0,0,0-.13,2.64,3.46,3.46,0,0,0,.62,2.25,3.25,3.25,0,0,0,1,.93,14.83,14.83,0,0,0,.84,2.21,10.8,10.8,0,0,1,.46,1.13,9.26,9.26,0,0,0,1.36,2.65l.2.3.05.14a5.81,5.81,0,0,0,.95,1.7,3.46,3.46,0,0,0,1.54,1.6,5.31,5.31,0,0,0,2.58.54,7.65,7.65,0,0,0,1-.06,3.4,3.4,0,0,0,2.91-2.2,3.33,3.33,0,0,0-.85-3.47v0a6.35,6.35,0,0,0-.5-1.43c-.21-.41-.43-.77-.62-1.08a4.71,4.71,0,0,1-.51-1c-.2-.75.26-1.8,1.47-3.4.25-.33.51-.66.77-1l.29-.36.36,0c.36.05.74.1,1.14.13.94.07,1.87.11,2.77.11a31,31,0,0,0,3.47-.19q0,.1,0,.19c0,.11,0,.21-.05.32a7.36,7.36,0,0,0-.12,1.89,14.21,14.21,0,0,0,.33,1.95c.07.33.14.65.18.92a4.47,4.47,0,0,1,0,.65c0,.28,0,.56,0,.84a5.6,5.6,0,0,0,.43,2.37l0,.08a3.7,3.7,0,0,0,.9,2.76,3.79,3.79,0,0,0,.4.66,4.56,4.56,0,0,0,3.65,1.69,4.07,4.07,0,0,0,3.54-1.81,3.55,3.55,0,0,0,.11-3.48,4.58,4.58,0,0,0-.7-1l-.26-.58c-.14-.29-.28-.6-.37-.84,0-.07.06-.18.13-.35a8.56,8.56,0,0,0,.75-4.59c-.12-1,.6-2.32,1.35-3.69l.16-.29c.7-1.27,1.33-2.55,1.94-3.93a6.9,6.9,0,0,1,2-2.37h0l.09-.07a3,3,0,0,0,.38-.37,4.39,4.39,0,0,1,1,.46l0,0a4.74,4.74,0,0,0,4,2.36h.26A4.62,4.62,0,0,0,46,12.82,6.23,6.23,0,0,0,44.35,9l-.24-.3a10.29,10.29,0,0,1-1.22-1.9,6.66,6.66,0,0,1-.27-.9l0-.11,0-.1c-.06-.23-.12-.45-.19-.67l-.09-.23A3.42,3.42,0,0,0,42,2.87,4.7,4.7,0,0,0,38.62.3,8.77,8.77,0,0,0,36.44,0Z"/></g><path class="c" d="M39.21,12.93c.14.13.09,0,.12,0,.57.74.89,1.62,2,1.57A1.64,1.64,0,0,0,43,12.87a4.34,4.34,0,0,0-1.28-2.39A12.72,12.72,0,0,1,40.14,8a9.58,9.58,0,0,1-.46-1.46c0-.18-.09-.36-.15-.54A8,8,0,0,1,39,5.05c0-.33.41-.6.23-1s-.92-.69-1.4-.81A5.77,5.77,0,0,0,36.37,3a2.16,2.16,0,0,0-.74.1c-.18.07-.44.41-.57.44-.49.14-.91-.2-1.44,0-.29.1-.2.14-.42.17a4.34,4.34,0,0,1-.45-.09,6,6,0,0,0-3.53,1.55c-.37.3-1,.72-.88,1.27-.19-.38-.47.1-.62.3-.42.58-.38.95-1.13,1.06a14.55,14.55,0,0,0-4,1.4,23.55,23.55,0,0,1-2.42,1,7.69,7.69,0,0,1-3.61,0c-3-.42-6.48-1.19-9.36.16a6.08,6.08,0,0,0-3.44,6,10.68,10.68,0,0,1,0,2.83c-.18.95-.31,1.92-.53,2.86a2.59,2.59,0,0,0-.1,1.7c0-.08.21-.34.27-.42-.12.26-.41,1.09-.22,1.36.39.54,1.08-1.43,1.26-1.87a3,3,0,0,0,.1-2,6.29,6.29,0,0,1,.29-2.93c.5,1.26,1.95,2.4,1.73,3.86s-1.94,2.15-2,3.68,1,3,1.41,4.4a8.92,8.92,0,0,0,1.27,2.27c.34.52.46,1.73,1.16,1.59-.09.49-.12.55.23.73a4,4,0,0,0,1.75.14c1-.15.23-.65-.08-1.08s-.33-1.16-.61-1.71a13.4,13.4,0,0,1-1.36-2.65c-.58-2.21.69-4.27,2-6,.45-.6.93-1.18,1.39-1.78a4.32,4.32,0,0,1,.47-.63c.34-.3.18-.17.59-.2a20.76,20.76,0,0,1,2.74.25,28.45,28.45,0,0,0,8-.44c.63-.07.68.21.78.79a13.82,13.82,0,0,1,.15,3.32q0-.31,0-.62a18.31,18.31,0,0,0-.2,2c.07.91.36,1.78.49,2.69a11.91,11.91,0,0,1,0,2,2.58,2.58,0,0,0,.19,1.13c.06.14.43.9.27.52.19.43-.39,1.72.58,1.57-.45,1.63,3,1.65,2.36.33-.17-.35-.52-.55-.67-.92-.28-.68-.68-1.41-.9-2.11a3.2,3.2,0,0,1,.26-2.22,5.65,5.65,0,0,0,.55-3.13c-.23-2.09.89-4,1.87-5.76.67-1.21,1.27-2.43,1.83-3.69A10,10,0,0,1,34,12.73l-.35.3c.66-.57,1.54-1.82,2.44-1.56A9,9,0,0,1,39.21,12.93Z"/><g class="d"><path class="e" d="M27.58,26.43c-.06.23-.18,1-.24,1.17a28.29,28.29,0,0,1-3-.22c0-.15,0-.48,0-.64a14.9,14.9,0,0,0,2.4.14c-.5-.36-1.83-.34-2.48-.58,0-.11.05-.76,0-.87C25.33,25.85,26.74,25.94,27.58,26.43Z"/><path class="e" d="M26.69,29.51a4.93,4.93,0,0,0-2,0c0-.26,0-1-.07-1.27.63,0,1.66.15,2.23.2C26.89,28.64,26.69,29.36,26.69,29.51Z"/><path class="e" d="M26.73,13.86c.47.76,3.48,4.65,3.31,5.69-1-1.17-4.77-4.14-5.3-5.78-.37.24-.58,2.23-.89,2.84-.49,1-1,.77-1.37,1.79-.39-.8.44-1.9.68-2.72a10.85,10.85,0,0,0,.5-3.37,21.56,21.56,0,0,1,.15-4.1l.56-.06C24.46,10.67,25.43,11.77,26.73,13.86Z"/><path class="e" d="M25.12,20.68c.66-.69,2.23-.84,2.7-1.41.41.28,1,.49,1.32.91-.09.12-.46.79-.53.89l0,0A4.12,4.12,0,0,0,25.12,20.68Z"/><path class="e" d="M24,22.43a5.32,5.32,0,0,0,2.48-.08A5.73,5.73,0,0,0,24,21.06c1.24-.36,3.17.55,4.44.77-.08.16-.72,1.09-.79,1.25C26.17,23,23.91,23.19,24,22.43Z"/><path class="e" d="M9.28,30.92l.11.22c-.87,0-1.73.58-2.64.65l-.1-.22a5.26,5.26,0,0,0,.74-.09,1.24,1.24,0,0,0-.88-.26l-.17-.41c.42,0,.82.16,1.31.19A12.1,12.1,0,0,0,9.28,30.92Z"/><path class="e" d="M8.8,30c-.76-.09-1.74.37-2.67.31-.08-.16-.32-.76-.38-.88l0-.07c.9.1,1.9-.51,2.68-.31C8.47,29.2,8.71,29.82,8.8,30Z"/><path class="e" d="M9.65,31.73A5.24,5.24,0,0,0,11,33.46c.77.56,1.22.77.76,1.15A3.93,3.93,0,0,1,9,34.79a5.25,5.25,0,0,1-1.8-2c-.07-.17-.16-.42-.27-.73A11.35,11.35,0,0,1,9.65,31.73Z"/><path class="e" d="M26.57,30.29c0,.1.08.46.1.55-.69.16-1.22.7-1.92.87a1.84,1.84,0,0,1-.12-.53,3.73,3.73,0,0,1,.07-.44A17.56,17.56,0,0,0,26.57,30.29Z"/><path class="e" d="M28,33.82c.57.55.7,1.07.05,1.16s-1.76.16-1.95-.08-.28-.28-.81-.55c-.37-.19-.31-1.5-.71-1.9.91,0,1.88-.8,2.73-.65C27.51,32.09,27.7,33.55,28,33.82Z"/><path class="e" d="M8.32,27.38c0,.09.12.78.16.92a16.72,16.72,0,0,0-3.24.33S5.12,28,5.1,28a17,17,0,0,1,3.2-.71A1.06,1.06,0,0,0,8.32,27.38Z"/><path class="e" d="M6,22.45a6.55,6.55,0,0,0,.4-1.38c.6.05,1.2.23,1.78.23a20.42,20.42,0,0,1,3.24.55c-.06.12-.39.64-.45.76C10,22.49,7.08,22.46,6,22.45Z"/><path class="e" d="M9.39,19.63a19.15,19.15,0,0,1-4.21-.38c-.27-.59-.77-1.87-.95-2.25.77.19,1.55.51,2.26.69a16.56,16.56,0,0,0,2.93.24c.89.07,2.1,1.46,2.38,2.07,0,0,.34,1,.22,1.1A3.63,3.63,0,0,0,9.39,19.63Z"/><path class="e" d="M9,25.52l-.17.26c-.41,0-.78.52-1.11.63.77-.18.84.19,1.17.23,0,0-1.24.22-1.25.25a6.14,6.14,0,0,0-2.91.37c0-.09-.18-1-.22-1.07A14.7,14.7,0,0,1,9,25.52Z"/><path class="e" d="M4.83,24.15c.06-.21.86-1.12,1-1.35.34.1.7.48,1.05.63a14.22,14.22,0,0,0,3.07.44c-.06.13-.82.94-.87,1.06C8.09,25,5.49,24.88,4.83,24.15Z"/><path class="e" d="M24.33,19.05c.58-.56,1.76-.69,1.87-1.56h.06c.3.29,1.05.89,1.1,1.26-.64-.38-1.59.33-2.19.68a1.85,1.85,0,0,0-1,1.3c-.07-.06-.26-.32-.37-.29A2.3,2.3,0,0,1,24.33,19.05Z"/><path class="e" d="M21.09,15.31c.3-1.46-.11-2.57.14-4.26.25-1.38.07-1.52.37-2.69.06,0,1.11,0,1.17,0l.21,0c-.17.82.3,1.82.1,2.66a20.54,20.54,0,0,1-.6,2.62c-.42,1.21-1,.79-.88,4.06-.08.35-.2.86-.47.92C20.54,17.46,20.87,16.41,21.09,15.31Z"/><path class="e" d="M27.82,23.67c0,.1-.4,1.06-.43,1.17a16,16,0,0,1-3.14.11c0-.22,0-.75,0-.92A26,26,0,0,1,27.82,23.67Z"/><path class="e" d="M15.92,17.14a5.33,5.33,0,0,0-2.46-5.35,9.28,9.28,0,0,0-6.18-1.5,5.18,5.18,0,0,1,1.5-.83,8.39,8.39,0,0,1,5.57,1,7.4,7.4,0,0,1,2.75,2.75c.48,1,.05,2.08-.1,3.15a5,5,0,0,0-.23,2.44l-.19,0C15.84,18,15.82,17.92,15.92,17.14Z"/><path class="e" d="M18.16,17.57c.1-.79-.06-1.59,0-2.4a4.58,4.58,0,0,0-1.82-4.51,9.28,9.28,0,0,0-2.29-1.54,18.41,18.41,0,0,0-2.68-.62,18.37,18.37,0,0,1,2.53,0,7.76,7.76,0,0,1,.83.47,12.19,12.19,0,0,0,1.56.8,4.26,4.26,0,0,1,2.13,1.72c.13.27,0,1.15.35,1.25.47.14.5-.68.46-.94-.26-1.75-2.81-1.7-3.45-3.07l.73.14.36.08c.2.73,1.68.3,2.23.6a2.72,2.72,0,0,1,1.06,2.5c-.28,1.91-.77,4.09-1.2,6a3.65,3.65,0,0,0-.15,1.3C18.74,19.4,18,18.87,18.16,17.57Z"/><path class="e" d="M40.28,12.87c.49-.1.48-.28.92-.57s.1-1.2.18-1.23.36.36.56.7-.16.76,0,1.11.72.71,1.08.88a3.06,3.06,0,0,1-.46.54c-.23.24-1.08.22-1.62.29s-.85-.73-1.29-1l-.09,0A1,1,0,0,1,40.28,12.87Z"/><path class="e" d="M42.14,12.25c.1-.26.43,0,.73.41a1.18,1.18,0,0,1-.23.36l0,.06a.68.68,0,0,0-.26-.11C42,12.91,42,12.6,42.14,12.25Z"/><path class="e" d="M39.34,11.72a9.51,9.51,0,0,1,1.83-.2l0,0c-.6.9-2.14-.09-2.19,1.41l-.29-.1C38.75,12.39,38.82,11.94,39.34,11.72Z"/><path class="e" d="M38.92,9.74c.87-.08,1.83-.15,2.28.85a3.1,3.1,0,0,0-2.7-.19c-.72.38-.46,1.33-.57,2.05a4.45,4.45,0,0,1-.43-.19,7.61,7.61,0,0,1,.1-1.75C37.8,9.76,38.13,9.82,38.92,9.74Z"/><path class="e" d="M37.16,7.86c.28.52-.57,1.36-.86,2.09-.21.53,0,1.2-.1,1.73l-.32-.22a5.36,5.36,0,0,1,.61-3.25S36.88,7.34,37.16,7.86Z"/><path class="e" d="M39.05,6.62h0c-.29-.07-.38-.76-.42-1.07a2.12,2.12,0,0,1,.11-1.05l.15.14C38.67,5.23,39,6.08,39.05,6.62Z"/><path class="e" d="M39.25,6.73a2.57,2.57,0,0,0,.42,1.15c.25.38,1,1.33,1,1.33a11.79,11.79,0,0,1-1.46-1.66C39,7.17,39.23,6.45,39.25,6.73Z"/><path class="e" d="M39.37,8.24c.25.27,1.19,1.2,1.19,1.2a8.44,8.44,0,0,1-1.33-1C39.18,8.26,39.21,8.07,39.37,8.24Z"/><path class="e" d="M39.11,8.09c.36.21-.38-.93-.78-.91s-.42.16-.72.23,0,.11.12.28.08.47.42.54S39,8,39.11,8.09Z"/><path class="e" d="M35.57,3.43c.55-.41,1,.11,1.76.72A1.91,1.91,0,0,0,36,3.94a.91.91,0,0,0-.45,1.17h0A1,1,0,0,1,35.57,3.43Z"/><path class="e" d="M9,16.74a7.72,7.72,0,0,0-3.62-1.56s-.78-.27-.89,0c-.42.91-.14,2.72.14,4.06s.52,2,.13,3.14c-.15-1-.1-1.26-.53.42S3.32,24.62,1.8,25.2.18,26.72.18,26.72A3.31,3.31,0,0,1,1.3,24.65c1.05-.94,1.25-2.75,1.63-4a11.72,11.72,0,0,0,.45-2.35s-.23,0-.47.92c-.26-.46.47-2.2.73-3.55A11.12,11.12,0,0,1,4.55,12a2.06,2.06,0,0,1,.51-.34c1.62-1.11,4.13-.66,5.73,0a6.61,6.61,0,0,1,3.63,4.69,8.94,8.94,0,0,1,.19,2.81l-.28-.12c-.34-.58-.76-.13-1-.86a5.81,5.81,0,0,0-3.3-4.1c-.95-.49-2-.77-2.94-1.22a3.74,3.74,0,0,0-1.31-.57,2.92,2.92,0,0,0-1.08.31.82.82,0,0,0-.06.3c0,.07,0,.25.08.49A14.34,14.34,0,0,1,6.23,14,17.68,17.68,0,0,1,9.3,15.05a6.5,6.5,0,0,1,2.31,2.48c.38.62,1.14,1.61,1,2.4-.28-.18-1.44-1.56-1.62-1.69"/><path class="e" d="M36.37,7.63l.21-.13c.33-.38.65-.8.65-.8l-.31.19.19-.3-.56,0,.33-.9L36.46,6l.19-.57-.44.37.25-.38L36,5.62l0-.38-.26.29h-.09A15.68,15.68,0,0,1,36,7.86l.24-.15,0,.08.14-.11Z"/><path class="e" d="M37.78,3.78c-.06.3-.1.6-.12.9a1.35,1.35,0,0,0,.22.87c.12.21.32.77.51.82a6.45,6.45,0,0,0-.32-1.45,4.31,4.31,0,0,1-.1-1.3Z"/><path class="e" d="M30.25,10.12c-.29-.84-1-2.59-1-2.59s-.7-1.56-.82-2l-1-1.83-.16-.12.21.77L26.71,4l.69,1.31-1.11-.65.6,1-.39-.3.79,1.23a1.66,1.66,0,0,1,1.14,1c.05.18.1.37.14.52a18.72,18.72,0,0,0,1.49,3.74c.31.62,2.13,4.82,2.25,3.19C32.39,13.87,30.59,11.11,30.25,10.12Z"/><path class="e" d="M28.88,2.55l.5.9-.93-.63.61,1-.68-.33.78,1.33c.7,0,.46.5.67.92.25.69.57,1.46.84,2.16a30.76,30.76,0,0,0,1.06,2.94L33.31,14l.32-.51c-.14-.3-.54-1.2-.67-1.52-.72-1.88-1-4.16-1.9-6h0a11.41,11.41,0,0,1-.84-2l.09,0-1-1.38Z"/><path class="e" d="M31.93,5.13c.85,2.22,1.25,6.19,2.5,8.29.09-.17.29-.82.38-1-1-1.95-2.15-7.51-2.15-7.51-.23-.57-.81-1.3-1.1-1.9l-.29-.4-.75-.77,0,.42L30,2v.32l-.21,0,1,1.38C31.34,3.82,31.68,4.52,31.93,5.13Z"/><path class="e" d="M35.15,8.49c-.14-.68-.08-1.18-.22-1.86a20,20,0,0,0-1.38-2.73,5,5,0,0,1-.39-1.52l-.23-.65-.28.36L32,1.33l-.2.56-.44,0,.29.64.58.46c-.1-1,.26.26.25.25.33.11.48,1.17.77,1.77s.7,1.3.84,1.81c.25.88.44,1.7.63,2.6a13.67,13.67,0,0,0,.64,2.78l0-2.06A7.62,7.62,0,0,1,35.15,8.49Z"/><path class="e" d="M29.74,14.82A7.33,7.33,0,0,1,28,11,21.2,21.2,0,0,0,27.45,7h0c-.11-.43-.36-.69-.38-1.11l0,0-1-1.66-.23-.09.23.36-.52,0L26,5.5s-.85-.38-.74-.28.55.69.55.69L25,5.57l.63.92s-.77-.05-.59.12a2,2,0,0,1,.3.76L25,7.21l0,.14c-.11,0-.26-.12-.37-.11l.59.46.49.26a13.58,13.58,0,0,1,.86,2.9,13.5,13.5,0,0,0,3,4.8c.33.38.92,1,1.31,1.4a2.54,2.54,0,0,1,.46-.68l.08-.09C31.06,15.86,30.06,15.21,29.74,14.82ZM26.36,7.66c0-.46-.29-.79-.27-1.14a3.3,3.3,0,0,1,.67.81,12.29,12.29,0,0,1,.75,3.83C26.69,10.75,26.63,9,26.36,7.66Z"/></g></svg>