<svg xmlns="http://www.w3.org/2000/svg" viewBox="0 0 40.58 41.5"><defs><style>.cls-1{fill:#1a2026;}</style></defs><g id="Layer_2" data-name="Layer 2"><g id="Layer_1-2" data-name="Layer 1"><path class="cls-1" d="M5.41,27.23a23.45,23.45,0,0,1,2-4.56c1.55-2.73,3.38-7.82,11.91-8.41,0,0,6.63.12,8.7-1.14a4.15,4.15,0,0,0,1.31-1,2.44,2.44,0,0,1-1.37,0,6.3,6.3,0,0,0,2.16-1,3.88,3.88,0,0,1-1.4,0,10,10,0,0,0,2.34-1,2.14,2.14,0,0,0,.82-.85A3.52,3.52,0,0,1,28.63,9a14.93,14.93,0,0,1,3.48-2A11.19,11.19,0,0,1,33,4.69c.53-.94,1.39-.76,1.78-1.08a11.94,11.94,0,0,0,2.82-3c.8-1.44,1.67.16,1.81,1A8.87,8.87,0,0,1,39,5.31s.45.29,1.07-1.11.8,1.77-.27,3S38.27,13,38.35,16.83s.53,4.73.53,4.73A3.27,3.27,0,0,1,37.48,20a14.77,14.77,0,0,0-.06,4.33,2.89,2.89,0,0,1-1-1.26A6.32,6.32,0,0,1,35,26.44a2.58,2.58,0,0,0-.73,1.81s-.82-.91-.53-1.75a7.9,7.9,0,0,0-1.39,4.27c-.27,3-.7,5.49-.15,7A6.1,6.1,0,0,0,33.31,40a1.15,1.15,0,0,1,1.44,1.28H30.91a8.13,8.13,0,0,1-1.22-5.74c.49-3.48-1.35-4.35-1.06-7.13,0,0-3.35,1.29-10.27-1.57,0,0,1.69,5.55-5,8.08,0,0-1.1.54,1.2,4.2a2.54,2.54,0,0,0,1,.93c.55.22,2.12-.15,1.36,1.23H13.6s-4.5-6-2.72-7.2a6.33,6.33,0,0,0,.56-4.32c-.65-2.13-.85-2.4-1.64-1.61a9.86,9.86,0,0,0-2.29,3.59,29.87,29.87,0,0,0-.19,4.11s-.45,0-.76-.89a14.53,14.53,0,0,0-.49,4.53,1.4,1.4,0,0,1-.66-1.07S2.92,41.3.86,41.5a8.1,8.1,0,0,1,.25-5.22A1.65,1.65,0,0,1,0,36.1a17.67,17.67,0,0,0,2.78-3.19,3.22,3.22,0,0,1-1.44-.17s2.74-1.83,3.32-3.44A16.83,16.83,0,0,0,5.41,27.23Z"/></g></g></svg>