<svg xmlns="http://www.w3.org/2000/svg" viewBox="0 0 27.3 29.96"><defs><style>.cls-1{fill:#1a2026;fill-rule:evenodd;}</style></defs><g id="Layer_2" data-name="Layer 2"><g id="Layer_1-2" data-name="Layer 1"><path class="cls-1" d="M1.3,2.1A18,18,0,0,1,3.53.28C4.31-.26,5.4.1,6.18.35c1.63.6,1.88,3,1.24,4.6.36.24.88.06,1.13.48.21.12.28.32.52.33.08.11,0,.27.13.34,0,.5.59.74,1.06.82a2.08,2.08,0,0,1,.53-.49c2.19-.72,4.16,1.25,6,2.11A8.28,8.28,0,0,1,19,10.17a8.38,8.38,0,0,1,2.14,2.49A9.18,9.18,0,0,1,23,15.31c.54.91-.14,1.16.11,1.54a5.82,5.82,0,0,1,.5,1.77,1.87,1.87,0,0,0,.05,1.2,57.55,57.55,0,0,1,2.06,5.42c.58,1.47.38.85,1.31,1.49-.46.19.15.35.17.37a1.74,1.74,0,0,1,.13.54l-.16,0c0,.06,0,.18,0,.09s-.7-.63-.6-.24c.31.78-.58.19-.86,0a.51.51,0,0,1-.47-.06c.06.61.63,1.3.42,2,.06.15.06.54-.13.44s0,.07,0,.13a3.65,3.65,0,0,1-1.22-.44c-.19-.12-.16.2-.21.21a.28.28,0,0,1-.07-.09,1.08,1.08,0,0,0-.62-.71c0,.07.23.91.1.86-.11-.4-.34-.26-.37-.2s0,0,0,0-.05,0-.05,0c-.12-.45-.3-.41-.19.07,0,.18-.18,0-.34,0,0,.21-.14.11-.26.13-.58-.17-.85-.76-1.23-1.12-.37-.56-.75-1.2-1.07-1.78-.15-.26-.23-.59-.56-.59-1.18-.17-1.45-1.47-1.77.52-.05.33-.26.92-.3.72-.16-1-.46.27-.56.56s-.05,0-.14-.11.28-.84-.05-1.07a1.07,1.07,0,0,0-.57.42c-.17.09-.7.22-.46-.14a1.36,1.36,0,0,0,0-.41c0-.12,0-.22-.17-.24-.23-.69-.46.18-.5.42-.2,1.14-1,2.08.81,2,.33,0,.08.93-.05.59.11-.2-.13-.38-.38-.31s-.19.8-.74.64a1.42,1.42,0,0,0-.88.1s-.07-.09,0-.11c-.2,0-.31-.13-.43-.24a.82.82,0,0,0-.57.26,6.42,6.42,0,0,0-1.24,0,.89.89,0,0,0-.64-.06,4.21,4.21,0,0,1-1.46,0c-.42-.16-1.25-.74-1.45,0-.74-.41.13-2,1-1.29a1.84,1.84,0,0,0,.61-.05c.09.05.14.09.26,0a2.15,2.15,0,0,0,1.14.07,3.48,3.48,0,0,0,.69-.21,5.46,5.46,0,0,0,.34-1c.12-1.74.45-1.13-.87-1.72-.32-.45-1.39-4.22-1.55-4.65a6,6,0,0,1-1.25-1C7.46,19.3,7,19.91,6,18.44,4.77,17.29-.15,9.56,3.33,8.63,2.83,7.35,3.24,6,3.18,4.74,4,3.57,1.92,4.13,1.49,4.21.75,4.42.39,4,.75,5c0,.11,0,.24-.11.18L.48,5C-.56,3.72.28,2.75,1.3,2.1ZM13,27.88c.67-.49.65-.93-.1-1.49C12.89,27,12.92,27.38,13,27.88Z"/></g></g></svg>