<svg xmlns="http://www.w3.org/2000/svg" viewBox="0 0 56.62 31"><defs><style>.a{opacity:0.8;}.b,.c{fill:#fff;}.b,.d{fill-rule:evenodd;}.d{fill:#d0021b;}</style></defs><title>Asset 20</title><g class="a"><path class="b" d="M52.48,25.7H45.34L43.7,23.47h5.51s8-2.27,2.3-8c0,0-6.89-8-12.64-8h-4.6V5.3H49.73a1.15,1.15,0,0,0,0-2.3H16.52a1.15,1.15,0,1,0,0,2.3H32V7.45H30.83s-5.74,0-6.89,4.27H15.07A6.31,6.31,0,1,0,15,17.06h9.45l.12.24c1,2,3.13,4.12,7.39,6.17h3.58l1.64,2.23H26.05a1.15,1.15,0,0,0,0,2.3H52.48a1.15,1.15,0,0,0,0-2.3ZM11,17.06h1.41a4.2,4.2,0,0,1-3.12,1.41,4.16,4.16,0,1,1,3.26-6.76H11a2.7,2.7,0,0,0,0,5.34ZM39.2,25.7l-1.64-2.23H41.7l1.64,2.24ZM37.72,12.2a3.47,3.47,0,0,1-.51-1.77.7.7,0,0,1,.51-.72c4-1.72,9.19,3.63,11.49,5.93a2.82,2.82,0,0,1,1,1.62c.07.79-1,.86-1,.86H43.46A13.77,13.77,0,0,1,37.72,12.2Z"/><path class="c" d="M49.73,3a1.15,1.15,0,0,1,0,2.3H34.27V7.45h4.6c5.75,0,12.64,8,12.64,8,5.74,5.75-2.3,8-2.3,8H43.7l1.64,2.23h7.14a1.15,1.15,0,0,1,0,2.3H26.05a1.15,1.15,0,0,1,0-2.3H37.19l-1.64-2.23H32c-4.27-2.05-6.38-4.22-7.39-6.17l-.12-.24H15a6.34,6.34,0,1,1,.06-5.35h8.87c1.14-4.27,6.89-4.27,6.89-4.27H32V5.3H16.52a1.15,1.15,0,1,1,0-2.3h33.2M43.46,18.13h5.75s1.09-.07,1-.86a2.82,2.82,0,0,0-1-1.62c-2-2-6.12-6.27-9.81-6.27a4.22,4.22,0,0,0-1.68.34.7.7,0,0,0-.51.72,3.47,3.47,0,0,0,.51,1.77,13.77,13.77,0,0,0,5.74,5.93m-34.14.34a4.2,4.2,0,0,0,3.12-1.41H11a2.7,2.7,0,0,1,0-5.34h1.54a4.16,4.16,0,1,0-3.26,6.76m34,7.25L41.7,23.47H37.56L39.2,25.7h4.14M49.73,0H16.52a4.15,4.15,0,0,0-3.89,5.6,9.32,9.32,0,1,0-3.32,18,9.23,9.23,0,0,0,7.35-3.57h6.09a14.93,14.93,0,0,0,2.52,2.71A4.15,4.15,0,0,0,26.05,31H52.48a4.15,4.15,0,0,0,2.4-7.53,6.33,6.33,0,0,0,1.5-2.69c.44-1.68.33-4.32-2.67-7.37A38.24,38.24,0,0,0,48.2,8.3h1.53a4.15,4.15,0,0,0,0-8.3ZM16.52,8.3H22.3L22,8.72H16.76l-.33-.41ZM44.2,15.13a9.43,9.43,0,0,1-1.81-1.5,21.85,21.85,0,0,1,1.91,1.5Z"/></g><path class="d" d="M52.48,25.7H45.34L43.7,23.47h5.51s8-2.27,2.3-8c0,0-6.89-8-12.64-8h-4.6V5.3H49.73a1.15,1.15,0,0,0,0-2.3H16.52a1.15,1.15,0,1,0,0,2.3H32V7.45H30.83s-5.74,0-6.89,4.27H15.07A6.31,6.31,0,1,0,15,17.06h9.45l.12.24c1,2,3.13,4.12,7.39,6.17h3.58l1.64,2.23H26.05a1.15,1.15,0,0,0,0,2.3H52.48a1.15,1.15,0,0,0,0-2.3ZM11,17.06h1.41a4.2,4.2,0,0,1-3.12,1.41,4.16,4.16,0,1,1,3.26-6.76H11a2.7,2.7,0,0,0,0,5.34ZM39.2,25.7l-1.64-2.23H41.7l1.64,2.24ZM37.72,12.2a3.47,3.47,0,0,1-.51-1.77.7.7,0,0,1,.51-.72c4-1.72,9.19,3.63,11.49,5.93a2.82,2.82,0,0,1,1,1.62c.07.79-1,.86-1,.86H43.46A13.77,13.77,0,0,1,37.72,12.2Z"/></svg>