<svg xmlns="http://www.w3.org/2000/svg" viewBox="0 0 37.3 28"><defs><style>.cls-1{fill:#1a2026;}</style></defs><g id="Layer_2" data-name="Layer 2"><g id="Layer_1-2" data-name="Layer 1"><path class="cls-1" d="M15.28,24.16c-.29.35-.58.75-.92,1.1a.51.51,0,0,1-.47.07c-.1,0-.18-.23-.2-.36-.12-.82-.21-1.65-.31-2.47a2.56,2.56,0,0,0-.18.93,4.88,4.88,0,0,1-.33,2.27,5,5,0,0,1-.33.47c-.14-.13-.32-.23-.4-.38a7.67,7.67,0,0,1-.42-1c-.2-.55-.37-1.11-.55-1.67-.07.69,0,1.38-.08,2a13.28,13.28,0,0,1-.5,2.14c-.1.36-.39.37-.56.05a3.54,3.54,0,0,1-.39-1c-.28-1.38-.53-2.77-.81-4.25-.07.79-.15,1.47-.18,2.16a7.84,7.84,0,0,1-.86,3.29c-.17.33-.37.63-.91.48V24.11c-.14,0-.19.08-.19.13a7.22,7.22,0,0,1-1.43,3.53c-.09.12-.31.25-.41.22a.52.52,0,0,1-.25-.4,11,11,0,0,1,.12-1.14c.13-.95.27-1.9.43-3A7.2,7.2,0,0,0,4.4,25c-.2,1-1.06,1.24-1.67,1.77a.38.38,0,0,1-.36,0c-.07,0-.12-.22-.09-.31.31-.79.67-1.56,1-2.36.22-.59.35-1.2.52-1.8C2.69,24.24,1.06,25,.24,24.73L2.34,22l-.15-.12c-.52.44-.93,1.1-1.76,1l-.43,0a2.65,2.65,0,0,1,.24-.4c.63-.79,1.34-1.54,1.89-2.38s.72-1.52,1.12-2.26c.62-1.17,1.33-2.29,1.9-3.48s1-2.52,1.55-3.76a3,3,0,0,1,.81-1.13c1-.79,2-1.49,3.11-2.28C9,6.85,7.48,5.88,5.77,6.51a1.32,1.32,0,0,1,1-1.95c.43-.09.84-.24,1.27-.35.82-.22,1.66-.4,2.47-.66A.89.89,0,0,0,11,3,3.51,3.51,0,0,1,13.51.27c1.62-.6,3.2-.08,4.76.38.61.19,1.17.52,1.77.71,1.65.52,3.32,1,5,1.5A8.56,8.56,0,0,1,28.66,4.6a.3.3,0,0,0,.22.08,2.08,2.08,0,0,1,1.66.56c.33.27.73.44,1.07.68,1.44,1,3.38.83,4.7,2.08.15.14.41.15.59.26a2.71,2.71,0,0,1,.4.36l-.1.21-1.65-.4a9.49,9.49,0,0,0-1.18-.24c-.36,0-.73.07-1.09,0A8.66,8.66,0,0,1,32.16,8l.13.2c-.14.24-.28.48-.4.74a5.88,5.88,0,0,0-.3.73c-.05.13-.08.29-.13.42A10.46,10.46,0,0,1,31,11.15a2.6,2.6,0,0,1-.41.53c-.18.2-.48.37-.53.6a3,3,0,0,1-.9,1.93c-.19.15-.22.49-.37.72a3.12,3.12,0,0,1-.52.57c-.29.25-.61.46-.89.72s-.36.52-.61.7-.7.23-.95.46-.75.48-.77,1.13c0,.5,0,1.38-.94,1.48a3.21,3.21,0,0,1,.24,1,2.35,2.35,0,0,1-.45,1.12c-.07.09-.57-.15-.87-.25,0,0-.05.18,0,.26.45.7.17,1.47.22,2.2,0,.17-.21.36-.32.53a1.48,1.48,0,0,1-.4-.27c-.36-.46-.68-.94-1-1.39.09.73.19,1.49.27,2.24.06.48,0,1-.5,1.09-.21,0-.62-.49-.79-.84-.57-1.12-1.07-2.28-1.59-3.42a.79.79,0,0,0,0,.37,26,26,0,0,1,.42,3c0,.62,0,1.41-1,1.71l-1.14-3.52a7.18,7.18,0,0,0,0,.84,1.91,1.91,0,0,1-.69,1.67c-.34.3-.56.29-.68-.17C15.59,25.49,15.44,24.82,15.28,24.16Z"/><path class="cls-1" d="M15.28,24.16c.16.66.31,1.33.48,2,.12.46.34.47.68.17a1.91,1.91,0,0,0,.69-1.67,7.18,7.18,0,0,1,0-.84l1.14,3.52c1.06-.3,1.06-1.09,1-1.71a26,26,0,0,0-.42-3,.79.79,0,0,1,0-.37c.52,1.14,1,2.3,1.59,3.42.17.35.58.88.79.84.46-.08.56-.61.5-1.09-.08-.75-.18-1.51-.27-2.24.33.45.65.93,1,1.39a1.48,1.48,0,0,0,.4.27c.11-.17.33-.36.32-.53-.05-.73.23-1.5-.22-2.2-.05-.08,0-.23,0-.26.3.1.8.34.87.25A2.35,2.35,0,0,0,24.35,21a3.21,3.21,0,0,0-.24-1c.94-.1.91-1,.94-1.48,0-.65.44-.84.77-1.13s.67-.26.95-.46.39-.49.61-.7.6-.47.89-.72a3.12,3.12,0,0,0,.52-.57c.15-.23.18-.57.37-.72a3,3,0,0,0,.9-1.93c.05-.23.35-.4.53-.6a2.6,2.6,0,0,0,.41-.53,10.46,10.46,0,0,0,.46-1.09c.05-.13.08-.29.13-.42a5.88,5.88,0,0,1,.3-.73c.12-.26.26-.5.4-.74L32.16,8a8.66,8.66,0,0,0,1.12.26c.36,0,.73-.07,1.09,0a9.49,9.49,0,0,1,1.18.24l1.65.4.1-.21a2.71,2.71,0,0,0-.4-.36c-.18-.11-.44-.12-.59-.26C35,6.75,33.05,6.9,31.61,5.92c-.34-.24-.74-.41-1.07-.68a2.08,2.08,0,0,0-1.66-.56.3.3,0,0,1-.22-.08A8.56,8.56,0,0,0,25,2.86c-1.64-.53-3.31-1-5-1.5-.6-.19-1.16-.52-1.77-.71-1.56-.46-3.14-1-4.76-.38A3.51,3.51,0,0,0,11,3a.89.89,0,0,1-.5.6C9.65,3.81,8.81,4,8,4.21c-.43.11-.84.26-1.27.35a1.32,1.32,0,0,0-1,2c1.71-.63,3.2.34,4.85.67C9.53,8,8.49,8.67,7.51,9.46a3,3,0,0,0-.81,1.13c-.55,1.24-1,2.54-1.55,3.76s-1.28,2.31-1.9,3.48c-.4.74-.66,1.56-1.12,2.26S.87,21.68.24,22.47a2.65,2.65,0,0,0-.24.4l.43,0c.83.09,1.24-.57,1.76-1l.15.12L.24,24.73c.82.22,2.45-.49,3.51-2.39-.17.6-.3,1.21-.52,1.8-.28.8-.64,1.57-1,2.36,0,.09,0,.28.09.31a.38.38,0,0,0,.36,0C3.34,26.25,4.2,26,4.4,25a7.2,7.2,0,0,1,.75-1.55c-.16,1.09-.3,2-.43,3a11,11,0,0,0-.12,1.14.52.52,0,0,0,.25.4c.1,0,.32-.1.41-.22a7.22,7.22,0,0,0,1.43-3.53s0-.09.19-.13V28c.54.15.74-.15.91-.48a7.84,7.84,0,0,0,.86-3.29c0-.69.11-1.37.18-2.16.28,1.48.53,2.87.81,4.25a3.54,3.54,0,0,0,.39,1c.17.32.46.31.56-.05a13.28,13.28,0,0,0,.5-2.14c.08-.66,0-1.35.08-2,.18.56.35,1.12.55,1.67a7.67,7.67,0,0,0,.42,1c.08.15.26.25.4.38a5,5,0,0,0,.33-.47,4.88,4.88,0,0,0,.33-2.27,2.56,2.56,0,0,1,.18-.93c.1.82.19,1.65.31,2.47,0,.13.1.32.2.36a.51.51,0,0,0,.47-.07C14.7,24.91,15,24.51,15.28,24.16Z"/></g></g></svg>