<svg xmlns="http://www.w3.org/2000/svg" viewBox="0 0 37.3 28"><defs><style>.cls-1{fill:#1a2026;}</style></defs><g id="Layer_2" data-name="Layer 2"><g id="Layer_1-2" data-name="Layer 1"><path class="cls-1" d="M22,24.16c.29.35.58.75.92,1.1a.51.51,0,0,0,.47.07c.1,0,.18-.23.2-.36.12-.82.21-1.65.31-2.47a2.58,2.58,0,0,1,.19.93,4.74,4.74,0,0,0,.32,2.27,5,5,0,0,0,.33.47,2.15,2.15,0,0,0,.41-.38,9.26,9.26,0,0,0,.42-1c.19-.55.36-1.11.54-1.67.07.69,0,1.38.09,2a14.41,14.41,0,0,0,.49,2.14c.1.36.39.37.57.05a3.84,3.84,0,0,0,.39-1c.28-1.38.53-2.77.8-4.25.07.79.15,1.47.18,2.16a7.84,7.84,0,0,0,.86,3.29c.17.33.37.63.92.48V24.11c.14,0,.18.08.18.13A7.32,7.32,0,0,0,32,27.77c.1.12.31.25.41.22a.52.52,0,0,0,.25-.4,7.35,7.35,0,0,0-.12-1.14c-.13-.95-.27-1.9-.42-3A7.7,7.7,0,0,1,32.91,25c.19,1,1.05,1.24,1.66,1.77a.38.38,0,0,0,.36,0A.31.31,0,0,0,35,26.5c-.31-.79-.66-1.56-1-2.36-.21-.59-.35-1.2-.52-1.8,1.06,1.9,2.7,2.61,3.51,2.39L35,22l.14-.12c.53.44.94,1.1,1.76,1l.43,0a3.81,3.81,0,0,0-.23-.4c-.64-.79-1.35-1.54-1.9-2.38s-.72-1.52-1.11-2.26c-.62-1.17-1.34-2.29-1.9-3.48s-1-2.52-1.56-3.76a3,3,0,0,0-.8-1.13c-1-.79-2-1.49-3.12-2.28,1.66-.33,3.14-1.3,4.86-.67a1.33,1.33,0,0,0-1-1.95c-.43-.09-.84-.24-1.26-.35-.83-.22-1.67-.4-2.48-.66a.92.92,0,0,1-.5-.6A3.51,3.51,0,0,0,23.8.27C22.17-.33,20.59.19,19,.65c-.6.19-1.16.52-1.77.71-1.65.52-3.32,1-5,1.5A8.56,8.56,0,0,0,8.64,4.6a.3.3,0,0,1-.22.08,2.08,2.08,0,0,0-1.66.56c-.33.27-.72.44-1.07.68C4.25,6.9,2.31,6.75,1,8c-.15.14-.4.15-.59.26a2.71,2.71,0,0,0-.4.36l.1.21,1.65-.4a9.49,9.49,0,0,1,1.18-.24c.36,0,.73.07,1.09,0A8.66,8.66,0,0,0,5.14,8L5,8.17c.14.24.28.48.41.74s.2.48.29.73.08.29.13.42c.15.37.28.74.46,1.09a2.6,2.6,0,0,0,.41.53c.18.2.48.37.54.6a3,3,0,0,0,.89,1.93c.2.15.22.49.37.72A3.17,3.17,0,0,0,9,15.5c.28.25.6.46.88.72s.36.52.61.7.71.23,1,.46.74.48.77,1.13c0,.5,0,1.38.93,1.48A2.9,2.9,0,0,0,13,21a2.24,2.24,0,0,0,.44,1.12c.07.09.58-.15.88-.25,0,0,0,.18,0,.26-.45.7-.17,1.47-.22,2.2,0,.17.21.36.32.53a1.71,1.71,0,0,0,.41-.27c.35-.46.67-.94,1-1.39-.09.73-.18,1.49-.27,2.24,0,.48,0,1,.5,1.09.22,0,.62-.49.79-.84.57-1.12,1.07-2.28,1.59-3.42a.79.79,0,0,1,0,.37,26,26,0,0,0-.42,3c0,.62,0,1.41,1,1.71l1.14-3.52a7.18,7.18,0,0,1,0,.84,1.89,1.89,0,0,0,.7,1.67c.33.3.55.29.67-.17C21.71,25.49,21.86,24.82,22,24.16Z"/><path class="cls-1" d="M22,24.16c-.16.66-.31,1.33-.48,2-.12.46-.34.47-.67.17a1.89,1.89,0,0,1-.7-1.67,7.18,7.18,0,0,0,0-.84L19,27.33C18,27,18,26.24,18,25.62a26,26,0,0,1,.42-3,.79.79,0,0,0,0-.37c-.52,1.14-1,2.3-1.59,3.42-.17.35-.57.88-.79.84-.46-.08-.55-.61-.5-1.09.09-.75.18-1.51.27-2.24-.33.45-.65.93-1,1.39a1.71,1.71,0,0,1-.41.27c-.11-.17-.33-.36-.32-.53,0-.73-.23-1.5.22-2.2.05-.08,0-.23,0-.26-.3.1-.81.34-.88.25A2.24,2.24,0,0,1,13,21a2.9,2.9,0,0,1,.23-1c-.94-.1-.91-1-.93-1.48,0-.65-.45-.84-.77-1.13s-.68-.26-1-.46-.39-.49-.61-.7-.6-.47-.88-.72a3.17,3.17,0,0,1-.53-.57c-.15-.23-.17-.57-.37-.72a3,3,0,0,1-.89-1.93c-.06-.23-.36-.4-.54-.6a2.6,2.6,0,0,1-.41-.53c-.18-.35-.31-.72-.46-1.09,0-.13-.07-.29-.13-.42s-.18-.5-.29-.73-.27-.5-.41-.74L5.14,8A8.66,8.66,0,0,1,4,8.23c-.36,0-.73-.07-1.09,0a9.49,9.49,0,0,0-1.18.24L.1,8.83,0,8.62a2.71,2.71,0,0,1,.4-.36C.59,8.15.84,8.14,1,8c1.32-1.25,3.26-1.1,4.7-2.08.35-.24.74-.41,1.07-.68a2.08,2.08,0,0,1,1.66-.56.3.3,0,0,0,.22-.08A8.56,8.56,0,0,1,12.3,2.86c1.64-.53,3.31-1,5-1.5.61-.19,1.17-.52,1.77-.71,1.56-.46,3.14-1,4.77-.38A3.51,3.51,0,0,1,26.34,3a.92.92,0,0,0,.5.6c.81.26,1.65.44,2.48.66.42.11.83.26,1.26.35a1.33,1.33,0,0,1,1,2c-1.72-.63-3.2.34-4.86.67,1.09.79,2.13,1.49,3.12,2.28a3,3,0,0,1,.8,1.13c.55,1.24,1,2.54,1.56,3.76s1.28,2.31,1.9,3.48c.39.74.65,1.56,1.11,2.26s1.26,1.59,1.9,2.38a3.81,3.81,0,0,1,.23.4l-.43,0c-.82.09-1.23-.57-1.76-1L35,22l2.09,2.71c-.81.22-2.45-.49-3.51-2.39.17.6.31,1.21.52,1.8.29.8.64,1.57,1,2.36a.31.31,0,0,1-.09.31.38.38,0,0,1-.36,0C34,26.25,33.1,26,32.91,25a7.7,7.7,0,0,0-.75-1.55c.15,1.09.29,2,.42,3a7.35,7.35,0,0,1,.12,1.14.52.52,0,0,1-.25.4c-.1,0-.31-.1-.41-.22a7.32,7.32,0,0,1-1.43-3.53s0-.09-.18-.13V28c-.55.15-.75-.15-.92-.48a7.84,7.84,0,0,1-.86-3.29c0-.69-.11-1.37-.18-2.16-.27,1.48-.52,2.87-.8,4.25a3.84,3.84,0,0,1-.39,1c-.18.32-.47.31-.57-.05a14.41,14.41,0,0,1-.49-2.14c-.08-.66,0-1.35-.09-2-.18.56-.35,1.12-.54,1.67a9.26,9.26,0,0,1-.42,1,2.15,2.15,0,0,1-.41.38,5,5,0,0,1-.33-.47,4.74,4.74,0,0,1-.32-2.27,2.58,2.58,0,0,0-.19-.93c-.1.82-.19,1.65-.31,2.47,0,.13-.1.32-.2.36a.51.51,0,0,1-.47-.07C22.6,24.91,22.31,24.51,22,24.16Z"/></g></g></svg>