<svg xmlns="http://www.w3.org/2000/svg" viewBox="0 0 39 33.19"><defs><style>.cls-1{fill:#1a2026;}</style></defs><g id="Layer_2" data-name="Layer 2"><g id="Layer_1-2" data-name="Layer 1"><path class="cls-1" d="M.28,13.09a5.72,5.72,0,0,1,.85-1.8,2.79,2.79,0,0,1,2-1.12A6.53,6.53,0,0,0,4.25,10a10.62,10.62,0,0,0,1.21-.5c.6-.27,1.19-.58,1.8-.8a2.22,2.22,0,0,1,.85-.08l1,.05c1,.07,2,.15,3,.2s1.93.06,2.9.07a16,16,0,0,0,2.85-.18,4.55,4.55,0,0,0,1.21-.35,6.24,6.24,0,0,1,.76-.28c.39-.12.77-.24,1.17-.34s.79-.16,1.18-.27a5.07,5.07,0,0,0,2-1.24c.53-.47,1.06-.94,1.6-1.39a20.07,20.07,0,0,1,3.26-2.39,8.82,8.82,0,0,1,4.16-1,14.26,14.26,0,0,1,1.6.06,1.26,1.26,0,0,1,.39-.44c.19-.13.39-.23.58-.36a1.24,1.24,0,0,0,.5-.65c.07-.17.26-.14.29,0a2.82,2.82,0,0,1-.15,1c0,.13-.06.25-.1.38a2.38,2.38,0,0,0,.57-.48c0-.08.2-.4.29-.17a1.12,1.12,0,0,1-.11.74A3.21,3.21,0,0,0,36.56,3h0a8.17,8.17,0,0,1,.59,1.39c.22.68.39,1.37.68,2,.2.46.43.91.63,1.37.11.24.2.49.31.73a2.47,2.47,0,0,1,.22.59,2.17,2.17,0,0,1-.33,1.18.81.81,0,0,1-.71.44,1.43,1.43,0,0,1-1-.17h0a1.31,1.31,0,0,1-.65-.06c-.22-.09-.25-.27-.26-.49a1.26,1.26,0,0,0-.4-1,2.52,2.52,0,0,0-.93-.69c-.3-.11-.62-.15-.91-.27a2.57,2.57,0,0,1-.76-.5,3.28,3.28,0,0,1-.58-.71,1.18,1.18,0,0,0-.32.31c-.14.16-.28.33-.41.5l-.64.8A20.3,20.3,0,0,0,29.62,11L29,12.23a5.57,5.57,0,0,0-.53,1.1A6.35,6.35,0,0,0,28.21,15c0,.44,0,.89,0,1.33a3.32,3.32,0,0,1-.33,1.17,24.59,24.59,0,0,1,3.05,2.4c.3.25.6.51.88.78A1.48,1.48,0,0,1,32,21a1.28,1.28,0,0,1,.13.51,3.08,3.08,0,0,1,0,1.35,4.1,4.1,0,0,1-.39.71c-.41.72-.88,1.42-1.24,2.16a9.07,9.07,0,0,0-.32.87,1.11,1.11,0,0,1-.2.44c-.14.15-.41.18-.59.25a2.76,2.76,0,0,0-.71.4,5.35,5.35,0,0,1-.63.53c-.2.12-.42,0-.65.06a5.33,5.33,0,0,1-1,0c-.15,0-.5,0-.58-.18s.09-.38.17-.5a6.34,6.34,0,0,1,.51-.73c.21-.27.61-.87,1-.7a1.05,1.05,0,0,1,.4.41c.05.08.12.2.23.18s.15-.17.17-.26c.05-.34-.11-.86.19-1.12.08-.06.19-.1.27-.16a2.23,2.23,0,0,0,.4-.35,3.8,3.8,0,0,0,.61-.82,3.44,3.44,0,0,0,.38-.93,2,2,0,0,0,0-1c-.09-.26-.47-.33-.71-.4s-.55-.15-.83-.21a18.74,18.74,0,0,1-1.78-.62c-.27-.09-.62-.31-.88-.43-.06.47-.14,1.17-.22,1.64a8.87,8.87,0,0,0-.12,2.3,8.48,8.48,0,0,1,.09,1.23c0,.42-.1.82-.11,1.23a10,10,0,0,0,.31,2.62,5.76,5.76,0,0,0,.38,1.22,3.33,3.33,0,0,0,.52.71,8.44,8.44,0,0,1,.66.91c.09.15.32.45.27.65s-.33.15-.46.16a4.51,4.51,0,0,1-.9,0,4,4,0,0,1-.77-.09.4.4,0,0,1-.32-.19A1.72,1.72,0,0,1,25,32.1c0-.21.18-.28.26-.44a.46.46,0,0,0-.21-.53c-.1-.05-.23,0-.34-.09a.61.61,0,0,1-.33-.53c0-.34,0-.69,0-1s0-.82-.08-1.23,0-.69-.08-1A7.78,7.78,0,0,0,24,26a5.08,5.08,0,0,1-.16-1.5,7.15,7.15,0,0,0-.2-1.72c-.12-.61-.27-1.22-.44-1.82-.07-.28-.17-.54-.24-.83a4.37,4.37,0,0,0-.17-.62c-1.19,0-2.37.15-3.56.07a27.78,27.78,0,0,1-2.85-.37,27.29,27.29,0,0,1-2.95-.66,12.6,12.6,0,0,0-2.18-.53,5.79,5.79,0,0,0-.69,1.69c-.16.61-.19,1.24-.29,1.86s-.27,1.13-.36,1.7A5,5,0,0,0,9.93,25a16.76,16.76,0,0,0,1,3.24,9.47,9.47,0,0,0,1.81,3,6.8,6.8,0,0,1,.84,1c.05.08.14.21.05.29s-.26.05-.35.07l-.44.06c-.3,0-.6,0-.9,0a.9.9,0,0,1-.56-.1,1.69,1.69,0,0,1-.39-.49.48.48,0,0,1,.05-.51.67.67,0,0,0-.19-.77c-.21-.11-.38.16-.58.12-.39-.07-.43-.74-.48-1a9.9,9.9,0,0,0-1.25-3.09c-.25-.42-.53-.83-.81-1.23a1.63,1.63,0,0,1-.27-.43,1.78,1.78,0,0,1-.07-.39c-.09-.83,0-1.68-.16-2.51a1.72,1.72,0,0,0-.1-.39,16,16,0,0,1-1,1.35,20.5,20.5,0,0,0-1.64,2A5.19,5.19,0,0,0,4,27.82c0,.32,0,.64,0,1a8.81,8.81,0,0,0,.11,1.36,3.64,3.64,0,0,0,.53,1.17c.24.34.55.62.78,1a2.73,2.73,0,0,1,.35.73s0,.07,0,.07a5.69,5.69,0,0,1-1.48.11,4.46,4.46,0,0,1-.63,0c-.19,0-.22-.12-.31-.3s-.24-.44-.16-.63a.43.43,0,0,1,.16-.14c.17-.12.16-.27.11-.45-.08-.34-.24-.55-.61-.56-.19,0-.35,0-.41-.23a2.21,2.21,0,0,1,.06-.92c.07-.45.11-.9.14-1.35a21.35,21.35,0,0,0,0-2.4c0-.4-.06-.79-.1-1.18a2.42,2.42,0,0,1,0-.76,5.33,5.33,0,0,1,1-1.64,5.59,5.59,0,0,0,.6-4.2c-.12-.62-.32-1.21-.5-1.82a14.89,14.89,0,0,1-.44-2,6.91,6.91,0,0,1,0-2,8.74,8.74,0,0,1,.17-.89c0-.14.15-.45.09-.47s-.07,0-.09.07a1.18,1.18,0,0,0-.17.22,3.85,3.85,0,0,0-.34.71,6.6,6.6,0,0,0-.36,2.15,25.7,25.7,0,0,0,.73,4.25A8.59,8.59,0,0,1,3,22.17c-.11.4-.23.8-.37,1.19a.06.06,0,1,1-.12,0,4.16,4.16,0,0,0,0-1.27c0-.08,0-.17,0-.26a5.22,5.22,0,0,1-.27,1.56c-.14.44-.32.86-.49,1.28a2.56,2.56,0,0,0-.23,1.44.06.06,0,1,1-.12,0,3.74,3.74,0,0,1-.16-1.73,8.37,8.37,0,0,0,0-1.66,1.6,1.6,0,0,1-.35.6.07.07,0,0,1-.11,0,11.12,11.12,0,0,0-.37-3.44,12.29,12.29,0,0,1-.23-1.21c0-.32,0-.63-.07-.95,0-.74,0-1.47-.06-2.21A7.65,7.65,0,0,1,.28,13.09Z"/></g></g></svg>