<svg xmlns="http://www.w3.org/2000/svg" width="21.8" height="30" viewBox="0 0 21.8 30">
  <title>subject-hot_air_balloon</title>
  <g id="Layer_2" data-name="Layer 2">
    <g id="Layer_1-2" data-name="Layer 1">
      <path d="M18.1,2.7A10.6,10.6,0,0,0,13.8.4c1.7,2.5,2.5,7.2,2.5,11.7A18.2,18.2,0,0,1,14.1,20h-.8a22.7,22.7,0,0,0,1.5-7.9C14.8,5.2,12.7,0,10.9,0S7,5.2,7,12.1A22.7,22.7,0,0,0,8.5,20H7.7a18.2,18.2,0,0,1-2.2-7.9C5.5,7.6,6.3,2.9,8,.4A10.6,10.6,0,0,0,3.7,2.7,11,11,0,0,0,.5,14.3a10.7,10.7,0,0,0,3.7,5.1l1.2.9a13.5,13.5,0,0,1,1.9,2.8,8.4,8.4,0,0,1,1.1,3.4H7.9c-.1.2-.1.3,0,.4l.8,2.7a.5.5,0,0,0,.5.3h3.5c.2,0,.4-.1.4-.3L14,27a.8.8,0,0,0-.1-.4c0-.1-.2-.1-.3-.1h-.2a10.8,10.8,0,0,1,1.1-3.4,11.3,11.3,0,0,1,1.9-2.8l1.2-.9a11.9,11.9,0,0,0,3.7-5.2A10.9,10.9,0,0,0,18.1,2.7ZM9.4,26.5,8.3,23.1h2.2v3.4Zm3,0h-1V23.1h2.1Z" fill="#1a2026"/>
    </g>
  </g>
</svg>
