<svg xmlns="http://www.w3.org/2000/svg" viewBox="0 0 31.72 42"><defs><style>.cls-1{fill:#1a2026;}</style></defs><g id="Layer_2" data-name="Layer 2"><g id="Layer_1-2" data-name="Layer 1"><path class="cls-1" d="M14.3,0c.19,0,.4.37.4.37a2.62,2.62,0,0,1,.91-.4A.42.42,0,0,1,16,.3s1.16-.41,1.26-.22a.94.94,0,0,1,.12.38s.92-.21,1,0a1,1,0,0,1,0,.48s.77.06.78.19a2.9,2.9,0,0,0,.08.37s.88.22.82.38a1.85,1.85,0,0,0-.07.45,2.74,2.74,0,0,1,.34,1,1.5,1.5,0,0,1-.24,1,1,1,0,0,1-.31.21c.12-.23,0-.51-.13-1-.4-1.32-1.53-1.37-2.69-1.63a7.92,7.92,0,0,0-5.55,1A8.37,8.37,0,0,0,7.28,10.4l.22.1c.37-.69.69-1.68.92-1.93a.41.41,0,0,1,.32-.16c.37,0,.69.63.71,1a4.6,4.6,0,0,1-.53,2h0a2,2,0,0,1,.29.36A17.23,17.23,0,0,1,10.76,15a10.29,10.29,0,0,0,.82,1.81,1.16,1.16,0,0,0,.16.21h0a12.39,12.39,0,0,0,7.32,3.08,22.73,22.73,0,0,1,6,1.64,8.57,8.57,0,0,1,2.14,1.75c.57,1-.15,1.2-.15,1.2A6.56,6.56,0,0,0,27.25,26c.14.44,1.37,4.5,1.55,5.59a2.38,2.38,0,0,0,.58,1.58,29.64,29.64,0,0,1,2.34,3.11c0,.35-.2,3.49-.18,3.91a1,1,0,0,1-.37.88c-.12.08-.19.43-.24.72l-1.87.1,0-.62c.09-.45.91-1.07.94-1.56a6.08,6.08,0,0,0,0-2.42,30,30,0,0,0-2.16-3.23,11.51,11.51,0,0,1-4.3-3.52l-.18-.05s.75,3.38,1,4.14-.05.93-.11,1.38-.36,2.89-.36,3.51.25,1.9-.14,2-.25.24-.25.42L21.83,42l0-.52c.25-.57.83-1.56.85-1.65s-.45-3.52-.46-3.67a2.34,2.34,0,0,0-.51-1.36,46.31,46.31,0,0,1-2.21-4.65l-4-.23a4.72,4.72,0,0,0-.43,1,14.13,14.13,0,0,0-.38,2.66c0,.39.28,2.88.21,3.59A8.59,8.59,0,0,0,15,40.59c.14.47-.29.75-.45,1.09l-1.8.09V41.7c0-.15.06-.35.09-.58.06-.45.5-.56.54-1.1s-.06-1.62,0-1.84c.09-.46.07-.37-.15-.77a4.6,4.6,0,0,1-.07-2.4,29.55,29.55,0,0,0-.48-5l-.94,4.63c-.15.69.31,5.14.15,5.51s-.49.32-.67.45-.14.54-.2.9l-2.09.1,0-.57c0-.13,0-.26,0-.37,0-.42,1.19-1.17,1.19-1.17a11.87,11.87,0,0,0,.38-1.85c0-.12-.06-.22-.36-1.24A7,7,0,0,1,10,34c0-1.93-.06-5.57-.15-5.74l-.38-.43a24.39,24.39,0,0,1-1.4-3.52,13,13,0,0,0-1-1.15,3.35,3.35,0,0,1-.56-1h0L4.61,16.81s-.85,1.32-1.49,1.1c-.16.16-.32.52-.38.37A2.53,2.53,0,0,1,2.53,17s-1,.45-1.41.28-.38-.49-.38-.49-.68-.16-.73-.51.08-.39.08-.39-.27-.24.48-1.24,1.84-2.23,2-2.94c.05-.29.1-.57.13-.8s.09-.59.09-.59l.12-.1a1.71,1.71,0,0,1-.24-.92,1.22,1.22,0,0,1,.2-.49s-.09-1.14.07-1.15h.16s0-1.12.14-1.13h.16s.12-.7.25-.78.12-.1.12-.1.12-.71.28-.78a1.1,1.1,0,0,1,.35-.08s.17-1,.33-1l.41,0s.38-.82.57-.79A1.57,1.57,0,0,0,6,3s.38-.75.67-.7.36.14.36.14.73-.65.9-.5.2.15.2.15a1.91,1.91,0,0,1,.79-.4H9a.67.67,0,0,1,.15.06,1,1,0,0,0-.58.55c0,.14-.14.07-.23.1a1.1,1.1,0,0,0-.83.92.68.68,0,0,0-.42.06A2.51,2.51,0,0,0,6.3,4.75c0,.11-.1.09-.17.11-.46.17-.61.7-.69,1.14a1.09,1.09,0,0,0-.53,1.21,1.15,1.15,0,0,0-.4,1c.07.16-.16.19-.21.32a2.49,2.49,0,0,0,0,1.38,3.29,3.29,0,0,1,.43-.09,2.37,2.37,0,0,1,0-1A.63.63,0,0,1,5,8.6s-.11-.8.11-1a1.11,1.11,0,0,1,.31-.2s-.16-.6,0-.84a.73.73,0,0,1,.4-.27s.18-1,.4-1a1.9,1.9,0,0,0,.41-.15s.4-1.43.66-1.44a1.76,1.76,0,0,1,.51.07s.18-.93.5-1a1.3,1.3,0,0,1,.46,0s.31-.69.5-.7a.6.6,0,0,1,.35.11s.75-.9.91-.9a1.11,1.11,0,0,1,.46.2s.26-.59.57-.7a.46.46,0,0,1,.52.16,2.14,2.14,0,0,1,.68-.55.91.91,0,0,1,.62.16,5.63,5.63,0,0,1,.9-.55h0Z"/></g></g></svg>