<svg xmlns="http://www.w3.org/2000/svg" viewBox="0 0 31.72 42"><defs><style>.cls-1{fill:#1a2026;}</style></defs><g id="Layer_2" data-name="Layer 2"><g id="Layer_1-2" data-name="Layer 1"><path class="cls-1" d="M17.42,0c-.19,0-.4.37-.4.37a2.62,2.62,0,0,0-.91-.4.42.42,0,0,0-.34.3S14.61-.11,14.51.08a.94.94,0,0,0-.12.38s-.91-.21-1,0a1,1,0,0,0,0,.48s-.77.06-.78.19a1.79,1.79,0,0,1-.08.37s-.88.22-.82.38a1.85,1.85,0,0,1,.07.45,2.74,2.74,0,0,0-.34,1,1.5,1.5,0,0,0,.24,1A1.18,1.18,0,0,0,12,4.5c-.12-.23,0-.51.13-1,.4-1.32,1.53-1.37,2.69-1.63a7.92,7.92,0,0,1,5.55,1,8.37,8.37,0,0,1,4.06,7.53l-.22.1c-.37-.69-.69-1.68-.92-1.93A.4.4,0,0,0,23,8.41c-.37,0-.69.63-.71,1a4.46,4.46,0,0,0,.54,2h0a2,2,0,0,0-.29.36A17.23,17.23,0,0,0,21,15a9.61,9.61,0,0,1-.82,1.81A.83.83,0,0,1,20,17h0a12.39,12.39,0,0,1-7.32,3.08,22.86,22.86,0,0,0-6,1.64,8.57,8.57,0,0,0-2.14,1.75c-.57,1,.15,1.2.15,1.2A5.89,5.89,0,0,1,4.47,26c-.14.44-1.37,4.5-1.55,5.59a2.38,2.38,0,0,1-.58,1.58A29.64,29.64,0,0,0,0,36.28c0,.35.21,3.49.18,3.91a1,1,0,0,0,.37.88c.12.08.19.43.24.72l1.87.1,0-.62c-.09-.45-.91-1.07-.94-1.56a6.28,6.28,0,0,1,0-2.42,30,30,0,0,1,2.16-3.23,11.51,11.51,0,0,0,4.3-3.52l.18-.05s-.75,3.38-1,4.14.05.93.12,1.38.35,2.89.35,3.51-.24,1.9.14,2,.25.24.25.42L9.89,42l0-.52c-.25-.57-.83-1.56-.85-1.65s.45-3.52.46-3.67A2.34,2.34,0,0,1,10,34.8a46.31,46.31,0,0,0,2.21-4.65l4-.23a4.72,4.72,0,0,1,.43,1A14.13,14.13,0,0,1,17,33.62c0,.39-.28,2.88-.21,3.59a8.41,8.41,0,0,1-.05,3.38c-.14.47.29.75.45,1.09l1.8.09V41.7c0-.15-.06-.35-.09-.58-.06-.45-.5-.56-.54-1.1s.06-1.62,0-1.84c-.09-.46-.07-.37.15-.77A4.6,4.6,0,0,0,18.6,35a29.55,29.55,0,0,1,.48-5s.8,3.94,1,4.63-.32,5.14-.16,5.51.49.32.67.45.14.54.2.9l2.09.1,0-.57c0-.13,0-.26,0-.37,0-.42-1.19-1.17-1.19-1.17a11.87,11.87,0,0,1-.38-1.85c0-.12.06-.22.36-1.24A7,7,0,0,0,21.74,34c0-1.93.06-5.57.15-5.74l.38-.43a24.39,24.39,0,0,0,1.4-3.52,13,13,0,0,1,.95-1.15,3.14,3.14,0,0,0,.56-1h0l1.91-5.33s.85,1.32,1.49,1.1c.16.16.32.52.39.37a2.49,2.49,0,0,0,.2-1.32s1,.45,1.41.28.38-.49.38-.49.68-.16.73-.51-.08-.39-.08-.39.27-.24-.48-1.24-1.84-2.23-2-2.94c-.05-.29-.09-.57-.13-.8s-.09-.59-.09-.59l-.12-.1a1.71,1.71,0,0,0,.24-.92,1.22,1.22,0,0,0-.2-.49s.09-1.14-.07-1.15h-.16s0-1.12-.14-1.13h-.16s-.12-.7-.24-.78-.13-.1-.13-.1-.12-.71-.28-.78a1.07,1.07,0,0,0-.34-.08s-.18-1-.34-1l-.41,0s-.38-.82-.57-.79a1.59,1.59,0,0,1-.29,0s-.38-.75-.67-.7-.36.14-.36.14-.73-.65-.9-.5-.2.15-.2.15a1.91,1.91,0,0,0-.79-.4h-.09a.45.45,0,0,0-.14.06,1,1,0,0,1,.57.55c0,.14.14.07.23.1a1.09,1.09,0,0,1,.83.92.68.68,0,0,1,.42.06,2.59,2.59,0,0,1,.77,1.41c0,.11.09.09.16.11.46.17.61.7.69,1.14a1.09,1.09,0,0,1,.53,1.21,1.13,1.13,0,0,1,.4,1c-.07.16.16.19.21.32a2.49,2.49,0,0,1,0,1.38A3.29,3.29,0,0,0,27,9.87a2.37,2.37,0,0,0,0-1,.63.63,0,0,0-.31-.24s.11-.8-.11-1a1.11,1.11,0,0,0-.31-.2s.16-.6,0-.84a.73.73,0,0,0-.4-.27s-.17-1-.4-1a1.9,1.9,0,0,1-.41-.15s-.4-1.43-.66-1.44a1.76,1.76,0,0,0-.51.07s-.18-.93-.5-1a1.3,1.3,0,0,0-.46,0s-.3-.69-.5-.7a.6.6,0,0,0-.35.11s-.75-.9-.91-.9a1.11,1.11,0,0,0-.46.2s-.26-.59-.57-.7a.46.46,0,0,0-.52.16A2.14,2.14,0,0,0,19,.43a.91.91,0,0,0-.62.16,5.63,5.63,0,0,0-.9-.55h0Z"/></g></g></svg>