<svg xmlns="http://www.w3.org/2000/svg" viewBox="0 0 33.3 40"><path d="M0,5H.1l.7-.2L.2,6.2H.7c-.1.5-.4,1-.5,1.5h0l.7-.4A2.5,2.5,0,0,0,.7,9h0l.4-.4c0,.6.1,1.2.1,1.8h.1L2,9.9a.7.7,0,0,0,.3.6c.3.2.6.1.9.1l1.2-.3a2.1,2.1,0,0,1,1.1,0,2.7,2.7,0,0,0,.4,3,1,1,0,0,0-.5.4,4.5,4.5,0,0,0-1.2,2.6c-.1.6-.1,1.2-.2,1.8a10.4,10.4,0,0,1-.6,1.6l-1,1.4a10.1,10.1,0,0,0-.7,1.5,7,7,0,0,0-.5,3.2,8.6,8.6,0,0,0,2.1,5.6,9.2,9.2,0,0,0,2.5,1.9,7.1,7.1,0,0,1,1.4,1l1.2,1.1a3.3,3.3,0,0,0,1.3.7,2.6,2.6,0,0,0,1.5-.1,3.6,3.6,0,0,0,1.2-.8,2.6,2.6,0,0,0,.7-1.1,13.4,13.4,0,0,0,5.6.5l-1.5,4.9h.1a3.2,3.2,0,0,1,1.7.1l1.7.3h.1c.3-1.8.5-3.5.7-5.3a3.5,3.5,0,0,0,1.1.3,1.5,1.5,0,0,0,.9-.2,1.4,1.4,0,0,0,.8-.9c.1-1-1.1-1.1-1.8-1.3l1.1-.9a2.3,2.3,0,0,0,.9-.8.7.7,0,0,0,0-.9,1.9,1.9,0,0,0-1.9-.5l.5-1.8,2.1-6.6a2.3,2.3,0,0,0,1.4-1.5,2.9,2.9,0,0,0-.3-2.2,8.8,8.8,0,0,1,.5-1.5A24.8,24.8,0,0,1,29,11.2a1.6,1.6,0,0,0,1.4-1.1A1.1,1.1,0,0,0,30.5,9a.7.7,0,0,0-.5-.6l.6-1.3a21.3,21.3,0,0,1,2.7-4.6h0l-1.1-.5A3.1,3.1,0,0,1,31.1,1H31a13,13,0,0,1-.8,1.7L27.4,8.3a3.2,3.2,0,0,0-1.8,3.2l-2,.6-1.8.6-1.7.5a1.4,1.4,0,0,1-.9,0l-.6-.3a2.1,2.1,0,0,1-.8-1.1,3.1,3.1,0,0,0-.1-3.1h1.4c.2.1.4.1.5-.1l.2-.3v.4H20a3.1,3.1,0,0,0,1.1-2l.4.4h0a1.9,1.9,0,0,0,.3-1,1.9,1.9,0,0,0-.2-.8l.4.2h0c-.1-.8-.3-1.4-.4-2.2l.6.6h.1a2.5,2.5,0,0,0-.8-1.8h.6A4.7,4.7,0,0,0,20.8.9,4,4,0,0,0,17.5.1a5.3,5.3,0,0,0-3.1,1.7,9.4,9.4,0,0,0-5.5.6A6.5,6.5,0,0,0,6.7,1.3a5.2,5.2,0,0,0-4.2.4A5.7,5.7,0,0,0,0,4.9H0ZM21.7,18.4a4.2,4.2,0,0,1-1.2.4,4,4,0,0,1-2.6-.8l1.4-.7A25,25,0,0,1,24.6,15a15.4,15.4,0,0,1-.8,1.9,1.1,1.1,0,0,0-1.2.4l-.3.6ZM17,23.1a39.7,39.7,0,0,0,4.9-1.5c-.6,1.6-1.1,3.3-1.6,5a4.6,4.6,0,0,0-1.4-.7l-1.6-.4A9.9,9.9,0,0,0,17,23.1ZM8.1,35h0l.3.2-.3-.2h0Z"/><path d="M21.2,36.2Z"/></svg>
