<svg xmlns="http://www.w3.org/2000/svg" viewBox="0 0 33.3 40"><path d="M33.3,4.9h0a5.7,5.7,0,0,0-2.5-3.2,5.2,5.2,0,0,0-4.2-.4,5.3,5.3,0,0,0-2.1,1.1,9.8,9.8,0,0,0-5.6-.6A5.3,5.3,0,0,0,15.8.1a4,4,0,0,0-3.3.8,6.4,6.4,0,0,0-1.3,1.5h.6A2.5,2.5,0,0,0,11,4.2h.1a1.7,1.7,0,0,0,.6-.6c-.1.8-.3,1.4-.4,2.2h.1l.3-.2a1.9,1.9,0,0,0-.2.8,3.8,3.8,0,0,0,.3,1h.1c.1-.1.2-.3.4-.4a2.6,2.6,0,0,0,1,2h.1V8.5l.2.3c.2.2.4.2.5.1h1.5a2.9,2.9,0,0,0-.2,3.1,2.6,2.6,0,0,1-.7,1.1,1.1,1.1,0,0,1-.7.3,1.4,1.4,0,0,1-.9,0l-1.7-.5-1.7-.6-2-.6A3.4,3.4,0,0,0,5.9,8.3L3.1,2.7,2.3,1H2.2a2.4,2.4,0,0,1-1.1.9L0,2.4H0A21.3,21.3,0,0,1,2.7,7.1l.6,1.3a.7.7,0,0,0-.5.6,1.4,1.4,0,0,0,.1,1.1,1.6,1.6,0,0,0,1.5,1.1,49.6,49.6,0,0,1,2.2,4.7c.1.5.3,1,.4,1.5a2.8,2.8,0,0,0-.2,2.2,2.2,2.2,0,0,0,1.3,1.5l2.1,6.6.5,1.8a2,2,0,0,0-1.9.5.7.7,0,0,0,0,.9,2.3,2.3,0,0,0,.9.8l1.1.9c-.7.2-1.9.3-1.8,1.3a1.4,1.4,0,0,0,.8.9,1.6,1.6,0,0,0,1,.2,3.8,3.8,0,0,0,1-.3c.2,1.8.5,3.5.7,5.3h.1l1.7-.3a3.7,3.7,0,0,1,1.8-.1h0s.1-.1,0-.1l-1.5-4.9a13.2,13.2,0,0,0,5.6-.5,2.6,2.6,0,0,0,.7,1.1l1.2.8a2.6,2.6,0,0,0,1.5.1,3.7,3.7,0,0,0,1.4-.7,11.4,11.4,0,0,1,1.1-1.1,7.1,7.1,0,0,1,1.4-1A7.9,7.9,0,0,0,30,31.4a9.3,9.3,0,0,0,2.2-5.6,8.7,8.7,0,0,0-.6-3.2,10.1,10.1,0,0,0-.7-1.5L30,19.7a5.2,5.2,0,0,1-.6-1.6,11.3,11.3,0,0,1-.3-1.8,3.6,3.6,0,0,0-1.2-2.6,1,1,0,0,0-.5-.4,2.7,2.7,0,0,0,.4-3,2,2,0,0,1,1.1,0l1.2.3c.3,0,.6.1.9-.1a.7.7,0,0,0,.3-.6l.7.5h.1c0-.6.1-1.2.1-1.8l.4.4h.1a2.6,2.6,0,0,0-.3-1.7l.7.4s.1,0,0-.1a8.8,8.8,0,0,0-.5-1.5h.5c-.1-.5-.4-.9-.5-1.4l.7.2h0Zm-22.2,13-.4-.6a1.1,1.1,0,0,0-1.2-.4c-.3-.6-.5-1.3-.8-1.9A25,25,0,0,1,14,17.3l1.4.7a3.8,3.8,0,0,1-2.5.8l-1.3-.4C11.4,18.2,11.2,18.1,11.1,17.9ZM16,25.5l-1.5.4a3.7,3.7,0,0,0-1.4.7c-.6-1.7-1.1-3.4-1.7-5a39.7,39.7,0,0,0,4.9,1.5A9.9,9.9,0,0,0,16,25.5ZM25.2,35h0l-.3.2.3-.2Z"/><path d="M12.1,36.2Z"/></svg>
