<svg xmlns="http://www.w3.org/2000/svg" viewBox="0 0 39 34.94"><defs><style>.cls-1{fill:#1a2026;}</style></defs><g id="Layer_2" data-name="Layer 2"><g id="Layer_1-2" data-name="Layer 1"><path class="cls-1" d="M32,0a4.32,4.32,0,0,0-.55,1.68,8.17,8.17,0,0,0-.09,1.48c0,.09,0,.21,0,.26.28.29.27.7.45,1,0,0,.05.11.08.16.11.24,0,.39-.23.42h-.06a.49.49,0,0,0-.64.33s-.05.1-.07.1c-.32,0-.43.37-.73.38a.25.25,0,0,0-.16.08c-.1.1-.16.26-.35.12,0,0-.08,0-.1.06a2.67,2.67,0,0,1-.38.37.35.35,0,0,0-.12.25c0,.19-.07.26-.27.28a.42.42,0,0,0-.42.31.46.46,0,0,1-.27.26,8.85,8.85,0,0,0-.84.5,6.74,6.74,0,0,1-3.57,1.22,4.59,4.59,0,0,0-2.07.66,1.85,1.85,0,0,1-.59.19c-.7.11-1.39.23-2.08.37a12.84,12.84,0,0,1-1.86.15c-.24,0-.48,0-.72,0a4.92,4.92,0,0,1-1.53-.11c-1.53-.28-3.05-.63-4.55-1A14.6,14.6,0,0,0,8.61,9.2a4.86,4.86,0,0,0-2.72.21,9.73,9.73,0,0,0-2.63,1.47,7.35,7.35,0,0,0-1,1.07,3.26,3.26,0,0,0-.63,1.39c-.09.42-.22.82-.28,1.24a1.47,1.47,0,0,0,0,.36,9.66,9.66,0,0,1,0,1.07,3.19,3.19,0,0,0,.13,1.26,6.12,6.12,0,0,1,.11,1.86.47.47,0,0,1-.06.2,2.46,2.46,0,0,0-.16.75,4.2,4.2,0,0,1-.13.54A1.72,1.72,0,0,1,1,21a3.49,3.49,0,0,1-.37.71A4.14,4.14,0,0,0,.12,23c0,.11-.14.28-.12.39s.2,0,.22,0c.32.06.63.28,1,.06a.17.17,0,0,1,.12,0c.22.1.28,0,.34-.22a7.33,7.33,0,0,0,.51-1.63,6.13,6.13,0,0,0,0-1.42,4.6,4.6,0,0,1,0-.83,6.54,6.54,0,0,0,0-1.25,6.26,6.26,0,0,1-.06-1.3,5,5,0,0,0,0-.77c0-.09,0-.19,0-.34.21.27.29.54.46.75a7.38,7.38,0,0,1,.46.72c.34.54.43.51.55,1,0,0,.18.49.19.5a7,7,0,0,1,.54,1.79,2.92,2.92,0,0,1,0,1.41,11.65,11.65,0,0,1-.39,1.4,4,4,0,0,1-.51,1,1.1,1.1,0,0,0-.16.93,15,15,0,0,1,.32,1.48c.13.89.24,1.79.31,2.69s.08,1.84.14,2.76a.32.32,0,0,0,.16.31,3.06,3.06,0,0,1,.66.77.27.27,0,0,1,0,.2,5.67,5.67,0,0,0,0,.71.47.47,0,0,0,.26.43,5.31,5.31,0,0,0,.64.3,1.63,1.63,0,0,0,1.19-.05,4,4,0,0,1,.51-.24c.17,0,.23-.17.17-.38s0-.19.11-.25.3-.15.29-.27-.23-.15-.34-.24-.18,0-.26-.11a3.72,3.72,0,0,1-.91-1,4,4,0,0,1-.19-.78c-.2-.77-.39-1.55-.52-2.34S5.54,27.76,5.47,27a4,4,0,0,1,.06-.91.88.88,0,0,1,.21-.46,2.46,2.46,0,0,0,.38-.57.54.54,0,0,1,.16-.21C6.87,24.3,7.43,23.66,8,23a1.76,1.76,0,0,0,.24-.3,10.83,10.83,0,0,0,1.33-2.31,1.59,1.59,0,0,1,.08-.18c.1,0,.14,0,.18.08a5.59,5.59,0,0,1,.57.62,5.23,5.23,0,0,0,.82.81,2.36,2.36,0,0,0,.48.32,3.51,3.51,0,0,1,.34.18,3.28,3.28,0,0,0,1.37.43,25.15,25.15,0,0,0,3.57.39c.58,0,1.15,0,1.73,0a.69.69,0,0,0,.2,0c.5-.14,1-.19,1.52-.29a2,2,0,0,0,.62-.27,12.73,12.73,0,0,0,1.71-1.19.31.31,0,0,1,.09-.07c.16-.11.21-.09.22.1,0,.4,0,.81,0,1.22,0,.69,0,1.38-.05,2.08,0,.54,0,1.09-.05,1.63a5.67,5.67,0,0,0,.1,1.09A9.32,9.32,0,0,1,23,30.12a4.9,4.9,0,0,0-.08.76,1.68,1.68,0,0,1-.07.59,1.3,1.3,0,0,0,0,.62c.05.22.1.42.39.44s.2.17.26.29,0,.07,0,.1a.93.93,0,0,0-.21.51.42.42,0,0,0,.28.41,3,3,0,0,0,1.49.1c.29-.24.62-.13.94-.12a1,1,0,0,0,.62-.17.18.18,0,0,0,.06-.26,1,1,0,0,0-.1-.17,5.62,5.62,0,0,1-.43-.65,1,1,0,0,0-.17-.24,1.48,1.48,0,0,1-.46-1.18c0-.48,0-1,0-1.46V29.6A12.49,12.49,0,0,1,25.73,27c.1-.61.15-1.22.22-1.83a6.51,6.51,0,0,1,.4-1.85c.09-.22.12-.46.19-.69a14.19,14.19,0,0,1,.74-2,3.27,3.27,0,0,1,.8-1.16,5.54,5.54,0,0,0,1.14-1.65,6.07,6.07,0,0,0,.5-1.43,1.63,1.63,0,0,1,.43-.74c.81-.84,1.64-1.67,2.46-2.5l.07,0a2.25,2.25,0,0,1,.08.24,2,2,0,0,0,.31.67,1,1,0,0,1,.2.61,3.56,3.56,0,0,0,.23,1.37.79.79,0,0,0,.54.5,3.45,3.45,0,0,0,.4.11.93.93,0,0,0,1.2-.92.47.47,0,0,1,.17-.35A1.33,1.33,0,0,0,36.08,14l-.17-.41A1.13,1.13,0,0,1,36,12.8a7.71,7.71,0,0,0,.18-1,8.81,8.81,0,0,1,.24-1,3,3,0,0,0,.19-1.1c0-.3,0-.6,0-.89a.28.28,0,0,1,.11-.27.81.81,0,0,0,.23-.89,1.69,1.69,0,0,0-.33-.72.7.7,0,0,1-.06-.71.94.94,0,0,0,0-.55l0-.19.21-.11a7.75,7.75,0,0,0,.79-.46,2.48,2.48,0,0,0,.63-.7A6.76,6.76,0,0,0,39,1.45,2.79,2.79,0,0,0,39,1c0-.16-.11-.22-.25-.18a1.44,1.44,0,0,0-.4.18,21.07,21.07,0,0,0-1.85,1.68,2.88,2.88,0,0,0-.47.75,7.22,7.22,0,0,1-.44.88l-.12.16-.15-.08-.16-.08a2,2,0,0,0-1-.34.69.69,0,0,0-.19,0s0-.15-.07-.19a1,1,0,0,1-.08-.34,3.48,3.48,0,0,0-.48-1.7C33,1.26,32.82.8,32.53.4c-.11-.16-.29-.24-.4-.4Z"/></g></g></svg>