<svg xmlns="http://www.w3.org/2000/svg" viewBox="0 0 31.5 34.53"><defs><style>.cls-1{fill:#1a2026;}</style></defs><g id="Layer_2" data-name="Layer 2"><g id="Layer_1-2" data-name="Layer 1"><path class="cls-1" d="M17.92,18.8c.46-.6,1.26-.68,1.06-1.47a4.16,4.16,0,0,1-3.05-1.28c-.45-.56-1.12-1-1.53-1.52-1.21-1.67-2.33-3.4-3.5-5.09-.7-1-1.46-2-2.16-3C7.6,4.82,6.5,3.17,5.37,1.54c-.25-.36-.56-.68-.84-1L4.4.61l.95,1.84-.12.13L2.76,0,2.61.13,4.82,2.88,4.74,3c-.5-.36-1-.74-1.49-1.09s-1.07-.68-1.61-1l-.13.17L3.34,2.67l0,.07L.7,1.61.6,1.8l2,1.39L.09,2.32,0,2.53,2.88,4.22l0,.06L.26,3.61l-.08.2L2.41,4.93l0,.12L.23,4.66l-.07.2,1.8,1L1.2,6,2.42,7.6c-.26.41.2.63.42.93s.45.35-.06.51l.61.5-.55.26,1.3,1.62L4,11.63,4.62,13h0l1.28,1.89L6,14.86l-.15.48c.93.23.94.24.61,1.2l1,.5.13-.14-.19.67,1.2.95.67-.3.12.21a1.93,1.93,0,0,1-.55.32c-.67.13-1.34.21-2.19.34l.65.51-.88.73.84.4-.52.84c.47.11.71.33.4.82,0,0,.18.28.31.35s.25,0,.42-.1c-.06.33-.21.65-.12.88s.4.38.72.67l1.1-.43.2.76.95-.47.34.55.56-.44.43.46c.43-.21.19-1.09,1-.84l.22,1,.49-.09.41.94.46,0-.08.14c.3.17.6.32.89.51s.33.33.51.47.51.34.86.58c.14.12.36.44.63.49.56.11.66.69,1.21.91l.32-.14a.46.46,0,0,1,.12.09c.13.34.63.68,1,1s.43.46.81.49c.65.05,1.09.55,1.61.81s.6.61.92.92l.38-.27.64,1.16.17,0,.22-1.12.95,2.38.26-.06-.1-1.77.13,0,1,2.47.18,0L27,32.36l.09,0,1.1,2.06.21-.08-.53-2.69,1.77,2.63.22-.11-1.11-2.87,1.8,2,.28-.24-2.08-3.13c.92.61,1.57,1.62,2.76,1.87l-2.39-2.44.1-.11L31,30.36l.12-.16a13.17,13.17,0,0,0-1.28-1.09,30.78,30.78,0,0,1-5.53-4.92,21.92,21.92,0,0,0-1.8-1.32C21,21.54,19.45,20.17,17.92,18.8Z"/></g></g></svg>