<svg xmlns="http://www.w3.org/2000/svg" viewBox="0 0 31.5 34.53"><defs><style>.cls-1{fill:#1a2026;}</style></defs><g id="Layer_2" data-name="Layer 2"><g id="Layer_1-2" data-name="Layer 1"><path class="cls-1" d="M13.58,18.8c-.45-.6-1.26-.68-1.06-1.47a4.16,4.16,0,0,0,3.05-1.28c.45-.56,1.12-1,1.53-1.52,1.21-1.67,2.33-3.4,3.5-5.09.7-1,1.46-2,2.16-3C23.9,4.82,25,3.17,26.13,1.54c.25-.36.56-.68.84-1l.14.09-1,1.84.13.13L28.75,0l.14.13L26.68,2.88l.09.11c.49-.36,1-.74,1.49-1.09s1.07-.68,1.6-1l.13.17L28.16,2.67l.05.07L30.8,1.61l.1.19-2,1.39,2.54-.87.09.21L28.62,4.22l0,.06,2.6-.67.08.2L29.09,4.93l0,.12,2.16-.39.07.2-1.81,1L30.3,6,29.08,7.6c.26.41-.19.63-.42.93s-.44.35.07.51l-.62.5.55.26-1.3,1.62.12.21L26.88,13h.06l-1.29,1.89-.13-.06.15.48c-.93.23-.94.24-.61,1.2l-1,.5L24,16.9l.19.67-1.2.95-.66-.3-.13.21a1.93,1.93,0,0,0,.55.32c.67.13,1.35.21,2.19.34l-.64.51.88.73-.85.4.52.84c-.47.11-.71.33-.4.82,0,0-.18.28-.31.35s-.25,0-.42-.1c.06.33.21.65.12.88s-.39.38-.72.67L22,23.76l-.19.76-1-.47-.35.55-.56-.44-.43.46c-.43-.21-.19-1.09-1-.84l-.21,1-.5-.09-.41.94-.46,0,.08.14c-.3.17-.6.32-.88.51s-.34.33-.52.47-.5.34-.86.58c-.14.12-.36.44-.62.49-.57.11-.67.69-1.22.91l-.32-.14c-.06,0-.1.06-.11.09-.14.34-.64.68-1,1s-.43.46-.81.49c-.64.05-1.09.55-1.61.81s-.59.61-.92.92l-.38-.27-.63,1.16-.18,0-.22-1.12-1,2.38-.26-.06.1-1.77-.13,0-1,2.47-.18,0,.2-2.14-.09,0-1.1,2.06-.21-.08.53-2.69L1.87,34.25l-.22-.11,1.11-2.87-1.8,2L.68,33l2.09-3.13C1.84,30.5,1.2,31.51,0,31.76l2.39-2.44-.1-.11L.53,30.36.41,30.2a13.06,13.06,0,0,1,1.27-1.09,30.45,30.45,0,0,0,5.53-4.92A20.5,20.5,0,0,1,9,22.87C10.55,21.54,12.06,20.17,13.58,18.8Z"/></g></g></svg>