<svg xmlns="http://www.w3.org/2000/svg" viewBox="0 0 45.13 24"><defs><style>.cls-1{fill:#1a2026;}</style></defs><title>subject-leopard-female</title><g id="Layer_2" data-name="Layer 2"><g id="Layer_1-2" data-name="Layer 1"><g id="Layer_1-2-2" data-name="Layer 1-2"><path class="cls-1" d="M37.86,1.22a.84.84,0,0,1,.56.28,3.61,3.61,0,0,1,.25.3h.14c.54,0,.81-.09,1.43-.09h.13a1.85,1.85,0,0,1,1.08.21,4.36,4.36,0,0,1,1.15-.5c.09,0,.15-.11.26-.11h.19c.1,0,.2,0,.24.12.28.62-.38,1.12-.77,1.66.37.69.81.82.77,1.8,0,.14-.23,0-.11.36s.6.88.6,1.16a1.41,1.41,0,0,1-.68,1.88h0a.32.32,0,0,1-.14,0c-.17,0-.36-.07-.48-.07h0c-.06,0,0,.1,0,.17a.81.81,0,0,1-.31,1.12.94.94,0,0,1-.37.11h-.23a5.57,5.57,0,0,1-1-.11c-.58-.13-.89-.35-.67-.82a.19.19,0,0,0-.12-.07h0A4.22,4.22,0,0,0,36,10.81c-.27.41-1.08,1.82-.74,2.28a34.31,34.31,0,0,0,3.46,5.31c.42.31,1,.54,1.4.79s.8.71,1.41,1.21a1.17,1.17,0,0,1,.6,2.19,2.27,2.27,0,0,1-1.06.19H41a3.86,3.86,0,0,1-1.56-.39c-.88-.64-.38-1.3-1.45-1.54-.51-.12-1.23-1.13-1.48-1.49-1.16-.78-4.91-2.43-5.58-3.91-.28,1.43.3,1.3-.67,2.36-.52.86-1.24,2.27.2,3.32a.66.66,0,0,1,.43-.15c.79,0,1.39,1.49.1,1.5-.32,0-.92.06-1.53.06-1,0-2.07-.16-1.61-1A9.13,9.13,0,0,1,27.5,18c.11-.48.28-3.18,0-3.39a19.5,19.5,0,0,0-4.55-.82l-.48,0h-.1c-1.08,0-3.8-.89-4.31-1.65,0,1.7-.73,2.12-1.4,3.54a4.7,4.7,0,0,0-.73,2.76,3.37,3.37,0,0,0,1.75,2.17,1,1,0,0,0,.49.12c.37,0,.74-.15,1-.15a.39.39,0,0,1,.32.13C20.34,21.81,19,22,18,22a6.36,6.36,0,0,1-.87-.06c-1-.19-5-3.2-4.41-4.3a4.35,4.35,0,0,0,.67-2.38,13.43,13.43,0,0,0-1.3-3.08c-1,.68-1.89,1.29-2.93,1.93-.64.39-.42.34-1,.87-.09.08-1.08,1.12-1.08,1.16a7.64,7.64,0,0,1-1.5,2.32c-.34.21-.45.5-.87.65-.24.08-1.55.71-.56.71.29,0,.16.52,0,.81a.94.94,0,0,1-.77.66A.75.75,0,0,1,3,21.14c-.26-.2-1-.65-1.12-.9A3.37,3.37,0,0,1,2,18.86c-.22-.22-1.43-1.26-.28-1.26.28,0,.39.51.46.51s.05-.08.08-.3a9,9,0,0,1,.7-1.66c.1-.3.16-.59.26-.89s.59-.42.64-.7c3.21-1,1.63-3.66,2.59-5.81.49-1.09.37-2.5,1.33-3.36S10.43,3.3,11.46,3.3a15.8,15.8,0,0,1,5.71-.84c2.62,0,5.37.3,7.78.35,1.13,0,2.39.1,3.7.16,3.07-1.39,6.6-1.25,8.82-1.35.06-.29.22-.4.39-.4M3.64,18.84l.91-.77,0,0V18l0,0,0,0,0-.07,0,0,0,0h0v0h0l0,0,0,0,0,0,.56-.77-.89.51,0,0v0h0l-.12.2-.07.08-.67,1.07M37.86,0a1.59,1.59,0,0,0-1.08.42h-.42a21.68,21.68,0,0,0-7.94,1.31l-1.09-.05c-.83-.05-1.62-.09-2.35-.1-1.06,0-2.18-.09-3.36-.17-1.46-.09-3-.18-4.45-.18a17.24,17.24,0,0,0-6,.85c-1.76.19-4,2.16-4.27,2.4A4.8,4.8,0,0,0,5.6,7.22a5.26,5.26,0,0,1-.29,1A7.17,7.17,0,0,0,4.81,11c0,1.53-.12,2-1.34,2.36a1.24,1.24,0,0,0-.68.53,1.9,1.9,0,0,0-.76,1c0,.16-.1.32-.14.49l-.12.39c-.07.17-.15.33-.23.49l-.07.14a1.53,1.53,0,0,0-1.39.93,1.83,1.83,0,0,0,.56,1.93,3.6,3.6,0,0,0,0,1.35A2.8,2.8,0,0,0,2,21.94l.24.16a2,2,0,0,0,1.2.44,2.12,2.12,0,0,0,1.89-1.4,2.73,2.73,0,0,0,.24-1.05,3.07,3.07,0,0,0,.56-.45l.12-.11a7.45,7.45,0,0,0,1.9-2.71c.22-.24.77-.81.88-.92a5.44,5.44,0,0,0,.48-.48,1.16,1.16,0,0,1,.34-.24c.65-.41,1.23-.79,1.83-1.19.2.45.38.92.54,1.4a3,3,0,0,1-.52,1.7A2,2,0,0,0,11.74,19a11.19,11.19,0,0,0,5.18,4.21,6.79,6.79,0,0,0,1.1.08c1.49,0,2.4-.39,2.79-1.19a1.92,1.92,0,0,0-.4-2.11,1.6,1.6,0,0,0-1.27-.59,3.1,3.1,0,0,0-.68.1l-.28.05a2.23,2.23,0,0,1-1.08-1.2,2.93,2.93,0,0,1,.46-1.77l.17-.35a10.33,10.33,0,0,1,.54-1,7.2,7.2,0,0,0,.6-1.09,10.69,10.69,0,0,0,3.46.88h.17l.41,0a13.66,13.66,0,0,1,3.37.57l.14,0a13.63,13.63,0,0,1-.11,2.12,6.18,6.18,0,0,0,.11,2.93c0,.25.1.49.14.73a1.68,1.68,0,0,0,.15,1.37,3,3,0,0,0,2.71,1c.39,0,.77,0,1.09,0l.45,0a1.81,1.81,0,0,0,1.95-1.66.76.76,0,0,0,0-.15,2.16,2.16,0,0,0-2.07-2.14h0c-.06-.23,0-.58.4-1.22a5.3,5.3,0,0,0,.46-.6,28.8,28.8,0,0,0,2.82,1.69c.43.24.84.46,1.12.64a4.11,4.11,0,0,0,2,1.76h0a2.85,2.85,0,0,0,1,1.34A4.92,4.92,0,0,0,41,24h.29a3,3,0,0,0,1.34-.29,2.24,2.24,0,0,0,1.3-2.54A2.47,2.47,0,0,0,42,19.24c-.15-.12-.27-.24-.39-.35a5.94,5.94,0,0,0-.87-.72,7.87,7.87,0,0,0-.7-.39l-.55-.29a32.2,32.2,0,0,1-3.11-4.82A5.18,5.18,0,0,1,37,11.49a2.81,2.81,0,0,1,2-1.49,2.34,2.34,0,0,0,1.35.73,6.57,6.57,0,0,0,1.26.14l.34,0a2,2,0,0,0,1.77-1.32,1.17,1.17,0,0,0,.06-.2A2.59,2.59,0,0,0,45,6.13a3,3,0,0,0-.48-1,.76.76,0,0,0,0-.15A2.75,2.75,0,0,0,44,3.14,2.14,2.14,0,0,0,44.41.92,1.44,1.44,0,0,0,43.05.08h-.18a1.41,1.41,0,0,0-.72.19,5.7,5.7,0,0,0-.78.3,4.83,4.83,0,0,0-1-.09h-.08c-.31,0-.62,0-.94.05l-.14,0A2,2,0,0,0,37.86,0Z"/><circle class="cls-1" cx="38.43" cy="3.3" r="0.91"/><path class="cls-1" d="M10,4.82a.59.59,0,0,0,.15.82A.59.59,0,0,0,11,5.51a.41.41,0,0,1,.51-.19.58.58,0,0,0,.79-.27A.59.59,0,0,0,12,4.26,1.6,1.6,0,0,0,10,4.82Z"/><path class="cls-1" d="M12,10.05a.6.6,0,0,0,.6-.61.46.46,0,0,0-.05-.23,1.61,1.61,0,0,0-1.93-.9.61.61,0,1,0,.28,1.18h0a.42.42,0,0,1,.52.19A.59.59,0,0,0,12,10.05Z"/><path class="cls-1" d="M17.1,3.57a.58.58,0,0,0-.81.13h0a1.55,1.55,0,0,0,.22,2,.52.52,0,0,0,.36.16.58.58,0,0,0,.62-.54.59.59,0,0,0-.16-.44.41.41,0,0,1-.1-.53.58.58,0,0,0-.13-.81Z"/><path class="cls-1" d="M29.55,12.09a.7.7,0,0,0-1.24-.63l-.22.44a.69.69,0,0,0,1.24.62Z"/><path class="cls-1" d="M31.38,12.18a.65.65,0,0,0,.88-.26h0l.28-.53a.64.64,0,0,0-.26-.88.65.65,0,0,0-.88.26l-.29.53a.65.65,0,0,0,.27.88Z"/><path class="cls-1" d="M25.28,10a.7.7,0,0,0-.13,1,.71.71,0,0,0,1,.13h0a3.32,3.32,0,0,0,.63-.61.7.7,0,0,0-.19-.95.73.73,0,0,0-1,.15A2.89,2.89,0,0,1,25.28,10Z"/><path class="cls-1" d="M23.08,8.35a1.31,1.31,0,0,0-1.23-1.1.87.87,0,0,0-.43,1.63.88.88,0,0,0,1.14.49.86.86,0,0,0,.52-1Z"/><path class="cls-1" d="M27,7.17a.89.89,0,0,0-1.49-1,.89.89,0,0,0,0,1.77A1.63,1.63,0,0,0,27,7.17Z"/><path class="cls-1" d="M16.13,9.89a.71.71,0,0,0,.31-.08L17,9.53a.65.65,0,0,0-.61-1.15l-.53.28a.66.66,0,0,0-.27.89A.67.67,0,0,0,16.13,9.89Z"/><path class="cls-1" d="M19.62,6.57a.75.75,0,0,0,.26-.05l.37-.13a.74.74,0,0,0,.44-.94A.73.73,0,0,0,19.75,5h0l-.36.14a.73.73,0,0,0-.43.94.72.72,0,0,0,.68.48Z"/><path class="cls-1" d="M32.06,4.63a.72.72,0,0,0,1.23-.74,1.1,1.1,0,0,0-1.19-.66.72.72,0,0,0-.54.87A.74.74,0,0,0,32.06,4.63Z"/><path class="cls-1" d="M33.9,7.76a1,1,0,0,0-1.23-.58l-.51.18a1,1,0,1,0,.62,1.82h0L33.31,9A1,1,0,0,0,33.9,7.76Z"/><path class="cls-1" d="M29.31,7a1,1,0,0,0,.33.07A.85.85,0,0,0,30,5.42h0a.76.76,0,0,1-.13-.23.86.86,0,0,0-1.07-.57.84.84,0,0,0-.56,1.06A2.11,2.11,0,0,0,29.31,7Z"/><path class="cls-1" d="M35.71,4.34l-.43,0a.71.71,0,0,0-.6.79.7.7,0,0,0,.69.6h.09l.44-.06a.7.7,0,0,0-.17-1.39Z"/><path class="cls-1" d="M7.89,11.12a.82.82,0,0,0,1.15,0A.83.83,0,0,0,9,10l-.21-.2a.81.81,0,1,0-1.15,1.15h0Z"/><path class="cls-1" d="M13.64,5.77a.8.8,0,0,0-.19,1.11h0l.25.34a.79.79,0,0,0,1.1.19A.8.8,0,0,0,15,6.3h0L14.74,6A.79.79,0,0,0,13.64,5.77Z"/><path class="cls-1" d="M20.73,11.64a.78.78,0,0,0,0-1.1h0a3.71,3.71,0,0,1-.43-.68.77.77,0,0,0-1-.36.78.78,0,0,0-.36,1,5,5,0,0,0,.71,1.09.78.78,0,0,0,1.1,0Z"/><path class="cls-1" d="M22.9,5.1a.86.86,0,0,0,.27,0,1.81,1.81,0,0,1,.61-.14A.74.74,0,0,0,24,3.45a3.14,3.14,0,0,0-1.32.22A.74.74,0,0,0,22.9,5.1Z"/><path class="cls-1" d="M39.07,6.92a.76.76,0,0,0,.15-1.5l-.32-.06a.76.76,0,1,0-.3,1.48l.32.07Z"/><path class="cls-1" d="M36.34,7a.73.73,0,0,0-1,.31.75.75,0,0,0,.31,1h0l.36.18a.73.73,0,1,0,.68-1.29h0Z"/></g></g></g></svg>