<svg xmlns="http://www.w3.org/2000/svg" viewBox="0 0 45.13 24"><defs><style>.cls-1{fill:#1a2026;}</style></defs><title>subject-leopard-male</title><g id="Layer_2" data-name="Layer 2"><g id="Layer_1-2" data-name="Layer 1"><g id="Layer_1-2-2" data-name="Layer 1-2"><path class="cls-1" d="M7.27,1.22a.89.89,0,0,0-.56.28,3.5,3.5,0,0,0-.24.3H6.32c-.54,0-.81-.09-1.42-.09H4.77a1.83,1.83,0,0,0-1.08.21,4.51,4.51,0,0,0-1.15-.5c-.09,0-.15-.11-.26-.11H2.09c-.11,0-.21,0-.25.12-.28.62.39,1.12.77,1.66-.36.69-.81.82-.77,1.8,0,.14.23,0,.11.36s-.6.88-.6,1.16A1.42,1.42,0,0,0,2,8.28H2a.36.36,0,0,0,.14,0c.18,0,.36-.07.48-.07h0c.06,0,0,.1,0,.17A.83.83,0,0,0,3,9.53a1,1,0,0,0,.37.11H3.6a5.67,5.67,0,0,0,1-.11c.57-.13.89-.35.67-.82a.19.19,0,0,1,.11-.07h0a4.24,4.24,0,0,1,3.79,2.16c.27.41,1.08,1.82.73,2.28A34.25,34.25,0,0,1,6.46,18.4c-.43.31-1,.54-1.41.79s-.79.71-1.4,1.21A1.17,1.17,0,0,0,3,22.59a2.31,2.31,0,0,0,1.07.19h.06a3.82,3.82,0,0,0,1.56-.39c.89-.64.39-1.3,1.45-1.54.51-.12,1.23-1.13,1.49-1.49,1.15-.78,4.91-2.43,5.58-3.91.28,1.43-.31,1.3.66,2.36.53.86,1.25,2.27-.2,3.32a.66.66,0,0,0-.42-.15c-.79,0-1.39,1.49-.1,1.5.31,0,.92.06,1.52.06,1,0,2.07-.16,1.61-1A9.14,9.14,0,0,0,17.64,18c-.12-.48-.28-3.18,0-3.39a19.59,19.59,0,0,1,4.55-.82l.49,0h.1c1.07,0,3.8-.89,4.3-1.65,0,1.7.74,2.12,1.4,3.54a4.64,4.64,0,0,1,.74,2.76,3.37,3.37,0,0,1-1.75,2.17,1.08,1.08,0,0,1-.5.12c-.36,0-.73-.15-1-.15a.37.37,0,0,0-.31.13c-.89,1.1.44,1.32,1.44,1.32A6.36,6.36,0,0,0,28,22c1-.19,5-3.2,4.4-4.3a4.26,4.26,0,0,1-.66-2.38A13.4,13.4,0,0,1,33,12.21c1,.68,1.9,1.29,2.94,1.93.63.39.41.34,1,.87.09.08,1.09,1.12,1.09,1.16a7.8,7.8,0,0,0,1.49,2.32c.34.21.45.5.88.65.24.08,1.54.71.55.71-.28,0-.16.52,0,.81a1,1,0,0,0,.78.66.72.72,0,0,0,.44-.18c.27-.2,1-.65,1.12-.9a3.55,3.55,0,0,0-.12-1.38c.22-.22,1.42-1.26.28-1.26-.29,0-.4.51-.47.51s0-.08-.07-.3a10.59,10.59,0,0,0-.7-1.66c-.1-.3-.17-.59-.26-.89s-.6-.42-.65-.7c-3.21-1-1.62-3.66-2.58-5.81-.49-1.09-.38-2.5-1.33-3.36S34.71,3.3,33.68,3.3A15.87,15.87,0,0,0,28,2.46c-2.63,0-5.37.3-7.79.35-1.12,0-2.39.1-3.69.16C13.41,1.58,9.88,1.72,7.66,1.62c-.06-.29-.21-.4-.39-.4M41.49,18.84l-.91-.77,0,0v0l0,0,0,0,0,0,0-.07,0,0,0,0h0v0h0l0,0,0,0,0,0-.56-.77.89.51,0,0,0,0h0l.12.2.07.08.66,1.07M7.27,0A1.59,1.59,0,0,1,8.35.42h.43a21.66,21.66,0,0,1,7.93,1.31l1.1-.05c.82-.05,1.61-.09,2.35-.1,1.05,0,2.17-.09,3.35-.17,1.46-.09,3-.18,4.45-.18a17.33,17.33,0,0,1,6,.85c1.75.19,4,2.16,4.26,2.4a4.74,4.74,0,0,1,1.33,2.73,6.08,6.08,0,0,0,.3,1A7.16,7.16,0,0,1,40.32,11c0,1.53.12,2,1.34,2.36a1.26,1.26,0,0,1,.69.53,2,2,0,0,1,.76,1c0,.16.09.32.14.49s.07.26.12.39a3.12,3.12,0,0,0,.23.49l.07.14a1.52,1.52,0,0,1,1.38.93,1.82,1.82,0,0,1-.55,1.93,4.08,4.08,0,0,1,0,1.35,2.84,2.84,0,0,1-1.29,1.34l-.24.16a2,2,0,0,1-1.2.44,2.13,2.13,0,0,1-1.9-1.4,2.73,2.73,0,0,1-.24-1.05,3,3,0,0,1-.55-.45.69.69,0,0,0-.13-.11A7.7,7.7,0,0,1,37,16.82c-.21-.24-.76-.81-.87-.92s-.33-.31-.49-.48a1.12,1.12,0,0,0-.33-.24c-.66-.41-1.23-.79-1.83-1.19a11.25,11.25,0,0,0-.54,1.4,3,3,0,0,0,.52,1.7A2,2,0,0,1,33.39,19a11.09,11.09,0,0,1-5.18,4.21,6.67,6.67,0,0,1-1.09.08c-1.5,0-2.41-.39-2.79-1.19a1.92,1.92,0,0,1,.4-2.11A1.58,1.58,0,0,1,26,19.36a3.28,3.28,0,0,1,.69.1l.27.05A2.19,2.19,0,0,0,28,18.31a2.93,2.93,0,0,0-.46-1.77l-.16-.35c-.17-.33-.35-.65-.55-1a7.2,7.2,0,0,1-.6-1.09A10.56,10.56,0,0,1,22.8,15h-.16l-.42,0a13.82,13.82,0,0,0-3.37.57l-.14,0a15,15,0,0,0,.11,2.12,6.31,6.31,0,0,1-.1,2.93c0,.25-.1.49-.14.73a1.69,1.69,0,0,1-.16,1.37,3,3,0,0,1-2.71,1c-.38,0-.77,0-1.09,0l-.44,0a1.82,1.82,0,0,1-2-1.66V21.9a2.16,2.16,0,0,1,2.07-2.14h0c.06-.23,0-.58-.39-1.22a5.39,5.39,0,0,1-.47-.6,28.8,28.8,0,0,1-2.82,1.69c-.43.24-.84.46-1.12.64a4.08,4.08,0,0,1-2,1.76h0a2.81,2.81,0,0,1-1,1.34A4.86,4.86,0,0,1,4.17,24H3.89a3,3,0,0,1-1.35-.29,2.26,2.26,0,0,1-1.3-2.54,2.49,2.49,0,0,1,1.89-1.92l.39-.35a5.86,5.86,0,0,1,.86-.72c.23-.14.47-.27.71-.39l.54-.29a33.08,33.08,0,0,0,3.12-4.82,5.66,5.66,0,0,0-.59-1.18A2.79,2.79,0,0,0,6.2,10a2.32,2.32,0,0,1-1.34.73,6.75,6.75,0,0,1-1.26.14l-.35,0A2,2,0,0,1,1.49,9.53a1.18,1.18,0,0,1-.07-.2A2.59,2.59,0,0,1,.16,6.13a2.87,2.87,0,0,1,.48-1,.77.77,0,0,1,0-.15A2.76,2.76,0,0,1,1.1,3.14,2.12,2.12,0,0,1,.73.92,1.44,1.44,0,0,1,2.09.08h.18A1.38,1.38,0,0,1,3,.28a5.82,5.82,0,0,1,.79.3,4.77,4.77,0,0,1,1-.09h.07c.32,0,.63,0,.94.05l.15,0A2,2,0,0,1,7.27,0Z"/><circle class="cls-1" cx="6.71" cy="3.3" r="0.91"/><path class="cls-1" d="M35.13,4.82a.58.58,0,0,1-.15.82.57.57,0,0,1-.33.11.6.6,0,0,1-.48-.24.42.42,0,0,0-.52-.19.59.59,0,0,1-.53-1.06A1.59,1.59,0,0,1,35.13,4.82Z"/><path class="cls-1" d="M33.1,10.05a.61.61,0,0,1-.61-.61.59.59,0,0,1,0-.23,1.63,1.63,0,0,1,1.94-.9.62.62,0,0,1,.45.73.61.61,0,0,1-.74.45h0a.41.41,0,0,0-.51.19A.61.61,0,0,1,33.1,10.05Z"/><path class="cls-1" d="M28,3.57a.58.58,0,0,1,.81.13h0a1.56,1.56,0,0,1-.22,2,.58.58,0,0,1-1-.38.52.52,0,0,1,.16-.44.42.42,0,0,0,.1-.53A.58.58,0,0,1,28,3.57Z"/><path class="cls-1" d="M15.58,12.09a.7.7,0,0,1,1.25-.63l.22.44a.7.7,0,0,1-.33.93.69.69,0,0,1-.92-.31Z"/><path class="cls-1" d="M13.76,12.18a.67.67,0,0,1-.89-.26h0l-.28-.53a.65.65,0,0,1,.26-.88.66.66,0,0,1,.89.26l.28.53a.65.65,0,0,1-.26.88Z"/><path class="cls-1" d="M19.86,10A.71.71,0,0,1,19,11.11h0a3.58,3.58,0,0,1-.62-.61.69.69,0,0,1,.18-.95.73.73,0,0,1,1,.15A2.28,2.28,0,0,0,19.86,10Z"/><path class="cls-1" d="M22.05,8.35a1.32,1.32,0,0,1,1.23-1.1.87.87,0,0,1,.88.87.86.86,0,0,1-.45.76.87.87,0,0,1-1.66-.53Z"/><path class="cls-1" d="M18.11,7.17A.89.89,0,0,1,18.5,6a.88.88,0,0,1,1.09.24.89.89,0,0,1,0,1.77A1.62,1.62,0,0,1,18.11,7.17Z"/><path class="cls-1" d="M29,9.89a.65.65,0,0,1-.31-.08l-.53-.28a.65.65,0,0,1,.62-1.15l.53.28a.66.66,0,0,1,.26.89A.64.64,0,0,1,29,9.89Z"/><path class="cls-1" d="M25.51,6.57a.7.7,0,0,1-.25-.05l-.37-.13a.73.73,0,0,1-.44-.94A.72.72,0,0,1,25.38,5h0l.37.14a.73.73,0,0,1-.26,1.42Z"/><path class="cls-1" d="M13.08,4.63a.74.74,0,0,1-1,.18.73.73,0,0,1-.23-.92A1.12,1.12,0,0,1,13,3.23a.72.72,0,0,1,.54.87A.74.74,0,0,1,13.08,4.63Z"/><path class="cls-1" d="M11.23,7.76a1,1,0,0,1,1.23-.58l.52.18a1,1,0,0,1,.59,1.22,1,1,0,0,1-1.22.6h0L11.82,9A1,1,0,0,1,11.23,7.76Z"/><path class="cls-1" d="M15.82,7a.88.88,0,0,1-.33.07.85.85,0,0,1-.39-1.62h0a.79.79,0,0,0,.14-.23.85.85,0,1,1,1.63.49A2.13,2.13,0,0,1,15.82,7Z"/><path class="cls-1" d="M9.42,4.34l.44,0a.71.71,0,0,1,.59.79.69.69,0,0,1-.68.6h-.1l-.43-.06a.7.7,0,0,1-.61-.78.71.71,0,0,1,.78-.61Z"/><path class="cls-1" d="M37.25,11.12a.82.82,0,0,1-1.15,0,.83.83,0,0,1,0-1.15l.2-.2a.81.81,0,1,1,1.15,1.15h0Z"/><path class="cls-1" d="M31.5,5.77a.81.81,0,0,1,.18,1.11h0l-.25.34a.79.79,0,1,1-1.28-.92h0L30.39,6A.8.8,0,0,1,31.5,5.77Z"/><path class="cls-1" d="M24.4,11.64a.78.78,0,0,1,0-1.1h0a3.25,3.25,0,0,0,.43-.68.78.78,0,0,1,1.4.67,4.35,4.35,0,0,1-.71,1.09.78.78,0,0,1-1.1,0Z"/><path class="cls-1" d="M22.23,5.1a.75.75,0,0,1-.26,0,1.92,1.92,0,0,0-.62-.14.74.74,0,0,1-.18-1.46,3.11,3.11,0,0,1,1.32.22.74.74,0,0,1-.26,1.43Z"/><path class="cls-1" d="M6.07,6.92a.76.76,0,0,1-.15-1.5l.31-.06a.77.77,0,0,1,.9.59.76.76,0,0,1-.6.89l-.31.07Z"/><path class="cls-1" d="M8.79,7a.73.73,0,1,1,.68,1.3h0l-.37.18A.73.73,0,1,1,8.4,7.18h0Z"/></g></g></g></svg>