<svg xmlns="http://www.w3.org/2000/svg" viewBox="0 0 33.1 44"><path d="M4.2,15.5a9.8,9.8,0,0,0,.7,4,10.2,10.2,0,0,0,1.4,2.8,4.7,4.7,0,0,0,1.6,1.4,4.4,4.4,0,0,1,1.4,1.7l.6.8.7.5c0,.1,0,.1-.1.1-.5,2-.9,3.9-1.4,5.9,0,0-.1,1.1-.2,1.9A13.8,13.8,0,0,1,8,38.5a7.6,7.6,0,0,1-.9,1.8,9.3,9.3,0,0,0-1.3,1.5c0,.1.7.1.7.1a1.1,1.1,0,0,0,.8-.3l1.1-1.1a1.5,1.5,0,0,0,.2-1.1L10.5,33a12.6,12.6,0,0,0,2.1-4.6A38.5,38.5,0,0,1,15.7,35a.7.7,0,0,0,.7.7,3.6,3.6,0,0,0,.4.9l.5,1,.8,2.1a8.2,8.2,0,0,1,.9,1.9c0,.5-.4,1-.5,1.6s.1.2.4.2h.7c.2,0,.4-1.6.3-1.8l-2.6-6.7s-1.7-7.4-2.4-7.7a3.2,3.2,0,0,1,3-.7h2.7L26,33.2a1,1,0,0,1-.2.8l-3.1,6.6a17.4,17.4,0,0,0-1.1,1.8,4.6,4.6,0,0,0-.8,1.3c0-.1.9,0,1,0h.6c.4-.1.1-.9.1-1.1s.6-.1,1.2-1.9l4.2-6.9.4-.7s.3-.4-.3-1-1.4-1.2-1.5-2l-.7-2.3,4.4,4.5a4.9,4.9,0,0,1,1.6,3.3c-.1,1.9.2,5.9.2,5.9s-.7,1.7-1.1,2.5h1.4c.2-.1.2-.6.2-.8s.3-.5.4-.8a3.6,3.6,0,0,0,.2-1v-9s.2-.7-1.1-1.7-1.9-1.8-1.9-2.9.2-4,.8-5.3,1.1-3-.8-4.4l-3.6-1.5a11,11,0,0,0-3.8-.4H14.9A8.2,8.2,0,0,0,11,17s-1.3.7-2,0a4.8,4.8,0,0,1-.7-2,4.4,4.4,0,0,0-.9-2.3.9.9,0,0,1,.5-.9A2.6,2.6,0,0,1,9.1,11h.1c.6,0,1.2-.6,1.5-1.4s.6-1.5.1-2.2-.3-.4-1.1.1-1.5.9-1.8,1.6-.2.8-.7.8-.3-.3.2-.9l.9-.8a.8.8,0,0,0,.3-.7A1.6,1.6,0,0,1,8,6s0-1.2.8-1.5.8-.5.8-.6.2-.6-.3-.8S8.4,2,9.6.2L9.9,0S8.6.4,8.4,1.4s-.5,1.7,0,2.5S7.1,4.4,7,5.2s-.4,1.9.4,2.4S6,8.2,5.7,9.3A3.1,3.1,0,0,0,3.9,7.7a2.9,2.9,0,0,0,.7-2A1.5,1.5,0,0,0,3.5,4.1s-.4-.1-.2-.8A2.6,2.6,0,0,0,2.2,0s1.4,2,.5,2.9-1,.6.1,1.6,1,1,.8,1.5.1,1-.5,1.3-.7.3-.1.9,1.4,1,1.2,1.7a.4.4,0,0,1-.6-.2A3.7,3.7,0,0,0,1.5,7.8s-1-.6-1.4,0A1.8,1.8,0,0,0,.4,9.6,2.6,2.6,0,0,0,1.8,11s2,.7,2.1,1.4a10.9,10.9,0,0,0-.1,2l.5.6v.5Z"/></svg>
