<svg xmlns="http://www.w3.org/2000/svg" viewBox="0 0 33 34.4"><defs><style>.a{fill-rule:evenodd;}</style></defs><path class="a" d="M.6,14.7s-.4-.4-.6-2.4c0,0,1-4.2,4.9-5,0,0,1-.5,5.9.1l6.5.9c1.7.2,3.9,0,5.1,1.4s.8,1.8,2,.4l1.5-3.9S26,4.5,25,4l-.7-.4a2.4,2.4,0,0,1-1.2-.7c-.6-.8-1.6-3,.1-2.9a2.7,2.7,0,0,1,1.6.8A4.9,4.9,0,0,1,26.1,2l.4.3a2.7,2.7,0,0,1,2.7.1,3.4,3.4,0,0,1,2.6-2c.3-.1.8-.3,1.1,0s0,1.3-.2,1.7a4,4,0,0,1-1.5,1.4l-1.4.8a8.1,8.1,0,0,0-.8,2s.1,1.6-.6,1.8h-.7l-.3,1.7-1,3.8a5.7,5.7,0,0,1-1.5,2.6,8.3,8.3,0,0,0-1.7,2.7c-.2.4-.6.8-.6,1.3a5.2,5.2,0,0,0,.2,1.8,16.7,16.7,0,0,1,.5,3.1,9.6,9.6,0,0,1,0,1.8s.2,4,1,5.3,1.2,1.1,1.1,1.6H24.3l-1.2-1.4a2.7,2.7,0,0,1,0-1L22,25.2a11.7,11.7,0,0,1-1.4-4.3c-.6.7-1.1,1.5-1.6,2.2s-.9,1.4-1.2,2-.5,1.5-1,1.8l-.5.2c-.3.2-.6,1.1-.8,1.4l-1,1.8c-.2.3-1.2,1.6-1.1,2s.3,1.2.2,1.6H12.5V32.6a2.1,2.1,0,0,1,.5-1.3l1-2c0-.5.8-1.5,1-2,1.3-2.3,1.9-5,3.2-7.3h-.4a20.6,20.6,0,0,1-8.4-2.6s-1.6,3.7-3,5a5.4,5.4,0,0,0-1.6,4.3l1.4,5.8,1.1,1.5s.3.3-.1.4L6.1,34a1.7,1.7,0,0,1-.3-.9L5.2,32a6.9,6.9,0,0,0-.5-2.1L3.2,25.2s-.5-.9.7-2,.8-.2,1-2.5c0-.2-.9.3-.9.3a4.3,4.3,0,0,0-1.4,2.1l-.9,2.8a.4.4,0,0,0-.1.3,4.8,4.8,0,0,0,0,1.2v1.5a10.3,10.3,0,0,0,.1,1.7,8.3,8.3,0,0,0,.7,2.7,11.7,11.7,0,0,0,.5,1.1H1.6A5,5,0,0,0,1.3,33c-.3-.2-.7-.3-.7-.7s.1-1.7.2-2.5L.1,22.7a2.7,2.7,0,0,1,.8-1.1,3.9,3.9,0,0,0,1.8-3.2s.4-1.4-1.5-3.6c0,0,.4,3.5-1.1,3.7v-.6S1.1,16,.6,14.7Z"/></svg>
