<svg xmlns="http://www.w3.org/2000/svg" viewBox="0 0 56 34.31"><defs><style>.a{opacity:0.8;}.b{fill:#1a2026;fill-rule:evenodd;}.c{fill:#fff;}</style></defs><title>Asset 183</title><g class="a"><path class="b" d="M5.24,17.09a1.89,1.89,0,0,0,2.21.27.81.81,0,0,1,.78,0c.68.39.85,1.08,1.28,1.66-.13-.18.62-.19.68-.18a1.69,1.69,0,0,1,1.25,1.77l.14-.21c0,.07.22.62.27.72a.58.58,0,0,1,.15-.15c.22.27-.07.82-.06,1.13a6.39,6.39,0,0,1-.66,2.77c-.35,1.21-.57,2.49-1.74,3.2-.49.3-1.14.06-1.67.1S6,28.59,6.22,29.38c.15.47.79.63,1.21.71A14.89,14.89,0,0,0,10.22,30a2.61,2.61,0,0,0,1.67-1.19c.57-.77,1.11-1.55,1.68-2.32.26-.36.53-.71.82-1.06s.39-.38.56-.59a4.78,4.78,0,0,0,.85-1.76,3.47,3.47,0,0,1,.17-.48c0-.06.1-.1.16-.14a3,3,0,0,0,.19.36c0-.18.07-.72.09-.81a3,3,0,0,1,.37.63c.17-.13.94-1.08,1-1.12s0,.7,0,.71l.3-.36a1.13,1.13,0,0,1,0,.37c.12,0,.76-.19.78-.16.07.19.12.38.19.6l.39-.49s0,.34,0,.35l.32-.38.29.53.32-.8.24.51.2-.71.3.34a4.71,4.71,0,0,0,.07-.83c.23.07.39.75.41.93a.86.86,0,0,0,.14-.39c.2.08.2.08.38.65l.25-.57.18.14a5.49,5.49,0,0,1,0-.9c.06.09.34.39.39.36s.06-.59,0-.75.19.12.25.22l.18-.48a6.35,6.35,0,0,0,.43.8A12.2,12.2,0,0,1,24.52,24c.24,1.39,1.9,4.77,0,5C24,29,23,30.07,23.93,30.51a3.41,3.41,0,0,0,1.42.08,6,6,0,0,0,1.83-.2c.73-.41.69-1.75.68-2.38s-.18-1.17-.24-1.79a33.27,33.27,0,0,0-.21-3.36,10.62,10.62,0,0,1,0-2.56c0-.43,2.48-.35,2.79-.39a7.72,7.72,0,0,0,4.91-2.69c.23-.27.37-.26.52.07a32.75,32.75,0,0,0,1.51,3.15,21.15,21.15,0,0,1,2.55,5,4.22,4.22,0,0,1-1,3.34.36.36,0,0,1-.3.05A2,2,0,0,0,37,29.1a.86.86,0,0,0-.47.82c0,.46.32.64.75.69a4.65,4.65,0,0,0,2.58-.14,3.6,3.6,0,0,0,1.27-1.56c.13-.22.22-.44.34-.66a14,14,0,0,0,1.32-3.55,1.15,1.15,0,0,0-.16-.82c-.38-.84-1.06-2.59-1-2.66s.23.15.3.19c1.34.84,2.86,1.91,3.29,3.52a7.76,7.76,0,0,1-.07,3c-.11.49-.38.92-.48,1.41-.06.32-.33.21-.59.23-.93.09-1.29.84-1.22,1.12a.93.93,0,0,0,.83.65l1.85,0a1.4,1.4,0,0,0,1.25-.79A11,11,0,0,0,47.63,27a24.65,24.65,0,0,0-.12-4.86,2.26,2.26,0,0,0-1-1.2,6.17,6.17,0,0,1-2.24-2.75A10.07,10.07,0,0,1,44,14.85c0-.62.08-1.24.09-1.85,0-.35-.21-1.67.23-1.87s.65.72.74.9a14.53,14.53,0,0,1,1.12,4c.45,2.57.59,5.35,2.48,7.35a4.52,4.52,0,0,0,2.54,1.46c.47.07,1.42.49,1.69-.53.33-1.22-.73-.7-1.35-.83a6.63,6.63,0,0,1-2.1-.7c-1.9-1-1.82-3.77-1.87-5.63a13.55,13.55,0,0,0-1.87-7.27c-1.9-2.8-5.1-3.85-8.34-4a33.13,33.13,0,0,0-7,.59l-1.93.35A12,12,0,0,1,25,7.16C23.38,7,22.22,5.48,20.75,4.8A13.83,13.83,0,0,0,17,3.49c-1.9-.29-3.83,0-5.74-.18S7.92,2.19,6.19,4.94c-.63,1-.33,2.11-.59,3.21a3.39,3.39,0,0,1-.77,1.18c-.37.49-.18,1.2-.43,1.75C4,12,2.87,12.59,3,13.63c.1.74.59.54.68,1.38A9.08,9.08,0,0,0,5.24,17.09Z"/><path class="c" d="M9,3C8,3,7.17,3.38,6.19,4.94c-.63,1-.33,2.11-.59,3.21a3.39,3.39,0,0,1-.77,1.18c-.37.49-.18,1.2-.43,1.75C4,12,2.87,12.59,3,13.63c.1.74.59.54.68,1.38a9.08,9.08,0,0,0,1.55,2.08,1.51,1.51,0,0,0,1.16.49,2.93,2.93,0,0,0,1.05-.23,1.34,1.34,0,0,1,.48-.13.6.6,0,0,1,.3.09c.68.39.85,1.08,1.28,1.66-.11-.15.38-.18.59-.18h.09a1.69,1.69,0,0,1,1.25,1.77l.14-.21c0,.07.22.62.27.72a.59.59,0,0,1,.15-.15c.22.27-.07.82-.06,1.13a6.39,6.39,0,0,1-.66,2.77c-.35,1.21-.57,2.49-1.74,3.2a1.2,1.2,0,0,1-.64.15c-.29,0-.6-.06-.89-.06H7.87c-.54,0-1.91.47-1.65,1.26.15.47.79.63,1.21.71a4.8,4.8,0,0,0,.76,0,18.44,18.44,0,0,0,2-.11,2.61,2.61,0,0,0,1.67-1.19c.57-.77,1.11-1.55,1.68-2.32.26-.36.53-.71.82-1.06s.39-.38.56-.59a4.78,4.78,0,0,0,.85-1.76,3.47,3.47,0,0,1,.17-.48c0-.06.1-.1.16-.14a3,3,0,0,0,.19.36c0-.18.07-.72.09-.81a3,3,0,0,1,.37.63c.17-.13.94-1.08,1-1.12s0,.7,0,.71l.3-.36a1.13,1.13,0,0,1,0,.37c.11,0,.66-.16.76-.16h0c.07.19.12.38.19.6l.39-.49s0,.34,0,.35l.32-.38.29.53.32-.8.24.51.2-.71.3.34a4.71,4.71,0,0,0,.07-.83c.23.07.39.75.41.93a.86.86,0,0,0,.14-.39c.2.08.2.08.38.65l.25-.57.18.14a5.49,5.49,0,0,1,0-.9c.06.09.32.37.38.37h0c.09,0,.06-.59,0-.75h0a.68.68,0,0,1,.25.22l.18-.48a6.35,6.35,0,0,0,.43.8A12.2,12.2,0,0,1,24.52,24c.24,1.39,1.9,4.77,0,5C24,29,23,30.07,23.93,30.51a1.51,1.51,0,0,0,.65.12c.26,0,.53,0,.77,0a6,6,0,0,0,1.83-.2c.73-.41.69-1.75.68-2.38s-.18-1.17-.24-1.79a33.28,33.28,0,0,0-.21-3.36,10.62,10.62,0,0,1,0-2.56c0-.43,2.48-.35,2.79-.39a7.72,7.72,0,0,0,4.91-2.69c.11-.12.2-.19.28-.19s.17.09.25.26a32.75,32.75,0,0,0,1.51,3.15,21.15,21.15,0,0,1,2.55,5,4.22,4.22,0,0,1-1,3.34.29.29,0,0,1-.21.06h-.09a2.29,2.29,0,0,0-.46,0,1.91,1.91,0,0,0-1,.27.86.86,0,0,0-.47.82c0,.46.32.64.75.69a12,12,0,0,0,1.32.11,2.84,2.84,0,0,0,1.26-.25,3.6,3.6,0,0,0,1.27-1.56c.13-.22.22-.44.34-.66a14,14,0,0,0,1.32-3.55,1.15,1.15,0,0,0-.16-.82c-.38-.84-1.06-2.59-1-2.66s.23.15.3.19c1.34.84,2.86,1.91,3.29,3.52a7.76,7.76,0,0,1-.07,3c-.11.49-.38.92-.48,1.41,0,.21-.16.24-.31.24H44c-.93.09-1.29.84-1.22,1.12a.93.93,0,0,0,.83.65h0l1.85,0a1.4,1.4,0,0,0,1.25-.79A11,11,0,0,0,47.63,27a24.65,24.65,0,0,0-.12-4.86,2.26,2.26,0,0,0-1-1.2,6.17,6.17,0,0,1-2.24-2.75A10.07,10.07,0,0,1,44,14.85c0-.62.08-1.24.09-1.85,0-.35-.21-1.67.23-1.87h.07c.28,0,.59.75.67.92a14.53,14.53,0,0,1,1.12,4c.45,2.57.59,5.35,2.48,7.35a4.52,4.52,0,0,0,2.54,1.46,5.5,5.5,0,0,0,.87.14.79.79,0,0,0,.83-.68c.19-.72-.09-.83-.49-.83l-.59,0a1.33,1.33,0,0,1-.27,0,6.63,6.63,0,0,1-2.1-.7c-1.9-1-1.82-3.77-1.87-5.63a13.55,13.55,0,0,0-1.87-7.27c-1.9-2.8-5.1-3.85-8.34-4l-.9,0a34.67,34.67,0,0,0-6.11.6l-1.93.35a15.71,15.71,0,0,1-2.75.35,6.06,6.06,0,0,1-.67,0C23.38,7,22.22,5.48,20.75,4.8A13.83,13.83,0,0,0,17,3.49,13.44,13.44,0,0,0,15,3.36l-2.07,0a15.07,15.07,0,0,1-1.61-.07C10.44,3.22,9.69,3,9,3M9,0H9a10.22,10.22,0,0,1,1.84.21c.29.05.56.1.81.13a12.1,12.1,0,0,0,1.29.06H15A16.07,16.07,0,0,1,17.5.53,16.39,16.39,0,0,1,22,2.08,12.29,12.29,0,0,1,24.11,3.4a5.14,5.14,0,0,0,1.26.78l.34,0a11.78,11.78,0,0,0,2-.25l.27,0,.9-.16,1-.19a37.62,37.62,0,0,1,6.64-.65l1,0c4.78.17,8.49,2,10.72,5.28,2,3,2.32,6.48,2.39,8.88v.43A7.93,7.93,0,0,0,51,20.16a3.24,3.24,0,0,0,1,.33l.47,0A3.47,3.47,0,0,1,55.3,21.8a3.62,3.62,0,0,1,.54,3.28A3.79,3.79,0,0,1,52.11,28a5.61,5.61,0,0,1-1.27-.16l-.07,0-.2,0a12.54,12.54,0,0,1-1.36,4.38,4.38,4.38,0,0,1-3.66,2.12l-1.89,0A4,4,0,0,1,41,33.23a5.81,5.81,0,0,1-2.42.49,12.27,12.27,0,0,1-1.45-.11l-.2,0a3.71,3.71,0,0,1-3.41-3.46,3.86,3.86,0,0,1,1.95-3.62A5,5,0,0,1,36.74,26a15.1,15.1,0,0,0-1.53-3c-.21-.35-.43-.7-.63-1.05l-.17-.3a10.31,10.31,0,0,1-3.82,1.24h-.13A18.13,18.13,0,0,1,30.57,25c0,.38,0,.71,0,1s0,.35.08.52A9.43,9.43,0,0,1,30.86,28c0,1,.08,3.76-2.21,5.05a6.29,6.29,0,0,1-3.3.59h-.19l-.59,0a4.41,4.41,0,0,1-1.94-.41,3.53,3.53,0,0,1-2.05-3.79,4.25,4.25,0,0,1,1.63-2.62c-.07-.26-.16-.52-.22-.71s-.15-.47-.21-.7l-.25,0a3,3,0,0,1-1.25.35h-.17a3,3,0,0,1-.56-.05,3,3,0,0,1-1.49-.14,6.74,6.74,0,0,1-.8,1.23,6.31,6.31,0,0,1-.52.56l-.08.08c-.21.26-.43.54-.7.9l-.73,1c-.31.44-.63.88-1,1.31A5.56,5.56,0,0,1,10.73,33a20.22,20.22,0,0,1-2.53.16A7.16,7.16,0,0,1,6.89,33a4.13,4.13,0,0,1-3.52-2.72,3.59,3.59,0,0,1,.42-3.12,5.41,5.41,0,0,1,3.83-2.07l.4,0h.06c.07-.21.13-.46.19-.65L8.4,24a9.74,9.74,0,0,1,.37-1,1.34,1.34,0,0,0,.17-.72,3,3,0,0,1-.21-.36,3,3,0,0,1-1.64-1.1l-.16-.22a5.11,5.11,0,0,1-.55,0A4.52,4.52,0,0,1,3,19.13,9,9,0,0,1,.83,16,4,4,0,0,1,0,14a5,5,0,0,1,1.41-4l.12-.14a4.54,4.54,0,0,1,.84-2.4l.29-.37c0-.12,0-.25,0-.39a6.61,6.61,0,0,1,.92-3.44C5.07,1.09,6.81,0,9,0Z"/></g><path class="b" d="M5.24,17.09a1.89,1.89,0,0,0,2.21.27.81.81,0,0,1,.78,0c.68.39.85,1.08,1.28,1.66-.13-.18.62-.19.68-.18a1.69,1.69,0,0,1,1.25,1.77l.14-.21c0,.07.22.62.27.72a.58.58,0,0,1,.15-.15c.22.27-.07.82-.06,1.13a6.39,6.39,0,0,1-.66,2.77c-.35,1.21-.57,2.49-1.74,3.2-.49.3-1.14.06-1.67.1S6,28.59,6.22,29.38c.15.47.79.63,1.21.71A14.89,14.89,0,0,0,10.22,30a2.61,2.61,0,0,0,1.67-1.19c.57-.77,1.11-1.55,1.68-2.32.26-.36.53-.71.82-1.06s.39-.38.56-.59a4.78,4.78,0,0,0,.85-1.76,3.47,3.47,0,0,1,.17-.48c0-.06.1-.1.16-.14a3,3,0,0,0,.19.36c0-.18.07-.72.09-.81a3,3,0,0,1,.37.63c.17-.13.94-1.08,1-1.12s0,.7,0,.71l.3-.36a1.13,1.13,0,0,1,0,.37c.12,0,.76-.19.78-.16.07.19.12.38.19.6l.39-.49s0,.34,0,.35l.32-.38.29.53.32-.8.24.51.2-.71.3.34a4.71,4.71,0,0,0,.07-.83c.23.07.39.75.41.93a.86.86,0,0,0,.14-.39c.2.08.2.08.38.65l.25-.57.18.14a5.49,5.49,0,0,1,0-.9c.06.09.34.39.39.36s.06-.59,0-.75.19.12.25.22l.18-.48a6.35,6.35,0,0,0,.43.8A12.2,12.2,0,0,1,24.52,24c.24,1.39,1.9,4.77,0,5C24,29,23,30.07,23.93,30.51a3.41,3.41,0,0,0,1.42.08,6,6,0,0,0,1.83-.2c.73-.41.69-1.75.68-2.38s-.18-1.17-.24-1.79a33.27,33.27,0,0,0-.21-3.36,10.62,10.62,0,0,1,0-2.56c0-.43,2.48-.35,2.79-.39a7.72,7.72,0,0,0,4.91-2.69c.23-.27.37-.26.52.07a32.75,32.75,0,0,0,1.51,3.15,21.15,21.15,0,0,1,2.55,5,4.22,4.22,0,0,1-1,3.34.36.36,0,0,1-.3.05A2,2,0,0,0,37,29.1a.86.86,0,0,0-.47.82c0,.46.32.64.75.69a4.65,4.65,0,0,0,2.58-.14,3.6,3.6,0,0,0,1.27-1.56c.13-.22.22-.44.34-.66a14,14,0,0,0,1.32-3.55,1.15,1.15,0,0,0-.16-.82c-.38-.84-1.06-2.59-1-2.66s.23.15.3.19c1.34.84,2.86,1.91,3.29,3.52a7.76,7.76,0,0,1-.07,3c-.11.49-.38.92-.48,1.41-.06.32-.33.21-.59.23-.93.09-1.29.84-1.22,1.12a.93.93,0,0,0,.83.65l1.85,0a1.4,1.4,0,0,0,1.25-.79A11,11,0,0,0,47.63,27a24.65,24.65,0,0,0-.12-4.86,2.26,2.26,0,0,0-1-1.2,6.17,6.17,0,0,1-2.24-2.75A10.07,10.07,0,0,1,44,14.85c0-.62.08-1.24.09-1.85,0-.35-.21-1.67.23-1.87s.65.72.74.9a14.53,14.53,0,0,1,1.12,4c.45,2.57.59,5.35,2.48,7.35a4.52,4.52,0,0,0,2.54,1.46c.47.07,1.42.49,1.69-.53.33-1.22-.73-.7-1.35-.83a6.63,6.63,0,0,1-2.1-.7c-1.9-1-1.82-3.77-1.87-5.63a13.55,13.55,0,0,0-1.87-7.27c-1.9-2.8-5.1-3.85-8.34-4a33.13,33.13,0,0,0-7,.59l-1.93.35A12,12,0,0,1,25,7.16C23.38,7,22.22,5.48,20.75,4.8A13.83,13.83,0,0,0,17,3.49c-1.9-.29-3.83,0-5.74-.18S7.92,2.19,6.19,4.94c-.63,1-.33,2.11-.59,3.21a3.39,3.39,0,0,1-.77,1.18c-.37.49-.18,1.2-.43,1.75C4,12,2.87,12.59,3,13.63c.1.74.59.54.68,1.38A9.08,9.08,0,0,0,5.24,17.09Z"/></svg>