<svg xmlns="http://www.w3.org/2000/svg" viewBox="0 0 56 31.71"><defs><style>.a{opacity:0.8;}.b{fill:#fff;}.c{fill:#1a2026;}</style></defs><title>Asset 190</title><g class="a"><path class="b" d="M17.18,30.21a6.39,6.39,0,0,1-.94-.07,2.94,2.94,0,0,1-2.17-.84,2.43,2.43,0,0,1-.68-1.57A9.14,9.14,0,0,0,12.32,26a1.51,1.51,0,0,1-.21-.4c-.69-2-.73-3.42-.11-4.42a2.34,2.34,0,0,1,.54-.61,24.29,24.29,0,0,0,.32-3c0-.17-.09-.36-.13-.56a10.33,10.33,0,0,1-2.57,3.85A5.64,5.64,0,0,1,6,22.58a7.56,7.56,0,0,1-2.76-.53,1.51,1.51,0,0,1-.39-.24A3.13,3.13,0,0,1,1.52,19,3.07,3.07,0,0,1,3.15,16.8a2.15,2.15,0,0,1,1-.27,2,2,0,0,1,1.95,1.8c2.4-.92,2.35-4.41,2.35-4.58a14.51,14.51,0,0,1,2.26-8.29c2-3.15,6.83-3.4,8.26-3.4h.16A8.35,8.35,0,0,1,20.44,2a73.73,73.73,0,0,1,8.3.84,39.83,39.83,0,0,0,7,.42l2.25,0a7.17,7.17,0,0,1,3-.78,10.37,10.37,0,0,0,2.14-.3A3.73,3.73,0,0,1,45,1.68a4.83,4.83,0,0,1,.85.08,1.91,1.91,0,0,1,.94-.26,2.38,2.38,0,0,1,1.87,1.09c.63.09,1.4.23,2,.34a3,3,0,0,1,2-.68,2.58,2.58,0,0,1,.5,0A1.54,1.54,0,0,1,54.3,4.08L54,5.65,54,6a6.52,6.52,0,0,1,.22,4.17,1.48,1.48,0,0,1-.24.51,6.91,6.91,0,0,0-.06.75,3.17,3.17,0,0,1-.29,2.81,2.36,2.36,0,0,1-1.1.82A3.23,3.23,0,0,1,50,16.49h0a3.35,3.35,0,0,1-2.3-1,4.36,4.36,0,0,1-1.17.16,4.2,4.2,0,0,1-.92-.1,9.23,9.23,0,0,0-.71.77,22.47,22.47,0,0,1-1.53,3,13.58,13.58,0,0,0-1,5.37l.52.25.21.13c.54.4,2,1.47,1.49,2.92s-2.32,1.47-3,1.47a17,17,0,0,1-2.2-.17l-.13,0a3.33,3.33,0,0,1-2.26-1.59,2.91,2.91,0,0,1-.36-1.39A4.29,4.29,0,0,1,36,23.87a3.9,3.9,0,0,0,0-.75l-.67.9a2.1,2.1,0,0,1,.76,1.49A2.63,2.63,0,0,1,35,27.67a1.51,1.51,0,0,1-.57.26,7.14,7.14,0,0,1-1.54.18A4.47,4.47,0,0,1,29.1,26.4c-.33-.53-.8-1.3,1-6.63a29.25,29.25,0,0,1-8.49-2.18,24.53,24.53,0,0,0-1.5,2.64c-.19.85-.53,2.29-.53,2.29a2.47,2.47,0,0,0-.07.84,4.09,4.09,0,0,1,1.84.56,1.5,1.5,0,0,1,.52.55A2.69,2.69,0,0,1,22,27.26a2.42,2.42,0,0,1-1.65,1.11,2.58,2.58,0,0,1-.43.75A3.34,3.34,0,0,1,17.18,30.21Z"/><path class="b" d="M46.8,3c.5,0,1,1,1,1,.81,0,3.45.57,3.45.57a1.55,1.55,0,0,1,1.4-.82,1.32,1.32,0,0,1,.22,0l-.39,1.84.14.94c.77,1.07.21,3.28.21,3.28-.35.13-.35,1.84-.35,1.84.65,2-.54,2.08-.74,2.08h0C51.09,14.7,50.49,15,50,15a2,2,0,0,1-1.34-.67c-.07-.44-.7-.53-.7-.53a3.05,3.05,0,0,1-1.42.36,2.41,2.41,0,0,1-1.08-.23c-.6,0-1.9,1.67-1.9,1.67a20.49,20.49,0,0,1-1.51,3,16.09,16.09,0,0,0-1.16,7.13,7.55,7.55,0,0,1,1.3.54c1.88,1.4.7,1.69-.62,1.69a15.64,15.64,0,0,1-2-.15c-1.93-.47-1.41-2-1.41-2-.7-.5-.63-1.81-.63-1.81a21.42,21.42,0,0,0-.74-4.68A51.89,51.89,0,0,1,33.48,24c-.6.47.67,1,.67,1,1.05.6-.07,1.44-.07,1.44a5.61,5.61,0,0,1-1.22.14,3,3,0,0,1-2.51-1c-.49-.8,1.83-7.26,1.83-7.26l-.85,0c-4.82,0-10.06-2.51-10.06-2.51-.78.17-2.61,3.92-2.61,3.92-.17.8-.56,2.44-.56,2.44-.56,2.58,1,2.68,1,2.68a2.82,2.82,0,0,1,1.41.34c.84,1.56-.36,1.77-1.08,1.77a3.56,3.56,0,0,1-.47,0c.3,1.52-.92,1.78-1.79,1.78a4.7,4.7,0,0,1-.81-.07H16.3c-1.44,0-1.41-1-1.41-1,0-.74-1.37-2.58-1.37-2.58-1.16-3.31.21-3.48.21-3.48.46-.54.64-4.22.64-4.22A9.33,9.33,0,0,1,14,15.15a35.29,35.29,0,0,1-1-4.22l-.67.7c-.46,6-3.31,8.14-3.31,8.14A4.15,4.15,0,0,1,6,21.08a6.1,6.1,0,0,1-2.17-.41c-1.83-1.57,0-2.54,0-2.54a.71.71,0,0,1,.33-.1c.43,0,.48.63.48.63-.53.94.88,1.34.88,1.34,4.61-.57,4.44-6.29,4.44-6.29a13,13,0,0,1,2-7.36c1.65-2.61,5.93-2.78,7-2.78h.27a6.14,6.14,0,0,1,1.18-.09,73.51,73.51,0,0,1,8.08.82,43.39,43.39,0,0,0,7.23.43c1.57,0,2.73,0,2.73,0a5.23,5.23,0,0,1,2.61-.77,12.26,12.26,0,0,0,2.67-.4A2.21,2.21,0,0,1,45,3.18a3.53,3.53,0,0,1,1.28.26c.16-.32.34-.43.51-.43m0-3a3.34,3.34,0,0,0-1.17.21,6.1,6.1,0,0,0-.62,0,5.31,5.31,0,0,0-2.37.54,8.23,8.23,0,0,1-1.56.22H41a8.73,8.73,0,0,0-3.37.78l-1.87,0a35.58,35.58,0,0,1-6.58-.36l-.18,0A75.21,75.21,0,0,0,20.44.48,10.2,10.2,0,0,0,19,.56h0c-2.08,0-7.14.4-9.54,4.11A16,16,0,0,0,7,13.76,5.46,5.46,0,0,1,6.51,16,3.35,3.35,0,0,0,4.17,15a3.66,3.66,0,0,0-1.74.45A4.53,4.53,0,0,0,0,18.86a4.61,4.61,0,0,0,1.82,4.08,3,3,0,0,0,.77.48A9,9,0,0,0,6,24.08a7.23,7.23,0,0,0,4.08-1.19,9.91,9.91,0,0,0,.63,3.16,3,3,0,0,0,.43.8,10.92,10.92,0,0,1,.81,1.26A4,4,0,0,0,13,30.35a4.38,4.38,0,0,0,3.13,1.29,7.91,7.91,0,0,0,1.06.07,4.78,4.78,0,0,0,3.9-1.64,4,4,0,0,0,.33-.46A3.82,3.82,0,0,0,23.29,28a4.14,4.14,0,0,0-.13-4.26,3,3,0,0,0-1-1.11,4.87,4.87,0,0,0-1-.45c.1-.43.23-1,.34-1.46s.47-.89.7-1.29A32.06,32.06,0,0,0,28.1,21c-1.32,4.44-.81,5.27-.31,6.08l.07.11a5.93,5.93,0,0,0,5,2.36,8.64,8.64,0,0,0,1.87-.21,3,3,0,0,0,1.14-.52l.06,0a4.91,4.91,0,0,0,2.93,1.86l.27.05a18.44,18.44,0,0,0,2.42.19c3,0,4.06-1.36,4.43-2.5s.33-2.85-2-4.6l-.1-.07A11,11,0,0,1,44.68,20a24.31,24.31,0,0,0,1.5-2.85h.35a5.86,5.86,0,0,0,.76,0A4.72,4.72,0,0,0,50,18a4.64,4.64,0,0,0,3.49-1.66,3.83,3.83,0,0,0,1.39-1.17,4.49,4.49,0,0,0,.59-3.85V11.2a3,3,0,0,0,.24-.63,8.15,8.15,0,0,0-.2-4.93l.26-1.26A3,3,0,0,0,53.4.82a4.24,4.24,0,0,0-.78-.07,4.59,4.59,0,0,0-2.28.6l-.88-.15A3.65,3.65,0,0,0,46.8,0h0Z"/></g><path class="c" d="M51.68,13.75s1.48.1.77-2.08c0,0,0-1.71.35-1.84,0,0,.56-2.21-.21-3.28l-.14-.94.39-1.84a1.58,1.58,0,0,0-1.62.8S48.58,4,47.77,4c0,0-.85-1.81-1.48-.57a2.91,2.91,0,0,0-2.53.1,12.26,12.26,0,0,1-2.67.4,5.23,5.23,0,0,0-2.61.77s-7.22.2-10-.4c0,0-7.36-1.14-9.26-.74,0,0-5.42-.23-7.32,2.78a13,13,0,0,0-2,7.36s.17,5.73-4.44,6.29c0,0-1.41-.4-.88-1.34,0,0-.07-.94-.81-.53,0,0-1.87,1,0,2.54,0,0,3.2,1.37,5.32-.9,0,0,2.85-2.18,3.31-8.14l.67-.7a35.3,35.3,0,0,0,1,4.22,9.33,9.33,0,0,0,.32,2.21s-.18,3.68-.64,4.22c0,0-1.37.17-.21,3.48,0,0,1.37,1.84,1.37,2.58,0,0,0,1,1.48,1,0,0,3.06.6,2.61-1.71,0,0,2.71.4,1.55-1.74a2.82,2.82,0,0,0-1.41-.34s-1.58-.1-1-2.68c0,0,.39-1.64.56-2.44,0,0,1.83-3.75,2.61-3.92,0,0,5.88,2.81,10.91,2.48,0,0-2.32,6.46-1.83,7.26,0,0,1,1.51,3.73.9,0,0,1.13-.84.07-1.44,0,0-1.27-.57-.67-1a51.88,51.88,0,0,0,3.31-4.72A21.42,21.42,0,0,1,37.52,24s-.07,1.31.63,1.81c0,0-.53,1.54,1.41,2,0,0,5.84.87,2.61-1.54a7.55,7.55,0,0,0-1.3-.54A16.09,16.09,0,0,1,42,18.57a20.49,20.49,0,0,0,1.51-3s1.3-1.67,1.9-1.67a2.75,2.75,0,0,0,2.5-.13s.63.1.7.53C48.65,14.31,50.2,16.16,51.68,13.75Z"/></svg>