<svg xmlns="http://www.w3.org/2000/svg" viewBox="0 0 40 22.6"><path d="M17,15.6H13.7l-.3-.5a3.3,3.3,0,0,0-1.4-1V9.8a8.6,8.6,0,0,0-.1-1.6l-.4-2.9A1.8,1.8,0,0,0,9.8,3.7H1.4c-.1,0-.2.1-.2.3v.9h.5A33.3,33.3,0,0,0,0,14.1v5.1a.7.7,0,0,0,.7.7H4.2l.5-1.7.5-1.7c.2-.5.5-1.1,1.2-1.1h4.2c.7,0,1,.6,1.1,1.1l.6,1.7.3,1H17V18h7.4a4.2,4.2,0,0,0-.4,1.5,3.1,3.1,0,1,0,6.2,0,4.2,4.2,0,0,0-.4-1.5h1.5a4.2,4.2,0,0,0-.4,1.5,3.1,3.1,0,0,0,6.2,0,3,3,0,0,0-.5-1.5H40V15.6ZM3.1,17.7H.6v-.9H3.1ZM9.5,9.9a.6.6,0,0,1-.5.6H8l-1.5.2-2.9.6-1.4.4c-.2,0-.4.1-.5-.1s-.1-.2-.1-.4a1.1,1.1,0,0,1,.1-.5l.6-2.7a13.1,13.1,0,0,1,.9-2.8H9a.5.5,0,0,1,.5.5Zm19.1,9.6a1.5,1.5,0,0,1-3,0A1.5,1.5,0,0,1,27.1,18h0A1.5,1.5,0,0,1,28.6,19.5Zm6.9,0a1.5,1.5,0,0,1-3,0A1.5,1.5,0,0,1,34,18h0A1.5,1.5,0,0,1,35.5,19.5Z"/><polygon points="38.6 1.9 38.1 2.3 38.5 3.4 38.5 4.2 18.3 4.2 16.9 1.2 13.9 0 13.6 0.7 15.3 2 15.3 6.7 13.1 6.7 13.1 12.8 15.3 14.4 40 14.4 40 7.9 40 3 38.6 1.9"/><path d="M8.5,16.5a3,3,0,0,0-3.1,3,3.1,3.1,0,0,0,6.2,0A3,3,0,0,0,8.5,16.5Zm0,4.5A1.5,1.5,0,0,1,7,19.5a1.5,1.5,0,0,1,3,0A1.5,1.5,0,0,1,8.5,21Z"/></svg>