<svg xmlns="http://www.w3.org/2000/svg" viewBox="0 0 36.1 27.6"><path d="M.6,22.3a5.3,5.3,0,0,0,5.3,5.3A5.3,5.3,0,0,0,5.9,17,5.3,5.3,0,0,0,.6,22.3Zm2.5-.1a2.7,2.7,0,0,1,2.8-2.7,2.7,2.7,0,0,1,2.7,2.7A2.8,2.8,0,0,1,5.9,25,2.8,2.8,0,0,1,3.1,22.2ZM0,16v1.2a.2.2,0,0,0,.2.2H.5v1a6.4,6.4,0,0,1,11.8,2.9h7.6a5.7,5.7,0,0,1-.1-1.3,8.9,8.9,0,0,1,8.8-8.9h.2a8.9,8.9,0,0,1,5.5,2.1v-2l-.8-.5V10l-.2-.2H31.9l-.2.2h0A14.1,14.1,0,0,0,29,9.5L27.9,1.7h.3a.5.5,0,0,0,.5-.5V.6a.6.6,0,0,0-.5-.6H15.4a.6.6,0,0,0-.6.6v.6a.6.6,0,0,0,.6.5h.4L14.7,9.1l-3,.3V6.1a.6.6,0,0,0-.5-.6h-.4a.6.6,0,0,0-.6.6V9.5c-1.9.2-2.5.2-4.1.5C1.8,10.9.5,12.7.5,15.8H.2ZM23.3,1.7h3.5l1.1,7.9H26.8l-3.5.3ZM15.4,13.5l.5-4.1V9l.8-7.3h5.4V10h-.1a3.1,3.1,0,0,0-2.2,1.8l-.7,1.7ZM21.3,20a7.4,7.4,0,1,0,7.4-7.3A7.4,7.4,0,0,0,21.3,20Zm3.5,0a3.9,3.9,0,0,1,3.9-3.8,3.8,3.8,0,1,1,0,7.6A3.9,3.9,0,0,1,24.8,20Z"/></svg>