<svg xmlns="http://www.w3.org/2000/svg" viewBox="0 0 29.53 36"><defs><style>.a{opacity:0.8;}.b,.c{fill:#fff;}.b,.d{fill-rule:evenodd;}.d{fill:#0abaff;}</style></defs><title>Asset 3</title><g class="a"><path class="b" d="M26.53,3V17.12L14.76,23,3,17.12V3L14.76,8.88ZM14.76,25.35,3,19.47v7.65L14.76,33l11.76-5.88V19.47Z"/><path class="c" d="M26.53,3V17.12L14.76,23,3,17.12V3L14.76,8.88,26.53,3m0,16.47v7.65L14.76,33,3,27.12V19.47l11.76,5.88,11.76-5.88M26.53,0a3,3,0,0,0-1.34.32L14.76,5.53,4.34.32A3,3,0,0,0,0,3V17.12a3,3,0,0,0,.24,1.18A3,3,0,0,0,0,19.47v7.65A3,3,0,0,0,1.66,29.8l11.76,5.88a3,3,0,0,0,2.68,0L27.87,29.8a3,3,0,0,0,1.66-2.68V19.47a3,3,0,0,0-.24-1.18,3,3,0,0,0,.24-1.18V3a3,3,0,0,0-3-3Z"/></g><path class="d" d="M26.53,3V17.12L14.76,23,3,17.12V3L14.76,8.88ZM14.76,25.35,3,19.47v7.65L14.76,33l11.76-5.88V19.47Z"/></svg>