<svg xmlns="http://www.w3.org/2000/svg" viewBox="0 0 32.17 29.66"><defs><style>.cls-1{fill:#1a2026;}</style></defs><g id="Layer_2" data-name="Layer 2"><g id="Layer_1-2" data-name="Layer 1"><path class="cls-1" d="M31.72,11.26a.89.89,0,0,1-.23-.7A6.81,6.81,0,0,0,30.7,6c-.26-.52-.49-.5-.89-.05-.32-.7-.42-1.55-1.44-2,.15.87.28,1.59.42,2.32a2.49,2.49,0,0,1-.52-.5,18.28,18.28,0,0,0-1.45-1.33,7.17,7.17,0,0,0-1.51-.58c0,.38.65,1.15.67,1.53,0,.07.08.13.11.2l.51,1c-.91-.15-1.83-.89-2.62-.89.18.3.38,1.08.59,1.42-.63.09-2.1,0-.58.88.07,0,0,.25,0,.31-.37.39-.76.76-1.13,1.14a5.46,5.46,0,0,1-.36.45c-.17.15-.39.38-.57.37a3.75,3.75,0,0,0-2.42.57,1.9,1.9,0,0,1-.56.3.91.91,0,0,1-.61,0c-.08,0,0-.34,0-.52s.09-.63,0-.84C17.34,8.4,16.48,7,15.47,5.64A32.61,32.61,0,0,0,12.94,3C12.22,2.3,11.54,1.52,10.8.8A2.88,2.88,0,0,0,8.52,0c.74.48,1.72,1.32,2.42,1.77-.17.14-.3.17-.39.13C9.79,1.64,9,1.31,8.28,1,7.36.68,6.44.36,5.51.07a2.94,2.94,0,0,0-.84,0L4.6.3l3,1.43a1.55,1.55,0,0,0,0,.21H4.92c0,.52.76.6.76.6A19.11,19.11,0,0,0,8,3.52c.14,0,.24.19.39.32-.69.26-1.29.47-1.88.71a2.24,2.24,0,0,0-.43.33c.12.13.22.32.36.39.35.18.81.21,1.06.46A13.61,13.61,0,0,1,8.74,7.3c-.72.28-.76.44-.32,1a1.29,1.29,0,0,0,.09.16,2.52,2.52,0,0,1,.71,2.22,3.39,3.39,0,0,1-.05,1.06,1,1,0,0,0,.17,1.14,7.36,7.36,0,0,0-.42,2,3.18,3.18,0,0,1-.05,1.34c0,.1.07.26.14.37l1.1,1.67c-.55-.12-1-.2-1.4-.32A31.73,31.73,0,0,1,5.5,16.93a13.75,13.75,0,0,1-3.6-2.52,7.36,7.36,0,0,0-1-.81c-.26.44.12,1.29.52,1.66.24.2.24.67.35,1l-.84.07c-.12,0-.76-.16-.88-.15.05.14.59.48.67.59s.4.32.37.42c-.18.73.42.73.8.95.18.1.49.34.47.38-.28.55.21.58.48.71s.78.26,1.15.44c.59.28,1.17.61,1.75.92l.91.49A14,14,0,0,0,5.5,22a1.82,1.82,0,0,0-.53.83A4.06,4.06,0,0,1,3,25.64c-.42.28-.29.69-.61,1.06s-1,.4-1,.87c.12,0,.18.19.27.14a11.54,11.54,0,0,0,2-1.1A17.79,17.79,0,0,0,5,25a6.21,6.21,0,0,1,2.9-2c.58-.15,1.15-.34,1.71-.54.37-.13.84,0,.85.42,0,.17-.25.44-.46.53-.65.3-1.35.51-2,.82a1.28,1.28,0,0,0-.56.61c-.4.85-.75,1.73-1.12,2.6-.19.42-.54.42-.9.32-.74-.19-1.63.47-2.14.92l.63,0c-.24.19-1.21.45-1.45.64a4,4,0,0,0,1.75-.15c.33-.06-.59.48-.43.47,1.4-.09,3-.74,3.47-2a2.84,2.84,0,0,1,2-2.07,13.78,13.78,0,0,0,4-1.1,6.07,6.07,0,0,0,.8-.64c.25-.19.5-.48.78-.51a6.37,6.37,0,0,1,2,0,5.16,5.16,0,0,0,3.58-.74,8.51,8.51,0,0,0,.83-.55c.18-.12.88-.41,1.06-.53.7-.22-.85-.26-1.06-.4a5.42,5.42,0,0,0-.81-.37l-.05-.21c.81-.63,1.59-1.3,2.42-1.9a18.93,18.93,0,0,1,6.21-2.7,3,3,0,0,0,.82-.4,8.44,8.44,0,0,0,2.16-2.45A1.41,1.41,0,0,0,31.72,11.26Z"/></g></g></svg>