<svg xmlns="http://www.w3.org/2000/svg" viewBox="0 0 51.75 30.32"><defs><style>.a{fill:#1a2026;}.b{opacity:0.8;}.c{fill:#fff;}.d{fill:#81bf43;}</style></defs><title>Asset 15</title><path class="a" d="M39.09.39"/><g class="b"><path class="c" d="M9.63,14a6.63,6.63,0,1,0,6.63,6.63A6.63,6.63,0,0,0,9.63,14Zm0,10.26a3.63,3.63,0,1,1,3.62-3.63A3.63,3.63,0,0,1,9.63,24.31Zm31.8-11.63a7.3,7.3,0,0,0-2.81.56l-3.72-6.5h0a.91.91,0,1,0-1.58.9h0L37,14.15a7.31,7.31,0,1,0,4.39-1.48Zm0,11.57a4.25,4.25,0,0,1-2.8-7.44l2.06,3.61h0a.85.85,0,1,0,1.47-.84h0L40.1,16a4.25,4.25,0,1,1,1.33,8.29ZM20.84,11.3a1.37,1.37,0,0,1-1.37,1.37l-7.07,0-5.95-.92h0A1.37,1.37,0,0,1,6.66,9l.21,0h0l5.84.9h6.76A1.37,1.37,0,0,1,20.84,11.3Zm0,0c0-2.32,3.2-4.58,7.78-4.58,4.12,0,4.58,1.83,4.58,2.29,0,1.08-1.37,3.66-2.75,3.66H22.22A1.34,1.34,0,0,1,20.84,11.3Zm13-5.54a.46.46,0,0,1-.46.46A.45.45,0,0,1,33,6h0L31.87,4l-2.55.61h0l-.11,0a.46.46,0,0,1-.46-.46.45.45,0,0,1,.35-.44h0L32,3h0l.11,0a.45.45,0,0,1,.39.24h0l1.3,2.31h0A.44.44,0,0,1,33.86,5.76Zm5.74.08v3.6c0,.45-.49.45-.52.45-1.57-.22-2.69-1.42-2.69-2.25s1.12-2,2.69-2.25C39.11,5.39,39.6,5.39,39.6,5.84ZM33.2,14H20.84a1.42,1.42,0,0,0,0,2.83H31.13L29,22.24H20.26l-1.53-.77-.07,0a1.39,1.39,0,0,0-.57-.12A1.41,1.41,0,0,0,17.4,24l.06,0,1.83.92.07,0a1.39,1.39,0,0,0,.57.12H30a1.4,1.4,0,0,0,1.3-.85l0-.05,3.2-8.24,0-.05A1.41,1.41,0,0,0,33.2,14Z"/><path class="c" d="M32.1,3a.45.45,0,0,1,.39.24h0l1.3,2.31h0a.44.44,0,0,1,.06.22.46.46,0,0,1-.46.46A.45.45,0,0,1,33,6h0L31.87,4l-2.55.61h0l-.11,0a.46.46,0,0,1-.46-.46.45.45,0,0,1,.35-.44h0L32,3h0l.11,0m7,2.39c.08,0,.5,0,.5.45v3.6c0,.41-.42.45-.5.45h0c-1.57-.22-2.69-1.42-2.69-2.25s1.12-2,2.69-2.25h0m-5,.88a.91.91,0,0,1,.79.46h0l3.72,6.51a7.38,7.38,0,1,1-1.58.91L33.32,7.64h0a.91.91,0,0,1,.79-1.37m7.32,14.58a.84.84,0,0,1-.73-.43h0L38.63,16.8A4.25,4.25,0,1,0,40.1,16l2.07,3.61h0a.84.84,0,0,1,.12.42.85.85,0,0,1-.85.85M28.62,6.73c4.12,0,4.58,1.83,4.58,2.29,0,1.08-1.37,3.66-2.75,3.66H22.22a1.34,1.34,0,0,1-1.37-1.37c0-2.32,3.2-4.58,7.78-4.58M6.66,9l.21,0h0l5.84.9h6.76a1.37,1.37,0,0,1,0,2.75l-7.07,0-5.95-.92h0A1.37,1.37,0,0,1,6.66,9M33.2,14a1.41,1.41,0,0,1,1.33,1.88l0,.05-3.2,8.24,0,.05a1.4,1.4,0,0,1-1.3.85H19.93a1.39,1.39,0,0,1-.57-.12l-.07,0L17.46,24l-.06,0a1.41,1.41,0,0,1,.7-2.64,1.39,1.39,0,0,1,.57.12l.07,0,1.53.77H29l2.1-5.41H20.84a1.42,1.42,0,0,1,0-2.83H33.2M9.63,14A6.63,6.63,0,1,1,3,20.68,6.63,6.63,0,0,1,9.63,14m0,10.26A3.63,3.63,0,1,0,6,20.68a3.63,3.63,0,0,0,3.62,3.63M32.1,0a3.19,3.19,0,0,0-.43,0L31.29.1l-2.88.7a3,3,0,0,0-.58.2,3.44,3.44,0,0,0-2.06,3,11.34,11.34,0,0,0-6,3H12.94L7.33,6.07,7.08,6,6.66,6a4.38,4.38,0,0,0-3.24,7.31A9.63,9.63,0,1,0,16.85,27.05l1.1.55.3.13a4.36,4.36,0,0,0,1.67.33H30a4.41,4.41,0,0,0,3.4-1.6A10.32,10.32,0,1,0,42.59,9.74q0-.15,0-.3V5.84a3.44,3.44,0,0,0-3.5-3.45l-.34,0h-.09A6.7,6.7,0,0,0,36,3.4l-.92-1.64a3,3,0,0,0-.32-.46A3.46,3.46,0,0,0,32.1,0ZM9.63,21.31a.63.63,0,1,1,.62-.63.63.63,0,0,1-.62.63Z"/></g><path class="d" d="M9.63,14a6.63,6.63,0,1,0,6.63,6.63A6.63,6.63,0,0,0,9.63,14Zm0,10.26a3.63,3.63,0,1,1,3.62-3.63A3.63,3.63,0,0,1,9.63,24.31Zm31.8-11.63a7.3,7.3,0,0,0-2.81.56l-3.72-6.5h0a.91.91,0,1,0-1.58.9h0L37,14.15a7.31,7.31,0,1,0,4.39-1.48Zm0,11.57a4.25,4.25,0,0,1-2.8-7.44l2.06,3.61h0a.85.85,0,1,0,1.47-.84h0L40.1,16a4.25,4.25,0,1,1,1.33,8.29ZM20.84,11.3a1.37,1.37,0,0,1-1.37,1.37l-7.07,0-5.95-.92h0A1.37,1.37,0,0,1,6.66,9l.21,0h0l5.84.9h6.76A1.37,1.37,0,0,1,20.84,11.3Zm0,0c0-2.32,3.2-4.58,7.78-4.58,4.12,0,4.58,1.83,4.58,2.29,0,1.08-1.37,3.66-2.75,3.66H22.22A1.34,1.34,0,0,1,20.84,11.3Zm13-5.54a.46.46,0,0,1-.46.46A.45.45,0,0,1,33,6h0L31.87,4l-2.55.61h0l-.11,0a.46.46,0,0,1-.46-.46.45.45,0,0,1,.35-.44h0L32,3h0l.11,0a.45.45,0,0,1,.39.24h0l1.3,2.31h0A.44.44,0,0,1,33.86,5.76Zm5.74.08v3.6c0,.45-.49.45-.52.45-1.57-.22-2.69-1.42-2.69-2.25s1.12-2,2.69-2.25C39.11,5.39,39.6,5.39,39.6,5.84ZM33.2,14H20.84a1.42,1.42,0,0,0,0,2.83H31.13L29,22.24H20.26l-1.53-.77-.07,0a1.39,1.39,0,0,0-.57-.12A1.41,1.41,0,0,0,17.4,24l.06,0,1.83.92.07,0a1.39,1.39,0,0,0,.57.12H30a1.4,1.4,0,0,0,1.3-.85l0-.05,3.2-8.24,0-.05A1.41,1.41,0,0,0,33.2,14Z"/></svg>