<svg xmlns="http://www.w3.org/2000/svg" width="32.6" height="32.6" viewBox="0 0 32.6 32.6">
  <title>subject-orangutan</title>
  <g id="Layer_2" data-name="Layer 2">
    <g id="Layer_1-2" data-name="Layer 1">
      <g>
        <path d="M31.3,12Z" fill="#1a2026"/>
        <path d="M3.7,26c-.1.4.1.2,0,0Z" fill="#1a2026"/>
        <path d="M32.6,10.5c-.2-1.9-2.3-6.1-4.8-6,.3-.4-.5-.4-.5-.4l-.5-.6a.4.4,0,0,1-.1.3c-.2,0-.2-.6-.4-.6l-.2.3c-.4,0-.8-.9-1.4-1s-1.2-.4-1.7-.6A7.3,7.3,0,0,1,20.7,1c0,.1-1-.3-1.3-.1S18.6.6,18.3.5L16.8,0h-1L14.6.4l-.8.3a1.2,1.2,0,0,0-.7.5c-.2.5-.3,1-.5,1.4a1.4,1.4,0,0,0-.2.6,4.3,4.3,0,0,1,.1.5c.1.3-.1.8.1,1.1s.1.2.2.2a.9.9,0,0,0-.1.7c.1.2.2.2.4.1a.4.4,0,0,0-.1.3l.4-.3c-.5.5-1.2,1.6-1,1.5s-.3,1-.7,1.2-1.7.1-2.5.4a3.4,3.4,0,0,0-1.8,1.5A4.6,4.6,0,0,0,7,11.7c-.1.2-.8,1.3-.3,1S5.8,14,6.4,14s-.9.8-.4.9-.9.7-.3.8l-.6.9c1.2-.2-1.9,2.2-2,2.2h.4c-.7.1-.5.5-.3.6s-.9.5-.4.7-.6.4-.5.7-1.5,2-.9,2.1-1.1.7-.5.7-1,.8-.4.9-.6.8-.5,1.6a.8.8,0,0,1,.4-.4,1,1,0,0,1-.1.4H.2a1.1,1.1,0,0,0,.1.5.7.7,0,0,0-.1.5c.1.4.3.7.4,1.1a6.5,6.5,0,0,0,1.1,2.2l.8.6c.3.2.5.5.8.6a3.7,3.7,0,0,0,1.8.1H6.4l.5-.5c.2-.2.2-.3.1-.6v-1c0-.2.1-.6-.1-.8s-.4,0-.5.2a.8.8,0,0,0-.4-.7H5.9c-.1,0-.2.2-.3.4a.3.3,0,0,0-.5-.1.8.8,0,0,0-.2.5H4.5l-.3.4c-.1-.1-.1-.3-.2-.5v-.6a.7.7,0,0,1-.1-.5l.9-.2.7.2H6c.4-.1-.1-.6-.2-.8a2.2,2.2,0,0,0-1.4-.3,3.7,3.7,0,0,1-1.2-.7h0c.1,0,.2-.5.4-.5s.1,0,.1.1.1-.2.2-.5.3.3.5-.3.2,1.3.5.7.2.8.4.8.2-.4.3-.4.3.9.4,1v-.4c.4.3.2,1.7.6.7s.5,1,.8,1v-.5a3.9,3.9,0,0,0,.8,1,.4.4,0,0,1,0-.5,3.6,3.6,0,0,1,.4.9c.1-.1.1-.4.1-.5a4.2,4.2,0,0,1,.4,1,1.9,1.9,0,0,0,.2-.8l.4.5V29c0,.3.4.6.5.8h.2v-.4a8.6,8.6,0,0,0,.7,1,3.6,3.6,0,0,1,.4.9,2.3,2.3,0,0,0,.7,1,1.3,1.3,0,0,0,1.2.1.6.6,0,0,0,.4-.7c.2-.1.5-.2.5-.5a.7.7,0,0,0-.1-.6,1.2,1.2,0,0,0,.5-.5,1,1,0,0,0-.2-.7.6.6,0,0,0,.1-.4.7.7,0,0,0-.1-.6h.3a3.8,3.8,0,0,0,1.5.1l.7-.3.4-.2v.2c0,.6.6.3.8,0a1,1,0,0,1,.4-.5.4.4,0,0,1,.5.1h0l-.2.4a.2.2,0,0,0-.3,0c-.2.1,0,.6.1.8h.7c-.1.2,0,.3.1.4h.4l.3.2c-.2.2-.1.4.1.5l.8.2h.7a1.8,1.8,0,0,0,.5-.8,2.9,2.9,0,0,0,.2-.9h.2c.3-.3.2-.5.4-.1a1.4,1.4,0,0,1,.2-.6c0,.1.1.2.1.3s.2-.5.2-.7l.3.3s0-.8.2-.8a.8.8,0,0,0,.1.4,1.9,1.9,0,0,1,.2-.8c0,.1.1.3.1.4s.1-1.5.3-.8.1-.5.1-.8l.2.3c.1-.3.1-.6.2-.9v.3c.2-1.1,1.1-2.8.2-3.8s-2.3-.1-3.4.1c.5-1.6-.3-3.1-.8-4.5a7.3,7.3,0,0,1-.6-2.1c.1-.5.7-.9.8-1.4l.2.3a2.2,2.2,0,0,0,.1-.8c.2.3.2.6.4.9s.1-.9.1-1.3a10.5,10.5,0,0,1,.8,1.1c-.2-.6-.1-.6,0-.9s.3.4.4.5a2.2,2.2,0,0,1-.1-.8l.5.5v-.4c.4.4.1.5.3-.1s.5.8.8.9a1.5,1.5,0,0,1-.2-.9l.4.4v-.5l.4.5a.5.5,0,0,0,0-.5c.2.2.3.4.5.5-.1-1.6.5,1.3.3-.6l.8.7v-.6c.1.1.6.9.8.9a4.3,4.3,0,0,1-.2-1.2c.2.1.3.5.5.6a1.4,1.4,0,0,0-.2-.7,3.1,3.1,0,0,1,.9,1.1,2.5,2.5,0,0,0-.2-1.2c.2,0,.5.4.7.4v-.4c0,.1.1.2.4.2V12c.1,0,.7.5.9.5a1.9,1.9,0,0,1-.3-.8c.6.4.7.7.7.1s.3.1.3.2a.8.8,0,0,1,.1-.4l.4.3c-.2-.3-.2-.5,0-.7l.2.3a2.8,2.8,0,0,0,.1-.9.8.8,0,0,1,.2.4,1.1,1.1,0,0,0,.1-.8C32.4,10.3,32.5,10.4,32.6,10.5ZM2.2,26.3Zm5.2-5.1a4.9,4.9,0,0,0-.1,1.2H6.5a4.5,4.5,0,0,1,1-1.3C7.5,21.1,7.4,21.1,7.4,21.2Zm3.5,7.5c-.1,0-.1,0-.1.1S10.8,28.7,10.9,28.7ZM18.4,7.6c0-.2-.5-1.5-.6-1l-.3-.5c0-.1-1-.7-1.3-.5s0-.4-.5,0l-.2-.3a.4.4,0,0,1-.1.3l-.3-.3c0,.1-.1.2-.1.3l-.2-.2c-.2.2-.7,0-1.2.3h.1V5.4a4.8,4.8,0,0,0,0-1.2,1.3,1.3,0,0,1,.1-.6,1.1,1.1,0,0,1,.1-.5h.4a2.1,2.1,0,0,1,1.3-.3l.6.2h.5a.8.8,0,0,0-.2.4c-.1.3,0,.9.4.6l.7-.7h.7l.5-.2c0,.3,0,1,.2,1.1V3.7c.2.3.2.7.5.8a.9.9,0,0,1,0-.7c.1,0,.2.5.3.5l.2-.3a1.8,1.8,0,0,0,.4.9c0-.2.1-.4.1-.7a2.4,2.4,0,0,0,.6,1.1c-.1-.2,0-.5,0-.7a2.8,2.8,0,0,0,.6.9V5a2.1,2.1,0,0,0,.4.6.7.7,0,0,1,.1-.5,5.2,5.2,0,0,1,.6,1.5c0-.2.1-.5.1-.7s.2.7.4.8a.9.9,0,0,1,.1-.5c.2.2.3.8.3.2s.2.5.5.2a3.5,3.5,0,0,0,.5.8C22.6,7.7,20.6,6.3,18.4,7.6Z" fill="#1a2026"/>
        <path d="M26.8,3.5Z" fill="#1a2026"/>
      </g>
    </g>
  </g>
</svg>
