<svg xmlns="http://www.w3.org/2000/svg" viewBox="0 0 37.42 44"><g id="Layer_2" data-name="Layer 2"><g id="Layer_1-2" data-name="Layer 1"><path d="M2.42,20.3c.72.72,1.81,1.1,2.1,2h0a2.81,2.81,0,0,0,.8,2.62c.83.69,1,1.49,1.87,2.05a1.18,1.18,0,0,0,1,.24c.32-.09.25.61.55.65a9.31,9.31,0,0,1,1.68.22,1.51,1.51,0,0,0,.71,0s-.43-.39-.43-.61c.27,0,.53,0,.79,0s.5.06.36-.11c-.35-.43.17-.5.65-.43h0A5.28,5.28,0,0,0,13.83,28a13.06,13.06,0,0,1,3.68,3.81c.16.28.16.49-.09.66a6.1,6.1,0,0,1-2.88,1.11,12.07,12.07,0,0,0-1.79.26,11.4,11.4,0,0,1-2.39.63A8.28,8.28,0,0,0,8,35.1a1.27,1.27,0,0,0-.9,1.14,2.86,2.86,0,0,1-.33,1.18c-.41.68-1,1.29-1.46,1.94-.18.26-.14.58-.27.79s-.21.61.23,1c0-.24.23-.66.54-.63.51,0,1.07-.42,1.51-1.05a5.71,5.71,0,0,1,.42-.41l-.09.2a.14.14,0,0,0,.18.12,1.76,1.76,0,0,0,.53-.15,1.41,1.41,0,0,0,.48-1.54c0-.21-.2-.5.11-.63.66-.27,1.23-.71,1.94-.93s1.15-.19,1.7-.39c.81-.29,1.35-.43,2.2-.66A9.71,9.71,0,0,1,16,34.86c.92-.12,1.81-.4,2.7-.48a1.42,1.42,0,0,0,1.18-2.32,27.53,27.53,0,0,1-1.41-2.38,10.33,10.33,0,0,1-1-2.65c0-.14,0-.27-.05-.41h0c.19.13.72.5.88.58.7.38,1.39.79,2.11,1.12a12.24,12.24,0,0,1,2.79,2c.53.46.68,1.25,1.2,1.66a12.28,12.28,0,0,1,2.27,2.4,23,23,0,0,1,2.2,3.52A4.78,4.78,0,0,0,30,39.67c.61.46.49,1.1.4,1.74s-1.08,1.1-1.71,1.45c-.3.16-.23.51-.53.69-.1.07-.21.17-.17.29s.19.11.31.13c.81.11,1.87-.12,2.68-.06.22,0,.33-.13.47-.3.45-.54.41-1.28.9-1.82l0-.2c.1.34.37.06.47,0,.41-.31.14-.93.08-1.4s-.42-.19-.63-.28a.56.56,0,0,1-.36-.29A5.36,5.36,0,0,0,30.75,38a31.77,31.77,0,0,1-2.43-3.87A14.31,14.31,0,0,1,27,31.73a4.26,4.26,0,0,0-1.26-1.8c-1.48-1.38-3.16-2.86-3.93-4.75a3.88,3.88,0,0,1-.21-.76A5.31,5.31,0,0,0,23.88,24a1.85,1.85,0,0,1,1.33-.17,1.65,1.65,0,0,0,1.74-.7,3.78,3.78,0,0,0,.58-1.58c0-.31.14-.45.46-.27s.48.12.47-.23.16-.32.45-.22a5.16,5.16,0,0,0,1.76.29L30,20.31a1.8,1.8,0,0,1,.71-.06c1,.09,2.33.38,3.25-.1L33.64,20a.4.4,0,0,1-.18-.28c0-.31.67-.32.88-.34s.53.15.66.11,0,0,.06-.07c.13-.43,0-.6.5-.76a1,1,0,0,1,.9,0,6,6,0,0,1,.86.55s0,0,.06,0,0,0,0-.08a2.07,2.07,0,0,0-.23-1,2.37,2.37,0,0,0-.5-.47s.14-.23.18-.32a.93.93,0,0,0,.15-.46,1,1,0,0,1-.64-.05c-.72-.23-1.35-.6-2.09-.83a6.88,6.88,0,0,0-.94-.12c-.54-.29.12-1,.12-1a2.26,2.26,0,0,0-1.35.1c-.33.17-1,.75-1.23.27a1.11,1.11,0,0,1-.17-.74s-.71.33-.8.39-.54.28-.77.41a3.53,3.53,0,0,0-1.62,1.55h0a1.41,1.41,0,0,0-.39-.34c-.15-.09-.6-.14-.61-.36s.46-.47.58-.36a1.78,1.78,0,0,0-.64-.29,5.11,5.11,0,0,0-1.11-.25,7.31,7.31,0,0,0-2.19,0l-.71.09a2.35,2.35,0,0,0-.61-.4,2.31,2.31,0,0,0-1.08,0,1.52,1.52,0,0,1-1.25-.76,2.47,2.47,0,0,1-.16-.43,2.46,2.46,0,0,0-.42.15,5.23,5.23,0,0,1-2,.36c-.75.09-.76.08-.57-.62,0,0,0-.06-.06-.07-1,.54-2.19.51-3.09,1.23a7.09,7.09,0,0,1-.88.3,6.21,6.21,0,0,1,.13-.61c.12-.45-.11-.4-.41-.29a11.41,11.41,0,0,0-1.53.94c-.39-.75-.39-.76-1-.14-.19.18-.35.38-.52.57s-.11.27-.26.18c-.49-.31-.65.14-.84.37-.44.53-.76,1.15-1.23,1.68A1.33,1.33,0,0,1,5,18.15a6.71,6.71,0,0,0-.84-.34A2,2,0,0,1,3,16.89c-1.45-2.26-1-4.35.43-6.29a27.78,27.78,0,0,0,2.09-3,6.5,6.5,0,0,0,.07-6.31C5.34.78,5.08.09,4.42,0a2.44,2.44,0,0,0-.85.08A3,3,0,0,0,1.88,1.36a.66.66,0,0,1-.45.27,2.25,2.25,0,0,0-.79.43c-.32.24-.19.38.18.37.11,0,.14.12.25.16a12.38,12.38,0,0,0,2.31.57A1.28,1.28,0,0,1,4.66,4.5a5.4,5.4,0,0,1-.28,1.73,13.6,13.6,0,0,1-2.75,4.18A6.75,6.75,0,0,0,0,14,7.68,7.68,0,0,0,2.42,20.3Z"/></g></g></svg>
