<svg xmlns="http://www.w3.org/2000/svg" width="40.4" height="22.3" viewBox="0 0 40.4 22.3">
  <title>subject-pangolin</title>
  <g id="Layer_2" data-name="Layer 2">
    <g id="Layer_1-2" data-name="Layer 1">
      <path d="M40.2,6.7ZM37.7,1c.3.1.6.3.5.5l.4.4c.3,0,.4.3.4.6s.4.3.4.6.3.4.2.6a.5.5,0,0,1,.3.5c.2.1.2.4.1.6a.5.5,0,0,1,.1.7c.3.1.4.3.2.5s.1.6,0,.8a.9.9,0,0,1,0,.7.6.6,0,0,1,.1.4l-.3.4c.3.2.1.5-.1.7a.7.7,0,0,1-.2.9h0c.3.2,0,.8-.4.9s.1.5,0,.5a.7.7,0,0,1-.4.5.8.8,0,0,1-.6.9c.1.3,0,.8-.3.9a.7.7,0,0,1-.8.6.7.7,0,0,1-.1.5l-.4.2a.9.9,0,0,1-.9.7c.1.3-.3.7-.7.7l-.2.2a.4.4,0,0,1-.5,0,.4.4,0,0,1-.6.1.4.4,0,0,1-.7.1l-.4.2a.4.4,0,0,1-.5-.1l-.3.3-.8.2H29.8a1.5,1.5,0,0,1-.6.5h-.6a.6.6,0,0,1-.3.6h0a.7.7,0,0,1-.5.8h0c.1.3-.2.6-.5.7h0a.8.8,0,0,1-.8.8h0c.1.4-.6.5-1,.5a1.1,1.1,0,0,1-1.1.2,3.9,3.9,0,0,1-3.9.1,1.8,1.8,0,0,1-.5-.7.5.5,0,0,1-.5-.3.6.6,0,0,1,.1-.8c0,.3.5.3.8.3s-.7-.4-.5-.8l.4.2c.3,0,.5-.3.8-.4a2.3,2.3,0,0,1,1.1-.3,4.8,4.8,0,0,1,1.2,0h.8a1.5,1.5,0,0,0,.4-.9,1.3,1.3,0,0,0,.1-.6h.1l-.3-.6c-.2.1-.5-.3-.5-.6s-.3-.2-.4-.2l-.3-.6H23a2,2,0,0,1-.4-.8c-.1.2-.3.1-.5,0a4.1,4.1,0,0,1-.5-.9l-.5-.2a1.6,1.6,0,0,1-.6-.8h-.1c-.2.1-.4-.1-.5-.3l-.5-.5H19c-.2-.1-.5-.2-.6-.4s-.1.2-.2.2-.3,0-.5-.1v.3a1.3,1.3,0,0,1-.7.9.6.6,0,0,1,.1.7c-.1.3-.4.4-.7.6s.1.4-.2.6l-.8.2a6.5,6.5,0,0,1-3.7,2.3,3.4,3.4,0,0,1-3.2-1c-.2-.2-.6-.5-.5-.7h.3a2.1,2.1,0,0,1-.4-.6c0-.4.3-.4.6-.3h0c-.3-.3-.6-.6-.5-1s.8.1,1.1.1-.1-.7.4-.6a1,1,0,0,1,.5.4.7.7,0,0,1,.6.2l.3.3a5.4,5.4,0,0,0,.5-1.1V12a1.9,1.9,0,0,0-1,.1s-4.1,1.1-6,2.9l-.7.6s-.7.5-1.2.2a4.7,4.7,0,0,1-1.6.3H0l.8-.2a2.5,2.5,0,0,0,1.1-.4c-.2-.1-1.2-.3-1-.9A21.5,21.5,0,0,1,3.7,9.6,15.6,15.6,0,0,1,7.6,6.4L10.3,5a11.8,11.8,0,0,0,2.6-1.8s.8-1,1.2-.9,1.4-.8,1.6-.7A4,4,0,0,1,17,1c.9-.3,1.2-.2,1.4-.1s1.9-.1,2,.1,1.5,0,1.5.1,1.8.2,1.9.3c1.7.2,1.9.4,1.9.6,1.8.3,1.8.6,1.5.7,1.8.5,1.9.8,1.8,1,1.7.9,1.6,1.4,1.5,1.6a16.2,16.2,0,0,1,2,3.2,8.4,8.4,0,0,1,.4,1,.4.4,0,0,0,.2.3.6.6,0,0,1,.5-.2.4.4,0,0,1,.5-.2c.2-.2.3-.5.6-.4a.5.5,0,0,1,.5-.3c.1-.2.2-.4.4-.4s.1-.4.4-.5.1-.6.4-.5.1-.6.4-.6-.2-.4-.1-.6-.1-.5.1-.6a.6.6,0,0,1,.1-.7c-.1-.2-.3-.4-.1-.6s-.1-.4,0-.5-.3-.5-.1-.7a.6.6,0,0,1-.2-.7.6.6,0,0,1-.1-.4h0a.8.8,0,0,1-.2-.5.7.7,0,0,1-.4-.5,1,1,0,0,1-.5-.4L34.7.3c-.2-.5.9-.3,1.2-.2s.5,0,.6.2a.7.7,0,0,1,.6.3C37.4.6,37.7.8,37.7,1Z" fill="#1a2026"/>
    </g>
  </g>
</svg>
