<svg xmlns="http://www.w3.org/2000/svg" viewBox="0 0 40 37.1"><path d="M33.2,26l-1.9-2A28.4,28.4,0,0,0,29,22.1a12.1,12.1,0,0,1-1.8-2.6,16.3,16.3,0,0,0-1.5-2.7l-1.2-1.4-1-1.2a4.7,4.7,0,0,0-2.4-1,7.1,7.1,0,0,0-2.3-.3c-1.4,0-2.2-.1-3,.4s-.3.2-2.2,1.9a6.7,6.7,0,0,0-1.3,1.3,19.1,19.1,0,0,0-1.4,2.1,16.7,16.7,0,0,1-2.1,2.8,30.7,30.7,0,0,1-3.1,3c-1.1.9-1.3,1-1.6,1.5a4.8,4.8,0,0,0-.5,3.4,5.6,5.6,0,0,0,.5,1.8,8.1,8.1,0,0,0,2.7,3.7,7.7,7.7,0,0,0,3.1,1.5,14.2,14.2,0,0,0,2.4.3l4.8.3a43.6,43.6,0,0,0,5.5.2,12.4,12.4,0,0,1,3.8-.5,12.1,12.1,0,0,0,1.9,0l2-.8a17.5,17.5,0,0,0,2.4-1.5,8.5,8.5,0,0,0,1.9-2.7,12.7,12.7,0,0,0,.4-1.4,5.5,5.5,0,0,0-.7-2.9Z"/><path d="M36.2,23a5.1,5.1,0,0,0,1.3-.9,2.8,2.8,0,0,0,1-.9,3.5,3.5,0,0,0,.9-1.1A8.3,8.3,0,0,0,40,17c0-.7,0-3.2-1.2-4.6l-1.5-1.2-1.2-.7a2.9,2.9,0,0,0-1.4.1,3.5,3.5,0,0,0-1.1.8c-.3.2-.3.4-1,1.3l-1,1.3a6.2,6.2,0,0,0-.5,2.4,9.6,9.6,0,0,0,0,2.4c.1.7.3,1.3.3,1.4a5.3,5.3,0,0,0,1,1.4C32.6,21.9,34.4,23.7,36.2,23Z"/><path d="M28.9,10.4a5.7,5.7,0,0,0,1-3.3,10.6,10.6,0,0,0-.1-1.5,15.7,15.7,0,0,0-.4-2,4.8,4.8,0,0,0-.5-1.2c-.2-.3-.5-.5-1.4-1A7.7,7.7,0,0,0,25.2.6a4.2,4.2,0,0,0-1.4.3,5.7,5.7,0,0,0-2.1,1.9,5.8,5.8,0,0,0-1.4,3.7,7.5,7.5,0,0,0,1.1,3.3,3.6,3.6,0,0,0,1.8,1.9l1,.3,1.5.5a2.7,2.7,0,0,0,1.5-.4A3.9,3.9,0,0,0,28.9,10.4Z"/><path d="M17.1,8.4a10.3,10.3,0,0,0,.2-3.9,8.5,8.5,0,0,0-.7-2.1A4.4,4.4,0,0,0,14.2.6,3.8,3.8,0,0,0,12.1,0a3.2,3.2,0,0,0-2,1.2A4.6,4.6,0,0,0,8.9,3.5a10.6,10.6,0,0,0-.2,2.4,7.3,7.3,0,0,0,.4,2.7,4.1,4.1,0,0,0,1.1,2.2,4.3,4.3,0,0,0,1.4.8l1.4.6a2.6,2.6,0,0,0,2-.3C16.4,11.1,16.9,9,17.1,8.4Z"/><path d="M7.3,14.8a5.3,5.3,0,0,0-1.5-2.5,1.9,1.9,0,0,0-1.1-.5,3.3,3.3,0,0,0-2.4-.3,2.5,2.5,0,0,0-1.5,1A8.2,8.2,0,0,0,0,16.3a9.2,9.2,0,0,0,.3,3.4,4.2,4.2,0,0,0,1.8,2.2,2.6,2.6,0,0,0,2.6.1,4,4,0,0,0,2.6-2.5,7.7,7.7,0,0,0,.2-2.9A5.8,5.8,0,0,0,7.3,14.8Z"/></svg>
