<svg xmlns="http://www.w3.org/2000/svg" viewBox="0 0 36 23.44"><defs><style>.cls-1{fill:#1a2026;}</style></defs><g id="Layer_2" data-name="Layer 2"><g id="Layer_1-2" data-name="Layer 1"><path class="cls-1" d="M3.74,7.5a2.82,2.82,0,0,1,.2-1c.22-.51.61-.9.89-.63s.17-.12.3-.27.22-.41.21-.3-.13.45-.08.36a2,2,0,0,1,.17-.31s-.08.38,0,.31,0-.13.16-.28a1.55,1.55,0,0,0,.22-.29s-.18.4-.09.31S6,4.88,6,5s-.22.49-.13.37.29-.49.29-.37-.2.41-.11.3.28-.39.3-.32-.2.39-.07.26.13-.2.24-.3.3-.36.23-.2-.3.35-.2.29.3-.34.29-.25-.33.41-.17.29.48-.45.46-.38-.31.38-.16.26.86-.63,1-.73.51-.43.44-.34-.37.39-.2.25.63-.54.5-.37-.41.37-.25.26A2.63,2.63,0,0,1,9,3.75s-.44.35-.17.2.49-.18.73-.34.7-.46.6-.34-.5.44-.29.29.64-.5.55-.36-.43.34-.22.23.64-.42.57-.32-.53.43-.23.24a14.54,14.54,0,0,1,1.8-.7A10.18,10.18,0,0,1,14.42,2a10.64,10.64,0,0,0,1.68-.34l1.38-.41C18,1.07,19.11.9,19.59.72s1-.33,1.11-.37.41-.18.24-.07-.59.3-.34.21.46-.14.6-.2.67-.25.61-.24-.48.24-.3.19A5.88,5.88,0,0,1,22.19,0c-.13.07-.51.2-.3.17A16.34,16.34,0,0,1,25,.08c.76.13,2.92.21,3.73.38a8.65,8.65,0,0,1,2.23.9c.44.26,1.54,1.07,2.39,1.48S35.79,4.37,36,5.53a5.84,5.84,0,0,1-.55,2.9c-.26.78-.51,1.1-.65,1.66a3.71,3.71,0,0,0,0,2.48,2.75,2.75,0,0,1,.42,1.87,13.13,13.13,0,0,0-.22,2,16.88,16.88,0,0,1-.06,2.35,2.45,2.45,0,0,1-.41,1.45c-.29.4-.44.44-.45.88a1.27,1.27,0,0,1-.32.88,1.29,1.29,0,0,1-1.18.4c-.5-.09-.65-.18-.45-.44s.11-.2.17-.43.14-.14.38-.32.13-.42.33-.74a5.83,5.83,0,0,1,.33-.51,1,1,0,0,0,0-.89,1.12,1.12,0,0,1,0-.73c0-.36.22-.76-.1-.41a5.92,5.92,0,0,0-.83,1c-.12.28.1.15.08.87s0,1.07-.3,1.42-.38.18-.59,0a1,1,0,0,1-.19-.76c0-.21.08-.09-.09-.47a3.23,3.23,0,0,1,0-1.55,6,6,0,0,1,.53-1.65c.32-.56.82-.93.5-1.07s-.54,0-1-.29-.43-.23-.67-.49-.53-.5-.53-.5.21.29.12.2-.35-.33-.35-.29.23.25.1.19-.31-.32-.32-.28.31.35.11.22a8.18,8.18,0,0,1-1-.88A1.47,1.47,0,0,0,27.46,13a3.29,3.29,0,0,0-.93.33s.61-.15.34-.06-.64.2-.52.19.51-.13.3-.06-.54.19-.47.21.42-.1.25,0-.42.14-.38.17.49-.12.3,0a2.82,2.82,0,0,0-.72.38,1.49,1.49,0,0,1-1,.15c-.11,0-.23-.1-.11,0s.35.2.29.18-.41-.08-.29,0,.34.09.24.11a1,1,0,0,1-.51-.08,1.41,1.41,0,0,0-.42-.12s.26.18.15.13a2.74,2.74,0,0,0-.47-.15c.07,0,.42.27.29.19s-.64-.21-.52-.15.55.26.35.2a5.23,5.23,0,0,0-.81-.06c-.22,0-.48-.08-.36,0s.47.19.32.17-.52-.13-.44-.09.35.2.23.17a1.23,1.23,0,0,0-.44-.06c-.14,0-.35,0-.29,0s.3.18.22.17-.35-.18-.26-.08a1.66,1.66,0,0,1,.23.89,8.59,8.59,0,0,1,0,1.36,2.47,2.47,0,0,0,.16,2,16.63,16.63,0,0,1,.73,1.69c.24.46.36.84.23.89s-.18-.19-.39-.32-.35,0-.24.37.31.81.08,1.1a2,2,0,0,1-1.43.74c-.63,0-.55-.29-.36-.55s.21-.35.28-.87A3.4,3.4,0,0,0,21,20.5c-.17-.51-.37-.79-.51-1.17s-.12-.6-.36-.79-.21-.27-.35-.61a5.71,5.71,0,0,0-.53-.85c-.25-.39-.36-.45-.4-.62s-.15-.39-.14-.27.08.39,0,.29a3,3,0,0,0-.21-.41c.05.12.07.43,0,.32s-.18-.43-.2-.4.09.44,0,.33A1.45,1.45,0,0,1,18.3,16c-.05-.18-.11-.42-.15-.27a2,2,0,0,1-.1.4c0-.08-.08-.43-.09-.35s-.12.34-.12.26,0-.44,0-.27-.06.45-.07.35-.06-.47-.08-.33,0,.37,0,.32-.07-.41-.09-.27-.07.53-.09.37,0-.43-.07-.33,0,.38-.05.24-.09-.6-.12-.39,0,.51-.05.38-.07-.5-.09-.33,0,.51-.06.39,0-.44-.06-.27,0,.48-.07.36,0-.45-.07-.3-.07.54-.1.38,0-.43-.05-.26,0,.38,0,.29-.06-.43-.1-.21-.06.53-.11.38-.09-.47-.11-.28.07.46,0,.33,0-.59-.11-.34,0,.5-.05.35,0-.47-.06-.35-.11.51-.13.37,0-.62,0-.47-.12.4-.12.32,0-.55,0-.32-.12.43-.13.36.07-.46,0-.27a1,1,0,0,0-.2.45c0,.24,0,.37,0,.3s0-.44,0-.36,0,.38-.07.31-.06-.44-.06-.35-.07.4-.08.34,0-.46,0-.31S15,17.09,15,17s0-.38,0-.3,0,.46-.07.3,0-.41-.06-.3-.11.52-.11.35,0-.47,0-.34-.14.46-.14.31.1-.45,0-.32-.18.43-.18.35.19-.6,0-.37a8.94,8.94,0,0,1-.6.8,10.2,10.2,0,0,1-1.42,1.48c-.55.43-.83.47-1.22,1.32a12.21,12.21,0,0,0-.79,2c-.08.37,0,.35-.31.43s-.54,0-.71.21-.34.59-1.4.55S6.81,23.3,7,23s.24-.5.53-.59.42-.08.52-.33a1.13,1.13,0,0,1,.4-.52,2.33,2.33,0,0,0,.73-.91,3.55,3.55,0,0,1,.57-1.17c.3-.32.37-.56.34-.73s-.06-.25-.27-.34-.47-.16-.43-.12.29.23.13.16-.5-.18-.42-.13.22.18.1.16-.36-.13-.27-.08.33.14.18.1-.47-.1-.39-.06.39.15.18.12-.53-.11-.41-.06.32.15.17.13a3.2,3.2,0,0,0-.44,0c.11,0,.63.11.41.14a4.91,4.91,0,0,0-.74.1A6.53,6.53,0,0,1,6.54,19a1.87,1.87,0,0,0-.84.1c-.32.12-.85.36-1.09.42s-.27.15-.44.47,0,.4-.51.41a8.18,8.18,0,0,1-1.58-.16A9.49,9.49,0,0,1,.4,19.73C.05,19.55,0,19.37,0,19s.33-.17.42-.59A5,5,0,0,1,.78,17.2c.22-.49.7-1.51.86-2s.3-1.56.43-2a2.74,2.74,0,0,0,0-1.06c0-.17-.19-.7-.12-.58s.17.3.16.22S1.86,11,2,11.15s.21.34.18.25-.24-.67-.14-.51a3.94,3.94,0,0,0,.2.34,2,2,0,0,1,0-.62,3.06,3.06,0,0,1,0-.42c0,.09,0,.36,0,.32s0-.45,0-.34.06.42.06.32,0-.6.07-.49,0,.43.05.34,0-.37.08-.63.1-.47.1-.41,0,.5,0,.32.07-.68.11-.52,0,.47,0,.31.09-.67.12-.47-.07.59,0,.33a3.67,3.67,0,0,1,.14-.55c.08-.24.14-.53.16-.47s0,.55,0,.41.08-.54.09-.44,0,.48,0,.31,0-.64,0-.51,0,.38.05.24,0-.51,0-.39.06.35.09.22,0-.64,0-.5a1.4,1.4,0,0,0,0,.24s0-.47,0-.34a1.44,1.44,0,0,1,.09.29Z"/></g></g></svg>
