<svg xmlns="http://www.w3.org/2000/svg" viewBox="0 0 31.36 41.29"><defs><style>.cls-1{fill:#1a2026;}</style></defs><g id="Layer_2" data-name="Layer 2"><g id="Layer_1-2" data-name="Layer 1"><path class="cls-1" d="M.56,17.68C1.62,14.52,6.36,6.75,7.71,4.56l-.07-.09A3.08,3.08,0,0,1,9.4,2.06C11.16,1,11.25,0,11.25,0s4,.64,4.85,4.25-1.67,7.09-2.4,7.91a7.71,7.71,0,0,0-2.07,4.73c0,2.14.73,1.58,1.94,1s4.55-.26,4.55-.26l-1.68.39a11.83,11.83,0,0,1,3.53.17,11.27,11.27,0,0,1,3.91,1.59H21.56a20.52,20.52,0,0,1,4.55,1.41c1.59.86,3.27,3.66,3.27,3.66L27,23.76a8.41,8.41,0,0,1,2.79,2.71,11.54,11.54,0,0,1,1.12,2.87l-1.5-1.28s1.29,2.66,1.76,4.08a3,3,0,0,1,.08,2.1l-.73-.47.39,1.12v.73a9.75,9.75,0,0,1-1.59-1.76,7.28,7.28,0,0,1,.65,2c-.09.39-4.73-5.2-4.73-5.2s.77,1.81.86,2.07a24.25,24.25,0,0,1-2.71-2l.77,1.41L26.58,34l.56.31,1.12,1.28s-4.3-1-5.11-1c-.36,0-1.12.09-2,.18l-.07,4.64c.61.55.61.81.65,1.11s-2.32.05-2.32.05l0-1c.64-.3.47-.73.47-.73l.1-3.94-.75,0a40.62,40.62,0,0,0-.38,5c.13,1-.26,1-1.81,1.12s-2.75.6-3.05.17-1.41-.56-1.41-.56,1.71-.3,2-.3,2-.47,2.15-.47.56-.56.56-.56l.3-4.6c-2-.47-6.49-3-8.08-5.37-2.23-3.35-4.17-6.57-3.52-9.2C7.21,14.87,8,12,9.7,10.53c1.51-1.36,2-2.75,1.71-3.51-.07.19-.16.4-.28.65-.56,1.07-2,1.2-2.54,2S2.06,17.42,1.46,18a4.4,4.4,0,0,0-.82,1.12.22.22,0,0,1-.38,0A1.1,1.1,0,0,1,0,18.62C0,18.28.56,17.68.56,17.68Zm21.21,12.7v0l.06,0Z"/></g></g></svg>