<svg xmlns="http://www.w3.org/2000/svg" viewBox="0 0 31.36 41.29"><defs><style>.cls-1{fill:#1a2026;}</style></defs><g id="Layer_2" data-name="Layer 2"><g id="Layer_1-2" data-name="Layer 1"><path class="cls-1" d="M30.8,17.68C29.74,14.52,25,6.75,23.65,4.56l.08-.09A3.07,3.07,0,0,0,22,2.06C20.2,1,20.12,0,20.12,0s-4,.64-4.86,4.25,1.68,7.09,2.41,7.91a7.76,7.76,0,0,1,2.06,4.73c0,2.14-.73,1.58-1.93,1s-4.56-.26-4.56-.26l1.68.39a11.83,11.83,0,0,0-3.53.17,11.27,11.27,0,0,0-3.91,1.59H9.8a20.52,20.52,0,0,0-4.55,1.41C3.66,22.08,2,24.88,2,24.88l2.4-1.12A8.41,8.41,0,0,0,1.6,26.47,11.54,11.54,0,0,0,.48,29.34L2,28.06S.7,30.72.22,32.14a3,3,0,0,0-.08,2.1l.73-.47L.48,34.89v.73a9.75,9.75,0,0,0,1.59-1.76,7,7,0,0,0-.64,2c.08.39,4.72-5.2,4.72-5.2s-.77,1.81-.86,2.07a24.25,24.25,0,0,0,2.71-2l-.77,1.41L4.78,34l-.56.31L3.1,35.57s4.3-1,5.12-1c.35,0,1.11.09,2,.18l.06,4.64a1.53,1.53,0,0,0-.65,1.11c-.08.3,2.32.05,2.32.05l.05-1c-.65-.3-.48-.73-.48-.73l-.1-3.94.75,0a40.62,40.62,0,0,1,.38,5c-.12,1,.26,1,1.81,1.12s2.75.6,3.05.17,1.42-.56,1.42-.56-1.72-.3-2-.3-2-.47-2.15-.47-.56-.56-.56-.56l-.3-4.6c2-.47,6.49-3,8.08-5.37,2.23-3.35,4.17-6.57,3.52-9.2-1.29-5.19-2.1-8-3.78-9.53C20.15,9.17,19.63,7.78,20,7a5.53,5.53,0,0,0,.29.65c.55,1.07,2,1.2,2.53,2S29.3,17.42,29.9,18a4.17,4.17,0,0,1,.82,1.12.23.23,0,0,0,.39,0,1.16,1.16,0,0,0,.25-.56C31.36,18.28,30.8,17.68,30.8,17.68ZM9.59,30.38v0l-.05,0Z"/></g></g></svg>