<svg xmlns="http://www.w3.org/2000/svg" viewBox="0 0 36 35.79"><defs><style>.a{opacity:0.8;}.b{fill:#fff;}.c{fill:#1a2026;}</style></defs><title>Asset 5</title><g class="a"><path class="b" d="M18.64,4.35a8.22,8.22,0,0,0-.05-.87c1.65.05,3.8.29,3.8.29a.47.47,0,1,0,0-.94s-2.2.24-3.85.29c-.09-.46-.24-.87-.52-.87s-.44.41-.52.87c-1.62,0-3.85-.29-3.85-.29a.47.47,0,1,0,0,.94s2.19-.23,3.8-.29a8.22,8.22,0,0,0-.05.86H16.6A1.75,1.75,0,0,0,14.85,6.1V8.2s-11.2,0-11.2,0a1.4,1.4,0,0,0-1.4,1.4v2.1a1.4,1.4,0,0,0,1.4,1.4l11.2,2.1A63,63,0,0,0,16.2,28L13,28.5a.86.86,0,0,0-.64.91l.17.62c.09.34.41.6,1,.6h3.32c.42,1.42,1,2.74,1,2.84a.13.13,0,0,0,.23,0l1-2.83h3.32c.6,0,.92-.26,1-.6l.17-.62A.86.86,0,0,0,23,28.5L19.8,28A63,63,0,0,0,21.15,15.2l11.2-1.4a1.4,1.4,0,0,0,1.4-1.4V9.6a1.4,1.4,0,0,0-1.4-1.4H21.15V6.1A1.74,1.74,0,0,0,19.4,4.35Z"/><path class="b" d="M18,2.25c.28,0,.44.41.52.87,1.65,0,3.85-.29,3.85-.29h.05a.47.47,0,0,1,0,.95h-.05s-2.14-.23-3.8-.29a8.22,8.22,0,0,1,.05.87h.77A1.74,1.74,0,0,1,21.15,6.1V8.2h11.2a1.4,1.4,0,0,1,1.4,1.4v2.8a1.4,1.4,0,0,1-1.4,1.4l-11.2,1.4A63,63,0,0,1,19.8,28L23,28.5a.86.86,0,0,1,.64.91l-.17.62c-.09.34-.41.6-1,.6H19.12l-1,2.83a.11.11,0,0,1-.11.07.12.12,0,0,1-.12-.07c0-.09-.56-1.41-1-2.84H13.56c-.6,0-.92-.26-1-.6l-.17-.62A.86.86,0,0,1,13,28.5L16.2,28A63,63,0,0,1,14.85,15.2L3.65,13.1a1.4,1.4,0,0,1-1.4-1.4V9.6a1.4,1.4,0,0,1,1.4-1.4h11.2V6.1A1.75,1.75,0,0,1,16.6,4.35h.77a8.22,8.22,0,0,1,.05-.86c-1.61.05-3.8.29-3.8.29h-.05a.47.47,0,0,1,0-.95h.05s2.23.24,3.85.29c.09-.46.24-.87.52-.87M18,0a2.57,2.57,0,0,0-1.85.79C15,.71,13.88.59,13.86.59l-.29,0a2.73,2.73,0,0,0-1,5.27V6H3.65A3.65,3.65,0,0,0,0,9.6v2.1a3.65,3.65,0,0,0,3.39,3.64l9.24,1.73a69.27,69.27,0,0,0,.9,9.08l-.84.12a2.25,2.25,0,0,0-.45.11,3.06,3.06,0,0,0-2,3.61l.17.62a3.14,3.14,0,0,0,3.18,2.27h1.69c.3.84.53,1.43.54,1.44a2.38,2.38,0,0,0,4.44-.13l.47-1.31h1.74a3.14,3.14,0,0,0,3.18-2.27l.17-.62a3.06,3.06,0,0,0-2-3.61,2.25,2.25,0,0,0-.45-.11l-.84-.12a69.22,69.22,0,0,0,.89-9L32.52,16A3.65,3.65,0,0,0,36,12.4V9.6A3.65,3.65,0,0,0,32.35,6h-9v-.1a2.72,2.72,0,0,0-1-5.27h-.28s-1.12.12-2.3.2A2.57,2.57,0,0,0,18,0Z"/></g><path class="c" d="M18.64,4.35a8.22,8.22,0,0,0-.05-.87c1.65.05,3.8.29,3.8.29a.47.47,0,1,0,0-.94s-2.2.24-3.85.29c-.09-.46-.24-.87-.52-.87s-.44.41-.52.87c-1.62,0-3.85-.29-3.85-.29a.47.47,0,1,0,0,.94s2.19-.23,3.8-.29a8.22,8.22,0,0,0-.05.86H16.6A1.75,1.75,0,0,0,14.85,6.1V8.2s-11.2,0-11.2,0a1.4,1.4,0,0,0-1.4,1.4v2.1a1.4,1.4,0,0,0,1.4,1.4l11.2,2.1A63,63,0,0,0,16.2,28L13,28.5a.86.86,0,0,0-.64.91l.17.62c.09.34.41.6,1,.6h3.32c.42,1.42,1,2.74,1,2.84a.13.13,0,0,0,.23,0l1-2.83h3.32c.6,0,.92-.26,1-.6l.17-.62A.86.86,0,0,0,23,28.5L19.8,28A63,63,0,0,0,21.15,15.2l11.2-1.4a1.4,1.4,0,0,0,1.4-1.4V9.6a1.4,1.4,0,0,0-1.4-1.4H21.15V6.1A1.74,1.74,0,0,0,19.4,4.35Z"/></svg>