<svg xmlns="http://www.w3.org/2000/svg" viewBox="0 0 44 22.19"><g id="Layer_2" data-name="Layer 2"><g id="Layer_1-2" data-name="Layer 1"><path d="M3.74,15.07c-.32.13-.6.27-.87.41a12.06,12.06,0,0,0,1.7,3.17,23.29,23.29,0,0,0,2.29-1.11,10.24,10.24,0,0,1-2-3.12A7.43,7.43,0,0,1,3.74,15.07Z"/><path d="M.44,16.9a1.57,1.57,0,0,0-.37,1.47c.27,1.06,1.15.87,2.75.73a2.42,2.42,0,0,0,.6-.09,8.26,8.26,0,0,1-1.65-2.94C.89,16.58.44,16.9.44,16.9Z"/><path d="M9.75,9.92c-.27.37-.64.74-1.05,1.2a7.69,7.69,0,0,0,2.2,3.53c.6-.55,1.19-1.15,1.79-1.74a8.42,8.42,0,0,1-2-4C10.35,9.24,10,9.6,9.75,9.92Z"/><path d="M5.94,13.64a7.27,7.27,0,0,0,2,3.31l.59-.37c.46-.37,1-.73,1.52-1.19A11.14,11.14,0,0,1,7.83,12,15.19,15.19,0,0,1,5.94,13.64Z"/><path d="M44,9.92a1.58,1.58,0,0,0-.41-.31,6.21,6.21,0,0,1-.63-.52,4.08,4.08,0,0,1-.86-1.31c-.17-.4-.25-.81-.38-1.22a8.91,8.91,0,0,0-.52-1.13,3.77,3.77,0,0,0-.46-.69,3.32,3.32,0,0,0-.52-.54l.06-.66s-.18-2.47-.6-2a10.73,10.73,0,0,1-1.33,1C38,1.8,37.63,1,37.43,1.35A14.64,14.64,0,0,1,36,3,63,63,0,0,1,29.35,1.2,12.66,12.66,0,0,0,20.72.42c-4.13,1.11-6.42,3.35-7.3,5.79L11.77,7.77A7.07,7.07,0,0,0,13.47,12c.23-.23.41-.46.6-.69a4.06,4.06,0,0,0,.14.51,9.79,9.79,0,0,1-1.06,4.36c-.64,1.19,1.42,4.27,2,5s3.35.46,3.26-.09-.87-.46-1.6-.87S14.66,16.53,16,16.3a7.5,7.5,0,0,0,3.9-2.84,8.18,8.18,0,0,0,.75-1.15l.85,1.06c1.52,1.19.42,4.54,1.15,5.28a10.56,10.56,0,0,0,3.9,2.24c1,.1,1.75,0,1.52-.63s-1.06-.51-1.33-.51a2.46,2.46,0,0,1-1.66-1.15c-.59-.87.74-2.16,1.15-3.31a8.72,8.72,0,0,0,.27-2.93c1.07,0,3.23-.79,3.77,1.88s2.29,4.5,3,6.47,3.81,1.56,3.81,1.1-1.65-.55-2.07-1.42-1.24-5.14-.87-6.1a3.52,3.52,0,0,1,.59-.91,5.07,5.07,0,0,0,2.72,2.47c1.6.64,1.37,1.1,1.1,1.92s-.23,1.75.36,1.75,1.43-1.75,1.43-2.48-1.2-1.84-2.16-3c-.69-.86-.05-2.08.46-2.86,0,0,.2-.33.24-.33.89.13,1.66.2,2.45.28C43.09,11.27,44.27,10.34,44,9.92Z"/></g></g></svg>
