<svg xmlns="http://www.w3.org/2000/svg" viewBox="0 0 44 22.19"><g id="Layer_2" data-name="Layer 2"><g id="Layer_1-2" data-name="Layer 1"><path d="M40.26,15.07c.32.13.6.27.87.41a12.06,12.06,0,0,1-1.7,3.17,23.29,23.29,0,0,1-2.29-1.11,10.24,10.24,0,0,0,2-3.12A7.43,7.43,0,0,0,40.26,15.07Z"/><path d="M43.56,16.9a1.57,1.57,0,0,1,.37,1.47c-.27,1.06-1.15.87-2.75.73a2.42,2.42,0,0,1-.6-.09,8.26,8.26,0,0,0,1.65-2.94C43.11,16.58,43.56,16.9,43.56,16.9Z"/><path d="M34.25,9.92c.27.37.64.74,1,1.2a7.69,7.69,0,0,1-2.2,3.53c-.6-.55-1.19-1.15-1.79-1.74a8.42,8.42,0,0,0,2-4C33.65,9.24,34,9.6,34.25,9.92Z"/><path d="M38.06,13.64a7.27,7.27,0,0,1-2,3.31l-.59-.37c-.46-.37-1-.73-1.52-1.19a11.14,11.14,0,0,0,2.2-3.4A15.19,15.19,0,0,0,38.06,13.64Z"/><path d="M.05,9.92a1.58,1.58,0,0,1,.41-.31,6.21,6.21,0,0,0,.63-.52A4.08,4.08,0,0,0,2,7.78c.17-.4.25-.81.38-1.22a8.91,8.91,0,0,1,.52-1.13,3.77,3.77,0,0,1,.46-.69,3.32,3.32,0,0,1,.52-.54l-.06-.66s.18-2.47.6-2a10.73,10.73,0,0,0,1.33,1C6,1.8,6.37,1,6.57,1.35A14.64,14.64,0,0,0,8,3,63,63,0,0,0,14.65,1.2,12.66,12.66,0,0,1,23.28.42c4.13,1.11,6.42,3.35,7.3,5.79l1.65,1.56A7.07,7.07,0,0,1,30.53,12c-.23-.23-.41-.46-.6-.69a4.06,4.06,0,0,1-.14.51,9.79,9.79,0,0,0,1.06,4.36c.64,1.19-1.42,4.27-2,5s-3.35.46-3.26-.09.87-.46,1.6-.87,2.12-3.68.78-3.91a7.5,7.5,0,0,1-3.9-2.84,8.18,8.18,0,0,1-.75-1.15l-.85,1.06c-1.52,1.19-.42,4.54-1.15,5.28a10.56,10.56,0,0,1-3.9,2.24c-1,.1-1.75,0-1.52-.63s1.06-.51,1.33-.51a2.46,2.46,0,0,0,1.66-1.15c.59-.87-.74-2.16-1.15-3.31a8.72,8.72,0,0,1-.27-2.93c-1.07,0-3.23-.79-3.77,1.88s-2.29,4.5-3,6.47-3.81,1.56-3.81,1.1S8.54,21.26,9,20.39s1.24-5.14.87-6.1a3.52,3.52,0,0,0-.59-.91,5.07,5.07,0,0,1-2.72,2.47c-1.6.64-1.37,1.1-1.1,1.92s.23,1.75-.36,1.75S3.63,17.77,3.63,17s1.2-1.84,2.16-3c.69-.86,0-2.08-.46-2.86,0,0-.2-.33-.24-.33-.89.13-1.66.2-2.45.28C.91,11.27-.27,10.34.05,9.92Z"/></g></g></svg>
