<?xml version="1.0" encoding="utf-8"?>
<!-- Generator: Adobe Illustrator 25.4.1, SVG Export Plug-In . SVG Version: 6.00 Build 0)  -->
<svg version="1.1" id="Layer_1" xmlns="http://www.w3.org/2000/svg" xmlns:xlink="http://www.w3.org/1999/xlink" x="0px" y="0px"
	 viewBox="0 0 27 40" style="enable-background:new 0 0 27 40;" xml:space="preserve">
<path d="M9.5,22.4c-0.5-0.1-1,0.1-1.1,0.6c-0.1,0.5,0.2,1.1,0.7,1.3c0.5,0.1,1-0.2,1.1-0.7c0-0.1,0-0.2,0-0.3
	C10.3,22.9,10,22.5,9.5,22.4C9.5,22.4,9.5,22.4,9.5,22.4z"/>
<path d="M13.6,22.3c-0.5,0-0.9,0.3-1,0.8c-0.1,0.3,0,0.7,0.2,0.9c0.2,0.3,0.6,0.4,1,0.3c0.4-0.1,0.7-0.6,0.6-1
	C14.4,22.8,14.1,22.4,13.6,22.3z"/>
<path d="M13.2,18.8c0.5,0.2,1-0.1,1.2-0.5c0.1-0.2,0.1-0.3,0-0.5l0,0c-0.1-0.5-0.5-0.8-1-0.9c-0.4,0.1-0.8,0.5-0.9,0.9
	C12.5,18.3,12.8,18.7,13.2,18.8z"/>
<path d="M24.9,30.8L24.9,30.8c1.3-3.1,1.9-6.4,2-9.7c0.1-1.9,0-3.9-0.3-5.8c-0.4-2.2-1-4.3-1.9-6.3C26.1,8.5,27,7.2,27,5.7
	c-0.1-1.9-1.7-3.5-3.6-3.5c-1,0-1.9,0.4-2.5,1.1l-1.8-1.5c-1.4-1-3-1.6-4.7-1.8c-1.5-0.1-2.9,0.1-4.3,0.6c-1.5,0.6-2.9,1.5-4,2.7
	C5.4,2.6,4.5,2.2,3.5,2.2C1.6,2.1-0.1,3.6-0.1,5.6C-0.2,7.1,0.7,8.5,2.2,9C2.1,9.2,2.1,9.4,2,9.6c-1.3,3-1.9,6.3-2,9.6
	c0,2.1,0.1,4.3,0.5,6.4c0.4,1.8,0.9,3.5,1.6,5.2C0.8,31.3,0,32.6,0,34c0,1.9,1.6,3.5,3.5,3.5c0.9,0,1.8-0.4,2.4-1
	c0.6,0.7,1.4,1.3,2.1,1.8c1.4,1,3.1,1.6,4.8,1.7c1.6,0.1,3.1-0.2,4.6-0.8c1.4-0.7,2.6-1.6,3.6-2.7c0.7,0.6,1.5,1,2.4,1
	c1.9,0,3.5-1.6,3.6-3.5C27,32.6,26.2,31.3,24.9,30.8z M25.5,22.7h-0.9c-0.1-0.4-0.4-0.5-0.8-0.4c-0.2,0-0.3,0.1-0.3,0.3
	c0,0.2,0.2,0.3,0.4,0.3c0.1,0,0.2,0.1,0.3,0.1c0.1,0,0.3,0,0.4,0c0.4,0,0.8,0.2,0.9,0.7c0.1,0.4-0.1,0.8-0.4,1c-0.6,0.3-1.4,0.3-2,0
	c-0.3-0.2-0.4-0.6-0.4-0.9h0.9c0.1,0.4,0.8,0.4,1,0.2c0.3-0.3-0.2-0.6-0.5-0.7c-0.3-0.1-0.7,0-1-0.2c-0.2-0.1-0.4-0.3-0.4-0.6
	c-0.1-0.4,0.1-0.8,0.4-1c0.6-0.3,1.3-0.3,1.9,0C25.3,21.9,25.5,22.3,25.5,22.7z M1.4,18.5h0.9c0.1,0.4,0.5,0.5,0.9,0.4
	c0.1-0.1,0.2-0.2,0.2-0.3c0-0.2-0.3-0.3-0.5-0.3C2.7,18.1,2.4,18,2.2,18c-0.2,0-0.5-0.1-0.6-0.3c-0.1-0.2-0.1-0.4-0.1-0.5
	c0-0.2,0-0.4,0.1-0.5c0.1-0.2,0.3-0.3,0.5-0.3c0.4-0.2,0.8-0.2,1.1-0.1c0.3,0.1,0.6,0.2,0.8,0.4c0.2,0.2,0.3,0.4,0.3,0.7
	c0,0-0.9,0-0.9,0c0,0-0.1-0.2-0.2-0.2c0-0.1-0.1-0.1-0.2-0.1c-0.2-0.1-0.8-0.1-0.8,0.3c0,0.2,0.1,0.3,0.2,0.3
	c0.6,0.1,1.4,0.3,1.7,0.8c0.2,0.3,0.1,0.6-0.1,0.9c-0.1,0.2-0.3,0.3-0.5,0.4c-0.3,0.1-0.6,0.2-1,0.2c-0.3,0-0.7-0.1-0.9-0.3
	C1.6,19.2,1.4,18.8,1.4,18.5z M6.6,16.9C6.3,17,6,17.2,6,17.6v2H5.1v-3.5H6c0,0,0,0.4,0,0.4c0-0.1,0.2-0.2,0.2-0.3
	C6.6,16,7,15.9,7.4,16c0.2,0,0.4,0.1,0.5,0.2c0.1,0.1,0.2,0.1,0.2,0.2c0,0,0.2,0.2,0.2,0.2C8.6,16.2,9.1,16,9.6,16
	c0.7-0.1,1.2,0.4,1.3,1.1v2.4H10v-1.8c0-0.6-0.4-1-1-0.8c-0.3,0.1-0.6,0.3-0.6,0.7v2H7.5c0,0,0.1-1.4,0-2C7.5,17,7.1,16.7,6.6,16.9z
	 M10.6,24.8c-0.4,0.3-1,0.4-1.5,0.3c-0.3-0.1-0.5-0.3-0.7-0.5v2.1H7.5v-5.1h0.9v0.5c0.3-0.4,0.7-0.6,1.2-0.5c0.5,0,1,0.2,1.3,0.7
	C11.3,23.1,11.2,24.1,10.6,24.8z M12.4,16.3c0.2-0.1,0.3-0.2,0.5-0.2c0.4-0.1,0.8,0,1.1,0.2c0.1,0.1,0.3,0.2,0.4,0.3v-0.5h0.8v3.5
	h-0.8v-0.5h-0.1c-0.4,0.6-1.2,0.8-1.8,0.4c0,0-0.1,0-0.1-0.1c-0.3-0.3-0.6-0.5-0.7-0.9c-0.1-0.4-0.2-0.7-0.1-1.1
	C11.7,16.9,12,16.5,12.4,16.3z M15.3,25.1h-0.9v-0.5l0,0c-0.4,0.6-1.3,0.8-1.9,0.4c-0.3-0.2-0.5-0.5-0.6-0.8
	c-0.3-0.7-0.3-1.6,0.2-2.2c0.7-0.6,1.6-0.6,2.3,0l0,0v-0.5h0.9V25.1z M16.1,16.1H17v0.5c0.2-0.3,0.6-0.5,1-0.5V17h-0.2
	c-0.5,0-0.8,0.2-0.8,0.8v1.8h-0.9V16.1z M18.1,22.4h-0.2c-0.6,0.1-0.8,0.3-0.8,0.9v1.8h-0.9v-3.5h0.9v0.5c0.2-0.3,0.6-0.5,1-0.5
	V22.4z M18.6,16.2H19v-0.8h0.9v0.8h0.7v0.7h-0.7v1.7c0,0.3,0.1,0.3,0.3,0.4h0.5v0.7h-0.9c-0.5-0.1-0.9-0.5-0.8-1c0,0,0,0,0,0v-1.9
	h-0.4V16.2z M19.8,25.1h-0.9v-4.7h0.9V23h0.1l1-1.2h1.2l-1.5,1.8l1.5,1.7h-0.7c-0.3,0-0.5-0.1-0.7-0.3l-0.8-1h-0.1V25.1z"/>
</svg>
