<svg xmlns="http://www.w3.org/2000/svg" viewBox="0 0 22 34.94"><defs><style>.a{opacity:0.8;}.b{fill:#fff;}.c{fill:#1a2026;}</style></defs><title>Asset 2</title><g class="a"><path class="b" d="M17.13,3a1.73,1.73,0,0,0-1.87,1.54v7.18a11.85,11.85,0,0,0-2.09-.18H8.82V9.91A1.73,1.73,0,0,0,7,8.36,1.73,1.73,0,0,0,5.08,9.91v2.26C3.81,12.67,3,13.42,3,14.25v15c0,1.5,2.61,2.72,5.82,2.72h4.36c3.21,0,5.82-1.22,5.82-2.72V4.54A1.73,1.73,0,0,0,17.13,3ZM11,15.63a.78.78,0,1,1-.78.78A.78.78,0,0,1,11,15.63Zm-3.07,0a.78.78,0,1,1-.78.78A.78.78,0,0,1,7.93,15.63Zm6.91,5.76H7.16V18.73h7.69Zm-.78-4.21a.78.78,0,1,1,.78-.78A.78.78,0,0,1,14.07,17.18Z"/><path class="b" d="M17.13,3A1.73,1.73,0,0,1,19,4.54V29.22c0,1.5-2.61,2.72-5.82,2.72H8.82C5.61,31.94,3,30.72,3,29.22v-15c0-.84.81-1.58,2.08-2.08V9.91A1.73,1.73,0,0,1,7,8.36,1.73,1.73,0,0,1,8.82,9.91v1.63h4.36a11.85,11.85,0,0,1,2.09.18V4.54A1.73,1.73,0,0,1,17.13,3M14.07,17.18a.78.78,0,1,0-.78-.78.78.78,0,0,0,.78.78m-3.07,0a.78.78,0,1,0-.78-.78.78.78,0,0,0,.78.78m-3.07,0a.78.78,0,1,0-.78-.78.78.78,0,0,0,.78.78m-.78,4.21h7.69V18.73H7.16v2.66M17.13,0a4.72,4.72,0,0,0-4.87,4.54v4h-.68A4.85,4.85,0,0,0,7,5.36,4.72,4.72,0,0,0,2.08,9.91v.5A4.76,4.76,0,0,0,0,14.25v15c0,3.37,3.63,5.72,8.82,5.72h4.36c5.19,0,8.82-2.35,8.82-5.72V4.54A4.72,4.72,0,0,0,17.13,0Z"/></g><path class="c" d="M17.13,3a1.73,1.73,0,0,0-1.87,1.54v7.18a11.85,11.85,0,0,0-2.09-.18H8.82V9.91A1.73,1.73,0,0,0,7,8.36,1.73,1.73,0,0,0,5.08,9.91v2.26C3.81,12.67,3,13.42,3,14.25v15c0,1.5,2.61,2.72,5.82,2.72h4.36c3.21,0,5.82-1.22,5.82-2.72V4.54A1.73,1.73,0,0,0,17.13,3ZM11,15.63a.78.78,0,1,1-.78.78A.78.78,0,0,1,11,15.63Zm-3.07,0a.78.78,0,1,1-.78.78A.78.78,0,0,1,7.93,15.63Zm6.91,5.76H7.16V18.73h7.69Zm-.78-4.21a.78.78,0,1,1,.78-.78A.78.78,0,0,1,14.07,17.18Z"/></svg>