<svg xmlns="http://www.w3.org/2000/svg" viewBox="0 0 24.75 21.79"><defs><style>.a{opacity:0.8;}.b{fill:#fff;}.c{fill:#1a2026;}</style></defs><title>Asset 180</title><g class="a"><path class="b" d="M5.87,20.29A2.35,2.35,0,0,1,3.5,17.85V14.39a2.39,2.39,0,0,1,.69-1.76l.09-.08,6.49-5.41a2.46,2.46,0,0,1,3.35,0l6.46,5.41.1.09a2.48,2.48,0,0,1,.77,1.75v3.46a2.51,2.51,0,0,1-2.57,2.44Z"/><path class="b" d="M12.44,8a1,1,0,0,1,.68.28l6.5,5.44a1,1,0,0,1,.33.69v3.46a1,1,0,0,1-1.07.94h-13A.86.86,0,0,1,5,17.85V14.39a.93.93,0,0,1,.24-.69l6.53-5.44A1,1,0,0,1,12.44,8m0-3h0A3.94,3.94,0,0,0,9.78,6L3.32,11.39l-.18.17A3.85,3.85,0,0,0,2,14.39v3.46a3.86,3.86,0,0,0,3.87,3.94h13a4,4,0,0,0,4.07-3.94V14.39a4,4,0,0,0-1.21-2.81l-.19-.18L15.11,6a3.93,3.93,0,0,0-2.67-1Z"/><path class="b" d="M20.78,13.3a2.45,2.45,0,0,1-1.7-.68L12.42,6.86,5.66,12.63A2.47,2.47,0,0,1,2.24,9.06L2.32,9l7.63-6.5a3.62,3.62,0,0,1,5,0L22.45,9l.08.07a2.47,2.47,0,0,1-1.74,4.22Z"/><path class="b" d="M12.43,3a2.1,2.1,0,0,1,1.49.61l7.55,6.53a1,1,0,0,1-1.37,1.37L12.54,5a.17.17,0,0,0-.23,0L4.65,11.52a1,1,0,1,1-1.36-1.39L11,3.6A2.1,2.1,0,0,1,12.43,3m0-3A5.08,5.08,0,0,0,8.94,1.37L1.34,7.85,1.19,8a4,4,0,0,0,5.46,5.76l5.76-4.91,5.66,4.9A4,4,0,0,0,23.58,8l-.16-.14L15.94,1.4A5.07,5.07,0,0,0,12.43,0Z"/></g><path class="c" d="M18.88,18.79h-13A.86.86,0,0,1,5,17.85V14.39a.93.93,0,0,1,.24-.69l6.53-5.44a1,1,0,0,1,1.35,0l6.5,5.44a1,1,0,0,1,.33.69v3.46A1,1,0,0,1,18.88,18.79Z"/><path class="c" d="M20.78,11.8a1,1,0,0,1-.69-.28L12.54,5a.17.17,0,0,0-.23,0L4.65,11.52a1,1,0,0,1-1.36-1.39L11,3.6a2.11,2.11,0,0,1,3,0l7.55,6.53a1,1,0,0,1-.69,1.66Z"/></svg>