<svg id="Layer_1" data-name="Layer 1" xmlns="http://www.w3.org/2000/svg" viewBox="0 0 60 60"><defs><style>.cls-1{opacity:0.8;}.cls-2{fill:#81bf43;fill-rule:evenodd;}.cls-3{fill:#fff;}</style></defs><title>DAS map icons</title><g class="cls-1"><path class="cls-2" d="M41.76,15V29.12L30,35,18.24,29.12V15L30,20.88ZM30,37.35L18.24,31.47v7.65L30,45l11.76-5.88V31.47Z"/><path class="cls-3" d="M41.76,15V29.12L30,35,18.24,29.12V15L30,20.88,41.76,15m0,16.47v7.65L30,45,18.24,39.12V31.47L30,37.35l11.76-5.88m0-19.47a3,3,0,0,0-1.34.32L30,17.53,19.58,12.32A3,3,0,0,0,15.24,15V29.12a3,3,0,0,0,.24,1.18,3,3,0,0,0-.24,1.18v7.65a3,3,0,0,0,1.66,2.68l11.76,5.88a3,3,0,0,0,2.68,0L43.11,41.8a3,3,0,0,0,1.66-2.68V31.47a3,3,0,0,0-.24-1.18,3,3,0,0,0,.24-1.18V15a3,3,0,0,0-3-3h0Z"/></g><path class="cls-2" d="M41.76,15V29.12L30,35,18.24,29.12V15L30,20.88ZM30,37.35L18.24,31.47v7.65L30,45l11.76-5.88V31.47Z"/></svg>