<svg xmlns="http://www.w3.org/2000/svg" viewBox="0 0 51 30"><defs><style>.a,.b{fill:#fff;}.b{opacity:0.8;}.c{fill:#5a6066;}</style></defs><title>Asset 8</title><path class="a" d="M17.69,18.74H5.25c-.63,0-.73-.58-.83-1.05L3.06,10.88A2.06,2.06,0,0,1,3,10.49a.8.8,0,0,1,.85-.75H26.36a1.13,1.13,0,0,0,.33,0s.07-.07.1-.09l.38-.38L31,5.39l.15-.15-.71-.71c-.3-.3-.62-.62-.42-1.09a.76.76,0,0,1,1.24-.22l.47.47,1.78,1.78.63.63a.82.82,0,0,1,.27.91.76.76,0,0,1-.93.44,1.19,1.19,0,0,1-.46-.34l-.81-.81-3,3-.43.43h18.3a.79.79,0,0,1,.88.63,3.06,3.06,0,0,1,0,.71q0,.34-.09.69a7.17,7.17,0,0,1-.38,1.32,8.6,8.6,0,0,1-3.64,4.15,11,11,0,0,1-5.62,1.51H19.9c-.18,0-.3.21-.42.34C19,19.53,18,20.52,18,20.56a1.05,1.05,0,0,0,0,.29q0,.19,0,.38a8.2,8.2,0,0,1-.35,1.51,7.46,7.46,0,0,1-1.49,2.63,4.82,4.82,0,0,1-2.36,1.5c-.44.11-1.09.26-1.47-.07-.15-.13-1.46-1.43-1.58-1.59-.31-.38-.16-1,0-1.47a4.32,4.32,0,0,1,.57-1.27,7.19,7.19,0,0,1,5.06-2.91l.38,0a1.06,1.06,0,0,0,.29,0c.08,0,.16-.16.22-.22Z"/><path class="b" d="M30.74,3a.81.81,0,0,1,.56.23l.47.47,1.78,1.78.63.63a.82.82,0,0,1,.27.91.76.76,0,0,1-.7.48.73.73,0,0,1-.23,0,1.19,1.19,0,0,1-.46-.34l-.81-.81-3,3-.43.43h18.3a.79.79,0,0,1,.88.63,3.06,3.06,0,0,1,0,.71q0,.34-.09.69a7.17,7.17,0,0,1-.38,1.32,8.6,8.6,0,0,1-3.64,4.15,11,11,0,0,1-5.62,1.51H19.9c-.18,0-.3.21-.42.34C19,19.53,18,20.52,18,20.56a1.05,1.05,0,0,0,0,.29q0,.19,0,.38a8.2,8.2,0,0,1-.35,1.51,7.46,7.46,0,0,1-1.49,2.63,4.82,4.82,0,0,1-2.36,1.5,3.51,3.51,0,0,1-.83.13,1,1,0,0,1-.64-.2c-.15-.13-1.46-1.43-1.58-1.59-.31-.38-.16-1,0-1.47a4.32,4.32,0,0,1,.57-1.27,7.19,7.19,0,0,1,5.06-2.91l.38,0h.14a.39.39,0,0,0,.15,0c.08,0,.16-.16.22-.22l.54-.54H5.25c-.63,0-.73-.58-.83-1.05L3.06,10.88A2.06,2.06,0,0,1,3,10.49a.8.8,0,0,1,.85-.75H26.68s.07-.07.1-.09l.38-.38L31,5.39l.15-.15-.71-.71c-.3-.3-.62-.62-.42-1.09A.72.72,0,0,1,30.74,3m0-3A3.73,3.73,0,0,0,27.3,2.27,3.54,3.54,0,0,0,27.22,5L25.45,6.74H3.85A3.8,3.8,0,0,0,0,10.49a4.25,4.25,0,0,0,.11.94l1,4.83.4,2c.62,3.1,2.82,3.46,3.74,3.47h3A7.14,7.14,0,0,0,7.72,23a4.56,4.56,0,0,0,.62,4.11c.28.34,1.74,1.78,1.94,2a3.89,3.89,0,0,0,2.6.93,6.29,6.29,0,0,0,1.56-.22,7.78,7.78,0,0,0,3.86-2.4,10.37,10.37,0,0,0,2.11-3.69,11.26,11.26,0,0,0,.43-1.76l.16-.16,0,0h17.2a14,14,0,0,0,7.15-1.93,11.61,11.61,0,0,0,4.9-5.63,10.19,10.19,0,0,0,.53-1.87c.06-.32.1-.65.13-1v-.08a5.34,5.34,0,0,0,0-1.35,3.77,3.77,0,0,0-3.84-3.17H37.5A3.91,3.91,0,0,0,36.29,4l-.63-.63-.89-.89-.89-.89-.14-.14-.37-.37A3.79,3.79,0,0,0,30.74,0Z"/><path class="c" d="M17.69,18.74H5.25c-.63,0-.73-.58-.83-1.05L3.06,10.88A2.06,2.06,0,0,1,3,10.49a.8.8,0,0,1,.85-.75H26.36a1.13,1.13,0,0,0,.33,0s.07-.07.1-.09l.38-.38L31,5.39l.15-.15-.71-.71c-.3-.3-.62-.62-.42-1.09a.76.76,0,0,1,1.24-.22l.47.47,1.78,1.78.63.63a.82.82,0,0,1,.27.91.76.76,0,0,1-.93.44,1.19,1.19,0,0,1-.46-.34l-.81-.81-3,3-.43.43h18.3a.79.79,0,0,1,.88.63,3.06,3.06,0,0,1,0,.71q0,.34-.09.69a7.17,7.17,0,0,1-.38,1.32,8.6,8.6,0,0,1-3.64,4.15,11,11,0,0,1-5.62,1.51H19.9c-.18,0-.3.21-.42.34C19,19.53,18,20.52,18,20.56a1.05,1.05,0,0,0,0,.29q0,.19,0,.38a8.2,8.2,0,0,1-.35,1.51,7.46,7.46,0,0,1-1.49,2.63,4.82,4.82,0,0,1-2.36,1.5c-.44.11-1.09.26-1.47-.07-.15-.13-1.46-1.43-1.58-1.59-.31-.38-.16-1,0-1.47a4.32,4.32,0,0,1,.57-1.27,7.19,7.19,0,0,1,5.06-2.91l.38,0a1.06,1.06,0,0,0,.29,0c.08,0,.16-.16.22-.22Z"/></svg>