<svg xmlns="http://www.w3.org/2000/svg" viewBox="0 0 32 36.08"><defs><style>.cls-1{fill:#1a2026;}</style></defs><g id="Layer_2" data-name="Layer 2"><g id="Layer_1-2" data-name="Layer 1"><path class="cls-1" d="M.74,13.91c1.39-.69,2.64-1.37,3.94-2a.9.9,0,0,0,0-.37,3,3,0,0,0-1.22-.68c-.23-.13-.5-.13-.72-.26-.52-.09-.8-.75-1.34-.75a2.44,2.44,0,0,1-1.21-2C.31,7.24,0,6.77,0,6.24c.17-.39,0-.81.21-1.15A5.29,5.29,0,0,0,.6,7.35a2.85,2.85,0,0,0,.83,1.73c.1,0,.18.1.26,0a3.44,3.44,0,0,0,.25-1.65,7.44,7.44,0,0,1-.46-1.3c0-.21,0-.48.12-.61.1.13,0,.36.14.45.25-.32.11-.72.2-1,.29-1.29.9-2.47,1.09-3.72.14-.13.05-.37.26-.44a19.45,19.45,0,0,1-.42,2.38c-.1.51-.34.91-.42,1.42a4.89,4.89,0,0,0,.1,2.91.4.4,0,0,0,.3-.06,1.88,1.88,0,0,0,.9-.62,6.4,6.4,0,0,0,.65-1,14.88,14.88,0,0,1,.87-2.15c0,.94-.58,1.85-.7,2.77-.16.31-.47.55-.46.93.35.27.51.84,1,.83.12,0,.19-.11.29,0s0,.08,0,.12a1.64,1.64,0,0,1-.58.06c-.51,0-.82-.6-1.34-.5-.18.18-.47.14-.62.36A24.75,24.75,0,0,0,5.5,10.92c.23,0,.48,0,.58.23.37-.06.41-.36.71-.43.08-.29-.1-.54-.13-.82a5.9,5.9,0,0,1,.36-3c.15-.42.42-.78.58-1.19A2.71,2.71,0,0,0,8,4.52c.08,0,0,.1.08.13,0,1-.59,1.82-.88,2.74,0,.33-.14.63-.15,1a3.31,3.31,0,0,0,.34,2c.28.22.5-.16.79-.13a2.21,2.21,0,0,0,1-1.08A26.1,26.1,0,0,0,9.74,6.3c0-.73.07-1.44,0-2.11.07,0,.06.12.1.17a10.24,10.24,0,0,1,0,2.82A9.46,9.46,0,0,1,9.35,9.9a6.42,6.42,0,0,0,2-.55,2,2,0,0,0,1.22-1.22,26.47,26.47,0,0,0,.35-3.83c0-.55-.09-1.09-.07-1.62,0,0,.07,0,.11,0a32.4,32.4,0,0,1,.33,3.9c-.1.49-.14,1-.23,1.46,0,0,0,.13.09.13a7.42,7.42,0,0,0,1.08-1.44,6.25,6.25,0,0,0,1.17-2.22c.06-.16,0-.39.11-.53a18.73,18.73,0,0,0-.31-3.9L15.28,0c.22.08.11.36.25.49.19.89.39,1.76.64,2.61a6.64,6.64,0,0,1-.06,1.78c0,.08.11.08.17.09A8.24,8.24,0,0,0,17,3.26.77.77,0,0,1,17,4c0,.42-.27.85-.3,1.23a.22.22,0,0,0,.23.15c.34-.39.37-.94.68-1.29.23.16-.08.32,0,.52-.21.48-.15,1-.48,1.45A1.61,1.61,0,0,1,16,6.4a13.82,13.82,0,0,0-2.34,2.43c-.23.24-.52.35-.74.57-1.4.94-3,1.15-4.64,1.76-.09,0-.23.11-.25.22s.17.1.25.14c.24-.18.52-.27.76-.44,0,.14.2.15.23.26s.3,0,.37.13a4.49,4.49,0,0,0-.31.67,1.43,1.43,0,0,1-.65.5c0,.29.29.46.42.69.3.23.31.78.77.76.29.24.75.12,1.08.26s.73-.07,1.13,0a6.27,6.27,0,0,1,2.24.31c.25.12.5.24.76.34a9.27,9.27,0,0,0,1.18.3,14.55,14.55,0,0,0,2.64,0,33.31,33.31,0,0,1,3.88.7c1.13.07,2.28.2,3.38.2a6.21,6.21,0,0,1,1.16.33c.37,0,.59.38.93.46a6.62,6.62,0,0,1,.89.87A9.66,9.66,0,0,1,30.23,20a4.46,4.46,0,0,1-.11,1.55,12.4,12.4,0,0,1-.42,1.26c-.1,1-.08,2-.12,3.05a2.68,2.68,0,0,0,.59,2c.34.57.91.93,1.27,1.52,0,1,.25,2,.18,3a1.67,1.67,0,0,1,.16.76c.07,0,0,.2.13.13A2.39,2.39,0,0,1,32,34c-.05.25-.33.28-.54.32a.29.29,0,0,0-.2.28c-.08.37.23.82-.16,1a.83.83,0,0,1-.69.4c-.32-.1-.69.13-1-.1.33-1.05,1.34-1.89,1.34-3a5.29,5.29,0,0,0-.46-2.55,9.07,9.07,0,0,0-.71-1,7.57,7.57,0,0,0-1.39-1.28.18.18,0,0,0-.08.13c.1.33.31.72.44,1,.33.42-.18.72-.3,1.06a5.62,5.62,0,0,0-.61,1c-.17.6-.35,1.14-.53,1.75-.31.34-.82.3-1.05.72,0,.2-.09.46.14.58.07.3-.16.54-.34.75a2.22,2.22,0,0,1-1.7.11c.05-.32.35-.51.33-.83.28-.5.89-.78,1.11-1.31A20.83,20.83,0,0,0,27,29.91c-.56-1.33-1.4-2.6-1.85-4-.09-.19-.2-.48-.49-.41a12.72,12.72,0,0,0-1.89.64c-.32,0-.58.22-.94.15s-.5-.18-.73-.32a4.19,4.19,0,0,0-1.58-.4c-1-.17-2-.3-3-.48a.3.3,0,0,0-.17.27,1.06,1.06,0,0,1-.68.25c-.33.22-.94.12-1,.66s-.23,1.34-.33,2c.08,1-.13,1.94,0,2.92A26.57,26.57,0,0,0,14.71,34c-.16,0,0,.13-.14.12a8.6,8.6,0,0,1-.05,1.44c-.18,0-.18.27-.36.32a.75.75,0,0,1-.66.14c-.25,0-.56.12-.78,0a6.07,6.07,0,0,1,.62-1.44.79.79,0,0,1-.5-.11v-.28a5.32,5.32,0,0,0-1.12-1.6c0-.42-.19-.73-.14-1.16a16.16,16.16,0,0,0-1-3,2.46,2.46,0,0,1,.14-1.59,6.07,6.07,0,0,0,1.54-1.49c.11-.3-.25-.28-.34-.5a3.28,3.28,0,0,0-1.05-.94c-.27.05-.43-.28-.7-.24-.58-.69-1.11-1.31-1.6-2-.26-.41-.39-.93-.68-1.32-.08.05-.19.11-.21.21s-.21-.21-.36-.09c-.43-.2-.61-.65-.94-.88a7.39,7.39,0,0,1-.84-1.93L5.08,17c-.18-.33.42-.33.19-.66-.65,0-1.23-.57-1.9-.5a3,3,0,0,1-.79,0c-.33-.18-.55.2-.84.25s-.73.1-1-.18c-.06-.33-.41-.44-.62-.6L0,14.72A1.34,1.34,0,0,1,.74,13.91ZM2.62,8.64c-.2.06,0,.37-.2.5a.67.67,0,0,0,.07.55,4.58,4.58,0,0,0,1.32.37A6.8,6.8,0,0,0,2.62,8.64ZM12.2,27.48a3.22,3.22,0,0,0-.42,1.29c.21,1,.31,2,.62,3,.16.39.55.47.89.66-.13.28.16.4.32.55s.07,0,.1,0a2.35,2.35,0,0,0-.1-1.09c-.16-.49-.09-1.07-.41-1.48a2.94,2.94,0,0,1-.2-1.41,5.46,5.46,0,0,0,0-1.89A1.89,1.89,0,0,0,12.2,27.48Z"/></g></g></svg>