<svg xmlns="http://www.w3.org/2000/svg" viewBox="0 0 30.67 27.86"><defs><style>.cls-1{fill:#1a2026;}</style></defs><g id="Layer_2" data-name="Layer 2"><g id="Layer_1-2" data-name="Layer 1"><path class="cls-1" d="M30.63,6.85c-.05-.14-.15-.12-.24-.22s-.42-.34-.88-.73-1-.35-1.1-.84a3.24,3.24,0,0,0-1.85-1.54c-.74-.19-.78-.14-.84-.51a3.66,3.66,0,0,0-.28-1.69C25,.38,24.21-.11,23.72,0s-.32,1-.39,1.54a2.56,2.56,0,0,0,.6,1.79,8.38,8.38,0,0,0-2.71-1.3c-.36-.47-.69-.63-.82-.54s.47,1.15.7,1.61A8.46,8.46,0,0,0,22,4.52a3.23,3.23,0,0,0,1.31.22.31.31,0,0,1,.28.11c0,.07,0,.12,0,.1s-.25,1-.46,1.73-1,2.14-1.66,2.37-2.3-.29-3.64-.23-3.39.17-4.27.11-3.18-.46-4-.59A28.23,28.23,0,0,0,6.14,8,5,5,0,0,0,3.4,8.7h0l-.29.07c-.07,0-.23.05-.41.11L2.39,9,2.33,9l-.18.07-.09.06a2.39,2.39,0,0,0-.44.3c-.11.1-.18.18-.17.19l.2-.15.06,0-.06.07a1.48,1.48,0,0,0-.3.41s.08-.06.19-.17l-.1.15-.27.42-.23.39c-.07.1-.11.16-.1.17L1,10.74l0,0v0c0,.06,0,.13-.05.2l-.07.19c0,.13-.08.25-.1.34S.7,11.73.66,12s-.09.49-.12.74a4.56,4.56,0,0,0-.06,1,.15.15,0,0,0,0-.06c0,.05,0,.09,0,.12A1.25,1.25,0,0,0,.56,14c0,.12.07.26.11.39l.1.34a.71.71,0,0,0,0,.15.36.36,0,0,0,0-.16,1.12,1.12,0,0,0,0-.24l.14.34A1.67,1.67,0,0,1,1,15c0,.07,0,.11,0,.11A.28.28,0,0,0,1,15a.6.6,0,0,0,0-.19v0a1.39,1.39,0,0,1,.05.23c0,.07,0,.11,0,.11s0,0,0-.1a1.13,1.13,0,0,0,0-.26,2,2,0,0,0-.06-.28,2.31,2.31,0,0,0,.17.34,1.47,1.47,0,0,0-.09-.42v0s.07.11.11.15v.07c0,.08,0,.14,0,.14s0,0,0-.13,0,0,.05,0,0,0,0-.11a.61.61,0,0,0,0-.14l0,0s0,0,0-.11v0c0-.13,0-.27,0-.39h0a1.88,1.88,0,0,0,.12.45s0-.25,0-.52a1.7,1.7,0,0,1,0-.22v.07c0,.14,0,.26.05.36s0,.15,0,.15,0-.06,0-.15a2.27,2.27,0,0,0,0-.37,2.09,2.09,0,0,0,0-.25l0,.06a2.3,2.3,0,0,0,0-.49c0,.08.06.13.07.12s0-.16,0-.34v0c0,.07.06.11.07.1s0-.05,0-.12,0-.17,0-.27l0-.08,0,0,.08.08a.62.62,0,0,0,0-.11.9.9,0,0,1-.05-.22h0q0,.09.06.09s0,0,0-.1,0-.14,0-.22,0-.28,0-.36,0,0,0,.08a.7.7,0,0,0,.07.33s0-.16,0-.33,0-.09,0-.13,0,.16,0,.15a1.14,1.14,0,0,0,.05-.32.31.31,0,0,1,0-.1v.2a1.06,1.06,0,0,0,0,.3.87.87,0,0,0,.08-.29s0-.08,0-.12v0c0,.07,0,.15,0,.23a1.67,1.67,0,0,0,0,.38.84.84,0,0,0,.1-.27A.45.45,0,0,1,2,12c0,.11,0,.22,0,.3s0,.13,0,.13,0-.05,0-.13a.36.36,0,0,0,0-.11.14.14,0,0,1,0,.06,2.5,2.5,0,0,0,0,.36.25.25,0,0,0,0-.06.39.39,0,0,0,0,.12s0-.05,0-.14l0-.1v0c0,.1,0,.2,0,.27s0,.12,0,.13.05,0,.08-.12l0-.11h0v.06c0,.13,0,.26,0,.36s0,.15,0,.15,0,0,.07-.14,0-.14.06-.22V13h0v.06l0,.11s0,0,.07-.08l0,0a.75.75,0,0,1,0,.15c0,.09,0,.15,0,.15s0,0,.07-.11v.15c0,.14,0,.26,0,.27a.34.34,0,0,0,.08-.14.53.53,0,0,0,0,.13.91.91,0,0,0,0,.2.62.62,0,0,0,0-.2v0c0,.1,0,.2,0,.27s0,.12,0,.12,0,0,0-.12v0h0a.9.9,0,0,1,0,.22.25.25,0,0,0,0,.11.25.25,0,0,0,0-.1l0-.11a.5.5,0,0,1,0,.13.56.56,0,0,1,0,.17q0,.08,0,.09s0,0,0-.07v0c0,.05,0,.09,0,.13s0,.12,0,.12a.58.58,0,0,0,0-.12v0l0,0a1.47,1.47,0,0,1,0,.27,1.26,1.26,0,0,0,0,.16s0-.06,0-.16v0l0,.08v.08c0,.11,0,.19,0,.19a.51.51,0,0,0,0-.14l0,.05a1,1,0,0,1,0,.26c0,.08-.05.13,0,.14s0,0,.09-.12a.14.14,0,0,0,0-.06,2.15,2.15,0,0,1-.9,1.39C1.78,17,0,17.68,0,18.05s.17,1.7.23,2.24,0,3.34,0,3.7a7.5,7.5,0,0,1-.09,1,2.27,2.27,0,0,0,.07.6S.08,26,.13,26s.18.1.2.06.14-.36.14-.36.1.69.1.81a1.85,1.85,0,0,0,.21.75,1.34,1.34,0,0,0,.81.19c.22,0,.42-.14.43-.21s-.46-.52-.46-.52a.62.62,0,0,0-.14-.35,4.09,4.09,0,0,1-.23-1.24c0-.31.07-2.57.07-3.16a5.69,5.69,0,0,1,.47-2.43,5.6,5.6,0,0,1,1.48-1.19s-.65.67-.52,1.14.55,1.84.72,2.44.48,2.09.55,2.37a5.66,5.66,0,0,1,.28,1.05,7.37,7.37,0,0,0,.09.79s0,.25,0,.27.12.06.17-.14h.12a.26.26,0,0,0,.18.26c0,.18.14.76.44.81s.86-.05,1-.23,0-.17-.06-.26a3.6,3.6,0,0,0-.36-.25s-.1-.35-.23-.67-.68-1.91-1.05-3.24a3.74,3.74,0,0,1-.14-2.27,6.16,6.16,0,0,1,.71-1.94A18.18,18.18,0,0,0,6,16.81a1.22,1.22,0,0,0,.78-.49,3.44,3.44,0,0,1,.47-.45c0,.08-.06.13,0,.14a.71.71,0,0,0,.13-.16,1.2,1.2,0,0,0,0,.24.73.73,0,0,0,0,.13s0,0,0-.12,0-.11,0-.18v0c0,.11,0,.17.06.17s0-.07,0-.18v-.17l0-.09a1.77,1.77,0,0,0,0,.24c0,.07,0,.11,0,.11s0-.05,0-.11a1.21,1.21,0,0,1,0-.25.29.29,0,0,1,0-.09h0s0,.06,0,.1a2.84,2.84,0,0,0,0,.39,1.15,1.15,0,0,0,.07-.4v0l0,0a2.53,2.53,0,0,0,0,.29c0,.1,0,.16,0,.16s0-.06,0-.16,0-.11,0-.18h0c0,.07,0,.11,0,.11s0,0,0-.11v0a.69.69,0,0,1,0,.26c0,.07,0,.12,0,.12A.27.27,0,0,0,8,16.06a.53.53,0,0,0,0-.22H8A.45.45,0,0,1,8,16c0,.07,0,.12,0,.12s0,0,.05-.11V15.9l0,0a1.3,1.3,0,0,1,0,.26v.13s0,0,0-.13a1,1,0,0,0,0-.19l0,0a1.56,1.56,0,0,0,0,.2c0,.07,0,.11,0,.11s0,0,0-.1a.83.83,0,0,1,0-.15l.1.07c0,.06,0,.11,0,.11s0,0,0-.09l.08.05a.41.41,0,0,0-.05.09c0,.05,0,.09,0,.09l.07-.06a.46.46,0,0,1,.07-.07l.11.07a.44.44,0,0,0-.13.1.53.53,0,0,0,.21-.05l.07,0a1.19,1.19,0,0,0-.16.08.28.28,0,0,0-.08.1s0,0,.11-.05A.78.78,0,0,1,9,16.5H9l.38.22a6.27,6.27,0,0,0,3.56.46c1.24-.18,2.59-.51,3.11-.54a.4.4,0,0,0,.21.34h0a15.82,15.82,0,0,0,.29,3,14.75,14.75,0,0,1,.21,2.29c0,.45.08,2.71.07,3.07a4.1,4.1,0,0,1-.16.93c-.05.12-.11.34-.11.34s0,.11.1.08l.18-.13A.45.45,0,0,1,17,27a1,1,0,0,0,.31.76c.21.2,1.19.14,1.31.1s.07-.09.07-.14.12,0,.15-.08-.58-.42-.75-.49c-.07-.36-.26-.63-.31-.93s-.12-.93-.16-1.56a12.32,12.32,0,0,1,0-2.41c0-.11.13-.41.18-.55a4.07,4.07,0,0,0,.16-1.09c0-.35.08-1.24.16-2l.53.46c.3.22,1.16.86,1.3,1a5,5,0,0,1,.57.9,19.58,19.58,0,0,1,.63,2.12c.12.55.31.82.28,1.08a3.17,3.17,0,0,0,0,.59c0,.14-.1.58-.1.74a.48.48,0,0,0,.08.26s-.06.31,0,.36a1.16,1.16,0,0,0,.34,1c.23.22.35.26.4.19a5,5,0,0,0,0-.84,6.24,6.24,0,0,1,.12-.62,3.53,3.53,0,0,0,.09-.69,2.49,2.49,0,0,0-.19-1,25,25,0,0,1-.81-2.81c-.1-.54.05-.76-.1-1.14a3.52,3.52,0,0,0-.4-.77,18,18,0,0,1-1.77-2.48.27.27,0,0,1,.17-.35,3.1,3.1,0,0,0,.92-.34c.2-.18,1-.36,1.09-.5.17-.29,1.07-.54,1.15-1.46a2.49,2.49,0,0,1,1-1.74,7.85,7.85,0,0,0,1.7-3c.27-.63.42-1.79.93-2a2.93,2.93,0,0,0,1.2.17c.45,0,1.58.2,1.72.14a.89.89,0,0,0,.5.21c.13,0,.37-.11.46-.15s.18-.14.11-.18c.26,0,.33,0,.5-.2A.82.82,0,0,0,30.63,6.85Z"/></g></g></svg>