<svg xmlns="http://www.w3.org/2000/svg" viewBox="0 0 55.88 31.5"><defs><style>.a{opacity:0.8;}.b{fill:#1a2026;}.c{fill:#fff;}</style></defs><title>Asset 2</title><g class="a"><path class="b" d="M4,16.07a7.65,7.65,0,0,1,.24.84v.54a.56.56,0,0,0,.15.38,4.08,4.08,0,0,1,.39,1.07,3.76,3.76,0,0,1-.33,1.2c-.3.81-.71,1.58-.88,1.94a1,1,0,0,0-.16,1c.19.3.58.84.7,1.1a1.52,1.52,0,0,1,.13,1.4c-.27.77-.67,1.34-.46,1.74a.72.72,0,0,0,.8.3,2,2,0,0,0,1.42,0,2.23,2.23,0,0,0,.53,0,5.81,5.81,0,0,0,.94.11.22.22,0,0,0,.19-.09l.34.13c.1,0,.25,0,.06-.44a3.12,3.12,0,0,0-.67-1,2,2,0,0,1-.56-.65,7.28,7.28,0,0,1-.13-1A4.28,4.28,0,0,1,7,23.38c.15-.38.33-1,.48-1.32s.4-.92.4-.92a6.33,6.33,0,0,1-.06,1.63,4.46,4.46,0,0,0-.13,1.44,1.33,1.33,0,0,0,.58.66A8.25,8.25,0,0,1,9.43,26a1.38,1.38,0,0,1,.12.93,6.47,6.47,0,0,0-.25.89c0,.17,0,.47.55.41h.67a2.45,2.45,0,0,0,1.95.06,2.76,2.76,0,0,0,1.31,0c.18-.13.18-.18.18-.28a4.94,4.94,0,0,0-.31-.74A.54.54,0,0,0,13.2,27a1.7,1.7,0,0,1-.7-.32,2.59,2.59,0,0,1-.54-.82c-.13-.42-.36-.86-.43-1a6.36,6.36,0,0,1-.13-1.31c0-.21.15-1.1.22-1.62a7.07,7.07,0,0,1,.22-1.56A3,3,0,0,1,13,19a2,2,0,0,0,.83-1,8.59,8.59,0,0,0,3.33,3,15.29,15.29,0,0,0,7.32.75,18.57,18.57,0,0,0,4.2-.86A23.32,23.32,0,0,0,30.12,23a.59.59,0,0,1,0,.29.32.32,0,0,0-.21.21.51.51,0,0,0-.52,0,1.38,1.38,0,0,0-.65-.32,8.75,8.75,0,0,0-1.43,1.32,1.26,1.26,0,0,0-.3.93,4,4,0,0,0,.3.89,1.56,1.56,0,0,1,.36-.06.8.8,0,0,0,0,.86,1.13,1.13,0,0,0,.88.63,1.35,1.35,0,0,0,.67-.38,12.52,12.52,0,0,1,1.07-1,6.23,6.23,0,0,0,.61-.42,2.41,2.41,0,0,0,.49-.06.53.53,0,0,1-.07.18,2.39,2.39,0,0,0-.39.45,1.76,1.76,0,0,0-.27,1.07c.09.21,0,.39.86.42a5.61,5.61,0,0,0,1.37,0,4,4,0,0,0,1.31.23,2.26,2.26,0,0,0,.86-.14c.07-.06,0-.24,0-.24a1.11,1.11,0,0,0,.39,0c.12,0,.25-.08.19-.21a4,4,0,0,1-.3-.48.66.66,0,0,0-.4-.42,4.45,4.45,0,0,1-.77-.41,2.3,2.3,0,0,1-.58-1.25,6.46,6.46,0,0,1,.12-.72,9.66,9.66,0,0,1,1-2.57,12.46,12.46,0,0,1,1.34-1.53.57.57,0,0,0,.78-.2l0-.1a1.26,1.26,0,0,0,.62-.09.6.6,0,0,0,.67.36,2.09,2.09,0,0,0,.94-.48,3.67,3.67,0,0,0,.15-.45l.24-.15s.28.44.34.57a1.44,1.44,0,0,0,.8,1.17c.18.21,2.78,2.71,2.93,2.92a1.41,1.41,0,0,0,1,.57.89.89,0,0,0,1.19.36,7.09,7.09,0,0,1,1.46-.22,1.06,1.06,0,0,0,1-.49,4,4,0,0,1,.39-.72.73.73,0,0,0,.13-.62c0-.08.53-1.11.53-1.23a8.63,8.63,0,0,0,2.2-1.77,5.8,5.8,0,0,0,1.41-2.3A7.65,7.65,0,0,0,53,16c0-.17-.22-.66-.68-.09A11.35,11.35,0,0,1,49,17.66a2.15,2.15,0,0,1-.83.1L48,17.53h0a3,3,0,0,1,.92-.32c.59-.15,1.1-.63.45-.71-.48-.06-1.81-.07-1.81-.07a8.11,8.11,0,0,0-1-1.24,6.22,6.22,0,0,1-1.2-1.5,4.24,4.24,0,0,1-.48-2A5.53,5.53,0,0,0,44.71,10a.94.94,0,0,1,.34,0,1.44,1.44,0,0,0,1.32-1.14c.19-.27.51-1.16.65-1.29a1.32,1.32,0,0,0,.25-.45.42.42,0,0,0-.25,0c-.13,0-.67.48-1,.63s-1.46.53-1.56.63a.77.77,0,0,0-.28-.63,2.09,2.09,0,0,0-.53-.09c-.22,0-.39-.17-.36,0a.53.53,0,0,1-.15.48.53.53,0,0,0-.16.29.61.61,0,0,1-.3-.08,4.5,4.5,0,0,0-.34-.6c-.15-.09-.52-.11-.61-.17a.46.46,0,0,1-.19-.27,4.78,4.78,0,0,0-1-1.89A5.8,5.8,0,0,0,38,4.16c-.91-.14-1.44,0-2-.08s-1.83-.17-2.44-.24a7.29,7.29,0,0,0-3.37.32,4.72,4.72,0,0,1-1.46.48A13.59,13.59,0,0,1,24,4.27a35.26,35.26,0,0,1-4.53-1.11,4.1,4.1,0,0,0-2.21.15,21.2,21.2,0,0,1-3.61,1.16c-1.31.21-2.58.21-2.88.26a6.38,6.38,0,0,0-2.12.93,9.47,9.47,0,0,0-3.8,3.7,10.15,10.15,0,0,0-1.14,3.8v.61a6.11,6.11,0,0,1-.19,1c-.12.44-.37.83-.45,1.11a.62.62,0,0,0,.12.77.58.58,0,0,1,.34.39c0,.08-.22.15.06.48a2.11,2.11,0,0,1,.42.62.65.65,0,0,0,.19-.81,1,1,0,0,0-.65-.86.19.19,0,0,1-.12-.2c0-.09.19-.29.33-.59a3.83,3.83,0,0,0,.15-.47S4,15.93,4,16.07Z"/><path class="c" d="M18.69,3.06a2.76,2.76,0,0,1,.76.09A35.26,35.26,0,0,0,24,4.27a14.92,14.92,0,0,0,3.56.46,5.72,5.72,0,0,0,1.19-.06,4.72,4.72,0,0,0,1.46-.48,6.46,6.46,0,0,1,2.3-.42,8.89,8.89,0,0,1,1.09.07c.61.08,1.86.18,2.44.24h1.08a6.22,6.22,0,0,1,.94.07,5.8,5.8,0,0,1,2.55,1.28,4.78,4.78,0,0,1,1,1.89.46.46,0,0,0,.19.27c.09.06.46.08.61.17a4.51,4.51,0,0,1,.34.53.61.61,0,0,0,.3.08.53.53,0,0,1,.16-.29.53.53,0,0,0,.15-.48V7.53l.32.09a2.09,2.09,0,0,1,.53.09.77.77,0,0,1,.25.57c.1-.1,1.23-.48,1.56-.63s.86-.6,1-.63h.08a.43.43,0,0,1,.18,0,1.32,1.32,0,0,1-.25.45c-.15.14-.46,1-.65,1.29A1.44,1.44,0,0,1,45,10a.94.94,0,0,0-.34,0,5.53,5.53,0,0,1,.21,1.67,4.24,4.24,0,0,0,.48,2,6.22,6.22,0,0,0,1.2,1.5,8.11,8.11,0,0,1,1,1.24s1.32,0,1.81.07c.65.08.15.56-.45.71a3,3,0,0,0-.85.32h0l.15.3h.09a3,3,0,0,0,.7-.11,11.35,11.35,0,0,0,3.25-1.76.56.56,0,0,1,.38-.27.42.42,0,0,1,.3.36,7.65,7.65,0,0,1-.09,1.35,5.8,5.8,0,0,1-1.41,2.3,8.63,8.63,0,0,1-2.2,1.77c0,.12-.52,1.16-.53,1.23a.73.73,0,0,1-.13.62,4,4,0,0,0-.39.72,1,1,0,0,1-1,.49h0a7.09,7.09,0,0,0-1.46.22,1.14,1.14,0,0,1-.44.1,1,1,0,0,1-.74-.46,1.41,1.41,0,0,1-1-.57c-.15-.21-2.75-2.71-2.93-2.92a1.44,1.44,0,0,1-.8-1.17c-.06-.14-.34-.57-.34-.57l-.24.15a3.67,3.67,0,0,1-.15.45,2.09,2.09,0,0,1-.94.48H38a.64.64,0,0,1-.54-.38.67.67,0,0,1-.44.09H36.9a.55.55,0,0,1-.48.38,1.39,1.39,0,0,1-.35-.08,12.46,12.46,0,0,0-1.34,1.58,9.66,9.66,0,0,0-1,2.57,6.46,6.46,0,0,0-.12.72,2.3,2.3,0,0,0,.58,1.25,4.45,4.45,0,0,0,.77.41.66.66,0,0,1,.4.42,4,4,0,0,0,.3.48c.11.15,0,.15-.14.15h-.07a1.47,1.47,0,0,1-.32,0s.12.18,0,.24a2.26,2.26,0,0,1-.86.14h0a4.06,4.06,0,0,1-1.3-.23,4,4,0,0,1-.78.06h-.59c-.82,0-.77-.21-.86-.42A1.76,1.76,0,0,1,31,26.49a2.39,2.39,0,0,1,.39-.45.53.53,0,0,0,.07-.18,2.41,2.41,0,0,1-.49.06,6.23,6.23,0,0,1-.61.42,12.52,12.52,0,0,0-1.07,1,1.35,1.35,0,0,1-.67.38h0a1.19,1.19,0,0,1-.83-.63.8.8,0,0,1,0-.86h0l-.33.06a4,4,0,0,1-.3-.89,1.26,1.26,0,0,1,.3-.93,9.26,9.26,0,0,1,1.42-1.32h0a1.38,1.38,0,0,1,.65.32.25.25,0,0,1,.17,0,.87.87,0,0,1,.35.1.32.32,0,0,1,.21-.21.59.59,0,0,0,0-.29,23.31,23.31,0,0,1-1.48-2.11,18.57,18.57,0,0,1-4.2.86,16.71,16.71,0,0,1-2.19.15,15.34,15.34,0,0,1-5.13-.9c-1.56-.53-3.1-2.6-3.33-3a2,2,0,0,1-.83,1A3,3,0,0,0,12,20.35a7.07,7.07,0,0,0-.22,1.56c-.07.53-.21,1.41-.22,1.62a6.36,6.36,0,0,0,0,1.24c.07.2.3.63.43,1a2.59,2.59,0,0,0,.46.83,1.7,1.7,0,0,0,.7.32.54.54,0,0,1,.45.29,5,5,0,0,1,.31.74c0,.11.07.15-.15.32a.66.66,0,0,1-.36.07,5.91,5.91,0,0,1-.95-.12,1.25,1.25,0,0,1-.73.2,4.22,4.22,0,0,1-1.22-.26h-.8a.35.35,0,0,1-.42-.44,6.47,6.47,0,0,1,.25-.89A1.38,1.38,0,0,0,9.42,26a8.25,8.25,0,0,0-1.2-1.13,1.33,1.33,0,0,1-.58-.66,4.46,4.46,0,0,1,.14-1.39,6.33,6.33,0,0,0,.09-1.62s-.25.56-.4.92S7.14,23,7,23.39a4.28,4.28,0,0,0-.31,1.23,7.28,7.28,0,0,0,.13,1,2,2,0,0,0,.56.65,3.12,3.12,0,0,1,.67,1c.17.36.07.44,0,.44H8l-.37-.1a.22.22,0,0,1-.19.09H7.35a7.62,7.62,0,0,1-.87-.11H6.23a1.26,1.26,0,0,1-.28,0,1.06,1.06,0,0,1-.5.11,2.82,2.82,0,0,1-.88-.17H4.33a.57.57,0,0,1-.56-.31c-.21-.41.19-1,.46-1.74a1.52,1.52,0,0,0-.13-1.4A12.3,12.3,0,0,0,3.4,23a1,1,0,0,1,.16-1c.16-.36.58-1.13.88-1.94a3.76,3.76,0,0,0,.33-1.2,4.08,4.08,0,0,0-.39-1.07.56.56,0,0,1-.15-.38V16.9A7.65,7.65,0,0,0,4,16.07c0-.14-.13-.84-.13-.84a3.83,3.83,0,0,1-.15.47c-.13.3-.3.5-.33.59a.19.19,0,0,0,.12.2,1,1,0,0,1,.65.86.69.69,0,0,1-.19.82H4a2.11,2.11,0,0,0-.42-.62c-.28-.33-.07-.41-.06-.48a.58.58,0,0,0-.34-.39A.62.62,0,0,1,3,15.91c.07-.29.33-.68.45-1.11a6.1,6.1,0,0,0,.19-1v-.61A10.15,10.15,0,0,1,4.8,9.39a9.47,9.47,0,0,1,3.8-3.7,6.38,6.38,0,0,1,2.12-.93A15.43,15.43,0,0,0,13.6,4.5a21.2,21.2,0,0,0,3.61-1.16,4.58,4.58,0,0,1,1.46-.25m0-3h0a7.61,7.61,0,0,0-2.49.43l-.39.15a16.61,16.61,0,0,1-2.66.86,19,19,0,0,1-2,.18,3,3,0,0,0-.84.07A9,9,0,0,0,7.14,3.07a12.37,12.37,0,0,0-4.89,4.7v.07A13.17,13.17,0,0,0,.72,13v.56A3.55,3.55,0,0,1,.63,14l-.09.19a5.51,5.51,0,0,0-.37,1,3.62,3.62,0,0,0,.44,3.12,3.63,3.63,0,0,0,.7,1.23h0l.09.16c-.11.25-.23.48-.32.68l-.25.44v.09a3.68,3.68,0,0,0,.09,3.75l.24.37,0,.08a4,4,0,0,0-.07,3.55,3.54,3.54,0,0,0,3,2,5.45,5.45,0,0,0,1.27.2,4.35,4.35,0,0,0,.85-.08,7.13,7.13,0,0,0,1,.1h.33l.33,0a3.53,3.53,0,0,0,1.79.47h.36a5.92,5.92,0,0,0,1.66.26,4.54,4.54,0,0,0,1-.12,5.91,5.91,0,0,0,.63,0,3.52,3.52,0,0,0,2.15-.61,3.2,3.2,0,0,0,1.23-3.59h0a7.12,7.12,0,0,0-.68-1.52,3.36,3.36,0,0,0-1.47-1.28L14.45,24v-.29c0-.08.06-.41.09-.67a6.92,6.92,0,0,0,1.66.85,18.2,18.2,0,0,0,6.09,1.06,12.74,12.74,0,0,0,1.84-.09,4,4,0,0,0,0,1,6.44,6.44,0,0,0,.55,1.77,3,3,0,0,0,.22.39,4,4,0,0,0,.34.69,4.1,4.1,0,0,0,3.4,2.08H29a3.73,3.73,0,0,0,.64-.13,4.52,4.52,0,0,0,1.78.43h1.32a7.47,7.47,0,0,0,1.51.18h.16a4.52,4.52,0,0,0,2.36-.59,3.16,3.16,0,0,0,1.63-1.52,3.12,3.12,0,0,0,0-2.62,3.65,3.65,0,0,0-.32-.73,3.58,3.58,0,0,0-1.21-1.44,7.54,7.54,0,0,1,.31-.86l.25-.31a3.45,3.45,0,0,0,1.24,0l.08.06,1,.94c.49.48,1.29,1.26,1.54,1.53A4.35,4.35,0,0,0,43,27a3.62,3.62,0,0,0,2.32.82,4.06,4.06,0,0,0,1.41-.26l.66-.07A3.85,3.85,0,0,0,51,25.09a3.63,3.63,0,0,0,.25-.44,4.57,4.57,0,0,0,.44-1.23,12.27,12.27,0,0,0,2-1.84,7.44,7.44,0,0,0,2.12-4v-.27a5.64,5.64,0,0,0,0-2.17,3.28,3.28,0,0,0-5.56-1.59,3.85,3.85,0,0,0-.56-.11H49l-.31-.33-.42-.45a1.36,1.36,0,0,1-.29-.43,1,1,0,0,1-.08-.51A5.37,5.37,0,0,0,49,10.24a8.85,8.85,0,0,0,.42-.87l.06-.14A4.36,4.36,0,0,0,50.06,8a3,3,0,0,0-1.5-3.62A3.4,3.4,0,0,0,47,4a3.36,3.36,0,0,0-.74.08,3.81,3.81,0,0,0-1.43.7,3.72,3.72,0,0,0-.67-.12,3.29,3.29,0,0,0-.61-.12,5.27,5.27,0,0,0-1.07-1.36,8.72,8.72,0,0,0-4.09-2,9.17,9.17,0,0,0-1.38-.1H36.3L35.44,1,34,.9A11.93,11.93,0,0,0,32.47.77a9.37,9.37,0,0,0-3.36.58l-.59.25-.12.05h-.84a12.11,12.11,0,0,1-2.84-.38h-.13a35.55,35.55,0,0,1-4.09-1L20.31.21A5.73,5.73,0,0,0,18.72,0h0Z"/></g><path class="b" d="M4,16.07a7.65,7.65,0,0,1,.24.84v.54a.56.56,0,0,0,.15.38,4.08,4.08,0,0,1,.39,1.07,3.76,3.76,0,0,1-.33,1.2c-.3.81-.71,1.58-.88,1.94a1,1,0,0,0-.16,1c.19.3.58.84.7,1.1a1.52,1.52,0,0,1,.13,1.4c-.27.77-.67,1.34-.46,1.74a.72.72,0,0,0,.8.3,2,2,0,0,0,1.42,0,2.23,2.23,0,0,0,.53,0,5.81,5.81,0,0,0,.94.11.22.22,0,0,0,.19-.09l.34.13c.1,0,.25,0,.06-.44a3.12,3.12,0,0,0-.67-1,2,2,0,0,1-.56-.65,7.28,7.28,0,0,1-.13-1A4.28,4.28,0,0,1,7,23.38c.15-.38.33-1,.48-1.32s.4-.92.4-.92a6.33,6.33,0,0,1,0,1.63,4.46,4.46,0,0,0-.13,1.44,1.33,1.33,0,0,0,.58.66A8.25,8.25,0,0,1,9.44,26a1.38,1.38,0,0,1,.12.93,6.47,6.47,0,0,0-.25.89c0,.17,0,.47.55.41h.67a2.45,2.45,0,0,0,1.95.06,2.76,2.76,0,0,0,1.31,0c.17-.13.17-.18.17-.28a4.94,4.94,0,0,0-.31-.74A.54.54,0,0,0,13.2,27a1.7,1.7,0,0,1-.7-.32,2.59,2.59,0,0,1-.54-.82c-.13-.42-.36-.86-.43-1a6.36,6.36,0,0,1-.13-1.31c0-.21.15-1.1.22-1.62a7.07,7.07,0,0,1,.22-1.56A3,3,0,0,1,13,19a2,2,0,0,0,.83-1,8.59,8.59,0,0,0,3.33,3,15.29,15.29,0,0,0,7.32.75,18.57,18.57,0,0,0,4.2-.86A23.32,23.32,0,0,0,30.12,23a.59.59,0,0,1,0,.29.32.32,0,0,0-.21.21.51.51,0,0,0-.52,0,1.38,1.38,0,0,0-.65-.32,8.75,8.75,0,0,0-1.43,1.32,1.26,1.26,0,0,0-.3.93,4,4,0,0,0,.3.89,1.56,1.56,0,0,1,.36-.06.8.8,0,0,0,0,.86,1.13,1.13,0,0,0,.88.63,1.35,1.35,0,0,0,.67-.38,12.52,12.52,0,0,1,1.07-1,6.23,6.23,0,0,0,.61-.42,2.41,2.41,0,0,0,.49-.06.53.53,0,0,1-.07.18,2.39,2.39,0,0,0-.39.45,1.76,1.76,0,0,0-.27,1.07c.09.21,0,.39.86.42a5.61,5.61,0,0,0,1.37,0,4,4,0,0,0,1.31.23,2.26,2.26,0,0,0,.86-.14c.07-.06,0-.24,0-.24a1.11,1.11,0,0,0,.39,0c.12,0,.25-.08.19-.21a4,4,0,0,1-.3-.48.66.66,0,0,0-.4-.42,4.45,4.45,0,0,1-.77-.41,2.3,2.3,0,0,1-.58-1.25,6.46,6.46,0,0,1,.12-.72,9.66,9.66,0,0,1,1-2.57,12.46,12.46,0,0,1,1.34-1.53.57.57,0,0,0,.78-.2l0-.1a1.26,1.26,0,0,0,.62-.09.6.6,0,0,0,.67.36,2.09,2.09,0,0,0,.94-.48,3.67,3.67,0,0,0,.15-.45l.24-.15s.28.44.34.57a1.44,1.44,0,0,0,.8,1.17c.18.21,2.78,2.71,2.93,2.92a1.41,1.41,0,0,0,1,.57.89.89,0,0,0,1.19.36,7.09,7.09,0,0,1,1.46-.22,1.06,1.06,0,0,0,1-.49,4,4,0,0,1,.39-.72.73.73,0,0,0,.13-.62c0-.08.53-1.11.53-1.23a8.63,8.63,0,0,0,2.2-1.77,5.8,5.8,0,0,0,1.41-2.3A7.65,7.65,0,0,0,53,16c0-.17-.22-.66-.68-.09A11.35,11.35,0,0,1,49,17.66a2.15,2.15,0,0,1-.83.1l-.09-.23h0a3,3,0,0,1,.85-.32c.59-.15,1.1-.63.45-.71-.48-.06-1.81-.07-1.81-.07a8.11,8.11,0,0,0-1-1.24,6.22,6.22,0,0,1-1.2-1.5,4.24,4.24,0,0,1-.48-2A5.53,5.53,0,0,0,44.71,10a.94.94,0,0,1,.34,0,1.44,1.44,0,0,0,1.32-1.14c.19-.27.51-1.16.65-1.29a1.32,1.32,0,0,0,.25-.45.42.42,0,0,0-.25,0c-.13,0-.67.48-1,.63s-1.46.53-1.56.63a.77.77,0,0,0-.28-.63,2.09,2.09,0,0,0-.53-.09c-.22,0-.39-.17-.36,0a.53.53,0,0,1-.15.48.53.53,0,0,0-.16.29.61.61,0,0,1-.3-.08,4.5,4.5,0,0,0-.34-.6c-.15-.09-.52-.11-.61-.17a.46.46,0,0,1-.19-.27,4.78,4.78,0,0,0-1-1.89A5.8,5.8,0,0,0,38,4.16c-.91-.14-1.44,0-2-.08s-1.83-.17-2.44-.24a7.29,7.29,0,0,0-3.37.32,4.72,4.72,0,0,1-1.46.48A13.59,13.59,0,0,1,24,4.27a35.26,35.26,0,0,1-4.53-1.11,4.1,4.1,0,0,0-2.21.15,21.2,21.2,0,0,1-3.61,1.16c-1.31.21-2.58.21-2.88.26a6.38,6.38,0,0,0-2.12.93,9.47,9.47,0,0,0-3.8,3.7,10.15,10.15,0,0,0-1.14,3.8v.61a6.11,6.11,0,0,1-.19,1c-.12.44-.37.83-.45,1.11a.62.62,0,0,0,.12.77.58.58,0,0,1,.34.39c0,.08-.22.15.06.48a2.11,2.11,0,0,1,.42.62.65.65,0,0,0,.19-.81,1,1,0,0,0-.65-.86.19.19,0,0,1-.12-.2c0-.09.19-.29.33-.59a3.83,3.83,0,0,0,.15-.47S4,15.93,4,16.07Z"/></svg>