<svg xmlns="http://www.w3.org/2000/svg" viewBox="0 0 43.94 42"><defs><style>.a{opacity:0.8;}.b{fill:#fff;}.c{fill:#1a2026;}</style></defs><title>Asset 257</title><g class="a"><path class="b" d="M18.64,40.5a4.93,4.93,0,0,1-1-.1l-.1,0a5.08,5.08,0,0,0-.93-.13h-.1l-.4,0A2.17,2.17,0,0,1,15,40l-.1-.06a1.7,1.7,0,0,1-.8-1.24,1.5,1.5,0,0,1,.29-1,4.25,4.25,0,0,1,.85-1.17,3.39,3.39,0,0,0,.32-.37A3.8,3.8,0,0,0,15.62,35c0-.21,0-.42,0-.62a5.72,5.72,0,0,0-.09-1.61,3.27,3.27,0,0,0-.17-.41,4,4,0,0,1-.44-1.68,5.61,5.61,0,0,1,.16-1.25,3.58,3.58,0,0,0,.1-.62A8.05,8.05,0,0,0,15,27.27l-.06-.3A3,3,0,0,1,13,25.64a7.1,7.1,0,0,1-.64-1.28,6,6,0,0,0-.31-.67,5,5,0,0,0-.81-1l-.42-.44-.32-.34a8.47,8.47,0,0,1-1.14-1.37,8.76,8.76,0,0,1-.54-1.06,3.78,3.78,0,0,0-.51-.91L8,18.28a7.11,7.11,0,0,1-.67-.78,4.6,4.6,0,0,1-.76.3,5.33,5.33,0,0,1-.56.11,1.51,1.51,0,0,0-.25,0L5.67,18a2.86,2.86,0,0,1-1,.39,2.82,2.82,0,0,1-.42,0A3,3,0,0,1,2,17.55a2.09,2.09,0,0,1-.52-1.66,6.52,6.52,0,0,1,2.1-3.64,9.27,9.27,0,0,0,.93-1.09,1.05,1.05,0,0,0,.06-.24l0-.15a2.72,2.72,0,0,1,.1-.37l-.17-.18a2.25,2.25,0,0,1-.94-2.16A1.5,1.5,0,0,1,5.08,6.95h0a3.43,3.43,0,0,1,1.64.56l.15-.23c.14-.22.28-.41.38-.54a15,15,0,0,1,5-4A12.79,12.79,0,0,1,17.8,1.5h.35c3.17.09,4.39.5,5,.89a1.5,1.5,0,0,1,.91,1.28c.48.15.93.31,1.37.48l.21.07c1.28.4,2.29.71,2.55,1.73a1.5,1.5,0,0,1-.89,1.77,1.89,1.89,0,0,1-.7.13,4.77,4.77,0,0,1-1.38-.28l-.19-.06-.65-.18-.33-.09c-.57-.15-1.16-.28-1.74-.4l-.73-.16a16.92,16.92,0,0,0-3.34-.5h0a9,9,0,0,0-4.6,1.2l-.17.09A8.93,8.93,0,0,0,11.27,9a3.61,3.61,0,0,0,.7.88A6.56,6.56,0,0,0,16.1,11.6a2.87,2.87,0,0,0,.55,0l.31-.06a7.32,7.32,0,0,1,1.58-.2h.22a8.07,8.07,0,0,1,1.51.24l.59.13c.65.11,1.29.28,1.9.44a16.3,16.3,0,0,0,2,.44,10.25,10.25,0,0,0,1.27.08,25.64,25.64,0,0,0,4.49-.54l1.53-.27a6.39,6.39,0,0,1,1-.08,6.68,6.68,0,0,1,3.32.92,9.26,9.26,0,0,1,3.1,3.26,10.16,10.16,0,0,1,1.64,4.15c.15.79.36,1.57.59,2.39.17.64.35,1.27.5,1.92A7.84,7.84,0,0,1,42,28.77l0,.12c0,.08-.07.21-.1.29a1.72,1.72,0,0,1-.11,1.37,2,2,0,0,1-.24.35c0,.41,0,.89-.09,1.47a3.91,3.91,0,0,0,.09.88,5.77,5.77,0,0,1,.1,1.77,4.72,4.72,0,0,1-.14.67,1.76,1.76,0,0,0-.05.22,2.08,2.08,0,0,0,.05.27,3.27,3.27,0,0,1,.05,1.57,2,2,0,0,1-2.12,1.58h-.28a2.1,2.1,0,0,1-2-.87,2.61,2.61,0,0,1,.09-2.23c.06-.18.12-.35.15-.49A13.11,13.11,0,0,0,37.18,34v-.07l-.08.27a13.28,13.28,0,0,0-.52,2.38c0,.07,0,.16,0,.27A3.22,3.22,0,0,1,36,39l-.07.1a1.52,1.52,0,0,1-.15.31,1.78,1.78,0,0,1-1.56.82h-.42a2.17,2.17,0,0,1-1.94-.8,2.08,2.08,0,0,1-.14-1.92A22.52,22.52,0,0,0,33,33a13.59,13.59,0,0,0-1.65-7.36,9.27,9.27,0,0,1-1.42.89,8.34,8.34,0,0,1-3.76.84,11.67,11.67,0,0,1-1.76-.14,5.84,5.84,0,0,0-.71,0A5.72,5.72,0,0,1,21.81,27a3.62,3.62,0,0,1-.59-.28,9.73,9.73,0,0,0,0,2.06l0,.4c0,.17,0,.33.06.5a8.15,8.15,0,0,1,.08.82,3.26,3.26,0,0,1-.23,1.26,1.32,1.32,0,0,0-.07.21,7.12,7.12,0,0,0,.09,2,5.5,5.5,0,0,0,.21.75,5.44,5.44,0,0,1,.38,2.08,2.07,2.07,0,0,1-.86,1.67,2,2,0,0,1-.16.91A2.13,2.13,0,0,1,18.64,40.5Z"/><path class="b" d="M17.8,3h.31c4,.11,4.38.77,4.49.77h0a.56.56,0,0,1-.2,0c-.67,0-2.83-.21-4.54-.21a12,12,0,0,0-1.24.05,10.44,10.44,0,0,0-6,2.74h0c.33,0,2.72-1.32,3.53-1.55a14.85,14.85,0,0,1,4.23-.7h.42a17.33,17.33,0,0,1,3.41.6,22.22,22.22,0,0,1,2.66.83c.24.09,1.79.51,1.85.77l-.15,0A6.55,6.55,0,0,1,25.42,6c-.32-.07-.63-.17-.94-.26-.75-.2-1.52-.35-2.28-.52a19.7,19.7,0,0,0-3.91-.59h-.11A10.39,10.39,0,0,0,13,6.07a9.63,9.63,0,0,0-3,2.11c-.73.94.22,2.05.9,2.74a8.07,8.07,0,0,0,5.2,2.17,4.36,4.36,0,0,0,.83-.08,8,8,0,0,1,1.6-.24h.16a14.69,14.69,0,0,1,1.91.35c1.33.23,2.67.73,4,.9a11.65,11.65,0,0,0,1.46.09,39.86,39.86,0,0,0,6.26-.83,4.84,4.84,0,0,1,.77-.06,5.18,5.18,0,0,1,2.58.72,8,8,0,0,1,2.63,2.84,8.61,8.61,0,0,1,1.38,3.55c.28,1.49.76,2.9,1.09,4.37a6.37,6.37,0,0,1-.2,3.6,3.16,3.16,0,0,0-.24,1s.12.53.11.55-.12.16-.17.16-.23-.38-.37-.38h0a13.05,13.05,0,0,1,0,2.65c-.08.88.31,1.75.2,2.59A5.44,5.44,0,0,0,39.91,36a4.72,4.72,0,0,1,.15,1.37c-.11.43-.28.44-.7.45h-.24c-.27,0-.65,0-.71-.11s.44-1.49.45-1.87a29.61,29.61,0,0,0-.35-3.2,7.11,7.11,0,0,0-.73-2.6c-.22-.44-.55-.78-.81-1.19-.08-.12-.3-.76-.43-.77-.1.31.27.8.34,1.09a3,3,0,0,1-.11,1.3c-.21,1-.71,1.83-1,2.79a18,18,0,0,0-.72,3.17c0,.38.08,1.3-.19,1.62-.1.12-.11.16-.13.16a2,2,0,0,0-.23-.11h0s0,.49,0,.53a.32.32,0,0,1-.28.11l-.28,0c-.73,0-1.07,0-.8-.72a23.71,23.71,0,0,0,1.27-4.8c.39-3.2-.79-6.24-2.2-9-.08-.15-.23-.7-.39-.76h0c-.17,0-.71.51-.81.59a10.11,10.11,0,0,1-1.8,1.22,6.86,6.86,0,0,1-3.09.68,10.11,10.11,0,0,1-1.53-.12,13.26,13.26,0,0,1-2.27-.22c-.46-.17-.83-.57-1.29-.57a.93.93,0,0,0-.49.15c-1.17.71-.87,3-.81,4.09,0,.43.12.86.14,1.29a6.18,6.18,0,0,1-.28,1.2,8.86,8.86,0,0,0,.09,2.39,13.24,13.24,0,0,1,.58,2.52c0,.28,0,.44-.28.58a.28.28,0,0,1-.13,0c-.12,0-.07-.19-.18-.19h0c-.52.14-.14,1.33-.27,1.62S19,39,18.64,39a3.43,3.43,0,0,1-.66-.07,7,7,0,0,0-1.28-.18h0l-.51,0a.75.75,0,0,1-.39-.08c-.35-.22-.16,0-.07-.33.19-.58.93-1,1.19-1.62a6.42,6.42,0,0,0,.24-2.29,6.66,6.66,0,0,0-.15-2.1,6,6,0,0,1-.54-1.67c0-.62.25-1.22.26-1.85a11.91,11.91,0,0,0-.32-2.25c-.1-.54,0-.74-.53-.9-.7-.24-1.14-.16-1.62-.87-.37-.56-.55-1.27-.89-1.86a9.31,9.31,0,0,0-1.42-1.69,11.39,11.39,0,0,1-1.29-1.49,15.11,15.11,0,0,0-1.19-2.16c-.28-.33-.62-.63-.87-1-.12-.17-.27-.76-.41-.85a.4.4,0,0,0-.21-.05,8.37,8.37,0,0,0-1.73.64,7.76,7.76,0,0,0-1,.21,3.22,3.22,0,0,1-.83.36H4.2c-.51,0-1.27-.24-1.19-.86.2-1.69,1.9-2.74,2.79-4.07a2.09,2.09,0,0,0,.31-1,5.26,5.26,0,0,0,.25-.87c0-.52-1.36-1.42-1.28-1.74.63,0,1.33.76,1.94.76h.06c.49,0,1.05-1.13,1.36-1.51a13.57,13.57,0,0,1,4.47-3.63A11.37,11.37,0,0,1,17.8,3M38.65,27a16.79,16.79,0,0,1,.09-3.38,11.27,11.27,0,0,0,.07-3.78c-.39.24-.41,1.76-.48,2.15A11.31,11.31,0,0,1,38,23.16c-.11.34-.47,1-.39,1.35.13.55.42,2.19,1,2.45m-16-23.18h0M17.8,0a14.32,14.32,0,0,0-6.2,1.38A16.36,16.36,0,0,0,6.26,5.64a4,4,0,0,0-1.11-.19H5.08A3,3,0,0,0,2.17,7.71a3.31,3.31,0,0,0,.81,3l-.46.5A7.86,7.86,0,0,0,0,15.72a3.57,3.57,0,0,0,.88,2.83A4.43,4.43,0,0,0,4.2,19.94a4.32,4.32,0,0,0,.65,0,4.25,4.25,0,0,0,1.44-.5c.16,0,.37-.06.6-.11l0,0,.23.25a4,4,0,0,1,.28.55,10.19,10.19,0,0,0,.64,1.23A9.83,9.83,0,0,0,9.4,23l.3.32.45.47a3.87,3.87,0,0,1,.58.68c.06.1.14.3.22.5a8.46,8.46,0,0,0,.78,1.54,4.49,4.49,0,0,0,1.88,1.63,4.19,4.19,0,0,1,.08.7l-.07.32a7.07,7.07,0,0,0-.19,1.58A5.48,5.48,0,0,0,14,33c0,.07.07.15.1.23a4.44,4.44,0,0,1,0,1.1c0,.22,0,.45,0,.68s0,.32,0,.46h0A5.8,5.8,0,0,0,13,36.94a3,3,0,0,0,1.06,4.25l.07,0a3.67,3.67,0,0,0,2,.54l.51,0h0a4.4,4.4,0,0,1,.61.1l.1,0a6.36,6.36,0,0,0,1.25.13,3.65,3.65,0,0,0,3.46-2.08,3.25,3.25,0,0,0,.25-.81,3.66,3.66,0,0,0,.9-2.29,6.86,6.86,0,0,0-.45-2.65c-.06-.17-.14-.43-.16-.52a6.63,6.63,0,0,1-.1-1.42v0a4.74,4.74,0,0,0,.31-1.81,9.43,9.43,0,0,0-.1-1c0-.12,0-.25,0-.37s0-.25,0-.39c.33,0,.64,0,.91,0l.52,0a13.16,13.16,0,0,0,2,.16,9.83,9.83,0,0,0,4.43-1l.08,0a10.4,10.4,0,0,1,.84,5A21.26,21.26,0,0,1,30.35,37a3.46,3.46,0,0,0,.32,3.28,3.63,3.63,0,0,0,3.15,1.44h.05l.39,0A3.26,3.26,0,0,0,37,40.38a4.41,4.41,0,0,0,2.14.46h.29A3.49,3.49,0,0,0,43,38.12a4.64,4.64,0,0,0,0-2.16,5.62,5.62,0,0,0,.15-.73A7.21,7.21,0,0,0,43,33a5.06,5.06,0,0,1-.07-.53c0-.39.06-.75.07-1.07l.08-.14a3,3,0,0,0,.34-2v0A9.4,9.4,0,0,0,43.7,24c-.16-.69-.34-1.35-.51-2-.22-.79-.42-1.54-.56-2.28a11.6,11.6,0,0,0-1.83-4.65l0,0a10.63,10.63,0,0,0-3.61-3.74,8.16,8.16,0,0,0-4.06-1.11,7.88,7.88,0,0,0-1.25.1l-1.56.27a24.6,24.6,0,0,1-4.22.52A8.59,8.59,0,0,1,25,11.05a15.28,15.28,0,0,1-1.84-.41c-.64-.17-1.31-.34-2-.47l-.51-.11a9.42,9.42,0,0,0-1.79-.28h-.29a8.81,8.81,0,0,0-1.88.23l-.29.06a1.37,1.37,0,0,1-.26,0,5.22,5.22,0,0,1-2.6-.89l.72-.41.17-.09a7.41,7.41,0,0,1,3.79-1h.08a15.9,15.9,0,0,1,3,.47l.27.06.47.1c.58.12,1.14.24,1.66.38l.3.08.69.19.13,0a6.06,6.06,0,0,0,1.82.35,3.38,3.38,0,0,0,1.27-.24,3,3,0,0,0,1.79-3.54c-.47-1.82-2.11-2.33-3.56-2.79L26,2.73l-.64-.23A3,3,0,0,0,23.85,1C23,.55,21.52.1,18.19,0Z"/></g><path class="c" d="M3,16.08c.2-1.69,1.9-2.74,2.79-4.07a2.09,2.09,0,0,0,.31-1,5.26,5.26,0,0,0,.25-.87c0-.52-1.36-1.42-1.28-1.74.65,0,1.38.82,2,.76S8.14,8.07,8.45,7.7a13.57,13.57,0,0,1,4.47-3.63A11.43,11.43,0,0,1,18.1,3c4.16.11,4.41.83,4.5.77-.19.12-4.06-.35-6-.14a10.44,10.44,0,0,0-6,2.74h0c.33,0,2.72-1.32,3.53-1.55a14.26,14.26,0,0,1,4.65-.7,17.33,17.33,0,0,1,3.41.6,22.21,22.21,0,0,1,2.66.83c.24.09,1.79.51,1.85.77-.27.11-1.09-.21-1.37-.27s-.63-.17-.94-.26c-.75-.2-1.52-.35-2.28-.52a19.7,19.7,0,0,0-3.91-.59A10.39,10.39,0,0,0,13,6.07a9.63,9.63,0,0,0-3,2.11c-.73.94.22,2.05.9,2.74a7.68,7.68,0,0,0,6,2.09,7.08,7.08,0,0,1,1.76-.23,14.69,14.69,0,0,1,1.91.35c1.33.23,2.67.73,4,.9,2.59.33,5.18-.33,7.72-.74a5,5,0,0,1,3.35.66,8,8,0,0,1,2.63,2.84,8.61,8.61,0,0,1,1.38,3.55c.28,1.49.76,2.9,1.09,4.37a6.37,6.37,0,0,1-.2,3.6,3.16,3.16,0,0,0-.24,1s.12.53.11.55c-.26.47-.35-.23-.54-.22a13,13,0,0,1,0,2.65c-.08.88.31,1.75.2,2.59A5.44,5.44,0,0,0,39.91,36a4.72,4.72,0,0,1,.15,1.37c-.11.43-.28.44-.7.45-.12,0-.87,0-.95-.11s.44-1.49.45-1.87a29.61,29.61,0,0,0-.35-3.2,7.11,7.11,0,0,0-.73-2.6c-.22-.44-.55-.78-.81-1.19-.08-.12-.3-.76-.43-.77-.1.31.27.8.34,1.09a3,3,0,0,1-.11,1.3c-.21,1-.71,1.83-1,2.79a18,18,0,0,0-.72,3.17c0,.38.08,1.3-.19,1.62s0,.17-.36.06c0,0,0,.49,0,.53s-.39.09-.56.09c-.73,0-1.07,0-.8-.72a23.71,23.71,0,0,0,1.27-4.8c.39-3.2-.79-6.24-2.2-9-.08-.15-.23-.7-.39-.76s-.72.5-.83.59a10.11,10.11,0,0,1-1.8,1.22,7.65,7.65,0,0,1-4.63.56,13.25,13.25,0,0,1-2.27-.22c-.61-.22-1-.86-1.77-.42-1.17.71-.87,3-.81,4.09,0,.43.12.86.14,1.29a6.18,6.18,0,0,1-.28,1.2,8.87,8.87,0,0,0,.09,2.39,13.25,13.25,0,0,1,.58,2.52c0,.28,0,.44-.28.58s-.16-.19-.34-.14c-.52.14-.14,1.33-.27,1.62s-.93.33-1.39.24a7,7,0,0,0-1.28-.18c-.25,0-.7.09-.94-.06s-.16,0-.07-.33c.19-.58.93-1,1.19-1.62a6.42,6.42,0,0,0,.24-2.29,6.66,6.66,0,0,0-.15-2.1,6,6,0,0,1-.54-1.67c0-.62.25-1.22.26-1.85a11.91,11.91,0,0,0-.32-2.25c-.1-.54,0-.74-.53-.9-.7-.24-1.14-.16-1.62-.87-.37-.56-.55-1.27-.89-1.86a9.31,9.31,0,0,0-1.42-1.69,11.39,11.39,0,0,1-1.29-1.49,15.11,15.11,0,0,0-1.19-2.16c-.28-.33-.62-.63-.87-1-.12-.17-.27-.76-.41-.85-.39-.25-1.53.47-1.95.58a7.76,7.76,0,0,0-1,.21,3.22,3.22,0,0,1-.83.36C3.91,17,2.92,16.78,3,16.08Zm34.62,8.43c.13.55.42,2.19,1,2.45a16.79,16.79,0,0,1,.09-3.38,11.27,11.27,0,0,0,.07-3.78c-.39.24-.41,1.76-.48,2.15A11.31,11.31,0,0,1,38,23.16C37.91,23.5,37.54,24.15,37.63,24.51Z"/></svg>