<svg xmlns="http://www.w3.org/2000/svg" viewBox="0 0 43.94 42"><defs><style>.a{opacity:0.8;}.b{fill:#fff;}.c{fill:#1a2026;}</style></defs><title>Asset 256</title><g class="a"><path class="b" d="M25.3,40.5a2.13,2.13,0,0,1-2.1-1.2,2,2,0,0,1-.16-.9,2.08,2.08,0,0,1-.86-1.67,5.45,5.45,0,0,1,.38-2.08,5.47,5.47,0,0,0,.21-.76,7.07,7.07,0,0,0,.09-2,1.35,1.35,0,0,0-.07-.21,3.27,3.27,0,0,1-.23-1.26,8.19,8.19,0,0,1,.08-.82c0-.16,0-.33.06-.49l0-.41a9.12,9.12,0,0,0,0-2,3.55,3.55,0,0,1-.58.28,5.74,5.74,0,0,1-1.84.25,5.86,5.86,0,0,0-.71,0,11.65,11.65,0,0,1-1.76.14,8.34,8.34,0,0,1-3.76-.84,9.31,9.31,0,0,1-1.42-.89A13.59,13.59,0,0,0,11,33a22.56,22.56,0,0,0,1.19,4.48A2.08,2.08,0,0,1,12,39.44a2.17,2.17,0,0,1-1.94.8H10l-.31,0a1.77,1.77,0,0,1-1.54-.79A1.57,1.57,0,0,1,8,39.13L7.91,39a3.23,3.23,0,0,1-.54-2.19c0-.1,0-.2,0-.27a13.3,13.3,0,0,0-.52-2.38l-.08-.27V34a12.86,12.86,0,0,0-.18,1.76c0,.13.09.31.15.49a2.61,2.61,0,0,1,.09,2.23,2.11,2.11,0,0,1-2,.86H4.56a2,2,0,0,1-2.13-1.58,3.27,3.27,0,0,1,.05-1.57,2.06,2.06,0,0,0,.05-.27,1.79,1.79,0,0,0-.05-.22A4.68,4.68,0,0,1,2.33,35a5.75,5.75,0,0,1,.1-1.77,4,4,0,0,0,.09-.89c-.05-.58-.08-1.06-.09-1.47a2.09,2.09,0,0,1-.25-.36,1.73,1.73,0,0,1-.1-1.36c0-.08-.14-.42-.14-.42a7.84,7.84,0,0,1-.24-4.41c.15-.65.32-1.29.5-1.92.22-.82.44-1.6.59-2.39A10.09,10.09,0,0,1,4.4,16a9.36,9.36,0,0,1,3.14-3.31,6.68,6.68,0,0,1,3.32-.92,6.38,6.38,0,0,1,1,.08l1.53.27a25.62,25.62,0,0,0,4.49.54,10.25,10.25,0,0,0,1.27-.08,16.32,16.32,0,0,0,2-.44c.61-.16,1.25-.33,1.9-.44l.59-.13a8.07,8.07,0,0,1,1.51-.24h.22a7.32,7.32,0,0,1,1.58.2l.31.06a2.87,2.87,0,0,0,.55,0A6.56,6.56,0,0,0,32,9.87a3.58,3.58,0,0,0,.7-.88,9,9,0,0,0-2.23-1.52l-.17-.09a8.92,8.92,0,0,0-4.51-1.2,16.87,16.87,0,0,0-3.44.5l-.73.16c-.58.12-1.17.24-1.74.4l-.32.09-.66.18-.19.06a4.77,4.77,0,0,1-1.38.28,1.89,1.89,0,0,1-.7-.13,1.5,1.5,0,0,1-.89-1.77c.26-1,1.27-1.33,2.55-1.73l.23-.07c.43-.17.88-.32,1.36-.47A1.48,1.48,0,0,1,20,3a1.5,1.5,0,0,1,.71-.62c.67-.39,1.89-.8,5.05-.89h.35a12.79,12.79,0,0,1,5.54,1.23,15,15,0,0,1,5,4c.11.13.24.32.38.54l.15.23a3.43,3.43,0,0,1,1.64-.56h0a1.5,1.5,0,0,1,1.46,1.13,2.25,2.25,0,0,1-.94,2.16l-.17.17a2.75,2.75,0,0,1,.1.37l0,.15a1.91,1.91,0,0,0,0,.22,9.41,9.41,0,0,0,.95,1.11,6.52,6.52,0,0,1,2.1,3.64,2.09,2.09,0,0,1-.52,1.66,3,3,0,0,1-2.17.88A2.73,2.73,0,0,1,38.28,18L38.15,18a1.65,1.65,0,0,0-.24,0,5.27,5.27,0,0,1-.56-.11,4.57,4.57,0,0,1-.76-.3,7.07,7.07,0,0,1-.67.78l-.28.3a3.8,3.8,0,0,0-.51.91,8.71,8.71,0,0,1-.54,1.06,8.47,8.47,0,0,1-1.13,1.36l-.33.34-.42.44a5,5,0,0,0-.81,1,6,6,0,0,0-.3.67A7.13,7.13,0,0,1,31,25.64,3,3,0,0,1,29,27l-.06.3a8.06,8.06,0,0,0-.21,1.54,3.57,3.57,0,0,0,.1.62A5.61,5.61,0,0,1,29,30.7a4,4,0,0,1-.44,1.68,3.21,3.21,0,0,0-.16.4,5.7,5.7,0,0,0-.09,1.61c0,.2,0,.4,0,.62a3.71,3.71,0,0,0,.1,1.13,4,4,0,0,0,.31.36,4.21,4.21,0,0,1,.86,1.19,1.51,1.51,0,0,1-.52,2.23L29,40a2.17,2.17,0,0,1-1.19.31l-.4,0h-.12a5.12,5.12,0,0,0-.91.13l-.1,0A4.88,4.88,0,0,1,25.3,40.5Z"/><path class="b" d="M26.14,3A11.37,11.37,0,0,1,31,4.07,13.57,13.57,0,0,1,35.5,7.7c.31.37.87,1.46,1.36,1.51h.06c.61,0,1.32-.75,1.94-.76.08.32-1.26,1.22-1.28,1.74a5.26,5.26,0,0,0,.25.87,2.09,2.09,0,0,0,.31,1c.89,1.33,2.59,2.38,2.79,4.07.07.62-.68.86-1.19.86h-.2a3.22,3.22,0,0,1-.83-.36,7.77,7.77,0,0,0-1-.21A8.36,8.36,0,0,0,36,15.72a.4.4,0,0,0-.21.05c-.14.09-.29.68-.41.85-.25.36-.59.66-.87,1a15.11,15.11,0,0,0-1.19,2.16A11.39,11.39,0,0,1,32,21.25a9.31,9.31,0,0,0-1.42,1.69c-.34.59-.52,1.3-.89,1.86-.48.71-.91.63-1.62.87-.48.16-.42.36-.53.9a11.91,11.91,0,0,0-.32,2.25c0,.63.26,1.24.26,1.85A6,6,0,0,1,27,32.35a6.66,6.66,0,0,0-.15,2.1,6.42,6.42,0,0,0,.24,2.29c.26.57,1,1,1.19,1.62.09.28.28.11-.07.33a.75.75,0,0,1-.39.08l-.51,0h0a7,7,0,0,0-1.28.18,3.43,3.43,0,0,1-.66.07c-.32,0-.62-.07-.73-.31s.25-1.48-.27-1.62h0c-.11,0-.06.19-.18.19a.28.28,0,0,1-.13,0c-.24-.14-.26-.3-.28-.58a13.25,13.25,0,0,1,.58-2.52,8.87,8.87,0,0,0,.09-2.39,6.18,6.18,0,0,1-.28-1.2c0-.43.12-.86.14-1.29.06-1.11.37-3.38-.81-4.09a.93.93,0,0,0-.49-.15c-.46,0-.82.4-1.29.57a13.26,13.26,0,0,1-2.27.22,10.11,10.11,0,0,1-1.53.12,6.86,6.86,0,0,1-3.09-.68A10.11,10.11,0,0,1,12.93,24c-.11-.08-.65-.59-.81-.59h0c-.16.06-.32.61-.39.76-1.41,2.8-2.59,5.84-2.2,9A23.71,23.71,0,0,0,10.76,38c.26.74-.07.7-.8.72l-.28,0a.32.32,0,0,1-.28-.11s.06-.53,0-.53h0a2,2,0,0,0-.23.11s0,0-.13-.16c-.26-.32-.15-1.23-.19-1.62a18,18,0,0,0-.72-3.17c-.26-1-.76-1.83-1-2.79a3,3,0,0,1-.11-1.3c.07-.3.44-.78.34-1.09-.13,0-.36.65-.43.77-.26.41-.59.75-.81,1.19a7.11,7.11,0,0,0-.73,2.6,29.6,29.6,0,0,0-.35,3.2c0,.38.57,1.65.45,1.87s-.44.11-.71.11H4.58c-.42,0-.59,0-.7-.45A4.72,4.72,0,0,1,4,36a5.44,5.44,0,0,0-.21-1.17c-.11-.85.28-1.72.2-2.59A13.05,13.05,0,0,1,4,29.6H4c-.15,0-.23.38-.37.38s-.1,0-.17-.16.11-.52.11-.55a3.16,3.16,0,0,0-.24-1,6.37,6.37,0,0,1-.2-3.6c.33-1.47.81-2.88,1.09-4.37a8.61,8.61,0,0,1,1.38-3.55,8,8,0,0,1,2.63-2.84,5.18,5.18,0,0,1,2.58-.72,4.85,4.85,0,0,1,.77.06,39.86,39.86,0,0,0,6.26.83A11.65,11.65,0,0,0,19.34,14c1.33-.17,2.66-.66,4-.9a14.69,14.69,0,0,1,1.91-.35h.16A8,8,0,0,1,27,13a4.36,4.36,0,0,0,.83.08A8.07,8.07,0,0,0,33,10.93c.68-.69,1.63-1.8.9-2.74a9.63,9.63,0,0,0-3-2.11,10.39,10.39,0,0,0-5.23-1.39h-.11a19.7,19.7,0,0,0-3.91.59c-.76.16-1.53.31-2.28.52-.31.08-.62.18-.94.26a6.55,6.55,0,0,1-1.22.3l-.15,0c.07-.26,1.62-.68,1.85-.77a22.21,22.21,0,0,1,2.66-.83,17.33,17.33,0,0,1,3.41-.6h.42a14.85,14.85,0,0,1,4.23.7c.81.24,3.2,1.52,3.53,1.55h0a10.44,10.44,0,0,0-6-2.74,12,12,0,0,0-1.24-.05c-1.72,0-3.88.21-4.54.21a.56.56,0,0,1-.2,0h0c.11,0,.5-.66,4.49-.77h.31M5.3,27c.6-.27.89-1.9,1-2.45.08-.35-.29-1-.39-1.35a11.31,11.31,0,0,1-.31-1.21c-.08-.39-.1-1.91-.48-2.15a11.28,11.28,0,0,0,.07,3.78A16.79,16.79,0,0,1,5.3,27M26.14,0h-.39c-3.38.09-4.82.56-5.69,1a3,3,0,0,0-1.28,1.14,3,3,0,0,0-.17.31L18,2.73l-.17.05c-1.45.45-3.09,1-3.56,2.79A3,3,0,0,0,16,9.11a3.38,3.38,0,0,0,1.27.24A6.06,6.06,0,0,0,19.12,9l.13,0,.69-.19.3-.08c.52-.14,1.07-.26,1.66-.38l.47-.1.27-.06a15.9,15.9,0,0,1,3-.47h.08a7.41,7.41,0,0,1,3.79,1l.17.09.72.41a5.22,5.22,0,0,1-2.6.89,1.37,1.37,0,0,1-.26,0L27.29,10a8.81,8.81,0,0,0-1.88-.23h-.29a9.42,9.42,0,0,0-1.79.28l-.51.11c-.72.13-1.38.3-2,.47a15.28,15.28,0,0,1-1.84.41,8.59,8.59,0,0,1-1.08.06,24.6,24.6,0,0,1-4.22-.52l-1.56-.27a7.88,7.88,0,0,0-1.25-.1,8.16,8.16,0,0,0-4.06,1.11,10.63,10.63,0,0,0-3.61,3.74l0,0a11.6,11.6,0,0,0-1.83,4.65c-.14.74-.34,1.49-.56,2.28-.17.64-.35,1.29-.51,2a9.4,9.4,0,0,0,.28,5.22v0a3,3,0,0,0,.34,2l.08.14c0,.33,0,.7.08,1.09,0,.07,0,.32-.08.5a7.21,7.21,0,0,0-.11,2.22A5.62,5.62,0,0,0,1,36a4.64,4.64,0,0,0,0,2.16,3.49,3.49,0,0,0,3.55,2.72h.3A4.41,4.41,0,0,0,7,40.39a3.26,3.26,0,0,0,2.73,1.37l.39,0h.05a3.63,3.63,0,0,0,3.15-1.44A3.46,3.46,0,0,0,13.59,37a21.25,21.25,0,0,1-1.12-4.17,10.4,10.4,0,0,1,.84-5l.08,0a9.83,9.83,0,0,0,4.43,1,13.16,13.16,0,0,0,2-.16l.52,0c.27,0,.58,0,.91,0,0,.14,0,.27,0,.39s0,.25,0,.37a9.44,9.44,0,0,0-.1,1,4.74,4.74,0,0,0,.31,1.81v0a6.68,6.68,0,0,1-.1,1.43c0,.08-.1.34-.15.51a6.86,6.86,0,0,0-.45,2.65,3.66,3.66,0,0,0,.9,2.29,3.25,3.25,0,0,0,.25.81A3.65,3.65,0,0,0,25.3,42a6.36,6.36,0,0,0,1.25-.13l.1,0a4.4,4.4,0,0,1,.61-.1h0l.51,0a3.67,3.67,0,0,0,2-.54l.07,0a3,3,0,0,0,1.06-4.25,5.8,5.8,0,0,0-1.07-1.48h0c0-.14,0-.32,0-.46s0-.46,0-.68a4.29,4.29,0,0,1,0-1.11c0-.07.06-.14.09-.21a5.48,5.48,0,0,0,.57-2.28,7.07,7.07,0,0,0-.19-1.58c0-.12-.06-.29-.07-.35a4.16,4.16,0,0,1,.08-.67,4.49,4.49,0,0,0,1.88-1.63A8.46,8.46,0,0,0,33,24.93c.08-.2.17-.4.22-.5a3.87,3.87,0,0,1,.58-.68l.45-.47.3-.32a9.83,9.83,0,0,0,1.32-1.61,10.18,10.18,0,0,0,.64-1.23,4,4,0,0,1,.28-.55l.23-.25,0,0c.24.06.44.09.6.11a4.25,4.25,0,0,0,1.44.5,4.32,4.32,0,0,0,.65,0A4.43,4.43,0,0,0,43,18.55a3.57,3.57,0,0,0,.88-2.83,7.86,7.86,0,0,0-2.49-4.49l-.46-.5a3.31,3.31,0,0,0,.81-3,3,3,0,0,0-2.91-2.26h-.07a4,4,0,0,0-1.11.19,16.36,16.36,0,0,0-5.33-4.25A14.32,14.32,0,0,0,26.14,0Z"/></g><path class="c" d="M40.94,16.08c-.2-1.69-1.9-2.74-2.79-4.07a2.09,2.09,0,0,1-.31-1,5.26,5.26,0,0,1-.25-.87c0-.52,1.36-1.42,1.28-1.74-.65,0-1.38.82-2,.76S35.81,8.07,35.5,7.7A13.57,13.57,0,0,0,31,4.07,11.43,11.43,0,0,0,25.84,3c-4.16.11-4.41.83-4.5.77.19.12,4.06-.35,6-.14a10.44,10.44,0,0,1,6,2.74h0c-.33,0-2.72-1.32-3.53-1.55a14.26,14.26,0,0,0-4.65-.7,17.33,17.33,0,0,0-3.41.6A22.21,22.21,0,0,0,19,5.55c-.24.09-1.79.51-1.85.77.27.11,1.09-.21,1.37-.27s.63-.17.94-.26c.75-.2,1.52-.35,2.28-.52a19.7,19.7,0,0,1,3.91-.59A10.39,10.39,0,0,1,31,6.07a9.63,9.63,0,0,1,3,2.11c.73.94-.22,2.05-.9,2.74A7.68,7.68,0,0,1,27,13a7.08,7.08,0,0,0-1.76-.23,14.69,14.69,0,0,0-1.91.35c-1.33.23-2.67.73-4,.9-2.59.33-5.18-.33-7.72-.74a5,5,0,0,0-3.35.66,8,8,0,0,0-2.63,2.84,8.61,8.61,0,0,0-1.38,3.55C4,21.82,3.5,23.23,3.17,24.7a6.37,6.37,0,0,0,.2,3.6,3.16,3.16,0,0,1,.24,1s-.12.53-.11.55c.26.47.35-.23.54-.22a13,13,0,0,0,0,2.65c.08.88-.31,1.75-.2,2.59A5.44,5.44,0,0,1,4,36a4.72,4.72,0,0,0-.15,1.37c.11.43.28.44.7.45.12,0,.87,0,.95-.11s-.44-1.49-.45-1.87a29.61,29.61,0,0,1,.35-3.2,7.11,7.11,0,0,1,.73-2.6c.22-.44.55-.78.81-1.19.08-.12.3-.76.43-.77.1.31-.27.8-.34,1.09a3,3,0,0,0,.11,1.3c.21,1,.71,1.83,1,2.79a18,18,0,0,1,.72,3.17c0,.38-.08,1.3.19,1.62s0,.17.36.06c0,0,0,.49,0,.53s.39.09.56.09c.73,0,1.07,0,.8-.72a23.71,23.71,0,0,1-1.27-4.8c-.39-3.2.79-6.24,2.2-9,.08-.15.23-.7.39-.76s.72.5.83.59a10.11,10.11,0,0,0,1.8,1.22,7.65,7.65,0,0,0,4.63.56,13.25,13.25,0,0,0,2.27-.22c.61-.22,1-.86,1.77-.42,1.17.71.87,3,.81,4.09,0,.43-.12.86-.14,1.29a6.18,6.18,0,0,0,.28,1.2,8.87,8.87,0,0,1-.09,2.39,13.25,13.25,0,0,0-.58,2.52c0,.28,0,.44.28.58s.16-.19.34-.14c.52.14.14,1.33.27,1.62s.93.33,1.39.24a7,7,0,0,1,1.28-.18c.25,0,.7.09.94-.06s.16,0,.07-.33c-.19-.58-.93-1-1.19-1.62a6.42,6.42,0,0,1-.24-2.29,6.66,6.66,0,0,1,.15-2.1,6,6,0,0,0,.54-1.67c0-.62-.25-1.22-.26-1.85a11.91,11.91,0,0,1,.32-2.25c.1-.54,0-.74.53-.9.7-.24,1.14-.16,1.62-.87.37-.56.55-1.27.89-1.86A9.31,9.31,0,0,1,32,21.25a11.39,11.39,0,0,0,1.29-1.49,15.11,15.11,0,0,1,1.19-2.16c.28-.33.62-.63.87-1,.12-.17.27-.76.41-.85.39-.25,1.53.47,1.95.58a7.76,7.76,0,0,1,1,.21,3.22,3.22,0,0,0,.83.36C40,17,41,16.78,40.94,16.08ZM6.32,24.51c-.13.55-.42,2.19-1,2.45a16.79,16.79,0,0,0-.09-3.38,11.27,11.27,0,0,1-.07-3.78c.39.24.41,1.76.48,2.15a11.31,11.31,0,0,0,.31,1.21C6,23.5,6.4,24.15,6.32,24.51Z"/></svg>