<svg xmlns="http://www.w3.org/2000/svg" viewBox="0 0 42.07 45"><defs><style>.a{opacity:0.8;}.b{fill:#fff;}.c{fill:#1a2026;}</style></defs><title>Asset 254</title><g class="a"><path class="b" d="M4.54,43.5A1.5,1.5,0,0,1,3,42v-.1l-.19-.15a1.5,1.5,0,0,1-.59-1.28c.11-1.86.21-4.76.12-5.42L2,33a13.62,13.62,0,0,1-.21-6.49l-.08-.92a1.35,1.35,0,0,1,0-.2,6.49,6.49,0,0,1,.33-1.82c.08-1.25.54-5.34,3.46-6.63a7,7,0,0,1,3.56-1.43h.16s3.67.39,6.09.39a6.39,6.39,0,0,0,1.52-.1,21.74,21.74,0,0,1,6.34-1.17,9.52,9.52,0,0,1,2.09.21l.27.09a13.65,13.65,0,0,0,3.11.8A1.5,1.5,0,0,1,30.12,14h.19a14.58,14.58,0,0,1,2.14.48A50.48,50.48,0,0,0,28.09,3.75,1.5,1.5,0,0,1,30.53,2,31.32,31.32,0,0,1,35,9.57a50.9,50.9,0,0,0-.36-6,1.5,1.5,0,0,1,1.19-1.71l.29,0A1.5,1.5,0,0,1,37.54,3,64.34,64.34,0,0,1,38.8,15.12l.42,0a1.5,1.5,0,0,1,.7,2.71l-.18.15a3.4,3.4,0,0,1-.24,1.87,3.37,3.37,0,0,0,0,1.22A3.29,3.29,0,0,1,39,25a2.31,2.31,0,0,1-1.89,1h0A3.07,3.07,0,0,1,35,25a5.2,5.2,0,0,1-1.1.35,10.94,10.94,0,0,0-3.11,1.92,8.3,8.3,0,0,1-1.83,2.5,12.92,12.92,0,0,0-.29,2.95,1.26,1.26,0,0,1,.06.43h0a.57.57,0,0,1,0,.14,3.39,3.39,0,0,1-.09,2.33c-.06.71-.13,2.89,1.4,3.86a1.5,1.5,0,0,1,.12,2.44,3.28,3.28,0,0,1-1.93.67,2.83,2.83,0,0,1-1.76-.62l-.17-.15h0a2.6,2.6,0,0,1-1.46-1.29,2.84,2.84,0,0,1-.14-2.05,17,17,0,0,0-.35-3.89,1.47,1.47,0,0,1-.06-.31l-.08-.92a4,4,0,0,1-.79,2.34,8.26,8.26,0,0,0-.78,3l.8,1.66a1.5,1.5,0,0,1-1.06,2.12,10,10,0,0,1-1.7.18,2.14,2.14,0,0,1-2.21-1.17,1.5,1.5,0,0,1,0-1.21L18.31,40a1.5,1.5,0,0,1-.12-1.38,12.9,12.9,0,0,0,1.09-3.85,1.3,1.3,0,0,1,0-.66c.17-1,.34-2,.46-2.92a2.83,2.83,0,0,0-.39.15,1.49,1.49,0,0,1-.5.15,14.16,14.16,0,0,1-1.55.08,11.37,11.37,0,0,1-6-1.49c-.15,1.1-.39,2.73-.62,3.81,0,.25.11,2,2.16,5.35l1.43,1.19a1.5,1.5,0,0,1-.64,2.62,10.09,10.09,0,0,1-1.89.23,3.72,3.72,0,0,1-.79-.08,1.5,1.5,0,0,1-1.08-.93,2.6,2.6,0,0,1-1.23-2.14C8,38.64,7.19,37,6.6,35.9a10.62,10.62,0,0,0,0,3.61,15.31,15.31,0,0,0,1,1.52A1.5,1.5,0,0,1,6.41,43.5Z"/><path class="b" d="M29.39,3a33.15,33.15,0,0,1,6.16,13.31l.89.05s.21-9.39-.36-13a65.9,65.9,0,0,1,1.25,13.11l1.72.2s-.84.6-.89,1.09c0,0,.31,1.14-.11,1.64a5.19,5.19,0,0,0,.11,2.33s.78,1.64-.26,2.29a.91.91,0,0,1-.76.53c-.33,0-.77-.21-1.33-.87L35,23s-.21.59-1.62.84c0,0-3.29,1.44-4,2.63,0,0-.94,1.94-1.88,2.34,0,0-.68,3.33-.37,4.27,0,.45.47,1.34,0,2,0,0-.68,3.87,2,5.61a1.78,1.78,0,0,1-1,.35,1.32,1.32,0,0,1-.83-.3.6.6,0,0,0-.63-.4s-1-.35-.58-1.69a19.89,19.89,0,0,0-.42-4.57l-.42-4.77L24,29.13S22.65,31.91,22.71,33a2.59,2.59,0,0,1-.57,1.84s-1.41,3.18-.89,4.42L22.08,41a8.77,8.77,0,0,1-1.41.15c-.4,0-.75-.06-.83-.25,0,0,.73-.55.21-.95l-.47-.74s1.51-3.63,1.15-4.82a37.44,37.44,0,0,0,.63-5.12,14.22,14.22,0,0,0-2.71.75,12.92,12.92,0,0,1-1.38.07c-1.86,0-5.08-.33-6.46-2.5l-.89,1.14s-.42,3.33-.78,5c0,0-.26,2.18,2.51,6.56l1.62,1.34a8.79,8.79,0,0,1-1.56.19,2.27,2.27,0,0,1-.47,0l-.16-.65h0c-.19,0-.95-.08-.95-1.29,0,0-2.35-5.71-3.29-6.21L7,32.31S4.17,33.9,5.16,40a19.58,19.58,0,0,0,1.25,2H4.54v-.84l-.78-.6s.26-4.62.1-5.71l-.37-2.14a12,12,0,0,1-.15-6l-.1-1.19A4.64,4.64,0,0,1,3.54,24s.1-4.67,2.71-5.66a6.17,6.17,0,0,1,2.82-1.24s3.72.4,6.25.4a6.89,6.89,0,0,0,2.06-.2,20.34,20.34,0,0,1,5.81-1.07,8.05,8.05,0,0,1,1.76.18,15.6,15.6,0,0,0,5.67,1.06,14.17,14.17,0,0,0,1.43-.07s-1.72-1.14-1.93-1.89a12.76,12.76,0,0,1,3.6,1.09,4.15,4.15,0,0,0,.78-.2A55.08,55.08,0,0,0,29.39,3M5.16,30.17a3.69,3.69,0,0,0,1.3-2.83c-1.2-.89-1.88-4.22-1.88-4.22-.78.79.31,2.78.31,2.78,1,1.1.26,4.27.26,4.27M29.39,0a3,3,0,0,0-2.6,4.5,44.57,44.57,0,0,1,3.47,8h-.15A3,3,0,0,0,27.49,14a10.38,10.38,0,0,1-1.35-.42,3.21,3.21,0,0,0-.52-.17,11,11,0,0,0-2.43-.25,22.88,22.88,0,0,0-6.75,1.22,8.84,8.84,0,0,1-1.12,0c-2.33,0-5.89-.38-5.93-.38l-.32,0a8.21,8.21,0,0,0-4.32,1.62c-3.37,1.61-4,6-4.18,7.62a8,8,0,0,0-.34,2.06,3,3,0,0,0,0,.4l.06.67a15.13,15.13,0,0,0,.26,6.94l.33,1.91c.06.59,0,3.11-.13,5.1a3,3,0,0,0,.85,2.27A3,3,0,0,0,4.54,45H6.41a3,3,0,0,0,2.5-1.33,3,3,0,0,0,1.67,1,5.16,5.16,0,0,0,1.11.11,11.51,11.51,0,0,0,2.21-.26,3,3,0,0,0,1.27-5.24l-1.24-1A11.48,11.48,0,0,1,12.13,34c.1-.5.2-1.07.29-1.66a14.45,14.45,0,0,0,4.83.75h.65c0,.27-.09.54-.14.79a3,3,0,0,0,0,1.08,15.63,15.63,0,0,1-1,3.12,3,3,0,0,0,.06,2.44,3,3,0,0,0,.21,1.57,3.55,3.55,0,0,0,3.6,2.08,11.53,11.53,0,0,0,2-.21,3,3,0,0,0,2-1.39,4.23,4.23,0,0,0,.85.52l.06,0a4.32,4.32,0,0,0,2.68.93,4.78,4.78,0,0,0,2.86-1,3,3,0,0,0-.25-4.87c-.67-.43-.75-1.6-.73-2.25a5.06,5.06,0,0,0,.07-3l0-.07a3,3,0,0,0-.07-.42,13.31,13.31,0,0,1,.2-1.92A9.91,9.91,0,0,0,32,28.11a12.61,12.61,0,0,1,2.35-1.37l.29-.07a4.15,4.15,0,0,0,2.51.88,3.78,3.78,0,0,0,3-1.45A4.75,4.75,0,0,0,41,20.66a3,3,0,0,1,0-.38,4.56,4.56,0,0,0,.3-1.6,3,3,0,0,0-1-4.77A63.66,63.66,0,0,0,39,2.65,3,3,0,0,0,33.1,3,22.11,22.11,0,0,0,31.67,1a3,3,0,0,0-2.28-1Z"/></g><path class="c" d="M39.05,16.66l-1.72-.2A65.9,65.9,0,0,0,36.08,3.35c.57,3.63.36,13,.36,13l-.89-.05A33.15,33.15,0,0,0,29.39,3a55.08,55.08,0,0,1,5.12,13.37,4.15,4.15,0,0,1-.78.2,12.76,12.76,0,0,0-3.6-1.09c.21.74,1.93,1.89,1.93,1.89a15.63,15.63,0,0,1-7.1-1c-3.08-.7-7.57.89-7.57.89-1.36.54-8.3-.2-8.3-.2A6.17,6.17,0,0,0,6.26,18.3C3.65,19.3,3.54,24,3.54,24a4.64,4.64,0,0,0-.31,1.54l.1,1.19a12,12,0,0,0,.15,6l.37,2.14c.16,1.09-.1,5.71-.1,5.71l.78.6V42H6.41a19.58,19.58,0,0,1-1.25-2C4.17,33.9,7,32.31,7,32.31L6.78,33.6c.94.5,3.29,6.21,3.29,6.21,0,1.39,1,1.29,1,1.29l.16.65a6.64,6.64,0,0,0,2-.15l-1.62-1.34C8.87,35.89,9.13,33.7,9.13,33.7c.37-1.64.78-5,.78-5l.89-1.14c2,3.13,7.83,2.43,7.83,2.43a14.22,14.22,0,0,1,2.71-.75,37.44,37.44,0,0,1-.63,5.12c.36,1.19-1.15,4.82-1.15,4.82L20,40c.52.4-.21.95-.21.95.21.5,2.25.1,2.25.1l-.83-1.74c-.52-1.24.89-4.42.89-4.42A2.59,2.59,0,0,0,22.71,33C22.65,31.91,24,29.13,24,29.13l1.41.2.42,4.77a19.89,19.89,0,0,1,.42,4.57c-.47,1.34.58,1.69.58,1.69a.6.6,0,0,1,.63.4,1.52,1.52,0,0,0,1.83,0c-2.71-1.74-2-5.61-2-5.61.47-.64,0-1.54,0-2-.31-.94.37-4.27.37-4.27.94-.4,1.88-2.34,1.88-2.34.68-1.19,4-2.63,4-2.63C34.82,23.62,35,23,35,23l.78.64c1.46,1.74,2.09.35,2.09.35,1-.64.26-2.29.26-2.29a5.19,5.19,0,0,1-.11-2.33c.42-.5.11-1.64.11-1.64C38.22,17.26,39.05,16.66,39.05,16.66ZM5.16,30.17S5.89,27,4.9,25.9c0,0-1.1-2-.31-2.78,0,0,.68,3.33,1.88,4.22A3.69,3.69,0,0,1,5.16,30.17Z"/></svg>