<svg xmlns="http://www.w3.org/2000/svg" viewBox="0 0 42.05 45"><defs><style>.a{opacity:0.8;}.b{fill:#fff;}.c{fill:#1a2026;}</style></defs><title>Asset 255</title><g class="a"><path class="b" d="M35.64,43.5A1.5,1.5,0,0,1,34.49,41a15.51,15.51,0,0,0,1-1.52,10.51,10.51,0,0,0,0-3.59c-.58,1.08-1.35,2.73-2,4.22a2.59,2.59,0,0,1-1.23,2.14,1.5,1.5,0,0,1-1.08.93,3.72,3.72,0,0,1-.79.08,10.07,10.07,0,0,1-1.89-.23,1.5,1.5,0,0,1-.64-2.62l1.43-1.19c2-3.23,2.15-5,2.15-5.37-.23-1.08-.47-2.69-.62-3.79a11.38,11.38,0,0,1-6,1.49,14.18,14.18,0,0,1-1.55-.08,1.49,1.49,0,0,1-.5-.15,2.86,2.86,0,0,0-.39-.15c.12.89.29,2,.46,2.92a1.5,1.5,0,0,1,0,.71,13.71,13.71,0,0,0,1.1,3.8A1.5,1.5,0,0,1,23.75,40l-.13.21a1.49,1.49,0,0,1,0,1.26,2.14,2.14,0,0,1-2.21,1.17,10,10,0,0,1-1.7-.18,1.5,1.5,0,0,1-1.06-2.12l.8-1.66a8.27,8.27,0,0,0-.78-3,4,4,0,0,1-.79-2.36l-.08.94a1.47,1.47,0,0,1-.06.31,17,17,0,0,0-.35,3.89,2.84,2.84,0,0,1-.14,2.05,2.6,2.6,0,0,1-1.46,1.29h0l-.17.15a2.83,2.83,0,0,1-1.76.62,3.27,3.27,0,0,1-1.93-.67A1.5,1.5,0,0,1,12,39.44c1.52-1,1.46-3.15,1.4-3.86a3.39,3.39,0,0,1-.09-2.33c0-.08,0-.15,0-.22a1.05,1.05,0,0,1,.07-.39,13.63,13.63,0,0,0-.3-2.9,8.3,8.3,0,0,1-1.84-2.51,10.92,10.92,0,0,0-3.11-1.92A5.2,5.2,0,0,1,7.09,25,3.07,3.07,0,0,1,4.91,26,2.32,2.32,0,0,1,3,25a3.32,3.32,0,0,1-.49-4,3.63,3.63,0,0,0,0-1.18A3.4,3.4,0,0,1,2.31,18l-.19-.15a1.5,1.5,0,0,1,.7-2.71l.42,0A64.3,64.3,0,0,1,4.52,3,1.5,1.5,0,0,1,6,1.85l.29,0A1.5,1.5,0,0,1,7.46,3.58a51.11,51.11,0,0,0-.36,6A31.31,31.31,0,0,1,11.52,2,1.5,1.5,0,0,1,14,3.75,50.44,50.44,0,0,0,9.6,14.46,14.61,14.61,0,0,1,11.74,14h.19a1.5,1.5,0,0,1,1.47,1.82,13.22,13.22,0,0,0,3.1-.8l.27-.09a9.53,9.53,0,0,1,2.09-.21,21.74,21.74,0,0,1,6.31,1.16,5.75,5.75,0,0,0,1.56.11c2.42,0,6.05-.39,6.09-.39H33A7,7,0,0,1,36.54,17c2.91,1.29,3.38,5.38,3.45,6.63a6.49,6.49,0,0,1,.33,1.82,1.35,1.35,0,0,1,0,.2l-.08.92A13.64,13.64,0,0,1,40,33l-.35,2.05c-.09.61,0,3.52.12,5.38a1.5,1.5,0,0,1-.59,1.28L39,41.9V42a1.5,1.5,0,0,1-1.5,1.5Z"/><path class="b" d="M12.66,3h0m0,0A55.08,55.08,0,0,0,7.54,16.37a4.15,4.15,0,0,0,.78.2,12.76,12.76,0,0,1,3.6-1.09c-.21.74-1.93,1.89-1.93,1.89a14.17,14.17,0,0,0,1.43.07,15.6,15.6,0,0,0,5.67-1.06,8.05,8.05,0,0,1,1.76-.18,20.34,20.34,0,0,1,5.81,1.07,6.89,6.89,0,0,0,2.06.2c2.53,0,6.25-.4,6.25-.4A6.17,6.17,0,0,1,35.8,18.3c2.61,1,2.71,5.66,2.71,5.66a4.64,4.64,0,0,1,.31,1.54l-.1,1.19a12,12,0,0,1-.15,6l-.37,2.14c-.16,1.09.1,5.71.1,5.71l-.78.6V42H35.64a19.58,19.58,0,0,0,1.25-2c1-6.11-1.88-7.7-1.88-7.7l.26,1.29c-.94.5-3.29,6.21-3.29,6.21,0,1.22-.76,1.29-.95,1.29h0l-.16.65a2.27,2.27,0,0,1-.47,0,8.79,8.79,0,0,1-1.56-.19l1.62-1.34c2.77-4.37,2.51-6.56,2.51-6.56-.37-1.64-.78-5-.78-5l-.89-1.14c-1.37,2.17-4.6,2.5-6.46,2.5A12.92,12.92,0,0,1,23.42,30a14.22,14.22,0,0,0-2.71-.75,37.44,37.44,0,0,0,.63,5.12c-.36,1.19,1.15,4.82,1.15,4.82L22,40c-.52.4.21.95.21.95-.08.19-.43.25-.83.25A8.77,8.77,0,0,1,20,41l.83-1.74c.52-1.24-.89-4.42-.89-4.42A2.59,2.59,0,0,1,19.35,33c.05-1.09-1.25-3.88-1.25-3.88l-1.41.2-.42,4.77a19.89,19.89,0,0,0-.42,4.57c.47,1.34-.58,1.69-.58,1.69a.6.6,0,0,0-.63.4,1.32,1.32,0,0,1-.83.3,1.78,1.78,0,0,1-1-.35c2.71-1.74,2-5.61,2-5.61-.47-.64,0-1.54,0-2,.31-.94-.37-4.27-.37-4.27-.94-.4-1.88-2.34-1.88-2.34-.68-1.19-4-2.63-4-2.63C7.23,23.62,7,23,7,23l-.78.64c-.56.67-1,.87-1.33.87A.91.91,0,0,1,4.15,24c-1-.64-.26-2.29-.26-2.29A5.19,5.19,0,0,0,4,19.39c-.42-.5-.11-1.64-.11-1.64-.05-.5-.89-1.09-.89-1.09l1.72-.2A65.9,65.9,0,0,1,6,3.35c-.57,3.63-.36,13-.36,13l.89-.05A33.15,33.15,0,0,1,12.66,3M36.89,30.17s-.73-3.18.26-4.27c0,0,1.1-2,.31-2.78,0,0-.68,3.33-1.88,4.22a3.69,3.69,0,0,0,1.3,2.83m-25-14.7h0M12.66,0h-.12a3,3,0,0,0-2.1,1l-.09.1A22.86,22.86,0,0,0,9,3a3,3,0,0,0-5.9-.33A63.68,63.68,0,0,0,1.79,13.92a3,3,0,0,0-1,4.75,4.56,4.56,0,0,0,.3,1.61,3.08,3.08,0,0,1,0,.38,4.75,4.75,0,0,0,.86,5.43,3.78,3.78,0,0,0,3,1.45,4.15,4.15,0,0,0,2.51-.88l.29.07a12.61,12.61,0,0,1,2.35,1.37,9.9,9.9,0,0,0,1.68,2.38,13.53,13.53,0,0,1,.2,1.92,3,3,0,0,0-.07.42l0,.07a5.06,5.06,0,0,0,.08,3c0,.63-.06,1.81-.73,2.24A3,3,0,0,0,11,43.06a4.78,4.78,0,0,0,2.86,1,4.32,4.32,0,0,0,2.68-.93l.06,0a4.23,4.23,0,0,0,.85-.52,3,3,0,0,0,2,1.39,11.53,11.53,0,0,0,2,.21A3.55,3.55,0,0,0,25,42.07a3,3,0,0,0,.21-1.57,3,3,0,0,0,.06-2.44,15.5,15.5,0,0,1-1-3.11,3,3,0,0,0,0-1.08l-.14-.79h.65a14.45,14.45,0,0,0,4.83-.75c.09.58.19,1.16.29,1.66a11.48,11.48,0,0,1-1.79,4.27l-1.24,1a3,3,0,0,0,1.27,5.24,11.51,11.51,0,0,0,2.21.26,5.16,5.16,0,0,0,1.11-.11,3,3,0,0,0,1.66-1A3,3,0,0,0,35.64,45h1.88a3,3,0,0,0,2.93-2.34,3,3,0,0,0,.85-2.27c-.11-2-.19-4.49-.13-5.11l.33-1.91a15.13,15.13,0,0,0,.26-6.94l.06-.67a3,3,0,0,0,0-.4,8,8,0,0,0-.34-2.06c-.13-1.66-.81-6-4.18-7.62A8.21,8.21,0,0,0,33,14.06l-.32,0s-3.59.38-5.93.38a8.83,8.83,0,0,1-1.12,0,22.88,22.88,0,0,0-6.75-1.22,11,11,0,0,0-2.43.25,3,3,0,0,0-.54.18,10.38,10.38,0,0,1-1.33.42A3,3,0,0,0,12,12.47h-.17a44.86,44.86,0,0,1,3.42-7.88A3,3,0,0,0,12.74,0Zm0,6h0Z"/></g><path class="c" d="M3,16.66l1.72-.2A65.9,65.9,0,0,1,6,3.35c-.57,3.63-.36,13-.36,13l.89-.05A33.15,33.15,0,0,1,12.66,3,55.08,55.08,0,0,0,7.54,16.37a4.15,4.15,0,0,0,.78.2,12.76,12.76,0,0,1,3.6-1.09c-.21.74-1.93,1.89-1.93,1.89a15.63,15.63,0,0,0,7.1-1c3.08-.7,7.57.89,7.57.89,1.36.54,8.3-.2,8.3-.2A6.17,6.17,0,0,1,35.8,18.3c2.61,1,2.71,5.66,2.71,5.66a4.64,4.64,0,0,1,.31,1.54l-.1,1.19a12,12,0,0,1-.15,6l-.37,2.14c-.16,1.09.1,5.71.1,5.71l-.78.6V42H35.64a19.58,19.58,0,0,0,1.25-2c1-6.11-1.88-7.7-1.88-7.7l.26,1.29c-.94.5-3.29,6.21-3.29,6.21,0,1.39-1,1.29-1,1.29l-.16.65a6.64,6.64,0,0,1-2-.15l1.62-1.34c2.77-4.37,2.51-6.56,2.51-6.56-.37-1.64-.78-5-.78-5l-.89-1.14c-2,3.13-7.83,2.43-7.83,2.43a14.22,14.22,0,0,0-2.71-.75,37.44,37.44,0,0,0,.63,5.12c-.36,1.19,1.15,4.82,1.15,4.82L22,40c-.52.4.21.95.21.95C22,41.4,20,41,20,41l.83-1.74c.52-1.24-.89-4.42-.89-4.42A2.59,2.59,0,0,1,19.35,33c.05-1.09-1.25-3.88-1.25-3.88l-1.41.2-.42,4.77a19.89,19.89,0,0,0-.42,4.57c.47,1.34-.58,1.69-.58,1.69a.6.6,0,0,0-.63.4,1.52,1.52,0,0,1-1.83,0c2.71-1.74,2-5.61,2-5.61-.47-.64,0-1.54,0-2,.31-.94-.37-4.27-.37-4.27-.94-.4-1.88-2.34-1.88-2.34-.68-1.19-4-2.63-4-2.63C7.23,23.62,7,23,7,23l-.78.64C4.77,25.41,4.15,24,4.15,24c-1-.64-.26-2.29-.26-2.29A5.19,5.19,0,0,0,4,19.39c-.42-.5-.11-1.64-.11-1.64C3.84,17.26,3,16.66,3,16.66ZM36.89,30.17s-.73-3.18.26-4.27c0,0,1.1-2,.31-2.78,0,0-.68,3.33-1.88,4.22A3.69,3.69,0,0,0,36.89,30.17Z"/></svg>