<?xml version="1.0" encoding="utf-8"?>
<!-- Generator: Adobe Illustrator 23.0.3, SVG Export Plug-In . SVG Version: 6.00 Build 0)  -->
<svg version="1.0" id="Layer_1" xmlns="http://www.w3.org/2000/svg" xmlns:xlink="http://www.w3.org/1999/xlink" x="0px" y="0px"
	 width="60px" height="60px" viewBox="0 0 60 60" enable-background="new 0 0 60 60" xml:space="preserve">
<title>DAS map icons</title>
<g>
	<path opacity="0.8" fill="#FFFFFF" enable-background="new    " d="M30,14c-6.5,0-9.3,2.5-9.5,4.8L20,22l-3.8,2c-0.5,0.3-1,1-1,1.8
		c-0.3,0.8,0,1.3,0.8,1.8c0.8,0.5,2.5,1.5,5.3,1.8c0.5,1.5,1.5,3,2.5,4.3h-3.3c-2.8,0.8-4.5,4-5.5,10c0,0.5,0.3,1.3,0.5,1.8
		c0.5,0.5,1,0.8,1.8,0.8h25.5c0.8,0,1.3-0.3,1.8-0.8c0.3-0.5,0.5-1.3,0.5-1.8c0-0.3-0.8-8.8-5.5-9.8h-3.3c1.3-1,2-2.5,2.5-4
		c3.5-0.8,4.8-1.3,5.5-2c0.5-0.5,0.8-1.3,0.5-2c0-0.8-0.5-1.3-1-1.5L40.3,22v-3C39.5,16,35.3,14,30,14z"/>
	<path fill="#1A2026" d="M42.8,43.8H17.2c0.5-2.3,1.3-7.5,3.8-8h18C41.5,36.3,42.5,41.5,42.8,43.8z M23.5,28
		c0.5,3.8,3.8,6.3,7.5,5.8c3-0.3,5.5-2.8,5.8-5.8c0-0.3,0-0.5-0.3-0.8c6.3-0.5,6-1.3,6-1.3L38,23l-0.5-4c0-1-2.5-2.8-7.5-2.8
		s-7.3,1.5-7.5,2.8L22,23.2L17.5,26c0,0,0.8,0.8,6,1.3V28z"/>
</g>
</svg>
