<svg xmlns="http://www.w3.org/2000/svg" viewBox="0 0 50 28.11"><defs><style>.a{opacity:0.8;}.b{fill:#fff;}.c{fill:#5a6066;}</style></defs><title>Asset 3</title><g class="a"><path class="b" d="M11.29,16.77a4.3,4.3,0,1,0,4.3,4.3A4.3,4.3,0,0,0,11.29,16.77Zm0,6.41a2.1,2.1,0,1,1,2.1-2.1A2.1,2.1,0,0,1,11.29,23.18ZM46.09,5.57H44.65A1.23,1.23,0,0,0,43.42,6.8v6.13a1.23,1.23,0,0,0,1.23,1.23h1.44a1.23,1.23,0,0,0,1.23-1.23V6.8A1.23,1.23,0,0,0,46.09,5.57Zm.48,9.48h-4V5.14a2.46,2.46,0,0,0-2.46-2.46H23a2.61,2.61,0,0,0-2.32,1.23l-3.8,5.35H6.69a2,2,0,0,0-2,2V15H3.42a.74.74,0,0,0-.74.74v1.95a.74.74,0,0,0,.74.74H6.25V15.33A1.23,1.23,0,0,1,7.47,14.1h6.35a2,2,0,0,1,1.7,1.23l1.09,2.85a1.31,1.31,0,0,1,.08.29H30.42l.83-2.19a1.69,1.69,0,0,1,1.64-1.23h5.72a1.69,1.69,0,0,1,1.64,1.23l.83,2.19h5.49a.74.74,0,0,0,.74-.74V15.79A.74.74,0,0,0,46.57,15.05ZM19.39,8.5l2.53-3.56c.37-.49.53-.53.94-.53h3.77a.74.74,0,0,1,.74.74V8.5a.74.74,0,0,1-.74.74h-7C19.2,9.24,19.1,8.91,19.39,8.5Zm8,4a.72.72,0,0,1-.57-.25H25.05a.49.49,0,1,1,0-1h1.78A.71.71,0,0,1,27.4,11,.74.74,0,1,1,27.4,12.49ZM40,8.5a.74.74,0,0,1-.74.74H29.74A.74.74,0,0,1,29,8.5V5.14a.74.74,0,0,1,.74-.74h9.54a.74.74,0,0,1,.74.74Zm-4.25,8.33a4.3,4.3,0,1,0,4.3,4.31A4.3,4.3,0,0,0,35.77,16.83Zm0,6.41a2.1,2.1,0,1,1,2.11-2.1A2.1,2.1,0,0,1,35.77,23.24Z"/><path class="b" d="M40.08,2.68a2.46,2.46,0,0,1,2.46,2.46V15h4a.74.74,0,0,1,.74.74v1.95a.74.74,0,0,1-.74.74H41.08l-.83-2.19a1.69,1.69,0,0,0-1.64-1.23H32.89a1.69,1.69,0,0,0-1.64,1.23l-.83,2.19H16.69a1.31,1.31,0,0,0-.08-.29l-1.09-2.85a2,2,0,0,0-1.7-1.23H7.47a1.23,1.23,0,0,0-1.23,1.23v3.14H3.42a.74.74,0,0,1-.74-.74V15.79a.74.74,0,0,1,.74-.74h1.3V11.23a2,2,0,0,1,2-2H16.92l3.8-5.35A2.61,2.61,0,0,1,23,2.68h17M19.61,9.24h7a.74.74,0,0,0,.74-.74V5.14a.74.74,0,0,0-.74-.74H22.85c-.4,0-.56,0-.93.53L19.39,8.5c-.29.41-.19.74.22.74m10.13,0h9.54A.74.74,0,0,0,40,8.5V5.14a.74.74,0,0,0-.74-.74H29.74a.74.74,0,0,0-.74.74V8.5a.74.74,0,0,0,.74.74m-4.69,3h1.78a.72.72,0,0,0,.57.25.74.74,0,1,0,0-1.48.71.71,0,0,0-.57.25H25.05a.49.49,0,1,0,0,1m21-6.68A1.23,1.23,0,0,1,47.32,6.8v6.13a1.23,1.23,0,0,1-1.23,1.23H44.65a1.23,1.23,0,0,1-1.23-1.23V6.8a1.23,1.23,0,0,1,1.23-1.23h1.44M11.29,16.77A4.3,4.3,0,1,1,7,21.08a4.3,4.3,0,0,1,4.3-4.3m0,6.41a2.1,2.1,0,1,0-2.1-2.1,2.1,2.1,0,0,0,2.1,2.1m24.48-6.36a4.3,4.3,0,1,1-4.3,4.31,4.3,4.3,0,0,1,4.3-4.31m0,6.41a2.1,2.1,0,1,0-2.1-2.1,2.11,2.11,0,0,0,2.1,2.1M40.08,0H23a5.24,5.24,0,0,0-4.46,2.3l0,0,0,0-3,4.22H6.69A4.65,4.65,0,0,0,2,11.23v1.43a3.43,3.43,0,0,0-2,3.13v1.95a3.42,3.42,0,0,0,3.42,3.42h.89a7,7,0,0,0,14,0H28.79a7,7,0,0,0,14,0h3.82A3.42,3.42,0,0,0,50,17.74V15.79a3.4,3.4,0,0,0-.28-1.36,3.89,3.89,0,0,0,.3-1.5V6.8a3.92,3.92,0,0,0-3.91-3.91H44.7A5.15,5.15,0,0,0,40.08,0Z"/></g><path class="c" d="M11.29,16.77a4.3,4.3,0,1,0,4.3,4.3A4.3,4.3,0,0,0,11.29,16.77Zm0,6.41a2.1,2.1,0,1,1,2.1-2.1A2.1,2.1,0,0,1,11.29,23.18ZM46.09,5.57H44.65A1.23,1.23,0,0,0,43.42,6.8v6.13a1.23,1.23,0,0,0,1.23,1.23h1.44a1.23,1.23,0,0,0,1.23-1.23V6.8A1.23,1.23,0,0,0,46.09,5.57Zm.48,9.48h-4V5.14a2.46,2.46,0,0,0-2.46-2.46H23a2.61,2.61,0,0,0-2.32,1.23l-3.8,5.35H6.69a2,2,0,0,0-2,2V15H3.42a.74.74,0,0,0-.74.74v1.95a.74.74,0,0,0,.74.74H6.25V15.33A1.23,1.23,0,0,1,7.47,14.1h6.35a2,2,0,0,1,1.7,1.23l1.09,2.85a1.31,1.31,0,0,1,.08.29H30.42l.83-2.19a1.69,1.69,0,0,1,1.64-1.23h5.72a1.69,1.69,0,0,1,1.64,1.23l.83,2.19h5.49a.74.74,0,0,0,.74-.74V15.79A.74.74,0,0,0,46.57,15.05ZM19.39,8.5l2.53-3.56c.37-.49.53-.53.94-.53h3.77a.74.74,0,0,1,.74.74V8.5a.74.74,0,0,1-.74.74h-7C19.2,9.24,19.1,8.91,19.39,8.5Zm8,4a.72.72,0,0,1-.57-.25H25.05a.49.49,0,1,1,0-1h1.78A.71.71,0,0,1,27.4,11,.74.74,0,1,1,27.4,12.49ZM40,8.5a.74.74,0,0,1-.74.74H29.74A.74.74,0,0,1,29,8.5V5.14a.74.74,0,0,1,.74-.74h9.54a.74.74,0,0,1,.74.74Zm-4.25,8.33a4.3,4.3,0,1,0,4.3,4.31A4.3,4.3,0,0,0,35.77,16.83Zm0,6.41a2.1,2.1,0,1,1,2.11-2.1A2.1,2.1,0,0,1,35.77,23.24Z"/></svg>