<svg xmlns="http://www.w3.org/2000/svg" width="31.1" height="32" viewBox="0 0 31.1 32">
  <title>subject-serval-female</title>
  <g id="Layer_2" data-name="Layer 2">
    <g id="Layer_1-2" data-name="Layer 1">
      <path d="M.1,14.3c.2-2.1,1.2-5.6,2.2-6.5A8.3,8.3,0,0,1,6.6,5.3h0a5.8,5.8,0,0,1,1.9-.4c2.3-.2,7.5,1.3,8.6,1.3s1.5-.7,2.6-1.3,2.1-.1,3,0l1.7-.4V3c-.1-.8-.3-2.3.8-2.9s1.7.9,1.9,1.8.1.7.1.9h.9a6.6,6.6,0,0,0,.8-1.3c.3-.5.7-1.6,1.7-1.4s.2,2.5-.1,3.3A4.2,4.2,0,0,0,30.3,5h0s-.1,1.1-.2,1.5a12.8,12.8,0,0,1-.8,2c-.2.2-.3.6-.9.7a1.6,1.6,0,0,1-1.3-.5h0a15.9,15.9,0,0,1-.7,2c-.4,1.2-1.6,1.8-1.9,2.5a19.4,19.4,0,0,0-.3,3.8c-.2,1.3-.8,5-.8,6.3a11.9,11.9,0,0,0,.4,3.1c0,.1.4-.2,1.2-.2s.9,1,.8,1.1a9.5,9.5,0,0,1-2.5.3,4.9,4.9,0,0,1-1.1-1.8,21.6,21.6,0,0,1-.8-3.9l-.9,1.2c-.3.3-.6,2.3-1.1,2.5s-.8-.4-1.1-1.3.6-1.5,1.1-2.1a2.7,2.7,0,0,0,.5-2l-1.4-3.4v-1H16a36.9,36.9,0,0,1-5.3-.8s-1.2,4.3-1.6,5.3l-.4.5c.1,2,.3,4.8.4,5s1.6,2.6,1.5,3.1-1.7.7-2,.4-.4-1.5-.7-1.8a4.5,4.5,0,0,1-.7-1.8c-.1-.6-.2-2.1-.4-3.2A9.7,9.7,0,0,0,4.3,25a10.8,10.8,0,0,0-.8,4.4c.1.8.3,1.2.5,1.2s.8-.5,1.4-.3.8,1,.6,1.2-2.3.6-2.6.5a1.9,1.9,0,0,1-1.1-1.2,58.4,58.4,0,0,1-1.1-7.3c-.1-.9,3.4-5,3.5-5.9S3.8,15,3.6,13.9v-.3a19.4,19.4,0,0,1-.5,2c-.4,1.7-1.2,2.9-2,3S-.1,16.4.1,14.3Z" fill="#1a2026"/>
    </g>
  </g>
</svg>
