<svg xmlns="http://www.w3.org/2000/svg" viewBox="0 0 25.8 44"><defs><style>.a{fill:#201d1d;}</style></defs><path class="a" d="M25.4,26a3.7,3.7,0,0,1-1.1-2.5c.3-2-.8-4.1-1-6.1s-2.5-4.7-4.5-6.2a16.5,16.5,0,0,0-3.1-2,12.8,12.8,0,0,0-3.4-1.4H9.5c2.4-3.8,1-6.7,1-6.7A5.6,5.6,0,0,1,11,.3c-.1.1-.8-.3-1-.3S9.3.7,8.8.8,7.5.7,6.8.8A6.4,6.4,0,0,0,5,1.4a4.5,4.5,0,0,0-1.4,1A3.2,3.2,0,0,0,3.2,4,20.4,20.4,0,0,1,1.5,8.7C1,9.6,0,10.5,0,11.6a1.3,1.3,0,0,0,1,1.3c0-.1,0-.3.1-.3h.2a16.3,16.3,0,0,0,1.9-.9,6.1,6.1,0,0,0,1.5-1.3l.4-.6V9.5a5.2,5.2,0,0,0,.7,2.1c.8,1.8,1.4,3.7,2.3,5.5s1.4,2.5,2.2,3.7.6,2.3,1.2,3.3a2.7,2.7,0,0,1,.2,1v4.2l-.2.4v.4a8.8,8.8,0,0,0-.2,1.6,4.3,4.3,0,0,0,.1.5c-.2,1.6-.4,3.3-.7,4.9l-.3,2.1a5.5,5.5,0,0,0-.2,1.8l-1.1.3h-1l-.9-.3c-.1-.1-.5-.4-.7-.3s-.1.1-.2.2,0,.1.1.1l.8.3.5.2.5.2-2.8.3a.8.8,0,0,0-.5.5,14.7,14.7,0,0,1,2.1,0H8.7a2.2,2.2,0,0,1,.9-.2l1.3.4v.3l-2.3.4-.4.5h1.9a4.7,4.7,0,0,0,1.7-.2h.1a1.5,1.5,0,0,1,1.1-.3s.4.2.6-.1.4-.4.4,0-.2.2.1.4-.1.4,0,.5l.4.3c0-.1-.1-.7,0-.8a.3.3,0,0,0-.1-.5s-.1-.3.2-.2h.7l.9-.8h.1c.1-.1-.3-.2-.4-.2l-.5.5a.7.7,0,0,1-.9-.3V40.6a4.7,4.7,0,0,1-.1-1.7v-.7l.2-1.9.4-3.4c0-.1-.1-.2,0-.2l.5-1c.4-.6,0-2,0-2l.2-4.1a3.3,3.3,0,0,1,.6-1.2,6,6,0,0,0,4.6,2.2l1.6,1.3.4-.2c1.8,1.7,2.7,1,2.7,1S25.4,26,25.4,26ZM10.8,41.9h-.3C10.5,41.8,10.8,41.5,10.8,41.9Zm.5.7h0Zm3.4-12.8a5,5,0,0,0-.7,1.6,2.3,2.3,0,0,0,.1,1.3l-.4,6.2v.4a16.1,16.1,0,0,0-.2,2.6l-1.1.3h-1a.2.2,0,0,0-.1-.4s-.1-.3.2-.2l.7.2a5.5,5.5,0,0,1,1-.8s0-.3-.4-.3l-.5.5a.5.5,0,0,1-.8-.4V38.7l1.1-5.9c.1-.3.3-.5.4-.8a3.2,3.2,0,0,0,.3-1.9l-.3-.8c0-.1-.1-.2-.1-.3a8.6,8.6,0,0,1,0-1.6,17.7,17.7,0,0,1-.1-2.3,15,15,0,0,1,.2-2c0-.4,0-1.2.6-1.2s.8.6,1,1a4.7,4.7,0,0,1,.4,1.7v1.2c0,.9-.1,1.8-.1,2.6A7.1,7.1,0,0,0,14.7,29.8Z"/></svg>
