<svg xmlns="http://www.w3.org/2000/svg" viewBox="0 0 25.8 44"><defs><style>.a{fill:#201d1d;}</style></defs><path class="a" d="M.3,28.7s.9.7,2.7-1l.3.2L5,26.6a5.9,5.9,0,0,0,4.5-2.2s.7.8.7,1.2l.2,4.1a3.9,3.9,0,0,0-.1,2,4.1,4.1,0,0,0,.6,1v.2l.3,3.4.2,1.9a1.5,1.5,0,0,0,.1.7c0,.6-.1,1.2-.1,1.7v1.1a.7.7,0,0,1-.9.3l-.5-.5c-.1,0-.4.1-.3.2h0l.9.8h.7c.3-.1.2.2.2.2s0,.5,0,.5-.1.7-.1.8a.4.4,0,0,0,.4-.3c.1-.1.1-.5.1-.5a.4.4,0,0,0,.1-.4c0-.4.3,0,.3,0s.6.1.6.1a1.9,1.9,0,0,1,1.2.3h0a5.2,5.2,0,0,0,1.7.2h1.1c.1,0,.8,0,.8.1a1,1,0,0,0-.4-.5L15,42.7v-.3l1.3-.4a2.2,2.2,0,0,1,.9.2h1.5a16.2,16.2,0,0,1,2.2,0l-.5-.5-2.8-.3.5-.2.4-.2c.3-.1.6-.1.8-.3s.2,0,.1-.1l-.2-.2c-.1-.1-.6.2-.7.3l-.8.3H16.5L15.4,41a5.5,5.5,0,0,0-.2-1.8l-.3-2.1c-.2-1.6-.4-3.3-.7-4.9a4.1,4.1,0,0,0,0-2.1c0-.2-.1-.3-.1-.4s-.1-.3-.1-.4V25.1a2.7,2.7,0,0,1,.2-1c.6-1,.6-2.3,1.3-3.3s1.5-2.4,2.1-3.7,1.5-3.7,2.3-5.5a4,4,0,0,0,.7-2.1.2.2,0,0,0,.2.2l.4.6a5.7,5.7,0,0,0,1.4,1.3,16.3,16.3,0,0,0,1.9.9h.3v.3a1.2,1.2,0,0,0,1-1.3c0-1.1-1-2-1.5-2.9A16.3,16.3,0,0,1,22.7,4c-.2-.6-.1-1-.5-1.6a3,3,0,0,0-1.4-1A4.8,4.8,0,0,0,19,.8c-.6-.1-1.3.1-1.9,0S16.3.1,15.8,0s-.9.4-1,.3.6.7.5.8S14,4,16.3,7.8H13.5a14.3,14.3,0,0,0-3.4,1.4,20.5,20.5,0,0,0-3.1,2c-2,1.5-4.1,3.6-4.4,6.2s-1.3,4.1-1.1,6.1A3.7,3.7,0,0,1,.4,26S-.4,27.8.3,28.7ZM15.4,41.9H15C15,41.5,15.3,41.8,15.4,41.9Zm-1,.7h0ZM11.1,28.4c-.1-.8-.1-1.7-.2-2.6V24.6a3.4,3.4,0,0,1,.5-1.7c.2-.4.5-1,1-1s.5.8.6,1.2a14.1,14.1,0,0,1,.1,2v2.3A8.6,8.6,0,0,1,13,29c0,.1-.1.2-.1.3a2.4,2.4,0,0,0-.2.8,2.5,2.5,0,0,0,.2,1.9,3.5,3.5,0,0,0,.5.8l1,5.9v2.1a.6.6,0,0,1-.9.4,2,2,0,0,0-.5-.5.4.4,0,0,0-.4.3l1.1.8.7-.2c.3-.1.2.2.2.2a.4.4,0,0,0-.2.4h-1l-1.1-.3a16.1,16.1,0,0,0-.2-2.6v-.4l-.4-6.2a2.3,2.3,0,0,0,.1-1.3,6.7,6.7,0,0,0-.6-1.6A6.1,6.1,0,0,1,11.1,28.4Z"/></svg>
