<svg xmlns="http://www.w3.org/2000/svg" viewBox="0 0 53.77 30.55"><defs><style>.cls-1{fill:#1a2026;}</style></defs><g id="Layer_2" data-name="Layer 2"><g id="Layer_1-2" data-name="Layer 1"><path class="cls-1" d="M15.57,4h0Z"/><path class="cls-1" d="M.63,26.72c.19-1.29.4-3.64.54-4.49S2.31,21.17,3,20.78a11.52,11.52,0,0,0,2.76-3.34c.64-1.19,0-3.74.17-6.27S7.88,7.36,9.42,6.42a18.24,18.24,0,0,1,4.23-1.58c.3,0,.52-.3.73-.35s.6,0,.86-.21c0,0-.05-.09-.09-.13a3.33,3.33,0,0,0,.4-.16.87.87,0,0,0,.67-.1s-.09,0-.17-.08a2.58,2.58,0,0,0,1.11,0A.81.81,0,0,1,17,3.68c.34,0,.73.17,1,0,0,0-.09-.09-.09-.13.17,0,.3-.08.47-.08l-.3-.18c.43.13,1,.43,1.46.22a1,1,0,0,0-.43-.26c.34.09.73.22,1,0-.13,0-.26-.21-.39-.25a2.12,2.12,0,0,0,1,.08c-.13,0-.26-.21-.39-.26A5.29,5.29,0,0,0,22,3c0-.09,0-.26,0-.35a5.06,5.06,0,0,1,.64.35,1.61,1.61,0,0,1,.21-.35V2.31c.13.13.35.22.48.34A3.46,3.46,0,0,1,23.2,2l.64.39c0-.09.08-.22.08-.3,0,.08.22.17.3.3V2.05a.76.76,0,0,0,.18.18c0-.18,0-.35-.09-.52a6.48,6.48,0,0,0,.56.34c-.05-.12-.05-.3-.09-.42a6.82,6.82,0,0,0,.73.42c0-.12.08-.3,0-.42.13.08.39.12.51.21,0-.17.05-.43,0-.6.09.09.26.09.35.17-.05-.13,0-.34-.05-.47a5.59,5.59,0,0,0,.65.39C27,1.16,27,1,26.92.81v0a2.07,2.07,0,0,1,.68.34c0-.17,0-.34,0-.47.13.17.35.22.48.34,0-.21,0-.47,0-.68a2,2,0,0,1,.64.6,6.84,6.84,0,0,0-.08-.9,3.25,3.25,0,0,1,.56,1.24A5.2,5.2,0,0,0,29.06.13a2.46,2.46,0,0,1,.68,1.07c0-.26.05-.56.05-.81a2.59,2.59,0,0,1,.21.85,1.9,1.9,0,0,0,.17-.85,2.12,2.12,0,0,1,.26,1,3.82,3.82,0,0,0,.21-1,1.56,1.56,0,0,1,.3.85,1.36,1.36,0,0,0,.13-.42,2.17,2.17,0,0,1,0,.51,2.79,2.79,0,0,0,.34-.64,3.41,3.41,0,0,0,0,.64,6,6,0,0,1,.43-.64c0,.17,0,.43,0,.6.08-.17.26-.26.38-.43,0,.21,0,.43,0,.64A4,4,0,0,1,32.65.9a5,5,0,0,1-.08.77,5.15,5.15,0,0,1,.47-.6,1.91,1.91,0,0,0-.13.51,9.12,9.12,0,0,1,.56-.81,3.77,3.77,0,0,1,0,1.16l.12-.26a3.86,3.86,0,0,0,0,.68A2,2,0,0,0,34,1.63c0,.21,0,.47-.08.68a2.44,2.44,0,0,1,.6-.56,1.62,1.62,0,0,1-.09.78A3.46,3.46,0,0,0,35,1.67a2.21,2.21,0,0,1-.18,1c.13-.17.35-.35.48-.52a4.22,4.22,0,0,1-.22.47,5.44,5.44,0,0,1,.56-.42c-.09.17,0,.38-.13.59.13-.12.34-.21.47-.34a2.27,2.27,0,0,0-.13.56c.09-.13.22-.17.3-.3-.08.13-.08.34-.17.47a1.41,1.41,0,0,0,.43-.13s0,.09,0,.17A4.06,4.06,0,0,0,37,3c-.09.09-.09.26-.13.35.17-.13.3-.13.47-.26,0,.08-.09.21-.13.3.17-.09.39-.13.6-.26a2.35,2.35,0,0,0-.21.39,2.88,2.88,0,0,1,.64-.17c-.09.08-.13.21-.22.3a.72.72,0,0,0,.52-.35,2.11,2.11,0,0,0-.26.52l.39-.13v.13l.25-.26c0,.13.09.26.09.34a2,2,0,0,1,.3-.17c0,.13,0,.26,0,.39a2.12,2.12,0,0,0,.26-.26c0,.13.08.3.08.43.09-.13.26-.22.3-.35,0,.09.05.26.05.39.12-.13.29-.21.38-.34,0,.13,0,.38,0,.51.08-.13.25-.26.38-.43-.08.22-.08.39-.13.56a4.65,4.65,0,0,0,.48-.43,2.27,2.27,0,0,0-.13.56c.08-.13.21-.22.3-.34,0,.08,0,.25,0,.38l.26-.26a.75.75,0,0,1,0,.3.74.74,0,0,0,.21-.17c0,.13,0,.26,0,.39,0-.09.13-.17.17-.26a1.55,1.55,0,0,1,0,.31c.09-.1.2-.18.23-.28,0,.08,0,.25,0,.38.13-.13.3-.21.38-.34,0,.13,0,.38,0,.51.09-.13.26-.25.38-.43a3.8,3.8,0,0,0-.12.56A5.94,5.94,0,0,0,43.08,5a2.27,2.27,0,0,0-.13.56c.08-.13.21-.22.3-.34,0,.08,0,.25,0,.38,0-.06,0,.06,0,.11l0,0c.08-.13.25-.22.3-.35,0,.09,0,.26,0,.39l0,0a.74.74,0,0,0,0-.25l.15.11A1,1,0,0,0,44,5.46c0,.12,0,.38,0,.51.09-.13.26-.26.39-.43a2.93,2.93,0,0,0-.13.56,4.58,4.58,0,0,0,.47-.43,2.27,2.27,0,0,0-.13.56c.09-.13.21-.22.3-.35,0,.09,0,.26,0,.39L45,6a.75.75,0,0,1,0,.3,1.05,1.05,0,0,0,.22-.17c0,.13,0,.26,0,.39,0-.09.13-.17.17-.26a1.93,1.93,0,0,1-.08.47,10.12,10.12,0,0,1,1.13-1.32,1.78,1.78,0,0,1,1.51-.31c.29.12.15,1.1.15,1.1s1.22-1.37,1.62-1-.81,2.66-.81,2.66a8.67,8.67,0,0,1,1,1.08c.42.54,1,1.12,1.27,1.6a16.36,16.36,0,0,1,.75,1.74c.33.71,1.43,1.43,1.76,1.87s-.29.89-.7,1.2a2.44,2.44,0,0,1-.81.4,2.42,2.42,0,0,1-1.39.25c-1,0-3.08-1.44-3.86-1.89s-5.47-.87-7.13-.87-4.94-.05-5.67-.05-1.14,0-1.62.5-1.51,1.7-1.82,2.14.06,1.39.75,2.18a21.26,21.26,0,0,0,2.65,2.53,2.85,2.85,0,0,1,1,2,7.1,7.1,0,0,1-.5,2.45c-.31,1.14-.52,4.22-.81,4.61s-1.41-.1-2-.23S31,27.75,31.42,27s1.43-2.26,1.45-3.25-1.27-2-2.6-3-2.53-2-2.53-2a21.76,21.76,0,0,0-.85,3.82,11.3,11.3,0,0,1-.71,3.34,4.47,4.47,0,0,0,.48,2.85c.08.14.38.21,1,.25A2.43,2.43,0,0,1,29.19,30c0,.23-.35.39-.81.47a30.59,30.59,0,0,1-3.69-.06c-.54-.06-.21-3.46-.27-4.46a36.8,36.8,0,0,1-.06-5.73,18.41,18.41,0,0,0-.11-4.32s-1.59.92-3.17,1.62a8.58,8.58,0,0,1-4.09.27s.08,4.69.68,6.12a7.92,7.92,0,0,0,2.91,3.41,5.25,5.25,0,0,0,2.66.64c.31,0,0,.75-.33,1.31s-2.43.79-2.81.79-.66-.91-1.72-2.06-2.76-2.32-3.32-3S14.81,24,14.6,23a19,19,0,0,0-1.18-3.11A35.31,35.31,0,0,1,12.3,16.5L11,18.35a8.38,8.38,0,0,1-2.76,2.39,25.9,25.9,0,0,0-4.84,3.48c-1.53,1.56-1,4-1,4.2s.74.43,1,.64.19.69,0,.93-2.82.19-3.3.19S.44,28,.63,26.72ZM37,5.76c.53.16,1,0,.93-.38s-.46-.78-1-.94-.95,0-.93.38S36.44,5.61,37,5.76Zm-3.19.07a.52.52,0,0,0,.44-.41.31.31,0,0,0-.34-.35.51.51,0,0,0-.44.42A.29.29,0,0,0,33.78,5.83ZM31.55,4.76c.08.19.34.23.58.08a.57.57,0,0,0,.29-.63c-.08-.2-.34-.23-.58-.08A.57.57,0,0,0,31.55,4.76ZM29.62,7.69c.07.19.31.22.54.08a.51.51,0,0,0,.26-.58c-.07-.19-.31-.22-.53-.08A.51.51,0,0,0,29.62,7.69Zm-.41-1.77c.15.12.39,0,.54-.28a.65.65,0,0,0,0-.73c-.15-.12-.39,0-.54.29S29.06,5.8,29.21,5.92ZM28.76,3a1,1,0,0,0,1.13.45c.51-.07.83-.37.72-.69a1,1,0,0,0-1.12-.44C29,2.42,28.65,2.72,28.76,3Zm-1.4.22c-.14-.4-.64-.5-1.12-.24a1.08,1.08,0,0,0-.6,1.18c.14.39.64.5,1.11.24A1.07,1.07,0,0,0,27.36,3.25ZM25.21,8.91c.26.14.81-.15,1.23-.67s.56-1,.3-1.18-.81.16-1.23.67S25,8.77,25.21,8.91ZM23.86,9a.46.46,0,0,0,.47-.44.44.44,0,0,0-.5-.37.46.46,0,0,0-.47.43A.45.45,0,0,0,23.86,9ZM14.1,7.57c.24.09.78-.22,1.22-.7s.61-.93.37-1-.78.22-1.22.7S13.87,7.48,14.1,7.57Zm-1,2.76c.08.2.34.24.58.09a.57.57,0,0,0,.29-.63c-.08-.2-.34-.24-.58-.09A.57.57,0,0,0,13.07,10.33Zm-.76-2.74c-.14-.39-.64-.5-1.12-.24a1.09,1.09,0,0,0-.6,1.19c.14.39.64.5,1.11.23A1.07,1.07,0,0,0,12.31,7.59Z"/><path class="cls-1" d="M10.85,10.56c.24-.15.5-.11.58.09a.58.58,0,0,1-.28.63c-.24.15-.5.11-.58-.09A.55.55,0,0,1,10.85,10.56Z"/><path class="cls-1" d="M23.64,5.37a.41.41,0,0,1,.54.28.51.51,0,0,1-.42.51.41.41,0,0,1-.54-.29A.49.49,0,0,1,23.64,5.37Z"/><path class="cls-1" d="M35.42,7.32a.59.59,0,0,1,.2.68c-.1.18-.37.17-.58,0a.59.59,0,0,1-.2-.68C34.94,7.11,35.2,7.12,35.42,7.32Z"/><path class="cls-1" d="M43.22,5.74l0,0S43.22,5.77,43.22,5.74Z"/></g></g></svg>