<svg xmlns="http://www.w3.org/2000/svg" viewBox="0 0 44.28 30.2"><defs><style>.a{fill:#010101;}</style></defs><path class="a" d="M.06,29.17a.43.43,0,0,0,.26.3,2.62,2.62,0,0,0,1,.24,3.17,3.17,0,0,0,1-.05l.18-.06a.19.19,0,0,0,0-.35c-.24-.17-.42-.43-.75-.47-.13,0-.22-.21-.27-.36a1.24,1.24,0,0,1,0-1.08,7.75,7.75,0,0,0,.41-1,2.91,2.91,0,0,1,.62-.85,12.62,12.62,0,0,1,.93-.87l.72-.6c.12-.11.33-.1.43-.26.3-.08.48-.33.74-.46a3.14,3.14,0,0,0,.71-.55,14.68,14.68,0,0,1,1.34-1A11.25,11.25,0,0,0,9,20.44a10.1,10.1,0,0,0,.94-.91c.08-.12.18-.23.26-.35a2.19,2.19,0,0,1,.46-.5l.1-.09.07.06A12.11,12.11,0,0,1,11.85,20a2.78,2.78,0,0,1,.39,1.23,11,11,0,0,0,.11,1.14,1.85,1.85,0,0,1,0,.81c-.06.23-.1.47-.14.7a4,4,0,0,1-.48,1.24.54.54,0,0,0,0,.69,5.42,5.42,0,0,0,.71.81,3.59,3.59,0,0,1,.54.56,5.9,5.9,0,0,0,1.15,1.08c.25.21.52.39.75.61a3.11,3.11,0,0,1,.67.85.86.86,0,0,0,.72.5,3.65,3.65,0,0,0,1.32-.07h.1c.25-.07.32-.24.15-.44a.89.89,0,0,0-.38-.31,5.11,5.11,0,0,0-.48-.22.85.85,0,0,1-.45-.36,4.72,4.72,0,0,0-.88-1,4.55,4.55,0,0,1-1.16-1.49,1.6,1.6,0,0,1-.13-1.12,4.92,4.92,0,0,1,.32-.91c.17-.32.28-.67.42-1a3.15,3.15,0,0,0,.25-.86,1.74,1.74,0,0,1,.23-.61c.18-.37.34-.75.51-1.13a5.08,5.08,0,0,0,.33-.66,3.35,3.35,0,0,0,.11-.55c0-.23.05-.45.08-.68a4.92,4.92,0,0,0,0-1.15.86.86,0,0,0-.15-.43,1.16,1.16,0,0,1-.14-.27c.07-.09.15-.06.22-.05a5.84,5.84,0,0,0,1.67,0,2,2,0,0,1,.7,0,4.82,4.82,0,0,0,1.2,0,.33.33,0,0,1,.24,0,2.89,2.89,0,0,0,1.17.07c.31,0,.62,0,.92,0s.2.08.17.23,0,0,0,.06a3.89,3.89,0,0,0-.37,1.46,16.08,16.08,0,0,1-.5,1.93c-.09.26-.14.54-.21.81a8,8,0,0,0-.22,1c-.06.44-.24.86-.28,1.3a1,1,0,0,1-.2.58.5.5,0,0,0-.05.61.26.26,0,0,1,0,.15,9.19,9.19,0,0,0,.24,1.47,1.42,1.42,0,0,1,0,.46,2.81,2.81,0,0,0,0,.41,2.65,2.65,0,0,1-.24,1.24.68.68,0,0,0,.11.7.37.37,0,0,0,.33.15c.4,0,.8.07,1.2.12a1.89,1.89,0,0,0,1.1-.15c.11-.05.14-.11.07-.21a4.05,4.05,0,0,0-.21-.35.54.54,0,0,0-.33-.22.73.73,0,0,1-.43-.21.92.92,0,0,1-.27-.61,4.43,4.43,0,0,1,.07-1.26c.11-.43.16-.87.29-1.3,0-.05,0-.11.05-.14a2.69,2.69,0,0,0,.57-1.29c.15-.59.32-1.18.45-1.78a4,4,0,0,1,.27-.73,6.67,6.67,0,0,0,.29-.74,4.88,4.88,0,0,1,.46-1,3.68,3.68,0,0,0,.21-.45,6.1,6.1,0,0,1,1.08-1.84,1.9,1.9,0,0,0,.16-.18,2.34,2.34,0,0,0,0,.79,2,2,0,0,0,.13.75c.05.12.16.16.26.22a16.22,16.22,0,0,1,1.8,1.16c.85.62,2.47,2,3.25,2.68.32.3.68.55,1,.82a1.27,1.27,0,0,1,.61,1,.18.18,0,0,0,.15.18,1,1,0,0,1,.5.3.59.59,0,0,1,.18.47,1.26,1.26,0,0,0,.1.45,2.79,2.79,0,0,1,.12,1,5.79,5.79,0,0,0,0,.72,2.22,2.22,0,0,0,.33.91,1.88,1.88,0,0,0,1.06.85,4.28,4.28,0,0,0,1.22.17,1.28,1.28,0,0,0,.74-.27c.17-.11.13-.53,0-.66a2.32,2.32,0,0,1-.76-.8l-.31-.33a11.75,11.75,0,0,1-.54-1.06,4.49,4.49,0,0,1-.59-1.92,6.69,6.69,0,0,0-.21-1.48,2.52,2.52,0,0,0-.7-1.16,5.7,5.7,0,0,0-1.17-1,2.33,2.33,0,0,1-.42-.41A15.07,15.07,0,0,1,32,19.44a4.71,4.71,0,0,1-1-1.72.77.77,0,0,1,.07-.66,1.17,1.17,0,0,0,.19-.51.16.16,0,0,1,.06-.14c.19-.14.25-.37.39-.54a.52.52,0,0,0,.1-.23,3.26,3.26,0,0,1,.49-1,3.89,3.89,0,0,0,.44-.95,2.31,2.31,0,0,1,1-1.2A12.72,12.72,0,0,1,35,11.84a13.66,13.66,0,0,0,2-1.08,3.83,3.83,0,0,1,.63-.34,5.17,5.17,0,0,0,1.06-.71.87.87,0,0,0,.2-.23c.05-.08.24-.3.24-.3l.3.1a3.53,3.53,0,0,0,1.21.1.43.43,0,0,0,.28-.11,3,3,0,0,0,.74-1.07.83.83,0,0,0,.06-.58,1.13,1.13,0,0,1,.27-1c.24-.29.43-.61.65-.91a1,1,0,0,0,.22-.57c0-.06,0-.21,0-.21l.18-.07a1.67,1.67,0,0,0,.75-1.09,5,5,0,0,0,.46-1.58A1.5,1.5,0,0,0,43.75,1a1.51,1.51,0,0,0-.56-.26.57.57,0,0,0-.29,0c-.23,0-.44.3-.61.45a8.61,8.61,0,0,0-.74.74c-.12.13-.25.29-.35.41s-.59-.24-.67-.29a2.85,2.85,0,0,0-.87-.33A1.69,1.69,0,0,0,39,1.61a1.92,1.92,0,0,1-.63-.05.23.23,0,0,1-.1-.07A2.14,2.14,0,0,1,37.78.8a3.5,3.5,0,0,0-.24-.69c-.26-.26-1,0-1.3.19a1.73,1.73,0,0,0-.85,1.77c0,.12-.06.22,0,.33a.56.56,0,0,1,0,.12c.1.39-.37.33-.61.36-1,.13-2,.42-3,.6a29.2,29.2,0,0,1-3.24.37c-.83,0-1.66.09-2.49.22a26.62,26.62,0,0,1-2.82.26,12.18,12.18,0,0,0-2.55.31c-.85.22-1.71.38-2.58.52a15.45,15.45,0,0,0-2.7.49,8.15,8.15,0,0,0-1.4.59c-.29.16-.6.3-.89.46s-.54.31-.8.48a17.19,17.19,0,0,0-1.8,1.27A4.53,4.53,0,0,1,9.74,9a2,2,0,0,0-.49.37,9.77,9.77,0,0,1-.86.73,3.23,3.23,0,0,0-.93,1.21c-.24.46-.39,1-.6,1.43A7,7,0,0,0,6.53,14a.25.25,0,0,0,0,.12c0,.57-.1,1.14,0,1.71a1.77,1.77,0,0,1,0,.65,3.06,3.06,0,0,1-.37.92,2.39,2.39,0,0,0-.13.21,9.73,9.73,0,0,1-1.08,1.74,2.74,2.74,0,0,0-.44.89,2.31,2.31,0,0,1-.53.86,2.12,2.12,0,0,1-.67.59c-.17.1-.29.28-.46.4a7.59,7.59,0,0,1-1,.66.59.59,0,0,0-.3.32,4.23,4.23,0,0,0-.34,1.39s0,.09,0,.12a8.24,8.24,0,0,0-.34,1.1c-.08.26-.17.51-.26.76s-.2.34-.26.53a2.08,2.08,0,0,0-.14.75,3.63,3.63,0,0,1,0,.93A1.29,1.29,0,0,0,.06,29.17ZM34.05,6a.29.29,0,0,1,.11-.2c.09-.09.26-.2.37-.14s0,.12.12.31.15.21.14.31a.25.25,0,0,1-.17.21c-.09,0-.18-.06-.35-.21S34.05,6,34.05,6ZM33.2,5.3c-.26,0-.45-.22-.54-.33s-.42-.52-.21-.79a.53.53,0,0,1,.72,0,.83.83,0,0,1,.1.25,2.21,2.21,0,0,0,.1.34c.09.19.18.2.17.29S33.36,5.28,33.2,5.3ZM32.14,7.15c.12,0,.17.12.4.15s.27-.07.39,0a.44.44,0,0,1,.12.59.4.4,0,0,1-.44.19c-.14-.05-.1-.18-.28-.32S32,7.66,32,7.54A.32.32,0,0,1,32.14,7.15ZM30.05,5.72c-.05,0-.31-.1-.33-.28s.21-.29.29-.33.41-.23.61-.05a.44.44,0,0,1,0,.59A.54.54,0,0,1,30.05,5.72ZM28.73,7.59c0-.19.22-.29.58-.5.18-.1.35-.2.44-.13s.05.19,0,.32a1.26,1.26,0,0,1-.16.46c-.14.24-.31.53-.52.51S28.67,7.87,28.73,7.59Zm-1,2.15a.29.29,0,0,1,.11-.2c.09-.09.27-.2.37-.14s0,.12.12.31.16.21.15.31a.25.25,0,0,1-.18.21c-.08,0-.17-.05-.35-.2S27.77,9.77,27.77,9.74Zm-.89-4.57s.07,0,.25,0c.37,0,.55,0,.62.09s-.08.24-.05.58.09.27,0,.34-.4.14-.61,0a.72.72,0,0,1-.3-.41S26.69,5.32,26.88,5.17ZM25.92,8a.45.45,0,0,1,.2-.34.44.44,0,0,1,.51,0,.29.29,0,0,1,.12.28c0,.11-.11.12-.25.25s-.16.34-.25.36S25.9,8.26,25.92,8ZM24.69,6.43c-.1-.2.07-.34,0-.57s-.22-.22-.19-.3.42-.19.61,0a.54.54,0,0,1,.14.24,1,1,0,0,1,.07.42c0,.14,0,.39-.16.46A.39.39,0,0,1,24.69,6.43Zm-.64,2.46c0-.12.42-.19.62,0a.58.58,0,0,1,.14.24,1.14,1.14,0,0,1,.07.42c0,.14,0,.39-.17.46s-.36-.07-.44-.23.07-.34,0-.58S24,9,24.05,8.89ZM22.2,7.13c.12,0,.17.11.4.15s.27-.07.38,0a.44.44,0,0,1,.13.59.43.43,0,0,1-.45.19c-.13-.05-.1-.18-.27-.32s-.32-.09-.37-.21A.32.32,0,0,1,22.2,7.13Zm-2.69-.34a.47.47,0,0,1,.18-.32.42.42,0,0,1,.48,0,.3.3,0,0,1,.11.26c0,.1-.11.11-.23.23s-.15.32-.24.34S19.49,7,19.51,6.79ZM16,7.21c.05-.23.27-.36.71-.61.22-.13.43-.25.54-.17s.06.24,0,.4a1.57,1.57,0,0,1-.2.57c-.17.3-.38.64-.63.62S15.94,7.56,16,7.21Zm-.76,1.71c.12,0,.18.12.41.15s.26-.07.38,0a.46.46,0,0,1,.13.59.42.42,0,0,1-.45.19c-.13-.05-.1-.18-.28-.32s-.31-.09-.37-.21A.32.32,0,0,1,15.26,8.92ZM13.78,7.21a.54.54,0,0,1,.73,0,1.11,1.11,0,0,1,.09.26c.08.22.06.24.11.34s.17.2.16.29-.18.23-.34.24S14.08,8.11,14,8,13.57,7.47,13.78,7.21ZM12,9.07a.39.39,0,0,1,.11-.2c.09-.09.27-.2.38-.14s0,.11.11.31.16.21.15.31a.25.25,0,0,1-.17.21c-.09,0-.18-.06-.35-.21S12,9.09,12,9.07Z"/></svg>