<svg xmlns="http://www.w3.org/2000/svg" viewBox="0 0 53.77 30.55"><defs><style>.cls-1{fill:#1a2026;}</style></defs><g id="Layer_2" data-name="Layer 2"><g id="Layer_1-2" data-name="Layer 1"><path class="cls-1" d="M38.19,4h0Z"/><path class="cls-1" d="M53.14,26.72c-.19-1.29-.4-3.64-.54-4.49s-1.15-1.06-1.85-1.45A11.36,11.36,0,0,1,48,17.44c-.65-1.19,0-3.74-.17-6.27s-1.93-3.81-3.47-4.75a18.25,18.25,0,0,0-4.24-1.58c-.3,0-.51-.3-.72-.35s-.6,0-.86-.21a.21.21,0,0,1,.09-.13,2.78,2.78,0,0,1-.4-.16.86.86,0,0,1-.67-.1s.08,0,.17-.08a2.62,2.62,0,0,1-1.12,0,.84.84,0,0,0,.22-.09c-.34,0-.73.17-1,0,0,0,.09-.09.09-.13-.17,0-.3-.08-.47-.08l.3-.18c-.43.13-1,.43-1.46.22a1,1,0,0,1,.43-.26c-.34.09-.73.22-1,0,.13,0,.26-.21.39-.25a2.14,2.14,0,0,1-1,.08c.13,0,.26-.21.38-.26A5.2,5.2,0,0,1,31.73,3c0-.09,0-.26,0-.35a4.45,4.45,0,0,0-.64.35,2,2,0,0,0-.22-.35V2.31c-.13.13-.34.22-.47.34A3.46,3.46,0,0,0,30.57,2l-.64.39c0-.09-.09-.22-.09-.3,0,.08-.21.17-.3.3V2.05a.56.56,0,0,1-.17.18,1.83,1.83,0,0,1,.09-.52,6.48,6.48,0,0,1-.56.34c0-.12,0-.3.09-.42a6.82,6.82,0,0,1-.73.42c0-.12-.09-.3,0-.42-.13.08-.39.12-.52.21.05-.17,0-.43,0-.6-.08.09-.25.09-.34.17,0-.13,0-.34,0-.47a4.76,4.76,0,0,1-.64.39,1.89,1.89,0,0,1,.09-.52v0a2.22,2.22,0,0,0-.69.34c0-.17,0-.34,0-.47-.13.17-.34.22-.47.34,0-.21,0-.47,0-.68a2.15,2.15,0,0,0-.64.6,5.49,5.49,0,0,1,.09-.9,3.25,3.25,0,0,0-.56,1.24A4.63,4.63,0,0,1,24.71.13,2.57,2.57,0,0,0,24,1.2c0-.26,0-.56,0-.81a2.59,2.59,0,0,0-.21.85,1.91,1.91,0,0,1-.18-.85,2.11,2.11,0,0,0-.25,1,4.32,4.32,0,0,1-.22-1,1.56,1.56,0,0,0-.3.85A1.66,1.66,0,0,1,22.7.86a1.74,1.74,0,0,0,0,.51,3.28,3.28,0,0,1-.35-.64,2.73,2.73,0,0,1,0,.64,5.84,5.84,0,0,0-.42-.64c0,.17,0,.43,0,.6-.09-.17-.26-.26-.39-.43.05.21,0,.43.05.64A4,4,0,0,0,21.11.9a4,4,0,0,0,.09.77,5.15,5.15,0,0,0-.47-.6,3.18,3.18,0,0,1,.13.51c-.18-.25-.35-.55-.56-.81a3.48,3.48,0,0,0,0,1.16,2.1,2.1,0,0,0-.13-.26,3.09,3.09,0,0,1,0,.68,2.25,2.25,0,0,1-.47-.72c.05.21.05.47.09.68-.22-.21-.34-.43-.6-.56a1.74,1.74,0,0,0,.08.78,3.75,3.75,0,0,1-.51-.86,2.2,2.2,0,0,0,.17,1c-.13-.17-.34-.35-.47-.52a4.22,4.22,0,0,0,.22.47c-.18-.12-.35-.3-.56-.42.08.17,0,.38.13.59-.13-.12-.34-.21-.47-.34A3.78,3.78,0,0,1,18,3c-.09-.13-.22-.17-.3-.3.08.13.08.34.17.47a1.41,1.41,0,0,1-.43-.13s0,.09,0,.17a3.69,3.69,0,0,1-.64-.3c.09.09.09.26.13.35-.17-.13-.3-.13-.47-.26,0,.08.08.21.13.3a5.74,5.74,0,0,1-.6-.26,3.44,3.44,0,0,1,.21.39,3,3,0,0,0-.64-.17c.08.08.13.21.21.3a.72.72,0,0,1-.51-.35,2.11,2.11,0,0,1,.26.52l-.39-.13v.13l-.26-.26c0,.13-.08.26-.08.34-.09-.08-.26-.13-.3-.17,0,.13,0,.26,0,.39a1.59,1.59,0,0,1-.26-.26c0,.13-.09.3-.09.43-.08-.13-.25-.22-.3-.35,0,.09,0,.26,0,.39-.13-.13-.3-.21-.38-.34,0,.13,0,.38,0,.51-.09-.13-.26-.26-.39-.43a2.93,2.93,0,0,1,.13.56,4.58,4.58,0,0,1-.47-.43,2.27,2.27,0,0,1,.13.56c-.09-.13-.21-.22-.3-.34,0,.08,0,.25,0,.38l-.25-.26a.75.75,0,0,0,0,.3.62.62,0,0,1-.21-.17c0,.13,0,.26,0,.39,0-.09-.13-.17-.17-.26a1.55,1.55,0,0,0,0,.31,1.2,1.2,0,0,1-.24-.28c0,.08,0,.25,0,.38a3.39,3.39,0,0,1-.39-.34c.05.13,0,.38.05.51-.09-.13-.26-.25-.39-.43a2.93,2.93,0,0,1,.13.56A4.58,4.58,0,0,1,10.69,5a2.27,2.27,0,0,1,.13.56c-.09-.13-.22-.22-.3-.34,0,.08,0,.25,0,.38-.06-.06,0,.06,0,.11l0,0c-.09-.13-.26-.22-.3-.35,0,.09,0,.26,0,.39l0,0a.77.77,0,0,1,0-.25L10,5.64a1.11,1.11,0,0,1-.19-.18c0,.12,0,.38,0,.51-.08-.13-.25-.26-.38-.43a2.93,2.93,0,0,1,.13.56,4.58,4.58,0,0,1-.47-.43,3.78,3.78,0,0,1,.13.56C9.15,6.1,9,6,8.94,5.88c0,.09,0,.26,0,.39L8.72,6a.75.75,0,0,0,0,.3,1,1,0,0,1-.21-.17c0,.13,0,.26,0,.39,0-.09-.12-.17-.17-.26a2,2,0,0,0,.09.47A10.12,10.12,0,0,0,7.38,5.42a1.79,1.79,0,0,0-1.51-.31c-.3.12-.15,1.1-.15,1.1S4.5,4.84,4.1,5.19s.81,2.66.81,2.66a9.22,9.22,0,0,0-1,1.08c-.41.54-1,1.12-1.26,1.6a14.53,14.53,0,0,0-.75,1.74C1.53,13,.43,13.7.09,14.14s.29.89.71,1.2a2.35,2.35,0,0,0,.81.4A2.38,2.38,0,0,0,3,16c1,0,3.07-1.44,3.86-1.89s5.47-.87,7.13-.87,4.94-.05,5.66-.05,1.14,0,1.62.5,1.52,1.7,1.83,2.14S23,17.21,22.35,18a20.63,20.63,0,0,1-2.66,2.53,2.87,2.87,0,0,0-1,2,7.1,7.1,0,0,0,.5,2.45c.31,1.14.52,4.22.81,4.61s1.41-.1,1.95-.23.79-1.62.37-2.41-1.43-2.26-1.45-3.25,1.26-2,2.59-3,2.54-2,2.54-2a22.77,22.77,0,0,1,.85,3.82,11.64,11.64,0,0,0,.7,3.34,4.42,4.42,0,0,1-.47,2.85c-.09.14-.38.21-1,.25A2.45,2.45,0,0,0,24.57,30c0,.23.36.39.81.47a30.72,30.72,0,0,0,3.7-.06c.54-.06.2-3.46.27-4.46a36.8,36.8,0,0,0,.06-5.73,18.81,18.81,0,0,1,.1-4.32s1.6.92,3.18,1.62a8.58,8.58,0,0,0,4.09.27s-.08,4.69-.69,6.12a7.84,7.84,0,0,1-2.9,3.41,5.25,5.25,0,0,1-2.66.64c-.31,0,0,.75.33,1.31s2.43.79,2.8.79.67-.91,1.73-2.06,2.76-2.32,3.32-3S39,24,39.17,23a18.13,18.13,0,0,1,1.18-3.11,35.31,35.31,0,0,0,1.12-3.41l1.31,1.85a8.38,8.38,0,0,0,2.76,2.39,25.51,25.51,0,0,1,4.83,3.48c1.54,1.56,1,4,1,4.2s-.75.43-1,.64-.18.69,0,.93,2.83.19,3.3.19S53.32,28,53.14,26.72Zm-36.35-21c-.53.16-.94,0-.92-.38s.46-.78,1-.94.95,0,.93.38S17.33,5.61,16.79,5.76Zm3.2.07a.51.51,0,0,1-.44-.41.3.3,0,0,1,.34-.35.52.52,0,0,1,.44.42A.29.29,0,0,1,20,5.83Zm2.23-1.07c-.09.19-.34.23-.58.08a.57.57,0,0,1-.29-.63c.08-.2.34-.23.58-.08A.57.57,0,0,1,22.22,4.76Zm1.93,2.93c-.08.19-.32.22-.54.08a.54.54,0,0,1-.27-.58c.08-.19.32-.22.54-.08A.54.54,0,0,1,24.15,7.69Zm.41-1.77c-.15.12-.39,0-.54-.28a.63.63,0,0,1,0-.73c.15-.12.39,0,.53.29S24.71,5.8,24.56,5.92ZM25,3c-.11.32-.62.52-1.13.45s-.84-.37-.72-.69a1,1,0,0,1,1.12-.44C24.79,2.42,25.12,2.72,25,3Zm1.4.22c.14-.4.64-.5,1.11-.24a1.07,1.07,0,0,1,.61,1.18c-.14.39-.64.5-1.12.24A1.08,1.08,0,0,1,26.41,3.25Zm2.15,5.66c-.26.14-.81-.15-1.24-.67s-.55-1-.3-1.18.82.16,1.24.67S28.82,8.77,28.56,8.91Zm1.35,0a.46.46,0,0,1-.47-.44.44.44,0,0,1,.5-.37.46.46,0,0,1,.47.43A.45.45,0,0,1,29.91,9Zm9.76-1.38c-.24.09-.79-.22-1.23-.7s-.6-.93-.37-1,.79.22,1.23.7S39.9,7.48,39.67,7.57Zm1,2.76c-.08.2-.34.24-.57.09a.57.57,0,0,1-.29-.63c.08-.2.34-.24.58-.09A.55.55,0,0,1,40.69,10.33Zm.77-2.74c.14-.39.64-.5,1.11-.24a1.09,1.09,0,0,1,.61,1.19c-.14.39-.64.5-1.12.23A1.08,1.08,0,0,1,41.46,7.59Z"/><path class="cls-1" d="M42.91,10.56c-.24-.15-.49-.11-.58.09a.57.57,0,0,0,.29.63c.24.15.5.11.58-.09A.57.57,0,0,0,42.91,10.56Z"/><path class="cls-1" d="M30.12,5.37a.41.41,0,0,0-.53.28.5.5,0,0,0,.42.51.41.41,0,0,0,.53-.29A.47.47,0,0,0,30.12,5.37Z"/><path class="cls-1" d="M18.35,7.32a.59.59,0,0,0-.2.68c.1.18.36.17.58,0a.59.59,0,0,0,.2-.68C18.82,7.11,18.56,7.12,18.35,7.32Z"/><path class="cls-1" d="M10.55,5.74l0,0S10.55,5.77,10.55,5.74Z"/></g></g></svg>