<svg xmlns="http://www.w3.org/2000/svg" viewBox="0 0 45 37.45"><defs><style>.cls-1{fill:#1a2026;}</style></defs><g id="Layer_2" data-name="Layer 2"><g id="Layer_1-2" data-name="Layer 1"><path class="cls-1" d="M1.27,7.36a3.43,3.43,0,0,1-.89-.21C.26,7.11,0,7.09,0,6.88s.21-.27.35-.33a9.23,9.23,0,0,1,.92-.21c0-.27-1-3.28-.61-4.49a1,1,0,0,1,1.2-.72c.8.39.63,1,.54,1.92s-.81,3.28-.78,3.31a1.29,1.29,0,0,1,0,1,22.56,22.56,0,0,1,.6,3.76C2.3,12.37.94,13,.63,11.86.16,10.11.91,8.8,1.27,7.36ZM44.19,1a4,4,0,0,0-2-.88c-1,0-2.77,3.67-3.33,4.78-2.47-.38-7.69-.79-8.18-.89a9,9,0,0,0-.43-.88C28.28.23,24.49,0,21.28,0c-2.4,0-8.48,3.89-9.49,4A70.82,70.82,0,0,0,2.23,6c-.44.15-.4,1.63-.32,1.72a5.18,5.18,0,0,0,.71.44,76.9,76.9,0,0,0,7.48,2.42s.06.74.16,2.43a.94.94,0,0,0-.77,1,1,1,0,0,0,.49.85,1.07,1.07,0,0,0,1.49-.5A1,1,0,0,0,10.76,13V10.59c.12,0,2.12.3,2.8.42a57,57,0,0,0,8.74.25c3.09-.21,12.13-.81,12.22-.89.44,0,1,.77,1.39,1,.57.37.46.75.38,1.6a1,1,0,0,0-.14,1.88c1.23.34,2.16-1.42.64-1.88a3.74,3.74,0,0,0-.15-1.52,4.72,4.72,0,0,0-.92-.92c-.59-.37,5-.77,7.44-1.21A14,14,0,0,0,45,8.75C45,7.82,44.48,1.41,44.19,1ZM9.49,8.64H7s0-1.35.14-1.35.08.69.18,1S9.24,8.16,9.49,8.64Zm13.24-5c-1,0-9.08.22-9,.18C17.05,2.13,20,.78,20.89.78c.31,0,2.15-.09,2.3,0C23.12,1.11,22.77,3.07,22.73,3.68ZM19.15,13.84a.74.74,0,1,0,.73.74A.74.74,0,0,0,19.15,13.84Zm4.42,0a.74.74,0,1,0,.74.74A.74.74,0,0,0,23.57,13.84Zm4.43,0a.74.74,0,1,0,.74.74A.74.74,0,0,0,28,13.84Zm-6.49,3.69a.74.74,0,1,0,.74.74A.74.74,0,0,0,21.51,17.53Zm4.42,0a.74.74,0,1,0,.74.74A.74.74,0,0,0,25.93,17.53Zm4.43,0a.74.74,0,1,0,.74.74A.74.74,0,0,0,30.36,17.53Zm-6.49,3.69a.74.74,0,1,0,.74.74A.74.74,0,0,0,23.87,21.22Zm4.42,0A.74.74,0,1,0,29,22,.74.74,0,0,0,28.29,21.22Zm4.43,0a.74.74,0,1,0,.74.74A.74.74,0,0,0,32.72,21.22Zm-6.49,3.69a.74.74,0,1,0,.74.74A.74.74,0,0,0,26.23,24.91Zm4.42,0a.74.74,0,1,0,.74.74A.74.74,0,0,0,30.65,24.91Zm4.43,0a.74.74,0,1,0,.74.74A.74.74,0,0,0,35.08,24.91ZM28.59,28.6a.74.74,0,1,0,.74.73A.74.74,0,0,0,28.59,28.6Zm4.43,0a.74.74,0,1,0,.73.73A.74.74,0,0,0,33,28.6Zm4.42,0a.74.74,0,1,0,.74.73A.74.74,0,0,0,37.44,28.6ZM31,32.28a.74.74,0,1,0,.74.74A.74.74,0,0,0,31,32.28Zm4.43,0a.74.74,0,1,0,0,1.48.74.74,0,0,0,0-1.48Zm4.42,0a.74.74,0,1,0,.74.74A.74.74,0,0,0,39.8,32.28ZM33.31,36a.74.74,0,1,0,.74.74A.74.74,0,0,0,33.31,36Zm4.43,0a.74.74,0,1,0,.73.74A.74.74,0,0,0,37.74,36Zm4.42,0a.74.74,0,1,0,.74.74A.74.74,0,0,0,42.16,36Z"/></g></g></svg>