<svg width="24" height="24" viewBox="0 0 24 24" fill="none" xmlns="http://www.w3.org/2000/svg">
    <path fill-rule="evenodd" clip-rule="evenodd"
          d="M11.1799 20.9727V22.7204C11.1799 22.8702 11.2401 23 11.3201 23H12.49C12.56 23 12.6199 22.8702 12.6199 22.7204V20.9727H21.5601V22.7204C21.5601 22.8702 21.62 23 21.7 23H22.8699C22.9399 23 23 22.8702 23 22.7204V16.1294C23 15.9696 22.9399 15.8497 22.8699 15.8497H21.7C21.62 15.8497 21.5601 15.9696 21.5601 16.1294V16.399H12.6199V16.1294C12.6199 15.9696 12.56 15.8497 12.49 15.8497H11.3201C11.2401 15.8497 11.1799 15.9696 11.1799 16.1294V16.399H2.44995V16.1294C2.44995 15.9696 2.39006 15.8497 2.31006 15.8497H1.13989C1.06989 15.8497 1 15.9696 1 16.1294V22.7604C1 22.9101 1.06989 23.04 1.13989 23.04H2.31006C2.39006 23.04 2.44995 22.9101 2.44995 22.7604V21.0127L11.1799 20.9727ZM2.44995 19.5248V17.7971H11.1799V19.5248H2.44995ZM21.5601 19.5248H12.6199V17.7971H21.5601V19.5248Z"
          fill="white"/>
    <path d="M22.3171 1H14.0984C13.807 1 13.5276 1.11582 13.3216 1.32183C13.1156 1.52784 13 1.80714 13 2.09848V11.3359C13 11.6272 13.1156 11.9066 13.3216 12.1127C13.5276 12.3187 13.807 12.4345 14.0984 12.4345H22.3171C22.6085 12.4345 22.8879 12.3187 23.0939 12.1127C23.2999 11.9066 23.4157 11.6272 23.4157 11.3359V2.14846C23.4225 2.00006 23.3991 1.85187 23.347 1.71277C23.2948 1.57368 23.2149 1.44661 23.1122 1.33926C23.0095 1.23191 22.886 1.14644 22.7494 1.08814C22.6128 1.02984 22.4657 0.999847 22.3171 1V1ZM20.5995 5.54385L19.2315 7.10167L18.8619 7.52114L16.0457 10.7167L17.3939 7.14165V7.08167C17.4036 7.06497 17.4085 7.0461 17.4085 7.02682C17.4085 7.00753 17.4036 6.98854 17.3939 6.97184C17.3939 6.97184 17.3439 6.97184 17.3039 6.97184H16.0159C16.0048 6.97651 15.9928 6.97891 15.9808 6.97891C15.9688 6.97891 15.957 6.97651 15.9459 6.97184C15.9359 6.94615 15.9359 6.91768 15.9459 6.89199L16.2753 6.25285L16.7449 5.34405L17.3939 4.07588L18.0132 2.86745C18.0289 2.83343 18.0543 2.80484 18.0863 2.78529C18.1183 2.76573 18.1554 2.75612 18.1929 2.75761H20.0902C20.1272 2.75844 20.1635 2.76904 20.195 2.78833C20.2266 2.80763 20.2523 2.83491 20.2699 2.86745C20.2874 2.89963 20.2967 2.93566 20.2967 2.97229C20.2967 3.00891 20.2874 3.04506 20.2699 3.07725L19.2712 4.76489L18.9319 5.30419C18.9272 5.31525 18.9248 5.32705 18.9248 5.33905C18.9248 5.35106 18.9272 5.36298 18.9319 5.37404C18.941 5.3793 18.9513 5.38209 18.9618 5.38209C18.9724 5.38209 18.9827 5.3793 18.9918 5.37404H20.5595C20.5809 5.37569 20.6014 5.38308 20.619 5.39537C20.6366 5.40767 20.6506 5.42449 20.6595 5.44401C20.6612 5.46484 20.6563 5.48559 20.6456 5.5035C20.6348 5.52142 20.6187 5.53557 20.5995 5.54385V5.54385Z"
          fill="white"/>
</svg>
