<svg width="24" height="24" viewBox="0 0 24 24" fill="none" xmlns="http://www.w3.org/2000/svg">
<path fill-rule="evenodd" clip-rule="evenodd" d="M9.47998 23V1L18.75 2.91003V21.09L9.47998 23ZM10.7944 12.8314C10.9589 12.9413 11.1522 13 11.35 13L11.37 12.96C11.625 12.9551 11.8684 12.853 12.0505 12.6746C12.2327 12.4961 12.3398 12.2548 12.35 12C12.35 11.8022 12.2913 11.6089 12.1814 11.4445C12.0715 11.28 11.9154 11.1517 11.7327 11.076C11.5499 11.0004 11.3489 10.9806 11.1549 11.0192C10.9609 11.0578 10.7827 11.153 10.6428 11.2928C10.503 11.4327 10.4077 11.611 10.3691 11.8049C10.3306 11.9989 10.3505 12.2 10.4261 12.3827C10.5018 12.5654 10.63 12.7215 10.7944 12.8314ZM9.05 21.09H6V2.91H9.05V4.17H7.27V19.83H9.05V21.09Z" fill="white"/>
</svg>
