<svg width="24" height="24" viewBox="0 0 24 24" fill="none" xmlns="http://www.w3.org/2000/svg">
<g clip-path="url(#clip0_1208:6126)">
<path fill-rule="evenodd" clip-rule="evenodd" d="M11.175 13.1639V14.9178C11.175 15.0706 11.2361 15.1928 11.3156 15.1928H12.4828C12.5561 15.1928 12.6233 15.0706 12.6233 14.9178V13.1639H21.5578V14.9178C21.5578 15.0706 21.6189 15.1928 21.6922 15.1928H22.8656C22.9389 15.1928 23 15.0706 23 14.9178V8.27497C23 8.12219 22.9389 8 22.8656 8H21.6922C21.6189 8 21.5578 8.12219 21.5578 8.27497V8.5439H12.6233V8.27497C12.6233 8.12219 12.5561 8 12.4828 8H11.3156C11.2361 8 11.175 8.12219 11.175 8.27497V8.5439H2.44833V8.27497C2.44833 8.12219 2.38722 8 2.30778 8H1.14056C1.06111 8 1 8.12219 1 8.27497V14.9178C1 15.0706 1.06111 15.1928 1.14056 15.1928H2.30778C2.38722 15.1928 2.44833 15.0706 2.44833 14.9178V13.1639H11.175ZM2.44833 11.7216V9.99223H11.175V11.7216H2.44833ZM21.5578 11.7216H12.6233V9.99223H21.5578V11.7216Z" fill="white"/>
</g>
<defs>
<clipPath id="clip0_1208:6126">
<rect width="22" height="7.19278" fill="white" transform="translate(1 8)"/>
</clipPath>
</defs>
</svg>
