<svg width="24" height="24" viewBox="0 0 24 24" fill="none" xmlns="http://www.w3.org/2000/svg">
<path d="M19.4001 8.91975C19.5322 8.82464 19.6436 8.70366 19.7275 8.56416C19.8114 8.42467 19.8661 8.26957 19.8882 8.10829C19.9103 7.94702 19.8994 7.78293 19.8562 7.626C19.8129 7.46906 19.7382 7.32257 19.6366 7.1954L16.3183 3.05005C15.9853 2.63357 15.2816 3.18609 15.5951 3.62786L17.935 7.01839C17.1298 7.68016 17.494 8.98373 18.5226 9.13494C19.1981 11.5415 19.964 15.6292 19.101 17.2522C18.6766 18.0515 17.6816 18.0568 17.2072 17.6603C15.5456 16.2718 17.1933 10.9678 15.4247 9.54687C15.2259 9.38819 14.9916 9.28007 14.7419 9.23179V1.91161C14.7418 1.66992 14.6457 1.43817 14.4749 1.26724C14.304 1.09632 14.0723 1.0002 13.8306 1H5.39446C5.27466 0.999769 5.15599 1.02319 5.04525 1.06891C4.93451 1.11463 4.83389 1.18176 4.74916 1.26646C4.66442 1.35115 4.59723 1.45173 4.55145 1.56244C4.50566 1.67315 4.48218 1.79181 4.48234 1.91161V20.3787H3.74117C3.33202 20.3787 3 20.7866 3 21.2906V22.0897C3.00047 22.3313 3.09677 22.5628 3.26778 22.7335C3.43878 22.9041 3.67051 23 3.91212 23H15.3124C15.5541 23.0001 15.786 22.9043 15.9571 22.7337C16.1282 22.563 16.2246 22.3313 16.225 22.0897V21.2906C16.225 20.7866 15.8933 20.3787 15.4839 20.3787H14.7429V10.1879C16.1985 10.9159 14.5133 16.5972 16.6223 18.3593C17.4821 19.0764 19.1708 19.0648 19.9061 17.6793C20.9659 15.6846 20.0983 11.3956 19.4001 8.91975ZM13.6025 8.63678C13.6025 8.75655 13.579 8.87515 13.5331 8.98582C13.4873 9.09648 13.4202 9.19703 13.3355 9.28173C13.2508 9.36643 13.1503 9.43362 13.0396 9.47946C12.929 9.5253 12.8104 9.5489 12.6906 9.5489H6.53416C6.41436 9.54906 6.2957 9.52558 6.18499 9.4798C6.07428 9.43401 5.9737 9.36682 5.88901 9.28209C5.80432 9.19735 5.73718 9.09673 5.69146 8.98599C5.64574 8.87526 5.62232 8.75659 5.62255 8.63678V3.05182C5.62255 2.93216 5.64614 2.81368 5.69197 2.70315C5.7378 2.59262 5.80497 2.49221 5.88963 2.40766C5.9743 2.32311 6.0748 2.25608 6.1854 2.21041C6.29599 2.16473 6.41451 2.14131 6.53416 2.14147H12.6906C12.8103 2.14127 12.9288 2.16467 13.0395 2.21033C13.1501 2.25599 13.2506 2.32302 13.3353 2.40757C13.42 2.49212 13.4872 2.59255 13.533 2.70309C13.5789 2.81364 13.6025 2.93214 13.6025 3.05182V8.63678Z" fill="white"/>
</svg>
