<svg width="24" height="24" viewBox="0 0 24 24" fill="none" xmlns="http://www.w3.org/2000/svg">
    <path d="M21.5297 13.118V14.3862H20.4113L19.1432 15.824H21.5297V17.5715C21.5297 17.7212 21.5896 17.851 21.6595 17.851H22.8278C22.9076 17.851 22.9675 17.7212 22.9675 17.5715V11.4804L21.5297 13.118Z"
          fill="white"/>
    <path d="M15.5985 14.3862H12.6029V12.6587H13.7512C13.6777 12.3851 13.706 12.0941 13.8311 11.8399L14.1606 11.2108H12.6029V10.9912C12.6029 10.8414 12.543 10.7116 12.4631 10.7116H11.2948C11.2249 10.7116 11.155 10.8414 11.155 10.9912V11.2608H2.43788V10.9912C2.43788 10.8414 2.37797 10.7116 2.30807 10.7116H1.13979C1.05991 10.6617 1 10.7915 1 10.9912V17.6214C1 17.7712 1.05991 17.901 1.13979 17.901H2.30807C2.37797 17.901 2.43788 17.7712 2.43788 17.6214V15.824H11.155V17.5715C11.155 17.7212 11.2249 17.851 11.2948 17.851H12.4631C12.543 17.851 12.6029 17.7212 12.6029 17.5715V15.824H14.9794L15.5985 14.3862ZM11.155 14.3862H2.43788V12.6587H11.155V14.3862Z"
          fill="white"/>
    <path d="M20.6011 12.6587L22.3585 10.6616L22.9676 9.99263C22.9888 9.95808 23 9.91834 23 9.8778C23 9.83727 22.9888 9.79753 22.9676 9.76297C22.9506 9.72708 22.9237 9.69676 22.8901 9.67555C22.8565 9.65434 22.8176 9.6431 22.7779 9.64315H19.972C19.9519 9.64163 19.9323 9.63542 19.915 9.62502C19.8977 9.61462 19.883 9.60031 19.8722 9.58324C19.8624 9.56299 19.8574 9.5408 19.8574 9.51833C19.8574 9.49586 19.8624 9.47368 19.8722 9.45343L22.3485 5.55917C22.38 5.5027 22.3965 5.43911 22.3965 5.37445C22.3965 5.30979 22.38 5.2462 22.3485 5.18972C22.3176 5.13413 22.2729 5.08745 22.2187 5.05421C22.1644 5.02098 22.1025 5.0023 22.039 5H18.6939C18.6262 5.00083 18.5599 5.0198 18.5019 5.05491C18.444 5.09003 18.3965 5.14003 18.3644 5.19971L15.279 11.1909L14.7198 12.2793C14.7075 12.3005 14.701 12.3246 14.701 12.3492C14.701 12.3737 14.7075 12.3978 14.7198 12.4191C14.7319 12.4401 14.7494 12.4577 14.7704 12.4699C14.7914 12.4822 14.8153 12.4887 14.8396 12.489H17.1162C17.1513 12.4877 17.1862 12.4953 17.2176 12.511C17.249 12.5267 17.2759 12.55 17.296 12.5788C17.296 12.5788 17.296 12.5788 17.296 12.6387C17.3104 12.6808 17.3104 12.7265 17.296 12.7685L16.2276 15.3847L16.0578 15.8041L14.7298 19.0792C14.7199 19.0902 14.7145 19.1044 14.7145 19.1192C14.7145 19.1339 14.7199 19.1481 14.7298 19.1591V19.1591C14.7298 19.1591 14.7298 19.1591 14.7797 19.1591L17.7253 15.814L19.0833 14.3862L20.6011 12.6587Z"
          fill="white"/>
</svg>
