<svg width="24" height="24" viewBox="0 0 24 24" fill="none" xmlns="http://www.w3.org/2000/svg">
<path d="M7.17736 15.7681C7.46185 15.2886 7.86045 14.8868 8.33773 14.5986C8.815 14.3103 9.35613 14.1445 9.91296 14.1159C9.91296 14.0863 9.91296 14.0557 9.91296 14.0261C9.91296 12.2492 11.0472 10.7292 12.6295 10.0918C12.3399 9.47036 11.9032 8.92885 11.3571 8.51415C10.8111 8.09944 10.1723 7.82403 9.49592 7.71175C8.81954 7.59947 8.12598 7.6537 7.47527 7.86975C6.82456 8.08579 6.23629 8.45715 5.76138 8.95167C5.28647 9.4462 4.93921 10.049 4.74966 10.7079C4.56011 11.3668 4.53398 12.062 4.67353 12.7333C4.81308 13.4046 5.11411 14.0318 5.55057 14.5606C5.98702 15.0893 6.54576 15.5038 7.17842 15.7681H7.17736Z" fill="white"/>
<path d="M12.7119 8.62017C12.5865 8.62006 12.464 8.5828 12.3599 8.51311C12.2557 8.44341 12.1744 8.3444 12.1265 8.22858C12.0785 8.11276 12.066 7.98533 12.0904 7.86237C12.1148 7.73942 12.1751 7.62646 12.2637 7.53776L13.437 6.36445C13.4951 6.30214 13.5651 6.25217 13.6429 6.2175C13.7207 6.18284 13.8047 6.1642 13.8898 6.1627C13.975 6.16119 14.0596 6.17686 14.1386 6.20876C14.2175 6.24066 14.2893 6.28813 14.3495 6.34835C14.4097 6.40858 14.4572 6.48032 14.4891 6.55929C14.521 6.63826 14.5367 6.72285 14.5352 6.80801C14.5337 6.89316 14.515 6.97715 14.4804 7.05494C14.4457 7.13274 14.3957 7.20276 14.3334 7.26082L13.1601 8.43413C13.0413 8.55311 12.8801 8.62002 12.7119 8.62017Z" fill="white"/>
<path d="M4.91207 8.62017C4.74392 8.62002 4.58272 8.55311 4.46389 8.43413L3.2906 7.26082C3.22829 7.20276 3.17829 7.13274 3.14363 7.05494C3.10897 6.97715 3.09035 6.89316 3.08884 6.80801C3.08734 6.72285 3.10301 6.63826 3.13491 6.55929C3.16681 6.48032 3.21427 6.40858 3.2745 6.34835C3.33472 6.28813 3.40647 6.24066 3.48544 6.20876C3.56441 6.17686 3.64898 6.16119 3.73414 6.1627C3.81929 6.1642 3.90328 6.18284 3.98108 6.2175C4.05887 6.25217 4.1289 6.30214 4.18696 6.36445L5.36028 7.53776C5.44887 7.62646 5.50917 7.73942 5.5336 7.86237C5.55802 7.98533 5.54545 8.11276 5.49749 8.22858C5.44954 8.3444 5.36835 8.44341 5.26415 8.51311C5.15996 8.5828 5.03743 8.62006 4.91207 8.62017Z" fill="white"/>
<path d="M8.82313 6.92904C8.65492 6.92904 8.49362 6.86223 8.37469 6.74329C8.25575 6.62435 8.1889 6.46303 8.1889 6.29482V4.63422C8.1889 4.46602 8.25575 4.3047 8.37469 4.18576C8.49362 4.06682 8.65492 4 8.82313 4C8.99133 4 9.15265 4.06682 9.27159 4.18576C9.39053 4.3047 9.45735 4.46602 9.45735 4.63422V6.29377C9.45749 6.37714 9.44121 6.45973 9.4094 6.5368C9.37759 6.61387 9.33089 6.68391 9.27198 6.74291C9.21307 6.80192 9.14311 6.84873 9.06609 6.88067C8.98908 6.91261 8.9065 6.92904 8.82313 6.92904Z" fill="white"/>
<path d="M3.29376 12.4215H1.63422C1.46602 12.4215 1.30469 12.3547 1.18576 12.2358C1.06682 12.1168 1 11.9555 1 11.7873C1 11.6191 1.06682 11.4578 1.18576 11.3388C1.30469 11.2199 1.46602 11.1531 1.63422 11.1531H3.29376C3.46197 11.1531 3.62329 11.2199 3.74223 11.3388C3.86117 11.4578 3.92798 11.6191 3.92798 11.7873C3.92798 11.9555 3.86117 12.1168 3.74223 12.2358C3.62329 12.3547 3.46197 12.4215 3.29376 12.4215Z" fill="white"/>
<path d="M3.73567 17.5943C3.61022 17.5944 3.48756 17.5573 3.3832 17.4877C3.27885 17.4181 3.19748 17.3191 3.14939 17.2032C3.10131 17.0874 3.08867 16.9598 3.11306 16.8368C3.13745 16.7137 3.19778 16.6007 3.28643 16.5119L4.46081 15.3386C4.58014 15.2213 4.74098 15.156 4.90829 15.1567C5.0756 15.1575 5.23581 15.2244 5.35405 15.3428C5.47229 15.4611 5.53897 15.6214 5.53955 15.7888C5.54013 15.9561 5.47459 16.1168 5.35717 16.236L4.18385 17.4093C4.06485 17.5279 3.90367 17.5945 3.73567 17.5943Z" fill="white"/>
<path d="M19.2887 12.4973C18.7174 12.4964 18.1536 12.6281 17.6419 12.882C16.9146 10.9149 14.2519 9.81664 12.1791 11.2965C11.589 11.7087 11.1486 12.3013 10.9242 12.9852C10.6999 13.6692 10.7037 14.4075 10.935 15.0891C9.27967 14.5374 7.54401 15.7456 7.54401 17.44C7.54401 18.8036 8.68773 19.9177 10.1147 19.9177H19.2887C19.7761 19.9177 20.2587 19.8217 20.7089 19.6352C21.1592 19.4487 21.5684 19.1753 21.913 18.8307C22.2576 18.4861 22.531 18.0769 22.7175 17.6267C22.904 17.1764 23 16.6938 23 16.2064C23 15.7191 22.904 15.2365 22.7175 14.7862C22.531 14.3359 22.2576 13.9268 21.913 13.5822C21.5684 13.2376 21.1592 12.9642 20.7089 12.7777C20.2587 12.5912 19.7761 12.4952 19.2887 12.4952V12.4973Z" fill="white"/>
</svg>
