<svg xmlns="http://www.w3.org/2000/svg" viewBox="0 0 79 59"><defs><style>.cls-1{fill:#0abaff;}.cls-2{fill:#e6e6e6;}.cls-3{fill:#fff;}</style></defs><title>stationary-radio-amber</title><g id="Layer_2" data-name="Layer 2"><g id="Layer_1-2" data-name="Layer 1"><path class="cls-1" d="M2,58a1,1,0,0,1-1-1V22a1,1,0,0,1,1-1H69V2a1,1,0,0,1,1-1h7a1,1,0,0,1,1,1V57a1,1,0,0,1-1,1Z"/><path class="cls-2" d="M77,2V57H2V22H70V2h7m0-2H70a2,2,0,0,0-2,2V20H2a2,2,0,0,0-2,2V57a2,2,0,0,0,2,2H77a2,2,0,0,0,2-2V2a2,2,0,0,0-2-2Z"/><rect class="cls-3" x="30" y="29" width="4" height="20.73"/><rect class="cls-3" x="43.82" y="30" width="25.18" height="12"/><circle class="cls-3" cx="51.33" cy="47.5" r="2.5"/><circle class="cls-3" cx="61.5" cy="47.5" r="2.5"/><rect class="cls-3" x="9" y="29" width="4" height="20.73"/><rect class="cls-3" x="16" y="29" width="4" height="20.73"/><rect class="cls-3" x="23" y="29" width="4" height="20.73"/></g></g></svg>
