<svg width="24" height="24" viewBox="0 0 24 24" fill="none" xmlns="http://www.w3.org/2000/svg">
<path d="M18.0699 3.06L15.88 2.68C15.5 2.61 15.11 2.55008 14.73 2.51008V1.75007C14.73 1.65073 14.7103 1.55241 14.672 1.46076C14.6337 1.36911 14.5775 1.28591 14.5068 1.21613C14.4361 1.14635 14.3523 1.09136 14.2601 1.05427C14.168 1.01717 14.0693 0.998742 13.97 1.00007H10.86C10.7607 0.998742 10.6621 1.01717 10.5699 1.05427C10.4778 1.09136 10.3939 1.14635 10.3232 1.21613C10.2525 1.28591 10.1964 1.36911 10.1581 1.46076C10.1198 1.55241 10.1 1.65073 10.1 1.75007V2.52009L9.17004 2.6601L6.78003 3.06C6.28283 3.14283 5.83104 3.39937 5.50513 3.78388C5.17921 4.16839 5.00025 4.65605 5 5.1601V22.9901H19.83V5.15009C19.8301 4.65012 19.6537 4.16607 19.3317 3.78364C19.0096 3.4012 18.5627 3.1449 18.0699 3.06ZM12.65 18.7501H12.1801C11.4641 18.6984 10.774 18.4601 10.1787 18.0589C9.58343 17.6577 9.10369 17.1075 8.78711 16.4632C8.47053 15.8189 8.32814 15.1029 8.37427 14.3865C8.4204 13.6702 8.65345 12.9784 9.05005 12.3801L12.42 7.23005L15.79 12.3801C16.1878 12.9812 16.4205 13.6764 16.4647 14.3959C16.509 15.1154 16.3632 15.8338 16.042 16.4792C15.7208 17.1246 15.2357 17.6741 14.635 18.0727C14.0344 18.4713 13.3394 18.7049 12.62 18.7501H12.65Z" fill="white"/>
</svg>
