<svg width="24" height="24" viewBox="0 0 24 24" fill="none" xmlns="http://www.w3.org/2000/svg">
    <path d="M8.13781 11.4969C8.21328 11.5785 8.31686 11.6285 8.4277 11.6369C8.48162 11.6374 8.53509 11.6271 8.58491 11.6065C8.63473 11.5859 8.67986 11.5554 8.7176 11.5169L8.84756 11.3869C8.9143 11.3149 8.95138 11.2203 8.95138 11.122C8.95138 11.0238 8.9143 10.9292 8.84756 10.8571C8.17973 10.0696 7.81316 9.07065 7.81316 8.03812C7.81316 7.00559 8.17973 6.00659 8.84756 5.21911C8.9172 5.14652 8.95609 5.04981 8.95609 4.94921C8.95609 4.84861 8.9172 4.7519 8.84756 4.6793L8.7176 4.54935C8.68053 4.51057 8.63526 4.48057 8.5851 4.46155C8.53494 4.44252 8.48117 4.43495 8.4277 4.43939C8.37317 4.44067 8.31943 4.45282 8.26965 4.47514C8.21987 4.49745 8.17505 4.52948 8.13781 4.56934C7.31775 5.53718 6.86768 6.76458 6.86768 8.03312C6.86768 9.30167 7.31775 10.5291 8.13781 11.4969V11.4969Z"
          fill="white"/>
    <path d="M16.5948 8.05814C16.5973 9.07902 16.2438 10.0688 15.5952 10.8572C15.5284 10.9292 15.4913 11.0238 15.4913 11.1221C15.4913 11.2203 15.5284 11.3149 15.5952 11.387L15.7251 11.5169C15.7647 11.5557 15.8116 11.5863 15.8631 11.6069C15.9145 11.6275 15.9696 11.6377 16.025 11.6369C16.1323 11.6261 16.2319 11.5763 16.3049 11.4969C17.1307 10.5318 17.5844 9.30335 17.5844 8.03315C17.5844 6.76295 17.1307 5.53454 16.3049 4.56937C16.2696 4.5298 16.2265 4.49787 16.1784 4.47552C16.1302 4.45317 16.0781 4.44089 16.025 4.43942C15.97 4.43487 15.9147 4.44235 15.8629 4.46134C15.8112 4.48033 15.7641 4.51037 15.7251 4.54938L15.5952 4.67933C15.5298 4.75405 15.4937 4.84995 15.4937 4.94924C15.4937 5.04852 15.5298 5.14443 15.5952 5.21914C16.2588 6.01453 16.6137 7.02241 16.5948 8.05814V8.05814Z"
          fill="white"/>
    <path d="M7.02823 13.2363L7.15818 13.1063C7.22783 13.0337 7.26672 12.937 7.26672 12.8364C7.26672 12.7358 7.22783 12.6391 7.15818 12.5665C6.04049 11.321 5.42229 9.70658 5.42229 8.03312C5.42229 6.35967 6.04049 4.7452 7.15818 3.49972C7.19384 3.4644 7.22216 3.42236 7.24148 3.37603C7.2608 3.32971 7.27075 3.28001 7.27075 3.22982C7.27075 3.17962 7.2608 3.12992 7.24148 3.0836C7.22216 3.03727 7.19384 2.99523 7.15818 2.95991L7.02823 2.82996C6.99035 2.79227 6.94496 2.763 6.89501 2.74405C6.84505 2.7251 6.79166 2.71691 6.73833 2.72C6.68528 2.72147 6.6331 2.73375 6.58497 2.7561C6.53684 2.77844 6.49378 2.81038 6.45843 2.84995C5.17709 4.27423 4.46814 6.12229 4.46814 8.03812C4.46814 9.95395 5.17709 11.802 6.45843 13.2263C6.53242 13.3028 6.63216 13.3491 6.73833 13.3562C6.7924 13.3581 6.84624 13.3483 6.89624 13.3276C6.94624 13.3069 6.99123 13.2758 7.02823 13.2363V13.2363Z"
          fill="white"/>
    <path d="M18.0243 2.84995C17.9897 2.80941 17.9468 2.77681 17.8985 2.75438C17.8502 2.73196 17.7976 2.72022 17.7444 2.71999C17.6911 2.71752 17.6379 2.726 17.588 2.74492C17.5382 2.76383 17.4927 2.79277 17.4545 2.82995L17.2746 2.99989C17.2049 3.07249 17.166 3.1692 17.166 3.2698C17.166 3.3704 17.2049 3.46711 17.2746 3.5397C18.3922 4.78518 19.0104 6.39965 19.0104 8.07311C19.0104 9.74656 18.3922 11.361 17.2746 12.6065C17.2071 12.6802 17.1697 12.7765 17.1697 12.8764C17.1697 12.9763 17.2071 13.0726 17.2746 13.1463L17.4045 13.2763C17.4422 13.3148 17.4874 13.3453 17.5372 13.3659C17.587 13.3865 17.6405 13.3968 17.6944 13.3962C17.8011 13.391 17.9015 13.3444 17.9743 13.2663C19.2737 11.8458 19.9984 9.99287 20.0077 8.06775C20.0169 6.14263 19.31 4.28285 18.0243 2.84995V2.84995Z"
          fill="white"/>
    <path d="M3.02962 8.05813C3.0224 5.73775 3.88972 3.49983 5.45876 1.79034C5.49443 1.75502 5.52274 1.71298 5.54206 1.66666C5.56138 1.62033 5.57133 1.57063 5.57133 1.52044C5.57133 1.47024 5.56138 1.42055 5.54206 1.37422C5.52274 1.32789 5.49443 1.28585 5.45876 1.25053L5.31881 1.12058C5.28268 1.07999 5.23783 1.04812 5.18762 1.02734C5.13742 1.00657 5.08316 0.997432 5.02891 1.00062C4.97565 1.00085 4.92307 1.01258 4.87476 1.03501C4.82646 1.05744 4.78356 1.09004 4.74901 1.13057C2.98812 3.00773 2.00559 5.48342 2.00002 8.05722C1.99446 10.631 2.96627 13.1109 4.71902 14.9957C4.75407 15.0349 4.7973 15.066 4.84566 15.0867C4.89402 15.1075 4.94634 15.1173 4.99893 15.1156C5.05151 15.1173 5.10383 15.1075 5.15219 15.0867C5.20055 15.066 5.24378 15.0349 5.27883 14.9957L5.41878 14.8657C5.48692 14.7904 5.52464 14.6924 5.52464 14.5908C5.52464 14.4892 5.48692 14.3913 5.41878 14.3159C3.85892 12.6077 3.0051 10.3713 3.02962 8.05813V8.05813Z"
          fill="white"/>
    <path d="M19.6937 1.13058C19.6565 1.0928 19.6122 1.0628 19.5632 1.04232C19.5143 1.02184 19.4618 1.01129 19.4088 1.01129C19.3558 1.01129 19.3033 1.02184 19.2544 1.04232C19.2055 1.0628 19.1611 1.0928 19.1239 1.13058L19.0239 1.25054C18.9883 1.28586 18.96 1.3279 18.9406 1.37422C18.9213 1.42055 18.9114 1.47025 18.9114 1.52044C18.9114 1.57064 18.9213 1.62033 18.9406 1.66666C18.96 1.71299 18.9883 1.75503 19.0239 1.79035C20.5934 3.49246 21.4647 5.7229 21.4647 8.03815C21.4647 10.3534 20.5934 12.5838 19.0239 14.2859C18.9883 14.3213 18.96 14.3633 18.9406 14.4096C18.9213 14.456 18.9114 14.5057 18.9114 14.5559C18.9114 14.606 18.9213 14.6557 18.9406 14.7021C18.96 14.7484 18.9883 14.7904 19.0239 14.8258L19.1539 14.9557C19.189 14.9943 19.2325 15.0243 19.281 15.0433C19.3296 15.0624 19.3818 15.07 19.4338 15.0657C19.4877 15.0663 19.5412 15.0559 19.591 15.0353C19.6408 15.0147 19.686 14.9842 19.7237 14.9457C21.4597 13.0642 22.4236 10.5981 22.4236 8.03815C22.4236 5.47817 21.4597 3.01205 19.7237 1.13058H19.6937Z"
          fill="white"/>
    <path d="M13.3659 9.61757C13.6961 9.37614 13.9416 9.03649 14.0671 8.64718C14.1926 8.25787 14.1918 7.83884 14.0648 7.45C13.9379 7.06117 13.6912 6.72244 13.3601 6.48225C13.029 6.24207 12.6304 6.11273 12.2213 6.11273C11.8123 6.11273 11.4137 6.24207 11.0826 6.48225C10.7515 6.72244 10.5048 7.06117 10.3778 7.45C10.2509 7.83884 10.2501 8.25787 10.3756 8.64718C10.5011 9.03649 10.7465 9.37614 11.0767 9.61757L6.46837 22.2931C6.44447 22.3574 6.43353 22.4258 6.43618 22.4944C6.43884 22.5629 6.45503 22.6303 6.48384 22.6925C6.51265 22.7548 6.5535 22.8107 6.60403 22.8571C6.65456 22.9035 6.71378 22.9395 6.77826 22.9629C6.83786 22.9724 6.8986 22.9724 6.9582 22.9629C7.06677 22.9657 7.17331 22.9331 7.26169 22.8699C7.35007 22.8068 7.41548 22.7166 7.44803 22.613L8.13778 20.7436H16.3149L17.0247 22.643C17.0599 22.7449 17.126 22.8333 17.2138 22.896C17.3015 22.9587 17.4066 22.9926 17.5145 22.9929C17.5741 23.0024 17.6348 23.0024 17.6944 22.9929C17.7643 22.9719 17.829 22.9365 17.8843 22.8889C17.9397 22.8413 17.9843 22.7826 18.0154 22.7166C18.0466 22.6506 18.0634 22.5787 18.065 22.5058C18.0665 22.4328 18.0526 22.3604 18.0243 22.2931L13.3659 9.61757ZM14.8554 16.765H10.6369L12.2263 15.9953L14.2256 15.0457L14.8554 16.765ZM13.3659 12.6865L13.8858 14.116H11.2367L13.3659 12.6865ZM12.0264 9.99743H12.3463L12.1764 10.1474L11.8265 10.4573L12.0264 9.99743ZM12.1864 11.257L12.6462 10.8371L12.9361 11.6269H11.7965L12.1864 11.257ZM11.1867 12.4166H12.3863L12.2263 12.5265L10.7968 13.5262L11.1867 12.4166ZM10.277 14.9257H12.7462L9.74722 16.3352L10.277 14.9257ZM9.27738 17.5748H13.5259L12.1964 18.1246L8.52765 19.624L9.27738 17.5748ZM12.2263 19.9939H9.69723L15.2053 17.7247L16.025 19.9939H12.2263Z"
          fill="white"/>
</svg>
