<svg width="24" height="24" viewBox="0 0 24 24" fill="none" xmlns="http://www.w3.org/2000/svg">
    <path d="M18.05 17.15V17.21C18.048 17.2743 18.0604 17.3382 18.0864 17.397C18.1124 17.4559 18.1512 17.5081 18.2 17.55C18.3063 17.6388 18.4416 17.6851 18.58 17.68C18.7335 17.6802 18.8847 17.6424 19.02 17.57C19.1492 17.5089 19.2546 17.407 19.32 17.28V16.59H18.92C18.37 16.59 18.08 16.78 18.05 17.15Z"
          fill="white"/>
    <path d="M14.34 13.9H13.44V15.53H14.34C14.5756 15.546 14.8083 15.4708 14.99 15.32C15.0711 15.2434 15.1346 15.15 15.176 15.0464C15.2174 14.9428 15.2359 14.8314 15.23 14.72C15.2375 14.499 15.1586 14.2838 15.01 14.12C14.9189 14.0401 14.8126 13.9795 14.6974 13.9416C14.5823 13.9038 14.4607 13.8897 14.34 13.9V13.9Z"
          fill="white"/>
    <path d="M9.65998 15.18C9.54071 15.1779 9.42275 15.2051 9.31641 15.2591C9.21007 15.3131 9.11859 15.3924 9.04998 15.49C8.88205 15.795 8.80894 16.1432 8.83998 16.49C8.82211 16.7976 8.89515 17.1036 9.04998 17.37C9.12002 17.4678 9.21347 17.5465 9.32178 17.5989C9.43008 17.6513 9.5498 17.6758 9.66998 17.67C9.78863 17.675 9.90664 17.6502 10.0132 17.5977C10.1198 17.5453 10.2115 17.467 10.28 17.37C10.4595 17.0692 10.5367 16.7183 10.5 16.37C10.5199 16.0609 10.443 15.7533 10.28 15.49C10.2111 15.3903 10.1181 15.3097 10.0097 15.2555C9.90136 15.2013 9.78106 15.1753 9.65998 15.18V15.18Z"
          fill="white"/>
    <path d="M22 9.44H20.49V2C20.49 1.73478 20.3846 1.48043 20.1971 1.29289C20.0096 1.10536 19.7552 1 19.49 1C19.2248 1 18.9704 1.10536 18.7829 1.29289C18.5954 1.48043 18.49 1.73478 18.49 2V9.44H2C1.73478 9.44 1.48043 9.54536 1.29289 9.73289C1.10536 9.92043 1 10.1748 1 10.44L1 22C1 22.2652 1.10536 22.5196 1.29289 22.7071C1.48043 22.8946 1.73478 23 2 23H22C22.2652 23 22.5196 22.8946 22.7071 22.7071C22.8946 22.5196 23 22.2652 23 22V10.44C23 10.1748 22.8946 9.92043 22.7071 9.73289C22.5196 9.54536 22.2652 9.44 22 9.44ZM7.35 18.44H3.86V13H5V17.54H7.35V18.44ZM11.06 17.95C10.8817 18.1372 10.6654 18.284 10.4257 18.3806C10.1859 18.4772 9.92824 18.5213 9.67 18.51C9.41176 18.5213 9.15409 18.4772 8.91432 18.3806C8.67456 18.284 8.45827 18.1372 8.28 17.95C7.91492 17.5306 7.7283 16.9851 7.76 16.43V16.38C7.75134 16.0059 7.8337 15.6352 8 15.3C8.14168 14.9959 8.37167 14.7415 8.66 14.57C8.96481 14.3972 9.30965 14.3076 9.66 14.31C10.1553 14.2925 10.6372 14.4724 11 14.81C11.3563 15.1742 11.5602 15.6606 11.57 16.17V16.45C11.6019 16.9943 11.4187 17.5294 11.06 17.94V17.95ZM16.55 18.44H15.35L14.35 16.44H13.46V18.44H12.32V13H14.32C14.8486 12.9646 15.3727 13.1169 15.8 13.43C15.976 13.5769 16.1155 13.7626 16.2075 13.9726C16.2995 14.1826 16.3414 14.411 16.33 14.64C16.3435 14.9682 16.2563 15.2928 16.08 15.57C15.903 15.8369 15.6481 16.0429 15.35 16.16L16.53 18.38L16.55 18.44ZM20.55 18.44H19.47C19.4129 18.3237 19.3757 18.1986 19.36 18.07C19.2361 18.2126 19.0822 18.326 18.9093 18.4021C18.7364 18.4781 18.5488 18.515 18.36 18.51C17.9958 18.5264 17.6387 18.405 17.36 18.17C17.2379 18.0608 17.1407 17.9266 17.0751 17.7764C17.0096 17.6263 16.9771 17.4638 16.98 17.3C16.9652 17.1069 17.0007 16.9133 17.0831 16.738C17.1655 16.5627 17.2919 16.4118 17.45 16.3C17.8653 16.0623 18.3434 15.9576 18.82 16H19.31V15.77C19.3223 15.6077 19.2722 15.4467 19.17 15.32C19.1115 15.2611 19.0411 15.2155 18.9635 15.1861C18.8858 15.1568 18.8028 15.1445 18.72 15.15C18.566 15.1426 18.4141 15.1885 18.29 15.28C18.2389 15.3249 18.1981 15.3803 18.1705 15.4424C18.1428 15.5046 18.129 15.572 18.13 15.64H17.06C17.0606 15.4068 17.134 15.1795 17.27 14.99C17.4303 14.7842 17.6401 14.6225 17.88 14.52C18.1625 14.4051 18.465 14.3474 18.77 14.35C19.1994 14.3297 19.6218 14.4645 19.96 14.73C20.107 14.8611 20.2229 15.0234 20.299 15.2051C20.3752 15.3868 20.4097 15.5832 20.4 15.78V17.53C20.3797 17.8288 20.4347 18.128 20.56 18.4L20.55 18.44Z"
          fill="white"/>
</svg>
