<svg width="24" height="24" viewBox="0 0 24 24" fill="none" xmlns="http://www.w3.org/2000/svg">
<path d="M3.63672 12.9477C4.06146 12.9567 4.47891 13.0599 4.85894 13.2498C5.35869 13.5112 5.82067 13.8392 6.23222 14.2248C6.64853 14.7345 7.24206 15.0681 7.89389 15.1587C8.42312 15.0951 8.91119 14.8413 9.26718 14.4446V11.698H8.19602C8.06001 11.6944 7.93078 11.6379 7.83586 11.5404C7.74095 11.4429 7.68786 11.3122 7.6879 11.1762C7.69138 11.0425 7.74603 10.9153 7.84057 10.8207C7.93512 10.7262 8.06235 10.6715 8.19602 10.668H9.26718V9.0201H8.19602C8.06126 9.0201 7.93202 8.96656 7.83673 8.87127C7.74144 8.77598 7.6879 8.64674 7.6879 8.51198C7.68786 8.37593 7.74095 8.24523 7.83586 8.14775C7.93078 8.05027 8.06001 7.99371 8.19602 7.99013H9.26718V6.32846H8.19602C8.06235 6.32499 7.93512 6.27034 7.84057 6.17579C7.74603 6.08124 7.69138 5.95401 7.6879 5.82035C7.68786 5.68429 7.74095 5.5536 7.83586 5.45612C7.93078 5.35864 8.06001 5.30208 8.19602 5.2985H9.26718V3.58189H8.19602C8.06001 3.57831 7.93078 3.52176 7.83586 3.42428C7.74095 3.3268 7.68786 3.1961 7.6879 3.06005C7.69138 2.92638 7.74603 2.79915 7.84057 2.7046C7.93512 2.61005 8.06235 2.55541 8.19602 2.55193H9.26718V1.6593C9.26718 1.47719 9.19483 1.30254 9.06606 1.17377C8.93729 1.045 8.76264 0.972656 8.58053 0.972656H3.43072C3.24861 0.972656 3.07397 1.045 2.9452 1.17377C2.81643 1.30254 2.74408 1.47719 2.74408 1.6593V13.0713C3.02796 12.9777 3.32416 12.9268 3.62299 12.9202L3.63672 12.9477Z" fill="white"/>
<path d="M22.1074 15.2136C21.5169 14.6642 21.1323 14.3347 20.5693 14.3209C20.0062 14.3072 19.5393 14.678 18.9076 15.241C18.5865 15.6157 18.1941 15.9228 17.7532 16.1444C17.3124 16.366 16.8318 16.4977 16.3396 16.5319C15.847 16.4993 15.3659 16.3682 14.9249 16.1465C14.4838 15.9247 14.0916 15.6169 13.7715 15.241C13.1398 14.678 12.7141 14.3209 12.1099 14.3209C11.5056 14.3209 11.0936 14.678 10.4619 15.241C10.1053 15.5828 9.71408 15.8865 9.29463 16.1474C9.08917 16.2566 8.87284 16.3441 8.64919 16.4083C8.3988 16.4805 8.14056 16.522 7.88015 16.5319C7.37877 16.5034 6.88823 16.3744 6.43765 16.1527C5.98707 15.9309 5.58564 15.6209 5.25718 15.241C4.62547 14.678 4.19975 14.3209 3.5955 14.3209C3.43627 14.3211 3.27827 14.349 3.12859 14.4033C2.6875 14.6028 2.28709 14.8822 1.94756 15.2273C1.64946 15.5006 1.33286 15.7529 1 15.9826V21.5993C1 21.9635 1.14468 22.3128 1.40222 22.5704C1.65976 22.8279 2.00907 22.9726 2.37328 22.9726H21.5993C21.9635 22.9726 22.3128 22.8279 22.5703 22.5704C22.8278 22.3128 22.9725 21.9635 22.9725 21.5993V15.9414C22.6694 15.7169 22.3804 15.4738 22.1074 15.2136Z" fill="white"/>
</svg>
