<svg width="24" height="24" viewBox="0 0 24 24" fill="none" xmlns="http://www.w3.org/2000/svg">
<path d="M3.1366 5.70899V21.4316H11.5135V1C6.6878 1.19459 3.73009 4.89173 3.1366 5.70899ZM9.56768 10.7293C9.7601 10.7293 9.94821 10.7864 10.1082 10.8933C10.2682 11.0002 10.3929 11.1521 10.4665 11.3299C10.5402 11.5077 10.5595 11.7033 10.5219 11.8921C10.4844 12.0808 10.3917 12.2542 10.2556 12.3902C10.1196 12.5263 9.94622 12.6189 9.75749 12.6565C9.56876 12.694 9.37313 12.6748 9.19535 12.6011C9.01757 12.5275 8.86562 12.4028 8.75871 12.2428C8.65181 12.0828 8.59474 11.8947 8.59474 11.7023C8.59474 11.4442 8.69725 11.1967 8.87971 11.0143C9.06217 10.8318 9.30964 10.7293 9.56768 10.7293Z" fill="white"/>
<path d="M1.97881 1.45729C1.78436 1.45612 1.59402 1.51324 1.43234 1.62128C1.27066 1.72933 1.14507 1.88334 1.07177 2.06346C0.998471 2.24357 0.980822 2.44151 1.0211 2.63175C1.06139 2.82199 1.15775 2.99579 1.29776 3.13074V22.4045H2.65014V3.13074C2.78955 2.99637 2.8857 2.82346 2.92628 2.63413C2.96686 2.44481 2.95003 2.24768 2.87794 2.06797C2.80585 1.88827 2.68178 1.73416 2.5216 1.62537C2.36143 1.51658 2.17244 1.45806 1.97881 1.45729Z" fill="white"/>
<path d="M22.0212 1.45729C21.8276 1.45806 21.6386 1.51658 21.4784 1.62537C21.3182 1.73416 21.1942 1.88827 21.1221 2.06797C21.05 2.24768 21.0332 2.44481 21.0737 2.63413C21.1143 2.82346 21.2105 2.99637 21.3499 3.13074V22.4045H22.7023V3.13074C22.8423 2.99579 22.9386 2.82199 22.9789 2.63175C23.0192 2.44151 23.0015 2.24357 22.9282 2.06346C22.8549 1.88334 22.7293 1.72933 22.5677 1.62128C22.406 1.51324 22.2156 1.45612 22.0212 1.45729Z" fill="white"/>
<path d="M12.4865 1V21.4316H20.7564V5.54359C19.7816 4.24038 18.5393 3.16073 17.113 2.37708C15.6866 1.59343 14.1092 1.1239 12.4865 1ZM14.4323 12.6752C14.2399 12.6752 14.0518 12.6181 13.8918 12.5112C13.7318 12.4043 13.6071 12.2524 13.5334 12.0746C13.4598 11.8968 13.4405 11.7012 13.4781 11.5124C13.5156 11.3237 13.6083 11.1504 13.7443 11.0143C13.8804 10.8782 14.0538 10.7856 14.2425 10.748C14.4312 10.7105 14.6269 10.7297 14.8046 10.8034C14.9824 10.877 15.1344 11.0017 15.2413 11.1617C15.3482 11.3217 15.4052 11.5098 15.4052 11.7023C15.4052 11.9603 15.3027 12.2078 15.1203 12.3902C14.9378 12.5727 14.6904 12.6752 14.4323 12.6752Z" fill="white"/>
</svg>
