<?xml version="1.0" encoding="utf-8"?>
<!-- Generator: Adobe Illustrator 23.0.1, SVG Export Plug-In . SVG Version: 6.00 Build 0)  -->
<svg version="1.0" id="Layer_1" xmlns="http://www.w3.org/2000/svg" xmlns:xlink="http://www.w3.org/1999/xlink" x="0px" y="0px"
	 width="21.8px" height="33.6px" viewBox="0 0 21.8 33.6" enable-background="new 0 0 21.8 33.6" xml:space="preserve">
<title>subject-swift_fox-female</title>
<g>
	<g id="Layer_1-2">
		<path fill="#1A2026" d="M5.4,16.4c1.4-0.6,2.6-1.7,3.4-3l1.6-2.4c0.3-0.5,0.1-2,0.4-2.6s0.1-0.6,0.2-0.9c0.1-0.3,0.2-0.6,0.2-0.9
			c0.1-0.6,0.2-1.1,0.4-1.7c0.1-0.3,0.3-0.5,0.4-0.8c0.1-0.3,0.1-0.6,0.1-0.9c0.1-0.6,0.1-1.3,0.7-1.7c0.5-0.3,1.2-0.2,1.7,0.2
			L15,2.4l0.3,0.5l0.4-0.2c0.7-0.2,1.1-0.8,1.6-1.2c0.6-0.5,1.2-0.9,1.9-1.3L19.7,0C20,0,20,0,19.9,0.3c-0.1,0.3-0.2,0.5-0.3,0.8
			c-0.6,1.2-0.8,2.5-0.8,3.8c0,0.2,0.1,0.5,0.2,0.7C19.3,6,19.5,6.5,19.7,7L20,8.5c0.3,0.5,0.6,0.9,1,1.3c0.2,0.3,0.9,0.9,0.8,1.3
			S21,11.8,20.5,12c-0.5,0.1-1,0.1-1.4-0.2l-0.9-0.2c-0.5,0-0.4,0.7-0.4,0.7c1,3.3,0.2,6.9-2,9.5c-0.6,0.9-1.2,1.9-1.7,2.9
			c-0.3,1.1-0.5,2.2-0.4,3.3l0,0c2.3,0.4,4.9,1.8,6.3-0.7v0.8c-0.3,2.2-1.8,4.2-3.9,5C13.8,34,12,33.3,9.8,33
			c-1.1-0.1-2.1-0.2-3.2-0.1c-1.1,0.2-2.2,0.2-3.3,0.1H3c-0.7,0-1.3-0.3-1.7-0.8c-1.9-2.6-1.4-5.9-0.5-9S3.3,17.3,5.4,16.4L5.4,16.4
			z"/>
	</g>
</g>
</svg>
