<?xml version="1.0" encoding="utf-8"?>
<!-- Generator: Adobe Illustrator 23.0.1, SVG Export Plug-In . SVG Version: 6.00 Build 0)  -->
<svg version="1.0" id="Layer_1" xmlns="http://www.w3.org/2000/svg" xmlns:xlink="http://www.w3.org/1999/xlink" x="0px" y="0px"
	 width="21.8px" height="33.6px" viewBox="0 0 21.8 33.6" enable-background="new 0 0 21.8 33.6" xml:space="preserve">
<title>subject-swift_fox-male</title>
<g>
	<g id="Layer_1-2">
		<path fill="#1A2026" d="M16.4,16.4c-1.4-0.6-2.6-1.7-3.4-3L11.4,11c-0.3-0.5-0.1-2-0.4-2.6s-0.1-0.6-0.2-0.9
			c-0.1-0.3-0.2-0.6-0.2-0.9c-0.1-0.6-0.2-1.1-0.4-1.7c-0.1-0.3-0.3-0.5-0.4-0.8C9.7,3.8,9.7,3.5,9.7,3.2C9.6,2.6,9.6,1.9,8.9,1.5
			C8.4,1.1,7.7,1.2,7.3,1.7L6.8,2.4L6.5,2.9L6.1,2.7C5.4,2.5,5,1.9,4.4,1.5C3.8,1,3.2,0.5,2.5,0.2L2,0C1.8,0,1.8,0,1.9,0.3
			C2,0.6,2.1,0.8,2.2,1.1C2.8,2.3,3,3.6,3,4.9C2.9,5.2,2.9,5.4,2.7,5.6C2.5,6,2.3,6.5,2.1,7L1.8,8.5C1.5,9,1.2,9.4,0.8,9.8
			c-0.2,0.3-0.9,0.9-0.8,1.3s0.8,0.7,1.2,0.9c0.5,0.1,1,0.1,1.5-0.2l0.9-0.2C4,11.6,4,12.3,4,12.3c-1,3.3-0.3,6.9,2,9.5
			c0.6,0.9,1.2,1.9,1.7,2.9C8,25.8,8.2,26.9,8.1,28l0,0c-2.3,0.4-4.9,1.8-6.3-0.7v0.8c0.3,2.3,1.8,4.2,3.9,5C8,34,9.7,33.3,12,33
			c1.1-0.1,2.1-0.2,3.2-0.1c1.1,0.2,2.2,0.2,3.3,0.1h0.2c0.7,0,1.3-0.3,1.7-0.8c1.9-2.6,1.4-5.9,0.5-9S18.4,17.3,16.4,16.4z"/>
	</g>
</g>
</svg>
