<svg xmlns="http://www.w3.org/2000/svg" viewBox="0 0 40 25.21"><defs><style>.cls-1{fill:#1a2026;}</style></defs><g id="Layer_2" data-name="Layer 2"><g id="Layer_1-2" data-name="Layer 1"><path class="cls-1" d="M24.92,20.11a10,10,0,0,0,0-2.05,9,9,0,0,1-.16-1.16,10.36,10.36,0,0,1,.09-1.25,4.84,4.84,0,0,1,.1-.71,6.51,6.51,0,0,0,.74-.33,7.31,7.31,0,0,0,2.72-2.06,4.78,4.78,0,0,1,1.36-1.21A12.57,12.57,0,0,0,31,10.68c.27.09.54.14.81.21a14.44,14.44,0,0,0,1.71.36c.54.09,1.13.09,1.66.22a15.32,15.32,0,0,1,1.64.46,3.16,3.16,0,0,0,.78.23c.19,0,.41,0,.61,0a3.87,3.87,0,0,0,0,1c.09.42.63.41.95.19a1,1,0,0,0,.46,0c.43-.17.3-.76.32-1.11a5.46,5.46,0,0,0,0-1.07.92.92,0,0,0-.11-.89.92.92,0,0,0-.24-.7A.74.74,0,0,0,39.3,9a5.58,5.58,0,0,0-.73-1c-.35-.39-.78-.71-1.15-1.09s-.59-.84-1-1.2a9.79,9.79,0,0,0-1.24-1.08c-.32-.22-.63-.45-1-.65-.13-.69-.58-2.05-1.44-1.34a1.52,1.52,0,0,0-.32.39,2.34,2.34,0,0,1-1.12-.44c-.4-.24-.92-.39-1.2.08A1.4,1.4,0,0,0,30,3c-.48,0-1,0-1.44,0a8.22,8.22,0,0,1-1.79-.15A19.21,19.21,0,0,0,23.39,2a3.94,3.94,0,0,0-1.19.17A4.8,4.8,0,0,1,21.29,2c-.67-.21-1.39-.21-2-.48A15.53,15.53,0,0,0,14.91.19C14,.09,13.06,0,12.14,0a7.92,7.92,0,0,0-2,.22A8.64,8.64,0,0,0,6.76,1.81c-.7.52-3.18,2.06-3.6,2.49-.58.59-1,1.31-1.55,2A6.9,6.9,0,0,0,.23,8.31a4.21,4.21,0,0,0,0,2.78c.11.32.31.77.68.87a.78.78,0,0,0,.64-.2,7,7,0,0,0,.66.67,6.22,6.22,0,0,1,.91.94,9.23,9.23,0,0,1,.6,1.17,6.1,6.1,0,0,1,.54,2,5.7,5.7,0,0,1-.52,1.09,2.63,2.63,0,0,0-.55,1.91A17.75,17.75,0,0,0,4,21.62a19.06,19.06,0,0,1,.33,2.12,1.21,1.21,0,0,0,1.24,1,1.62,1.62,0,0,0,.61.47c.37.13.64-.17.69-.51l.18.09c.27.12,1,.22,1.25-.06s0-.48-.24-.65a.35.35,0,0,0,.05-.36,1.12,1.12,0,0,0-.33-.42,1.65,1.65,0,0,0-1-.41,5.42,5.42,0,0,1-.22-.56,3.75,3.75,0,0,1-.06-2.2,7.38,7.38,0,0,1,.62-1.74,2.72,2.72,0,0,0,.16.3c.36.56.82,1.06,1.17,1.64.25.43.55.85.81,1.27a1.22,1.22,0,0,0,.14.74c.39.69,1.2.69,1.9.84a1.8,1.8,0,0,0,1.1.06c.29-.13.26-.38.18-.62.35,0,.72-.15.5-.55a3.38,3.38,0,0,0-.58-.68c.17-.19-.3-.42-.49-.48a3.28,3.28,0,0,0-.56-.14c-.1,0-.24,0-.37,0a7.05,7.05,0,0,1-.61-1,4.38,4.38,0,0,1-.22-2.92c.25-.92.62-1.8.92-2.71.27.11.56.19.83.27a10.62,10.62,0,0,0,1.12.24,7.52,7.52,0,0,0,1.17.2,4.84,4.84,0,0,0,1.82,0,10.58,10.58,0,0,0-.1,1.08,6,6,0,0,1-.38,1.49,4.65,4.65,0,0,0-.55,1.42,9.81,9.81,0,0,0,.24,1.52c0,.36.12.73.16,1.1a1.3,1.3,0,0,0,0,1.08,1,1,0,0,0,.8.38,1,1,0,0,0,.35.25,4.2,4.2,0,0,0,1.45.28c.19,0,.54.15.7,0a.3.3,0,0,0,.05-.37,1.1,1.1,0,0,0,.69-.26c.21-.23,0-.46-.16-.63.18-.2-.09-.49-.35-.65a2.84,2.84,0,0,0-1.29-.27,1.44,1.44,0,0,1-.19-.5,4,4,0,0,1,0-1A2.84,2.84,0,0,0,18,19,12.35,12.35,0,0,1,19.1,17l.69-1a4.17,4.17,0,0,0,.44-.84,4.26,4.26,0,0,0,.61,0,2.62,2.62,0,0,0,.23,1.08c.19.51.55.93.78,1.42s.4.9.58,1.35.3,1,.45,1.47a5.2,5.2,0,0,0,.26.72c0,.09.15.23.22.35a1.79,1.79,0,0,0,.32,1.31c.11.17.27.45.5.43s.3-.17.39-.33a1.69,1.69,0,0,0,.27.13c.59.22,1.88.66,2-.16.27,0,.55,0,.63-.23s-.11-.54-.32-.74a.31.31,0,0,0,.05-.43.89.89,0,0,0-.54-.17,1.14,1.14,0,0,0-.46-.28,5.51,5.51,0,0,1-.65-.31A1.61,1.61,0,0,1,24.92,20.11Z"/></g></g></svg>
