<svg xmlns="http://www.w3.org/2000/svg" viewBox="0 0 46.35 29.83"><defs><style>.cls-1{fill:#1a2026;}</style></defs><g id="Layer_2" data-name="Layer 2"><g id="Layer_1-2" data-name="Layer 1"><path class="cls-1" d="M.13,1.39a6.46,6.46,0,0,1,.29.67A3.36,3.36,0,0,0,1.51,3.78,5.83,5.83,0,0,0,4.17,5c.7.11,1.41.18,2.12.25a3.08,3.08,0,0,0,.53,0,2.06,2.06,0,0,1,.26,0,1.32,1.32,0,0,0,.26,0l.7,0C8.1,5.18,8,5,7.9,5a3.88,3.88,0,0,0-.8-.54,6.37,6.37,0,0,1-1.59-.93A4.31,4.31,0,0,1,4.29,1.73,2,2,0,0,1,4.4.19,1.46,1.46,0,0,1,4.56,0l.06,0a1,1,0,0,1,0,.3,2,2,0,0,0,.7,2,4.62,4.62,0,0,0,1.77,1A6.49,6.49,0,0,1,9.29,4.45a2.07,2.07,0,0,1,.64,1c0,.09.13.16.19.24a.72.72,0,0,1,.11.15.51.51,0,0,0,.63.32,1.73,1.73,0,0,1,.4,0c.05,0,.1,0,.14,0,.4-.17.79,0,1.19,0,.69,0,1.37-.06,2.06,0a1.94,1.94,0,0,1,.89.2A2.67,2.67,0,0,0,17,6.58c.57,0,1.14,0,1.71,0a2.65,2.65,0,0,1,.54.13l.9.18c.22,0,.46,0,.68.06a4.89,4.89,0,0,1,.92.28,2.4,2.4,0,0,0,.84.2c.38,0,.76.17,1.14.2.68.07,1.37.14,2,.15,1.32,0,2.64,0,4,0a2.32,2.32,0,0,1,.58.08,3.5,3.5,0,0,0,1.61,0,5.88,5.88,0,0,1,3.06.07,1.16,1.16,0,0,0,.64,0A3.11,3.11,0,0,1,37.47,8c.5.14,1,.43,1.48.53A6.14,6.14,0,0,1,41.4,9.73a4.31,4.31,0,0,1,1.71,3,6.78,6.78,0,0,0,1.62,3.4,9,9,0,0,1,.87,1.31,1.41,1.41,0,0,1,.14.73,4,4,0,0,0,.32,1.77,2.41,2.41,0,0,1,.11.76,1.52,1.52,0,0,0,.13.69.59.59,0,0,1-.12.64,1.91,1.91,0,0,0-.31,1.43c0,.1,0,.21,0,.31l-.08,0a2.13,2.13,0,0,0-.25-.34,2.59,2.59,0,0,0-.42-.32.47.47,0,0,1-.24-.46,1.24,1.24,0,0,0-.17-.82.28.28,0,0,1,0-.25,2.32,2.32,0,0,1,.22-.41.53.53,0,0,0,0-.6,1.36,1.36,0,0,1-.16-1.47,1.71,1.71,0,0,0-.12-1.6c-.4-.7-.82-1.39-1.18-2.1a15.47,15.47,0,0,1-.78-1.83,6,6,0,0,0-1.75-2.92c-.26-.2-.54-.37-.8-.56,0,0,0,.05-.08.06a2.12,2.12,0,0,0,.1.36,3.22,3.22,0,0,1,.24,1.34c0,1.17.08,2.34.17,3.5a7.88,7.88,0,0,1-.15,2.78,1.63,1.63,0,0,0,.15,1.16,7,7,0,0,0,.57,1,1.45,1.45,0,0,0,.42.35c.39.31.8.59,1.17.92a1.05,1.05,0,0,1,.19,1.25.43.43,0,0,0,0,.25,1.85,1.85,0,0,1,0,1A4,4,0,0,0,43,26.66a4.94,4.94,0,0,1,.25,1.09,1,1,0,0,1,0,.43c-.09.34-.17.36-.46.14-.21.08-.2.25-.17.42a.7.7,0,0,1-.71.84c-.42,0-.84,0-1.27,0-.06,0-.12-.06-.18-.09l-.25-.16a1.58,1.58,0,0,1,.13-.18,2.71,2.71,0,0,1,.4-.35,2,2,0,0,0,.85-1.65,3.16,3.16,0,0,1,.16-.74,2.52,2.52,0,0,0-.15-1.71A5.24,5.24,0,0,0,41,23.46a9.73,9.73,0,0,0-1.14-1.34,4.34,4.34,0,0,0-.84-.5l-.06,0-1.36-1.33-.06-.05a1.13,1.13,0,0,1-.17.33c-.08.07-.22.05-.37.07a2.79,2.79,0,0,0,.32.87c.23.43.47.87.67,1.32a.8.8,0,0,1,0,.46,5.46,5.46,0,0,1-.27.87c-.15.37-.33.72-.51,1.08a5.55,5.55,0,0,0-.56,2.54,4.56,4.56,0,0,1-.08.82.36.36,0,0,1-.52.27c-.22-.1-.23,0-.24.18a.32.32,0,0,0,0,.14c0,.45-.22.69-.67.64a5.4,5.4,0,0,0-.8,0h-.69c0-.11,0-.18.05-.26l-.35.1,0-.05a3.55,3.55,0,0,1,.23-.31c.26-.26.53-.5.81-.74A2.16,2.16,0,0,0,35,27.39c0-.23.2-.43.27-.65.18-.53.34-1.07.5-1.6a1.21,1.21,0,0,1,.08-.25.57.57,0,0,0,0-.7c.17-.1.17-.22.08-.37-.36-.52-.7-1.05-1.06-1.57a2.92,2.92,0,0,0-.42-.44,5.77,5.77,0,0,1-1.28-1.67c-.05-.11-.06-.24-.11-.35a5.44,5.44,0,0,0-.3-.65c-.26-.45-.69-.45-1.15-.25s-.69.41-1.05.57c-.61.27-1.23.5-1.85.75-.25.1-.49.2-.73.32-.4.2-.49.17-.54-.27a.2.2,0,0,0-.11,0c-.63,0-1.26.12-1.88.1a9.22,9.22,0,0,0-2.51.41c-.73.19-.72.19-.75,1a2.63,2.63,0,0,0,.42,1.59A4.3,4.3,0,0,1,23,24.86a4.48,4.48,0,0,0,.65,1.67,3.8,3.8,0,0,1,.66,1.77,1.86,1.86,0,0,0-.24-.09c-.08,0-.21-.06-.23,0a.37.37,0,0,0-.08.28A2.57,2.57,0,0,0,24,29a.54.54,0,0,1-.06.62.57.57,0,0,1-.28.16c-.45,0-.9,0-1.35,0-.16,0-.26,0-.2-.22l-.51.07-.06-.08.35-.4a8.42,8.42,0,0,0,.55-.64,1,1,0,0,0,.08-.85c0-.27-.08-.56-.12-.84a2.92,2.92,0,0,0-.86-1.64,2.71,2.71,0,0,1-1-1.59,2.59,2.59,0,0,0-.43-1,2.49,2.49,0,0,0-.4-.52.35.35,0,0,0-.24-.12.27.27,0,0,0-.15.19,5.32,5.32,0,0,1-.69,1.93,4.39,4.39,0,0,0-.39,1.68c-.05.55-.06,1.11-.1,1.67a.6.6,0,0,1-.06.23c-.09.22-.17.23-.37.11a1,1,0,0,0-.3-.09,1,1,0,0,0,0,.33,1.08,1.08,0,0,0,.11.3c.12.28.1.41-.2.5a6.76,6.76,0,0,1-1.08.25c-.33.06-.67.06-1.05.09.1-.3-.11-.33-.32-.44l.8-.81.1-.07a1.6,1.6,0,0,0,1-1.48,2.16,2.16,0,0,1,.23-.72,1.5,1.5,0,0,0,.1-1.08,6.69,6.69,0,0,1-.09-2.14,9.52,9.52,0,0,0,0-1.31,2.86,2.86,0,0,0-.26-.95,1,1,0,0,0-.47-.32c-.64-.21-1-.79-1.58-1.12a.67.67,0,0,1-.19-.22,1.72,1.72,0,0,0-.92-.73A2.54,2.54,0,0,1,12,16a1.71,1.71,0,0,0-.84-1,3.52,3.52,0,0,0-1.31-.33,5,5,0,0,1-2.28-1,1.33,1.33,0,0,0-.9-.3,2.48,2.48,0,0,1-1.91-.63A.62.62,0,0,0,4,12.73a.88.88,0,0,1-1.32-.19,1.18,1.18,0,0,1-.19-.39A1.09,1.09,0,0,0,2,11.5a.83.83,0,0,1,.24-1.35A2.73,2.73,0,0,0,3.5,9.34c.11-.15.3-.23.43-.36s.46-.52.68-.79.22-.27.34-.41.23-.23.16-.42,0-.12.06-.15.37-.29.57-.43.1-.14,0-.19a.64.64,0,0,0-.24,0,7.36,7.36,0,0,1-2.44-.61A4.61,4.61,0,0,1,.92,4a5.77,5.77,0,0,1-.88-2,5.27,5.27,0,0,1,0-.68S.08,1.41.13,1.39Z"/></g></g></svg>