<svg xmlns="http://www.w3.org/2000/svg" viewBox="0 0 44.56 26.48"><defs><style>.cls-1{fill:#1a2026;}</style></defs><g id="Layer_2" data-name="Layer 2"><g id="Layer_1-2" data-name="Layer 1"><path class="cls-1" d="M42.19,1.64c-.71.11-1.42.18-2.13.25a3.08,3.08,0,0,1-.53,0,2.06,2.06,0,0,0-.26,0,1.32,1.32,0,0,1-.26.05l-.7,0c-.06-.09,0-.23.14-.31a3.88,3.88,0,0,1,.8-.54A6.5,6.5,0,0,0,40.84.14c.57-.48-3.13.39-3.78,1a2.07,2.07,0,0,0-.64,1c0,.09-.13.16-.19.24a.53.53,0,0,0-.11.15.51.51,0,0,1-.63.32,1.73,1.73,0,0,0-.4,0s-.1,0-.14,0c-.4-.17-.79,0-1.19,0-.69,0-1.37-.06-2.06,0a2.23,2.23,0,0,0-.89.2,2.58,2.58,0,0,1-1.41.26c-.57,0-1.14,0-1.71,0a2.65,2.65,0,0,0-.54.13c-.29.06-.6.13-.9.18s-.46,0-.68.06a4.89,4.89,0,0,0-.92.28,2.65,2.65,0,0,1-.84.2c-.38,0-.76.16-1.14.2-.68.07-1.36.13-2,.14-1.32,0-2.64,0-3.95,0a2.33,2.33,0,0,0-.58.09,3.5,3.5,0,0,1-1.61,0,5.88,5.88,0,0,0-3.06.07,1.16,1.16,0,0,1-.64,0,3.11,3.11,0,0,0-1.91.11c-.5.14-1,.43-1.47.53A6.23,6.23,0,0,0,5,6.37a4.36,4.36,0,0,0-1.71,3,6.84,6.84,0,0,1-1.61,3.41,8.33,8.33,0,0,0-.88,1.31,1.38,1.38,0,0,0-.13.73,4,4,0,0,1-.33,1.77,2.37,2.37,0,0,0-.11.76A1.65,1.65,0,0,1,.06,18a.55.55,0,0,0,.11.63,1.92,1.92,0,0,1,.31,1.43c0,.11,0,.21,0,.32l.08,0a1.76,1.76,0,0,1,.25-.34,2.29,2.29,0,0,1,.43-.32.47.47,0,0,0,.23-.47,1.26,1.26,0,0,1,.17-.82s0-.17,0-.24a4,4,0,0,0-.22-.41.49.49,0,0,1,0-.6,1.36,1.36,0,0,0,.16-1.47,1.73,1.73,0,0,1,.11-1.61c.4-.69.82-1.38,1.18-2.09a15.47,15.47,0,0,0,.78-1.83A6,6,0,0,1,5.44,7.3c.25-.2.53-.38.8-.56l.07.06a3,3,0,0,1-.09.35A3.27,3.27,0,0,0,6,8.5c0,1.17-.08,2.34-.17,3.5A7.88,7.88,0,0,0,6,14.78a1.68,1.68,0,0,1-.14,1.16,9.48,9.48,0,0,1-.57,1,1.65,1.65,0,0,1-.43.35c-.39.31-.8.59-1.16.92a1,1,0,0,0-.2,1.24.47.47,0,0,1,0,.26,2.07,2.07,0,0,0,0,1,4,4,0,0,1-.16,2.57,4.94,4.94,0,0,0-.25,1.09,1,1,0,0,0,0,.42c.1.35.17.37.46.15.21.07.2.25.17.42a.7.7,0,0,0,.71.83H5.71c.06,0,.13-.06.18-.09L6.14,26A1.88,1.88,0,0,0,6,25.8a4.36,4.36,0,0,0-.4-.35,2,2,0,0,1-.86-1.65,3.74,3.74,0,0,0-.15-.74,2.45,2.45,0,0,1,.14-1.71A5.31,5.31,0,0,1,5.4,20.1a10.27,10.27,0,0,1,1.14-1.33,4.34,4.34,0,0,1,.84-.5l.06,0L8.81,16.9l0,0a1.13,1.13,0,0,0,.17.33c.08.07.22,0,.38.07a2.93,2.93,0,0,1-.33.86c-.23.44-.46.88-.66,1.32a.8.8,0,0,0,0,.46,6.41,6.41,0,0,0,.27.88c.15.37.34.72.51,1.07a5.49,5.49,0,0,1,.56,2.55,4.36,4.36,0,0,0,.08.81.36.36,0,0,0,.52.28c.22-.1.23,0,.25.18a.58.58,0,0,1,0,.14c-.05.45.22.69.67.64a7.18,7.18,0,0,1,.8,0c.22,0,.44,0,.69,0,0-.1,0-.17-.05-.25l.35.1.05-.05a1.78,1.78,0,0,0-.23-.31c-.26-.26-.53-.5-.81-.75A2.09,2.09,0,0,1,11.33,24c-.05-.22-.2-.42-.27-.64-.18-.53-.34-1.07-.5-1.6a1.21,1.21,0,0,0-.08-.25.57.57,0,0,1,0-.7c-.17-.1-.17-.22-.08-.37.36-.52.7-1,1.06-1.57a2.92,2.92,0,0,1,.42-.44,5.77,5.77,0,0,0,1.28-1.67c.05-.11.06-.24.11-.35a5.44,5.44,0,0,1,.3-.65c.26-.45.69-.46,1.16-.25s.68.41,1,.57c.61.27,1.23.5,1.85.75.25.1.5.2.73.32.4.2.49.17.54-.27a.35.35,0,0,1,.11,0c.63,0,1.26.13,1.89.11a9.21,9.21,0,0,1,2.5.41c.73.19.72.19.75,1A2.63,2.63,0,0,1,23.74,20a4.3,4.3,0,0,0-.41,1.56,4.71,4.71,0,0,1-.64,1.67A3.66,3.66,0,0,0,22,25a1,1,0,0,1,.24-.09c.08,0,.21-.06.24,0a.41.41,0,0,1,.07.28,2.57,2.57,0,0,1-.21.52.53.53,0,0,0,.06.61.47.47,0,0,0,.29.16c.44,0,.89,0,1.34.06.16,0,.27,0,.2-.22l.51.07.06-.09c-.11-.13-.23-.26-.34-.4a6.64,6.64,0,0,1-.56-.63,1,1,0,0,1-.08-.85c.05-.28.08-.56.12-.84a3,3,0,0,1,.86-1.65,2.65,2.65,0,0,0,1-1.59,2.74,2.74,0,0,1,.43-1,2.81,2.81,0,0,1,.4-.51.31.31,0,0,1,.24-.12c.06,0,.14.12.15.19a5.32,5.32,0,0,0,.69,1.93,4.39,4.39,0,0,1,.39,1.67c0,.56.06,1.12.1,1.68a.6.6,0,0,0,.06.23c.09.22.17.23.37.1a1.32,1.32,0,0,1,.3-.08.93.93,0,0,1,0,.33,1,1,0,0,1-.11.29c-.12.29-.1.41.2.51a6.76,6.76,0,0,0,1.08.25c.34.05.67.06,1.05.09-.1-.3.11-.33.32-.45l-.8-.8a.26.26,0,0,0-.1-.07,1.62,1.62,0,0,1-1-1.49,2.18,2.18,0,0,0-.23-.71,1.52,1.52,0,0,1-.1-1.09,6.34,6.34,0,0,0,.09-2.13,9.55,9.55,0,0,1,0-1.31,2.79,2.79,0,0,1,.26-.95c.07-.15.3-.25.47-.32.64-.22,1-.79,1.58-1.12a.57.57,0,0,0,.19-.22,1.72,1.72,0,0,1,.92-.73,2.58,2.58,0,0,0,1.59-1.8,1.71,1.71,0,0,1,.84-1,3.73,3.73,0,0,1,1.31-.34,4.91,4.91,0,0,0,2.29-1,1.28,1.28,0,0,1,.89-.3,2.55,2.55,0,0,0,1.91-.63.63.63,0,0,1,.77-.06c.59.33.83.29,1.31-.19a1,1,0,0,0,.19-.39,1.13,1.13,0,0,1,.41-.66.82.82,0,0,0-.24-1.34A2.78,2.78,0,0,1,42.85,6a5,5,0,0,0-.43-.35c-.24-.26-.46-.52-.68-.79s-.22-.28-.34-.41-.23-.23-.16-.43c0,0,0-.11-.05-.14-.19-.15-.38-.3-.58-.43s-.1-.14,0-.19a.56.56,0,0,1,.23-.06,2.94,2.94,0,0,0,1.55-.45c.91-.4,1.35-.28,1.87-1.15C44.63,1,43.18,1.49,42.19,1.64Z"/></g></g></svg>