<svg xmlns="http://www.w3.org/2000/svg" viewBox="0 0 40 24.4"><path d="M10,16.9a3.8,3.8,0,1,0,3.8,3.8A3.8,3.8,0,0,0,10,16.9Zm0,5.6a1.8,1.8,0,0,1-1.8-1.8A1.9,1.9,0,0,1,10,18.8a1.9,1.9,0,0,1,1.8,1.9A1.8,1.8,0,0,1,10,22.5Z"/><path d="M31,16.9a3.8,3.8,0,1,0,3.8,3.8A3.8,3.8,0,0,0,31,16.9Zm0,5.6a1.8,1.8,0,0,1-1.8-1.8A1.9,1.9,0,0,1,31,18.8a2,2,0,0,1,1.9,1.9A1.9,1.9,0,0,1,31,22.5Z"/><path d="M39.2,2.2a.9.9,0,0,0,.8-.8V.8a.9.9,0,0,0-.8-.8H14a.8.8,0,0,0-.8.8v.6a.8.8,0,0,0,.8.8h3.5V9.8H14.2l1.4-5a1.1,1.1,0,0,0-.1-.5L15,4.1h-.8c-.2,0-.5.2-.5.4L11.1,9.9,2,11.9a.7.7,0,0,0-.4.6v4.1H1.2A1.2,1.2,0,0,0,0,17.8v1.5a1.2,1.2,0,0,0,1.2,1.2H4.8l.7-2,.6-1.6a1.5,1.5,0,0,1,1.4-1.1h5a1.4,1.4,0,0,1,1.4,1.1l.7,1.7.7,1.9H25.8l.7-2,.6-1.6a1.6,1.6,0,0,1,1.5-1.1h4.9a1.3,1.3,0,0,1,1.4,1.1l.7,1.7.7,1.9h2.5A1.2,1.2,0,0,0,40,19.3V17.8a1.2,1.2,0,0,0-1.2-1.2h-.4V10.4a.6.6,0,0,0-.6-.6h-1V2.2ZM35.5,9.8H32V6.9a.7.7,0,0,0-.7-.6h-.9a1.5,1.5,0,0,0-.7.9c-.3.9-.5,1.7-.7,2.5H25.2V6.9a.6.6,0,0,0-.6-.6h-.9a1.7,1.7,0,0,0-.8.9,18.2,18.2,0,0,1-.7,2.5H18.7V2.2H35.5Z"/></svg>