<svg xmlns="http://www.w3.org/2000/svg" viewBox="0 0 40 22.55"><defs><style>.cls-1{fill:#1a2026;}</style></defs><g id="Layer_2" data-name="Layer 2"><g id="Layer_1-2" data-name="Layer 1"><path class="cls-1" d="M3.23,11H6.28a2.52,2.52,0,0,0,2,2.42l.35.08a3.38,3.38,0,0,0-1.41,3.95h-4a3.23,3.23,0,1,1,0-6.45ZM2.56,14h0A.62.62,0,0,0,3,13.77a.65.65,0,0,0,.18-.44.62.62,0,0,0-1.24,0A.63.63,0,0,0,2.56,14Z"/><path class="cls-1" d="M28.19,1V2.41a2.82,2.82,0,0,1-1.38,2.42,16,16,0,0,1-2.76,1.25,4,4,0,0,1-2.45,0h0a15.52,15.52,0,0,1-3.43-1.66,2.8,2.8,0,0,1-1.26-2.34V1A16.56,16.56,0,0,1,28.19,1Z"/><path class="cls-1" d="M16.65,3.92a13.26,13.26,0,0,0-6.07,9.2l-2.17-.45-.27-.09a1.68,1.68,0,0,1-.94-.93,1.71,1.71,0,0,1,0-1.33,16.64,16.64,0,0,1,8.94-9v.8A3.51,3.51,0,0,0,16.65,3.92Z"/><path class="cls-1" d="M11.7,14.11a17.57,17.57,0,0,1,6.11,8.39s0,.05,0,.05a14.34,14.34,0,0,1-9.29-4.4A2.6,2.6,0,0,1,10,13.79C10.57,13.91,11.14,14,11.7,14.11Z"/><path class="cls-1" d="M30.94,18.67a28.5,28.5,0,0,1-13.57.9,18.07,18.07,0,0,0-4.12-5.19,82.05,82.05,0,0,0,17.92.84A3,3,0,0,0,30.94,18.67Z"/><path class="cls-1" d="M34.36,15l.11,0A10.65,10.65,0,0,1,40,20.31a0,0,0,0,1,0,.05,6.36,6.36,0,0,1-8.26-1.92l0-.06a2.3,2.3,0,0,1,.6-3.14l.17-.1C33.07,15.08,33.72,15,34.36,15Z"/><path class="cls-1" d="M38.35,14.45a4.63,4.63,0,0,1-1,1.4,9.85,9.85,0,0,0-1.58-1C36.66,14.7,37.51,14.58,38.35,14.45Z"/><path class="cls-1" d="M39.6,10.83A1.69,1.69,0,0,1,40,12.09a1.72,1.72,0,0,1-.62,1.18,1.64,1.64,0,0,1-.84.37c-1.11.18-2.24.33-3.35.46A13.26,13.26,0,0,0,28.71,3.75,3.55,3.55,0,0,0,29,2.41V1.31a16.55,16.55,0,0,1,8.16,7.48,2.5,2.5,0,0,0,1.26,1.14,3.18,3.18,0,0,1,1.21.9h0"/><path class="cls-1" d="M34.41,14.18a82.06,82.06,0,0,1-11.2.38V7a4.41,4.41,0,0,0,1.08-.22A15.56,15.56,0,0,0,27.2,5.49a3.61,3.61,0,0,0,1.14-1.06A12.48,12.48,0,0,1,34.41,14.18Z"/><path class="cls-1" d="M17.75,5.06a15.78,15.78,0,0,0,3.6,1.75A4.51,4.51,0,0,0,22.43,7v7.5a81,81,0,0,1-11.09-1.27,12.45,12.45,0,0,1,5.78-8.72,3.49,3.49,0,0,0,.63.52"/></g></g></svg>