<svg xmlns="http://www.w3.org/2000/svg" viewBox="0 0 40 22.55"><defs><style>.cls-1{fill:#1a2026;}</style></defs><g id="Layer_2" data-name="Layer 2"><g id="Layer_1-2" data-name="Layer 1"><path class="cls-1" d="M36.77,11H33.72a2.52,2.52,0,0,1-2,2.42l-.35.08a3.38,3.38,0,0,1,1.41,3.95h4a3.23,3.23,0,1,0,0-6.45ZM37.44,14h0a.62.62,0,0,1-.44-.18.65.65,0,0,1-.18-.44.62.62,0,0,1,1.24,0A.63.63,0,0,1,37.44,14Z"/><path class="cls-1" d="M11.81,1V2.41a2.82,2.82,0,0,0,1.38,2.42A16,16,0,0,0,16,6.08a4,4,0,0,0,2.45,0h0a15.52,15.52,0,0,0,3.43-1.66,2.8,2.8,0,0,0,1.26-2.34V1A16.56,16.56,0,0,0,11.81,1Z"/><path class="cls-1" d="M23.35,3.92a13.26,13.26,0,0,1,6.07,9.2l2.17-.45.27-.09a1.68,1.68,0,0,0,.94-.93,1.71,1.71,0,0,0,0-1.33,16.64,16.64,0,0,0-8.94-9v.8A3.51,3.51,0,0,1,23.35,3.92Z"/><path class="cls-1" d="M28.3,14.11a17.57,17.57,0,0,0-6.11,8.39s0,.05,0,.05a14.34,14.34,0,0,0,9.29-4.4A2.6,2.6,0,0,0,30,13.79C29.43,13.91,28.86,14,28.3,14.11Z"/><path class="cls-1" d="M9.06,18.67a28.5,28.5,0,0,0,13.57.9,18.07,18.07,0,0,1,4.12-5.19,82.05,82.05,0,0,1-17.92.84A3,3,0,0,1,9.06,18.67Z"/><path class="cls-1" d="M5.64,15l-.11,0A10.65,10.65,0,0,0,0,20.31a0,0,0,0,0,0,.05A6.36,6.36,0,0,0,8.3,18.44l0-.06a2.3,2.3,0,0,0-.6-3.14l-.17-.1C6.93,15.08,6.28,15,5.64,15Z"/><path class="cls-1" d="M1.65,14.45a4.63,4.63,0,0,0,1,1.4,9.85,9.85,0,0,1,1.58-1C3.34,14.7,2.49,14.58,1.65,14.45Z"/><path class="cls-1" d="M.4,10.83A1.69,1.69,0,0,0,0,12.09a1.72,1.72,0,0,0,.62,1.18,1.64,1.64,0,0,0,.84.37c1.11.18,2.24.33,3.35.46A13.26,13.26,0,0,1,11.29,3.75,3.55,3.55,0,0,1,11,2.41V1.31A16.55,16.55,0,0,0,2.87,8.79,2.5,2.5,0,0,1,1.61,9.93a3.18,3.18,0,0,0-1.21.9h0"/><path class="cls-1" d="M5.59,14.18a82.06,82.06,0,0,0,11.2.38V7a4.41,4.41,0,0,1-1.08-.22A15.56,15.56,0,0,1,12.8,5.49a3.61,3.61,0,0,1-1.14-1.06A12.48,12.48,0,0,0,5.59,14.18Z"/><path class="cls-1" d="M22.25,5.06a15.78,15.78,0,0,1-3.6,1.75A4.51,4.51,0,0,1,17.57,7v7.5a81,81,0,0,0,11.09-1.27,12.45,12.45,0,0,0-5.78-8.72,3.49,3.49,0,0,1-.63.52"/></g></g></svg>