<svg xmlns="http://www.w3.org/2000/svg" viewBox="0 0 40 26"><defs><style>.a{fill:#1a2026;}</style></defs><path class="a" d="M0,16.6v5.3a.8.8,0,0,0,.8.7H5.1a4.9,4.9,0,0,1,9.7,0H26.3a4.9,4.9,0,0,1,9.7,0h3.2a.8.8,0,0,0,.8-.7V.8a.9.9,0,0,0-.8-.8H10.3C8.5,0,7.4,1.2,5.9,4.4s-2.7,6.8-3.4,8.3S0,15.2,0,16.6Zm5.4-4.4c.4-1,1.2-3.5,2.3-6.4s1.8-3.4,3.7-3.4H13a.5.5,0,0,1,.5.4v9.4a.5.5,0,0,1-.5.5H5.6C5.4,12.7,5.4,12.4,5.4,12.2Z"/><path class="a" d="M6.7,22.8A3.2,3.2,0,0,0,9.9,26a3.2,3.2,0,0,0,3.3-3.2,3.3,3.3,0,0,0-3.3-3.3A3.2,3.2,0,0,0,6.7,22.8ZM9.9,21a1.8,1.8,0,0,1,1.8,1.8,1.8,1.8,0,0,1-1.8,1.7,1.8,1.8,0,0,1-1.7-1.7A1.8,1.8,0,0,1,9.9,21Z"/><path class="a" d="M27.9,22.8A3.2,3.2,0,0,0,31.1,26a3.2,3.2,0,0,0,3.3-3.2,3.3,3.3,0,0,0-3.3-3.3A3.2,3.2,0,0,0,27.9,22.8ZM31.1,21a1.8,1.8,0,0,1,1.8,1.8,1.8,1.8,0,0,1-1.8,1.7,1.8,1.8,0,0,1-1.7-1.7A1.8,1.8,0,0,1,31.1,21Z"/></svg>