<svg width="32" height="32" viewBox="0 0 32 32" fill="none" xmlns="http://www.w3.org/2000/svg">
<path d="M4.74036 18.3645C5.96676 18.3645 6.96337 19.4038 6.96337 20.6809C6.96337 21.958 5.96676 22.9973 4.74036 22.9973C3.51396 22.9973 2.51735 21.958 2.51735 20.6809C2.51735 19.4038 3.51396 18.3645 4.74036 18.3645ZM4.74036 21.608C5.22317 21.608 5.6182 21.1939 5.6182 20.6836C5.6182 20.1733 5.22575 19.7592 4.74036 19.7592C4.25496 19.7592 3.86251 20.1733 3.86251 20.6836C3.86251 21.1939 4.25496 21.608 4.74036 21.608Z" fill="black"/>
<path d="M20.0562 18.3645C21.2826 18.3645 22.2792 19.4038 22.2792 20.6809C22.2792 21.958 21.2826 22.9973 20.0562 22.9973C18.8298 22.9973 17.8331 21.958 17.8331 20.6809C17.8331 19.4038 18.8298 18.3645 20.0562 18.3645ZM20.0562 21.608C20.539 21.608 20.934 21.1939 20.934 20.6836C20.934 20.1733 20.5416 19.7592 20.0562 19.7592C19.5708 19.7592 19.1783 20.1733 19.1783 20.6836C19.1783 21.1939 19.5708 21.608 20.0562 21.608Z" fill="black"/>
<path d="M25.8964 18.3645C27.1228 18.3645 28.1194 19.4038 28.1194 20.6809C28.1194 21.958 27.1228 22.9973 25.8964 22.9973C24.67 22.9973 23.6734 21.958 23.6734 20.6809C23.6734 19.4038 24.67 18.3645 25.8964 18.3645ZM25.8964 21.608C26.3792 21.608 26.7742 21.1939 26.7742 20.6836C26.7742 20.1733 26.3818 19.7592 25.8964 19.7592C25.411 19.7592 25.0186 20.1733 25.0186 20.6836C25.0186 21.1939 25.411 21.608 25.8964 21.608Z" fill="black"/>
<path d="M0 15.3508C0 15.1584 0.0464745 14.8805 0.123932 14.616C0.345974 13.8439 0.808136 12.2275 1.03792 11.426C1.11022 11.1721 1.32968 10.6912 2.16621 10.5523C2.77037 10.4508 5.38583 10.3252 6.76456 10.2664C7.06923 10.2531 7.46168 10.4828 7.46168 11.0866V17.8542C7.46168 17.8542 7.46168 18.1 7.0021 18.1H6.21462C6.21462 18.1 4.74036 18.084 3.736 18.1828C3.736 18.1828 3.58367 18.1561 3.32548 18.3458C3.06729 18.5355 2.94852 18.6344 2.8375 18.7305C2.72648 18.8267 2.57415 18.971 2.47862 19.345C2.38309 19.7191 2.33403 19.8233 2.28756 20.0237C2.28756 20.0237 2.18686 20.4805 2.08359 20.9721H0.795225C0.379539 20.9721 0.232372 20.6996 0.206553 20.6088C0.178152 20.5179 0.030983 20.0531 0 19.134C0 19.1019 0 18.9469 0 18.9015C0 17.6458 0 16.0187 0 15.3534V15.3508ZM5.66984 14.5573C5.82217 14.5145 6.15265 14.4183 6.23011 14.3863C6.30757 14.3542 6.47539 14.3168 6.48056 13.8118C6.48572 13.3069 6.47023 12.134 6.44441 11.6664C6.44441 11.6664 6.44957 11.4099 6.20946 11.3752C5.96934 11.3405 5.73181 11.3485 5.66984 11.3485C5.56656 11.3485 5.54591 11.4714 5.54333 11.5489C5.54074 11.621 5.55624 13.7477 5.54333 14.4878C5.54333 14.4878 5.51751 14.6027 5.67242 14.5599L5.66984 14.5573ZM1.59819 14.7603L4.38148 14.6615C4.60868 14.5786 4.64741 14.4985 4.65774 14.2153V11.5782C4.65774 11.5782 4.68614 11.3511 4.46668 11.3431C4.24464 11.3351 3.31257 11.3431 2.21527 11.4714C2.09134 11.4874 2.01388 11.5542 1.9106 11.7519C1.9106 11.7519 1.47426 12.7672 1.24447 14.3943C1.24447 14.3943 1.15927 14.7683 1.59819 14.763V14.7603Z" fill="black"/>
<path d="M27.1151 18.3458H31.3984C31.5017 18.3458 31.5843 18.4313 31.5843 18.5382V19.9515C31.5843 20.0584 31.5017 20.1439 31.3984 20.1439H28.4112C28.2563 19.3664 27.7734 18.7118 27.1176 18.3458H27.1151Z" fill="black"/>
<path d="M21.2748 18.3458H24.6777C24.0219 18.7118 23.5391 19.3664 23.3842 20.1439H22.5709C22.416 19.3664 21.9332 18.7118 21.2774 18.3458H21.2748Z" fill="black"/>
<path d="M6.01065 18.3458H18.8375C18.1817 18.7118 17.6989 19.3664 17.544 20.1439H15.2074V20.7424C15.2074 20.9802 15.0189 21.1752 14.7891 21.1752H9.83185C9.60207 21.1752 9.41359 20.9802 9.41359 20.7424V20.1439H7.24221C7.0589 18.9095 6.01065 18.3458 6.01065 18.3458Z" fill="black"/>
<path d="M7.6863 17.9637V12.5134C7.6863 12.3397 7.82314 12.1981 7.99096 12.1981H8.10199C8.15362 12.1981 8.19493 12.2435 8.18977 12.2969C8.17686 12.4573 8.16911 12.6176 8.16911 12.7832V12.85C8.16911 14.2233 8.66226 15.4363 9.41359 16.1523V17.392H15.7108V16.9271C15.7108 16.8737 15.7547 16.8282 15.8064 16.8282H16.5422C16.5938 16.8282 16.6377 16.8737 16.6377 16.9271V17.392H23.4643V16.9271C23.4643 16.8737 23.5082 16.8282 23.5598 16.8282H24.2956C24.3473 16.8282 24.3912 16.8737 24.3912 16.9271V17.392H29.808V17.2584C29.808 17.2584 29.808 17.2397 29.8131 17.229L29.9861 16.6733C29.9939 16.6492 30.0119 16.6279 30.0326 16.6172C30.567 16.3553 31.0292 15.8744 31.3649 15.2492C31.4087 15.1637 31.5353 15.1985 31.5353 15.2947V17.3893H31.8709C31.9406 17.3893 32 17.4481 32 17.5229V17.9611C32 18.0332 31.9432 18.0947 31.8709 18.0947H7.81281C7.7431 18.0947 7.68372 18.0359 7.68372 17.9611L7.6863 17.9637Z" fill="black"/>
<path fill-rule="evenodd" clip-rule="evenodd" d="M10.9941 9C9.55086 9 8.36817 10.7019 8.36816 12.7832V12.8496C8.36816 14.9309 9.54828 16.6328 10.9941 16.6328H29.1133C30.3603 16.6328 31.4114 15.3616 31.6748 13.6758H31.8604V13.6787C31.9377 13.6787 31.9999 13.6142 32 13.5342V12.1016C31.9998 12.0216 31.9377 11.958 31.8604 11.958H31.6748C31.4115 10.2721 30.3603 9 29.1133 9H10.9941ZM20.5312 11.0811C20.7232 11.4339 20.9555 11.7643 21.1475 12.1172C21.3875 12.5527 21.6517 12.9811 21.8438 13.4316C22.1876 14.2275 21.9469 15.1061 21.291 15.6016C20.635 16.0968 19.5636 16.1342 18.8438 15.6914C18.1558 15.2634 17.7716 14.3101 18.1475 13.4316C18.2435 13.2289 18.3394 13.0185 18.4434 12.8232C18.9474 11.8772 19.6033 11.0136 19.9873 10C20.1793 10.3754 20.3473 10.7282 20.5312 11.0811Z" fill="black"/>
</svg>
