<svg xmlns="http://www.w3.org/2000/svg" viewBox="0 0 45 29.01"><defs><style>.cls-1{fill:#1a2026;}</style></defs><g id="Layer_2" data-name="Layer 2"><g id="Layer_1-2" data-name="Layer 1"><path class="cls-1" d="M6.18,23.3a20.65,20.65,0,0,1-2.63,1.46,12.12,12.12,0,0,1-2,.54h-.5s-.76-.22-.89-.08.81.16.81.16a12,12,0,0,0,1.27.17A6.07,6.07,0,0,0,5,24.71a16.77,16.77,0,0,1,1.52-.9c0,.05-.08.21-.42.57s-1.9,1.48-2.35,1.83-1.5,1-1.71,1.11-.48.21-.44.25A10.83,10.83,0,0,0,3,27.3c.39-.1,1.6-.88,1.9-1A6.71,6.71,0,0,0,6,25.5c.11-.11-.11-.32,0-.38s.24.26.28.18.59-.44.73-.59.06.1-.15.36S5.4,26.68,5.05,27.12a12.63,12.63,0,0,0-1.14,1.74C3.9,29,4,29,4,29l.34-.29s0-.11,0-.17.09.1.13.08a4.21,4.21,0,0,0,.57-.44c.32-.29,1.3-1.31,1.38-1.4s-.06-.43,0-.46.15.23.22.18,1-1,1.19-1.2a8.93,8.93,0,0,0,.66-.74c.08-.11.14,0,0,.38S8.1,26.12,8,26.28a6.48,6.48,0,0,1-.23.64c-.06.09-.55.87-.44.92s.77-.34,1-.47a1.86,1.86,0,0,0,.58-.51c.09-.15,0-.3,0-.37s.09.26.16.2l.47-.5s-.06.72,0,.77a1,1,0,0,0,.64-.19c.21-.13.72-.52.72-.52s.09.22.24.2a5.89,5.89,0,0,0,1.07-.68c.09-.07.07-.3.07-.3a.12.12,0,0,0,.21.05.52.52,0,0,0,.22.46,2.67,2.67,0,0,0,.82-.38,1.52,1.52,0,0,0,.27-.37.43.43,0,0,0,.28.13A3.47,3.47,0,0,0,15,25s0,.08.25.05a1.28,1.28,0,0,0,.6-.3.26.26,0,0,0,.07-.23s.3.15.45.09A2.29,2.29,0,0,0,17,24c.06-.1,0-.26.05-.26s.2.33.26.28,0-.19,0-.19.12.22.22.14.26-.33.24-.41a.39.39,0,0,0-.13-.24,1.1,1.1,0,0,1-.16-.31,2.52,2.52,0,0,0,.39.28,2.32,2.32,0,0,0,.65,0,3.27,3.27,0,0,0,.58-.35c.06,0,.13,0,.29-.05a2.58,2.58,0,0,1,.45-.26.8.8,0,0,0,.37-.08,2.11,2.11,0,0,0,.5-.41c0-.08,0-.26,0-.26s.29.28.39.25.23-.14.17-.17a.49.49,0,0,0,.46-.07,2.12,2.12,0,0,0,.32-.4s.38.09.56.11a1,1,0,0,0,.45,0,1.29,1.29,0,0,0,.27-.32,1.13,1.13,0,0,0,.55.12,1.16,1.16,0,0,0,.49-.1c.07-.06,0-.31,0-.31a3.38,3.38,0,0,0,.64.05,1.51,1.51,0,0,0,.56-.12s0-.13,0-.13a2.17,2.17,0,0,0,.7,0c.14-.08.12-.2,0-.33a1.3,1.3,0,0,1-.17-.29l.51-.12c.27-.07.51-.12.51-.17a2.77,2.77,0,0,0-.27-.4s.22.05.22,0-.24-.19-.24-.19.63.08.64,0-.28-.12-.28-.12.18-.07.18-.12-.25-.05-.25-.05.35-.14.31-.17-.65,0-.67,0,.51-.14.48-.18a.44.44,0,0,0-.2-.18c-.06,0,.36.29.36.29l.06-.09a2.65,2.65,0,0,1,.14.36c0,.15.08.37.25.42a2.62,2.62,0,0,1,.42.12c.05,0-.05-.12-.05-.12s.27.19.43.28.46.13.52.23a.86.86,0,0,0,.24.31,1.68,1.68,0,0,0,.43.23c.06,0,0-.08,0-.08a3.53,3.53,0,0,0,.58.16c.17,0,.39.06.53.1.27.2.57.44.73.59a8.63,8.63,0,0,1,.84,1.13c.13.14.33.49.4.55a1.1,1.1,0,0,0,.29.12,2.61,2.61,0,0,0,.32.28,1.08,1.08,0,0,0,.23.09.82.82,0,0,0,.16.12h.17a.63.63,0,0,0,.32.09.72.72,0,0,0,.65-.11c.1-.14.07-.16-.1-.08a.44.44,0,0,1-.28.05.33.33,0,0,0,0-.12.55.55,0,0,0-.13-.05.21.21,0,0,0-.12-.09,1.09,1.09,0,0,0-.29,0s-.05-.1-.05-.1a1.76,1.76,0,0,0-.2-.13.4.4,0,0,0-.13,0,.14.14,0,0,0-.08-.07.88.88,0,0,1-.18-.1l-.07-.14c0-.05-.2-.18-.25-.23s0-.06,0,0l.17.09a.34.34,0,0,0,.08.1.3.3,0,0,0,.12,0s.05.09.1.1l.26,0a.14.14,0,0,0,.16-.06c.23,0,.34-.08.36-.29s0-.19-.05-.11,0,.15-.27.19a.15.15,0,0,0-.09-.11c0-.23-.21-.46-.21-.46l-.07-.13a2.24,2.24,0,0,1-.22-.11,1.64,1.64,0,0,0-.24-.08,1.07,1.07,0,0,0-.26-.12,2,2,0,0,1-.38-.07s-.26,0-.31-.09a4.38,4.38,0,0,1-.42-.43,1.8,1.8,0,0,0-.19-.2l-.13-.29a3,3,0,0,0,.53.38.38.38,0,0,0,.19-.08,3.4,3.4,0,0,0,.54.49,2.43,2.43,0,0,0,.39,0L33.15,21s.33.23.41.2a.76.76,0,0,0,.27-.22,9.68,9.68,0,0,0-.47-.91s.74,1,.93,1l.12,0,0,.05c0,.05.1.08.12.1l.1.07a.88.88,0,0,0,.07.13.92.92,0,0,0,.14.11l.2.25a.33.33,0,0,0,.17.09l.06.19,0,.05a.12.12,0,0,0,.15,0c.09-.06,0-.28,0-.28a1,1,0,0,1,0-.11s0-.17,0-.17l.11.11.36.23a.36.36,0,0,0,.16,0l.22.19a.87.87,0,0,0,.17.11,2,2,0,0,1,.22.21s0,.14.09.09-.16-.38-.16-.38a.35.35,0,0,0,0-.13.86.86,0,0,0-.13-.2s-.32-.11-.32-.12a.64.64,0,0,0-.32-.27c.17,0,.21,0,.21,0a.41.41,0,0,0,.12-.07s0-.11,0-.08a.29.29,0,0,1-.1.05.81.81,0,0,0-.26-.15l-.28-.22a1.26,1.26,0,0,0-.26-.23.66.66,0,0,0-.25-.2l-.05,0L34.64,20s.78.72.83.73.07-.07.07-.07a1.7,1.7,0,0,0,.26.05c.06,0,.07-.12.07-.12l.18,0,.16-.15h.23l-.1-.27a.15.15,0,0,0,.14,0c.07-.05,0-.23,0-.23a.38.38,0,0,0,.17,0c.07,0,.07-.14.07-.14s.22.05.28,0,0-.17,0-.17.17,0,.2,0,0-.19,0-.19.1-.09,0-.16a2.92,2.92,0,0,0-.5-.57c-.12-.06,0-.15-.25-.28s-.78-.55-.78-.55l.49.15.34.09-.08-.1.36.1c.12,0,.37.1.29,0a.71.71,0,0,0,.41-.07.14.14,0,0,1-.06-.13.44.44,0,0,0,.31,0,.82.82,0,0,1-.09-.11c.19.07.24-.07.24-.07a.38.38,0,0,1-.08-.11s0-.19,0-.24a2.36,2.36,0,0,0-.58,0l.38-.07s.08-.12,0-.14a2.64,2.64,0,0,0-.48,0l.26-.07-.16-.12a2.53,2.53,0,0,0,.38,0c.06,0-.18-.15-.18-.15s.33-.05.4-.14a1.08,1.08,0,0,0,.2-.34c0-.1-.23-.45-.33-.52s-.75-.3-.75-.3.08,0,.1-.06-.56-.38-.56-.38a4.1,4.1,0,0,0,.63.19.54.54,0,0,0,.31-.08c0-.05-.06-.29-.06-.29s.2-.08.21-.15-.16-.15-.16-.15,0-.1-.17-.2a3.4,3.4,0,0,0-1.05-.14c-.39,0-1.65,0-2.81,0l.16-.09s0-.16,0-.16a.8.8,0,0,0,.33.06,2.26,2.26,0,0,0,.31-.15c0-.05-.07-.21-.07-.21s.38.1.49,0,.15-.29.2-.31-.2-.2-.2-.2a2.49,2.49,0,0,0,.62,0c.07,0-.13-.28-.13-.28a3.07,3.07,0,0,0,.68-.31.26.26,0,0,0,0-.28,1.55,1.55,0,0,0,.46-.21.33.33,0,0,0,.08-.37.82.82,0,0,0,.5-.15c0-.06,0-.27,0-.27s.56-.13.57-.23-.14-.29-.14-.29.46-.23.46-.31a.39.39,0,0,0-.1-.2s.34-.06.35-.11a.64.64,0,0,0-.05-.2s.16,0,.15-.08a.45.45,0,0,1,0-.12s.28,0,.26-.07-.56-.12-.56-.12.48-.06.47-.1a.28.28,0,0,0,0-.11,1.5,1.5,0,0,0,.35-.09s-.3-.16-.3-.16.12-.06.09-.09a5.68,5.68,0,0,1-.72-.05c0-.05.81,0,.83-.05s0-.15.06-.16a1.51,1.51,0,0,1,.28.05.58.58,0,0,0,.23,0s-.05-.13-.05-.13l.1-.16s0-.09,0-.09a1.56,1.56,0,0,0,.39,0s.05-.08.07-.1.14,0,.14,0a2.2,2.2,0,0,0-.28-.18s0,0,0,0V8.19l.57,0a.31.31,0,0,0,.17-.08s.27-.14.28-.21-.22-.24-.22-.24l.4-.14c.08,0,.19,0,.19,0s-.08-.09-.09-.1.46-.06.44-.13S41,7.18,41,7.18l.2-.12a.39.39,0,0,0,0-.13s.62-.12.74-.12.28,0,.28,0-.13-.13-.13-.13.59-.09.72-.13a4.31,4.31,0,0,0,.61-.19c.1-.06.21-.18,0-.16s-.93,0-1.11-.06-.89,0-.9,0A.94.94,0,0,1,42,5.83c.44-.08,1.06-.2,1.44-.25a6.25,6.25,0,0,0,1.1-.35c.18-.06.3-.15.27-.2a3.42,3.42,0,0,0-.9.08l-1.44.15c-.18,0-1,.11-1.19.11s-.82.07-.95.07-.08-.05,0-.07.62-.12,1-.24,1.19-.37,1.51-.45.79-.28,1-.33a1.54,1.54,0,0,0,.4-.14s-.3-.06-.26-.1.38,0,.43,0,.33-.13.42-.18.2-.11.2-.15,0-.12-.44,0-1.38.32-1.71.42a9.32,9.32,0,0,1-1.31.28c-.29,0-.72.18-.88.21L40,4.8a2.23,2.23,0,0,1-.52.06s.45-.11.62-.18,1.27-.62,1.55-.7A7.56,7.56,0,0,0,43,3.33a9.35,9.35,0,0,0,.82-.63c.07-.1.65-.61.7-.7s.18-.28,0-.18-.75.41-1.12.63-1.23.66-1.4.72-.93.41-1.22.5a11.35,11.35,0,0,0-1.1.47,9.48,9.48,0,0,1-1.17.41s.59-.26.83-.38,1.47-.8,1.76-.94a6.68,6.68,0,0,0,1.15-1l.87-1a1.16,1.16,0,0,0,.2-.53,2,2,0,0,1,0-.34c0-.08,0-.09-.14,0S41.78,1.78,41.51,2s-1,.72-1.17.8-1.22.74-1.51.86-1,.49-1.2.58-.29.06,0-.11,1.07-.61,1.28-.71a2.3,2.3,0,0,0,.39-.19c0-.05-.07-.08,0-.16s.43-.12.56-.26,1.22-.9,1.35-1.07,0-.11,0-.17.16-.07.23-.15.39-.57.49-.74.33-.6.26-.66S41.43.59,41,1.06a19.42,19.42,0,0,1-1.6,1.31c-.16.14-1.47,1-1.65,1.13s-.26.18-.3.16.23-.2.4-.31l1.5-1a3.3,3.3,0,0,0,.9-1c.09-.2,0-.34-.19-.07S39,1.8,38.7,2s-1.22.82-1.41,1-4.54,2.83-4.54,2.83A1.3,1.3,0,0,0,33,5.57c.07-.14.1-.32.07-.34a3.39,3.39,0,0,0-.58,0s.4-.43.39-.5-.14-.12-.14-.12.06-.13,0-.2a.4.4,0,0,0-.09-.13,5.87,5.87,0,0,0-.58.39s.08-.42.07-.45S32.07,4.06,32,4s-.16.16-.25.25l-.27.26s0-.09-.07,0-.66,1-.76,1.15a2.19,2.19,0,0,0-.27.68,2.06,2.06,0,0,1-.53,1,3.71,3.71,0,0,0-.73,1.18c-.11.27-1,1.4-1.22,1.73S26.69,11.74,26.48,12a1.88,1.88,0,0,1-.5.47.22.22,0,0,0,0-.08,1.66,1.66,0,0,0-.33.14,1.38,1.38,0,0,1,.24-.17,1.13,1.13,0,0,0,.2-.12,1.44,1.44,0,0,0-.42.08,4.41,4.41,0,0,1-.47.17l.08-.1a.47.47,0,0,0-.19,0,2.78,2.78,0,0,1,.32-.17,1,1,0,0,0-.32,0,.73.73,0,0,1,.28-.16.47.47,0,0,0-.45.09,1,1,0,0,1,.16-.28.88.88,0,0,0-.36.21,1.76,1.76,0,0,1-.2.22v-.16a.45.45,0,0,0-.2.22,1.33,1.33,0,0,1,0-.26s-.24.07-.28.27a1.36,1.36,0,0,1,0-.16.68.68,0,0,0-.21.37.78.78,0,0,0-.07-.18.65.65,0,0,0,0,.36l-.11-.19s-.15.16-.11.29a2.71,2.71,0,0,1-.13-.33.67.67,0,0,0,0,.57,1.52,1.52,0,0,1-.22-.26,1.42,1.42,0,0,0-.09.51,1.46,1.46,0,0,1-.5-.23.08.08,0,0,0,.07,0,.79.79,0,0,1-.36-.16L22,12.68l.07,0a.63.63,0,0,0-.19-.07s0-.08,0-.08a1.15,1.15,0,0,0-.19-.07c-.06,0,0-.08-.25-.22a2,2,0,0,0-.88-.48.11.11,0,0,0,0-.07,1.48,1.48,0,0,1-.34.06,1.49,1.49,0,0,0-.88.24c-.25.23-.46.47-.59.61s-.27.28-.24.44c-.26.25-.42.32-.43.44a1,1,0,0,0-.43.9c.07.33.44.76.5.72s0-.35,0-.35a.44.44,0,0,0,.2-.08l.3-.28a1,1,0,0,0,.34,0,1.12,1.12,0,0,1,.48-.17,5.25,5.25,0,0,1,.82-.1,3.51,3.51,0,0,0,.48,0,.2.2,0,0,0,.15,0,.18.18,0,0,0,.11.06l.13,0,.07.07h.13a1.1,1.1,0,0,0,.11.14l.24,0,.09.08s-.08.13-.19.1a.72.72,0,0,0,.25.15,1.24,1.24,0,0,0-.46,0c.05.1.22.13.22.13s-.1.18-.23.19c.11.12.42.06.42.06s-.16.13-.24.13a.85.85,0,0,0,.18.05s-1.26.52-2,.84-1.59.64-1.89.8-2.61.9-3.08,1.14a19,19,0,0,1-2.5.79c-.29,0-1.53.29-2.07.36s-1.56.27-1.75.31-.34.06-.32.14a3.41,3.41,0,0,0,.92,0c-.06,0-.41.19-.37.25a7.66,7.66,0,0,0,1.17,0s-.23.15-.17.19a5.64,5.64,0,0,0,.84,0,6.59,6.59,0,0,1-.85.52c-.36.17-.93.51-1.46.73s-1.11.48-1.48.59a12.22,12.22,0,0,1-1.62.32,14.31,14.31,0,0,1-1.73,0,2.91,2.91,0,0,1-1.31-.61c-.18-.2-.27-.09-.27-.09s-.4-.34-.49-.25.4.43,1.06.8a4.78,4.78,0,0,0,2,.45,9.34,9.34,0,0,0,2-.32c.18,0,.24,0,.15.09a10.8,10.8,0,0,1-1.79.79,15.46,15.46,0,0,1-2.43.6A8.14,8.14,0,0,1,0,23.68c-.16,0,.18.17.89.31a8.29,8.29,0,0,0,2.48,0,20,20,0,0,0,2.67-.85C6.29,23.05,6.36,23.1,6.18,23.3Zm27.41-1.07a.14.14,0,0,0,.16-.12.9.9,0,0,1,.21.3.24.24,0,0,0-.11,0,.14.14,0,0,0-.1-.09S33.59,22.23,33.59,22.23Zm-7-4.47h0S26.55,17.76,26.57,17.76Z"/></g></g></svg>