<?xml version="1.0" encoding="utf-8"?>
<!-- Generator: Adobe Illustrator 23.0.1, SVG Export Plug-In . SVG Version: 6.00 Build 0)  -->
<svg version="1.0" id="Layer_1" xmlns="http://www.w3.org/2000/svg" xmlns:xlink="http://www.w3.org/1999/xlink" x="0px" y="0px"
	 width="43.6px" height="32px" viewBox="0 0 43.6 32" enable-background="new 0 0 43.6 32" xml:space="preserve">
<title>subject-wildebeest-female</title>
<g>
	<g id="Layer_1-2">
		<path fill="#1A2026" d="M6.3,18.3c-0.1,1-0.2,2.1-0.5,3.1c0.1-0.6,0.1-1.1,0.1-1.7c0,0-0.6,3.4-1.2,4.1c0.3-0.6,0.4-1.3,0.4-2
			c-0.4,1.1-0.9,2.2-1.6,3.1c0.2-0.4,0.4-0.8,0.5-1.2c-0.9,1.5-2,2.9-3.1,4.3c0.7-0.9,1.4-1.8,1.9-2.8c-0.5,0.7-1,1.4-1.6,2
			c0,0,1-1.2,1-1.6C1.6,26.4,1,27.2,0.3,28c0.5-0.6,0.9-1.2,1.3-1.9c-0.4,0.6-0.9,1.2-1.4,1.7c0.3-0.4,0.5-0.7,0.7-1.1
			c0,0-0.5,0.7-0.7,0.7c0.4-0.5,0.7-1,0.9-1.5l-0.7,0.9c0.5-0.6,0.7-1.3,0.8-2c-0.3,0.8-0.7,1.5-1.2,2.1c0.4-0.6,0.7-1.4,0.9-2.1
			c0.2-1.1,0.8-1,1.1-2.2c0.4-1,0.9-2,1.4-3c-0.6,0.6-1,1.3-1.3,2.1c0.2-0.9,0.6-1.7,1.2-2.3c0.4-0.7,0.8-1.4,1.1-2.1
			c0.6-1.5,1.1-3,1.2-4.6c0.1-2.3,0.8-2.3,0.8-2.3s4-4,6-4.2c0.8-0.2,1.7,0,2.4,0.6c0.7,0.5,5.9,0.6,7.6,0S24.8,5,26,4.9
			s1.3-0.5,0.6-1H27l-0.6-0.8l0.8,0.7l-0.6-1l0.5,0.4l-0.2-0.8l0.3,0.5V2l0.3,0.8V2.7L27.8,2v0.6l0.3-0.7v0.2l0.3-0.2v0.2l0.3-0.3V2
			L29,1.8V2l0.2-0.2V2l0.3-0.3v0.2l0.3-0.2v0.2l0.3-0.2v0.2l0.3-0.2l0,0l0.4-0.2v0.3l0.4-0.3v0.2l0.2-0.2v0.2l0.3-0.3v0.3l0.2-0.3
			v0.3l0.3-0.3v0.3l0.3-0.3v0.3l0.4-0.3v0.3l0.3-0.4v0.2l0.3-0.2v0.3l0.2-0.3c0.2-0.5,0.4-0.9,0.7-1.3c0,0-0.3,1.4-0.3,1.6l0.2-0.2
			v0.2l0.3-0.2v0.3l0.3-0.2v0.2l0.3-0.2v0.3l0.4-0.2v0.2h0.3V2H36v0.6c0,0,1.6-1.4,2.8,0.7c0.2,0.5,0.5,1,0.8,1.4l0.3,0.4
			c0.6,0.6,1.6,1.4,2.1,0.7s0.5-2.7-1.2-4.9c0.9,0.8,1.7,1.7,2.2,2.8c0.7,1.7,0.7,3.1-0.7,3.7s-3.1-1.1-3.1-1.1S39.1,7.7,39,8
			l0.7-0.6l-0.8,0.9L39.5,8l-0.6,0.6l0.8-0.3L39,8.8h0.6L39,9h0.8l-0.7,0.2l0.7,0.2H39l1.2,0.5l-1.1-0.3l0.8,0.6L39,9.7l0.6,0.6
			L39.1,10c0,0.4,0,0.9,0.1,1.3c0.2,0.4,0.4,2-0.2,2.3c-0.4,0.2-0.8,0.4-1.3,0.4l-0.4,1v-0.9l-0.2,1v-0.8l-0.3,0.8v-0.8l-0.3,0.8
			v-0.8L36,15.4l0.2-1.2l-0.4,1v-0.5l-0.2,0.7l0,0c0-1-0.1-2-0.3-3c-0.8,0.7-1.5,1.5-2.2,2.3c-0.6,0.7-1,2.1-1.8,3.3
			c-0.5,0.7-0.7,1.5-0.6,2.3c0,0.5,0,1,0.1,1.5c0.3,0.6,0.7,2.5,0.2,3.3s0.5,3.7,1,4.3s1.3,0.8,1.7,1.8l-2.3,0.2c0,0,0-1.1-0.3-1.2
			s-0.8,0.5-0.9-0.5s-0.3-4.3-0.7-4.7c-0.4-0.9-0.6-1.8-0.7-2.8v-1.1l-0.2,1.2v0.1l-0.2-0.6v0.5l-0.2-0.6v0.2c0,0,0,0.4-0.1,0.4
			c0-0.2-0.1-0.3-0.1-0.5v0.5l-0.2-0.5v0.7l-0.4-0.8c0,0,0.2,2.3-0.5,3.1c-0.4,0.4-0.9,0.8-1.4,1.1c-1.1,1.2-2.1,2.6-3,4
			c0,0.7-0.2,1.4-0.4,2.1L19,30c0,0,1-0.7,1-1.1s-0.5-0.6,0-1c1.2-1,2.2-2.1,3.1-3.4c0.1-0.1,0.1-4.3,0.7-5.7s-3.5,0.7-5.8-0.1
			c-1,0-2-0.5-2.7-1.2c0,0-2.2,3.2-3.3,4.4c-0.2,0.6-0.1,1.2,0.1,1.7c0.5,0.8,2.8,5.2,2.7,5.8s1.4,1,1.6,1.9l-1.9,0.2
			c0,0-0.2-0.9-0.5-0.8s-0.8-0.2-0.6-1.2s-3.9-6.1-4.2-7.1c-0.3,0.6-0.4,1.3-0.5,2c0,0.6,0,5.2,0.5,5.8s1.2,0.8,1.4,1.5l-2,0.2
			c0,0,0-0.6-0.5-0.7S7.2,31.6,7.3,30c0.1-2.1,0-4.2-0.5-6.3c-0.4-0.6-0.4-1.4-0.1-2c0.5-0.7,2.9-3,0.6-7.8c0,0-1,5.1-0.6,5.9
			c-0.2-0.4-0.3-0.9-0.4-1.3L6.3,18.3z"/>
	</g>
</g>
</svg>
