<svg xmlns="http://www.w3.org/2000/svg" viewBox="0 0 31.3 36.84"><path d="M31.23,27.74l0-.59c0-.23,0-.46,0-.69a9.25,9.25,0,0,0,0-1.49,9.18,9.18,0,0,0-.9-2.46,5.58,5.58,0,0,1-.47-2,19.27,19.27,0,0,0-.71-2.79c-.14-.4-.13-1.11-.28-1.72a3.93,3.93,0,0,0-.66-1.34c-.18-.22-.63-.85-1.14-1.4a5.41,5.41,0,0,0-1.8-1.14c-.4-.15-1-.41-1.6-.69A7.36,7.36,0,0,0,21.35,11a18.08,18.08,0,0,1-1.86-.18,11.84,11.84,0,0,0-2-.11,3.1,3.1,0,0,1-1.34-.31,3,3,0,0,0-.94-.27,4.27,4.27,0,0,1-1.12-.26,4.87,4.87,0,0,0-1.58-.16,1.81,1.81,0,0,1-1.28-.66,2.85,2.85,0,0,0-.38-.31l-.15-.1a.67.67,0,0,1-.14-.09c-.11-.12-.17-.26-.29-.38a1.14,1.14,0,0,0-.39-.25.67.67,0,0,1-.2-.12c-.08-.07-.09-.18-.14-.27a.81.81,0,0,0-.21-.24c-.09-.08-.09-.15-.1-.27a2.41,2.41,0,0,1,0-.6.26.26,0,0,1,.05-.12c.06-.06.15,0,.22-.09A.83.83,0,0,0,9.7,6a.8.8,0,0,1,.13-.13c.16-.14.32-.26.47-.4a1.3,1.3,0,0,0,.49-1c0-.46.15-.46.38-.89a4.37,4.37,0,0,0-.34-2.36A1.55,1.55,0,0,0,9.45,0a2.89,2.89,0,0,0-2,1.14,7.1,7.1,0,0,0-.92,2,1.57,1.57,0,0,1-.27.68c-.11.07-.14,0-.3,0a.36.36,0,0,0-.36,0,.42.42,0,0,1-.43.06c-.24-.06-.39-.49-.55-1A5.52,5.52,0,0,0,3.41,1C3,.6,1.9-.07,1.09.31S.11,1.71,0,2.69.19,3.88.31,4a2,2,0,0,1,.28.56,1.38,1.38,0,0,0,.21.66c.24.52.58.59.76.74s.31.22.31.48.07.3,0,.49a2.19,2.19,0,0,0-.17.68,4.64,4.64,0,0,0,.12,2,4.73,4.73,0,0,0,1.89,2.19,4.88,4.88,0,0,1,1.47,2c0,.14.1.28.16.41s.11.2.17.3c.34.57.66,1.15,1,1.72a7.21,7.21,0,0,1,.6,1.61c.13.52.62,1.95.81,2.56a4.91,4.91,0,0,0,1,1.64.75.75,0,0,1,.29.71,11.17,11.17,0,0,0,0,1.5c.06.43.2,2.63.23,3.19s.21,2.89.26,3.41a5.78,5.78,0,0,1,0,1.73A19.64,19.64,0,0,1,9,34.6c-.21.48-.44.39-.84.48s-.42.08-.58.21A1.71,1.71,0,0,0,7.1,36c-.12.33-.22.43.29.52a12.63,12.63,0,0,0,2.71-.12c.39-.11.4-.84.5-1.4s.22-1.05.31-1.56.12-.6.26-.63.11.1.38-.07.15-.46,0-.92a10.31,10.31,0,0,1-.17-1.61c0-.51.12-2.07.11-2.61s.1-2.28.14-2.91a6.38,6.38,0,0,1,.52-1.63,1.13,1.13,0,0,0,0-.92,2.83,2.83,0,0,0-.35-.57c-.22-.24-.25-.58-.08-.49s.2-.13.52.09a3.31,3.31,0,0,1,1,1.32,16.27,16.27,0,0,1,.62,1.9A17.12,17.12,0,0,1,14,26.6c0,.43,0,2,0,2.8a7.77,7.77,0,0,0,.33,1.94,5.71,5.71,0,0,1,0,1.59c-.07.38-.26,1.34-.39,1.79a.74.74,0,0,1-.79.51c-.27,0-.31-.08-.58.05a3.75,3.75,0,0,0-.73.51.67.67,0,0,0,.06,1,9.67,9.67,0,0,0,2.86-.07c.63-.12.63-1.36.68-2a4.88,4.88,0,0,1,.34-1.59c.19-.38.38-.25.64-.46s-.05-1.11-.13-1.49-.1-1.45-.16-2.16a24,24,0,0,1-.05-2.4c0-.72,0-1.71.06-2s.12-.94.19-1.19.42-1.17.56-1.64a2.3,2.3,0,0,0,.06-.28.38.38,0,0,1,0-.15c0-.07.39,0,.47,0s.42,0,.63,0a4.61,4.61,0,0,1,.83,0,8.49,8.49,0,0,0,1,.16c0,.1.13.15.17.23a2.29,2.29,0,0,1,.08.28c.09.37.16.42.35,1.07a4.24,4.24,0,0,0,.8,1.32c.22.33.51.87.76,1.24s.81.78,1.08,1.12a9.57,9.57,0,0,1,1,1.55A4.87,4.87,0,0,1,24.45,30a7.1,7.1,0,0,1-.69,1.8,2.22,2.22,0,0,1-.88,1,8.17,8.17,0,0,0-.85.68,1,1,0,0,0-.31.83c0,.36.29.19.56.15a3.48,3.48,0,0,0,1.2,0,1.66,1.66,0,0,0,1.11-.7,1.15,1.15,0,0,0,.32-.75,5.43,5.43,0,0,1,.34-1.58,13.44,13.44,0,0,1,.95-2c.29-.38.29.19.29.62s0,1.55,0,1.89a11.79,11.79,0,0,1-.19,1.45,2.48,2.48,0,0,1-.56,1.11c-.1.21-.2.26-.13.41s.09.07.12.25,0,.15.25.22a6.75,6.75,0,0,0,1.41-.06c.31,0,.46,0,.53-.23a1.81,1.81,0,0,0,0-1c-.07-.59-.15-1.16-.2-2.1A6.42,6.42,0,0,1,28,29.64c.16-.52-.15-1.09-.37-1.92a16.32,16.32,0,0,1-.18-2.95c0-.26,0-.54,0-.64a1.51,1.51,0,0,1,.1-.42,4.56,4.56,0,0,0,.14-.64.58.58,0,0,0,.18.42,2.33,2.33,0,0,1,.2.34,1.76,1.76,0,0,1,.16.4.87.87,0,0,0,.25.38,2.29,2.29,0,0,1,.45.86,7.35,7.35,0,0,1,.38,1l.09.3a.8.8,0,0,0,.11.25s0,0,0,0,.15.11.2.15l0,0,.18.41s0,0,0,0h0c.14,0,.18.13.21.24a3,3,0,0,0,.18.5,1.13,1.13,0,0,0,.13.32s0,0,0,0,0,.05.06.09,0,.06.1.07a.09.09,0,0,0,.07,0,.34.34,0,0,0,.13-.16c.06-.12.1-.26.15-.39l.06-.15a2.36,2.36,0,0,0,0-.28S31.23,27.78,31.23,27.74Z"/></svg>