<svg xmlns="http://www.w3.org/2000/svg" viewBox="0 0 31.3 36.84"><path d="M.07,27.74a5.83,5.83,0,0,1,0-.59c0-.23,0-.46,0-.69A10.56,10.56,0,0,1,0,25,9.58,9.58,0,0,1,1,22.51a5.58,5.58,0,0,0,.47-2,18.23,18.23,0,0,1,.7-2.79c.14-.4.13-1.11.28-1.72a3.91,3.91,0,0,1,.67-1.34c.18-.22.62-.85,1.13-1.4A5.51,5.51,0,0,1,6,12.08c.41-.15,1-.41,1.6-.69A7.41,7.41,0,0,1,9.94,11a18,18,0,0,0,1.87-.18,11.65,11.65,0,0,1,2-.11,3.15,3.15,0,0,0,1.35-.31,2.89,2.89,0,0,1,.93-.27,4.18,4.18,0,0,0,1.12-.26,4.9,4.9,0,0,1,1.58-.16,1.83,1.83,0,0,0,1.29-.66,2.76,2.76,0,0,1,.37-.31l.16-.1a1.1,1.1,0,0,0,.14-.09c.1-.12.17-.26.28-.38a1.36,1.36,0,0,1,.39-.25.88.88,0,0,0,.21-.12c.07-.07.08-.18.14-.27A.81.81,0,0,1,22,7.29C22,7.21,22,7.14,22,7a2.41,2.41,0,0,0,0-.6A.2.2,0,0,0,22,6.3c-.06-.06-.15,0-.21-.09s-.11-.14-.16-.21a.86.86,0,0,0-.14-.13L21,5.47a1.31,1.31,0,0,1-.5-1c0-.46-.15-.46-.38-.89a4.39,4.39,0,0,1,.35-2.36A1.54,1.54,0,0,1,21.84,0a2.89,2.89,0,0,1,2,1.14,6.58,6.58,0,0,1,.92,2,1.66,1.66,0,0,0,.28.68c.1.07.14,0,.29,0a.38.38,0,0,1,.37,0,.4.4,0,0,0,.42.06c.24-.06.4-.49.56-1A5.49,5.49,0,0,1,27.88,1C28.34.6,29.4-.07,30.21.31s1,1.4,1.07,2.38S31.1,3.88,31,4a1.73,1.73,0,0,0-.28.56,1.64,1.64,0,0,1-.22.66c-.23.52-.58.59-.75.74s-.32.22-.32.48-.06.3,0,.49a1.75,1.75,0,0,1,.17.68,4.64,4.64,0,0,1-.11,2,4.79,4.79,0,0,1-1.89,2.19,4.91,4.91,0,0,0-1.48,2c-.05.14-.1.28-.16.41s-.1.2-.16.3c-.34.57-.67,1.15-1,1.72a7.21,7.21,0,0,0-.61,1.61c-.12.52-.62,1.95-.8,2.56a4.92,4.92,0,0,1-1,1.64.75.75,0,0,0-.29.71,9.63,9.63,0,0,1,0,1.5c-.07.43-.21,2.63-.23,3.19s-.22,2.89-.27,3.41a6.13,6.13,0,0,0,0,1.73c.11.38.47,1.44.68,1.92s.44.39.85.48.41.08.58.21a1.8,1.8,0,0,1,.49.74c.11.33.21.43-.29.52a12.63,12.63,0,0,1-2.71-.12c-.39-.11-.41-.84-.51-1.4s-.21-1.05-.3-1.56-.13-.6-.27-.63-.11.1-.37-.07-.15-.46,0-.92a9.22,9.22,0,0,0,.18-1.61c0-.51-.13-2.07-.12-2.61s-.1-2.28-.13-2.91a6.38,6.38,0,0,0-.52-1.63,1.14,1.14,0,0,1,0-.92,2.54,2.54,0,0,1,.36-.57c.21-.24.25-.58.07-.49s-.2-.13-.51.09a3.23,3.23,0,0,0-1,1.32,14.58,14.58,0,0,0-.62,1.9,15.56,15.56,0,0,0-.13,2.18c0,.43,0,2,0,2.8A7.34,7.34,0,0,1,17,31.34a6.09,6.09,0,0,0,0,1.59,17.67,17.67,0,0,0,.39,1.79.73.73,0,0,0,.78.51c.28,0,.32-.08.58.05a3.23,3.23,0,0,1,.73.51.66.66,0,0,1-.06,1,9.61,9.61,0,0,1-2.85-.07c-.63-.12-.63-1.36-.68-2a4.88,4.88,0,0,0-.34-1.59c-.19-.38-.38-.25-.65-.46s.05-1.11.13-1.49.1-1.45.16-2.16a21.31,21.31,0,0,0,.06-2.4c0-.72,0-1.71-.07-2A10.57,10.57,0,0,0,15,23.43c-.07-.25-.41-1.17-.55-1.64a1.27,1.27,0,0,1-.06-.28s0-.12,0-.15-.39,0-.46,0-.43,0-.64,0a4.5,4.5,0,0,0-.82,0,8.83,8.83,0,0,1-1,.16c0,.1-.13.15-.17.23a1.31,1.31,0,0,0-.09.28c-.09.37-.15.42-.34,1.07A4.23,4.23,0,0,1,10,24.35c-.21.33-.5.87-.75,1.24s-.81.78-1.09,1.12a10.29,10.29,0,0,0-1,1.55A4.87,4.87,0,0,0,6.84,30a8,8,0,0,0,.69,1.8,2.29,2.29,0,0,0,.89,1,8,8,0,0,1,.84.68,1,1,0,0,1,.32.83c0,.36-.29.19-.57.15a3.47,3.47,0,0,1-1.2,0,1.71,1.71,0,0,1-1.11-.7A1.09,1.09,0,0,1,6.39,33a6.18,6.18,0,0,0-.34-1.58,13.44,13.44,0,0,0-1-2c-.29-.38-.29.19-.29.62s.05,1.55.05,1.89a11.79,11.79,0,0,0,.19,1.45,2.39,2.39,0,0,0,.55,1.11c.11.21.21.26.13.41s-.09.07-.11.25,0,.15-.26.22A6.77,6.77,0,0,1,4,35.26c-.3,0-.45,0-.53-.23a2,2,0,0,1,0-1c.08-.59.16-1.16.21-2.1a6.65,6.65,0,0,0-.33-2.29c-.17-.52.15-1.09.36-1.92a15.61,15.61,0,0,0,.19-2.95c0-.26,0-.54,0-.64a2,2,0,0,0-.1-.42,4.58,4.58,0,0,1-.15-.64.58.58,0,0,1-.18.42,2.27,2.27,0,0,0-.19.34,1.16,1.16,0,0,0-.16.4.89.89,0,0,1-.26.38,2.44,2.44,0,0,0-.45.86c-.13.33-.28.67-.38,1,0,.1-.06.2-.09.3a.62.62,0,0,1-.11.25,0,0,0,0,0,0,0c-.08,0-.15.11-.2.15l0,0c-.06.14-.13.27-.19.41a0,0,0,0,1,0,0H1.24c-.13,0-.18.13-.21.24a3,3,0,0,1-.17.5.92.92,0,0,1-.14.32l0,0s0,.05-.07.09-.05.06-.09.07a.08.08,0,0,1-.07,0,.34.34,0,0,1-.13-.16,2.66,2.66,0,0,1-.16-.39.88.88,0,0,1-.05-.15,1.26,1.26,0,0,1,0-.28Z"/></svg>