<?xml version="1.0" encoding="utf-8"?>
<!-- Generator: Adobe Illustrator 23.0.1, SVG Export Plug-In . SVG Version: 6.00 Build 0)  -->
<svg version="1.0" id="Layer_1" xmlns="http://www.w3.org/2000/svg" xmlns:xlink="http://www.w3.org/1999/xlink" x="0px" y="0px"
	 width="43.6px" height="32px" viewBox="0 0 43.6 32" enable-background="new 0 0 43.6 32" xml:space="preserve">
<title>subject-wildebeest-male</title>
<g>
	<g id="Layer_1-2">
		<path fill="#1A2026" d="M37.3,18.3c0.1,1,0.2,2.1,0.5,3.1c-0.1-0.6-0.1-1.1-0.1-1.7c0,0,0.6,3.4,1.2,4.1c-0.3-0.6-0.4-1.3-0.4-2
			c0.4,1.1,0.9,2.2,1.6,3.1c0,0-0.6-0.9-0.5-1.2c0.9,1.5,1.9,3,3.1,4.3c0,0-1.9-2.3-1.9-2.8c0.4,0.7,1,1.4,1.6,2
			c-0.4-0.5-0.8-1-1.1-1.6c0,0,1.7,2.2,2,2.4c-0.5-0.6-0.9-1.2-1.3-1.9l1.3,1.7c-0.2-0.4-0.4-0.7-0.6-1.1c0,0,0.4,0.7,0.7,0.7
			s-0.9-1.1-0.9-1.5c0.2,0.3,0.4,0.6,0.7,0.9c-0.5-0.6-0.7-1.3-0.8-2c0.2,0.8,0.6,1.5,1.2,2.1c-0.4-0.6-0.7-1.4-0.9-2.1
			c-0.2-1.1-0.9-1-1.2-2.2s-1.2-2.5-1.3-3c0.5,0.6,0.9,1.3,1.2,2.1c-0.2-0.9-0.6-1.7-1.2-2.3c-0.4-0.7-0.7-1.4-1-2.1
			c-0.6-1.5-1.1-3-1.2-4.6c-0.1-2.3-0.8-2.3-0.8-2.3s-4-4-6-4.2c-0.9-0.2-1.8,0-2.5,0.6c-0.6,0.5-5.8,0.6-7.5,0S18.8,5,17.6,4.9
			s-1.4-0.5-0.6-1h-0.5l0.7-0.8l-0.8,0.7l0.5-1c0,0-0.5,0.5-0.5,0.4s0.3-0.8,0.3-0.8l-0.4,0.5V2l-0.2,0.8V2.7L15.8,2v0.6l-0.2-0.7
			v0.2l-0.4-0.2v0.2l-0.3-0.3V2l-0.3-0.2V2l-0.2-0.2V2L14,1.7v0.2l-0.4-0.2v0.2l-0.3-0.2v0.2L13,1.7l0,0l-0.3-0.2v0.3l-0.5-0.3v0.2
			L12,1.5v0.2l-0.3-0.3v0.3l-0.2-0.3v0.3l-0.3-0.3v0.3L11,1.5v0.3l-0.3-0.3v0.3l-0.4-0.4v0.2L10,1.4v0.3L9.8,1.4
			C9.6,0.9,9.4,0.5,9.2,0c0,0,0.3,1.4,0.3,1.6L9.3,1.4v0.2L9,1.4v0.3L8.6,1.5l0.2,0.2L8.4,1.5l0.2,0.3L8.2,1.6v0.2H7.9V2H7.6v0.6
			C6.9,1.9,5.8,2,5.2,2.6C5,2.8,4.9,3.1,4.8,3.3C4.6,3.8,4.3,4.3,4,4.7L3.6,5.1C3.1,5.7,2,6.5,1.6,5.8S1,2.9,2.7,0.7
			C1.8,1.5,1,2.4,0.5,3.5c-0.7,1.7-0.8,3.1,0.6,3.7s3.1-1.1,3.1-1.1C4.3,6.7,4.4,7.4,4.6,8L3.9,7.4l0.8,0.9L4.1,8l0.6,0.6L3.8,8.3
			l0.8,0.5H4l0.6,0.3H3.7l0.8,0.2L3.7,9.5h0.8L3.4,10l1.1-0.3l-0.9,0.6l0.9-0.4l-0.6,0.6l0.5-0.3c0.1,0.4,0,0.9-0.1,1.3
			c-0.1,0.4-0.4,2,0.3,2.3C5,14,5.4,14.2,5.8,14.2l0.4,1v-0.9l0.2,1v-0.8l0.4,0.8v-0.8l0.3,0.8v-0.8l0.4,1.1l-0.2-1.2l0.4,1v-0.5
			l0.2,0.7l0,0c0-1,0.1-2,0.3-3c0.8,0.7,1.6,1.4,2.2,2.3c0.6,0.7,1,2.1,1.8,3.3c0.5,0.7,0.7,1.5,0.7,2.3c0,0.5-0.1,1-0.2,1.5
			c-0.2,0.6-0.6,2.5-0.2,3.3s-0.4,3.7-0.9,4.3s-1.3,0.8-1.7,1.8l2.3,0.2c0,0,0-1.1,0.3-1.2s0.8,0.5,0.9-0.5s0.3-4.3,0.6-4.7
			c0.4-0.9,0.7-1.8,0.8-2.8v-1.3l0.2,1.2v-0.6l0.2,0.7l0.2-0.6v0.6l0.2-0.6v0.5l0.2-0.6v0.6l0.2-0.4v0.4c0-0.2,0.1-0.3,0.2-0.5v0.5
			l0.2-0.5v0.7l0.3-0.8c0,0-0.1,2.3,0.5,3.1c0.4,0.5,0.9,0.8,1.5,1.1c1.1,1.2,2.1,2.6,3,4c0,0.7,0.1,1.4,0.4,2.1l1.5-2
			c0,0-1-0.7-1-1.1c0.2-0.3,0.2-0.7-0.1-1c0,0,0,0,0,0c-1.1-1.1-2.2-2.2-3.1-3.4c0-0.1,0-4.3-0.7-5.7s3.6,0.7,5.9-0.1
			c1,0,1.9-0.5,2.6-1.2c0,0,2.3,3.2,3.4,4.4c0.2,0.6,0.1,1.2-0.2,1.7c-0.4,0.8-2.7,5.2-2.7,5.8c-0.7,0.5-1.2,1.1-1.5,1.9l1.9,0.2
			c0,0,0.2-0.9,0.5-0.8s0.8-0.2,0.6-1.2s3.8-6.1,4.1-7.1c0.3,0.6,0.5,1.3,0.6,2c-0.1,0.6,0,5.2-0.6,5.8c-0.2,0.5-0.3,1-0.3,1.5
			l1.9,0.2c0-0.4,0.3-0.6,0.6-0.7c0,0,0.9,0.4,0.7-1.2s0.2-5.9,0.5-6.3c0.5-0.6,0.5-1.4,0.2-2c-0.6-0.7-2.9-3-0.6-7.8
			c0,0,0.9,5.1,0.6,5.9l0.4-1.3L37.3,18.3z"/>
	</g>
</g>
</svg>
