<svg xmlns="http://www.w3.org/2000/svg" viewBox="0 0 40 38.6"><path d="M3.7,38.6S-2.1,31.2.9,24.3s8.5-9.9,14.2-11.9S25.7,8.9,30.7,6.1a40.8,40.8,0,0,0,4.4-2.8l2.1-1.6C37.8,1.3,38.4.5,39,.1s.8,0,.9.5a4.9,4.9,0,0,1,0,1.7A12.1,12.1,0,0,1,38.8,6,18.7,18.7,0,0,1,33,12.7a22.6,22.6,0,0,1-7.5,4.7,21.7,21.7,0,0,0,5.1-.8l2.5-1,1.6-.9h.4a.4.4,0,0,1,.1.3,7.7,7.7,0,0,1-.2,1.5l-.6,1.7c-2.5,5.4-9.6,7.2-15.1,7.8,0,.1-.1.1-.2.1h.3l1,.3a15.9,15.9,0,0,0,3.8.2,15.4,15.4,0,0,1,3-.4h.2c.1.1.1.1.1.2a6.3,6.3,0,0,1-2.1,4,8.1,8.1,0,0,1-4.2,1.9,54,54,0,0,1-5.8,1,35.7,35.7,0,0,0-5.5,1.1,13.8,13.8,0,0,0-6.1,4Z"/></svg>
