<svg xmlns="http://www.w3.org/2000/svg" viewBox="0 0 46.34 24.3"><path d="M40.9,20.74c-2.82-2.23-3-7-3-7a20.92,20.92,0,0,0-2.18-7.12l-1.5-2.95C31.91.09,26.37.18,26.37.18c-6.26-1-9.61,2.57-9.61,2.57L13,5.65l-1.24.94-1.09.88c1.15-2.42-.57-5.11-.57-5.11L10,1.08c0-.93-.57-.24-.57-.24L9,1.54A6.26,6.26,0,0,0,8.74,5.8L9,7.05l-.12.33c-.19.15-.64-.61-.64-.61L7.59,5.41,7,4.17a3.94,3.94,0,0,0-1.27-2L5.14,1.6c-.72-.88-.75.27-.75.27A4.66,4.66,0,0,0,5.63,5.62,5.09,5.09,0,0,0,7.17,7.35l.24.51.15.7-1,.76-1.34,1a8.69,8.69,0,0,0-1.54,2.17l-.91,1-1,.61C-.36,13.74,0,15.46,0,15.46a1,1,0,0,0,.94,1,1.2,1.2,0,0,0,1.75.24l1.52-.91A8.34,8.34,0,0,0,6.29,15l1.94-.42a4.72,4.72,0,0,0,1.45-.39c3.15-.7,5.48,1.9,5.48,1.9l.73,3.61a1.78,1.78,0,0,1-1,1.87c-2.21,1-1.61,1-1.61,1-.75.88.12.62.12.62-.22.45,1.14-.09,1.14-.09.18.27,1.18-.27,1.18-.27-.54.86.77.68.77.68-.27.72,1.09,0,1.09,0,.05.23.91.14.91.14-.5.91.68-.23.68-.23.91,0,1.91-2.45,1.91-2.45l1.31-2.77a5,5,0,0,1,4.68-1.36l1.41.86v.64l-1.05,1A3,3,0,0,0,26,21.74C26,22.83,26.6,23,26.6,23c.68.55.63-.31.63-.31,1,.36.46-.82.46-.82.68.23.59-.77.59-.77l.27-.5,1.68-1.82c.18.5,1.45.64,1.45.64l.5.32a2.56,2.56,0,0,1-.63,2.72c-2.27.77-1.32,1.22-1.32,1.22-.23.64,1.18.28,1.18.28.32.86,1.13,0,1.13,0l.73-1.09c.46,1.54.77-.22.77-.22a3.11,3.11,0,0,0,.23-1.69l.54-2.54c.23-.82-.27-1.09-.27-1.09L34.72,15c.32-.41.87,1.13.87,1.13a15.44,15.44,0,0,0,4.81,5.54,6.2,6.2,0,0,0,5.94.32A6.55,6.55,0,0,1,40.9,20.74ZM17.43,22.06l.77-2.59S18.88,21.87,17.43,22.06Z"/></svg>