<svg xmlns="http://www.w3.org/2000/svg" width="26" height="21.7" viewBox="0 0 26 21.7">
  <title>Abandoned Camps</title>
  <g id="Layer_2" data-name="Layer 2">
    <g id="Layer_1-2" data-name="Layer 1">
      <g>
        <path d="M19.7,16.5h0a1.7,1.7,0,0,0-1.3-1.5h-.6l-4.7,1.3-3.4-.9L6.4,17.3a1.3,1.3,0,0,0,.5.7c0,.1,0,.1-.1.1s-.7,2-.2,2.8a1.4,1.4,0,0,0,1.1.8h.5l5-1.6,4.6,1.5a1.3,1.3,0,0,0,1.6-.7,2.8,2.8,0,0,0-.2-2.8A1.6,1.6,0,0,0,19.7,16.5ZM8,20.8H8a.5.5,0,0,1-.7-.3,2.1,2.1,0,0,1-.1-1.7,1.1,1.1,0,0,1,1.5,1.1C8.8,20.8,8.2,20.8,8,20.8Zm10.7-.4a.5.5,0,0,1-.7.3h0a1.4,1.4,0,0,1-.9-1.4c0-.3.3-1,.9-.8l.7.2C19,18.9,19,19.8,18.7,20.4Z" fill="#1a2026"/>
        <path d="M16.9,6.7l-1-1.1h-.1l-.9-1A7,7,0,0,1,14,.4a.4.4,0,0,0-.4-.4h-.1c-.1,0-2.1.7-2.1,4.8a2.5,2.5,0,0,0-1-.8.4.4,0,0,0-.5.2h0A4.8,4.8,0,0,1,8.8,7.6a5.2,5.2,0,0,0-.9,2.9,2.7,2.7,0,0,0,.2,1.3Z" fill="#1a2026"/>
        <path d="M13.9,15.2h0a4.7,4.7,0,0,0,4-3.1,4.4,4.4,0,0,0,.2-1.6l-7.4,4.3a5.4,5.4,0,0,0,2.2.5Z" fill="#1a2026"/>
        <rect x="-1.5" y="10.3" width="28.9" height="1.89" transform="translate(-3.9 8) rotate(-30)" fill="#1a2026"/>
      </g>
    </g>
  </g>
</svg>
