<svg xmlns="http://www.w3.org/2000/svg" viewBox="0 0 33.76 24.6"><defs><style>.cls-1{fill:#1a2026;}</style></defs><title>Accident</title><g id="Layer_2" data-name="Layer 2"><g id="Layer_1-2" data-name="Layer 1"><polygon class="cls-1" points="16.57 9.63 15.43 10.04 9.76 4.78 17.57 5.44 18.25 0 22.61 3.74 26.6 1.46 28.19 7.22 33.76 10.21 28.36 11.76 31.54 18.38 25.3 15.12 23.98 22.66 20.56 16.82 21.64 15.96 23.24 17.32 24.26 13.23 27.3 14.03 26.56 11.02 29.12 9.84 25.96 8.52 25.35 4.28 22.07 5.38 19.97 4.07 19.22 7.11 15.64 7.13 16.57 9.63"/><path class="cls-1" d="M17.49,13.62a16,16,0,0,0-6.67-2.57c-.36-.3-4.49-3.84-4.95-4.19-1.28-1-1-1.13-3-1.13,0,0-1.16,0-2.89,0V22.18a27.59,27.59,0,0,0,4.55.32,16.38,16.38,0,0,0,1.91-.11,4.79,4.79,0,0,0,8.42-.66,11.44,11.44,0,0,0,2.07-.6S17.89,16,17.49,13.62ZM6.66,12H2.23V8.44H4a.92.92,0,0,1,.73.31c.34.33,1.89,1.69,2.64,2.38Zm3.83,10.22a2.39,2.39,0,1,1,2.39-2.38A2.39,2.39,0,0,1,10.49,22.18Z"/></g></g></svg>