<svg xmlns="http://www.w3.org/2000/svg" width="18.7" height="30" viewBox="0 0 18.7 30">
  <title>Acoustic Sensor</title>
  <g id="Layer_2" data-name="Layer 2">
    <g id="Layer_1-2" data-name="Layer 1">
      <g>
        <path d="M9.3,0h0a5.2,5.2,0,0,1,5.3,5.2V16a5.2,5.2,0,0,1-5.3,5.2h0A5.2,5.2,0,0,1,4.1,16V5.2A5.2,5.2,0,0,1,9.3,0Z" fill="#1a2026"/>
        <path d="M18.5,11H16.7c-.1,0-.1.1-.1.2v4.6A7.3,7.3,0,0,1,9.3,23a7.2,7.2,0,0,1-7.2-7.2V11.2L1.9,11H.2l-.2.2v4.6a9.7,9.7,0,0,0,2.4,6.3,9.6,9.6,0,0,0,5.9,3v2.8H2.9c-.1,0-.1.1-.1.2v1.7c0,.1,0,.2.1.2H15.7a.2.2,0,0,0,.2-.2V28.1a.2.2,0,0,0-.2-.2H10.4V25.1a9.4,9.4,0,0,0,5.8-3,9.3,9.3,0,0,0,2.5-6.3V11.2a.2.2,0,0,0-.2-.2Z" fill="#1a2026"/>
      </g>
    </g>
  </g>
</svg>
