<svg xmlns="http://www.w3.org/2000/svg" width="28.9" height="31" viewBox="0 0 28.9 31">
  <title>AK 47</title>
  <g id="Layer_2" data-name="Layer 2">
    <g id="Layer_1-2" data-name="Layer 1">
      <path d="M27.5,1.4,27,2l-.2-.3V1.1l.3-.2ZM23.1,5.3c.1,0,.1.2,0,.2h0L21.7,6.8c-.1.1-.2.1-.2,0h-.1a.2.2,0,0,1,0-.3h0l1.4-1.2a.2.2,0,0,1,.3,0h0ZM12.7,18.2c.2.1.2.4.1.6h-.1L11.4,20c-.1.1-.2.2-.4,0l-.5-.7.3-.4s.6.6,1,.2a.6.6,0,0,1-.6-.5v-.2l.9-.8Zm15.1-17L26.7.1c-.1-.1-.3-.2-.4,0h0c-.2.1-.2.3-.1.5h0l.3.3v1l.3.2L24.6,4c-.3.4-.6.4-1.2.1s-.6.1-1,.5L20.2,6.5h-.5L16,9.8l-.3.2-.2.2h-.6l-.2.2-1,1c-.1,0-.1.1-.1.2h0l.3.3L7.5,17.7h0l-.3.2c-.1.2-.3.4-.3.6v1.6L5.2,22.2c-.2-.2-.5-.2-.6,0H4.5L.2,27.1s-.4.5-.1.8l2.6,3s.5.5,1.1-.7,4.1-8.5,4.1-8.5l.5-.4s.5-.1.7,1.1l.4,2.1s.1,1.1,1.2.1l.7-.6c.2-.1.2-.3.2-.6s-.7-3-.7-3a.5.5,0,0,0,.7,0h0L13.2,19a.8.8,0,0,0,.1-.7l.5-.4s3.7,2.7,7.9,1.8c.1-.1.2-.1.2-.2l-.3-2.7a.1.1,0,0,0-.1-.1h0a7.6,7.6,0,0,1-6.6-1.8l1.6-1.4a1.1,1.1,0,0,0,.8-.2c.2-.1.6-1.2.6-1.2l3.8-3.4a.4.4,0,0,0,0-.5h0l-.3-.3,7.5-6.7L28.4.6Z" fill="#1a2026"/>
    </g>
  </g>
</svg>
