<svg xmlns="http://www.w3.org/2000/svg" viewBox="0 0 20 24.69"><defs><style>.cls-1{fill:#1a2026;}</style></defs><title>All Posts</title><g id="Layer_2" data-name="Layer 2"><g id="Layer_1-2" data-name="Layer 1"><path class="cls-1" d="M18.45,18.47l-1.92-1.92.94-.94a.51.51,0,0,1,.72,0l1.2,1.2a.52.52,0,0,1,0,.73ZM16,17.09,17.91,19l-5.67,5.67H10.31V22.77ZM3.21,12.73l11-.15,0-1.5-11,.15Zm0-6.08h6V5.15h-6Zm0,12h6v-1.5h-6Zm-1.85,4.7v-22H13.49V7.27a.69.69,0,0,0,.67.68h4.49v7.1H20V7.27a.7.7,0,0,0-.13-.4l-5-6.6A.65.65,0,0,0,14.3,0H.67A.68.68,0,0,0,0,.67V24a.59.59,0,0,0,.18.49.91.91,0,0,0,.49.18H9V23.35Zm13.49-21,3.09,4.18H14.84Z"/></g></g></svg>