<svg xmlns="http://www.w3.org/2000/svg" viewBox="0 0 16.88 22.6"><defs><style>.cls-1{fill:#1a2026;}</style></defs><title>Animal Control</title><g id="Layer_2" data-name="Layer 2"><g id="Layer_1-2" data-name="Layer 1"><path class="cls-1" d="M15.55,3.84C12.3.24,6.71.06,5.62.06h-.2A13.61,13.61,0,0,0,1.33.67L1.12.3A.6.6,0,0,0,.6,0,.61.61,0,0,0,.3.08.6.6,0,0,0,.08.9l5.4,9.35a.46.46,0,0,0-.15.26.59.59,0,0,0,.06.45L12,22.3a.6.6,0,0,0,.52.3.64.64,0,0,0,.3-.08l.8-.46a.67.67,0,0,0,.28-.36.62.62,0,0,0-.06-.46L7.22,9.9a.61.61,0,0,0-.52-.3.65.65,0,0,0-.19,0L5.69,8.23H6c1.1.08,2.09.74,3.33,2.2a4.09,4.09,0,0,0,3.09,1.29,4.34,4.34,0,0,0,1.91-.51,4.23,4.23,0,0,0,2.44-2.86A5.43,5.43,0,0,0,15.55,3.84Zm-2-.17a7.41,7.41,0,0,1,1.1,1.07,5.6,5.6,0,0,1,.43.65A6.28,6.28,0,0,0,12.7,6.62,7.09,7.09,0,0,0,11.29,5a5.16,5.16,0,0,1,2.24-1.35Zm-1-.68a6,6,0,0,0-2.1,1.48,10.21,10.21,0,0,0-2.37-1A8.44,8.44,0,0,1,9.56,1.69,12.69,12.69,0,0,1,12.57,3ZM6,1a17.83,17.83,0,0,1,2.41.36A9.68,9.68,0,0,0,7.09,3.19a18.82,18.82,0,0,0-2.22-.32A3.87,3.87,0,0,1,6,1ZM3.56,5,2.84,3.79h.81A10.89,10.89,0,0,0,3.56,5ZM2.79,2.79H2.27l-.7-1.2A12.16,12.16,0,0,1,4.66,1a5.61,5.61,0,0,0-.81,1.78C3.48,2.79,3.13,2.79,2.79,2.79Zm3,4.49H5.75a6.48,6.48,0,0,0-.85.08l-.31-.54a14.14,14.14,0,0,1,0-3,19.7,19.7,0,0,1,2,.27A8.21,8.21,0,0,0,5.83,7.28Zm2.49.83a5.72,5.72,0,0,0-1.5-.69A7.26,7.26,0,0,1,7.6,4.36a9.54,9.54,0,0,1,2.22.91A15.14,15.14,0,0,0,8.32,8.11Zm1.82,1.61a8,8,0,0,0-1-1,15.56,15.56,0,0,1,1.49-2.9A6.15,6.15,0,0,1,11.94,7.3a8,8,0,0,0-1.69,2.54Zm2.27,1.07h-.24a2.2,2.2,0,0,1-1.1-.3,6.37,6.37,0,0,1,1.37-2.28,21.75,21.75,0,0,1,.92,2.38A5,5,0,0,1,12.41,10.79Zm3.11-2.71a2.88,2.88,0,0,1-1.25,2.11A18.38,18.38,0,0,0,13.2,7.5a5.46,5.46,0,0,1,2.26-1.17A4.37,4.37,0,0,1,15.52,8.08Z"/></g></g></svg>