<svg xmlns="http://www.w3.org/2000/svg" width="35.1" height="27.6" viewBox="0 0 35.1 27.6">
  <title>Animal Fence Break</title>
  <g id="Layer_2" data-name="Layer 2">
    <g id="Layer_1-2" data-name="Layer 1">
      <g>
        <g>
          <path d="M2.2,24.6H6.1l1.5-2.2H2.2V19.7H8L5.8,17.5H2.2v-.4c0-.2-.1-.4-.2-.4H.2c-.1,0-.2.2-.2.4V27.2c0,.2.1.4.2.4H2c.1,0,.2-.2.2-.4Z" fill="#1a2026" fill-rule="evenodd"/>
          <path d="M33.2,16.7H31.4c-.1,0-.2.2-.2.4v.4H17.6v-.4c0-.2-.1-.4-.2-.4H15.6c-.1,0-.2.2-.2.4v.4H8.9l2.2,2.2h4.3v2.7H10.3L8.9,24.6h6.5v2.6c0,.2.1.4.2.4h1.8c.1,0,.2-.2.2-.4V24.6H31.2v2.6c0,.2.1.4.2.4h1.8c.1,0,.2-.2.2-.4V17.1C33.4,16.9,33.3,16.7,33.2,16.7Zm-2,5.7H17.6V19.7H31.2Z" fill="#1a2026" fill-rule="evenodd"/>
        </g>
        <path d="M26,.3l2.3.2s1.6-.3,2,0A4,4,0,0,1,31.7,2a4.2,4.2,0,0,1,.9,1.4,26,26,0,0,1,1,2.5l.2.6h1.3s0,.2-.7.4h.7a2.5,2.5,0,0,1-1.1.4s.1,2.8-2.1,3.7c0,0-2,.3-1.8-1.6,0,0,.3-1,1.1-.5s-.3.2-.1.3-.5.6,0,.7.9.4,1.1-1.3a3.1,3.1,0,0,0-.6-2.3h-.4l-.3.3c-.2,0-.4-.1-.4-.3L30,6.1s-1-.1-1.2-.4.1.9-.3,1.2-1.2-.2-1.4-.5a18.5,18.5,0,0,0,.4,2.3l.6,1.9a8.4,8.4,0,0,0,.5,1.7,5.7,5.7,0,0,1,.3,1.8s.2,1,.6,1.2.8.4.4.7-2.8.6-2.5-.2a2.1,2.1,0,0,0,.3-1.1,18,18,0,0,0-1.2-2.5,12.8,12.8,0,0,1-1.6-2.1L24,12.4a14.6,14.6,0,0,1-.7,1.9s-.3.8.1,1,.9.6.6.9-2.7.5-2.7-.1a.8.8,0,0,1,.3-.7,2.5,2.5,0,0,0,.2-1.2c0-.6.1-1.2.1-1.8a20.7,20.7,0,0,0,.3-2.6s-.1-.7-.2-.7a5.2,5.2,0,0,1-2.4.7s-1.2.1-1.2.3l-.7.7s-.6,1-.5,1.4-.2,2.1.2,2.4,1,.7.8,1.3-2.4.4-2.8-.1a8.3,8.3,0,0,1,.2-2s.2-2.4-.2-2.8-1.1.9-1.2,1.4a10.4,10.4,0,0,0-.8,2.5s.3.8-.1,1.1-1.8.2-1.7-.8a4.9,4.9,0,0,1,.4-1.1,8.2,8.2,0,0,0,1-2.6V10.2l-.3,1.4s-.1,1.6-.8,2,.3-1.2.4-1.9a10.1,10.1,0,0,0,.5-2.5,13.6,13.6,0,0,0,.3-2.9,6.2,6.2,0,0,1,1-2.2,15.3,15.3,0,0,1,2.3-2.5A6.1,6.1,0,0,1,20.5.8s3,.1,3.5-.4A1.7,1.7,0,0,1,26,.3Z" fill="#1a2026"/>
      </g>
    </g>
  </g>
</svg>
