<svg xmlns="http://www.w3.org/2000/svg" width="30.4" height="31.2" viewBox="0 0 30.4 31.2">
  <title>SMART - Arrest</title>
  <g id="Layer_2" data-name="Layer 2">
    <g id="Layer_1-2" data-name="Layer 1">
      <g>
        <path d="M29.3,2.5a10.2,10.2,0,0,0,0,2.5,11.1,11.1,0,0,1-.6,3.4,6.4,6.4,0,0,1-1.8,2.7,6.9,6.9,0,0,1-1.7,1.3l-.7.3h0l-.6-.3-1.4-.8a7.3,7.3,0,0,1-2.9-4.3,19,19,0,0,1-.2-3,6,6,0,0,1,0-1.9h1.5a8.5,8.5,0,0,0,3.6-1.2h0a7.7,7.7,0,0,0,3.6,1.2Zm-.4-1.1A10.3,10.3,0,0,1,24.5,0h0a10.3,10.3,0,0,1-4.4,1.4,3.3,3.3,0,0,1-1.4,0h-.5V3.7a24.5,24.5,0,0,0,.3,3.7A9.8,9.8,0,0,0,22,12.7l1.7,1,.8.3h0l.9-.4a10.6,10.6,0,0,0,2.2-1.5,8.4,8.4,0,0,0,2.2-3.4,10.7,10.7,0,0,0,.6-4.2V1.4A3.8,3.8,0,0,1,28.9,1.4Z" fill="#1a2026" fill-rule="evenodd"/>
        <path d="M22.5,26.1a4.9,4.9,0,0,0-2.8-4.6V19.6a.7.7,0,0,0-.8-.7H17.6V17.7l.5-.3a1.9,1.9,0,0,0,.2-.7l-.2-.9a.9.9,0,0,0-1.1-.7l-.4.2-1-.6h0a.8.8,0,0,0,0-.7c-.1-.3-.3-.4-.6-.5l-.8-.2A1.1,1.1,0,0,0,13,14h0l-.8.2a1,1,0,0,0-1.3-.5l-.8.3a1.1,1.1,0,0,0-.4,1.3L9,16l-1-.7a.7.7,0,0,0-1.1.2L5.9,17a5.2,5.2,0,0,0-5,2.1,5.3,5.3,0,0,0,1,7l.6-.9a4,4,0,0,1-.7-5.5,4.1,4.1,0,0,1,5.7-1,4.2,4.2,0,0,1,1.1,5.8,4.1,4.1,0,0,1-5.5,1.1l-.6.9a5.2,5.2,0,0,0,6.9-1.4,5.1,5.1,0,0,0,.3-5.4l1.1-1.5a.9.9,0,0,0-.2-1.1l-1.1-.8.5-.5.6.2H11l.7-.3a1,1,0,0,0,.5-.8h.9l.6.4.8.2h.2l.7-.2.8.5V17a1.2,1.2,0,0,0,.7.7v1.2H15.7a.7.7,0,0,0-.7.7v1.9a4.9,4.9,0,0,0-2.8,4.6,5.1,5.1,0,0,0,4.7,5.1v-1a4.1,4.1,0,0,1-3.7-4.1,4.2,4.2,0,1,1,4.4,4.1v1A5.1,5.1,0,0,0,22.5,26.1ZM8.7,17.8a.4.4,0,0,1-.6.1.4.4,0,0,1-.1-.6c.1-.2.2-.2.4-.2l.4-.6.3.3-.4.6A.3.3,0,0,1,8.7,17.8Zm2.8-2.7-.7.4h-.4v-.2a.2.2,0,0,0,0-.3h-.4c.1-.1.1-.3.2-.3l.8-.4h.2l.3.2h-.1c-.2,0-.3.1-.2.3a.2.2,0,0,0,.2.2h.2Zm3.6-.8h-.4c-.1.2,0,.3.1.4h-.2l-.8-.2h.1a.5.5,0,0,0,.2-.4l-.3-.2h-.2a.4.4,0,0,1,.4-.4h0l.9.2.2.2c.1.1,0,.1.1.2Zm1.7,2.6V16h.1c0,.1,0,.1.1.1h.2c.1-.2.1-.3-.1-.4h.2a.4.4,0,0,1,.4.4l.2.8c0,.2,0,.3-.1.4h-.1v-.2l-.3-.2c-.2,0-.3.1-.3.2v.3C16.9,17.1,16.8,17,16.8,16.9Zm.5,4.1a.5.5,0,0,1-.4-.5.5.5,0,0,1,.2-.4v-.7h.4v.7c.2.1.3.2.3.4A.5.5,0,0,1,17.3,21Z" fill="#1a2026"/>
      </g>
    </g>
  </g>
</svg>
