<svg xmlns="http://www.w3.org/2000/svg" viewBox="0 0 32 25.5"><defs><style>.cls-1{fill:#1a2026;}</style></defs><title>Arrest</title><g id="Layer_2" data-name="Layer 2"><g id="Layer_1-2" data-name="Layer 1"><path class="cls-1" d="M32,18.19a7.32,7.32,0,0,0-4-6.51V9.05A1.07,1.07,0,0,0,26.93,8H25V6.31a1.44,1.44,0,0,0,.74-.46,1.27,1.27,0,0,0,.26-1l-.19-1.22a1.34,1.34,0,0,0-1.59-1.06,1.49,1.49,0,0,0-.64.29l-1.3-.81V2a1.46,1.46,0,0,0-.11-1,1.24,1.24,0,0,0-.79-.65L20.15,0a1.37,1.37,0,0,0-1.62,1,1.49,1.49,0,0,0,0,.21l-1.23.19a1.39,1.39,0,0,0-1.76-.7l-1.12.52A1.34,1.34,0,0,0,13.78,3l-.93,1L11.33,2.89a1.06,1.06,0,0,0-1.48.26L8.34,5.31A7.3,7.3,0,0,0,2.69,18.2L3.52,17a5.89,5.89,0,1,1,.82.59L3.51,18.8a7.31,7.31,0,0,0,10.3-9.66L15.32,7a1.08,1.08,0,0,0-.26-1.49L13.47,4.38l.75-.78a1.31,1.31,0,0,0,.84.32,1.26,1.26,0,0,0,.51-.11l1.12-.52a1.3,1.3,0,0,0,.71-1.06L18.63,2a.35.35,0,0,0,0,.11,1.26,1.26,0,0,0,.76.6l1.2.32a1.65,1.65,0,0,0,.31,0,1.3,1.3,0,0,0,.89-.37l1.24.78a1.11,1.11,0,0,0-.06.57l.19,1.22a1.29,1.29,0,0,0,1,1V8H22.37a1.07,1.07,0,0,0-1.06,1.07v2.63a7.31,7.31,0,0,0,2.76,13.81V24a5.92,5.92,0,1,1,1,0V25.5A7.32,7.32,0,0,0,32,18.19ZM12.38,6.48a.64.64,0,0,1-.9.16.65.65,0,0,1-.16-.9.62.62,0,0,1,.61-.22l.59-.86L13,5l-.6.85A.61.61,0,0,1,12.38,6.48Zm4-3.83-1.12.52a.59.59,0,0,1-.57-.08L15,2.83a.37.37,0,0,0,0-.52.36.36,0,0,0-.52,0l0,0a.57.57,0,0,1,.3-.43l1.11-.52a.59.59,0,0,1,.23,0,.63.63,0,0,1,.45.24l-.16,0a.39.39,0,0,0-.33.45.39.39,0,0,0,.39.33h.06l.2,0A.62.62,0,0,1,16.4,2.65Zm5-1.09a.39.39,0,0,0-.41.67l.15.1a.56.56,0,0,1-.36,0l-1.19-.32c-.08,0-.13-.1-.19-.15l.29,0A.38.38,0,0,0,20,1.41a.37.37,0,0,0-.45-.32l-.31,0A.66.66,0,0,1,19.83.7l.14,0L21.16,1a.56.56,0,0,1,.35.29,1,1,0,0,1,0,.3Zm2.47,3.63L23.69,4s0,0,0-.06l.1.06A.36.36,0,0,0,24,4a.4.4,0,0,0,.34-.19.38.38,0,0,0-.13-.53l.06,0h.13a.63.63,0,0,1,.65.5L25.26,5a.6.6,0,0,1-.12.44c-.05.06-.13.07-.19.11V5.24a.38.38,0,0,0-.75,0v.34A.53.53,0,0,1,23.89,5.19ZM24.65,11a.65.65,0,0,1-.65-.65.62.62,0,0,1,.37-.53v-1h.56v1a.61.61,0,0,1,.36.53A.64.64,0,0,1,24.65,11Z"/></g></g></svg>