<svg xmlns="http://www.w3.org/2000/svg" viewBox="0 0 31.9 31.9">
    <path d="M31,21.2a12.2,12.2,0,0,0-2.6-3.8L28,17a5.3,5.3,0,0,1-.2,3.3v-.2a8.8,8.8,0,0,0-1.7-4,13.9,13.9,0,0,0-2.8-2.6l-.8-.6A15,15,0,0,1,19.2,22a6.3,6.3,0,0,0-1-3,1.3,1.3,0,0,1-.1.6,14.2,14.2,0,0,1-1,2.9,10,10,0,0,0-1,2.9,5.1,5.1,0,0,0,1.4,4.2A11.8,11.8,0,0,0,20,31.5l.6.4-.4-.9a5.1,5.1,0,0,1-.1-3,10,10,0,0,1,.8-1.4A7.7,7.7,0,0,0,22.1,24c.1-.1.1-.2.1-.4h.1a7.8,7.8,0,0,1,.3,3.7,6.9,6.9,0,0,0,1.3-2.9,8.7,8.7,0,0,0,.3-3.2A8.4,8.4,0,0,1,27.5,26a8.3,8.3,0,0,1-.6,5.8H27a12.7,12.7,0,0,0,3.4-2.7,7.5,7.5,0,0,0,1.5-3.7A7.6,7.6,0,0,0,31,21.2Z"/>
    <path d="M18.4,10.4h0a1.4,1.4,0,0,0,1.5.1A2.4,2.4,0,0,0,21,9.1a4.5,4.5,0,0,0,0-2.3,4.1,4.1,0,0,0-1.5-2.3A3.9,3.9,0,0,1,19.3,6a3.5,3.5,0,0,1-.6,1.4,3.7,3.7,0,0,0-.2-1.8h0v.2l-.6,1.3a1.6,1.6,0,0,0-.4.7,2.2,2.2,0,0,0,.1,1.6l-5.2,1.9L9.5,9.7,7.7,5.8A1.8,1.8,0,0,0,4.9,5l-.4.5L2.7,8.1.9,10.7a4.3,4.3,0,0,1-.4.7,1.9,1.9,0,0,0-.5,1,.9.9,0,0,0,.9.9.8.8,0,0,0,.7-.3l.3-.3v-.2l.5-.7.8-1.3.2-.2-.9,6.6L.5,20.7c-.8,1.3,1.1,2.5,1.8,1.2l2.2-3.6a7.7,7.7,0,0,0,.7-3.4l3.2,6.9a1.1,1.1,0,1,0,1.9-.9l-3.5-8a12.6,12.6,0,0,0,.5-3.3l.6,1.2a2.3,2.3,0,0,0,1.1.8l1.8.9,1.1.5a.8.8,0,0,0,1-.6Z"/>
    <path d="M6.6,4.3A2.2,2.2,0,0,0,8.7,2.1,2.2,2.2,0,0,0,6.6,0,2.2,2.2,0,0,0,4.4,2.1,2.2,2.2,0,0,0,6.6,4.3Z"/>
</svg>
