<svg xmlns="http://www.w3.org/2000/svg" viewBox="0 0 44 28.01">
    <path d="M43.61,16.45c.79-1.51.22-1.13-.28-.91s-4.72,3.27-5.46,4.7a1.89,1.89,0,0,1-2.25.93l-2.44-.33s-.44.19-.58-.44-.71-.16-.71-.16,0,.3-1.18.16-7.9-1.67-7.9-1.67A8.23,8.23,0,0,1,22,18c-.61-.58-.5-2.61-.55-4s-.11-1.07-1.1-.72-3.24,3.24-3.24,3.24a2,2,0,0,1-1.62.8,35.86,35.86,0,0,0-14,2.47c-2.06.66-1.29,1-1.29,1,.44.82,2.09,1.26,2.44,1.37a1.74,1.74,0,0,0,.8,0l-.19.25c.24.68,1.56,1.07,1.56,1.07s.93.9,7.49,1.32a8.3,8.3,0,0,0,2.28,2.85c.9.82,1-.23,1-.23v-.9s-.3-.85.22-1a7.62,7.62,0,0,0,3.1,1.1c.11,0,1.84.27.27-1,.88-.09,6.37-1.05,6.37-1.05l1.29,1.05c.27.22.8.35.74.05s.19-1.07.44-1,1.37.08,1-.17.08-.6.08-.6l3.3-.47c.71-.11.71.08.71.08a1.33,1.33,0,0,0,.58.25c.43.11.38-.77.38-.77a16.92,16.92,0,0,0,2-.3c1.48-.27,1.34,0,2.14.91a28.06,28.06,0,0,0,4.06,3.67c1,.63.49-.19.49-.19S42,25,41.38,23.17s-.13-1.81.17-2.6S42.81,18,43.61,16.45Z"/>
    <path d="M27.48,11.7a4.54,4.54,0,0,0,4.43-4A2.38,2.38,0,0,0,33,8a2.16,2.16,0,0,0,1.12-.3,4.49,4.49,0,1,0,7.57-3.78l-.34-.31-1.7-1.42a4.4,4.4,0,0,0-2.26-.82l-.94-1A1.61,1.61,0,0,0,35.4,0a1.67,1.67,0,0,0-1.55,1.14,1.65,1.65,0,0,0-.71-.22H33a1.52,1.52,0,0,0-.8.22A1.6,1.6,0,0,0,30.69,0a1.56,1.56,0,0,0-1.08.43l-.95,1a4.4,4.4,0,0,0-2.26.82L24.71,3.68a3.63,3.63,0,0,0-.35.3,4.49,4.49,0,0,0,3.12,7.72ZM37.94,4.19l.38-.07.29,0a3.14,3.14,0,1,1-.67.09ZM33,4.76a1,1,0,1,1-1,1A1,1,0,0,1,33,4.76ZM27.46,4.1a1.42,1.42,0,0,1,.29,0l.39.07a3,3,0,1,1-.68-.09Z"/>
</svg>