<svg xmlns="http://www.w3.org/2000/svg" viewBox="0 0 40 29.7"><path d="M0,27.9a2.9,2.9,0,0,1,1-.8,4.9,4.9,0,0,1,2.2-.4H4.7a1.1,1.1,0,0,0,.8-.5,16.9,16.9,0,0,1,1-2.7A25,25,0,0,1,8,19.8c.4-1.1.9-1.5,1.3-2.6s.6-1.2.8-1.9l.8-2.4a9.5,9.5,0,0,0,.1-1.4,2.6,2.6,0,0,1-.4-1.3,2.5,2.5,0,0,1-.2-.7l-.9.2a5.8,5.8,0,0,1-1.8.8,1.5,1.5,0,0,1-1.3.1.9.9,0,0,1-.7-.8l-.2-.3c-.1,0-.2-.3-.5-.7s-.2-.6-.3-.6-.2-.3-.1-.4.5-.5.8-.6A5.5,5.5,0,0,0,7.3,5.8a2,2,0,0,0,.3-1.1c0-.3-.2-.4-.4-.6a.7.7,0,0,1,.1-1l1.1-.7c.7-.6.9-1.2,1.6-1.7A4.4,4.4,0,0,1,12.6,0a5.5,5.5,0,0,1,1.7,1,7,7,0,0,0,1.9,1.3c.8.5,1.6,1.6,2.5,2a9,9,0,0,0,3.2.9c.9.1,1.9.6,2.8.8l3.8,1.3a10.9,10.9,0,0,0,3.2,1c.4,0,1,.4,1.5.3s1.5-1.1,2.2-1.5,1.2,0,1.7.5A5.2,5.2,0,0,1,38.7,11a16.4,16.4,0,0,1,.2,2.2,18.4,18.4,0,0,0-.2,2.3c-.1,1.8,1.4,6,.4,6.1a24.1,24.1,0,0,1-1.4-6,16.1,16.1,0,0,0,0-2.3c-.1-.4-.1-.7-.2-1.1a6.8,6.8,0,0,0-.7-2.8,1.4,1.4,0,0,0-.7-.8h-.3c-.4.2-.6.6-.9.8s-.2.2,0,.4a6.7,6.7,0,0,1,.6,1.5,5.9,5.9,0,0,0,.2,1.3,2.5,2.5,0,0,1-.3,1.8c-.2.9-.7,1.3-.5,2.7s0,1.6.1,1.9,1.5,1.3,2,2a7.5,7.5,0,0,0,2.2,2.5c.5.3,1,.7.7,1.2L39,26.1l-.5,1.1-.5.4-.8.4-.7.2c-.1,0-.2,0-.2-.2s.2-.2.2-.2a8.2,8.2,0,0,0-2.1.2,2.3,2.3,0,0,1-1.4.2.4.4,0,0,1,0-.6,4.3,4.3,0,0,1,1.3-.9,4.6,4.6,0,0,1,2-.3c.5.1,1.1-.6,1.3-1.1a.4.4,0,0,0-.2-.6l-1.3-1c-1.6-1-2.9-1.4-4.1-2.7a2.3,2.3,0,0,1-.8-1.5l-.4-.9s-.4.4-.4.6-.4.6-.8,1.5-.3,2.2-.5,2.7a8.4,8.4,0,0,0-.4,2.7,6.1,6.1,0,0,0,.7,1.7,1.1,1.1,0,0,1-.2,1.1c-.3.3-1,.3-1.4.4a19.3,19.3,0,0,1-2.4-.1l-1.7.4h-1a.4.4,0,0,1-.4-.4.5.5,0,0,1,.4-.5,5.8,5.8,0,0,0,1.7-.6,4.1,4.1,0,0,1,1.6-.3c.7,0,.9-.3.8-1.1a19.7,19.7,0,0,1-.6-3.5,12.7,12.7,0,0,1-.3-2.8,4.4,4.4,0,0,1,.7-2.1c.2-.4.7-2,.7-2H26.2a22.2,22.2,0,0,1-3.6.6l-2.2-.2a2.8,2.8,0,0,0,.4.8,6.4,6.4,0,0,1,0,1.4,12,12,0,0,0,.2,3.8c.1,1,.1,2,.1,3a11.5,11.5,0,0,0,.3,2.6,1.3,1.3,0,0,1-.1.6.9.9,0,0,1-.5.3c-.9.3-1.8-.1-2.7.4s-.6.2-.7.1-.1-.2-.1-.3h0c-.7-.1-1.3.3-2,.1l-.4-.2a.5.5,0,0,1,.2-.4,1.9,1.9,0,0,1,1.9-.9,18.5,18.5,0,0,0,2.3-.1c.3-.1.5-.7.3-1.2a18.1,18.1,0,0,1-.9-3.1,20.3,20.3,0,0,1-1.4-3.7,30.7,30.7,0,0,1-1.1-3.6,3.7,3.7,0,0,1-1.1-.5,2.6,2.6,0,0,1-.9-.7,2.9,2.9,0,0,1-.4,1.1L12.4,19c-.4,1-1.3,1.2-1.9,2l-.6,1.1a13.1,13.1,0,0,1-2.4,3.4,2.3,2.3,0,0,0-.6,1.2c0,.8-1.1,1.7-1.9,1.8H4.5c-1.1.1-.4-.4-.4-.4H3.3a4.8,4.8,0,0,1-1.6.1l-1.4.2C-.1,28.2,0,28,0,27.9Z"/></svg>
