<?xml version="1.0" encoding="utf-8"?>
<!-- Generator: Adobe Illustrator 23.0.3, SVG Export Plug-In . SVG Version: 6.00 Build 0)  -->
<svg version="1.1" id="Layer_1" xmlns="http://www.w3.org/2000/svg" xmlns:xlink="http://www.w3.org/1999/xlink" x="0px" y="0px"
	 viewBox="0 0 101.8 101.8" style="enable-background:new 0 0 101.8 101.8;" xml:space="preserve">
<style type="text/css">
	.st0{fill-rule:evenodd;clip-rule:evenodd;}
</style>
<g>
	<path class="st0" d="M35.2,28.3c-3.6,3.4-7,3.2-10.1,0c-3,3.3-6.2,3.5-9.8,0c-2.9,2.7-5.9,3.3-9.1,0.8v4.5c2.8,2.8,5.9,2.3,9.1,0
		c3.3,2.4,6.6,2.5,9.8,0c3.6,2.5,6.9,2.5,10.1,0c3.2,2.3,6.3,2.7,9.2,0v-4.5C41.2,31.6,38.1,31.2,35.2,28.3z"/>
	<polygon class="st0" points="46.3,25.7 46.3,71.1 67.5,71.1 53.2,25.7 	"/>
	<path class="st0" d="M87.4,64.3c-3,3.3-6.2,3.5-9.8,0c-2.9,2.7-5.9,3.3-9.1,0.8v4.5c2.8,2.8,5.9,2.3,9.1,0c3.3,2.4,6.6,2.5,9.8,0
		c4.1,3.4,8.8,0.8,8.9,0.9v-5.2C93.9,67.2,90.2,67.2,87.4,64.3z"/>
	<path class="st0" d="M35.2,37.3c-3.6,3.4-7,3.2-10.1,0c-3,3.3-6.2,3.5-9.8,0c-2.9,2.7-5.9,3.3-9.1,0.8v4.5c2.8,2.8,5.9,2.3,9.1,0
		c3.3,2.4,6.6,2.5,9.8,0c3.6,2.5,6.9,2.5,10.1,0c3.2,2.3,6.3,2.7,9.2,0v-4.5C41.2,40.6,38.1,40.2,35.2,37.3z"/>
	<path class="st0" d="M35.2,46.3c-3.6,3.4-7,3.2-10.1,0c-3,3.3-6.2,3.5-9.8,0c-2.9,2.7-5.9,3.3-9.1,0.8v4.5c2.8,2.8,5.9,2.3,9.1,0
		c3.3,2.4,6.6,2.5,9.8,0c3.6,2.5,6.9,2.5,10.1,0c3.2,2.3,6.3,2.7,9.2,0v-4.5C41.2,49.6,38.1,49.2,35.2,46.3z"/>
	<path class="st0" d="M35.2,64.3c-3.6,3.4-7,3.2-10.1,0c-3,3.3-6.2,3.5-9.8,0c-2.9,2.7-5.9,3.3-9.1,0.8v4.5c2.8,2.8,5.9,2.3,9.1,0
		c3.3,2.4,6.6,2.5,9.8,0c3.6,2.5,6.9,2.5,10.1,0c3.2,2.3,6.3,2.7,9.2,0v-4.5C41.2,67.6,38.1,67.2,35.2,64.3z"/>
	<path class="st0" d="M35.2,55.3c-3.6,3.4-7,3.2-10.1,0c-3,3.3-6.2,3.5-9.8,0c-2.9,2.7-5.9,3.3-9.1,0.8v4.5c2.8,2.8,5.9,2.3,9.1,0
		c3.3,2.4,6.6,2.5,9.8,0c3.6,2.5,6.9,2.5,10.1,0c3.2,2.3,6.3,2.7,9.2,0v-4.5C41.2,58.6,38.1,58.2,35.2,55.3z"/>
</g>
</svg>
