<svg xmlns="http://www.w3.org/2000/svg" viewBox="0 0 100 100"><g id="Layer_2" data-name="Layer 2"><g id="Layer_1-2" data-name="Layer 1"><path d="M50,0a50,50,0,1,0,50,50A50,50,0,0,0,50,0ZM73,81.8c-2.5-6.7-5.7-8.6-5.7-8.6C78.6,67.5,73,81.7,73,81.8Zm7-2.2a16.25,16.25,0,0,0-4.4-8.9C88.4,66.3,80,79.6,80,79.6Zm4.4-17.5c-.5-2.7-.2-4.6-3.5-4.9-5.2,9.7-8.4,11.9-22.4,13l-17,9.9c-6.6-1.7-4.9-13.6-4.9-13.6l20.6-2.1a25.78,25.78,0,0,1,1.7-4.6C26.5,58.1,25.3,46.2,25.3,46.2a10.57,10.57,0,0,1,3.9-3.1c-8.3-.5-10.4-4.4-10.4-4.4,1.5-2.3,5.2-4.5,5.2-4.5-7.9-1.5-8.8-5.2-8.8-5.2.9-1.9,6.7-3.8,6.7-3.8-6.6-.9-8.5-7.6-8.5-7.6C41.3,9.4,74.1,48.2,74.1,48.2s9.5-6.4,12.9,1.3C89.9,56.2,84.5,62,84.4,62.1Z"/><path d="M34,28.6C51.4,34,66.1,50.8,66.1,50.8,37.1,59.5,34,28.6,34,28.6Z"/><path d="M80.2,53.6A2.14,2.14,0,0,1,78,51.5a2.2,2.2,0,0,1,4.4,0A2.14,2.14,0,0,1,80.2,53.6Z"/></g></g></svg>
