<svg xmlns="http://www.w3.org/2000/svg" viewBox="0 0 44 26.19"><path d="M43.43,11.63a1.28,1.28,0,0,0-.8.3c-.34.28-.76.48-1.09.79.35-.33.37-1.6-.18-1.6a.61.61,0,0,0-.34.13l0,0a2.79,2.79,0,0,0-.48-.49,6.53,6.53,0,0,0-.85-.33s0-.07,0-.11-.12-.12-.17-.26a.37.37,0,0,1,.27-.09c.23,0,.51.09.72.09A.28.28,0,0,0,40.7,10c.27-.4-.39-.52-.6-.58A3.29,3.29,0,0,1,38.61,8.3,4.13,4.13,0,0,1,37.5,6.68l.33,0h.55c.13-.54-.61-.69-1-.7a4,4,0,0,1-1.51-.17c-.36-.17-.52-.58-.91-.75a4.33,4.33,0,0,0-1.47-.25.51.51,0,0,0-.26-.59c.71-.11,1.5-.26,2.47-.5,1.91-.46,2.1-.7,2.11-.85s-.5-.5-1-.53c-.62-.06-1,.31-1.59.63a9.41,9.41,0,0,1-2.5.74l-.38.08-.83-.58c-.23-.17-.78-.35-.72-.71.11,0,.21-.06.32-.06h0c.19-.52,0-.64-.39-.63s-.68.1-.94.11c-.88,0-1.64-.6-2.52-.6h-.15a3.89,3.89,0,0,0-1.44-1A3.79,3.79,0,0,0,24.32,0a5.49,5.49,0,0,0-3.06,1.07l-.87.06L19.66,1A17,17,0,0,1,16.59.19l-1.08,0c-.51,0-.63.07-.64.12s.92.36,3.4,1A15.66,15.66,0,0,0,14.84,2a22,22,0,0,0-4.08.18l-2.23.55c-.28.07-.49.12-.48.16a7.55,7.55,0,0,0,1.85-.1c1.1-.15,1.23-.29,2-.4a4.11,4.11,0,0,1,1.67.06c-.66.22-1.32.45-2,.72a15.48,15.48,0,0,0-1.7.59,3.33,3.33,0,0,1-.74.41l-.35,0h-.6c-.65.08-.63.61-.17.6a.75.75,0,0,0,.24,0c-.26.24-.7.32-1,.54A6.7,6.7,0,0,1,6.08,6c-.38.18-.67.46-1,.66s-.61.17-.66.6a.54.54,0,0,0,.26.07c.3,0,.55-.28.83-.38a1.61,1.61,0,0,1,.42-.11c.14,0,.25,0,.26.18s-.36.31-.46.39A4.77,4.77,0,0,0,4.51,8.68c-.36.55-.5,1.19-.84,1.75a7.77,7.77,0,0,1-.59.64,4.56,4.56,0,0,0-.38-.31,2.11,2.11,0,0,0-1.08-.41.44.44,0,0,0-.38.16c-.36.52.88,1.76.7,2.5a.05.05,0,0,1-.06,0c-.23,0-1-.55-1.5-.55-.21,0-.36.1-.38.39a3.85,3.85,0,0,0,1.19,1.86,6.29,6.29,0,0,0,1,.39s0,.08,0,.12.14.14.19.3a.45.45,0,0,1-.3.1c-.26,0-.57-.12-.81-.12a.32.32,0,0,0-.27.11c-.31.45.42.6.66.67a3.64,3.64,0,0,1,1.64,1.26,4.45,4.45,0,0,1,1.21,1.84h-1c-.16.6.66.78,1.09.81a4.58,4.58,0,0,1,1.69.22c.4.2.57.67,1,.87a4.6,4.6,0,0,0,1.65.31.53.53,0,0,0,0,.43,19.8,19.8,0,0,1-2.57-.83L5.1,21.17c-.62,0-.76.06-.77.12s1.24.5,4.71,1.47c.5.14,1.05.3,1.64.45.12.09.24.17.36.27s.86.41.79.81c-.12,0-.24.07-.36.07h-.05c-.23.58,0,.72.42.72s.77-.1,1.05-.1c1,0,1.83.71,2.81.73h.6a2.58,2.58,0,0,1,.76.09,6.89,6.89,0,0,0,1.47.37c.51,0,1,0,1.55,0s.75,0,1.12,0c1-.07,2-.14,3-.14a18.35,18.35,0,0,0,6-1l.41-.13a3.85,3.85,0,0,0,1.48,0c1.37-.2,1.54-.72,2.37-.5.58.16,1.1.58,1.73.38,0,0,.34-.11.34-.24s-.57-.3-.76-.34a7.1,7.1,0,0,0-2.6-.05c-.32.06-.6.11-.87.14.38-.13.76-.25,1.14-.4a17,17,0,0,0,1.91-.62,4,4,0,0,1,.85-.44,1.63,1.63,0,0,1,.39,0h.67c.73-.07.72-.67.21-.67a.71.71,0,0,0-.27,0c.29-.27.79-.35,1.13-.59a6.76,6.76,0,0,1,1.33-.7c.43-.19.76-.5,1.18-.71s.68-.18.75-.66a.55.55,0,0,0-.29-.08c-.33,0-.63.29-.94.4a1.31,1.31,0,0,1-.48.11c-.15,0-.27-.05-.28-.2s.41-.34.53-.43a5.61,5.61,0,0,0,1.35-1.44c.42-.62.59-1.32,1-2,.23-.36,1-.81.91-1.31a.35.35,0,0,0-.37-.32,1.59,1.59,0,0,0-.73.28,1.36,1.36,0,0,1-.53.28c-.1,0-.16-.08-.13-.31s.55-.49.71-.67c.5-.55.66-1,1.35-1.35a1.27,1.27,0,0,0,.26-.15C44.11,11.86,43.81,11.63,43.43,11.63ZM28.7,4.85l.84.34.09,0a2.34,2.34,0,0,1,1.07.72l-.35-.16a6.07,6.07,0,0,0-.7-.29A4.74,4.74,0,0,0,29,5.33l-.36-.08,0-.39ZM18.33,6.51C19.66,3.22,22.16,1,24.32,1a2.93,2.93,0,0,1,1.09.21c1.44.58,2.23,2.29,2.26,4.42v.16c0,.19,0,.38,0,.57a8.58,8.58,0,0,1-.1.87c0,.09,0,.17,0,.26a12.32,12.32,0,0,1-.68,2.37,7.5,7.5,0,0,1-2,3l.05,0a4.09,4.09,0,0,1-.66.48h0A12.06,12.06,0,0,1,20,13.23a4.23,4.23,0,0,1-2.16-4.88A9.17,9.17,0,0,1,18.33,6.51Zm-1-1a2.53,2.53,0,0,1,.38-.07c-.1.22-.2.45-.29.68a1.12,1.12,0,0,0-.05.13l-2,.24A7.9,7.9,0,0,1,17.32,5.53Zm-6.23.6C12.68,5.22,15,6,16.86,7.88v0a5.8,5.8,0,0,0,.7,4.64h0l-.09.1h0a1.59,1.59,0,0,0-.15.29l0,.06-.1.24c-.13.35-.15.41-.53.41h-.17c-.73-.06-1.49-.2-2.22-.33l-.68-.12-.14,0c-.65-.11-1.28-.31-1.92-.41a9.52,9.52,0,0,1-1.71-.24C9,9.72,9.38,7.1,11.09,6.13ZM3.8,11.67l.06,0a1.47,1.47,0,0,1,.47-.26c.09,0,.15.07.12.28s-.12.18-.24.28A4.1,4.1,0,0,1,3.8,11.67Zm5.39,5a6.28,6.28,0,0,1-2.31-.46c-.17-.07-.65-.28-.62-.43s.3-.15.34-.16c.59-.07,1,.39,1.48.62.7.33.94-.1,2.19-.06a4.59,4.59,0,0,1,1.84.49,3.73,3.73,0,0,0,1.21.22c.67,0,.82-.08,1.82,0a7,7,0,0,1,1.67.21,1.17,1.17,0,0,1-.46.06l-2.07.13a10.1,10.1,0,0,1-1.72-.14A14.78,14.78,0,0,0,9.19,16.69Zm8.94,5.91c-.87-.13-1.74-.31-2.6-.52a12.45,12.45,0,0,1-2.16-.81l-.11,0a2.55,2.55,0,0,1-1.18-.82l.39.19a7.43,7.43,0,0,0,.77.33c.24.08.48.14.72.2,1.44.35,2.86.68,4.32,1a41.83,41.83,0,0,0,5,.81C21.55,22.78,19.86,22.87,18.13,22.6Zm8.94-1.43a8.27,8.27,0,0,1-2.22.18A32.89,32.89,0,0,1,21,21.1c-.39-.05-1-.1-1.54-.2a3.35,3.35,0,0,1-1.78-.68c1.26,0,2.49.29,3.73.4a20.85,20.85,0,0,0,3.95-.12l4-.38A8.83,8.83,0,0,1,27.07,21.17Zm8.27-4.9a23.57,23.57,0,0,1-2.44.46,11.64,11.64,0,0,1-2.81.33s.05-.1.38-.25l.69-.26a12.57,12.57,0,0,0,2.17-.29,6.43,6.43,0,0,0,1.72-.51c.39-.22.67-.47,1.1-.43s.65.19.65.36S36.66,16,35.34,16.27Zm1.8-4.39c-.48.17-1,.27-1.44.44-.26.09-.5.2-.75.3s-.23.08-.34.12h0l-.42.15a2.28,2.28,0,0,1-.46.1.46.46,0,0,1-.36-.21S33,12,33,12a.48.48,0,0,0-.2,0,1.9,1.9,0,0,0-.88.43,2.16,2.16,0,0,1-.34.17l-.32.11c-.53-.08-1.07-.23-1.61-.31l-.73-.11a16.91,16.91,0,0,0-2-.25h0a12,12,0,0,0,.87-1.72,13.31,13.31,0,0,0,.69-2.4,10.49,10.49,0,0,1,.89-.69c3.15-2.23,5.75-1.8,7.32.43a4.08,4.08,0,0,1,.49,4.23Zm2.73.66a1.33,1.33,0,0,1,0-.2.06.06,0,0,1,.06,0,.39.39,0,0,1,.2.06A.41.41,0,0,1,39.87,12.54Z"/></svg>