<svg xmlns="http://www.w3.org/2000/svg" viewBox="0 0 36 18.3"><defs><style>.cls-1{fill:#1a2026;}</style></defs><title>Black Rhino Sighting</title><g id="Layer_2" data-name="Layer 2"><g id="Layer_1-2" data-name="Layer 1"><path class="cls-1" d="M.75,9.37c.07.29.16.45.17.6s0,.26,0,.39,0,.12.11.28a3.18,3.18,0,0,1,.27.76,2.76,2.76,0,0,1-.23.87c-.21.58-.51,1.14-.63,1.4s-.26.48-.12.7.42.61.5.79a1.08,1.08,0,0,1,.1,1c-.19.55-.48,1-.33,1.25s.46.22.58.22a1.41,1.41,0,0,0,1,0,1.24,1.24,0,0,0,.38,0,4.38,4.38,0,0,0,.68.08c.13,0,.14-.07.14-.07a2.16,2.16,0,0,0,.26.08c.08,0,.19,0,0-.31a2.21,2.21,0,0,0-.48-.73,1.33,1.33,0,0,1-.41-.46,5.6,5.6,0,0,1-.1-.76,3,3,0,0,1,.23-.89c.11-.27.23-.69.34-1L3.54,13a4.87,4.87,0,0,1-.06,1.17,3.16,3.16,0,0,0-.1,1c.05.19.2.31.42.47a5.72,5.72,0,0,1,.86.81,1,1,0,0,1,.09.67,4.21,4.21,0,0,0-.18.64c0,.12,0,.34.39.3h.48c.09,0,.91.39,1.4,0,.18,0,.78.15.94,0s.13-.15.11-.23a4.31,4.31,0,0,0-.22-.53c-.07-.09-.08-.14-.32-.2A1.28,1.28,0,0,1,6.84,17a2,2,0,0,1-.33-.59,6,6,0,0,0-.31-.76,4.22,4.22,0,0,1-.09-.94c0-.16.1-.79.16-1.17a4.81,4.81,0,0,1,.16-1.13,2.09,2.09,0,0,1,.8-.92,1.43,1.43,0,0,0,.6-.73,6.19,6.19,0,0,0,2.39,2.13,11,11,0,0,0,5.27.54,13.31,13.31,0,0,0,3-.62,16,16,0,0,0,1.07,1.52.43.43,0,0,1,0,.2.22.22,0,0,0-.15.15c-.16-.07-.3-.09-.37,0a1.21,1.21,0,0,0-.47-.23c-.12,0-.9.83-1,1a.86.86,0,0,0-.21.67,2.84,2.84,0,0,0,.21.64,1.08,1.08,0,0,1,.26-.05.57.57,0,0,0,0,.62c.17.28.44.48.63.46a1.05,1.05,0,0,0,.48-.28c.13-.1.54-.55.77-.7a4.11,4.11,0,0,0,.44-.3s.28,0,.35-.05a.36.36,0,0,1,0,.13,2.16,2.16,0,0,0-.28.33,1.21,1.21,0,0,0-.19.77c.06.15,0,.28.62.3a4.36,4.36,0,0,0,1,0,3.09,3.09,0,0,0,.94.16,1.46,1.46,0,0,0,.62-.1c.06,0,0-.17,0-.17a.64.64,0,0,0,.28,0c.08,0,.18-.05.14-.15a2.89,2.89,0,0,1-.22-.34.47.47,0,0,0-.29-.31,3.37,3.37,0,0,1-.55-.29,1.65,1.65,0,0,1-.42-.9c0-.12.06-.32.09-.52a6.89,6.89,0,0,1,.68-1.85,9.19,9.19,0,0,1,1-1.1c.14,0,.4.18.6-.22.08,0,.39,0,.45-.07a.43.43,0,0,0,.48.26,1.48,1.48,0,0,0,.68-.34,2.8,2.8,0,0,0,.1-.33l.17-.11a4.62,4.62,0,0,1,.25.42,1,1,0,0,0,.58.84c.13.15,2,1.95,2.1,2.1a1,1,0,0,0,.71.41.64.64,0,0,0,.86.26,5.16,5.16,0,0,1,1.05-.16s.59,0,.7-.35a2.53,2.53,0,0,1,.28-.52c.1-.2.15-.35.09-.44s.39-.8.39-.89a6,6,0,0,0,1.58-1.28,4.27,4.27,0,0,0,1-1.65,5.91,5.91,0,0,0,.06-1c0-.12-.16-.47-.49-.06a8.28,8.28,0,0,1-2.34,1.27,1.69,1.69,0,0,1-.6.07l-.07-.16h0a2.36,2.36,0,0,1,.61-.23c.43-.11.79-.45.32-.51s-1.3,0-1.3,0a5.87,5.87,0,0,0-.73-.89,4.49,4.49,0,0,1-.86-1.08,3,3,0,0,1-.35-1.45A3.8,3.8,0,0,0,30,5a.53.53,0,0,1,.25,0c.19,0,.6,0,.95-.82.14-.19.37-.83.47-.93a.9.9,0,0,0,.18-.33.3.3,0,0,0-.18,0c-.09,0-.48.35-.71.46s-1,.38-1.13.45,0-.34-.18-.41a1.59,1.59,0,0,0-.38-.06c-.16,0-.28-.12-.26,0a.38.38,0,0,1-.11.35.41.41,0,0,0-.11.21.43.43,0,0,1-.22-.06c-.07,0-.14-.31-.24-.38s-.38-.07-.44-.12a.28.28,0,0,1-.14-.19,3.33,3.33,0,0,0-.7-1.36A4,4,0,0,0,25.24.82,13.73,13.73,0,0,0,23.79.76L22,.59a5.16,5.16,0,0,0-2.43.23,3.39,3.39,0,0,1-1.05.34A10,10,0,0,1,15.14.87a25.34,25.34,0,0,1-3.26-.8,3,3,0,0,0-1.59.11A15.44,15.44,0,0,1,7.69,1c-.94.15-1.86.15-2.08.18a4.83,4.83,0,0,0-1.53.68A6.77,6.77,0,0,0,1.35,4.53,7.49,7.49,0,0,0,.52,7.27c0,.14,0,.44,0,.44a3.94,3.94,0,0,1-.14.73c-.08.31-.26.59-.32.8s-.11.4.09.55.26.23.24.28-.16.11,0,.35a1.7,1.7,0,0,1,.3.44s.25-.16.14-.58A.78.78,0,0,0,.4,9.66c-.06,0-.11-.08-.09-.14s.14-.21.24-.42a2.08,2.08,0,0,0,.1-.34S.72,9.27.75,9.37Z"/></g></g></svg>