<svg xmlns="http://www.w3.org/2000/svg" viewBox="0 0 32 32"><path d="M22,12.7a.8.8,0,0,0-.8.7v.3H21v-.8a.9.9,0,0,0-.8-.8.8.8,0,0,0-.7.8h0l-1.1-.3v-.5a.7.7,0,1,0-1.4,0h0L15.9,12v-.4a.7.7,0,0,0-.7-.7.7.7,0,0,0-.8.7v.2h-1v-.4a.8.8,0,0,0-.8-.7.7.7,0,0,0-.7.7v.4H10.8v-.3a.7.7,0,0,0-.7-.7.8.8,0,0,0-.8.7v.3h-1v-.2a.8.8,0,0,0-.7-.8.8.8,0,0,0-.8.8V12l-1,.2h0a.9.9,0,0,0-.8-.8.8.8,0,0,0-.7.8v.5l-1.1.3h0a.8.8,0,0,0-.7-.8.9.9,0,0,0-.8.8v.8H1.5a.8.8,0,0,0-.8-.8.8.8,0,0,0-.7.8V27.9c0,.2,0,.3.1.4.8,2.4,6,3.7,11.3,3.7h2.7c4.4-.4,8.3-1.7,8.6-3.9V13.4A.7.7,0,0,0,22,12.7ZM2.7,28.9q-1.2-.6-1.2-1.2V18.2a3.5,3.5,0,0,0,1.2.7Zm2.6.9-1.2-.3V19.4l1.2.3Zm2.7.5-1.2-.2V20H8Zm2.6.2H9.5V20.2h1.1Zm2.7-.1H12.1V20.3h1.2Zm2.6-.3-1.1.2V20.1h1.1Zm2.7-.6-1.2.3V19.7l1.2-.3Zm2.6-1.8c0,.4-.4.8-1.1,1.2v-10a4.1,4.1,0,0,0,1.1-.7ZM20.1,17.2V15.7a.9.9,0,0,0-.8-.8.8.8,0,0,0-.7.8v2.1l-1.2.4V16.4a.7.7,0,0,0-.7-.7.7.7,0,0,0-.8.7v2.1H14.8V16.8a.8.8,0,0,0-.8-.7.7.7,0,0,0-.7.7v2H12.1V16.9a.7.7,0,0,0-.7-.7.7.7,0,0,0-.8.7v1.9H9.5V16.6a.8.8,0,0,0-.8-.7.7.7,0,0,0-.7.7v2H6.8V16.4a.8.8,0,0,0-.7-.8.8.8,0,0,0-.8.8v1.8l-1.2-.4V15.7a.8.8,0,0,0-.7-.8.8.8,0,0,0-.7.8v1.5Q1.5,16.6,1.5,16c0-1.2,3.8-2.8,9.9-2.8s9.8,1.6,9.8,2.8S20.8,16.8,20.1,17.2Z"/><rect x="28.6" y="6.2" width="1.8" height="5.14" transform="translate(2.4 23.5) rotate(-45)"/><path d="M22.6,5.7V4l.8.8.5-.4,1,1.1L20.4,10l1.3,1.2,6.9-6.9.7.2a2.2,2.2,0,0,0,2.2-2.1,1.7,1.7,0,0,0-.3-1L29.6,3l-.9-.9L30.3.5a1.7,1.7,0,0,0-1-.3,2.2,2.2,0,0,0-2.1,2.2c0,.2.1.4.1.7L26.2,4.2,25.1,3.1l.5-.4-.9-.9L26,.5a1.9,1.9,0,0,0-2.6,0L21.3,2.7l.8.8H20.4L20,4l2.1,2.1Z"/></svg>
