<svg xmlns="http://www.w3.org/2000/svg" viewBox="0 0 32 30.2"><path d="M30.9,3a1.1,1.1,0,0,0-1,1.1v.4l-.3-.2V3.2a1.1,1.1,0,0,0-1.1-1.1,1,1,0,0,0-1,1.1h0L26,2.8V2.1a1.1,1.1,0,0,0-1.1-1,1.1,1.1,0,0,0-1,1v.2l-1.5-.2V1.5a1.1,1.1,0,0,0-1-1,1.1,1.1,0,0,0-1.1,1v.3H18.8V1.1a1,1,0,0,0-1-1.1,1.1,1.1,0,0,0-1.1,1.1v.5H15.3V1.2A1.1,1.1,0,0,0,14.2.1a1,1,0,0,0-1,1.1v.5H11.7V1.4a1.1,1.1,0,0,0-1.1-1,1.1,1.1,0,0,0-1,1v.7l-1.5.2V2.1a1.1,1.1,0,0,0-1-1A1.1,1.1,0,0,0,6,2.1v.7l-1.5.5h0a1,1,0,0,0-1-1.1A1.1,1.1,0,0,0,2.4,3.2V4.3l-.3.2V4.3a1.1,1.1,0,0,0-1-1.1A1.1,1.1,0,0,0,0,4.3V24.5c0,.2.1.3.1.5,1.1,3.4,8.5,5.2,15.9,5.2h3.9c6.2-.5,11.6-2.4,12-5.5V4.1A1.1,1.1,0,0,0,30.9,3ZM16,3.7c8.5,0,13.9,2.3,13.9,4s-.6,1.1-1.6,1.7V7.2a1,1,0,0,0-1.1-1,.9.9,0,0,0-1,1v3l-1.7.5V8.3a1,1,0,0,0-1-1.1,1.1,1.1,0,0,0-1.1,1.1v2.8l-1.6.3V8.8a1.1,1.1,0,0,0-1.1-1.1,1.1,1.1,0,0,0-1,1.1v2.7H17.1V8.9a1.1,1.1,0,0,0-2.2,0v2.7H13.3V8.6a1.1,1.1,0,0,0-1-1.1,1.1,1.1,0,0,0-1.1,1.1v2.8l-1.6-.3V8.2a1,1,0,0,0-1.1-1,.9.9,0,0,0-1,1v2.5l-1.7-.5v-3a.9.9,0,0,0-1-1,1,1,0,0,0-1.1,1V9.4c-1-.6-1.6-1.2-1.6-1.7S7.5,3.7,16,3.7ZM9.6,13.3l1.6.2V27.8l-1.6-.2ZM7.5,27.2l-1.7-.5V12.4l1.7.5Zm5.8-13.5h1.6V28.1H13.3Zm3.8,0h1.6V28H17.1Zm3.7-.2,1.6-.2V27.6l-1.6.2Zm3.7-.6,1.7-.5V26.7l-1.7.5ZM2.1,24.1V10.8l1.6.9V25.8C2.7,25.3,2.1,24.7,2.1,24.1Zm26.2,1.7V11.7l1.6-.9V24.1C29.9,24.7,29.3,25.3,28.3,25.8Z"/></svg>
