<svg xmlns="http://www.w3.org/2000/svg" viewBox="0 0 32 26.6"><path d="M6.5.1h.9c.2.1.4.3.7.2A1,1,0,0,1,9,0l1.1.5.6.6,1.6,1.4a6.5,6.5,0,0,0,1.5,1,1.4,1.4,0,0,0,1.9-.6,1.4,1.4,0,0,0-.7-2L14.1.6,13.7.4V.2h.3l1,.2.9.4a4.4,4.4,0,0,1,.8,1.1l.2.5a1.7,1.7,0,0,1-.4,1.5,2.7,2.7,0,0,1-.8.7,1,1,0,0,1-.5.4,2.6,2.6,0,0,0,1.5.2L21.7,4a3.3,3.3,0,0,1,2.6.2,14.2,14.2,0,0,1,4.1,3.2A7.1,7.1,0,0,1,30,10.5,2.4,2.4,0,0,0,31.1,12l.5.5a1.3,1.3,0,0,1,.4.6,2.2,2.2,0,0,1-.1.8l-.3,1.2-.3,1.1a1.5,1.5,0,0,1-.4-1,5,5,0,0,0,.2-1.2c-.5.5-.6.6-.5,1.2h-.1a1.3,1.3,0,0,1,.4-1.5c.3-.3.3-.4,0-.7l-.2-.2a3.2,3.2,0,0,1-1-1.7,10.9,10.9,0,0,0-.5-1.7c-.1-.3-.3-.4-.5-.9a12.7,12.7,0,0,0,.1,2c.1,1.7.1,3.3.2,5a3.1,3.1,0,0,0,.6,1.9,1.6,1.6,0,0,1,.4,1.5,22.5,22.5,0,0,0,0,2.6c.1,1.1.4,2.2.6,3.3s.1.6.1.9l-.4-.2a1.1,1.1,0,0,1-.8,1h-.8c0-.1,0-.1-.1-.1s-.4-.3-.2-.6l.6-1.3c0-.1.1-.2.1-.4a9.7,9.7,0,0,0-1.3-5.3l-.4-.9a4.4,4.4,0,0,0-1.5-2.3l-.3-.3a.4.4,0,0,1-.1.3,7.4,7.4,0,0,0,.8,3,1.4,1.4,0,0,1,0,.9l-1.1,2.9a7.6,7.6,0,0,0-.6,2.6c0,.2-.1.4-.1.6s-.5-.2-.8,0l-.8.5H21.5c-.3,0-.3-.1-.1-.4a4.3,4.3,0,0,1,1-.9,3.1,3.1,0,0,0,1.4-2,.9.9,0,0,1,.1-.5,6.2,6.2,0,0,0,0-2.7c-.5-1-.9-2.1-1.4-3.1l-.2-.4a6.7,6.7,0,0,0-1.4.9,2.9,2.9,0,0,0-1,1.9c-.2,0-.2-.2-.2-.3a1.3,1.3,0,0,0-1.2-1.2l-3.7-.2a.3.3,0,0,0-.3.3,35.7,35.7,0,0,0-1,3.5c-.1.2-.1.4-.2.6a4.2,4.2,0,0,0-.3,2.7,2.5,2.5,0,0,1,.1.8.2.2,0,0,1-.2.2c-.4-.2-.3.1-.3.3a.8.8,0,0,1-.5.8l-.2.2a1.2,1.2,0,0,1-1,0h-.2c-.3,0-.3-.2-.2-.5s.1-.2.2-.4a11.9,11.9,0,0,0,.8-1.6l.3-.8a4.6,4.6,0,0,0-.2-2v-.7c.1-.8.3-1.7.4-2.5v-.3l-.8-.2c-.3-.2-.5-.2-.6.2a2.9,2.9,0,0,0-.2,1.6,5.3,5.3,0,0,1-.5,2.5,4,4,0,0,0-.2,3.2v.4c-.1,0-.2,0-.2-.1s-.4.1-.4.3-.2.5-.6.6A2.7,2.7,0,0,1,7,25.8l.6-1a10,10,0,0,0,.8-1.4A3.9,3.9,0,0,0,8.7,22c0-1.1-.1-2.2-.2-3.2s-.3-1.4-.4-2.1a3.7,3.7,0,0,0-.4-1.4L7.1,14c-.1-.3-.1-.7-.2-1a2.5,2.5,0,0,1,0-1.9,6.8,6.8,0,0,0,.2-1.4,8.8,8.8,0,0,0-.5-1.5c0-.2-.2-.3-.4-.5a1.3,1.3,0,0,1-.8-1.4V6.1l-2.2.6c-.4.2-.7,0-1-.3s-.1-.2,0-.4l.3-.6H2.3A2.3,2.3,0,0,1,.2,3.8,1.5,1.5,0,0,1,.1,2.5,3.2,3.2,0,0,1,.9,1.3,1.8,1.8,0,0,1,2.2.7H4l-1.2.2a2.5,2.5,0,0,0-1.1.4,1.2,1.2,0,0,0-.5,1.4.9.9,0,0,0,.3.5,1.3,1.3,0,0,0,1.8,0L4.7,1.6A3,3,0,0,1,5.5.8Z"/></svg>
