<svg xmlns="http://www.w3.org/2000/svg" viewBox="0 0 32 26.8"><path d="M31.5,16.3a.1.1,0,0,1-.1-.1l.2.2.3.2-.3-.6a.1.1,0,0,1,.1.1l.2.3s-.3-.8-.2-.8a1.6,1.6,0,0,0-.4-.7,2.3,2.3,0,0,1-.4-1.4,1.9,1.9,0,0,0,.1-.8c-.1-.3-.1-.7-.2-1.1a15.3,15.3,0,0,1-.3-3c0-1.2.1-2.3,0-3.5a1.5,1.5,0,0,0-.9-1.4,5.2,5.2,0,0,0-2.4-.5c-1.4.1-2.8.4-4.2.6l-2.8.6H9.9c-.3,0-1.4-.8-2.2-1l-.9-.2.3-.5a1.4,1.4,0,0,0,.3-1.4A1.5,1.5,0,0,0,6.8.6L6,.2,5.5,0H4.9c0,.1.1.3.1.4l.4.3.6.5.3.4-.5.2H2.7a1.2,1.2,0,0,1-1.4-.9C1.2.8,1.2.5,1.1.3a1,1,0,0,0-.5,1A2.3,2.3,0,0,0,1.7,3l.7.4H2a2.4,2.4,0,0,0-1.9.8H0v.4a3.2,3.2,0,0,0,1.9.7,6.1,6.1,0,0,0-.7,1A1.7,1.7,0,0,0,.9,8.1l.2.3c.6.1,1.1.4,1.7.2h.3a2.5,2.5,0,0,0,1.4.4.6.6,0,0,1,.6.3,15,15,0,0,0,1.5,2.5,18.8,18.8,0,0,1,1.6,2.3,18.2,18.2,0,0,0,1.5,2.3.6.6,0,0,1,.2.7c0,.4.1.9.1,1.3s.1,1.4.1,2.1a22.8,22.8,0,0,1-.2,2.6l-.4.9-.7,1.2c-.2.2-.1.4.2.4a2.8,2.8,0,0,0,1.8-.1.8.8,0,0,0,.6-1.1c-.2-.3,0-.5.2-.7l.5-.3a2.6,2.6,0,0,1-.4-1,16.6,16.6,0,0,1,.3-4.4c.1-.2.2-.3.4-.3l1.2-.3c.5-.1.5-.1.7.3s.5.9.7,1.4a4.1,4.1,0,0,1,.5.9c.3.5.5,1.1.8,1.7a2.9,2.9,0,0,1-.6,3.2l-.9,1.3.8.5a4,4,0,0,0,1.9-.2l.2-.2.3-1.3a1.2,1.2,0,0,1,.3-.9c.3-.2.3-.4.2-.7l-.9-3.1c-.3-1-.4-2.1-.7-3.2V17h2.2l1.5-.5.7-.2L22,16h2.3a17.6,17.6,0,0,1-.8,4l-1,1.5c-.4.5-.1.2-.1.2s-.3.4.3.6a4.9,4.9,0,0,0,1.6-.1.8.8,0,0,0,.5-.7c.1-.6,0-.8.3-1.1s.7-.3.6-1.2a9,9,0,0,1,.2-3.5h.5l.5-.2c0-.1.4-.3.3-.4l.2.4a10.9,10.9,0,0,1,.1,3.6c-.1.7-.3,1.3-.4,1.9a5.4,5.4,0,0,0-.3,1,1.9,1.9,0,0,1-.5,1.1l-.7.9q-.3.4.3.6a2.2,2.2,0,0,0,1.6,0,.7.7,0,0,0,.5-.7c0-.5.1-1.1.5-1.3a.9.9,0,0,0,.4-1.1,6.8,6.8,0,0,1,.9-4.8c.3-.4.4-.7.1-1.1a3.9,3.9,0,0,1-.2-2.6,6.4,6.4,0,0,0,.2-.7,3.2,3.2,0,0,1,.6,1.5v.7A4,4,0,0,0,31.7,17l.3.3C31.7,16.8,31.8,16.8,31.5,16.3ZM30.1,6.8l-.3-2.4A3,3,0,0,1,30.1,6.8Z"/></svg>
