<svg xmlns="http://www.w3.org/2000/svg" viewBox="0 0 26.7 32.05"><defs><style>.cls-1{fill:#1a2026;}</style></defs><title>Management Burn</title><g id="Layer_2" data-name="Layer 2"><g id="Layer_1-2" data-name="Layer 1"><path class="cls-1" d="M4.23,31.71l.58.34c-.13-.34-.25-.62-.35-.9a4.78,4.78,0,0,1-.11-3.23,8.44,8.44,0,0,1,.82-1.54,9.24,9.24,0,0,0,1.33-2.8c0-.15.07-.3.11-.44h.06a7.37,7.37,0,0,1,.35,4A7.1,7.1,0,0,0,8.45,24a10.15,10.15,0,0,0,.32-3.44,8.88,8.88,0,0,1,3.5,5.23A8.8,8.8,0,0,1,11.7,32l.12-.05A12.94,12.94,0,0,0,15.41,29,6.68,6.68,0,0,0,17,25a8.78,8.78,0,0,0-.89-4.53,15.23,15.23,0,0,0-2.84-4.09c-.14-.14-.29-.27-.44-.4a5.44,5.44,0,0,1-.27,3.53,1.47,1.47,0,0,0-.05-.19A9.27,9.27,0,0,0,10.67,15a14.75,14.75,0,0,0-3-2.83c-.27-.21-.55-.39-.87-.61a15.75,15.75,0,0,1-3.51,9.75,8.41,8.41,0,0,0-1-3.25c0,.27-.08.49-.12.72a18.33,18.33,0,0,1-1.12,3.11,11.24,11.24,0,0,0-1,3.16,5.41,5.41,0,0,0,1.45,4.48A13.22,13.22,0,0,0,4.23,31.71Z"/><path class="cls-1" d="M25.78,10.93,24.64,9.79l.56-.55a.3.3,0,0,1,.43,0l.71.71a.31.31,0,0,1,0,.42Zm-1.46-.82,1.14,1.14L22.1,14.61H21V13.47ZM16.76,7.53l6.51-.09V6.56l-6.51.08Zm0-3.59h3.55V3.05H16.76Zm0,7.1h3.55v-.89H16.76Zm-1.1,2.77V.8h7.18V4.3a.41.41,0,0,0,.4.4H25.9V8.9h.8V4.3a.46.46,0,0,0-.08-.24l-3-3.9A.38.38,0,0,0,23.32,0H15.26a.41.41,0,0,0-.4.4V14.21a.35.35,0,0,0,.11.29.52.52,0,0,0,.29.11h4.93v-.8Zm8-12.4,1.83,2.47H23.64Z"/></g></g></svg>