<svg xmlns="http://www.w3.org/2000/svg" width="33.1" height="27.8" viewBox="0 0 33.1 27.8">
  <title>Bushmeat Poacher</title>
  <g id="Layer_2" data-name="Layer 2">
    <g id="Layer_1-2" data-name="Layer 1">
      <g>
        <path d="M13.6,26.3a.3.3,0,0,1-.3.3c-.1,0-.2-.1-.2-.3s.1-.2.3-.2a.2.2,0,0,1,.2.2m-1.5-1.5c0,.2-.1.3-.2.3s-.3-.1-.3-.2.1-.3.2-.3S12.1,24.7,12.1,24.8ZM7.2,26.4a.2.2,0,0,1-.2.2.3.3,0,0,1-.3-.3c0-.1.1-.2.3-.2S7.2,26.2,7.2,26.4Zm3-3.2a.2.2,0,0,1,.2.2.3.3,0,0,1-.3.3c-.1,0-.2-.1-.2-.3S10,23.2,10.2,23.2Zm-2,1.7a.3.3,0,0,1,.3-.3c.1,0,.2.1.2.3a.2.2,0,0,1-.2.2C8.3,25.1,8.2,25,8.2,24.9Zm10.1-8.3-.3.8a14.6,14.6,0,0,1-3.7,5.2l-.3.2c-.1.1-.2.3-.4.1s.1-.3.2-.4L15,21.2a12.3,12.3,0,0,0,2.8-4.3.9.9,0,0,1,.1-.5.2.2,0,0,1,.4-.1C18.4,16.3,18.3,16.5,18.3,16.6Zm-15-.2a.4.4,0,0,1-.4.4c-.2.1-.4-.1-.4-.4a.4.4,0,0,1,.4-.4A.4.4,0,0,1,3.3,16.4ZM6.4,23a.3.3,0,0,1-.1.2H6l-.5-.4a36.6,36.6,0,0,1-4.4-4.4l-.5-.6a.2.2,0,0,1,0-.3c.2-.1.3,0,.4.1a40.8,40.8,0,0,0,4.6,4.7l.7.6C6.3,22.9,6.4,22.9,6.4,23Zm4.3,1.5L12,26l1,1.2.7.5c.2.2.4.1.5-.1l.5-1.2-3.2-2.8Zm-.5-2.1-4.6,4a9.3,9.3,0,0,0,.5,1c.2.5.3.5.7.2a4.6,4.6,0,0,0,.7-.7l1.2-1.4a2.6,2.6,0,0,1,1.4-1.1l.4-.3a2.7,2.7,0,0,0,.7-.8Zm8.6-7.2h-.1a7.7,7.7,0,0,0-2.1,1.4l-2.5,2.2-2.8,2.7-.8.6.5.5c0-.1,0-.1.1-.1a1,1,0,0,1,1.6,0,2.7,2.7,0,0,1,.7.8c.2.1.3.3.5.5l2.3-2.5a12.5,12.5,0,0,0,2.2-3.7A6.7,6.7,0,0,0,18.8,15.2ZM2.9,15H2.7L.3,17.2c-.4.3-.4.5-.1.8a.1.1,0,0,0,.1.1A42.5,42.5,0,0,0,5,22.9l1,.9.9-.7a3.1,3.1,0,0,1,1.5-.8.8.8,0,0,1,.8.1l.2.2c.1-.2.3-.3.5-.5C7.2,20,5.2,17.4,2.9,15Z" fill="#1a2026" fill-rule="evenodd"/>
        <g id="man">
          <path id="body" d="M33.1,9.7V9.4c-.1-1.1-.4-2.5-1.7-2.8H23.6c-1.3.3-1.7,1.7-1.7,2.8V16a1,1,0,0,0,1,1,1,1,0,0,0,.9-1V9.9h.8v6.7h0v9.8a1.2,1.2,0,0,0,1.2,1.2h0A1.2,1.2,0,0,0,27,26.3V16.5h1v9.8a1.2,1.2,0,0,0,1.2,1.2h0a1.2,1.2,0,0,0,1.2-1.2V16.5h0V9.8h.7V16a1,1,0,0,0,2,0V9.7Z" fill="#1a2026"/>
          <path id="head" d="M27.5,5.8a2.9,2.9,0,1,1,2.9-2.9A2.9,2.9,0,0,1,27.5,5.8Z" fill="#1a2026"/>
        </g>
      </g>
    </g>
  </g>
</svg>
