<svg xmlns="http://www.w3.org/2000/svg" viewBox="0 0 32 26.2"><path d="m12.4 12.8 1.7-4.2 2.5 2.8h3.5a1 1 0 0 0 1.1-1v-.2a1 1 0 0 0-1.1-1h-2.5L14.1 5H6.2L3.7 9.2a.9.9 0 0 0 .8 1.5 1.1 1.1 0 0 0 .9-.5L7 7.4h2.4l-1.9 4-.6 6.2H1a1.1 1.1 0 0 0-1 1v.5a1 1 0 0 0 1 1h7.1a1.4 1.4 0 0 0 1.4-1.2L10 14l4.4 9.2a1.1 1.1 0 0 0 .9.5h.8a1 1 0 0 0 1-1.4Zm18.8 11.8H19.4a.8.8 0 0 0 0 1.6h11.8a.8.8 0 0 0 0-1.6Zm0-2.8H19.4a.8.8 0 0 0 0 1.6h11.8a.8.8 0 1 0 0-1.6Zm0-2.8H19.4a.8.8 0 0 0 0 1.6h11.8a.8.8 0 0 0 0-1.6Z"/><path d="m19.8 17.5.8.2a20.8 20.8 0 0 0 3.5.1h7.1a.8.8 0 1 0 0-1.6H20.5a1.2 1.2 0 0 1-.4-1.7c.4-.7 2.6-1.9 4.1-2.6a2.1 2.1 0 0 1 2.2.5l.4-.3a2.4 2.4 0 0 0-2.4-.8l2.3-1.3-.2-.4-2.7 1.3a5 5 0 0 0 1.6-2.2h-.5a4.4 4.4 0 0 1-1.5 1.9c-.9.4-3.9 1.8-4.7 3.2a3.1 3.1 0 0 0-.3 2.1 2.6 2.6 0 0 0 1.4 1.6Z"/><circle cx="14.3" cy="2.2" r="2.2"/></svg>
