<svg xmlns="http://www.w3.org/2000/svg" viewBox="0 0 30.84 26.99"><defs><style>.cls-1{fill:#1a2026;}</style></defs><title>Camera Trap</title><g id="Layer_2" data-name="Layer 2"><g id="Layer_1-2" data-name="Layer 1"><path class="cls-1" d="M20.34,16.36a3.42,3.42,0,1,0,3.42,3.42A3.42,3.42,0,0,0,20.34,16.36Zm9-4.33H25.46L25,10.5c-.24-.79-.66-.9-1.5-.9H17.21c-.84,0-1.25.11-1.49.9L15.22,12H14V11.5a.3.3,0,0,0-.3-.31H11.91a.3.3,0,0,0-.3.31V12h-.25a1.52,1.52,0,0,0-1.52,1.52V25.47A1.52,1.52,0,0,0,11.36,27h18a1.52,1.52,0,0,0,1.52-1.52V13.55A1.52,1.52,0,0,0,29.32,12Zm-9,12.8a5,5,0,1,1,5.05-5A5,5,0,0,1,20.34,24.83Z"/><path class="cls-1" d="M13.63,0H2.78A2.77,2.77,0,0,0,0,2.78v8.15A2.77,2.77,0,0,0,2.78,13.7H13.63a2.77,2.77,0,0,0,2.78-2.77V2.78A2.78,2.78,0,0,0,13.64,0Zm1.28,8.75-3.6-1.64a.73.73,0,0,0-.74.07L7.24,9.57l-5.75-3V2.78A1.28,1.28,0,0,1,2.77,1.5H13.63a1.28,1.28,0,0,1,1.28,1.28Z"/><path class="cls-1" d="M6.17,2.49A2.25,2.25,0,1,0,8.42,4.74h0A2.24,2.24,0,0,0,6.17,2.49Z"/></g></g></svg>