<svg xmlns="http://www.w3.org/2000/svg" viewBox="0 0 40 40"><path d="M35.4,20.4a3.8,3.8,0,0,0-.5-1.5c-.3-.4-1.3-.5-1.7-.7s-.4-.3-.4-.9.4-1.8.1-1.8l-.7.8c0-.3.3-.8-.2-1a17.4,17.4,0,0,1-1.1,1.8,6.7,6.7,0,0,1-.6,1.5l-1.3.9-2.2,1.6a5,5,0,0,1-2,1.1l-5.1.7-4.2.7a21.3,21.3,0,0,0-3.3,1.1A15.2,15.2,0,0,0,9,25.9a13.2,13.2,0,0,0-2,1.2,8.7,8.7,0,0,0-.8,1.4c-.8,1.3-1.6,2.5-2.5,3.7s-.7.9-1.6,1.1a7.4,7.4,0,0,1-2.1.1c1.2.6,2.4,1.4,3.8,1.3A10.1,10.1,0,0,0,7,32.9a6.3,6.3,0,0,1-1.1,1.2c-.5.4-1.3.5-1.5,1.1A5.8,5.8,0,0,0,4.2,37a8.1,8.1,0,0,0,0,2.2c.2.7.9.7,1.6.7s.4.1.5-.4-.2-.4-.4-.8-.3-2.5.6-3.2a10.2,10.2,0,0,1,2.1-.9l2-.9c-.5.6-.9.9-1,1.7s.4.9.6,1.6.1,1.5.5,1.9a2.1,2.1,0,0,0,2,.5,2.6,2.6,0,0,0-.5-1.2c-.4-.4-.5-.4-.6-1a3,3,0,0,1-.2-1.3c0-.3.8-.7,1-.9l2.1-1.7c.6-.5,1.1-1.1,1.8-1.2a20.7,20.7,0,0,1,3.5.3h1.9a2.2,2.2,0,0,1,1.1.1c.5.2.5,1.7.6,2.2a12.4,12.4,0,0,0,.3,2.7l.3.3c.1.2.1.4.2.6a1.4,1.4,0,0,0,.7,1c.4.1.9-.1,1.3,0s.5.4.9.5a2.9,2.9,0,0,0,1.6,0c.3-.3-.2-.7-.4-.9a3.6,3.6,0,0,1-1-.7,4.9,4.9,0,0,1-.1-1.7,8.9,8.9,0,0,1,0-2.3,12.3,12.3,0,0,0,.2-1.9c.1-.3,0-1,.2-1.3s1.5-1.1,2-1.7a16.9,16.9,0,0,0,1.2-2.8,8.7,8.7,0,0,1,2-2.3c.8-.7,1.7-.6,2.7-.7s2.3-.4,2.2-1.4S36,20.8,35.4,20.4Z"/><path d="M39.7,1.9A2.6,2.6,0,0,0,39,.8,3.4,3.4,0,0,0,37.8.2l-2-.2H32.9a1.6,1.6,0,0,0-1.1.3,1.2,1.2,0,0,0-.4,1.1v8.7a1.7,1.7,0,0,0,.3,1,1.4,1.4,0,0,0,.9.3,1.1,1.1,0,0,0,.8-.3,1.8,1.8,0,0,0,.3-1.1V6.9h2.1A4.6,4.6,0,0,0,38.9,6,3.3,3.3,0,0,0,40,3.4,3.7,3.7,0,0,0,39.7,1.9ZM37.4,4.4a1.6,1.6,0,0,1-.8.6H33.7V1.7h1.5a3.4,3.4,0,0,1,2.1.5,2.1,2.1,0,0,1,.4,1.2A1.5,1.5,0,0,1,37.4,4.4Z"/></svg>
