<svg xmlns="http://www.w3.org/2000/svg" width="32.9" height="28.6" viewBox="0 0 32.9 28.6">
  <title>SMART - Carcass</title>
  <g id="Layer_2" data-name="Layer 2">
    <g id="Layer_1-2" data-name="Layer 1">
      <g>
        <path d="M31.7,2.5V5a10.8,10.8,0,0,1-.5,3.4,6.4,6.4,0,0,1-1.8,2.7l-1.7,1.3-.8.3h0l-.6-.3-1.4-.8a7.1,7.1,0,0,1-2.8-4.3,10.5,10.5,0,0,1-.3-3V2.4h1.5a8.5,8.5,0,0,0,3.6-1.2h0a8.5,8.5,0,0,0,3.6,1.2Zm-.3-1.1A10.7,10.7,0,0,1,26.9,0h0a10.3,10.3,0,0,1-4.4,1.4,3.3,3.3,0,0,1-1.4,0h-.5V3.7A21.5,21.5,0,0,0,21,7.4a9.3,9.3,0,0,0,3.5,5.3,9.5,9.5,0,0,0,1.7,1l.7.3h0l1-.4L30,12.1a7.5,7.5,0,0,0,2.2-3.4,13.2,13.2,0,0,0,.7-4.2c-.1-1.4-.1-2.4-.1-3.1A3.3,3.3,0,0,1,31.4,1.4Z" fill="#1a2026" fill-rule="evenodd"/>
        <g id="Layer_1-2-2" data-name="Layer 1-2">
          <path d="M1.6,15.4c-.2.1-.5,0-.7.2l-.6.7a1.3,1.3,0,0,0-.1,1.6c.3.5.9.9,1.4.7a1.7,1.7,0,0,1,1.8.5,22.3,22.3,0,0,1,2.7,2.6,31.7,31.7,0,0,1,3,3.4,2.7,2.7,0,0,1,1.1,2.1c-.1.6-.3,1.3.6,1.3s.4-.1.8.1a.6.6,0,0,0,.7-.6,1.2,1.2,0,0,1,.5-.7c.2-.2.2-.4.3-.6s1-.9.4-1.3l-.5-.5-.7-.2-1.2-.5a5.1,5.1,0,0,1-1.6-1.3l-2.1-2L5.1,18.3a3.2,3.2,0,0,1-1.2-1.8A2.2,2.2,0,0,0,3,15.2a.9.9,0,0,0-.5-.3c-.3-.1-.6.3-.8.5Z" fill="#1a2026"/>
          <path d="M14.7,15.8h-.1l-.3,1v.4a.4.4,0,0,0-.1.3c-.1.1-.1.2,0,.2h.1s-.1.1,0,.1.1.1.1.2a.1.1,0,0,0,0-.2c0-.2-.1-.2-.1-.2s-.1,0-.1-.1h.1c.1-.1,0-.1.1-.2v.3a.3.3,0,0,0,.1.2h0v.3a.4.4,0,0,1-.1.3l-.2.5a.4.4,0,0,0-.1.3c.1.1.2.2.2.3a.4.4,0,0,1,.1.3,1.7,1.7,0,0,0-.2.5h1.1c.1,0,.1,0,0-.1s-.1-.2-.1-.3h-.2v-.3a.4.4,0,0,1,.1-.3.6.6,0,0,1,.1-.4v.6h.1l.3.3a.4.4,0,0,1,.1.3v.2c0,.1,0,.1.2.1h.1c.1,0,.4.2.5,0H17v-.2h-.3V19.1c0-.1.1-.2.1-.4l.3-.3.2-.3a1.8,1.8,0,0,0,.9.8,4,4,0,0,0,1.9.2l1.1-.2.4.5h-.4l-.4.3c0,.1-.1.2-.1.3s.1.1.1.2h.1v.2l.2.2H21l.3-.3h.3v.2c-.1.1-.1.1-.1.2l.2.2h1.1v-.2a.1.1,0,0,0-.1-.1h-.2c0-.1-.1-.2-.1-.3v-.2a1.9,1.9,0,0,1,.2-.7l.4-.4c.1.1.1.1.2,0h.3l.3-.2h.1a.1.1,0,0,0,.1.1c0,.2.1.3.2.3s.7.7.7.8H25c.1.1.2.2.3.1h.4a.2.2,0,0,0,.2-.2H26a.3.3,0,0,0,.1-.2v-.3l.6-.5.4-.6v-.4a.1.1,0,0,0-.2,0l-.8.5h-.1l.2-.2h-.5l-.3-.3-.3-.4a1.3,1.3,0,0,1-.1-.6.8.8,0,0,0-.1-.4h.1c.1,0,.2,0,.4-.3a1,1,0,0,1,.1-.3h-.2l-.4.2v-.2h-.2v.2h-.4A.8.8,0,0,0,24,15a1.1,1.1,0,0,0-.7-.3H19.7l-1.2-.3h-.6l-.5.2h0a9.9,9.9,0,0,1-.2-1.7,3.5,3.5,0,0,0-.6-1.4,5,5,0,0,0-1.4-1.5,3.4,3.4,0,0,0-2.4-.5s-1.8.1-2-.2a1.1,1.1,0,0,0-1.2-.1H8.2s-.9-.1-1.1.1a2,2,0,0,0-.9.9,5.6,5.6,0,0,0-.5.8l-.6,1.4V13H4.2l.5.2H4.3l.6.2a2.4,2.4,0,0,0,1.2,2.2s1.2.2,1.1-.9-.2-.7-.6-.4.2.2,0,.2.3.4,0,.4-.5.3-.7-.8a2.2,2.2,0,0,1,.4-1.3H7l.2-.2s.6,0,.7-.2a1.2,1.2,0,0,0,.2.7s.7-.1.8-.3a6.8,6.8,0,0,1-.2,1.4l-.3,1.1a3,3,0,0,1-.4,1,4.1,4.1,0,0,0-.1,1.1,2.7,2.7,0,0,1-.4.7s-.4.2-.2.4,1.6.3,1.5-.1-.3-.5-.2-.6a6.9,6.9,0,0,1,.7-1.5,3.8,3.8,0,0,0,.9-1.3l.6,1.4a4.9,4.9,0,0,0,.4,1.1s.2.5-.1.6-.5.4-.3.5,1.5.3,1.5-.1a.6.6,0,0,0-.1-.4,1.3,1.3,0,0,1-.1-.6c0-.4-.1-.8-.1-1.1a13.2,13.2,0,0,1-.2-1.6v-.4a2.8,2.8,0,0,0,1.5.4l.7.2a.8.8,0,0,0,.4.4,1,1,0,0,1,.1.3Z" fill="#1a2026"/>
        </g>
      </g>
    </g>
  </g>
</svg>
