<svg xmlns="http://www.w3.org/2000/svg" viewBox="0 0 44.71 32"><defs><style>.cls-1{fill:#1a2026;}</style></defs><title>Carcass</title><g id="Layer_2" data-name="Layer 2"><g id="Layer_1-2" data-name="Layer 1"><path class="cls-1" d="M2.69,10.34c-.46.05-.84-.09-1.2.27a8.9,8.9,0,0,0-.91,1.12,2.21,2.21,0,0,0-.2,2.71c.46.72,1.5,1.45,2.34,1.13a3,3,0,0,1,2.95.82,38.46,38.46,0,0,1,4.43,4.32c1.73,1.74,3.34,3.58,4.92,5.46.78.93,1.94,2.1,1.69,3.46-.17,1-.38,2.13,1,2.17.6,0,.78-.16,1.36.12s1.1-.34,1.24-.9A1.76,1.76,0,0,1,21,29.83c.34-.27.35-.6.62-.93.46-.56,1.63-1.56.56-2.24-.34-.22-.55-.65-.88-.85a3.43,3.43,0,0,0-1.05-.3,8.24,8.24,0,0,1-2-.77,10.74,10.74,0,0,1-2.65-2.15c-1.14-1.1-2.28-2.2-3.38-3.34C10.4,17.33,10.17,17,8.34,15.07a5.84,5.84,0,0,1-1.85-2.93A4,4,0,0,0,5,10a2.38,2.38,0,0,0-.83-.62c-.54-.13-1.1.51-1.41.86l-.05.06Z"/><path class="cls-1" d="M24.11,11l-.07.11a4.51,4.51,0,0,0-.49,1.63c0,.09,0,.27,0,.27a1.93,1.93,0,0,1-.08.43c-.05.19-.16.36-.19.48s-.07.24.05.33.16.13.15.17-.1.06,0,.2a.88.88,0,0,1,.17.27s.16-.1.09-.35-.14-.3-.28-.37-.07,0-.05-.08.08-.13.14-.25,0-.12.06-.21,0,.31.06.37.09.27.1.36,0,.15,0,.23a.29.29,0,0,0,.06.16,1.75,1.75,0,0,1,.17.46,1.57,1.57,0,0,1-.14.52c-.13.35-.31.67-.38.83s-.15.29-.07.42.25.36.3.47a.66.66,0,0,1,.06.6c-.12.33-.29.58-.2.75s.28.13.35.13a.87.87,0,0,0,.59,0,1.67,1.67,0,0,0,.23,0,2.68,2.68,0,0,0,.4.05c.08,0,.08,0,.08,0l.16,0c.05,0,.11,0,0-.18a1.46,1.46,0,0,0-.29-.44.88.88,0,0,1-.24-.27,3,3,0,0,1-.06-.46,1.92,1.92,0,0,1,.13-.53c.07-.16.14-.41.21-.56s.17-.4.17-.4a2.48,2.48,0,0,1,0,.7,1.78,1.78,0,0,0,0,.62c0,.12.12.19.24.28a3.59,3.59,0,0,1,.52.49.56.56,0,0,1,.05.4,3.76,3.76,0,0,0-.11.38c0,.07,0,.2.24.17a2.65,2.65,0,0,0,.29,0c.05,0,.54.24.83,0,.11,0,.47.09.56,0s.08-.09.07-.14a2.73,2.73,0,0,0-.14-.31c0-.06,0-.09-.19-.13a.6.6,0,0,1-.3-.13,1.28,1.28,0,0,1-.2-.36c-.05-.18-.15-.36-.18-.45a2.6,2.6,0,0,1-.06-.56c0-.09.06-.47.1-.7a3.39,3.39,0,0,1,.09-.67,1.34,1.34,0,0,1,.48-.55.85.85,0,0,0,.36-.43,3.68,3.68,0,0,0,1.43,1.27,6.67,6.67,0,0,0,3.14.32,7.62,7.62,0,0,0,1.8-.37,9.73,9.73,0,0,0,.64.9.23.23,0,0,1,0,.13.14.14,0,0,0-.09.09c-.09-.05-.18-.06-.22,0a.55.55,0,0,0-.28-.14c-.07,0-.54.49-.61.57a.53.53,0,0,0-.13.4,1.68,1.68,0,0,0,.13.38.54.54,0,0,1,.15,0,.33.33,0,0,0,0,.36c.1.17.26.29.37.27a.52.52,0,0,0,.29-.16c.08-.06.32-.33.46-.42a2.05,2.05,0,0,0,.26-.18.9.9,0,0,0,.21,0,.14.14,0,0,1,0,.07,1.11,1.11,0,0,0-.17.2.74.74,0,0,0-.11.46c0,.09,0,.16.37.18a2.21,2.21,0,0,0,.59,0,1.39,1.39,0,0,0,.56.1,1,1,0,0,0,.37-.06s0-.1,0-.1a.51.51,0,0,0,.16,0c.05,0,.11,0,.09-.09a1.28,1.28,0,0,1-.13-.21.28.28,0,0,0-.17-.18,2.66,2.66,0,0,1-.34-.17,1.08,1.08,0,0,1-.24-.54,2.75,2.75,0,0,1,0-.31,4,4,0,0,1,.4-1.1,5,5,0,0,1,.58-.66.25.25,0,0,0,.36-.13s.23,0,.26,0a.27.27,0,0,0,.29.16c.15,0,.37-.14.4-.21s.07-.19.07-.19l.1-.07a2.25,2.25,0,0,1,.14.25.64.64,0,0,0,.35.5c.08.09,1.19,1.16,1.25,1.25a.65.65,0,0,0,.43.25.38.38,0,0,0,.51.15,3,3,0,0,1,.62-.09s.36,0,.42-.21a1.49,1.49,0,0,1,.17-.31c.06-.12.09-.21.05-.27s.23-.47.23-.52a3.87,3.87,0,0,0,1-.77,2.44,2.44,0,0,0,.6-1,2.93,2.93,0,0,0,0-.59c0-.07-.09-.28-.29,0a5,5,0,0,1-1.4.75,1.12,1.12,0,0,1-.35.05l0-.1h0A1.44,1.44,0,0,1,43,14.5c.25-.07.47-.27.19-.31s-.78,0-.78,0a2.85,2.85,0,0,0-.43-.53,2.81,2.81,0,0,1-.52-.64,2,2,0,0,1-.2-.87,2.35,2.35,0,0,0-.09-.71s0,0,.15,0,.35,0,.56-.49c.09-.12.22-.5.29-.56a.57.57,0,0,0,.1-.19.16.16,0,0,0-.1,0c-.06,0-.29.21-.43.27s-.63.23-.67.28,0-.21-.11-.25a.85.85,0,0,0-.23,0c-.1,0-.17-.07-.15,0a.21.21,0,0,1-.07.2.3.3,0,0,0-.07.12.25.25,0,0,1-.12,0s-.09-.19-.15-.22a1.71,1.71,0,0,0-.26-.07.27.27,0,0,1-.09-.12,2,2,0,0,0-.41-.81,2.34,2.34,0,0,0-1.1-.55c-.38-.06-.61,0-.86,0l-1-.1a3.19,3.19,0,0,0-1.45.14,2.13,2.13,0,0,1-.62.2,5.8,5.8,0,0,1-2-.17,14.9,14.9,0,0,1-2-.48,1.74,1.74,0,0,0-.95.07c-.13,0-.47.19-.85.31l.06.11a16,16,0,0,1-.35-2.81A4.43,4.43,0,0,0,27.3,4a12.26,12.26,0,0,0-2.25-2.46,5.91,5.91,0,0,0-4-.77S18.17.89,17.7.4A1.56,1.56,0,0,0,15.8.28a18.28,18.28,0,0,1-2.28.19S12,.24,11.61.51A4.09,4.09,0,0,0,10.27,2,4.23,4.23,0,0,0,9.43,3.3a19.24,19.24,0,0,0-1,2.42l-.19.56a5.51,5.51,0,0,1-1.28.16s0,.19.75.37a2.14,2.14,0,0,1-.7,0,2.11,2.11,0,0,0,1.07.33s-.14,2.72,2,3.58c0,0,2,.34,1.77-1.51,0,0-.3-1-1-.54,0,0,.28.21,0,.3,0,0,.47.58,0,.7,0,0-.86.37-1.1-1.3a3.11,3.11,0,0,1,.63-2.23l.37,0,.31.24a.42.42,0,0,0,.39-.28l.42-.21s1-.05,1.16-.33c0,0-.09.84.28,1.12,0,0,1.23-.23,1.39-.47a16.92,16.92,0,0,1-.41,2.19l-.54,1.88a8.77,8.77,0,0,1-.51,1.67,6.23,6.23,0,0,0-.3,1.72s-.21.93-.56,1.14c0,0-.77.4-.35.72,0,0,2.65.54,2.37-.21,0,0-.37-.72-.28-1a17.59,17.59,0,0,1,1.19-2.44,13.4,13.4,0,0,0,1.53-2.07s.82,1.95.91,2.21a7.91,7.91,0,0,0,.63,1.88s.32.77-.07,1c0,0-.89.58-.56.86,0,0,2.53.42,2.55-.16a1.12,1.12,0,0,0-.27-.68,1.84,1.84,0,0,1-.14-1.09A17.47,17.47,0,0,0,19.7,12s-.26-1.65-.28-2.48c0,0,.12-.65.23-.7A5.51,5.51,0,0,0,22,9.53s1.14.12,1.12.26a4.63,4.63,0,0,0,.7.67s.14.26.27.55Z"/></g></g></svg>