<svg xmlns="http://www.w3.org/2000/svg" viewBox="0 0 28 32"><path d="M24.2,27.1a9.8,9.8,0,0,1-4.6-.8l-2.2-.8c2.3-.8,4.3-1.5,5.3-1.7a9,9,0,0,1,3.1-.3c1.1-.1,2.6-.7,2.1-2.3s-.4-.5-.9-.8-.4-1-.7-1.4-1.8-.3-2.3.3a5.4,5.4,0,0,1-1.3,1.4A79.1,79.1,0,0,1,14,24.2a79.1,79.1,0,0,1-8.7-3.5A5.4,5.4,0,0,1,4,19.3c-.5-.6-1.6-1.3-2.3-.3s-.2,1-.7,1.4-.7.1-.9.8,1,2.2,2.1,2.3a9,9,0,0,1,3.1.3c1,.2,3,.9,5.3,1.7l-2.2.8a9.8,9.8,0,0,1-4.6.8C2.4,27,.5,26.2,0,28.4s.9,1.1,1.1,1.9a2,2,0,0,0,1.2,1.5c1.6.8,2-1.1,4-2L14,26.7l7.7,3.1c2,.9,2.4,2.8,4,2a2,2,0,0,0,1.2-1.5c.2-.8,1.2-1.2,1.1-1.9S25.6,27,24.2,27.1Z"/><path d="M22.4,12.7a2.5,2.5,0,0,1-.2-2.4,5.6,5.6,0,0,0,.6-3.4,7.6,7.6,0,0,0-2.1-4.6C18.4.1,16.2,0,14,0S9.6.1,7.3,2.3A7.6,7.6,0,0,0,5.2,6.9a5.6,5.6,0,0,0,.6,3.4,2.5,2.5,0,0,1-.2,2.4A2.8,2.8,0,0,0,5,14.3,1.9,1.9,0,0,0,6.1,16c.6.3.6.1,1.5.2s1.1.9,1.3,1.7.2,1.3.7,1.7a12.3,12.3,0,0,0,4.4.9,12.3,12.3,0,0,0,4.4-.9c.5-.4.5-1,.7-1.7s.5-1.6,1.3-1.7.9.1,1.5-.2A1.9,1.9,0,0,0,23,14.3,2.8,2.8,0,0,0,22.4,12.7ZM9.2,14.6a2.1,2.1,0,0,1-1.6-1.1,2.4,2.4,0,0,1-.3-1.6A2,2,0,0,1,9.2,10c1.2,0,3.5.1,3.7,1.7a2.6,2.6,0,0,1-1.3,2.6A4.7,4.7,0,0,1,9.2,14.6Zm6.3,3a1.2,1.2,0,0,1-1-.1l-.5-.2-.5.2a1.2,1.2,0,0,1-1,.1c-.3,0-.4-.6-.2-1.1A5.1,5.1,0,0,1,13,15c.2-.3.5-1,1-.7h0c.5-.3.8.4,1,.7a10.1,10.1,0,0,1,.7,1.5C15.9,17,15.8,17.6,15.5,17.6Zm4.9-4.1a2.1,2.1,0,0,1-1.6,1.1,4.7,4.7,0,0,1-2.4-.3,2.6,2.6,0,0,1-1.3-2.6c.2-1.6,2.5-1.7,3.7-1.7a2,2,0,0,1,1.9,1.9A2.4,2.4,0,0,1,20.4,13.5Z"/></svg>
