<svg xmlns="http://www.w3.org/2000/svg" viewBox="0 0 32 28.95">
    <defs>
        <style>.a{fill-rule:evenodd;}</style>
    </defs>
    <polygon class="a" points="8 17.52 0.48 20 0 25.14 4 28.38 10.67 28.38 13.9 24.38 12.95 18.7 8 17.52"/>
    <polygon class="a"
             points="14.48 20.29 15.59 25.91 16.83 28.95 27.65 28.95 30.95 25.43 28.76 20.86 21.05 16.29 14.48 20.29"/>
    <polygon class="a"
             points="18.29 15.52 18.29 11.81 11.62 6.67 5.33 11.24 4.11 16.59 8.95 15.33 14.48 17.52 18.29 15.52"/>
    <polygon class="a" points="20 12.1 20 14.38 28.09 18.7 32 16.29 30.95 11.05 22.71 9.81 20 12.1"/>
    <polygon class="a" points="18.95 9.81 13.9 5.81 17.33 0 23.62 1.43 26.49 4.91 26 8.19 22.16 7.91 18.95 9.81"/>
</svg>