<svg xmlns="http://www.w3.org/2000/svg" viewBox="0 0 31.74 32">
    <path d="M15.87,0C7.11,0,0,5.22,0,9.9V32H8.92l2.87-18.07H20.1l1.17,7.76,1.27-2.16.27-.45.51.12,2.65.6.24.05.15.19,1.21,1.46.21.25-.05.32-.21,1.38,0,.16,1.5.22.5.08.1.49L30,26.61l.1.49-.43.26-1.24.77.06,0,.09.2.92,1.92.22.45-.34.36-.86.91h3.18V9.9C31.74,5.22,24.64,0,15.87,0Z"/>
    <polygon points="19.25 27.5 16.28 28.48 16.11 30.38 17.63 31.61 20.25 31.61 21.48 30.09 21.13 27.95 19.25 27.5"/>
    <polygon points="27.8 28.83 24.73 27.01 22.21 28.54 22.65 30.75 23.1 31.86 27.41 31.86 28.63 30.55 27.8 28.83"/>
    <polygon points="23.34 24.98 20.75 22.98 18.31 24.76 17.9 26.57 19.65 26.11 21.95 27.02 23.34 26.29 23.34 24.98"/>
    <polygon points="24.51 25.09 24.51 25.81 27.68 27.51 29.08 26.64 28.7 24.74 25.49 24.26 24.51 25.09"/>
    <polygon points="23.27 20.15 22.01 22.29 23.86 23.75 25.14 23 26.62 23.11 26.78 22.03 25.68 20.7 23.27 20.15"/>
</svg>