<svg xmlns="http://www.w3.org/2000/svg" viewBox="0 0 48 19.98"><defs><style>.cls-1{fill:#1a2026;}</style></defs><title>Cheetah Sighting</title><g id="Layer_2" data-name="Layer 2"><g id="Layer_1-2" data-name="Layer 1"><path class="cls-1" d="M.38,2.53h0c1.85-1.11,3.45-.71,6.05.05L7,2.73c2.2.6,4.51-.76,6-1.66q.6-.38,1-.6a8.29,8.29,0,0,1,3.2-.4c1.9-.3,4.55.35,8,1.25,1.1.3,2.2.55,3.4.85h.05s1.65.61,4.4-.65a3.48,3.48,0,0,1,2.5-.2c.26,0,3,.1,4.81.3V1.57a0,0,0,0,1,0-.05c.35-.35.7-.45,1-.25a1.33,1.33,0,0,1,.5.7A4.39,4.39,0,0,1,43.3,3.53c.05.05.05.2.05.35,0,.4.2,1.2.55,1.4a.92.92,0,0,1,.25,1.1c-.15.55-.6,1.3-1.15,1.3a4.5,4.5,0,0,1-.8-.15A3.18,3.18,0,0,0,41,7.38a2.16,2.16,0,0,1-1.35-.5,3.37,3.37,0,0,0-1.8-.6c.4.85.85,1.7,1.15,2.25q.9,1.58,1,1.8c.5.3,4.2,2.45,5,3a1.19,1.19,0,0,0,1.65-.15.84.84,0,0,1,.55-.15c.45.1.7.7.75.8a.49.49,0,0,1,.1.3s-.65,1.7-2,1.7h-.2a47.41,47.41,0,0,1-6.5-2.75c-.75-.35-1.35-.65-1.65-.8-.05,0-.05,0-.1,0s-.65-.85-1.5-1.85h-.2c0,.35-.1,1.35,0,1.85a12,12,0,0,0,1.3,2.55c.6,1.15,1.2,2.2,1.35,2.65.15.65.65.75,1.2.8h.1a.54.54,0,0,1,.5.35,1,1,0,0,1-.15,1.05c-.2.3-.6.35-1,.35h-.85c-.6,0-1.2-1-1.35-1.35-.1-.15-.9-1.15-1.61-2-2.25-2.75-2.8-3.5-2.8-3.8a19.81,19.81,0,0,0-.5-2.25,6.56,6.56,0,0,1-4.8,0A11.93,11.93,0,0,1,24,8.28a6.73,6.73,0,0,0-2.5-1.75s-.7-.1-1.65,1.2c-.7.95-3,4-4.7,4a.63.63,0,0,1-.3-.05,18.64,18.64,0,0,1-3.76-2.15l-1-.65a30.48,30.48,0,0,1-3.65,3.4,1.11,1.11,0,0,1-.7.3.58.58,0,0,1-.35-.1.81.81,0,0,1-.3-1,5.35,5.35,0,0,1,1.05-1.6c-.85.5-1.5.8-1.9.7a.6.6,0,0,1-.5-.55c-.1-.65.8-1.6,1.25-1.85.2-.1.55-.3,1-.55A20.35,20.35,0,0,0,9.28,5.93a.79.79,0,0,1,.65-.2,1.45,1.45,0,0,1,.75.45l3.66.2a2.58,2.58,0,0,0-.1-.55,5.51,5.51,0,0,1,0-2.85,8.14,8.14,0,0,1-2.75,1.6,8.37,8.37,0,0,1-6.61-.1,6.8,6.8,0,0,0-1.1-.35,3.08,3.08,0,0,0-1.65,0,2.68,2.68,0,0,1-1.3,0c-.5-.1-.8-.3-.85-.6A1.11,1.11,0,0,1,.38,2.53ZM33,12.73a30.66,30.66,0,0,0,2.7,3.5,17.65,17.65,0,0,1,1.66,2.15c.25.55.7,1.1.9,1.1h.35c.3,0,1,.05,1.15-.1a.77.77,0,0,0,.1-.55s-.05,0-.1-.1h-.1A1.59,1.59,0,0,1,38,17.58,17.4,17.4,0,0,0,36.7,15a15.27,15.27,0,0,1-1.36-2.75c-.05-.55,0-1.5,0-1.9-.8-.05-2-.1-2.4-.1a1.82,1.82,0,0,0-.55.15A19.18,19.18,0,0,1,33,12.73Zm-27.26-.8a.56.56,0,0,0,.5-.15,27.87,27.87,0,0,0,3.5-3.25,2.08,2.08,0,0,0-.65-.35A3.48,3.48,0,0,0,8,8.73a11.71,11.71,0,0,0-2.4,2.8C5.58,11.73,5.63,11.88,5.73,11.93Zm5.46-5.3a5.25,5.25,0,0,0,2.25.8,1,1,0,0,0,.75-.25.54.54,0,0,0,.15-.35ZM.48,3.33s.1.15.5.25a1.9,1.9,0,0,0,1.1-.05,3.28,3.28,0,0,1,1.85.05c.35.1.75.25,1.15.4a7.74,7.74,0,0,0,6.26.1,8.45,8.45,0,0,0,2.75-1.6A3.25,3.25,0,0,1,14.74,2,.24.24,0,0,1,15,2c.1,0,.1.2.05.31a5,5,0,0,0-.35,3.4c.1.65.25,1.25-.15,1.75a1.39,1.39,0,0,1-1.3.45,4.88,4.88,0,0,1-2.76-1.3,1.21,1.21,0,0,0-.6-.5.37.37,0,0,0-.25,0A29,29,0,0,1,6.38,8c-.45.25-.85.4-1,.5a2.49,2.49,0,0,0-1,1.4s0,.1.15.15c.4.1,1.75-.75,2.65-1.35.25-.15.45-.3.7-.45a0,0,0,0,0,0-.05.15.15,0,0,1,.1,0c.6-.35.95-.55,1.2-.5A8.45,8.45,0,0,1,11.44,9,18.3,18.3,0,0,0,15,11.08c1,.25,3-1.7,4.5-3.75,1.1-1.55,2.05-1.45,2.15-1.4a6.85,6.85,0,0,1,2.75,1.9,13.84,13.84,0,0,0,3,2.25,6.33,6.33,0,0,0,4.75-.15,2.68,2.68,0,0,1,.9-.2c.45,0,1.85.1,2.65.15a20.07,20.07,0,0,0-2.55-2.7.25.25,0,1,1,.3-.4c1.05.7,4.11,4.65,4.51,5.15.3.15.9.4,1.6.75a49.58,49.58,0,0,0,6.35,2.7c.85.1,1.45-1,1.6-1.3a1.17,1.17,0,0,0-.35-.45.15.15,0,0,0-.1,0,1.73,1.73,0,0,1-2.25.2c-.8-.55-4.95-3-5-3s0-.05-.1-.1-.35-.55-1.05-1.9c-.35-.6-.85-1.6-1.3-2.5-.05,0-.05,0-.05-.1v0c-.45-1-.85-1.75-.85-1.8a.33.33,0,0,1,.1-.35.33.33,0,0,1,.35.1l.8,1.7a3.54,3.54,0,0,1,2.3.6,1.86,1.86,0,0,0,1.1.4,3.77,3.77,0,0,1,1.4.2,4,4,0,0,0,.65.15c.15,0,.5-.4.65-1,.05-.25.05-.5,0-.55-.55-.3-.7-1.2-.8-1.75a2.17,2.17,0,0,0-.05-.25,4.3,4.3,0,0,0-1.35-1.35l-.1-.1a1,1,0,0,0-.35-.56.54.54,0,0,0-.35.15,3.1,3.1,0,0,0-.45,1.46.25.25,0,0,1-.5,0,3.38,3.38,0,0,1,.3-1.26c-1.9-.2-4.61-.25-4.61-.25h-.05a3.3,3.3,0,0,0-2.2.1,0,0,0,0,0-.05.05c-2.8,1.31-4.55.76-4.75.66-1.2-.3-2.3-.56-3.35-.86C21.74.92,19.09.22,17.34.52h-.05a8.19,8.19,0,0,0-3,.35,7.22,7.22,0,0,0-1,.55c-1.45.91-4,2.41-6.36,1.76L6.33,3c-2.55-.7-4-1.11-5.6-.15C.58,3,.43,3.23.48,3.33Z"/><circle class="cls-1" cx="35.59" cy="13.83" r="0.25"/><circle class="cls-1" cx="34.79" cy="12.38" r="0.25"/><circle class="cls-1" cx="38.85" cy="2.88" r="0.25"/><circle class="cls-1" cx="37.2" cy="2.83" r="0.25"/><circle class="cls-1" cx="37.45" cy="8.88" r="0.25"/><circle class="cls-1" cx="36.85" cy="7.03" r="0.25"/><ellipse class="cls-1" cx="35.75" cy="5.83" rx="0.5" ry="0.35"/><circle class="cls-1" cx="35.69" cy="4.18" r="0.25"/><ellipse class="cls-1" cx="35.59" cy="2.73" rx="0.5" ry="0.35"/><circle class="cls-1" cx="33.84" cy="2.53" r="0.25"/><circle class="cls-1" cx="33.84" cy="3.68" r="0.25"/><ellipse class="cls-1" cx="33.99" cy="4.83" rx="0.5" ry="0.35"/><circle class="cls-1" cx="27.14" cy="3.43" r="0.25"/><circle class="cls-1" cx="30.19" cy="3.68" r="0.25"/><circle class="cls-1" cx="32.19" cy="4.98" r="0.25"/><ellipse class="cls-1" cx="31.94" cy="3.68" rx="0.5" ry="0.35"/><circle class="cls-1" cx="30.94" cy="5.93" r="0.25"/><ellipse class="cls-1" cx="30.04" cy="4.98" rx="0.5" ry="0.35"/><ellipse class="cls-1" cx="29.24" cy="6.28" rx="0.45" ry="0.35"/><circle class="cls-1" cx="28.49" cy="5.13" r="0.25"/><ellipse class="cls-1" cx="28.59" cy="3.88" rx="0.5" ry="0.35"/><ellipse class="cls-1" cx="27.29" cy="6.43" rx="0.45" ry="0.35"/><ellipse class="cls-1" cx="27.14" cy="4.88" rx="0.5" ry="0.35"/><ellipse class="cls-1" cx="25.64" cy="5.48" rx="0.45" ry="0.35"/><circle class="cls-1" cx="25.89" cy="3.98" r="0.25"/><ellipse class="cls-1" cx="25.59" cy="2.53" rx="0.5" ry="0.35"/><ellipse class="cls-1" cx="24.49" cy="3.98" rx="0.45" ry="0.35"/><circle class="cls-1" cx="24.14" cy="2.53" r="0.25"/><ellipse class="cls-1" cx="22.84" cy="3.28" rx="0.45" ry="0.35"/><ellipse class="cls-1" cx="22.89" cy="1.92" rx="0.5" ry="0.35"/><circle class="cls-1" cx="13.84" cy="9.53" r="0.25"/><circle class="cls-1" cx="17.14" cy="2.22" r="0.25"/><ellipse class="cls-1" cx="17.14" cy="3.88" rx="0.45" ry="0.35"/><circle class="cls-1" cx="17.89" cy="6.53" r="0.25"/><ellipse class="cls-1" cx="18.79" cy="1.77" rx="0.45" ry="0.35"/><circle class="cls-1" cx="21.49" cy="2.38" r="0.25"/><ellipse class="cls-1" cx="20.59" cy="1.42" rx="0.5" ry="0.35"/><circle class="cls-1" cx="20.74" cy="4.23" r="0.25"/><ellipse class="cls-1" cx="20.24" cy="2.93" rx="0.45" ry="0.35"/><ellipse class="cls-1" cx="19.39" cy="5.98" rx="0.45" ry="0.35"/><ellipse class="cls-1" cx="19.24" cy="4.58" rx="0.45" ry="0.35"/><circle class="cls-1" cx="18.89" cy="3.33" r="0.25"/><ellipse class="cls-1" cx="18.04" cy="7.68" rx="0.45" ry="0.35"/><ellipse class="cls-1" cx="17.54" cy="5.28" rx="0.45" ry="0.35"/><ellipse class="cls-1" cx="16.84" cy="8.98" rx="0.45" ry="0.35"/><circle class="cls-1" cx="16.49" cy="7.23" r="0.25"/><ellipse class="cls-1" cx="16.19" cy="1.17" rx="0.35" ry="0.25"/><circle class="cls-1" cx="15.89" cy="10.18" r="0.25"/><ellipse class="cls-1" cx="15.24" cy="9.23" rx="0.45" ry="0.35"/><ellipse class="cls-1" cx="14.64" cy="1.27" rx="0.35" ry="0.25"/><circle class="cls-1" cx="13.54" cy="2.12" r="0.25"/><circle class="cls-1" cx="12.14" cy="2.88" r="0.25"/><path class="cls-1" d="M41.2,2.28a.25.25,0,0,1,0,.35.8.8,0,0,0-.15.55.27.27,0,0,1-.2.3h0a.33.33,0,0,1-.25-.2,1.44,1.44,0,0,1,.2-.9C41,2.22,41.1,2.17,41.2,2.28Z"/><path class="cls-1" d="M42.71,7.47a3.5,3.5,0,0,0,.56.13h0s0,0,0,0a.74.74,0,0,1,.18,0h-.06a5.66,5.66,0,0,1-.87-.3c.07-.14.3-.55.41-.78a1.91,1.91,0,0,0,.21-.81,4.12,4.12,0,0,0-.73-.88c0-.12.06-.25,0-.29.12,0,.33-.08.31-.12s0-.1-.08-.1l-.23,0c0-.17-.1-.51-.15-.51s-.23,0-.15.07a.8.8,0,0,1,.11.47l-.48.1s0,.08.05.1l.51.3s.18.23.35.44.25.26.27.41a.74.74,0,0,1-.19.48c-.11.14-.53.57-.73.77"/><path class="cls-1" d="M42.14,4.51c-.08,0-.15,0-.15-.08s.07-.07.15-.07.15,0,.15.07S42.22,4.51,42.14,4.51Z"/></g></g></svg>
