<svg xmlns="http://www.w3.org/2000/svg" viewBox="0 0 40 23.16"><defs><style>.cls-1{fill:#1a2026;}</style></defs><title>Conflict</title><g id="Layer_2" data-name="Layer 2"><g id="Layer_1-2" data-name="Layer 1"><path class="cls-1" d="M34.89,0a2.36,2.36,0,1,1-2.36,2.36A2.36,2.36,0,0,1,34.89,0ZM40,7.27v5.22a1,1,0,1,1-2,0V8.13a.19.19,0,0,0-.19-.2.2.2,0,0,0-.2.2V22a1.18,1.18,0,1,1-2.36,0V15.12a.39.39,0,1,0-.78,0V22a1.18,1.18,0,1,1-2.36,0V7.25h0a.19.19,0,0,0-.19-.17H27.58a1,1,0,0,1-.92-1.32L26,5.11H21.54V3.93h.39V3.54h.4v.39H28l.39.39v.79h9.48A2.16,2.16,0,0,1,40,7.27ZM26.8,5.5a1,1,0,0,1,.38-.31V5.11H26.4l.39.39ZM5.11,0A2.36,2.36,0,1,0,7.47,2.36,2.36,2.36,0,0,0,5.11,0ZM0,7.27v5.22a1,1,0,1,0,2,0V8.13a.19.19,0,0,1,.19-.2.2.2,0,0,1,.2.2V22a1.18,1.18,0,1,0,2.36,0V15.12a.39.39,0,1,1,.78,0V22a1.18,1.18,0,0,0,2.36,0V7.25h0a.19.19,0,0,1,.19-.17h4.36a1,1,0,0,0,.92-1.32L14,5.11h4.46V3.93h-.39V3.54h-.4v.39H12l-.39.39v.79H2.16A2.16,2.16,0,0,0,0,7.27ZM13.2,5.5a1,1,0,0,0-.38-.31V5.11h.78l-.39.39Z"/></g></g></svg>