<svg xmlns="http://www.w3.org/2000/svg" viewBox="0 0 32.28 28"><defs><style>.cls-1,.cls-2{fill:#1a2026;}.cls-2{fill-rule:evenodd;}</style></defs><title>Contact</title><g id="Layer_2" data-name="Layer 2"><g id="Layer_1-2" data-name="Layer 1"><circle class="cls-1" cx="26.1" cy="2.85" r="2.85"/><path class="cls-1" d="M29.66,6.18H18.21V5.23l-.47-.48H10.91V4.28h-.47v.47H10V6.18h5.4l.79.78a1.11,1.11,0,0,0-.08.41,1.18,1.18,0,0,0,1.19,1.18h5.28a.25.25,0,0,1,.23.21h0V26.57a1.43,1.43,0,1,0,2.85,0V18.28a.48.48,0,0,1,.48-.48.47.47,0,0,1,.47.48v8.29a1.43,1.43,0,0,0,2.86,0V9.83a.23.23,0,0,1,.23-.24.24.24,0,0,1,.24.24V15.1a1.19,1.19,0,1,0,2.38,0V8.79A2.61,2.61,0,0,0,29.66,6.18Zm-13.35.47-.48-.47h1v.1a1.14,1.14,0,0,0-.47.37Z"/><polygon class="cls-2" points="5.88 13.21 0 10.26 0 17.32 5.88 20.26 11.77 17.32 11.77 10.26 5.88 13.21"/><polygon class="cls-2" points="11.77 18.5 11.77 22.32 5.88 25.26 0 22.32 0 18.5 5.88 21.44 11.77 18.5"/></g></g></svg>