<svg xmlns="http://www.w3.org/2000/svg" viewBox="0 0 32 18.7"><path d="M.1,14.2a4.3,4.3,0,0,0,.8-1.8,1.5,1.5,0,0,0-.2-1.2,33.5,33.5,0,0,1,0-4.5c0-.3.1-.6.1-.9.1,2.9.9,3.8.7,5h0a7.4,7.4,0,0,0-.2,1.2l-.3,1c-.1.6.1,1.6.1,3.2a9.2,9.2,0,0,1,.1,1.5h0a1.3,1.3,0,0,1,.1.6h0a.1.1,0,0,0,.1.1H2.9c-.1,0-.1,0-.1-.1h0a.3.3,0,0,0-.1-.2h0c-.1-.2-.1-.3-.2-.3h0a11.9,11.9,0,0,1,.2-3.5c.1-.4.6-.7,1.3-1.3H4c0,.6.2,1.7.4,3.3a10.5,10.5,0,0,0,.3,2h0a.3.3,0,0,1,.1.2H6.3a.1.1,0,0,1-.1-.1h0a.3.3,0,0,0-.1-.2H6a10.5,10.5,0,0,1-.1-3.5c0,.1.1.1.2.1s.3-.1.2-.4-.1-.3,0-.4l.3-.2h.5l.2.4c0,.1.2.2.4.1s.2-.2,0-.4a.5.5,0,0,1-.2-.4c.1-.1.2-.1.2-.2a4.1,4.1,0,0,0,.9-1l3.1.4a24,24,0,0,0,5.7-.2c0,1.1,0,2.7.1,4a10.3,10.3,0,0,0,.1,1.9h0v.4h1.5c0-.1-.1-.2-.1-.3h0a14.9,14.9,0,0,1,.1-3.6c.1.7.2,1.4.3,1.8s.1,1.4.2,1.9h0a.8.8,0,0,0,.1.4h0a.1.1,0,0,1,.1.1h1.4l-.2-.4h0a20.1,20.1,0,0,1-.1-2.6,10.7,10.7,0,0,1,.6-3,1.4,1.4,0,0,1,1-.7A5.8,5.8,0,0,0,25,8.6c.7-1.3,1.7-3.1,2.9-2.9s3,.4,3.5.1.8-.8.5-1.1L30.6,3.2c0-.1,0-.2-.1-.2s-.3-1-.7-1.5l-.4-.4L30,.8c.4-.1.4-.2.1-.2a1.6,1.6,0,0,0-1.2.2h-.1a1.2,1.2,0,0,1,.6-.6c.4-.1.4-.2.1-.2a1.3,1.3,0,0,0-1.2.7h-.6c-.3-.2-.7-.5-.8-.4s-.1.4-.1.6l-1.3.3a4.1,4.1,0,0,1-1.5.2H22.9l-1.6-.2-2-.2H16.4l-1.1.3H9.2L7.6,1.5H5.1a5.2,5.2,0,0,0-1.7.2l-.5.2H2.6l-.7.4C1,2.9.4,3.8.3,6.1a26,26,0,0,0,.2,5c-.4.3-.4,1.1-.4,1.6S-.1,14.4.1,14.2Z"/></svg>
