<svg xmlns="http://www.w3.org/2000/svg" width="33.1" height="33.1" viewBox="0 0 33.1 33.1">
  <title>Crossing</title>
  <g id="Layer_2" data-name="Layer 2">
    <g id="Layer_1-2" data-name="Layer 1">
      <g>
        <g>
          <path d="M4.7,18.1h0a2.1,2.1,0,0,1-1.6-.6.2.2,0,0,1,0-.3l.7-1h.3a.9.9,0,0,0,.6.3l.2.2v1.1c0,.1,0,.2-.1.2A.1.1,0,0,1,4.7,18.1Zm.8-.1H5.3c0-.1-.1-.1-.1-.2L5,16.7l.2-.3a.7.7,0,0,0,.5-.4h.4l.8.8a.2.2,0,0,1,0,.3,1.9,1.9,0,0,1-1.4.9ZM2.8,16.8H2.5l-.3-1.2c0-.2,0-.3.1-.3l1.1-.3h.2v.2c0,.2.1.4.1.6s.1.2,0,.2l-.9.9Zm4.3-.4H7l-1-.7c-.1,0-.1-.1-.1-.2v-.8h.2l1.1.2.2.2a5.3,5.3,0,0,1-.1,1.3H7.1Zm-2.3-.2H4.4a.3.3,0,0,1-.1-.2v-.2c-.1-.1,0-.1.1-.2h.2v-.2h.3c.1-.1.2,0,.2.1v.2h.4v.2a.2.2,0,0,1-.2.2H5.2V16a.1.1,0,0,1-.1.1H4.8ZM5,16Zm-.4-.2Zm-.2-.3Zm.7-.2Zm-.4-.1Zm.2-.1Zm-2.6-.2H2.2c-.1,0-.1-.1-.1-.2a1.5,1.5,0,0,1-.1-.7v-.2h.2l1.1.2.2.2h0v.5c0,.1,0,.2-.2.2l-1.1.2Zm2.4-.4H4.5v-.2H4.1v-.2l.2-.2h.1v-.2h.9V14c.1.1,0,.1-.1.2H5v.2H4.7Zm0-.1Zm.2-.1Zm.1-.1Zm.2-.4ZM5,13.7Zm-.4-.2Zm1.5,1-.2-.2a.9.9,0,0,0-.1-.5c0-.1.1-.2.2-.3l1.1-.3h.2c0,.1.1.1.1.2s.1.5.1.8a.1.1,0,0,1-.1.1H6.1ZM2.2,12.2H2.1L1.9,12a4.3,4.3,0,0,1-.1-.5c-.1,0-.1-.1,0-.1v-.2L3,10.9c.1-.1.2,0,.3.1s.1.3.1.5,0,.2-.1.3h0l-.8.3H2.2Zm4.7-.4h0l-1.2-.2-.2-.2v-.6c0-.1,0-.1.1-.2h.2l1.1.2.2.2v.7Zm-2.4-.7H4.4v-.2H4v-.2c0-.1,0-.2.1-.2h.2v-.2l.2-.2h.3v.2h.3v.4H4.9v.2c0,.1,0,.2-.1.2H4.5Zm-.1-.3Zm-.2-.2Zm.9-.1Zm-.9-.1Zm.3-.3Zm.1,0Zm-3,.8H1.4c-.1-.2-.2-.3-.2-.5s-.1-.1,0-.2h.1l1.2-.3a.2.2,0,0,1,.2.2l.3.5v.2H2.8l-1.1.2Zm4.2-.5H5.6v-.2h0a2.5,2.5,0,0,1,.2-.7c0-.1.1-.2.2-.1H7.3c.1,0,.1.1.1.2l-.2.5a.2.2,0,0,1-.2.2ZM3.9,9.7H3.7V9.4H3.3V8.9h.3V8.7l.2-.2h.3v.2h.3v.4H4.2v.2c0,.1,0,.2-.1.2Zm0-.2Zm-.2-.1Zm-.2-.2Zm.9-.1Zm-.7-.2Zm.5-.1ZM.9,9.7.7,9.5.5,9.1V8.9H2.2c0,.2.2.4.3.6H.9Zm5.3-.6H6a.1.1,0,0,1,0-.2H6l.2-.5H7.8v.3l-.2.4L7.4,9ZM1.7,8.5H.4a.2.2,0,0,1-.2-.2c0-.2-.1-.4-.1-.6V7.4H1.5l.2.2h0a1.4,1.4,0,0,0,.2.6c0,.1,0,.2-.1.2Zm3.4-.1a.2.2,0,0,1-.2-.2H4.5V7.7c0-.1.1-.1.2-.2h.1c0-.1,0-.1.1-.2h.5v.2h.3v.2c.1.1,0,.2-.1.2H5.4v.2c0,.1,0,.2-.1.2Zm0-.2ZM4.9,8Zm-.2-.1Zm.9-.1Zm-.7-.3Zm.5,0Zm-.2-.2Zm-2.3,1c-.1,0-.2,0-.2-.1V8H2.4V7.7c-.1-.1,0-.2.1-.2h.2V7.3h0a.1.1,0,0,1,.1-.1H3l.2.2h.4v.2c0,.1-.1.1-.2.1H3.3a.2.2,0,0,1-.2.2ZM2.7,8Zm.7-.2Zm-.9-.1Zm.3-.4Zm3.8.6H6.4a.1.1,0,0,1,0-.2h0A1.3,1.3,0,0,1,6.5,7l.2-.2H8v.2c0,.2-.1.4-.1.6l-.2.2-1.2.2ZM1.4,7.2H1.3L.2,6.9,0,6.7V5.8H.3l1.2.3c.1,0,.1.1.1.2h0v.6c0,.1,0,.2-.1.2A.1.1,0,0,1,1.4,7.2Zm1.2-.3H2.4V6.6H2.2V6.2c0-.1.1-.1.2-.1h.2c-.1-.1,0-.2.1-.2h.4V6h.4v.2c0,.1,0,.1-.1.2H2.9v.2H2.9c0,.1,0,.1-.1.1Zm0-.2Zm.2,0Zm.3-.4Zm0-.2ZM2.9,6Zm-.2-.2ZM5.3,6.9l-.2-.2H4.9l-.2-.2V6.2a.1.1,0,0,1,.1-.1H5c0-.1.1-.1.1-.2h.5V6h.3v.2c0,.1,0,.1-.1.1H5.6v.2c.1.1,0,.2-.1.2Zm.2-.2Zm-.4-.2Zm-.2-.3Zm.3-.3Zm1.5.8H6.6c-.1,0-.1-.1-.1-.2V5.8h0c0-.1,0-.2.1-.2l1.1-.4h.2a.1.1,0,0,1,.1.1H8a.4.4,0,0,0,.1.3v.4a.2.2,0,0,1-.2.2l-1.1.4ZM1.5,5.9H1.4L.2,5.3A.2.2,0,0,1,0,5.1a1.7,1.7,0,0,0,.1-.7H.5l1.2.6v.2a1.3,1.3,0,0,0-.1.6c0,.1-.1.1-.1.2Zm3.3-.4H4.7V5.1H4.3V4.8h0a.1.1,0,0,1,.1-.1h.2V4.4H5c.1,0,.1,0,.1.1h.3a.1.1,0,0,1,.1.1v.2H5.2v.2H4.8Zm0-.2Zm.3-.2ZM4.5,5Zm.8-.1Zm-.9-.1Zm.2-.2Zm.1-.2Zm.2,0ZM3,5.4a.1.1,0,0,1-.1-.1V5.1H2.5V4.7c0-.1,0-.1.1-.1h.2V4.2h.5v.2h.4v.2a.3.3,0,0,1-.1.2H3.4v.2H3Zm.2-.2Zm-.5-.3Zm.8-.3h0Zm-.4-.3ZM6.6,5.4H6.5c0-.1-.1-.1-.1-.2h0c0-.2-.1-.3-.1-.5s0-.2.1-.2l1-.7h.3a.3.3,0,0,1,.1.2c0,.2.1.4.1.6s0,.2-.1.2l-1.1.6ZM1.7,4.7a.1.1,0,0,1-.1-.1L.4,3.7C.3,3.6.3,3.6.3,3.5l.3-.7a.2.2,0,0,1,.2-.2H1l1,1a.4.4,0,0,1,.1.3h0c-.1.1-.1.3-.2.5H1.7Zm4.7-.5H6.3a.1.1,0,0,1-.1-.1h0c-.1-.1-.1-.3-.2-.4s0-.2.1-.2l.8-1h.2c.1,0,.2,0,.2.1a1.4,1.4,0,0,1,.2.7c.1,0,0,.1,0,.2l-1,.9ZM4,4c-.1,0-.2,0-.2-.1V3.7H3.5V3.4c-.1-.1,0-.1,0-.1h.3V3c0-.1,0-.2.1-.2h.2a.2.2,0,0,1,.2.2h.2l.2.2v.2a.1.1,0,0,1-.1.1.1.1,0,0,1-.1.1H4.4c0,.1,0,.1-.1.2H4Zm.2-.2Zm-.5-.2Zm.8-.1Zm-.9-.1Zm.9-.1Zm-2.3.2H2L1.1,2.1a.2.2,0,0,1,0-.3l.5-.7H2l.7,1.4c.1.1.1.2,0,.2l-.3.5-.2.2Zm3.7-.4c-.1,0-.1-.1-.2-.2h0l-.3-.4c-.1-.1-.1-.2,0-.2L5.8.9,6,.7c.1,0,.2,0,.2.1l.6.7v.2L6.1,2.9a.2.2,0,0,1-.2.2ZM3.1,2.4H2.8L2.4.8c-.1-.2,0-.3.1-.3A1.1,1.1,0,0,1,3.3.2h.3l.3,1.5c0,.2,0,.3-.2.3h0l-.5.3ZM5,2.1H4.1V.2h.3l1,.2c.1,0,.1.1.1.2L5.2,1.9a.3.3,0,0,1-.1.2Zm-.7-.2Zm-.1-.1Z" fill="#1a2026"/>
          <path d="M12.4,22.2h.1a2.5,2.5,0,0,0,1.5-.5.4.4,0,0,0,.1-.3l-.7-1H13a.8.8,0,0,1-.6.2l-.2.3V22c0,.1,0,.1.1.2Zm-.8,0h.3l.2-1.1c0-.2,0-.3-.1-.3a.7.7,0,0,1-.5-.4h-.4l-.9.8a.3.3,0,0,0,0,.4,2.2,2.2,0,0,0,1.4.8ZM14.4,21h0c.1,0,.2,0,.2-.1a3.4,3.4,0,0,0,.4-1.2c0-.1,0-.3-.2-.3l-1-.3c-.1-.1-.1-.1-.2,0h-.1a6.4,6.4,0,0,1-.2.7.3.3,0,0,0,.1.2l.8.9ZM10,20.6h.2l1-.6v-.3c-.1-.1-.1-.4-.1-.6s0-.1,0-.2H11l-1.1.2a.2.2,0,0,0-.2.2,5.3,5.3,0,0,0,.1,1.3h.1A.1.1,0,0,1,10,20.6Zm2.4-.3h.1V20h.2c.1,0,.2,0,.2-.1v-.2c0-.1,0-.2-.1-.2h-.2v-.2h-.3a.2.2,0,0,0-.2.2h-.2a.2.2,0,0,0-.2.2v.2H12v.2h.4Zm-.2-.2Zm.3-.1Zm.2-.3Zm-.6-.2Zm.3-.2Zm-.1,0Zm2.6-.2A.1.1,0,0,0,15,19a.1.1,0,0,0,.1-.1c0-.3.1-.5.1-.8s0-.1-.1-.2H13.8a.2.2,0,0,0-.2.2h0v.5c-.1.1,0,.2.2.2l1.1.2Zm-2.4-.4h.2v-.2h.4v-.2a.3.3,0,0,0-.1-.2h-.2v-.2h-.5v.2h-.3v.2c0,.1,0,.2.1.2h.2v.2c0,.1,0,.2.1.2Zm0-.2Zm-.2,0Zm-.1-.2ZM12,18Zm.2-.2Zm.4-.1Zm-1.5.9a.2.2,0,0,0,.2-.2,4.3,4.3,0,0,0,.1-.5.2.2,0,0,0-.2-.2l-1.1-.4H9.8a2.2,2.2,0,0,1-.1.8h.1a.1.1,0,0,0,.1.1Zm4-2.2h.1a.3.3,0,0,0,.1-.2c.1-.1.1-.3.2-.4v-.2h-.1l-1.1-.4c-.1-.1-.2,0-.3.1l-.2.5c0,.1,0,.2.2.3h0l.8.3h.3Zm-4.7-.5h0l1.2-.2.2-.2v-.6h-.3l-1.1.2-.2.2a.9.9,0,0,1-.1.5v.2Zm2.3-.6c.1,0,.1,0,.1-.1h.5v-.2H13a.2.2,0,0,0-.2-.2h-.3v.2h-.3v.2h.3v.4Zm.2-.4Zm.2-.1Zm-.9-.1Zm.9-.1Zm-.3-.3Zm-.1-.1Zm3,.9h.2c.1-.1.1-.3.2-.4s.1-.2,0-.2,0-.2-.1-.2l-1.1-.3c-.2,0-.3.1-.3.2l-.3.5v.2h.2l1.1.2Zm-4.2-.6h.2v-.2h0a1.4,1.4,0,0,0-.2-.7l-.2-.2H10c-.1,0-.1.1,0,.2a4.3,4.3,0,0,0,.1.5.2.2,0,0,0,.2.2Zm2-.6h.1v-.2h.3v-.4h-.3c0-.1,0-.2-.1-.2h-.2c-.1,0-.2,0-.2.1V13h-.4v.2h.3v.2c0,.1,0,.2.1.2h.3Zm-.1-.2Zm.2-.1Zm.2-.2Zm-.8-.1Zm.7-.3Zm-.5,0Zm3.2.9h.2a.8.8,0,0,1,.2-.4v-.2h-.2l-1.2-.2h-.2l-.3.6h1.5Zm-5.3-.7h.2a.4.4,0,0,0,.1-.3h-.1c0-.1-.1-.3-.1-.4l-.3-.2H9.6v.2c.1.2.1.4.2.5l.2.2Zm4.6-.4h1.2l.2-.2c.1-.2.1-.4.2-.6s0-.2-.1-.2H15.9a.2.2,0,0,0-.2.2h0c-.1.2-.1.4-.2.6a.2.2,0,0,0,0,.3Zm-3.4-.3h.1v-.2h.4v-.2c0-.1,0-.2-.1-.2h-.2v-.2h-.4v.2h-.2a.2.2,0,0,0-.2.2V12h.3v.2Zm-.1-.1Zm.3-.2Zm.1-.1Zm-.8-.1Zm.7-.3Zm-.5,0Zm.2-.2Zm2.2,1h.2v-.2H15v-.4h-.2v-.2h-.4v.2h-.4V12h.3c0,.1,0,.2.1.2Zm.2-.3Zm-.7-.2Zm.9-.1Zm-.3-.4Zm-3.7.5h.1c.1,0,.1-.1.1-.2h0c0-.2-.1-.3-.1-.5a.2.2,0,0,0-.2-.2l-1.1-.2H9.4V11a1.3,1.3,0,0,0,.1.6v.2l1.2.2Zm5.2-.6h0l1.2-.2.2-.3v-.6c0-.1,0-.1-.1-.2h-.2l-1.2.2a.4.4,0,0,0-.1.3h0a1.3,1.3,0,0,1-.1.6v.2Zm-1.2-.3h.1v-.2h.1c.1,0,.2,0,.2-.1v-.2c.1-.1,0-.2-.1-.2H15v-.2c0-.1,0-.2-.1-.2h-.4v.2h-.2c-.1,0-.2,0-.2.1v.4h.3v.2h.4Zm0-.2Zm-.2,0Zm-.3-.4Zm0-.2h0Zm.2-.1Zm.2-.2Zm-2.6,1h.2v-.2h.3v-.2h-.1a.1.1,0,0,0-.1-.1h-.2V10H12l-.2.2h-.3c0,.1-.1.1-.1.2v.2h.3l.2.2Zm-.2-.1Zm.4-.2Zm.2-.3Zm-.3-.4Zm-1.6.8h.2V10h0c0-.1,0-.2-.1-.2L9.7,9.3H9.5v.2h0a.4.4,0,0,1-.1.3v.3l.2.3,1.1.4Zm5.3-.7H16l1.2-.5a.2.2,0,0,0,.2-.2,2,2,0,0,1-.1-.7V8.5H17l-1.2.6-.2.3a.7.7,0,0,1,.1.5v.2Zm-3.3-.5h.2V9.3H13a.1.1,0,0,0,.1-.1V8.8h-.3V8.6h-.6v.2H12a.1.1,0,0,1-.1.1v.4h.2v.2l.2.2Zm0-.2Zm-.3-.2Zm.6-.1ZM12.1,9ZM13,9Zm-.2-.2Zm-.1-.2Zm-.2-.1Zm1.9,1.1h.1V9.3h.3V9c.1-.1,0-.2-.1-.2h-.2V8.6h-.5v.2h-.2c-.1,0-.2,0-.2.1V9l.2.2H14v.2h.4Zm-.2-.2Zm.5-.3Zm-.8-.3Zm.4-.3Zm-3.5,1h.1V9.3h0a4.3,4.3,0,0,0,.1-.5c0-.1,0-.2-.1-.2l-1-.7H9.8l-.2.2a1.1,1.1,0,0,1-.1.5.4.4,0,0,0,.1.3l1.1.6Zm4.9-.6h.2L17,8a.4.4,0,0,0,.1-.3c-.1-.2-.1-.5-.2-.7h-.4l-1.1,1a.4.4,0,0,0-.1.3h0c.1.2.2.3.2.5a.2.2,0,0,0,.2.2ZM11,8.3h.1c.1,0,.2,0,.2-.1h0c0-.2.1-.3.1-.5s0-.1,0-.2l-.8-1h-.4l-.3.7v.2l.9.9Zm2.4-.1h.2V7.9H14V7.6h-.3V7.2a.3.3,0,0,0-.1-.2h-.4v.2h-.3v.4h.3V8h.3ZM13.2,8Zm.6-.2Zm-.9-.2Zm.9,0ZM13,7.5Zm2.3.2h.2l.9-1.3c.1-.1.1-.2,0-.2l-.5-.7h-.2c-.1,0-.2,0-.2.1l-.8,1.4v.3a1,1,0,0,1,.4.5Zm-3.8-.5c.1,0,.2,0,.2-.1h0l.4-.4V6.4L11.7,5h-.2a.1.1,0,0,0-.2,0l-.6.7c0,.1-.1.1,0,.2l.6,1.3Zm2.9-.6h.2L15.1,5c.1-.1,0-.2-.1-.3a2,2,0,0,0-.8-.4.1.1,0,0,0-.1.1h-.2L13.6,6c0,.1,0,.3.1.3h0l.6.3Zm-1.9-.3h.9V4.4a.1.1,0,0,0-.1-.1H12.2a.4.4,0,0,0-.1.3l.2,1.5c0,.1,0,.1.1.2Zm.7-.3Zm.1,0Z" fill="#1a2026"/>
        </g>
        <path d="M15.4,30v2.6c0,.3,0,.5.2.5h1.7c.1,0,.2-.2.2-.5V30H30.9v2.6c0,.3.1.5.2.5h1.8c.1,0,.2-.2.2-.5V22.7c0-.3-.1-.4-.2-.4H31.1c-.1,0-.2.1-.2.4v.4H17.5v-.4c0-.3-.1-.4-.2-.4H15.6c-.2,0-.2.1-.2.4v.4H2.3v-.4c0-.3-.1-.4-.3-.4H.3c-.1,0-.2.1-.2.4v9.9c0,.3.1.5.2.5H2c.2,0,.3-.2.3-.5V30ZM2.3,27.8V25.2H15.4v2.6Zm28.6,0H17.5V25.2H30.9Z" fill="#1a2026" fill-rule="evenodd"/>
      </g>
    </g>
  </g>
</svg>
