<svg xmlns="http://www.w3.org/2000/svg" width="36.5" height="31.2" viewBox="0 0 36.5 31.2">
  <title>Cutting Tools Observation</title>
  <g id="Layer_2" data-name="Layer 2">
    <g id="Layer_1-2" data-name="Layer 1">
      <g>
        <path d="M17.7,22.1l.8,1,.3-.2.5-.6,16-16.8s3,4.2-.5,7.9-13.3,11-13.3,11h-.2a1.4,1.4,0,0,0-1,.5l1,1,1,1a.4.4,0,0,1-.1.5c-.1.2-.3.1-.4,0l-.3-.2-1.3-1.1c-.1-.1-.2-.1-.2-.2a.5.5,0,0,1-.6.4h-.3c-.3.1-.4.1-.4.5a.5.5,0,0,1-.3.4c-.1.2-.3.2-.5.3l-.3.3c0,.6-.1.7-.7.8s-.4.2-.4.5-.2.6-.6.7-.5.3-.5.7a.9.9,0,0,1-1.3.7A2.8,2.8,0,0,1,12.8,30a.3.3,0,0,1,0-.4.7.7,0,0,1,.3-.6l4-4.3.9-.9c-.1,0-.1-.1-.2-.2l-.7-1.1a.4.4,0,0,1,0-.6C17.3,21.8,17.5,21.8,17.7,22.1Z" fill="#1a2026"/>
        <g>
          <path d="M22.7,0,6.2,14.2l3.9,2.9a1,1,0,0,1,.4.9L10,21.7l1-1,2.1.3V18.7h1.4V16.5h1.4V14.3h1.4V12.1h1.4V9.9H20V7.7h1.4V5.5h1.4V3.3h1.4V1.1Z" fill="#1a2026"/>
          <path d="M9.7,17.6l-4-3L.2,19.4a.4.4,0,0,0-.2.4c.1.3.4.4.8.3A23.7,23.7,0,0,0,4,26.2a1,1,0,0,0,1.3.4,10.9,10.9,0,0,0,3.3-1.9q.3-.1.3-.3c.3-.7.1-1.2.3-1.9l.6-4.7A.3.3,0,0,0,9.7,17.6ZM5.5,16.1a.6.6,0,0,1,.8.1.6.6,0,0,1,0,.8.5.5,0,0,1-.8-.1.5.5,0,0,1,0-.8Zm1.8,7a1.3,1.3,0,0,1-2,.7L5,23.4a8.8,8.8,0,0,0-2-3.2.5.5,0,0,1-.2-.4,1.3,1.3,0,0,1,1.8-1.4h.1C6,20.2,7.4,22.2,7.3,23.1Z" fill="#1a2026"/>
        </g>
      </g>
    </g>
  </g>
</svg>
