<svg xmlns="http://www.w3.org/2000/svg" width="32.4" height="28.4" viewBox="0 0 32.4 28.4">
  <title>Deforestation</title>
  <g id="Layer_2" data-name="Layer 2">
    <g id="Layer_1-2" data-name="Layer 1">
      <g>
        <path d="M1.4,21.3c1.1.2.8.9,2.4.9l.3-.7c.2-1,.4-8.7.6-10.2-.8,1.2-2.3,8.4-3.3,8.9S.3,21.1,1.4,21.3Z" fill="#1a2026"/>
        <ellipse cx="16.3" cy="4.6" rx="3.8" ry="1.1" fill="#1a2026"/>
        <path d="M21.9,6l.5.3h0c1.2-.6,1.7-1.3.8-2.6S18.9,2.3,16.7,2H15.4a11.2,11.2,0,0,0-3.9.9l-1,.3c-1.1.3-1.3.7-1.3.7h0c-.7.5-.4,1.4.1,2.2A2.2,2.2,0,0,0,11,7.2l1.6.3a12.4,12.4,0,0,0,2.7.3h3.4c2.2,0,2.4-.3,2.7-.8h.2l-.7-.6a6.4,6.4,0,0,0-.2-.7,8.7,8.7,0,0,1-4.4,1c-3,0-5.1-.5-5.1-1.9s2.3-2,5.2-2,5.5.7,5.5,2.1a1.1,1.1,0,0,1-.4.9Z" fill="#1a2026"/>
        <path d="M8,5.8a2.3,2.3,0,0,1,.4-2.4c.1-.2.5-.6,1.7-1l1-.4a11.2,11.2,0,0,1,4.1-1h1.4c2.6.4,6.2.5,7.1,2.1s.2,2.9-.9,3.7a3.4,3.4,0,0,0,1.3.9h.2c.9,0,3.1-.8,2.7-1.6a3.3,3.3,0,0,0-1.4-1.4h1.1c.7,0,1.6-.2,1.6-1.1s-4.7-1.6-6.9-2.5A17.1,17.1,0,0,0,14.9,0h-.4c-2.2.1-3.1.9-4.4,1.1a5.7,5.7,0,0,0-4,1.8c.1,0-1,.6-.7,1.4S6.9,5.6,8,5.8Z" fill="#1a2026"/>
        <path d="M7.9,9.7a7.5,7.5,0,0,0,2.4.4h1a4.1,4.1,0,0,1,1.6.2h1.2l1.5-.2h1.1l2.4.2h1.3c3.6-.3,2.5-2.3,2.1-2.7s-.2-.2-.3-.3l-.2.2c-.5.6-.9,1-3.3,1.1H15.3a10.3,10.3,0,0,1-3-.4L10.8,8c-1.1-.1-1.9-.3-2.3-1.2a1.8,1.8,0,0,1-.4-1A12.7,12.7,0,0,0,6,7.2C5.6,7.6,5.1,8.6,7.9,9.7Z" fill="#1a2026"/>
        <path d="M32.4,22.7a3,3,0,0,0-.8-.8c-1.6-1.1-2-9-2.3-10.1a2.5,2.5,0,0,1-.2-.7,41.9,41.9,0,0,1-.6-6.3,1.8,1.8,0,0,1-.7.5v.3c.1,2.9.3,13.7.3,14.1s.1.9.2,1.6a11.5,11.5,0,0,1,.2,1.6h-.1C29.6,23.6,32.7,23.1,32.4,22.7Z" fill="#1a2026"/>
        <path d="M27.3,7.2a5,5,0,0,1-3,1.1H24L23.3,8a.5.5,0,0,1,.2.4h0v.2c0,.1.1.3,0,.4s.1,9.9.1,11.8a7.6,7.6,0,0,0,.3,2.1h.7c1.3.5.7,1.7,1.7,1.7h.1C27.5,24.6,28,23,28,23s-.3-2.7-.4-3.2S27.4,9.4,27.3,7.2Z" fill="#1a2026"/>
        <path d="M5.4,5.3V7h0A4.6,4.6,0,0,1,6.6,6,4.7,4.7,0,0,1,5.4,5.3Z" fill="#1a2026"/>
        <path d="M23,20.8V10.2a5,5,0,0,1-2.6.8H19l-2.4-.2-1-.2-1.3.2H12.8l-1.4-.2H10.3a7.4,7.4,0,0,1-2.5-.5A6.4,6.4,0,0,1,5.7,9.1c-.2,1.6-.6,10.9-1,12.6S1.1,23.9,0,25.5c0,0,3.6,1.1,3.9.8a8.8,8.8,0,0,1,2.6-.8H9.2c1.2-1.4,1.3-4.8,1.3-4.8s.6-7.9.6-7.9-.3,7.6-.3,10-1,3.2-1,3.2a2.2,2.2,0,0,1-.9,1c-1.6,1.3,2.2,1.8,3.3,1.3s2.5-.7,4-2l.3-.4a12,12,0,0,1,4.1,2c1.3,1.5,5.2-1.2,4.5-1.7S23,22.8,23,20.8Z" fill="#1a2026"/>
      </g>
    </g>
  </g>
</svg>
