<svg xmlns="http://www.w3.org/2000/svg" viewBox="0 0 32 27"><path d="M32,25.3a20.6,20.6,0,0,1-2.3-3.7,3.3,3.3,0,0,0-.7-1.3l-1.2-1a2.6,2.6,0,0,1-.9-1.8V13.3a3.1,3.1,0,0,0-.4-1.9,1.8,1.8,0,0,0-.9-.4c-.9-.3-1.3-1.3-1.8-2L22.2,6.1c-.8-1.4-1.5-2.8-2.2-4.2S19.3.3,18.4.1H16.8a4.4,4.4,0,0,0-1.6.2c-.7.3-1.3,1.5-1.7,2.2a7.2,7.2,0,0,1-3,2.7c-1.1.6-2.6.6-3.1,2a5.2,5.2,0,0,0-.3,1.8,8,8,0,0,1-.4,1.7,5.6,5.6,0,0,1-.6,1.7,8.7,8.7,0,0,1-2.6,2.8,5.2,5.2,0,0,0-1.1,1,12.1,12.1,0,0,0-1.2,3.8L.3,23.5a3.6,3.6,0,0,0-.2,1,1.5,1.5,0,0,0-.1.7V27H9.8c0-.3.2-.6-.2-.9L7.3,24.8c-.6-.3-1-.5-1.2-1A2.7,2.7,0,0,1,6,22.6a3.7,3.7,0,0,1,.5-1.1,9.5,9.5,0,0,1,1.9-2.1,15.9,15.9,0,0,0,2.1-1.5c1.3-1.3.5-2.6,1.5-3.3s4-.2,4-.2l3,.7s1.9.4,2.2,1.8l.9,3.7a2.1,2.1,0,0,0,.4.6,10.7,10.7,0,0,1,1.3,1.9c.2.6.1.4.5,1.8a4.9,4.9,0,0,1,.3,1.5V27H32Z"/></svg>