<?xml version="1.0" encoding="UTF-8"?>
<svg width="51px" height="27px" viewBox="0 0 51 27" version="1.1" xmlns="http://www.w3.org/2000/svg" xmlns:xlink="http://www.w3.org/1999/xlink">
    <title>Dog Patrol</title>
    <g id="Symbols" stroke="none" stroke-width="1" fill="none" fill-rule="evenodd">
        <g id="Add-Patrol-2-with-search" transform="translate(-227.000000, -103.000000)" fill="#302F2F">
            <g id="Group-5" transform="translate(227.000000, 101.000000)">
                <path d="M33.9824422,2 C34.4618574,2.2307912 34.2096975,2.71261845 34.217999,3.091197 L34.217999,3.091197 L34.9236318,2.22977896 C35.212111,2.2307912 34.8686339,3.475849 34.8416539,4.09939014 C34.810523,4.7907515 34.6631703,4.83832688 35.2712597,5.10758328 C35.7081293,5.30193377 36.7250706,5.4395987 37.0394923,5.78983447 C37.33316,6.11881315 37.4296657,6.97618222 37.5687168,7.39727494 C38.2089748,7.82950232 39.9118326,8.58058597 39.9927728,9.27093509 C40.1224847,10.399585 38.473587,10.7022454 37.6652225,10.7984084 C36.5787556,10.9259509 35.6074729,10.7994207 34.8385408,11.5687247 C34.0997018,12.3076614 33.1470976,12.9959861 32.7174918,13.9505304 C32.3034514,14.8666095 32.0045952,16.1268509 31.3954681,16.9295589 C30.8849221,17.6026999 29.6500648,17.9782417 29.2764945,18.7232519 C29.0990486,19.0805734 29.1561219,19.7749715 29.111501,20.1636725 C29.0357492,20.8236543 28.9599975,21.4836362 28.8821704,22.143618 C28.784627,22.9989626 28.7794385,23.7004464 28.8427379,24.5628767 C28.8759442,24.9971285 28.7566092,25.9962115 28.978676,26.3879492 C29.172725,26.7310993 29.7610982,26.9173518 30.0755198,27.1835715 C30.2809835,27.3566649 30.8174719,27.8020514 30.4293739,28.1269811 C30.2591919,28.2707195 28.9755629,28.1887279 28.7441569,28.1269811 C28.3560589,28.0247447 28.1671984,27.6694477 27.7946658,27.5530399 C27.3951531,27.4285341 26.8493255,27.695766 26.4570767,27.5530399 C25.9631338,27.373873 25.7535193,26.9355722 25.6289959,26.5003081 C25.5698473,26.2938107 25.5573949,26.0417624 25.4629647,25.8504486 C25.4027784,25.7289796 25.2087294,25.6895021 25.1599577,25.5639841 C24.8611015,24.8058148 24.9119485,23.4544716 24.7801612,22.6436656 C24.7002587,22.1466548 24.6774294,20.6039978 24.1471672,20.312472 C23.8950072,20.1737949 23.2869179,20.2517375 23.000514,20.2304804 C22.3384645,20.1849295 21.6753772,20.1373542 21.0133277,20.090791 C19.8210159,20.0057627 18.5155954,19.7557389 17.3212082,19.8286203 C16.5128436,19.8782202 15.9888076,20.5908386 15.3599643,21.1161923 C14.6501808,21.7113906 13.9289826,22.2934299 13.2108975,22.8774936 C12.9857177,23.0607094 12.1420715,23.5415244 12.0528297,23.8209032 C11.9532109,24.129637 12.2416902,24.9060267 12.2966881,25.2157728 C12.4046084,25.8281793 12.4865863,25.8879016 12.9224183,26.345435 C13.3084409,26.7513441 13.3707026,27.0023802 13.5222061,27.5530399 C12.7532739,27.7058884 11.9864172,27.7048762 11.3928555,27.0702004 C10.9227796,26.5691405 10.9238173,25.6884899 10.7847662,24.9971285 C10.6426019,24.2905835 10.162149,23.9626171 10.2005438,23.2753047 C10.2420516,22.4918293 10.7671253,22.1162875 11.2870106,21.5241259 C10.5523224,21.8399454 9.81763424,22.1557649 9.08294604,22.4705722 C8.43127346,22.7509633 7.44234994,22.9777055 6.88406992,23.4160064 C5.97193585,24.1326738 5.49148297,25.960783 6.21475652,26.8485194 C6.50219809,27.2007796 6.66511624,27.1926817 6.64332464,27.6684355 C6.61841995,28.176581 6.67445549,28.0358794 6.16598485,28.0702956 C5.43233434,28.1188832 4.71943775,28.1330546 4.40916688,27.3232609 C4.19540167,26.76754 4.43095848,25.6560982 4.46416473,25.0568508 C4.49840867,24.455579 4.48076785,23.6994341 4.66962838,23.1335908 C4.88546898,22.4898048 5.68241889,22.4007275 6.24381199,21.9836838 C6.70558635,21.6415459 7.07604353,21.1414983 7.46725462,20.7193934 C6.50427348,21.3125673 5.14904356,22.4108499 4.04597356,22.5404169 C2.52471241,22.7185715 1.26806353,21.829823 0,21.1789513 C0.77308292,21.2072941 1.45796175,21.2680286 2.20613998,21.085825 C3.18987503,20.8449114 3.29883302,20.7487484 3.90277163,19.9622363 C4.91348675,18.6473338 5.76024603,17.3800066 6.59766605,15.9537575 C6.84982598,15.5255791 7.08953357,14.8858421 7.45791536,14.5477532 C7.98402683,14.0669382 8.87021852,13.577013 9.49802412,13.2358874 C10.6363757,12.6184198 11.6834102,12.3704204 12.9141167,11.9523644 C14.08775,11.5535411 15.2769487,11.0342608 16.4879389,10.7639922 C17.9355237,10.441087 19.4609357,10.3165812 20.927199,10.0969247 C22.7089216,9.82969273 24.4906443,9.56144857 26.2723669,9.29421666 C27.2166696,9.15250276 27.6286346,8.75367937 28.420396,8.17771361 C29.2183836,7.59769888 30.0153335,7.01869639 30.8133211,6.43868166 C31.1889668,6.16537629 31.8095085,5.86777711 32.1011008,5.50235771 C32.4227864,5.10049759 32.5441967,4.41723416 32.8129597,3.95059055 C33.1906808,3.29465766 33.5922688,2.64985944 33.9824422,2 Z" id="dog"></path>
                <text id="P" font-family="ArialRoundedMTBold, Arial Rounded MT Bold" font-size="12" font-weight="normal">
                    <tspan x="42.9980469" y="11">P</tspan>
                </text>
            </g>
        </g>
    </g>
</svg>