<svg xmlns="http://www.w3.org/2000/svg" viewBox="0 0 32 27.4"><path d="M30.9,8.4h0a19.3,19.3,0,0,1-1.3-2.1,4.3,4.3,0,0,0-1.7-2.1A7.1,7.1,0,0,0,28.4,2c0-.7-.2-1.7-.4-1.1a5.9,5.9,0,0,1-.8,1.6V1.2c0-.7-.4-1.6-.5-1S26,1.9,25.6,2.7a4.3,4.3,0,0,1-.4.7l-1.1.5A6.7,6.7,0,0,0,22,5.2c-.7.5-1.6,1.6-1.9,1.8a1.8,1.8,0,0,0-.7.8L17.8,8a29.7,29.7,0,0,1-6.3.2,45.9,45.9,0,0,0-6-.4,7.1,7.1,0,0,0-2.1.3A3.3,3.3,0,0,0,1.1,9.4C.2,10.9.5,12,.4,14.7A25.4,25.4,0,0,0,0,17.6c0,.5.1.9.7.1s.5-1.1.4-3.4a8.1,8.1,0,0,1,.3-3.6c-.4,2,.9,4.9.7,6.1S.9,19,.6,19.9s-.1,3.5-.4,6c-.1.6.2,1.5.4,1.5H1.7c.4-.6-.3-.8-.3-1.4s.3-4,1-4.9l1.3-1.7-.2.5c-.1.7.5,3.5.8,6,0,.6.3,1.5.5,1.5H6c.2-.6-.5-.8-.6-1.4s-.5-4.7,0-5.6S7,18.2,7.7,16.8c2.6,2.3,6.7,1.9,9.5.4a6.1,6.1,0,0,1-.1,1.4c0,1.4-.2,4.2-.3,6.3s.2,2.5.6,2.5h1.1c.1-.8-.5-1.1-.5-1.4a23.9,23.9,0,0,1,.9-6.3c.4,1.7.8,3.8,1,5.2s.6,2.5,1,2.5H22c.1-.8-.5-1-.6-1.3a34.1,34.1,0,0,1-.6-7.1,18.5,18.5,0,0,1,.1-2.3l.7-.4h0a5.3,5.3,0,0,0,1.5-1.2,21,21,0,0,0,2.9-5c.2-.2.3-.3.5-.1a4,4,0,0,0,2.4,1h.4c.4.2.6,1,1.1,1a1.7,1.7,0,0,0,1.4-.5,2.8,2.8,0,0,0,.1-2A11.3,11.3,0,0,0,30.9,8.4Z"/></svg>
