<svg xmlns="http://www.w3.org/2000/svg" viewBox="0 0 32 32">
    <path d="M17.7,10.7a4.1,4.1,0,0,0,4-3.6,2,2,0,0,0,1.1.3,1.9,1.9,0,0,0,1-.3,4.1,4.1,0,0,0,4.1,3.6A4.2,4.2,0,0,0,32,6.6a4.2,4.2,0,0,0-1.3-3l-.3-.3L28.9,2a3.8,3.8,0,0,0-2.1-.7L25.9.4a1.2,1.2,0,0,0-1-.4,1.5,1.5,0,0,0-1.4,1L22.9.8h-.2L22,1a1.4,1.4,0,0,0-1.4-1,1.8,1.8,0,0,0-1,.4l-.9.9a3.9,3.9,0,0,0-2,.8L15.1,3.4l-.3.3a3.9,3.9,0,0,0-1.3,2.9A4.1,4.1,0,0,0,17.7,10.7Zm9.6-6.9h.6a2.8,2.8,0,0,1,2.8,2.8,2.9,2.9,0,0,1-2.8,2.8,2.8,2.8,0,0,1-2.8-2.8A2.8,2.8,0,0,1,27.3,3.8Zm-4.5.6a.9.9,0,0,1,0,1.8,1,1,0,0,1-1-.9A1,1,0,0,1,22.8,4.4Zm-5.2-.6h.7a2.9,2.9,0,0,1,2.2,2.8,2.9,2.9,0,0,1-5.7,0A2.8,2.8,0,0,1,17.6,3.8Z"/>
    <path d="M15.7,22a2.2,2.2,0,0,0-2.2,2.2,2.2,2.2,0,0,0,4.4,0A2.2,2.2,0,0,0,15.7,22Zm-1.4,2.4h-.6a2.1,2.1,0,0,1,.7-1.5,1.9,1.9,0,0,1,1.9-.5,1.7,1.7,0,0,0-1.4.6A1.8,1.8,0,0,0,14.3,24.4ZM17,25.5a2.2,2.2,0,0,1-2,.6,2.5,2.5,0,0,0,1.5-.6,2,2,0,0,0,.6-1.5h.5A2,2,0,0,1,17,25.5Z"/>
    <path d="M30.7,14.5H27.3v-.8a.7.7,0,0,0-1.4,0v.8H22.6a.7.7,0,0,0,0,1.4h3.3v2.2a2.5,2.5,0,0,0-1.7,2.4V21H23a2.4,2.4,0,0,0-2.1-1.4H10.5A2.2,2.2,0,0,0,8.4,21H7.2v-.5a2.5,2.5,0,0,0-1.8-2.4V15.9H8.8a.7.7,0,0,0,0-1.4H5.4v-.8a.7.7,0,0,0-1.4,0v.8H.7a.7.7,0,0,0,0,1.4H4v2.2a2.5,2.5,0,0,0-1.7,2.4V23c0,3.2,4.9,3.2,4.9,0v-.6H8.4A2.1,2.1,0,0,0,10.3,24v2.5a2,2,0,0,0,.6,1.4c-1,1.3-1.2,1.9-1.2,4.1h1.6c0-2,.1-2.3,1.1-3.5H19A4.3,4.3,0,0,1,20.1,32h1.6c0-2.2-.2-2.8-1.2-4.1a2.4,2.4,0,0,0,.5-1.4V24a2.3,2.3,0,0,0,2-1.6h1.2V23c0,3.2,4.9,3.2,4.9,0V20.5a2.5,2.5,0,0,0-1.8-2.4V15.9h3.4A.7.7,0,0,0,30.7,14.5Zm-15,12.3a2.6,2.6,0,1,1,2.6-2.6A2.6,2.6,0,0,1,15.7,26.8Z"/>
</svg>
