<svg xmlns="http://www.w3.org/2000/svg" viewBox="0 0 40 40"><path d="M20,27.3a2.8,2.8,0,1,0,0,5.5,2.8,2.8,0,0,0,0-5.5Zm-1.9,3h-.6a2.7,2.7,0,0,1,.8-1.9,2.8,2.8,0,0,1,2.5-.7A2.7,2.7,0,0,0,18.1,30.3Zm3.5,1.4a2.5,2.5,0,0,1-2.5.7,2.8,2.8,0,0,0,2-.8,2.9,2.9,0,0,0,.7-1.8h.6A2.7,2.7,0,0,1,21.6,31.7Z"/><path d="M39.1,17.7H34.8v-1a.9.9,0,0,0-.8-.9.9.9,0,0,0-.9.9v1H28.8a.9.9,0,1,0,0,1.8h4.3v2.8a3.1,3.1,0,0,0-2.3,3V26H29.3a2.9,2.9,0,0,0-2.7-1.9H13.4A2.9,2.9,0,0,0,10.7,26H9.2v-.7a3.1,3.1,0,0,0-2.3-3V19.4h4.3a.9.9,0,0,0,.9-.8.9.9,0,0,0-.9-.9H6.9v-1c0-.4-.3-.7-.8-.8a.8.8,0,0,0-.9.8v1H.9a.9.9,0,0,0,0,1.8H5.2v2.8a3.1,3.1,0,0,0-2.3,3v3.2a3.2,3.2,0,0,0,6.3,0v-.7h1.5a2.6,2.6,0,0,0,2.5,1.9v3.2a2.4,2.4,0,0,0,.7,1.8c-1.3,1.7-1.6,2.5-1.6,5.3h2.1c0-2.6.2-3,1.4-4.5h8.4c1.2,1.5,1.4,1.9,1.4,4.5h2.1c0-2.9-.3-3.6-1.6-5.3a2.4,2.4,0,0,0,.7-1.8V29.7a2.6,2.6,0,0,0,2.5-1.9h1.5v.7a3.2,3.2,0,0,0,6.3,0V25.3a3.1,3.1,0,0,0-2.3-3V19.4h4.3a.9.9,0,0,0,.9-.8A.9.9,0,0,0,39.1,17.7ZM20,33.4a3.3,3.3,0,0,1-3.3-3.3h0a3.2,3.2,0,0,1,3.2-3.3H20a3.3,3.3,0,0,1,0,6.6Z"/><path d="M32.6,11.4a1.1,1.1,0,0,0,.8-.3,1.8,1.8,0,0,0,.3-1.1V6.9h2.1A4.6,4.6,0,0,0,38.9,6,3.3,3.3,0,0,0,40,3.4a3.7,3.7,0,0,0-.3-1.5A2.6,2.6,0,0,0,39,.8,3.4,3.4,0,0,0,37.8.2l-2-.2H32.9a1.6,1.6,0,0,0-1.1.3,1.2,1.2,0,0,0-.4,1.1v8.7a1.7,1.7,0,0,0,.3,1A1.4,1.4,0,0,0,32.6,11.4Zm1.1-9.7h1.5a3.4,3.4,0,0,1,2.1.5,2.1,2.1,0,0,1,.4,1.2,1.5,1.5,0,0,1-.3,1,1.6,1.6,0,0,1-.8.6H33.7Z"/></svg>
