<svg xmlns="http://www.w3.org/2000/svg" viewBox="0 0 32 23.3"><path d="M17.9,7.8a.6.6,0,0,0-.1-.4l-.4-.2H16V8.5h1.6a.2.2,0,0,0,.2-.2C17.9,8.1,17.9,8,17.9,7.8Z"/><path d="M31.9,16.5H30.6l-2.9-.2h-.2l-3.3-3.4H24l-1.5-.7a.5.5,0,0,1-.3-.5,9.7,9.7,0,0,1-.1-1.7V9.5l-.6-1.4A3.9,3.9,0,0,0,20.9,7a10.9,10.9,0,0,1-1.3-1.7,2.7,2.7,0,0,0-.7-.8l-.6-.4a1.8,1.8,0,0,0-1-.4.7.7,0,0,1-.6-.3l-1-.9-.6-.4-2.5-.9h-4a3.6,3.6,0,0,1-.7-1H7.5L6.2,1a8.6,8.6,0,0,1-2,1.3H3.5l-.9.3H2.4L1,3.9A.1.1,0,0,0,.9,4,18,18,0,0,0,.1,6.1,1.1,1.1,0,0,0,.4,7.4h0v.9a.4.4,0,0,0,.1.3l2.4,2.9,2.3,2.9H6.3l2.2,1.1a1.5,1.5,0,0,1,.6.5,1,1,0,0,0,.5.4h.3c-.1.3-.1.6-.2.9a2.4,2.4,0,0,0,0,1.2,8.8,8.8,0,0,0,.5,1.5c.1,0,.1.1.2.2l.9.7h.4l3.4-1.3h.2l.6.6h1a.6.6,0,0,1,.5.2l.4.3a2.1,2.1,0,0,1,.4,1.1l.3.3h.2v.3a.4.4,0,0,0,.1.3l.8.3h.3l3-.5.9-.2,1-.3.2-.2a2.5,2.5,0,0,0,.4-.7l.2-.2,1.1-.2.3-.2a5.4,5.4,0,0,0,.5-1.1l.2-.2,1.1-.2a7.5,7.5,0,0,0,2-1c.1-.2.3-.3.4-.4l.2-.3a2.4,2.4,0,0,1,.6-.8C32,16.7,32,16.5,31.9,16.5Zm-23-5.2H5.2V6.4H8.8v.8H6.1V8.3H8.6v.8H6.1v1.3H8.9Zm5.2-.7a1.9,1.9,0,0,1-.9.5,2.5,2.5,0,0,1-1.2.2,2.5,2.5,0,0,1-1.3-.3,2,2,0,0,1-.9-.9,2.8,2.8,0,0,1-.3-1.3,2.8,2.8,0,0,1,.3-1.3,2.8,2.8,0,0,1,1-.9,2,2,0,0,1,1.1-.3,2,2,0,0,1,1.4.4,1.7,1.7,0,0,1,.7,1l-1,.2a.7.7,0,0,0-.4-.5c-.1-.2-.4-.2-.7-.2a1.3,1.3,0,0,0-1,.4,1.7,1.7,0,0,0-.4,1.2,2.2,2.2,0,0,0,.4,1.3,1.3,1.3,0,0,0,1,.4h.6l.6-.3V9.5H12V8.7h2.1Zm4.1.7-.7-1.1-.6-.7c0-.1-.1-.2-.3-.2H16v2.1H15V6.4h3.2a1.2,1.2,0,0,1,.5.5,1.1,1.1,0,0,1,.2.8,1.6,1.6,0,0,1-.3.9,1.3,1.3,0,0,1-.9.4l.5.4.5.8.6,1Z"/></svg>
