<svg xmlns="http://www.w3.org/2000/svg" viewBox="0 0 29.5 32"><path d="M9.5,0h.1a.9.9,0,0,1-.1.5L8.4,2.7c-.4.6-1.2,1-1.5,1.7l-.2.2a.3.3,0,0,1-.1.2h0L7,4.7l.5-.5c.1-.1.2-.1.3.1a2,2,0,0,1-.8,2c-.3.2-.4.4-.1.7A5.7,5.7,0,0,0,8.4,8.2a1.2,1.2,0,0,0,1.3,0l.5-.3a7.6,7.6,0,0,1,3-.2,4.6,4.6,0,0,1,1.6.7,2.8,2.8,0,0,0,1.5.8,5.4,5.4,0,0,0,1.8,0L21,9l2-.2a5.4,5.4,0,0,1,3.5.6l1.3.6-.6-.7a1.2,1.2,0,0,1-.3-1l.2.4V8.1h.1v.4h.1V8.1h.1l.3.9h.1l-.2-1h.1a5,5,0,0,1,.5,1.3c.1.4.1.8.2,1.2a.7.7,0,0,0,.1.5l.8,1.4h.1v.6a.4.4,0,0,1-.5-.2l-.3-.5a10.8,10.8,0,0,1-.6,4,50.1,50.1,0,0,1-1.8,5,1.3,1.3,0,0,0,.2,1.5,1.6,1.6,0,0,1,.4,1.3l-.3,3.7a8.6,8.6,0,0,0,.1,3.2h0c0,.1-.2.1-.2.1s-.4-.2-.6.1-.1.3-.2.3a2,2,0,0,1-1.5-.2c0-.1-.3,0-.3,0s-.3.3-.5.3H22.2v-.2l.2-.3a9.1,9.1,0,0,0,1.1-2.2,7.6,7.6,0,0,0,.6-2.7,9.6,9.6,0,0,1,0-1.7,2.7,2.7,0,0,0-.4-1.8l-.6-1L22,20l-.3.2L20,21.6c-.2.2-.5.2-.5-.1s-.2-.2-.3-.2H15.9a.4.4,0,0,0-.4.4c0,.2-.1.5-.1.7L14.8,27v.8a5.9,5.9,0,0,0,.7,2.6,1.3,1.3,0,0,1,.1.6h-.4a6.4,6.4,0,0,0,.2.7c.1.1.1.2-.1.3h-1c-.2-.2-.4-.3-.6-.2h-.5v-.4l.3-.4a1.1,1.1,0,0,0,.3-.8c0-.2,0-.3.1-.4a3.4,3.4,0,0,0-.2-2.2,4.7,4.7,0,0,1-.4-2.9,2.4,2.4,0,0,0-.4-1.6l-1.9.5a.3.3,0,0,0-.3.3,12.7,12.7,0,0,1-.1,2,14.1,14.1,0,0,0,.2,4.6c.1.5.1.5-.4.5s.1.2.1.3a.6.6,0,0,1-.5.6l-.9-.2c-.5-.2-.6-.7-.3-.9a2.3,2.3,0,0,0,.7-1.7,6.7,6.7,0,0,0-.4-2.4,3,3,0,0,1-.2-1,10,10,0,0,0-1-2.9A1.4,1.4,0,0,0,6.5,22a2.1,2.1,0,0,1-1.4-.3H4.9c-.3,0-.5,0-.5-.3v-.9H4.1v-.6c.1-.7.1-1.4.2-2.2h0a15.7,15.7,0,0,0-.8-3.1c-.2-.8-.5-1.5-.7-2.3l-.3-.5a1.5,1.5,0,0,1-.3-1.3.9.9,0,0,0,.1-.5,3.8,3.8,0,0,1-.2-2.1c.1-.2-.1-.5-.2-.7l-.3-.5-.3-.3A1.4,1.4,0,0,1,.4,5.2L0,4.7V3.8H.3L1.9,5.4h.2c.3-.3.3-.4-.1-.7V3.3c-.3-.4-.2-.9-.3-1.4s0-.5.3-.5.3.2.4.4l.3.9a4.3,4.3,0,0,1,.4.7,1.6,1.6,0,0,0,.5,1.1.9.9,0,0,0,1.2.2l.8-.6L6,3.7,6.8,3A9.7,9.7,0,0,0,9.5,0ZM25.4,26.7h-.1l-.2.3a12.1,12.1,0,0,1-.5,1.8,6.5,6.5,0,0,0-.4,1.9,1.4,1.4,0,0,0,.2.6h.1A8.1,8.1,0,0,0,25.4,26.7ZM5.7,5.6c.3.2.5,0,.6-.4Z"/></svg>
