<svg xmlns="http://www.w3.org/2000/svg" viewBox="0 0 41.49 31.58"><defs><style>.cls-1{fill:#1a2026;}</style></defs><title>Elephant Mortality</title><g id="Layer_2" data-name="Layer 2"><g id="Layer_1-2" data-name="Layer 1"><path class="cls-1" d="M30.6.35a21.86,21.86,0,0,0,2.8.22s1.86-.28,2.35.06a5.06,5.06,0,0,1,1.66,1.78,5.33,5.33,0,0,1,1,1.65,25,25,0,0,1,1.25,3l.23.68a6.37,6.37,0,0,0,1.57.2s0,.23-.91.46a2.48,2.48,0,0,0,.86,0,2.58,2.58,0,0,1-1.32.4s.17,3.37-2.43,4.42c0,0-2.43.43-2.17-1.86,0,0,.37-1.23,1.26-.65,0,0-.35.26-.06.37,0,0-.57.71,0,.85,0,0,1.06.46,1.34-1.58a3.84,3.84,0,0,0-.77-2.75l-.46,0-.37.28A.52.52,0,0,1,36,7.5l-.53-.26s-1.23-.06-1.43-.4c0,0,.11,1-.35,1.37,0,0-1.51-.28-1.71-.57a18.82,18.82,0,0,0,.53,2.69l.65,2.31a10.44,10.44,0,0,0,.63,2.06,7.67,7.67,0,0,1,.37,2.12s.26,1.14.69,1.4c0,0,.94.48.42.88,0,0-3.26.66-2.91-.26,0,0,.46-.88.34-1.29a21,21,0,0,0-1.46-3A17.45,17.45,0,0,1,29.31,12s-1,2.4-1.12,2.71A10,10,0,0,1,27.42,17s-.4.94.09,1.23c0,0,1.08.71.68,1.05,0,0-3.11.53-3.17-.2a1.38,1.38,0,0,1,.35-.83,2.3,2.3,0,0,0,.2-1.39,17.55,17.55,0,0,1,.23-2.17s.31-2,.34-3.06c0,0-.14-.8-.29-.86a6.78,6.78,0,0,1-2.91.89s-1.4.14-1.38.32a6.07,6.07,0,0,1-.85.83,5.31,5.31,0,0,0-.63,1.63s-.2,2.52.32,2.94c0,0,1.17.86.88,1.55,0,0-2.85.45-3.28-.15a9.4,9.4,0,0,1,.23-2.43s.25-2.85-.26-3.34a7.17,7.17,0,0,0-1.43,1.68,20.32,20.32,0,0,0-1,3s.4,1-.11,1.29c0,0-2.12.22-1.95-.95A4.13,4.13,0,0,1,14,16.85a11.85,11.85,0,0,0,1.09-3.18l.06-1.49a12.1,12.1,0,0,0-.32,1.59s-.22,2-.94,2.49A17.51,17.51,0,0,1,14.34,14a17.72,17.72,0,0,0,.53-3,20,20,0,0,0,.42-3.46,5.47,5.47,0,0,1,1.15-2.6s1.88-2.6,2.77-3A7.22,7.22,0,0,1,24.1,1s3.58.12,4.15-.48A1.9,1.9,0,0,1,30.6.35Z"/><path class="cls-1" d="M2.38,12.42c-.4,0-.74-.08-1.06.24a8.43,8.43,0,0,0-.81,1A2,2,0,0,0,.33,16c.42.64,1.33,1.28,2.08,1A2.62,2.62,0,0,1,5,17.77a35.34,35.34,0,0,1,3.92,3.82c1.53,1.54,3,3.17,4.34,4.83.7.83,1.72,1.85,1.5,3.06-.15.85-.33,1.89.88,1.92.53,0,.69-.14,1.2.1s1-.3,1.1-.79a1.55,1.55,0,0,1,.61-1.05c.3-.24.31-.53.55-.82.41-.5,1.44-1.38.49-2-.3-.19-.49-.57-.78-.75a2.92,2.92,0,0,0-.93-.26,7.78,7.78,0,0,1-1.73-.68,9.34,9.34,0,0,1-2.34-1.91c-1-1-2-1.94-3-2.95-1.64-1.7-1.84-2-3.46-3.7A5.13,5.13,0,0,1,5.74,14,3.55,3.55,0,0,0,4.4,12.15a2,2,0,0,0-.73-.55c-.48-.11-1,.46-1.25.77l0,.05Z"/></g></g></svg>