<svg xmlns="http://www.w3.org/2000/svg" width="35.2" height="26.5" viewBox="0 0 35.2 26.5">
  <title>Elephant Sighting</title>
  <g id="Layer_2" data-name="Layer 2">
    <g id="Layer_1-2" data-name="Layer 1">
      <g>
        <path d="M25.7,6.6a1.4,1.4,0,0,0,.9.3,1.7,1.7,0,0,0,1-.3A3.8,3.8,0,0,0,31.4,10a3.9,3.9,0,0,0,3.8-3.9,3.7,3.7,0,0,0-1.1-2.7l-.3-.3h0L32.3,1.9a3.2,3.2,0,0,0-1.9-.7h.1L29.6.4h0a1.2,1.2,0,0,0-.9-.4,1.4,1.4,0,0,0-1.4,1L26.7.8h-.1l-.7.2a1.3,1.3,0,0,0-1.3-1,1.5,1.5,0,0,0-.9.4h0l-.9.9h.1a4,4,0,0,0-1.9.7L19.5,3.1h0l-.3.3A4,4,0,0,0,18,6.2,3.9,3.9,0,0,0,21.9,10,4,4,0,0,0,25.7,6.6Zm5.1-3h.6A2.6,2.6,0,0,1,34,6.1a2.6,2.6,0,0,1-2.6,2.6,2.5,2.5,0,0,1-2.6-2.6A2.5,2.5,0,0,1,30.8,3.6Zm-4.2.5a.9.9,0,0,1,.9.8.9.9,0,0,1-.9.9.9.9,0,0,1-.8-.9A.9.9,0,0,1,26.6,4.1ZM21.9,8.7a2.6,2.6,0,0,1-2.7-2.6,2.7,2.7,0,0,1,2.7-2.6h.5a2.6,2.6,0,0,1-.5,5.1Z" fill="#1a2026"/>
        <path d="M27.4,19.7a5.4,5.4,0,0,0,.3-3.1c-.6-2.7-3.3-5.7-6.3-5.6-1.4.1-2.8.7-4.3.4a16.7,16.7,0,0,0-3.8-.6,2.5,2.5,0,0,1-1.5-.3,3.1,3.1,0,0,0-1.9-.1l-1.5.7a9.4,9.4,0,0,1-1.5.6A6.3,6.3,0,0,0,4.6,14L4,15.4c-.1.2-.1.2-.4.3l-.7.3-1.8.2c-.3,0-1-.1-1.1.1s3.4.5,3.7.4a4.9,4.9,0,0,0-.1,1.7,7.8,7.8,0,0,0,.3,2.2,13.3,13.3,0,0,0,.5,1.9c.1.2.2.6.4.5s.1-.4.2-.5.3-.1.3-.4a4.1,4.1,0,0,0-.3-.8,7.6,7.6,0,0,1-.3-2.1A6.3,6.3,0,0,1,5.4,17c.1-.3.2-.4.5-.4h.6a1,1,0,0,0,.9-.1l.5-.4.3.3h.4c.4-.1.6-.2.9-.1s-.4.7-.2,1,.9.2,1.2.2a2.6,2.6,0,0,0,1.5-.4,5.8,5.8,0,0,1,.4,1.9,14.8,14.8,0,0,1,.1,2.1c-.1,1.2.3,2.5,0,3.7a2.6,2.6,0,0,1-.5.9c-.2.3-.4.7.1.8a13.4,13.4,0,0,0,2,0c.7-.1.3-1.1.5-1.6l.4-1.8a7.4,7.4,0,0,1,.4,1.4c.1.6-.2,1.1-.1,1.7s.1.3.4.3h1c.4,0,.9.1,1-.3a4.4,4.4,0,0,0-.2-1c0-.5-.2-1-.2-1.5a9.6,9.6,0,0,1,.4-3.4,9.7,9.7,0,0,0,2.4.8l1.1.2c.3.2.4.5.8.6h.9a.8.8,0,0,1,.9.2A3.5,3.5,0,0,1,25,24a4.9,4.9,0,0,1-.1,1.2c-.1.3-.5.9-.2,1.2s.7.1,1,.1h1.2c.8-.1.4-1.4.4-1.9a21.3,21.3,0,0,0-.3-2.5,2.9,2.9,0,0,1-.1-1.3C26.9,20.4,27.2,20.1,27.4,19.7Zm-.8,0c-.3-.2-.3-.9-.3-1.2a1.5,1.5,0,0,1,.2-1.3c.1-.2.2-.4.3-.2s.1.4.1.6A4.9,4.9,0,0,1,26.6,19.7Z" fill="#1a2026"/>
      </g>
    </g>
  </g>
</svg>
