<svg xmlns="http://www.w3.org/2000/svg" viewBox="0 0 31.49 29.86"><defs><style>.cls-1,.cls-2{fill:#1a2026;}.cls-1{fill-rule:evenodd;}</style></defs><g id="Layer_2" data-name="Layer 2"><g id="Layer_1-2" data-name="Layer 1"><g id="vessel-for-export"><polygon id="Fill-7" class="cls-1" points="6.21 13.37 8.04 13.37 8.04 10.93 6.21 10.93 6.21 13.37"/><path id="Fill-2" class="cls-1" d="M11.33,13.94H2.71v5.6l4.08-2.79a.42.42,0,0,1,.48,0l4.06,2.78V13.94Z"/><polygon id="Fill-1" class="cls-1" points="7.45 29.86 11.56 28.3 14.06 22.43 7.45 17.91 7.45 29.86"/><polygon id="Fill-4" class="cls-1" points="2.5 28.3 6.59 29.86 6.59 17.92 0 22.43 2.5 28.3"/></g><path class="cls-2" d="M20.31,28.55a.87.87,0,0,1-.1-1.74l9-1.11-5.45-9.53a.88.88,0,0,1,.33-1.2.87.87,0,0,1,1.19.33L31.38,26a.88.88,0,0,1,0,.82.85.85,0,0,1-.68.48l-10.3,1.27Z"/><path class="cls-2" d="M21.16,10.5a.88.88,0,0,1-.76-.44L15.8,2.13,7.52,7.75a.87.87,0,1,1-1-1.44L15.59.15a.87.87,0,0,1,1.25.29l5.08,8.74a.88.88,0,0,1-.76,1.32Z"/><path class="cls-2" d="M29.78,9.41h0a.25.25,0,0,0-.23-.27.32.32,0,0,0-.14,0l-3.62,2.06a.25.25,0,1,0,.25.43l3.6-2.08a.27.27,0,0,0,.13-.17h0Z"/><path class="cls-2" d="M28.73,14l-3.3-.9a.25.25,0,0,1-.27-.23.25.25,0,0,1,.22-.27l.13,0,3.31.91a.26.26,0,0,1,.18.25h0A.24.24,0,0,1,28.73,14Z"/><path class="cls-2" d="M24.68,11.1a.24.24,0,0,1-.27.22.25.25,0,0,1-.22-.27.19.19,0,0,1,0-.08l.91-3.31a.26.26,0,0,1,.3-.18.25.25,0,0,1,.19.26v0Z"/><path class="cls-2" d="M16.2,16.24h0a.25.25,0,0,0,.23.27.23.23,0,0,0,.14,0l3.62-2.06a.24.24,0,0,0,.09-.33.26.26,0,0,0-.34-.1L16.32,16a.26.26,0,0,0-.12.18h0Z"/><path class="cls-2" d="M17.25,11.66l3.3.91a.24.24,0,0,1,.12.33.23.23,0,0,1-.25.14l-3.31-.91a.25.25,0,0,1-.18-.24h0a.26.26,0,0,1,.27-.24Z"/><path class="cls-2" d="M21.29,14.55a.24.24,0,0,1,.33-.12.25.25,0,0,1,.14.25L20.85,18a.25.25,0,0,1-.27.23.25.25,0,0,1-.22-.27v-.08Z"/></g></g></svg>
