<svg xmlns="http://www.w3.org/2000/svg" viewBox="0 0 43.46 35.05">
    <path d="M42.64,33.18l-.54,0c-2.3.21-3.74.29-4.22-.69a2.56,2.56,0,0,1-.24-1.16h0a.53.53,0,0,1,0-.12c.13-.57.35-1.95-.51-2.33a.88.88,0,0,0-.76,0,1.06,1.06,0,0,0-.24.19c-.21-.35-.41-.71-.6-1.11A31.87,31.87,0,0,1,33,17.41V13.9a2,2,0,0,0-2-2H15.62a4.83,4.83,0,1,0-5.15-7.55,5.79,5.79,0,0,1,.78,2.9,5.86,5.86,0,0,1-.78,2.91A4.84,4.84,0,0,0,13,11.9H6.69a4.84,4.84,0,1,0-2.58,0H2a2,2,0,0,0-2,2V33.05a2,2,0,0,0,2,2H31a1.93,1.93,0,0,0,1.35-.54,2.14,2.14,0,0,0,.84.17h.09a3.58,3.58,0,0,0,2.63-1.83s.05,0,.08.06a.84.84,0,0,0,.35.07.58.58,0,0,0,.14,0c0,.08.06.17.1.25.65,1.34,1.94,1.66,3.47,1.66.7,0,1.46-.06,2.22-.13l.54,0a.75.75,0,0,0-.13-1.5ZM4.4,33.05H2V30.74H4.4Zm0-4.31H2V26.28H4.4Zm0-4.46H2V21.82H4.4Zm0-4.46H2V17.36H4.4Zm0-4.46H2V13.9H4.4ZM8.86,33.05H6.4V30.74H8.86Zm0-4.31H6.4V26.28H8.86Zm0-4.46H6.4V21.82H8.86Zm0-4.46H6.4V17.36H8.86Zm0-4.46H6.4V13.9H8.86Zm4.47,17.69H10.86V30.74h2.47Zm0-4.31H10.86V26.28h2.47Zm0-4.46H10.86V21.82h2.47Zm0-4.46H10.86V17.36h2.47Zm0-4.46H10.86V13.9h2.47Zm4.46,17.69H15.33V30.74h2.46Zm0-4.31H15.33V26.28h2.46Zm0-4.46H15.33V21.82h2.46Zm0-4.46H15.33V17.36h2.46Zm0-4.46H15.33V13.9h2.46Zm4.46,17.69H19.79V30.74h2.46Zm0-4.31H19.79V26.28h2.46Zm0-4.46H19.79V21.82h2.46Zm0-4.46H19.79V17.36h2.46Zm0-4.46H19.79V13.9h2.46Zm4.46,17.69H24.25V30.74h2.46Zm0-4.31H24.25V26.28h2.46Zm0-4.46H24.25V21.82h2.46Zm0-4.46H24.25V17.36h2.46Zm0-4.46H24.25V13.9h2.46ZM31,32.94l-.2.11H28.71V30.74H31Zm0-4.2H28.71V26.28H31Zm0-4.46H28.71V21.82H31Zm0-4.46H28.71V17.36H31Zm0-4.46H28.71V13.9H31Zm2.22,17.82a.58.58,0,0,1-.23,0s0-.07,0-.11V25.46a22.17,22.17,0,0,0,1.25,3.22,16.21,16.21,0,0,0,1.19,2C34.31,32.87,33.5,33.17,33.18,33.18Z"/>
    <path d="M9.88,3.49a5.85,5.85,0,0,1,2.68-1.81A4.82,4.82,0,0,0,5.5,1.41,5.87,5.87,0,0,1,9.88,3.49Z"/>
</svg>