<svg xmlns="http://www.w3.org/2000/svg" viewBox="0 0 38.26 40">
    <path d="M34.43,22.84a3.8,3.8,0,0,0-3.66,2.79l-7.36-1.12a4.89,4.89,0,0,0,0-.54,6.71,6.71,0,0,0-4.65-6.38l2.47-10c.14,0,.29,0,.44,0a3.85,3.85,0,1,0-1.37-.26l-2.46,10a7.11,7.11,0,0,0-1.14-.1A6.68,6.68,0,0,0,12.25,19l-5.37-5.2a3.75,3.75,0,0,0,.78-2.29,3.85,3.85,0,1,0-1.44,3l5.36,5.19A6.79,6.79,0,0,0,10.32,22l-2.07-.5c0-.13,0-.27,0-.41A3.89,3.89,0,1,0,8,22.39l2.08.5A6.38,6.38,0,0,0,10,24a6.69,6.69,0,0,0,2.38,5.12L9.65,32.83a3.87,3.87,0,0,0-1.85-.49,3.85,3.85,0,1,0,2.62,1l2.74-3.74a6.64,6.64,0,0,0,7.15,0l1.35,1.82a4.11,4.11,0,1,0,.77-.55l-1.35-1.83a6.67,6.67,0,0,0,2.19-3.63l7.34,1.12s0,.07,0,.1a3.83,3.83,0,1,0,3.83-3.83Z"/>
</svg>