<svg xmlns="http://www.w3.org/2000/svg" viewBox="0 0 39.2 12.82"><defs><style>.cls-1{fill:#1a2026;fill-rule:evenodd;}</style></defs><title>Fence Breakage</title><g id="Layer_2" data-name="Layer 2"><g id="Layer_1-2" data-name="Layer 1"><path class="cls-1" d="M2.57,9.21H7.16L8.88,6.64H2.57V3.55H9.36L6.78,1H2.57V.49c0-.27-.1-.49-.24-.49H.25C.11,0,0,.22,0,.49V12.33c0,.27.11.49.25.49H2.33c.14,0,.24-.22.24-.49Z"/><path class="cls-1" d="M39,0H36.87c-.13,0-.24.22-.24.49V1H20.7V.49c0-.27-.11-.49-.24-.49H18.37c-.13,0-.24.22-.24.49V1H10.48l2.57,2.57h5.08V6.64h-6L10.42,9.21h7.71v3.12c0,.27.11.49.24.49h2.09c.13,0,.24-.22.24-.49V9.21H36.63v3.12c0,.27.11.49.24.49H39c.14,0,.25-.22.25-.49V.49C39.2.22,39.09,0,39,0ZM36.63,6.64H20.7V3.55H36.63Z"/></g></g></svg>