<svg xmlns="http://www.w3.org/2000/svg" viewBox="0 0 40.1 40"><path d="M39.8,26.9H37.6c-.1,0-.2.2-.2.5v.5H21.1v-.5c0-.3-.1-.5-.2-.5H18.8c-.2,0-.3.2-.3.5v.5H2.6v-.5c0-.3-.1-.5-.2-.5H.3c-.2,0-.3.2-.3.5V39.5c0,.3.1.5.3.5H2.4c.1,0,.2-.2.2-.5V36.3H18.5v3.2c0,.3.1.5.3.5h2.1c.1,0,.2-.2.2-.5V36.3H37.4v3.2c0,.3.1.5.2.5h2.2c.1,0,.2-.2.2-.5V27.4C40,27.1,39.9,26.9,39.8,26.9ZM18.5,33.7H2.6V30.5H18.5Zm18.9,0H21.1V30.5H37.4Z"/><path d="M32.6,11.4a1,1,0,0,0,.8-.3,1.4,1.4,0,0,0,.4-1.1V6.9h2.1A4.8,4.8,0,0,0,39,6a3.3,3.3,0,0,0,1.1-2.6,3.7,3.7,0,0,0-.3-1.5A2.8,2.8,0,0,0,39,.8,2.3,2.3,0,0,0,37.8.2L35.9,0h-3a1.8,1.8,0,0,0-1.1.3,1.6,1.6,0,0,0-.3,1.1v8.7a1.7,1.7,0,0,0,.3,1A1.1,1.1,0,0,0,32.6,11.4Zm1.2-9.7h1.5a3,3,0,0,1,2,.5,1.7,1.7,0,0,1,.5,1.2,1.5,1.5,0,0,1-.3,1,1.5,1.5,0,0,1-.9.6H33.8Z"/></svg>
