<svg xmlns="http://www.w3.org/2000/svg" viewBox="0 0 36 11.77"><defs><style>.cls-1{fill:#1a2026;fill-rule:evenodd;}</style></defs><title>Fence</title><g id="Layer_2" data-name="Layer 2"><g id="Layer_1-2" data-name="Layer 1"><path class="cls-1" d="M16.65,8.46v2.86c0,.25.1.45.22.45h1.92c.12,0,.22-.2.22-.45V8.46H33.64v2.86c0,.25.1.45.22.45h1.91c.13,0,.23-.2.23-.45V.45C36,.2,35.9,0,35.77,0H33.86c-.12,0-.22.2-.22.45V.9H19V.45c0-.25-.1-.45-.22-.45H16.87c-.12,0-.22.2-.22.45V.9H2.36V.45C2.36.2,2.26,0,2.14,0H.23C.1,0,0,.2,0,.45V11.32c0,.25.1.45.23.45H2.14c.12,0,.22-.2.22-.45V8.46ZM2.36,6.09V3.26H16.65V6.09Zm31.28,0H19V3.26H33.64Z"/></g></g></svg>