<svg xmlns="http://www.w3.org/2000/svg" width="36" height="17.2" viewBox="0 0 36 17.2">
  <title>Fence Voltage</title>
  <g id="Layer_2" data-name="Layer 2">
    <g id="Layer_1-2" data-name="Layer 1">
      <g>
        <path d="M35.8,4.2H33.9c-.2,0-.3.2-.3.4v.5H32.5a.7.7,0,0,1,.7.4.8.8,0,0,1-.1.8l-.9,1h1.4v2.8H29.7l-2.1,2.4h6v2.9c0,.2.1.4.3.4h1.9c.1,0,.2-.2.2-.4V4.6C36,4.4,35.9,4.2,35.8,4.2Z" fill="#1a2026" fill-rule="evenodd"/>
        <path d="M19,10.2V7.4h4l1.2-2.3H19V4.6c0-.2-.1-.4-.2-.4H16.9c-.2,0-.3.2-.3.4v.5H2.4V4.6c0-.2-.1-.4-.3-.4H.2c-.1,0-.2.2-.2.4V15.5c0,.2.1.4.2.4H2.1c.2,0,.3-.2.3-.4V12.6H16.6v2.9c0,.2.1.4.3.4h1.9c.1,0,.2-.2.2-.4V12.6h5.1l1-2.4Zm-2.4,0H2.4V7.4H16.6Z" fill="#1a2026" fill-rule="evenodd"/>
        <path d="M32.7,6.1a.2.2,0,0,0,0-.3H29V5.4L32,.7a.5.5,0,0,0,0-.5L31.6,0h-4a.5.5,0,0,0-.4.2L22.8,8.8V9h3.1c.1.1.1.2,0,.2l-3.1,7.7H23Z" fill="#1a2026"/>
      </g>
    </g>
  </g>
</svg>
