<svg xmlns="http://www.w3.org/2000/svg" viewBox="0 0 20.01 24"><defs><style>.cls-1{fill:#1a2026;}</style></defs><title>Fire</title><g id="Layer_2" data-name="Layer 2"><g id="Layer_1-2" data-name="Layer 1"><path class="cls-1" d="M5,23.6c.2.13.41.24.67.4-.15-.4-.29-.72-.41-1.06a5.58,5.58,0,0,1-.12-3.78,9,9,0,0,1,1-1.81,10.88,10.88,0,0,0,1.56-3.28l.12-.53h.07a8.65,8.65,0,0,1,.42,4.66,8.38,8.38,0,0,0,1.67-3.7,11.66,11.66,0,0,0,.38-4A10.43,10.43,0,0,1,14.4,16.6,10.35,10.35,0,0,1,13.73,24l.14,0a15.28,15.28,0,0,0,4.21-3.46A7.92,7.92,0,0,0,20,15.78a10.42,10.42,0,0,0-1-5.32,17.88,17.88,0,0,0-3.33-4.8l-.52-.47a6.42,6.42,0,0,1-.31,4.14c0-.12,0-.17-.06-.22A11,11,0,0,0,12.52,4,17.39,17.39,0,0,0,9,.72C8.72.48,8.39.26,8,0A18.39,18.39,0,0,1,3.9,11.44,10.05,10.05,0,0,0,2.7,7.63c-.05.32-.09.58-.15.84a20.35,20.35,0,0,1-1.31,3.65A13.41,13.41,0,0,0,.05,15.83a6.31,6.31,0,0,0,1.7,5.26A15.08,15.08,0,0,0,5,23.6Z"/></g></g></svg>