<svg xmlns="http://www.w3.org/2000/svg" viewBox="0 0 40 29.96"><defs><style>.cls-1{fill:#1a2026;}</style></defs><g id="Layer_2" data-name="Layer 2"><g id="Layer_1-2" data-name="Layer 1"><path class="cls-1" d="M39.77,23.24a1.06,1.06,0,0,0-.76-.36l-3.65-.14-.86-4.67a1.41,1.41,0,0,0-1.29-1.14l-7.51-.49-.8-1.39L28.46,7a1.21,1.21,0,0,1-.25-.08l-.3.34-3.26,7.38-1.4-2.45,4.92-5.52A1,1,0,0,0,29.67,6a1,1,0,1,0-1.94-.31,1,1,0,0,0,.14.67l-5.05,5.09-.64-1.12,4.66-3.22.78-.79-.06-.19L22,10,17.49,2.11l0,0v.75l4.18,7.31-2.73,1.88-.34.23-1.31.82V2a.31.31,0,0,0,.23-.3V.32A.3.3,0,0,0,17.24,0h-.69a.32.32,0,0,0-.32.32V1.7a.33.33,0,0,0,0,.14.29.29,0,0,0,.2.16V13.62l-2.31,1.43L10.57,11.6l5.7-8.84V2.13s0,0,0,0l-6,9.23L2.71,4a1.62,1.62,0,0,1-.1.18l.65.9,6.8,6.54L8.94,13.43,2.37,4.22a1,1,0,0,0,.24-.65,1,1,0,1,0-1,1A1,1,0,0,0,2,4.48l6.29,9.89L5.65,18.49,2.18,5.1l-.25-.38a1,1,0,0,1-.25,0L5.36,18.94,4.31,20.57C3.06,20.4,1.87,20.23.78,20H.66a.66.66,0,0,0-.55.3A.68.68,0,0,0,.05,21c.29.69.59,1.37.91,2a27.93,27.93,0,0,0,1.82,3.21c0-.05.1.1.1.1h0C4.23,28.31,5.93,30,7.78,30h24a8.77,8.77,0,0,0,6.37-2.22,6.42,6.42,0,0,0,1.65-2.82,4.27,4.27,0,0,0,.13-.54c0-.11,0-.23.07-.35A1,1,0,0,0,39.77,23.24Zm-25-1.59,1.66-1.87v2l-1.63-.13Zm1.66-3.82L13.92,20.4l-2.34-3.27,2.53-1.57,2.36,2.26Zm.8,1.06.16-.18,3.48,3.38-3.64-.21Zm5.66,1.89.17,1.42-1.32-.07.55-1.24.22-.5.27-.62Zm2.29-4.37-.89-.06.37-.84Zm-.77-1.33-.55,1.26a1.37,1.37,0,0,0-1.32,1.17L22.74,19l-.41.92-.22.49L21.4,22l-3.72-3.58L23,12.49Zm-5.7-2.4.33-.23,2.77-1.92.68,1.19L17.27,17V13.6Zm-2.28,1.41v3.18l-2-1.93Zm-6.12-2.15,3.46,3.33L11.34,16.8l-2.15-3Zm-1.81,2.8,1.73,2.72L6.06,20.07,5.79,19Zm-3.8,5.89.75-1.16.34,1.3-.9-.11Zm1.52.19-.09-.33,4.32-2.68,2.34,3.68,0,0Q9.27,21.2,6.26,20.82Z"/></g></g></svg>