<svg xmlns="http://www.w3.org/2000/svg" width="26.3" height="21.5" viewBox="0 0 26.3 21.5">
  <title>Fishing Net</title>
  <g id="Layer_2" data-name="Layer 2">
    <g id="Layer_1-2" data-name="Layer 1">
      <path d="M23.3,11.1l3-2.2h-.1l-3.7,2.3c-.3-1-.7-1.9-1-2.8s-.4-.8-.4-1.1.5-.6.9-1l-1.2.4c-.2-.4-.5-.8-.7-1.3a2,2,0,0,0,.2,1.1,1.4,1.4,0,0,1-.2.7L16.9,8.7c-.6-1.3-1.1-2.6-1.6-3.9l2.2-1.3V3.3l-2.3,1-.8-1.4c0,.4.2.8.2,1.2s0,.5-.1.5L10.3,6.5h-.1c1.4-1.9,2.7-3.9,2.1-6V.1h-.4C10.5-.2,8.5.5,6.6,1.8h0l-1,.8A11.4,11.4,0,0,0,3.4,4.8,5.9,5.9,0,0,0,.1,7v.5A3,3,0,0,0,1.5,8.7a9.9,9.9,0,0,0-.2,1.7,3.4,3.4,0,0,0,1.3,2.9,5.1,5.1,0,0,0,2.9,1L2.7,15.6h.1l3.8-1.4h.5c.4,1.1.7,2.2,1,3.2s.2.9-.5,1.1L4.4,20v.2l4-1.4.9,2.7a19.7,19.7,0,0,0-.3-2.4c-.1-.2,0-.6.2-.6l3.8-1.7c.3.8.5,1.6.7,2.3a11.5,11.5,0,0,0-.1-1.9.6.6,0,0,1,.2-.7,41.1,41.1,0,0,1,4.2-2.1,11.8,11.8,0,0,0,.7,2c0-.6-.2-1.2-.2-1.7a.8.8,0,0,1,.1-.7l3.5-2.1c.3.7.6,1.4.8,2a3.6,3.6,0,0,0-.2-1.5C22.6,11.8,22.7,11.5,23.3,11.1Zm-8.4-6c.5,1.2.9,2.4,1.3,3.6a.8.8,0,0,1-.2.5l-3.1,1.6a2,2,0,0,0-.1-1.3V9h-.5c-.3,0-.5.2-.8.3l-.9-2.2ZM10,7.3l.9,2.5A15.6,15.6,0,0,0,8,12.6c-.6-.5-1.3-1.1-1.3-1.7s1.1-1.8,2-2.8L9,7.7Zm-.9-5a.4.4,0,0,1,.7-.1c.2.1.2.5,0,.7A.6.6,0,0,1,9,3,.5.5,0,0,1,9.1,2.3ZM6.6,3a.3.3,0,0,0,.1-.2V3a3.9,3.9,0,0,0,.6,1.3,4.6,4.6,0,0,0,1.9.8h0a2.1,2.1,0,0,1-2-.3,1.6,1.6,0,0,1-.7-1.4A1.1,1.1,0,0,0,6.6,3Zm5.9,13.4L8.9,18.1c-.4-1.4-.8-2.6-1.1-3.8h.8l2.4.2h1.3a15.4,15.4,0,0,1,.5,1.7A.4.4,0,0,1,12.5,16.4Zm5-2.4-4.1,2a13.3,13.3,0,0,0-.5-1.9l.8-.2.6-.2-.3-.5a8.3,8.3,0,0,0-1.1-1.7l3.6-1.8a30.4,30.4,0,0,1,1.2,3.6C17.8,13.5,17.6,13.9,17.5,14Zm4.2-2.4-3.4,1.9c-.4-1.3-.8-2.6-1.1-3.8s.1-.4.2-.5l3.2-2,1.3,3.7A.6.6,0,0,1,21.7,11.6Z" fill="#1a2026"/>
    </g>
  </g>
</svg>
