<svg xmlns="http://www.w3.org/2000/svg" viewBox="0 0 47 26.3"><defs><style>.cls-1{fill:#1a2026;}</style></defs><g id="Layer_2" data-name="Layer 2"><g id="Layer_1-2" data-name="Layer 1"><path class="cls-1" d="M46.83,24a.64.64,0,0,0-.94-.05l-1,.84a.83.83,0,0,1-1.14,0l-.54-.44a2.07,2.07,0,0,0-1.39-.5,4.47,4.47,0,0,0,.1-2.47,5.71,5.71,0,0,0-3.11-3.51c-2.47-1.33-2-2.52-1.29-4.5S39.36,5.31,36.45,1.5l.44-.29A.69.69,0,0,0,37,.27.69.69,0,0,0,36.1.12L22,13.33a1,1,0,0,0-.55-.05l-2.52.2L16,10.81a2.53,2.53,0,0,0-1.82-.74h-.4a2.66,2.66,0,0,0-2,.94,2.86,2.86,0,0,0-.64,2.17L12,21,.86,21.25a.89.89,0,0,0-.79,1.24l1.68,2.06a2.53,2.53,0,0,0,2.32,1.58H23.89a7.13,7.13,0,0,0,3.22-.79l.49.4a2.26,2.26,0,0,0,2.92,0l.54-.45a.92.92,0,0,1,1.14,0l.54.45a2.2,2.2,0,0,0,2.92,0l.54-.45a.92.92,0,0,1,1.14,0l.54.45a2.18,2.18,0,0,0,2.87,0l.54-.45a1,1,0,0,1,1.14,0l.54.45a2.32,2.32,0,0,0,2.92,0l1-.84A.77.77,0,0,0,46.83,24Zm-6,0c-.15.1-.35.15-.45.3l-.54.44a.83.83,0,0,1-1.14,0l-.54-.44a2.29,2.29,0,0,0-2.92,0l-.54.44a.83.83,0,0,1-1.14,0L33,24.31a2.29,2.29,0,0,0-2.92,0l-.54.44a.83.83,0,0,1-1.14,0l-.2-.15,3.71-3a.9.9,0,0,0-.79-1.39l-13.84.45L17,15.41l.45.44a1.28,1.28,0,0,0,.94.35h.1L21.62,16a1.34,1.34,0,0,0,1.24-1.43.18.18,0,0,0-.05-.15L35.71,2c2.62,3.41,1.73,8.91.94,11s-1.44,3.9,1.68,5.58A4.83,4.83,0,0,1,41,21.49,4,4,0,0,1,40.8,24Z"/><circle class="cls-1" cx="14.01" cy="6.31" r="2.92"/></g></g></svg>