<svg xmlns="http://www.w3.org/2000/svg" viewBox="0 0 28 27.49"><defs><style>.cls-1{fill:#1a2026;}</style></defs><title>Geofence Break</title><g id="Layer_2" data-name="Layer 2"><g id="Layer_1-2" data-name="Layer 1"><path class="cls-1" d="M10.28,27.49a.78.78,0,0,1-.68-.4L.1,10.14a.77.77,0,0,1,.23-1l12.84-9A.78.78,0,0,1,13.78,0a.74.74,0,0,1,.5.37l4.85,8.5a.77.77,0,0,1-1.34.76L13.36,1.89,1.78,10l8.91,15.9L26,24l-5.17-9a.77.77,0,1,1,1.34-.76L27.9,24.28a.79.79,0,0,1,0,.73.8.8,0,0,1-.6.42l-17,2.05ZM25.65,8.8v0a.23.23,0,0,0-.21-.25.22.22,0,0,0-.14,0l-3.37,1.92a.24.24,0,1,0,.23.41L25.53,9a.27.27,0,0,0,.12-.16Zm-.94,4.27-3.09-.85a.23.23,0,0,1-.16-.28.23.23,0,0,1,.28-.16l3.09.84a.23.23,0,0,1,.17.24v.06A.24.24,0,0,1,24.71,13.07Zm-3.77-2.7a.22.22,0,0,1-.28.16.23.23,0,0,1-.16-.28l.85-3.09a.23.23,0,0,1,.45.08v0ZM13,15.17v0a.23.23,0,0,0,.21.25.23.23,0,0,0,.14,0l3.37-1.92a.22.22,0,0,0,.09-.31.23.23,0,0,0-.32-.09L13.14,15a.25.25,0,0,0-.12.16ZM14,10.9l3.09.85a.22.22,0,0,1,.16.28.23.23,0,0,1-.28.16l-3.09-.85a.24.24,0,0,1-.17-.23v-.06A.22.22,0,0,1,14,10.9Zm3.77,2.69a.24.24,0,0,1,.28-.16.23.23,0,0,1,.16.28l-.84,3.09a.23.23,0,1,1-.46-.08v0Z"/></g></g></svg>