<svg xmlns="http://www.w3.org/2000/svg" viewBox="0 0 25.1 44"><defs><style>.a{fill-rule:evenodd;}</style></defs><path class="a" d="M24.3,31.3a1.81,1.81,0,0,0,.6.54c.17.05.21,0,.2-.21a1.65,1.65,0,0,0-.25-.9c-.09-.12-.33-.14-.37-.25a5.36,5.36,0,0,1-.38-1.18c0-.1,0-.2,0-.29l-.18-1.2c-.07-.45-.09-.91-.15-1.36,0,0,0-.05,0-.07a7.93,7.93,0,0,0,.14-1,5,5,0,0,0-.22-1.87,3.43,3.43,0,0,0-2.12-2.22,4.12,4.12,0,0,0-1.14-.5,8.56,8.56,0,0,0-2.38.41,13.65,13.65,0,0,1-2.56.13,17.48,17.48,0,0,1-4.93-1A7.43,7.43,0,0,0,8,19.93c-.42,0-.82.08-1.24.12-.58.06-.52-1.09-.52-1.09a4,4,0,0,1,0-.91c0-.84,0-1.69,0-2.54s0-1.95.08-2.93l.06-2.34s0,0,0-.06l0,0A2.65,2.65,0,0,0,7,9.38a5.38,5.38,0,0,1,.5-1.09c.23-.28.32-.66.59-.88C8.56,7,9.18,7,9.65,6.68a2.56,2.56,0,0,0,.74-.83,3.87,3.87,0,0,0,.29-.62,1.91,1.91,0,0,0,.18-.47.22.22,0,0,0,0-.16.21.21,0,0,0-.17-.09,2.5,2.5,0,0,0-.81.22A5.27,5.27,0,0,0,7.77,5.81l-.72.73a1.28,1.28,0,0,0-.26-.26c.17-.25.34-.51.53-.76a2.2,2.2,0,0,0,.17-.25,3.42,3.42,0,0,0,.67-2.08.63.63,0,0,0-.1-.3,5.58,5.58,0,0,0-.64-.73,1.49,1.49,0,0,1-.5-.74,4.25,4.25,0,0,1-.06-.8V.27c0-.06,0-.23-.05-.26h0c-.13,0-.17.15-.2.25A1.94,1.94,0,0,0,6.5.58a3.72,3.72,0,0,0,.06,1.2A.86.86,0,0,0,6.62,2a2.51,2.51,0,0,0,.26.45c.09.13.21.25.3.38a1.34,1.34,0,0,1,.2.91,1.78,1.78,0,0,1-.21.54,8,8,0,0,1-.61.91l-.25.33-.19.25a.29.29,0,0,0,0,.13,2.19,2.19,0,0,0-.66-.13,2.18,2.18,0,0,0-.75.13.35.35,0,0,0,0-.13l-.19-.25L4.17,5.2a6.88,6.88,0,0,1-.61-.91,1.78,1.78,0,0,1-.21-.54,1.28,1.28,0,0,1,.2-.91c.09-.13.2-.25.3-.38A2.51,2.51,0,0,0,4.11,2a.86.86,0,0,0,.06-.23A3.72,3.72,0,0,0,4.23.58,1.94,1.94,0,0,0,4.16.25C4.12.15,4.09,0,4,0h0c-.07,0,0,.2,0,.26V.62a5.29,5.29,0,0,1-.06.8,1.49,1.49,0,0,1-.5.74,5.58,5.58,0,0,0-.64.73.63.63,0,0,0-.1.3,3.42,3.42,0,0,0,.67,2.08,2.2,2.2,0,0,0,.17.25c.19.26.37.52.55.79a2.24,2.24,0,0,0-.2.17S3.08,5.76,3,5.7a4.48,4.48,0,0,0-.91-.6,5.27,5.27,0,0,0-1-.37c-.26-.07-1-.41-1.06,0a1.44,1.44,0,0,0,.37.93,3.39,3.39,0,0,0,.78.73c.63.45,1.36.67,1.82,1.3.11.16.29.23.39.4a4.93,4.93,0,0,1,.27.67A4.89,4.89,0,0,0,4,9.44a4.27,4.27,0,0,0,.3.44.78.78,0,0,1,.25.47c0,.18,0,.36,0,.54s0,.62,0,.93c0,.75-.08,1.51-.09,2.26,0,1.67,0,3.35-.2,5C4.05,20.58,4.06,22,4,23.53c0,.46.32,2.5.32,2.5a6.06,6.06,0,0,0,.85,1.76,14.34,14.34,0,0,1,0,4.71l-.06.31-1,5A39,39,0,0,1,3,43.25a.26.26,0,0,0,0,.15c0,.18.75.32.91.28s.13-.63.11-.81a3.79,3.79,0,0,1,.26-1.28c.09-.34.18-.67.28-1,.24-.89.48-1.78.73-2.68l1.63-6c.27-1,.54-2,.82-3l.36.15c0,.14,0,.28,0,.42l.12,4.34q.07,3,.16,6c0,1.37.07,2.74.11,4.11.21,0,.78.15.94,0s0-.3,0-.38a5.61,5.61,0,0,1-.06-.92c.14-3.36.33-6.73.5-10.09l.14-3c2.55,1.37,6.67.25,6.67.25.18,2.33,3.34,6.32,3.34,6.32a4.37,4.37,0,0,1,.16,2.56c-.17,1.29-.49,2.57-.74,3.85-.06.3-.45.74-.41,1,0,.14,0,.1.22.15a8.33,8.33,0,0,0,.86.22c.15-.32-.05-.85,0-1.21l.57-2.34c.3-1.22.68-2.42,1-3.64.14-.63-.32-1.72-.21-2.35.1.2,1.85,1.84,1.85,1.84a7.3,7.3,0,0,1,.62,2.36l.14,4.25c0,.26,0,.53-.05.79s-.05.31.21.34a2,2,0,0,0,.55,0c.23-.05.19,0,.18-.23a6.51,6.51,0,0,0-.15-1,8.71,8.71,0,0,1,0-1.14c0-.84,0-1.68,0-2.52s0-1.91,0-2.87c0-.33,0-.68,0-1a5.06,5.06,0,0,0-1-1.95c-.43-.68-.88-1.36-1.27-2.07A4.24,4.24,0,0,1,22.28,29c0-.39.49-.69.74-.93a1.7,1.7,0,0,0,.23-.3l1.05,2.86A.76.76,0,0,0,24.3,31.3Z"/></svg>