<svg xmlns="http://www.w3.org/2000/svg" viewBox="0 0 25.1 39.49"><defs><style>.a{fill:#010101;}</style></defs><path class="a" d="M24,.22a5.51,5.51,0,0,0-1,.37,5.51,5.51,0,0,0-.91.6c-.07.06-.77.77-.75.78A3.73,3.73,0,0,0,18.05,2l-.72-.73A5.27,5.27,0,0,0,15.26.22a2.51,2.51,0,0,0-.8-.22.28.28,0,0,0-.18.09.32.32,0,0,0,0,.16,1.6,1.6,0,0,0,.19.47,3.46,3.46,0,0,0,.28.62,2.5,2.5,0,0,0,.74.84c.47.32,1.09.36,1.53.72.27.23.36.6.59.88a4.38,4.38,0,0,1,.5,1.1,1.54,1.54,0,0,0,.37.53s.46.26.46.27.06,8.35,0,8.77c0,0,.06,1.16-.52,1.09-.41,0-.82-.11-1.24-.12a7.11,7.11,0,0,0-2.5.47,18,18,0,0,1-4.94,1,13.7,13.7,0,0,1-2.56-.14,8.56,8.56,0,0,0-2.38-.41,4.26,4.26,0,0,0-1.14.5,3.45,3.45,0,0,0-2.12,2.23,5.09,5.09,0,0,0-.22,1.86c0,.32.08.64.14,1a.19.19,0,0,1,0,.07c-.06.45-.08.91-.15,1.36s-.12.8-.17,1.2L1,24.79A5.2,5.2,0,0,1,.62,26c0,.11-.28.14-.37.25a1.75,1.75,0,0,0-.25.91c0,.16,0,.25.2.21a1.88,1.88,0,0,0,.6-.55.75.75,0,0,0,0-.72l1.05-2.86a1.7,1.7,0,0,0,.23.3c.25.24.73.54.74.93a4.24,4.24,0,0,1-.39,2.25c-.39.71-.83,1.39-1.27,2.08a5,5,0,0,0-1,1.94c0,.33,0,.68,0,1l0,2.86c0,.84,0,1.68,0,2.52a7.26,7.26,0,0,1,0,1.14,6.51,6.51,0,0,0-.15,1c0,.24-.05.18.19.23a2,2,0,0,0,.54,0c.27,0,.23-.1.21-.33S1,38.59,1,38.33l.14-4.25a7.21,7.21,0,0,1,.62-2.35s1.76-1.65,1.85-1.84c.11.63-.35,1.71-.21,2.34.27,1.22.65,2.42.95,3.64L5,38.21c.09.37-.11.89,0,1.21a6.38,6.38,0,0,0,.86-.22c.17,0,.2,0,.22-.14,0-.3-.35-.75-.41-1.05-.25-1.27-.57-2.56-.73-3.84a4.36,4.36,0,0,1,.15-2.56s3.16-4,3.34-6.32c0,0,4.12,1.11,6.67-.26l.15,3c.16,3.37.35,6.73.49,10.09a7,7,0,0,1-.05.92c0,.08-.08.31,0,.38s.73,0,.95,0c0-1.37.07-2.74.11-4.11l.15-6L17,25c0-.15,0-.29,0-.43l.36-.15c.28,1,.55,2,.83,3q.81,3,1.63,6c.24.89.48,1.78.73,2.67l.27,1a3.8,3.8,0,0,1,.26,1.29c0,.17-.17.73.11.8s.86-.1.91-.28a.2.2,0,0,0,0-.15,39.12,39.12,0,0,1-1.15-5.39L20,28.3l0-.31a14,14,0,0,1,0-4.7,6.28,6.28,0,0,0,.84-1.76s.33-2,.32-2.51c0-1.49,0-2.95-.17-4.44-.17-1.83-.42-3.66-.48-5.51,0-1.11-.06-2.22,0-3.33,0,0,.16-.14.18-.16A3.3,3.3,0,0,0,21,5.05a3.44,3.44,0,0,0,.51-.92,1.84,1.84,0,0,1,.19-.51c.1-.17.28-.24.39-.39.46-.64,1.19-.86,1.83-1.31a3.51,3.51,0,0,0,.77-.72,1.46,1.46,0,0,0,.37-.94C25-.18,24.29.16,24,.22Z"/></svg>