<svg xmlns="http://www.w3.org/2000/svg" viewBox="0 0 23.2 32"><path d="M16.7,22.3a4.1,4.1,0,0,1-.5-.9c-.1-.2-.1-.5-.2-.7s-.1-.2-.1-.3H14.7a2.5,2.5,0,0,1-1.1-.4l-.5-.2-.7-.2c0,.1-.1.2-.1.3a17.9,17.9,0,0,1-.2,2.4,10.7,10.7,0,0,0,0,1.8,4.5,4.5,0,0,1-.1,1.6,21,21,0,0,0,.1,3.5c.2.7.1.9-.1,1.2v.9c0,.2.1.4-.1.5H10.7c-.2,0-.4-.1-.4-.2s0-.2,0-.3.1-.2.1-.4.1-.3.2-.4v-.5c0-.2-.1-.4,0-.6s.1-1.3.1-1.8,0-.3.1-.4v-.5a1.1,1.1,0,0,1,0-.8c0-.2,0-.1-.1-.4v-.4a2,2,0,0,1,0-1.1c0-.3-.1-.7-.1-.9a5.7,5.7,0,0,0-.1-1.2,11,11,0,0,0-.1,1.6,4.4,4.4,0,0,1-.2,1.6,13.8,13.8,0,0,0,.3,3.4,1.5,1.5,0,0,1-.2,1.1,1.5,1.5,0,0,0-.2.8h.1c0,.3,0,.6-.2.7H8.8c-.3,0-.5,0-.6-.2v-.2l.3-.4.5-.6a1.1,1.1,0,0,0-.1-.5v-.6A8.2,8.2,0,0,0,9.1,27V25.4a2.7,2.7,0,0,0,0-.9v-.2A17.6,17.6,0,0,1,9,22a6.5,6.5,0,0,0,0-1.4A7.2,7.2,0,0,0,8.2,18a1.5,1.5,0,0,1-.3-1.6c.3-.8.4-1.4.5-1.7s-.1-.3-.3-.6H8a3.5,3.5,0,0,1-.5-.8V13l-.2-.3h0l-.5-1.1h0v-.2h0a4.3,4.3,0,0,1-.1-.5L6.1,9.6Q6,8.7,5.8,8.1a16.4,16.4,0,0,0-1-2.8c-.4-1-.6-1-.8-1H3.9l-.7.3-.3.2-1.1.3H1.7l-.5.3v.2H.5l-.3.2H0V5.2c0-.5.5-.9.8-1.3a1.5,1.5,0,0,0,.4-.8c0-.1.1-.2.1-.4A1.9,1.9,0,0,1,2,1.9c.1,0,.1-.1.2-.2s0-.6-.1-.7V.8A.4.4,0,0,0,2,.5.2.2,0,0,1,2,.2c.1-.2.4-.2.7-.2l.2.2c.1.1,0,.2-.1.3h0c0,.6,0,.7.1.8V1.1C3,1,3,1,3.1.9V.7A.4.4,0,0,1,3,.4.3.3,0,0,1,3.3.1.5.5,0,0,1,4,.3c0,.1,0,.2-.1.2a2.9,2.9,0,0,0-.2.9h.1l.2.2c.1,0,.1.1.2,0l1.3-.6a.4.4,0,0,1,.5.1c0,.1,0,.2-.2.4l-.4.6H5.3c0,.1,8.1,10.5,8.3,10.7a6.9,6.9,0,0,0,2.6,1.2l1.7.4a4.7,4.7,0,0,1,2.6,1.5,4,4,0,0,1,.7,1.3c0,.2,0,.3.1.4a7.9,7.9,0,0,1,.2,1.7,2.8,2.8,0,0,1,.1.9c.1.5.4,1,.5,1.4h.1a.4.4,0,0,0,.1.3,1.8,1.8,0,0,1,.4.9v.4a.9.9,0,0,0,.1.5l.2.2a.6.6,0,0,1,.2.7c0,.2-.1.3-.1.4s-.1.4,0,.5.1.2,0,.3a.1.1,0,0,1-.1.1.5.5,0,0,1-.5-.3c0-.1,0-.1-.1-.2a1.6,1.6,0,0,1-.3-.9c0-.4.3-.5.3-.7s-.1-.5-.2-.7a1.8,1.8,0,0,0-.5-1.2.3.3,0,0,0-.1-.2,2.3,2.3,0,0,0-.3-.8,11.1,11.1,0,0,1-.7-2.6c-.1.4-.2,1-.3,1.5s-.1.4-.1.6a7.6,7.6,0,0,0,0,2.6l.3.6a1.5,1.5,0,0,1,.1.7,20.5,20.5,0,0,0-.6,3.2,4.6,4.6,0,0,0,.1,1.8v.3a1,1,0,0,1-.3.9h0a.4.4,0,0,0,0,.5v.2c-.1.1-.2.2-.9.2h-1l.6-.7a1.9,1.9,0,0,0,.5-1.2v-.4a25.3,25.3,0,0,0-.1-4,.4.4,0,0,0-.1-.3,3.9,3.9,0,0,1-.4.9,12.2,12.2,0,0,0-.7,2.1,7.9,7.9,0,0,0-.4,1.2c-.1.2-.1.5-.2.7a1,1,0,0,1-.2.7h-.1l-.4.4c-.1.1,0,.3,0,.5s0,.1-.1.1H14.8v-.2a2.4,2.4,0,0,1,.7-.9,2.5,2.5,0,0,0,.5-.8c0-.1.1-.3.1-.4s.1-.2.1-.3l.2-.8a21.6,21.6,0,0,0,.8-2.6,1.1,1.1,0,0,0-.1-.5V24a3.4,3.4,0,0,0-.1-1.1A1.6,1.6,0,0,1,16.7,22.3Z"/></svg>
