<svg xmlns="http://www.w3.org/2000/svg" viewBox="0 0 32 31.4"><path d="M3.5,15.4a12.1,12.1,0,0,0,0,2.7A15.3,15.3,0,0,1,3.8,22a19.3,19.3,0,0,1-1.1,3.2,8.8,8.8,0,0,0-.1,3.1c0,1.9.1,3.1.4,3.1H4.3c.1-.6-.3-.9-.3-1.1-.2-2.1-.1-3.6.5-4.5a11.7,11.7,0,0,1,2.2-2.9l.3-.2a17,17,0,0,1-.1,2.5,12.3,12.3,0,0,0,.4,3.1c.4,1.9.5,3.1.8,3.1H9.5c.1-.6-.4-.9-.5-1.1a12,12,0,0,1-.3-4.8A12.3,12.3,0,0,1,10,22.6l.8-1,2.8.2a47.9,47.9,0,0,0,5.2.2,12.1,12.1,0,0,1,.1,1.8c0,1.2,0,2.7.1,4.5s.2,3.1.4,3.1h1.3c0-.6-.4-.9-.4-1.1a28.7,28.7,0,0,1,.6-6.8V24c0,.6.2,2.2.3,4.3s.3,3.1.5,3.1H23a1.9,1.9,0,0,0-.5-1.1,24.8,24.8,0,0,1,.4-6.6,16.1,16.1,0,0,1,.7-2.5,3.2,3.2,0,0,0,1.3-1c1.3-1.4,1.6-2.4,1.8-4.8.1-.9.4-4,.8-6s.3-1.3.8-1.2h.8l-.3.4a2.1,2.1,0,0,0,.1,2.3c.4.7.5.7.4-.2a3.6,3.6,0,0,1,.5-2.4h.6a1.6,1.6,0,0,0,1.2-.2c.4-.4.5-.9.2-1.2a22.6,22.6,0,0,0-2.2-2.2,11,11,0,0,0-.8-1,4.2,4.2,0,0,0-1.6-.9C26,.6,23.5,0,20.9,0c-.8,0-.8.1.1.2a8.1,8.1,0,0,1,3.3,1.2A7.2,7.2,0,0,0,21,.7c-.7,0-.8.1,0,.2a6.3,6.3,0,0,1,4.2,2.2H25c-.9-.7-1.5-.7-1.4-.4a3.6,3.6,0,0,0,.5,1.3L22.9,6.2c-.9,2-1.7,5-5,5.1S6.7,9.6,4.3,13.1c-1.7,1-3.1.5-3.5-1.2s-.2-.6-.3-.1a5.7,5.7,0,0,0,.1,1.4c0,.4-.2.3-.3.1s-.3-.3-.2.2A2.5,2.5,0,0,0,3.5,15.4Z"/></svg>
