<svg xmlns="http://www.w3.org/2000/svg" width="29.4" height="22.4" viewBox="0 0 29.4 22.4">
  <title>feature-mine</title>
  <g id="Layer_2" data-name="Layer 2">
    <g id="Layer_1-2" data-name="Layer 1">
      <g>
        <polygon points="13.7 14.6 12 17.5 15.1 22.4 18.2 21.2 19.5 16.3 13.7 14.6" fill="#1a2026"/>
        <polygon points="24.4 13.8 23 10.4 18.7 12.3 22 16.3 24.4 13.8" fill="#1a2026"/>
        <polygon points="28.1 14.9 24.4 15.3 19.5 21.2 28.1 21.2 29.4 17.9 28.1 14.9" fill="#1a2026"/>
        <path d="M14.7,4.2l.9-1-2-1.9-.9.9,1,.9Z" fill="#1a2026"/>
        <path d="M11.1,5.8a9.4,9.4,0,0,0-1-1L0,14.9l2,2L12,6.8Z" fill="#1a2026"/>
        <path d="M10.4,4.5a9.4,9.4,0,0,0,1,1l.9,1,.6-.6c2.1,2.4,3.5,4.9,3.5,6.9,1.2-2.5.1-6.4-2.9-9.4S6.6-.7,4,.4C6.1.4,8.5,1.8,10.9,4Z" fill="#1a2026"/>
      </g>
    </g>
  </g>
</svg>
