<svg xmlns="http://www.w3.org/2000/svg" viewBox="0 0 32 32"><defs><style>.a{fill:#1c232b;}</style></defs><path class="a" d="M26,0a6,6,0,0,0-6.1,6,6.5,6.5,0,0,0,.7,2.9l4.8,8.3a.6.6,0,0,0,.6.3.5.5,0,0,0,.5-.3l4.8-8.3A6.5,6.5,0,0,0,32,6,6,6,0,0,0,26,0Zm0,9.5a3,3,0,1,1,2.9-2.9A2.9,2.9,0,0,1,26,9.5Z"/><path class="a" d="M15.6,0a1.9,1.9,0,0,0-2,1.7V9.6l-2.3-.2H6.4V7.6a1.9,1.9,0,0,0-2-1.7A1.9,1.9,0,0,0,2.3,7.6v2.5C.9,10.7,0,11.5,0,12.4V29c0,1.7,2.9,3,6.4,3h4.9c3.5,0,6.4-1.3,6.4-3V1.7A1.9,1.9,0,0,0,15.6,0ZM8.8,14a.9.9,0,0,1,.9.8.9.9,0,0,1-.9.9.9.9,0,0,1-.8-.9A.9.9,0,0,1,8.8,14ZM5.5,14a.9.9,0,0,1,.8.8.9.9,0,0,1-.8.9.9.9,0,0,1-.9-.9A.9.9,0,0,1,5.5,14Zm7.6,6.3H4.6V17.4h8.5Zm-.9-4.6a.9.9,0,0,1-.8-.9.9.9,0,0,1,.8-.8.9.9,0,0,1,.9.8A.9.9,0,0,1,12.2,15.7Z"/></svg>
