<svg xmlns="http://www.w3.org/2000/svg" viewBox="0 0 44.1 40.05"><defs><style>.a{fill-rule:evenodd;}</style></defs><path class="a" d="M6.39,10A6,6,0,0,0,5.56,8.7c-.32-.53-.84-1.22-.63-1.92.18-.38.15-1,.54-1.21.3.32-.11.79-.12,1.16C5.22,8,6.25,8.82,6.44,10,6.45,10.14,6.44,10,6.39,10Z"/><path class="a" d="M5.78,6.82c.09-.35,0-.94.37-1,.19.39-.05,1.06.11,1.53A17.56,17.56,0,0,1,7,10.67s0,.06-.06,0a14,14,0,0,0-.4-1.36C6.37,8.5,5.72,7.77,5.78,6.82Z"/><path class="a" d="M3.09,7.37a5.38,5.38,0,0,1,.27-.8c.28-.34.82.07,1.18-.19.1.15-.14.38-.17.53C4.28,7.46,3.57,7.42,3.09,7.37Z"/><path class="a" d="M7,7.13s.07-.06.07-.06A8.48,8.48,0,0,0,7.2,8.13a3.07,3.07,0,0,1,.35,2l0,.05a10.65,10.65,0,0,1-.39-1A2.86,2.86,0,0,1,7,7.13Z"/><path class="a" d="M5.25,8.84c.17.67-.12,1.57.35,2.06H5.54c.13.18-.16,0-.21-.07C5,10,5,8.26,4.34,8.36c-.52-.12-1.11-.35-1.49.13s-.16-.13-.05-.27c.27-.77,1.34,0,1.64-.73.06-.08.1-.12.13-.12s0,.43-.07.56A.9.9,0,0,1,5.25,8.84Z"/><path class="a" d="M2.93,9.07c-.38.14-.35,0-.1-.17a1,1,0,0,1,.81-.37h0a2,2,0,0,1,.54.09c.79.18.56,1.22.68,1.83s.84.91,1,1.54l-.37.23c-.11-.31-.37-.45-.56-.71-.55-.35-.13-1.66-.69-2C4,9.26,3.49,8.81,2.93,9.07Z"/><path class="a" d="M4.26,11.57c-.39-.16-.43-.62-.53-1s-.66-.35-1-.67c-.08-.17-.45-.23-.38-.31a1,1,0,0,1,.3,0,1.82,1.82,0,0,1,1.39.63c.19.45.21,1.08.62,1.36A1.77,1.77,0,0,1,5,12.6l-.24.15v-.07A1.22,1.22,0,0,0,4.26,11.57Z"/><polygon class="a" points="5.73 9.52 5.73 9.52 5.73 9.52 5.73 9.52"/><path class="a" d="M5.73,9.52c.14.83.76,1.29.86,2.07l-.38.23a3.11,3.11,0,0,0-.46-1.53A1.81,1.81,0,0,1,5.73,9.52Z"/><path class="a" d="M16.08,10.63c.15-.15.2-.39.41-.52-.26.75-.69,1.65-.92,2.28a12.81,12.81,0,0,1-.71,1.84c-.41.93-1.12,1.73-1.52,2.56a3,3,0,0,0-.26-.27,15.54,15.54,0,0,1,1.43-4.06A6.11,6.11,0,0,1,16.08,10.63Z"/><path class="a" d="M3.35,11.51a4.65,4.65,0,0,1-1.46-.61c.4-.2.76-.36,1.05.07.5,0,.9.5,1,.92A1.21,1.21,0,0,1,4.31,13L4,13.16A2.61,2.61,0,0,0,4,12.4C3.58,12.26,3.68,11.67,3.35,11.51Z"/><path class="a" d="M2.4,11.92a.89.89,0,0,1,.3-.06c.49,0,1.17.67,1.06,1l-.13.32c-.4-.83-1.62-.57-2.11-1C1.63,12.28,2.2,12,2.4,11.92Z"/><path class="a" d="M16.78,18.16c.57-.78.58-1.8,1.36-2.39h.08c.37,0,.36.52.48.87-.15.35-.77.21-.91.59.44.32,1.43-.17,1.78.34a5.24,5.24,0,0,1,.9,1.89c.23.16.15.63.11.82,0-.38-.52-.64-.58-1.16-.21-.57-1-.47-1.51-1s-1.21-.41-1.36.05c-.35.42-.24,1.35-.73,1.75a3.41,3.41,0,0,0-.75.56l-.4-.37.1-.08A21.58,21.58,0,0,0,16.78,18.16Z"/><path class="a" d="M17.71,18.5l.23,0a2,2,0,0,1,1.77,1c.17.41.59.72.66,1.17a5,5,0,0,0-1.47-.85c-.5-.26-1.18-.07-1.77-.26C17,19.1,17.22,18.5,17.71,18.5Z"/><path class="a" d="M34.87,21.88c.13,0,1.12-.24,1.25-.24a3.06,3.06,0,0,1,1.2.36,7.89,7.89,0,0,0-2.21.68C35,22.4,34.94,22.13,34.87,21.88Z"/><path class="a" d="M16.84,22.75a1,1,0,0,1-.36,0c-.05-.25-.1-.48-.14-.7a5.38,5.38,0,0,0,1.51-.27c.23,0,.48,0,.74,0a1.64,1.64,0,0,1,1,.23l.06.12c-.29.09-.6.27-1,.38A2.39,2.39,0,0,1,16.84,22.75Z"/><path class="a" d="M35.41,23.68c-.06-.19-.11-.38-.17-.56a3.22,3.22,0,0,0,2.08-.71C37.15,23.35,36.21,23.65,35.41,23.68Z"/><path class="a" d="M41.36,22.81c.23,0,.44,0,.6,0a.28.28,0,0,1,.26.11,2,2,0,0,0,.05.24v.08c-.05.33-.35.31-.64.35a2.18,2.18,0,0,1-1.72.09.33.33,0,0,1-.42-.11l-.18-.33C40.07,23.13,40.55,22.75,41.36,22.81Z"/><path class="a" d="M38.47,23c0,.22,0,.44,0,.62a10.22,10.22,0,0,0-1.85.46A2.11,2.11,0,0,1,38.45,23Z"/><path class="a" d="M20,24.25c-.38.28-1.18.09-1.63-.05A1.77,1.77,0,0,0,16.79,24l-.09,0,0-.19a1,1,0,0,0,.12-.35,13.39,13.39,0,0,0,1.59.06A3.84,3.84,0,0,0,20,23.28C20,23.58,20,23.9,20,24.25Z"/><path class="a" d="M41.07,24.06c.6.1.93-.38,1.38-.46a3.72,3.72,0,0,0,.19.34.61.61,0,0,0,.07.1.92.92,0,0,0-.46.56,14.29,14.29,0,0,0-1.67.18c-.11-.06-.34-.13-.55-.23l-.15-.28A2.19,2.19,0,0,0,41.07,24.06Z"/><path class="a" d="M42.74,24.08l0,0h0Z"/><path class="a" d="M38.76,24.68c-.59.28-1.14.65-1.67.95a3.35,3.35,0,0,1-1.1,0l-.12-.43a1.66,1.66,0,0,0,.61-.16c.23-.13.85-.25.27-.24a6.35,6.35,0,0,0-1.06-.18,2.17,2.17,0,0,0-.07-.24c.22-.15.78,0,1,.05.48.11,1.16.38,1.6,0a.77.77,0,0,0,.43-.18C38.68,24.41,38.72,24.54,38.76,24.68Z"/><path class="a" d="M40.41,25a2,2,0,0,0,1.56.1c.37-.06.68-.43,1-.82l.18.23.06.08c-.38.33-.47.95-1,1.08a6.78,6.78,0,0,1-1.66-.16c-.11-.21-.21-.4-.27-.53S40.3,25,40.41,25Z"/><path class="a" d="M17.4,25.25a1.48,1.48,0,0,1-.47.06c0-.16-.05-.32-.08-.49a.39.39,0,0,1,.35-.2,2.71,2.71,0,0,1,1,.42c.67.18,1.13-.24,1.78-.23,0,.23,0,.46,0,.7a5.22,5.22,0,0,1-1.12.26C18.17,25.94,18,25.16,17.4,25.25Z"/><path class="a" d="M42.46,26a1.45,1.45,0,0,0,.82-1.11l0-.08a3.05,3.05,0,0,1,.19.42l0,.11a1.14,1.14,0,0,1,0,.35c0,.09,0,.25,0,.44a10.73,10.73,0,0,1-1.76.61,3.39,3.39,0,0,1-.65,0l-.21-.4C41.2,25.92,42.09,26.41,42.46,26Z"/><path class="a" d="M37,26.53c-.23.09-.4.51-.57.44l-.17-.57a.36.36,0,0,1,.25-.14c.68-.25,1.19-.8,2-.65.21.05.37-.1.52-.22.16.44.32.84.36,1a.56.56,0,0,1,0,.36c-.07,0-.17,0-.32,0A1.72,1.72,0,0,0,37,26.53Z"/><path class="a" d="M18.29,27.46a.83.83,0,0,1-1,.28c0-.08,0-.17,0-.26A9.43,9.43,0,0,1,18.43,27c-.39-.15-.89-.38-1.32-.59,0-.1,0-.2-.05-.3a1.45,1.45,0,0,1,.65.14,4.29,4.29,0,0,0,2.22.21,5.51,5.51,0,0,1-.06.57C19.27,27,18.61,26.91,18.29,27.46Z"/><path class="a" d="M37.06,28a3.4,3.4,0,0,1-.43.38,3.52,3.52,0,0,0,0-.46.86.86,0,0,1,0-.13,8.42,8.42,0,0,1,1.12-1h0c.49,0,.77.65,1.25.66l-.16.25A1.81,1.81,0,0,0,37.06,28Z"/><path class="a" d="M43.48,28a2.82,2.82,0,0,0-.42-.23,5,5,0,0,1-1.35.11l-.19-.39a2.17,2.17,0,0,0,.72,0,3.11,3.11,0,0,1,1.23-.25c0,.15,0,.28,0,.37S43.48,27.81,43.48,28Z"/><path class="a" d="M18.67,28.71a5.5,5.5,0,0,1-1.25.49c0-.22,0-.43,0-.61a1.91,1.91,0,0,1,.71-.58l.6,0a6.05,6.05,0,0,1,1.06.1c0,.13,0,.26,0,.39C19.36,28.53,18.88,28.45,18.67,28.71Z"/><path class="a" d="M43.5,29.56a.54.54,0,0,1-.63.14c-.23-.08-.55.09-.77.14q0-.33-.06-.63a1.67,1.67,0,0,1,.65-.69,1.48,1.48,0,0,0,.8.08C43.49,28.89,43.5,29.22,43.5,29.56Z"/><path class="a" d="M37.06,29.35c-.15.27-.4.22-.59.09,0-.11.05-.23.07-.35.19,0,.4,0,.46-.2a1.39,1.39,0,0,1,1-.33h.34L38.2,29C37.74,29,37.29,28.93,37.06,29.35Z"/><path class="a" d="M17.44,29.63a1.93,1.93,0,0,1,0-.24c.15-.15.82.06,1-.1a6.51,6.51,0,0,0,1.22-.18c0,.31,0,.62,0,.93a.79.79,0,0,1-.94-.17c-.41-.06-.92,0-1.27-.2Z"/><path class="a" d="M36.77,30.61c0-.07-.36-.08-.68-.1q.09-.18.15-.33h0c.32,0,.79-.26,1.12-.26a.88.88,0,0,1,.34.08h.11c-.09.25-.19.51-.27.76C37.25,30.85,36.94,31,36.77,30.61Z"/><path class="a" d="M43.52,30.17c0,.36,0,.71,0,1-.37.1-.71.33-1,0a1,1,0,0,0-.32-.06c0-.23,0-.48-.05-.73.13-.06.3-.08.42-.14.31-.12.68.19.94-.12Z"/><path class="a" d="M19.66,30.62v.52c-.25,0-.56,0-.79,0a2.68,2.68,0,0,1-1.4-.27v-.1c.31-.08.61-.3.88-.39A2.82,2.82,0,0,0,19.66,30.62Z"/><path class="a" d="M34.1,34A3.69,3.69,0,0,0,35,32.9c.09-.21.53-1.12.89-1.9a.57.57,0,0,1,.08.26.46.46,0,0,0,.82.22.73.73,0,0,1,.52,0c-.3.89-.53,1.61-.56,1.73-.08.31-.06.64-.39.8a7,7,0,0,0-1.13.66c-.23.21-.11.25-.06.51l-.19.44a.14.14,0,0,1,0,.06.48.48,0,0,1-.2.18,6.48,6.48,0,0,1-2-.24c-.18-.15.64-.81.8-1.13A1.56,1.56,0,0,1,34.1,34Z"/><path class="a" d="M15.62,35c.47-.39.56-.5.56-.76s.26-.37.57-.5.43-.86.64-1.64a4.4,4.4,0,0,0,.07-.73.64.64,0,0,1,.24,0h.15a7.12,7.12,0,0,0,1.82.43c0,1.08.08,1.9,0,2.11-.08.45-.74.94-1.15,1.39s-.1.59,0,.83l0,.52a1.34,1.34,0,0,1-.37.26s-2.47-.06-2.4-.27.92-.86.92-.86a5.14,5.14,0,0,1-1-.13C15.33,35.47,15.15,35.35,15.62,35Z"/><path class="a" d="M41.72,35.22c.06-.3.43-.92.47-1.17a9.6,9.6,0,0,0,.09-1.89c0-.09,0-.25,0-.45a1,1,0,0,0,.67.21,1,1,0,0,1,.7.42v0c.11.59.25.88.29,1.25s-.57.84-.72,1.28a1.18,1.18,0,0,0,.18.84l0,.46c0,.17-.13.38-.18.52l-.11.13a6,6,0,0,1-1.81-.12c-.1-.19.06-.21.23-.52A3.58,3.58,0,0,0,41.72,35.22Z"/><path class="a" d="M3.83,40.05l0,0h0Z"/><path class="a" d="M26,20.19s-.42.1-.59-.93c0,0,0-2.27-.09-2.58a19.58,19.58,0,0,0-.76-3.14S24,11.66,24.29,11c0,0,.29-.19.41.31a13.1,13.1,0,0,1,.54,2.43,19.56,19.56,0,0,1,.59,3.59A5.08,5.08,0,0,0,26,19.75S26.25,20.21,26,20.19Z"/><path class="a" d="M0,12.74a4.52,4.52,0,0,0,.54,1.19c.16.37.63.68.8.62a.44.44,0,0,0,.22-.16s1,.59,1.4.16.34-.9.43-1l-.07-.09A1,1,0,0,0,2.74,13c-.18-.51-.86-.36-1.35-.39-.41-.55.17-1.64,0-2.12a1.6,1.6,0,0,0,.41-1.05c.23-.64.88-1.16,1-2a2.23,2.23,0,0,1,.44-1.22c.2,0,.29-.17.48-.15a5.54,5.54,0,0,1,.93-1C5.06,5,5,4.62,5,4.28a.72.72,0,0,1,.36-.18,1.68,1.68,0,0,0,.33,1.21c.27.28.83.41.76.93,0,.25.11.8.12,1h0v0h.12c0-.79.2-1.85-.43-2.27-.37-.22-.19-1-.55-1.16.12-.3.24-.69,0-.88a.46.46,0,0,1-.09-.27.37.37,0,0,0-.12-.14v0l0,0,0,0a1.27,1.27,0,0,1-.21-.9c.16-1.19,1-.67,1-.67.63.31.64,1.39.64,1.39.06,1.23-.41,1.54-.41,1.54-.22.29.07.33.07.33l0,0a.64.64,0,0,0,.75.07c.18-.13.27-.07.27-.07s-.36.66-.3.93a2.62,2.62,0,0,0,.55-1,1.42,1.42,0,0,1,.25-.56h0l.35-.7.88-1.63c.34-.47.35.2.35.2L9,2.27,8.38,3.35a7.17,7.17,0,0,0-1,3.35c0-.79,0,1.63.14,1a9.92,9.92,0,0,1,.67-3,5.82,5.82,0,0,1,.88-1.47h0a.23.23,0,0,0,.3-.09,7.7,7.7,0,0,1,.6-.89,3.15,3.15,0,0,1,.76-.48c.14-.08.44-.35.6-.21s0,.11,0,.17a.42.42,0,0,1-.25.3l-.95.48a.35.35,0,0,0-.17.24c0,.13-.09.26-.14.38l-.09.26s0,.11,0,.11h0l-.15.14A4.94,4.94,0,0,0,8.38,5.86c-.4,1.36-.17,2.9-.61,4.22a7.67,7.67,0,0,1-.3.92.28.28,0,0,1,.14,0l.12.19a3.09,3.09,0,0,0,.44-.95c.5-1.3,0-2.95.7-4.16a4.79,4.79,0,0,1,1.19-1.42c.19-.24.38-.46.58-.67h.27a6.24,6.24,0,0,1,1.24-1.17l.66-.38c.09-.05.45-.33.49-.08a.36.36,0,0,1-.09.26l-.08.05L12,3.22a.72.72,0,0,0-.33.27c-.06.11-.14.21-.21.32l-.32.46h0l-.34.23A5.43,5.43,0,0,0,9.63,6a10.66,10.66,0,0,0-.7,1.74,28,28,0,0,1-.61,3.61,3.25,3.25,0,0,0-.16.52,3,3,0,0,0,.18.25A17.75,17.75,0,0,0,9,9.55,8.17,8.17,0,0,1,9.74,7.2c.49-.68.83-1.72,1.51-2.21l.47-.4h0l.41-.13a10.84,10.84,0,0,1,2-1.46c.54,0-.08.45-.08.45a4.71,4.71,0,0,0-.94.54,1.38,1.38,0,0,0-.81.92h0A6.16,6.16,0,0,0,10.7,6.7,31,31,0,0,0,9.34,9.88c-.17.86-.61,1.65-.71,2.57l.15.19a3.37,3.37,0,0,1,.73-1.17,11.58,11.58,0,0,0-.18,1.83l.31.33A18.19,18.19,0,0,1,10,11.5a10.87,10.87,0,0,1,.87-3.21A4.81,4.81,0,0,1,12.62,6l.66-.51h0l.36-.09c.41-.42.61-.91,1.06-1.3.07-.05.69-.61.73-.37,0,0-.06.12-.09.14l-.43.41a3.64,3.64,0,0,0-.55.56,3.24,3.24,0,0,0-.27.6l-.18.39c-.11.11-.21.22-.33.32A7.23,7.23,0,0,0,11.66,8a6.64,6.64,0,0,0-.6,1.19,9.82,9.82,0,0,0-.39,5.3l.56.44a33.32,33.32,0,0,1,.43-3.35,7.84,7.84,0,0,1,1.54-4.1A7.26,7.26,0,0,1,14.3,6h0c.06-.09.22,0,.28-.07A7.48,7.48,0,0,1,15,5.26c.27-.32.36-.6.64-.92.07-.09.23-.06.33-.11s.36-.12.29.06-.44.29-.47.37a1.09,1.09,0,0,1-.54.68A1.12,1.12,0,0,0,14.9,6a2.21,2.21,0,0,1-.07.3h0c-.21.34-.39.68-.59.94-.58.69-1,1.6-1.6,2.38A9.4,9.4,0,0,0,12,12.4a13.38,13.38,0,0,0-.33,2.85l.25.2a11.56,11.56,0,0,1,.31-2,17.34,17.34,0,0,1,1-3.06,9.26,9.26,0,0,1,1.34-2.84,5.25,5.25,0,0,0,.92-1h0c.11-.11.23,0,.33-.12s.14-.35.28-.52A8.59,8.59,0,0,1,17,4.86s0,0,.06,0a.05.05,0,0,1,0,0,.29.29,0,0,1-.06.25l-.8,1.21c-.1.16,0,.35,0,.54h0a6.63,6.63,0,0,0-1,2.13,9.7,9.7,0,0,0-1.49,2.38c-.41.9-.71,1.73-1.1,2.74-.08.54-.26,1.14-.33,1.72l.26.23a2.76,2.76,0,0,1,.16-.27c-.12.4.32-1.06.4-1.26a16.25,16.25,0,0,1,1.66-3.82A5,5,0,0,1,16.75,9a7.46,7.46,0,0,1,.7-1.67c.06-.09.28-.1.34-.18a5.2,5.2,0,0,0,.32-.62c.05-.1.1-.21.16-.31A1,1,0,0,0,18.41,6s0,0,0-.06a.21.21,0,0,1,.24,0,.19.19,0,0,1,.07.17,1.24,1.24,0,0,1-.18.52c-.08.15-.16.3-.23.46s-.1.22-.16.33l-.09.15a1.47,1.47,0,0,1-.07.17,4.32,4.32,0,0,1-1.12,1.65,9.75,9.75,0,0,1-.11,2,11.57,11.57,0,0,1-.48,1.89c-.37,1.36-1.6,2.23-2.46,3.37a3.61,3.61,0,0,0-.33.65,11.36,11.36,0,0,0,.36,1.16,3.52,3.52,0,0,1,.18-.42c.2-.91,1-1.54,1.62-2.32a3.76,3.76,0,0,0,1.17-2,12.78,12.78,0,0,0,.75-3.31,7.82,7.82,0,0,1,.72-2.14c.07-.06.41-.14.49-.2s.16-.33.25-.57l.24-.58c0-.1.09-.21.19-.24a.12.12,0,0,1,.08,0,.12.12,0,0,1,.07.12,1,1,0,0,1-.08.49c-.05.15-.09.31-.13.47l-.12.43s-.05.2-.08.22a11.53,11.53,0,0,0-.78,1.23A8.78,8.78,0,0,0,17.62,13,9.3,9.3,0,0,1,17,15a9.16,9.16,0,0,1-1.13,2c-.56.72-1.35,1.27-1.6,2.22a4.12,4.12,0,0,0,.36.38,2.48,2.48,0,0,1,.54-.83c1.2-.9,1.57-2.41,2.7-3.29.78-.48.11-1.78.5-2.55a21.76,21.76,0,0,0,.4,2.67,5.16,5.16,0,0,0,.56,1.21c.05.16.61.55.61.55A11.2,11.2,0,0,1,19,11.09a4.74,4.74,0,0,1,.78-2.16,6.59,6.59,0,0,0-.17,3,18.23,18.23,0,0,0,1,5.79c.21.6.49,1.15.65,1.73a17.22,17.22,0,0,1,0,1.78,2.46,2.46,0,0,0-1.08.08c.09-.65-.81-.49-1.19-.83a6.19,6.19,0,0,0-1.32-.16,2.92,2.92,0,0,0-1.1.19c-.14.14-.35.3-.54.46l0,0a1,1,0,0,1,.1.29,2.47,2.47,0,0,1,1.56-.39,8.55,8.55,0,0,1,1.8.35c.26,0,.33.37.47.57a.29.29,0,0,1,0-.14h0a.78.78,0,0,1,.18-.11h0a3.26,3.26,0,0,1,1.71,0,17.58,17.58,0,0,0,5.39.72h.13a11.29,11.29,0,0,0,1.13-.05,7.69,7.69,0,0,0,1.73-.43l.29-.1c.52-.16,1-.36,1.51-.56l.46-.18a5.6,5.6,0,0,1,1.52-.29l.38,0h0c.07.22.14.46.23.76A3.4,3.4,0,0,1,37.06,21h.06s-.08-.09-.19-.12a4.55,4.55,0,0,0-1.69-.35,3.1,3.1,0,0,0-.78-.13l-.4,0a5.82,5.82,0,0,0-1.59.31l-.46.18c-.48.19-1,.39-1.49.55l-.3.1a7.57,7.57,0,0,1-1.67.42,10.79,10.79,0,0,1-1.24.05A17.4,17.4,0,0,1,22,21.32h0a7.25,7.25,0,0,0-.51-3.26,7.75,7.75,0,0,1-.92-2.59,24.73,24.73,0,0,1-.33-5,5.34,5.34,0,0,1,.49-1.73l.49.08.26,0c-.07.47-.16.83-.26,1.41a11.6,11.6,0,0,0,.41,3.82c.24,1.14.45,2.38.69,3.44a3.16,3.16,0,0,0,.29.85,6,6,0,0,1,.18,1.27,1.67,1.67,0,0,0,.23.57c.18.29.35.33.45,0a.9.9,0,0,0,0-.4c-.15-.72-.17-1.45-.35-2.17-.07-.31-.15-.61-.22-.92s-.07-.59-.14-.87a26.94,26.94,0,0,1-.68-3.13A18.2,18.2,0,0,1,22.13,9l.61.14a.15.15,0,0,0,0,.1,17.6,17.6,0,0,0,.19,3.29c.17,1.15.55,2.24.7,3.41a13.7,13.7,0,0,1,.32,1.48c.14,1,.5,1.9.7,2.86a.55.55,0,0,0,.06.18.19.19,0,0,0,.26.06.39.39,0,0,0,.19-.21l0-.08a.28.28,0,0,0,0-.09,4.88,4.88,0,0,0-.12-.75c-.08-.3-.15-.61-.21-.92l-.18-.93a6.75,6.75,0,0,1-.15-.86c0-1-.42-1.74-.48-2.76a17.62,17.62,0,0,1-.41-2.38c0-.72,0-1.47.09-2.16l.24.07A7.6,7.6,0,0,1,25,10.92a12.08,12.08,0,0,1,.88,2.89c.19.55.49,2.69.49,2.69a10,10,0,0,1,.2,1.79c.09.62.39,1.75.39,1.75.15.4.44.16.44.16a5.23,5.23,0,0,0,0-1.06,10.2,10.2,0,0,1-.15-2c0-.44-.44-2.6-.44-2.6a11.89,11.89,0,0,0-1.19-3.53,6.2,6.2,0,0,0-1.31-1.48h0l.77.16a5.89,5.89,0,0,1,1.63,1.93c.22.43.87,2,.87,2A7.34,7.34,0,0,0,28.38,15a4.24,4.24,0,0,1,.51,1.77,27.53,27.53,0,0,1-.18,3,.39.39,0,0,0,.51.19c.54-.29.75-3.4.75-3.4A7.53,7.53,0,0,1,30,15c.17-.25-.26-1.3-.26-1.3a14.47,14.47,0,0,0-1.18-2.35c-.15-.45-1.33-1.22-1.57-1.38.75.07,1.29.09,1.47.09l0,0c.12-.07.75.67.82.74a8.48,8.48,0,0,1,1.36,2.42c.08.6,0,2.71,0,2.71a10,10,0,0,1-.14,1.8c0,.63,0,1.79,0,1.79.08.42.4.24.4.24a5.39,5.39,0,0,0,.19-1,10.51,10.51,0,0,1,.23-1.95c.05-.45.06-2.64.06-2.64A13.15,13.15,0,0,1,31.54,12a2.57,2.57,0,0,0,.11-.72A6.8,6.8,0,0,0,31,9.54l.59-.14a3.37,3.37,0,0,1,1,2.6,8.34,8.34,0,0,1-.43,2.93A3.58,3.58,0,0,0,32,16a8.79,8.79,0,0,0,.21,2.11c0,.17.19,1.19.44,1.13s.16-.6.16-.6c-.06-.36,0-2.5,0-2.5a1.92,1.92,0,0,1,.56-1.63,4.42,4.42,0,0,0,.81-1.45,4.36,4.36,0,0,0,.5-2,3.39,3.39,0,0,0-.54-1.61,5.23,5.23,0,0,0-.41-.55l.95-.22a5.27,5.27,0,0,1,.42.86,3.15,3.15,0,0,1,.23.85,4.59,4.59,0,0,1,0,1c0,.3,0,.61-.05.91a3.28,3.28,0,0,1-.47,1.66,5.56,5.56,0,0,0-.5.67,5.09,5.09,0,0,0-.42,2.1c0,.19-.21,1.82,0,1.83a.31.31,0,0,0,.5-.19q0-.51,0-1a4.22,4.22,0,0,1,.2-1.5c.13-.31.34-.6.5-.9s.29-.55.42-.84A6.24,6.24,0,0,0,36,12.34s.36-2.93-.53-3.82l.13,0a3.36,3.36,0,0,1,.57.83c.13.33.66,2,.66,2,.16.24-.11,1.17-.11,1.17v.07A6.82,6.82,0,0,1,36.36,14c-.19.64-.54,1.22-.77,1.85-.16.44-.37.87-.53,1.31-.09.22-.16.44-.24.67s-.07.23-.1.35-.1.19,0,.29a.46.46,0,0,0,.12.12.19.19,0,0,0,.17.06c.15,0,.24-.29.29-.42l.18-.47.45-1.23a4.84,4.84,0,0,1,.68-1.41,2,2,0,0,0,.21-.3,2.49,2.49,0,0,0,.19-.71c.08-.41.18-.81.27-1.22a.43.43,0,0,1,0,.05s0-.06,0-.09a5.46,5.46,0,0,0,.2-1.07c0-.4-.18-.79-.21-1.19a1.57,1.57,0,0,0-.13-.47c-.09-.22-.2-.44-.3-.65A3.29,3.29,0,0,0,36.59,9a2.43,2.43,0,0,0-.26-.29L36,8.48h.45a2.63,2.63,0,0,1,.93,1.17,17.3,17.3,0,0,1,.42,1.81s-.22,1.79-.27,2.52a7.15,7.15,0,0,0-.29.8s-.4.94-.63,1a9.49,9.49,0,0,0-.83,1.32,5.19,5.19,0,0,0,.11,1.41s.06.35.16.16a7.83,7.83,0,0,1,.5-1.54,1.83,1.83,0,0,0,.46-1,6.51,6.51,0,0,1,.83-1.32,6.42,6.42,0,0,0,.42-3.67s-.13-.34.14,0c0,0,.57,1.31,1.11,1.43a3.05,3.05,0,0,1,.76.21s1.08.83,1.28.94a7.07,7.07,0,0,0,1.08.49l.46.24c0,.22,0,.39,0,.5a3.2,3.2,0,0,0-.37-.15L42,14.45a4.25,4.25,0,0,1-.94-.75,5.32,5.32,0,0,0-.94-.63,7,7,0,0,0-.74-.33L39,12.59a.45.45,0,0,0-.19-.05s.11.25.12.26a.92.92,0,0,0,.25.19,5.43,5.43,0,0,0,.59.3,5.28,5.28,0,0,1,.93.52,8.27,8.27,0,0,1,.72.73,3.61,3.61,0,0,0,.62.49l.51.38a.52.52,0,0,0-.11.1l-.26-.14c-.21-.12-.41-.25-.61-.39a14.38,14.38,0,0,1-1.16-.9,2.61,2.61,0,0,0-.62-.37,2.9,2.9,0,0,0-.7-.3,1.08,1.08,0,0,0-.53.08.92.92,0,0,0,0,.33.31.31,0,0,0,.2.25c.16,0,.32-.07.49-.06s.41.29.63.41.5.11.71.28A2.44,2.44,0,0,0,41,15a3.05,3.05,0,0,0,.51.17,3.43,3.43,0,0,1,.85.44l0,.06-.14.09-.33-.17a2,2,0,0,0-1-.14h-.16a2.62,2.62,0,0,1-.51-.3l-.65-.36a.52.52,0,0,0-.13-.06h-.1a1.86,1.86,0,0,0-1,.15,1.22,1.22,0,0,0-.3.26,4.67,4.67,0,0,0-.8,1.45c-.11.26-.2.53-.31.79s-.11.25-.16.37a.63.63,0,0,1,0,.09A1.83,1.83,0,0,0,36.13,19c.11,0,.61.5.74.6s.09-.05.12-.18a2.16,2.16,0,0,1,.66-.8,5.73,5.73,0,0,1,1.83-.49,5.19,5.19,0,0,0,2-1,2.16,2.16,0,0,1,1.32-.67c-.06.22-.12.42-.18.59s-.06.23-.09.37v.05c-.48.32-1,.68-1.53,1.11-.4.2-1,.42-1.43.61a6.41,6.41,0,0,0-2.21.47c-.1.09-.08.22,0,.37s.21.22.31.33a1.58,1.58,0,0,1,.52-.3c.74-.59,1.94-.36,2.9-.52a3.15,3.15,0,0,0,1.08-1.1l.24-.12c-.08.47-.14,1-.2,1.45h0c-.48.15-.93.47-1.32.6a2.79,2.79,0,0,0-1.71.44c-.35,0-1-.17-1.21.05,0,.08.37.53.43.64a15.54,15.54,0,0,1,1.91-.31c.58-.07,1.16-.14,1.69-.23h.1c0,.12,0,.22,0,.28a2.44,2.44,0,0,0,0,.28,3.25,3.25,0,0,0-.44,0,3.9,3.9,0,0,0-1.52.35c-.46.13-.9.18-1.36.32l.18.31a4.23,4.23,0,0,1,.8,0c.5.05,1.09.06,1.36-.24a3.43,3.43,0,0,1,1,0h0a4.69,4.69,0,0,0,1.19,2l0,.06,0-.92s.17-1.32.17-1.77,0-1.31,0-1.31a3.19,3.19,0,0,0,.48-2,17.45,17.45,0,0,1,0-1.77l.2,0a4.61,4.61,0,0,0,0-1,26.88,26.88,0,0,0,0-3.18,3,3,0,0,0-1.32-1.75c-.16-.39-.93-1.69-4-2.21a10.81,10.81,0,0,0-3.84-.07l-2.23.54s-3.54.87-4.1.94a20.87,20.87,0,0,1-4.06-.51,25.35,25.35,0,0,0-3-.7A1.2,1.2,0,0,0,21,7.94c-.15-.12-1.06.85-.42-.58.06-.12-.52,0-.61-.06s0-.68-.2-.9-.48.15-.7-.05-.2-.81-.36-.94-.71,0-.93-.21-.24-.9-.52-1.11c-.08-.06-.36.21-.45.15s0-.45-.07-.5a.84.84,0,0,0-.41-.07,1.44,1.44,0,0,1-.58-.06c-.13-.07,0-.4-.1-.46s-.51.2-.71.13.11-.36,0-.46-.45-.06-.39,0c-.21-.07-.18-.42-.45-.51-.11,0-.25.28-.37.3s-.26-.25-.36-.3c-.25-.12-.29-.41-.55-.52s-.64.32-.78.26.22-.5.15-.53-.39.3-.5.27,0-.44-.11-.47-.27.18-.35.16-.08-.27-.17-.29-.65.26-.8.23,0-.4-.21-.43-.2.26-.31.24S9.55.86,9.43.84,8.9,1,8.68,1,8.49.71,8.34.69s-.12.07-.23.16A1.23,1.23,0,0,1,7.68,1c-.09,0,.05-.29,0-.37s-.35.12-.41.1S7,.8,6.91.88A1.32,1.32,0,0,0,6.11,0C5.45-.22,5,1,5,1a1.73,1.73,0,0,0-.12,1.43h0l0,.11c.06.14.07.25-.07.23a.3.3,0,0,0,0,.1,1.35,1.35,0,0,0,0,.37s-.6-.17-.58.06S5,3.7,5,3.82s-.5.33-.64.35.12.23.12.23A10.15,10.15,0,0,0,3,6a2.29,2.29,0,0,0-.29.8A6.85,6.85,0,0,1,2.31,8C2.19,8.22,1,10.54.68,10.89A4.3,4.3,0,0,0,0,12.74Zm41.7,3.33-.74.4c-.88.19-1.94.05-2.68.55a5.74,5.74,0,0,1-1,.48c.06-.17.12-.33.17-.5a1,1,0,0,1,.3-.62,2.67,2.67,0,0,1,1.1-.41,11.22,11.22,0,0,1,1.3-.13,4.46,4.46,0,0,1,1.26.12ZM38.89,8.73c.46.67.93,1.33,1.43,2l.58.74.33.43a4.32,4.32,0,0,1-.39-.34c-.27-.25-.52-.52-.76-.79a10.38,10.38,0,0,1-.78-1c-.2-.27-.38-.56-.57-.84l-.18-.28h.05Zm4.2,3.93-.73-.92c-.57-.71-1.14-1.42-1.7-2.14L40.15,9C42,9.63,42,10.39,42,10.4l.07,0-.25,0c-.2,0,.2,1.2,1,1.15a7.73,7.73,0,0,1,.21.8,1.06,1.06,0,0,1,0,.19A.55.55,0,0,1,43.09,12.66Zm0,.92L43,13.47a5.17,5.17,0,0,1-.58-.73l-.1-.13a1.55,1.55,0,0,0-.27-.24,2.47,2.47,0,0,0-.36-.19h0a8,8,0,0,0-.63-1c-.34-.39-.71-.76-1-1.16s-.65-.82-1-1.23l.29.06L40,9.6l.85.92c0,.05.18.19.22.23l.23.24c.13.15.27.28.4.42s.54.55.8.83.4.49.6.74C43.11,13.16,43.11,13.36,43.12,13.58ZM39.19,10.8a11.61,11.61,0,0,1-1.5-2.26l.23,0A13.22,13.22,0,0,0,39,10a4,4,0,0,0,.68.84c.18.18.38.34.56.51s.12.15.19.22l.21.17c.14.11.28.2.41.31a4.93,4.93,0,0,1,.6.61A7,7,0,0,0,43.13,14v.23A11.94,11.94,0,0,0,41,12.85l-.06,0-.18-.3A12.88,12.88,0,0,1,39.19,10.8ZM37,8.48l.38,0A11.19,11.19,0,0,0,38.89,11a9,9,0,0,0,1.24,1.42,2.53,2.53,0,0,1-1.05-.86,5.29,5.29,0,0,1-1.14-1.42A10.1,10.1,0,0,0,37,8.48Zm-4.79.77.45-.11L33.15,9a3.17,3.17,0,0,1,.71,1.75,4,4,0,0,1,0,.77c0,.37,0,.75-.08,1.12a3.83,3.83,0,0,1-.23.8,5.28,5.28,0,0,1-.27.53,1.18,1.18,0,0,0-.13.18c-.18.49-.32.06-.32.06a2.14,2.14,0,0,1,.2-.68,11.51,11.51,0,0,0,.19-1.87A3.55,3.55,0,0,0,32.18,9.25Zm-2.93.69,1-.23a1.85,1.85,0,0,1,.38,1.09,13,13,0,0,1,.13,1.53,4,4,0,0,0-.79-1.6ZM26,9.89l.43,0a9.07,9.07,0,0,1,1.15,1,8.62,8.62,0,0,1,.95,2.12c.08.32.89,2,.89,2,.1.52-.36.15-.36.15a1.94,1.94,0,0,1-.33-.67c-.16-.24-.69-1.54-.69-1.54a12.52,12.52,0,0,0-.92-2A5.17,5.17,0,0,0,26,9.89ZM7.17,2.34s0,.07,0,.1a1.28,1.28,0,0,0,0-.19ZM7,3.39a1.89,1.89,0,0,0,.09-.34c0,.05,0,.11,0,.15C7.32,3.32,7.17,3.36,7,3.39Zm-.14.28,0-.08a.66.66,0,0,0,.55,0c-.07.4-.46.51-.84.5Z"/></svg>