<svg xmlns="http://www.w3.org/2000/svg" viewBox="0 0 44.1 40.05"><defs><style>.a{fill-rule:evenodd;}</style></defs><path class="a" d="M37.72,10a5.57,5.57,0,0,1,.82-1.33c.32-.53.84-1.22.63-1.92-.18-.38-.14-1-.54-1.21-.3.32.12.79.12,1.16C38.88,8,37.86,8.82,37.66,10,37.65,10.14,37.66,10,37.72,10Z"/><path class="a" d="M38.33,6.82c-.1-.35,0-.94-.38-1-.18.39.06,1.06-.1,1.53a16.84,16.84,0,0,0-.73,3.34s0,.06.06,0a11.72,11.72,0,0,1,.41-1.36C37.74,8.5,38.38,7.77,38.33,6.82Z"/><path class="a" d="M41,7.37a5.38,5.38,0,0,0-.27-.8c-.27-.34-.81.07-1.18-.19-.1.15.15.38.18.53C39.82,7.46,40.53,7.42,41,7.37Z"/><path class="a" d="M37.06,7.13S37,7.07,37,7.07a8.48,8.48,0,0,1-.09,1.06,3.07,3.07,0,0,0-.35,2l.05.05a10.65,10.65,0,0,0,.39-1A2.86,2.86,0,0,0,37.06,7.13Z"/><path class="a" d="M38.85,8.84c-.17.67.12,1.57-.35,2.06h.06c-.13.18.17,0,.22-.07.35-.8.34-2.57,1-2.47.51-.12,1.1-.35,1.48.13s.17-.13.06-.27c-.28-.77-1.35,0-1.65-.73q-.09-.12-.12-.12c-.1,0,0,.43.07.56A.9.9,0,0,0,38.85,8.84Z"/><path class="a" d="M41.17,9.07c.38.14.36,0,.11-.17a1,1,0,0,0-.82-.37h0a2,2,0,0,0-.54.09c-.78.18-.56,1.22-.68,1.83s-.84.91-1,1.54l.37.23c.11-.31.38-.45.57-.71.54-.35.12-1.66.68-2C40.08,9.26,40.61,8.81,41.17,9.07Z"/><path class="a" d="M39.84,11.57c.39-.16.44-.62.54-1s.66-.35.95-.67c.08-.17.45-.23.38-.31a1,1,0,0,0-.29,0,1.79,1.79,0,0,0-1.39.63c-.2.45-.22,1.08-.63,1.36a1.84,1.84,0,0,0-.25,1.09l.24.15v-.07A1.21,1.21,0,0,1,39.84,11.57Z"/><polygon class="a" points="38.37 9.52 38.37 9.52 38.37 9.52 38.37 9.52"/><path class="a" d="M38.37,9.52c-.14.83-.76,1.29-.86,2.07l.38.23a3.12,3.12,0,0,1,.47-1.53A2,2,0,0,0,38.37,9.52Z"/><path class="a" d="M28,10.63c-.15-.15-.2-.39-.4-.52.25.75.68,1.65.91,2.28a14.1,14.1,0,0,0,.71,1.84c.41.93,1.12,1.73,1.53,2.56a2.74,2.74,0,0,1,.25-.27,15.18,15.18,0,0,0-1.43-4.06A6.11,6.11,0,0,0,28,10.63Z"/><path class="a" d="M40.75,11.51a4.65,4.65,0,0,0,1.46-.61c-.39-.2-.76-.36-1,.07a1.15,1.15,0,0,0-1,.92A1.24,1.24,0,0,0,39.8,13l.28.17a2.32,2.32,0,0,1,.05-.76C40.52,12.26,40.42,11.67,40.75,11.51Z"/><path class="a" d="M41.7,11.92a.89.89,0,0,0-.3-.06c-.49,0-1.17.67-1,1l.12.32c.41-.83,1.63-.57,2.11-1C42.47,12.28,41.9,12,41.7,11.92Z"/><path class="a" d="M27.33,18.16c-.58-.78-.59-1.8-1.37-2.39h-.08c-.37,0-.35.52-.47.87.14.35.77.21.9.59-.43.32-1.42-.17-1.77.34a5.1,5.1,0,0,0-.91,1.89c-.23.16-.15.63-.11.82.05-.38.52-.64.58-1.16s1-.47,1.51-1,1.22-.41,1.37.05c.34.42.23,1.35.72,1.75a3.74,3.74,0,0,1,.76.56l.39-.37-.1-.08A19.67,19.67,0,0,1,27.33,18.16Z"/><path class="a" d="M26.39,18.5l-.23,0a2.06,2.06,0,0,0-1.77,1c-.16.41-.59.72-.66,1.17a5.1,5.1,0,0,1,1.47-.85c.5-.26,1.18-.07,1.78-.26C27.09,19.1,26.88,18.5,26.39,18.5Z"/><path class="a" d="M9.23,21.88c-.13,0-1.12-.24-1.25-.24a3.06,3.06,0,0,0-1.2.36A7.79,7.79,0,0,1,9,22.68C9.08,22.4,9.16,22.13,9.23,21.88Z"/><path class="a" d="M27.26,22.75a1,1,0,0,0,.36,0c.05-.25.1-.48.14-.7a5.44,5.44,0,0,1-1.51-.27c-.23,0-.48,0-.73,0a1.63,1.63,0,0,0-1,.23l-.06.12c.28.09.59.27,1,.38A2.36,2.36,0,0,0,27.26,22.75Z"/><path class="a" d="M8.69,23.68c.06-.19.12-.38.17-.56a3.17,3.17,0,0,1-2.07-.71C7,23.35,7.89,23.65,8.69,23.68Z"/><path class="a" d="M2.74,22.81c-.23,0-.44,0-.6,0a.29.29,0,0,0-.26.11,2,2,0,0,1,0,.24.25.25,0,0,0,0,.08c0,.33.35.31.64.35a2.15,2.15,0,0,0,1.71.09.35.35,0,0,0,.43-.11c0-.11.12-.22.18-.33A10,10,0,0,0,2.74,22.81Z"/><path class="a" d="M5.64,23c0,.22,0,.44,0,.62a10.32,10.32,0,0,1,1.84.46A2.09,2.09,0,0,0,5.65,23Z"/><path class="a" d="M24.1,24.25c.37.28,1.17.09,1.63-.05A1.76,1.76,0,0,1,27.32,24l.08,0,0-.19c-.05-.12-.13-.26-.11-.35a13.48,13.48,0,0,1-1.59.06,3.92,3.92,0,0,1-1.62-.25C24.11,23.58,24.1,23.9,24.1,24.25Z"/><path class="a" d="M3,24.06c-.6.1-.93-.38-1.37-.46a3.79,3.79,0,0,1-.2.34L1.4,24a.88.88,0,0,1,.45.56,14.29,14.29,0,0,1,1.67.18c.11-.06.34-.13.56-.23l.14-.28A2.21,2.21,0,0,1,3,24.06Z"/><path class="a" d="M1.36,24.08l0,0h0Z"/><path class="a" d="M5.34,24.68c.6.28,1.14.65,1.67.95a3.36,3.36,0,0,0,1.1,0c0-.14.08-.28.13-.43a1.66,1.66,0,0,1-.62-.16c-.23-.13-.85-.25-.27-.24a6.35,6.35,0,0,1,1.06-.18c0-.08.05-.16.07-.24-.21-.15-.77,0-1,.05-.48.11-1.16.38-1.61,0a.77.77,0,0,1-.43-.18C5.43,24.41,5.38,24.54,5.34,24.68Z"/><path class="a" d="M3.7,25a2,2,0,0,1-1.57.1c-.37-.06-.68-.43-.95-.82L1,24.54l-.06.08c.39.33.47.95,1,1.08a6.73,6.73,0,0,0,1.66-.16c.11-.21.21-.4.27-.53S3.81,25,3.7,25Z"/><path class="a" d="M26.71,25.25a1.38,1.38,0,0,0,.46.06c0-.16.06-.32.08-.49a.39.39,0,0,0-.35-.2,2.71,2.71,0,0,0-1,.42c-.67.18-1.13-.24-1.77-.23,0,.23,0,.46,0,.7a5.22,5.22,0,0,0,1.12.26C25.93,25.94,26.13,25.16,26.71,25.25Z"/><path class="a" d="M1.64,26a1.45,1.45,0,0,1-.82-1.11s0-.06,0-.08a2.27,2.27,0,0,0-.2.42.23.23,0,0,1,0,.11,1.14,1.14,0,0,0,0,.35c0,.09,0,.25,0,.44a11.07,11.07,0,0,0,1.76.61,3.39,3.39,0,0,0,.65,0l.21-.4C2.9,25.92,2,26.41,1.64,26Z"/><path class="a" d="M7.15,26.53c.24.09.4.51.58.44s.1-.37.16-.57a.36.36,0,0,0-.25-.14c-.68-.25-1.19-.8-2-.65-.22.05-.38-.1-.53-.22l-.36,1a.64.64,0,0,0,0,.36.38.38,0,0,0,.32,0C5.63,26.28,6.58,26,7.15,26.53Z"/><path class="a" d="M25.81,27.46a.83.83,0,0,0,1,.28c0-.08,0-.17,0-.26A8.81,8.81,0,0,0,25.67,27c.4-.15.89-.38,1.32-.59,0-.1,0-.2.05-.3a1.38,1.38,0,0,0-.64.14,4.33,4.33,0,0,1-2.23.21l.06.57C24.83,27,25.5,26.91,25.81,27.46Z"/><path class="a" d="M7.05,28a2.7,2.7,0,0,0,.42.38,2.28,2.28,0,0,1,0-.46,1.05,1.05,0,0,1,0-.13,9,9,0,0,0-1.11-1h0c-.49,0-.76.65-1.25.66l.16.25A1.83,1.83,0,0,1,7.05,28Z"/><path class="a" d="M.62,28A3.42,3.42,0,0,1,1,27.76a5.07,5.07,0,0,0,1.35.11c.06-.12.12-.25.2-.39a2.17,2.17,0,0,1-.72,0,3.12,3.12,0,0,0-1.24-.25,2.25,2.25,0,0,1,0,.37C.63,27.66.63,27.81.62,28Z"/><path class="a" d="M25.44,28.71a5.16,5.16,0,0,0,1.25.49c0-.22,0-.43,0-.61A1.88,1.88,0,0,0,26,28l-.61,0a5.94,5.94,0,0,0-1.05.1l0,.39C24.75,28.53,25.23,28.45,25.44,28.71Z"/><path class="a" d="M.6,29.56a.54.54,0,0,0,.63.14c.24-.08.56.09.77.14q0-.33.06-.63a1.67,1.67,0,0,0-.65-.69,1.47,1.47,0,0,1-.8.08C.61,28.89.6,29.22.6,29.56Z"/><path class="a" d="M7.05,29.35c.15.27.39.22.58.09,0-.11,0-.23-.07-.35-.19,0-.4,0-.45-.2a1.41,1.41,0,0,0-1-.33H5.73c0,.14.11.28.17.43C6.36,29,6.81,28.93,7.05,29.35Z"/><path class="a" d="M26.66,29.63c0-.08,0-.16,0-.24-.16-.15-.83.06-1-.1a6.51,6.51,0,0,1-1.22-.18c0,.31,0,.62,0,.93a.78.78,0,0,0,.93-.17c.41-.06.92,0,1.27-.2Z"/><path class="a" d="M7.33,30.61c0-.07.36-.08.68-.1q-.09-.18-.15-.33h0c-.33,0-.8-.26-1.13-.26a.8.8,0,0,0-.33.08H6.28l.27.76C6.86,30.85,7.16,31,7.33,30.61Z"/><path class="a" d="M.59,30.17c0,.36,0,.71,0,1,.37.1.71.33,1,0a1.07,1.07,0,0,1,.32-.06c0-.23,0-.48.06-.73-.13-.06-.31-.08-.42-.14-.32-.12-.69.19-.95-.12Z"/><path class="a" d="M24.45,30.62c0,.17,0,.35,0,.52.26,0,.56,0,.79,0a2.68,2.68,0,0,0,1.4-.27v-.1c-.31-.08-.61-.3-.87-.39A2.87,2.87,0,0,1,24.45,30.62Z"/><path class="a" d="M10,34a3.86,3.86,0,0,1-.88-1.05c-.09-.21-.53-1.12-.89-1.9a.59.59,0,0,0-.07.26.46.46,0,0,1-.83.22.73.73,0,0,0-.52,0c.3.89.53,1.61.56,1.73.09.31.07.64.39.8a7.61,7.61,0,0,1,1.14.66c.22.21.1.25.06.51l.18.44a.14.14,0,0,0,0,.06.5.5,0,0,0,.21.18,6.42,6.42,0,0,0,2-.24c.19-.15-.64-.81-.8-1.13S10.23,34.14,10,34Z"/><path class="a" d="M28.48,35c-.47-.39-.55-.5-.55-.76s-.27-.37-.58-.5-.43-.86-.64-1.64a5.83,5.83,0,0,1-.07-.73.6.6,0,0,0-.24,0h-.15a7.12,7.12,0,0,1-1.82.43c0,1.08-.08,1.9,0,2.11.08.45.74.94,1.15,1.39s.1.59,0,.83l0,.52a1.34,1.34,0,0,0,.37.26s2.47-.06,2.41-.27a5.34,5.34,0,0,0-.93-.86,5.14,5.14,0,0,0,1-.13C28.77,35.47,29,35.35,28.48,35Z"/><path class="a" d="M2.38,35.22c-.06-.3-.43-.92-.47-1.17a9.7,9.7,0,0,1-.08-1.89c0-.09,0-.25,0-.45a1,1,0,0,1-.67.21,1,1,0,0,0-.69.42v0c-.1.59-.25.88-.29,1.25s.58.84.72,1.28a1.18,1.18,0,0,1-.18.84l0,.46c.05.17.12.38.17.52l.12.13a5.9,5.9,0,0,0,1.8-.12c.1-.19-.06-.21-.22-.52A3.28,3.28,0,0,1,2.38,35.22Z"/><path class="a" d="M40.27,40.05l0,0h0Z"/><path class="a" d="M18.13,20.19s.43.1.6-.93c0,0,0-2.27.08-2.58a19.86,19.86,0,0,1,.77-3.14s.57-1.88.23-2.56c0,0-.28-.19-.4.31a12.86,12.86,0,0,0-.55,2.43,19.56,19.56,0,0,0-.59,3.59,5.08,5.08,0,0,1-.21,2.44S17.86,20.21,18.13,20.19Z"/><path class="a" d="M43.42,10.89c-.27-.35-1.51-2.67-1.63-2.92a7.83,7.83,0,0,1-.37-1.19,2.29,2.29,0,0,0-.29-.8A10.15,10.15,0,0,0,39.6,4.4s.27-.21.12-.23S39,4,39.09,3.82s.88-.35.9-.57-.58-.06-.58-.06a1.17,1.17,0,0,0,0-.37.44.44,0,0,1,0-.1c-.15,0-.13-.09-.08-.23l-.05-.11h0A1.73,1.73,0,0,0,39.15,1S38.65-.22,38,0a1.29,1.29,0,0,0-.79.84C37.09.8,37,.71,36.87.73s-.35-.15-.41-.1,0,.38,0,.37A1.11,1.11,0,0,1,36,.85c-.12-.09-.1-.17-.23-.16s-.19.26-.34.28-.56-.16-.76-.13-.25.33-.37.35S34.1.93,34,1s0,.4-.21.43-.65-.27-.8-.23-.08.27-.17.29-.27-.18-.35-.16,0,.44-.12.47-.39-.31-.5-.27.22.5.15.53-.64-.32-.78-.26-.3.4-.54.52-.22.32-.37.3-.26-.33-.37-.3c-.26.09-.23.44-.45.51.06,0-.31-.1-.39,0s.17.42,0,.46-.47-.24-.71-.13,0,.39-.09.46a1.51,1.51,0,0,1-.59.06.84.84,0,0,0-.41.07c-.09,0,0,.44-.07.5s-.37-.21-.45-.15c-.27.21-.27.87-.52,1.11s-.69,0-.93.21-.22.8-.36.94-.51-.15-.7.05,0,.7-.19.9-.67-.06-.62.06c.64,1.43-.27.46-.42.58a1.27,1.27,0,0,0-.42.69,24.49,24.49,0,0,0-3,.7,20.85,20.85,0,0,1-4.07.51c-.56-.07-4.06-.93-4.1-.94L9.3,8.36a10.81,10.81,0,0,0-3.84.07c-3.11.52-3.88,1.82-4,2.21A3,3,0,0,0,.1,12.39a29.21,29.21,0,0,0,0,3.18,4.61,4.61,0,0,0,0,1l.21,0a17.45,17.45,0,0,1,0,1.77,3.15,3.15,0,0,0,.47,2s0,.86,0,1.31.17,1.77.17,1.77l0,.92,0-.06a4.69,4.69,0,0,0,1.19-2H2a3.43,3.43,0,0,1,1,0c.27.3.87.29,1.36.24a4.32,4.32,0,0,1,.81,0l.17-.31C4.91,22,4.47,22,4,21.85a4,4,0,0,0-1.53-.35l-.44,0v-.28c0-.06,0-.16,0-.28h.1c.52.09,1.1.16,1.68.23a16.09,16.09,0,0,1,1.92.31c0-.11.38-.56.43-.64-.23-.22-.87,0-1.21-.05a2.84,2.84,0,0,0-1.72-.44c-.39-.13-.84-.45-1.32-.6h0c-.06-.47-.12-1-.2-1.45l.24.12A3.15,3.15,0,0,0,3,19.55c1,.16,2.17-.07,2.9.52a1.58,1.58,0,0,1,.52.3c.1-.11.2-.23.31-.33s.06-.28,0-.37a6.41,6.41,0,0,0-2.21-.47c-.44-.19-1-.41-1.42-.61-.54-.43-1.06-.79-1.53-1.11v-.05c0-.14-.07-.27-.1-.37s-.11-.37-.17-.59a2.13,2.13,0,0,1,1.31.67,5.16,5.16,0,0,0,2,1,5.87,5.87,0,0,1,1.83.49,2.23,2.23,0,0,1,.65.8c0,.13.08.18.12.18S7.86,19,8,19a1.78,1.78,0,0,0-.58-1.18.47.47,0,0,1,0-.09c-.06-.12-.11-.25-.16-.37s-.21-.53-.32-.79a4.67,4.67,0,0,0-.8-1.45,1.06,1.06,0,0,0-.3-.26,1.86,1.86,0,0,0-1-.15h-.1l-.13.06-.65.36a2.62,2.62,0,0,1-.51.3H3.27a2,2,0,0,0-1,.14l-.33.17-.14-.09,0-.06a3.43,3.43,0,0,1,.85-.44A3.05,3.05,0,0,0,3.1,15a3,3,0,0,0,.41-.32c.2-.17.47-.15.7-.28s.38-.4.63-.41.33.11.49.06a.34.34,0,0,0,.21-.25.92.92,0,0,0,0-.33A1.08,1.08,0,0,0,5,13.41a3,3,0,0,0-.69.3,2.43,2.43,0,0,0-.62.37,13,13,0,0,1-1.17.9c-.2.14-.4.27-.61.39-.06,0-.18.09-.25.14l-.11-.1L2.06,15a3.54,3.54,0,0,0,.61-.49,8.27,8.27,0,0,1,.72-.73,5.28,5.28,0,0,1,.93-.52c.2-.1.41-.18.6-.3a1.06,1.06,0,0,0,.24-.19s.17-.26.12-.26a.45.45,0,0,0-.19.05l-.37.15a6,6,0,0,0-.73.33,5.05,5.05,0,0,0-1,.63,4.2,4.2,0,0,1-.93.75l-.76.38A3.2,3.2,0,0,0,1,15c0-.11,0-.28,0-.5l.46-.24a7.07,7.07,0,0,0,1.08-.49c.2-.11,1.28-.94,1.28-.94a3.17,3.17,0,0,1,.76-.21c.55-.12,1.12-1.43,1.12-1.43.26-.34.13,0,.13,0a6.51,6.51,0,0,0,.42,3.67,6.51,6.51,0,0,1,.83,1.32,1.82,1.82,0,0,0,.47,1A8.25,8.25,0,0,1,8,18.68c.11.19.16-.16.16-.16a5.29,5.29,0,0,0,.12-1.41,9.48,9.48,0,0,0-.84-1.32c-.22-.08-.63-1-.63-1a7.15,7.15,0,0,0-.29-.8c0-.73-.26-2.52-.26-2.52a15,15,0,0,1,.42-1.81,2.5,2.5,0,0,1,.93-1.17h.44a2.15,2.15,0,0,0-.28.23A1.86,1.86,0,0,0,7.51,9a3.23,3.23,0,0,0-.2.42,5.44,5.44,0,0,0-.3.65,1.59,1.59,0,0,0-.14.47c0,.4-.21.79-.21,1.19a6.32,6.32,0,0,0,.2,1.07.29.29,0,0,1,0,.09.43.43,0,0,1,0-.05c.09.41.19.81.27,1.22a2.86,2.86,0,0,0,.19.71,2,2,0,0,0,.21.3,5.13,5.13,0,0,1,.69,1.41l.45,1.23c.05.16.11.31.17.47s.14.39.3.42a.19.19,0,0,0,.17-.06.63.63,0,0,0,.11-.12c.05-.1,0-.2,0-.29s-.08-.24-.11-.35-.15-.45-.23-.67c-.17-.44-.38-.87-.54-1.31-.23-.63-.57-1.21-.77-1.85a6.82,6.82,0,0,1-.38-1.39v-.07s-.26-.93-.11-1.17c0,0,.53-1.66.67-2a2.86,2.86,0,0,1,.57-.83l.12,0c-.89.89-.53,3.82-.53,3.82a5.94,5.94,0,0,0,.5,1.72A8.16,8.16,0,0,0,9,14.9c.16.3.37.59.51.9a4.45,4.45,0,0,1,.19,1.5q0,.51,0,1c.17.43.5.19.5.19.25,0,.06-1.64,0-1.83a4.93,4.93,0,0,0-.42-2.1,6.79,6.79,0,0,0-.49-.67,3.28,3.28,0,0,1-.47-1.66c0-.3,0-.61-.06-.91a4.59,4.59,0,0,1,0-1A3.56,3.56,0,0,1,9,9.51a4.61,4.61,0,0,1,.43-.86l.94.22a5.23,5.23,0,0,0-.41.55A3.63,3.63,0,0,0,9.41,11a4.36,4.36,0,0,0,.5,2,4.42,4.42,0,0,0,.81,1.45,1.92,1.92,0,0,1,.56,1.63s.07,2.14,0,2.5c0,0-.12.53.17.6s.39-1,.43-1.13A8.31,8.31,0,0,0,12.1,16,3.58,3.58,0,0,0,12,14.93,8.34,8.34,0,0,1,11.56,12a3.37,3.37,0,0,1,1-2.6l.59.14a6.42,6.42,0,0,0-.66,1.75,2.55,2.55,0,0,0,.1.72,12.15,12.15,0,0,1,.18,2.17s0,2.19.07,2.64A10.65,10.65,0,0,1,13,18.77a5.39,5.39,0,0,0,.19,1s.32.18.4-.24c0,0,.08-1.16,0-1.79a10.14,10.14,0,0,1-.13-1.8s-.11-2.11,0-2.71a9,9,0,0,1,1.36-2.42c.07-.07.71-.81.83-.74v0c.18,0,.72,0,1.47-.09-.24.16-1.42.93-1.56,1.38a14.39,14.39,0,0,0-1.19,2.35s-.43,1-.26,1.3a7.53,7.53,0,0,1,0,1.49s.21,3.11.75,3.4a.4.4,0,0,0,.52-.19,27.53,27.53,0,0,1-.18-3,4.32,4.32,0,0,1,.5-1.77,7.34,7.34,0,0,0,.77-1.33s.65-1.56.87-2A6,6,0,0,1,19,9.74l.76-.16h0a6,6,0,0,0-1.3,1.48,12.06,12.06,0,0,0-1.2,3.53s-.41,2.16-.44,2.6a10.2,10.2,0,0,1-.15,2,6.08,6.08,0,0,0,0,1.06s.29.24.45-.16c0,0,.3-1.13.38-1.75a9.3,9.3,0,0,1,.21-1.79,26.85,26.85,0,0,1,.48-2.69,12.08,12.08,0,0,1,.88-2.89,7.6,7.6,0,0,1,1.11-1.47l.25-.07c.08.69.07,1.44.08,2.16a17.62,17.62,0,0,1-.41,2.38c-.06,1-.47,1.72-.47,2.76a6.81,6.81,0,0,1-.16.86c-.06.31-.11.62-.18.93s-.13.62-.21.92a6.5,6.5,0,0,0-.12.75.27.27,0,0,0,0,.09.24.24,0,0,0,0,.08.39.39,0,0,0,.19.21.19.19,0,0,0,.26-.06.39.39,0,0,0,.06-.18c.21-1,.56-1.89.71-2.86a13.92,13.92,0,0,1,.31-1.48c.16-1.17.53-2.26.7-3.41a16.79,16.79,0,0,0,.19-3.29.16.16,0,0,0,0-.1L22,9A18.2,18.2,0,0,1,22,12.76a26.94,26.94,0,0,1-.68,3.13c-.06.28-.07.58-.14.87s-.15.61-.22.92c-.17.72-.2,1.45-.35,2.17a.9.9,0,0,0,0,.4c.09.33.26.29.45,0a1.88,1.88,0,0,0,.22-.57,6.7,6.7,0,0,1,.18-1.27,3.16,3.16,0,0,0,.29-.85c.25-1.06.45-2.3.69-3.44a11.34,11.34,0,0,0,.41-3.82c-.09-.58-.19-.94-.26-1.41l.26,0,.49-.08a5.34,5.34,0,0,1,.49,1.73,24,24,0,0,1-.33,5,7.75,7.75,0,0,1-.92,2.59,7.39,7.39,0,0,0-.51,3.26h0a17.36,17.36,0,0,1-5.32.71A10.79,10.79,0,0,1,15.55,22a7.57,7.57,0,0,1-1.67-.42l-.3-.1c-.5-.16-1-.36-1.49-.55l-.46-.18a5.82,5.82,0,0,0-1.58-.31l-.4,0a3.11,3.11,0,0,0-.79.13,4.55,4.55,0,0,0-1.69.35C7.06,20.89,7,21,7,21h.06a3.39,3.39,0,0,1,2.33.41c.09-.3.17-.54.23-.76h0l.38,0a5.6,5.6,0,0,1,1.52.29l.46.18c.49.2,1,.4,1.51.56l.29.1a8,8,0,0,0,1.73.43,11.36,11.36,0,0,0,1.14.05h.12a17.55,17.55,0,0,0,5.39-.72,3.3,3.3,0,0,1,1.72,0h0a.78.78,0,0,1,.18.11h0a.29.29,0,0,1,0,.14c.14-.2.21-.53.47-.57a8.64,8.64,0,0,1,1.81-.35,2.44,2.44,0,0,1,1.55.39,1.42,1.42,0,0,1,.1-.29l0,0c-.18-.16-.4-.32-.54-.46a2.92,2.92,0,0,0-1.1-.19,6,6,0,0,0-1.31.16c-.39.34-1.29.18-1.19.83a2.5,2.5,0,0,0-1.09-.08,17.22,17.22,0,0,1-.05-1.78c.16-.58.44-1.13.66-1.73a18.21,18.21,0,0,0,1-5.79,6.59,6.59,0,0,0-.17-3,4.75,4.75,0,0,1,.79,2.16,11.29,11.29,0,0,1-.94,6.21s.57-.39.62-.55a5.58,5.58,0,0,0,.55-1.21,23.89,23.89,0,0,0,.41-2.67c.38.77-.28,2.07.49,2.55,1.13.88,1.51,2.39,2.7,3.29a2.67,2.67,0,0,1,.55.83c.13-.13.25-.26.35-.38-.25-.95-1-1.5-1.59-2.22a9.65,9.65,0,0,1-1.14-2,9.3,9.3,0,0,1-.61-2,9,9,0,0,0-.81-3.42,13.48,13.48,0,0,0-.79-1.23s-.06-.18-.07-.22-.08-.29-.13-.43-.08-.32-.13-.47a1,1,0,0,1-.08-.49.16.16,0,0,1,.07-.12.11.11,0,0,1,.08,0c.1,0,.15.14.19.24l.24.58c.1.24.05.4.25.57s.43.14.49.2a7.5,7.5,0,0,1,.72,2.14,12.39,12.39,0,0,0,.76,3.31,3.75,3.75,0,0,0,1.16,2c.6.78,1.42,1.41,1.63,2.32.05.11.11.26.17.42a9.31,9.31,0,0,0,.36-1.16,3.61,3.61,0,0,0-.33-.65c-.86-1.14-2.09-2-2.45-3.37a10.64,10.64,0,0,1-.48-1.89,9.11,9.11,0,0,1-.12-2A4.3,4.3,0,0,1,26.1,7.67.67.67,0,0,1,26,7.5l-.09-.15c-.05-.11-.1-.22-.16-.33s-.15-.31-.22-.46A1.13,1.13,0,0,1,25.36,6a.19.19,0,0,1,.07-.17.21.21,0,0,1,.24,0s0,0,0,.06a1,1,0,0,0,.14.29c.06.1.11.21.16.31a5.28,5.28,0,0,0,.33.62c.05.08.27.09.33.18A7,7,0,0,1,27.35,9a4.88,4.88,0,0,1,1.92,1.69,15.85,15.85,0,0,1,1.66,3.82c.08.2.52,1.66.41,1.26a3,3,0,0,1,.15.27l.26-.23c-.07-.58-.25-1.18-.33-1.72-.38-1-.69-1.84-1.1-2.74A10,10,0,0,0,28.84,9a6.66,6.66,0,0,0-1-2.13h0c0-.19.1-.38,0-.54l-.8-1.21A.29.29,0,0,1,27,4.87a.05.05,0,0,1,0,0s0,0,.06,0A9.58,9.58,0,0,1,28,5.92c.13.17.11.36.27.52s.22,0,.33.12h0a5,5,0,0,0,.93,1,9.47,9.47,0,0,1,1.33,2.84,17.34,17.34,0,0,1,1,3.06,11.57,11.57,0,0,1,.32,2l.24-.2a12.77,12.77,0,0,0-.33-2.85,9.11,9.11,0,0,0-.67-2.82c-.57-.78-1-1.69-1.6-2.38a9.67,9.67,0,0,1-.58-.94h0A2.21,2.21,0,0,1,29.2,6a1.17,1.17,0,0,0-.33-.62,1.07,1.07,0,0,1-.55-.68c0-.08-.44-.29-.47-.37s.2-.11.29-.06.26,0,.33.11c.28.32.37.6.65.92.11.13.3.52.4.67s.22,0,.28.07h0a6.91,6.91,0,0,1,1.1,1.46,7.84,7.84,0,0,1,1.54,4.1,28.39,28.39,0,0,1,.43,3.35l.56-.44A9.82,9.82,0,0,0,33,9.17,6.64,6.64,0,0,0,32.44,8a7.09,7.09,0,0,0-1.92-1.86c-.12-.1-.22-.21-.33-.32L30,5.41a3.2,3.2,0,0,0-.26-.6,4.23,4.23,0,0,0-.56-.56l-.43-.41s-.1-.09-.09-.14c0-.24.67.32.73.37.45.39.65.88,1.06,1.3l.37.09h0l.65.51a4.89,4.89,0,0,1,1.78,2.31,11.52,11.52,0,0,1,.87,3.21,18.19,18.19,0,0,1,.33,2.13l.31-.33a11.58,11.58,0,0,0-.18-1.83,3.56,3.56,0,0,1,.74,1.17,1.33,1.33,0,0,0,.14-.19c-.1-.92-.54-1.71-.71-2.57A31,31,0,0,0,33.4,6.7a6,6,0,0,0-1.59-1.79h0A1.39,1.39,0,0,0,31,4a5.13,5.13,0,0,0-.95-.54S29.45,3,30,3a11.21,11.21,0,0,1,2,1.46l.4.13h0l.47.4c.68.49,1,1.53,1.51,2.21a8.18,8.18,0,0,1,.73,2.35,15.43,15.43,0,0,0,.68,2.52l.18-.25a4.55,4.55,0,0,0-.17-.52,28,28,0,0,1-.61-3.61A10.69,10.69,0,0,0,34.48,6a5.47,5.47,0,0,0-1.2-1.45c-.1-.08-.22-.15-.34-.23h0c-.1-.16-.21-.31-.31-.46l-.22-.32a.67.67,0,0,0-.33-.27L31,2.68l-.08-.05a.41.41,0,0,1-.09-.26c0-.25.41,0,.49.08l.66.38A6.24,6.24,0,0,1,33.19,4h.27c.2.21.39.43.58.67a4.64,4.64,0,0,1,1.19,1.42c.75,1.21.2,2.86.7,4.16a3.1,3.1,0,0,0,.45.95L36.5,11a.22.22,0,0,1,.13,0,7.67,7.67,0,0,1-.3-.92c-.44-1.32-.21-2.86-.61-4.22a4.94,4.94,0,0,0-1.19-2.15l-.15-.14h0s0-.1,0-.11a2,2,0,0,1-.1-.26c-.05-.12-.1-.25-.14-.38a.35.35,0,0,0-.17-.24L33,2.1a.44.44,0,0,1-.25-.3c0-.06,0-.13,0-.17s.46.13.6.21a3.42,3.42,0,0,1,.77.48,6.54,6.54,0,0,1,.59.89A.25.25,0,0,0,35,3.3h0a5.82,5.82,0,0,1,.88,1.47,9.92,9.92,0,0,1,.67,3c.12.58.18-1.84.14-1a7.17,7.17,0,0,0-1-3.35l-.64-1.08-.62-.84s0-.67.36-.2l.87,1.63.36.7h0a1.4,1.4,0,0,1,.24.56,2.62,2.62,0,0,0,.55,1c.06-.27-.3-.93-.3-.93s.09-.06.27.07a.64.64,0,0,0,.75-.07l0,0s.28,0,.06-.33c0,0-.46-.31-.41-1.54,0,0,0-1.08.65-1.39,0,0,.8-.52,1,.67a1.21,1.21,0,0,1-.21.9l0,0,0,0v0a.75.75,0,0,0-.12.14.46.46,0,0,1-.08.27c-.27.19-.15.58,0,.88-.36.14-.18.94-.55,1.16-.63.42-.45,1.48-.43,2.27h.12v0h0c0-.23.1-.78.12-1-.07-.52.49-.65.76-.93a1.68,1.68,0,0,0,.33-1.21.69.69,0,0,1,.36.18c0,.34-.08.7.33.83a5.94,5.94,0,0,1,.93,1c.18,0,.28.12.47.15a2.15,2.15,0,0,1,.44,1.22c.1.83.74,1.35,1,2a1.59,1.59,0,0,0,.4,1.05c-.13.48.45,1.57,0,2.12-.5,0-1.17-.12-1.35.39a1,1,0,0,0-.59.45l-.07.09c.1.11.07.61.43,1s1.4-.16,1.4-.16a.44.44,0,0,0,.22.16c.17.06.64-.25.81-.62a4.82,4.82,0,0,0,.53-1.19A4.3,4.3,0,0,0,43.42,10.89ZM2.66,16a4.42,4.42,0,0,1,1.26-.12A11.27,11.27,0,0,1,5.21,16a2.62,2.62,0,0,1,1.1.41,1,1,0,0,1,.3.62c0,.17.11.33.17.5a5.74,5.74,0,0,1-1-.48c-.74-.5-1.8-.36-2.68-.55l-.74-.4ZM5.51,8.68h0L5.37,9c-.18.28-.37.57-.57.84a10.38,10.38,0,0,1-.78,1c-.24.27-.49.54-.75.79l-.4.34.33-.43.58-.74c.5-.64,1-1.3,1.44-2ZM1,12.54a1.06,1.06,0,0,1,0-.19c.07-.29.14-.55.21-.8.79,0,1.19-1.15,1-1.15l-.24,0,.06,0S2.12,9.63,4,9l-.51.56c-.55.72-1.13,1.43-1.7,2.14L1,12.66A1.09,1.09,0,0,0,1,12.54ZM1,13c.2-.25.39-.5.61-.74l.79-.83c.14-.14.27-.27.4-.42L3,10.75s.22-.18.22-.23L4.1,9.6l.59-.76L5,8.78,4,10c-.33.4-.69.77-1,1.16a8,8,0,0,0-.63,1h0a2.15,2.15,0,0,0-.37.19,1.48,1.48,0,0,0-.26.24l-.11.13a5.17,5.17,0,0,1-.58.73L1,13.58C1,13.36,1,13.16,1,13Zm2.32-.45-.19.3,0,0A12.21,12.21,0,0,0,1,14.2c0-.07,0-.15,0-.23a6.8,6.8,0,0,0,1.48-1.33,4.93,4.93,0,0,1,.6-.61c.13-.11.27-.2.41-.31a1.73,1.73,0,0,0,.21-.17l.2-.22c.18-.17.37-.33.55-.51A3.69,3.69,0,0,0,5.11,10,14.43,14.43,0,0,0,6.19,8.57l.23,0a12.08,12.08,0,0,1-1.5,2.26A12.88,12.88,0,0,1,3.32,12.53Zm2.84-2.38A5.29,5.29,0,0,1,5,11.57a2.53,2.53,0,0,1-1,.86A9,9,0,0,0,5.21,11a11.19,11.19,0,0,0,1.54-2.5l.39,0A9.65,9.65,0,0,0,6.16,10.15Zm4.72,1.52a11.51,11.51,0,0,0,.19,1.87,1.91,1.91,0,0,1,.2.68s-.13.43-.32-.06a.75.75,0,0,0-.13-.18,5.28,5.28,0,0,1-.27-.53,3.8,3.8,0,0,1-.22-.8c-.06-.37-.06-.75-.09-1.12a5,5,0,0,1,0-.77A3.17,3.17,0,0,1,11,9l.53.13.44.11A3.6,3.6,0,0,0,10.88,11.67Zm3.23-.94a4.28,4.28,0,0,0-.79,1.6,13,13,0,0,1,.13-1.53,2,2,0,0,1,.38-1.09l1,.23ZM17,11a13.25,13.25,0,0,0-.93,2s-.53,1.3-.69,1.54a2.06,2.06,0,0,1-.32.67s-.47.37-.37-.15c0,0,.81-1.7.89-2A8.62,8.62,0,0,1,16.49,11a9.91,9.91,0,0,1,1.15-1l.43,0A5.11,5.11,0,0,0,17,11ZM37,2.25c0,.07,0,.13,0,.19a.44.44,0,0,0,0-.1Zm0,1a.68.68,0,0,0,0-.15,1.89,1.89,0,0,0,.09.34C36.93,3.36,36.79,3.32,37,3.2Zm.51.84c-.38,0-.78-.1-.85-.5a.66.66,0,0,0,.55,0s0,.05,0,.08Z"/></svg>