<svg xmlns="http://www.w3.org/2000/svg" viewBox="0 0 32 29.5">
    <defs>
        <style>.a{fill-rule:evenodd;}</style>
    </defs>
    <path class="a"
          d="M17.7,10.7a4.1,4.1,0,0,0,4-3.6,2,2,0,0,0,1.1.3,1.9,1.9,0,0,0,1-.3,4.1,4.1,0,0,0,4.1,3.6A4.2,4.2,0,0,0,32,6.6a4.2,4.2,0,0,0-1.3-3l-.3-.3L28.9,2a3.8,3.8,0,0,0-2.1-.7L25.9.4a1.2,1.2,0,0,0-1-.4,1.5,1.5,0,0,0-1.4,1L22.9.8h-.2L22,1a1.4,1.4,0,0,0-1.4-1,1.8,1.8,0,0,0-1,.4l-.9.9a3.9,3.9,0,0,0-2,.8L15.1,3.4l-.3.3a3.9,3.9,0,0,0-1.3,2.9A4.1,4.1,0,0,0,17.7,10.7Zm9.6-6.9h.6a2.8,2.8,0,0,1,2.8,2.8,2.9,2.9,0,0,1-2.8,2.8,2.8,2.8,0,0,1-2.8-2.8A2.8,2.8,0,0,1,27.3,3.8Zm-4.5.6a.9.9,0,0,1,0,1.8,1,1,0,0,1-1-.9A1,1,0,0,1,22.8,4.4Zm-5.2-.6h.7a2.9,2.9,0,0,1,2.2,2.8,2.9,2.9,0,0,1-5.7,0A2.8,2.8,0,0,1,17.6,3.8Z"/>
    <path class="a"
          d="M31.3,28H26.8l-1.1-1.4h3.5s5.1-1.4,1.5-5.1c0,0-4.4-5-8-5H19.8V15.1h9.7a.8.8,0,0,0,.8-.7.8.8,0,0,0-.8-.7H8.5a.7.7,0,0,0,0,1.4h9.8v1.4h-.7s-3.6,0-4.4,2.7H7.6A4,4,0,0,0,4,16.8a4,4,0,0,0,0,8,3.9,3.9,0,0,0,3.6-2.2h6a10.2,10.2,0,0,0,4.7,3.9h2.3l1,1.4h-7a.7.7,0,0,0-.7.7.7.7,0,0,0,.7.8H31.3a.7.7,0,0,0,.7-.8A.7.7,0,0,0,31.3,28ZM5.1,22.6H6a2.9,2.9,0,0,1-2,.9,2.7,2.7,0,0,1,0-5.3,2.8,2.8,0,0,1,2.1,1h-1a1.7,1.7,0,0,0,0,3.4ZM22.9,28l-1.1-1.4h2.7l1,1.4Zm-1-8.5a4.5,4.5,0,0,1-.3-1.1.7.7,0,0,1,.3-.5c2.6-1.1,5.9,2.3,7.3,3.8a2.2,2.2,0,0,1,.7,1c0,.5-.7.5-.7.5H25.6A8.8,8.8,0,0,1,21.9,19.5Z"/>
</svg>
