<svg xmlns="http://www.w3.org/2000/svg" viewBox="0 0 119.8 119.8"><g id="Layer_2" data-name="Layer 2"><g id="Layer_1-2" data-name="Layer 1"><polygon points="48.4 46.6 47.5 53 60.1 67.1 72.2 53.3 71.1 46.6 48.4 46.6"/><rect x="47.1" y="21.9" width="25.5" height="8"/><polygon points="78.1 86.4 73.4 59.9 64.1 70.5 78.1 86.4"/><path d="M59.9,0a59.9,59.9,0,1,0,59.9,59.9A59.88,59.88,0,0,0,59.9,0ZM97.2,102.7H22.4a3.9,3.9,0,0,1-3.9-3.9,3.84,3.84,0,0,1,3.9-3.9H33.8c1.1-8.4,3.9-24.8,8.2-49.2h-.1V21.9H37.6L59.3,2.7,82.1,21.9H77.9V45.3c2.8,17.3,4.9,30.6,6.4,39.8.7,4.1,1.1,7.3,1.5,9.9H97.2a3.85,3.85,0,1,1,0,7.7Z"/><polygon points="41.5 94.9 78.3 94.9 60.1 74.7 41.5 94.9"/><polygon points="46 58.7 40.4 89.2 56.9 70.8 46 58.7"/></g></g></svg>
