<svg xmlns="http://www.w3.org/2000/svg" width="33" height="30.9" viewBox="0 0 33 30.9">
  <title>Ground Hornbill Sighting</title>
  <g id="Layer_2" data-name="Layer 2">
    <g id="Layer_1-2" data-name="Layer 1">
      <path d="M5.4.7C5.9.5,5.9.2,6.5.1h3a2.4,2.4,0,0,1,2.2,1.9A10.6,10.6,0,0,1,11.9,5c0,2,1.1,2.5.9,3.3a12.6,12.6,0,0,1,6.3,2.2c1,.7,5.7,5.7,9.9,7.5-.1.4.8,1.7.7,2.2a3.7,3.7,0,0,1-1.5-.3c-.3.5.3.9.5,1.7s-1.1.3-1.2,0A16.9,16.9,0,0,0,31,23.8c1.2.6,2.2,1.4,2,2.7s-4.8-2.8-5.4-3.4-3.3-.2-4.5-1.2-.5.7-.8.6a5.8,5.8,0,0,1-2.5-1.2A49.7,49.7,0,0,1,18.6,29l.6.6a1.6,1.6,0,0,1,.7.9c.1.1,0,.1,0,.1a13,13,0,0,0-1.7-.8c-.4,1.4-1.8,1.2-3,.8,1.1-.5,2.5-1,2.7-2.6a25.8,25.8,0,0,0,.3-2.9c0-.6-.3-1.8-.9-2s.2.6.1.8-.5-.5-.6-.6a12.5,12.5,0,0,1-1.6,3.6,1.7,1.7,0,0,0,.1,1.4c.3.6,1.3.7,1.4,1.3-1.7-1-3.8.8-5.6.1.6-.2,1.5-.1,2.1-.6s2.4-5.2,2.2-6-6.7-4.4-6.9-7a20.3,20.3,0,0,0-.6-4.2,54.8,54.8,0,0,1-.4-6.5,1.6,1.6,0,0,1,.9-1.2.8.8,0,0,0-.8-.7,48.2,48.2,0,0,0-5.2.8L0,5.4A5.5,5.5,0,0,1,1.6,3.1Z" fill="#1a2026"/>
    </g>
  </g>
</svg>
