<svg xmlns="http://www.w3.org/2000/svg" viewBox="0 0 44 42.66"><defs><style>.cls-1{fill:none;}.cls-2{fill:#1a2026;}</style></defs><g id="Layer_2" data-name="Layer 2"><g id="Layer_1-2" data-name="Layer 1"><path class="cls-1" d="M41.14,3.76a1.1,1.1,0,0,0,.54-.43,1.14,1.14,0,0,0,.2-.66,1.1,1.1,0,0,0-.28-.78,1.18,1.18,0,0,0-.69-.38,8.25,8.25,0,0,0-1.25-.06h-.84V3.89h1A4.53,4.53,0,0,0,41.14,3.76Z"/><path class="cls-2" d="M43.68,20a6.29,6.29,0,0,0-1-2,3.14,3.14,0,0,0-2.21-1.27,7.28,7.28,0,0,1-1.32-.22,11.44,11.44,0,0,1-1.36-.56c-.67-.3-1.34-.65-2-.9a2.5,2.5,0,0,0-.95-.09L33.74,15c-1.13.07-2.26.17-3.4.23s-2.18.07-3.27.07a17.47,17.47,0,0,1-3.23-.2,5.37,5.37,0,0,1-1.35-.4,6.8,6.8,0,0,0-.86-.31Q21,14.15,20.31,14c-.44-.11-.89-.18-1.33-.3a5.59,5.59,0,0,1-2.27-1.4L14.9,10.7A23.12,23.12,0,0,0,11.23,8a10.19,10.19,0,0,0-4.7-1.1c-.6,0-1.2,0-1.8.06a1.69,1.69,0,0,0-.44-.49c-.21-.15-.45-.26-.66-.4a1.64,1.64,0,0,1-.57-.73c-.07-.19-.29-.16-.32,0a3.35,3.35,0,0,0,.17,1.17C3,6.7,3,6.84,3,7a3,3,0,0,1-.64-.54c-.06-.09-.23-.46-.33-.19a1.21,1.21,0,0,0,.13.83,3.72,3.72,0,0,1,.58,1.45h0a8.94,8.94,0,0,0-.67,1.56,23.16,23.16,0,0,1-.77,2.31c-.23.52-.48,1-.71,1.54-.12.28-.23.55-.35.82a2.64,2.64,0,0,0-.25.68,2.51,2.51,0,0,0,.37,1.32,1,1,0,0,0,.8.5,1.64,1.64,0,0,0,1.07-.19h0A1.55,1.55,0,0,0,3,17c.24-.1.27-.31.28-.55a1.5,1.5,0,0,1,.45-1.09,3.07,3.07,0,0,1,1.05-.78c.34-.12.7-.16,1-.3a3,3,0,0,0,.85-.56,3.92,3.92,0,0,0,.65-.81,1.71,1.71,0,0,1,.36.35c.16.18.32.38.47.57l.71.9a22.46,22.46,0,0,1,1.72,2.87l.75,1.4a6.4,6.4,0,0,1,.59,1.24,6.75,6.75,0,0,1,.26,1.9,14.83,14.83,0,0,0,0,1.49A3.63,3.63,0,0,0,12.59,25a28.86,28.86,0,0,0-3.44,2.71c-.34.28-.67.58-1,.88a1.23,1.23,0,0,0-.27.29,1.66,1.66,0,0,0-.15.58,3.54,3.54,0,0,0,0,1.52,5.31,5.31,0,0,0,.44.81c.47.8,1,1.59,1.4,2.43a7.22,7.22,0,0,1,.36,1,1.27,1.27,0,0,0,.23.5c.16.17.46.2.67.28a3.16,3.16,0,0,1,.8.45,6.82,6.82,0,0,0,.71.6,1.53,1.53,0,0,0,.74.07,5.82,5.82,0,0,0,1.1,0c.17,0,.57,0,.65-.2s-.1-.43-.18-.57-.38-.55-.58-.82-.69-1-1.17-.78a1.11,1.11,0,0,0-.45.46c-.06.08-.14.22-.25.2s-.18-.19-.19-.3c-.07-.37.11-1-.23-1.25a3,3,0,0,0-.3-.19,3.31,3.31,0,0,1-.45-.39,4.71,4.71,0,0,1-.69-.92A3.36,3.36,0,0,1,10,31.2a2.2,2.2,0,0,1,0-1.14c.11-.29.54-.37.8-.45s.63-.16.94-.24a18.4,18.4,0,0,0,2-.7,10,10,0,0,0,1-.48c.07.53.16,1.32.24,1.85a9.45,9.45,0,0,1,.14,2.6A9.19,9.19,0,0,0,15,34c0,.46.1.92.12,1.38a10.89,10.89,0,0,1-.36,3,6,6,0,0,1-.42,1.38,4.6,4.6,0,0,1-.58.81,8.36,8.36,0,0,0-.75,1c-.1.17-.37.51-.3.73s.37.17.51.19a5.79,5.79,0,0,0,1,0,6.12,6.12,0,0,0,.86-.1.5.5,0,0,0,.37-.22,2,2,0,0,0,.39-.76c0-.23-.21-.31-.3-.49a.53.53,0,0,1,.24-.6c.12-.06.26,0,.39-.1a.7.7,0,0,0,.37-.6c0-.39,0-.78,0-1.17s.05-.93.09-1.39.05-.78.09-1.17A10,10,0,0,1,17,34.57a5.69,5.69,0,0,0,.18-1.69A8.34,8.34,0,0,1,17.38,31c.15-.69.31-1.38.5-2.06.08-.31.2-.61.27-.93s.12-.48.19-.71c1.34,0,2.68.17,4,.08,1.08-.07,2.15-.24,3.21-.41a31.43,31.43,0,0,0,3.33-.75,13.91,13.91,0,0,1,2.47-.6,7.24,7.24,0,0,1,.78,1.91c.17.69.21,1.39.32,2.1s.31,1.27.41,1.91a5.55,5.55,0,0,1-.08,1.95,18.92,18.92,0,0,1-1.18,3.67,10.84,10.84,0,0,1-2,3.33,7.13,7.13,0,0,0-1,1.16c-.05.08-.15.23-.05.32A1.23,1.23,0,0,0,29,42l.5.06a8.71,8.71,0,0,0,1,0,1,1,0,0,0,.63-.11,1.78,1.78,0,0,0,.43-.55.52.52,0,0,0-.05-.57.76.76,0,0,1,.22-.88c.23-.12.42.18.65.14.44-.08.48-.84.54-1.17a11.08,11.08,0,0,1,1.41-3.48c.28-.48.59-.93.91-1.39a1.77,1.77,0,0,0,.31-.49,2.17,2.17,0,0,0,.08-.43c.1-.94,0-1.9.18-2.83a3.28,3.28,0,0,1,.11-.45A16.54,16.54,0,0,0,37,31.43a21.78,21.78,0,0,1,1.84,2.23,5.76,5.76,0,0,1,.65,2.94,9.73,9.73,0,0,1,0,1.08,8.69,8.69,0,0,1-.12,1.53,4,4,0,0,1-.6,1.32c-.27.39-.62.71-.88,1.09a3.53,3.53,0,0,0-.4.83.07.07,0,0,0,0,.08,6.24,6.24,0,0,0,1.67.12,3.41,3.41,0,0,0,.71-.06c.21,0,.24-.13.35-.33s.27-.5.18-.71-.11-.11-.18-.16-.18-.3-.13-.51c.1-.38.28-.62.69-.63.22,0,.4,0,.46-.26a2.45,2.45,0,0,0-.06-1c-.08-.5-.12-1-.15-1.52a20.42,20.42,0,0,1,0-2.71c0-.44.06-.89.11-1.33a2.69,2.69,0,0,0,0-.85,5.9,5.9,0,0,0-1.15-1.86A6.25,6.25,0,0,1,39.38,26,20.93,20.93,0,0,1,40,23.89a15.41,15.41,0,0,0,.49-2.24,7.58,7.58,0,0,0,0-2.23,8.8,8.8,0,0,0-.19-1c0-.15-.17-.51-.1-.53s.08.06.1.08a1.1,1.1,0,0,1,.19.25,3.27,3.27,0,0,1,.38.8,7.48,7.48,0,0,1,.42,2.43,30.2,30.2,0,0,1-.83,4.79,9.73,9.73,0,0,0,.27,4c.12.45.27.9.42,1.35a.07.07,0,0,0,.14,0,4.29,4.29,0,0,1,0-1.43,2.93,2.93,0,0,1,.05-.29,6,6,0,0,0,.3,1.76c.16.49.36,1,.55,1.44a2.94,2.94,0,0,1,.27,1.62.07.07,0,1,0,.13,0,4.28,4.28,0,0,0,.18-2,9.84,9.84,0,0,1,0-1.88,2,2,0,0,0,.39.68.07.07,0,0,0,.12-.05,12.64,12.64,0,0,1,.42-3.87,12.94,12.94,0,0,0,.27-1.38c0-.35,0-.71.07-1.06,0-.84.06-1.67.07-2.5A8.38,8.38,0,0,0,43.68,20Z"/><path d="M38.82,5.35H40a10.09,10.09,0,0,0,1.8-.12,2.77,2.77,0,0,0,.9-.41A2.44,2.44,0,0,0,43.38,4a2.81,2.81,0,0,0,.29-1.33A2.67,2.67,0,0,0,43.17,1,2.27,2.27,0,0,0,41.93.13,9.77,9.77,0,0,0,39.87,0H37.09V8.59h1.73Zm0-3.9h.84a8.25,8.25,0,0,1,1.25.06,1.18,1.18,0,0,1,.69.38,1.1,1.1,0,0,1,.28.78,1.14,1.14,0,0,1-.2.66,1.1,1.1,0,0,1-.54.43,4.53,4.53,0,0,1-1.37.13h-1Z"/></g></g></svg>