<svg xmlns="http://www.w3.org/2000/svg" width="13" height="32" viewBox="0 0 13 32">
  <title>Human Activities Observation</title>
  <g id="Layer_2" data-name="Layer 2">
    <g id="Layer_1-2" data-name="Layer 1">
      <path d="M13,11.3V11c0-1.3-.5-2.9-1.9-3.3H2c-1.5.4-2,2-2,3.3v7.7a1.1,1.1,0,0,0,1.1,1.1,1.1,1.1,0,0,0,1.2-1.1V11.5h.8v7.7h0V30.7A1.4,1.4,0,0,0,4.5,32h0a1.3,1.3,0,0,0,1.4-1.3V21.4H7.1v9.3A1.3,1.3,0,0,0,8.5,32h0a1.3,1.3,0,0,0,1.4-1.3V19.2h0V11.5h.9v7.2a1.1,1.1,0,0,0,2.2,0V11.3ZM6.5,6.8A3.4,3.4,0,0,1,3.1,3.4a3.4,3.4,0,0,1,6.8,0A3.4,3.4,0,0,1,6.5,6.8Z" fill="#1a2026"/>
    </g>
  </g>
</svg>
