<svg xmlns="http://www.w3.org/2000/svg" viewBox="0 0 38.93 24.62"><defs><style>.cls-1{fill:#1a2026;}</style></defs><title>Human Wildlife Conflict</title><g id="Layer_2" data-name="Layer 2"><g id="Layer_1-2" data-name="Layer 1"><path class="cls-1" d="M23.12,6.94a20.65,20.65,0,0,1-2.59.21s-1.71-.26-2.16,0a4.69,4.69,0,0,0-1.53,1.64,4.83,4.83,0,0,0-.95,1.53,22.06,22.06,0,0,0-1.17,2.75l-.21.64a6.3,6.3,0,0,1-1.45.18s0,.21.84.42a2.38,2.38,0,0,1-.79,0,2.38,2.38,0,0,0,1.22.37s-.16,3.09,2.24,4.07c0,0,2.25.4,2-1.72,0,0-.34-1.13-1.16-.6,0,0,.31.23,0,.34,0,0,.53.66,0,.79,0,0-1,.42-1.25-1.48A3.53,3.53,0,0,1,17,13.6l.42,0,.34.26a.49.49,0,0,0,.45-.31l.48-.24s1.13,0,1.32-.37c0,0-.11.95.32,1.27,0,0,1.4-.27,1.58-.53a19.42,19.42,0,0,1-.47,2.48l-.61,2.14a10.41,10.41,0,0,1-.58,1.9,7,7,0,0,0-.35,2s-.23,1.06-.63,1.29c0,0-.87.45-.4.82,0,0,3,.61,2.7-.24,0,0-.42-.81-.32-1.18A19.44,19.44,0,0,1,22.57,20a15.76,15.76,0,0,0,1.74-2.35s.93,2.22,1,2.51a9.06,9.06,0,0,0,.72,2.14s.36.87-.08,1.14c0,0-1,.66-.64,1,0,0,2.88.48,2.91-.18a1.25,1.25,0,0,0-.32-.77,2.08,2.08,0,0,1-.16-1.24,17.62,17.62,0,0,0-.21-2s-.29-1.87-.32-2.82c0,0,.14-.74.27-.8a6.19,6.19,0,0,0,2.69.82s1.3.14,1.27.29a5.25,5.25,0,0,0,.79.77A4.74,4.74,0,0,1,32.84,20s.19,2.32-.29,2.72c0,0-1.08.79-.82,1.42,0,0,2.65.43,3-.13a8.61,8.61,0,0,0-.21-2.24s-.24-2.65.24-3.09a6.65,6.65,0,0,1,1.32,1.55,18.55,18.55,0,0,1,.9,2.8s-.37.93.1,1.19c0,0,1.93.21,1.8-.87a3.7,3.7,0,0,0-.45-1.16,11,11,0,0,1-1-3l0-1.37a10.11,10.11,0,0,1,.29,1.48s.21,1.82.87,2.29a17.41,17.41,0,0,0-.42-2.11,16.32,16.32,0,0,1-.48-2.75,18.32,18.32,0,0,1-.39-3.19,5.12,5.12,0,0,0-1.06-2.41,14,14,0,0,0-2.56-2.8,6.73,6.73,0,0,0-4.52-.87s-3.3.11-3.83-.45A1.79,1.79,0,0,0,23.12,6.94Z"/><g id="man"><path id="body" class="cls-1" d="M7.32,12.54v-.2a1.76,1.76,0,0,0-1.1-1.83c-.06,0-.46,0-.46,0H1.57s-.4,0-.46,0A1.76,1.76,0,0,0,0,12.34v.2a.34.34,0,0,0,0,.1v4.05a.62.62,0,0,0,.64.6.62.62,0,0,0,.64-.6V12.64h.48V17h0v6.45a.77.77,0,0,0,.78.75h0a.77.77,0,0,0,.78-.75V17H4v6.45a.77.77,0,0,0,.78.75h0a.77.77,0,0,0,.78-.75V17h0V12.63h.48v4.05a.64.64,0,0,0,1.28,0V12.64A.34.34,0,0,0,7.32,12.54Z"/><path id="head" class="cls-1" d="M3.67,10a1.91,1.91,0,1,1,1.9-1.91A1.91,1.91,0,0,1,3.67,10Z"/></g><path class="cls-1" d="M14.39,3.63l3.36.15L14.81,5.89,16.21,8H13.56l-.72,2L10.56,8.46,7.7,9.09,9.13,6.92,6,5.55l3.17-.73L7.39,1.77,11.07,3l.86-3,1.23,3.15L15,1.61l-.64,2M15,4.72l-1.44-.44.09-.65-.72.49L12.21,3l-.84,1-2.12-.5.88,1.75L8.82,5.8,10,6.63,9.44,7.82l1.5-.49,1.49,1.31.82-1.38,1.13-.17L13.74,5.8,15,4.72"/></g></g></svg>