<svg xmlns="http://www.w3.org/2000/svg" viewBox="0 0 25.8 32"><circle cx="14.2" cy="7.4" r="2.5"/><path d="M25.1,13.7,17,10.4h0a1.6,1.6,0,0,0-1.5-.2l-1.3.3h-.3l-3.8,1.3L8.9,8.3,15,2.8l.9.2H16l.3-.2L17.4.5c.1-.1,0-.3-.1-.4H17L14.5.9c-.1,0-.2.2-.2.3v.9L8.4,7.4a1.7,1.7,0,0,0-1.2-.2h0a1.3,1.3,0,0,0-.8,1.6v.3L.2,14.8a.5.5,0,0,0-.1.7l.4.2H.8l6.1-5.5,1.2,3.6.3.5a1.1,1.1,0,0,0,1.3.4l3.1-1.1,1.7,7.7a.4.4,0,0,1,.1.3L9.5,29.9a1.4,1.4,0,0,0,.5,1.8h0a1.3,1.3,0,0,0,1.7-.5l5.1-8.4a.1.1,0,0,0,.1-.1l1.3-.2h.2l3.3,2.9.6,5.6A1.2,1.2,0,0,0,23.7,32h0a1.2,1.2,0,0,0,1.1-1.4l-.6-6h0a1.8,1.8,0,0,0-.4-.9l-4-3.4h0c0-.1,0-.1-.1-.2l-1.4-6.4L24.1,16a1.2,1.2,0,0,0,1.6-.6h0A1.3,1.3,0,0,0,25.1,13.7Z"/></svg>
