<svg xmlns="http://www.w3.org/2000/svg" viewBox="0 0 100 100"><defs><style>.cls-1{fill:#231f20;}</style></defs><g id="Layer_2" data-name="Layer 2"><g id="Layer_1-2" data-name="Layer 1"><path d="M83.7,51.2H99.3c.2,0,.5.1.7.1V20A20.06,20.06,0,0,0,80,0H20A20.06,20.06,0,0,0,0,20V80a20.06,20.06,0,0,0,20,20H80a20.06,20.06,0,0,0,20-20V52.8c-.2,0-.4.1-.6.1H83.7c-.7,0-.9-.3-.9-1S83.3,51.2,83.7,51.2ZM23.9,16.4c3.7-1.9,8,0,9.5,4a5.77,5.77,0,0,1,.3,1.4,4.14,4.14,0,0,1,.1,1,7.86,7.86,0,0,1-2,5.3.91.91,0,0,1-1.1.3c-2.5-.6-4.9-1.1-7.4-1.7-.7-.2-1.5-.3-2.2-.5a1.41,1.41,0,0,1-.7-.6A7.32,7.32,0,0,1,23.9,16.4Zm7.3,19.9-1.2,6c-.4,2-1,3.9-1.2,5.9a25,25,0,0,0,.2,4.7c.3,4.1.6,8.3.9,12.4.4,5.4.8,10.8,1.2,16.3a4.3,4.3,0,0,1-2.2,4.5,3.77,3.77,0,0,1-5-1.9,6.47,6.47,0,0,1-.4-2C23,75.6,22.5,69,22,62.3c-.2-2.2-.3-4.4-.5-6.6a.9.9,0,0,0-.7-1c-.6-.1-1.2-.3-1.9-.4a.68.68,0,0,0-.9.6c-.4,1.7-.7,3.5-1,5.2-.4,2.1-.9,4.2-1.3,6.4-.4,1.9-.8,3.8-1.2,5.8l-1.2,6c-.3,1.3-.5,2.5-.8,3.8a4.61,4.61,0,0,1-2.1,3.5,3.76,3.76,0,0,1-5.2-1.8A4.41,4.41,0,0,1,5,80.6c.5-2,.8-4.1,1.2-6.1l1.2-5.7c.4-2,.8-4.1,1.3-6.1s.9-4.1,1.3-6.2c.4-1.9.8-3.9,1.2-5.8.4-2.1.8-4.1,1.3-6.2l1.2-5.7a16,16,0,0,1,.5-2.1v-1l-.5.5a46.3,46.3,0,0,0-3.9,7.3c-.9,2.2-1.6,4.5-2.5,6.7a2.38,2.38,0,0,1-1.9,1.7,2.29,2.29,0,0,1-2.4-1c-.1-.2-.3-.3-.5-.5a4.88,4.88,0,0,1-.3-2.1c.1-.2.4-.3.4-.5,1-2.5,1.9-5,2.9-7.5a34.55,34.55,0,0,1,5-8.5A16.91,16.91,0,0,1,16,27a4.13,4.13,0,0,1,3.1-.4c3.3.9,6.7,1.5,10,2.3a36.11,36.11,0,0,1,4.6,1.7,16.67,16.67,0,0,0,2,.8c.4.2.6-.1.5-.5-.3-1-.6-1.9-.9-2.9a2.65,2.65,0,0,0-.5-.6,1.49,1.49,0,0,0-.3.7c-.1.2-.1.4-.2.6-.4,1.1-.8,1.2-1.7.5-.5-.4-.1-.7.1-1.1a17.39,17.39,0,0,0,1.4-2.7,11,11,0,0,0,.4-3.1,11.43,11.43,0,0,1,.7-3.2,1,1,0,0,1,1.2-.7.93.93,0,0,1,.6,1.2c-.2.7-.4,1.5-.6,2.2-.2.5-.1.7.5.7,1.7.1,2.2.6,2.7,2.3.9,2.9,1.8,5.8,2.7,8.6a14.13,14.13,0,0,1,.6,2.2,2.66,2.66,0,0,1-.8,2.7,2.26,2.26,0,0,1-2.6.3c-2.3-1.1-4.6-2-6.9-3.1C31.6,35.1,31.4,35.2,31.2,36.3ZM49.8,53c-2.8-.1-5.5-.1-8.3-.1H33.3c-.8,0-1-.2-1-.8s.3-.8,1-.8h16a1.27,1.27,0,0,1,.6.1,1.21,1.21,0,0,1,.7,1.2C50.5,53.1,50.1,53,49.8,53Zm32.9-7.5c-.3-1.3-.5-2.7-.8-4a2.61,2.61,0,0,0-.3-.8,2.82,2.82,0,0,0-.4,2c.3,3.1.7,6.3,1,9.4l.6,6.3a1.66,1.66,0,0,1-1.2,2,1.74,1.74,0,0,1-2.2-1c-.5-1.2-1-2.5-1.5-3.7-.7-1.8-1.4-3.7-2.1-5.5-.1-.2-.5-.6-.7-.5-1.3.4-2.5.9-3.8,1.3l-.2.2c.3,0,.5.1.7.1a22.55,22.55,0,0,1,2.6,0,1.23,1.23,0,0,1,1,.5c.6.9.4,1.2-.6,1.2H67.3c-.9,0-.9,0-1-.9,0-.2-.3-.3-.4-.5-.2.1-.5.3-.5.5a21.05,21.05,0,0,0-.2,2.5c-.1,1.2-.1,2.5-.2,3.8a1.85,1.85,0,0,1-2.6,1.8,2.17,2.17,0,0,1-1-1.1c-.7-1.9-1.4-3.9-2.1-5.8l-.6-1.2h-.2c0,.2-.1.4-.1.6-.3,1.8-.5,3.7-.7,5.5a2.52,2.52,0,0,1-1.1,1.9,1.87,1.87,0,0,1-2.7-1.2L50.6,48.1c-.5-1.7-1.1-3.5-.6-5.4,0-.4-.1-.6-.5-.6-1.2-.1-1.7-.8-1.4-2a5.87,5.87,0,0,1,1.6-3,6.7,6.7,0,0,0,1.6-2.7,9.24,9.24,0,0,1,3.9-4.8,10.39,10.39,0,0,1,5.2-1.1,21.6,21.6,0,0,1,7.9,1.4,2.44,2.44,0,0,0,1.2,0c1.6-.5,3.2-1.1,4.8-1.7a3.64,3.64,0,0,1,4.1.6C80,30.4,82,30.5,84,30.7c1.4.1,2.8.2,4.2.2a1.74,1.74,0,0,0,1.1-.6,2,2,0,0,1,2.8.1.94.94,0,0,1,0,1.5c-.5.4-.5.7,0,1.1s.8.8,1.2,1.1a2.33,2.33,0,0,1,.8,2.7c-.1.3-.1.5-.2.8a1.28,1.28,0,0,0,.5,1.5c.6.5,1.3,1,2,1.5,1,.9,1.1,1.5.5,2.5l-.2.2c-.8.8-.9.8-1.2-.3-.1-.7-.5-.9-1.1-.7s-.8.2-1.1-.5c-.1-.2-.4-.5-.6-.5a.86.86,0,0,0-1,.5,1.49,1.49,0,0,0,.6.1c.4,0,.6.2.7.7.1.7.3.8.9.5.4-.3.8-.4,1.1.1a1.09,1.09,0,0,1-.3,1.6c-1,.6-1.9.2-2.8-.2l-2.7-1.2a3.41,3.41,0,0,0-3.6.6c-.7.5-1.3,1.1-2,1.7C83.1,46.2,82.8,46.2,82.7,45.5Z"/><path class="cls-1" d="M91.4,37.4a.86.86,0,0,1-.8-.8.79.79,0,0,1,.8-.8.86.86,0,0,1,.8.8A.79.79,0,0,1,91.4,37.4Z"/></g></g></svg>
