<svg xmlns="http://www.w3.org/2000/svg" viewBox="0 0 36.31 34.67"><defs><style>.cls-1{fill:#1a2026;}</style></defs><title>HWC</title><g id="Layer_2" data-name="Layer 2"><g id="Layer_1-2" data-name="Layer 1"><path class="cls-1" d="M20,19.41a17.61,17.61,0,0,1-2.23.18s-1.48-.22-1.87.05a4,4,0,0,0-1.32,1.41,4.2,4.2,0,0,0-.82,1.33,18.74,18.74,0,0,0-1,2.37l-.18.54a5.29,5.29,0,0,1-1.25.16s0,.18.73.37a2.07,2.07,0,0,1-.69,0,2.13,2.13,0,0,0,1,.32s-.13,2.66,1.94,3.51c0,0,1.94.34,1.73-1.49,0,0-.29-1-1-.52,0,0,.27.21,0,.3,0,0,.46.57,0,.68,0,0-.85.37-1.07-1.28a3,3,0,0,1,.61-2.18l.37,0,.29.23a.42.42,0,0,0,.39-.27l.41-.21s1,0,1.14-.32c0,0-.09.82.27,1.1,0,0,1.21-.23,1.37-.46a15.82,15.82,0,0,1-.41,2.14L18,29.19a9.21,9.21,0,0,1-.5,1.64,6,6,0,0,0-.3,1.69s-.21.91-.55,1.12c0,0-.75.38-.34.7,0,0,2.6.53,2.32-.2,0,0-.36-.71-.27-1a17.34,17.34,0,0,1,1.16-2.39,14.07,14.07,0,0,0,1.51-2s.8,1.91.89,2.16a8.34,8.34,0,0,0,.61,1.85s.32.75-.07,1c0,0-.86.57-.54.84,0,0,2.48.41,2.5-.16a1.08,1.08,0,0,0-.27-.66A1.87,1.87,0,0,1,24,32.63a16.15,16.15,0,0,0-.18-1.73s-.25-1.62-.27-2.44c0,0,.11-.64.23-.68a5.39,5.39,0,0,0,2.32.7s1.12.12,1.1.25a4.7,4.7,0,0,0,.68.67,4.16,4.16,0,0,1,.5,1.29s.16,2-.25,2.35c0,0-.93.69-.71,1.23,0,0,2.28.37,2.62-.11a7.37,7.37,0,0,0-.18-1.94s-.2-2.28.21-2.66a5.84,5.84,0,0,1,1.14,1.34,16.32,16.32,0,0,1,.77,2.42s-.32.79.09,1c0,0,1.67.18,1.55-.75a3.13,3.13,0,0,0-.38-1A9.4,9.4,0,0,1,32.31,30l-.05-1.18a8.27,8.27,0,0,1,.25,1.28s.18,1.57.75,2a13.82,13.82,0,0,0-.36-1.83,13.54,13.54,0,0,1-.41-2.37,15.52,15.52,0,0,1-.34-2.75,4.41,4.41,0,0,0-.91-2.08A12,12,0,0,0,29,20.67a5.75,5.75,0,0,0-3.89-.76s-2.85.09-3.31-.38A1.54,1.54,0,0,0,20,19.41Z"/><g id="man"><path id="body" class="cls-1" d="M6.32,24.25v-.18a1.53,1.53,0,0,0-1-1.58,3.58,3.58,0,0,0-.4,0H1.35a3.43,3.43,0,0,0-.39,0A1.52,1.52,0,0,0,0,24.07v.18a.19.19,0,0,0,0,.08v3.49a.54.54,0,0,0,.55.53.54.54,0,0,0,.55-.53V24.33h.42v3.76h0v5.56a.65.65,0,0,0,.67.64h0a.65.65,0,0,0,.68-.64V28.08h.59v5.56a.65.65,0,0,0,.67.64h0a.65.65,0,0,0,.67-.64V28.08h0V24.32h.41v3.49a.56.56,0,0,0,1.11,0V24.33S6.32,24.27,6.32,24.25Z"/><path id="head" class="cls-1" d="M3.16,22a1.65,1.65,0,0,1,0-3.29,1.65,1.65,0,1,1,0,3.29Z"/></g><path class="cls-1" d="M12.41,16.56l2.91.12L12.78,18.5,14,20.33H11.7l-.62,1.72-2-1.33-2.47.54,1.24-1.87L5.2,18.21l2.73-.63L6.37,15l3.18,1.1.74-2.63,1.06,2.72L13,14.81l-.55,1.75m.52.94-1.25-.38.08-.56-.62.42-.6-1-.73.82L8,16.38l.75,1.5-1.13.55,1,.72-.46,1,1.29-.42,1.29,1.13.71-1.19,1-.15-.56-1.11,1.08-.93"/><path class="cls-1" d="M35.38,11.09,34.22,9.93l.57-.56a.3.3,0,0,1,.43,0l.72.72a.3.3,0,0,1,0,.43Zm-1.48-.83,1.15,1.15-3.4,3.41H30.49V13.66ZM26.23,7.64l6.6-.09v-.9l-6.6.09Zm0-3.65h3.61v-.9H26.22Zm0,7.2h3.61v-.9H26.22ZM25.11,14V.81H32.4V4.36a.42.42,0,0,0,.4.41h2.7V9h.81V4.36a.4.4,0,0,0-.09-.24l-3-4A.38.38,0,0,0,32.88,0H24.71a.42.42,0,0,0-.41.4v14a.37.37,0,0,0,.11.3.6.6,0,0,0,.3.11h5V14Zm8.1-12.58,1.86,2.5H33.21Z"/></g></g></svg>