<svg xmlns="http://www.w3.org/2000/svg" width="30.8" height="30.8" viewBox="0 0 30.8 30.8">
  <title>Illegal Transportation</title>
  <g id="Layer_2" data-name="Layer 2">
    <g id="Layer_1-2" data-name="Layer 1">
      <g>
        <path d="M23.9,18.7v2.1a1.1,1.1,0,1,1-2.2,0V18.7a1.1,1.1,0,1,1,2.2,0Zm2.5-6.6a.6.6,0,0,1-.5.6.7.7,0,0,1-.5-.4h-.7l-.6.2-.3.4h1.3l.3.3a.4.4,0,0,1-.4.4H23.1V14h0c.2,0,.4.1.4.3l.4.3a1.4,1.4,0,0,1,.5,1.1v3.6l-.2.3v-.9a1.4,1.4,0,0,0-2.8,0v.9l-.2-.3V15.7a1.7,1.7,0,0,1,.9-1.4c0-.2.2-.3.4-.3h0v-.5H20.6c-.2,0-.4-.2-.3-.4l.2-.3h1.2l-.3-.4-.6-.2h-.6a.7.7,0,0,1-.5.4.6.6,0,0,1-.5-.6.5.5,0,0,1,.5-.5.7.7,0,0,1,.5.4h.6a.9.9,0,0,1,.8.4l.5.5h.4l.3-.2.3.2h.4l.4-.5a.9.9,0,0,1,.8-.4h.7a.7.7,0,0,1,.5-.4A.5.5,0,0,1,26.4,12.1Zm-2.9,3.4a.7.7,0,1,0-.7.7A.7.7,0,0,0,23.5,15.5ZM5.4,21.6H6.9V19.5H5.3v2.1ZM6.7,10.9,5.3,14.6H5.1a.7.7,0,0,0-.7.7v3.1a.7.7,0,0,0,.7.7H17a.7.7,0,0,0,.7-.7V15.3a.7.7,0,0,0-.7-.7h-.2l-1.4-3.7Zm8.3.6,1.1,3H5.9l1.2-3ZM7.1,16.6a.9.9,0,0,1-.9.9.9.9,0,0,1-1-.9.9.9,0,0,1,1-1,.9.9,0,0,1,.9,1Zm9.8,0a1,1,0,0,1-1,.9.9.9,0,0,1-.9-.9.9.9,0,0,1,.9-1,1,1,0,0,1,1,1Zm.1,5V19.5H15.4v2.1H17Z" fill="#1a2026"/>
        <path d="M15.4,0A15.4,15.4,0,1,0,30.8,15.4,15.4,15.4,0,0,0,15.4,0Zm0,28.2A12.8,12.8,0,0,1,5.5,7.3l18,18A12.7,12.7,0,0,1,15.4,28.2Zm9.9-4.7-18-18a12.8,12.8,0,0,1,18,18Z" fill="#1a2026"/>
      </g>
    </g>
  </g>
</svg>
