<svg xmlns="http://www.w3.org/2000/svg" viewBox="0 0 29.24 15.67"><defs><style>.cls-1,.cls-2{fill:#1a2026;}.cls-2{fill-rule:evenodd;}</style></defs><title>Immobility Alert</title><g id="Layer_2" data-name="Layer 2"><g id="Layer_1-2" data-name="Layer 1"><path class="cls-1" d="M8.74,13l4.35-.61a1.21,1.21,0,0,1,.2-.26,1.69,1.69,0,0,1,1.25-.54,1.71,1.71,0,0,1,1.72,1.66,1.7,1.7,0,0,1-.17.8h9a10.28,10.28,0,0,0-1.13-4.14l-1.25.72-.53-.91L23.41,9A10.25,10.25,0,0,0,20.3,5.84l-.72,1.25-.91-.52.73-1.26a10.53,10.53,0,0,0-4.25-1.14V5.62H14.09V4.17A10.53,10.53,0,0,0,9.84,5.31l.73,1.26-.91.52L8.93,5.84A10.48,10.48,0,0,0,5.82,9l1.26.72-.53.91L5.3,9.86A10.28,10.28,0,0,0,4.17,14H9.6l-.83-.07Z"/><path class="cls-1" d="M13.73,14.77l-.1,0Z"/><path class="cls-1" d="M14.38,15l-.14,0Z"/><path class="cls-1" d="M14.05,14.9l-.13,0Z"/><path class="cls-1" d="M14.7,11.55l.14,0Z"/><path class="cls-1" d="M15.35,11.75l.1.05Z"/><path class="cls-1" d="M13.29,12.08a1.49,1.49,0,0,1,.27-.23A1.49,1.49,0,0,0,13.29,12.08Z"/><path class="cls-1" d="M15,11.61l.13,0Z"/><path class="cls-1" d="M13.66,11.79l.2-.11Z"/><path class="cls-1" d="M14.32,11.56l.2,0Z"/><path class="cls-1" d="M14,11.64a1.06,1.06,0,0,1,.19-.06A1.06,1.06,0,0,0,14,11.64Z"/><path class="cls-1" d="M16.19,11.5a2.4,2.4,0,0,0-1.65-.65,2.45,2.45,0,0,0-1.76.76l-.07.09-4.06.57L8,12.36l0,.61,0,1,0,.61.61,0,4.09.31.08.09a2.42,2.42,0,0,0,1.65.65h.08a2.41,2.41,0,0,0,1.57-4.17Zm-.39,2.94a1.72,1.72,0,0,1-1.2.54h-.06a1.7,1.7,0,0,1-1.18-.47,1.21,1.21,0,0,1-.21-.24l-4.38-.34,0-1,4.35-.61a1.21,1.21,0,0,1,.2-.26,1.69,1.69,0,0,1,1.25-.54,1.73,1.73,0,0,1,1.26,2.9Z"/><path class="cls-2" d="M14.62,0A14.63,14.63,0,0,0,0,14H3.17a11.47,11.47,0,0,1,22.9,0h3.17A14.64,14.64,0,0,0,14.62,0Z"/></g></g></svg>