<svg xmlns="http://www.w3.org/2000/svg" width="27.7" height="25" viewBox="0 0 27.7 25">
  <title>Impala Culling</title>
  <g id="Layer_2" data-name="Layer 2">
    <g id="Layer_1-2" data-name="Layer 1">
      <g>
        <g>
          <path d="M3.9,9.1a3.8,3.8,0,0,0,0,1.5,13.4,13.4,0,0,0,.8,2.6c0,.1.1.3.1.4l1.8-1.8Z" fill="#1a2026"/>
          <path d="M4,21.4a1.3,1.3,0,0,0-.1.9c.1.1,0,.3,0,.4H3.8a.2.2,0,0,0-.2.2,1.9,1.9,0,0,0,.7,1.2.1.1,0,0,0,.1.1c.1,0,.2,0,.2-.1s.4-.4.5-.8h0a1.1,1.1,0,0,0,.3.7h0v.4a.2.2,0,0,0,.2.2H6a.9.9,0,0,0,.8-.4c.1,0,.1-.1.1-.2s-.2-.5-.3-.8-.1-.2-.1-.4,0-.3-.1-.4-.1-.4-.1-.6a1.3,1.3,0,0,0-.1-.6c0-.5-.2-1.5-.2-2.3l-2,2Z" fill="#1a2026"/>
          <path d="M11.2,7.3A7.8,7.8,0,0,0,8.8,7H8.5L10,8.4Z" fill="#1a2026"/>
          <path d="M27.4,9.6l-.9-1.1a5.4,5.4,0,0,1-.9-1.2V7.1c-.1-.3-.1-.6-.3-.8s-.3-1.5-.8-1.7l-.7-.4-.9-.5a4.3,4.3,0,0,1-1.1-1.2,1.6,1.6,0,0,1-.3-.6,5.3,5.3,0,0,0-1-1.8h-.4c-.1,0-.1.2-.1.3a2.9,2.9,0,0,1,.5,1.3,6.7,6.7,0,0,0,1,2.4,7.6,7.6,0,0,0,1.3,1l.5.4-.6.4a2.5,2.5,0,0,0-.4.7c-.2.1-1.1.9-1.8,1.3h-.2a3.5,3.5,0,0,1-2.1.6h0A2.4,2.4,0,0,1,17,8.3h0l-3.6,3.5,4.9,4.9a7.1,7.1,0,0,1-.8-1.9c.3-.2.8-.5.8-.9a2.2,2.2,0,0,1,1-.8l1.9-1.2h0l1.1-.9h.1a1.4,1.4,0,0,0,1-.6h0l1.8.6.5.2h.2l.6.2h.2l.4-.2.5-.3A1,1,0,0,0,27.4,9.6Z" fill="#1a2026"/>
          <path d="M19.3,22.7v.2c.2.4.3.8.6.9a.3.3,0,0,1,.1.2v.6l.2.3H21a1,1,0,0,0,.7-.2c.1,0,.2-.1.1-.3a2.9,2.9,0,0,0-.4-1.1c-.4-.3-.5-.6-.6-.6a2,2,0,0,0-.3-.8,3,3,0,0,1-.4-.8h0l-1,.9Z" fill="#1a2026"/>
          <path d="M13.7,19c0,.2-.1,1-.2,1.6v.6a17.3,17.3,0,0,1-.4,2h0a1.3,1.3,0,0,0,.5.9h0c.1,0,.2.2.2.4a.2.2,0,0,0,.2.2h.4l.6-.2c.1,0,.2-.1.1-.3a2.3,2.3,0,0,0-.4-.9h-.1c0-.1,0-.3.1-1.4a20.6,20.6,0,0,1,.2-2.1l-1.2-1.2Z" fill="#1a2026"/>
        </g>
        <polyline points="18 1.8 20 3.8 12 11.8 12 11.8 12 11.8 12 11.8 20 19.8 18 21.8 10 13.8 10 13.8 2 21.8 0 19.8 8 11.8 8 11.9 8 11.8 8 11.8 0 3.9 2 1.9 10 9.8 10 9.8 18 1.8" fill="#1a2026"/>
      </g>
    </g>
  </g>
</svg>
