<svg xmlns="http://www.w3.org/2000/svg" viewBox="0 0 31.4 32"><path d="M23.3,20.4a8.2,8.2,0,0,1-3.1.4,12.3,12.3,0,0,0-2.1-.4l-1.8.3a5.9,5.9,0,0,1-.2,1.3,11.2,11.2,0,0,0-.5,2.2c.1.6-.2.9-.2,1.5s-.2,2.4-.1,2.9.5,1.3.1,1.9-.2,1.1-.8,1.2a1.2,1.2,0,0,1-.8-.2,4.1,4.1,0,0,1,.4-1.1,3.4,3.4,0,0,0,.2-2.2c0-.9-.1-2.2-.1-2.2a3.5,3.5,0,0,0-.2,1.2c-.1.4-.6,1.9-.4,2.1s-.2,1-.3,1,0,1-.3,1.1h-.8a.5.5,0,0,1,.1-.5c0-.3.2-.5.4-.8a15,15,0,0,0,.6-3.3c.2-1.4.6-2.6.6-2.8s-.2-1.5-.2-2-.2-.8-.5-1a5.3,5.3,0,0,0-1.7-1.5,18.1,18.1,0,0,1-2.5-1.6c-.7-.5-.5-.7-1.2-1.1s-1.2-2-1.5-2.2-.6,0-1-.4-.2-.9-.8-.7a23.1,23.1,0,0,1-3.7.3c-.6,0-.5-.3-.5-.3s-.7-.5-.2-1S1.6,11.4,1.9,11a14.2,14.2,0,0,0,.8-1.8,7.5,7.5,0,0,0,.4-1.6,8.5,8.5,0,0,1,2-3.9A16.7,16.7,0,0,0,7.4,1.3C7.7.8,7.5,0,7.6,0s.3,1.1.1,1.5S6.5,3.1,7,2.7A2.9,2.9,0,0,0,8.3,1.5c.3-.4.2-1.2.3-1.2S9,1.5,7.8,2.8A11.8,11.8,0,0,0,5.7,5.4,6.7,6.7,0,0,0,4.5,8.3c0,.1,0,.2.1.1s.4.3.4.3h.9c.2.1.3.1.4-.2s.5-1.2.8-1.1.4.5.3,1a2.2,2.2,0,0,1-.5,1c-.2.1.2.2.6.9A7.2,7.2,0,0,0,9.2,12c.7.5,2.2,1.6,3.2,1.2a3.1,3.1,0,0,1,2.2-.4,16.2,16.2,0,0,0,3.8-.2,25.2,25.2,0,0,1,6.9-.3,8.5,8.5,0,0,1,3.6,1.2c.7.3.2.7.7,1.3A4.3,4.3,0,0,1,30,17c0,.7.4,1.5.1,1.2s-.6-.4-.6-.6.1.2-.1.8a6,6,0,0,0-.5,1.4,5.1,5.1,0,0,0,.8,2.3c.6.9.9.4,1,1.7s.3,3.2.4,4.7a6.6,6.6,0,0,0,.3,2.3c0,.4-.1.8-.1,1s-.5.2-1,.2,0-.2.1-1.3a8.1,8.1,0,0,0,0-2.2,9.9,9.9,0,0,0-.7-3.5c-.5-1.2-1.1-2-1.2-1.9s.1.3-1,2.5A44.3,44.3,0,0,0,25.4,30c-.4.8-.8.9-.8,1.2a3.2,3.2,0,0,0-.1.8h-.9a1,1,0,0,1,.1-.7,2.5,2.5,0,0,1,.4-.9,19.5,19.5,0,0,0,1-2.2A11.9,11.9,0,0,0,26.4,25c.1-.8.2-1-.5-1.7a11.7,11.7,0,0,0-1.6-1.5c-.7-.8-1.1-1-1-1.4Z"/></svg>
