<svg xmlns="http://www.w3.org/2000/svg" viewBox="0 0 38 33.4"><path d="M37.8,10.8h-.3a12.5,12.5,0,0,0-4.7-.4A7.5,7.5,0,0,0,29,11.8a12.7,12.7,0,0,0-2.4,2.8,3.6,3.6,0,0,1-.7,1c-.3.4-.6.4-1,.1l-.7-.6a32.2,32.2,0,0,0-4.3-3.9A35.6,35.6,0,0,0,6.4,4.9C4.7,4.5,3,4.3,1.2,4H0c0,.1,0,.1.1.2L.7,5.5A11.3,11.3,0,0,0,3.2,7.9C5,9.2,6.9,10.4,8.7,11.5l.3.2a16,16,0,0,0-4.9.3h0l.2.3A11.1,11.1,0,0,0,7,15a18.3,18.3,0,0,0,5.9,2.6h.2a35.5,35.5,0,0,0-4.7.8c0,.1,0,.1.1.1a27.4,27.4,0,0,0,3.2,3.6,9,9,0,0,0,7.4,2.2h1.8c.5,0,.7.3.5.8l-.5.7a15.5,15.5,0,0,1-2.4,2.7,14.2,14.2,0,0,1-6,3.3l-2,.4h.2a16.9,16.9,0,0,0,7.7,1,13.5,13.5,0,0,0,4-.8,17.2,17.2,0,0,0,7.8-5.1,17.2,17.2,0,0,0,4.1-8.2c.3-1.4.6-2.9,1-4.3A5.9,5.9,0,0,1,37,11.8l.9-.6C38.1,11,38,10.9,37.8,10.8Zm-5.1,2.8a.9.9,0,0,1-.9-1,.9.9,0,0,1,.9-.9,1,1,0,0,1,1,1A1.1,1.1,0,0,1,32.7,13.6Z"/><path d="M16.2,5.8a6.4,6.4,0,0,0,2.2,2.7,37.4,37.4,0,0,1,6.8,5.7h.3l.2-.3a5.7,5.7,0,0,0-.1-1.3,16,16,0,0,0-4.3-8.1A22.9,22.9,0,0,0,15.9.8L14.3,0V.3A21.1,21.1,0,0,0,16.2,5.8Z"/></svg>
