<svg xmlns="http://www.w3.org/2000/svg" viewBox="0 0 40 40"><path d="M39.7,1.9A2.6,2.6,0,0,0,39,.8,3.4,3.4,0,0,0,37.8.2l-2-.2H32.9a1.6,1.6,0,0,0-1.1.3,1.2,1.2,0,0,0-.4,1.1v8.7a1.7,1.7,0,0,0,.3,1,1.4,1.4,0,0,0,.9.3,1.1,1.1,0,0,0,.8-.3,1.8,1.8,0,0,0,.3-1.1V6.9h2.1A4.6,4.6,0,0,0,38.9,6,3.3,3.3,0,0,0,40,3.4,3.7,3.7,0,0,0,39.7,1.9ZM37.4,4.4a1.6,1.6,0,0,1-.8.6H33.7V1.7h1.5a3.4,3.4,0,0,1,2.1.5,2.1,2.1,0,0,1,.4,1.2A1.5,1.5,0,0,1,37.4,4.4Z"/><path d="M19.8,14.4a4.7,4.7,0,0,0-4.1-2.9,4.8,4.8,0,0,0-4.1,2.9L.9,32.8a5,5,0,0,0-.4,5A4.8,4.8,0,0,0,5,40H26.4a4.9,4.9,0,0,0,4.5-2.1,4.9,4.9,0,0,0-.4-5.1Zm-3.9,21a2,2,0,1,1,2-2A2,2,0,0,1,15.9,35.4Zm1.5-6.7v.2A1.6,1.6,0,0,1,16,30.1a1.6,1.6,0,0,1-1.7-1.4l-.5-7.3a2.1,2.1,0,0,1,2.1-2.1,2,2,0,0,1,2,2.1Z"/></svg>
