<svg xmlns="http://www.w3.org/2000/svg" viewBox="0 0 46 36"><defs><style>.cls-1{fill:#1a2026;}</style></defs><title>Incident Collection</title><g id="Layer_2" data-name="Layer 2"><g id="Layer_1-2" data-name="Layer 1"><path class="cls-1" d="M42.25,2.5H3.75A1.25,1.25,0,0,0,2.5,3.75V5h1V3.75a.25.25,0,0,1,.25-.25h38.5a.25.25,0,0,1,.25.25v28.5a.25.25,0,0,1-.25.25H41v1h1.25a1.25,1.25,0,0,0,1.25-1.25V3.75A1.25,1.25,0,0,0,42.25,2.5Z"/><path class="cls-1" d="M44.75,0H6.25A1.25,1.25,0,0,0,5,1.25V2.5H6V1.25A.25.25,0,0,1,6.25,1h38.5a.25.25,0,0,1,.25.25v28.5a.25.25,0,0,1-.25.25H43.5v1h1.25A1.25,1.25,0,0,0,46,29.75V1.25A1.25,1.25,0,0,0,44.75,0Z"/><path class="cls-1" d="M39.75,6a.25.25,0,0,1,.25.25v28.5a.25.25,0,0,1-.25.25H1.25A.25.25,0,0,1,1,34.75V6.25A.25.25,0,0,1,1.25,6h38.5m0-1H1.25A1.25,1.25,0,0,0,0,6.25v28.5A1.25,1.25,0,0,0,1.25,36h38.5A1.25,1.25,0,0,0,41,34.75V6.25A1.25,1.25,0,0,0,39.75,5Z"/></g></g></svg>