<svg xmlns="http://www.w3.org/2000/svg" viewBox="0 0 32 24.23"><defs><style>.cls-1{fill:#1a2026;fill-rule:evenodd;}</style></defs><title>Injured Animal</title><g id="Layer_2" data-name="Layer 2"><g id="Layer_1-2" data-name="Layer 1"><path class="cls-1" d="M12.17,2.55H9.9V1.71A1.67,1.67,0,0,0,8.25,0h-3A1.64,1.64,0,0,0,3.58,1.71v.84H1.28A1.24,1.24,0,0,0,0,3.85v7.63a1.33,1.33,0,0,0,1.28,1.39H12.15a1.34,1.34,0,0,0,1.31-1.39V3.85A1.24,1.24,0,0,0,12.17,2.55Zm-7.6-.84a.63.63,0,0,1,.65-.64h3a.65.65,0,0,1,.66.64v.84H4.57ZM9.65,8.59h-2v2H5.79v-2h-2V6.76h2v-2H7.61v2h2Zm21.4,4.13a2.7,2.7,0,0,0,.89,0,2.66,2.66,0,0,1-1.36.42s.18,3.46-2.52,4.56c0,0-2.52.44-2.25-1.93,0,0,.38-1.27,1.3-.68,0,0-.36.27-.06.39,0,0-.59.74,0,.89,0,0,1.1.47,1.39-1.66a4,4,0,0,0-.8-2.85l-.47,0-.39.3a.54.54,0,0,1-.5-.36l-.53-.26s-1.28-.06-1.49-.42c0,0,.12,1.07-.35,1.42,0,0-1.57-.29-1.78-.59a22.46,22.46,0,0,0,.53,2.79l.69,2.4A11.5,11.5,0,0,0,24,19.24a7.92,7.92,0,0,1,.38,2.19s.27,1.19.71,1.46c0,0,1,.5.45.91,0,0-3.38.69-3-.26,0,0,.47-.92.35-1.34a21.83,21.83,0,0,0-1.51-3.11,17.73,17.73,0,0,1-2-2.64s-1,2.49-1.15,2.82a10.72,10.72,0,0,1-.8,2.4s-.42,1,.09,1.28c0,0,1.12.74.71,1.09,0,0-3.23.54-3.26-.21a1.37,1.37,0,0,1,.35-.85,2.38,2.38,0,0,0,.18-1.4,20.73,20.73,0,0,1,.24-2.25s.33-2.1.35-3.17c0,0-.14-.83-.29-.89a7.07,7.07,0,0,1-3,.92s-1.46.15-1.43.32a5.68,5.68,0,0,1-.89.86,5.61,5.61,0,0,0-.65,1.69s-.21,2.61.33,3.06c0,0,1.21.88.92,1.6,0,0-3,.47-3.41-.15a9.75,9.75,0,0,1,.24-2.52s.26-3-.27-3.47a7.37,7.37,0,0,0-1.48,1.75,20.82,20.82,0,0,0-1,3.14s.41,1-.12,1.33c0,0-2.16.24-2-1a4.22,4.22,0,0,1,.51-1.31A12,12,0,0,0,4.64,18.2l.06-1.54a12.43,12.43,0,0,0-.32,1.66s-.24,2.05-1,2.58a19.8,19.8,0,0,1,.47-2.37,17.88,17.88,0,0,0,.54-3.08s.15-.75.27-1.58h7.47a2.33,2.33,0,0,0,2.31-2.39V5.05c1,0,3.36,0,3.82-.51a2,2,0,0,1,2.43-.15,23.13,23.13,0,0,0,2.9.24s1.93-.3,2.43.06a5.17,5.17,0,0,1,1.72,1.84,5.41,5.41,0,0,1,1.07,1.72,24.84,24.84,0,0,1,1.3,3.08l.24.71a7,7,0,0,0,1.63.21S32,12.48,31.05,12.72Z"/></g></g></svg>