<svg xmlns="http://www.w3.org/2000/svg" viewBox="0 0 32 31.5"><path d="M32,5.9a5.6,5.6,0,0,0-1.4-4.1A2.4,2.4,0,0,0,28.7,1H22L19.4,1A6.8,6.8,0,0,0,17.2.8L16.1,1l-1.5.2h-3a1.6,1.6,0,0,0,0-.7A.5.5,0,0,0,11,0l-.7.7a.1.1,0,0,1-.1.1l-.4.3h0a.8.8,0,0,0-.5.6.5.5,0,0,0-.2.4H9l-.5.6L8,3.7c0,.1-.1.3-.2.3h0a.6.6,0,0,0-.3.8c.2.6,1.2.8,1.4.8l.3-.2h.4l.9-.2,1-.3h.2a4.6,4.6,0,0,1,1.2,1.4,8.1,8.1,0,0,0,2.8,2.7h0a3.1,3.1,0,0,1-.2.8,1.9,1.9,0,0,0-.2.7,3.4,3.4,0,0,0,0,1,.5.5,0,0,1,.1.3,3.2,3.2,0,0,1-.6,1.7V14a21.9,21.9,0,0,0-1.8-3.3l.3.7.3.8a3.6,3.6,0,0,1,.4.9,4.2,4.2,0,0,0,.4,1v.3a5.2,5.2,0,0,1,.6,1.3c.1.3.3.8.4,1.2a3.5,3.5,0,0,0,.1.6l.2.3a3.7,3.7,0,0,1,.5,1.1c0,.2.1.5.1.7s.1.6.3.8.1.3.2.5a.8.8,0,0,1,.2.5,4.2,4.2,0,0,0,.5,1.2,1.1,1.1,0,0,1,.3.8,5.9,5.9,0,0,0,.4.8c0-.2,0-.3.2-.4a.9.9,0,0,1,.7-.1.1.1,0,0,1,.1.1,4.3,4.3,0,0,0-.5-1.2.8.8,0,0,1-.2-.5.3.3,0,0,1-.1-.2,6.1,6.1,0,0,1-.5-1.2c0-.2-.2-.4-.4-.6l-.3-.5-.4-.9-.3-.6h0l-.4-1a2.4,2.4,0,0,1-.2-.8c-.1-.2-.1-.4-.2-.6v-.2a5.6,5.6,0,0,1-.5-.8h1.5v-.3a16.4,16.4,0,0,1,.3-2.5l.2-.3h.1l.2.4.2.3a2.7,2.7,0,0,1-.1,1.7.9.9,0,0,0-.1.5v.3h1.9v-.3l-.3-2.5a.4.4,0,0,1,.1-.3c0-.2.1-.3.1-.4a3.9,3.9,0,0,1,.2-1.9A16.6,16.6,0,0,0,23.9,9l2.2-.6a10.4,10.4,0,0,0,.3,1.2l.2.6c-.1.2,0,.5,0,.8a.4.4,0,0,1,.1.3,4.2,4.2,0,0,1-.2,1.4l-.4.8c-.2.3-.5.6-.5.9v.3h2.2v-.6a2,2,0,0,1,.1-.7l.3-1.1c.2-.7.4-1.5.5-2l.2-.3c.1.1.2.2.2.3a5.9,5.9,0,0,0,.4.8l.2.4a3.1,3.1,0,0,1,.2,1.3,2.9,2.9,0,0,1-.2.9,1.9,1.9,0,0,0-.2.7v.3h2.1v-.3a6.8,6.8,0,0,0-.1-1.2c-.1-.9-.3-2.1-.3-2.9s.1-.2.1-.4a.5.5,0,0,0,0-.6,5.2,5.2,0,0,1-.6-1.5A10.5,10.5,0,0,1,31,6c.1-.5.1-1.1.2-1.4V4.2a8.8,8.8,0,0,1,.2,1.7h0V8.4h.5A14.9,14.9,0,0,0,32,5.9ZM24.7,8.1s.4-2.7-2.8-4.1c0,0,2,.5,2.6,1.5S25.5,7,24.7,8.1Zm1,.1s.6-3.7-3.9-5.7c0,0,2.9.7,3.7,2S26.8,6.7,25.7,8.2Zm1.2-.3s.7-4.1-4.3-6.3c0,0,3.1.8,4,2.3C26.6,3.9,28.1,6.3,26.9,7.9Zm1.3-1.8s.4-2.7-2.8-4.1c0,0,2,.5,2.6,1.5S28.9,5,28.2,6.1Z"/><path d="M9.4,24.6c-.3-.3-.6-.1-.8,0s.2,2.5.6,3.1l.2.3a4.8,4.8,0,0,0,1.2,1.6l.5.4a19.3,19.3,0,0,1-1.2-4.2A2.2,2.2,0,0,0,9.4,24.6Z"/><path d="M8.5,24.3a.9.9,0,0,1,1,0,5.4,5.4,0,0,0-.6-1.1A6.1,6.1,0,0,0,8.4,22a4.5,4.5,0,0,1-.1-1.2v-.2l-.4-.8a4.1,4.1,0,0,1-.5-.9l-.3-.6a2,2,0,0,1-.4-.8c0-.1-.1-.3-.1-.4a3,3,0,0,0-.4-1,11.4,11.4,0,0,1-1.3-3.5l-.3-1c-.2-.7-.4-1.2-.6-1.8a14.2,14.2,0,0,0-.5-1.6c0,.1.1.3.1.4a25.1,25.1,0,0,1,.5,3.1,12.7,12.7,0,0,0,.4,1.4v.7c.1.3.1.7.2,1s.4,1.5.5,2.2a.5.5,0,0,0,.3.5.8.8,0,0,0,.2.4,1.7,1.7,0,0,1,.1.7v.5l.5.6c.1.1.2.2.2.3a4,4,0,0,1,.3,1.5v.6l.3.6c0,.1.1.2.2.3a3,3,0,0,1,.2,1A5.7,5.7,0,0,0,8,25.4,1.3,1.3,0,0,1,8.5,24.3Z"/><path d="M5.7,28a.7.7,0,0,0-1-.4c-.1,0-.1.1-.1.2s0,.3,0,.5h0a12.6,12.6,0,0,0,1.1,1.7,4.2,4.2,0,0,0,1.8,1.4,8,8,0,0,1-1.6-3.2Z"/><path d="M13.9,22.5l.7.2a.4.4,0,0,1-.1-.3,12.2,12.2,0,0,0-.7-1.7,10.6,10.6,0,0,1-.9-2.5,2.9,2.9,0,0,0-.6-1.1l-.4-.5c-.1-.2-.1-.5-.2-.7a.9.9,0,0,0-.1-.5l-.3-.4a1.6,1.6,0,0,1-.3-.6.3.3,0,0,1-.1-.2,1.6,1.6,0,0,0-.5-.9c-.3-.4-.5-.9-.8-1.4h0a3.6,3.6,0,0,1-.4-.9L8.6,9.6c-.4-.8-.7-1.1-1.1-1.8L7,7v.2a11.2,11.2,0,0,0,.5,1.3l.4.9.6,1.2c.1.3.1.6.2.8a4.4,4.4,0,0,0,.5,1.5l.3.9c.1.2.1.4.2.6l.2.4a2.4,2.4,0,0,1,.3.9,4.2,4.2,0,0,0,.3,1.3.1.1,0,0,1,.1.1,3.5,3.5,0,0,1,.3,1.2.7.7,0,0,0,.1.5,2.1,2.1,0,0,0,.3.7A3.6,3.6,0,0,1,12,21a4.3,4.3,0,0,0,.8,2.1.4.4,0,0,1,.1-.3A1,1,0,0,1,13.9,22.5Z"/><path d="M4.6,27.3a.7.7,0,0,1,.9.1v-.6c0-.2-.1-.3-.1-.4l-.3-.5c-.1,0-.1-.1-.2-.2h0a2.1,2.1,0,0,1-.6-1v-.7l-.5-.6c-.3-.4-.3-.5-.3-.7s-.1-.2-.1-.3-.2-.6-.4-.7-.1-.2-.2-.4a.7.7,0,0,0-.1-.5,1.1,1.1,0,0,0-.1-.6.5.5,0,0,0-.2-.4c0-.2-.1-.3-.2-.5s-.2-1.1-.3-1.4a.3.3,0,0,0-.1-.2c0-.1,0-.1-.1-.2l-.3-.5A23,23,0,0,1,0,12.4c0,.2.1.5.1.7v.5a9.1,9.1,0,0,0,.3,1.6v.5a.6.6,0,0,1,.1.4,1.3,1.3,0,0,0,.1.6.5.5,0,0,0,.2.4l.2.4a11.5,11.5,0,0,1,.1,1.8,3.5,3.5,0,0,0,.6,1.4,1.7,1.7,0,0,1,.3,1V22l.3.6a3,3,0,0,1,.6,1.1v.2l.4.9a1.4,1.4,0,0,1,.2.6.7.7,0,0,0,.1.5,1.7,1.7,0,0,1,.5,1.3.9.9,0,0,0,.3.6h0a.5.5,0,0,1,.2-.4Z"/><path d="M19,24h-.5a.2.2,0,0,0-.2.2,4.3,4.3,0,0,0,.1.5,2,2,0,0,1,.1.7,6.3,6.3,0,0,1-.4,3.1,5.8,5.8,0,0,0,1.1-2.4C19.3,25.7,19.7,24.3,19,24Z"/><path d="M13.9,22.8a1,1,0,0,0-.9.2c0,.1-.1.2,0,.3a1.9,1.9,0,0,0,.2.7l.3.7a6.8,6.8,0,0,1,.3,1.9,15,15,0,0,1-.2,2.2l.6-1a.4.4,0,0,0,.1-.3,5.8,5.8,0,0,0,.6-2.1c.2-1.1.1-1.8-.3-2.2A.8.8,0,0,0,13.9,22.8Z"/></svg>
