<svg xmlns="http://www.w3.org/2000/svg" viewBox="0 0 32 32"><path d="M28.8,15.9a3,3,0,0,0-2.4-.9H18L14.8,15l-2.6-.3-1.4.3-1.9.3-2.1-.2H5.2a2,2,0,0,0-.1-.9.6.6,0,0,0-.7-.2,3.4,3.4,0,0,0-.9.8v.2l-.6.3h0a1.4,1.4,0,0,0-.7.8l-.2.4H1.9c-.2.3-.4.7-.6.8L.7,18.3l-.2.4a.1.1,0,0,1-.1.1.8.8,0,0,0-.3,1c.2.8,1.4,1,1.7,1s.3-.1.3-.2H3.8L5,20h.2a3.6,3.6,0,0,1,1.5,1.7,9.3,9.3,0,0,0,3.5,3.3v.2c.1.3-.1.7-.2,1a3.1,3.1,0,0,0-.2.8,5.6,5.6,0,0,0,0,1.3,1,1,0,0,1,.1.4,3.6,3.6,0,0,1-.7,2.1,1.2,1.2,0,0,0-.2.8V32h2.4v-.3a10.6,10.6,0,0,1,.4-3.1.8.8,0,0,1,.2-.4c.1-.1.1-.1.1-.2s.2.3.2.5.2.4.3.4.1,1.8-.1,2.1a1.4,1.4,0,0,0-.2.7V32h2.4v-.3s-.2-1-.5-3.2c0-.1.1-.3.1-.4a.6.6,0,0,0,.1-.4,5.7,5.7,0,0,1,.4-2.4,25.7,25.7,0,0,0,5.8-.3l2.7-.8a15.5,15.5,0,0,0,.4,1.5l.2.7a3.4,3.4,0,0,0,.1,1c0,.2.1.3.1.4a7.5,7.5,0,0,1-.3,1.7,3.1,3.1,0,0,1-.5,1,2.3,2.3,0,0,0-.6,1.2V32h2.7v-.7a1.6,1.6,0,0,1,.2-.9,10.6,10.6,0,0,0,.3-1.4c.2-.8.5-1.8.7-2.4a.5.5,0,0,1,.2-.4.8.8,0,0,1,.2.4,4.1,4.1,0,0,0,.5.9,1.7,1.7,0,0,1,.2.5,4.5,4.5,0,0,1,.3,1.6,2.3,2.3,0,0,1-.2,1.2,1.6,1.6,0,0,0-.3.9V32h2.7v-.3c0-.2-.1-.8-.2-1.5s-.3-2.6-.3-3.6a4.3,4.3,0,0,1,.1-.5.8.8,0,0,0,0-.8,4.3,4.3,0,0,1-.8-1.8c0-.3.2-1.3.3-2.3a6.7,6.7,0,0,0,.3-1.7.9.9,0,0,0,.1-.5,12.5,12.5,0,0,1,.2,2.1h0v3l.3.2h.3a9.2,9.2,0,0,0,.1-3.1A7.6,7.6,0,0,0,28.8,15.9Z"/><path d="M31.8,5.8,25.6.5a1.6,1.6,0,0,0-2.4,0L16.9,5.8a.8.8,0,0,0,0,1.1.9.9,0,0,0,1.2,0l.2-.2v5.4a.8.8,0,0,0,.7.8H29.7a.9.9,0,0,0,.8-.8V6.8h.1l.6.3.6-.3A.8.8,0,0,0,31.8,5.8ZM27.9,7.2V8.5c0,.2-.1.4-.3.4h-2v1.9c0,.2-.1.4-.3.4H23.4c-.2,0-.3-.2-.3-.4V8.9H21.2a.4.4,0,0,1-.4-.4V6.7a.4.4,0,0,1,.4-.4h1.9V4.4a.3.3,0,0,1,.3-.3h1.9a.3.3,0,0,1,.3.3V6.3h2c.2,0,.3.2.3.4Z"/></svg>
