<svg xmlns="http://www.w3.org/2000/svg" viewBox="0 0 36 28.97"><defs><style>.cls-1{fill:#1a2026;}</style></defs><g id="Layer_2" data-name="Layer 2"><g id="Layer_1-2" data-name="Layer 1"><path class="cls-1" d="M35.53,9.19A3.85,3.85,0,0,0,34,8.89a5,5,0,0,0-2.75.84c1-2.21,2.14-3.72,3.17-4.21l-.33-.71A6.2,6.2,0,0,0,31.86,7a4.7,4.7,0,0,0-2-3.48l-.43-.27-.15.49A4.73,4.73,0,0,0,31,8.47a24.57,24.57,0,0,0-1.45,3.42c-.69-.23-1.37-.58-1.37-.93,0-1-1.61-2.58-3.82-2.58a5.49,5.49,0,0,0-4.82,2.84A6.06,6.06,0,0,0,18,7.94c-1-1.25-2-2.44-1.3-7.17l.1-.77-.68.37a10,10,0,0,0-4.26,8.15l-.44-.22C8.5,6.87,5.73,5.52,3.66,1.84l-.59-1L2.93,2a25,25,0,0,0,.82,9.77A11.76,11.76,0,0,0,8.38,18.4,15.48,15.48,0,0,0,.16,21.9L.06,22l0,.13c-.31,1.72,1.21,6.06,3,6.76l.24.09.18-.18c.86-.9,3.37-3.21,4.77-3.42a22,22,0,0,0,6.51,1.16c6.34,0,8.14-4.41,8.66-7,.62-3.34,4-5.35,5.76-6.2a19.79,19.79,0,0,0-.81,4.64l.78,0a13.05,13.05,0,0,1,.18-1.73,3.68,3.68,0,0,0,1.4.25,4.68,4.68,0,0,0,3.54-1.52l.32-.4-.47-.2a3.85,3.85,0,0,0-1.54-.3,4.87,4.87,0,0,0-3.05,1.07c.16-.73.36-1.48.59-2.23l.19-.07,1.39-.47-1.32-.26c.12-.35.24-.69.37-1a3.9,3.9,0,0,0,1.45.27A4.68,4.68,0,0,0,35.67,9.8L36,9.4Z"/></g></g></svg>