<svg xmlns="http://www.w3.org/2000/svg" viewBox="0 0 30 21.25"><defs><style>.cls-1{fill:#1a2026;}</style></defs><title>Invasive Species</title><g id="Layer_2" data-name="Layer 2"><g id="Layer_1-2" data-name="Layer 1"><path class="cls-1" d="M18.87,12.11c3.23-.3,1.81,1.58,5.31,0S30,11.62,30,11.62,25.93,8,22.62,9s-2.29,2.54-2.29,2.54A4.8,4.8,0,0,0,17,12a3.1,3.1,0,0,0-.92.92A35.82,35.82,0,0,0,16.2,7c4.55-1.49-3-7-3-7a46.53,46.53,0,0,0-.34,5.71C13,8,15.75,7.12,15.75,7.12a21.8,21.8,0,0,1-.36,5.43c-.24-1.09-.74-2.53-1.78-3,0,0,.34-2.43-2.26-1.69a5.86,5.86,0,0,0-3.83,2.7c-.65.77-2.2,3.29-2.2,3.29s5-4.94,7.8-3.81c1,.3,1.69,1.32,1.67,4.54a20.89,20.89,0,0,1-.31,4.15H12.65l1.5-.89L0,17.1l10,1.28-4.15.89L16,19.72l-1.82,1.53,6.93-.64,5.5.64-5.24-1.53-3.53.4,2.31-1.43H15.56C15.49,17.14,15.54,12.43,18.87,12.11Zm2.94-.23a13.68,13.68,0,0,1,3.74-1.1c1.88-.26,2.43.14,2.43.14a7.55,7.55,0,0,0-4.54,1C22.08,12.67,21.3,12.09,21.81,11.88ZM9.54,9.07l.85-.59c2.68-1.24,2.9.31,2.9.31C12.63,7.86,9.54,9.07,9.54,9.07Zm5.15-6.81a27.34,27.34,0,0,1,1.22,2.8,4.28,4.28,0,0,0,0-1.82,9,9,0,0,1,.27,3.06S15.38,5.92,14.69,2.26Z"/></g></g></svg>