<svg xmlns="http://www.w3.org/2000/svg" viewBox="0 0 20 26.61"><defs><style>.cls-1{fill:#1a2026;}</style></defs><title>Recovered Trophies</title><g id="Layer_2" data-name="Layer 2"><g id="Layer_1-2" data-name="Layer 1"><path class="cls-1" d="M.61,26.61h0a.34.34,0,0,1-.3-.26A25.38,25.38,0,0,1,.82,16.1,21.91,21.91,0,0,1,5.18,7.5,25,25,0,0,1,15.54.34,3.63,3.63,0,0,1,16.72,0a.48.48,0,0,1,.46.25c.17.33-.11.71-.49,1.23a5.93,5.93,0,0,0-.41.61,1.75,1.75,0,0,0,.51.08,1.8,1.8,0,0,1,.87.23.49.49,0,0,1,.26.41c0,.29-.26.46-.51.62l-.21.15a.94.94,0,0,0,.26.1.77.77,0,0,1,.61.48.66.66,0,0,1-.2.65.49.49,0,0,0-.12.61c.05.16.09.16.12.16H18l.21,0c.19,0,.52.07.58.58a.72.72,0,0,1-.31.79l0,0a1.2,1.2,0,0,0,.06.38c.09.3.35.4.74.51s.6.18.71.48a.81.81,0,0,1-.14.72.32.32,0,0,1-.24.15,19.63,19.63,0,0,0-7.81,2.71A22.37,22.37,0,0,0,5.85,17,28.83,28.83,0,0,0,.92,26.39.33.33,0,0,1,.61,26.61Z"/></g></g></svg>