<svg xmlns="http://www.w3.org/2000/svg" width="36.4" height="28.3" viewBox="0 0 36.4 28.3">
  <title>Land Clearance</title>
  <g id="Layer_2" data-name="Layer 2">
    <g id="Layer_1-2" data-name="Layer 1">
      <g>
        <g>
          <path d="M.7,24.7c.6.1.4.4,1.3.4s.1-.2.1-.3.2-4.5.3-5.3S1.3,23.9.7,24.1.2,24.6.7,24.7Z" fill="#1a2026"/>
          <ellipse cx="8.4" cy="16.1" rx="1.9" ry="0.6" fill="#1a2026"/>
          <path d="M11.2,16.8l.3.2h0c.6-.4.8-.7.4-1.4s-2.2-.7-3.3-.8H7.9a5.9,5.9,0,0,0-2,.5H5.4c-.6.2-.7.4-.7.4h0a.9.9,0,0,0,.1,1.2c.1.3.3.5.9.5l.8.2,1.3.2H9.6c1.1,0,1.2-.2,1.4-.4h.1c-.2-.1-.4-.2-.4-.3v-.3a4.5,4.5,0,0,1-2.2.5c-1.6,0-2.7-.3-2.7-1s1.2-1,2.7-1,2.8.4,2.8,1.1a.4.4,0,0,1-.2.4Z" fill="#1a2026"/>
          <path d="M4.1,16.7a1.3,1.3,0,0,1,.2-1.2,2,2,0,0,1,.9-.5l.5-.2a5.9,5.9,0,0,1,2.1-.5h.7c1.3.2,3.2.3,3.6,1.1a1.2,1.2,0,0,1-.4,1.9,1,1,0,0,0,.7.4h0c.5,0,1.6-.4,1.5-.8a3.2,3.2,0,0,0-.8-.7h.6c.4,0,.8-.1.8-.6s-2.4-.8-3.5-1.3a10.2,10.2,0,0,0-3.4-.6H7.4a8,8,0,0,0-2.2.5,4,4,0,0,0-2.1.9c.1,0-.5.3-.4.7S3.6,16.6,4.1,16.7Z" fill="#1a2026"/>
          <path d="M4,18.7a3.2,3.2,0,0,0,1.3.2h5.1c1.9-.2,1.3-1.2,1.2-1.4s-.2-.1-.2-.2h-.1c-.3.4-.5.5-1.7.6H7.8l-1.5-.2-.8-.2a1.7,1.7,0,0,1-1.2-.6c-.1-.2-.1-.4-.2-.6L3,17.4C2.9,17.6,2.6,18.2,4,18.7Z" fill="#1a2026"/>
          <path d="M16.6,25.4l-.4-.4c-.8-.6-1.1-4.6-1.2-5.2a1,1,0,0,0-.1-.3c-.1-.4-.2-2.3-.3-3.3l-.4.3h0c.1,1.5.2,7,.2,7.2s.1.5.1.9.1.6.1.8h0C15.1,25.8,16.7,25.6,16.6,25.4Z" fill="#1a2026"/>
          <path d="M14,17.4a2.6,2.6,0,0,1-1.5.6h-.2l-.3-.2v.3h.1v6.2a4.1,4.1,0,0,0,.1,1.1h.4c.7.3.4.9.9.9h0c.6,0,.8-.9.8-.9a8.8,8.8,0,0,0-.2-1.6C14.1,23.7,14,18.6,14,17.4Z" fill="#1a2026"/>
          <path d="M2.7,16.5v.8h.1c0-.1.3-.3.6-.5Z" fill="#1a2026"/>
          <path d="M11.8,24.4V19a2.3,2.3,0,0,1-1.4.4H9.8l-1.3-.2H6.6l-.7-.2H5.3A3.1,3.1,0,0,1,4,19a2.3,2.3,0,0,1-1.1-.6c-.1.9-.3,5.6-.5,6.5S.6,26,0,26.8s1.8.6,2,.4a4,4,0,0,1,1.3-.4H4.7a5.8,5.8,0,0,0,.7-2.5c0-.2.3-4,.3-4s-.1,3.9-.2,5.1A2,2,0,0,1,5,27c-.1.3-.3.4-.4.6s1.1.9,1.6.6a7.7,7.7,0,0,0,2.1-1c0-.1.1-.1.1-.2a5.1,5.1,0,0,1,2.1,1c.7.8,2.7-.6,2.3-.9A4,4,0,0,1,11.8,24.4Z" fill="#1a2026"/>
        </g>
        <g>
          <path d="M11.3,7.9c.5,0,.4.4,1,.3s.1-.1.1-.2.2-2.8.3-3.4-.9,2.6-1.4,2.8S10.9,7.8,11.3,7.9Z" fill="#1a2026"/>
          <ellipse cx="17.4" cy="1.9" rx="1.5" ry="0.5" fill="#1a2026"/>
          <path d="M19.7,2.4c0,.1.1.1.2.2h0c.5-.2.7-.5.3-1S18.5.9,17.6.8H17a5.7,5.7,0,0,0-1.5.3l-.5.2a.7.7,0,0,0-.5.3h0c-.3.2-.1.6.1.9s.2.4.7.4l.6.2h2.5c.9,0,1-.1,1.1-.3h.1q-.3-.1-.3-.3V2.2a3,3,0,0,1-1.8.4c-1.2,0-2.1-.2-2.1-.7s.9-.8,2.2-.8,2.2.3,2.2.8a.5.5,0,0,1-.2.4Z" fill="#1a2026"/>
          <path d="M14,2.3a.8.8,0,0,1,.2-.9c0-.1.2-.3.7-.4l.4-.2A6.1,6.1,0,0,1,17,.4h.5c1.1.1,2.5.1,2.9.8s.1,1.2-.4,1.5l.6.4h.1c.3,0,1.2-.4,1.1-.7a1.8,1.8,0,0,0-.6-.5h.4c.3,0,.7-.1.7-.5S20.4.9,19.5.5A8.6,8.6,0,0,0,16.8,0h-.1a5.6,5.6,0,0,0-1.8.5,1.8,1.8,0,0,0-1.6.7s-.4.2-.3.5S13.6,2.3,14,2.3Z" fill="#1a2026"/>
          <path d="M14,3.9a1.6,1.6,0,0,0,.9.2h4.2c1.5-.1,1-.9.9-1.1h-.2a.1.1,0,0,1-.1.1c-.2.2-.3.4-1.3.4H17l-1.2-.2h-.6c-.5-.1-.8-.2-1-.5a.6.6,0,0,1-.1-.4l-.9.5C13.1,3.1,12.8,3.5,14,3.9Z" fill="#1a2026"/>
          <path d="M24,8.5a.8.8,0,0,0-.4-.4c-.6-.4-.8-2.8-.9-3.3V4.5A15.7,15.7,0,0,1,22.4,2l-.3.2h0c0,1.2.1,4.8.1,4.9a5.6,5.6,0,0,1,.1.7c0,.2.1.5.1.6h-.1A2.8,2.8,0,0,0,24,8.5Z" fill="#1a2026"/>
          <path d="M21.9,2.9a2.1,2.1,0,0,1-1.2.5h-.1l-.3-.2v.2h.1V7.7a2.8,2.8,0,0,0,.1.9h.3c.5.2.3.7.7.7h0c.5-.1.7-.7.7-.7A6.9,6.9,0,0,1,22,7.3C22,7.1,21.9,3.8,21.9,2.9Z" fill="#1a2026"/>
          <path d="M13,2.2v.6h0l.5-.4Z" fill="#1a2026"/>
          <path d="M20.1,7.7V4.1a1.3,1.3,0,0,1-1,.4H15l-1.1-.2a1.2,1.2,0,0,1-.8-.5c-.1.7-.3,3.7-.4,4.4s-1.5.8-1.9,1.5a6.6,6.6,0,0,0,1.5.3c.2-.2.8-.2,1.1-.3h1.1a4.5,4.5,0,0,0,.6-2c0-.2.2-2.4.2-2.4s-.1,2.3-.1,3.3a2.8,2.8,0,0,1-.4,1.3l-.4.4c-.6.5.9.7,1.3.5s1.1-.3,1.7-.8V9.7c.5.2,1.3.4,1.6.8s2.2-.5,1.9-.7S20.1,8.5,20.1,7.7Z" fill="#1a2026"/>
        </g>
        <g>
          <path d="M35.6,20.1c-.5.1-.4.5-1.2.5s-.1-.2-.1-.4S34,16.8,34,16s1.1,3.3,1.6,3.6S36.2,20,35.6,20.1Z" fill="#1a2026"/>
          <ellipse cx="28" cy="12.6" rx="1.9" ry="0.6" fill="#1a2026"/>
          <path d="M25.2,13.3h-.3c-.6-.3-.9-.7-.4-1.3s2.2-.7,3.3-.9h.7a6.5,6.5,0,0,1,2,.4l.5.2c.6.2.6.4.7.4h0c.3.3.1.7-.1,1.1a1.2,1.2,0,0,1-.9.6l-.8.2H26.8c-1.1-.1-1.2-.2-1.4-.4a.1.1,0,0,0-.1-.1l.4-.3V13a4.5,4.5,0,0,0,2.2.5c1.5,0,2.6-.2,2.6-.9s-1.1-1-2.6-1-2.9.3-2.9,1a.8.8,0,0,0,.2.5C25.3,13.2,25.2,13.2,25.2,13.3Z" fill="#1a2026"/>
          <path d="M32.3,13.2a1.2,1.2,0,0,0-.3-1.3l-.8-.5h-.5a4.3,4.3,0,0,0-2.1-.6h-.8c-1.2.2-3.1.2-3.6,1.1a1.2,1.2,0,0,0,.5,1.8c-.2.2-.5.5-.7.5h-.1c-.4,0-1.5-.4-1.4-.8a2.1,2.1,0,0,1,.7-.7h-.5c-.4,0-.8-.1-.8-.5s2.4-.9,3.5-1.3a8.3,8.3,0,0,1,3.4-.7h.1a18.4,18.4,0,0,1,2.3.6,2.5,2.5,0,0,1,2,.9s.5.3.4.7S32.8,13.1,32.3,13.2Z" fill="#1a2026"/>
          <path d="M32.3,15.2l-1.2.2H27.8l-1.2.2h-.7c-1.8-.1-1.3-1.1-1.1-1.3s.1-.2.2-.2h.1c.2.3.5.5,1.7.6h1.8a4.1,4.1,0,0,0,1.5-.2l.7-.2c.6-.1,1-.1,1.2-.6a.8.8,0,0,0,.2-.5,3,3,0,0,1,1.1.7C33.5,14.1,33.8,14.6,32.3,15.2Z" fill="#1a2026"/>
          <path d="M19.8,20.8c.1-.1.2-.3.4-.4s1-3.6,1.2-4.2a.4.4,0,0,1,.1-.3c.1-.4.2-2.2.3-3.2s.2.2.3.2v.2c0,1.5-.1,6-.1,6.2a1.7,1.7,0,0,0-.1.8,2.8,2.8,0,0,0-.1.8h0C21.2,21.3,19.6,21,19.8,20.8Z" fill="#1a2026"/>
          <path d="M22.4,13.9a2.2,2.2,0,0,0,1.5.6h.2l.3-.2v.2h0v5.3a5.2,5.2,0,0,1-.2,1.1h-.3c-.7.2-.4.9-.9.9h0c-.6-.1-.9-.9-.9-.9a11.1,11.1,0,0,0,.2-1.7C22.3,19.1,22.4,15,22.4,13.9Z" fill="#1a2026"/>
          <path d="M33.6,12.9v.9h0l-.6-.4C33.2,13.2,33.5,13.1,33.6,12.9Z" fill="#1a2026"/>
          <path d="M24.6,19.9V15.4a2.2,2.2,0,0,0,1.3.5h5.2l1.3-.2,1.1-.6c.1.8.3,4.6.4,5.5s1.9,1.1,2.5,1.9a11.8,11.8,0,0,1-2,.4,5,5,0,0,0-1.3-.4H31.7a4.2,4.2,0,0,1-.7-2.4c-.1-.3-.3-3.1-.3-3.1s.1,2.9.2,4.1.4,1.7.4,1.7l.5.5c.8.6-1.1.9-1.7.6s-1.3-.3-2-1-.1-.1-.2-.2a6.1,6.1,0,0,0-2.1,1.1c-.7.7-2.7-.7-2.3-.9A3.7,3.7,0,0,0,24.6,19.9Z" fill="#1a2026"/>
        </g>
      </g>
    </g>
  </g>
</svg>
