<svg xmlns="http://www.w3.org/2000/svg" viewBox="0 0 43.45 23.07"><defs><style>.cls-1{fill:#1a2026;}</style></defs><title>Leopard Sighting</title><g id="Layer_2" data-name="Layer 2"><g id="Layer_1-2" data-name="Layer 1"><path class="cls-1" d="M39,1.73l0,.05-.06.11h0v.19l.14.12.17.08.13-.21-.14-.22Z"/><polygon class="cls-1" points="39.72 1.56 39.72 1.77 40.18 2.02 40.18 1.78 39.94 1.63 39.72 1.56"/><path class="cls-1" d="M38.54,2.1c-.16,0-.27-.15-.36-.28a.85.85,0,0,0-.52-.57l-.16-.06.08.15a2.18,2.18,0,0,1,.16.41l-.48-.3.11.21.2.39-.14,0-.11-.11,0,.19a.84.84,0,0,0,.58.66l.1,0a.2.2,0,0,0,.2-.16l0-.05c0-.07,0-.11.08-.14a1.24,1.24,0,0,1,.22-.12h0a.09.09,0,0,0,0-.08A.12.12,0,0,0,38.54,2.1Z"/><polygon class="cls-1" points="38.51 3.47 38.55 3.72 38.76 3.71 38.87 3.6 38.88 3.35 38.67 3.28 38.51 3.47"/><polygon class="cls-1" points="39.6 2.5 39.49 2.66 39.38 2.67 39.3 2.94 39.3 2.96 39.38 3.27 39.6 3.4 39.65 3.21 39.65 3.03 39.68 3.01 39.76 3.02 39.9 3.01 39.9 2.86 39.82 2.65 39.6 2.5"/><polygon class="cls-1" points="39.9 3.35 39.81 3.29 39.65 3.4 39.7 3.51 39.68 3.57 39.81 3.69 40.02 3.53 39.99 3.35 39.9 3.35"/><polygon class="cls-1" points="38.82 2.62 38.91 2.92 39.12 2.92 39.27 2.63 39.06 2.5 38.82 2.62"/><polygon class="cls-1" points="40.88 2.43 40.49 2.19 40.48 2.18 40.24 2.18 40.3 2.39 40.53 2.59 40.56 2.67 40.58 2.84 40.76 2.98 40.91 2.89 40.91 2.6 40.88 2.43"/><polygon class="cls-1" points="40.34 3.04 39.91 3.29 40.42 3.65 40.87 3.54 41.15 3.54 40.84 2.96 40.34 3.04"/><polygon class="cls-1" points="36.26 3.29 36.6 3.43 36.7 3.19 36.82 2.75 36.44 2.9 36.26 3.29"/><path class="cls-1" d="M42.87,4.56l-.42.09-.32,0,.23.68.07,0s.51-.31.46-.64Z"/><polygon class="cls-1" points="37.33 4.7 37.58 4.9 37.76 4.64 37.57 4.3 37.33 4.7"/><path class="cls-1" d="M39.8,3.75s0,0-.19-.09h0L39.35,4l0,.26.14.07.14-.1L39.84,4V4S39.81,3.8,39.8,3.75Z"/><polygon class="cls-1" points="39.06 3.71 38.99 3.9 39.1 4.07 39.27 3.94 39.38 3.75 39.16 3.5 39.06 3.71"/><polygon class="cls-1" points="40.64 5.11 40.83 5.25 40.97 5.08 40.97 4.93 40.68 4.93 40.64 5.11"/><polygon class="cls-1" points="40.34 3.68 40.15 3.81 40.38 3.96 40.57 3.91 40.5 3.71 40.34 3.68"/><polygon class="cls-1" points="40.21 5.17 40.24 5.42 40.46 5.41 40.57 5.3 40.57 5.04 40.37 4.97 40.21 5.17"/><path class="cls-1" d="M40.14,4.36h0a.52.52,0,0,1-.11.1l-.22.15.33,0,.09,0,.25-.15-.05-.32Z"/><path class="cls-1" d="M39.73,4.66l-.1-.08v0l-.07,0-.3,0v.2l.44.21.06-.06.1-.08.06,0,0-.06Z"/><polygon class="cls-1" points="39.26 5.42 38.9 5.35 38.9 5.54 38.99 5.67 39.34 5.77 39.41 5.55 39.3 5.52 39.26 5.42"/><polygon class="cls-1" points="38.98 4.28 38.74 4.45 38.58 4.7 38.75 4.71 38.8 4.83 39.13 4.64 39.19 4.46 39.03 4.4 38.98 4.28"/><path class="cls-1" d="M38.57,5.92l-.18,0,0,0-.28.29.13.22.31,0,.12-.14V5.92Z"/><polygon class="cls-1" points="38.39 5.15 38.34 5.13 38.21 5.2 38.12 5.49 38.28 5.64 38.51 5.54 38.62 5.25 38.54 5.04 38.39 5.15"/><path class="cls-1" d="M38.32,4.22h0l-.18.33.13.19h.18l.21-.68-.12,0Z"/><polygon class="cls-1" points="37.92 3.96 38.01 4.2 38.28 3.89 38.08 3.63 37.92 3.96"/><path class="cls-1" d="M11.93,15.44l0-.07-.64.34V16l.27.07.53-.17,0-.06S12,15.52,11.93,15.44Z"/><polygon class="cls-1" points="13.38 14.75 12.71 15.15 12.68 15.17 12.66 15.42 12.98 15.59 13.6 15.69 13.46 15.31 13.38 14.75"/><path class="cls-1" d="M14.69,13.63l-.35,0L14,14l-.06.56.29.17.52-.3v0c0-.15.08-.63.07-.71v0Z"/><polygon class="cls-1" points="14.97 14.66 14.96 14.68 14.92 15.06 15.31 15.17 15.82 14.92 15.96 14.53 15.36 14.13 14.97 14.66"/><polygon class="cls-1" points="16.17 12.4 15.86 12.5 15.35 12.72 15.17 13.23 15.26 13.67 15.49 14.01 15.98 13.95 16.35 13.49 16.36 13.47 16.33 13.02 16.36 12.82 16.17 12.4"/><polygon class="cls-1" points="24.02 8.89 23.61 9.08 23.08 9.47 23.41 9.86 23.71 9.86 24.38 10.39 24.4 10.4 25.03 10.36 25.14 10.02 25.76 9.79 25.85 9.03 25.86 8.99 25.4 8.73 24.02 8.89"/><polygon class="cls-1" points="31.25 9.35 30.93 9.97 30.92 9.99 31.06 10.62 31.48 10.85 31.77 10.6 31.65 10.13 31.82 9.91 31.63 9.39 31.25 9.35"/><path class="cls-1" d="M30.41,7.86v.06a2.23,2.23,0,0,1-.4.36l-.06,0,.31.3.18.31.34,0L31,8.44,31.14,8l-.28-.12Z"/><path class="cls-1" d="M30.35,10.34l-.37-.2-.18.07-.13.18v0s0,.29,0,.31,0,0,.19.22l.21.16.57,0,.23-.46-.14-.42Z"/><path class="cls-1" d="M29.11,9.66c-.43.14-.46.18-.47.19s-.17.15-.3.26h0l-.11.4.25.56L29,11l.48-.36h0l.14-.39-.47-.64Z"/><path class="cls-1" d="M29.3,11.25l-.46.43L29,12c.14.24.17.25.19.25h0s.13,0,.51-.29v0l.14-.42L29.67,11Z"/><polygon class="cls-1" points="27.63 9.17 27.47 9.49 26.95 9.85 26.91 9.88 27.1 10.35 27.5 10.47 27.66 10.12 28.09 9.85 28.32 9.28 28.34 9.24 28.05 8.98 27.63 9.17"/><polygon class="cls-1" points="28.25 11.08 27.91 10.81 27.45 10.96 27.12 11.35 27.12 11.71 27.55 12.05 27.56 12.06 28.09 12.11 28.5 11.82 28.46 11.29 28.25 11.08"/><polygon class="cls-1" points="26.39 11.93 26.29 12.53 26.29 12.55 26.52 13.01 26.91 12.92 27.23 12.35 27.24 12.01 26.8 11.77 26.39 11.93"/><polygon class="cls-1" points="26.79 10.19 26.11 10.12 25.85 10.04 25.43 10.37 24.96 10.76 25.11 11.28 25.58 11.26 26.19 11.44 26.65 11.45 27.08 10.92 26.89 10.58 26.79 10.19"/><polygon class="cls-1" points="23.2 10.84 22.95 10.65 22.5 10.94 22.29 11.47 22.55 11.47 23.22 11.82 23.71 11.92 24.49 11.53 24.6 11 23.48 10.64 23.2 10.84"/><polygon class="cls-1" points="22.67 12.32 22.34 12.18 22.01 12.31 21.82 12.48 21.37 12.32 21.02 12.76 20.86 13.3 21.33 13.55 21.49 13.38 22.24 13.3 22.83 13.08 23.24 12.51 23.04 12.17 22.67 12.32"/><polygon class="cls-1" points="21.6 10.59 21.27 10.47 20.74 10.35 20.38 10.59 20.37 10.99 20.67 11.02 20.91 11.29 21.3 11.25 21.81 11.51 21.95 11.29 21.74 11 21.6 10.59"/><polygon class="cls-1" points="19.68 11.08 19.23 11.33 19.07 11.88 18.94 12.33 19.39 12.76 19.4 12.78 19.91 12.88 20.37 12.48 20.82 11.79 20.16 11.25 19.68 11.08"/><polygon class="cls-1" points="19.66 9.95 19.25 9.79 19.24 9.78 18.8 9.87 18.83 10.09 18.43 10.35 18.43 10.63 18.61 10.79 18.87 10.8 19.2 10.92 19.72 10.94 20.1 10.55 20.02 10.04 19.66 9.95"/><polygon class="cls-1" points="18.1 10.88 17.62 11.38 17.66 11.96 18.1 11.99 18.85 11.96 18.96 11.18 18.97 11.14 18.66 10.96 18.1 10.88"/><polygon class="cls-1" points="17.92 9.89 17.35 9.72 16.73 10.22 16.79 10.88 17.39 11 18 10.61 17.9 10.18 17.92 9.89"/><polygon class="cls-1" points="17.23 12.23 16.98 12.08 16.82 12.36 16.61 12.85 16.69 13.18 16.69 13.68 17.21 13.74 17.43 13.39 17.39 12.67 17.23 12.23"/><polygon class="cls-1" points="17.04 14.28 16.69 14.44 16.01 15.01 15.59 15.57 15.61 15.99 16.15 15.94 16.46 16.21 16.93 15.59 17.44 15.19 17.66 14.9 17.52 14.46 17.04 14.28"/><polygon class="cls-1" points="16.47 11.22 16.09 11.14 15.76 11.83 15.7 12.21 16.02 12.29 16.52 12.05 17 11.65 16.91 11.41 16.47 11.22"/><polygon class="cls-1" points="18.29 8.85 17.93 8.92 17.75 9.17 17.67 9.35 17.75 9.49 18.25 9.61 18.54 9.62 18.75 9.48 18.75 9.31 18.94 9.14 18.71 8.91 18.29 8.85"/><path class="cls-1" d="M21,8.69l-.46-.12-.36-.09s-.06,0-.35.17l-.35.12-.17.36,0,0,.13.35.61.14.63-.13.23-.28L21.11,9,21,8.7Z"/><polygon class="cls-1" points="22.56 8.87 22.29 8.8 22.09 8.72 21.71 8.86 21.46 9.29 21.36 9.51 21.5 9.71 21.56 9.92 21.73 10.08 22.09 10.05 22.4 10.14 22.68 9.82 22.86 9.56 22.46 9.26 22.56 8.87"/><polygon class="cls-1" points="26.85 8.26 25.84 8.57 26.7 8.94 27.02 9.19 27.48 8.9 27.41 8.46 26.85 8.26"/><polygon class="cls-1" points="28.2 8 27.69 8.38 27.98 8.69 28.42 8.62 29.14 8.02 29.14 7.69 28.62 7.72 28.2 8"/><path class="cls-1" d="M30.31,8.88l-.42-.27-.27-.16-.4.06L29,9h0l0,.39.48.48,0,0a1.62,1.62,0,0,1,.25-.18l.43.09.3-.1-.1-.37Z"/><polygon class="cls-1" points="22.21 13.64 22.2 14.02 22.89 14.05 22.91 14.05 23.37 13.8 23.41 13.46 23.04 13.4 22.21 13.64"/><path class="cls-1" d="M30.36,7.42l0,0,0,.29.27.07h0l.31-.07,0,0s.08,0,.45-.47h0V6.92L30.93,7Zm.52.27Z"/><polygon class="cls-1" points="32.32 12.84 32.31 12.87 32.51 13.18 32.85 12.9 32.95 12.33 32.56 12.24 32.32 12.84"/><path class="cls-1" d="M36.22,8.47l-.09-.26L35.91,8l-.11.15-.11.17,0,.25.26.2h0c.15,0,.18,0,.19-.06V8.47Z"/><polygon class="cls-1" points="36.55 6.03 36.39 6.42 36.72 6.6 36.88 6.36 36.85 6.06 36.55 6.03"/><path class="cls-1" d="M35.68,6.42v0l-.2-.21L35.26,6l-.1.31.08.26.14.25.23.11,0,0c.1-.16.08-.22.06-.24A1.25,1.25,0,0,1,35.68,6.42Zm-.07.32h0Z"/><path class="cls-1" d="M36.43,5.12l0,0-.26.2.23.53.33,0v0c0-.09.1-.21,0-.27S36.46,5.15,36.43,5.12Z"/><polygon class="cls-1" points="35.67 4.92 35.48 5.12 35.43 5.35 35.42 5.36 35.46 5.81 35.87 5.67 36.01 5.37 36.02 5.17 35.96 4.92 35.67 4.92"/><path class="cls-1" d="M35.72,5.87l-.07.38v0a1,1,0,0,0,.11.19c.2.18.28.2.31.2h0v0l.13-.31v0l-.13-.46Zm.29.71Z"/><polygon class="cls-1" points="36.39 7.22 36.2 7.03 36.03 7.12 36.03 7.36 36.1 7.61 36.31 7.81 36.55 7.66 36.5 7.41 36.39 7.22"/><polygon class="cls-1" points="35.29 7.02 35.1 7.01 35.06 7.33 35.05 7.35 35.18 7.7 35.34 8 35.58 7.86 35.65 7.54 35.49 7.12 35.29 7.02"/><polygon class="cls-1" points="33.05 6.62 32.75 6.7 32.6 6.97 32.8 7.15 32.95 7.11 32.92 7.3 33.27 7.38 33.44 7.1 33.44 6.82 33.36 6.7 33.05 6.62"/><path class="cls-1" d="M33.89,7.25h-.23l-.14.28.06.3.29.11,0,0c.13-.15.13-.2.12-.21v0h0V7.56l0-.2Z"/><path class="cls-1" d="M32.77,7.52s0,0-.23.14l0,0,0,.23h0c.13.15.17.19.2.19h0s0,0,0,0L33,8,33,8l-.21-.43Z"/><polygon class="cls-1" points="33.41 8.2 33.09 8.26 33 8.67 32.92 8.86 32.99 9.18 33.1 9.51 33.41 9.46 33.44 8.96 33.4 8.6 33.41 8.2"/><polygon class="cls-1" points="33.86 6.48 33.64 6.52 33.59 6.8 33.78 6.89 34.15 7.02 34.23 6.76 34.09 6.56 33.86 6.48"/><path class="cls-1" d="M34.18,8.16l0,0-.25,0-.15.53,0,.5.1.35.29.05.15-.73.17-.23-.07-.25S34.34,8.33,34.18,8.16Z"/><polygon class="cls-1" points="33.44 10.58 33.43 10.6 33.38 11.26 33.84 11.27 33.89 10.67 34.21 10.16 33.96 9.79 33.44 10.58"/><polygon class="cls-1" points="34.59 6.09 34.28 6.38 34.3 6.61 34.59 6.86 34.98 6.75 35.04 6.45 34.97 6.21 34.59 6.09"/><path class="cls-1" d="M34.7,7.3s-.05,0-.23,0h0v.2l.05.15.09.19,0,.21.17,0,.18-.1-.09-.45Z"/><polygon class="cls-1" points="34.28 9.81 34.33 10.06 34.48 10.33 34.71 10.14 34.75 9.6 34.4 9.53 34.28 9.81"/><polygon class="cls-1" points="34.05 11.34 33.97 11.82 34.29 12.03 34.55 11.91 34.58 11.43 34.29 11.21 34.05 11.34"/><polygon class="cls-1" points="34.34 13.21 34.18 13.21 33.76 13.61 33.67 13.99 33.96 13.89 34.24 14.02 34.46 13.88 34.4 13.6 34.34 13.21"/><path class="cls-1" d="M34.4,13.15h-.25l-.44.42h0l-.11.51L34,14l.28.13.3-.17-.07-.33Zm-.16.8L34,13.83l-.2.07.05-.25.39-.38h.09l.05.34,0,.24Z"/><polygon class="cls-1" points="33.25 12.43 33.4 12.86 33.89 13.06 34.36 12.56 34.36 12.18 33.67 12.18 33.25 12.43"/><polygon class="cls-1" points="33.04 11.56 32.8 12.09 33.2 12.36 33.39 11.9 33.24 11.34 33.04 11.56"/><polygon class="cls-1" points="32.65 9.93 32.43 10.47 32.42 10.5 32.7 10.96 32.96 10.83 33.09 10.17 33.09 10.16 32.99 9.67 32.65 9.93"/><polygon class="cls-1" points="33.83 5.75 33.6 5.75 33.49 5.92 33.54 6.09 33.78 6.25 34.06 6.15 34.01 5.87 33.83 5.75"/><path class="cls-1" d="M35.36,8.8h0l-.24-.29,0,0L35,8.6l-.1,0,.07,0c0,.06,0,.21,0,.35L35,9.3l.4.17V9.38a1,1,0,0,0,0-.29S35.38,8.92,35.36,8.8Z"/><path class="cls-1" d="M35.46,9.92s-.06-.18-.06-.18v0h0s0,0-.26,0h0l0,.52.16.13c0,.07,0,.15,0,.16s0,0,.14.23l0,0,.24,0,.06-.65,0,0Z"/><path class="cls-1" d="M34.82,10.42h0a1.34,1.34,0,0,0-.26.27v0l0,.41.31.21.28-.24,0-.42Z"/><path class="cls-1" d="M34.42,14.51l-.19.09.14.24.18.41A3,3,0,0,1,35,15s-.15-.36-.15-.36Z"/><path class="cls-1" d="M34.85,14.6l-.44-.15-.27.12.17.3.22.48.06,0a2.73,2.73,0,0,1,.37-.23h0l0,0s0-.06-.16-.42Zm-.27.56-.16-.35-.1-.18.1-.05.34.12c.06.1.11.21.14.27A2,2,0,0,0,34.58,15.16Z"/><polygon class="cls-1" points="33.84 16.26 33.61 16.12 33.41 16.23 33.19 16.41 33.14 16.77 33.28 17.19 33.51 17.45 33.92 17.42 34.18 17.27 34.18 16.95 34 16.67 33.84 16.26"/><path class="cls-1" d="M33.89,16.22,33.61,16l-.24.15-.24.19-.05.4.14.43.26.3.45,0,.31-.17v-.38l-.18-.28Zm.23,1-.21.12-.37,0-.2-.22-.14-.39,0-.32.19-.16.17-.1.17.11.17.4.17.27Z"/><path class="cls-1" d="M33.75,14.76l-.17-.22-.23.05H33l-.09.23,0,.08-.07.13.15.34.22.24s.23,0,.23,0l.11-.17.26,0v-.22L33.74,15Z"/><path class="cls-1" d="M33.81,14.74l-.2-.27-.26,0-.43,0-.12.29,0,.08-.07.12.16.37.25.28h0c.21,0,.28,0,.29-.06l.08-.13.3-.05v-.27L33.8,15Zm-.07.59-.24,0v0a.69.69,0,0,0-.1.16h-.16l-.2-.21L32.9,15l.06-.12,0-.08.07-.18h.35l.2,0,.12.17V15l.07.21Z"/><polygon class="cls-1" points="32.81 13.34 32.53 13.75 32.62 14.04 32.81 13.98 32.99 13.66 32.93 13.4 32.81 13.34"/><path class="cls-1" d="M32.79,13.26l-.32.46v0l.12.38.27-.09.21-.36L33,13.36Zm0,.67-.11,0-.07-.2.24-.34.05,0,0,.21Z"/><polygon class="cls-1" points="32.43 8.5 32.2 8.67 31.99 9.13 31.98 9.15 32.06 9.81 32.06 9.85 32.46 9.96 32.77 9.44 32.78 9.43 32.74 8.79 32.43 8.5"/><polygon class="cls-1" points="31.68 7.56 31.41 7.91 31.5 8.49 32 8.52 32.32 8.26 32.4 7.93 31.93 7.66 31.68 7.56"/><polygon class="cls-1" points="31.8 6.52 31.58 6.93 31.64 7.24 31.98 7.32 32.2 6.86 32.21 6.84 32.08 6.37 31.8 6.52"/><polygon class="cls-1" points="32.45 6.1 32.27 6.28 32.29 6.5 32.41 6.65 32.65 6.56 32.98 6.47 33.06 6.27 32.72 6.07 32.45 6.1"/><polygon class="cls-1" points="33.52 5.2 33.32 5.2 33.18 5.35 33.05 5.79 33.21 5.97 33.4 5.87 33.47 5.64 33.62 5.51 33.59 5.3 33.52 5.2"/><path class="cls-1" d="M34.15,4.93l-.31.13.07.33h0a.78.78,0,0,0,.25.08h0l0,0a2,2,0,0,1,.26-.2l.07,0L34.34,5Z"/><path class="cls-1" d="M35.17,4.29l-.05,0,0-.07-.22.21-.28.4.22.3.26-.2.09-.32.08-.09,0,0v0S35.25,4.35,35.17,4.29Z"/><polygon class="cls-1" points="34.74 5.32 34.6 5.73 34.81 5.99 35.06 5.73 35.11 5.3 34.87 5.14 34.74 5.32"/><polygon class="cls-1" points="35.6 3.59 35.48 3.96 35.76 4.05 36.01 3.75 36.1 3.51 35.98 3.28 35.6 3.59"/><polygon class="cls-1" points="35.96 4 35.75 4.38 35.8 4.75 36.15 4.78 36.35 4.58 36.35 4.21 36.17 3.97 35.96 4"/><polygon class="cls-1" points="36.68 4.35 36.4 4.61 36.4 5.09 36.67 5.09 36.83 4.86 36.79 4.53 36.68 4.35"/><polygon class="cls-1" points="37.02 5.51 37.02 5.82 37.22 6.22 37.49 6.31 37.49 5.99 37.26 5.28 37.02 5.51"/><polygon class="cls-1" points="35.99 9 35.77 8.96 35.57 8.87 35.54 9.2 35.54 9.21 35.82 9.82 36.04 9.59 36.01 9.45 36.1 9.35 35.99 9"/><polygon class="cls-1" points="34.5 16.38 34.47 16.7 34.64 16.88 34.94 16.63 35.08 16.12 34.79 15.96 34.5 16.38"/><path class="cls-1" d="M34.45,16.35l0,.37.22.24.37-.29.15-.58-.38-.22Zm.55-.2-.11.44-.25.2-.1-.12,0-.27.25-.36Z"/><path class="cls-1" d="M34.69,18a1.59,1.59,0,0,0-.15.35v.53s.13.22.15.16.17-.48.17-.48l0-.39Z"/><path class="cls-1" d="M34.71,17.94l-.05,0a.85.85,0,0,0-.18.38v.57h0c.11.19.16.2.19.2h0l0,0c0-.05.16-.45.17-.49h0l0-.43Zm-.05,1-.06-.09v-.5a2.16,2.16,0,0,1,.1-.25l.06.08,0,.36C34.76,18.7,34.7,18.87,34.66,19Z"/><polygon class="cls-1" points="33.87 20.54 34.05 20.88 34.41 20.95 34.58 20.36 34.4 19.99 33.87 20.54"/><path class="cls-1" d="M33.82,20.49l0,0,.22.42.44.08.18-.64v0l-.22-.47Zm.54.39-.27-.05-.15-.28.44-.45.13.27Z"/><polygon class="cls-1" points="33.48 18.28 33.18 18.47 33.24 18.96 33.63 19.19 33.87 19.34 33.99 18.96 34.03 18.47 33.71 18.1 33.48 18.28"/><path class="cls-1" d="M33.45,18.23l-.34.21.07.55.73.45.14-.48,0-.48v0L33.72,18Zm.48.71-.09.3-.54-.32,0-.42.27-.17.18-.15.27.31Z"/><polygon class="cls-1" points="32.26 11.12 32.02 11.69 32.01 11.71 32.16 12.16 32.49 11.92 32.5 11.91 32.76 11.14 32.54 10.93 32.26 11.12"/><path class="cls-1" d="M31.39,11.7l-.21-.39-.43-.07v.06c0,.23-.09.6-.12.72l0,.05,0,.07h.06l.16.09c.07.5.07.49.14.49h0l.11.09v.42h.34l.1-1.1L31.38,12Z"/><path class="cls-1" d="M30.42,12.52l-.23.09-.08-.24-.06,0-.28.06h0l-.12.58h0l.06.31-.13.36,0,0c.14.16.18.21.22.21h0l.05,0h0a3,3,0,0,1,.37-.22l.39-.09.09-.5h0l0-.48Z"/><polygon class="cls-1" points="27.89 12.47 27.35 12.74 27.08 13.12 27.38 13.79 27.64 13.72 28.25 13.61 28.84 13.21 28.91 12.91 28.35 12.38 27.89 12.47"/><polygon class="cls-1" points="25.21 11.86 24.81 11.83 24.15 12.12 23.73 13.02 23.99 13.6 24.47 13.21 24.98 13.33 25.3 13.14 25.53 13.21 25.81 12.97 25.96 12.44 25.97 12.41 25.68 11.86 25.21 11.86"/><polygon class="cls-1" points="19.43 13.43 19.06 13.77 19.04 13.78 18.85 14.58 18.99 15.05 19.38 14.82 19.8 14.39 20.45 14.14 20.53 13.69 19.82 13.33 19.43 13.43"/><polygon class="cls-1" points="18.43 12.29 17.97 12.67 17.91 13.25 18.26 13.99 18.28 14.03 18.73 14.03 18.79 13.68 19.08 13.09 19.09 13.06 18.81 12.57 18.43 12.29"/><polygon class="cls-1" points="14.42 15.34 14.16 15.74 13.65 15.95 13.57 16.35 13.56 16.36 13.68 16.92 14.18 16.95 14.83 16.54 14.85 16.53 15.17 15.71 15.19 15.67 14.82 15.29 14.42 15.34"/><polygon class="cls-1" points="12.58 16.24 11.63 16.52 11.6 16.53 11.51 16.87 12.43 17.13 12.65 17.29 12.92 16.97 13.14 16.61 13.15 16.59 13.1 16.23 12.58 16.24"/><polygon class="cls-1" points="10.22 16.35 10.22 16.59 10.56 16.75 11.05 16.47 10.79 16.08 10.22 16.35"/><polygon class="cls-1" points="9.99 17.67 9.89 17.97 10.02 18.48 10.42 18.07 10.54 17.84 10.3 17.44 9.99 17.67"/><polygon class="cls-1" points="9.1 18.54 9.26 19.02 9.59 18.53 9.39 18.09 9.1 18.54"/><polygon class="cls-1" points="9.43 16.82 9.28 17.11 9.38 17.48 9.59 17.54 10.02 17.18 10.05 16.99 9.93 16.74 9.43 16.82"/><path class="cls-1" d="M9.31,19.24,9,19.46l.34.54,0-.13a.67.67,0,0,1,.09-.19s.1-.06-.09-.39Z"/><path class="cls-1" d="M7.39,18.45c-.14-.11-.75,0-.94,0l-.87-.08,0,.54-.35.36.5.33L5.5,20l1.26.14h0l.63-.57L7.19,19l.24-.5Z"/><path class="cls-1" d="M4.78,18.05l-1.2-.7,0,.7-.73.17.11.83H3a5.47,5.47,0,0,0,.74.55,1.48,1.48,0,0,0,.36,0c.28,0,.61,0,.67,0h.08l-.21-.79L5,18.69Z"/><path class="cls-1" d="M43.31,4.19a6.4,6.4,0,0,0-.87-1,2.78,2.78,0,0,1-.3-.3,1.86,1.86,0,0,0,0-.26,1.24,1.24,0,0,0-.82-1.17L40.38,1l-.07,0h0L40.08.69A1.5,1.5,0,0,0,38.71,0,1.07,1.07,0,0,0,38,.47a1.07,1.07,0,0,0-1,0,1.61,1.61,0,0,0-.64,1.42,25.06,25.06,0,0,1-2.5,2.24h0a2.63,2.63,0,0,0-.38.07,2.31,2.31,0,0,0-.9.5L32.29,5a6.21,6.21,0,0,0-.75.71,3.79,3.79,0,0,1-.44.45,12.91,12.91,0,0,1-2.68.9c-.44.12-2.27.6-2.66.68l-.48.12a3.68,3.68,0,0,1-1,.19c-.21,0-.62-.07-1.08-.14a14.79,14.79,0,0,0-2-.2h-.39a10.57,10.57,0,0,0-3.19.39,5.77,5.77,0,0,0-3.17,2.49c-.24.37-.77,1.37-1.58,2.95a.59.59,0,0,0-.05.37l-.16.09-.09,0a9.83,9.83,0,0,1-2.9,1.53,1.64,1.64,0,0,0-1.56,1.22,6.32,6.32,0,0,0-.2.92H7.81A11.7,11.7,0,0,1,4.88,17,4.38,4.38,0,0,1,3.5,15.94c-1.3-1.3-2.28-.91-2.74-.57A1.87,1.87,0,0,0,0,16.68a2.74,2.74,0,0,0,.64,1.88,5,5,0,0,0,2.53,1.73A12.6,12.6,0,0,0,7.44,21h.3a2.75,2.75,0,0,0,.06.44,2.08,2.08,0,0,0,1.38,1.64l.16,0h2.45l.28-.07.13-.18a1.31,1.31,0,0,0,.11-1.06c-.16-.82-.66-1.38-1.22-1.3a.48.48,0,0,1-.18,0,.57.57,0,0,1,0-.14,5,5,0,0,0,2.45-1.46,3.37,3.37,0,0,0,.21-.31,12.25,12.25,0,0,0,3.66-.68,15.17,15.17,0,0,0,1.91-.94,2.18,2.18,0,0,1-.05,1.22l0,.1a1.08,1.08,0,0,0,0,1.16l.11.23a18.38,18.38,0,0,0,2.07,2.87,1.56,1.56,0,0,0,.87.59H25l.1,0a.85.85,0,0,0,.49-.52,1,1,0,0,0,0-.73,1.87,1.87,0,0,0-.2-.52,1,1,0,0,0-1.37-.61c-.17.07-.26.1-.41,0a7.51,7.51,0,0,1-1-2.37c0-.12.26-.35.45-.53l.14-.13a3,3,0,0,0,.65-1.19c.47.07,1.34.17,3,.31a14.77,14.77,0,0,0,4.86-.41c.25.79.67,2.4.7,2.58s.06,2,.06,2.38a.76.76,0,0,0,.58.85,1.37,1.37,0,0,0,.53.81l.18.11h.16c.92,0,2.5,0,2.82,0a.61.61,0,0,0,.57-.61A2.34,2.34,0,0,0,36.55,21h0a1.19,1.19,0,0,0-1.09-.26c0-.28,0-1.06.09-2.22.06-.92.49-3,.66-3.85a8.35,8.35,0,0,0,1.32-1.8l.05-.15c.07-.25.29-1,.34-1.17.49-1.38.39-1.67.36-1.79A3.45,3.45,0,0,1,38.22,9a6,6,0,0,0,.89-1.77c.09-.34.16-.54.2-.65a1.06,1.06,0,0,0,.19-.06,1.42,1.42,0,0,1,.62.52l.17.23.22,0a1.89,1.89,0,0,0,1.38-.26L42,7l.06-.15a3.74,3.74,0,0,0,.14-.46,1.76,1.76,0,0,0,.74-.8A1,1,0,0,0,43.31,4.19ZM7.71,20.48a11.82,11.82,0,0,1-4.35-.65C1.31,19,1.17,18.43.84,18s-.62-1.92.25-2.26a1.78,1.78,0,0,1,2.05.57,5.2,5.2,0,0,0,1.55,1.18,10.15,10.15,0,0,0,3.19.69A22.85,22.85,0,0,1,7.71,20.48ZM38.81.35a1,1,0,0,1,.87.48.07.07,0,0,1-.09.11A1.46,1.46,0,0,0,38.47.81a.07.07,0,0,1-.09-.1A.6.6,0,0,1,38.81.35ZM11.05,19.78a5,5,0,0,1,.09-1.12A6.81,6.81,0,0,1,13,18.55,7.6,7.6,0,0,1,11.05,19.78Zm11.73-2.45c-.35.33-.73.63-.75,1a7,7,0,0,0,1.22,2.81.88.88,0,0,0,1,0c.17-.06.43-.1.66.39.13.27.16.36.15.38A.07.07,0,0,0,25,22a.45.45,0,0,1-.16.67H22.24a1.2,1.2,0,0,1-.59-.43,18.32,18.32,0,0,1-2-2.74c-.31-.7-.32-.56-.1-1.1a2.46,2.46,0,0,0,0-1.88.07.07,0,0,1,0-.1A5.81,5.81,0,0,1,21.78,16a10.39,10.39,0,0,1,1.54.05.07.07,0,0,1,.06.09A3.43,3.43,0,0,1,22.78,17.33Zm12.7,3.49h0Zm7.11-15.6a.05.05,0,0,0,0,0,1.32,1.32,0,0,1-.74.73.06.06,0,0,0,0,.06,2.9,2.9,0,0,1-.15.59l0,0a1.47,1.47,0,0,1-1,.18.1.1,0,0,1-.05,0,1.87,1.87,0,0,0-1-.79h-.06a1.16,1.16,0,0,1-.43.13.05.05,0,0,0,0,0,3.52,3.52,0,0,0-.33.94,6,6,0,0,1-.9,1.73.08.08,0,0,0,0,.05,7.44,7.44,0,0,0,.1,1,5.54,5.54,0,0,1-.35,1.47c-.06.18-.35,1.18-.37,1.27v0a7.75,7.75,0,0,1-1.31,1.74l0,0c0,.27-.61,3-.69,4A13.74,13.74,0,0,0,35,21c.08.14.1.4.58.27a.69.69,0,0,1,.71.19c.06,0,.71,1.1.34,1.14s-2.54,0-2.78,0a.05.05,0,0,1,0,0,.88.88,0,0,1-.35-.53c-.08-.37-.17-.36-.3-.36s-.26-.06-.26-.37,0-2.23-.06-2.45-.63-2.45-.84-3h0s-.33-1.15-.34-1.25a2.42,2.42,0,0,1,.21-.42c0-.08-.06-.16-.12-.09l-.33.41a.07.07,0,0,0,0,.06c.05.16.21.79.31,1.18a.09.09,0,0,1-.06.09,14.09,14.09,0,0,1-4.83.43c-1.68-.14-3.15-.48-3.58-.54-3.14-.4-4.28.72-4.28.72a13.92,13.92,0,0,1-1.9.94,11.63,11.63,0,0,1-3.5.66s-2.06-.28-2.93.28c-.46.31-.2,2.35-.18,2.39a.8.8,0,0,0,.7.27c.26,0,.57.35.67.91s0,.7-.08.71H9.32a1.62,1.62,0,0,1-1-1.28,3.91,3.91,0,0,1-.07-.45,24.72,24.72,0,0,1,.23-3.06A4.18,4.18,0,0,1,8.63,17,1.13,1.13,0,0,1,9.76,16a10.16,10.16,0,0,0,3.17-1.63h0A5.13,5.13,0,0,0,15,12.53c.49-.82.23-.75-.17-.1a5.23,5.23,0,0,1-1.35,1.39.08.08,0,0,1-.11-.1c.43-.84,1.24-2.41,1.55-2.91a5.35,5.35,0,0,1,2.92-2.28,11.78,11.78,0,0,1,3.42-.36c.66,0,2.49.32,3,.34a7.24,7.24,0,0,0,1.58-.32c.43-.09,2.28-.57,2.7-.69a16.86,16.86,0,0,0,2.85-1c.36-.29.77-.86,1.17-1.15s.64-.55,1-.63a4,4,0,0,1,.51-.09l0,0,0,0a27.54,27.54,0,0,0,2.62-2.36,2.18,2.18,0,0,0,.28,1l-.16.33c0,.82.16.58.16.58-.12-.25.06-.8.07-.62s.29.38.32.4.19,0,0-.21a.4.4,0,0,1,0-.53V3.07a1.65,1.65,0,0,1-.57-1c0-.18,0-.91.41-1.16a.62.62,0,0,1,.59,0A.6.6,0,0,0,38,1.3l.31.26.31-.13a.94.94,0,0,1,.71.12h0A.55.55,0,0,0,40,1.43c.35.17.76.38,1.07.51a.82.82,0,0,1,.53.86c0,.25,0,.25.12.43a13.26,13.26,0,0,1,1.13,1.22C43.1,4.81,42.68,5.16,42.59,5.22Z"/><path class="cls-1" d="M24.51,21.74v.18A1,1,0,0,1,24.51,21.74Z"/><polygon class="cls-1" points="20.59 18.78 21.19 19.12 21.36 18.92 21.12 18.43 20.59 18.78"/><polygon class="cls-1" points="21.49 17.76 21.22 18.16 21.4 18.6 21.77 18.75 21.88 18.22 22.01 17.95 21.9 17.7 21.49 17.76"/><polygon class="cls-1" points="21.68 18.92 21.64 19.59 22.11 19.68 22.07 19.25 21.68 18.92"/><polygon class="cls-1" points="21.47 16.77 21.42 17.17 21.8 17.51 22 17.11 21.74 16.77 21.47 16.77"/><polygon class="cls-1" points="22.74 17.03 22.86 16.37 22.14 16.45 22.24 17.4 22.74 17.03"/><polygon class="cls-1" points="21.9 20.21 22.13 20.53 22.31 20.42 22.32 20.04 22.05 19.94 21.9 20.21"/><path class="cls-1" d="M1.7,18.44h.35l0-.34,0-.47.45-.11.07-.41-.06-.38.78.09A2.34,2.34,0,0,0,2,16.14c-.65-.06-.89.9-.82,1.29S1.33,18,1.7,18.44Z"/></g></g></svg>
