<svg xmlns="http://www.w3.org/2000/svg" viewBox="0 0 27.15 25.32"><defs><style>.cls-1{fill:#1a2026;}</style></defs><title>Light</title><g id="Layer_2" data-name="Layer 2"><g id="Layer_1-2" data-name="Layer 1"><path class="cls-1" d="M16.9,8.42c-1.6-1.6-4.5-3.9-5.7-2.8L9.8,7a5.78,5.78,0,0,0-1.5,5.8L.9,20.22a2.9,2.9,0,0,0,0,4.2h0a2.9,2.9,0,0,0,4.2,0L12.5,17a6.06,6.06,0,0,0,5.8-1.6L19.7,14C20.8,13,18.5,10,16.9,8.42Zm-7.8,9.2a1,1,0,1,1-1.4-1.4l.7-.7a1,1,0,1,1,1.4,1.4Zm5.7-7.1c-2.1-2.1-3-3.9-2.8-4.2.4-.2,2.1.7,4.3,2.8s3,3.9,2.8,4.2C18.7,13.52,16.9,12.72,14.8,10.52Zm5.92-4.09a.81.81,0,0,0,1.15,0l2.05-2a.84.84,0,0,0,0-1.16.82.82,0,0,0-1.16,0l-2,2A.82.82,0,0,0,20.72,6.43Zm2.72,4.91h2.89a.8.8,0,0,0,.58-.24.83.83,0,0,0,.24-.58.78.78,0,0,0-.24-.57.83.83,0,0,0-.58-.24H23.44a.8.8,0,0,0-.58.24.82.82,0,0,0-.24.57A.84.84,0,0,0,23.44,11.34ZM15.8,3.71a.84.84,0,0,0,.82.81.82.82,0,0,0,.82-.81V.82A.82.82,0,0,0,16.62,0a.82.82,0,0,0-.82.82Z"/></g></g></svg>