<svg xmlns="http://www.w3.org/2000/svg" viewBox="0 0 32 19"><path d="M.9,15.1c.6.3.5.8,1.3.4s.7-.3.9-.8A7.1,7.1,0,0,0,4.2,11a17.1,17.1,0,0,1,.3-3.7A3.9,3.9,0,0,1,7,4.5c2.3-1,4.8-.3,7.1-.1a19.5,19.5,0,0,0,3.4.3l2-.3c.5-.1.9-.8,1.2-1l1.9-.5A11.9,11.9,0,0,0,24.1,2a10.1,10.1,0,0,1,2.4-1c.3-.1.6-.1.8-.4l.8-.6c.2.1.3.6.4.7H29a3.3,3.3,0,0,1,1.3.7l.4.5c.1.2.5.4.6.5s.6.4.7.9v.4a.1.1,0,0,0-.1.1c0,.1-.1.4-.1.5l-.3.2V5l-.4.3c-.3.1-.4,0-.7-.1L29.5,5h-.6c-.3.1-.5.6-1.1.9A4.4,4.4,0,0,0,27,7a1.4,1.4,0,0,0-.3.9,5.9,5.9,0,0,1-.1,1.9,1.5,1.5,0,0,1-.4.9.7.7,0,0,1-.5.3,10.3,10.3,0,0,0-.1,1.8c0,1-.1,1.9-.1,2.9a7.6,7.6,0,0,0-.1,1.5c.2.5.4.3.8.6s.5.4.5.7a1.2,1.2,0,0,1-.2.5H23.7s-.2-1.1-.3-1.5-.6-3.4-.9-5.1,0-.5-.4-.5a9.9,9.9,0,0,0-1.7.2l-2.3.3a9.7,9.7,0,0,1-5.3-.7c-1.2-.5-1.1-.8-1.4-.7a.7.7,0,0,0-.4.5,11.3,11.3,0,0,0-1.1,2.2,2.6,2.6,0,0,0-.1,2.7c.2.5.2.9.6,1.1s1.1.3,1.1,1a1.2,1.2,0,0,1-.2.5H9.2l-.5-.3a11.5,11.5,0,0,1-1.2-2.5c-.5-1.2-.1-1-.1-2.3a3.2,3.2,0,0,0-1.3,2.4c0,.4-.1.9.1,1.2s.5.2.6.4a1.5,1.5,0,0,1,.3.7l-.4.4H4.5a4.1,4.1,0,0,1-.2-.9,27.2,27.2,0,0,1,.1-2.8c0-.9-.2-.8.2-1.3s.8-.7,1-1.1a5.7,5.7,0,0,0,.1-2.6V7.1c-.5.6-.5,2.2-.6,3.5a10.1,10.1,0,0,1-.7,3,3.8,3.8,0,0,1-.9,1.8,2.1,2.1,0,0,1-1.1.7,2.8,2.8,0,0,1-1.3.3A1,1,0,0,1,.1,16a1.9,1.9,0,0,1-.1-.8A1.5,1.5,0,0,1,.9,15.1Z"/></svg>
