<svg xmlns="http://www.w3.org/2000/svg" width="41.3" height="29.2" viewBox="0 0 41.3 29.2">
  <title>Lion Carcass</title>
  <g id="Layer_2" data-name="Layer 2">
    <g id="Layer_1-2" data-name="Layer 1">
      <g>
        <path d="M14.5,7.9a1.1,1.1,0,0,0,1.3.1h.4c.4.2.5.6.7.9h.4a1,1,0,0,1,.7,1,.1.1,0,0,0,.1-.1c0,.1.1.4.2.4h0c.2.2,0,.5,0,.7a3,3,0,0,1-.4,1.5c-.2.7-.3,1.4-.9,1.8s-.7,0-1,.1-1,.2-.9.7.4.3.7.4h1.5c.5,0,.7-.3,1-.6l.9-1.3.5-.6.3-.4a4.1,4.1,0,0,0,.5-.9.4.4,0,0,1,.1-.3h0c.1,0,.1.2.1.2s.1-.4.1-.4l.2.3c.1-.1.5-.6.6-.6v.4a.3.3,0,0,1,.1-.2c.1,0,.1.1.1.2h.4c0,.1.1.2.1.3s.1-.2.2-.2V11l.2-.3.2.3.2-.4v-.1l.2.2v-.5c.1,0,.2.4.2.5s.1-.1.1-.2l.2.4.2-.3h.1v-.5l.2.2c.1,0,0-.3,0-.4h.2V9.8l.2.4a4,4,0,0,1,.3,1.5c.2.8,1.1,2.7.1,2.8s-.9.7-.4.9h.8l1-.2c.4-.2.4-.9.4-1.3s-.1-.6-.1-1,0-1.2-.1-1.9a3.3,3.3,0,0,1,0-1.4c0-.3,1.4-.2,1.5-.2A4.8,4.8,0,0,0,31.3,8q.1-.3.3,0l.8,1.8a10.8,10.8,0,0,1,1.5,2.8,2.7,2.7,0,0,1-.6,1.9h-.2a1.1,1.1,0,0,0-.8.1.4.4,0,0,0-.2.5c0,.2.1.3.4.4a3.3,3.3,0,0,0,1.4-.1c.4-.2.5-.6.7-.9a.5.5,0,0,0,.2-.4,6.4,6.4,0,0,0,.8-2c0-.1-.1-.3-.1-.4l-.6-1.5h.2c.7.5,1.6,1.1,1.8,2a4.2,4.2,0,0,1,0,1.6,4.1,4.1,0,0,0-.3.8c0,.2-.2.2-.3.2s-.8.4-.7.6a.4.4,0,0,0,.4.4h1.1a.8.8,0,0,0,.7-.4,6.7,6.7,0,0,0,.5-1.9,13.1,13.1,0,0,0-.1-2.8c0-.3-.3-.4-.5-.6s-1.1-.9-1.3-1.6a5.9,5.9,0,0,1-.1-1.9v-1c0-.2-.1-.9.2-1s.3.4.4.5a7.9,7.9,0,0,1,.6,2.2c.3,1.4.3,3,1.4,4.1a2.3,2.3,0,0,0,1.4.8c.3.1.8.3,1-.3s-.4-.4-.8-.4l-1.2-.4c-1-.6-1-2.1-1-3.2a8.4,8.4,0,0,0-1.1-4.1,5.7,5.7,0,0,0-4.6-2.2,17.5,17.5,0,0,0-4,.4l-1,.2a6.7,6.7,0,0,1-2,.1c-.9-.1-1.5-.9-2.4-1.3a6.8,6.8,0,0,0-2-.7C20.1.1,19,.3,18,.2s-1.9-.7-2.9.9-.2,1.2-.3,1.8-.3.4-.5.6-.1.7-.2,1-.9.9-.8,1.5.3.3.4.7S14.5,7.8,14.5,7.9Z" fill="#1a2026" fill-rule="evenodd"/>
        <path d="M2.4,10.1c-.4,0-.8-.1-1.1.2l-.8,1a2.1,2.1,0,0,0-.2,2.4c.4.6,1.4,1.3,2.1,1a2.6,2.6,0,0,1,2.6.7c2,1.5,2.2,2.1,3.9,3.8s3,3.2,4.4,4.9,1.7,1.8,1.5,3-.4,1.9.9,1.9.7-.1,1.2.1.9-.3,1.1-.7a1.5,1.5,0,0,1,.6-1.1c.3-.2.3-.5.5-.8s1.5-1.4.5-2-.5-.6-.8-.8l-.9-.2a5.1,5.1,0,0,1-1.7-.7,11.2,11.2,0,0,1-2.4-1.9l-3-3L7.4,14.2a5.2,5.2,0,0,1-1.7-2.6A2.9,2.9,0,0,0,4.4,9.8l-.7-.6c-.5-.1-1,.5-1.3.8Z" fill="#1a2026"/>
      </g>
    </g>
  </g>
</svg>
