<svg xmlns="http://www.w3.org/2000/svg" width="31" height="26.3" viewBox="0 0 31 26.3">
  <title>Lion Sighting</title>
  <g id="Layer_2" data-name="Layer 2">
    <g id="Layer_1-2" data-name="Layer 1">
      <g>
        <path d="M1.3,17.8a1.2,1.2,0,0,0,1.4.1h.4c.4.2.5.7.8,1s.4-.1.4-.1a1,1,0,0,1,.8,1.1v-.2c0,.1.2.4.2.5h.1c.1.1,0,.5,0,.6A5.3,5.3,0,0,1,5,22.4a2.9,2.9,0,0,1-1.1,1.9,1.7,1.7,0,0,1-1,.1c-.3,0-1.1.3-1,.7s.5.4.8.5H4.3a1.3,1.3,0,0,0,1-.7,7.1,7.1,0,0,0,1-1.4l.5-.6c.1-.1.3-.2.4-.4a3.1,3.1,0,0,0,.5-1,.4.4,0,0,1,.1-.3c0-.1,0-.1.1-.1v-.3l.3.4.6-.7v.2c.1,0,.1.2.1.3h.4l.2.3c0-.1.1-.2.2-.3V21c.1,0,.1-.1.2-.2l.2.3c0-.1.1-.2.2-.4s.1.2.1.3.1-.3.1-.5l.2.3v-.5c.2,0,.3.4.3.5v-.2c.1,0,.1,0,.2.4s.1-.3.2-.4h.1v-.5l.2.2c.1,0,0-.4,0-.5l.2.2v-.3a2.6,2.6,0,0,1,.2.5,4.2,4.2,0,0,1,.4,1.6c.2.8,1.2,2.8,0,3s-.9.7-.3.9h1.9c.4-.3.4-1.1.4-1.5s-.1-.7-.1-1a16.5,16.5,0,0,0-.2-2.1,8.1,8.1,0,0,1,.1-1.5c0-.3,1.4-.2,1.6-.2a5.1,5.1,0,0,0,3-1.7c.1-.1.2-.1.3.1l.9,1.9a12,12,0,0,1,1.5,3,2.4,2.4,0,0,1-.6,2h-.2a1.2,1.2,0,0,0-.8.2.5.5,0,0,0-.3.5c0,.2.2.3.4.4a4.2,4.2,0,0,0,1.6-.1,2.3,2.3,0,0,0,.8-.9.5.5,0,0,1,.2-.4,15.2,15.2,0,0,0,.8-2.2c0-.2-.1-.3-.1-.5a8.5,8.5,0,0,1-.7-1.6l.2.2a4.1,4.1,0,0,1,2,2.1,3.9,3.9,0,0,1-.1,1.8c0,.2-.2.5-.2.8s-.2.1-.4.1-.8.5-.7.7.3.4.5.4h1.1c.4,0,.5-.2.7-.5a5.1,5.1,0,0,0,.6-2.1,14.3,14.3,0,0,0-.1-2.9,1.3,1.3,0,0,0-.6-.7,3.7,3.7,0,0,1-1.3-1.7,6.5,6.5,0,0,1-.2-2c0-.3.1-.7.1-1.1s-.1-1,.1-1.1.4.4.5.5a10.5,10.5,0,0,1,.6,2.4c.3,1.6.4,3.2,1.5,4.4a2.7,2.7,0,0,0,1.5.9c.3.1.9.3,1.1-.3s-.5-.4-.8-.5l-1.3-.4c-1.1-.6-1.1-2.3-1.1-3.4a8.6,8.6,0,0,0-1.2-4.4,5.9,5.9,0,0,0-5-2.3,19.8,19.8,0,0,0-4.2.3l-1.1.2a7.5,7.5,0,0,1-2.1.2c-1-.1-1.7-1-2.6-1.4a8.3,8.3,0,0,0-2.2-.8c-1.1-.2-2.3,0-3.4-.1s-2-.7-3.1,1-.2,1.2-.3,1.9a1.8,1.8,0,0,1-.5.7c-.2.3-.1.7-.3,1.1s-.9.9-.8,1.5.4.3.4.8S1.3,17.7,1.3,17.8Z" fill="#1a2026" fill-rule="evenodd"/>
        <path d="M21.4,6.6a1.7,1.7,0,0,0,1,.3,1.6,1.6,0,0,0,.9-.3A3.9,3.9,0,0,0,27.1,10,4,4,0,0,0,31,6.1a3.8,3.8,0,0,0-1.2-2.7l-.3-.3h0L28,1.9a3.2,3.2,0,0,0-1.9-.7h.1L25.3.4h0a1.1,1.1,0,0,0-.9-.4A1.4,1.4,0,0,0,23,1L22.4.8h-.1l-.6.2a1.4,1.4,0,0,0-1.4-1,1.8,1.8,0,0,0-.9.4h0l-.9.9h.1a4,4,0,0,0-1.9.7L15.2,3.1h0l-.3.3a3.9,3.9,0,0,0-1.1,2.8A3.8,3.8,0,0,0,17.6,10,3.9,3.9,0,0,0,21.4,6.6Zm5.1-3h.6a2.6,2.6,0,0,1,2.6,2.6,2.5,2.5,0,0,1-2.6,2.6,2.6,2.6,0,0,1-.6-5.1Zm-4.1.5a.9.9,0,0,1,.8.8.9.9,0,0,1-.8.9.9.9,0,0,1-.9-.9A.9.9,0,0,1,22.4,4.1ZM17.6,8.7A2.5,2.5,0,0,1,15,6.1a2.6,2.6,0,0,1,2.6-2.6h.6a2.6,2.6,0,0,1-.6,5.1Z" fill="#1a2026"/>
      </g>
    </g>
  </g>
</svg>
