<svg xmlns="http://www.w3.org/2000/svg" viewBox="0 0 32 32"><path d="M31.1,27a2.9,2.9,0,0,1-1.3-.5c-1.3-.6-1.2-2.4-1.2-3.6a9,9,0,0,0-1.2-4.6A6.7,6.7,0,0,0,22,15.7a34.2,34.2,0,0,0-4.5.4l-1.2.2a5.5,5.5,0,0,1-2.2.2c-1.1-.1-1.8-1-2.7-1.5A11.3,11.3,0,0,0,9,14.2c-1.2-.2-2.5,0-3.7-.1s-2.1-.7-3.3,1-.2,1.4-.3,2.1a1.8,1.8,0,0,1-.5.7c-.3.3-.1.8-.3,1.2s-1,.9-.9,1.6.4.3.4.9a7.3,7.3,0,0,0,1,1.3,1.2,1.2,0,0,0,1.4.2c.2-.1.4-.2.5-.1s.6.7.9,1.1.4-.1.4-.1a1,1,0,0,1,.8,1.1h.1a1.7,1.7,0,0,0,.2.5c0-.1,0-.1.1-.1s-.1.5-.1.7a2.7,2.7,0,0,1-.4,1.7,3.3,3.3,0,0,1-1.1,2.1c-.3.2-.7,0-1.1.1s-1.2.3-1,.8.5.4.7.4a10.7,10.7,0,0,0,1.8,0,1.8,1.8,0,0,0,1.1-.8l1.1-1.5.5-.6.3-.4a2.7,2.7,0,0,0,.6-1.2c0-.1.1-.2.1-.3h.1v.3a4.3,4.3,0,0,1,.1-.5,1.5,1.5,0,0,1,.2.4l.7-.8v.5a.2.2,0,0,1,.2-.2v.2h.5c0,.1.1.3.1.4s.2-.2.2-.3v.2l.2-.2c0,.1.1.2.2.3a1.7,1.7,0,0,1,.2-.5c0,.1.1.2.1.3a.6.6,0,0,0,.1-.4.2.2,0,0,1,.2.2v-.5c.1,0,.2.4.2.6s.1-.2.1-.3.2.1.3.4.1-.2.1-.4h.2a.8.8,0,0,1,0-.5l.2.2c.1,0,.1-.4,0-.5l.2.2c0-.1.1-.2.1-.4a1.7,1.7,0,0,0,.3.6,8.5,8.5,0,0,1,.4,1.7c.1.9,1.2,3,0,3.2s-1,.7-.4,1a2.7,2.7,0,0,0,.9,0h1.2c.4-.2.4-1.1.4-1.5s-.1-.8-.1-1.1a18,18,0,0,0-.2-2.2,8.5,8.5,0,0,1,0-1.6c.1-.3,1.6-.3,1.8-.3A5.1,5.1,0,0,0,20.6,23q.1-.3.3,0a20,20,0,0,0,1,2.1,12,12,0,0,1,1.6,3.2,2.4,2.4,0,0,1-.7,2.1c0,.1-.1.1-.1,0a1.6,1.6,0,0,0-1,.2.5.5,0,0,0-.3.5.6.6,0,0,0,.5.5,4.9,4.9,0,0,0,1.7-.1c.4-.2.6-.7.8-1l.2-.5a8.5,8.5,0,0,0,.8-2.2.7.7,0,0,0-.1-.6c-.2-.5-.6-1.6-.6-1.7l.2.2A4.5,4.5,0,0,1,27,27.9a6.7,6.7,0,0,1-.1,1.9,3.2,3.2,0,0,1-.3.9c0,.2-.2.2-.4.2s-.8.5-.7.7.3.4.5.4h1.2a.9.9,0,0,0,.8-.5,9,9,0,0,0,.6-2.2,16.1,16.1,0,0,0-.1-3.1,1.7,1.7,0,0,0-.6-.8,4.4,4.4,0,0,1-1.5-1.8,5,5,0,0,1-.1-2.1V20.3c0-.2-.1-1.1.2-1.2s.4.5.4.6a10.4,10.4,0,0,1,.8,2.5c.2,1.7.3,3.4,1.6,4.7a2.5,2.5,0,0,0,1.6,1c.3,0,.9.3,1.1-.4S31.5,27.1,31.1,27Z"/><path d="M18.8,12.2h12a1.1,1.1,0,0,0,1-.6,1.1,1.1,0,0,0,0-1.3L25.8.6a1.1,1.1,0,0,0-1-.6,1.1,1.1,0,0,0-1.1.6l-6,9.7a1.5,1.5,0,0,0,0,1.3A1.1,1.1,0,0,0,18.8,12.2Zm6.8-2a.8.8,0,0,1-.8.7.8.8,0,0,1-.9-.7V10a.9.9,0,0,1,.9-.8.9.9,0,0,1,.8.8Zm-.8-7.6a1.1,1.1,0,0,1,1,1.2l-.3,3.8a.7.7,0,0,1-.8.7c-.4,0-.6-.3-.7-.7l-.3-3.8A1.1,1.1,0,0,1,24.8,2.6Z"/></svg>
