<svg xmlns="http://www.w3.org/2000/svg" viewBox="0 0 32 19.8"><path d="M31.9,13.4a1.8,1.8,0,0,1-.9.7c-1,.5-.5,2.2-.5,2.2s-1.2.8-1.2.8S27.1,14,27.1,14s-1.7-5.4-1.7-5.4a1.6,1.6,0,0,0-.3-.6,15.6,15.6,0,0,0-2.6-2.1c-1-.6-4.2-.1-4.2-.1A12,12,0,0,1,15,5.7l-3.6-.6H11l.7-.7H10.2l.5-.3-.5-.2V3.4H9.5l1.1-.5-.8-.2a2.7,2.7,0,0,0-1.4-.8l.2-.3H6.9L6.4.9l-.2.3L4.8.1V.3L3.8.1V.6L2.8,0l.7.7L1.4,1l.9.2-.9.2,1.1.2L1.3,2v.4l-.8.3.3.5-.3.7H.9a2.1,2.1,0,0,0-.1.6,4.1,4.1,0,0,1-.1.9A4.2,4.2,0,0,0,0,6.6c0,.3.4.6.4.6s.2.7.5.9A1.3,1.3,0,0,0,2.5,8,1.2,1.2,0,0,0,3,7.5c.2-.1.3-.3.4-.4s.4-.4.5-.3l.3.2V8.1l.4-.6V8.6L5.4,8,5,9.4l.8,1.2V11l-.6,5.8c-.2.9-.9.9-.9.9H3.5c-.8.3-.1.9-.1.9H4.8a3.9,3.9,0,0,0,2.1-1.2l1.1-4,.2-.8c.3-.6,1.2.5,1.2.5s.2,4.2.2,4.2-.8.9-.8.9l-1,.3a.7.7,0,0,0-.2,1.1H9.8c1.7-.2,1.5-2.3,1.5-2.3a8.8,8.8,0,0,1,.6-3.6c.2-.9.6-.9.9-.9h0l3,.5a8.5,8.5,0,0,0,3.5-.9,3.5,3.5,0,0,1,1.2,2.6,1.7,1.7,0,0,1-1.2,1.4c-.9-.3-1.1.1-1.1.1s-.2.9-.2.9,2.2.1,2.2.1l2.2-1.5c.5-.4.3-.6.3-.6a2.2,2.2,0,0,1-.2-2.4L24.3,15c1.7,1.7.7,2.6.7,2.6s-1.3.3-1.3.3-.2,1-.2,1a2.5,2.5,0,0,0,2.2,0c.8-.3,1.3-2.5,1.3-2.5s-.4-1.1-.4-1.1a6.1,6.1,0,0,1-.9-1.3,9.4,9.4,0,0,1-.4-3.2,6.7,6.7,0,0,1,.4,1.2c.2.8,2,4.6,2,4.6s2,1.2,2,1.2,1.6-1.4,1.6-1.4.4-1.6.4-1.6a4.1,4.1,0,0,1,.2-1.4Z"/></svg>
