<svg xmlns="http://www.w3.org/2000/svg" viewBox="0 0 32 17.9"><path d="M32,4l-.6-.6a3.4,3.4,0,0,1-.6-.6l-.4-.5c0-.2-.1-.2-.2-.4l-.3-.4c-.3-.3-.6-.3-.7-.4L27.8.7s-.7-1-1.4-.6-.5,1.2-.5,1.2a6.6,6.6,0,0,1-1,1.1,7.6,7.6,0,0,1-3.2,1.7,12.8,12.8,0,0,1-3.4.1c-2.1,0-4.8-.2-6.8.4S8.3,7.7,6.8,9.5A5.1,5.1,0,0,1,3.9,11c-1.1.2-2.8.1-3.8.6a.4.4,0,0,0-.1.3c.8.8,4.4.1,5.2-.1a6.6,6.6,0,0,0,4-2.9A7.8,7.8,0,0,1,8.8,11a5.8,5.8,0,0,1-1.9,1.5c-.9.6-.6.5-.5,2.1A8.3,8.3,0,0,0,6.7,17a3.7,3.7,0,0,1,.2.9H9.5a3.5,3.5,0,0,0,.1-.7c-.3-1.1-1.4-.7-1-2.3s1.1-1.1,1.9-1.5-.7,1.4-.7,1.8a11,11,0,0,0,.9,2.1l.6.6h2.4s.3-.3.2-.5-1.7-.8-1.5-2.2a12.7,12.7,0,0,1,1.5-3.1,13.4,13.4,0,0,0,6.3-.1c.9-.1.7-.3,1.1.3a8,8,0,0,1,.3,1.5c.2,1.2.2,2.3.5,3.4a2.4,2.4,0,0,0,.3.7h2.7a2,2,0,0,0,.2-.6c0-.5-.9-1-1-1.2a15.4,15.4,0,0,1,.2-1.9,9.4,9.4,0,0,1,.7-3.4c.2-.3.7-.4,1-.7l1-1.6c.2-.4.3-.9.5-1.2a7.1,7.1,0,0,1,1.4-1h1.5a.2.2,0,0,0,.3,0l.3-.3c.1-.1.1-.4.1-.4l.3-.3a.8.8,0,0,0,.1-.4.1.1,0,0,1,.1-.1l.2-.3Z"/></svg>
