<svg xmlns="http://www.w3.org/2000/svg" viewBox="0 0 32 18.1"><defs><style>.a{fill:#1c232b;fill-rule:evenodd;}</style></defs><path class="a" d="M1.4,9a1.2,1.2,0,0,0,1.4.2h.5c.5.2.6.7.9,1s.4-.1.4-.1a1,1,0,0,1,.8,1.1h.1a1.1,1.1,0,0,0,.2.5h.1c.1.1-.1.5-.1.7A3.2,3.2,0,0,1,5.3,14a3.1,3.1,0,0,1-1.1,2c-.3.2-.7,0-1.1.1s-1.2.3-1,.8.5.4.7.4H4.6a1.8,1.8,0,0,0,1.1-.8L6.8,15l.5-.6.3-.4a2.4,2.4,0,0,0,.6-1.1v-.3h.1v-.3l.2.4.7-.7v.4c0-.1.1-.1.2-.2v.2h.5c0,.1.1.3.1.4l.2-.3v.2l.2-.2.2.3.2-.5v.3c.1-.1.1-.2.1-.4l.2.2a2,2,0,0,0,.1-.5c.1,0,.2.5.2.6s.1-.2.1-.3.2.1.3.4v-.3h.2a1.1,1.1,0,0,1,0-.6l.2.2c.1,0,.1-.4,0-.5l.2.2v-.3l.3.5a8.5,8.5,0,0,1,.4,1.7c.1.9,1.2,3.1,0,3.2s-1,.7-.4,1h.9l1.2-.2c.4-.2.4-1.1.4-1.5s-.1-.7-.1-1.1a18,18,0,0,0-.2-2.2,8.5,8.5,0,0,1,0-1.6c.1-.3,1.6-.3,1.8-.3a5.1,5.1,0,0,0,3.2-1.7c.1-.2.2-.2.3.1l1,2a12,12,0,0,1,1.6,3.2,2.4,2.4,0,0,1-.7,2.1.1.1,0,0,1-.1.1,1.1,1.1,0,0,0-1,.1.5.5,0,0,0-.3.5.6.6,0,0,0,.5.5,4.9,4.9,0,0,0,1.7-.1c.4-.2.6-.7.8-1l.2-.4a9.1,9.1,0,0,0,.8-2.3.4.4,0,0,0-.1-.5l-.6-1.7h.2A4.5,4.5,0,0,1,27,14a6.7,6.7,0,0,1-.1,1.9,3.2,3.2,0,0,1-.3.9c0,.2-.2.2-.4.2s-.8.5-.7.7.3.4.5.4h1.2a.9.9,0,0,0,.8-.5,9,9,0,0,0,.6-2.2,16.1,16.1,0,0,0-.1-3.1,1.7,1.7,0,0,0-.6-.8,4.4,4.4,0,0,1-1.5-1.8,4.9,4.9,0,0,1-.1-2.1V6.4c0-.2-.1-1.1.2-1.2s.4.5.4.6a12.1,12.1,0,0,1,.8,2.5c.2,1.7.3,3.5,1.6,4.7a2.5,2.5,0,0,0,1.6,1c.3,0,.9.3,1.1-.4s-.5-.4-.9-.5l-1.3-.4c-1.3-.7-1.2-2.5-1.2-3.6a9.4,9.4,0,0,0-1.2-4.7A6.4,6.4,0,0,0,22,1.9a22.7,22.7,0,0,0-4.5.3l-1.2.3-2.2.2c-1.1-.2-1.8-1.1-2.7-1.6A11.3,11.3,0,0,0,9,.3C7.8.1,6.5.3,5.3.2S3.2-.5,2,1.2s-.2,1.4-.3,2.1a1.8,1.8,0,0,1-.5.7c-.3.4-.1.8-.3,1.2s-1,.9-.9,1.6.4.4.4.9A7.3,7.3,0,0,0,1.4,9Z"/></svg>
