<svg xmlns="http://www.w3.org/2000/svg" viewBox="0 0 23.67 22.98">
    <defs>
        <style>.cls-1{fill:#1a2026;}</style>
    </defs>
    <g id="Layer_2" data-name="Layer 2">
        <g id="Layer_1-2" data-name="Layer 1">
            <path class="cls-1"
                  d="M17.09,8.59V0h2.78a9.82,9.82,0,0,1,2.07.13A2.25,2.25,0,0,1,23.17,1a2.67,2.67,0,0,1,.5,1.67A2.81,2.81,0,0,1,23.38,4a2.34,2.34,0,0,1-.73.85,2.6,2.6,0,0,1-.9.41,10.09,10.09,0,0,1-1.8.12H18.82V8.59Zm1.73-7.14V3.89h.95a4.49,4.49,0,0,0,1.37-.13,1.12,1.12,0,0,0,.55-.43,1.14,1.14,0,0,0,.19-.66,1.14,1.14,0,0,0-.27-.78,1.24,1.24,0,0,0-.7-.38,8.16,8.16,0,0,0-1.25-.06Z"/>
            <path class="cls-1"
                  d="M8.85,18.14a1.84,1.84,0,0,0,1.4-1.4,1.17,1.17,0,0,0-.07-.76,1.62,1.62,0,0,0-.31,0,1.31,1.31,0,0,0-.28,0,4,4,0,0,0-.31.41,3,3,0,0,1-.37.43,3,3,0,0,1-.43.37l-.4.31a1.71,1.71,0,0,0,0,.32.74.74,0,0,0,0,.26A1.11,1.11,0,0,0,8.85,18.14Z"/>
            <path class="cls-1"
                  d="M11.54,19.43a4,4,0,0,0,1-1.53,2.73,2.73,0,0,0,.15-1.3,2,2,0,0,0-.76-.17c-.15.24-.13.67-.35,1a5.27,5.27,0,0,1-2,2c-.37.22-.8.25-1,.39a2.39,2.39,0,0,0,.09.45.77.77,0,0,0,.07.26A2.67,2.67,0,0,0,10,20.38,4.07,4.07,0,0,0,11.54,19.43Z"/>
            <path class="cls-1"
                  d="M14.8,17.07a3.62,3.62,0,0,0-.4-.1,12.1,12.1,0,0,1-.61,1.62,7.7,7.7,0,0,1-3.08,3.09,4.5,4.5,0,0,1-1.55.53,2.52,2.52,0,0,0,0,.52c0,.16.07.25.1.25a4.73,4.73,0,0,0,1.86-.35,6.37,6.37,0,0,0,3.6-3.6,4.57,4.57,0,0,0,.36-1.86S15,17.09,14.8,17.07Z"/>
            <path class="cls-1"
                  d="M9,14a6.58,6.58,0,0,0,1.94-9.1l-.16-.22A6.49,6.49,0,0,0,8.9,3,6.77,6.77,0,0,0,6.68,2.1a6.48,6.48,0,0,0-4.11.55A7.09,7.09,0,0,0,.07,4.47c-.22.27.14.53.28.61a.26.26,0,0,0,.33,0A6,6,0,0,1,2.92,3.42a5.81,5.81,0,0,1,3.54-.3,5.84,5.84,0,0,1,1.83.79,5.53,5.53,0,0,1,2.34,3.45,5.47,5.47,0,0,1-2.32,5.72l-.49.31-.52.36a9.06,9.06,0,0,0-.91.84,6.27,6.27,0,0,0-.75.95q-.16.26-.3.51a5.45,5.45,0,0,0-.25.55c-.07.18-.13.37-.18.55l-.07.26-.06.21A2.36,2.36,0,0,1,1.69,19c-.38-.14-.62-.55-.89-.85-.26-.1-.33.13-.46.23a.23.23,0,0,0-.09.31,3,3,0,0,0,3,1.25,3.17,3.17,0,0,0,1.87-1,3.33,3.33,0,0,0,.63-1c0-.1.07-.19.1-.29l.07-.24c0-.15.11-.3.17-.45s.14-.29.22-.42l.27-.44a8.27,8.27,0,0,1,.65-.79,6.4,6.4,0,0,1,.8-.68,4.37,4.37,0,0,1,.44-.31Z"/>
            <path class="cls-1"
                  d="M6.83,10.69l-.2.14L6.37,11a8.92,8.92,0,0,0-.92.7,6.8,6.8,0,0,0-1.36,1.57,5.79,5.79,0,0,0-.81,1.46c0,.09.2.25.36.29s.38.09.41,0a6.46,6.46,0,0,1,.67-1.34A7.27,7.27,0,0,1,6,12.43a8.32,8.32,0,0,1,.87-.59l.24-.13c.08-.06.19-.11.28-.18A3.64,3.64,0,0,0,9.05,8.46,3.74,3.74,0,0,0,5.3,4.74l-.44,0A4.27,4.27,0,0,0,2.18,6.14,4.46,4.46,0,0,0,1.39,7.4a3.65,3.65,0,0,0-.24,1.46v0a.55.55,0,0,0,.58.51l.11,0h0A.31.31,0,0,0,2,9.31a1,1,0,0,1,.65-.15,1,1,0,0,1,.59.29,1.06,1.06,0,0,1,.23,1.18,1,1,0,0,1-.37.46l-.62.44c-.39.26-.79.43-1.1.65-.07.05,0,.3.08.44s.24.29.31.25c.34-.17.69-.47,1.12-.7L3.21,12l.17-.1.09,0,.1-.06A1.91,1.91,0,0,0,4.29,11,2,2,0,0,0,4,8.74a2.11,2.11,0,0,0-1.17-.63,1.7,1.7,0,0,0-.45,0,1.14,1.14,0,0,1,.09-.26A3.16,3.16,0,0,1,5,6a2.63,2.63,0,0,1,1.84,4.73Z"/>
        </g>
    </g>
</svg>
