<svg xmlns="http://www.w3.org/2000/svg" width="42.7" height="27.7" viewBox="0 0 42.7 27.7">
  <title>Livestock Movement</title>
  <g id="Layer_2" data-name="Layer 2">
    <g id="Layer_1-2" data-name="Layer 1">
      <g>
        <path d="M42.3,14.1l-.6-.8-.4-.6a.4.4,0,0,0-.4-.4c0-.1-.1-.3-.5-.3a.4.4,0,0,0-.6-.2.8.8,0,0,0-.7,0,.7.7,0,0,0-.6.3.7.7,0,0,0-.6.3l-.5.4-.4.3-.4.3-.3.3-.4.2h-.2l-.4.2h-.7c-.2,0-.3-.1-.4.1s-.4,0-.6,0-.3-.1-.4.1-.4-.2-.6-.2-.4-.1-.5.1-.3-.2-.5-.2h-.4c-.1-.2-.4-.2-.6-.2h-.4l-.6-.2c-.2,0-.5,0-.6.2h-.1l-.4-.2H26.7v-.8h.1L27,13l.2-.3c.1,0,.2-.2.3-.3l.2-.3h0a.4.4,0,0,0,.4-.3l.4-.3.3-.4.2-.4a.8.8,0,0,0,.2-.5c.2-.1.2-.2.2-.4V9.3a.4.4,0,0,0,.1-.3c.1-.1.1-.2.1-.4l.3-.3.3-.3.3-.3.2-.2.3-.4h.8c.2,0,.3-.1.4-.3a.4.4,0,0,0,.2-.5c.2-.4-.1-.7-.3-.9l-.5-.7-.3-.6L31,3.9c0-.1-.1-.3-.4-.3a.4.4,0,0,0-.5-.1.6.6,0,0,0-.6,0c-.2-.1-.5.1-.6.2s-.4.1-.5.3l-.5.3-.3.3c-.1,0-.2.2-.3.3l-.3.2-.3.2h-2c-.2,0-.3-.1-.4.1s-.3-.2-.5-.2H22.6a.4.4,0,0,0-.5-.2H17.7l-.4.2-.5.2c-.1.1-.4.2-.4.4s-.3.1-.4.3-.2.3-.1.5h-.1l-.2.3-.3.4a.8.8,0,0,0-.2.4.8.8,0,0,0,0,.7c0,.2.3.4.4.2v.7c0,.2.1.5.2.5s0,.3.1.4l.2.2a.4.4,0,0,0,.1.3.7.7,0,0,0,.1.5.4.4,0,0,0,0,.5.6.6,0,0,0-.1.4V13c-.1.2-.1.3-.2.4s-.2.3-.1.5a12.3,12.3,0,0,1,.2,1.9c0,.3,0,.5.2.4s.1.2.1.3-.1.1,0,.2,0,.3.2.3H17c.2,0,.1-.2.1-.3s-.1-.3-.2-.4-.1-.2-.1-.4a8.6,8.6,0,0,0-.1-1.5,1.3,1.3,0,0,1,.1-.6l.3-.4v.2a6.4,6.4,0,0,1,.6,1.8c0,.3.1.5.2.5s.1.1.1.2,0,.2.1.2.1.3.2.3H19c.2,0,.1-.2,0-.3l-.2-.3a.8.8,0,0,1-.2-.5l-.4-1.5a1.3,1.3,0,0,1,.1-.6c0-.2.2-.3.3-.5l.3-.3.3-.3c.2,0,.4-.1.4-.3s.3.1.3,0h4.6l.3.3c0,.1,0,.2.1.2v1.4l-.5.2a.7.7,0,0,0-.4.5.5.5,0,0,0-.5.3c-.1.2-.3.4-.2.6h0l-.3.4-.3.4c-.2.1-.2.3-.2.5a.6.6,0,0,0,0,.8c0,.3.3.4.4.2v.4c-.1.1,0,.4.1.5s0,.5.1.5a.8.8,0,0,0,.2.5.3.3,0,0,0,.1.2l.2.4a1.3,1.3,0,0,0,.1.6.4.4,0,0,0,0,.5.7.7,0,0,0-.1.5.7.7,0,0,0-.1.5l-.3.4a1.3,1.3,0,0,0-.1.6,7.8,7.8,0,0,1,.3,2.2c0,.3,0,.5.2.4s.1.2.1.4-.1.1,0,.2a.5.5,0,0,0,.2.4h.7c.3,0,.2-.2.1-.3a.5.5,0,0,0-.2-.4,4.3,4.3,0,0,1-.1-.5,12.8,12.8,0,0,0-.1-1.8,1.3,1.3,0,0,1,.1-.6l.3-.5c.1,0,.1.1.1.2a7.9,7.9,0,0,1,.6,2.2c.1.3.1.5.3.4s.1.2.1.4v.2a.5.5,0,0,0,.2.4H27c.3,0,.1-.3,0-.4s-.1-.2-.2-.3-.2-.3-.2-.5-.4-1.4-.4-1.8a1.6,1.6,0,0,1,0-.7c0-.2.2-.4.4-.6l.3-.3a.8.8,0,0,0,.4-.4.5.5,0,0,0,.5-.3c.1,0,.2.1.3,0a.6.6,0,0,0,.6.1h.5a.7.7,0,0,0,.6.1.6.6,0,0,0,.7.1h.6c.2,0,.4.1.6,0h1.7c0,.2.2.3.3.4l.2.3H34c0,1,.1,2.1,0,3s-.1.5.2.4.1.2.1.3-.1.1,0,.2.1.3.2.3.6.1.8,0,.1-.2,0-.3l-.2-.3c-.3-.4-.2-1-.3-1.5s.1-1.2.1-1.9h.2c0,1.1.1,2,.1,3.1s0,.5.2.4.1.1.1.3v.2a.3.3,0,0,0,.3.3h.8c.2,0,.1-.2,0-.3s-.2-.2-.2-.3a4.7,4.7,0,0,1-.4-1.6V23.2h0l.3-.3c.1-.1.2-.2.2-.3s.3-.2.3-.3l.3-.4h0c.2-.1.5-.2.5-.4s.3-.2.4-.4.3-.2.3-.4a.5.5,0,0,0,.3-.5l.3-.5A.9.9,0,0,0,39,19l.2-.4c0-.1.1-.3.1-.4s.1-.3.2-.4a.8.8,0,0,0,.2-.4l.4-.4a.3.3,0,0,0,.3-.3.5.5,0,0,0,.3-.3L41,16h.9c.3,0,.5-.1.5-.4a.3.3,0,0,0,.3-.5C42.9,14.8,42.5,14.4,42.3,14.1Zm-16.4-.8H26v.9h-.2v-.8Z" fill="#1a2026"/>
        <g>
          <path d="M9.7,12.1h0L11.7.4c.1-.2,0-.3-.2-.4h-.1c-.2,0-.4.1-.4.3l-1.8,10a2,2,0,0,0-1-.7H1.5A2.4,2.4,0,0,0,0,12.1v5.7a.8.8,0,0,0,.8.8.8.8,0,0,0,.9-.8V12.5h.6v5.8h0v8.6a1,1,0,0,0,1.1.9h0a1,1,0,0,0,1-.9V18.2h.9v8.6a1,1,0,0,0,1,.9h0a1,1,0,0,0,1.1-.9V18.2h0V12.4H8v4.7l-.4,2.1c0,.2.1.4.3.4H8c.2.1.3-.1.4-.2v-.9h.4a.8.8,0,0,0,.8-.8V12.1Z" fill="#1a2026"/>
          <path d="M4.9,8.9a2.5,2.5,0,0,0,0-5A2.6,2.6,0,0,0,2.3,6.4,2.6,2.6,0,0,0,4.9,8.9Z" fill="#1a2026"/>
        </g>
      </g>
    </g>
  </g>
</svg>
