<svg xmlns="http://www.w3.org/2000/svg" viewBox="0 0 32 32"><path d="M19.6,27.3c-.3-.2-.5-.6-.8-.8l-.9-.2-1.7-.7a11.2,11.2,0,0,1-2.4-1.9l-3-3L7.4,17a5.2,5.2,0,0,1-1.7-2.6,2.9,2.9,0,0,0-1.3-1.8L3.7,12c-.5-.1-1,.5-1.3.8h0c-.4.1-.8,0-1.1.3l-.8,1a2.1,2.1,0,0,0-.2,2.4,2.3,2.3,0,0,0,2.1,1,2.6,2.6,0,0,1,2.6.7c2,1.5,2.2,2.1,3.9,3.8s3,3.2,4.4,4.8,1.7,1.9,1.5,3.1-.4,1.9.9,1.9a2.5,2.5,0,0,1,1.2.1c.6.3.9-.3,1.1-.8a1.5,1.5,0,0,1,.6-1,3.5,3.5,0,0,0,.5-.8C19.5,28.8,20.6,27.9,19.6,27.3ZM2.3,12.8c-.3.1,0,.1,0,0Z"/><path d="M1.6,6.3h.3c0-.1,0-.1.1-.1h.4l1-.2a2.9,2.9,0,0,0,1.1-.3h.2A2.8,2.8,0,0,1,6,7.3a9.1,9.1,0,0,0,3.2,2.9v.2a3.7,3.7,0,0,1-.2.9,1.9,1.9,0,0,0-.2.7,4.8,4.8,0,0,0,0,1.2,1,1,0,0,0,.1.3,3.7,3.7,0,0,1-.6,1.9.9.9,0,0,0-.3.7v.3h2.2v-.3a15.5,15.5,0,0,1,.4-2.8c0-.1.1-.2.2-.4h.1l.2.4.2.4c.3,1.2.1,1.6-.1,1.9a1.3,1.3,0,0,0-.1.6v.3h2.1v-.3a1.5,1.5,0,0,1-.1-.6c-.1-.1-.1-.2-.1-.4a17.6,17.6,0,0,0-.2-1.9.4.4,0,0,1,.1-.3c0-.1.1-.2.1-.4a4,4,0,0,1,.3-2.2,17.2,17.2,0,0,0,5.2-.2l2.5-.8a4.2,4.2,0,0,0,.3,1.4,1.8,1.8,0,0,1,.1.6h2.5c0-.2.1-.3.2-.3a.4.4,0,0,1,.1.3h.8l.5-.2a.1.1,0,0,1,.1-.1l.3-.2.3-.2.4-.3h.1a6.7,6.7,0,0,1-.7-1.7c0-.2.2-1.1.3-2a14.3,14.3,0,0,0,.3-1.6V4.7a5.8,5.8,0,0,1,.2,1.9h0V9.3l.3.2h.3a11,11,0,0,0,.1-2.8A6.8,6.8,0,0,0,25.9,2a2.7,2.7,0,0,0-2.2-.9H16.2l-2.9-.3A8.1,8.1,0,0,0,10.9.9l-1.2.2L8,1.4,6.1,1.2H4.7A1.7,1.7,0,0,0,4.6.2.7.7,0,0,0,3.9,0L3.2.8H3.1l-.5.3h0c-.1.1-.6.4-.6.7a.8.8,0,0,1-.2.4H1.7a2.1,2.1,0,0,1-.5.7l-.5,1-.3.4H.3a.7.7,0,0,0-.2.9C.3,6.1,1.4,6.3,1.6,6.3Z"/><path d="M31.6,11.9l-.6-.8c0-.2-.2-.4-.3-.6a.4.4,0,0,0-.4-.3c0-.1-.1-.3-.4-.3s-.3-.2-.6-.2h-.6a.7.7,0,0,0-.6.3.5.5,0,0,0-.5.3,1,1,0,0,0-.5.4l-.3.2-.4.3-.3.3-.3.2h-.3l-.4.2H23.7c-.2,0-.4-.1-.5.1s-.3-.2-.5-.2h-.5c-.1-.1-.2-.2-.4-.1h-.3a.7.7,0,0,0-.6-.1H16.3l-.4.2-.6.2-.4.4c-.2,0-.3.2-.5.4s-.2.3-.1.4h-.1l-.2.3-.3.4a.8.8,0,0,0-.2.5.9.9,0,0,0,0,.7c0,.3.3.4.4.2v.8a1.1,1.1,0,0,0,.2.5.5.5,0,0,0,.2.4.4.4,0,0,0,.1.3c0,.1.1.2.2.3a.4.4,0,0,0,0,.5v.9a.9.9,0,0,0-.1.5l-.3.4a.9.9,0,0,0-.1.5,12.3,12.3,0,0,1,.2,2c0,.3,0,.5.2.4a.4.4,0,0,1,.1.3v.2c0,.2.1.4.2.4h.7c.2-.1.1-.3.1-.4l-.2-.3c0-.1-.1-.3-.1-.4s-.1-1.3-.1-1.7a1.3,1.3,0,0,1,.1-.6c0-.2.2-.3.3-.4h0a8.9,8.9,0,0,1,.6,2c.1.3.1.6.3.5a.4.4,0,0,1,.1.3v.2a.3.3,0,0,0,.3.3h.7c.2-.1.1-.3,0-.4l-.2-.3-.2-.4c0-.2-.3-1.3-.4-1.7v-.6a1,1,0,0,1,.4-.5l.3-.4.3-.3a.5.5,0,0,0,.5-.3h2.5c.1,0,.3.1.5,0a.6.6,0,0,0,.6,0,.6.6,0,0,0,.6,0h.9l.3.3.2.3H24v2.8c0,.2-.1.4.1.3a.4.4,0,0,1,.1.3v.2l.3.3h.7c.2,0,.1-.2,0-.3l-.2-.3a3.2,3.2,0,0,1-.2-1.4V20.2H25A26.1,26.1,0,0,1,25,23c0,.2,0,.5.3.4a.3.3,0,0,0,.1.2c-.1.1-.1.2,0,.2s.1.3.2.3h.7c.3-.1.1-.3.1-.4l-.2-.2a4.2,4.2,0,0,1-.4-1.5V20.2h0l.3-.3c.1-.1.1-.2.2-.2s.2-.3.3-.3a.8.8,0,0,0,.2-.4h.1c.1,0,.4-.2.4-.3s.3-.2.4-.4l.3-.4a.5.5,0,0,0,.2-.4l.3-.5a.8.8,0,0,0,.1-.4.7.7,0,0,0,.1-.5.4.4,0,0,0,.1-.3.5.5,0,0,0,.2-.4.5.5,0,0,0,.2-.4c.2,0,.3-.1.4-.3s.2-.1.3-.3l.2-.2c.2-.1.2-.3.3-.4h.9c.2,0,.3,0,.4-.2a.7.7,0,0,0,.3-.6C32.1,12.5,31.8,12.1,31.6,11.9Z"/></svg>
