<svg xmlns="http://www.w3.org/2000/svg" viewBox="0 0 40.36 26.62"><defs><style>.cls-1{fill:#1a2026;}</style></defs><title>Locust Eggs</title><g id="Layer_2" data-name="Layer 2"><g id="Layer_1-2" data-name="Layer 1"><path class="cls-1" d="M32.85,17a3.14,3.14,0,0,0-2.27,1,3.12,3.12,0,0,0-6.07.21,2.94,2.94,0,0,0-1-.41,3.13,3.13,0,1,0-5.35-2.19,3,3,0,0,0,0,.42,2.68,2.68,0,0,0-.76-.11A3.11,3.11,0,0,0,15.13,17,3.12,3.12,0,0,0,12,14.17a3.07,3.07,0,0,0-1.92.68A3.11,3.11,0,0,0,4,15a3.27,3.27,0,0,0-.83-.13,3.13,3.13,0,1,0,0,6.25A3.07,3.07,0,0,0,5.45,20c0,.14,0,.28,0,.42a3.13,3.13,0,1,0,6.25,0v-.07a2.33,2.33,0,0,0,.38,0,3.11,3.11,0,0,0,2.35-1.09,3.11,3.11,0,0,0,5.34,1.85,3.11,3.11,0,0,0,5.35,1.76,3.31,3.31,0,0,0,0,.55,3.13,3.13,0,1,0,6.25,0,3.24,3.24,0,0,0-.11-.76,3,3,0,0,0,1.68.5,3.13,3.13,0,1,0,0-6.25ZM7.05,14.31a1,1,0,1,1-1,1A1,1,0,0,1,7.05,14.31ZM3.13,19a1,1,0,1,1,1-1A1,1,0,0,1,3.13,19Zm3.08-.66h0l0,0Zm2.33,3.14a1,1,0,0,1,0-2.08,1,1,0,1,1,0,2.08ZM12,18.34a1,1,0,1,1,1-1A1,1,0,0,1,12,18.34Zm15.54-.59a1,1,0,1,1-1,1A1,1,0,0,1,27.58,17.75Zm-6.25-3.21a1,1,0,1,1-1,1A1,1,0,0,1,21.33,14.54Zm-.74,4.07s0,0,0,0v0Zm-3.11,1.45a1,1,0,1,1,1.05-1A1,1,0,0,1,17.48,20.06Zm5.34,1.78a1,1,0,1,1,1-1A1,1,0,0,1,22.82,21.84Zm5.33,2.69a1,1,0,1,1,1-1A1,1,0,0,1,28.15,24.53Zm4.7-3.38a1,1,0,1,1,1-1A1,1,0,0,1,32.85,21.15Z"/><path class="cls-1" d="M40.09,5.9c-.29-.07-.49.35-.49.35a1.53,1.53,0,0,0-.4.18l-.3-.18-.84-.48a1.09,1.09,0,0,0-.46-.18,2.36,2.36,0,0,0-.08-.38L38,4.52l.5-.74c.07-.17-.1,0-.1,0s-.7.92-.7.92l.69-1.43.76-1.68.6-1.26A.86.86,0,0,0,39.9,0s-.1.17-.1.17L38.64,2.54l-.82,1.73-.32.58L37.37,5l-.15-.14a1,1,0,0,0-.3-.26c-.36-.36-.56,0-.56,0a.56.56,0,0,0-.52.07l-.1,0a8.84,8.84,0,0,0-1.15,0l-.27,0a3.42,3.42,0,0,0-1.65,0l-.49.08a.35.35,0,0,0-.38,0c-.42,0-1.88.27-1.88.27a13.29,13.29,0,0,0-2.07-1.32l-1.57-.9L25.1,2l-.49-.4-.2-.25c-.56-.87-1-.91-1-.91s-.31.07-.31.07a.15.15,0,0,0-.16.2c-.44-.06-.47.48-.47.48a.66.66,0,0,0-.16.55l-.17,1.1L22.07,3l-.15.07.11,0a1.6,1.6,0,0,1-.08.32c-.78-.69-1.08-.05-1.08-.05-.32-.18-.55.36-.55.36a.46.46,0,0,0-.16.39L20,4.84l-.13.44-.19,0,.14.09-.12.38-.25-.06.2.11-.17.45-.3-.08.25.14,0,.12-1.53.09c-1.18.08-1.28.95-1.28.95-.17.7,1,.92,1,.92l.56.1.2.07v.05l-.39.18.43-.09-.12.12-.26,0,.23,0L18.16,9l-.43.14h.2l-.1,0,.17,0L18,9.38l-.08.08a4.22,4.22,0,0,0-.82.06.41.41,0,0,0-.33,0c-.71-.19-.77.06-.77.06-.26.22-.14.25-.14.25l.11,0a.33.33,0,0,0,.17.15c-.07,0-.11-.14-.11-.14s.19-.2.19-.2.47,0,.47,0c-.06.34.31.08.31.08h.11c0,.24.24.11.24.11l.26.08a1.56,1.56,0,0,0,.38-.08c0,.08-.15.12-.15.12A.7.7,0,0,0,18,9.83c.21-.07.34-.45.34-.45l.37-.83a24.57,24.57,0,0,0,2.51.21l.12.05c0,.27.32.23.32.23.46.31.67.2.67.2a4,4,0,0,0,1.06.12,6.64,6.64,0,0,0,1.67,0l2.69-.13.34,0a7.64,7.64,0,0,0,1.21.34.37.37,0,0,0-.09.22.78.78,0,0,0-.23.5l-.79,1.78-.23.36-.24.21-.32.23c-.5.24-.41.45-.41.45-.34.31-.09.32-.09.32.2,0,.28-.24.28-.24l.25.06a.74.74,0,0,1-.23-.17c0-.16.18-.2.18-.2,0,.16.29,0,.29,0S28,13,28,13c.23-.1.23-.26.23-.26.15,0,.32-.44.32-.44L29,11.08l.16-.4.22-.48.22-.14c.12.1.91-.15.91-.15L32.4,9.7a.42.42,0,0,0,.27-.11l.22-.13a8.43,8.43,0,0,0,1-.49,2.13,2.13,0,0,0,.63-.5l.07,0a2.14,2.14,0,0,0,1,.4l.65.3a.28.28,0,0,0,.34,0h.09l1.4,1.08a1.1,1.1,0,0,0,.86.35c.16.13.39-.13.39-.13l.18.06-.06.26.15-.19c.2.12.3,0,.3,0,.16-.07,0-.15,0-.15l-.12-.09a.79.79,0,0,0-.69-.09,3,3,0,0,1-.56-.1c0-.11-.27-.2-.27-.2L36.81,9a.85.85,0,0,0-.46-.34l-.12-.09.12-.19c.56-.13.94-.89.94-.89a2.6,2.6,0,0,0,.31-1.44.23.23,0,0,1,.26-.12l1.07.67a.67.67,0,0,0,.65,0c.18,0,.14-.13.14-.13.3-.1.09-.12.09-.12l-.11,0c0-.23.52-.19.52-.19s.09.16.09.16,0-.18,0-.18C40.5,5.9,40.09,5.9,40.09,5.9ZM21.46,5.1c-.1.11-.5.08-.5.08s.46.05.46.05a.29.29,0,0,1,0,.17H21.3l.08.06-.08.19-.46.08.39,0a.68.68,0,0,1-.08.42l-1.29.15.25-.57A15.49,15.49,0,0,0,20.64,4h.14a1.32,1.32,0,0,0,.82.55v.07l-.35,0,.35.07L21.54,5h-.12l0,0Zm0,1.07L22,4.58a8.05,8.05,0,0,1,1.92,1.33Zm4-.46h-.1l-1.57-.86-.87-.47a4.94,4.94,0,0,1-.68-.65s.51-1.85.58-2.37h.06A1.29,1.29,0,0,0,24,1.91l.16.06.63.52L26,3.73l1.68,1.68Zm10.2,2.21a.29.29,0,0,0,0,.28v.17c-.06,0-.16-.22-.16-.22a.72.72,0,0,0,0-.43l.13,0,0,.1Zm.09.53,0-.24.2.17.09.16Z"/></g></g></svg>