<svg xmlns="http://www.w3.org/2000/svg" viewBox="0 0 43.1 24"><defs><style>.cls-1{fill:#1a2026;}</style></defs><title>Locust</title><g id="Layer_2" data-name="Layer 2"><g id="Layer_1-2" data-name="Layer 1"><path class="cls-1" d="M42.63,10.35c-.5-.12-.86.61-.86.61a2.65,2.65,0,0,0-.69.32L40.55,11l-1.49-.84a1.9,1.9,0,0,0-.8-.31,3.37,3.37,0,0,0-.14-.68L39,7.93l.87-1.3c.12-.3-.17,0-.17,0-.18.21-1.23,1.61-1.23,1.61l1.21-2.51,1.34-2.94,1-2.21c.22-.48.2-.58.2-.58s-.18.29-.18.29l-2,4.17-1.44,3-.56,1-.23.29-.25-.24a1.85,1.85,0,0,0-.53-.45c-.64-.64-1-.1-1-.1a1,1,0,0,0-.91.12L35,8.22a13.73,13.73,0,0,0-2,0l-.47-.08a6,6,0,0,0-2.88.07l-.88.14a.63.63,0,0,0-.67,0c-.72,0-3.29.48-3.29.48a23.37,23.37,0,0,0-3.63-2.32L18.41,5,16.35,3.47l-.87-.7-.35-.44C14.14.81,13.35.74,13.35.74c-.25-.21-.53.12-.53.12a.27.27,0,0,0-.29.35c-.76-.1-.83.83-.83.83a1.21,1.21,0,0,0-.27,1L11.13,5,11,5.32l-.25.12.18,0a2.93,2.93,0,0,1-.13.56C9.44,4.83,8.92,6,8.92,6c-.56-.31-1,.63-1,.63a.77.77,0,0,0-.27.69L7.44,8.49l-.24.77-.33-.08.24.17L6.89,10,6.47,9.9l.35.21-.31.78L6,10.75l.45.25-.08.21-2.68.16C1.6,11.51,1.43,13,1.43,13c-.3,1.22,1.7,1.61,1.7,1.61l1,.17.35.13,0,.08-.68.32.75-.15-.21.21-.46.05.4.07-.08.21L3.41,16h.36L3.59,16l.29.09-.08.33-.14.13a7.54,7.54,0,0,0-1.45.11.73.73,0,0,0-.57-.07c-1.24-.34-1.36.09-1.36.09-.44.39-.23.45-.23.45l.18,0a.71.71,0,0,0,.3.26.57.57,0,0,1-.19-.25c.18,0,.33-.36.33-.36s.84.07.84.07c-.11.6.54.14.54.14h.19c0,.42.42.18.42.18l.46.16a3.76,3.76,0,0,0,.66-.16c0,.14-.26.22-.26.22A1.14,1.14,0,0,0,4,17.24c.37-.11.61-.78.61-.78L5.2,15a38.9,38.9,0,0,0,4.41.37l.21.09c-.06.47.55.4.55.4.81.56,1.18.36,1.18.36a7,7,0,0,0,1.86.21,11.92,11.92,0,0,0,2.93,0l4.72-.22.6.07a14.81,14.81,0,0,0,2.12.59.62.62,0,0,0-.16.38,1.46,1.46,0,0,0-.41.87l-1.39,3.13-.4.63-.41.36-.57.42c-.88.42-.72.78-.72.78-.59.55-.16.57-.16.57.35,0,.5-.42.5-.42l.43.1a1.53,1.53,0,0,1-.4-.31c0-.26.32-.34.32-.34.07.28.5,0,.5,0,.17.11.46-.29.46-.29.41-.18.4-.46.4-.46.28,0,.57-.77.57-.77l.83-2.06.29-.69.39-.85.38-.25c.2.18,1.59-.26,1.59-.26L29.14,17a.76.76,0,0,0,.49-.2L30,16.6a14.07,14.07,0,0,0,1.75-.86,3.85,3.85,0,0,0,1.11-.88l.12,0a3.83,3.83,0,0,0,1.79.69l1.14.53a.5.5,0,0,0,.6.07h.15L39.13,18a1.87,1.87,0,0,0,1.5.61c.28.22.68-.23.68-.23l.32.11-.11.46.28-.34c.34.21.52.07.52.07.27-.12,0-.26,0-.26l-.21-.15a1.4,1.4,0,0,0-1.22-.17,4.55,4.55,0,0,1-1-.17c0-.19-.47-.36-.47-.36l-2.61-1.79a1.33,1.33,0,0,0-.79-.58L35.86,15l.22-.33c1-.22,1.64-1.56,1.64-1.56a4.53,4.53,0,0,0,.54-2.52.4.4,0,0,1,.46-.22l1.88,1.18a1.17,1.17,0,0,0,1.14-.05c.31,0,.25-.22.25-.22.51-.16.15-.21.15-.21L42,11c.08-.42.9-.35.9-.35S43,11,43,11s0-.31,0-.31C43.35,10.34,42.63,10.35,42.63,10.35ZM10,8.94c-.18.19-.88.14-.88.14.09.18.81.09.81.09a.57.57,0,0,1-.07.31H9.67l.15.1-.15.33-.81.14.7.1a1.17,1.17,0,0,1-.16.72l-2.25.26.44-1a25.07,25.07,0,0,0,.92-3.1h.25a2.3,2.3,0,0,0,1.45,1v.12l-.63.09.63.11-.11.4H9.89l.07.1Zm0,1.89L10.85,8c.79.06,3.37,2.33,3.37,2.33ZM17,10H16.8L14,8.51l-1.53-.83a8.86,8.86,0,0,1-1.19-1.14s.9-3.25,1-4.15h.11a2.28,2.28,0,0,0,1.88,1l.29.11,1.09.91,2.17,2.17,2.94,3Zm17.89,3.87a.55.55,0,0,0-.09.49v.3c-.09.07-.27-.38-.27-.38a1.36,1.36,0,0,0,.08-.75l.22.07.06.16Zm.16.93.07-.43.35.3.15.29Z"/></g></g></svg>