<svg xmlns="http://www.w3.org/2000/svg" viewBox="0 0 42.39 23.54"><defs><style>.cls-1{fill:#1a2026;}</style></defs><title>Locust Swarm</title><g id="Layer_2" data-name="Layer 2"><g id="Layer_1-2" data-name="Layer 1"><path class="cls-1" d="M22.85,8a.34.34,0,0,0-.34.34.34.34,0,1,0,.68,0A.34.34,0,0,0,22.85,8Z"/><circle class="cls-1" cx="24.44" cy="7.22" r="0.34"/><path class="cls-1" d="M5.89,14.2a.35.35,0,0,0-.35-.35.35.35,0,0,0-.34.35.34.34,0,0,0,.34.34A.35.35,0,0,0,5.89,14.2Z"/><path class="cls-1" d="M13.82,3.09a.35.35,0,0,0,.34-.35.34.34,0,1,0-.68,0A.35.35,0,0,0,13.82,3.09Z"/><path class="cls-1" d="M4.81,14.43a.34.34,0,1,0-.34.35A.34.34,0,0,0,4.81,14.43Z"/><path class="cls-1" d="M15.1,20.38a.34.34,0,1,0,.35.34A.34.34,0,0,0,15.1,20.38Z"/><path class="cls-1" d="M6.66,21a.34.34,0,0,0-.32.22v-.06a.35.35,0,0,0-.41-.27.35.35,0,0,0,.14.68.4.4,0,0,0,.25-.21.34.34,0,0,0,.68,0A.35.35,0,0,0,6.66,21Z"/><path class="cls-1" d="M19.83,7.34a.34.34,0,1,0,0,.68.34.34,0,1,0,0-.68Z"/><path class="cls-1" d="M26.28,3.77a.35.35,0,0,0,.34-.35.34.34,0,0,0-.34-.34.35.35,0,0,0-.35.34A.35.35,0,0,0,26.28,3.77Z"/><circle class="cls-1" cx="6.41" cy="6.55" r="0.34"/><path class="cls-1" d="M17.12,10a.35.35,0,0,0-.34.35.35.35,0,0,0,.69,0A.35.35,0,0,0,17.12,10Z"/><path class="cls-1" d="M12.29,9.1a.35.35,0,1,0,.34.35A.35.35,0,0,0,12.29,9.1Z"/><path class="cls-1" d="M24.61,2.36a.35.35,0,0,0-.34.35.34.34,0,0,0,.68,0,.29.29,0,0,0,.16,0A.34.34,0,1,0,25,2.09a.35.35,0,0,0-.27.29Z"/><path class="cls-1" d="M24.88,6.22a.34.34,0,0,0,.19-.3.35.35,0,0,0-.35-.34.34.34,0,0,0-.31.21.33.33,0,0,0-.17.37.33.33,0,0,0,.4.26A.33.33,0,0,0,24.88,6.22Z"/><path class="cls-1" d="M24.38,3.56A.34.34,0,0,0,24,3.9a.33.33,0,0,0,.08.22.28.28,0,0,0,0,.12.31.31,0,0,0-.05.17.35.35,0,0,0,.69,0,.31.31,0,0,0-.05-.17.35.35,0,0,0,.05-.18.32.32,0,0,0-.08-.21A.34.34,0,0,0,24.38,3.56Z"/><path class="cls-1" d="M16.58,2.44a.35.35,0,0,0,0-.69.35.35,0,1,0,0,.69Z"/><path class="cls-1" d="M15,9.85a.33.33,0,0,0,.27-.4.35.35,0,0,0-.41-.27.36.36,0,0,0-.21.15.34.34,0,0,0,0,.68.35.35,0,0,0,.29-.15Z"/><path class="cls-1" d="M20.56,8.29a.34.34,0,1,0,.68,0,.34.34,0,1,0-.68,0Z"/><path class="cls-1" d="M7.85,12.07a.34.34,0,0,0-.34-.34.34.34,0,1,0,0,.68A.34.34,0,0,0,7.85,12.07Z"/><path class="cls-1" d="M7.18,10.06a.35.35,0,0,0-.69,0,.34.34,0,0,0,0,.17.35.35,0,0,0-.28-.07.34.34,0,0,0-.27.41.39.39,0,0,0,.13.2.5.5,0,0,0,0,.13.33.33,0,0,0-.11.33.27.27,0,0,0,.07.14.29.29,0,0,0,0,.16.35.35,0,0,0,.08.16.33.33,0,0,0-.09.55.44.44,0,0,0-.2,0,.35.35,0,0,0-.27.4h0a.34.34,0,1,0,0,.68A.34.34,0,0,0,5.86,13a.13.13,0,0,0,0-.06H6a.34.34,0,0,0,.27-.4.42.42,0,0,0-.11-.18.31.31,0,0,0,.13,0A.35.35,0,0,0,6.59,12a.36.36,0,0,0-.09-.22.35.35,0,0,0,.2-.33.21.21,0,0,0,.12,0,.35.35,0,0,0,0-.69l-.11,0a.35.35,0,0,0-.1-.11.34.34,0,0,0,0-.26.18.18,0,0,0,0-.1.38.38,0,0,0,.22.07A.34.34,0,0,0,7.18,10.06Z"/><path class="cls-1" d="M12.17,10.32a.35.35,0,1,0,.35.35A.35.35,0,0,0,12.17,10.32Z"/><path class="cls-1" d="M1.91,11.79a.35.35,0,1,0,.35-.34A.35.35,0,0,0,1.91,11.79Z"/><path class="cls-1" d="M1.49,14.7a.34.34,0,1,0-.34.34A.34.34,0,0,0,1.49,14.7Z"/><circle class="cls-1" cx="2.76" cy="19.24" r="0.34"/><path class="cls-1" d="M4.9,20.25a.34.34,0,1,0,0,.68.34.34,0,1,0,0-.68Z"/><path class="cls-1" d="M3.21,12.52a.35.35,0,1,0,0-.69.35.35,0,0,0,0,.69Z"/><path class="cls-1" d="M13.7,20.79a.35.35,0,1,0,0,.69.35.35,0,0,0,0-.69Z"/><path class="cls-1" d="M9.53,21a.35.35,0,1,0,.34.35A.35.35,0,0,0,9.53,21Z"/><path class="cls-1" d="M4,9.13a.33.33,0,0,0,.25.33.34.34,0,1,0,.14.67.34.34,0,0,0,.26-.4.32.32,0,0,0-.24-.26.34.34,0,0,0,.28-.34.35.35,0,0,0-.35-.34A.34.34,0,0,0,4,9.13Z"/><path class="cls-1" d="M19.19,1.57a.35.35,0,0,0,.35.34.34.34,0,0,0,0-.68A.35.35,0,0,0,19.19,1.57Z"/><path class="cls-1" d="M.5,16.88a.35.35,0,0,0,0,.69.35.35,0,0,0,0-.69Z"/><path class="cls-1" d="M.54,12.71a.34.34,0,1,0,.34-.34A.34.34,0,0,0,.54,12.71Z"/><path class="cls-1" d="M4.41,17.4a.35.35,0,1,0-.34-.35A.35.35,0,0,0,4.41,17.4Z"/><path class="cls-1" d="M8.58,9.86a.34.34,0,0,0,.34-.34.25.25,0,0,0,0-.12H9A.34.34,0,0,0,9.31,9a.34.34,0,0,0-.41-.27l-.1,0a.41.41,0,0,0,0-.18.35.35,0,1,0-.34.34.34.34,0,0,0,.17,0,.35.35,0,0,0,0,.25v0H8.58a.3.3,0,0,0-.16.05A.35.35,0,0,0,8.08,9a.08.08,0,0,0,0,0,.33.33,0,0,0-.4-.26.35.35,0,0,0-.27.4.35.35,0,0,0,.35.28v0a.33.33,0,0,0,0,.14.34.34,0,0,0,.4.27.31.31,0,0,0,.14-.07A.34.34,0,0,0,8.58,9.86Z"/><path class="cls-1" d="M4.25,19.25a.35.35,0,0,0-.34.35.34.34,0,0,0,.68,0A.35.35,0,0,0,4.25,19.25Z"/><path class="cls-1" d="M7.71,20.8a.35.35,0,0,0-.35.35.35.35,0,0,0,.69,0A.35.35,0,0,0,7.71,20.8Z"/><path class="cls-1" d="M4.23,15.73a.35.35,0,0,0,.35-.34A.35.35,0,0,0,4.23,15a.35.35,0,0,0-.34.35A.34.34,0,0,0,4.23,15.73Z"/><path class="cls-1" d="M3,15.12a.34.34,0,0,0,.34-.34.34.34,0,1,0-.68,0A.34.34,0,0,0,3,15.12Z"/><path class="cls-1" d="M3.25,17.64a.34.34,0,1,0-.34-.34A.34.34,0,0,0,3.25,17.64Z"/><path class="cls-1" d="M13.74,10a.34.34,0,1,0-.68,0,.34.34,0,0,0,.68,0Z"/><path class="cls-1" d="M15.89,9.35a.34.34,0,0,0-.34.34.34.34,0,1,0,.68,0A.34.34,0,0,0,15.89,9.35Z"/><path class="cls-1" d="M25.08,3.93a.33.33,0,0,0,.27-.37h0a.34.34,0,1,0-.68,0v0a.25.25,0,0,0,0,.08A.34.34,0,0,0,25.08,3.93Z"/><path class="cls-1" d="M14.45,4.06A.35.35,0,0,0,14.67,4,.34.34,0,1,0,15,3.59a.36.36,0,0,0-.23.08.33.33,0,0,0-.33-.29.34.34,0,1,0,0,.68Z"/><path class="cls-1" d="M5.32,15.37a.35.35,0,1,0,.34.34A.34.34,0,0,0,5.32,15.37Z"/><path class="cls-1" d="M22.43,2.49a.34.34,0,0,0,.34.34.34.34,0,0,0,.31-.21.25.25,0,0,0,.12,0,.32.32,0,0,0,.28-.14h0v0a.34.34,0,0,0,.28.34.34.34,0,1,0,.56.26.34.34,0,0,0-.28-.34.34.34,0,0,0,.12-.26.33.33,0,0,0-.2-.31.41.41,0,0,0,0-.11A.34.34,0,0,0,23.35,2a.33.33,0,0,0-.15,0,.33.33,0,0,0-.31.21.27.27,0,0,0-.12,0A.35.35,0,0,0,22.43,2.49Z"/><path class="cls-1" d="M10,10.23a.35.35,0,0,0,.33.24.34.34,0,0,0,0-.68h-.05a.32.32,0,0,0,.12-.33.33.33,0,0,0-.4-.27.34.34,0,0,0-.27.41l0,.05H9.7a.35.35,0,0,0-.27.4.36.36,0,0,0,.19.24H9.55a.35.35,0,0,0-.27.4.31.31,0,0,0,.06.13.38.38,0,0,0-.07.21.35.35,0,0,0,.69,0,.32.32,0,0,0-.07-.2.31.31,0,0,0,.06-.28.31.31,0,0,0-.18-.23h.07A.32.32,0,0,0,10,10.23Z"/><path class="cls-1" d="M19.83,2.06a.34.34,0,0,0,.34.34.35.35,0,0,0,.35-.34.34.34,0,0,0-.2-.31h.1a.34.34,0,1,0-.14-.67.33.33,0,0,0-.26.4.33.33,0,0,0,.19.24h0A.35.35,0,0,0,19.83,2.06Z"/><path class="cls-1" d="M15.89,8.83a.34.34,0,0,0-.34-.34.34.34,0,1,0,0,.68A.34.34,0,0,0,15.89,8.83Z"/><path class="cls-1" d="M14.92,6a.34.34,0,1,0,.34.34A.34.34,0,0,0,14.92,6Z"/><path class="cls-1" d="M12.29,8.06a.35.35,0,0,0-.69,0,.35.35,0,1,0,.69,0Z"/><path class="cls-1" d="M9.88,5.8a.33.33,0,0,0,.33-.26.34.34,0,0,0,.08-.29A.35.35,0,0,0,9.88,5a.36.36,0,0,0-.26.26.35.35,0,0,0-.08.22A.34.34,0,0,0,9.88,5.8Z"/><path class="cls-1" d="M7.28,7.79a.33.33,0,0,0,.32-.24v0a.38.38,0,0,0,.15.22.35.35,0,0,0,.34.29.34.34,0,0,0,.34-.34.32.32,0,0,0-.16-.29v0a.34.34,0,0,0-.41-.27.35.35,0,0,0-.26.24.33.33,0,0,0-.33-.29.34.34,0,1,0,0,.68Z"/><path class="cls-1" d="M10.45,8.75a.34.34,0,1,0-.34.34A.34.34,0,0,0,10.45,8.75Z"/><path class="cls-1" d="M5.44,9.75a.34.34,0,0,0,.65.07.4.4,0,0,0,.22,0,.35.35,0,0,0-.11-.68s0,0,0,0a.34.34,0,0,0-.4-.26.32.32,0,0,0-.26.24.33.33,0,0,0-.28.33.36.36,0,0,0,.19.31Z"/><path class="cls-1" d="M4.71,19.05a.34.34,0,1,0-.34-.34A.34.34,0,0,0,4.71,19.05Z"/><path class="cls-1" d="M.34,14.28a.35.35,0,1,0,0-.69.35.35,0,0,0,0,.69Z"/><circle class="cls-1" cx="1.91" cy="10.57" r="0.34"/><path class="cls-1" d="M6.09,8a.35.35,0,1,0,0-.69.35.35,0,0,0,0,.69Z"/><path class="cls-1" d="M11.14,4a.35.35,0,1,0,0-.69.35.35,0,0,0,0,.69Z"/><path class="cls-1" d="M18.22,8.67a.35.35,0,0,0-.34.35.34.34,0,0,0,.68,0A.35.35,0,0,0,18.22,8.67Z"/><path class="cls-1" d="M20.94,2.36A.34.34,0,0,0,21.28,2a.29.29,0,0,0,0-.16.28.28,0,0,0,.13,0,.35.35,0,0,0,.34-.35.34.34,0,0,0-.34-.34.35.35,0,0,0-.35.34.42.42,0,0,0,0,.16.23.23,0,0,0-.12,0,.34.34,0,1,0,0,.68Z"/><path class="cls-1" d="M20.16,9.52a.35.35,0,1,0-.34-.35A.35.35,0,0,0,20.16,9.52Z"/><circle class="cls-1" cx="3.87" cy="10.44" r="0.34"/><path class="cls-1" d="M9.15,4.81a.35.35,0,0,0,.35-.34.35.35,0,0,0-.35-.35.35.35,0,0,0-.34.35A.34.34,0,0,0,9.15,4.81Z"/><path class="cls-1" d="M9.73,12.65a.35.35,0,0,0-.35-.34.35.35,0,0,0,0,.69A.35.35,0,0,0,9.73,12.65Z"/><path class="cls-1" d="M13.82,11.09a.34.34,0,1,0,.34.34A.34.34,0,0,0,13.82,11.09Z"/><path class="cls-1" d="M11,5.79a.35.35,0,0,0,.34-.35A.34.34,0,0,0,11,5.1a.35.35,0,0,0-.35.34A.35.35,0,0,0,11,5.79Z"/><path class="cls-1" d="M7.69,13.65A.35.35,0,0,0,8,13.3.34.34,0,0,0,7.69,13a.35.35,0,0,0-.35.34A.35.35,0,0,0,7.69,13.65Z"/><path class="cls-1" d="M15.09,10.79a.35.35,0,1,0-.35-.35A.35.35,0,0,0,15.09,10.79Z"/><path class="cls-1" d="M4,8.11a.35.35,0,1,0-.34-.34A.34.34,0,0,0,4,8.11Z"/><path class="cls-1" d="M19.14,8.73a.34.34,0,0,0,.68,0,.34.34,0,1,0-.68,0Z"/><path class="cls-1" d="M6.86,12.39a.34.34,0,1,0,.34.34A.34.34,0,0,0,6.86,12.39Z"/><path class="cls-1" d="M.69,11.83A.34.34,0,0,0,1,11.49a.35.35,0,0,0-.34-.35.35.35,0,0,0-.34.35A.34.34,0,0,0,.69,11.83Z"/><path class="cls-1" d="M24.41,2.2a.34.34,0,1,0-.34-.34A.34.34,0,0,0,24.41,2.2Z"/><path class="cls-1" d="M18.26,7.72a.34.34,0,0,0,.3-.19.34.34,0,0,0,.58-.25h0a.35.35,0,0,0,.51-.18.34.34,0,0,0,.12-.34.33.33,0,0,0-.38-.27.25.25,0,0,0,0-.08.35.35,0,0,0-.34-.35l-.09,0a.33.33,0,0,0-.23-.1.35.35,0,0,0,0,.69l.09,0a.33.33,0,0,0,.23.1h0A.33.33,0,0,0,19,7V7a.28.28,0,0,0-.18-.06.36.36,0,0,0-.31.19.33.33,0,0,0-.23-.1.28.28,0,0,0-.18.06v0a.35.35,0,0,0-.14-.2.31.31,0,0,0,.12-.26h0a.35.35,0,0,0,.08-.22A.34.34,0,0,0,17.8,6a.31.31,0,0,0-.24.1s0,0,0-.08a.36.36,0,0,0,0-.1h0a.26.26,0,0,0,.15-.07A.33.33,0,0,0,18,6l.11,0a.38.38,0,0,0,.21.07.34.34,0,0,0,.31-.18.33.33,0,0,0,.3.08.34.34,0,0,0,.27-.4s0,0,0,0a.34.34,0,0,0,.31-.34.34.34,0,1,0-.68,0,.5.5,0,0,0,0,.12h0a.33.33,0,0,0-.23.18l-.09-.06a.36.36,0,0,0,0-.11A.34.34,0,0,0,18.78,5a.37.37,0,0,0,0-.12.39.39,0,0,0,.17-.25.35.35,0,0,0,.22-.37.32.32,0,0,0,.2.07.34.34,0,0,0,.21.61.35.35,0,0,0,.31-.2.25.25,0,0,0,.19,0,.31.31,0,0,0,.12,0,.33.33,0,0,0,.33.29.28.28,0,0,0,.13,0,.19.19,0,0,0,0,.08.32.32,0,0,0,.17.23.33.33,0,0,0-.06.19s0,.06,0,.09a.37.37,0,0,0-.19.11h0a.33.33,0,0,0-.33.26l-.06,0a.41.41,0,0,0,.13-.19h.05A.34.34,0,1,0,20,5.21h-.12l-.15,0a.34.34,0,0,0-.34.34v.06a.4.4,0,0,0,0,.15.33.33,0,0,0,.27.33.24.24,0,0,0,0,.12.35.35,0,0,0,.16.23h0a.34.34,0,0,0,.18.3.35.35,0,0,0-.14.28.34.34,0,0,0,.34.34A.35.35,0,0,0,20.56,7a.34.34,0,0,0-.19-.3.36.36,0,0,0,.15-.28.27.27,0,0,0,0-.12h.09a.37.37,0,0,0,.26-.12h0a.33.33,0,0,0,.24-.1v0a.33.33,0,0,0,.26.33.28.28,0,0,0-.1.09.28.28,0,0,0-.18-.06.35.35,0,0,0-.34.35.34.34,0,0,0,.11.25.23.23,0,0,0-.06.16.29.29,0,0,0-.05.24.34.34,0,0,0,.41.27.31.31,0,0,0,.13-.06.34.34,0,0,0,.29.16.34.34,0,0,0,.22-.07.21.21,0,0,0,0,.11.34.34,0,0,0,.4.27A.34.34,0,1,0,22,7.5a.27.27,0,0,0-.14.07s0,0,0-.05a.35.35,0,0,0-.35-.34l-.11,0a.54.54,0,0,0-.07-.13.37.37,0,0,0,.21,0,.32.32,0,0,0,.17-.1.33.33,0,0,0,.32.23.34.34,0,0,0,.16-.64s0,0,0-.06a.35.35,0,0,0-.35-.34.32.32,0,0,0-.14,0,.28.28,0,0,0,0-.09.36.36,0,0,0,0-.11.36.36,0,0,0,.09-.23.35.35,0,0,0-.14-.27.29.29,0,0,0,.1,0v0a.34.34,0,0,0,.39.26h0a.34.34,0,0,0-.05.17.35.35,0,0,0,.34.35.31.31,0,0,0,.19-.06.32.32,0,0,0-.09.23.34.34,0,0,0,.34.34H23a.33.33,0,0,0,.39.23A.31.31,0,0,0,23.54,7a.35.35,0,0,0,.31-.34.34.34,0,0,0-.34-.34A.35.35,0,0,0,23.7,6,.35.35,0,1,0,23,6a.32.32,0,0,0,.08.21.35.35,0,0,0-.18,0,.33.33,0,0,0-.19.06.35.35,0,0,0,.1-.24.2.2,0,0,0,0-.11.37.37,0,0,0,.05-.25l0,0A.34.34,0,0,0,23,5.26a.43.43,0,0,0,0-.12.49.49,0,0,0,.17-.06h.07a.33.33,0,0,0,.27-.36h.07a.35.35,0,0,0,.34-.35.31.31,0,0,0-.06-.19.19.19,0,0,0,0-.08.38.38,0,0,0-.15-.23l0,0a.38.38,0,0,0,.07-.21.35.35,0,0,0-.19-.31.3.3,0,0,0,0-.1.34.34,0,0,0-.67-.11.35.35,0,0,0-.27-.06h0A.34.34,0,0,0,22.31,3a.34.34,0,0,0-.34.34.35.35,0,0,0,.1.24.39.39,0,0,0-.23.24h0l-.1,0a.34.34,0,0,0-.17,0,.41.41,0,0,0,0-.09h0a.34.34,0,0,0,.34-.34.36.36,0,0,0-.11-.26.38.38,0,0,0,0-.15.46.46,0,0,0-.09-.17h.11l.11,0a.34.34,0,0,0,.34-.34A.33.33,0,0,0,22,2.17a.33.33,0,0,0-.34-.32.34.34,0,0,0-.29.52.36.36,0,0,0,0,.18.28.28,0,0,0,.09.17.17.17,0,0,0-.1,0,.34.34,0,0,0-.21.14.34.34,0,0,0-.33-.24.35.35,0,0,0-.24.1.2.2,0,0,0-.11,0l-.08,0a.35.35,0,0,0-.34-.31.34.34,0,0,0-.34.34.35.35,0,0,0,.15.29.36.36,0,0,0,0,.11.22.22,0,0,0,0,.08l0,0h-.1a.38.38,0,0,0-.21-.07.34.34,0,0,0-.34.34.22.22,0,0,0,0,.08l-.06,0v0A.34.34,0,0,0,19,3.35h0a.35.35,0,0,0,.3-.17.35.35,0,0,0,.17-.3.38.38,0,0,0-.12-.27A.34.34,0,0,0,19.21,2a.31.31,0,0,0-.24.19.24.24,0,0,0-.09-.06h0a.35.35,0,0,0-.69,0,.36.36,0,0,0,.22.32h0a.35.35,0,0,0,.35.34h0a.36.36,0,0,0-.13.24h0a.34.34,0,0,0-.34-.3A.34.34,0,0,0,18,3a.34.34,0,0,0-.41.16.34.34,0,0,0-.32-.25A.32.32,0,0,0,17,3a.33.33,0,0,0-.25-.11.35.35,0,0,0-.22.08.38.38,0,0,0-.11.11.34.34,0,0,0-.34-.27.34.34,0,0,0-.34.34.28.28,0,0,0,0,.15.34.34,0,0,0-.18.3.32.32,0,0,0,.14.28.35.35,0,0,0-.17.3.32.32,0,0,0,.18.29.35.35,0,0,0-.27.34.25.25,0,0,0-.15,0,.32.32,0,0,0,0-.14.34.34,0,1,0-.68,0A.34.34,0,0,0,15,5h0a.27.27,0,0,0,0,.18.35.35,0,0,0-.17.15h0a.34.34,0,0,0,0,.68.35.35,0,0,0,.3-.17h0a.34.34,0,0,0,.34-.34v0a.32.32,0,0,0,.17,0h0A.34.34,0,0,0,16,5.8a.35.35,0,0,0,.34-.35A.34.34,0,0,0,16,5.11l-.1,0h0A.42.42,0,0,0,16.08,5l.11,0a.36.36,0,0,0,.27.14.31.31,0,0,0,.17,0,.37.37,0,0,0,.18,0A.34.34,0,0,0,17.1,5a.33.33,0,0,0,.33.29.34.34,0,1,0,0-.68.34.34,0,0,0-.29.16.19.19,0,0,0,0-.1.28.28,0,0,0,.06-.18.31.31,0,0,0,.21.07.35.35,0,0,0,.22-.08.34.34,0,0,0,.4.26.34.34,0,0,0,.25-.21h0v0a.25.25,0,0,0,0,.12.35.35,0,0,0-.17.3.34.34,0,0,0-.34.34.22.22,0,0,0,0,.08l0,0a.36.36,0,0,0-.33-.11.35.35,0,0,0-.26.41,0,0,0,0,0,0,0h0a.35.35,0,0,0-.32-.23.33.33,0,0,0-.25.12.33.33,0,0,0-.22.38.34.34,0,0,0,.18.24.32.32,0,0,0-.13.34.14.14,0,0,0,0,.07.52.52,0,0,0,0,.11.34.34,0,0,0,.19.31l-.11,0a.34.34,0,0,0-.34.34.34.34,0,1,0,.68,0,.34.34,0,0,0-.19-.3l.11,0a.35.35,0,0,0,.34-.33.34.34,0,0,0,.05-.17A.33.33,0,0,0,17,6.39a.35.35,0,0,0-.16-.18l0,0a.33.33,0,0,0,.31.22.36.36,0,0,0,.25-.1.15.15,0,0,0,0,.07h0v0a.33.33,0,0,0-.2.31.34.34,0,0,0,.17.29.44.44,0,0,0,0,.2.34.34,0,0,0,.41.27l.11,0A.35.35,0,0,0,18.26,7.72Z"/><path class="cls-1" d="M19.42.68a.36.36,0,0,0,.27-.41A.35.35,0,0,0,19.28,0a.34.34,0,0,0-.26.4A.33.33,0,0,0,19.42.68Z"/><path class="cls-1" d="M13,4.54a.34.34,0,0,0,.14.67A.34.34,0,1,0,13,4.54Z"/><path class="cls-1" d="M11.18,4.84a.34.34,0,0,0,.41.27.35.35,0,0,0,.24-.2A.42.42,0,0,0,12,5a.35.35,0,0,0,0-.69.34.34,0,0,0-.31.21.36.36,0,0,0-.23,0A.34.34,0,0,0,11.18,4.84Z"/><path class="cls-1" d="M16.94,8.55a.36.36,0,0,0,.27-.41.2.2,0,0,0,0-.08.34.34,0,0,0,.28-.34.34.34,0,0,0-.68,0,.29.29,0,0,0,0,.16h0a.33.33,0,0,0-.27.35.31.31,0,0,0-.26-.12.34.34,0,1,0,.34.34v0A.34.34,0,0,0,16.94,8.55Z"/><path class="cls-1" d="M18.87,8.32a.34.34,0,0,0-.18-.24.34.34,0,0,0-.33-.26.35.35,0,0,0-.34.35.34.34,0,0,0,.18.3.34.34,0,0,0,.67-.15Z"/><path class="cls-1" d="M11.63,11.05a.34.34,0,0,0-.41-.27.36.36,0,0,0-.22.16h0a.37.37,0,0,0-.2.07.36.36,0,0,0,.06-.27.35.35,0,0,0-.41-.26.34.34,0,0,0-.26.4.33.33,0,0,0,.4.27l.13-.05a.31.31,0,0,0-.06.19.34.34,0,0,0,.63.18h.08A.34.34,0,0,0,11.63,11.05Z"/><path class="cls-1" d="M5.36,8.69a.34.34,0,0,0,.27-.4A.34.34,0,1,0,5,8.43.34.34,0,0,0,5.36,8.69Z"/><path class="cls-1" d="M3.38,11.82a.32.32,0,0,0,.21-.14.28.28,0,0,0,0,.09.34.34,0,0,0,.67-.14s0,0,0,0a.33.33,0,0,0,.2-.31.34.34,0,0,0-.34-.34.35.35,0,0,0-.35.34.43.43,0,0,0,0,.11.32.32,0,0,0-.14.12v-.09a.34.34,0,0,0-.41-.27.34.34,0,0,0-.26.4A.33.33,0,0,0,3.38,11.82Z"/><path class="cls-1" d="M4,13.19a.33.33,0,0,0-.1-.24A.31.31,0,0,0,4,12.67a.33.33,0,0,0-.4-.27.35.35,0,0,0-.27.41.32.32,0,0,0,.1.17.38.38,0,0,0-.07.21.34.34,0,0,0,.68,0Z"/><path class="cls-1" d="M22.1,1.15a.35.35,0,0,0-.05.18A.34.34,0,1,0,22.39,1h0a.31.31,0,0,0,.05-.25.34.34,0,1,0-.67.14A.34.34,0,0,0,22.1,1.15Z"/><path class="cls-1" d="M23.86,4.86a.34.34,0,0,0-.17-.05.35.35,0,0,0-.34.35.34.34,0,0,0,.25.32.31.31,0,0,0,.23,0,.34.34,0,0,0,0-.66Z"/><path class="cls-1" d="M25.17,4.38a.33.33,0,0,0-.26.4A.3.3,0,0,0,25,5a.34.34,0,0,0,.34.28.34.34,0,0,0,.34-.34.35.35,0,0,0-.14-.28h0A.35.35,0,0,0,25.17,4.38Z"/><path class="cls-1" d="M7.75,6.51a.33.33,0,0,0,.33.29.35.35,0,0,0,.35-.34.32.32,0,0,0-.07-.2v0a.34.34,0,1,0-.67.14A.38.38,0,0,0,7.75,6.51Z"/><path class="cls-1" d="M19.77,8.41a.34.34,0,0,0,.4.26.33.33,0,0,0,.27-.4A.35.35,0,0,0,20,8,.35.35,0,0,0,19.77,8.41Z"/><path class="cls-1" d="M11.29,9.56a.34.34,0,1,0,.34.34A.34.34,0,0,0,11.29,9.56Z"/><path class="cls-1" d="M12.86,4.27a.35.35,0,0,0,.35-.34.33.33,0,0,0-.12-.25h.05A.34.34,0,0,0,13,3a.34.34,0,0,0-.27.41.42.42,0,0,0,.11.18.34.34,0,0,0,0,.68Z"/><path class="cls-1" d="M15.07,3.38A.34.34,0,0,0,15.41,3a.35.35,0,0,0-.2-.32h.12a.34.34,0,0,0-.13-.67.34.34,0,0,0-.27.41.33.33,0,0,0,.2.24h-.06a.34.34,0,0,0,0,.68Z"/><path class="cls-1" d="M17.34,2.84a.34.34,0,0,0,.34-.34.34.34,0,1,0-.68,0A.34.34,0,0,0,17.34,2.84Z"/><circle class="cls-1" cx="7.58" cy="10.13" r="0.34"/><path class="cls-1" d="M7.05,9.25a.35.35,0,1,0-.34-.34A.34.34,0,0,0,7.05,9.25Z"/><path class="cls-1" d="M.69,15.69a.34.34,0,0,0-.34-.34.35.35,0,1,0,0,.69A.35.35,0,0,0,.69,15.69Z"/><path class="cls-1" d="M11.83,21a.34.34,0,0,0,0,.68.34.34,0,1,0,0-.68Z"/><circle class="cls-1" cx="15.73" cy="6.19" r="0.34"/><path class="cls-1" d="M14.4,8.72a.34.34,0,1,0,.34-.35A.34.34,0,0,0,14.4,8.72Z"/><circle class="cls-1" cx="12.86" cy="8.91" r="0.34"/><circle class="cls-1" cx="8.65" cy="10.67" r="0.34"/><path class="cls-1" d="M13,7.23a.34.34,0,1,0,.34.34A.34.34,0,0,0,13,7.23Z"/><path class="cls-1" d="M17.42,8.6a.35.35,0,1,0,.34.35A.35.35,0,0,0,17.42,8.6Z"/><path class="cls-1" d="M14.55,4.53a.34.34,0,0,0-.64-.09h-.05a.34.34,0,0,0-.34.34.35.35,0,0,0,.34.35.37.37,0,0,0,.2-.07.3.3,0,0,0,.3.09.33.33,0,0,0,.27-.4.35.35,0,0,0-.08-.16Z"/><path class="cls-1" d="M13.14,5.41a.4.4,0,0,0-.24,0,.35.35,0,0,0-.27.41.33.33,0,0,0,.28.26.31.31,0,0,0,.23,0A.38.38,0,0,0,13.32,6a.33.33,0,0,0,.29.07.38.38,0,0,0,.21-.13l.06,0a.37.37,0,0,0-.13.28.34.34,0,0,0,.31.34.27.27,0,0,0-.11.1h0a.34.34,0,1,0-.67.14.3.3,0,0,0,.13.2.32.32,0,0,0,0,.14.35.35,0,0,0,.34.35.34.34,0,0,0,.34-.33.33.33,0,0,0,.17,0,.37.37,0,0,0-.1.25.34.34,0,1,0,.34-.34h0a.37.37,0,0,0,.1-.32.34.34,0,0,0-.31-.27.34.34,0,0,0,.17-.29.36.36,0,0,0-.23-.33A.34.34,0,0,0,14,5.29a.37.37,0,0,0-.28.14.33.33,0,0,0-.24,0,.32.32,0,0,0-.17.1A.35.35,0,0,0,13.14,5.41Z"/><path class="cls-1" d="M11.06,7.17a.35.35,0,0,0,.26-.24l.14.08a.29.29,0,0,0,0,.16A.34.34,0,0,0,12.12,7l0-.09a.27.27,0,0,0,.18,0,.35.35,0,0,0,.27-.29A.34.34,0,1,0,12.71,6a.35.35,0,0,0-.34.29.29.29,0,0,0-.16,0A.37.37,0,0,0,12.29,6a.42.42,0,0,0,0-.1.39.39,0,0,0,.06-.15h0A.35.35,0,1,0,12,5.35H11.9a.35.35,0,0,0-.27.41l0,.1a.34.34,0,0,0,.28.53.39.39,0,0,0-.08.14.35.35,0,0,0-.23-.18.06.06,0,0,0,0,0,.34.34,0,0,0-.67.13s0,0,0,0h-.06a.34.34,0,0,0,.14.67Z"/><path class="cls-1" d="M7.68,10.71a.34.34,0,0,0-.26.4.33.33,0,0,0,.4.27A.35.35,0,0,0,8.09,11,.35.35,0,0,0,7.68,10.71Z"/><path class="cls-1" d="M9,7.87A.49.49,0,0,0,9,8a.34.34,0,0,0,.34.27v.06A.34.34,0,1,0,10,8.18a.33.33,0,0,0-.2-.24.35.35,0,0,0,.24-.4.38.38,0,0,0-.16-.22A.37.37,0,0,0,10,7a.35.35,0,0,0-.37-.27v0a.35.35,0,0,0-.35-.34.35.35,0,0,0,0,.69h0a.34.34,0,0,0,0,.1v0a.6.6,0,0,0-.08.08.3.3,0,0,0-.21,0,.34.34,0,0,0-.27.4A.36.36,0,0,0,9,7.87Z"/><path class="cls-1" d="M2,14.45a.34.34,0,0,0,.41.27.36.36,0,0,0,.27-.41.34.34,0,0,0-.28-.26.34.34,0,0,0,.32-.34.34.34,0,1,0-.68,0,.33.33,0,0,0,.28.33H2.3A.35.35,0,0,0,2,14.45Z"/><path class="cls-1" d="M2.29,15.85a.34.34,0,0,0-.41-.27.36.36,0,0,0-.27.41.42.42,0,0,0,.11.18l0,.06a.44.44,0,0,0-.2,0,.34.34,0,0,0-.27.41.34.34,0,0,0,.4.26.32.32,0,0,0,.24-.18.32.32,0,0,0,.14,0,.35.35,0,0,0,.34-.35.33.33,0,0,0-.11-.25A.35.35,0,0,0,2.29,15.85Z"/><path class="cls-1" d="M2.07,18h0a.35.35,0,0,0-.35-.34.34.34,0,0,0-.34.34.33.33,0,0,0,.26.33s0,.05,0,.08a.35.35,0,0,0,.41.26.34.34,0,0,0,.26-.4A.35.35,0,0,0,2.07,18Z"/><path class="cls-1" d="M3.58,20.35a.36.36,0,0,0-.27.41.35.35,0,0,0,.41.26.34.34,0,1,0-.14-.67Z"/><path class="cls-1" d="M10.15,21a.34.34,0,0,0-.27.4.34.34,0,0,0,.41.27.34.34,0,0,0-.14-.67Z"/><path class="cls-1" d="M2.2,12.53a.35.35,0,0,0,.4.27.34.34,0,0,0,.27-.41.35.35,0,0,0-.41-.27A.35.35,0,0,0,2.2,12.53Z"/><path class="cls-1" d="M3.9,18.49a.34.34,0,0,0-.62-.13.36.36,0,0,0-.3-.18.35.35,0,0,0-.34.35.34.34,0,0,0,.34.34.36.36,0,0,0,.29-.15.33.33,0,0,0,.36.17A.34.34,0,0,0,3.9,18.49Z"/><path class="cls-1" d="M6.11,20.64a.33.33,0,0,0,.26-.4.22.22,0,0,0,0-.12.32.32,0,0,0,0-.14.34.34,0,0,0-.68,0,.31.31,0,0,0,.06.19.39.39,0,0,0,0,.21A.35.35,0,0,0,6.11,20.64Z"/><path class="cls-1" d="M8.73,21.13a.33.33,0,0,0-.28-.07.35.35,0,0,0-.26.41.33.33,0,0,0,.18.23.33.33,0,0,0,.28.07.34.34,0,0,0,.08-.64Z"/><path class="cls-1" d="M15.2,7.41h-.11a.34.34,0,0,0,0,.67.35.35,0,0,0,.4.24.35.35,0,0,0,.26-.41s0,0,0-.08a.33.33,0,0,0,.13-.26.36.36,0,0,0-.06-.2h0A.35.35,0,1,0,15.49,7a.33.33,0,0,0,.06.19h0A.34.34,0,0,0,15.2,7.41Z"/><path class="cls-1" d="M4.35,12.37a.34.34,0,0,0,.41.27A.33.33,0,0,0,5,12.36.34.34,0,1,0,4.57,12,.35.35,0,0,0,4.35,12.37Z"/><path class="cls-1" d="M5,10.8a.34.34,0,0,0,.4.27A.3.3,0,0,0,5.5,11h0a.35.35,0,0,0,0-.69.38.38,0,0,0-.21.07H5.23A.34.34,0,0,0,5,10.8Z"/><path class="cls-1" d="M11.82,9.06a.34.34,0,0,0-.4-.27.31.31,0,0,0-.13.06A.35.35,0,0,0,11,8.56a.35.35,0,1,0,.2.62v0a.35.35,0,0,0,.41.26A.34.34,0,0,0,11.82,9.06Z"/><path class="cls-1" d="M14.36,9a.35.35,0,0,0-.16-.23.35.35,0,0,0,.14-.27h0a.34.34,0,1,0-.6-.23.36.36,0,0,0-.09.23.33.33,0,0,0,.17.29.35.35,0,0,0-.13.35.35.35,0,0,0,.41.26A.34.34,0,0,0,14.36,9Z"/><path class="cls-1" d="M10.08,5.9a.34.34,0,0,0-.22.15h0a.34.34,0,0,0-.27.41.35.35,0,0,0,.34.27.35.35,0,0,0,.31.3.32.32,0,0,0-.15.35.35.35,0,0,0,.32.28.3.3,0,0,0,0,.1.34.34,0,0,0,.34.34h.08a.28.28,0,0,0,0,.09.34.34,0,0,0,.4.27A.35.35,0,0,0,11.48,8a.35.35,0,0,0-.41-.26h0v0a.34.34,0,0,0-.33-.34.55.55,0,0,0,0-.18A.35.35,0,0,0,10.44,7a.32.32,0,0,0,.16-.28.35.35,0,0,0-.15-.29.33.33,0,0,0,0-.24A.35.35,0,0,0,10.08,5.9Z"/><path class="cls-1" d="M42.13,15.76c-.29-.07-.49.35-.49.35a1.53,1.53,0,0,0-.4.18l-.3-.18-.85-.48a1,1,0,0,0-.46-.18,1.84,1.84,0,0,0-.07-.39l.52-.68.5-.74c.07-.17-.1,0-.1,0s-.7.92-.7.92l.69-1.43.76-1.68.6-1.26a.92.92,0,0,0,.11-.33s-.11.16-.11.16L40.68,12.4l-.82,1.72-.32.59-.14.16-.14-.13a1,1,0,0,0-.3-.26c-.36-.36-.56-.06-.56-.06a.6.6,0,0,0-.52.07l-.1,0a8.79,8.79,0,0,0-1.15,0l-.27,0a3.4,3.4,0,0,0-1.65,0l-.5.08c-.15-.14-.38,0-.38,0-.41,0-1.87.27-1.87.27a13.29,13.29,0,0,0-2.08-1.32l-1.56-.91-1.18-.84-.49-.4-.2-.26c-.57-.86-1-.9-1-.9s-.3.07-.3.07a.16.16,0,0,0-.17.2c-.43-.06-.46.47-.46.47a.68.68,0,0,0-.16.56l-.17,1.1-.07.21L24,13l.11,0a1.56,1.56,0,0,1-.08.33c-.78-.7-1.08-.06-1.08-.06-.32-.17-.56.37-.56.37a.44.44,0,0,0-.15.39l-.14.69-.13.44-.19-.05.14.1-.13.38-.24-.07.2.12-.18.45L21.24,16l.25.15,0,.12-1.53.09c-1.19.08-1.28.95-1.28.95-.17.7,1,.92,1,.92l.56.09.2.08v.05l-.39.18.43-.09-.12.12-.26,0,.23,0-.05.12-.43.14H20l-.1,0,.16,0,0,.19-.08.07a4.19,4.19,0,0,0-.83.07.39.39,0,0,0-.32,0c-.71-.19-.77.05-.77.05-.26.22-.14.26-.14.26l.1,0a.37.37,0,0,0,.18.15.32.32,0,0,1-.11-.14c.1,0,.19-.21.19-.21s.47,0,.47,0c-.06.34.31.08.31.08h.11c0,.24.24.1.24.1l.26.09a1.63,1.63,0,0,0,.38-.09c0,.08-.15.13-.15.13a.63.63,0,0,0,.24-.09c.22-.07.35-.45.35-.45l.37-.84a22.3,22.3,0,0,0,2.51.22l.12,0c0,.27.32.23.32.23.46.32.67.21.67.21a4,4,0,0,0,1.06.12,7.15,7.15,0,0,0,1.67,0l2.69-.13.34,0a7.64,7.64,0,0,0,1.21.34.37.37,0,0,0-.09.22.75.75,0,0,0-.23.49L30.27,22l-.23.37-.24.2-.33.24c-.49.24-.41.44-.41.44-.33.32-.08.33-.08.33.19,0,.28-.24.28-.24l.25.06a.84.84,0,0,1-.23-.18c0-.15.18-.19.18-.19,0,.16.28,0,.28,0s.26-.17.26-.17c.24-.1.23-.26.23-.26.16,0,.33-.44.33-.44L31,20.94l.17-.4.22-.48.21-.14c.12.1.91-.16.91-.16l1.9-.2a.42.42,0,0,0,.27-.11l.22-.13a8.05,8.05,0,0,0,1-.49,2.1,2.1,0,0,0,.64-.5l.07,0a2.14,2.14,0,0,0,1,.4l.65.3a.28.28,0,0,0,.34,0h.08l1.41,1.08a1.09,1.09,0,0,0,.86.35c.16.13.39-.14.39-.14l.18.07-.07.26.16-.19c.2.12.3,0,.3,0s0-.15,0-.15l-.12-.09a.81.81,0,0,0-.7-.09,3.06,3.06,0,0,1-.55-.1c0-.11-.27-.2-.27-.2l-1.49-1a.77.77,0,0,0-.45-.33l-.12-.09.12-.19c.56-.13.94-.89.94-.89a2.54,2.54,0,0,0,.3-1.44.25.25,0,0,1,.27-.13l1.07.68a.66.66,0,0,0,.65,0c.17,0,.14-.12.14-.12.3-.1.09-.12.09-.12l-.11-.05c0-.24.51-.2.51-.2s.1.17.1.17,0-.18,0-.18C42.54,15.75,42.13,15.76,42.13,15.76ZM23.5,15c-.1.11-.5.08-.5.08s.46.06.46.06a.29.29,0,0,1,0,.17h-.09l.09.06-.09.19-.45.08.39.05a.68.68,0,0,1-.09.41l-1.28.15.25-.56a15.49,15.49,0,0,0,.53-1.76h.14a1.29,1.29,0,0,0,.82.54v.07l-.35,0,.35.07-.06.23h-.12l0,.05Zm0,1.08L24,14.44a8.05,8.05,0,0,1,1.92,1.33Zm4-.46h-.1l-1.57-.86L25,14.23a4.37,4.37,0,0,1-.68-.65s.51-1.85.57-2.36h.07a1.28,1.28,0,0,0,1.06.55l.17.06.63.52L28,13.58l1.68,1.69Zm10.2,2.21a.29.29,0,0,0-.05.28v.17c-.06,0-.16-.22-.16-.22a.81.81,0,0,0,0-.43l.12,0,0,.1Zm.09.53,0-.25.2.17.09.17Z"/></g></g></svg>