<svg xmlns="http://www.w3.org/2000/svg" viewBox="0 0 42.04 23.7"><defs><style>.cls-1{fill:#1a2026;}</style></defs><title>Locust Hoppers</title><g id="Layer_2" data-name="Layer 2"><g id="Layer_1-2" data-name="Layer 1"><path class="cls-1" d="M10.84,7.77c-.13,0-.22.15-.22.15a.65.65,0,0,0-.17.09l-.14-.09-.38-.21a.44.44,0,0,0-.2-.08,1.08,1.08,0,0,0,0-.17l.24-.31.22-.33c0-.07,0,0,0,0l-.32.41.31-.64.34-.74.27-.57a.63.63,0,0,0,0-.14s0,.07,0,.07L10.2,6.27,9.83,7l-.14.26-.06.07-.07-.06a.56.56,0,0,0-.13-.11c-.16-.16-.25,0-.25,0A.28.28,0,0,0,9,7.2l0,0a2.9,2.9,0,0,0-.51,0l-.12,0a1.58,1.58,0,0,0-.74,0l-.22,0c-.07-.06-.17,0-.17,0-.18,0-.84.12-.84.12a5.79,5.79,0,0,0-.92-.59l-.7-.4L4.16,6l-.22-.18-.09-.11c-.25-.39-.46-.4-.46-.4s-.13,0-.13,0-.07.09-.07.09c-.2,0-.21.22-.21.22a.27.27,0,0,0-.07.24l-.08.49,0,.1-.06,0h0a.75.75,0,0,1,0,.15c-.35-.31-.48,0-.48,0S2,6.81,2,6.81A.23.23,0,0,0,2,7l-.06.3-.06.2-.08,0,.06,0-.06.17-.11,0,.09.06-.07.2-.14,0,.12.06,0,.06L.94,8c-.53,0-.58.42-.58.42-.07.31.44.41.44.41l.25,0,.09,0V9L1,9l.19,0,0,.05L1,9.07l.1,0,0,.05L.87,9.2H1l0,0,.08,0,0,.08,0,0a2.89,2.89,0,0,0-.37,0,.2.2,0,0,0-.14,0c-.32-.08-.35,0-.35,0S0,9.5,0,9.5h0a.21.21,0,0,0,.08.07A.1.1,0,0,1,.09,9.5s.08-.1.08-.1a.62.62,0,0,1,.21,0c0,.15.14,0,.14,0h0c0,.11.11,0,.11,0l.11,0a.65.65,0,0,0,.17,0s-.07.05-.07.05.11,0,.11,0,.16-.2.16-.2L1.32,9A10.6,10.6,0,0,0,2.44,9l.06,0c0,.12.14.11.14.11.2.14.3.09.3.09a1.86,1.86,0,0,0,.47.05,3.12,3.12,0,0,0,.75,0l1.2-.05h.15a3.6,3.6,0,0,0,.54.15.14.14,0,0,0,0,.1.42.42,0,0,0-.11.22l-.35.8-.1.16-.11.09-.14.11C5,11,5,11.09,5,11.09c-.14.15,0,.15,0,.15s.12-.11.12-.11l.11,0a.35.35,0,0,1-.1-.08c0-.07.08-.09.08-.09s.13,0,.13,0,.11-.08.11-.08.11-.11.11-.11.14-.2.14-.2l.21-.52L6,9.9l.1-.21.09-.07c0,.05.41-.06.41-.06l.84-.1a.19.19,0,0,0,.12-.05l.1-.05a3.41,3.41,0,0,0,.44-.22,1,1,0,0,0,.29-.22l0,0a1,1,0,0,0,.45.18l.29.13a.13.13,0,0,0,.16,0h0l.63.48a.48.48,0,0,0,.38.16c.07.06.18-.06.18-.06l.08,0,0,.11.07-.08c.09.05.13,0,.13,0s0-.07,0-.07l0,0a.37.37,0,0,0-.31,0,1.08,1.08,0,0,1-.25,0S10,9.6,10,9.6l-.66-.45A.34.34,0,0,0,9.18,9L9.12,9l.06-.09c.24,0,.41-.39.41-.39a1.14,1.14,0,0,0,.14-.64.11.11,0,0,1,.12-.06l.48.3a.32.32,0,0,0,.29,0c.07,0,.06-.06.06-.06s0,0,0,0l-.05,0c0-.11.23-.09.23-.09s0,.07,0,.07,0-.08,0-.08S10.84,7.77,10.84,7.77ZM2.53,7.41s-.22,0-.22,0,.2,0,.2,0a.28.28,0,0,1,0,.08h0l0,0,0,.09-.21,0,.18,0a.28.28,0,0,1,0,.18L1.82,8l.11-.25a6.56,6.56,0,0,0,.24-.79h.06a.56.56,0,0,0,.37.24v0l-.16,0,.16,0,0,.11H2.51l0,0Zm0,.48.22-.71a3.71,3.71,0,0,1,.86.59Zm1.78-.21H4.27l-.7-.38-.39-.21a2.33,2.33,0,0,1-.3-.29s.23-.83.26-1.06h0A.59.59,0,0,0,3.64,6l.08,0L4,6.25l.55.55.75.75Zm4.54,1a.15.15,0,0,0,0,.12v.08s-.07-.1-.07-.1,0-.19,0-.19l.06,0v.07Zm.05.24V8.8L9,8.87l0,.07Z"/><path class="cls-1" d="M22.2,20.23c-.13,0-.22.15-.22.15a.78.78,0,0,0-.18.08l-.13-.08-.38-.21a.46.46,0,0,0-.21-.08.52.52,0,0,0,0-.17l.23-.31.23-.33c0-.08-.05,0-.05,0l-.31.41.31-.64.34-.75.26-.56c.06-.12.05-.15.05-.15s0,.08,0,.08l-.52,1.06-.37.77-.14.26-.06.07-.06-.06a.45.45,0,0,0-.14-.12c-.16-.16-.25,0-.25,0a.24.24,0,0,0-.23,0l0,0a4.52,4.52,0,0,0-.52,0l-.12,0a1.46,1.46,0,0,0-.73,0l-.22,0c-.07-.06-.17,0-.17,0-.19,0-.84.12-.84.12a5.79,5.79,0,0,0-.92-.59l-.7-.41-.53-.37-.22-.18-.09-.12c-.25-.38-.45-.4-.45-.4s-.14,0-.14,0-.07.09-.07.09c-.19,0-.21.21-.21.21a.34.34,0,0,0-.07.25l-.07.49,0,.1-.07,0h.05a.78.78,0,0,1,0,.14c-.35-.31-.49,0-.49,0s-.24.16-.24.16a.18.18,0,0,0-.07.17l-.06.31-.06.2-.09,0,.06,0-.05.17-.11,0,.09.05-.08.2-.13,0,.11.06,0,.06-.68,0c-.53,0-.57.42-.57.42-.08.31.43.41.43.41l.25,0,.09,0v0l-.18.08.19,0-.05.05-.12,0h.11l0,.06-.2.06h0l.07,0,0,.09,0,0a1.7,1.7,0,0,0-.37,0,.22.22,0,0,0-.15,0c-.31-.08-.34,0-.34,0s-.06.11-.06.11h0a.21.21,0,0,0,.08.07.18.18,0,0,1-.05-.07c.05,0,.09-.09.09-.09a.65.65,0,0,1,.21,0c0,.15.14,0,.14,0h0c0,.1.1,0,.1,0l.12,0a.71.71,0,0,0,.17,0s-.07.06-.07.06a.43.43,0,0,0,.11,0c.09,0,.15-.2.15-.2l.17-.37a10.6,10.6,0,0,0,1.12.09l0,0c0,.12.14.1.14.1.21.15.3.1.3.1a2,2,0,0,0,.48.05,3,3,0,0,0,.74,0l1.2-.06.15,0a3.6,3.6,0,0,0,.54.15.22.22,0,0,0,0,.1.33.33,0,0,0-.1.22l-.35.79-.11.17-.1.09-.15.1c-.22.11-.18.2-.18.2-.15.14,0,.15,0,.15s.13-.11.13-.11l.11,0-.11-.08c0-.07.09-.09.09-.09s.12,0,.12,0,.12-.08.12-.08.1-.11.1-.11.15-.2.15-.2l.21-.53.07-.17.1-.22.1-.06c.05.05.4-.07.4-.07l.85-.09a.19.19,0,0,0,.12-.05l.09-.06a2.87,2.87,0,0,0,.45-.21,1,1,0,0,0,.28-.23h0a1,1,0,0,0,.46.18l.29.13a.12.12,0,0,0,.15,0h0l.63.48a.48.48,0,0,0,.38.16c.07.05.17-.06.17-.06l.08,0,0,.12.08-.08a.11.11,0,0,0,.13,0c.07,0,0-.06,0-.06l-.06,0a.37.37,0,0,0-.31,0,1.59,1.59,0,0,1-.24-.05s-.12-.09-.12-.09l-.67-.45a.34.34,0,0,0-.2-.15l-.06,0,.06-.09c.25-.06.42-.39.42-.39a1.12,1.12,0,0,0,.13-.65.11.11,0,0,1,.12-.05l.48.3a.31.31,0,0,0,.29,0c.08,0,.06-.06.06-.06s0,0,0,0l-.05,0c0-.11.23-.09.23-.09s.05.07.05.07,0-.08,0-.08S22.2,20.23,22.2,20.23Zm-8.31-.36c-.05.05-.22,0-.22,0s.2,0,.2,0a.1.1,0,0,1,0,.07h0l0,0,0,.08-.2,0,.18,0a.33.33,0,0,1,0,.19l-.58.06.11-.25a6.59,6.59,0,0,0,.24-.78h.06a.63.63,0,0,0,.37.24v0l-.16,0,.16,0,0,.1h-.05l0,0Zm0,.48.21-.71c.2,0,.86.59.86.59Zm1.77-.21h0l-.7-.38-.39-.21a2.21,2.21,0,0,1-.31-.29s.23-.83.26-1.06h0a.55.55,0,0,0,.48.24l.07,0,.28.24.55.55.75.75Zm4.55,1a.11.11,0,0,0,0,.12v.08s-.07-.1-.07-.1a.35.35,0,0,0,0-.19l.06,0v.07Zm0,.23,0-.11.09.08,0,.07Z"/><path class="cls-1" d="M41.73,6.67c-.32-.08-.55.4-.55.4a1.78,1.78,0,0,0-.45.2l-.34-.2-1-.55a1.25,1.25,0,0,0-.52-.19,1.92,1.92,0,0,0-.09-.44l.59-.78L40,4.28c.08-.2-.11,0-.11,0s-.79,1-.79,1l.78-1.61.86-1.9L41.39.38c.15-.32.13-.38.13-.38s-.12.19-.12.19L40.1,2.87l-.93,2-.36.66-.15.19-.16-.15a1.14,1.14,0,0,0-.34-.29c-.42-.42-.64-.07-.64-.07a.69.69,0,0,0-.59.08l-.11.06a8,8,0,0,0-1.3,0l-.31,0a4,4,0,0,0-1.86,0l-.56.09a.41.41,0,0,0-.43,0c-.47,0-2.13.31-2.13.31a14.42,14.42,0,0,0-2.34-1.49l-1.77-1-1.33-1-.56-.45L24,1.5c-.64-1-1.15-1-1.15-1-.16-.14-.34.07-.34.07a.18.18,0,0,0-.19.23c-.49-.07-.53.54-.53.54a.77.77,0,0,0-.18.62l-.19,1.25-.07.24-.17.08.13,0a1.82,1.82,0,0,1-.09.36C20.34,3.12,20,3.84,20,3.84c-.37-.2-.63.41-.63.41a.5.5,0,0,0-.18.44l-.15.78-.16.5-.21,0,.16.11-.14.43-.28-.08.23.14-.2.5-.34-.09.29.16,0,.14-1.74.1c-1.34.09-1.44,1.07-1.44,1.07-.2.8,1.09,1,1.09,1l.64.11.22.09v0l-.44.21.49-.1L17,9.93l-.29,0L17,10l-.06.14-.49.15h.23l-.11,0,.18.06-.05.21-.09.08a5.24,5.24,0,0,0-.93.07.51.51,0,0,0-.37,0c-.8-.22-.87.06-.87.06-.29.25-.15.29-.15.29l.11,0a.46.46,0,0,0,.2.17.36.36,0,0,1-.13-.16c.12,0,.22-.23.22-.23s.53,0,.53,0c-.07.39.35.09.35.09h.13c0,.27.27.12.27.12l.29.1a2.51,2.51,0,0,0,.43-.1c0,.09-.17.14-.17.14a.77.77,0,0,0,.28-.11c.24-.07.39-.5.39-.5l.41-.95a24.38,24.38,0,0,0,2.85.24l.13.06c0,.3.36.26.36.26.52.36.76.23.76.23a4.72,4.72,0,0,0,1.2.13,7.44,7.44,0,0,0,1.89,0l3-.14.39.05a9,9,0,0,0,1.36.38.45.45,0,0,0-.1.24.91.91,0,0,0-.26.57l-.9,2-.26.41-.26.23-.37.27c-.57.27-.47.5-.47.5-.37.36-.1.37-.1.37.23,0,.33-.27.33-.27l.27.06a1.11,1.11,0,0,1-.26-.19c0-.17.21-.22.21-.22.05.18.32,0,.32,0s.3-.18.3-.18c.27-.12.26-.3.26-.3.18,0,.36-.5.36-.5l.54-1.32.19-.45.25-.55.24-.16c.14.12,1-.17,1-.17L33,11a.45.45,0,0,0,.31-.13l.24-.14a8.53,8.53,0,0,0,1.13-.55,2.59,2.59,0,0,0,.72-.57l.08,0a2.46,2.46,0,0,0,1.15.44l.73.34a.33.33,0,0,0,.39.05h.1l1.59,1.22a1.22,1.22,0,0,0,1,.4c.18.14.43-.15.43-.15l.21.07-.07.29L41.2,12c.22.13.34,0,.34,0,.17-.08,0-.17,0-.17l-.14-.1a1,1,0,0,0-.79-.1,2.8,2.8,0,0,1-.62-.11c0-.13-.31-.23-.31-.23L38,10.17a.88.88,0,0,0-.51-.37l-.14-.11.14-.21c.63-.15,1.06-1,1.06-1a3,3,0,0,0,.35-1.63.26.26,0,0,1,.29-.14l1.22.76a.73.73,0,0,0,.73,0c.2,0,.16-.15.16-.15.33-.11.1-.13.1-.13L41.3,7.1c.05-.26.58-.22.58-.22s.11.19.11.19,0-.21,0-.21C42.2,6.67,41.73,6.67,41.73,6.67ZM20.67,5.76c-.11.13-.56.09-.56.09s.52.06.52.06a.33.33,0,0,1-.05.2h-.09l.09.06-.09.22L20,6.48l.44.06a.79.79,0,0,1-.09.47l-1.45.17.27-.64a15.7,15.7,0,0,0,.6-2h.16a1.49,1.49,0,0,0,.93.61v.08l-.4.06.4.07-.07.26h-.13l0,.06ZM20.7,7l.55-1.8c.51,0,2.17,1.5,2.17,1.5Zm4.49-.52h-.11l-1.78-1-1-.53a5.63,5.63,0,0,1-.77-.74s.58-2.09.65-2.67h.07a1.48,1.48,0,0,0,1.21.62l.19.07.71.59,1.39,1.39,1.9,1.91ZM36.72,9a.34.34,0,0,0,0,.31v.2c-.06,0-.18-.25-.18-.25a.87.87,0,0,0,.06-.49l.14,0,0,.1Zm.11.6.05-.28.22.19.1.18Z"/></g></g></svg>