<svg xmlns="http://www.w3.org/2000/svg" viewBox="0 0 28 32.77"><defs><style>.cls-1{fill:#1a2026;}</style></defs><title>Loss of Human Life</title><g id="Layer_2" data-name="Layer 2"><g id="Layer_1-2" data-name="Layer 1"><path class="cls-1" d="M2.83,9.92c-.47.05-.87-.1-1.26.28a11,11,0,0,0-1,1.18A2.33,2.33,0,0,0,.4,14.24C.89,15,2,15.77,2.87,15.43c1.2-.45,2.2.15,3.12.87a41,41,0,0,1,4.67,4.56c1.82,1.83,3.52,3.78,5.18,5.76.83,1,2.06,2.21,1.79,3.65-.18,1-.4,2.25,1.05,2.29.63,0,.82-.17,1.43.12s1.16-.36,1.31-.95a1.89,1.89,0,0,1,.72-1.25c.37-.28.38-.63.66-1,.49-.6,1.72-1.65.59-2.36-.36-.24-.58-.69-.93-.9a3.46,3.46,0,0,0-1.11-.31,9.13,9.13,0,0,1-2.06-.82,11.3,11.3,0,0,1-2.8-2.27c-1.2-1.16-2.41-2.32-3.57-3.53-1.95-2-2.19-2.36-4.12-4.4a6.26,6.26,0,0,1-2-3.1A4.13,4.13,0,0,0,5.25,9.6a2.43,2.43,0,0,0-.87-.66c-.57-.13-1.16.55-1.49.92l-.06.06Z"/><g id="man"><path id="body" class="cls-1" d="M28,8.44V8.17a2.36,2.36,0,0,0-1.46-2.43c-.08,0-.61-.06-.61-.06H20.36s-.52,0-.61.06A2.35,2.35,0,0,0,18.3,8.17v.27a.53.53,0,0,0,0,.13v5.36a.85.85,0,0,0,1.69,0V8.55h.64v5.77h0v8.55a1,1,0,0,0,1,1h0a1,1,0,0,0,1-1V14.32h.91v8.55a1,1,0,0,0,1,1h0a1,1,0,0,0,1-1V14.32h0V8.55h.63v5.38a.85.85,0,0,0,1.7,0V8.57A.53.53,0,0,0,28,8.44Z"/><path id="head" class="cls-1" d="M23.14,5.05a2.53,2.53,0,1,1,2.53-2.52A2.52,2.52,0,0,1,23.14,5.05Z"/></g></g></g></svg>