<svg xmlns="http://www.w3.org/2000/svg" viewBox="0 0 31.7 32"><path d="M22.3,4.5l.2-.3a.2.2,0,0,1,.2-.2h.9a1.1,1.1,0,0,1,.2.6.4.4,0,0,1-.1.3l-.2.3-.3.2-.3.3-.3.4c0,.2-.1.4-.1.6V7h1.1V6.7a.6.6,0,0,1,.1-.4l.3-.2.3-.3.4-.3c.1-.1.1-.2.2-.4a1.3,1.3,0,0,0,.1-.6.9.9,0,0,0-.1-.5l-.3-.5L24,3.1l-1-.2-.7.2a.9.9,0,0,0-.6.4l-.4.6a2.4,2.4,0,0,0-.2.8h1.2Z"/><rect x="22.5" y="7.5" width="1.1" height="1.07"/><path d="M23,11.5a6,6,0,0,0,3.4-1.1l.4.4L29,13.1h0l1,.9a.7.7,0,0,0,.6.3l.6-.3h.1a.9.9,0,0,0,0-1.2l-2.5-2.6h0l-1-.9h-.1a6,6,0,0,0,1.1-3.4,5.6,5.6,0,0,0-1.7-4A5.7,5.7,0,0,0,23,0a5.6,5.6,0,0,0-4,1.7,5.6,5.6,0,0,0-1.7,4A5.7,5.7,0,0,0,19,9.8,5.6,5.6,0,0,0,23,11.5ZM20.4,3.1a3.6,3.6,0,0,1,2.7-1.2,3.9,3.9,0,0,1,2.7,1.2,3.8,3.8,0,0,1,0,5.4,4.3,4.3,0,0,1-2.7,1.1,3.9,3.9,0,0,1-2.7-1.1A3.8,3.8,0,0,1,20.4,3.1Z"/><path d="M18.2,18.1l2.5-.8a4.9,4.9,0,0,0,.3,1.4c0,.2.1.4.1.6h2.2a.1.1,0,0,1,.1.1h.1l.2-.3.2.3h.8l.5-.2h.1a.2.2,0,0,1,.2-.2l.4-.2c0-.1.2-.2.3-.3a.1.1,0,0,1,.1-.1,6.7,6.7,0,0,1-.6-1.7,13.5,13.5,0,0,1,.3-2,12.5,12.5,0,0,0,.2-1.5c0-.2.1-.3.1-.4a9.7,9.7,0,0,1,.1,1.8h0c0,2.2,0,2.6.1,2.7l.3.2H27a11,11,0,0,0,.1-2.8,8.8,8.8,0,0,0-.3-2.4l-.6-.5a6.9,6.9,0,0,1-3.2.8,6.3,6.3,0,0,1-4.7-2l-.9-1.1H16l-2.8-.3-2.4-.3-1.2.3-1.7.2a5.3,5.3,0,0,1-1.8-.1H4.6a1,1,0,0,0-.1-.8.5.5,0,0,0-.6-.2l-.8.7V9l-.5.2h0A.9.9,0,0,0,2,10l-.2.4H1.7l-.5.7a3.1,3.1,0,0,0-.5.9l-.3.4H.3a.8.8,0,0,0-.2.9,1.6,1.6,0,0,0,1.5.8H3.4l1.1-.4h.2A4.9,4.9,0,0,1,6,15.3a8,8,0,0,0,3.1,2.9h0a4.4,4.4,0,0,1-.2,1,1.9,1.9,0,0,0-.2.7,4,4,0,0,0,0,1.1.8.8,0,0,1,.1.4,3.6,3.6,0,0,1-.6,1.8A1.1,1.1,0,0,0,8,24v.3h2.1V24a14.1,14.1,0,0,1,.4-2.7.5.5,0,0,1,.2-.4h.1a.8.8,0,0,0,.2.4.8.8,0,0,0,.2.4,2.7,2.7,0,0,1-.1,1.9.7.7,0,0,0-.1.5v.3H13v-.8a.9.9,0,0,1-.1-.5c-.1-.4-.1-1-.3-1.8s.1-.2.1-.4a.4.4,0,0,0,.1-.3,7.3,7.3,0,0,1,.3-2.2A17.1,17.1,0,0,0,18.2,18.1Z"/><path d="M31.3,19.8l-.6-.7-.3-.6c0-.1-.2-.3-.4-.4s-.1-.2-.4-.2a.4.4,0,0,0-.6-.2h-.6a.7.7,0,0,0-.6.3.5.5,0,0,0-.5.3.9.9,0,0,0-.5.3l-.3.3-.4.3-.3.2-.3.2h-.2l-.4.2h-.6c-.2,0-.3-.1-.4.1s-.3-.1-.5-.1h-.9c-.2,0-.4-.1-.5.1s-.3-.2-.5-.2h-.3c-.1-.2-.3-.2-.6-.2h-.8c-.2-.1-.5-.1-.6.1H17.9c-.1,0-.2,0-.2.1h-2l-.5.2c-.2.1-.5.3-.5.5s-.3.1-.4.3-.2.3-.1.5h-.1a.5.5,0,0,0-.2.4.3.3,0,0,0-.3.3.6.6,0,0,0-.2.5.6.6,0,0,0,0,.7c0,.3.2.4.4.2a.3.3,0,0,0,0,.4c-.1.1,0,.3,0,.4a1.1,1.1,0,0,0,.2.5.9.9,0,0,0,.1.5c.1,0,.1.1.1.2l.2.3a1.1,1.1,0,0,0,.1.5.5.5,0,0,0,0,.5.6.6,0,0,0-.1.4c0,.2-.1.3-.1.5l-.3.4a.4.4,0,0,0,0,.5,12.3,12.3,0,0,1,.2,2c0,.2,0,.5.2.4v.3c-.1.1-.1.1,0,.2s0,.3.2.3h.6c.3,0,.2-.2.1-.3v-.4a.5.5,0,0,1-.2-.4,9.7,9.7,0,0,0-.1-1.6,3.5,3.5,0,0,1,.1-.6l.3-.5c0,.1.1.1.1.2l.6,2c0,.3,0,.5.2.4a.4.4,0,0,1,.1.3c0,.1,0,.2.1.2a.5.5,0,0,0,.2.4h.7c.2,0,.1-.2,0-.3a.5.5,0,0,0-.2-.4c0-.1-.2-.2-.2-.4a6.2,6.2,0,0,0-.4-1.6c0-.3,0-.5.1-.6s.2-.4.3-.6a.3.3,0,0,0,.3-.3q.3-.2.3-.3a.9.9,0,0,0,.5-.3h4.7c.2.1.3,0,.4,0s.1.2.3.3.1.2.2.3h.1a23.5,23.5,0,0,1-.1,2.7c0,.2,0,.5.2.4s.1.1.1.2a.1.1,0,0,0,0,.2c0,.1.1.3.2.3h.7c.2,0,.1-.2.1-.3s-.2-.1-.2-.2a2.4,2.4,0,0,1-.3-1.4,9.7,9.7,0,0,1,.1-1.7h0a.1.1,0,0,1,.1.1,25.3,25.3,0,0,1,.1,2.8c0,.2,0,.4.2.3a.4.4,0,0,1,.1.3v.2q0,.2.3.3h.7c.2,0,.1-.2,0-.3l-.2-.3a2.4,2.4,0,0,1-.3-1.4,12.8,12.8,0,0,1-.1-1.9h.1c.1-.1.2-.2.2-.3s.2-.2.2-.3a.5.5,0,0,0,.3-.3l.3-.3h0a.4.4,0,0,0,.4-.3.8.8,0,0,0,.4-.4l.3-.3c.1-.2.2-.3.2-.5s.2-.3.3-.5a.8.8,0,0,0,.1-.4.6.6,0,0,0,.1-.4.6.6,0,0,0,.1-.4.5.5,0,0,0,.2-.4l.3-.3.3-.3.3-.3c.1-.1.2-.2.2-.3s.2-.2.3-.4H31c.2,0,.3-.1.4-.3a.4.4,0,0,0,.2-.5C31.8,20.4,31.5,20.1,31.3,19.8Z"/></svg>
