<svg xmlns="http://www.w3.org/2000/svg" width="26.2" height="26.7" viewBox="0 0 26.2 26.7">
  <title>Magnetic Field Change</title>
  <g id="Layer_2" data-name="Layer 2">
    <g id="Layer_1-2" data-name="Layer 1">
      <g>
        <path d="M0,18.9a7.6,7.6,0,0,0,2.3,5.5,8.1,8.1,0,0,0,5.5,2.3,8.1,8.1,0,0,0,5.5-2.3l6.5-6.6a.4.4,0,0,0,0-.7l-2.4-2.5a.6.6,0,0,0-.8,0l-6.5,6.6a3.4,3.4,0,0,1-4.6,0,3.2,3.2,0,0,1,0-4.6L12,10a.6.6,0,0,0,0-.8L9.6,6.8a.6.6,0,0,0-.8,0L2.3,13.3A7.9,7.9,0,0,0,0,18.9ZM17,15l2.4,2.4-2.8,2.9-2.4-2.5ZM9.2,7.2l2.4,2.4L8.8,12.5,6.4,10Z" fill="#1a2026"/>
        <path d="M14,4.5l-2-.2L16.1,0h.1L14.5,3.5l2,.2L12.3,8h0Z" fill="#1a2026"/>
        <path d="M22.4,12.5l.7,1.8,3.1-5a.1.1,0,0,0-.1-.1l-2.9,2.6-.7-2-3,5.2h0Z" fill="#1a2026"/>
      </g>
    </g>
  </g>
</svg>
