<svg xmlns="http://www.w3.org/2000/svg" width="29.8" height="30.4" viewBox="0 0 29.8 30.4">
  <title>Mammals Observation</title>
  <g id="Layer_2" data-name="Layer 2">
    <g id="Layer_1-2" data-name="Layer 1">
      <path d="M19.8,26a.1.1,0,0,0-.1.1h-.2a.2.2,0,0,0-.1.3,6.8,6.8,0,0,0,.4,1.3,3.1,3.1,0,0,0,.2.8h0l.3.5h0c-.1.2-.4.7,0,1a3.2,3.2,0,0,0,1.3.2c.4,0,.8,0,.8-.3s-.1-.4-.4-.7h-.3c0-.1,0-.1-.1-.2a1,1,0,0,0-.1-.3h0a.8.8,0,0,0-.1-.4.4.4,0,0,0-.1-.3h0c0-.1,0-.1-.2-.6H21a.1.1,0,0,0-.1-.1,5.6,5.6,0,0,1-.5-.8c0-.1,0-.2-.1-.2H20c0-.1-.1-.1-.2-.1ZM26.7,0h0l.4.2c.3.1.3.4.2.7h.2a.1.1,0,0,1,.1.1h.3q.2,0,.3.3h.1a.4.4,0,0,1,.1.5h-.1a.3.3,0,0,1,.1.2v.2a1,1,0,0,1,.1.3l.4.6.2.2h0a1.3,1.3,0,0,1,.5.7,1,1,0,0,1,.2.8c0,.6-.3.7-.5.7H29l-.9-.7-.2-.2h-.8c-.3,0-.8-.5-1-.6h-.5a5.3,5.3,0,0,0-.7,1l-.3.3-1,1.2-.6.8a27.1,27.1,0,0,1-2.3,3A23.2,23.2,0,0,0,18.5,13a1.7,1.7,0,0,0-.1.7v.5c.1.1,0,.2-.1.3l-.5.2-1,.7a3.4,3.4,0,0,1-1.2.6h-.3l-1.3-.2H12.9l-3.6-.3H8.8l-1.9.2H6.6v-.3h0c.1-.1.2-.5.3-.6l.3-.5.4-.4.3-.3H8c0-.1.1-.2.2-.3h0l.4-.3.6-.3h1l1.1-.4h.2l.4-.2h.2l.7-.3.2-.3h.1l.6-.4.3-.3h0l.4-.3.2-.3h0c.1-.2.3-.2.5-.3h.2l.7-.2h0l.3-.2h.2l.7-.4h.2l.7-.5h0l1.2-.8c0-.1.1-.2.4-.3l.3-.2V5.9l.6-.6L21,5l.4-.3c.1-.1.5-.5.5-.6l.5-.5.2-.2.5-.6a9.4,9.4,0,0,1,1.4-1.2h-.1V.9a.6.6,0,0,1,.1-.4h1.4V.5h.2a.5.5,0,0,1,.5-.3ZM10.2,23.8h0c.1.1.2.1.2.3l.4,1.1.4.9a6,6,0,0,0,.2-1.2v-.3a.1.1,0,0,1,.1-.1.1.1,0,0,1,.1-.1h.1l.6.2h.2v.2a9.9,9.9,0,0,0-.3,1.7,3.7,3.7,0,0,1-.2.9v.6h0l.5.6.3.3c.2,0,.3.2.3.4a.4.4,0,0,1-.2.5H10.5v-.2l.2-.6a1,1,0,0,1,.1-.3c-.1,0-.1-.1,0-.5l-.2-.5c-.1-.2-.9-1.9-1.1-2.5s-.1-.1,0-.2h0l.2-.3.3-.6.3-.2Zm17.7-2.6c0-.5.3-.4.4-.8s-.6-.9-.8-1.5-.1-.7-.3-1-.3-.3-.4-.6,0-1.3-.3-1.8-1.8-1.1-2.9-.9-2.2-.1-3.3.1a8.6,8.6,0,0,0-2.1.7c-.8.4-1.5,1.2-2.4,1.3a4.1,4.1,0,0,1-1.9-.2H12.8a18.1,18.1,0,0,0-4-.4,5.8,5.8,0,0,0-4.7,2.3A8.4,8.4,0,0,0,3,22.4c0,1,.1,2.6-1,3.2L.8,26c-.4,0-.9-.3-.8.4s.7.4,1,.3a2.9,2.9,0,0,0,1.4-.8c1.1-1.1,1.2-2.7,1.4-4.2a9.4,9.4,0,0,1,.7-2.2c0-.1.2-.6.4-.5s.1.8.1,1a4.1,4.1,0,0,0,.1,1.1A6.2,6.2,0,0,1,4.9,23a3.5,3.5,0,0,1-1.2,1.5,1.3,1.3,0,0,0-.6.7A13.1,13.1,0,0,0,3,28a6.7,6.7,0,0,0,.5,1.9,1.1,1.1,0,0,0,.8.5h1a.7.7,0,0,0,.5-.4.7.7,0,0,0-.7-.6c-.2,0-.3,0-.4-.2s-.2-.5-.2-.8a4.8,4.8,0,0,1-.1-1.6,3.7,3.7,0,0,1,1.9-2h.2l-.6,1.5c-.1.1-.2.3-.1.4a9.6,9.6,0,0,0,.7,2c.1.2.2.3.2.4a2.3,2.3,0,0,0,.8.9,3.2,3.2,0,0,0,1.4.1.4.4,0,0,0,.4-.4.8.8,0,0,0-.2-.5,1.4,1.4,0,0,0-.9-.1H8.1a2.3,2.3,0,0,1-.6-1.9,19.2,19.2,0,0,1,1.4-2.9,9.1,9.1,0,0,0,.9-1.7c.1-.2.2-.2.3-.1a4.3,4.3,0,0,0,2.8,1.5c.2.1,1.5,0,1.6.3v1.4a13.7,13.7,0,0,0-.2,1.9c0,.4-.1.7-.1,1s0,1.1.4,1.4h1.8c.6-.2,0-.8-.3-.9s-.1-2,0-2.8a8,8,0,0,1,.3-1.5,1.3,1.3,0,0,0,.3-.5v.3h.1v.4l.3-.2v.5h.1c0,.1.1.2.1.4s.1-.4.2-.4a.3.3,0,0,0,.1.2c0-.1.1-.5.2-.5s.1.4.1.5l.2-.2a.8.8,0,0,0,.1.4v-.3l.2.4c0-.1.1-.2.2-.3a.3.3,0,0,0,.1.2s0-.2.1-.2.1.2.2.3a.4.4,0,0,1,.1-.3h.4V25l.2.2v-.4l.6.7a.8.8,0,0,1,.2-.4v.5c.1,0,.1-.2.1-.2s.1,0,.1.1v.2a3.1,3.1,0,0,0,.5,1l.3.4.5.6.9,1.3a1.5,1.5,0,0,0,1,.6,4,4,0,0,0,1.6.1c.2-.1.6-.1.6-.4s-.6-.7-.9-.7-.7.1-.9-.1-.8-1.1-1-1.8a3.4,3.4,0,0,1-.4-1.6c0-.1-.1-.4,0-.6a.1.1,0,0,0,.1.1,2.3,2.3,0,0,1,.1-.4h.1a1,1,0,0,1,.7-1s.5,0,.4.1.3-.7.7-.9.3-.1.4,0a1,1,0,0,0,1.3-.2A5.3,5.3,0,0,0,27.9,21.2Z" fill="#1a2026"/>
    </g>
  </g>
</svg>
