<svg xmlns="http://www.w3.org/2000/svg" viewBox="0 0 100 100"><g id="Layer_2" data-name="Layer 2"><g id="Layer_1-2" data-name="Layer 1"><path d="M50,0a50,50,0,1,0,50,50A50,50,0,0,0,50,0ZM88.8,44.8C66.3,49,66.2,73.5,66.2,73.5c6.7.6,3.4,7.1-3.6,5.3C52.5,76.3,48.8,65,46.6,60.7c-9.5,5.3-7.7,13.9-7.7,13.9,5-.4,6.5,5.7-2.2,5.6C24.6,80,7.7,58.3,14.9,40.6c7.3-18.1,25.6-14.1,33.9-10.2A11.44,11.44,0,0,1,68.1,30a3.08,3.08,0,0,1-.1-1v-.1a3.71,3.71,0,0,1,3.8-3.7,3.89,3.89,0,0,1,3.8,3.5,3.76,3.76,0,0,1,7.4.9,8.08,8.08,0,0,1-.7,2.2c4,5,5.6,6.1,8.4,7.4C91.2,43.3,88.8,44.8,88.8,44.8Z"/><path d="M76.7,41.6a3.2,3.2,0,1,1,3.2-3.2A3.22,3.22,0,0,1,76.7,41.6Z"/></g></g></svg>
