<?xml version="1.0" encoding="utf-8"?>
<!-- Generator: Adobe Illustrator 23.0.3, SVG Export Plug-In . SVG Version: 6.00 Build 0)  -->
<svg version="1.1" id="Layer_1" xmlns="http://www.w3.org/2000/svg" xmlns:xlink="http://www.w3.org/1999/xlink" x="0px" y="0px"
	 viewBox="0 0 106.1 106.6" style="enable-background:new 0 0 106.1 106.6;" xml:space="preserve">
<g>
	<path d="M68.3,17.1c-4.5-2.9-9.7-4.5-15-4.4C38.9,13,27.5,24.8,27.8,39.2c0.1,4.9,1.6,9.7,4.3,13.8c4.8,7.1,8.8,14.6,12.2,22.5
		c3.6,8.5,6.8,17.2,9.5,26C56.7,92.2,60.1,83,64,74c3.1-7.3,6.9-14.3,11.4-20.8C83.4,41.3,80.2,25.1,68.3,17.1z M63.2,48.2
		c-5.2,5.2-13.7,5.2-19,0s-5.2-13.7,0-19s13.7-5.2,19,0S68.4,43,63.2,48.2z"/>
</g>
</svg>
