<svg xmlns="http://www.w3.org/2000/svg" viewBox="0 0 32 27.2"><defs><style>.cls-1{fill:#1a2026;}</style></defs><title>Medevac</title><g id="Layer_2" data-name="Layer 2"><g id="Layer_1-2" data-name="Layer 1"><path class="cls-1" d="M16.18,7.12v-.9a1.6,1.6,0,0,1,1.6-1.6h0a1.6,1.6,0,0,1,1.6,1.6v.9ZM4.44,24.53a2.67,2.67,0,1,0,2.67-2.66A2.67,2.67,0,0,0,4.44,24.53Zm17.78,0a2.67,2.67,0,1,0,2.67-2.66A2.67,2.67,0,0,0,22.22,24.53ZM32,23.47a1.06,1.06,0,0,1-1.07,1.06H28.44a3.56,3.56,0,0,0-7.11,0H10.67a3.56,3.56,0,0,0-7.11,0H1.78A1.78,1.78,0,0,1,0,22.76V9.42A1.78,1.78,0,0,1,1.78,7.64H22.93a2.92,2.92,0,0,1,1.82.76l6.5,6.49A3,3,0,0,1,32,16.71ZM14.22,13.93a.36.36,0,0,0-.35-.36h-2v-2a.36.36,0,0,0-.35-.36H9.84a.36.36,0,0,0-.36.36v2h-2a.36.36,0,0,0-.36.36v1.65a.36.36,0,0,0,.36.36h2v2a.36.36,0,0,0,.36.35H11.5a.35.35,0,0,0,.35-.35v-2h2a.36.36,0,0,0,.35-.36Zm14.21,2.6-.07-1.31a1.48,1.48,0,0,0-.34-.8l-3.7-3.78a1.25,1.25,0,0,0-.78-.33H21.69a.53.53,0,0,0-.53.53v5.69a.53.53,0,0,0,.53.54h6.22A.52.52,0,0,0,28.43,16.53Zm-6.93-12L23,3.6a.37.37,0,0,0,.13-.49h0A.36.36,0,0,0,22.68,3l-1.54.89a.36.36,0,0,0-.13.49h0A.37.37,0,0,0,21.5,4.49ZM20.13,2.86,21,1.32a.36.36,0,0,0-.13-.49h0A.37.37,0,0,0,20.4,1L19.51,2.5a.37.37,0,0,0,.13.49h0A.36.36,0,0,0,20.13,2.86Zm-2-.73V.36A.36.36,0,0,0,17.78,0h0a.36.36,0,0,0-.36.36V2.13a.36.36,0,0,0,.36.36h0A.36.36,0,0,0,18.13,2.13ZM14.54,4.36h0a.36.36,0,0,0-.13-.49L12.88,3a.36.36,0,0,0-.49.13h0a.36.36,0,0,0,.13.49l1.54.89A.35.35,0,0,0,14.54,4.36ZM15.91,3h0A.36.36,0,0,0,16,2.5L15.15,1a.36.36,0,0,0-.48-.13h0a.36.36,0,0,0-.13.49l.89,1.54A.35.35,0,0,0,15.91,3Z"/></g></g></svg>
