<svg xmlns="http://www.w3.org/2000/svg" viewBox="0 0 32 31.3"><path d="M30.2,14.5a3.4,3.4,0,0,0-2.5-1H21.4l-2.5.2-3.4-.4-2.7-.3-1.5.3-1.9.3H5.5a7.8,7.8,0,0,0-.1-.9c-.2-.2-.5-.4-.8-.2s-.8.6-.9.8v.2l-.5.3H3c-.1.1-.6.4-.7.8l-.2.5H2l-.6.9L.8,17c-.1.2-.2.4-.3.4a.1.1,0,0,1-.1.1.8.8,0,0,0-.3,1.1c.2.8,1.5,1,1.8,1s.3-.1.3-.2h.6L4,19.1l1.3-.4c0,.1.1.1.2.1a5.6,5.6,0,0,1,1.6,1.9,9.1,9.1,0,0,0,3.6,3.4v.2a5.2,5.2,0,0,1-.2,1.1l-.3.9a5.7,5.7,0,0,0,.1,1.3c0,.1.1.3.1.4a4.8,4.8,0,0,1-.8,2.2,2.4,2.4,0,0,0-.2.8v.3h2.5V31a11.4,11.4,0,0,1,.4-3.2l.3-.5h.1a.8.8,0,0,1,.2.5.8.8,0,0,1,.2.4,2.6,2.6,0,0,1,0,2.2,1,1,0,0,0-.2.7v.3h2.5V31a21.3,21.3,0,0,1-.5-3.3c0-.2,0-.3.1-.4a.9.9,0,0,0,.1-.5,6.6,6.6,0,0,1,.4-2.5,18.6,18.6,0,0,0,6-.3l3-.9a6.5,6.5,0,0,0,.3,1.6,3.1,3.1,0,0,1,.2.8c0,.3.1.7.1,1a1.1,1.1,0,0,1,.1.5,4.3,4.3,0,0,1-.3,1.7,3.7,3.7,0,0,1-.5,1.1,2.3,2.3,0,0,0-.6,1.2v.3h2.8v-.7a2.2,2.2,0,0,1,.2-1,10.6,10.6,0,0,0,.3-1.4c.3-.9.5-1.9.7-2.6l.3-.4c.1.2.2.3.2.4a3.1,3.1,0,0,0,.5,1,1.4,1.4,0,0,1,.2.6,4.1,4.1,0,0,1,.4,1.7,5.3,5.3,0,0,1-.3,1.2,1.6,1.6,0,0,0-.3.9v.3h2.8V31c0-.2-.1-.8-.2-1.5s-.3-2.8-.3-3.9.1-.3.1-.4a1,1,0,0,0,0-.9,4.7,4.7,0,0,1-.8-1.9c0-.3.2-1.4.3-2.3a8.9,8.9,0,0,0,.3-1.9.9.9,0,0,0,.1-.5,15,15,0,0,1,.2,2.2h0v3.2a.5.5,0,0,0,.4.2h0l.3-.2a10.8,10.8,0,0,0,0-3.2A7.5,7.5,0,0,0,30.2,14.5Z"/><path d="M20.9,11.1a3.4,3.4,0,0,0,2.6,1.1,3.5,3.5,0,0,0,2.7-1.1l4.7-4.6a3.8,3.8,0,0,0,0-5.4A3.9,3.9,0,0,0,28.2,0a4,4,0,0,0-2.7,1.1l-2,2L21.6,5l-.7.8a3.7,3.7,0,0,0,0,5.3Zm5.3-9.3a3.2,3.2,0,0,1,2-.8,2.8,2.8,0,0,1,2,.8,2.8,2.8,0,0,1,0,4l-2,1.9L24.3,3.8Z"/></svg>
