<svg xmlns="http://www.w3.org/2000/svg" viewBox="0 0 17.8 40"><defs><style>.a{fill-rule:evenodd;}</style></defs><path class="a" d="M3.5.3A3.1,3.1,0,0,1,1.9.9C.7,1.1.2,1.1.2,1.8S1.7,3.5,3,4.1,4.4,5.4,4.3,6.2a7.8,7.8,0,0,1-2,3.1c-.9.7-1.3,2.8-1.2,3.8s.5,3.4.2,3.9S-.2,18.7,0,20.4s-.2,3.5.9,3.7l.2-1.9c.1-1,.5-2.9,1.7-3.6a8.6,8.6,0,0,0-1.4,3.7c.1,1.6-.2,2.9-.3,5.1s1.7,7,3.2,7.9.4.3.1,1.6S4,39.1,4,39.1s-1.2.4-1.2.9h2l1.5-4.8s.1-.2-.2-.6a2.6,2.6,0,0,1-.5-1.9c.1-.8.3-2.6,1.6-3.4A4.2,4.2,0,0,1,9.4,32c.2,1.6,1.7,5.8,3.6,7.1s4.8.6,4.8.4-.1-.4-1.2-.3a3.9,3.9,0,0,1-3.9-1.9c-.5-1.2-1.3-4.5-2.1-6.5s-.9-2-1.4-3.1a21.1,21.1,0,0,1-1-5.2,69.4,69.4,0,0,1,.7-11.2,20.3,20.3,0,0,0-.6-9.4C7.5-.2,4.6-.2,3.5.3"/></svg>
