<svg xmlns="http://www.w3.org/2000/svg" viewBox="0 0 32 30.2"><defs><style>.a{fill:#1c232b;}</style></defs><path class="a" d="M20,14.7c0-.2-.1-.3-.1-.4l-.4-.2H18v1.2h1.6l.3-.2C19.9,14.9,20,14.8,20,14.7Z"/><path class="a" d="M31.9,26.3,22.4,10c-.1-.2-.1-.3,0-.4l1.8-3.8c.1-.2.1-.3-.1-.5L19.8.1h-.4L13.5,1.7h-.9l-2.5-.3L8.3,1.3H8L7.4,2,7,2.3A17.1,17.1,0,0,1,5.9,3.7l-.2.2a5.7,5.7,0,0,1-1.8.3l-.5.2-.3.2-.5.2a.7.7,0,0,0-.6.7v.4a.4.4,0,0,1-.1.3,1.8,1.8,0,0,1-.9.4,1.1,1.1,0,0,0-.8.7c0,.2-.1.3-.2.5s0,.2.2.3l.6.3H1l.8.9a.4.4,0,0,1,.1.3A5.9,5.9,0,0,1,2.1,11c.1.1,0,.2,0,.4l-.6,1.2c0,.2-.1.3,0,.4l.5.9v.2a20.5,20.5,0,0,0-.5,2.4v.3c.2.5.5.9.7,1.4s0,.1.1.2l1.2,6.2c.1.9.3,1.9.4,2.8s.3.5.5.5h.2c0,.4-.1.9-.1,1.4s0,.3.2.3l1.8.5h1a.2.2,0,0,0,.2-.2l.5-.6h.2l1.6-.9a5.2,5.2,0,0,1,1.3-.6,1.2,1.2,0,0,1,.8-.1H14a.5.5,0,0,0,.5-.3l.5-.5a.4.4,0,0,0,.1-.3v-.6h.7c.1.1.2,0,.2-.1s.1-.3.2-.4h.2a2.8,2.8,0,0,0,1.3.1h2.1l1.6-.3,2.5-.6h.2l1.8.7h.2c.5,1,.9,2,1.4,2.9s.2.3.4.2l3.9-2.1C32,26.6,32.1,26.6,31.9,26.3ZM10.8,18.1H9.9V14.3l-1,3.8h-1L7,14.3v3.8H6.1V13.2H7.5l.9,3.4.9-3.4h1.5Zm5.3-.7-.9.6-1.2.2a2.8,2.8,0,0,1-1.3-.3,1.9,1.9,0,0,1-.8-1,3,3,0,0,1,0-2.6,2,2,0,0,1,.9-.9,2.2,2.2,0,0,1,1.2-.2,2.6,2.6,0,0,1,1.4.3,1.5,1.5,0,0,1,.6,1.1l-.9.2a.9.9,0,0,0-.4-.6L14,14a1.2,1.2,0,0,0-1,.4,1.6,1.6,0,0,0-.4,1.2,1.7,1.7,0,0,0,.4,1.3,1.2,1.2,0,0,0,1,.4h.6l.5-.3v-.6H14v-.8h2.1Zm4.1.7L19.5,17l-.5-.7-.3-.2H18v2H17V13.2h2.1l1.1.2.6.4a2.4,2.4,0,0,1,.2.8,1.2,1.2,0,0,1-.3.9,2.3,2.3,0,0,1-1,.5,1,1,0,0,1,.5.4,2.2,2.2,0,0,1,.6.7l.6,1Z"/></svg>
