<svg xmlns="http://www.w3.org/2000/svg" viewBox="0 0 22.91 30"><defs><style>.cls-1{fill:#1a2026;}</style></defs><title>Missing Person</title><g id="Layer_2" data-name="Layer 2"><g id="Layer_1-2" data-name="Layer 1"><g id="MISSING_MAN_-_MAGNIFYING_GLASS" data-name="MISSING MAN - MAGNIFYING GLASS"><g id="man"><path id="body" class="cls-1" d="M9.26,19.06c-.19-.16-.38-.32-.56-.5a7.16,7.16,0,0,1,0-10.11,6.9,6.9,0,0,1,1.64-1.23,7.11,7.11,0,0,0-.73-.07h-7s-.66,0-.76.07C.45,7.59,0,9.08,0,10.28v.33c0,.06,0,.11,0,.16v6.75a1,1,0,0,0,1.07,1,1,1,0,0,0,1.06-1V10.77h.81v18A1.27,1.27,0,0,0,4.24,30h0a1.27,1.27,0,0,0,1.3-1.24V18H6.68V28.76A1.27,1.27,0,0,0,8,30H8a1.27,1.27,0,0,0,1.3-1.24l0-1.63Z"/><path id="head" class="cls-1" d="M6.11,6.35A3.18,3.18,0,1,1,9.29,3.18,3.17,3.17,0,0,1,6.11,6.35Z"/></g><g id="magnifying_glass" data-name="magnifying glass"><g id="question_mark" data-name="question mark"><path class="cls-1" d="M14.81,13.85c.11-.09.23-.17.36-.26a2.11,2.11,0,0,0,.35-.32,1.61,1.61,0,0,0,.26-.45,1.8,1.8,0,0,0,.11-.67,1.57,1.57,0,0,0-.11-.53,1.48,1.48,0,0,0-.35-.53,2.07,2.07,0,0,0-.65-.41,2.7,2.7,0,0,0-1-.17,2.24,2.24,0,0,0-.84.16,2,2,0,0,0-.65.44,2,2,0,0,0-.41.66,2.46,2.46,0,0,0-.16.84H13a2,2,0,0,1,0-.43,1,1,0,0,1,.16-.35.67.67,0,0,1,.27-.23.8.8,0,0,1,.39-.09.72.72,0,0,1,.53.18.78.78,0,0,1,.19.58.65.65,0,0,1-.08.38,1,1,0,0,1-.23.28l-.31.26a1.55,1.55,0,0,0-.33.3,1.43,1.43,0,0,0-.26.42,1.48,1.48,0,0,0-.14.61v.38h1.14v-.32a.87.87,0,0,1,.17-.43A1.42,1.42,0,0,1,14.81,13.85Z"/><rect class="cls-1" x="13.19" y="15.41" width="1.15" height="1.15"/></g><path id="magnyfying_glass" data-name="magnyfying glass" class="cls-1" d="M22.63,20.94l-2.71-2.72h0l-1-1h0l-.15-.16A6.16,6.16,0,1,0,7.6,13.5a6.15,6.15,0,0,0,9.73,5l.44.45h0l2.43,2.42h0l1,1a1,1,0,0,0,1.33,0l.11-.12A.92.92,0,0,0,22.63,20.94Zm-5.93-4.5a4.11,4.11,0,0,1-5.82-5.81,4.11,4.11,0,0,1,5.82,5.81Z"/></g></g></g></g></svg>