<svg xmlns="http://www.w3.org/2000/svg" viewBox="0 0 25.6 24.48"><defs><style>.cls-1{fill:#1a2026;fill-rule:evenodd;}</style></defs><title>MIST</title><g id="Layer_2" data-name="Layer 2"><g id="Layer_1-2" data-name="Layer 1"><path class="cls-1" d="M9.94,2H15.7A1.22,1.22,0,0,1,17,3.24V4.85H8.69V3.24A1.19,1.19,0,0,1,9.94,2ZM23.16,4.85H18.83V3.24A3.15,3.15,0,0,0,15.7,0H9.94A3.13,3.13,0,0,0,6.81,3.24V4.85H2.44A2.36,2.36,0,0,0,0,7.33v14.5a2.53,2.53,0,0,0,2.44,2.65H23.12a2.53,2.53,0,0,0,2.48-2.65V7.33A2.34,2.34,0,0,0,23.16,4.85ZM18.35,16.34H14.49V20.2H11V16.34H7.15V12.87H11V9h3.47v3.87h3.86Z"/></g></g></svg>