<svg xmlns="http://www.w3.org/2000/svg" viewBox="0 0 32 31.6"><path d="M32,7.7l-2.9-.8,2.3-3.6L27.7,4.7,26.3,0,24.5,4l-3-2.7.8,4.2H19.1L21.8,8v3.5l2.5-.7,1.9,2.7,1.2-3L31.8,12,29.5,8.5ZM28.8,9.9l-2-.5L25.9,11,25,9.9l-2,.2.2-2.5L21.6,6.5l1.6-.3V4.4l1.6.8L26,3.1l1,2.5,1.6.2-.7,1.5,1,.4-.7.4Z"/><path d="M18.9,9.6l1.2-2-2,.8-.9-2.5-.9,2.3L14.6,6.8,15.1,9l-1.7.2,1.2,1a5.1,5.1,0,0,0-3.5,1.4H11a6.5,6.5,0,0,0-2.3-.6c-.4,0-.6.1-.6.2h0L0,29.1H0c-.1.4.9,1.2,2.3,1.8s2.6.8,2.9.5h0l8-18.1c.2-.3-.5-1-1.6-1.6a3.8,3.8,0,0,1,3.3-1v1.5l1.4-.4,1.2,1.4.5-1.6,2.4.7-1.4-1.9,1.4-.5ZM13,13.3h-.4a5.6,5.6,0,0,1-2.2-.6c-1.5-.7-2.2-1.4-2.1-1.6h.4a9.2,9.2,0,0,1,2.2.6l-.4.4.3.3.5-.4A3.8,3.8,0,0,1,13,13.3Zm5.8-2L17.7,11l-.4.9-.6-.5H15.6V10.2l-.9-.6.9-.2v-1l.9.4.6-1.2L17.7,9h.9l-.3.9.5.2-.4.2Z"/></svg>
