<svg xmlns="http://www.w3.org/2000/svg" viewBox="0 0 100 100"><g id="Layer_2" data-name="Layer 2"><g id="Layer_1-2" data-name="Layer 1"><path d="M80,0H20A20.06,20.06,0,0,0,0,20V80a20.06,20.06,0,0,0,20,20H80a20.06,20.06,0,0,0,20-20V20A20.06,20.06,0,0,0,80,0ZM62.2,17.2a2.11,2.11,0,0,0,.7-2A4.61,4.61,0,0,1,64.7,11a9.81,9.81,0,0,1,5.5-2.1,1.52,1.52,0,0,0,1.1-.6,6.19,6.19,0,0,1,6-2.9,5.32,5.32,0,0,1,3.4,1.5A3.68,3.68,0,0,0,83.6,8a5.39,5.39,0,0,1,4.1,1.5,3.43,3.43,0,0,1,1.1,3.8c-.1.2.2.7.5.9.7.5,1.4.8,2.1,1.3a3.46,3.46,0,0,1-.2,5.8A11.51,11.51,0,0,1,84.5,23a6.86,6.86,0,0,0-4.7.8,10.06,10.06,0,0,1-9.1,0c-1.6-.8-3.2-.7-4.7-1a12.62,12.62,0,0,1-3.4-1.3C60.9,20.5,60.8,18.6,62.2,17.2Zm18,54.9h.6c.2.4.7.8.6,1.2s-.6.6-1,1c-.3-.3-.8-.7-.9-1.1S80,72.5,80.2,72.1Zm-1.6-1.8A2.62,2.62,0,0,1,80.2,69c.2-.1.7.7,1.1,1.1-.2,1.1-.8,1.4-1.5,1.4S78.4,70.9,78.6,70.3ZM79,37.5c-.1.1-.4.1-.4.1a7,7,0,0,1-1-1.6,1.39,1.39,0,0,1,.2-1.1c1.1-.9,2.2-1.8,3.3-2.6.5-.4.9-.2,1,.4a21.16,21.16,0,0,0,.2,2.4c-.1.1-.3.4-.5.6C80.9,36.3,80,36.9,79,37.5Zm-2.8-5.8c-.6.4-1,.2-1.3-.4-.8-1.6-.8-1.6.7-2.8.7-.6,1.4-1.2,2.1-1.7s1.2-.4,1.3.5c.1.6.1,1.1.2,1.7.1,0,.1,0,.1.2a1.53,1.53,0,0,1-.5.7C77.9,30.5,77,31.1,76.2,31.7Zm7.6,41.2c1-.1,1.3.6,1.3,1.3s-.6,1.3-1.6,1.3a1.54,1.54,0,0,1-1.3-1.6C82.3,73.1,82.9,72.9,83.8,72.9Zm2.1,2.6a1.83,1.83,0,0,1,1.4,2,1.74,1.74,0,0,1-1.9,1.9,2.09,2.09,0,0,1-2.1-2C83.3,76.5,84.6,75.6,85.9,75.5Zm.9,4.2c.5.7,1,1.1.9,1.5s-.6.7-.9,1c-.3-.3-.9-.7-.9-1.1S86.3,80.4,86.8,79.7Zm-.3-50.4c-.5.3-.9.2-1.2-.4-.8-1.6-.7-1.9.7-2.9.8-.6,1.6-1.2,2.4-1.9.6-.5.8-.3,1,.3a21.16,21.16,0,0,0,.2,2.4,3.47,3.47,0,0,1-.6.9C88.2,28.3,87.3,28.8,86.5,29.3Zm4.4,51.3a1.52,1.52,0,0,1,1.6,1.6,1.58,1.58,0,0,1-1.7,1.7,1.76,1.76,0,0,1-1.6-1.8C89.1,81.3,89.9,80.6,90.9,80.6ZM68.8,38.1c.7-.5,1.4-1.1,2.2-1.7a3.55,3.55,0,0,1,.9-.4c.1.3.3.5.3.8l.3,2.1c-.2.2-.3.5-.6.7a23.26,23.26,0,0,1-2.6,1.7c-.5.3-.9.3-1.2-.4C67.3,39.2,67.3,39.2,68.8,38.1Zm-2.6-5c-.6.4-1.1.3-1.3-.5-.6-1.6-.6-1.6.7-2.7.8-.6,1.6-1.3,2.4-1.8.2-.1.5-.3.7-.2s.3.4.4.7a18,18,0,0,0,.2,2.2c-.1.1-.3.5-.5.6A23.26,23.26,0,0,1,66.2,33.1Zm-8.8-7.3c1.1-1,2.3-1.8,3.4-2.7.5-.4.8-.1.9.4s.2,1.3.4,2.2a2.51,2.51,0,0,1-.4.7c-.9.6-1.8,1.3-2.7,1.8-.6.3-1.2.3-1.4-.5-.1-.3-.3-.6-.4-.9S57.2,26,57.4,25.8ZM56.5,35c1-.9,2.1-1.7,3.1-2.5.2-.2.6-.4.8-.3s.3.5.4.8a8.75,8.75,0,0,1,.2,1.6.1.1,0,0,0,.1.1,3,3,0,0,1-.7,1.1c-.8.6-1.8,1.2-2.7,1.8-.1.1-.4.1-.4.1A9.91,9.91,0,0,1,56.2,36,1,1,0,0,1,56.5,35ZM40.8,5.1a20.08,20.08,0,0,0,2.4.1,19.22,19.22,0,0,1,2.4,0,1.67,1.67,0,0,1,1.1.9c.2.7-.4.9-1.1.9H40.8c-.7,0-.9-.4-.9-1S40.1,5,40.8,5.1Zm-.6,3,2.3,1c2.2.9,4.4,1.8,6.6,2.8.6.2,1,.7.5,1.2a1.68,1.68,0,0,1-1.3.4c-2.5-1-5-2.1-7.5-3.1a2.47,2.47,0,0,1-.9-.4,1.59,1.59,0,0,1-.5-1C39.5,8.6,39.9,8.4,40.2,8.1Zm-.9,3.1c1.1,1.1,2.3,2.2,3.3,3.4.2.3,0,.8,0,1.3-.4,0-.9.1-1.2-.1-1.3-1.1-2.5-2.4-3.7-3.6a1.15,1.15,0,0,1-.1-1c.2-.3.6-.4.8-.7C38.8,10.8,39.1,10.9,39.3,11.2Zm1.2,10.9c-.2.2-.5.6-.8.6a2.1,2.1,0,0,1-1.1-.7c-.7-1.6-1.3-3.1-2-4.7-.5-1.2-1.1-2.4-1.5-3.6a1.37,1.37,0,0,1,.4-1.2c.5-.4,1,0,1.2.5,1.2,2.9,2.4,5.7,3.6,8.6C40.5,21.7,40.5,21.8,40.5,22.1ZM28.8,5.2c1.3,0,2.8-.1,4.3,0v0h4.6c.9,0,1.1.4,1.1,1.1a5.65,5.65,0,0,1-11.3.3C27.5,5.7,27.7,5.2,28.8,5.2ZM34,16.4v2.4c0,.7-.3,1.2-1,1.1a1.44,1.44,0,0,1-.9-1.1,41.7,41.7,0,0,1,0-5,1.09,1.09,0,0,1,.8-.8c.4,0,1,.4,1,.7A12.21,12.21,0,0,1,34,16.4Zm-8.3,4.8c1.2-2.8,2.3-5.5,3.5-8.3a.87.87,0,0,1,.9-.5c.4.1.7.5,1,.7-.5,1.1-.8,2-1.2,2.9-.8,2-1.7,4-2.6,5.9-.2.3-.8.8-1.2.7C25.5,22.4,25.4,21.8,25.7,21.2Zm-1-5.4c-.4.4-.9.7-1.2.1a1.23,1.23,0,0,1,.1-1.3,51.38,51.38,0,0,1,4-4.1c1.3,1.1,1.3,1.3.1,2.4C26.7,13.9,25.7,14.8,24.7,15.8ZM20.6,5.2a26.15,26.15,0,0,1,2.8,0,9.7,9.7,0,0,0,1.7-.1c.8-.1,1,.4,1,1s-.3.9-1,.9a17.7,17.7,0,0,1-2.3.1H20.7c-.6,0-1.4-.1-1.3-.9A2,2,0,0,1,20.6,5.2ZM17,11.8c2.8-1.2,5.6-2.4,8.4-3.5.5-.2,1-.3,1.3.4.2.5.2.9-.4,1.2l-8.7,3.6c-.1.1-.2.1-.5.1-.2-.2-.5-.5-.5-.8A1.53,1.53,0,0,1,17,11.8ZM8.8,36.3a19.22,19.22,0,0,0-2.4,0c-.3,0-.5-.3-.8-.5.2-.3.5-.8.7-.8,2,.3,3.4-.6,4.8-2,.6-.6,1.7-.7,2.7-1.1-.9-.8-.1-1.5.3-2.1a4.58,4.58,0,0,1,.8-1.3,1,1,0,0,1,.9-.2c.1,0,.3.5.3.7a5.78,5.78,0,0,1-.5,1.4c.7.1,1.5.5,2.1.3a33.65,33.65,0,0,0,3.9-1.5c-.7-.5-1.1-.6-1.4-.9s-.2-.5-.3-.8c.3-.1.7-.3.9-.2.4.2.8.6,1.2.8a7.54,7.54,0,0,0,2.4.8,9.23,9.23,0,0,0,2.9-.3,11.08,11.08,0,0,0,1.9-.9c.3-.1.7-.2,1-.3a1.49,1.49,0,0,0,.2.9c.2.3.6.8.9.8a40.15,40.15,0,0,0,4.9-.2c.2,0,.4-.7.8-1.3a6,6,0,0,1,1.1.6A3.28,3.28,0,0,0,42,29.5c.5-.1,1.5-.6,1.6.4s-.9.7-1.5.8c-.4.1-.7.3-1.1.4a5.82,5.82,0,0,0,.5,1.1,22.89,22.89,0,0,0,2.7,1.4c.9.4,1.6.8,1.5,1.9-.1.8.5,1,1.1,1.2s1.3.3,1.8.5c.2.1.3.6.4,1a2.93,2.93,0,0,1-1,.3,1.69,1.69,0,0,1-1-.3c-1.8-.9-3.5-.3-5.3.1a1.06,1.06,0,0,0-.5,1.8c.5.6,1.2,1.1,1.7,1.7.3.3.3.8.4,1.1-.5,0-.9.1-1.3.1-.2,0-.3-.2-.4-.3-1.2-1.7-2.9-1.6-4.7-1.4a7.58,7.58,0,0,1-2.1.1,4.44,4.44,0,0,0-3.9,1.5c-1.4,1.4-3.2,1.4-5,1.4-.3,0-.7-.5-.8-.8s.3-.7.5-.8c.9-.7,1-.8,0-1.4a2.09,2.09,0,0,1-.6-.4c-1.6-1.1-2.9-.4-3.1,1.6a1.7,1.7,0,0,1-.1.7c-.3.3-.6.7-1,.7a1.27,1.27,0,0,1-.9-.7c-.2-1.1-.8-1-1.6-.7-1.4.4-2.8.7-4.2,1-.3,0-.8-.4-1.2-.6.3-.4.5-.9.9-1a24.75,24.75,0,0,1,2.9-.6,4.88,4.88,0,0,0,1.1-.4,6.42,6.42,0,0,0-1-.6A16.64,16.64,0,0,1,14.1,39a4.49,4.49,0,0,0-3.9-.3c-1.1.3-2.2.6-3.3.8-.3.1-.6-.2-1-.3.2-.3.3-.9.5-1,.8-.3,1.7-.4,2.5-.7a2.76,2.76,0,0,0,.9-.7A2.35,2.35,0,0,0,8.8,36.3ZM24.5,69.5c-.8,1.9-1.6,3.9-1.3,6.1.1,1,.4,1.9.5,2.8a11.48,11.48,0,0,1,0,3.7c-.4,1.8-1.1,3.6-.9,5.6.1.7-.4.9-.8.8-.9-.2-1.1.4-1.1,1.2v3.5c0,.7-.2,1-.8,1H16.6c-.6,0-.9-.3-.8-1,.1-1.2,0-2.5.1-3.7,0-.8-.3-1.1-1-1.1H6.7c-.1.1-.2,0-.6,0,1.4-2.7,2.8-5.3,4.3-8a4.89,4.89,0,0,1-1.3-.1c-.3,0-.5-.2-.8-.2.1-.3.1-.6.3-.8,1.2-2.1,2.4-4.2,3.6-6.4.3-.6.1-1-.5-1H10.1c1.6-2.9,3.2-5.6,4.8-8.5H13.4a1.07,1.07,0,0,1-.6-.2c-.1-.1,0-.5.1-.7,1.7-2.8,3.4-5.7,5.1-8.5.3-.4.5-.6.9-.1,1.8,2.9,3.5,5.8,5.3,8.7.1.1.1.3.1.6-.4,0-.8.1-1.1.1s-.5.1-.8.1c.1.3.1.7.2,1,.6,1.1,1.2,2.1,1.8,3.2A1.84,1.84,0,0,1,24.5,69.5ZM38.4,90.4a7.12,7.12,0,0,1-12.3.8c-1.5-2.3-1.4-4.7-.8-7.3a25.75,25.75,0,0,0,.8-4,17.29,17.29,0,0,0-.7-3.1,9.05,9.05,0,0,1,.3-4.9c0-.1.1-.1.2-.1.3,1.1.5,2.3.8,3.4a5.93,5.93,0,0,0,.7,1.6c.2.3.7.4,1,.6a3.49,3.49,0,0,0,.5-1.3,5.84,5.84,0,0,0-.9-2.3,6.49,6.49,0,0,1-1.3-5,7.4,7.4,0,0,1,2.4-4.4v3.4a11.73,11.73,0,0,0,.5,2.7,3.53,3.53,0,0,0,1.2,1.7c.7.6,1.3.3,1.5-.6a4.82,4.82,0,0,0,.2-2.9,4.12,4.12,0,0,1-.1-1.2,4.6,4.6,0,0,1,2.1,3.2,10.42,10.42,0,0,1-.3,6.3c-.1.1,0,.5.1.5s.4,0,.5-.1c.5-.9.9-1.7,1.4-2.6a12.29,12.29,0,0,0,.2-1.3,4.64,4.64,0,0,1,1.1,3.4,23.55,23.55,0,0,1-1,3.8,2.32,2.32,0,0,0,.1,2c.2.2.5.5.6.5.3-.1.6-.4.6-.6a28,28,0,0,0,.6-2.8,2.35,2.35,0,0,1,.2-.8c.2.1.3.1.3.2C40.2,83,40.3,86.8,38.4,90.4Zm10.8-13c-.8-.5-1.2-1.5-2.2-1.8,0-.8-.6-1-1.2-1.2-.4-.2-.8-.4-.6-1,0-.1-.2-.5-.3-.5-.8-.2-1.3-.5-1.2-1.4,0-.2-.3-.3-.5-.5s-.5-.7-.8-1a7.27,7.27,0,0,0-.8-.9c-.5-.3-.8-.7-.5-1.3.1-.2-.1-.6-.3-.8-.8-.6-.9-.8-.2-1.6.4-.4.4-.7-.1-1-.8-.5-.8-1.1,0-1.7.4-.3.6-.6.2-1a.76.76,0,0,1-.2-.4c.4-.8-.2-1.2-.6-1.7-.5-.7-.1-1.2.5-1.5a.65.65,0,0,0,.3-1c-.1-.2-.2-.5-.1-.6.6-.6.2-1-.3-1.5a1,1,0,0,1,0-1.6c.2-.2.3-.4.5-.6a17,17,0,0,0-1-1.4,1,1,0,0,1,0-1.3,5.52,5.52,0,0,1,2.9-1.8,24.65,24.65,0,0,1,8.5-1.2,51,51,0,0,1,6.8.2,42.9,42.9,0,0,1,6,1.3c.9.3,1.9.7,2.1,1.8s-.9,1.7-1.6,2.4a2.09,2.09,0,0,1-.6.4,1.3,1.3,0,0,0-.9,1.1c-.1.5-.8.9-1.2,1.3a2.29,2.29,0,0,0-.7,1,3,3,0,0,1-2,1.6c-.4.2-.7.3-.7.8a.76.76,0,0,1-.2.4c-.5.6-1.2,1.1-1,2.1,0,.2-.6.5-1,.8-.2.2-.6.4-.6.6.1,1-.6,1.4-1.3,1.7-.1.1-.3.2-.4.4.7.7.7,1.3-.3,1.8-.1,0-.1.4,0,.5.3.9.3.9-.1,1.6.1.1.2.3.3.3q.75.6,0,1.2c-.4.3-.5.5-.1.9.1.1,0,.6-.1.8-.3.3-.4.5-.2.9.5.7.1,1.3-.7,1.4l-4,.3h-.9c0,.1-.1.2-.1.3.3.2.5.5.8.5h4.3c.2,0,.4-.3.6-.5l.6-.3c.1.3.3.6.2.7-.2.3-.5.6-.8.6-1.1.1-2.3.1-3.4.2h-.6a.35.35,0,0,1-.1.2c.3.2.5.5.8.6,1.4.3,2.8.5,3.9-.6.1-.1.4-.2.4-.1a2.19,2.19,0,0,1,.3.5c.1.4.2.7.3,1.1a2.92,2.92,0,0,1-.2.9c0,.2-.1.5-.3.5-.5.1-1.1.4-1.4.3-1.1-.5-2.1-1.2-3.2-1.8C49.7,77.7,49.4,77.5,49.2,77.4ZM94.5,90.3c-2.2.8-4.3,1.6-6.5,2.3a10.75,10.75,0,0,1-6.4-.1,2.18,2.18,0,0,1-.8-.5,3.14,3.14,0,0,0-4.3-.5C73.3,94,69.7,94,66,93.8A6,6,0,0,1,62,92a3.62,3.62,0,0,0-3.4-1,5.61,5.61,0,0,1-5-1.1,4.62,4.62,0,0,1-.7-.7,30.27,30.27,0,0,0,8.8-9.4c2.1-3.3,3.8-6.8,5.7-10.1a26.06,26.06,0,0,1,1.7-2.8,3,3,0,0,1,4.9-.3,42,42,0,0,1,3.3,4.9,49.33,49.33,0,0,0,7.5,10A76.77,76.77,0,0,0,90.7,87a28.17,28.17,0,0,0,3.8,2.1c.3.1.5.4.7.6C94.9,89.9,94.7,90.2,94.5,90.3Zm.4-2.2a2.27,2.27,0,0,1-2.4-2.2,1.92,1.92,0,0,1,2.1-2.3c1.8,0,2.7.9,2.6,2.4S96.4,88.2,94.9,88.1Z"/><path d="M34.5,40c1.1,0,2.4-.1,3.7-.2.9-.1,1.3-.7.7-1.4-1.1-1.3-2.1-2.9-4.3-2.5a2.73,2.73,0,0,0-2.1,3C32.5,40.4,33.5,40,34.5,40Z"/><path d="M38.3,35.4c1,1.8,2.1,2.2,4.4,1.4a1.45,1.45,0,0,0,.9-.8,1.52,1.52,0,0,0-.6-1C41.3,33.7,39.8,34.5,38.3,35.4Z"/><path d="M11.1,34.7c.3.2.5.4.6.4,2.3.3,4.4-.3,6.6-.8.2,0,.4-.5.3-.7a2,2,0,0,0-2.1-1c-1.3.4-2.7.8-4,1.3A5.29,5.29,0,0,0,11.1,34.7Z"/><path d="M29.5,37.5c.2,0,.6.1.8,0a4.74,4.74,0,0,0,1-1,3.92,3.92,0,0,0-1-.8,7.37,7.37,0,0,0-1.4-.4,2.05,2.05,0,0,0-2.8.6c-.2.3-.5.6-.4.8a.89.89,0,0,0,.8.5A13.86,13.86,0,0,0,29.5,37.5Z"/><path d="M26,39.1a.6.6,0,0,0-.1-.4c-.2.1-.5.3-.5.4a1.08,1.08,0,0,0,.3.7c.8.6,1.6,1.1,2.4,1.7.5.4.9.6,1.4.1s1.5-.8,1.2-1.8c-.1-.3-.5-.7-.7-.7C28.7,39,27.3,39.1,26,39.1Z"/><path d="M39.5,33.1c-.1-.2-.1-.4-.2-.5-2.1.1-4.2.3-6.3.4-.1,1.3.2,1.7,1.4,1.7a6.15,6.15,0,0,0,1.9-.2C37.4,34.1,38.4,33.6,39.5,33.1Z"/><path d="M13.3,36.6c.2.3.3.5.5.6,1.3.7,2.7,1.4,4,2,.2.1.6.1.6,0a1.18,1.18,0,0,0,.1-.8c-.1-.5-.5-1-.5-1.6-.1-.9-.4-1-1.2-.8s-1.8.3-2.6.4A3.71,3.71,0,0,0,13.3,36.6Z"/><path d="M19.1,31.8c.4.4.5.7.7.7,1.5,0,2.9-.1,4.4-.2.2,0,.5-.6.4-.9a.85.85,0,0,0-.7-.7C22.1,30.2,20.8,31.3,19.1,31.8Z"/><path d="M21.9,35.7c0,.1.1.2.1.3,1-.4,1.9-.7,2.9-1.1.2-.1.4-.6.3-.7a1,1,0,0,0-.7-.4,18.41,18.41,0,0,0-3.3.3c-.4.1-.7.8-1,1.2.4.2.8.3,1.2.5A4.33,4.33,0,0,1,21.9,35.7Z"/><path d="M19.9,37.2a13.47,13.47,0,0,0,.8,1.9,1.19,1.19,0,0,0,1.1.4,9.51,9.51,0,0,0,2-1.5c.2-.1,0-1-.1-1C22.4,37.1,21.3,37.1,19.9,37.2Z"/><path d="M26.6,32.3c-.1,0-.3.2-.6.3.2.2.4.6.6.7,1.3.4,2.7.8,4,1.2.7.2,1-.3.7-.8a2.38,2.38,0,0,0-1.3-.9A16.29,16.29,0,0,0,26.6,32.3Z"/><path d="M31.7,31.6a4.41,4.41,0,0,0-5-1.4c-.2.1-.3.4-.5.6.2.1.3.4.5.4C28.3,31.3,29.9,31.5,31.7,31.6Z"/><path d="M33.6,30.7v.4c1.5.9,3.2.3,4.8.4-.2-1-.7-1.2-1.4-1.1s-1.6.1-2.4.2A1.64,1.64,0,0,0,33.6,30.7Z"/><path d="M29.2,83c-.6-.9-1.2-1.6-1.7-2.4-.1,0-.2.1-.3.2a2.2,2.2,0,0,1-.1.8,19.83,19.83,0,0,1-.3,3.5,8.27,8.27,0,0,0,.3,4.4A5,5,0,0,0,30.5,93c3.3,1,5.8-1.6,6.8-4.6.2-.6.3-1.3.5-2-.1,0-.2-.1-.3-.2-.3.3-.7.6-1,.9-1,.8-1.9.4-2.1-.9a11.29,11.29,0,0,1,0-2.6c.1-.9.3-1.7.5-2.8-.4.2-.7.3-.8.5-.5.5-.8,1.2-1.3,1.7a5.58,5.58,0,0,1-.8.5c-.1-.3-.3-.6-.2-.9a15.17,15.17,0,0,1,.3-2.1,2.25,2.25,0,0,0-1.3-2.7C31.4,79.9,30,81.2,29.2,83Z"/><path d="M77.7,28.4c-.3.4-.6.9-1,1.5C77.8,29.8,78,29.5,77.7,28.4Z"/><path d="M58.5,35.5c.1.1.2.1.2.2,1-.3,1.2-.6.8-1.6C59.1,34.7,58.8,35.1,58.5,35.5Z"/><path d="M69.8,39.8c1.5-.6,1.6-1,.8-1.6C70.4,38.7,70.1,39.2,69.8,39.8Z"/><path d="M66.7,31.2l.4.4c.3-.4.6-.7.9-1.1a4,4,0,0,0-.4-.3A7.3,7.3,0,0,1,66.7,31.2Z"/><path d="M59.5,26.2l.4.4a10.63,10.63,0,0,0,.9-1.1l-.4-.4C60.1,25.5,59.8,25.8,59.5,26.2Z"/><path d="M80.7,34a16.18,16.18,0,0,1-1,1.8C81.1,35.3,81.2,35.1,80.7,34Z"/><path d="M87.9,25.8a17.38,17.38,0,0,1-1,1.9C88.3,27.3,88.5,26.8,87.9,25.8Z"/><path d="M53.9,77.6a.45.45,0,0,0-.3-.3,20,20,0,0,1-2.4.4V78h2.5C53.8,78,53.9,77.7,53.9,77.6Z"/><path d="M42.8,68.3c-.2-.1-.4-.5-.6-.7h.9c1.8.1,3.5.3,5.3.3a25.16,25.16,0,0,0,3.7-.5,1.42,1.42,0,0,1,.6.2c-.2.3-.3.7-.5.7-1.6.4-3.2.7-4.7,1C45.9,68.9,44.3,68.7,42.8,68.3Z"/><path d="M51.9,72.9a13,13,0,0,1-5.2.2,1.85,1.85,0,0,0-.7.2c.2.2.3.5.5.5,1.1.2,2.2.3,3.3.4.8-.2,1.6-.3,2.3-.5.2-.1.3-.4.5-.6C52.4,73,52.1,72.8,51.9,72.9Z"/><path d="M52,72.1a12,12,0,0,1-6.5.1,3.13,3.13,0,0,1-1-.5.37.37,0,0,0,.1-.3c.4,0,.7-.1,1,.1a16.19,16.19,0,0,0,6.2-.2,2.92,2.92,0,0,1,.9.2C52.5,71.7,52.3,72,52,72.1Z"/><path d="M52.4,70.1a22.54,22.54,0,0,1-3.6.6,18.88,18.88,0,0,1-4.1-.3,9.74,9.74,0,0,1-1.1-.5c0-.1.1-.2.1-.3a2.77,2.77,0,0,1,.9.1,20,20,0,0,0,7.3-.3.37.37,0,0,1,.3-.1,2.54,2.54,0,0,1,.7.2C52.7,69.7,52.6,70.1,52.4,70.1Z"/><path d="M52.7,66.1a25.82,25.82,0,0,1-2.6.8c-1,.1-2,.2-3.3.3-1.2-.2-2.7-.5-4.1-.7-.2,0-.3-.1-.5-.2-.4-.2-1.1-.4-.8-1s.8-.2,1.2-.1a22.07,22.07,0,0,0,8.5.3,6.88,6.88,0,0,1,1.3-.2,1.85,1.85,0,0,1,.7.2C53,65.7,52.9,66,52.7,66.1Z"/><path d="M53.1,63.9a15.29,15.29,0,0,1-6.7.8,31.17,31.17,0,0,1-4.4-.9c-.8-.2-1-.7-.6-1.4a24.52,24.52,0,0,0,12.3.7c.1.1.2.1.2.2C53.6,63.5,53.4,63.8,53.1,63.9Z"/><path d="M41.2,58.1a2.2,2.2,0,0,1,.8.1,18.38,18.38,0,0,0,6.1,1.2c1.9.1,3.7,0,5.5,0,.3,0,.6.1.9.1a.37.37,0,0,1,.1.3,6.58,6.58,0,0,1-1.5.4,45.78,45.78,0,0,1-5.3.3c-1.7-.1-3.4.1-5-1-.3-.2-.9-.2-1.3-.5C41.2,58.9,41.3,58.4,41.2,58.1Z"/><path d="M54.1,61.9c-1.2.2-2.3.4-3.5.5a16.28,16.28,0,0,1-7.9-.9,4.35,4.35,0,0,1-.7-.4c0-.1.1-.2.1-.3a27.21,27.21,0,0,0,13.3.1A1.48,1.48,0,0,1,54.1,61.9Z"/><path d="M42.4,56.3a3.54,3.54,0,0,0,.6-.1,30.35,30.35,0,0,0,11.6,1,2.61,2.61,0,0,1,1.1.3C53.3,58.8,44.2,58.5,42.4,56.3Z"/><path d="M56.5,57.3c.4,0,.8.1,1.1.1.1,0,.1-.3.2-.4a7.38,7.38,0,0,0-1.2-.2C56.6,57,56.5,57.1,56.5,57.3Z"/><path d="M57.6,55.5l-4.5.6v-.2c-1.8,0-3.6.1-5.4,0a7.29,7.29,0,0,1-4.2-1.2c-.4-.3-1-.3-1.4-.5-.2-.1-.3-.4-.4-.6.2,0,.5-.1.7,0a14.24,14.24,0,0,0,6.1,1.3c2.5.2,5.1,0,7.7,0,.4,0,.8-.1,1.2-.1a1.49,1.49,0,0,1,.7.3C58,55.2,57.8,55.5,57.6,55.5Z"/><path d="M62.3,51.7c-.5.4-1,.8-1.8.3a9.46,9.46,0,0,0-1.8-.5v.1a7.14,7.14,0,0,0,1.5.8.6.6,0,0,0-.1.4,33.21,33.21,0,0,1-4.4.6,67.67,67.67,0,0,1-7.8-.1,15.82,15.82,0,0,1-3.6-.9,5.85,5.85,0,0,1-1.7-1,.8.8,0,0,1,.1-1.4,13.59,13.59,0,0,1,2.8-1.1,31.82,31.82,0,0,1,11.1-.5,27,27,0,0,1,5.6,1.4C63.3,50.2,63.3,51,62.3,51.7Z"/></g></g></svg>
