<svg xmlns="http://www.w3.org/2000/svg" viewBox="0 0 40 40"><path d="M37.2,24.6l-.7-.6-3.3-2.9a9.1,9.1,0,0,0-4.5-1.6l-1.9-1.9a3.6,3.6,0,0,0-2.2-.9,3.3,3.3,0,0,0-3,2.3,4.2,4.2,0,0,0-1.5-.4h-.2a2.9,2.9,0,0,0-1.6.4,3.1,3.1,0,0,0-4-2,3.5,3.5,0,0,0-1.2.7l-1.9,1.9a8.6,8.6,0,0,0-4.5,1.7L3.4,24.1l-.7.6a8.9,8.9,0,0,0-.1,12.6A8.7,8.7,0,0,0,8.9,40a9.1,9.1,0,0,0,8.9-7.9,4,4,0,0,0,2.2.6,4.3,4.3,0,0,0,2.2-.6A8.9,8.9,0,0,0,39.9,30,8.5,8.5,0,0,0,37.2,24.6ZM15.1,32.1a6.2,6.2,0,0,1-6.3,5,6.1,6.1,0,0,1,0-12.2h1.4A6.1,6.1,0,0,1,15.1,32.1Zm4.8-1.9a2,2,0,0,1-2-2,1.9,1.9,0,0,1,1.9-2h.1a2,2,0,0,1,0,4Zm11.2,7.1a6.2,6.2,0,0,1-1.5-12.2h0l.8-.2H31A6.1,6.1,0,0,1,37.2,31,6.2,6.2,0,0,1,31.1,37.3Z"/><path d="M32.6,11.4a1.1,1.1,0,0,0,.8-.3,1.8,1.8,0,0,0,.3-1.1V6.9h2.1A4.6,4.6,0,0,0,38.9,6,3.3,3.3,0,0,0,40,3.4a3.7,3.7,0,0,0-.3-1.5A2.6,2.6,0,0,0,39,.8,3.4,3.4,0,0,0,37.8.2l-2-.2H32.9a1.6,1.6,0,0,0-1.1.3,1.2,1.2,0,0,0-.4,1.1v8.7a1.7,1.7,0,0,0,.3,1A1.4,1.4,0,0,0,32.6,11.4Zm1.1-9.7h1.5a3.4,3.4,0,0,1,2.1.5,2.1,2.1,0,0,1,.4,1.2,1.5,1.5,0,0,1-.3,1,1.6,1.6,0,0,1-.8.6H33.7Z"/></svg>
