<svg xmlns="http://www.w3.org/2000/svg" viewBox="0 0 29.1 32"><defs><style>.a{fill:#1c232b;}</style></defs><path class="a" d="M16.6,5a1.9,1.9,0,0,0,1.6-.7,2.1,2.1,0,0,0,.7-1.8A2.1,2.1,0,0,0,18.2.7,2.2,2.2,0,0,0,16.6,0L15.5.2l-.6.5a2.1,2.1,0,0,0-.4.6,2.3,2.3,0,0,0-.2,1.2,2.4,2.4,0,0,0,.6,1.8A2.1,2.1,0,0,0,16.6,5Zm-1-3.7a1.3,1.3,0,0,1,1-.4,1,1,0,0,1,.9.4c.3.2.4.6.4,1.2a1.5,1.5,0,0,1-.4,1.2,1,1,0,0,1-.9.4,1.3,1.3,0,0,1-1-.4,1.9,1.9,0,0,1-.4-1.2A1.9,1.9,0,0,1,15.6,1.3Z"/><path class="a" d="M20.6,4.7a2.5,2.5,0,0,0,1.3.3A2,2,0,0,0,23,4.7a1.9,1.9,0,0,0,.9-.5V2.3H21.8v.8h1.1v.6a.5.5,0,0,1-.5.3h-.6a1.3,1.3,0,0,1-1-.4,2.1,2.1,0,0,1-.3-1.2,1.7,1.7,0,0,1,.3-1.2,1.3,1.3,0,0,1,1-.4.8.8,0,0,1,.7.2,1,1,0,0,1,.4.5l.9-.2a1.5,1.5,0,0,0-.6-1A2.6,2.6,0,0,0,21.8,0a2,2,0,0,0-1.1.3,2,2,0,0,0-.9.9,2.8,2.8,0,0,0-.3,1.3,5.9,5.9,0,0,0,.2,1.3A3.8,3.8,0,0,0,20.6,4.7Z"/><path class="a" d="M25.8,2.9h.6l.3.2a2.5,2.5,0,0,1,.5.7l.7,1h1.2L28.5,4,28,3.2l-.6-.4c.5-.1.8-.2,1-.5a1.1,1.1,0,0,0,.3-.8,1.9,1.9,0,0,0-.2-.8c-.2-.2-.3-.4-.6-.4L26.8.1h-2V4.9h1Zm0-2h1.8a.6.6,0,0,1,.1.4c0,.2,0,.3-.1.4l-.3.2H25.8Z"/><path class="a" d="M29,22.1l-.6-4.9a.2.2,0,0,0-.2-.2l-.4-.2c-.2-.2-.2-.3-.1-.5s.3-1,.4-1.6v-.2c-.2-.3-.3-.7-.5-1v-.2l.3-.8v-.2l-.3-1a.1.1,0,0,0-.1-.1l-.7-.8h-.3l-2.7.8H22.6c0-.1,0-.2-.1-.2a4.3,4.3,0,0,1-.4-.7,2.2,2.2,0,0,0-.5-.8l-.5-.2c-.2,0-.4.1-.6,0h-.2l-1.7.2a2,2,0,0,0-.8.4l-.3.3A6,6,0,0,1,16.9,9l-.3-.6c-.2-.1-.2-.2,0-.4l.4-.8c0-.1,0-.2-.2-.3l-.4-.2L16,6.5l-1.1-1h-1L12.3,4.2h-.1L10.3,1.7V1.5A7.6,7.6,0,0,1,10.2,0H9.8c-.2,1.3-.5,2.7-.7,4.1S8.7,6.7,8.4,8l-.6,3.9A3.6,3.6,0,0,0,7.6,13H7.5L5.8,10.7q-.1-.3-.3,0l-.4.4a1.4,1.4,0,0,1-.8.7h-1a10.9,10.9,0,0,0-.8,1.5A11,11,0,0,1,1.6,15C1,15.7.5,16.5,0,17.2v.7a.2.2,0,0,0,.2.2H.3l.6.4C7,22,13.1,25.5,19.3,28.8L25,31.7a2.7,2.7,0,0,0,1.2.3h.4a5.7,5.7,0,0,1,.1-1.3V30a1.8,1.8,0,0,0,.2-1c0-.1,0-.2-.1-.2s-1.1-1.8-1.7-2.6l-.4-.7-.3-.7a.4.4,0,0,1,.1-.3L25.7,23h3.2c.2,0,.2,0,.2-.2A1.3,1.3,0,0,0,29,22.1Zm-4.9,2.1H24l-1.5-1.2H19.1a2.7,2.7,0,0,1-1.2-.3l-1.4-.7-1.2-.5-1-.4c-.1-.1-.2-.1-.3.1l-.7.9h-.1a20,20,0,0,0-.4-2.4c0-.1,0-.2-.1-.2l-2.5-1.9h-.1l2.7-3.3c.1,0,.1,0,.1.1l1.2.5.9.2h1.6l.9.9c0,.1.1.2.3.2h2.3L22,17.6v1.5l.2.3,3.4,2h.2Z"/></svg>
