<svg xmlns="http://www.w3.org/2000/svg" width="37.9" height="15.8" viewBox="0 0 37.9 15.8">
  <title>Open Gate</title>
  <g id="Layer_2" data-name="Layer 2">
    <g id="Layer_1-2" data-name="Layer 1">
      <g>
        <path d="M19,5.5V2.7c0-.3-.1-.5-.2-.5H16.9c-.1,0-.3.2-.3.5v.4H2.4V2.7c0-.3-.1-.5-.3-.5H.2c-.1,0-.2.2-.2.5V13.5c0,.3.1.5.2.5H2.1c.2,0,.3-.2.3-.5V10.7H16.6v2.8c0,.3.2.5.3.5h1.9c.1,0,.2-.2.2-.5v-8ZM16.6,8.3H2.4V5.5H16.6Z" fill="#1a2026" fill-rule="evenodd"/>
        <path d="M37.6,0H35.7c-.1,0-.2.2-.2.5V.9l-11.6,4V4.5c0-.3-.1-.5-.2-.5h-2c-.1,0-.2.2-.2.5V15.3c0,.3.1.5.2.5h2c.1,0,.2-.2.2-.5V12.5l11.6-4v2.8c0,.3.1.5.2.5h1.9c.2,0,.3-.2.3-.5V.5C37.9.2,37.8,0,37.6,0ZM35.5,6.1l-11.6,4V7.3l11.6-4Z" fill="#1a2026" fill-rule="evenodd"/>
      </g>
    </g>
  </g>
</svg>
