<svg xmlns="http://www.w3.org/2000/svg" viewBox="0 0 27.15 29.94"><defs><style>.cls-1{fill:#fff;}.cls-2{fill:#1a2026;}</style></defs><title>Other Wildlife Sighting</title><g id="Layer_2" data-name="Layer 2"><g id="Layer_1-2" data-name="Layer 1"><path class="cls-1" d="M21,15.65c-.52-.15-1,.58-1.42.91A7.88,7.88,0,0,0,18,18.46c-.33.73-.68,1.44-1.07,2.15A5.9,5.9,0,0,0,15.86,24a3.22,3.22,0,0,1-.32,1.83,1.87,1.87,0,0,0-.15,1.29c.13.41.36.84.53,1.24.09.21.29.33.39.53.39.77-1.64.76-1.38-.19-.56.08-.22-.66-.33-.92.09.22-.12-.22-.16-.3a1.48,1.48,0,0,1-.11-.66,7.49,7.49,0,0,0,0-1.16c-.08-.53-.24-1-.29-1.57a11.79,11.79,0,0,1,.12-1.18l0,.36a7.9,7.9,0,0,0-.09-1.94c-.05-.33-.09-.5-.45-.45a16.76,16.76,0,0,1-4.69.25A12.34,12.34,0,0,0,7.33,21c-.24,0-.14-.06-.34.11a2.57,2.57,0,0,0-.28.37l-.81,1A4.18,4.18,0,0,0,4.75,26a7.51,7.51,0,0,0,.8,1.54c.16.32.15.72.35,1s.66.55,0,.63a2.21,2.21,0,0,1-1-.08c-.2-.11-.19-.14-.13-.43-.41.09-.49-.62-.68-.92a5.12,5.12,0,0,1-.74-1.33,8.77,8.77,0,0,1-.83-2.57c.05-.89,1.06-1.29,1.19-2.14s-.93-1.87-1.22-2.61a5.29,5.29,0,0,0,0,2.06c.09.42-.74,1.6-.67,1.45,0,0-.17.2-.16.24a1.53,1.53,0,0,1,.06-1c.13-.55.21-1.11.31-1.66a6.58,6.58,0,0,0,0-1.66,3.53,3.53,0,0,1,2-3.48c1.68-.79,3.71-.34,5.46-.1a4.43,4.43,0,0,0,2.11,0,14.4,14.4,0,0,0,1.41-.58,8.49,8.49,0,0,1,2.33-.81c.44-.07.41-.28.66-.62.08-.12.25-.4.36-.18-.07-.32.29-.57.51-.74a3.44,3.44,0,0,1,2.06-.9c.07,0,.21.06.26,0s.08,0,.25-.1.56.09.84,0c.08,0,.23-.22.33-.26a1.12,1.12,0,0,1,.44-.06,3.33,3.33,0,0,1,.88.12c.27.07.69.18.81.47s-.14.41-.14.61a5.65,5.65,0,0,0,.29.53c0,.11.06.21.09.32a4.41,4.41,0,0,0,.27.85,7.67,7.67,0,0,0,.91,1.47A2.48,2.48,0,0,1,25,16.47a1,1,0,0,1-1,1,1,1,0,0,1-.81-.34,3.34,3.34,0,0,1-.43-.48,2.91,2.91,0,0,1-.27-.2A3.83,3.83,0,0,0,21,15.65Z"/><path class="cls-2" d="M22.82.8l0,0S22.83.83,22.82.8Zm.75.11h0S23.57.91,23.57.91ZM3.72,21.66c.09-.63-.41-1.27-.77-1.8,0,0-.37-.73-.39-.69s-.05,0-.05,0a3.7,3.7,0,0,0,.1.89l.18.88a2.34,2.34,0,0,1-.31,1.3,5,5,0,0,1-.49,1c0,.38-.1.76.07.21s.2-.38.2-.29v.08L1.12,26.37a2.93,2.93,0,0,1-.22.43.79.79,0,0,0-.19.4,2.69,2.69,0,0,1,0,.56,2.83,2.83,0,0,1-.35.58s-.19.08,0,.26a1.34,1.34,0,0,0,1.05.47c.44-.06.17-.44.17-.56s-.17-.32-.16-.35v-.27a3.21,3.21,0,0,1,.18-.41.76.76,0,0,0,.11-.32,6.17,6.17,0,0,1,.19-.65,1.53,1.53,0,0,1,.09-.38,3.44,3.44,0,0,0,.23-.62c0-.08.27-.66.46-1.12a1.91,1.91,0,0,1-.06-.58C2.59,22.92,3.59,22.52,3.72,21.66Zm12.44,1.48a18.29,18.29,0,0,1,.64,1.78c.34,1,.78,2.53.78,2.58a4.64,4.64,0,0,0,.19.73c.05.09.39.63.41.72s-.43.55-.12.79,1.71.26,1.71.09-.61-.58-.66-.7-.32-.39-.32-.61.08-.15,0-.37-.17-.27-.19-.41-1.21-3.51-1.21-3.58a10.07,10.07,0,0,0-.16-1.51,11.56,11.56,0,0,1-.48-1.15,2.94,2.94,0,0,0-.1-.32A7.16,7.16,0,0,0,16,22.71,2.45,2.45,0,0,0,16.16,23.14Zm-6.21-2a2.76,2.76,0,0,1-.08.35,4.68,4.68,0,0,0-.39,1c0,.24-.14,1.63-.24,2.18s-.43,1.91-.43,1.91-.51-1.29-.63-1.53a7.62,7.62,0,0,1-.44-1.26,2.33,2.33,0,0,1,0-.93,15.08,15.08,0,0,1,.4-1.6s0-.14.09-.3A4.47,4.47,0,0,0,7.31,21c-.24,0-.14-.07-.34.11a2.57,2.57,0,0,0-.28.37l-.48.62A3.48,3.48,0,0,0,6,23c.07.07.63.94.7,1a5,5,0,0,1,.41.71c.15.29,1.15,2.55,1.17,2.61s.23.53.23.53a4.27,4.27,0,0,0,0,.54,2.76,2.76,0,0,1,0,.44l-.19.55.49.06,1.21.14a1.1,1.1,0,0,0,.51-.07.22.22,0,0,0,0-.4c-.13,0-.46-.45-.46-.45L9.42,28l0-.17a3.11,3.11,0,0,1,.07-.68,3.94,3.94,0,0,0,.12-.84,23.15,23.15,0,0,1,.53-2.41,3.23,3.23,0,0,0,.52-.8,2.39,2.39,0,0,0,.17-.63c0-.13.25-.87.37-1.33C10.77,21.17,10.36,21.17,10,21.16ZM27,4a6.59,6.59,0,0,0-.57-.75s-.48-.71-.52-.8a1.61,1.61,0,0,1-.17-.42c0-.08-.07-.29-.07-.4s.15-.24.07-.3-.28-.27-.29-.22-.12.06-.12.06l-.12,0H25.1S25,1.15,25,1.11s.09-.05,0-.09,0,0-.18-.06a1.3,1.3,0,0,1-.24-.23s.12-.51,0-.6-.47-.24-.54,0,0,.25,0,.25-.23,0-.26,0-.18.22-.17.29.13,0,0,.14-.09.07-.09.08,0,0,0,0,0,0,0,0-.25-.23-.29-.25S23,.47,23,.47a.45.45,0,0,0-.2.27.11.11,0,0,0,0,.06s0,0,0,0,0,0,0,0L22.45.5s-.28-.28-.27.17a1.24,1.24,0,0,0,.08.53c0,.05.1.27.1.27S21,2.55,20.88,2.69a3.92,3.92,0,0,0-.45.61c-.05.1-.63.52-.68.65a3.62,3.62,0,0,1-.63.72c-.1.07-.67.55-.74.59s-.6.66-.67.73-.63.43-.69.5-1.22.91-1.25.92l-.66.43c-.06,0-.71.36-.82.46s-.45.15-.46.19-.12.14-.12.14l-.81.26c-.12,0-.44.07-.49.16a1.14,1.14,0,0,1-.31.4,2.56,2.56,0,0,0-.38.38,2.25,2.25,0,0,0-.27.26,6.18,6.18,0,0,0-.63.47,1.8,1.8,0,0,1-.39.39l-.59.31c-.08.05-.16.18-.28.24s-.52.23-.59.27-1.07.38-1.19.41-.29.11-.47.13l-.52.08a1.16,1.16,0,0,0-.49.26,2.59,2.59,0,0,1-.34.28s-.16.16-.16.21-.1.1-.12.13l-.36.3c-.07,0-.27.16-.33.31a3.23,3.23,0,0,1-.29.53,4.07,4.07,0,0,0-.24.47c1.6-.58,3.47-.19,5.1,0a4.56,4.56,0,0,0,2.11,0,14.4,14.4,0,0,0,1.41-.58,8.51,8.51,0,0,1,2.33-.82.5.5,0,0,0,.35-.16,1.23,1.23,0,0,1,.12-.76A25.93,25.93,0,0,1,18.11,10a24,24,0,0,0,2.25-2.93c.06-.09,1.38-1.65,1.63-2a13.68,13.68,0,0,1,1.09-1.41c.14,0,.36,0,.41-.08a.36.36,0,0,1,.44,0,1.76,1.76,0,0,0,.76.51c.17,0,.87.07.87.07a3,3,0,0,1,.3.28,3.47,3.47,0,0,0,.77.57c.11,0,.48.41.52-.34A1.3,1.3,0,0,0,27,4ZM15.9,24.33a2.19,2.19,0,0,1-.1.74A12.27,12.27,0,0,1,14.22,25a2.66,2.66,0,0,1-.07-.37,7.65,7.65,0,0,0,1.32.07c-.29-.21-1-.19-1.37-.33a2.75,2.75,0,0,1,0-.52A16.2,16.2,0,0,1,15.9,24.33ZM14.13,13.88h0l-.33.14a9.37,9.37,0,0,0,0,2.11,6.81,6.81,0,0,1-.29,2c-.14.48-.63,1.13-.4,1.59.19-.59.51-.48.8-1,.18-.36.3-1.52.52-1.66.27.86,2.07,2.36,2.87,3.14l.12-.22a24,24,0,0,0-1.84-2.87C14.73,15.83,14.18,15.35,14.13,13.88Zm0,8.2A2.08,2.08,0,0,0,15.35,22a2.71,2.71,0,0,0-1.28-.74c.73-.21,1.56.28,2.31.42,0,.06-.24.56-.32.77a6.16,6.16,0,0,1-1.89-.29ZM5.27,27l.07.13c-.51,0-.84.3-1.37.35a1.09,1.09,0,0,1-.06-.11,1.34,1.34,0,0,0,.3-.05c-.09-.11-.21-.14-.44-.15,0-.08-.1-.15-.13-.23.24,0,.43.08.72.1A6.85,6.85,0,0,0,5.27,27Zm.27.48a3.05,3.05,0,0,0,.8,1c.45.32.28.27,0,.49a1.91,1.91,0,0,1-1.48.07c-.23-.09-.11-.34-.2-.39-.32-.18-.2-.08-.36-.48,0-.1-.17-.36-.23-.54A5.37,5.37,0,0,1,5.54,27.49Zm9.79-.85c0,.05,0,.29,0,.35-.4.09-.51.36-.92.46a1,1,0,0,1-.11-.3,1.08,1.08,0,0,1,0-.26A7.69,7.69,0,0,0,15.33,26.64Zm.89,2.06a.4.4,0,0,1-.23.73,1.36,1.36,0,0,1-1-.23c-.13-.17,0-.42-.3-.57s-.07-.57-.09-.82c.54,0,.47-.35,1-.26C15.7,27.72,16,28.58,16.22,28.7ZM4.68,25.47a6.59,6.59,0,0,0-1.58.17l-.17-.37a8.91,8.91,0,0,1,1.78-.41A5.53,5.53,0,0,0,4.68,25.47Zm.7-5a8.67,8.67,0,0,1-2.16-.2,8.28,8.28,0,0,1-.7-1.17c.45.11.75.13,1.16.24a9.08,9.08,0,0,0,1.71.13c.52,0,1.23.85,1.39,1.21,0,0,.14.48.07.53A1.89,1.89,0,0,0,5.38,20.42ZM2.81,23.11c0-.13.55-.64.61-.78.2.06.27.22.47.31a7.75,7.75,0,0,0,1.72.24c0,.08-.37.57-.4.64C4.66,23.57,3.19,23.53,2.81,23.11Zm11.28-3c.34-.33,1-.4,1.09-.91h0c.18.17.62.52.64.74-.37-.23-.92.19-1.27.4A1,1,0,0,0,14,21a.26.26,0,0,0-.23-.18A1.21,1.21,0,0,1,14.09,20.08Zm-3.59-.86c.06-.47,0-.93,0-1.4a2.66,2.66,0,0,0-1.06-2.63l-.39-.35.68.1a4.77,4.77,0,0,1,.92.76c.08.16,0,.68.21.73s.29-.4.27-.54a1,1,0,0,0-.67-.86l.49,0a1.79,1.79,0,0,0,.5-.08c.25-.05.26.74.22,1.06-.17,1.12-.46,2.39-.7,3.5a2,2,0,0,0-.09.76C10.83,20.29,10.43,20,10.5,19.22Zm12.9-2.75c.28-.06.27-.16.53-.33s.06-.7.11-.72.21.21.32.41-.09.44,0,.65.35.37.56.47a2.47,2.47,0,0,1-.19.36c-.14.14-.63.13-.95.17s-.51-.42-.69-.55c0,0-.13-.15-.15-.16C23,16.56,23.18,16.52,23.4,16.47Zm1.09-.36c.06-.15.25,0,.42.24a.74.74,0,0,1-.13.21l0,0a.34.34,0,0,0-.15-.06C24.42,16.5,24.41,16.31,24.49,16.11Zm-1.64-.3a5.4,5.4,0,0,1,1.07-.12h0c-.35.53-1.25,0-1.28.83-.06,0-.11-.09-.17-.15C22.51,16.11,22.55,15.93,22.85,15.81Zm-.24-1.16c.51-.05,1.07-.09,1.33.49A1.84,1.84,0,0,0,22.36,15c-.41.22-.26.62-.33,1-.1,0-.14-.09-.25-.13a3,3,0,0,1,0-.85C22,14.66,22.15,14.69,22.61,14.65Zm-1-1.1c.17.3-.33.79-.5,1.22s0,.59,0,.9l-.19,0a3.07,3.07,0,0,1,.34-1.87S21.42,13.25,21.58,13.55Zm1.1-.72h0c-.17,0-.22-.45-.25-.63a1.21,1.21,0,0,1,.07-.61l.08.08C22.46,12,22.66,12.51,22.68,12.83Zm.12.06a1.48,1.48,0,0,0,.24.67c.15.23.56.78.56.78a7,7,0,0,1-.86-1C22.66,13.15,22.78,12.73,22.8,12.89Zm.07.88.69.7a5,5,0,0,1-.77-.58C22.75,13.78,22.77,13.67,22.87,13.77Zm-.72,0c-.19,0-.15-.18-.24-.31s-.25-.12-.07-.16.18-.12.42-.14.67.65.45.53S22.35,13.8,22.15,13.76ZM20.65,11c.32-.24.58.06,1,.42a1.08,1.08,0,0,0-.76-.13.53.53,0,0,0-.27.68h0A.6.6,0,0,1,20.65,11ZM8.42,20.15l-.16-.07c-.2-.34-.44-.07-.57-.5a3.4,3.4,0,0,0-1.93-2.39c-.55-.29-1.15-.45-1.71-.71a2,2,0,0,0-.76-.34,1.87,1.87,0,0,0-.63.18.57.57,0,0,0,0,.18s0,.14,0,.28h0c-.05.3-.1.7-.13,1h0a4.68,4.68,0,0,0,.08,2.36A3,3,0,0,1,2.69,22c-.09-.57-.06-.74-.31.24S1.83,23.33.94,23.67s-.94.88-.94.88a1.91,1.91,0,0,1,.66-1.2A4.89,4.89,0,0,0,1.6,21a7,7,0,0,0,.27-1.37s-.14,0-.27.53c-.16-.27.27-1.28.42-2.07a6,6,0,0,1,.58-2.08s.13-.25.25-.29a3.73,3.73,0,0,1,3.35,0,3.85,3.85,0,0,1,2.11,2.73A5.22,5.22,0,0,1,8.42,20.15Zm12.69-6.7-.08.06a.09.09,0,0,1,0,0l-.14.09a9.16,9.16,0,0,0-.17-1.36h.05l.15-.17,0,.23.26-.14-.14.22.25-.22-.11.34.25-.17-.2.52h.33l-.11.18.18-.11-.38.46-.12.08Zm.94-2.38a2.37,2.37,0,0,0,.06.76,3.48,3.48,0,0,1,.18.85c-.11,0-.22-.35-.29-.48a.76.76,0,0,1-.13-.51c0-.17,0-.35.07-.52ZM17,13.36s-.29-.64-.42-1a.42.42,0,0,0-.1.35c-.11-.22-.27,0-.35.17a1,1,0,0,1,.4.43c0,.11.06.21.08.3a11.53,11.53,0,0,0,.87,2.18,15.91,15.91,0,0,0,1,1.95c.08-.12.18-.24.27-.35-.18-.72-1-2-1.18-2.53S17,13.36,17,13.36Zm1.59-2.23a2.16,2.16,0,0,0-.43.14,1.94,1.94,0,0,1,.42.69c.43,1.14.67,3.1,1.22,4.38L20.1,16A28.46,28.46,0,0,1,19,11.85,6.13,6.13,0,0,0,18.54,11.13Z"/></g></g></svg>