<svg xmlns="http://www.w3.org/2000/svg" width="26.2" height="27.7" viewBox="0 0 26.2 27.7">
  <title>Patrol Overnight Stays</title>
  <g id="Layer_2" data-name="Layer 2">
    <g id="Layer_1-2" data-name="Layer 1">
      <g>
        <path d="M1.2,2.8A6.7,6.7,0,0,1,7.2,0,6.8,6.8,0,0,0,4.6,2.2a6.6,6.6,0,0,0,1.6,9.2,5.9,5.9,0,0,0,3.1,1.2A6.6,6.6,0,0,1,1.2,2.8Z" fill="#1a2026"/>
        <path d="M14,1.8l-1.9.3,1.3,1.4-.3,1.8,1.7-.9,1.7.9-.3-1.8,1.4-1.4-1.9-.3L14.8.1Z" fill="#1a2026"/>
        <path d="M7.9,6.5l-1.4.2,1,1L7.2,9.1l1.3-.7,1.2.7L9.5,7.7l1-1L9.1,6.5,8.5,5.3Z" fill="#1a2026"/>
        <path d="M24.8,6.6a1.2,1.2,0,0,0-1.3,1.2V13H18.8V11.7a1.3,1.3,0,0,0-1.4-1.2,1.2,1.2,0,0,0-1.3,1.2v1.6c-.9.4-1.5.9-1.5,1.5V25.7c0,1.1,1.9,2,4.2,2H22c2.3,0,4.2-.9,4.2-2V17.8h0V7.8A1.3,1.3,0,0,0,24.8,6.6Zm-4.4,9.2a.6.6,0,1,1-.6.6A.6.6,0,0,1,20.4,15.8Zm-2.2,0a.6.6,0,0,1,0,1.2.6.6,0,0,1,0-1.2Zm5,4.2H17.6V18.1h5.6Zm-.6-3a.6.6,0,0,1,0-1.2.6.6,0,0,1,0,1.2Z" fill="#1a2026"/>
      </g>
    </g>
  </g>
</svg>
