<svg xmlns="http://www.w3.org/2000/svg" width="30" height="27.4" viewBox="0 0 30 27.4">
  <title>Patrol Report</title>
  <g id="Layer_2" data-name="Layer 2">
    <g id="Layer_1-2" data-name="Layer 1">
      <g>
        <path d="M29.1,10.9,28,9.8l.5-.6H29l.7.7a.4.4,0,0,1,0,.5Zm-1.4-.8,1.1,1.2-3.4,3.3H24.3V13.5ZM20.1,7.5h6.5V6.6H20.1Zm0-3.6h3.5V3H20.1Zm0,7.1h3.5v-.9H20.1ZM19,13.8V.8h7.2V4.3a.4.4,0,0,0,.4.4h2.6V8.9H30V4.1L27,.2,26.7,0H18.6a.4.4,0,0,0-.4.4V14.2a.4.4,0,0,0,.1.3h5.2v-.8ZM27,1.4l1.8,2.5H27Z" fill="#1a2026"/>
        <g>
          <polygon points="7.8 11.3 0 7.4 0 16.8 7.8 20.8 15.7 16.8 15.7 7.4 7.8 11.3" fill="#1a2026" fill-rule="evenodd"/>
          <polygon points="15.7 18.4 15.7 23.5 7.8 27.4 0 23.5 0 18.4 7.8 22.3 15.7 18.4" fill="#1a2026" fill-rule="evenodd"/>
        </g>
      </g>
    </g>
  </g>
</svg>
