<svg xmlns="http://www.w3.org/2000/svg" width="30.5" height="30.1" viewBox="0 0 30.5 30.1">
  <title>People Confronted</title>
  <g id="Layer_2" data-name="Layer 2">
    <g id="Layer_1-2" data-name="Layer 1">
      <g>
        <path d="M11.4,4l1.5,1c.3.1.6.1.7-.1a.6.6,0,0,0-.1-.7l-.7-.5,1-.2a.6.6,0,0,0,.4-.7l-.4-.7,1.1.8a.4.4,0,0,0,.7-.2l.3-1,.3.6a.5.5,0,0,0,.7.1l.6-.3-.6,1.1a.4.4,0,0,0,.2.7l1,.3-.9.5a.5.5,0,0,0-.1.7.4.4,0,0,0,.6.1l1.7-1.1c.2-.1.2-.3.2-.5s-.1-.3-.3-.4L18,3.1,19.2.9a.5.5,0,0,0-.7-.6L16.8,1.4,16.2.3a.5.5,0,0,0-.9,0l-.4,1.4L12.9.1a.5.5,0,0,0-.7.6l.9,2-1.6.4C11.1,3.2,11.1,3.7,11.4,4Z" fill="#1a2026"/>
        <circle cx="7.6" cy="4.5" r="2.5" fill="#1a2026"/>
        <path d="M30.5,16.9l-1-4.4a1.6,1.6,0,0,0-.6-.8L25.2,9.1a3,3,0,0,0-2.9-.7,2.9,2.9,0,0,0-1.4.8l-2.6-.7c-.2-.3-2-3.5-2.2-3.7a1.4,1.4,0,0,0-2,.3L12.2,8.5l-2.6.7a3.1,3.1,0,0,0-1.8-.9,3,3,0,0,0-2.4.8L1.6,11.7a1.6,1.6,0,0,0-.6.8L0,16.9a1.3,1.3,0,0,0,1,1.5,1.1,1.1,0,0,0,1.5-.9l.9-4,.7-.5-.7,5.6V19L1.3,28.6a1.2,1.2,0,0,0,1,1.5h.2a1.3,1.3,0,0,0,1.3-1l1.7-7.6h.9l2.2,2.7-.9,4.1a1.2,1.2,0,0,0,1,1.5h.2a1.3,1.3,0,0,0,1.3-1l1-4.7a1.2,1.2,0,0,0-.2-1L8.4,19.8v-.2l2-7.5v-.4h0l3-.8a1.6,1.6,0,0,0,.8-.6l1-1.9,1.1,1.9a1.6,1.6,0,0,0,.8.6l3,.8v.5l2,7.5v.2l-2.6,3.3a1.2,1.2,0,0,0-.2,1l1,4.7a1.3,1.3,0,0,0,1.3,1h.2a1.3,1.3,0,0,0,1-1.5l-.9-4.1,2.2-2.7h.8a.1.1,0,0,0,.1-.1l1.7,7.7a1.3,1.3,0,0,0,1.3,1h.2a1.3,1.3,0,0,0,1-1.5c-2.6-12-2-9.1-2.1-10L26.4,13l.7.5.9,4a1.1,1.1,0,0,0,1.5.9A1.3,1.3,0,0,0,30.5,16.9Z" fill="#1a2026"/>
        <circle cx="22.9" cy="4.5" r="2.5" fill="#1a2026"/>
      </g>
    </g>
  </g>
</svg>
