<svg xmlns="http://www.w3.org/2000/svg" viewBox="0 0 32 26.4"><path d="M5.4,25.2c-.3-.1-.7-.2-.7-.6a6.9,6.9,0,0,1,0-2.5c.2-.7,1.5-1.9,2.8-3.1a10.5,10.5,0,0,0,2.7-4,15.7,15.7,0,0,0,8.3,1.8c.1,2.4.3,5.4.4,7.9,0,.9.1,1.7.4,1.7h1.8a.8.8,0,0,0-.2-1.2c-.4-.2-.5-.4-.5-.7a40.8,40.8,0,0,1,.6-5.1c.1,3.3.5,7,.8,7h1.6c.2-.3.3-1.1-.3-1.3s-.4-.5-.5-.8.2-3.4.5-6,.6-2.6.8-3.5a10.4,10.4,0,0,0,1.9-2.9l2.1-4.4c.5-.6.9-.6,2.2-.7a1.6,1.6,0,0,0,1.5-.9c.3-.5.6-1.2.3-1.4s-1.4-.5-2.2-.9-.2-.9-.7-1.2a3.7,3.7,0,0,0-1.2-.7A3.1,3.1,0,0,0,28.2.2l-.7.5c.2-.4.3-.8.2-.7s-2.4,1.9-2.8,2-2.5,2.1-3.6,3.6a3.8,3.8,0,0,1-2.7,1.8,16.1,16.1,0,0,1-4.7.5,38.5,38.5,0,0,0-6.3-.1c-.8.1-1.2,0-1.5-.4A1.7,1.7,0,0,1,6,5.5c.7-1.2,2.5-.8,3.5-.2a2.1,2.1,0,0,0,1.5.4c.3-.1.2-.3-.3-1.3S6.6,1.3,4.2,3.1,2.5,7.4,3.5,9s.2.5-.1.9H3.3a5.3,5.3,0,0,0-1.2,3.4,25.4,25.4,0,0,1-.3,4.4C1.5,19.1.4,20.6.2,21.6s-.3,4.8,0,4.8h2c.2-.4.3-.9-.2-1.1a.9.9,0,0,1-.4-.9A6,6,0,0,1,2.2,22a4.7,4.7,0,0,1,1-1.1l-.3.9c-.1.6.6,4.6.9,4.6H5.6C5.8,26,5.9,25.5,5.4,25.2Z"/></svg>
