<svg xmlns="http://www.w3.org/2000/svg" viewBox="0 0 35.24 33.04"><defs><style>.cls-1{fill:#1a2026;}</style></defs><title>Plant Control</title><g id="Layer_2" data-name="Layer 2"><g id="Layer_1-2" data-name="Layer 1"><path class="cls-1" d="M17.41,24.6c3-.28,1.67,1.46,4.9,0s5.37-.45,5.37-.45-3.75-3.3-6.8-2.47S18.76,24,18.76,24a4.4,4.4,0,0,0-3.07.47,2.76,2.76,0,0,0-.85.85A33.55,33.55,0,0,0,15,19.91c4.2-1.37-2.76-6.48-2.76-6.48a41.83,41.83,0,0,0-.31,5.26C12,20.78,14.53,20,14.53,20a19.82,19.82,0,0,1-.33,5c-.22-1-.68-2.34-1.64-2.81,0,0,.31-2.24-2.09-1.56a5.41,5.41,0,0,0-3.53,2.5c-.6.7-2,3-2,3s4.66-4.56,7.2-3.51c.93.27,1.56,1.21,1.54,4.19a20.24,20.24,0,0,1-.28,3.82h-1.7l1.39-.82L0,29.21l9.26,1.17-3.84.83,9.32.41L13.06,33l6.39-.59,5.07.59-4.83-1.42L16.43,32l2.14-1.32H14.36C14.29,29.25,14.34,24.89,17.41,24.6Zm2.71-.21a13.22,13.22,0,0,1,3.46-1c1.73-.24,2.24.14,2.24.14a6.93,6.93,0,0,0-4.19.94C20.37,25.12,19.65,24.59,20.12,24.39ZM8.8,21.8l.79-.55c2.48-1.14,2.67.29,2.67.29C11.65,20.68,8.8,21.8,8.8,21.8Zm4.76-6.29a24.84,24.84,0,0,1,1.12,2.58,3.84,3.84,0,0,0,0-1.68,8.46,8.46,0,0,1,.25,2.83S14.19,18.89,13.56,15.51Z"/><path class="cls-1" d="M34.31,11,33.17,9.86l.56-.56a.3.3,0,0,1,.43,0l.72.71a.31.31,0,0,1,0,.44Zm-1.46-.82L34,11.33l-3.38,3.38H29.47V13.56Zm-7.61-2.6,6.55-.08V6.6l-6.55.09Zm0-3.62h3.58V3.07H25.23Zm0,7.15h3.58v-.89H25.23Zm-1.1,2.8V.8h7.23V4.33a.41.41,0,0,0,.4.4h2.68V9h.8V4.33a.46.46,0,0,0-.08-.24l-3-3.93A.36.36,0,0,0,31.84,0H23.73a.42.42,0,0,0-.41.4V14.31a.36.36,0,0,0,.11.29.52.52,0,0,0,.3.11h5v-.8Zm8-12.49L34,3.9H32.16Z"/></g></g></svg>