<svg xmlns="http://www.w3.org/2000/svg" viewBox="0 0 40 40"><path d="M28.3,16.2H17.8v-2a1.8,1.8,0,0,0-1.7-1.7h-.7a2.5,2.5,0,0,0-.1-.8,29.2,29.2,0,0,1,3.6.3.5.5,0,0,0,.5-.4h0a.4.4,0,0,0-.4-.4h-.1l-3.6.3c-.1-.5-.2-.8-.5-.8s-.4.3-.5.8l-3.6-.3c-.2,0-.5.1-.5.4h0a.5.5,0,0,0,.4.5h.1l3.6-.3v.8h-.8a1.8,1.8,0,0,0-1.7,1.7v2H1.3A1.3,1.3,0,0,0,0,17.5v1.9a1.3,1.3,0,0,0,1.3,1.4l10.5,1.9a61.4,61.4,0,0,0,1.3,12.1l-3,.5a.8.8,0,0,0-.6.8l.2.6c0,.3.4.6.9.6h3.1a12.1,12.1,0,0,0,1,2.6c0,.1.2.1.2,0l.9-2.6H19a.9.9,0,0,0,.9-.6l.2-.6a.9.9,0,0,0-.6-.8l-3-.5a60.3,60.3,0,0,0,1.2-12l10.6-1.3a1.3,1.3,0,0,0,1.3-1.4h0V17.5A1.3,1.3,0,0,0,28.3,16.2Z"/><path d="M39.7,1.9A2.6,2.6,0,0,0,39,.8,3.4,3.4,0,0,0,37.8.2l-2-.2H32.9a1.6,1.6,0,0,0-1.1.3,1.2,1.2,0,0,0-.4,1.1v8.7a1.7,1.7,0,0,0,.3,1,1.4,1.4,0,0,0,.9.3,1.1,1.1,0,0,0,.8-.3,1.8,1.8,0,0,0,.3-1.1V6.9h2.1A4.6,4.6,0,0,0,38.9,6,3.3,3.3,0,0,0,40,3.4,3.7,3.7,0,0,0,39.7,1.9ZM37.4,4.4a1.6,1.6,0,0,1-.8.6H33.7V1.7h1.5a3.4,3.4,0,0,1,2.1.5,2.1,2.1,0,0,1,.4,1.2A1.5,1.5,0,0,1,37.4,4.4Z"/></svg>
