<svg xmlns="http://www.w3.org/2000/svg" viewBox="0 0 32 31.9">
    <path d="M30.7,3.6l-.3-.3L28.9,2a3.8,3.8,0,0,0-2.1-.7L25.9.4a1.2,1.2,0,0,0-1-.4,1.5,1.5,0,0,0-1.4,1L22.9.8h-.2L22,1a1.4,1.4,0,0,0-1.4-1,1.8,1.8,0,0,0-1,.4l-.9.9a3.9,3.9,0,0,0-2,.8L15.1,3.4l-.3.3a3.9,3.9,0,0,0-1.3,2.9,4.1,4.1,0,0,0,4.2,4.1,4.1,4.1,0,0,0,4-3.6,2,2,0,0,0,1.1.3,1.9,1.9,0,0,0,1-.3,4.1,4.1,0,0,0,4.1,3.6A4.2,4.2,0,0,0,32,6.6,4.2,4.2,0,0,0,30.7,3.6ZM17.6,9.4a2.9,2.9,0,0,1-2.8-2.8,2.8,2.8,0,0,1,2.8-2.8h.7a2.9,2.9,0,0,1,2.2,2.8A2.9,2.9,0,0,1,17.6,9.4Zm5.2-3.2a1,1,0,0,1-1-.9,1,1,0,0,1,1-.9.9.9,0,0,1,0,1.8Zm5.1,3.2a2.8,2.8,0,0,1-2.8-2.8,2.8,2.8,0,0,1,2.2-2.8h.6a2.8,2.8,0,0,1,2.8,2.8A2.9,2.9,0,0,1,27.9,9.4Z"/>
    <path d="M21,14.2H13.2V12.7A1.3,1.3,0,0,0,12,11.5h-.6v-.6l2.6.2c.2,0,.4-.1.4-.3s-.2-.4-.4-.3l-2.7.2c0-.3-.1-.6-.3-.6s-.3.3-.4.6l-2.7-.2c-.2-.1-.3.1-.3.3a.3.3,0,0,0,.3.3l2.7-.2a2.1,2.1,0,0,0-.1.6H10a1.2,1.2,0,0,0-1.2,1.2v1.5H1a.9.9,0,0,0-1,1v1.5a.9.9,0,0,0,1,.9l7.8,1.5A40.7,40.7,0,0,0,9.7,28l-2.2.4c-.3.1-.5.4-.4.6v.4c0,.3.3.5.7.5h2.3l.7,1.9H11a15.4,15.4,0,0,0,.8-1.9h2.3a.7.7,0,0,0,.7-.5V29c.1-.2-.1-.5-.5-.6L12.2,28a39.8,39.8,0,0,0,1-8.9l7.8-1a1,1,0,0,0,1-1V15.2A1,1,0,0,0,21,14.2Z"/>
</svg>
