<svg xmlns="http://www.w3.org/2000/svg" width="29.1" height="28" viewBox="0 0 29.1 28">
  <title>Poacher Sighting</title>
  <g id="Layer_2" data-name="Layer 2">
    <g id="Layer_1-2" data-name="Layer 1">
      <g>
        <g>
          <circle cx="22.9" cy="2.9" r="2.9" fill="#1a2026"/>
          <path d="M26.5,6.2H15v-1l-.5-.4H7.7V4.3H7.2v.5H6.8V6.2h5.3l.8.8v.4a1.2,1.2,0,0,0,1.2,1.2h5.2c.1,0,.2,0,.3.2h0V26.6a1.4,1.4,0,0,0,2.8,0V18.3a.5.5,0,0,1,1,0v8.3a1.4,1.4,0,1,0,2.8,0V9.8c0-.1.1-.2.3-.2a.2.2,0,0,1,.2.2v5.3a1.2,1.2,0,0,0,1.2,1.2,1.2,1.2,0,0,0,1.2-1.2V8.8A2.6,2.6,0,0,0,26.5,6.2Zm-13.4.5-.5-.5h1a1,1,0,0,0-.5.4Z" fill="#1a2026"/>
        </g>
        <path d="M7.8,12.4A9.1,9.1,0,0,0,0,16.7,9.1,9.1,0,0,0,7.8,21a9.2,9.2,0,0,0,7.8-4.3A9.2,9.2,0,0,0,7.8,12.4Zm0,7a2.7,2.7,0,1,1,2.7-2.7A2.7,2.7,0,0,1,7.8,19.4Z" fill="#1a2026"/>
      </g>
    </g>
  </g>
</svg>
