<svg xmlns="http://www.w3.org/2000/svg" width="36" height="30.7" viewBox="0 0 36 30.7">
  <title>Poaching Route</title>
  <g id="Layer_2" data-name="Layer 2">
    <g id="Layer_1-2" data-name="Layer 1">
      <g>
        <g>
          <path d="M3.7,25.8h0a1.7,1.7,0,0,1-1.2-.5c-.1,0-.1-.1,0-.2l.5-.8h.3l.5.2v1.3Zm.7,0c-.1,0-.1,0-.1-.1H4.2L4,24.7a.2.2,0,0,1,.2-.2c.2,0,.3-.1.4-.3h.3l.7.6v.3a2.4,2.4,0,0,1-1.2.7Zm-2.2-1H2l-.3-1,.2-.2.8-.3H3a.7.7,0,0,0,.1.5c0,.1,0,.1-.1.2l-.7.7Zm3.5-.3H5.6l-.8-.6H4.7a1.3,1.3,0,0,0,.1-.6H5l.9.2a.1.1,0,0,1,.1.1,3.7,3.7,0,0,1-.1,1.1H5.7Zm-1.8-.2H3.7V24H3.6a.2.2,0,0,1-.2-.2h0a.3.3,0,0,1,.1-.2h.6v.2h.3c0,.1,0,.2-.1.2H4.1c0,.1,0,.1-.1.1Zm.1-.2ZM3.7,24Zm-.1-.2Zm.5-.2Zm-.3-.1Zm.1-.1Zm-2.1-.2H1.7a1.3,1.3,0,0,1-.1-.6c0-.1,0-.1.1-.2H2.9v.4c0,.1,0,.2-.1.2h-1ZM3.7,23H3.6v-.2H3.3c0-.1,0-.2.1-.2h.2c-.1-.1,0-.1,0-.1s0-.1.1-.1H4v.2h.3a.3.3,0,0,1-.1.2H4c0,.1,0,.2-.1.2H3.7Zm.1-.1Zm.1-.1Zm.1-.1Zm.1-.3ZM4,22.3Zm-.3-.1Zm1.2.7H4.7v-.4c0-.1,0-.2.1-.2l.9-.3h.1c.1.1.1.1.1.2a1.3,1.3,0,0,1,.1.6H4.9ZM1.7,21.1h0a.1.1,0,0,1-.1-.1c-.1-.2-.1-.3-.2-.4v-.2h.1l.9-.3c.1,0,.2,0,.2.1l.2.4c0,.1-.1.2-.2.3h0L2,21H1.7Zm3.8-.3h0l-.9-.2a.2.2,0,0,1-.2-.2V20c0-.1,0-.1.1-.2h.1l.9.2h.2v.6Zm-1.9-.6H3.2v-.2h.3v-.2c-.1-.1,0-.1.1-.1h.1c.1-.1.1,0,.1,0H4c.1,0,.2,0,.2.1v.2H3.9v.2H3.6ZM3.5,20Zm-.1-.1Zm.7-.1Zm-.7-.1Zm.2-.3Zm.1,0Zm-2.4.7H1.1a.5.5,0,0,0-.2-.4v-.2h.2l.9-.2h.2a.5.5,0,0,0,.2.4v.2H2.3l-1,.2Zm3.4-.4H4.5v-.2h0a4.3,4.3,0,0,0,.1-.5l.2-.2H5.9v.2a.6.6,0,0,0-.1.4.2.2,0,0,1-.2.2Zm-1.6-.6c-.1,0-.1,0-.1-.1H2.6a.1.1,0,0,1,.1-.1.1.1,0,0,1,.1-.1h.1c0-.1,0-.2.1-.2h.3v.2h.2a.1.1,0,0,1,.1.1v.2H3.4V19H3.1Zm0-.1ZM3,18.8Zm-.2-.1Zm.7-.1h0Zm-.6-.2Zm.4,0Zm-2.5.7H.6l-.2-.4H1.7l.3.5H.8ZM5,18.6H4.8v-.2h0c.1-.1.1-.3.2-.4H6.2a.1.1,0,0,1,.1.1c-.1.2-.1.3-.2.4a.1.1,0,0,1-.1.1Zm-3.7-.4H.3a.3.3,0,0,1-.1-.2.7.7,0,0,1-.1-.5v-.2H1.2l.2.2h0a.9.9,0,0,0,.1.5v.2Zm2.8-.1a.2.2,0,0,1-.2-.2H3.7a.1.1,0,0,0-.1-.1v-.2a.1.1,0,0,1,.1-.1h.2v-.2h.7v.2H4.4c0,.1-.1.1-.2.1Zm0-.2Zm-.2-.1Zm-.1-.1Zm.7-.1Zm-.6-.2Zm.4-.1Zm-.2-.1ZM2.3,18a.1.1,0,0,1-.1-.1v-.2H2v-.2h0c0-.1,0-.2.1-.2h.2a.1.1,0,0,1,.1-.1h.3v.2h.3v.2H2.6v.2a.1.1,0,0,1-.1.1Zm-.1-.3Zm.5-.2Zm-.7,0Zm.3-.3Zm3,.5H5.1v-.2h0c0-.1.1-.3.1-.4a.3.3,0,0,1,.1-.2H6.4v.2c0,.1-.1.3-.1.4v.2h-1Zm-4.2-.6h0l-1-.3a.1.1,0,0,1-.1-.1v-.5c0-.1,0-.2.1-.2H.2l1,.2c.1,0,.1.1.1.2h0v.5a.1.1,0,0,1-.1.1C1.2,17.1,1.2,17.1,1.1,17.1Zm1-.2c-.1,0-.1-.1-.1-.2H1.8c-.1,0-.1,0-.1-.1v-.2h.3V16h.7v.2H2.4a.1.1,0,0,1-.1.1H2.1Zm0-.2Zm.1,0Zm.3-.3Zm0-.1Zm-.2-.1ZM2.2,16Zm2,.8a.1.1,0,0,1-.1-.1H3.8v-.2h.3V16h.8v.2H4.5v.2c0,.1,0,.1-.1.1H4.2Zm.2-.1Zm-.3-.1Zm-.2-.3Zm.3-.3Zm1.2.7H5.3a.1.1,0,0,1-.1-.1V16h0c0-.1,0-.2.1-.2l.9-.3h.2v.2h0v.5c0,.1-.1.1-.1.2l-.9.3ZM1.2,16H1.1l-1-.4v-.2a1.1,1.1,0,0,0,.1-.5c0-.1.1-.1.1-.2H.4l.9.5v.7H1.2Zm2.7-.3H3.7v-.2h0a.1.1,0,0,1,.1-.1h.3V15h.1l-.2.2Zm0-.1Zm.2-.2Zm-.5-.1Zm.7-.1Zm-.7,0Zm.1-.2Zm.1-.1Zm.1-.1Zm-1.5.9v-.2H2v-.2h.2v-.2H3v.2a.1.1,0,0,1-.1.1H2.4Zm.2-.2Zm-.4-.2Zm.6-.3Zm-.3-.2Zm2.8.9H5.1v-.4c0-.1,0-.2.1-.2l.8-.5h.3V15c.1.1,0,.1-.1.2l-.8.4Zm-3.9-.6H1.2l-.9-.7v-.2a1.4,1.4,0,0,1,.2-.6H.8l.8.8v.2h0c-.1.1-.1.3-.2.4H1.4Zm3.7-.4H4.9c0-.2,0-.3-.1-.4V14l.6-.8h.2l.2.2.2.5V14l-.7.7Zm-1.9-.1c-.1,0-.1-.1-.1-.2H2.8V14H3v-.2h.7v.2H3.2Zm.2-.2Zm-.5-.2Zm.7-.1ZM2.9,14Zm.7,0Zm-1.9.1H1.6L.9,13c-.1-.1-.1-.2,0-.2l.4-.6h.2a.1.1,0,0,1,.1.1l.6,1.1v.2l-.3.4H1.7Zm3-.3H4.6l-.3-.4v-.2L4.7,12H5a1,1,0,0,1,.4.5v.2l-.6,1Zm-2.2-.5H2.4v-.2l-.4-1.2c0-.1,0-.2.1-.2l.6-.3h.3l.2,1.2c0,.1,0,.2-.1.2H3l-.4.2ZM4,13H3.3V11.5h.3l.7.2.2.2-.2,1.2H4Zm-.6-.2Zm0,0Z" fill="#1a2026"/>
          <path d="M10.2,30.7h0a1.7,1.7,0,0,0,1.3-.5c.1,0,.1-.2,0-.2l-.5-.8h-.3l-.5.2a.2.2,0,0,0-.2.2v.9a.1.1,0,0,0,.1.1Zm-.6-.1h.2v-.9c.1-.1,0-.2-.1-.2l-.4-.3a.1.1,0,0,0-.1-.1H9.1l-.7.7v.2a1.9,1.9,0,0,0,1.2.7Zm2.2-.9h.1a1.7,1.7,0,0,0,.3-1c.1-.1,0-.2-.1-.2l-.8-.3h-.2c0,.1-.1.1-.1.2s-.1.3-.1.5V29l.7.6Zm-3.5-.3h.1l.8-.6a.1.1,0,0,0,0-.2v-.5H8.1v.2a3.7,3.7,0,0,0,.1,1.1h.2Zm1.8-.2h.2v-.2h.3v-.2h-.3v-.2h0a.1.1,0,0,0-.1-.1H10a.1.1,0,0,0-.1.1v.2H9.7a.3.3,0,0,0-.1.2h0c0,.1,0,.2.1.2h.1c0,.1,0,.1.1.1h.2ZM10,29Zm.3-.1Zm.1-.3Zm-.5-.1Zm.3-.1Zm-.2-.1Zm2.1-.2h.2v-.2a1.8,1.8,0,0,1,.1-.6H11.2v.2h0v.4c0,.1,0,.2.1.2Zm-1.9-.2h.1a.1.1,0,0,0,.1-.1h.1c.1,0,.2,0,.2-.1v-.2h-.3V27h-.3a.1.1,0,0,0-.1.1H9.7v.2c0,.1,0,.1.1.2h.1c0,.1.1.1.2.2Zm0-.2Zm-.1,0Zm-.1-.1Zm-.2-.3Zm.2-.1Zm.3-.2Zm-1.2.8a.1.1,0,0,0,.1-.1.8.8,0,0,0,.1-.4c0-.1,0-.2-.1-.2l-.9-.3H8.1V27a1.3,1.3,0,0,0-.1.6H9.1ZM12.2,26c.1,0,.1,0,.1-.1h.1l.2-.3v-.2a.1.1,0,0,1-.1-.1l-.9-.3c-.1,0-.2,0-.2.1s-.1.3-.2.4a.4.4,0,0,0,.1.3h0l.7.2Zm-3.7-.4h.9a.2.2,0,0,0,.2-.2v-.6H8.4a.3.3,0,0,0-.1.2v.6Zm1.8-.5h.4a.1.1,0,0,0,.1-.1h0c0-.1-.1-.1-.1-.2h-.2c0-.1,0-.2-.1-.2h-.3v.2H9.9a.1.1,0,0,0-.1.1v.2h.3V25h.3Zm.2-.3Zm.1-.1Zm-.7,0Zm.7-.1Zm-.2-.3Zm-.1,0Zm2.4.6h.2c0-.1.1-.2.1-.3v-.2h-.2L12,24c-.1,0-.2,0-.2.1s-.1.3-.2.4v.2h1.1Zm-3.4-.4h.2v-.2h0c0-.2-.1-.3-.1-.5l-.2-.2h-1a.1.1,0,0,0-.1.1V24c0,.1.1.3.1.4s.1.1.2.1Zm1.6-.5a.1.1,0,0,0,.1-.1v-.2h.1V23h-.2a.1.1,0,0,0-.1.1v.2h-.3a.1.1,0,0,0,.1.1h.2c0,.1,0,.2.1.2Zm0-.1Zm.1-.2Zm.2-.1Zm-.7-.1Zm.5-.2Zm-.4,0Zm2.6.6h.2l.2-.3a.1.1,0,0,0-.1-.1H12.4a.1.1,0,0,0-.1.1l-.3.4h1.2ZM9,23.5h.2c-.1-.2-.1-.3-.2-.4s-.1-.1-.2-.1h-1v.2a.6.6,0,0,1,.1.4H9Zm3.7-.5h1.1a.9.9,0,0,0,.1-.5v-.2H12.8a.2.2,0,0,0-.2.2h0a4.3,4.3,0,0,0-.1.5V23Zm-2.8-.1h.4v-.2H9.5a.1.1,0,0,0-.1.1v.2a.1.1,0,0,0,.1.1h.1v.2h.3Zm0-.1Zm.2-.2Zm.1-.1Zm-.7,0Zm.6-.3Zm-.4,0Zm.1-.1Zm1.9.8h.1v-.2h.1c.1,0,.2,0,.2-.1h0v-.2h-.2c0-.1,0-.1-.1-.1h-.1c-.1,0-.2,0-.2.1v.2h-.2c-.1,0-.1,0-.1.1h0a.3.3,0,0,0,.1.2h.2c0,.1,0,.2.1.2h.2Zm.1-.3Zm-.6-.2Zm.7-.1Zm-.2-.2Zm-3,.4h.1v-.2h0a.9.9,0,0,1-.1-.5H7.6c-.1.1-.1.1-.1.2a.8.8,0,0,0,.1.4c0,.1,0,.1.1.1l1,.2Zm4.2-.5h0l.9-.3a.2.2,0,0,0,.2-.2V21a.1.1,0,0,0-.1-.1h-.2l-.9.3c-.1,0-.1.1-.1.2h0v.5h.1A.1.1,0,0,0,12.9,22Zm-1-.3h.3a.1.1,0,0,0,.1-.1v-.2h-.8c-.1,0-.1,0-.1.1v.2h.2v.2h.3Zm0-.1Zm-.2,0Zm-.2-.3Zm0-.2Zm.2-.1Zm.1-.1Zm-2.1.8h.5v-.2H9.7l-.2.2H9.3a.1.1,0,0,0-.1.1v.2h.3v.2h.3Zm-.1-.1Zm.3-.2Zm.2-.2Zm-.3-.3Zm-1.2.6h.2v-.5h0v-.2l-.9-.3H7.5v.6h.1l.9.3Zm4.2-.6h.1l.9-.4v-.7a.3.3,0,0,0-.1-.2h-.2l-.9.5c-.1.1-.2.1-.1.2v.5h.2Zm-2.7-.3a.1.1,0,0,0,.1-.1h0v-.2h.1c.1,0,.1,0,.1-.1V20h-.3v-.2H9.8c0,.1.1.1.1.2Zm0-.2Zm-.2-.1Zm.5-.1Zm-.7-.1Zm.7-.1Zm-.1-.1Zm-.1-.2h0Zm-.2,0Zm1.6.8a.1.1,0,0,0,.1-.1H12V20c0-.1,0-.1-.1-.1h-.2c.1,0,0-.1,0-.1h-.2a.1.1,0,0,0-.1.1H11v.2h.3v.2h.3Zm-.2-.1Zm.4-.3Zm-.6-.2Zm.3-.2Zm-2.8.8h0a.1.1,0,0,0,.1-.1h0a.8.8,0,0,0,.1-.4c0-.1,0-.2-.1-.2L8,19.3c0-.1-.1-.1-.2-.1s-.1.1-.1.2a1.1,1.1,0,0,1-.1.5h.1l.9.5Zm3.9-.6h.1l.9-.7a.3.3,0,0,0,.1-.2c-.1-.2-.1-.4-.2-.6h-.3l-.9.9v.2h0a.6.6,0,0,1,.1.4Zm-3.7-.3h0c.1,0,.1-.1.1-.2H9l.2-.3c0-.1,0-.1-.1-.2l-.7-.8a.1.1,0,0,0-.1-.1H8.1a.8.8,0,0,1-.2.5c0,.1,0,.2.1.2l.7.7Zm1.9-.2h.4v-.2h-.3v-.2c0-.1-.1-.1-.2-.1h-.1c-.1-.1-.2,0-.2.1h-.3V19a.1.1,0,0,0,.1.1h.2v.2h.3Zm-.2-.1Zm.4-.2Zm-.6-.1Zm.7-.1Zm-.7-.1Zm1.8.2h.2l.7-1a.2.2,0,0,0,0-.3l-.4-.5h-.2a.1.1,0,0,1-.1.1l-.6,1.2c-.1,0,0,.1,0,.2l.3.4Zm-3-.3h.2c.1-.2.2-.3.2-.4s.1-.1.1-.2l-.4-1.1H9l-.5.6v.2l.6,1Zm2.3-.6h.1a.1.1,0,0,0,.1-.1l.4-1.2c0-.1,0-.2-.1-.2l-.7-.3h-.1c0,.1-.1.1-.1.2l-.2,1.2c-.1.1,0,.2.1.2h0l.4.2ZM10,17.9h.7V16.4h-1v.2l.2,1.2c0,.1.1.1.1.2Zm.6-.2Zm0,0Z" fill="#1a2026"/>
        </g>
        <g>
          <circle cx="21.5" cy="2.6" r="2.6" fill="#1a2026"/>
          <g>
            <path d="M15.9,7.9v5.7a1.1,1.1,0,0,0,2.2,0V8.8a.2.2,0,0,1,.4,0V23.9a1.3,1.3,0,0,0,2.6,0V16.4a.4.4,0,0,1,.8,0v7.5a1.3,1.3,0,0,0,2.6,0V7.9h0a.2.2,0,0,1,.2-.2h4.7a1.1,1.1,0,0,0,1.1-1.1.4.4,0,0,0-.1-.3l.7-.7H36V4.3h-.4V3.8h-.5v.5H29l-.4.4v.9H18.3A2.3,2.3,0,0,0,15.9,7.9Z" fill="#1a2026"/>
            <path d="M30.3,6l-.4-.4h.8l-.4.4Z" fill="#1a2026"/>
          </g>
        </g>
      </g>
    </g>
  </g>
</svg>
