<svg xmlns="http://www.w3.org/2000/svg" width="34.4" height="25" viewBox="0 0 34.4 25">
  <title>Poaching Tools</title>
  <g id="Layer_2" data-name="Layer 2">
    <g id="Layer_1-2" data-name="Layer 1">
      <g>
        <path d="M20.4,25a1.7,1.7,0,0,1-1-.3h-.1a3.5,3.5,0,0,1-2,.2.9.9,0,0,1-.5-.8.6.6,0,0,1,.5-.5h0c.3,0,.4.2.5.4l.9-.2a6.8,6.8,0,0,1-.4-2.6,2.2,2.2,0,0,1-.9-1.7,15.3,15.3,0,0,1,0-3.7,3.9,3.9,0,0,1,2.5-3.2l.5-.5a.8.8,0,0,1,.9-.3.7.7,0,0,1,.6.4l.2.3a2.4,2.4,0,0,1,1.1.6l.3-.2a1.1,1.1,0,0,1,.8-.1h0c1.2-1.3,2.6-1.8,3.9-1.3a5.4,5.4,0,0,1,1.8,1h.2l.4-.4.9-.2a1,1,0,0,1,.5.4,8.8,8.8,0,0,1,.9,2.6l.5.6a4.1,4.1,0,0,1,.9,3.3c0,.3.1.7.1,1a3.2,3.2,0,0,1-1.3,2.9.3.3,0,0,1,.1.2.6.6,0,0,1-.6.5H32l-.6.2a3.6,3.6,0,0,1-3.6.4l-.6-.2h-.8c-.4.5-1.3,1.1-2.8.2a.8.8,0,0,1-.4-.4l-.7.6A4.3,4.3,0,0,1,20.4,25Zm-.1-1,.9-.2h-.7C20.4,23.9,20.3,23.9,20.3,24Zm8.5-.9H29a.1.1,0,0,1-.1-.1A.1.1,0,0,0,28.8,23.1Zm-9.2-.3h.5a3,3,0,0,0,.8-.8,2.9,2.9,0,0,1-1.3-.1v.8Zm5.2-.2H26a2.7,2.7,0,0,1-.7-.8l-.6.5C24.7,22.5,24.8,22.5,24.8,22.6ZM22,22.1l-.3.4c0,.1,0,.1-.1.2l.7-.3h0Zm5.2.3c0,.1.1.1.2.2l.8-.3-.3-.5h-.6C27.3,22,27.2,22.2,27.2,22.4Zm3.1-.5.9.3a4.7,4.7,0,0,0,.5-1l-1,.2A1,1,0,0,1,30.3,21.9Zm2.6-1.3a3.4,3.4,0,0,1-.4,1.2,2.1,2.1,0,0,0,.9-1.5Zm-10,.3a.6.6,0,0,0,.1.4l.3-.2Zm-3.3-.1a2,2,0,0,0,1.3.2.5.5,0,0,0,.5-.3v-1l-.2-.3a5.5,5.5,0,0,1-.2-2.2,2.2,2.2,0,0,0-1.2-.2c0,.1-.1.2-.1.3S19.6,19.6,19.6,20.8Zm7.9,0h.1a.4.4,0,0,1-.1-.3Zm-1.2-.1h.2v-.3C26.5,20.5,26.4,20.6,26.3,20.7Zm2.1-.7.5.7h1.3a7.6,7.6,0,0,0,1.1-5c-.1-.2-.1-.5-.2-.7v-.2a3,3,0,0,0-1.2-.2l-.5.7A8.5,8.5,0,0,0,28.4,20Zm3.8-2.1a6.2,6.2,0,0,1-.7,2.3l.6-.2A14.8,14.8,0,0,0,32.2,17.9Zm-9.1,2,.5.2a26.8,26.8,0,0,1,.4-4.6c0-.2-.1-.3-.2-.5a16,16,0,0,0-1,2.3,4.8,4.8,0,0,1,.5,1.1A3.9,3.9,0,0,1,23.1,19.9Zm3-2.6-.3,1.3a5.3,5.3,0,0,0-.1,1.3A3.2,3.2,0,0,0,26.1,17.3Zm-7.1-3a4.4,4.4,0,0,0-.6,1.6,12.9,12.9,0,0,0,0,3.4v.2c.1-.9.2-1.7.3-2.2a7.6,7.6,0,0,0,.1-1.5C18.9,15.3,18.9,14.8,19,14.3Zm14.2,4.3v.2h0ZM27,15.7l.3,1.1v-.4c.3-1.8,1.2-2.5,1.9-2.7v-.2A5.9,5.9,0,0,0,27,15.7Zm-7.2.3,1.4.2a3.9,3.9,0,0,1,.4-1.4h0a6.1,6.1,0,0,0-.2-1.5h-.2c-.2-.1-.5,0-.7,0l-.3.7a7.8,7.8,0,0,0-.4,1.9Zm5.6-2.5a1,1,0,0,1,.8.5l.3.6a6.2,6.2,0,0,1,2.2-1.9l-.8-.4a2.9,2.9,0,0,0-2.8.9l.3.3Zm-2.9.2h0c.1,0,.1,0,.1-.1Zm8.6-.8.4.4c-.1-.2-.2-.3-.2-.5Z" fill="#1a2026"/>
        <path d="M24.5,1.7l-.7.5h0l-1.5,1L17.7,6.5c-.1.1-.2.1-.2.3s.1.2.1.4V8.5a2.8,2.8,0,0,1-.9,1.8l-.4.3-.3.2-4.7,3.5a2.3,2.3,0,0,1,.2,1.1,1.8,1.8,0,0,1-.5,1.1l-.8.7c0,.1-.1.1,0,.2s.1.7-.3,1-.5.4-.7.4a1,1,0,0,1-.4-.6c-.1-.1-.1-.1-.1-.2l-.2-.3a.5.5,0,0,0-.8-.1,1.6,1.6,0,0,0-.5,1.1c-.1.3-.1.6-.2.8a1.7,1.7,0,0,1-.1.7A2.6,2.6,0,0,1,6,21.8L4,23.6c-.2.2-.4.3-.5.2H3.4A7.1,7.1,0,0,1,0,20.6c-.2-.8,1.6-2,1.6-2.1h.1l.5-.4,3.3-2.5a2.5,2.5,0,0,0,.9-2.3,1.9,1.9,0,0,1,.9-1.8l.3-.3h.3l-.4-.5a2.8,2.8,0,0,0-1,.9l-.8.8H5.6L4.4,10.5h0L5.5,10a3.5,3.5,0,0,0,1.3-.8A18.2,18.2,0,0,1,9.1,7.7l1.2-1.1a2.7,2.7,0,0,1,.7-.8h.1l1.3,1.8h-.6l-.5.2-1.2.6H10l.4.6L22.7.7h0l.7-.6H24a.5.5,0,0,1,.4.3l.3.4a.9.9,0,0,1,.1.5A.5.5,0,0,1,24.5,1.7Z" fill="#1a2026" fill-rule="evenodd"/>
      </g>
    </g>
  </g>
</svg>
