<svg xmlns="http://www.w3.org/2000/svg" viewBox="0 0 35 23.62"><defs><style>.cls-1{fill:#1a2026;fill-rule:evenodd;}</style></defs><title>Poacher Camp</title><g id="Layer_2" data-name="Layer 2"><g id="Layer_1-2" data-name="Layer 1"><path class="cls-1" d="M34.19,21.65h0l.18.29a.24.24,0,0,1-.21.37H27.41a.24.24,0,0,1-.2-.12L22.82,15a.24.24,0,0,0-.41,0L18,22.19a.27.27,0,0,1-.21.12H11.07a.24.24,0,0,1-.2-.37l.16-.27-.79-1.76a.12.12,0,0,1,.06-.16l.52-.21a.12.12,0,0,1,.16.09l.34,1.57v0L22.41,3.11a.24.24,0,0,1,.41,0L33.89,21.17v0l.33-1.53a.13.13,0,0,1,.16-.09l.52.21a.12.12,0,0,1,.07.16ZM20,1.43,19.39,2h0L18.22,3.05,14.41,6.47a.31.31,0,0,0-.12.32l.06.35a7.39,7.39,0,0,1,.15,1.15,2.6,2.6,0,0,1-.61,1.77,1.44,1.44,0,0,1-.27.28l-.28.26L9.53,14.25a2.18,2.18,0,0,1,.27.95,1.47,1.47,0,0,1-.35,1l-.6.77c-.06.08-.07.12,0,.2.22.45.2.56-.16.93s-.38.37-.54.36-.28-.15-.48-.45a.86.86,0,0,1-.1-.16,1.88,1.88,0,0,0-.16-.23.45.45,0,0,0-.75,0,1.67,1.67,0,0,0-.37,1.06c0,.24,0,.49,0,.72s0,.42,0,.62a2.59,2.59,0,0,1-.62,1.56c-.52.61-1.07,1.23-1.63,1.85a.59.59,0,0,1-.46.23h-.1A6.5,6.5,0,0,1,0,21.09c-.26-.69,1.18-2,1.25-2h0l.48-.48L4.38,16A2.27,2.27,0,0,0,5,13.81,1.59,1.59,0,0,1,5.6,12.1l.27-.23.1-.1a.94.94,0,0,0,.1-.1l0,0-.41-.46a3.06,3.06,0,0,0-.84,1,3.53,3.53,0,0,1-.63.81l0,.05L2.84,11.53l.05,0A7.43,7.43,0,0,1,3.77,11,4.85,4.85,0,0,0,5,10.14,17.84,17.84,0,0,1,6.77,8.5a5.07,5.07,0,0,0,1-1.11,7.69,7.69,0,0,1,.61-.8l.05,0L9.72,8l-.06,0-.13.09a2,2,0,0,1-.25.18l-.46.25a3.38,3.38,0,0,0-1,.67l-.11.1,0,0,.43.47L18.25.72h0l.62-.56A.64.64,0,0,1,19.34,0a.63.63,0,0,1,.41.19l.33.37a.59.59,0,0,1,.15.44A.64.64,0,0,1,20,1.43ZM7.77,10.14l-.43-.47L6,10.87l.43.47ZM9,15.06a.54.54,0,0,0-.19-.39l-.17.17a4.81,4.81,0,0,0-.38.42.57.57,0,0,0,0,.88C8.8,15.74,9,15.37,9,15.06Zm4-7.32a.2.2,0,0,0-.15-.06.61.61,0,0,0-.43.2L8,12.17a.68.68,0,0,0-.21.41.24.24,0,0,0,.06.17c.11.11.39.05.58-.14l4.4-4.3C13,8.12,13.1,7.86,13,7.74Z"/></g></g></svg>