<svg xmlns="http://www.w3.org/2000/svg" viewBox="0 0 40 19.14"><defs><style>.cls-1{fill:#1a2026;}</style></defs><title>Poaching</title><g id="Layer_2" data-name="Layer 2"><g id="Layer_1-2" data-name="Layer 1"><path class="cls-1" d="M4.65,6.19A1.47,1.47,0,1,1,3.18,4.72,1.46,1.46,0,0,1,4.65,6.19ZM0,9.24V12.5a.61.61,0,0,0,1.22,0V9.78a.12.12,0,0,1,.13-.12.12.12,0,0,1,.12.12V18.4a.74.74,0,1,0,1.47,0V14.13a.24.24,0,0,1,.24-.24.24.24,0,0,1,.25.24V18.4a.73.73,0,1,0,1.46,0V9.23h0A.13.13,0,0,1,5,9.12H7.73a.61.61,0,0,0,.62-.61.78.78,0,0,0,0-.21l.4-.4h2.78V7.16h-.24V6.92H11v.24H7.49l-.25.25V7.9H1.35A1.34,1.34,0,0,0,0,9.24Zm8.22-1.1A.57.57,0,0,0,8,8v0h.49l-.25.24ZM24,.32a21,21,0,0,1-2.62.22S19.65.27,19.2.59a4.61,4.61,0,0,0-1.55,1.66,4.84,4.84,0,0,0-1,1.55,22.28,22.28,0,0,0-1.17,2.78l-.22.64a6.34,6.34,0,0,1-1.47.19s0,.21.86.43a2.44,2.44,0,0,1-.8,0,2.39,2.39,0,0,0,1.23.37s-.16,3.13,2.27,4.12c0,0,2.27.4,2-1.74,0,0-.35-1.15-1.18-.62,0,0,.32.25.06.35,0,0,.53.67,0,.8,0,0-1,.43-1.25-1.49a3.57,3.57,0,0,1,.72-2.57l.43,0,.34.27A.5.5,0,0,0,19,7l.48-.24s1.15,0,1.34-.37c0,0-.11,1,.32,1.28,0,0,1.41-.27,1.6-.54a18.74,18.74,0,0,1-.48,2.52l-.61,2.16a11,11,0,0,1-.59,1.93,7.13,7.13,0,0,0-.35,2s-.24,1.06-.64,1.31c0,0-.88.45-.4.82,0,0,3,.62,2.72-.24,0,0-.42-.83-.32-1.2a20,20,0,0,1,1.37-2.81,15.65,15.65,0,0,0,1.76-2.38s.94,2.25,1,2.54A9.48,9.48,0,0,0,27,15.91s.37.88-.08,1.15c0,0-1,.67-.65,1,0,0,2.92.48,2.94-.19a1.23,1.23,0,0,0-.32-.77,2.16,2.16,0,0,1-.16-1.26,17.9,17.9,0,0,0-.21-2s-.3-1.9-.32-2.86c0,0,.13-.75.27-.8a6.32,6.32,0,0,0,2.72.82s1.31.14,1.29.3a5,5,0,0,0,.8.77,5.12,5.12,0,0,1,.59,1.53s.18,2.35-.3,2.75c0,0-1.09.8-.83,1.44,0,0,2.68.43,3.08-.13a9,9,0,0,0-.22-2.27s-.24-2.68.24-3.13a6.71,6.71,0,0,1,1.34,1.58,18.56,18.56,0,0,1,.91,2.83s-.38.94.11,1.2c0,0,2,.22,1.81-.88a3.81,3.81,0,0,0-.45-1.17,11.09,11.09,0,0,1-1-3l-.06-1.39a11.3,11.3,0,0,1,.3,1.5s.21,1.84.88,2.32a16.31,16.31,0,0,0-.43-2.13,16.68,16.68,0,0,1-.48-2.78,18.54,18.54,0,0,1-.4-3.24,5.15,5.15,0,0,0-1.07-2.43,14.27,14.27,0,0,0-2.59-2.84A6.83,6.83,0,0,0,30.08.91S26.73,1,26.2.46A1.79,1.79,0,0,0,24,.32Z"/></g></g></svg>