<svg xmlns="http://www.w3.org/2000/svg" viewBox="0 0 16.39 26"><defs><style>.cls-1{fill:#1a2026;}</style></defs><title>Poison</title><g id="Layer_2" data-name="Layer 2"><g id="Layer_1-2" data-name="Layer 1"><path class="cls-1" d="M11.69,7.17V5.49a1.11,1.11,0,0,0,1.1-1.11V1.11A1.11,1.11,0,0,0,11.68,0h-7A1.11,1.11,0,0,0,3.6,1.11V4.38A1.11,1.11,0,0,0,4.7,5.49V7.17C2.05,7.52,0,8.75,0,11.5V22.59A3.41,3.41,0,0,0,3.41,26H13a3.41,3.41,0,0,0,3.41-3.41V11.5C16.39,8.75,14.34,7.52,11.69,7.17Zm1.07,7.66c.38-.14.19-.79.94-1.08A.88.88,0,0,1,14.77,15a.89.89,0,0,1,.56.53.88.88,0,0,1-.52,1.13c-.76.29-1-.33-1.42-.19l-1.1.42A4,4,0,0,0,12.23,15Zm-11.7.73A.89.89,0,0,1,1.62,15a.88.88,0,0,1,1.07-1.28c.75.29.56.94.94,1.08l.48.18A4.27,4.27,0,0,0,4,16.9l-1-.4c-.38-.14-.67.48-1.42.19A.88.88,0,0,1,1.06,15.56Zm2.57,4.61c-.38.15-.19.8-.94,1.08a.89.89,0,0,1-1.14-.51A.9.9,0,0,1,1.62,20a.83.83,0,0,1-.55-.53.86.86,0,0,1,.51-1.13c.76-.29,1,.33,1.42.19L4.39,18A4.14,4.14,0,0,0,5.13,19a1.42,1.42,0,0,1,.27.47Zm6.85,0h0a.46.46,0,0,1-.92,0,.47.47,0,0,1-.93,0h0a.46.46,0,0,1-.46.45.45.45,0,0,1-.46-.45h0a.47.47,0,0,1-.93,0,.45.45,0,0,1-.46.46.46.46,0,0,1-.46-.46v0h0v0a1.91,1.91,0,0,0-.46-1.34,3.57,3.57,0,0,1-.93-1.69,3.65,3.65,0,0,1,1.12-3.75,3.76,3.76,0,0,1,2.58-1h0a3.71,3.71,0,0,1,2.57,1,3.65,3.65,0,0,1,1.13,3.75,3.57,3.57,0,0,1-.93,1.69,1.85,1.85,0,0,0-.46,1.3Zm4.85-.76a.87.87,0,0,1-.56.53.9.9,0,0,1,.07.77.89.89,0,0,1-1.14.51c-.75-.28-.56-.93-.94-1.08l-1.82-.68a1.54,1.54,0,0,1,.27-.45A4.36,4.36,0,0,0,12,18l1.43.54c.38.14.67-.47,1.42-.19A.88.88,0,0,1,15.33,19.44Z"/><path class="cls-1" d="M7.13,16.11,7.07,16,7,15.91l-.08-.09-.09-.07a.82.82,0,0,0-.39-.13H6.36l-.18,0a.71.71,0,0,0-.35.19l-.09.08,0,0-.1.15a1.42,1.42,0,0,0-.18.55,1.66,1.66,0,0,0,.06.58.77.77,0,0,0,.08.19.9.9,0,0,0,.76.56h0a.81.81,0,0,0,.74-.47A1.35,1.35,0,0,0,7.13,16.11Z"/><path class="cls-1" d="M8.58,18.62a.4.4,0,0,1-.37-.18,0,0,0,0,0,0,0v-.05s0,0,0,.06h0s0,0,0,.05a.44.44,0,0,1-.35.14.46.46,0,0,1-.5-.43c0-.38.88-.64.89-.64s.88.26.88.64A.46.46,0,0,1,8.58,18.62Z"/><path class="cls-1" d="M10.79,16.1l-.1-.15,0,0-.09-.08a.71.71,0,0,0-.35-.19l-.18,0H10a.82.82,0,0,0-.39.13l-.09.07-.08.09L9.32,16l-.06.11a1.35,1.35,0,0,0,0,1.4A.81.81,0,0,0,10,18h.05a.9.9,0,0,0,.76-.56.77.77,0,0,0,.08-.19,1.66,1.66,0,0,0,.06-.58A1.42,1.42,0,0,0,10.79,16.1Z"/></g></g></svg>