<svg xmlns="http://www.w3.org/2000/svg" viewBox="0 0 31.5 32"><path d="M13.9,25.9h0c-.2-.2-.2-.4-.3-.6s-.1-.4-.1-.6a.4.4,0,0,1-.1-.3l-.2-.2v.2H11.7V11.9h4.4l-2.2,9.2A.1.1,0,0,0,14,21l.5-.5a1,1,0,0,1,.5-.4h.6c.1-.2.3-.2.6-.3h.1l1.9-7.8a29.9,29.9,0,0,0,4.5-.9v8.7h1.9V10.2l1.3-.7v9.4h.2l.3-.3a.9.9,0,0,1,.5-.3,1,1,0,0,1,.5-.4l.4-.2V3.6a.9.9,0,0,0-.9-1,.9.9,0,0,0-1,1v.2h-.2V2.8a1,1,0,0,0-.9-1,1,1,0,0,0-1,1h0l-1.2-.3V1.9a1,1,0,0,0-.9-1,1,1,0,0,0-1,1h0l-1.2-.2V1.4a.9.9,0,0,0-.9-1,.9.9,0,0,0-1,1H16.4V1a.9.9,0,0,0-.9-1,.9.9,0,0,0-1,1v.4H13.3V1.1a1,1,0,0,0-.9-1,1,1,0,0,0-1,1v.3H10.2V1.3a1,1,0,0,0-.9-1,1,1,0,0,0-1,1v.5L7.1,2h0a1,1,0,0,0-.9-1,1,1,0,0,0-1,1v.6l-1.1.3h0a1.1,1.1,0,0,0-1-1,1,1,0,0,0-1,1v.9H1.9a.9.9,0,0,0-.9-1,.9.9,0,0,0-1,1V21.7c1,3,7.4,4.6,13.8,4.6h.2c0-.1-.1-.1-.1-.2S14,26,13.9,25.9ZM3.2,22.4c-.8-.5-1.3-1-1.3-1.4V9.5l1.3.7Zm3.3,1.1-1.3-.3V10.9l1.3.4Zm3.2.6-1.3-.2V11.6l1.3.2Zm1-17.6a1,1,0,0,0-1,1V9.8H8.4V7.2a.9.9,0,0,0-1-1,.9.9,0,0,0-.9,1V9.3L5.2,8.9V6.3a1.1,1.1,0,0,0-1-1,1.1,1.1,0,0,0-1,1V8.1c-.8-.5-1.3-1-1.3-1.4s4.7-3.4,12-3.4,12,2,12,3.4-.5.9-1.3,1.4V6.3a1,1,0,0,0-1-1,1,1,0,0,0-.9,1V8.9a19.3,19.3,0,0,1-4.1.9l.3-1.3a1,1,0,0,0-.7-1.2.9.9,0,0,0-1.1.8L16.6,10H11.7V7.5A1.1,1.1,0,0,0,10.7,6.5Z"/><path d="M31.1,20.1l-.6-.7-.3-.6c0-.1-.2-.3-.3-.4a.6.6,0,0,0-.5-.2.4.4,0,0,0-.5-.2.6.6,0,0,0-.6,0,.7.7,0,0,0-.6.3.5.5,0,0,0-.5.3.9.9,0,0,0-.5.3l-.3.2-.4.4-.3.2-.3.2h-2c-.2,0-.3-.1-.4.1a.6.6,0,0,0-.5-.2H21.2a.4.4,0,0,0-.5-.2H16.2l-.4.2-.5.2-.5.4c-.2,0-.3.2-.4.3s-.2.3-.1.5h-.1c-.1,0-.1.1-.2.3l-.3.3-.2.5a.8.8,0,0,0,0,.7c0,.3.3.4.4.2v.3a.7.7,0,0,0,.1.5c-.1.1,0,.4.1.5s.1.3.1.4.1.1.2.2.1.2.1.3a.9.9,0,0,0,.1.5V27c0,.1-.1.3,0,.4a.8.8,0,0,0-.2.5c0,.2-.1.2-.2.4a.6.6,0,0,0-.1.4,13.6,13.6,0,0,1,.2,2c0,.3,0,.5.2.4a.4.4,0,0,1,.1.3c-.1.1-.1.2,0,.2s.1.3.2.3h.6c.3,0,.2-.2.1-.3s-.1-.2-.1-.3-.2-.3-.2-.5a10.4,10.4,0,0,0-.1-1.6c0-.2.1-.4.1-.6l.3-.4c.1.1.1.1.1.2a13.3,13.3,0,0,1,.5,1.9c.1.3.1.5.3.4a.4.4,0,0,1,.1.3v.2l.3.4h.7c.2,0,.1-.2,0-.3l-.2-.3c-.1-.2-.2-.3-.2-.5s-.3-1.2-.4-1.6a1.3,1.3,0,0,1,.1-.6c0-.2.1-.3.3-.5l.3-.3.3-.3a.5.5,0,0,0,.5-.3h2.4a.8.8,0,0,0,.5,0,.6.6,0,0,0,.6,0,.4.4,0,0,0,.5,0h.9l.3.3.2.2v2.9c0,.2-.1.4.1.3a.4.4,0,0,1,.1.3h0c0,.2.1.3.2.3s.5.1.7,0,.1-.2.1-.2l-.2-.3a2.2,2.2,0,0,1-.3-1.4,8.6,8.6,0,0,1,.1-1.6h.2v2.7c0,.2,0,.4.2.3a.4.4,0,0,1,.1.3v.2l.3.3H26c.2,0,.1-.2,0-.3l-.2-.3a2.2,2.2,0,0,1-.3-1.4,11.5,11.5,0,0,1-.1-1.9h.1l.2-.3c.1-.1.2-.2.2-.3a.5.5,0,0,0,.3-.3c.1,0,.2-.2.2-.3h.1c.1,0,.4-.2.4-.3l.4-.4c.1,0,.2-.2.2-.3a1.3,1.3,0,0,0,.3-.5.5.5,0,0,0,.2-.4c.1-.2.2-.3.2-.5s.1-.3.1-.4a.4.4,0,0,0,.1-.3c.1-.1.1-.2.1-.4l.3-.3.3-.4.3-.2.2-.3c.2-.1.2-.2.3-.4h0a2.7,2.7,0,0,1,.9,0c.2,0,.3-.1.4-.3a.4.4,0,0,0,.2-.5C31.6,20.7,31.3,20.3,31.1,20.1Z"/></svg>
