<svg xmlns="http://www.w3.org/2000/svg" width="26.1" height="35.5" viewBox="0 0 26.1 35.5">
  <title>Primitive Weapons</title>
  <g id="Layer_2" data-name="Layer 2">
    <g id="Layer_1-2" data-name="Layer 1">
      <g>
        <path d="M16.9.9v.8h2.2L16.4,4.3C13.8,1.9,9.9.7,4.8.9H4.5A.9.9,0,0,1,3.7.4C3.4.2,2.9-.3,2.4.3s-.3.7-.1,1.1a3.5,3.5,0,0,0,.5.8l.4,13.2L0,18.6H2.5v2.6L5.9,18l13.2.5.8.5a.9.9,0,0,0,1.1-.1c.6-.6.1-1-.2-1.3a1,1,0,0,1-.4-.8v-.3c.2-5.1-1-9-3.4-11.6l2.6-2.7V4.4h.8V.9ZM5.6,15.2H4L3.5,2.8a3.3,3.3,0,0,0,1.4.4h.4c1.8-.1,6.6-.1,9.6,2.6L5.6,15.2Zm9.8-8.8c2.8,3,2.7,7.8,2.7,9.6v.4a3.5,3.5,0,0,0,.3,1.4L6.1,17.3V15.7l9.3-9.3Z" fill="#1a2026"/>
        <g>
          <path d="M15.9,26.7l2.5,2.5c6-4.8,8.2-9.2,7.6-12.5a28,28,0,0,1-6.1,5.8Z" fill="#1a2026"/>
          <path d="M18.9,30.8l-4.4-4.4c-.2-.1-.4-.1-.5.1a.3.3,0,0,0-.1.5l1.3,1.2-4.8,4.9a1.3,1.3,0,0,0,0,2,1.6,1.6,0,0,0,1.6.3c-.3-.9.3-1.4,1.1-1.1l.2-.2c-.3-.9.3-1.5,1.1-1.2l.3-.2c-.4-.8.2-1.4,1.1-1.1l.2-.2c-.4-.9.2-1.5,1.1-1.2h.1l1.2,1.2h.5C19.1,31.1,19.1,30.9,18.9,30.8Z" fill="#1a2026"/>
        </g>
      </g>
    </g>
  </g>
</svg>
