<svg width="34" height="34" viewBox="0 0 34 34" fill="none" xmlns="http://www.w3.org/2000/svg">
<g clip-path="url(#clip0_1037_656)">
<path d="M31.3255 23.2003C29.6153 21.4696 27.9913 19.6423 26.2796 17.9087C20.8659 21.8738 13.114 19.4589 11.1451 12.9765C8.85569 5.44323 15.7583 -1.40007 23.2516 0.818481C29.8524 2.77144 32.3329 10.9687 27.9194 16.2791L33.8606 22.3501C34.424 23.5236 33.1578 24.6625 32.0498 23.9523C31.7624 23.7676 31.5597 23.437 31.3255 23.2003ZM19.8441 2.33408C13.5896 2.78876 10.4782 9.96117 14.2967 14.9352C17.6884 19.3521 24.6485 18.6824 27.2583 13.8238C30.2045 8.3402 26.0066 1.88662 19.8427 2.33408H19.8441Z" fill="black"/>
<path d="M11.3793 15.6655H3.72653C3.63887 15.6655 3.34856 15.4144 3.4003 15.2715C3.25228 13.4975 3.61012 11.3656 3.40749 9.6349C3.39455 9.52953 3.39886 9.44869 3.29539 9.38663H1.78639C1.37393 9.38663 1.24889 8.69667 1.56938 8.44695L10.05 0.148672C10.2325 -0.0187657 10.4754 -0.0505211 10.6881 0.0866048L13.0306 2.42207C9.44063 5.78094 8.75654 11.5013 11.3793 15.6655Z" fill="black"/>
<path d="M12.5865 26.4392C16.1909 26.1837 19.709 28.7776 19.9347 32.5132C19.9605 32.9303 20.0496 33.8151 19.5754 33.9638L6.88537 33.9999C5.88511 33.9609 6.31769 32.008 6.4844 31.3527C7.19579 28.5596 9.75966 26.6399 12.5865 26.4392Z" fill="black"/>
<path d="M8.712 26.8434C7.00467 27.8783 5.81758 29.7851 5.43387 31.7409C5.39937 31.917 5.46405 32.2952 5.34907 32.3775L0.636672 32.4107C0.46134 32.4251 0.125048 32.1927 0.0646874 32.0469C-0.0201042 31.8434 -0.00716988 29.5541 0.0273216 29.1976C0.366488 25.6915 4.66499 24.0128 7.56659 25.7392C7.78504 25.8691 8.85571 26.598 8.71343 26.8434H8.712Z" fill="black"/>
<path d="M12.5851 18.7892C17.2544 18.2234 17.6985 25.1518 13.5638 25.618C8.87726 26.1449 8.42744 19.2944 12.5851 18.7892Z" fill="black"/>
<path d="M21.3546 26.871C24.203 26.7411 26.2984 29.0275 25.9678 31.8682C25.9204 32.2723 25.6516 32.3762 25.288 32.4123C24.3496 32.5033 21.9553 32.5249 21.0413 32.4123C20.9651 32.4022 20.8746 32.4152 20.8243 32.3416C20.7079 30.6138 19.87 29.1184 18.7806 27.828C19.515 27.2824 20.4377 26.9129 21.3546 26.871Z" fill="black"/>
<path d="M4.53562 18.6418C8.3455 18.1179 8.87437 23.8338 5.37204 24.2452C1.61534 24.6855 1.0721 19.1181 4.53562 18.6418Z" fill="black"/>
<path d="M21.1347 21.1678C24.6758 20.6814 25.0983 25.6424 22.1047 26.1115C18.5392 26.6702 18.0692 21.5878 21.1347 21.1678Z" fill="black"/>
<path d="M19.8441 2.33405C26.0066 1.88658 30.2045 8.34016 27.2598 13.8238C24.6485 18.6823 17.6898 19.3521 14.2982 14.9352C10.4782 9.96113 13.5897 2.78873 19.8456 2.33405H19.8441ZM17.3076 9.38665H18.8884C19.012 9.38665 19.3397 9.03012 19.2721 8.86124L15.7885 5.2772C13.1772 7.51596 13.0938 11.8131 15.2611 14.3997C15.5298 14.7201 17.0575 16.4147 17.2026 15.2715C17.3507 13.4975 16.9928 11.3656 17.1955 9.63492C17.2084 9.52955 17.2041 9.44872 17.3076 9.38665Z" fill="white"/>
<path d="M17.3076 9.38654C17.2055 9.45006 17.2084 9.53089 17.1955 9.63482C16.9928 11.3655 17.3507 13.4974 17.2027 15.2714C17.0575 16.4132 15.5298 14.72 15.2611 14.3996C13.0939 11.813 13.1772 7.51586 15.7885 5.2771L19.2722 8.86114C19.3397 9.03002 19.012 9.38654 18.8884 9.38654H17.3076Z" fill="black"/>
</g>
<defs>
<clipPath id="clip0_1037_656">
<rect width="34" height="34" fill="white"/>
</clipPath>
</defs>
</svg>
