<svg xmlns="http://www.w3.org/2000/svg" width="38.8" height="30.4" viewBox="0 0 38.8 30.4">
  <title>Rabies Monitoring</title>
  <g id="Layer_2" data-name="Layer 2">
    <g id="Layer_1-2" data-name="Layer 1">
      <g>
        <path d="M38.5,27c-.3-.6-.6-1.5-.9-2.2a20.5,20.5,0,0,1-.8-1.9c-.1-.3-.3-.2-.6-.4l-1.2-1a7.1,7.1,0,0,1-.8-1.5A7,7,0,0,1,33,18.2a12.2,12.2,0,0,1-.7-2.5l-.8-1a2.6,2.6,0,0,1-.5-1.2c.2-.2.4-.4.6-.4a3.7,3.7,0,0,1,1.4.1,1.4,1.4,0,0,0,1.4-.5,7.7,7.7,0,0,1,1.2-1.3l1-.7c.2,0,.1-.2-.4-.2a4,4,0,0,0-1.2.7c-.6.4-1,.9-1.4,1.2s-.4,0-.9-.1a4.5,4.5,0,0,0-1.6-.3H29.9a13.7,13.7,0,0,0-2.5-.9,5.9,5.9,0,0,0-2.3-.1l-2.8.2a5.6,5.6,0,0,1-2.4-.3l-3-1.1a16.4,16.4,0,0,1-2.2-1.4,31.5,31.5,0,0,1-2.6-2.6,29.3,29.3,0,0,1-3.4-3c-.1-.5.1-.3.5-.7l1.7-.9L9.3.8A11.9,11.9,0,0,0,7.2,2s-.5-.4.1-1L8.5.2A.9.9,0,0,0,7.9,0,7.8,7.8,0,0,0,5.1,1.3a9.2,9.2,0,0,0-1,2,2.3,2.3,0,0,0-.6.7A8.2,8.2,0,0,0,3,5.4a1.9,1.9,0,0,1-.5.8L0,6.7A3.5,3.5,0,0,0,.5,8.4L.8,9l.5-1,1,.6.3-1,.8.5.4-.8.3.3v.6l-.2.5H3.5a2,2,0,0,1,.2.9c0,.4-.2.4-.3.4s-.2,0-.2-.4a1.7,1.7,0,0,1,.2-.9l-.5-.2-.4.9-1-.6-.2.8A6.9,6.9,0,0,0,3,10.6,24.5,24.5,0,0,0,6.3,8.8l3.3,2.9a4.4,4.4,0,0,1,.6,1.7c.1.6.2,1.5.2,1.5l.3.6a8.9,8.9,0,0,0,.2,1.1,5.6,5.6,0,0,0,.7,1.3A14.1,14.1,0,0,0,13,19.7c.3.4.4,1.5.7,2.1l.8,2.1c.1.2.1.7.2,1.1s-.2.2-.5.4a.4.4,0,0,0-.2.5.5.5,0,0,0,.1.3c.1.2.3,0,.3,0a.2.2,0,0,0,.1.3c.1.2.4,0,.6-.1a.4.4,0,0,1,.1.3,1.3,1.3,0,0,1,.1.7,2.3,2.3,0,0,1-.4,1c-.2.4-.7.5-1,.8s-.4.4-.4.6.2.1.2.3.4.1.4.2h.7l1.1-.4c.3-.2.4-.2.5-.6s.2-1.8.3-2,.4-.6.4-.9a5.8,5.8,0,0,0-.4-1.3,6.4,6.4,0,0,1-.2-.9h0a1.1,1.1,0,0,1,.3-.5c.1-.2,0-.4-.1-.8a6,6,0,0,0-.2-1.2,10.3,10.3,0,0,1-.1-1.8h1.8a10.8,10.8,0,0,0,3.6-1.1,12.7,12.7,0,0,1,2.3-.8,3.1,3.1,0,0,0,.5,1,6.2,6.2,0,0,0,1.8,1.4A7.5,7.5,0,0,1,28,21.8.9.9,0,0,1,28,23a2.1,2.1,0,0,1-1.1.8c-.3.2-.7,0-1,.1s-.4.3-.4.3v.2a.3.3,0,0,0,.1.2H26l.2.2a1.4,1.4,0,0,0,.9,0c.3,0,.4,0,.6-.2A15.6,15.6,0,0,0,29,23.4,6.9,6.9,0,0,0,30.2,22c.2-.4.2-.5.1-.8a8.5,8.5,0,0,0-1.6-1.1,3.1,3.1,0,0,1-.8-1.3,1,1,0,0,1,.3-.9l1,.7a15.3,15.3,0,0,1,1.3,1.6,4.4,4.4,0,0,0,1.2,1.3c.8.6,1.6,1,2,1.4a8.3,8.3,0,0,1,1.6,1.2,3.8,3.8,0,0,1,1.3,1.6,2.2,2.2,0,0,1,.3,1.5c-.1.5-.2.3-.2.7s.1.4.2.7.2,0,.4.2.6,0,.8.1.5-.2.7-.5A2.9,2.9,0,0,0,38.5,27ZM5,5.4a1.6,1.6,0,0,0-.7.5,1.3,1.3,0,0,1-.1-.8c.1-.2.8-.4,1.2-.4s.5.3.5.3Z" fill="#1a2026"/>
        <path d="M1.1,10.2c0,.4-.1.4-.2.4s-.2,0-.2-.4.1-.8.2-.8S1.1,9.9,1.1,10.2Z" fill="#1a2026"/>
        <path d="M1.6,12.3c0,.5-.1.5-.2.5s-.2,0-.2-.5.1-1,.2-1S1.6,11.9,1.6,12.3Z" fill="#1a2026"/>
        <path d="M2.6,11.4c0,.4-.1.5-.3.5s-.2-.1-.2-.5.1-.9.2-.9S2.6,11,2.6,11.4Z" fill="#1a2026"/>
        <path d="M4.3,12.6c0,.6-.2.7-.3.7s-.3-.1-.3-.7S3.8,11,4,11A3.6,3.6,0,0,1,4.3,12.6Z" fill="#1a2026"/>
        <path d="M8.3,26.2h-1q.3-.2.3-.3c0-.3-.6-.5-1.4-.5s.7-.4.7-.6-1-.9-2.2-.9a3.9,3.9,0,0,0-1.7.4,2.6,2.6,0,0,0-1.4-.3c-.8,0-1.6.3-1.6.6s.8.5,1.6.5h1c0,.2.1.3.3.5s-1.5.2-1.5.5,1.4.7,2.3.7a2.5,2.5,0,0,0,1.5-.4h1c-.3.1-.5.2-.5.3s1.7.7,2.6.7,1.6-.2,1.6-.5S9.2,26.2,8.3,26.2Z" fill="#1a2026"/>
      </g>
    </g>
  </g>
</svg>
