<svg xmlns="http://www.w3.org/2000/svg" width="24" height="24" viewBox="0 0 24 24">
  <title>Radar Sensor</title>
  <g id="Layer_2" data-name="Layer 2">
    <g id="Layer_1-2" data-name="Layer 1">
      <path d="M12,0A12,12,0,1,0,24,12,12,12,0,0,0,12,0Zm0,22.9a11,11,0,0,1-7.3-2.8L5.8,19h0c.1,0,.1.1.2.2l.3.2.4.3.4.2a9.9,9.9,0,0,0,2.3,1l1.3.3a1.4,1.4,0,0,0,1.3.9,1.4,1.4,0,0,0,1.3-1h.3l.9-.2,1.8-.8a9.4,9.4,0,0,0,3.2-2.8l.3-.5a.8.8,0,0,0,.2-.4l.3-.5c.1-.2.1-.4.2-.6s.1-.3.2-.5a1.3,1.3,0,0,0,.1-.6,3.6,3.6,0,0,0,.2-1.1,1.3,1.3,0,0,0,.1-.6V10.2c0-.2-.1-.4-.1-.6s-.3-.7-.4-1.1a8.2,8.2,0,0,0-1.2-2,6,6,0,0,0-.8-.8.8.8,0,0,0-.4-.4l-.4-.4a9.2,9.2,0,0,0-4.1-1.7,8.1,8.1,0,0,0-4.1.3A8.3,8.3,0,0,0,6.2,5.3L6,5.5l-.5-.2a.8.8,0,0,0-.8.8.8.8,0,0,0,.2.6,5.3,5.3,0,0,0-.6,1L4,8.3l-.2.3a.4.4,0,0,1-.1.3,4.3,4.3,0,0,1-.1.5l-.2.5a3.4,3.4,0,0,0-.1.9,2,2,0,0,0-.1.7v0c0-.2.1-.4.1-.7a6.4,6.4,0,0,0,.2-.9,4.3,4.3,0,0,0,.1-.5c.1-.1.1-.3.2-.5V8.6l.2-.3a.9.9,0,0,1,.3-.6A4.7,4.7,0,0,1,5,6.8h.5a.8.8,0,0,0,.8-.8c0-.2-.1-.3-.2-.5l.2-.2A9.7,9.7,0,0,1,9.5,3.7a8.9,8.9,0,0,1,4-.2,8.3,8.3,0,0,1,3.8,1.8l.4.3.4.4.7.8a9.3,9.3,0,0,1,1.1,1.9,4.5,4.5,0,0,1,.3,1.1.9.9,0,0,1,.1.5v2.2c-.1.2,0,.4-.1.5a4.3,4.3,0,0,1-.2,1.1,4.3,4.3,0,0,0-.1.5c-.1.2-.2.3-.2.5a.8.8,0,0,0-.2.5l-.3.4c-.1.2-.2.3-.2.5l-.3.4a8.9,8.9,0,0,1-3,2.5l-1.6.7H13.2a1.3,1.3,0,0,0-1.2-.8,1.4,1.4,0,0,0-1.2.7L9.7,20l-2-.9-.4-.3L7,18.6l-.3-.2-.2-.2,1.2-1.1h0l.3.2.5.3a5.4,5.4,0,0,0,1.7.8l2.3.2h.6l.7-.2,1.3-.5a8.3,8.3,0,0,0,2.2-2,6.4,6.4,0,0,0,1.1-3V10.9a1,1,0,0,0,.5-.8A1.1,1.1,0,0,0,17.7,9h-.1a2.2,2.2,0,0,0-.5-.8l-.6-.7-.3-.2L15.9,7a5.8,5.8,0,0,0-2.8-1.2,5.7,5.7,0,0,0-2.9.2A7.3,7.3,0,0,0,7.9,7.3,5.2,5.2,0,0,0,6.6,9c-.1.1-.1.3-.2.4l-.2.4c0,.2-.1.3-.1.4s-.1.2-.1.4-.1.4-.1.6v0c.1-.2.1-.4.2-.6a.6.6,0,0,1,.1-.4c0-.1.1-.2.1-.4s.1-.2.2-.3.1-.3.2-.5A6.7,6.7,0,0,1,8.1,7.4a5.1,5.1,0,0,1,2.2-1.1A6.1,6.1,0,0,1,13,6.1a5.7,5.7,0,0,1,2.7,1.3c.1,0,.1.1.2.2l.3.3c.2.2.4.3.5.5l.4.8a.9.9,0,0,0-.5.9,1.1,1.1,0,0,0,1.1,1h.1v1.5a5.6,5.6,0,0,1-1.1,2.6,6.7,6.7,0,0,1-2,1.8l-1.2.4H12.4a6.4,6.4,0,0,1-2-.3l-1.3-.6-.5-.3-.2-.2h0l1.2-1.1.3.2,1,.4a3.2,3.2,0,0,0,1.4.1h.8a1.1,1.1,0,0,0,.7-.3,3.7,3.7,0,0,0,1.3-1.2,3.6,3.6,0,0,0,.7-1.7v-.8h-.1V11a.8.8,0,0,0-.2-.4,3.3,3.3,0,0,0-1.1-1.5,3.6,3.6,0,0,0-1.7-.7,2.9,2.9,0,0,0-1.6.2,2.3,2.3,0,0,0-1.3.7,3.5,3.5,0,0,0-.8,1l-.3.9c0,.2-.1.4-.1.6v0l.2-.6a1.9,1.9,0,0,1,.3-.9l.8-.9A3.4,3.4,0,0,1,11,8.8a2.9,2.9,0,0,1,1.6,0,2.5,2.5,0,0,1,1.4.6,4.5,4.5,0,0,1,1,1.4c0,.2.1.5.1.8h.1v.6a3.5,3.5,0,0,1-.6,1.4,3.1,3.1,0,0,1-1.1.9l-.6.2H11.2l-.7-.4h-.2l1.2-1.2H12A1.3,1.3,0,1,0,10.7,12a.9.9,0,0,0,.1.5L3.9,19.3A10.9,10.9,0,0,1,12,1.1a10.9,10.9,0,0,1,0,21.8Z" fill="#1a2026"/>
    </g>
  </g>
</svg>
