<svg xmlns="http://www.w3.org/2000/svg" viewBox="0 0 23.88 32"><defs><style>.cls-1{fill:#1a2026;}</style></defs><title>Radio Report</title><g id="Layer_2" data-name="Layer 2"><g id="Layer_1-2" data-name="Layer 1"><path class="cls-1" d="M22.43,9.61A1.33,1.33,0,0,0,21,10.8v5.55a9.22,9.22,0,0,0-1.62-.14H16V15a1.33,1.33,0,0,0-1.44-1.19A1.33,1.33,0,0,0,13.11,15V16.7c-1,.39-1.62,1-1.62,1.61V29.9c0,1.16,2,2.1,4.51,2.1h3.37c2.49,0,4.51-.94,4.51-2.1V10.8A1.34,1.34,0,0,0,22.43,9.61Zm-4.75,9.77a.6.6,0,1,1-.6.6A.6.6,0,0,1,17.68,19.38Zm-2.37,0a.6.6,0,1,1-.6.6A.6.6,0,0,1,15.31,19.38Zm5.35,4.46H14.71V21.78h5.95Zm-.6-3.26a.6.6,0,1,1,.6-.6A.6.6,0,0,1,20.06,20.58Z"/><rect class="cls-1" x="2.99" y="10.41" width="10.26" height="1.4" transform="translate(-0.14 0.11) rotate(-0.74)"/><rect class="cls-1" x="2.99" y="4.81" width="5.6" height="1.4"/><rect class="cls-1" x="2.99" y="16.01" width="5.6" height="1.4"/><path class="cls-1" d="M18.54,6.41,13.84.25a.58.58,0,0,0-.5-.25H.63A.64.64,0,0,0,0,.63V22.41a.55.55,0,0,0,.17.46A.81.81,0,0,0,.63,23H8.4V21.79H1.26V1.26H12.59V6.79a.65.65,0,0,0,.63.63h4.19V14h1.25V6.79A.71.71,0,0,0,18.54,6.41Zm-4.7-.29V2.22l2.9,3.9Z"/></g></g></svg>