<svg xmlns="http://www.w3.org/2000/svg" viewBox="0 0 30 26.04"><defs><style>.cls-1{fill:#1a2026;}</style></defs><title>Rainfall</title><g id="Layer_2" data-name="Layer 2"><g id="Layer_1-2" data-name="Layer 1"><path class="cls-1" d="M29,16.59a5.25,5.25,0,0,1-4.08,2.19H23.23L24,17.24l.84,0a3.87,3.87,0,0,0,2.94-1.57,3.79,3.79,0,0,0,.59-3.26,3.85,3.85,0,0,0-3.72-2.82H22.87V8.89a6.8,6.8,0,0,0-1-4.65,6.15,6.15,0,0,0-3.82-2.6,5.17,5.17,0,0,0-1.19-.13,6.39,6.39,0,0,0-5.25,2.78l-.14.21-.44.74-.63-.34A3.86,3.86,0,0,0,8.5,4.41a4,4,0,0,0-4,3.93v.48L4.06,9a4.49,4.49,0,0,0-.93.57A4.43,4.43,0,0,0,1.8,11.37,4.31,4.31,0,0,0,2,14.9a5,5,0,0,0,.51.78,3.75,3.75,0,0,0,.54.58,4.43,4.43,0,0,0,3,1H7.27a1.86,1.86,0,0,0-.22,1.29,1.06,1.06,0,0,0,0,.19v0H5.92A5.69,5.69,0,0,1,.66,15.6,5.75,5.75,0,0,1,.4,10.82,6,6,0,0,1,2.21,8.39,8.77,8.77,0,0,1,3,7.85H3A5.56,5.56,0,0,1,8.5,2.9a5.39,5.39,0,0,1,2,.38h0A7.91,7.91,0,0,1,16.88,0a7.32,7.32,0,0,1,1.53.17,7.68,7.68,0,0,1,6,8h.2A5.36,5.36,0,0,1,29.8,12,5.25,5.25,0,0,1,29,16.59Z"/><path class="cls-1" d="M12,14.79a1.86,1.86,0,0,1,.11.33c0,1.12,0,2.26-.09,3.37a1.71,1.71,0,0,1-1.85,1.4,1.9,1.9,0,0,1-1.76-1.55,1.66,1.66,0,0,1,.67-1.75C10,16,11,15.41,12,14.79Z"/><path class="cls-1" d="M8.27,21a1.86,1.86,0,0,1,.11.33c0,1.12,0,2.25-.09,3.37A1.71,1.71,0,0,1,6.44,26,1.87,1.87,0,0,1,4.68,24.5a1.65,1.65,0,0,1,.66-1.75C6.28,22.13,7.25,21.57,8.27,21Z"/><path class="cls-1" d="M14.84,19.26a2.2,2.2,0,0,1,.11.33c0,1.13,0,2.26-.09,3.38A1.72,1.72,0,0,1,13,24.36a1.88,1.88,0,0,1-1.76-1.55,1.66,1.66,0,0,1,.66-1.75C12.85,20.45,13.82,19.89,14.84,19.26Z"/><path class="cls-1" d="M18.9,13.25a1.86,1.86,0,0,1,.11.33c0,1.13,0,2.26-.08,3.38a1.73,1.73,0,0,1-1.86,1.39,1.9,1.9,0,0,1-1.76-1.55A1.68,1.68,0,0,1,16,15.05C16.91,14.44,17.89,13.87,18.9,13.25Z"/><path class="cls-1" d="M21.76,17.72a2.69,2.69,0,0,1,.11.33c0,1.13,0,2.26-.08,3.38a1.72,1.72,0,0,1-1.86,1.39,1.89,1.89,0,0,1-1.76-1.55,1.67,1.67,0,0,1,.67-1.74C19.77,18.91,20.74,18.35,21.76,17.72Z"/></g></g></svg>