<svg xmlns="http://www.w3.org/2000/svg" viewBox="0 0 27 31.53"><defs><style>.cls-1{fill:#1a2026;fill-rule:evenodd;}</style></defs><title>Recovered Firearms</title><g id="Layer_2" data-name="Layer 2"><g id="Layer_1-2" data-name="Layer 1"><path class="cls-1" d="M26.71,1.91l-.83.75h0L24.32,4.07,19.23,8.64a.41.41,0,0,0-.15.42c0,.15.05.31.08.47a9.82,9.82,0,0,1,.19,1.54,3.46,3.46,0,0,1-.81,2.36,3.24,3.24,0,0,1-.36.38l-.38.34L12.72,19a2.81,2.81,0,0,1,.36,1.26,2.1,2.1,0,0,1-.46,1.34l-.81,1a.22.22,0,0,0,0,.27c.29.59.27.74-.21,1.23-.32.33-.51.49-.72.48s-.38-.2-.65-.59l-.13-.21a3.53,3.53,0,0,0-.21-.32.61.61,0,0,0-1,0,2.29,2.29,0,0,0-.49,1.42c0,.31,0,.64,0,1s0,.55,0,.82a3.44,3.44,0,0,1-.82,2.08c-.7.81-1.43,1.64-2.18,2.47a.79.79,0,0,1-.61.31l-.13,0A8.7,8.7,0,0,1,0,28.16c-.34-.93,1.58-2.66,1.66-2.73h0l.64-.64c1.14-1.13,2.32-2.3,3.49-3.44a3,3,0,0,0,.86-2.92,2.11,2.11,0,0,1,.78-2.28l.35-.31L8,15.71a1.59,1.59,0,0,0,.13-.13l0,0-.55-.62a4.19,4.19,0,0,0-1.12,1.28,5.14,5.14,0,0,1-.84,1.08l-.06.06-1.77-2,.07-.06A11.17,11.17,0,0,1,5,14.61,5.93,5.93,0,0,0,6.6,13.53,26.83,26.83,0,0,1,9,11.34,6.46,6.46,0,0,0,10.3,9.86a10.14,10.14,0,0,1,.82-1.07l.06-.07,1.79,2-.08,0-.16.12a3.64,3.64,0,0,1-.35.24c-.2.12-.41.22-.61.33a4.75,4.75,0,0,0-1.34.89,1.85,1.85,0,0,1-.14.14l0,0,.57.64L24.36,1h0l.82-.74A.87.87,0,0,1,25.82,0a.74.74,0,0,1,.53.25l.45.5a.75.75,0,0,1,.2.59A.86.86,0,0,1,26.71,1.91Z"/></g></g></svg>