<svg xmlns="http://www.w3.org/2000/svg" viewBox="0 0 146 146"><g id="Layer_2" data-name="Layer 2"><g id="Layer_1-2" data-name="Layer 1"><path d="M73,0a73,73,0,1,0,73,73A73,73,0,0,0,73,0ZM58.5,103.5l-.1,3.2-3-.3-.2,2.9c-12-3.8-6.4-19.3-6.4-19.3a29.17,29.17,0,0,0,7.6,4.4,13.66,13.66,0,0,0,5.2,8.1Zm-16.9-25c-20.5-18.4-38.8-9-38.8-9,20.5-19.2,45.2-2.2,56.6.7,24.2,6.2,32.2-6.6,39.9-15.5,8.9-11.5,19.3-17.7,26.9-9.8,10.2,10.9-6.3,15.5-6.3,15.5C99,122.7,49.4,84.9,41.6,78.5Zm66.7,31-3.9-.6-.3,3.7C94.8,109.8,93.6,99,93.6,99c4.1-.4,8-3.6,8-3.6.5,6.3,8,8.1,8.1,8l-2.1,2.2Zm17-10.4-.5,3.2C114.5,98.1,111.5,87,111.5,87a27.25,27.25,0,0,0,5.4-7.7c7,13.6,13.9,13.2,13.9,13.2L128.1,95l1.3,3.5Z"/><path d="M120.6,52.1a4.5,4.5,0,0,0-3.8-5,4.58,4.58,0,0,0-1,9.1,4.53,4.53,0,0,0,4.8-4.1"/><path d="M97.8,73.3a2.77,2.77,0,0,0-2.3-3,2.74,2.74,0,0,0-2.9,2.4,2.77,2.77,0,0,0,2.3,3,2.56,2.56,0,0,0,2.9-2.4"/><path d="M81.2,82.3a2.7,2.7,0,0,0-2.3-3A2.66,2.66,0,0,0,76,81.7a2.7,2.7,0,0,0,2.3,3,2.66,2.66,0,0,0,2.9-2.4"/><path d="M62.7,78.7a2.77,2.77,0,0,0-2.3-3,2.74,2.74,0,0,0-2.9,2.4,2.77,2.77,0,0,0,2.3,3,2.66,2.66,0,0,0,2.9-2.4"/></g></g></svg>
