<svg xmlns="http://www.w3.org/2000/svg" width="28.2" height="28.2" viewBox="0 0 28.2 28.2">
  <title>Reptiles</title>
  <g id="Layer_2" data-name="Layer 2">
    <g id="Layer_1-2" data-name="Layer 1">
      <path d="M27.9,13.3l-1.3.7-.4.3H26a3.6,3.6,0,0,1,.4-.9.2.2,0,0,0-.1-.4c-.1-.1-.3,0-.4.1a3.6,3.6,0,0,0-.4,1.1h-.1l-.9.9-1.3.7h-.6c-.1-.1-.7-2.3-1-3.5a4.1,4.1,0,0,0,.1-1.1.9.9,0,0,1,.3-.7h0a1.4,1.4,0,0,1,.9-.3A2.8,2.8,0,0,0,25,9.4c1.8-1.3,2.5-3.3,1.6-4.6s-3-1.3-4.8,0a3.3,3.3,0,0,0-1.4,2.1,1.7,1.7,0,0,1-.9,1.3h-1L17.1,5.9a1.1,1.1,0,0,1,.2-1.1l1-1.3.3-.2.5-.2H20a.1.1,0,0,0,.1-.1h.6c.1,0,.2,0,.3-.2s-.1-.3-.2-.3a2.2,2.2,0,0,0-.8,0h-.6a1.3,1.3,0,0,0-.1-.6,4.6,4.6,0,0,0,.7-.7l.6-.6c.1-.1.2-.3.1-.4h-.4l-.6.6-.7.6h-.5a2.4,2.4,0,0,0,0-1.2c0-.1-.1-.2-.3-.2s-.3.2-.2.3V1.4c-.1,0-.2.4-.2.5l-.4.8L16.3,4.1c-1.1,1.2-.2,3.8.3,4.9a12.5,12.5,0,0,0-2.5,2.6,16.5,16.5,0,0,0-1.5,2.5c-1.6-.6-3.8-1.2-4.7-.7L5.1,14.5a6.4,6.4,0,0,1,.2-.7v-.2a1.6,1.6,0,0,0,.3-1.2c0-.1-.1-.3-.2-.3a.3.3,0,0,0-.3.3,1.9,1.9,0,0,1-.3,1h0A6.9,6.9,0,0,0,5,11l-.2-.2a.3.3,0,0,0-.3.3,4.4,4.4,0,0,1-.2,2.3v.3l-.2-.5c0-.2-.2-.4-.3-.6s-.2-.2-.4-.2-.2.3-.1.4a.9.9,0,0,1,.3.6c.1.2.1.4.2.6s.1.5,0,.5a6.4,6.4,0,0,1,0,1.4h0c0,.1,0,.3.1.3h.5l1-.5,2.9-1.2c.3-.1,2,1,3.3,1.8l-.3,1.1a11.2,11.2,0,0,1-3.9,6.8l-1.1.7a27.9,27.9,0,0,1-3.4,1.8L.1,27.8c-.1,0-.1.1-.1.2H.3L4,27.5a23.2,23.2,0,0,0,4-1.3,14.6,14.6,0,0,0,4.8-4.1,5.5,5.5,0,0,1,2-1.7,7,7,0,0,0,1.6-1,21.6,21.6,0,0,1,3.1.4s.1,2.2.1,2.6-.1.7-.1,1,.1.8.6.7a14.8,14.8,0,0,1,1.3-.8h.2l.6-.2h.7a.3.3,0,0,0,.3-.3l-.3-.3H21.7l.2-.2a4,4,0,0,1,2-1.1c.1,0,.2-.2.2-.3a.3.3,0,0,0-.3-.3A5.2,5.2,0,0,0,21.6,22c.1,0,.1,0,.1-.1a2.4,2.4,0,0,1,.8-.6.4.4,0,0,0,.1-.3c0-.2-.2-.3-.4-.2s-.6.5-.9.8h-.1c-.1.1-.2.3-.4.4V19.8c-.1-1.1-1.2-1.9-2.2-2.3s.8-.9,1.2-1.5l.8-1.1,1.1,1.6c.1.2.4.3.6.4a1.6,1.6,0,0,0,1.5-.1l1-.5H25l1.4-.4h1c.1.1.3,0,.4-.1a.4.4,0,0,0-.2-.4l-1.1-.2v-.3l.4-.3a6,6,0,0,1,1.1-.6c.1,0,.2-.1.2-.3A.3.3,0,0,0,27.9,13.3Z" fill="#1a2026"/>
    </g>
  </g>
</svg>
