<svg xmlns="http://www.w3.org/2000/svg" viewBox="0 0 40 40"><path d="M39.7,1.9A2.6,2.6,0,0,0,39,.8,3.4,3.4,0,0,0,37.8.2l-2-.2H32.9a1.6,1.6,0,0,0-1.1.3,1.2,1.2,0,0,0-.4,1.1v8.7a1.7,1.7,0,0,0,.3,1,1.4,1.4,0,0,0,.9.3,1.1,1.1,0,0,0,.8-.3,1.8,1.8,0,0,0,.3-1.1V6.9h2.1A4.6,4.6,0,0,0,38.9,6,3.3,3.3,0,0,0,40,3.4,3.7,3.7,0,0,0,39.7,1.9ZM37.4,4.4a1.6,1.6,0,0,1-.8.6H33.7V1.7h1.5a3.4,3.4,0,0,1,2.1.5,2.1,2.1,0,0,1,.4,1.2A1.5,1.5,0,0,1,37.4,4.4Z"/><polygon points="15.4 31.9 15.4 36.5 22.5 40 29.6 36.5 29.6 31.9 22.5 35.4 15.4 31.9"/><path d="M16.2,17.6a6.9,6.9,0,0,0-.2-1.3v-.4c-.1-.1,0-.2.1-.3s2.8-2.6,4.3-3.8l1.3-1.2h0l.7-.6c.1-.2.2-.3.2-.5s0-.4-.2-.5l-.3-.4c-.1-.2-.3-.2-.5-.2a.4.4,0,0,0-.5.1l-.7.7h0L9.1,19.4l-.5-.6h0a.1.1,0,0,0,.1-.1l1.2-.8.5-.2.3-.2c0-.1,0-.1.1-.1h.1L9.4,15.7H9.3l-.7.9a6.4,6.4,0,0,1-1,1.3,11.8,11.8,0,0,0-2.1,1.8,6,6,0,0,1-1.3.9l-1,.6h0l1.5,1.7h0a3.1,3.1,0,0,0,.7-.9c.3-.4.5-.8.9-1l.5.5h0a.1.1,0,0,0-.1.1.1.1,0,0,0-.1.1l-.3.3a1.9,1.9,0,0,0-.7,1.9,2.3,2.3,0,0,1-.7,2.4L2,29.1l-.6.5h0c0,.1-1.7,1.6-1.4,2.3a6.8,6.8,0,0,0,3.8,2.8h.1c.2,0,.3-.1.5-.3l1.8-2.1a2.6,2.6,0,0,0,.7-1.7A1.7,1.7,0,0,1,7,30v-.8A1.7,1.7,0,0,1,7.4,28c.3-.3.6-.3.8,0s.2.2.2.3.1.1.1.2.4.5.6.5l.6-.4a.8.8,0,0,0,.2-1.1c-.1-.1-.1-.1,0-.2a2.7,2.7,0,0,1,.7-.8,2.8,2.8,0,0,0,.4-1.2l-.3-1,4.2-4.1.3-.3.3-.3A2.7,2.7,0,0,0,16.2,17.6Z"/><polygon points="15.4 22 15.4 30.5 22.5 34 29.6 30.5 29.6 22 22.5 25.5 15.4 22"/></svg>
