<svg xmlns="http://www.w3.org/2000/svg" viewBox="0 0 36 27.26"><defs><style>.cls-1{fill:#1a2026;}</style></defs><title>Rhino Territorial Movement</title><g id="Layer_2" data-name="Layer 2"><g id="Layer_1-2" data-name="Layer 1"><path class="cls-1" d="M.53,6.68a3.44,3.44,0,0,1,.13.43,2.61,2.61,0,0,0,0,.28c0,.09,0,.08.07.19a2.06,2.06,0,0,1,.2.55,2.15,2.15,0,0,1-.17.62,9.48,9.48,0,0,1-.45,1c-.08.19-.18.35-.08.5a6.54,6.54,0,0,1,.36.57.79.79,0,0,1,.07.71c-.14.4-.35.69-.24.9s.33.15.41.15a1,1,0,0,0,.71,0,.86.86,0,0,0,.27,0,3.63,3.63,0,0,0,.48.06c.1,0,.1-.05.1-.05a1,1,0,0,0,.19.05c.06,0,.13,0,0-.22a1.38,1.38,0,0,0-.34-.52A1.12,1.12,0,0,1,2,11.6a4.17,4.17,0,0,1-.07-.54,2.77,2.77,0,0,1,.16-.63c.08-.2.17-.5.25-.68s.2-.47.2-.47a3,3,0,0,1,0,.83,2.07,2.07,0,0,0-.07.74.64.64,0,0,0,.3.34,4.34,4.34,0,0,1,.61.58.65.65,0,0,1,.06.48,4,4,0,0,0-.13.45c0,.09,0,.24.29.21h.34c.06,0,.65.28,1,0,.13,0,.55.11.67,0s.09-.11.07-.17a1.88,1.88,0,0,0-.16-.37c0-.07,0-.1-.22-.15a1,1,0,0,1-.36-.16,1.35,1.35,0,0,1-.24-.43c-.07-.21-.18-.44-.22-.54a3,3,0,0,1-.07-.67c0-.11.08-.56.12-.83a3.22,3.22,0,0,1,.11-.8,1.51,1.51,0,0,1,.57-.66,1,1,0,0,0,.43-.52A4.38,4.38,0,0,0,7.29,9.19,7.85,7.85,0,0,0,11,9.57a9.45,9.45,0,0,0,2.16-.44A11.64,11.64,0,0,0,14,10.21a.31.31,0,0,1,0,.15.15.15,0,0,0-.1.11c-.12-.06-.22-.07-.27,0a.8.8,0,0,0-.33-.16c-.09,0-.64.59-.74.68a.66.66,0,0,0-.15.48,1.83,1.83,0,0,0,.15.45.75.75,0,0,1,.19,0,.41.41,0,0,0,0,.44.6.6,0,0,0,.45.33.69.69,0,0,0,.34-.2c.09-.07.38-.39.55-.5l.31-.21a1.7,1.7,0,0,0,.26,0,.41.41,0,0,1,0,.09,1.08,1.08,0,0,0-.2.23,1,1,0,0,0-.14.55c.05.11,0,.2.44.21a2.64,2.64,0,0,0,.7,0,2.07,2.07,0,0,0,.68.11.91.91,0,0,0,.44-.07s0-.12,0-.12a.5.5,0,0,0,.2,0c.06,0,.13,0,.1-.1a2.34,2.34,0,0,1-.15-.25.35.35,0,0,0-.21-.22,2,2,0,0,1-.39-.21,1.13,1.13,0,0,1-.3-.64c0-.08,0-.23.06-.37a4.87,4.87,0,0,1,.49-1.32A7.42,7.42,0,0,1,17,8.81c.1,0,.29.13.43-.16.06,0,.28,0,.32,0a.3.3,0,0,0,.34.18c.18,0,.45-.16.48-.25a1.59,1.59,0,0,0,.08-.23l.12-.07a3.31,3.31,0,0,1,.18.29.74.74,0,0,0,.41.6c.09.11,1.42,1.39,1.5,1.5a.7.7,0,0,0,.5.29c.1.09.23.35.61.19a3.39,3.39,0,0,1,.76-.12s.42,0,.49-.25a3.09,3.09,0,0,1,.2-.37c.08-.14.11-.25.07-.31s.27-.57.27-.64a4.07,4.07,0,0,0,1.13-.91,2.91,2.91,0,0,0,.73-1.18,3.19,3.19,0,0,0,0-.69c0-.09-.11-.34-.35,0a5.61,5.61,0,0,1-1.67.91,1.21,1.21,0,0,1-.42,0l-.05-.12h0a1.33,1.33,0,0,1,.43-.17c.31-.07.57-.32.23-.36s-.93,0-.93,0a3.92,3.92,0,0,0-.51-.64,3.13,3.13,0,0,1-.62-.77,2.2,2.2,0,0,1-.25-1,2.57,2.57,0,0,0-.1-.85.38.38,0,0,1,.17,0c.14,0,.43,0,.68-.58.1-.14.26-.6.34-.67a.82.82,0,0,0,.13-.23.21.21,0,0,0-.13,0c-.07,0-.35.24-.51.32s-.75.27-.8.33,0-.25-.13-.3a1.26,1.26,0,0,0-.28,0c-.11,0-.2-.09-.18,0a.28.28,0,0,1-.08.25.27.27,0,0,0-.08.14.29.29,0,0,1-.15,0c-.06,0-.1-.22-.18-.27s-.27-.05-.31-.08a.21.21,0,0,1-.1-.14,2.52,2.52,0,0,0-.5-1A2.9,2.9,0,0,0,18,.58c-.46-.07-.74,0-1,0S16,.46,15.71.42A3.74,3.74,0,0,0,14,.58a2.55,2.55,0,0,1-.75.25A7.21,7.21,0,0,1,10.79.62,19.09,19.09,0,0,1,8.47.05,2,2,0,0,0,7.33.13,11.31,11.31,0,0,1,5.48.72C4.81.83,4.15.83,4,.85a3.39,3.39,0,0,0-1.09.48A4.84,4.84,0,0,0,1,3.23,5.41,5.41,0,0,0,.37,5.18c0,.1,0,.31,0,.31A2.55,2.55,0,0,1,.27,6c-.06.23-.19.43-.23.57S0,6.87.1,7s.18.16.17.2-.11.08,0,.25a1.13,1.13,0,0,1,.22.31s.18-.11.1-.41S.45,7,.28,6.89s-.07-.06-.06-.1.1-.15.17-.31a2.18,2.18,0,0,0,.08-.24Z"/><path class="cls-1" d="M31.46,24.85a.59.59,0,0,0,.76.91c.31-.24.63-.51,1-.8a.6.6,0,0,0,0-.84.59.59,0,0,0-.84,0c-.3.27-.6.52-.88.74Z"/><path class="cls-1" d="M17.63,16.76a.59.59,0,0,0,.72.94,3.09,3.09,0,0,1,1.94-.6.61.61,0,0,0,.66-.53.6.6,0,0,0-.52-.66,4.15,4.15,0,0,0-2.72.79ZM22,17.4a.6.6,0,0,0-.07.8,11.29,11.29,0,0,1,1.16,2,.6.6,0,0,0,1.08-.51,12.64,12.64,0,0,0-1.29-2.25.6.6,0,0,0-.83-.12Zm2.23,4.41a.6.6,0,0,0-.15.68,21.19,21.19,0,0,0,1.15,2.28.59.59,0,0,0,1-.61A19.64,19.64,0,0,1,25.12,22a.58.58,0,0,0-.78-.3A.44.44,0,0,0,24.18,21.81Zm2.75,4a.53.53,0,0,0-.11.14.59.59,0,0,0,.2.81,3.37,3.37,0,0,0,2.87.28.6.6,0,0,0-.36-1.14,2.1,2.1,0,0,1-1.89-.16A.6.6,0,0,0,26.93,25.84Z"/><path class="cls-1" d="M11.62,19.28a.6.6,0,0,1-.79-.15,2.7,2.7,0,0,1-.22-.33l-.45-.71a.6.6,0,0,1,.2-.82.59.59,0,0,1,.82.19l.44.72.16.24a.58.58,0,0,1-.12.83Z"/><path class="cls-1" d="M16.33,19l0,0a5.07,5.07,0,0,1-2.55,1.08.6.6,0,1,1-.1-1.19,3.78,3.78,0,0,0,1.93-.84.6.6,0,0,1,.76.92Z"/><path class="cls-1" d="M35,21.67a.63.63,0,0,0-.19.42l-.16,3.36a.6.6,0,0,0,.57.62.59.59,0,0,0,.62-.57L36,22.14a.59.59,0,0,0-.57-.62A.61.61,0,0,0,35,21.67Z"/><path class="cls-1" d="M31.64,21.52a.61.61,0,0,0-.19.41.59.59,0,0,0,.57.62l3.36.16a.6.6,0,0,0,.62-.57.59.59,0,0,0-.57-.62l-3.36-.16A.65.65,0,0,0,31.64,21.52Z"/><path class="cls-1" d="M35,21.67l-2.63,2.41a.59.59,0,0,0,0,.84.6.6,0,0,0,.84,0l2.64-2.41a.59.59,0,0,0,0-.84A.6.6,0,0,0,35,21.67Z"/></g></g></svg>