<svg xmlns="http://www.w3.org/2000/svg" width="40.5" height="34.6" viewBox="0 0 40.5 34.6">
  <title>Rhino Carcass - Poached</title>
  <g id="Layer_2" data-name="Layer 2">
    <g id="Layer_1-2" data-name="Layer 1">
      <g>
        <path d="M40.3,12.5l-.7.6h0l-1.3,1L34,17.4a.4.4,0,0,0-.1.3v.4a4.9,4.9,0,0,1,.1,1.2,3,3,0,0,1-.8,1.9l-.3.2-.3.3-4.3,3.5a2.2,2.2,0,0,1,.3,1,2.7,2.7,0,0,1-.5,1.1,4.6,4.6,0,0,1-.7.7c0,.1-.1.1,0,.2s.1.6-.3,1l-.5.3c-.2,0-.3-.2-.5-.5s-.1-.1-.1-.2-.1-.1-.2-.2a.4.4,0,0,0-.7-.1,1.3,1.3,0,0,0-.5,1.1,1.7,1.7,0,0,0-.1.7c0,.3-.1.5-.1.7a2.9,2.9,0,0,1-.7,1.6l-1.9,1.8a.6.6,0,0,1-.5.2h-.1a6.9,6.9,0,0,1-3.3-2.9c-.2-.7,1.4-2,1.4-2h0l.6-.5,2.9-2.5a2.2,2.2,0,0,0,.8-2.3,1.6,1.6,0,0,1,.8-1.7l.3-.2c0-.1,0-.1.1-.1h.1l-.4-.5a4.3,4.3,0,0,0-.9,1l-.7.8h-.1l-1.3-1.6h.1l.9-.5a4,4,0,0,0,1.3-.7A16.6,16.6,0,0,1,25.9,19a5.2,5.2,0,0,0,1-1.1l.7-.8h.1L29,18.7h-.1a.1.1,0,0,1-.1.1l-.3.2-.5.2a4.1,4.1,0,0,0-1.1.7.1.1,0,0,0-.1.1h0l.4.5,11.3-8.8h0l.7-.6h.5l.4.2.3.4c.1.2.2.3.1.5A.5.5,0,0,1,40.3,12.5Z" fill="#1a2026" fill-rule="evenodd"/>
        <path d="M9.3,7.6a2,2,0,0,0,.1.5v.6a1.4,1.4,0,0,1,.2.6,1.7,1.7,0,0,1-.2.7A3.8,3.8,0,0,1,9,11.1a.7.7,0,0,0-.1.6c.1.2.4.5.4.6a.9.9,0,0,1,.1.9c-.2.4-.4.7-.3,1a.6.6,0,0,0,.5.2h2c.1,0,.2,0,0-.3l-.4-.6-.3-.3c0-.2-.1-.5-.1-.7a2.5,2.5,0,0,1,.2-.7l.3-.8.2-.5a3.3,3.3,0,0,1,0,1,2.5,2.5,0,0,0-.1.8l.3.4.8.6c0,.2.1.4,0,.6a4.3,4.3,0,0,1-.1.5c0,.1,0,.3.3.3h.4c.1,0,.7.3,1.1,0H15v-.2a1.5,1.5,0,0,1-.2-.4l-.3-.2-.4-.2a.7.7,0,0,1-.2-.4c-.1-.3-.3-.5-.3-.7V12a5.8,5.8,0,0,1,.2-1,2.8,2.8,0,0,1,.1-.9,2,2,0,0,1,.6-.7,1.2,1.2,0,0,0,.5-.6,6,6,0,0,0,2,1.7,8.7,8.7,0,0,0,4.3.4,7.2,7.2,0,0,0,2.4-.5,14.6,14.6,0,0,0,.9,1.3h0V12h-.3l-.4-.2c-.1,0-.7.7-.8.8a1.1,1.1,0,0,0-.2.6,1.2,1.2,0,0,0,.2.5h.2c-.1,0-.1.2,0,.5l.5.3.4-.2.7-.6.3-.2h.3v.2l-.3.2c-.1.2-.2.5-.1.6s0,.3.5.3h2c.1,0,0-.1,0-.1h.4l-.2-.3c-.1-.1-.1-.2-.2-.2l-.5-.3a1.5,1.5,0,0,1-.3-.7v-.4a5.8,5.8,0,0,1,.6-1.5,3.8,3.8,0,0,1,.8-.9.4.4,0,0,0,.5-.2h.3a.3.3,0,0,0,.4.2l.6-.2a1,1,0,0,1,.1-.3h.1l.2.3a.7.7,0,0,0,.5.7c.1.2,1.6,1.6,1.7,1.7a.7.7,0,0,0,.5.4c.2.1.3.4.7.2h.9s.5,0,.6-.3.1-.3.2-.4a.8.8,0,0,0,.1-.4l.3-.7a5.3,5.3,0,0,0,1.3-1.1,2.7,2.7,0,0,0,.8-1.3,5.4,5.4,0,0,1,.1-.8c-.1-.1-.2-.4-.4-.1a7.7,7.7,0,0,1-1.9,1.1h-.6l.5-.2c.4-.1.7-.4.3-.4H34.8l-.6-.7c-.3-.4-.5-.4-.7-.9a2.6,2.6,0,0,1-.3-1.1,2.5,2.5,0,0,0-.1-1h.2c.2,0,.5,0,.8-.6a5.9,5.9,0,0,1,.4-.8.3.3,0,0,0,.1-.2h-.1l-.6.4c-.2.1-.9.3-.9.4a.8.8,0,0,0-.2-.4h-.3c-.1,0-.2-.1-.2,0a.4.4,0,0,1-.1.3h-.3c0-.1-.1-.3-.2-.3h-.3c-.1-.1-.1-.1-.1-.2a4.1,4.1,0,0,0-.6-1.1A2.6,2.6,0,0,0,29.2.7H26.6a3.7,3.7,0,0,0-2,.2l-.8.2A5.8,5.8,0,0,1,21,.7L18.3.1A1.9,1.9,0,0,0,17,.1a10.1,10.1,0,0,1-2.1.7L13.2,1,12,1.5A5.8,5.8,0,0,0,9.8,3.7a5.5,5.5,0,0,0-.7,2.2v.4c0,.2-.1.4-.1.6l-.3.6c0,.2-.1.3.1.5l.2.2s-.2.1,0,.3.2.3.2.3.3-.1.2-.4S9.2,8,9,7.9H8.9l.2-.4c0-.1.1-.2.1-.3S9.2,7.5,9.3,7.6Z" fill="#1a2026"/>
        <path d="M2.4,10.1c-.4.1-.8-.1-1.1.3l-.8.9a2.1,2.1,0,0,0-.2,2.4,1.9,1.9,0,0,0,2.1,1,2.9,2.9,0,0,1,2.6.8c2,1.5,2.2,2.1,3.9,3.8s3,3.2,4.4,4.8S15,26,14.8,27.2s-.4,1.9.9,1.9a2.5,2.5,0,0,1,1.2.1c.6.3.9-.3,1.1-.8a1.3,1.3,0,0,1,.6-1c.3-.3.3-.6.5-.9s1.5-1.3.5-1.9-.5-.6-.8-.8-.6-.2-.9-.3a8.5,8.5,0,0,1-1.7-.6A11.2,11.2,0,0,1,13.8,21l-3-3L7.4,14.3a5.2,5.2,0,0,1-1.7-2.6A2.9,2.9,0,0,0,4.4,9.9l-.7-.6c-.5-.1-1,.5-1.3.8Z" fill="#1a2026"/>
      </g>
    </g>
  </g>
</svg>
