<svg xmlns="http://www.w3.org/2000/svg" viewBox="0 0 33.72 27.95"><defs><style>.cls-1{fill:#1a2026;}</style></defs><title>Rhino Boma</title><g id="Layer_2" data-name="Layer 2"><g id="Layer_1-2" data-name="Layer 1"><path class="cls-1" d="M25.27,14.85c-.25.08-.41-.16-.76.46-.13.22.06.7.21.9s.19.12.37.24a2.68,2.68,0,0,0,1.11.39,4.73,4.73,0,0,0,.92-.39,1.85,1.85,0,0,0,.66-.51.86.86,0,0,0,.15-.4A.68.68,0,0,0,27.8,15c-.36-.46-.37-.22-.68-.24l-.45,0c-.14,0-.44.06-.71.06A1.86,1.86,0,0,0,25.27,14.85Z"/><path class="cls-1" d="M29.13,17.13a1.56,1.56,0,0,0,.53.62,2.69,2.69,0,0,0,.91.43,2.2,2.2,0,0,0,.7,0,1,1,0,0,0,.46-.17c.15-.11.07-.68-.4-1.41-.76-1.17-1.41-1.16-1.72-1.19s-.49.07-.54.17C28.48,16.93,29,16.79,29.13,17.13Z"/><path class="cls-1" d="M21.23,17.47c.17-.25.53-.37.85-.67s.31-.45.45-.57c.47-.4,1.26-.23,1.17.28s.12,1.07-.4,1.68A2,2,0,0,1,22,19a1.19,1.19,0,0,1-1-.17C20.8,18.52,20.68,18.26,21.23,17.47Z"/><path class="cls-1" d="M31.68,21.63a1.37,1.37,0,0,1-.32-1.2,3.89,3.89,0,0,1,.42-1.15c.34-.38.76-.57,1.06-.21a8.06,8.06,0,0,1,.58,1.35c.57,1.11.16,1.32.07,1.61C33.16,23.06,32.71,23.06,31.68,21.63Z"/><path class="cls-1" d="M.57,7.13a4,4,0,0,1,.13.46c0,.12,0,.2,0,.3s0,.09.08.2A2.49,2.49,0,0,1,1,8.68a1.9,1.9,0,0,1-.18.66c-.16.44-.39.86-.48,1.06s-.19.37-.09.54.32.46.39.6a.82.82,0,0,1,.07.76c-.15.42-.37.74-.25,1s.35.17.44.17a1.09,1.09,0,0,0,.75,0,1.69,1.69,0,0,0,.3,0,2.9,2.9,0,0,0,.51,0c.1,0,.11,0,.11,0l.2.06c.06,0,.14,0,0-.24a1.69,1.69,0,0,0-.36-.55,1,1,0,0,1-.31-.35A3.38,3.38,0,0,1,2,11.81a2.4,2.4,0,0,1,.17-.68c.08-.2.18-.52.26-.72l.22-.5a3.48,3.48,0,0,1,0,.89,2.41,2.41,0,0,0-.08.79c0,.15.16.24.32.36a4.48,4.48,0,0,1,.66.62.73.73,0,0,1,.06.51,3.68,3.68,0,0,0-.13.49c0,.09,0,.25.3.22.12,0,.36,0,.36,0s.69.29,1.07,0c.14,0,.59.12.71,0s.1-.12.09-.18a2.76,2.76,0,0,0-.18-.4c0-.08,0-.11-.24-.16a.9.9,0,0,1-.38-.17A1.37,1.37,0,0,1,5,12.49c-.08-.23-.2-.47-.24-.58a3.45,3.45,0,0,1-.07-.72c0-.11.08-.6.12-.89a3.63,3.63,0,0,1,.12-.85,1.68,1.68,0,0,1,.61-.71A1.06,1.06,0,0,0,6,8.19,4.73,4.73,0,0,0,7.78,9.81a8.31,8.31,0,0,0,4,.41,10.45,10.45,0,0,0,2.3-.47,13.31,13.31,0,0,0,.82,1.15.35.35,0,0,1,0,.16.15.15,0,0,0-.11.12c-.12-.06-.23-.08-.29,0a.68.68,0,0,0-.35-.17c-.09,0-.69.62-.78.72a.7.7,0,0,0-.17.51,2.45,2.45,0,0,0,.17.49.75.75,0,0,1,.19,0,.43.43,0,0,0,0,.47c.13.21.34.36.48.34a.71.71,0,0,0,.37-.2,6.66,6.66,0,0,1,.59-.54,2.21,2.21,0,0,0,.33-.23,1.8,1.8,0,0,0,.27,0,.84.84,0,0,1,0,.1,1.18,1.18,0,0,0-.21.24,1,1,0,0,0-.15.59c.05.11,0,.21.47.23a3,3,0,0,0,.75,0,2.44,2.44,0,0,0,.72.13,1.1,1.1,0,0,0,.47-.08s0-.13,0-.13a.81.81,0,0,0,.22,0c.06,0,.13-.05.1-.12a2.47,2.47,0,0,1-.16-.26.34.34,0,0,0-.22-.23,2.55,2.55,0,0,1-.42-.23,1.18,1.18,0,0,1-.32-.68c0-.09,0-.25.06-.4a5.81,5.81,0,0,1,.52-1.41,8.62,8.62,0,0,1,.74-.84.3.3,0,0,0,.45-.16c.06,0,.3,0,.34-.05s.18.26.37.2.47-.18.51-.27.09-.24.09-.24L20,8.79a3.34,3.34,0,0,1,.18.32.81.81,0,0,0,.44.64c.1.12,1.52,1.48,1.61,1.6a.78.78,0,0,0,.53.31.49.49,0,0,0,.65.2,3.84,3.84,0,0,1,.81-.12s.45,0,.53-.27a2,2,0,0,1,.21-.39c.08-.16.11-.28.07-.34s.3-.61.3-.68a4.75,4.75,0,0,0,1.2-1,3.11,3.11,0,0,0,.77-1.26,3.2,3.2,0,0,0,.05-.74c0-.09-.12-.36-.37,0a6.21,6.21,0,0,1-1.78,1,1.07,1.07,0,0,1-.46.06l-.05-.12h0a1.53,1.53,0,0,1,.46-.17c.33-.09.61-.35.25-.39s-1,0-1,0a5.32,5.32,0,0,0-.56-.68,3.83,3.83,0,0,1-.66-.82A2.39,2.39,0,0,1,23,4.72a2.9,2.9,0,0,0-.11-.91.46.46,0,0,1,.19,0c.14,0,.45,0,.72-.62.11-.15.28-.64.36-.71a.72.72,0,0,0,.14-.25.23.23,0,0,0-.14,0c-.07,0-.37.26-.55.34s-.79.29-.85.35,0-.27-.14-.31a.93.93,0,0,0-.29,0c-.12,0-.21-.09-.2,0a.27.27,0,0,1-.08.26.3.3,0,0,0-.09.16.34.34,0,0,1-.16,0c-.06,0-.11-.24-.19-.29a3.4,3.4,0,0,0-.33-.09.28.28,0,0,1-.11-.15,2.5,2.5,0,0,0-.53-1,3.14,3.14,0,0,0-1.4-.7c-.49-.07-.79,0-1.1,0L16.77.45a4,4,0,0,0-1.85.17,2.52,2.52,0,0,1-.79.26A7.22,7.22,0,0,1,11.52.66,18.59,18.59,0,0,1,9,.05,2.38,2.38,0,0,0,7.83.13a11.82,11.82,0,0,1-2,.64C5.14.88,4.44.88,4.27.91a3.39,3.39,0,0,0-1.16.51A5.11,5.11,0,0,0,1,3.45,5.42,5.42,0,0,0,.4,5.53c0,.11,0,.33,0,.33a2.92,2.92,0,0,1-.11.56C.22,6.66.08,6.87,0,7s-.09.31.07.42.19.17.18.22-.12.08,0,.26a1.06,1.06,0,0,1,.22.34s.2-.13.11-.45S.48,7.44.3,7.35s-.08-.06-.06-.1.1-.16.18-.33A2.55,2.55,0,0,0,.5,6.67S.55,7.05.57,7.13Z"/><path class="cls-1" d="M20.29,19.91A2.39,2.39,0,0,0,20,21c0,.22.22.51.27.82.12.69.58,1.47.79,2.79a3.87,3.87,0,0,0,3.77,2.94c1,0,2,.64,3.07.23a10.43,10.43,0,0,0,3-1.38c.4-.33.87-.46,1.2-.76A2.53,2.53,0,0,0,32.85,24c0-.3.13-.36,0-.51s0-.19-.38-.35l-.58-.3-.69-.48c-.21-.16-.11-.15-.25-.39s-.15-.31-.22-.46c0,0,0-.08,0-.08a3.52,3.52,0,0,1-.12-.69c0-.08,0-.5.09-.69a5.82,5.82,0,0,0,.3-.89.23.23,0,0,0-.12-.25s-.33-.05-.43-.08l-.26-.07a2.21,2.21,0,0,1-.39-.12c-.08-.05-.15-.06-.24-.11s.18,0-.35-.25a.46.46,0,0,1-.25-.25c-.11-.26-.35-.42-.5-.66a1.86,1.86,0,0,0-.1-.2c-.06-.13-.1-.13-.26-.18s-.31-.12-.43,0a2.67,2.67,0,0,1-.83.4,1.91,1.91,0,0,1-.6.05l-.52-.07-.65-.19-.3-.11s0-.06-.1,0c-.32.11-.06.14-.16.42l-.12.36s-.42.43-.57.62-.19.49-.38.69-.13.22-.25.29a3.39,3.39,0,0,1-.46.21,3.06,3.06,0,0,1-.8,0,3.17,3.17,0,0,1-.44,0L21,19.58S20.42,19.54,20.29,19.91Z"/></g></g></svg>