<svg xmlns="http://www.w3.org/2000/svg" viewBox="0 0 36 18.3"><defs><style>.cls-1{fill:#1a2026;}</style></defs><title>Rhino Birth</title><g id="Layer_2" data-name="Layer 2"><g id="Layer_1-2" data-name="Layer 1"><path class="cls-1" d="M6.71,13.38c0,.16.09.25.1.34a1.47,1.47,0,0,0,0,.21c0,.07,0,.07.06.15A1.64,1.64,0,0,1,7,14.5a1.42,1.42,0,0,1-.13.48,8,8,0,0,1-.35.77c-.06.14-.14.27-.06.39s.23.33.27.43a.61.61,0,0,1,.06.56c-.11.3-.27.53-.19.69a.3.3,0,0,0,.32.12.77.77,0,0,0,.55,0,.83.83,0,0,0,.21,0,2.6,2.6,0,0,0,.37,0c.07,0,.08,0,.08,0L8.3,18s.1,0,0-.18a1.32,1.32,0,0,0-.26-.4.82.82,0,0,1-.23-.25,2.68,2.68,0,0,1,0-.42,1.51,1.51,0,0,1,.12-.49c.06-.15.13-.38.19-.52s.16-.37.16-.37a2.15,2.15,0,0,1,0,.65,1.75,1.75,0,0,0-.05.57c0,.11.11.17.23.26a3.58,3.58,0,0,1,.48.45.58.58,0,0,1,.05.37,1.64,1.64,0,0,0-.1.35c0,.07,0,.18.21.16a2.28,2.28,0,0,0,.27,0s.5.22.77,0c.1,0,.43.09.52,0s.07-.08.06-.12a1.45,1.45,0,0,0-.13-.29c0-.06,0-.08-.17-.12a.68.68,0,0,1-.28-.12,1,1,0,0,1-.18-.33c-.06-.17-.14-.34-.17-.42a3,3,0,0,1-.06-.52l.09-.64a2.8,2.8,0,0,1,.09-.62,1.21,1.21,0,0,1,.44-.51.77.77,0,0,0,.33-.4,3.4,3.4,0,0,0,1.32,1.17,6,6,0,0,0,2.9.3,7.7,7.7,0,0,0,1.67-.34,9.6,9.6,0,0,0,.59.83.35.35,0,0,1,0,.12.1.1,0,0,0-.08.08c-.09,0-.17,0-.21,0a.48.48,0,0,0-.26-.12,3.75,3.75,0,0,0-.56.52.45.45,0,0,0-.12.37,1.18,1.18,0,0,0,.12.35.46.46,0,0,1,.14,0,.31.31,0,0,0,0,.34c.1.15.25.26.35.25a.52.52,0,0,0,.27-.15c.07-.06.29-.3.42-.39l.24-.16s.16,0,.2,0l0,.07a1.18,1.18,0,0,0-.16.18.7.7,0,0,0-.1.43c0,.08,0,.15.34.16a1.88,1.88,0,0,0,.54,0,1.47,1.47,0,0,0,.52.09,1.12,1.12,0,0,0,.34-.05s0-.1,0-.1a.51.51,0,0,0,.16,0s.1,0,.07-.08-.08-.11-.11-.19A.25.25,0,0,0,19,17.6a1.72,1.72,0,0,1-.31-.16,1,1,0,0,1-.23-.5,2.11,2.11,0,0,1,.05-.28,4,4,0,0,1,.37-1,6,6,0,0,1,.53-.61c.08,0,.22.1.33-.12,0,0,.22,0,.25,0a.24.24,0,0,0,.27.15c.13,0,.34-.13.37-.19a1.73,1.73,0,0,0,.06-.18l.09-.06.14.22a.55.55,0,0,0,.31.47c.08.08,1.11,1.07,1.17,1.16a.53.53,0,0,0,.38.22.37.37,0,0,0,.48.15,2.57,2.57,0,0,1,.58-.09s.32,0,.38-.2a2.37,2.37,0,0,1,.15-.28c.06-.11.09-.2.06-.25s.21-.44.21-.49a3.24,3.24,0,0,0,.87-.7,2.22,2.22,0,0,0,.56-.91,5.13,5.13,0,0,0,0-.54c0-.06-.09-.26-.27,0a4.64,4.64,0,0,1-1.29.69,1,1,0,0,1-.33.05l0-.09h0a1.13,1.13,0,0,1,.33-.13c.24-.06.44-.25.18-.28s-.72,0-.72,0a2.53,2.53,0,0,0-.4-.49,2.58,2.58,0,0,1-.47-.6,1.56,1.56,0,0,1-.19-.8,2.44,2.44,0,0,0-.08-.66L23,11c.11,0,.33,0,.52-.45.08-.11.21-.46.26-.52a.46.46,0,0,0,.1-.17.14.14,0,0,0-.1,0c-.05,0-.26.19-.39.25s-.58.21-.62.25,0-.19-.1-.22-.12,0-.21,0-.15-.06-.14,0a.21.21,0,0,1-.06.19.24.24,0,0,0-.07.11.22.22,0,0,1-.11,0s-.08-.17-.14-.21-.21,0-.24-.06a.18.18,0,0,1-.08-.11,1.85,1.85,0,0,0-.38-.75,2.2,2.2,0,0,0-1-.51c-.36-.05-.57,0-.8,0l-1-.1a3.11,3.11,0,0,0-1.34.13,1.91,1.91,0,0,1-.57.19,5.37,5.37,0,0,1-1.89-.16,15.81,15.81,0,0,1-1.8-.44,1.65,1.65,0,0,0-.87.06,9.7,9.7,0,0,1-1.43.46c-.52.08-1,.08-1.15.1a2.46,2.46,0,0,0-.84.37A3.73,3.73,0,0,0,7,10.72a4.13,4.13,0,0,0-.45,1.5c0,.08,0,.25,0,.25a2.38,2.38,0,0,1-.07.4c0,.17-.15.33-.18.44s-.07.22,0,.3.14.13.13.16-.09.06,0,.19a.92.92,0,0,1,.16.24s.14-.08.08-.32a.44.44,0,0,0-.26-.34s-.06,0,0-.07.08-.12.13-.24a.93.93,0,0,0,.06-.18S6.7,13.33,6.71,13.38Z"/><path class="cls-1" d="M36,9.31c0-.12-.16-.47-.49-.06a8.28,8.28,0,0,1-2.34,1.27,1.69,1.69,0,0,1-.6.07l-.07-.16h0a2.23,2.23,0,0,1,.61-.23c.43-.11.79-.45.32-.51s-1.3,0-1.3,0a5.87,5.87,0,0,0-.73-.89,4.49,4.49,0,0,1-.86-1.08,3,3,0,0,1-.35-1.45A3.8,3.8,0,0,0,30,5a.53.53,0,0,1,.25,0c.19,0,.6,0,.95-.82.14-.2.37-.83.47-.93a.9.9,0,0,0,.18-.33.3.3,0,0,0-.18,0c-.09,0-.48.35-.71.46s-1,.38-1.13.45,0-.34-.18-.41a1.59,1.59,0,0,0-.38-.06c-.16,0-.28-.12-.26,0a.38.38,0,0,1-.11.35.41.41,0,0,0-.11.21.43.43,0,0,1-.22-.06c-.07,0-.14-.31-.24-.38s-.38-.07-.44-.12a.28.28,0,0,1-.14-.19,3.33,3.33,0,0,0-.7-1.36A4,4,0,0,0,25.24.82,13.73,13.73,0,0,0,23.79.76L22,.59a5.16,5.16,0,0,0-2.43.23,3.39,3.39,0,0,1-1.05.34A10,10,0,0,1,15.14.87a25.34,25.34,0,0,1-3.26-.8,3,3,0,0,0-1.59.11A15.44,15.44,0,0,1,7.69,1c-.94.15-1.86.15-2.08.18a4.83,4.83,0,0,0-1.53.68A6.77,6.77,0,0,0,1.35,4.53,7.49,7.49,0,0,0,.52,7.27c0,.14,0,.44,0,.44a3.94,3.94,0,0,1-.14.73c-.08.31-.26.59-.32.8s-.11.4.09.55.26.23.24.28-.16.11,0,.35a1.7,1.7,0,0,1,.3.44s.25-.16.14-.58A.78.78,0,0,0,.4,9.66c-.06,0-.11-.08-.09-.14s.14-.21.24-.42a2.08,2.08,0,0,0,.1-.34s.07.51.1.61c.07.29.16.45.17.6s0,.26,0,.39,0,.12.11.28a3.18,3.18,0,0,1,.27.76,2.76,2.76,0,0,1-.23.87c-.21.58-.51,1.14-.63,1.4s-.26.48-.12.7.42.61.5.79a1.08,1.08,0,0,1,.1,1c-.19.55-.48,1-.33,1.25s.46.22.58.22a1.41,1.41,0,0,0,1,0,1.24,1.24,0,0,0,.38,0,4.38,4.38,0,0,0,.68.08c.13,0,.14-.07.14-.07a2.16,2.16,0,0,0,.26.08c.08,0,.19,0,0-.31a2.21,2.21,0,0,0-.48-.73,1.33,1.33,0,0,1-.41-.46,5.6,5.6,0,0,1-.1-.76,3,3,0,0,1,.23-.89c.11-.27.23-.69.34-1L3.54,13a4.87,4.87,0,0,1-.06,1.17,3.16,3.16,0,0,0-.1,1c.05.19.2.31.42.47a5.72,5.72,0,0,1,.86.81,1,1,0,0,1,.09.67,4.21,4.21,0,0,0-.18.64c0,.12,0,.34.39.3h.48l.27.08A1.48,1.48,0,0,1,5.79,17l0,0-.08-.12-.09-.14a1.32,1.32,0,0,1,0-1.34l.07-.15v-.68a1.29,1.29,0,0,1-.18-.35,1.26,1.26,0,0,1-.16-1.1,1.69,1.69,0,0,1,.14-.35s0-.07,0-.11a.71.71,0,0,0,0-.2c0-.06,0-.16,0-.22a5,5,0,0,1,.59-2A4.76,4.76,0,0,1,8.06,8.38a3.37,3.37,0,0,1,1.18-.49l.32,0a7.69,7.69,0,0,0,.82-.08,6.66,6.66,0,0,0,1.09-.35l.15-.06a2.82,2.82,0,0,1,.92-.16,2.08,2.08,0,0,1,.58.08h.07a14,14,0,0,0,1.69.41,5.14,5.14,0,0,0,1.17.15h.38l.09,0,.23-.09A3.37,3.37,0,0,1,18,7.52a5.07,5.07,0,0,1,.55,0l.61.06.34,0h.32a4.22,4.22,0,0,1,.52,0,3.24,3.24,0,0,1,1.53.75,1.87,1.87,0,0,1,.43.58.85.85,0,0,1,.32.05,1.07,1.07,0,0,1,.34.07l.06,0a1.21,1.21,0,0,1,.52-.26l.13,0h.11a1.23,1.23,0,0,1,.52.12l.77.39-.27.82a1.6,1.6,0,0,1-.23.45l0,.07a2.53,2.53,0,0,1-.16.33,2.08,2.08,0,0,1-.46.63h0A.66.66,0,0,0,24,12a.63.63,0,0,0,.16.2l.14.16a.59.59,0,0,0,.14-.19c.08,0,.39,0,.45-.07a.43.43,0,0,0,.48.26,1.48,1.48,0,0,0,.68-.34,2.8,2.8,0,0,0,.1-.33l.17-.11a4.62,4.62,0,0,1,.25.42,1,1,0,0,0,.58.84c.13.15,2,1.95,2.1,2.1a1,1,0,0,0,.71.41.64.64,0,0,0,.86.26,5.16,5.16,0,0,1,1.05-.16s.59,0,.7-.35a2.53,2.53,0,0,1,.28-.52c.1-.2.15-.35.09-.44s.39-.8.39-.89a6,6,0,0,0,1.58-1.28,4.27,4.27,0,0,0,1-1.65A5.91,5.91,0,0,0,36,9.31Z"/><path class="cls-1" d="M23.45,17.82a.23.23,0,0,0,.12-.06,1.57,1.57,0,0,1-.3,0A.28.28,0,0,0,23.45,17.82Z"/><path class="cls-1" d="M22.27,17.54a1.48,1.48,0,0,1-.63-.47c-.1-.11-.38-.38-.63-.62l-.38-.38L20.52,16a1.53,1.53,0,0,1-.3,0A1.09,1.09,0,0,1,20,16l-.08,0-.15.18a4,4,0,0,0-.2.54.54.54,0,0,1,.12.09l.12-.09a4.11,4.11,0,0,0,.44-.3s.28,0,.35-.05a.36.36,0,0,1,0,.13,1.7,1.7,0,0,0-.28.33,1.5,1.5,0,0,0-.17.44s0,0,0,0a1.17,1.17,0,0,1,.14.24l.13.33a2.17,2.17,0,0,0,.32,0,4.36,4.36,0,0,0,1,0,3.09,3.09,0,0,0,.94.16,1.46,1.46,0,0,0,.62-.1s0-.09,0-.13l-.09,0A1.27,1.27,0,0,1,22.27,17.54Z"/><path class="cls-1" d="M23.19,17.83l.08,0-.1,0Z"/></g></g></svg>