<svg xmlns="http://www.w3.org/2000/svg" viewBox="0 0 40 22.11"><defs><style>.cls-1{fill:#1a2026;}</style></defs><title>Road Banditry</title><g id="Layer_2" data-name="Layer 2"><g id="Layer_1-2" data-name="Layer 1"><path class="cls-1" d="M26.1,13.57A13.85,13.85,0,0,0,20.27,12L15.65,8.31A3.07,3.07,0,0,0,13,7.43c-.05,0-5.53-.09-6.5.42-1.53.81-3.55,3.26-4.6,4H.47c-1.15,3.41.1,6.44.72,7,.65.24,1.14.51,1.66.65a3.71,3.71,0,0,0,6.8.59,30.44,30.44,0,0,0,4.61.34c1,0,1.31,0,2.27-.09a3.7,3.7,0,0,0,3.13,1.72,3.74,3.74,0,0,0,3.42-2.23,8,8,0,0,0,2.59-.75A21.67,21.67,0,0,0,26.1,13.57ZM6.38,20.46A1.63,1.63,0,1,1,8,18.83,1.63,1.63,0,0,1,6.38,20.46Zm-.5-8.18-.1-.9L7.22,9.7a15.2,15.2,0,0,1,2.34-.14l.49,2.72Zm10.31,0H11.83l-.6-2.75c.75,0,1.39-.07,1.67-.07a2.34,2.34,0,0,1,1.88.63c.29.23,1.07.83,1.78,1.44Zm3.47,8.18a1.63,1.63,0,1,1,1.63-1.63A1.63,1.63,0,0,1,19.66,20.46ZM35.12,0a2.25,2.25,0,1,1-2.25,2.25A2.25,2.25,0,0,1,35.12,0Zm2.82,4.88h-9V4.13l-.37-.38H23.13V3.38h-.38v.37h-.37V4.88h4.26l.62.62a1.13,1.13,0,0,0-.06.32.94.94,0,0,0,.94.94h4.17a.18.18,0,0,1,.18.16h0V21a1.13,1.13,0,0,0,2.26,0V14.43a.37.37,0,0,1,.37-.37.38.38,0,0,1,.38.37V21a1.13,1.13,0,0,0,2.25,0V7.76a.19.19,0,1,1,.37,0v4.17a.94.94,0,0,0,1.88,0v-5A2.06,2.06,0,0,0,37.94,4.88Zm-10.55.37L27,4.88h.75V5a1,1,0,0,0-.38.29Z"/></g></g></svg>