<svg xmlns="http://www.w3.org/2000/svg" viewBox="0 0 32.98 22.22"><defs><style>.cls-1{fill:#1a2026;}</style></defs><title>Robbery/Theft</title><g id="Layer_2" data-name="Layer 2"><g id="Layer_1-2" data-name="Layer 1"><circle class="cls-1" cx="12.75" cy="2.25" r="2.25"/><path class="cls-1" d="M15.56,4.88h-9V4.13l-.38-.38H.75V3.38H.38v.37H0V4.88H4.26l.62.62a1.13,1.13,0,0,0,0,.32.94.94,0,0,0,.93.94H9.93a.18.18,0,0,1,.18.16h0V21a1.13,1.13,0,0,0,2.25,0V14.43a.38.38,0,0,1,.75,0V21a1.13,1.13,0,0,0,2.25,0V7.76a.19.19,0,0,1,.38,0v4.17a.94.94,0,0,0,1.87,0v-5A2.06,2.06,0,0,0,15.56,4.88Z"/><path class="cls-1" d="M5,5.25l-.37-.37h.75V5A.89.89,0,0,0,5,5.25Z"/><path class="cls-1" d="M25.74,10.39A2.16,2.16,0,0,1,24,9.4l-.66-1.19c-.3-.54,0-1,.59-1h.25a3.05,3.05,0,0,1,1.72.51,1.1,1.1,0,0,0,1.27,0A3.66,3.66,0,0,1,29,7.22h.38c.63,0,.85.41.48.93L29,9.47a2.51,2.51,0,0,1-1.81.92Z"/><path class="cls-1" d="M32.29,14.91l-1-1.32a5.15,5.15,0,0,0-1.76-1.35l-.3-.13a6.89,6.89,0,0,0-2.2-.44H25.74a5.08,5.08,0,0,0-2.13.57l-.32.19a6.77,6.77,0,0,0-1.67,1.49l-.92,1.21a3.42,3.42,0,0,0-.56,2.06l.11.9A3.73,3.73,0,0,0,21.19,20l1.44,1.4a3.23,3.23,0,0,0,2,.8h4.2a2.82,2.82,0,0,0,1.88-.88l1.57-1.86a3.62,3.62,0,0,0,.74-2V17A4,4,0,0,0,32.29,14.91Z"/></g></g></svg>