<svg xmlns="http://www.w3.org/2000/svg" viewBox="0 0 30.9 32"><path d="M8,21.6a.8.8,0,0,0,.4,1.1.7.7,0,0,0,.4.8.8.8,0,0,0,.8-.2A5.9,5.9,0,0,0,9.8,22c.2.2.5.1.7,0s.5.1.8.2h.2c.2,0,.4,0,.5-.2s.8,0,1,.3a2,2,0,0,0-.4,1.8,2.1,2.1,0,0,0,1,1.4,3.2,3.2,0,0,1-.6-1.5.9.9,0,0,1,.1-.5,4.2,4.2,0,0,1,.7-1.3H14a2.6,2.6,0,0,0,0,2.1,2.1,2.1,0,0,0,1.9,1.1c-.5-.4-1.1-.5-1.3-1s-.1-.3-.2-.5a9.2,9.2,0,0,1,.1-1.6l.6.2A2.1,2.1,0,0,0,17,25.6a2.6,2.6,0,0,1-1.3-1c0-.2-.1-.3-.1-.4a3.8,3.8,0,0,1,0-1.5h.6a3.5,3.5,0,0,0,1.7,2.5,4.3,4.3,0,0,0,2.9.8,4.4,4.4,0,0,0,1.5-.5,1.7,1.7,0,0,0,.7-1.3,2.4,2.4,0,0,1-2.3.9l1.8-.7a.7.7,0,0,0,.4-.6H19.2a2.9,2.9,0,0,1-1-.3,1.3,1.3,0,0,1-.7-.8,5.2,5.2,0,0,0,2.2-.7l.3-.2h0l.3-.4a.8.8,0,0,0,0-.7l-.2-.3h0l-.5-.3-1-.4-1-.2a.8.8,0,0,1,.5-.7,1.7,1.7,0,0,1,1-.3,24.1,24.1,0,0,1,3.8-.1.7.7,0,0,0-.4-.5,5.6,5.6,0,0,0-1.8-.7,2.3,2.3,0,0,1,2.3.9,1.6,1.6,0,0,0-.8-1.4,3.8,3.8,0,0,0-1.5-.5,4.4,4.4,0,0,0-2.9.8,4.2,4.2,0,0,0-1.6,2.5h-.6a7.5,7.5,0,0,1,0-1.5.9.9,0,0,1,.1-.5l.3-.2,1-.7a1.9,1.9,0,0,0-1.7,1,2,2,0,0,0-.2,2h-.6a2.9,2.9,0,0,1,0-1.6c0-.2,0-.3.1-.4a2.2,2.2,0,0,1,1.3-1,2.3,2.3,0,0,0-1.9,1,2,2,0,0,0,0,2.1c-.1.1-.3,0-.4-.1l-.5-1a4.3,4.3,0,0,1-.1-.5,2.1,2.1,0,0,1,.7-1.6,2.1,2.1,0,0,0-1.1,1.5,1.8,1.8,0,0,0,.4,1.7c-.2.3-.8,0-1,.3s-.2-.2-.4-.1h-.4c-.2,0-.6-.1-.7.2a.6.6,0,0,0-.7-.1,1.9,1.9,0,0,0-.1-.8.8.8,0,0,0-.5-.7.7.7,0,0,0-.8.8A.8.8,0,0,0,8,20.6.9.9,0,0,0,8,21.6Z"/><path d="M29.4,10.3H7.9l22-8.1A1.1,1.1,0,0,0,30.6.8,1.2,1.2,0,0,0,29.1.1L1.1,10.3l-.3.2A1.4,1.4,0,0,0,0,11.8V30.5A1.5,1.5,0,0,0,1.5,32H29.4a1.5,1.5,0,0,0,1.5-1.5V11.8A1.5,1.5,0,0,0,29.4,10.3ZM6.3,11.8h8.4v1.6H6.3ZM4.8,30.5H1.5V28.9H4.8Zm0-3.2H1.5V24.2H4.8Zm0-4.6H1.5V19.6H4.8Zm0-4.6H1.5V15H4.8Zm0-4.7H1.5V11.8H4.8Zm9.9,17.1H6.3V28.9h8.4Zm10,0H16.3V28.9h8.4Zm0-3.2H6.3V15H24.7Zm0-13.9H16.3V11.8h8.4Zm4.7,17.1H26.2V28.9h3.2Zm0-3.2H26.2V24.2h3.2Zm0-4.6H26.2V19.6h3.2Zm0-4.6H26.2V15h3.2Zm0-4.7H26.2V11.8h3.2Z"/></svg>
