<svg xmlns="http://www.w3.org/2000/svg" viewBox="0 0 40 40"><path d="M4.9,23.7l1-7.5a1.6,1.6,0,0,0-1.2-1.7l-2.1-.3A1.4,1.4,0,0,0,1,15.4L0,23a1.4,1.4,0,0,0,1.2,1.6l2.1.3A1.4,1.4,0,0,0,4.9,23.7Z"/><path d="M5.9,26.9,3,36.3a1.8,1.8,0,0,0,1.2,2.3,1.7,1.7,0,0,0,2.2-1.2l2.4-7.8L6.6,27.7Z"/><path d="M10.8,13.2a3,3,0,0,0,0-5.9,3,3,0,1,0,0,5.9Z"/><path d="M15.6,26l2.1.3A1.4,1.4,0,0,0,19.2,25l1.1-7.5a1.6,1.6,0,0,0-1.2-1.7L17,15.5a1.4,1.4,0,0,0-1.6,1.2l-.3,2.4h-.9l-3-3.9a2.1,2.1,0,0,0-1.5-.9A2.4,2.4,0,0,0,7,16.4L6,23.6a3.6,3.6,0,0,0,1.2,3.6l3.7,3.3.5,6.5a1.7,1.7,0,0,0,1.8,1.7,2,2,0,0,0,1.7-2l-.5-6.9a3.1,3.1,0,0,0-.9-1.8l-2.3-2a1.3,1.3,0,0,1-.5-1.4l.6-4.4.9,1.3a1.6,1.6,0,0,0,1.2.6h1.3l-.3,2.1A1.5,1.5,0,0,0,15.6,26Z"/><path d="M20.3,28.2l-2.9,9.4a1.8,1.8,0,0,0,1.2,2.3,1.7,1.7,0,0,0,2.2-1.2L23.2,31,21,29A2.7,2.7,0,0,1,20.3,28.2Z"/><path d="M32.6,20.6l-4.1-.2-2.9-3.9a2.3,2.3,0,0,0-4.2,1.2l-1,7.2a3.6,3.6,0,0,0,1.2,3.6l3.7,3.3.4,6.5A1.9,1.9,0,0,0,27.6,40a1.8,1.8,0,0,0,1.6-2l-.4-6.8a3.1,3.1,0,0,0-.9-1.9l-2.3-2a1.3,1.3,0,0,1-.5-1.4l.6-4.4.9,1.3a2.1,2.1,0,0,0,1.2.7h4.7A1.5,1.5,0,0,0,34,22.1,1.5,1.5,0,0,0,32.6,20.6Z"/><path d="M25.2,14.5a3,3,0,0,0,0-5.9,3,3,0,1,0,0,5.9Z"/><path d="M39.7,1.9A2.6,2.6,0,0,0,39,.8,3.4,3.4,0,0,0,37.8.2l-2-.2H32.9a1.6,1.6,0,0,0-1.1.3,1.2,1.2,0,0,0-.4,1.1v8.7a1.7,1.7,0,0,0,.3,1,1.4,1.4,0,0,0,.9.3,1.1,1.1,0,0,0,.8-.3,1.8,1.8,0,0,0,.3-1.1V6.9h2.1A4.6,4.6,0,0,0,38.9,6,3.3,3.3,0,0,0,40,3.4,3.7,3.7,0,0,0,39.7,1.9ZM37.4,4.4a1.6,1.6,0,0,1-.8.6H33.7V1.7h1.5a3.4,3.4,0,0,1,2.1.5,2.1,2.1,0,0,1,.4,1.2A1.5,1.5,0,0,1,37.4,4.4Z"/></svg>
