<svg xmlns="http://www.w3.org/2000/svg" viewBox="0 0 40 36.29">
    <path d="M39.92,25c.34-.51-.51-1.36-1-.68-2.88,3.55-5.76,3.05-8.8,0-.17-.34-.51-.34-.85,0a20.84,20.84,0,0,1-1.92,1.61,4.94,4.94,0,0,1-.15-.55L27.12,25a46,46,0,0,1-1.26-9.9.69.69,0,0,0-.67-.71c-.17,0-3.38.38-8,6.73A34.81,34.81,0,0,0,14,26.08a4,4,0,0,0-.19.43,10.75,10.75,0,0,1-3.18-2.18.35.35,0,0,0-.68,0c-3,3.05-6.09,3.55-9,0A.54.54,0,1,0,.16,25c3.21,3.89,6.6,3.89,10.15.51a9.74,9.74,0,0,0,3,2c-.34.84-.51,1.69-.85,2.53-.51-.33-1.18-1-1.86-1.52a.35.35,0,0,0-.68,0c-3,3.05-6.09,3.55-9,0a.54.54,0,1,0-.84.68c3.21,3.89,6.6,3.72,10.15.51,3.16,3,6.49,3.52,9.5.16l.42.11c3.29,3.39,6.57,2.53,9.54-.27,3.38,3.21,6.94,3.38,10.15-.51.34-.51-.51-1.36-1-.68-2.88,3.55-5.76,3.05-8.8,0-.17-.34-.51-.34-.85,0l-.05.05A4.27,4.27,0,0,1,27.76,27a19.87,19.87,0,0,0,2-1.46C33.15,28.9,36.71,28.9,39.92,25Z"/>
    <path d="M38.91,32.62c-2.88,3.56-5.76,3.05-8.8,0-.17-.34-.51-.34-.85,0-3,3.05-5.92,3.56-8.8,0a.47.47,0,0,0-.84,0c-2.88,3.56-5.93,3.05-9,0a.35.35,0,0,0-.68,0c-3,3.05-6.09,3.56-9,0a.54.54,0,1,0-.84.68c3.21,3.89,6.6,3.89,10.15.51,3.21,3,6.6,3.55,9.64,0,3.22,3.55,6.6,3,9.82,0,3.38,3.38,6.94,3.38,10.15-.51C40.26,32.79,39.41,32,38.91,32.62Z"/>
    <path d="M25.66,10.74a4.18,4.18,0,0,0,4.07-3.66,2.12,2.12,0,0,0,1,.29,1.93,1.93,0,0,0,1-.29,4.12,4.12,0,1,0,7-3.46l-.31-.28L36.87,2a4.09,4.09,0,0,0-2.08-.75L33.93.39a1.49,1.49,0,0,0-1-.39,1.52,1.52,0,0,0-1.42,1.05,1.56,1.56,0,0,0-.66-.21h-.11a1.41,1.41,0,0,0-.73.21A1.46,1.46,0,0,0,28.6,0a1.48,1.48,0,0,0-1,.39l-.86.88a4.09,4.09,0,0,0-2.08.75L23.11,3.37l-.32.28a4.13,4.13,0,0,0,2.87,7.09Zm9.6-6.9.35,0,.27,0a2.81,2.81,0,1,1-.62.07Zm-4.5.53a.92.92,0,1,1-.92.92A.92.92,0,0,1,30.76,4.37Zm-5.12-.6a1.23,1.23,0,0,1,.27,0l.35,0a2.81,2.81,0,1,1-.62-.07Z"/>
</svg>