<svg xmlns="http://www.w3.org/2000/svg" viewBox="0 0 32 25"><path d="M.6,3.8,1.7,2.6a3.7,3.7,0,0,1,.5-1.1c.1-.2.4-.6.6-.6A1,1,0,0,1,3.6.4a.9.9,0,0,1,1-.3H5.7c.3,0,.9.2,1,.5a1.3,1.3,0,0,1,.9.5,2,2,0,0,1,.9.6,1.2,1.2,0,0,1,.5.5c.2,0,.5.3.6.5a1.3,1.3,0,0,1,.6.4c.2,0,.5.2.5.4h.4a.9.9,0,0,1,.7.3l.3.2a1,1,0,0,1,.7-.2c.3.1.5-.1.7.2s.5-.1.9-.1.5-.1.7.2a.8.8,0,0,1,.8-.3c.4,0,.7-.1.9.2a.8.8,0,0,1,.8-.3l.5.2h.1a1.2,1.2,0,0,1,1-.4h.6l.9-.2a2,2,0,0,1,1.1.2h0l.7-.2.5.2h.5l.5-.2h1.5l.5.2h1.1a1.1,1.1,0,0,1,.7.3l.9.3c.3.2.8.5.8.8s.5.3.7.6a.8.8,0,0,1,.3.8h.1a.5.5,0,0,1,.3.5,1.3,1.3,0,0,1,.6.7,1.8,1.8,0,0,1,.4.9,1.4,1.4,0,0,1,0,1.1c-.1.5-.5.7-.7.3V11c0,.3-.1.6-.1.8a1.6,1.6,0,0,1-.3.9,1.9,1.9,0,0,1-.2.7l-.3.4a.5.5,0,0,1-.3.5,1.2,1.2,0,0,1-.1,1,1.1,1.1,0,0,1,0,.8,1.7,1.7,0,0,1,.1.7,3.1,3.1,0,0,1,.2.8c.1.4.3.5.5.8a1.1,1.1,0,0,1,.1.8,19.7,19.7,0,0,0-.4,3.4c0,.6,0,1-.3.8a.8.8,0,0,0-.2.5.6.6,0,0,1,.1.4.8.8,0,0,1-.4.6H28.4c-.4,0-.2-.4-.1-.6l.3-.6a1.9,1.9,0,0,0,.2-.7c-.1-.3.2-2.2.2-2.9a3,3,0,0,0-.2-1,2.1,2.1,0,0,0-.6-.8v.3a14,14,0,0,0-1,3.5c-.1.5-.2.9-.5.7s-.1.3-.2.5.1.3,0,.4a.9.9,0,0,1-.4.6H24.8c-.4-.1-.2-.4,0-.6l.3-.6a1.3,1.3,0,0,0,.4-.7c-.1-.3.6-2.3.6-2.9a1.7,1.7,0,0,0,0-1,2.1,2.1,0,0,0-.6-1,1,1,0,0,1-.5-.6,1,1,0,0,1-.6-.5,1,1,0,0,1-.8-.5h-.5c-.2.2-.5.2-.9.2a1.3,1.3,0,0,1-.9.1,1,1,0,0,1-.9.2,1.8,1.8,0,0,1-1,.2h-1a1.8,1.8,0,0,1-1,.1h-1c-.3,0-.6.1-.9-.1a.8.8,0,0,1-.7-.1l-.5.5a.7.7,0,0,1-.4.5v.3a36.9,36.9,0,0,0,0,4.7c.1.4.1.8-.3.6a.7.7,0,0,0-.1.5c.1.1,0,.2,0,.3s-.2.4-.4.4H11.8c-.4,0-.2-.3-.1-.5l.3-.5a4.9,4.9,0,0,0,.5-2.4c0-.9-.1-1.9-.1-2.9l-.2-.2c0,.1-.1.1-.1.2A38.5,38.5,0,0,0,12,23c0,.4,0,.8-.4.6s-.1.3-.2.5a.2.2,0,0,1,0,.3c0,.2-.2.5-.4.5H9.8c-.5-.1-.2-.4-.1-.6l.3-.5a4.2,4.2,0,0,0,.6-2.5c.1-1.1.1-2.2.1-3.3a.1.1,0,0,1-.1-.1,1,1,0,0,1-.4-.5,1,1,0,0,1-.4-.5,1.2,1.2,0,0,1-.5-.5c-.1-.1-.4-.4-.4-.6h0a1.7,1.7,0,0,1-.8-.6l-.7-.6a1,1,0,0,1-.4-.7,1.4,1.4,0,0,1-.5-.8,1,1,0,0,1-.4-.8,2.6,2.6,0,0,1-.3-.8,1.4,1.4,0,0,1-.2-.7c-.1-.1-.1-.4-.1-.6a.9.9,0,0,1-.3-.6,1.8,1.8,0,0,1-.5-.7.8.8,0,0,1-.5-.5c-.2-.1-.5-.2-.6-.5l-.4-.5-.5-.6H1.2a.8.8,0,0,1-.7-.5.7.7,0,0,1-.4-1C-.2,4.8.3,4.2.6,3.8Z"/></svg>
