<svg xmlns="http://www.w3.org/2000/svg" viewBox="0 0 32.81 35.09"><defs><style>.cls-1{fill:#1a2026;fill-rule:evenodd;}</style></defs><title>Shot Rep - Ranger</title><g id="Layer_2" data-name="Layer 2"><g id="Layer_1-2" data-name="Layer 1"><path class="cls-1" d="M24.8,1.77l-.77.7h0L22.58,3.78,17.85,8a.39.39,0,0,0-.14.39c0,.15.05.29.08.43A9.94,9.94,0,0,1,18,10.28a3.22,3.22,0,0,1-.75,2.19,3.76,3.76,0,0,1-.34.35l-.35.32-4.72,4.52a2.54,2.54,0,0,1,.33,1.17,1.81,1.81,0,0,1-.43,1.24c-.24.32-.49.64-.74.95-.08.1-.09.15,0,.25.27.55.25.69-.19,1.15-.3.3-.48.45-.67.44s-.35-.18-.6-.55a1.37,1.37,0,0,1-.13-.2,2.9,2.9,0,0,0-.19-.29.57.57,0,0,0-.94,0,2.14,2.14,0,0,0-.46,1.32c0,.29,0,.6,0,.89s0,.51,0,.76a3.31,3.31,0,0,1-.76,1.94c-.65.75-1.33,1.52-2,2.29a.73.73,0,0,1-.57.29l-.12,0A8.09,8.09,0,0,1,0,26.14c-.32-.86,1.47-2.46,1.54-2.53h0l.6-.6,3.25-3.19a2.81,2.81,0,0,0,.79-2.7A2,2,0,0,1,6.94,15c.12-.08.22-.19.33-.28l.13-.12.13-.12,0,0L7,13.87a3.69,3.69,0,0,0-1,1.18,5,5,0,0,1-.78,1l-.06.06L3.52,14.29l.07,0a8.76,8.76,0,0,1,1.08-.67,6,6,0,0,0,1.46-1,22.13,22.13,0,0,1,2.26-2A6.23,6.23,0,0,0,9.57,9.16a7.9,7.9,0,0,1,.76-1l.05-.07L12,9.94,12,10l-.15.11a3.05,3.05,0,0,1-.32.22l-.57.31a4.28,4.28,0,0,0-1.24.83l-.14.13,0,0,.53.59L22.62.9h0l.77-.69A.79.79,0,0,1,24,0a.68.68,0,0,1,.5.24l.42.45a.78.78,0,0,1,.18.55A.8.8,0,0,1,24.8,1.77ZM25,19l-7.84-3.92V24.5L25,28.42l7.84-3.92V15.09Zm7.84,7.06v5.1L25,35.09l-7.84-3.92v-5.1L25,30Z"/></g></g></svg>