<svg xmlns="http://www.w3.org/2000/svg" viewBox="0 0 26 27.87"><defs><style>.cls-1{fill:#1a2026;}</style></defs><title>Shot Report</title><g id="Layer_2" data-name="Layer 2"><g id="Layer_1-2" data-name="Layer 1"><path class="cls-1" d="M6.86,25.64l-.14-.4a15.93,15.93,0,0,1-.65-2.3,3.18,3.18,0,0,0,3.17-1.72,2.17,2.17,0,0,0-.33-2.11l1.88-.68A.38.38,0,0,0,11,18L9.89,14.9l4.43-1.61a.37.37,0,0,0,.21-.47l-.74-2a.35.35,0,0,0-.46-.21L3.8,14a.37.37,0,0,0-.22.47l.25.68c-.91.33-2.11-1-2.49-1.51a.35.35,0,0,0-.42-.13l-.68.25a.35.35,0,0,0-.22.46c.43,1.16,1.6,3,3.35,3.15C-.81,20,.52,25.29,1.37,27.63a.37.37,0,0,0,.47.22l4.8-1.75A.36.36,0,0,0,6.86,25.64ZM8.57,21c-.25.64-1.07,1.3-2.62,1.27-.14-1.08,0-2,.58-2.24l1.65-.6A1.49,1.49,0,0,1,8.57,21ZM25.51,16.8a1.13,1.13,0,0,1-1.17.35l-6.64-2A1.11,1.11,0,0,1,18.34,13L25,15a1.11,1.11,0,0,1,.74,1.37A1.39,1.39,0,0,1,25.51,16.8Zm-7.37-5.6A1.11,1.11,0,0,1,18,9.05l6.6-2.11A1.1,1.1,0,0,1,26,7.66a1.12,1.12,0,0,1-.72,1.39l-6.6,2.11A1.17,1.17,0,0,1,18.14,11.2Zm-2.67-3a1.11,1.11,0,0,1-.84-1.64l3.4-6A1.11,1.11,0,1,1,20,1.65l-3.41,6A1.09,1.09,0,0,1,15.47,8.24Z"/></g></g></svg>