<svg xmlns="http://www.w3.org/2000/svg" width="33.7" height="19.6" viewBox="0 0 33.7 19.6">
  <title>Sighting</title>
  <g id="Layer_2" data-name="Layer 2">
    <g id="Layer_1-2" data-name="Layer 1">
      <path d="M14.9,12.9a4.1,4.1,0,0,0,1.9.5,3,3,0,0,0,1.9-.5,7.5,7.5,0,0,0,15-.9,7.6,7.6,0,0,0-2.3-5.4l-.6-.5h0L28,3.7a7.3,7.3,0,0,0-3.8-1.4v.2L22.6.7h0A2.9,2.9,0,0,0,20.8,0a2.7,2.7,0,0,0-2.6,1.9L17,1.5h-.2a2.5,2.5,0,0,0-1.3.4A2.7,2.7,0,0,0,12.9.1a2.4,2.4,0,0,0-1.8.7h0L9.4,2.5h.1A7.3,7.3,0,0,0,5.7,3.8L2.9,6.2h0l-.6.5A7.5,7.5,0,0,0,0,12.1a7.6,7.6,0,0,0,7.5,7.5A7.6,7.6,0,0,0,14.9,12.9ZM25,7h1.2A5.1,5.1,0,1,1,21,12,5.1,5.1,0,0,1,25,7ZM16.8,8a1.6,1.6,0,0,1,1.7,1.6,1.6,1.6,0,0,1-1.7,1.7,1.6,1.6,0,0,1-1.6-1.7A1.6,1.6,0,0,1,16.8,8ZM7.5,17.1a5.1,5.1,0,0,1,0-10.2H8.6A5.1,5.1,0,0,1,7.5,17.1Z" fill="#1a2026"/>
    </g>
  </g>
</svg>
