<svg xmlns="http://www.w3.org/2000/svg" viewBox="0 0 22 24.69"><defs><style>.cls-1,.cls-2{fill:#1a2026;}.cls-1{opacity:0.8;}</style></defs><title>Sit Rep</title><g id="Layer_2" data-name="Layer 2"><g id="Layer_1-2" data-name="Layer 1"><rect class="cls-1" x="8.08" y="17.49" width="11" height="1.5"/><rect class="cls-1" x="8.08" y="11.57" width="11" height="1.5" transform="translate(-0.16 0.18) rotate(-0.74)"/><rect class="cls-1" x="8.08" y="5.65" width="6" height="1.5"/><path class="cls-1" d="M4.46,8,3.07,6.57,3.67,6l.8.8L6.32,5h0l.15-.15.6.62Z"/><path class="cls-1" d="M4.46,13.88,3.07,12.49l.6-.61.8.8,1.85-1.77h0l.15-.15.6.62Z"/><path class="cls-1" d="M5.07,20a1.75,1.75,0,1,1,1.75-1.75A1.75,1.75,0,0,1,5.07,20Zm0-2.7a1,1,0,1,0,.95.95A.95.95,0,0,0,5.07,17.29Z"/><path class="cls-2" d="M21.33,24.69H.67a.91.91,0,0,1-.49-.18A.59.59,0,0,1,0,24V.67A.68.68,0,0,1,.67,0H16.3a.65.65,0,0,1,.54.27l5,6.6a.7.7,0,0,1,.13.4V24A.66.66,0,0,1,21.33,24.69Zm-20-1.34h19.3V8H16.16a.69.69,0,0,1-.67-.68V1.35H1.35ZM19.93,6.56,16.84,2.38V6.56Z"/><rect class="cls-2" x="8.08" y="17.49" width="11" height="1.5"/><rect class="cls-2" x="8.08" y="11.57" width="11" height="1.5" transform="translate(-0.16 0.18) rotate(-0.74)"/><rect class="cls-2" x="8.08" y="5.65" width="6" height="1.5"/><path class="cls-2" d="M4.46,8,3.07,6.57,3.67,6l.8.8L6.32,5h0l.15-.15.6.62Z"/><path class="cls-2" d="M4.46,13.88,3.07,12.49l.6-.61.8.8,1.85-1.77h0l.15-.15.6.62Z"/><path class="cls-2" d="M5.07,20a1.75,1.75,0,1,1,1.75-1.75A1.75,1.75,0,0,1,5.07,20Zm0-2.7a1,1,0,1,0,.95.95A.95.95,0,0,0,5.07,17.29Z"/></g></g></svg>