<svg xmlns="http://www.w3.org/2000/svg" viewBox="0 0 24 18.85"><defs><style>.cls-1{fill:#1a2026;}</style></defs><title>Snare</title><g id="Layer_2" data-name="Layer 2"><g id="Layer_1-2" data-name="Layer 1"><path class="cls-1" d="M4.83,18.85a2.3,2.3,0,0,1-1.35-.42l-.17-.14a4,4,0,0,1-2.69.25,1.08,1.08,0,0,1-.62-1,.67.67,0,0,1,.67-.68h0a.67.67,0,0,1,.65.49,4.27,4.27,0,0,0,1.2-.22A9.71,9.71,0,0,1,2,13.5,3.67,3.67,0,0,1,.72,11.18a17.91,17.91,0,0,1,.1-5c.53-2.55,1.89-3.88,3.35-4.4A4.89,4.89,0,0,1,4.82,1,1.67,1.67,0,0,1,6.11.67a1.15,1.15,0,0,1,.81.52,5.42,5.42,0,0,1,.26.48,5.86,5.86,0,0,1,1.52.72,1.9,1.9,0,0,1,.4-.25,1.61,1.61,0,0,1,1-.13l0,0C11.84.24,13.71-.38,15.54.22a8.54,8.54,0,0,1,2.51,1.45l.23,0c.18-.19.37-.37.56-.54A1.4,1.4,0,0,1,20,.84a1.08,1.08,0,0,1,.8.55A13.16,13.16,0,0,1,22,4.94a6.31,6.31,0,0,1,.72.82,5.52,5.52,0,0,1,1.1,4.47A8.15,8.15,0,0,1,24,11.57a4.54,4.54,0,0,1-1.73,4,.61.61,0,0,1,0,.3.68.68,0,0,1-.73.61l-.65-.06h-.19a7.37,7.37,0,0,1-.88.28,4.75,4.75,0,0,1-4.83.54q-.42-.15-.81-.33a7.32,7.32,0,0,1-.94.12l-.15.18c-.57.62-1.83,1.46-3.89.2A3.55,3.55,0,0,1,8.66,17l-.94.69A5.27,5.27,0,0,1,4.83,18.85Zm-.16-1.36A2.37,2.37,0,0,0,6,17.19a6.54,6.54,0,0,1-1,.07Zm11.62-1.26a2.38,2.38,0,0,0,.37.06l-.21-.15ZM3.83,15.82l.64.08a8.91,8.91,0,0,0,1.07-1.14,3.83,3.83,0,0,1-1.78-.2c0,.37,0,.73,0,1.1A.3.3,0,0,0,3.83,15.82Zm7-.31a7.53,7.53,0,0,0,1.6.23,5.46,5.46,0,0,1-.92-1.17l-.77.71A1.38,1.38,0,0,0,10.86,15.51ZM7,14.94a3.84,3.84,0,0,1-.33.52l-.16.21a4.71,4.71,0,0,0,.91-.42s0,0,0-.05A1.53,1.53,0,0,1,7,14.94Zm7.1.42.27.17a6.44,6.44,0,0,0,1.11-.41,5.83,5.83,0,0,1-.39-.69h-.76A8.43,8.43,0,0,1,14.13,15.36Zm4.3-.71a5.21,5.21,0,0,0,1.22.33,6,6,0,0,0,.71-1.35A12.61,12.61,0,0,1,19,14,7.09,7.09,0,0,1,18.43,14.65ZM22,12.89a9.25,9.25,0,0,1-.56,1.66,3,3,0,0,0,1.19-2.12A3.94,3.94,0,0,1,22,12.89Zm-13.78.34c0,.22.11.43.17.63a2.19,2.19,0,0,0,.43-.37ZM3.76,13.1a2.69,2.69,0,0,0,1.78.3A2.39,2.39,0,0,0,6.3,13a9.25,9.25,0,0,1-.07-1.41A2.3,2.3,0,0,1,6,11.16a5.77,5.77,0,0,1-.26-3,5.26,5.26,0,0,0-1.68-.25c0,.13-.09.3-.14.49C3.84,9.84,3.77,11.45,3.76,13.1Zm10.79,0h.12l-.09-.38A2.43,2.43,0,0,1,14.55,13.09ZM12.94,13l.27,0c0-.16,0-.32,0-.49C13.15,12.7,13.05,12.86,12.94,13Zm2.9-.94c.22.36.44.67.65.95.61-.06,1.2-.13,1.75-.23A9.38,9.38,0,0,0,19.71,6a9.91,9.91,0,0,0-.21-1l-.21-.24a3.08,3.08,0,0,0-1.6-.23c-.21.29-.41.6-.62.92A10.79,10.79,0,0,0,15.84,12.07Zm5.22-2.93a10.45,10.45,0,0,1-1,3.17A5.24,5.24,0,0,0,20.8,12,14.83,14.83,0,0,0,21.06,9.14ZM8.61,11.92l.57.27a32.87,32.87,0,0,1,.66-6.26,5.18,5.18,0,0,0-.35-.75A15.15,15.15,0,0,0,8.17,8.31a3.75,3.75,0,0,1,.61,1.55A4.49,4.49,0,0,1,8.61,11.92Zm4.1-3.57a9,9,0,0,0-.49,1.76,7,7,0,0,0-.11,1.73A4.84,4.84,0,0,0,12.71,8.35ZM3,4.29a5.85,5.85,0,0,0-.86,2.12,16.47,16.47,0,0,0-.08,4.65,2.07,2.07,0,0,0,0,.22,28.55,28.55,0,0,1,.48-3q.06-1,.12-1.95A11.43,11.43,0,0,1,3,4.29Zm19.39,5.83c0,.08,0,.15,0,.23a.65.65,0,0,0,0-.13S22.4,10.15,22.39,10.12Zm-8.54-4c.14.47.27,1,.38,1.52,0-.17.06-.33.08-.49.37-2.55,1.66-3.46,2.57-3.78L17,3.14A7.51,7.51,0,0,0,13.85,6.1Zm-9.77.45a6.55,6.55,0,0,1,1.84.23,5.61,5.61,0,0,1,.65-1.9v0a8.45,8.45,0,0,0-.37-2L6,2.81a3.35,3.35,0,0,0-1,.07,7,7,0,0,0-.48,1A8.4,8.4,0,0,0,4,6.43v.12Zm7.64-3.37a1.35,1.35,0,0,1,1.1.67,4.67,4.67,0,0,1,.44.74,8.5,8.5,0,0,1,3-2.56,5.21,5.21,0,0,0-1.1-.53,3.8,3.8,0,0,0-3.8,1.23,3.16,3.16,0,0,1,.37.45Zm-4,.19c0,.08,0,.16,0,.24s0-.11.08-.16Zm11.82-1a3.25,3.25,0,0,1,.42.47c-.08-.21-.18-.42-.27-.61Z"/></g></g></svg>