<svg xmlns="http://www.w3.org/2000/svg" width="40.5" height="25.5" viewBox="0 0 40.5 25.5">
  <title>Snare - Animal</title>
  <g id="Layer_2" data-name="Layer 2">
    <g id="Layer_1-2" data-name="Layer 1">
      <g>
        <path d="M3.2,25.5a1.6,1.6,0,0,1-.9-.3H2.2a2.8,2.8,0,0,1-1.8.2.8.8,0,0,1-.4-.7.4.4,0,0,1,.4-.4h0a.5.5,0,0,1,.5.3h.8a6.6,6.6,0,0,1-.4-2.5,2.1,2.1,0,0,1-.8-1.5A12.9,12.9,0,0,1,.5,17a3.6,3.6,0,0,1,2.3-2.9l.4-.5a1,1,0,0,1,.9-.2.5.5,0,0,1,.5.3l.2.3,1,.5h.3a.6.6,0,0,1,.7-.1h0a3.3,3.3,0,0,1,3.6-1.2A6.5,6.5,0,0,1,12,14h.2l.4-.4a.6.6,0,0,1,.7-.2.7.7,0,0,1,.6.4,10.2,10.2,0,0,1,.8,2.3l.4.6a3.6,3.6,0,0,1,.8,2.9c0,.4.1.7.1.9a2.7,2.7,0,0,1-1.2,2.7.3.3,0,0,1,.1.2c-.1.3-.3.5-.5.4h-.6l-.6.2a3.1,3.1,0,0,1-3.2.3l-.5-.2H8.7a1.8,1.8,0,0,1-2.5.2l-.4-.3-.7.4A3.4,3.4,0,0,1,3.2,25.5Zm-.1-.9.9-.2H3.3Zm7.8-.9c0,.1.1.1.2.1h-.2Zm-8.3-.2H3l.7-.7a2.5,2.5,0,0,1-1.2-.2v.8Zm4.6-.2H8.3l-.6-.8-.5.5Zm-2.5-.4-.2.3v.2l.6-.3H5Zm4.7.3h.2l.7-.3c-.1-.1-.1-.3-.2-.5a.4.4,0,0,1-.5,0A6.4,6.4,0,0,1,9.4,23.2Zm2.9-.5.8.2a3.6,3.6,0,0,0,.5-.9l-.9.3Zm2.4-1.2c-.1.4-.3.8-.4,1.1a2.2,2.2,0,0,0,.8-1.4Zm-9.2.2a.9.9,0,0,0,.1.5l.3-.3A.5.5,0,0,1,5.5,21.7Zm-3,0a2.7,2.7,0,0,0,1.2.2l.5-.3a2.7,2.7,0,0,1,0-.9c-.1-.1-.2-.2-.2-.3a4.7,4.7,0,0,1-.2-2,2,2,0,0,0-1.1-.2c0,.1-.1.2-.1.3S2.5,20.6,2.5,21.7Zm7.2,0h.1c0-.1-.1-.2-.1-.3Zm-1.1-.1h.2v-.3Zm2-.6.4.6h1.2a6.4,6.4,0,0,0,.9-4.5,1.5,1.5,0,0,0-.1-.7c0-.1-.1-.1-.1-.2a2.2,2.2,0,0,0-1.1-.1,1.5,1.5,0,0,0-.4.6A6.5,6.5,0,0,0,10.6,21ZM14,19a6.5,6.5,0,0,1-.6,2.1l.5-.2A11.5,11.5,0,0,0,14,19ZM5.7,20.9a.5.5,0,0,1,.4.2,16,16,0,0,1,.5-4.2l-.3-.5-.9,2.1a4.5,4.5,0,0,1,.5,1A3.4,3.4,0,0,1,5.7,20.9Zm2.8-2.4a5.6,5.6,0,0,0-.4,1.2,4,4,0,0,0,0,1.1A3.4,3.4,0,0,0,8.5,18.5ZM2,15.8a3,3,0,0,0-.6,1.4,10.7,10.7,0,0,0,0,3.1h0c.1-.7.2-1.5.3-1.9s.1-.9.1-1.3A5.2,5.2,0,0,1,2,15.8Zm12.9,3.9h0ZM9.2,17l.3,1v-.3c.3-1.7,1.1-2.3,1.8-2.5V15A5.7,5.7,0,0,0,9.2,17Zm-6.5.3H3.9a3.3,3.3,0,0,1,.5-1.2h0a5.8,5.8,0,0,0-.3-1.4H3.3l-.3.7a4.3,4.3,0,0,0-.3,1.7ZM7.8,15a.8.8,0,0,1,.7.5c.2.1.2.3.3.5a5.2,5.2,0,0,1,2-1.7l-.7-.4a3.1,3.1,0,0,0-2.6.8l.3.3Zm-2.6.2h0Zm7.8-.7.3.3a.8.8,0,0,0-.2-.4Z" fill="#1a2026"/>
        <path d="M24.5.3a18.4,18.4,0,0,1-2.6.2S20.1.3,19.7.6a4.3,4.3,0,0,0-1.6,1.6,5.4,5.4,0,0,0-.9,1.6A16.4,16.4,0,0,0,16,6.6l-.2.6a5.4,5.4,0,0,1-1.5.2s0,.2.9.4a2,2,0,0,1-.8,0,2.5,2.5,0,0,0,1.2.4s-.2,3.1,2.3,4.1c0,0,2.2.4,2-1.7,0,0-.4-1.2-1.2-.6s.3.2.1.3.5.7,0,.8-1,.5-1.3-1.5a3.2,3.2,0,0,1,.8-2.5h.4l.3.3s.4,0,.5-.3l.5-.3s1.1,0,1.3-.3-.1.9.3,1.2,1.4-.2,1.6-.5a15.7,15.7,0,0,1-.5,2.5l-.6,2.2a6.7,6.7,0,0,1-.6,1.9,7,7,0,0,0-.3,2s-.2,1.1-.6,1.3-.9.5-.4.8,3,.6,2.7-.2a2.5,2.5,0,0,1-.3-1.2,21.6,21.6,0,0,1,1.3-2.8,18.6,18.6,0,0,0,1.8-2.4l1,2.5a8.6,8.6,0,0,0,.8,2.2s.3.9-.1,1.2-1,.6-.7.9,2.9.5,3-.1a1.3,1.3,0,0,0-.3-.8,1.9,1.9,0,0,1-.2-1.3,19.1,19.1,0,0,0-.2-2,25.8,25.8,0,0,1-.3-2.9,3.1,3.1,0,0,1,.2-.8,7.3,7.3,0,0,0,2.8.9s1.3.1,1.2.3l.8.7s.7,1.2.6,1.6.2,2.3-.3,2.7-1.1.8-.8,1.5,2.7.4,3.1-.2a11.6,11.6,0,0,0-.2-2.3s-.3-2.6.2-3.1,1.2,1.1,1.3,1.6a13.1,13.1,0,0,1,.9,2.8s-.3,1,.2,1.2,1.9.2,1.8-.8a4.2,4.2,0,0,0-.5-1.2,10.9,10.9,0,0,1-1-3V11.4a6.1,6.1,0,0,1,.3,1.5s.2,1.8.9,2.3-.2-1.2-.4-2.1a14.3,14.3,0,0,1-.5-2.8,16.9,16.9,0,0,1-.4-3.2,5.3,5.3,0,0,0-1.1-2.5S36,2.2,35.1,1.8A7,7,0,0,0,30.6.9S27.2,1,26.7.5A1.8,1.8,0,0,0,24.5.3Z" fill="#1a2026"/>
      </g>
    </g>
  </g>
</svg>
