<svg xmlns="http://www.w3.org/2000/svg" viewBox="0 0 26 32"><path d="M20.2,22a3.5,3.5,0,0,1-1.4-2l-.3-1.2a28.6,28.6,0,0,0-.7-2.8,1.9,1.9,0,0,0-1.1-1.4,3.2,3.2,0,0,0-3.5.4l-.4.2a4.2,4.2,0,0,0-3.3.5,3.3,3.3,0,0,0-1.6,1.9L7.6,19c-.4,1-.6,2.1-1.5,2.8a11.4,11.4,0,0,0-1.5,1.6A7.3,7.3,0,0,0,2.9,26a6.8,6.8,0,0,0,.9,5,2,2,0,0,0,1.9,1,5.3,5.3,0,0,0,2.4-.6l1.8-1.1a1.4,1.4,0,0,0,1.2.7H13a4.7,4.7,0,0,0,3.1-1.2,2.4,2.4,0,0,0,1.6.9,10.5,10.5,0,0,0,3.1-.3,2.7,2.7,0,0,0,1.6-1,3.6,3.6,0,0,0,.5-4A6.7,6.7,0,0,0,20.2,22Z"/><path d="M24.6,8c-.2-.1-.3-.3-.4-.4a1.6,1.6,0,0,0-2.5-.2,7.9,7.9,0,0,0-1.9,2.5,6.4,6.4,0,0,0-.4,4.7,4.6,4.6,0,0,0,2.3,2.8c.8.5,1.2.4,1.9-.2l.5-.4A7.6,7.6,0,0,0,26,11.6,3.8,3.8,0,0,0,24.6,8Z"/><path d="M15.1,10.7a4,4,0,0,0,3-2.2,4.9,4.9,0,0,0,.6-2.9,7.6,7.6,0,0,0-2-5.1c-.4-.5-1-.7-1.4-.3a8.7,8.7,0,0,0-1.7,1.6A7.1,7.1,0,0,0,12,6.7a6.1,6.1,0,0,0,.1,1.4A2.9,2.9,0,0,0,15.1,10.7Z"/><path d="M6.2,11.5a3,3,0,0,0,4.4-1.1,14.7,14.7,0,0,0,.8-2.5h-.1c-.1-.2,0-.3-.1-.5a16.3,16.3,0,0,0-2-4.5,1.3,1.3,0,0,0-1.8-.3A4.8,4.8,0,0,0,5.5,4.7c-.3.7-.5,1.4-.8,2S4.2,10.4,6.2,11.5Z"/><path d="M5.8,19.6c1.1-1.7.5-5-.3-6.1a2.2,2.2,0,0,0-3.4-.6l-.6.5A3,3,0,0,0,0,16a11.7,11.7,0,0,0,.8,3.7c.1.3.3.7.6.8S4.6,21.4,5.8,19.6Z"/></svg>
