<svg xmlns="http://www.w3.org/2000/svg" width="23.9" height="31.4" viewBox="0 0 23.9 31.4">
  <title>SMART - Spoor</title>
  <g id="Layer_2" data-name="Layer 2">
    <g id="Layer_1-2" data-name="Layer 1">
      <g>
        <path d="M22.7,2.5V5a11.1,11.1,0,0,1-.6,3.4,7.3,7.3,0,0,1-1.7,2.7l-1.7,1.3-.8.3h0l-.6-.3-1.4-.8a7.1,7.1,0,0,1-2.8-4.3,10.5,10.5,0,0,1-.3-3V2.4h1.5a8.5,8.5,0,0,0,3.6-1.2h0a7.7,7.7,0,0,0,3.6,1.2Zm-.3-1.1A10.7,10.7,0,0,1,17.9,0h0a10.3,10.3,0,0,1-4.4,1.4,3.3,3.3,0,0,1-1.4,0h-.5V3.7A21.5,21.5,0,0,0,12,7.4a8.8,8.8,0,0,0,3.5,5.3,9.5,9.5,0,0,0,1.7,1l.7.3h0l1-.4L21,12.1a7.5,7.5,0,0,0,2.2-3.4,13.2,13.2,0,0,0,.7-4.2c-.1-1.4-.1-2.4-.1-3.1A3.3,3.3,0,0,1,22.4,1.4Z" fill="#1a2026" fill-rule="evenodd"/>
        <g>
          <path d="M4,26.1H4a1.9,1.9,0,0,1-1.3-.5.2.2,0,0,1,0-.3l.6-.8a.1.1,0,0,1,.1-.1h.2l.5.2a.2.2,0,0,1,.2.2v1c-.1.1-.1.1-.1.2Zm.7,0a.1.1,0,0,0-.1-.1H4.5v-1c-.1-.1,0-.2.1-.2l.4-.3h.4L6,25a.2.2,0,0,1,0,.3,2.5,2.5,0,0,1-1.2.8ZM2.4,25h0c-.1,0-.2,0-.2-.1l-.3-1a.4.4,0,0,1,.1-.3l.9-.3h.2c.1,0,.1,0,.1.1a4.3,4.3,0,0,0,.1.5c.1.1,0,.2,0,.3l-.8.7Zm3.8-.3H6.1l-.9-.6c-.1-.1-.1-.1-.1-.2s.1-.4,0-.6H6.3l.2.2a4.5,4.5,0,0,1-.1,1.2H6.2Zm-2-.2c-.1,0-.1,0-.1-.1H3.7v-.4H4a.1.1,0,0,1,.1-.1h.3v.2h.2c.1,0,.1,0,.1.1V24c0,.1-.1.1-.2.1H4.5a.1.1,0,0,0-.1.1Zm.1-.2ZM4,24.2Zm-.1-.3Zm.5-.2Zm-.3-.1Zm.2,0ZM2,23.3H1.9v-1H3c.1,0,.1.1.1.2h0a.6.6,0,0,0,.1.4.2.2,0,0,1-.2.2Zm2-.2H4c-.1,0-.1,0-.1-.1H3.6v-.2c0-.1,0-.2.1-.2h.2c0-.1,0-.1.1-.1h.3v.2h.3v.2H4.3v.2c0,.1-.1.1-.2.1H4Zm.1-.2Zm.1,0Zm.1-.2Zm.2-.3Zm-.2-.1ZM4,22.2Zm1.3.8-.2-.2v-.4c-.1-.1,0-.2.1-.2l.9-.3h.2c.1.1.1.1.1.2s.1.4.1.6,0,.1-.1.2H5.3ZM1.9,21H1.8a.1.1,0,0,1-.1-.1l-.2-.4v-.2h.1l1-.3c.1-.1.2,0,.2.1s.1.3.2.4a.4.4,0,0,1-.1.3h0l-.8.2H1.9ZM6,20.6H4.9v-.7c0-.1,0-.1.1-.1H5l1,.2c.1,0,.2.1.1.2s.1.3.1.4,0,.1-.1.2Zm-2.1-.5H3.8v-.2H3.5v-.2c0-.1,0-.1.1-.1h.1a.2.2,0,0,1,.2-.2H4c.1,0,.1,0,.1.1h.4v.2H4.3a.2.2,0,0,1-.2.2H3.9Zm-.1-.3Zm-.2-.1Zm.8-.1Zm-.8-.1Zm.3-.3Zm.1,0Zm-2.6.7H1.2c-.1-.1-.1-.3-.2-.4v-.2h.1l1-.2h.3a.8.8,0,0,0,.2.4v.2H2.4l-1,.2ZM5,19.5H4.9c0-.1-.1-.1-.1-.2h0c.1-.2.1-.4.2-.6s.1-.1.2-.1H6.4c-.1.2-.1.4-.2.5l-.2.2Zm-1.7-.6a.3.3,0,0,1-.1-.2H2.9v-.2h.2a.2.2,0,0,1,.2-.2h.3v.2h.3v.2H3.6v.2c0,.1-.1.1-.2.2H3.3Zm.1-.2Zm-.2-.1ZM3,18.5Zm.8-.1Zm-.6-.3Zm.4,0Zm-2.8.7H.6c0-.1-.1-.2-.1-.3s-.1-.2,0-.2H1.9c0,.2.1.3.2.5s.1.1,0,.1,0,.1-.1.1Zm4.6-.4H5.2v-.2h0c.1-.2.1-.3.2-.4a.3.3,0,0,1,.1-.2H6.7v.2c-.1.1-.1.3-.2.4s-.1.1-.1.2Zm-4-.6H.2A1.3,1.3,0,0,1,.1,17H1.5a1.3,1.3,0,0,0,.1.6v.2Zm3-.1H4.3v-.2H4.1a.1.1,0,0,1-.1-.1H3.9v-.2h.3v-.2h.6a.2.2,0,0,1,.2.2H5a.3.3,0,0,1-.1.2H4.7v.2H4.4Zm0-.1Zm-.2-.2Zm-.1-.1Zm.7-.1ZM4.2,17Zm.5,0Zm-.2-.2Zm-2,.9c-.1,0-.1-.1-.1-.2H2.1v-.2c0-.1.1-.1.2-.2h.6v.2H3a.1.1,0,0,1,.1.1v.2c0,.1,0,.1-.1.1H2.8c0,.1,0,.2-.1.2Zm-.1-.3Zm.6-.2Zm-.8-.1Zm.3-.3Zm3.2.5c-.1,0-.1,0-.1-.1s-.1-.1-.1-.2h0c0-.1.1-.3.1-.4a.2.2,0,0,1,.2-.2l1-.2h.1c.1,0,.1.1.1.2a.6.6,0,0,1-.1.4c0,.1,0,.2-.1.2l-1.1.2Zm-4.5-.6h0l-1-.3a.2.2,0,0,1-.2-.2v-.5c0-.1,0-.2.1-.2H.3l1,.2v.2h0v.6a.1.1,0,0,1-.1.1Zm1-.3H1.9a.3.3,0,0,1-.1-.2h0c0-.1,0-.2.1-.2h.2v-.2h.5v.2h.2c.1,0,.1.1.1.2h0a.1.1,0,0,1-.1.1H2.6v.2H2.2Zm.1-.1Zm.1,0Zm.3-.4Zm0-.1Zm-.2-.1Zm-.2-.2Zm2.3.9H4.4v-.2H4.3a.2.2,0,0,1-.2-.2v-.2h.3v-.2h.7c0,.1,0,.1-.1.1H4.9v.2H4.6Zm.1-.1Zm-.3-.2Zm-.2-.2Zm.3-.4Zm1.3.7H5.7c0-.1-.1-.1-.1-.2v-.5h0v-.2l1-.3h.2v.2H7v.5a.3.3,0,0,1-.1.2l-1,.3Zm-4.5-.6H1.2l-1-.4L0,14.9a1.3,1.3,0,0,0,.1-.6c0-.1.1-.1.1-.2H.4l1,.6c.1,0,.2.1.1.2v.5H1.3Zm2.9-.4H3.7v-.2h.7v.2h.3v.2a.1.1,0,0,1-.1.1H4.5v.2Zm0-.2Zm.3-.1Zm-.6-.1Zm.7-.1Zm-.8-.1Zm.2-.2Zm.1-.1Zm.2,0Zm-1.7.8H2.1l.2-.2h.1v-.2h.5v.2H3l.2.2h0c0,.1,0,.2-.1.2H2.9V15H2.6Zm.2-.1Zm-.5-.3Zm.7-.2Zm-.3-.3Zm3,.9H5.5v-.7l.8-.5h.2l.2.2a.9.9,0,0,0,.1.5v.2l-1,.5Zm-4.2-.6H1.3l-.9-.7v-.2a6.4,6.4,0,0,1,.2-.7H.7a.1.1,0,0,1,.1.1l1,.9v.2h0c0,.1-.1.3-.1.4l-.2.2Zm4-.4H5.3c0-.2,0-.3-.1-.4s0-.2.1-.2l.7-.9h.3a1.4,1.4,0,0,1,.2.6.1.1,0,0,1,0,.2l-.8.8Zm-2-.1-.2-.2H3v-.2H3a.1.1,0,0,1,.1-.1h.2c0-.1,0-.2.1-.2h.3v.2h.2c.1,0,.1,0,.1.1v.2H3.8v.2H3.5Zm.1-.2Zm-.4-.3Zm.7,0Zm-.8-.1Zm.8-.1Zm-2,.1H1.7L.9,12.2V12l.5-.6h.3l.7,1.2v.2l-.3.4Zm3.2-.3H5l-.3-.4c-.1,0-.1-.1-.1-.2l.5-1.2h.3l.5.6v.2L5.3,13Zm-2.4-.5H2.5l-.4-1.3c-.1-.1,0-.2.1-.2s.4-.2.6-.3h.3l.3,1.4-.2.2h0l-.4.2Zm1.6-.3H3.5V10.5h1c.1,0,.1.1.1.2l-.2,1.3c0,.1-.1.1-.1.2Zm-.6-.2Zm0-.1Z" fill="#1a2026"/>
          <path d="M11.1,31.4h0a1.9,1.9,0,0,0,1.3-.5.2.2,0,0,0,0-.3l-.6-.8a.1.1,0,0,0-.1-.1h-.2a.5.5,0,0,1-.5.3.2.2,0,0,0-.2.2v1h.2Zm-.7-.1h.2v-1c.1-.1,0-.2-.1-.2l-.4-.4H9.8l-.7.7a.2.2,0,0,0,0,.3,1.9,1.9,0,0,0,1.2.7Zm2.3-1h.1a.1.1,0,0,0,.1-.1l.3-1.1c0-.1,0-.2-.1-.2l-.9-.3H12c-.1.1-.1.1-.1.2a4.3,4.3,0,0,1-.1.5.1.1,0,0,0,0,.2l.8.8ZM8.9,30c.1,0,.1,0,.1-.1l.9-.5a.3.3,0,0,0,.1-.2v-.6c0-.1-.1-.1-.1-.2H8.8a.2.2,0,0,0-.2.2,3.7,3.7,0,0,0,.1,1.1l.2.2Zm2-.3h.4v-.2h0c0-.1,0-.2-.1-.2h-.2v-.2h-.3a.1.1,0,0,0-.1.1V29h-.2c-.1,0-.1.1-.1.2v.2h.3v.2h.3Zm-.1-.1Zm.3-.2Zm.1-.2Zm-.5-.2Zm.3-.1Zm-.2-.1Zm2.3-.2h.1c.1-.1.1-.1.1-.2v-.8H12.1c-.1.1-.1.1-.1.2h0a.9.9,0,0,1-.1.5.2.2,0,0,0,.2.2Zm-2-.3h.1V28h.2c.1,0,.1-.1.1-.2h0c0-.1,0-.2-.1-.2h-.1v-.2h-.8c0,.1,0,.2.1.2h.2v.2h.4Zm-.1-.1Zm-.1-.1Zm-.1-.1Zm-.2-.3Zm.2-.1Zm.3-.2Zm-1.3.9.2-.2v-.4c.1-.1,0-.2-.1-.2L9,27.2H8.7c0,.3-.1.5-.1.7s0,.1.1.2H9.8Zm3.4-2h.1v-.2c.1-.1.1-.2.2-.4h-.1l-1-.4h-.2l-.2.5c0,.1,0,.2.1.2h0l.8.3Zm-4.1-.4h1.1c0-.1.1-.1.1-.2v-.7H9.1a.4.4,0,0,0-.1.3c0,.1-.1.2-.1.4a.3.3,0,0,0,.1.2Zm2.1-.5h.4v-.2c0-.1,0-.2-.1-.2h-.1a.2.2,0,0,0-.2-.2h-.3v.2h-.3v.2h.3v.2c0,.1.1.1.2.1Zm.1-.4Zm.2-.1Zm-.8,0Zm.8-.1Zm-.3-.3Zm-.1-.1Zm2.6.8h.2l.2-.4v-.2a.1.1,0,0,0-.1-.1l-1-.2c-.1-.1-.2,0-.2.1l-.3.4v.2c0,.1.1.1.2.1l1,.2Zm-3.6-.5h.1c.1-.1.1-.1.1-.2h0c-.1-.2-.1-.4-.2-.6l-.2-.2H8.8c-.1.1-.1.1-.1.2l.2.5h1.2Zm1.7-.6a.1.1,0,0,0,.1-.1h.3a.1.1,0,0,0-.1-.1H12v-.2h-.5v.2h-.2a.3.3,0,0,0-.1.2v.2h.3V24c0,.1.1.1.2.1Zm-.1-.1Zm.2-.1Zm.2-.2Zm-.8-.1Zm.6-.2Zm-.4,0Zm2.8.7h.2c0-.1.1-.2.1-.4s.1-.1,0-.1a.1.1,0,0,0-.1-.1H13.4c0-.1-.1,0-.2.1a1.7,1.7,0,0,1-.2.5c-.1,0-.1,0,0,.1h1.3Zm-4.6-.5c.1,0,.2,0,.2-.1v-.2h0c-.1-.1-.1-.2-.2-.4H8.5a.1.1,0,0,0-.1.1c-.1,0-.1.1-.1.2l.2.4c0,.1.1.1.2.1Zm4-.5h1.2a1.3,1.3,0,0,0,.1-.6v-.2H13.8c-.1,0-.1.1-.2.2h0a.9.9,0,0,1-.1.5V23C13.5,23.1,13.6,23.1,13.7,23.1Zm-3-.1a.1.1,0,0,0,.1-.1v-.2h.3v-.2h-.6a.1.1,0,0,0-.1.1h-.2c-.1,0-.2,0-.2.1v.2c0,.1.1.1.1.2h.2c0,.1,0,.2.1.2Zm0-.2Zm.2-.1Zm.1-.1Zm-.7-.1Zm.6-.3Zm-.5,0Zm.2-.1Zm2,.8h.3c.1,0,.1-.1.1-.2h.1l-.2-.2h-.1V22h-.3c-.1,0-.2,0-.2.1v.2h-.2c-.1,0-.1,0-.1.1v.2a.1.1,0,0,0,.1.1h.2v.2h.3Zm.1-.3Zm-.6-.2Zm.8,0Zm-.2-.3Zm-3.3.5a.1.1,0,0,0,.1-.1v-.2h0c0-.2-.1-.3-.1-.5s-.1-.1-.2-.1l-1-.2a.1.1,0,0,0-.1.1H8.1a.9.9,0,0,0,.1.5c0,.1,0,.1.1.2l1.1.2Zm4.5-.7H14l.9-.2a.2.2,0,0,0,.2-.2v-.6H15c0-.1-.1-.1-.2-.1l-1,.3c-.1,0-.1.1-.1.2h0v.5c0,.1,0,.2.1.2Zm-1-.2H13v-.2h.3v-.2c0-.1,0-.1-.1-.1H13v-.2c0-.1-.1-.1-.2-.1h-.2c-.1,0-.1,0-.1.1h-.3v.2h.2c0,.1,0,.1.1.1h.3Zm-.1-.1Zm-.1-.1Zm-.3-.3Zm0-.2Zm.2-.1Zm.2-.1Zm-2.3.9h.2v-.2H11v-.2h-.3v-.2h-.3c-.1,0-.1.1-.1.2H10v.2a.1.1,0,0,0,.1.1h.2a.3.3,0,0,0,.1.2Zm-.1-.2Zm.3-.1Zm.2-.3Zm-.3-.3Zm-1.3.7h.1c0-.1.1-.1.1-.2v-.5h0a.3.3,0,0,0-.1-.2l-1-.3c0-.1-.1-.1-.2,0H8.1V21c0,.1.1.1.1.2l1,.3Zm4.5-.7h.1l1-.5.2-.2a1.1,1.1,0,0,1-.1-.5.3.3,0,0,0-.1-.2h-.2l-1,.6c-.1,0-.1.1-.1.2v.4a.3.3,0,0,1,.1.2Zm-2.9-.4h.3a.2.2,0,0,0,.2-.2h0a.1.1,0,0,0-.1-.1h-.2v-.2h-.4v.2h-.3V20a.1.1,0,0,1,.1.1h.2v.2h.3Zm0-.1Zm-.3-.2Zm.6-.1Zm-.7-.1Zm.8,0Zm-.2-.2Zm-.1-.1Zm-.2-.1Zm1.7.9h.1v-.2h.3v-.2c0-.1-.1-.1-.2-.1h-.1v-.2h-.4a.1.1,0,0,0-.1.1h-.3v.2c0,.1,0,.2.1.2h.5Zm-.2-.2Zm.5-.2Zm-.7-.2Zm.3-.3Zm-3,.9h0c.1,0,.1-.1.2-.2h0v-.4c0-.1,0-.2-.1-.2L8.7,19H8.5c-.1,0-.1.1-.1.2s-.1.3-.2.5.1.1.2.2l.9.5Zm4.2-.6h.2l.9-.8c.1,0,.1-.1.1-.2s-.1-.4-.2-.6-.1-.1-.2-.1h-.1l-1,.9v.3h0c0,.1.1.3.1.4h.2Zm-4-.4h0l.2-.2h0a.4.4,0,0,1,.1-.3v-.2l-.8-.9c0-.1-.1-.1-.2-.1a.1.1,0,0,0-.1.1,1.4,1.4,0,0,0-.2.6c-.1,0,0,.1,0,.2l.8.7Zm2-.2h.2v-.2h.1a.1.1,0,0,0,.1-.1h.1v-.2h-.3v-.2c0-.1,0-.1-.1-.1h-.2c-.1-.1-.1,0-.1.1h-.2c-.1,0-.1.1-.1.2H11a.1.1,0,0,0,.1.1h.2v.2h.3Zm-.1-.2Zm.4-.2Zm-.7-.1Zm.8,0Zm-.8-.1Zm2,.1h.2l.8-1.1v-.2l-.5-.6h-.3L12.7,18v.2c.2.1.2.3.3.4ZM10,18.4h.2a.5.5,0,0,1,.2-.4c.1-.1.1-.1.1-.2L10,16.5c0-.1,0-.1-.1-.1H9.7l-.5.6v.2l.6,1.1Zm2.4-.6h.1a.1.1,0,0,0,.1-.1l.4-1.3c.1-.1,0-.2,0-.3l-.7-.2H12l-.3,1.3.2.3h0l.4.2Zm-1.6-.2a.1.1,0,0,0,.1-.1c.2,0,.3-.1.5,0s.1,0,.1-.1h.1V15.9h-.1c0-.1,0-.1-.1-.1h0l-.9.2c-.1,0-.1.1-.1.2l.2,1.3a15922629181314.4,15922629181314.4,0,0,0,.2.2Zm.6-.3Zm0,0Z" fill="#1a2026"/>
        </g>
      </g>
    </g>
  </g>
</svg>
