<svg xmlns="http://www.w3.org/2000/svg" viewBox="0 0 22.98 31.86"><defs><style>.cls-1{fill:#1a2026;}</style></defs><title>Spoor</title><g id="Layer_2" data-name="Layer 2"><g id="Layer_1-2" data-name="Layer 1"><path class="cls-1" d="M6.16,23.85h0a3.06,3.06,0,0,1-2.06-.8.31.31,0,0,1,0-.4L5,21.37a.34.34,0,0,1,.23-.13.34.34,0,0,1,.25.11h0a1.15,1.15,0,0,0,.75.39.31.31,0,0,1,.28.31v1.49a.32.32,0,0,1-.1.22A.31.31,0,0,1,6.16,23.85Zm1-.1A.26.26,0,0,1,7,23.7a.3.3,0,0,1-.13-.2L6.64,22a.32.32,0,0,1,.22-.35,1.14,1.14,0,0,0,.67-.51A.36.36,0,0,1,7.76,21a.28.28,0,0,1,.25.09L9.13,22.2a.32.32,0,0,1,0,.41,3.09,3.09,0,0,1-1.9,1.14ZM3.64,22.2H3.58A.29.29,0,0,1,3.36,22a6,6,0,0,1-.49-1.63A.31.31,0,0,1,3.08,20l1.4-.44a.35.35,0,0,1,.26,0,.29.29,0,0,1,.14.21,4.32,4.32,0,0,0,.2.84A.3.3,0,0,1,5,21l-1.15,1.1A.29.29,0,0,1,3.64,22.2Zm5.77-.51a.41.41,0,0,1-.18-.05l-1.31-.88a.3.3,0,0,1-.14-.31,4.52,4.52,0,0,0,0-.86.3.3,0,0,1,.11-.23.29.29,0,0,1,.25-.08l1.45.19a.31.31,0,0,1,.27.31,6.58,6.58,0,0,1-.2,1.69.31.31,0,0,1-.19.2A.23.23,0,0,1,9.41,21.69Zm-3.07-.34a.2.2,0,0,1-.14-.06.17.17,0,0,1-.07-.14l0-.24-.24,0h0a.22.22,0,0,1-.22-.2l0-.27a.21.21,0,0,1,.19-.23l.24,0L6,20a.19.19,0,0,1,0-.16.19.19,0,0,1,.14-.07l.27,0a.23.23,0,0,1,.24.2l0,.23.23,0a.22.22,0,0,1,.23.2l0,.27a.21.21,0,0,1-.2.23l-.23,0,0,.24a.21.21,0,0,1,0,.15.19.19,0,0,1-.15.08l-.27,0Zm0-.25Zm.27,0Zm-.51-.19h0Zm-.23-.43Zm.88-.26ZM6.25,20h0Zm.23-.06ZM3,19.6a.32.32,0,0,1-.2-.07.3.3,0,0,1-.11-.22c0-.31,0-.64,0-1a.33.33,0,0,1,.1-.24A.33.33,0,0,1,3,18l1.48.16a.31.31,0,0,1,.27.3h0l0,.64a.31.31,0,0,1-.27.33l-1.46.18Zm3.11-.41a.22.22,0,0,1-.21-.2l0-.23-.24,0h0a.22.22,0,0,1-.21-.2l0-.27a.21.21,0,0,1,.19-.23l.24,0,0-.24a.17.17,0,0,1,0-.15A.17.17,0,0,1,6,17.59l.27,0a.18.18,0,0,1,.16.05.25.25,0,0,1,.08.14l0,.24.23,0A.24.24,0,0,1,7,18a.28.28,0,0,1,.08.15l0,.27a.21.21,0,0,1-.19.23l-.24,0,0,.24a.21.21,0,0,1-.2.23l-.27,0Zm0-.22Zm.23-.06Zm-.5-.19Zm.66,0Zm-.92-.17Zm1.14-.07Zm0-.24ZM6.56,18h0Zm-.5-.18Zm.23-.06Zm1.8,1.33a.31.31,0,0,1-.31-.28c0-.21,0-.42-.09-.63a.32.32,0,0,1,.22-.35l1.43-.41a.31.31,0,0,1,.25,0,.28.28,0,0,1,.14.21c.06.37.1.69.13,1a.31.31,0,0,1-.08.23.33.33,0,0,1-.21.11l-1.47.08Zm-5.23-3a.31.31,0,0,1-.29-.21q-.1-.3-.24-.63a.36.36,0,0,1,0-.25.35.35,0,0,1,.18-.16l1.39-.51a.3.3,0,0,1,.39.18c.09.22.18.44.25.66a.3.3,0,0,1-.19.39h0L3.24,16l-.27.1Zm6.23-.56H9c-.3,0-.86-.12-1.51-.23A.31.31,0,0,1,7.27,15a6.59,6.59,0,0,1,0-.77.3.3,0,0,1,.36-.29h0l1.47.26a.32.32,0,0,1,.26.31,4.72,4.72,0,0,0,0,.65.28.28,0,0,1-.09.26A.27.27,0,0,1,9.09,15.51ZM6,14.66a.18.18,0,0,1-.13-.05.2.2,0,0,1-.08-.14l0-.24-.23,0a.22.22,0,0,1-.16-.05.22.22,0,0,1-.08-.15l0-.26a.22.22,0,0,1,.18-.24l.25,0,0-.23a.22.22,0,0,1,.2-.24l.26,0a.22.22,0,0,1,.16.05.22.22,0,0,1,.08.15l0,.23.24,0a.23.23,0,0,1,.23.2l0,.27a.17.17,0,0,1,0,.15.22.22,0,0,1-.15.08l-.23,0,0,.24a.22.22,0,0,1-.19.23l-.28,0Zm0-.25Zm-.23-.21Zm.7-.07ZM5.54,14Zm1.13-.13Zm-1.15-.14Zm1.1-.09Zm-.26-.2Zm-.46-.16Zm.23-.05h0Zm-4,1.13a.33.33,0,0,1-.28-.17l-.31-.59a.31.31,0,0,1,0-.28.3.3,0,0,1,.22-.17l1.5-.34a.31.31,0,0,1,.34.16c.12.22.23.45.35.69a.34.34,0,0,1,0,.28.33.33,0,0,1-.22.16l-1.53.25Zm5.55-.67a.32.32,0,0,1-.24-.11.35.35,0,0,1-.07-.26h0q.09-.43.24-.93a.29.29,0,0,1,.32-.21l1.51.14a.33.33,0,0,1,.23.14.29.29,0,0,1,0,.26,6.29,6.29,0,0,0-.2.72.31.31,0,0,1-.3.23l-1.52,0Zm-2.6-.91a.21.21,0,0,1-.21-.19l0-.24-.24,0a.2.2,0,0,1-.15-.05.17.17,0,0,1-.08-.14l0-.27a.23.23,0,0,1,0-.16.21.21,0,0,1,.15-.07l.24,0,0-.23a.22.22,0,0,1,.2-.23l.27,0a.22.22,0,0,1,.23.2l0,.23.24,0a.24.24,0,0,1,.23.2l0,.27a.33.33,0,0,1-.05.16.21.21,0,0,1-.15.07l-.23,0,0,.24a.21.21,0,0,1-.2.23l-.27,0Zm0-.21Zm.23-.06Zm-.47-.16Zm-.25-.19Zm1.13-.14ZM4.57,12Zm.25-.27Zm.67,0ZM1.24,12.74A.32.32,0,0,1,1,12.57c-.09-.17-.17-.35-.25-.52a.31.31,0,0,1,0-.28A.31.31,0,0,1,1,11.61l1.58-.14a.31.31,0,0,1,.3.17c.12.24.26.49.41.75a.21.21,0,0,1,0,.19.19.19,0,0,1-.16.09l-1.84.07ZM3,12.51ZM8.17,12a.3.3,0,0,1-.24-.12.28.28,0,0,1,0-.29l.06-.16.21-.61a.3.3,0,0,1,.29-.21H10a.31.31,0,0,1,.25.13.3.3,0,0,1,0,.27c-.07.22-.14.44-.21.64a.3.3,0,0,1-.26.21L8.2,12Zm-6-.78h0l-1.6-.15a.3.3,0,0,1-.27-.23A6.25,6.25,0,0,1,.1,10a.29.29,0,0,1,.09-.25.27.27,0,0,1,.22-.1h0l1.51.09a.33.33,0,0,1,.29.25h0a4.33,4.33,0,0,0,.24.83.29.29,0,0,1-.05.3A.27.27,0,0,1,2.18,11.24Zm4.51-.17a.23.23,0,0,1-.22-.2v-.23l-.24,0a.3.3,0,0,1-.16-.05A.21.21,0,0,1,6,10.46l0-.27a.21.21,0,0,1,.2-.23l.23,0,0-.24a.3.3,0,0,1,0-.16.21.21,0,0,1,.15-.07l.27,0A.38.38,0,0,1,7,9.49a.19.19,0,0,1,.08.15l0,.24.24,0a.23.23,0,0,1,.23.2l0,.27a.21.21,0,0,1-.19.23l-.24,0,0,.24A.21.21,0,0,1,7,11l-.27,0Zm0-.22Zm-.27-.25Zm.7-.06Zm-.92-.1h0Zm1.14-.14Zm-.94-.37Zm.66,0h0Zm-.27-.25ZM3.83,11a.22.22,0,0,1-.21-.2l0-.24-.24,0h0a.22.22,0,0,1-.21-.2l0-.27a.21.21,0,0,1,.2-.23l.23,0,0-.24a.3.3,0,0,1,.05-.16.21.21,0,0,1,.15-.07l.27,0a.23.23,0,0,1,.23.2l0,.23.24,0a.43.43,0,0,1,.16.05A.21.21,0,0,1,4.7,10l0,.27a.21.21,0,0,1-.19.23l-.24,0,0,.24a.21.21,0,0,1-.19.23l-.27,0Zm-.24-.47Zm.92-.3ZM3.35,10.1Zm.38-.45Zm.27,0Zm4.68.79a.31.31,0,0,1-.22-.09A.34.34,0,0,1,8.38,10h0a6.42,6.42,0,0,0,.14-.74A.31.31,0,0,1,8.78,9l1.51-.2a.33.33,0,0,1,.25.08.35.35,0,0,1,.1.25c0,.24-.05.47-.09.7a.32.32,0,0,1-.24.26l-1.57.3ZM1.83,9.47H1.75L.25,9.08A.31.31,0,0,1,0,8.79c0-.27,0-.54,0-.85A.33.33,0,0,1,.12,7.7a.3.3,0,0,1,.27,0L1.92,8a.31.31,0,0,1,.23.31h0a7.15,7.15,0,0,0,0,.8A.3.3,0,0,1,2,9.4.26.26,0,0,1,1.83,9.47ZM3.42,9.1a.21.21,0,0,1-.21-.19l0-.24L3,8.69a.21.21,0,0,1-.23-.19l0-.27A.22.22,0,0,1,2.89,8l.24,0,0-.23a.22.22,0,0,1,.2-.23l.27,0a.24.24,0,0,1,.16,0,.21.21,0,0,1,.07.15l0,.23.24,0h0a.22.22,0,0,1,.22.2l0,.27a.25.25,0,0,1-.05.15.19.19,0,0,1-.15.08l-.23,0,0,.24A.27.27,0,0,1,3.86,9a.19.19,0,0,1-.15.08l-.27,0Zm0-.21Zm.23-.06Zm.19-.25Zm.22-.24ZM4,8.11ZM3.83,8ZM3.55,7.7ZM7,9.09a.22.22,0,0,1-.22-.19l0-.24-.23,0h0a.23.23,0,0,1-.22-.2l0-.27a.21.21,0,0,1,0-.15A.22.22,0,0,1,6.44,8l.23,0,0-.24a.21.21,0,0,1,0-.15.28.28,0,0,1,.15-.08l.27,0a.21.21,0,0,1,.23.19l0,.24.24,0a.16.16,0,0,1,.15,0,.22.22,0,0,1,.08.15l0,.26a.18.18,0,0,1-.05.16.22.22,0,0,1-.15.08l-.24,0,0,.23a.22.22,0,0,1-.19.24L7,9.09Zm.23-.24Zm-.47-.23Zm-.27-.39ZM6.71,8Zm.16-.22Zm2,1a.28.28,0,0,1-.18-.06.31.31,0,0,1-.13-.25c0-.27,0-.52,0-.77v0a.3.3,0,0,1,.21-.31l1.44-.46a.3.3,0,0,1,.26,0,.31.31,0,0,1,.14.23h0l0,.37a3.4,3.4,0,0,1,0,.45.3.3,0,0,1-.21.31L9,8.77Zm-7-1a.28.28,0,0,1-.13,0L.24,7a.31.31,0,0,1-.18-.31c0-.29.07-.58.11-.87a.32.32,0,0,1,.17-.22.31.31,0,0,1,.28,0l1.56.82a.32.32,0,0,1,.16.33c0,.23-.09.47-.12.73a.33.33,0,0,1-.15.23A.28.28,0,0,1,1.92,7.77Zm4.43-.58a.19.19,0,0,1-.14-.05A.19.19,0,0,1,6.14,7l0-.24-.24,0a.22.22,0,0,1-.23-.2l0-.26a.22.22,0,0,1,0-.16.28.28,0,0,1,.15-.08l.23,0,0-.23a.22.22,0,0,1,.2-.24l.27,0a.25.25,0,0,1,.16,0,.21.21,0,0,1,.07.15l0,.23L7,6a.2.2,0,0,1,.15,0,.19.19,0,0,1,.08.15l0,.27a.27.27,0,0,1,0,.15.22.22,0,0,1-.15.08l-.24,0,0,.23a.22.22,0,0,1-.19.24l-.27,0Zm0-.22h0Zm.4-.27ZM5.9,6.56ZM7,6.43Zm-1.19-.1ZM7,6.23Zm-.92-.17ZM6.72,6Zm-.47-.16Zm.23,0ZM4,7.13a.22.22,0,0,1-.21-.2l0-.23-.23,0a.33.33,0,0,1-.16,0,.21.21,0,0,1-.07-.15l0-.27A.21.21,0,0,1,3.46,6l.23,0,0-.24a.3.3,0,0,1,.05-.16.21.21,0,0,1,.15-.07l.27,0a.25.25,0,0,1,.15,0,.19.19,0,0,1,.08.15l0,.24.24,0a.2.2,0,0,1,.23.19l0,.27a.21.21,0,0,1-.19.23l-.24,0,0,.24a.2.2,0,0,1,0,.15.19.19,0,0,1-.15.08L4,7.13Zm.27-.28h0ZM3.54,6.5Zm1.09-.1Zm0-.27ZM4.39,6Zm-.27-.25Zm4.63,1.4a.32.32,0,0,1-.14,0,.31.31,0,0,1-.17-.23h0c0-.23-.07-.44-.11-.66a.29.29,0,0,1,.14-.32L9.81,5a.28.28,0,0,1,.28,0,.32.32,0,0,1,.19.22q.08.38.15.78a.32.32,0,0,1-.16.33l-1.38.75A.32.32,0,0,1,8.75,7.12Zm-6.51-1a.31.31,0,0,1-.19-.06L.56,4.89a.32.32,0,0,1-.11-.33c.1-.32.2-.63.32-.92A.3.3,0,0,1,1,3.45a.32.32,0,0,1,.28.08L2.68,4.91a.32.32,0,0,1,.08.33h0a6.76,6.76,0,0,0-.22.68.32.32,0,0,1-.21.21Zm6.18-.57H8.34a.31.31,0,0,1-.22-.22h0a4.75,4.75,0,0,0-.18-.57.31.31,0,0,1,0-.31L9.11,3.11A.33.33,0,0,1,9.39,3a.31.31,0,0,1,.24.19c.12.27.22.55.32.84a.32.32,0,0,1-.09.32L8.63,5.49A.3.3,0,0,1,8.42,5.57ZM5.28,5.33a.21.21,0,0,1-.21-.19l0-.24-.24,0a.19.19,0,0,1-.16,0,.19.19,0,0,1-.07-.14l0-.27a.3.3,0,0,1,0-.16.28.28,0,0,1,.15-.08L5,4.2,5,4a.21.21,0,0,1,.2-.23l.27,0a.2.2,0,0,1,.23.2l0,.23.24,0a.22.22,0,0,1,.23.2l0,.27a.2.2,0,0,1,0,.16A.17.17,0,0,1,6,4.82l-.24,0,0,.24a.2.2,0,0,1,0,.16.19.19,0,0,1-.14.07l-.27,0Zm.27-.27Zm-.72-.35ZM6,4.57Zm-1.19-.1ZM5.9,4.34Zm-3,.22a.32.32,0,0,1-.26-.13L1.43,2.73a.3.3,0,0,1,0-.35,6.36,6.36,0,0,1,.72-.89A.32.32,0,0,1,2.4,1.4a.33.33,0,0,1,.23.16l1,1.85a.32.32,0,0,1,0,.35,5.14,5.14,0,0,0-.44.64.29.29,0,0,1-.25.16ZM7.8,4a.32.32,0,0,1-.27-.16h0a2.78,2.78,0,0,0-.41-.57A.34.34,0,0,1,7.06,3l.65-1.83A.3.3,0,0,1,7.93,1,.32.32,0,0,1,8.21,1,5.11,5.11,0,0,1,9,1.93a.31.31,0,0,1,0,.32l-.9,1.63A.33.33,0,0,1,7.81,4ZM4.05,3.2H4A.31.31,0,0,1,3.76,3L3.13,1A.31.31,0,0,1,3.28.63,4.71,4.71,0,0,1,4.34.2a.29.29,0,0,1,.24,0,.31.31,0,0,1,.14.2l.42,2a.31.31,0,0,1-.21.36h0a2.45,2.45,0,0,0-.7.36A.35.35,0,0,1,4.05,3.2Zm2.49-.4-.12,0a1.79,1.79,0,0,0-.83-.13.26.26,0,0,1-.15,0,.2.2,0,0,1-.06-.14l0-2.15A.32.32,0,0,1,5.42.09.36.36,0,0,1,5.64,0H5.7A3.56,3.56,0,0,1,7,.23a.31.31,0,0,1,.19.34l-.31,2a.31.31,0,0,1-.15.23Zm-.91-.34ZM5.56,2.4Z"/><path class="cls-1" d="M16.83,31.86h0a3,3,0,0,0,2.07-.79.32.32,0,0,0,0-.41L18,29.39a.34.34,0,0,0-.24-.13.3.3,0,0,0-.24.11h0a1.22,1.22,0,0,1-.76.39.31.31,0,0,0-.27.31v1.49a.31.31,0,0,0,.09.22A.35.35,0,0,0,16.83,31.86Zm-1.06-.09a.35.35,0,0,0,.18-.05.34.34,0,0,0,.13-.2l.27-1.47a.31.31,0,0,0-.22-.35,1.18,1.18,0,0,1-.68-.51.31.31,0,0,0-.22-.15.3.3,0,0,0-.26.09l-1.12,1.09a.31.31,0,0,0,0,.4,3,3,0,0,0,1.89,1.15Zm3.58-1.56h0a.33.33,0,0,0,.23-.17,6.54,6.54,0,0,0,.49-1.63.31.31,0,0,0-.21-.35l-1.41-.44a.28.28,0,0,0-.25,0,.26.26,0,0,0-.14.21,4.82,4.82,0,0,1-.2.83A.29.29,0,0,0,18,29l1.15,1.1A.3.3,0,0,0,19.35,30.21Zm-5.77-.5a.34.34,0,0,0,.17-.05l1.32-.88a.31.31,0,0,0,.13-.31,4.52,4.52,0,0,1,0-.86.33.33,0,0,0-.1-.23.3.3,0,0,0-.25-.08l-1.45.19a.3.3,0,0,0-.27.31,6.1,6.1,0,0,0,.2,1.68.31.31,0,0,0,.19.21Zm3.06-.35a.19.19,0,0,0,.14-.05.25.25,0,0,0,.08-.14l0-.24.23,0h0a.21.21,0,0,0,.22-.19l0-.27a.23.23,0,0,0-.19-.24l-.24,0L17,28a.22.22,0,0,0-.05-.16.28.28,0,0,0-.15-.08l-.27,0a.23.23,0,0,0-.23.2l0,.23-.24,0a.22.22,0,0,0-.23.2l0,.27a.21.21,0,0,0,.19.23l.24,0,0,.23a.22.22,0,0,0,0,.16.28.28,0,0,0,.15.08l.27,0Zm0-.25Zm-.27,0Zm.5-.19Zm.24-.44Zm-.88-.25Zm.5-.2ZM16.51,28ZM20,27.62a.32.32,0,0,0,.2-.08.31.31,0,0,0,.11-.21c0-.31,0-.64,0-1a.35.35,0,0,0-.1-.24A.31.31,0,0,0,20,26l-1.48.16a.31.31,0,0,0-.28.3h0c0,.22,0,.43,0,.64a.32.32,0,0,0,.28.33l1.45.17Zm-3.12-.42a.19.19,0,0,0,.14-.05.22.22,0,0,0,.08-.14l0-.24.23,0h0a.21.21,0,0,0,.21-.19l0-.27a.21.21,0,0,0-.2-.23l-.23,0,0-.23a.24.24,0,0,0,0-.16.21.21,0,0,0-.15-.07l-.27,0a.28.28,0,0,0-.16.05.21.21,0,0,0-.07.15l0,.23-.24,0A.21.21,0,0,0,16,26a.19.19,0,0,0-.08.15l0,.27a.22.22,0,0,0,.18.23l.25,0,0,.24a.21.21,0,0,0,.19.23l.27,0Zm0-.21Zm-.24-.06Zm.51-.19Zm-.67,0h0Zm.92-.17Zm-1.14-.06Zm0-.24Zm.26-.2h0Zm.5-.18Zm-.23-.06Zm-1.8,1.33a.31.31,0,0,0,.31-.28c0-.21,0-.42.08-.63a.31.31,0,0,0-.22-.35l-1.42-.41a.34.34,0,0,0-.26,0,.37.37,0,0,0-.14.22c-.05.37-.09.69-.12,1a.32.32,0,0,0,.07.23.33.33,0,0,0,.22.11l1.46.08Zm5.22-3.05a.31.31,0,0,0,.3-.21,5.67,5.67,0,0,1,.24-.63.29.29,0,0,0,0-.24.29.29,0,0,0-.17-.17l-1.39-.5a.32.32,0,0,0-.4.17c-.09.23-.17.45-.25.67a.31.31,0,0,0,.19.39h0l1.12.41.27.09A.18.18,0,0,0,20.12,24.08Zm-6.22-.55h0l1.51-.23a.3.3,0,0,0,.26-.28,6.62,6.62,0,0,0,0-.77A.35.35,0,0,0,15.6,22a.29.29,0,0,0-.25-.06h0l-1.47.26a.3.3,0,0,0-.25.31,4.82,4.82,0,0,1,0,.65.31.31,0,0,0,.31.35ZM17,22.68a.24.24,0,0,0,.14-.05.21.21,0,0,0,.07-.15l0-.23.24,0a.24.24,0,0,0,.16-.05.21.21,0,0,0,.07-.15l0-.27a.22.22,0,0,0-.19-.23l-.24,0,0-.23a.22.22,0,0,0-.2-.24l-.27,0a.2.2,0,0,0-.16.05.19.19,0,0,0-.07.14l0,.24-.25,0a.22.22,0,0,0-.22.2l0,.26a.22.22,0,0,0,0,.16.28.28,0,0,0,.15.08l.23,0,0,.23a.24.24,0,0,0,.2.24l.27,0Zm0-.25Zm.24-.22Zm-.7-.06Zm.91-.1Zm-1.13-.13Zm1.16-.14Zm-1.1-.09Zm.25-.2Zm.47-.16Zm-.23,0Zm4,1.12a.3.3,0,0,0,.27-.16c.11-.2.21-.4.32-.59a.31.31,0,0,0,0-.28.3.3,0,0,0-.21-.17l-1.5-.34a.3.3,0,0,0-.34.15c-.12.22-.24.45-.36.7a.29.29,0,0,0,0,.27.3.3,0,0,0,.22.17l1.53.25Zm-5.55-.66a.28.28,0,0,0,.23-.11.31.31,0,0,0,.07-.26h0c-.06-.3-.13-.6-.23-.93a.32.32,0,0,0-.33-.22l-1.5.15a.26.26,0,0,0-.23.13.32.32,0,0,0,0,.27,7.18,7.18,0,0,1,.21.71.31.31,0,0,0,.3.24l1.51,0Zm2.59-.91a.22.22,0,0,0,.22-.2l0-.23.23,0a.22.22,0,0,0,.16-.05.28.28,0,0,0,.08-.15l0-.26a.22.22,0,0,0-.05-.16.22.22,0,0,0-.15-.08l-.23,0,0-.23a.23.23,0,0,0-.19-.24l-.28,0a.23.23,0,0,0-.23.2l0,.23-.23,0a.24.24,0,0,0-.24.2l0,.27a.17.17,0,0,0,0,.15.22.22,0,0,0,.15.08l.23,0,0,.23a.22.22,0,0,0,.2.24l.27,0Zm0-.22Zm-.23-.05Zm.46-.16Zm.26-.2Zm-1.13-.13Zm1.18-.1Zm-.24-.27Zm-.67,0Zm4.24,1.08a.32.32,0,0,0,.28-.17c.09-.17.18-.35.26-.52a.33.33,0,0,0,0-.29.33.33,0,0,0-.24-.15l-1.57-.14a.29.29,0,0,0-.3.16l-.41.76a.19.19,0,0,0,0,.18.2.2,0,0,0,.15.1l1.85.07ZM20,20.53ZM14.81,20a.3.3,0,0,0,.25-.12.34.34,0,0,0,0-.29l-.06-.16-.21-.61a.31.31,0,0,0-.29-.21H13a.3.3,0,0,0-.25.13.29.29,0,0,0-.05.27c.06.22.13.43.2.64a.31.31,0,0,0,.27.21l1.62.15Zm6-.78h0l1.6-.15a.34.34,0,0,0,.27-.23,8.17,8.17,0,0,0,.17-.86.34.34,0,0,0-.08-.26.32.32,0,0,0-.23-.09h0L21,17.76a.31.31,0,0,0-.28.25h0a4.33,4.33,0,0,1-.24.83.32.32,0,0,0,0,.3A.3.3,0,0,0,20.8,19.26Zm-4.51-.18a.21.21,0,0,0,.22-.19l0-.24.24,0a.26.26,0,0,0,.15,0,.22.22,0,0,0,.08-.15l0-.27a.22.22,0,0,0-.19-.24l-.24,0,0-.23a.18.18,0,0,0-.05-.16.21.21,0,0,0-.14-.07l-.27,0a.22.22,0,0,0-.16.05.28.28,0,0,0-.08.15l0,.23-.23,0a.23.23,0,0,0-.23.2l0,.27a.21.21,0,0,0,.2.23l.23,0,0,.24a.21.21,0,0,0,.2.23l.27,0Zm0-.21Zm.27-.25Zm-.69-.06Zm.91-.1Zm-1.13-.14Zm.94-.37Zm-.67,0Zm.27-.25Zm3,1.33a.22.22,0,0,0,.22-.19l0-.24.23,0h0a.22.22,0,0,0,.22-.19l0-.27a.22.22,0,0,0-.19-.24l-.24,0,0-.23a.18.18,0,0,0,0-.16.21.21,0,0,0-.15-.07l-.26,0a.22.22,0,0,0-.24.2l0,.23-.23,0a.38.38,0,0,0-.16.05.22.22,0,0,0-.08.15l0,.27a.21.21,0,0,0,.2.23l.23,0,0,.24a.22.22,0,0,0,.19.23l.28,0Zm.24-.46h0Zm-.91-.3Zm1.15-.13Zm-.38-.46h0Zm-.27,0Zm-4.68.79a.28.28,0,0,0,.22-.09.29.29,0,0,0,.08-.29h0a6.37,6.37,0,0,1-.13-.74A.32.32,0,0,0,14.2,17l-1.5-.2a.34.34,0,0,0-.26.08.29.29,0,0,0-.09.25c0,.23,0,.47.08.7a.3.3,0,0,0,.25.25l1.56.31Zm6.86-.94h.07l1.51-.38a.31.31,0,0,0,.23-.29c0-.27,0-.55,0-.85a.29.29,0,0,0-.12-.24.3.3,0,0,0-.26-.06l-1.53.4a.29.29,0,0,0-.23.31h0c0,.27,0,.54,0,.8a.33.33,0,0,0,.11.25A.37.37,0,0,0,21.16,17.49Zm-1.6-.37a.22.22,0,0,0,.22-.2l0-.23.23,0a.24.24,0,0,0,.24-.19l0-.27A.22.22,0,0,0,20.1,16l-.24,0,0-.24a.22.22,0,0,0-.2-.23l-.27,0a.21.21,0,0,0-.15.05.2.2,0,0,0-.08.15l0,.23-.23,0h0a.23.23,0,0,0-.22.2l0,.27a.17.17,0,0,0,0,.15.22.22,0,0,0,.15.08l.23,0,0,.23a.18.18,0,0,0,.05.16.22.22,0,0,0,.15.08l.26,0Zm0-.22Zm-.23,0Zm-.2-.26Zm-.21-.23Zm.05-.23Zm.22-.17Zm.27-.24ZM16,17.11a.21.21,0,0,0,.22-.2l0-.23.24,0h0a.23.23,0,0,0,.22-.2l0-.27a.2.2,0,0,0,0-.16.19.19,0,0,0-.14-.07l-.24,0,0-.24a.2.2,0,0,0,0-.15.19.19,0,0,0-.15-.08l-.27,0a.21.21,0,0,0-.23.19l0,.24-.23,0a.18.18,0,0,0-.16,0,.19.19,0,0,0-.07.14l0,.27a.28.28,0,0,0,.05.16.19.19,0,0,0,.15.07l.24,0,0,.23a.21.21,0,0,0,.2.23l.27,0Zm-.23-.24Zm.48-.23h0Zm.27-.39ZM16.28,16Zm-.17-.22h0Zm-2,1a.32.32,0,0,0,.32-.32,6.35,6.35,0,0,1,0-.76v0a.31.31,0,0,0-.21-.31l-1.44-.47a.35.35,0,0,0-.26,0,.3.3,0,0,0-.14.22h0c0,.12,0,.24,0,.37l0,.45a.31.31,0,0,0,.21.31l1.47.48Zm7-1a.31.31,0,0,0,.13,0L22.74,15a.31.31,0,0,0,.18-.31c0-.29-.06-.58-.11-.87a.3.3,0,0,0-.45-.22l-1.55.82a.3.3,0,0,0-.16.33c0,.23.08.47.11.73a.31.31,0,0,0,.16.23A.37.37,0,0,0,21.07,15.79Zm-4.43-.58a.24.24,0,0,0,.13-.05.22.22,0,0,0,.08-.15l0-.23.23,0a.23.23,0,0,0,.24-.2l0-.27a.17.17,0,0,0-.05-.15.2.2,0,0,0-.15-.08l-.23,0,0-.24a.17.17,0,0,0-.05-.15.22.22,0,0,0-.15-.08l-.27,0a.21.21,0,0,0-.15.05.2.2,0,0,0-.08.15l0,.23L16,14a.22.22,0,0,0-.16.05.25.25,0,0,0-.08.14l0,.27a.18.18,0,0,0,0,.16.22.22,0,0,0,.15.08l.23,0,0,.23a.23.23,0,0,0,.2.24l.27,0Zm0-.22Zm-.4-.27Zm.89-.14ZM16,14.45Zm1.18-.1ZM16,14.25Zm.93-.17ZM16.27,14Zm.46-.16Zm-.23,0ZM19,15.14a.21.21,0,0,0,.22-.19l0-.24.24,0a.17.17,0,0,0,.15-.05.2.2,0,0,0,.08-.14l0-.27a.21.21,0,0,0-.19-.23l-.24,0,0-.23a.19.19,0,0,0,0-.16.19.19,0,0,0-.14-.07l-.27,0a.25.25,0,0,0-.16.05.28.28,0,0,0-.08.15l0,.23-.23,0a.2.2,0,0,0-.23.2l0,.27a.22.22,0,0,0,.2.23l.23,0,0,.24a.21.21,0,0,0,0,.15.22.22,0,0,0,.15.08l.27,0Zm-.26-.27Zm.72-.36Zm-1.1-.09Zm0-.27h0Zm.21-.16Zm.27-.25Zm-4.62,1.4a.35.35,0,0,0,.14,0,.33.33,0,0,0,.17-.23h0a6.49,6.49,0,0,1,.11-.66.33.33,0,0,0-.14-.33l-1.34-.84a.33.33,0,0,0-.29,0,.31.31,0,0,0-.18.22c-.06.25-.11.51-.16.78a.3.3,0,0,0,.16.32l1.38.75A.28.28,0,0,0,14.24,15.14Zm6.51-1a.3.3,0,0,0,.19-.07l1.49-1.18a.34.34,0,0,0,.1-.33,7.63,7.63,0,0,0-.32-.92.28.28,0,0,0-.22-.19.32.32,0,0,0-.28.08L20.3,12.93a.29.29,0,0,0-.07.33h0c.08.21.15.44.22.67a.3.3,0,0,0,.2.21Zm-6.19-.58h.08a.34.34,0,0,0,.22-.22h0c.06-.2.12-.4.18-.58a.3.3,0,0,0,0-.3l-1.11-1.35A.29.29,0,0,0,13.6,11a.34.34,0,0,0-.25.18c-.11.27-.22.56-.31.84a.31.31,0,0,0,.08.33l1.23,1.13A.29.29,0,0,0,14.56,13.58Zm3.14-.23a.22.22,0,0,0,.22-.19l0-.24.23,0a.18.18,0,0,0,.16,0,.22.22,0,0,0,.08-.15l0-.26a.18.18,0,0,0-.05-.16.22.22,0,0,0-.15-.08l-.23,0L18,12a.23.23,0,0,0-.19-.24l-.27,0a.2.2,0,0,0-.24.19l0,.24-.23,0a.23.23,0,0,0-.24.2l0,.27a.21.21,0,0,0,.05.15.22.22,0,0,0,.15.08l.23,0,0,.23a.22.22,0,0,0,.05.16.22.22,0,0,0,.15.08l.26,0Zm-.26-.27Zm.72-.36ZM17,12.59Zm1.18-.1Zm-1.13-.13Zm3,.22a.3.3,0,0,0,.25-.13l1.2-1.7a.32.32,0,0,0,0-.35,5.24,5.24,0,0,0-.71-.89.33.33,0,0,0-.27-.09.35.35,0,0,0-.23.16l-1,1.85a.3.3,0,0,0,0,.34,4.35,4.35,0,0,1,.44.65.33.33,0,0,0,.25.16Zm-4.93-.53a.29.29,0,0,0,.27-.15h0a3.73,3.73,0,0,1,.41-.58.29.29,0,0,0,.06-.31l-.64-1.83a.31.31,0,0,0-.51-.12A5.55,5.55,0,0,0,14,10a.31.31,0,0,0,0,.32l.9,1.62a.32.32,0,0,0,.27.16Zm3.75-.83a.16.16,0,0,0,.1,0,.31.31,0,0,0,.2-.2l.62-2a.29.29,0,0,0-.14-.36,4.45,4.45,0,0,0-1.06-.43.32.32,0,0,0-.25,0,.32.32,0,0,0-.14.2l-.41,2a.3.3,0,0,0,.2.36h0a2.33,2.33,0,0,1,.7.36A.41.41,0,0,0,18.93,11.22Zm-2.48-.4a.27.27,0,0,0,.12,0,1.75,1.75,0,0,1,.82-.12.21.21,0,0,0,.15-.05.17.17,0,0,0,.07-.14l0-2.15a.31.31,0,0,0-.09-.22A.27.27,0,0,0,17.35,8h-.06A3.35,3.35,0,0,0,16,8.25a.3.3,0,0,0-.2.33l.31,2a.3.3,0,0,0,.16.22A.28.28,0,0,0,16.45,10.82Zm.91-.34Zm.06-.06Z"/></g></g></svg>