<svg xmlns="http://www.w3.org/2000/svg" viewBox="0 0 44.28 30.2"><defs><style>.a{fill:#010101;}</style></defs><path class="a" d="M44.26,28.62a3.63,3.63,0,0,1,0-.93,2.08,2.08,0,0,0-.14-.75c-.06-.19-.2-.34-.26-.53s-.18-.5-.26-.76a8.24,8.24,0,0,0-.34-1.1s0-.08,0-.12A4,4,0,0,0,42.87,23a.59.59,0,0,0-.3-.32,7,7,0,0,1-1-.66c-.17-.12-.29-.3-.46-.4a2.27,2.27,0,0,1-.68-.59,2.59,2.59,0,0,1-.53-.86,2.53,2.53,0,0,0-.43-.89,9.77,9.77,0,0,1-1.09-1.74,1.13,1.13,0,0,0-.12-.21,3.06,3.06,0,0,1-.37-.92,1.77,1.77,0,0,1,0-.65c.06-.57-.09-1.14,0-1.71a.5.5,0,0,0,0-.12,6.21,6.21,0,0,0-.34-1.19c-.2-.47-.35-1-.59-1.43a3.33,3.33,0,0,0-.93-1.21A7.53,7.53,0,0,1,35,9.41,2.18,2.18,0,0,0,34.54,9a4.53,4.53,0,0,1-.84-.59,16.32,16.32,0,0,0-1.81-1.27c-.25-.17-.52-.33-.79-.48s-.6-.3-.89-.46a8.25,8.25,0,0,0-1.41-.59,15.17,15.17,0,0,0-2.69-.49c-.87-.14-1.73-.3-2.58-.52A12.26,12.26,0,0,0,21,4.33a26.81,26.81,0,0,1-2.83-.26c-.82-.13-1.65-.17-2.48-.22a29.2,29.2,0,0,1-3.24-.37c-1-.18-2-.47-3-.6-.25,0-.71,0-.61-.36a.56.56,0,0,1,0-.12c0-.11,0-.21,0-.33A1.73,1.73,0,0,0,8,.3C7.74.11,7-.15,6.74.11A3.5,3.5,0,0,0,6.5.8,2.14,2.14,0,0,1,6,1.49a.3.3,0,0,1-.1.07,1.92,1.92,0,0,1-.63.05,1.69,1.69,0,0,0-.69.09A2.85,2.85,0,0,0,3.75,2c-.08.05-.6.38-.68.29S2.84,2,2.73,1.91A8.61,8.61,0,0,0,2,1.17C1.82,1,1.61.76,1.38.72a.57.57,0,0,0-.29,0A1.51,1.51,0,0,0,.53,1,1.46,1.46,0,0,0,0,2.16,4.8,4.8,0,0,0,.46,3.74a1.67,1.67,0,0,0,.75,1.09l.17.07s0,.15,0,.21a.92.92,0,0,0,.22.57c.22.3.41.62.64.91a1.1,1.1,0,0,1,.28,1,.89.89,0,0,0,0,.58,3.19,3.19,0,0,0,.75,1.07.39.39,0,0,0,.28.11,3.45,3.45,0,0,0,1.2-.1l.31-.1s.19.22.24.3a.87.87,0,0,0,.2.23,5.17,5.17,0,0,0,1.06.71,3.83,3.83,0,0,1,.63.34,13.66,13.66,0,0,0,2,1.08,11.62,11.62,0,0,1,1.28.62,2.33,2.33,0,0,1,1,1.2,3.89,3.89,0,0,0,.44.95,3,3,0,0,1,.48,1,.7.7,0,0,0,.11.23c.14.17.2.4.39.54a.2.2,0,0,1,.06.14,1.17,1.17,0,0,0,.19.51.77.77,0,0,1,.07.66,4.71,4.71,0,0,1-1,1.72c-.36.4-.71.8-1.1,1.16a2.33,2.33,0,0,1-.42.41,5.44,5.44,0,0,0-1.17,1,2.52,2.52,0,0,0-.7,1.16,6.69,6.69,0,0,0-.21,1.48,4.49,4.49,0,0,1-.59,1.92,11.75,11.75,0,0,1-.54,1.06l-.31.33a2.32,2.32,0,0,1-.76.8c-.18.13-.22.55,0,.66a1.28,1.28,0,0,0,.74.27,4.28,4.28,0,0,0,1.22-.17,1.88,1.88,0,0,0,1.06-.85,2.22,2.22,0,0,0,.33-.91,4.34,4.34,0,0,0,0-.72,3.07,3.07,0,0,1,.13-1,1.24,1.24,0,0,0,.09-.45.63.63,0,0,1,.19-.47,1,1,0,0,1,.5-.3.17.17,0,0,0,.14-.18,1.3,1.3,0,0,1,.62-1c.34-.27.7-.52,1-.82.78-.71,2.4-2.06,3.25-2.68A16.22,16.22,0,0,1,17.57,19c.1-.06.21-.1.26-.22A2,2,0,0,0,18,18a2.34,2.34,0,0,0,0-.79,1.9,1.9,0,0,0,.16.18,6.32,6.32,0,0,1,1.08,1.84,3.68,3.68,0,0,0,.21.45,5.49,5.49,0,0,1,.46,1,6.67,6.67,0,0,0,.29.74,4.93,4.93,0,0,1,.27.73c.13.6.3,1.19.45,1.78a2.69,2.69,0,0,0,.57,1.29s0,.09,0,.14c.13.43.18.87.29,1.3a4.43,4.43,0,0,1,.07,1.26,1,1,0,0,1-.27.61.76.76,0,0,1-.43.21.57.57,0,0,0-.34.22c-.07.11-.13.23-.2.35s0,.16.07.21a1.89,1.89,0,0,0,1.1.15c.4-.05.8-.11,1.2-.12a.35.35,0,0,0,.32-.15.66.66,0,0,0,.12-.7,2.53,2.53,0,0,1-.24-1.24,1.88,1.88,0,0,0,0-.41,1.78,1.78,0,0,1,0-.46,10.47,10.47,0,0,0,.24-1.47.26.26,0,0,1,0-.15.5.5,0,0,0,0-.61,1.11,1.11,0,0,1-.21-.58c0-.44-.21-.86-.27-1.3a8,8,0,0,0-.22-1c-.07-.27-.12-.55-.21-.81a16.08,16.08,0,0,1-.5-1.93,3.89,3.89,0,0,0-.37-1.46s0,0,0-.06,0-.22.16-.23c.31,0,.62,0,.93,0a2.89,2.89,0,0,0,1.17-.07.33.33,0,0,1,.24,0,4.82,4.82,0,0,0,1.2,0,2,2,0,0,1,.69,0,5.91,5.91,0,0,0,1.68,0c.07,0,.15,0,.21.05a1.66,1.66,0,0,1-.13.27.86.86,0,0,0-.15.43,4.92,4.92,0,0,0,0,1.15c0,.23.07.45.08.68a3.35,3.35,0,0,0,.11.55,5.08,5.08,0,0,0,.33.66c.17.38.33.76.5,1.13a1.77,1.77,0,0,1,.24.61,3.15,3.15,0,0,0,.25.86,9.63,9.63,0,0,0,.42,1,4.25,4.25,0,0,1,.31.91,1.55,1.55,0,0,1-.12,1.12A4.55,4.55,0,0,1,28.6,27.8a4.72,4.72,0,0,0-.88,1,.89.89,0,0,1-.45.36,4.16,4.16,0,0,0-.48.22,1,1,0,0,0-.39.31c-.16.2-.09.37.16.44h.1a3.65,3.65,0,0,0,1.32.07.86.86,0,0,0,.72-.5,3.11,3.11,0,0,1,.67-.85c.23-.22.5-.4.75-.61a6.19,6.19,0,0,0,1.15-1.08,4.06,4.06,0,0,1,.53-.56,5.49,5.49,0,0,0,.72-.81.54.54,0,0,0,0-.69,3.76,3.76,0,0,1-.48-1.24c-.05-.23-.08-.47-.14-.7a1.85,1.85,0,0,1,0-.81A11,11,0,0,0,32,21.18,2.78,2.78,0,0,1,32.43,20a12.11,12.11,0,0,1,1.07-1.3l.07-.06.09.09a2,2,0,0,1,.47.5c.08.12.17.23.26.35a10.1,10.1,0,0,0,.94.91,11.25,11.25,0,0,0,1.5,1.26,14.68,14.68,0,0,1,1.34,1,3.14,3.14,0,0,0,.71.55c.26.13.44.38.73.46.11.16.31.15.44.26l.71.6a11,11,0,0,1,.94.87,2.91,2.91,0,0,1,.62.85,7.75,7.75,0,0,0,.41,1,1.24,1.24,0,0,1,0,1.08c0,.15-.14.34-.27.36-.33,0-.51.3-.75.47a.19.19,0,0,0,0,.35,1,1,0,0,0,.18.06,3.17,3.17,0,0,0,1,.05,2.62,2.62,0,0,0,1-.24.43.43,0,0,0,.26-.3A1.29,1.29,0,0,0,44.26,28.62ZM10,6.29c-.18.15-.26.23-.35.21a.26.26,0,0,1-.18-.21c0-.1.07-.13.15-.31s0-.27.12-.31.28,0,.37.14a.29.29,0,0,1,.11.2S10.23,6.1,10,6.29Zm.73-1.24c0-.09.08-.1.17-.29s0-.11.1-.34a.83.83,0,0,1,.1-.25.53.53,0,0,1,.72,0c.21.27-.18.75-.22.79a.67.67,0,0,1-.53.33C10.92,5.28,10.75,5.17,10.74,5.05Zm1.58,2.49c-.06.12-.19.07-.37.21s-.15.27-.28.32a.42.42,0,0,1-.45-.19.46.46,0,0,1,.13-.59c.12-.06.18,0,.38,0s.29-.19.41-.15A.32.32,0,0,1,12.32,7.54Zm1.34-1.89a.44.44,0,0,1,0-.59c.2-.18.53,0,.61.05s.3.17.28.33-.27.26-.33.28A.52.52,0,0,1,13.66,5.65Zm1.52,2.6c-.21,0-.38-.27-.52-.51a1.09,1.09,0,0,1-.16-.46c0-.13,0-.27,0-.32s.26,0,.44.13c.36.21.54.31.58.5S15.4,8.23,15.18,8.25ZM16.28,10c-.17.15-.26.22-.35.2a.24.24,0,0,1-.17-.21c0-.1.07-.12.15-.31s0-.27.12-.31.28,0,.37.14a.33.33,0,0,1,.11.2S16.5,9.84,16.28,10Zm1.17-4.28a.72.72,0,0,1-.3.41c-.22.12-.53.12-.61,0s0-.13,0-.34-.13-.46,0-.58.25-.1.61-.09c.19,0,.23,0,.26,0C17.59,5.32,17.46,5.73,17.45,5.75ZM18,8.5c-.09,0-.07-.17-.26-.36s-.22-.14-.24-.25a.3.3,0,0,1,.11-.28.49.49,0,0,1,.71.39C18.38,8.26,18.16,8.52,18,8.5Zm1.12-1.84C19,6.59,19,6.34,19,6.2a1,1,0,0,1,.07-.42.46.46,0,0,1,.14-.24c.19-.17.58-.1.61,0s-.12.11-.2.3.08.37,0,.57A.4.4,0,0,1,19.15,6.66ZM20,9.18c-.1.24.07.38,0,.58s-.31.29-.44.23-.16-.32-.17-.46a1.14,1.14,0,0,1,.07-.42c.05-.12.07-.19.14-.24s.58-.1.62,0S20.1,9,20,9.18Zm2.23-1.66c-.05.12-.19.06-.37.21s-.14.27-.27.32a.42.42,0,0,1-.45-.19.44.44,0,0,1,.13-.59c.11-.06.17,0,.38,0s.28-.19.4-.15A.32.32,0,0,1,22.26,7.52Zm2.21-.26c-.09,0-.06-.16-.24-.34S24,6.79,24,6.69a.26.26,0,0,1,.11-.26.42.42,0,0,1,.48,0,.47.47,0,0,1,.18.32C24.79,7,24.59,7.28,24.47,7.26ZM27.8,8c-.25,0-.46-.32-.63-.62a1.4,1.4,0,0,1-.2-.57c0-.16,0-.33,0-.4s.31,0,.54.17c.44.25.66.38.71.61S28.08,8,27.8,8Zm1.39,1.29c-.05.12-.18.07-.36.21s-.15.27-.28.32a.42.42,0,0,1-.45-.19.46.46,0,0,1,.13-.59c.11-.06.18,0,.38,0s.28-.18.41-.15A.32.32,0,0,1,29.19,9.31ZM30.28,8c-.08.11-.27.35-.53.32s-.34-.12-.34-.24.08-.11.16-.29a2.67,2.67,0,0,0,.1-.34,1.53,1.53,0,0,1,.1-.26.54.54,0,0,1,.73,0C30.7,7.47,30.32,8,30.28,8ZM32,9.35c-.17.15-.26.23-.35.21a.25.25,0,0,1-.17-.21c0-.1.06-.13.15-.31s0-.27.11-.31.28,0,.37.14a.29.29,0,0,1,.11.2S32.23,9.16,32,9.35Z"/></svg>