<svg xmlns="http://www.w3.org/2000/svg" width="28" height="24.1" viewBox="0 0 28 24.1">
  <title>Steel Jaw Trap</title>
  <g id="Layer_2" data-name="Layer 2">
    <g id="Layer_1-2" data-name="Layer 1">
      <path d="M25.9,21l-2.3-2.9L21.3,21l-2.4-3-2.3,2.9-2.1-2.7-2.3,2.9-2.3-3-2.3,3L5.4,18.3H3.9V16.8l3.6.4-.5-3.7,3.9.4-.5-3.6,3.5.4L13.3,7l3.8.4-.5-3.7,3.5.4L15.9,0,0,16l2.3,2.3H.8v5.8H28V18.3ZM3.6,22a.9.9,0,0,1-1-.9.9.9,0,0,1,1-1,.9.9,0,0,1,.9,1A.9.9,0,0,1,3.6,22Z" fill="#1a2026"/>
    </g>
  </g>
</svg>
