<svg xmlns="http://www.w3.org/2000/svg" width="39.8" height="23.8" viewBox="0 0 39.8 23.8">
  <title>Steel Jaw Trap - Animal</title>
  <g id="Layer_2" data-name="Layer 2">
    <g id="Layer_1-2" data-name="Layer 1">
      <g>
        <path d="M23.8.3a17.2,17.2,0,0,1-2.6.2A5.7,5.7,0,0,0,19,.6a4.4,4.4,0,0,0-1.5,1.6,4.7,4.7,0,0,0-1,1.6s-1,2.1-1.2,2.8l-.2.6a5.4,5.4,0,0,1-1.5.2s0,.2.9.4a2,2,0,0,1-.8,0,2.5,2.5,0,0,0,1.2.4s-.1,3.1,2.3,4.1c0,0,2.3.4,2-1.7,0,0-.3-1.2-1.1-.6s.3.2,0,.3.5.7,0,.8-1,.5-1.2-1.5a3.4,3.4,0,0,1,.7-2.5H18l.4.3a.4.4,0,0,0,.4-.3l.5-.3s1.2,0,1.3-.3-.1.9.4,1.2,1.4-.2,1.6-.5a15.7,15.7,0,0,1-.5,2.5l-.6,2.2a13,13,0,0,1-.6,1.9,11.3,11.3,0,0,0-.4,2s-.2,1.1-.6,1.3-.9.5-.4.8,3,.6,2.7-.2a2.5,2.5,0,0,1-.3-1.2,14.5,14.5,0,0,1,1.4-2.8A12.4,12.4,0,0,0,25,11.2l1.1,2.5a7.5,7.5,0,0,0,.7,2.2s.4.9-.1,1.2-1,.6-.6.9,2.9.5,2.9-.1a1.3,1.3,0,0,0-.3-.8,2.7,2.7,0,0,1-.2-1.3,19.1,19.1,0,0,0-.2-2,25.8,25.8,0,0,1-.3-2.9s.1-.7.3-.8A6.6,6.6,0,0,0,31,11s1.3.1,1.3.3l.8.7a6.8,6.8,0,0,1,.6,1.6s.1,2.3-.3,2.7-1.1.8-.9,1.5,2.7.4,3.1-.2a11.6,11.6,0,0,0-.2-2.3s-.2-2.6.2-3.1A8.2,8.2,0,0,1,37,13.8a23.5,23.5,0,0,1,.9,2.8s-.4,1,.1,1.2,1.9.2,1.8-.8a7.9,7.9,0,0,0-.4-1.2,9.9,9.9,0,0,1-1.1-3V11.4l.3,1.5s.2,1.8.8,2.3a10.8,10.8,0,0,0-.4-2.1s-.4-1.8-.5-2.8a16.9,16.9,0,0,1-.4-3.2,5.8,5.8,0,0,0-1-2.5,15.1,15.1,0,0,0-2.6-2.8A7.1,7.1,0,0,0,29.9.9S26.6,1,26,.5A1.8,1.8,0,0,0,23.8.3Z" fill="#1a2026"/>
        <path d="M16.6,21.8,15.2,20l-1.5,1.8-1.5-1.9-1.5,1.8L9.3,20,7.8,21.8,6.3,20,4.9,21.8,3.5,20.1h-1v-1l2.4.3L4.5,17l2.4.3-.3-2.4,2.3.3-.3-2.4,2.4.3-.3-2.4,2.2.3L10.2,8.3,0,18.6l1.5,1.5H.5v3.7H18V20Zm-14.3.7a.6.6,0,0,1-.6-.6c0-.4.2-.7.6-.7a.7.7,0,0,1,.6.7A.6.6,0,0,1,2.3,22.5Z" fill="#1a2026"/>
      </g>
    </g>
  </g>
</svg>
