<svg xmlns="http://www.w3.org/2000/svg" viewBox="0 0 40 22.27"><defs><style>.cls-1{fill:#1a2026;}</style></defs><title>Stock Theft</title><g id="Layer_2" data-name="Layer 2"><g id="Layer_1-2" data-name="Layer 1"><path class="cls-1" d="M39.67,10.83s-.08-.06-.09-.08l-.21-.38a8.57,8.57,0,0,0-.51-.9,7.64,7.64,0,0,1-.49-.68l-.08-.11a1.53,1.53,0,0,1-.2-.36c0-.33-.47-.63-.56-.69l0,0a3.47,3.47,0,0,0-.45-.25L37,7.22a3.44,3.44,0,0,0-.73-.69.52.52,0,0,0-.61.18,1.85,1.85,0,0,0-.1.76l-.29.09a2.94,2.94,0,0,1-.79.11h-.28c-.33,0-1.38.13-1.8.13-.24,0-1-.16-1.58-.28s-.95-.2-1.18-.23a15.34,15.34,0,0,0-2.23.24,26.33,26.33,0,0,1-2.75.31c-.61,0-1.38,0-2-.11s-1-.07-1.33-.07l-1.52,0c-.7,0-1.47-.06-2-.06h0V7a2.08,2.08,0,0,0-2.08-2.08H6.56V4.16l-.38-.38H.76V3.4H.38v.38H0V4.91H4.29l.63.63a.87.87,0,0,0-.06.32.94.94,0,0,0,.95.94H10a.18.18,0,0,1,.18.17h0V21.14a1.14,1.14,0,0,0,2.27,0v-6.6a.38.38,0,1,1,.75,0v6.6A1.14,1.14,0,0,0,15,22H16.7v-.26a2,2,0,0,0-.22-.78,2.08,2.08,0,0,1-.25-1,4.19,4.19,0,0,1,.28-1.38,3.25,3.25,0,0,1,.21-.42,5,5,0,0,0,.38-.82,1.3,1.3,0,0,1,.17-.33,1.3,1.3,0,0,1,.21.34c.18.51.38,1.35.56,2.09.11.48.21.89.29,1.15a1.94,1.94,0,0,1,.12.8c0,.09,0,.2,0,.32V22h2.27v-.26a2,2,0,0,0-.44-1,3.73,3.73,0,0,1-.46-.86,4.43,4.43,0,0,1-.22-1.44c0-.1,0-.25.06-.4a2.8,2.8,0,0,0,.09-.81,2.66,2.66,0,0,1,.15-.63,8.74,8.74,0,0,0,.3-1.3c.58.16,1.5.43,2.37.71a16.21,16.21,0,0,0,4.93.23,4.83,4.83,0,0,1,.29,2.1.71.71,0,0,0,.09.33.68.68,0,0,1,.09.33c-.26,1.83-.37,2.68-.37,2.69l0,.29h2v-.26a1.09,1.09,0,0,0-.12-.55,2.25,2.25,0,0,1-.07-1.8c0-.07.11-.22.18-.38l.19-.4.08.12a1.3,1.3,0,0,1,.21.38,10.34,10.34,0,0,1,.33,2.61l-.08.28h2.06v-.26a1.14,1.14,0,0,0-.21-.68,3.6,3.6,0,0,1-.58-1.76,2.29,2.29,0,0,1,.05-.36,4.2,4.2,0,0,0,.05-1.07,6.34,6.34,0,0,0-.19-.68,2.64,2.64,0,0,1-.2-.9s0-.09,0-.14a7.79,7.79,0,0,0,3-2.81,3.84,3.84,0,0,1,1.27-1.5l.19-.08a8.9,8.9,0,0,0,1,.34c.25.06.67.1,1,.14l.4.05s0,0,.06,0a.4.4,0,0,0,.27.13c.24,0,1.25-.18,1.48-.81A.66.66,0,0,0,39.67,10.83ZM5.43,5a1,1,0,0,0-.38.3h0l-.38-.38h.76ZM15.86,8l-.37.51V7.82a.19.19,0,1,1,.38,0ZM10.57,2.27A2.27,2.27,0,1,0,12.84,0,2.27,2.27,0,0,0,10.57,2.27Z"/></g></g></svg>