<svg xmlns="http://www.w3.org/2000/svg" viewBox="0 0 44 37.32"><defs><style>.a{fill:#010101;}</style></defs><path class="a" d="M42.88,19.45c-.21-.57.68.83.4.2-.15-.33-.41-.85-.71-1.44-.21-.42.79.44.56,0-.52-1-2.28-3.3-2.51-3.76s.76.87.62.58c-.43-.84-1.83-2.91-1.83-2.91-.65-1.19-2.69-.67-2.69-.67a12.58,12.58,0,0,0-2.55-1.93l.75-.3-2.87-.36-2-1.5a12.87,12.87,0,0,1-4.74-1.07l-2.11-.21,3.06-.16L22,5l2-.18L21.28,4.6l-4.58.24.49-.45-2.76.25.66-.7L13,4.18,10.3,4.7a2.19,2.19,0,0,0,0-.92,16,16,0,0,0-.58-3S9.55.15,9.05.6A8.39,8.39,0,0,1,8,2.14a4.23,4.23,0,0,0-.89,2.23,2.2,2.2,0,0,0-1.43.07A16.21,16.21,0,0,0,4.26,2.33S3,.89,2.87.69c0,0-.14-.66-.29-.68S2.3-.13,2.31.5a2.78,2.78,0,0,0,.12,1.11A5.08,5.08,0,0,1,2.79,3.9s0,0,0,.06a2.35,2.35,0,0,0,.37,1.75s.09.08-.09.24a5.17,5.17,0,0,0-.52.62,4.18,4.18,0,0,0-.4.63c-.13.26-.21.55-.34.82a1.52,1.52,0,0,0-.16,1,2.41,2.41,0,0,1,0,1.32,8.26,8.26,0,0,1-1,1.45s-.44.36-.48.48a.32.32,0,0,0-.1.48,3.35,3.35,0,0,1,.23.43c0,.06.21.16.36.22,0,0,.27,0,.24.17a.44.44,0,0,0,.1.54s1.06.66,1.57.52a4.28,4.28,0,0,0,1.85-.46.46.46,0,0,1,.78.16,2.85,2.85,0,0,0,.56.93,2.74,2.74,0,0,0,.82.41c.59.29,1.14.63,1.75.89a5.45,5.45,0,0,1,.68.35,2.65,2.65,0,0,1,.82.88l1.35,2,.94,1.38c2,3.14,1.07,4,1.07,4l-2.8,4.54-1.07,2.1-.91,2.93L7.5,35c-.3.13-1.06.29-1.25.56a.45.45,0,0,0-.08.23c-.11.5-.42,1,.1,1.21a4.09,4.09,0,0,0,1.11.18,4.34,4.34,0,0,0,1.93,0A1.22,1.22,0,0,0,9.67,37a7.06,7.06,0,0,0,1.55-2.89,8.42,8.42,0,0,1,1.37-2.94c1.53-1.91,3-3.83,4.4-5.82l1.28-.7c.43,1.16.82,2.35,1.31,3.49s1.21,2.35,1.71,3.58c.11.27,1,3.33.77,3.4a10.28,10.28,0,0,0-1.32.35c-.15.06-1.15.74-.82.92a1.51,1.51,0,0,0,.37.06l.48.09a4.92,4.92,0,0,0,.93.11A3.92,3.92,0,0,0,23.52,36a.88.88,0,0,0,.33-.24c.2-.27,0-1.2-.05-1.54-.1-1.24-.19-2.48-.28-3.72a16.86,16.86,0,0,0-1.47-4.36c-.37-1-.74-1.92-1.1-2.88a12.52,12.52,0,0,0,3.79-.56c.61-.19,1.22-.41,1.81-.66l.87-.41a1.66,1.66,0,0,1,.75-.29,1.65,1.65,0,0,1,.32.07,5.77,5.77,0,0,1,.9.44.67.67,0,0,1,.19.14,1.71,1.71,0,0,1,.15.57c.06.23.15.44.23.66l.29.65a14.44,14.44,0,0,0,1.64,2.53l.09-.12.53-.78a6.3,6.3,0,0,0,.77-1.39l.37-1c.14-.4.67-.72,1-1-.15.13.46,0,.38.18s-.94,1.31-1,1.64-.22.94-.31,1.42-.79.68-1.1.89l-.47.46A23.43,23.43,0,0,0,34,28.75,4.83,4.83,0,0,1,35.26,32a10.77,10.77,0,0,1-.52,2.61,3.6,3.6,0,0,0-.91.3,1.21,1.21,0,0,0-.37.57c-.14.39-.26,1,.26,1.16.15.06.46-.07.62-.1l.68-.13a2.91,2.91,0,0,0,1-.21.8.8,0,0,0,.18-.23,3.3,3.3,0,0,0,.52-1.19c0-.36,0-.74.07-1.1a22.74,22.74,0,0,1,.53-3.66L37,29.3l-.83-1.48-.22-.46,1.3.81c.83.39,1.7,2.19,1.7,2.19s.78,1.54.78,1.55c.22.42-1.43,2.24-.33,2.67.86.33,2-.74,2.27-1.38a1.38,1.38,0,0,0,.15-.43,1,1,0,0,0,0-.29c-.06-.55-.13-1.09-.2-1.64,0-.26-.57-.78-.72-1a44,44,0,0,0-2.71-4.18,9.78,9.78,0,0,0-1.42-1.15,4.61,4.61,0,0,1-.39-.36l.12-.89a1.7,1.7,0,0,1,0-.22l.83-3.55L38.37,22c.05.1-.09-1.07,0-.94a14.65,14.65,0,0,0,1.09,2.21c.31.22-.38-.85,0-.73s.6.94,1.22,1.37c.26.17-.06-.63.25-.62s.42,1,.66,1.13l.53-.56c.31-.41.25.79.48.62a4.94,4.94,0,0,0,.94-1.89c.07-.61.52.33.52.33A27.83,27.83,0,0,0,42.88,19.45ZM17.07,11.57a.77.77,0,0,0-.1.29c-.1.42-.15.84-.27,1.25s-.2,1.08-.38,1.58a4,4,0,0,1-1.18,1.49,3,3,0,0,1-1.27.52.56.56,0,0,1-.18,0,.59.59,0,0,1-.14-.06.49.49,0,0,0-.53.27q-.4.6-.78,1.23a6.22,6.22,0,0,1-.75,1.18c-.13.15-.44-.17-.47-.3s.28-.71.39-.9l.55-.95a2.78,2.78,0,0,1,.77-.93l.76-.63c.21-.18.37-.43.65-.52a3,3,0,0,0,1.57-1.61A4.74,4.74,0,0,0,16,12.31a2.66,2.66,0,0,1,1-1.76c.35-.27,1.44-1,1.81-1.26,0,0-.49,1-.43,1a7.89,7.89,0,0,1-.73,1C17.51,11.41,17.23,11.35,17.07,11.57Zm5.4-.32c-.08.13-.16.26-.23.39a14.49,14.49,0,0,0-1,2.38,13.48,13.48,0,0,0-.43,2.1c-.11.61-.21,1.25-.32,1.87a4.79,4.79,0,0,1-.61,1.32c-.3.54-.59,1.36-1.16,1.68a11.89,11.89,0,0,0-1.09.77c-.05,0-1,.65-1,.56a39.06,39.06,0,0,1,2.28-3.24,2.9,2.9,0,0,0,.47-.74c.1-.31.15-.65.22-1l.24-1a3.23,3.23,0,0,0,.15-.67A23.62,23.62,0,0,1,20.45,13l.85-1.91a2.46,2.46,0,0,1,.45-.7,3.42,3.42,0,0,1,.71-.66c.09-.05.68-.7.71-.53a1.66,1.66,0,0,1-.11.62,2.65,2.65,0,0,1-.27.88C22.68,10.89,22.57,11.07,22.47,11.25ZM28,10.46A4.48,4.48,0,0,1,27,12.7,9.2,9.2,0,0,0,26,14.06a8.1,8.1,0,0,0-1,2.59c-.15.48-.35.94-.47,1.43-.07.29-.28,2.52-.67,2.21a.84.84,0,0,1-.22-.43,4.47,4.47,0,0,1-.19-.46,4.82,4.82,0,0,1,.06-1.65,5.84,5.84,0,0,1,.18-.69L24,15.94c.12-.41.25-.8.36-1.22a4.8,4.8,0,0,1,.85-1.35,6.12,6.12,0,0,1,.9-1.13,9.14,9.14,0,0,0,1-1.06c.13-.19.21-.39.33-.57a1.82,1.82,0,0,0,.35-.6c0-.1,0-.24.13-.28s.26.09.27.2A1.79,1.79,0,0,1,28,10.46Zm3.65,3.86a6,6,0,0,0-.81,1.24,25.53,25.53,0,0,1-1.46,3c-.16.25-.35.48-.51.73a4.17,4.17,0,0,0-.36.81.4.4,0,0,1-.19-.27.81.81,0,0,1,0-.31,4.12,4.12,0,0,1,.23-.78,11,11,0,0,0,.53-1.45,3.27,3.27,0,0,1,.39-1.41,10.53,10.53,0,0,0,1.11-1.67c.38-.81,1.3-1.18,2-1.66a3.34,3.34,0,0,1,1-.47.65.65,0,0,1,.64.07.52.52,0,0,1-.08.73,4.81,4.81,0,0,1-1.24.5A3.9,3.9,0,0,0,31.68,14.32ZM35,17.06,33.5,19,32.79,20c-.28.42-.63,1.28-1.23,1.23.09,0,.42-.74.48-.84l.49-1a7.45,7.45,0,0,1,1-1.61c.31-.33.72-.61,1.06-.91a4.86,4.86,0,0,1,.62-.53l.11.06Z"/></svg>