<svg xmlns="http://www.w3.org/2000/svg" viewBox="0 0 44 37.32"><defs><style>.a{fill:#010101;}</style></defs><path class="a" d="M0,22.87s.45-.94.52-.33a4.94,4.94,0,0,0,.94,1.89c.23.17.17-1,.48-.62l.53.56c.24-.13.5-1.13.66-1.13.31,0,0,.79.25.62.62-.43,1-1.29,1.22-1.37s-.35,1,0,.73A14.65,14.65,0,0,0,5.65,21c.07-.13-.07,1,0,.94l1.13-2.46L7.59,23a1.7,1.7,0,0,1,0,.22l.12.89a4.61,4.61,0,0,1-.39.36,9.78,9.78,0,0,0-1.42,1.15,44,44,0,0,0-2.71,4.18c-.15.22-.68.74-.72,1-.07.55-.14,1.09-.2,1.64a1,1,0,0,0,0,.29,1.38,1.38,0,0,0,.15.43c.32.64,1.41,1.71,2.27,1.38,1.1-.43-.55-2.25-.33-2.67,0,0,.78-1.55.78-1.55s.87-1.8,1.71-2.19l1.29-.81-.22.46L7,29.3l-.34.76a22.74,22.74,0,0,1,.53,3.66c0,.36,0,.74.07,1.1A3.3,3.3,0,0,0,7.81,36a.8.8,0,0,0,.18.23,2.91,2.91,0,0,0,1,.21l.68.13c.16,0,.47.16.62.1.52-.19.4-.77.26-1.16a1.21,1.21,0,0,0-.37-.57,3.6,3.6,0,0,0-.91-.3A10.33,10.33,0,0,1,8.75,32,4.77,4.77,0,0,1,10,28.75a23.43,23.43,0,0,0,1.93-2.1l-.47-.46c-.31-.21-1-.51-1.1-.89s-.18-.95-.31-1.42-.91-1.31-1-1.64.53,0,.38-.18c.31.28.84.6,1,1s.25.69.37,1a6.3,6.3,0,0,0,.77,1.39l.53.78.09.12a14.44,14.44,0,0,0,1.64-2.53L14,23.2c.08-.22.17-.43.23-.66a1.71,1.71,0,0,1,.15-.57.67.67,0,0,1,.19-.14,5.77,5.77,0,0,1,.9-.44,1.65,1.65,0,0,1,.32-.07,1.66,1.66,0,0,1,.75.29l.87.41c.59.25,1.2.47,1.81.66a12.52,12.52,0,0,0,3.79.56c-.36,1-.73,1.92-1.1,2.88a16.86,16.86,0,0,0-1.47,4.36c-.09,1.24-.18,2.48-.28,3.72,0,.34-.25,1.27-.05,1.54a.88.88,0,0,0,.33.24,3.92,3.92,0,0,0,1.82.62,4.92,4.92,0,0,0,.93-.11l.48-.09a1.51,1.51,0,0,0,.37-.06c.33-.18-.67-.86-.82-.92a10.28,10.28,0,0,0-1.32-.35c-.26-.07.66-3.13.77-3.4.5-1.23,1.19-2.36,1.71-3.58s.88-2.33,1.31-3.49l1.28.7c1.42,2,2.87,3.91,4.4,5.82a8.42,8.42,0,0,1,1.37,2.94A7.06,7.06,0,0,0,34.33,37a1.22,1.22,0,0,0,.36.27,4.34,4.34,0,0,0,1.93,0A4.09,4.09,0,0,0,37.73,37c.52-.21.21-.71.1-1.21a.45.45,0,0,0-.08-.23c-.19-.27-1-.43-1.25-.56l-.91-.33-.91-2.93-1.07-2.1-2.8-4.54s-.95-.82,1.07-4l.94-1.38,1.35-2a2.65,2.65,0,0,1,.82-.88,5.45,5.45,0,0,1,.68-.35c.61-.26,1.16-.6,1.75-.89a2.74,2.74,0,0,0,.82-.41,2.85,2.85,0,0,0,.56-.93.46.46,0,0,1,.78-.16,4.28,4.28,0,0,0,1.85.46c.51.14,1.57-.52,1.57-.52a.44.44,0,0,0,.1-.54c0-.21.24-.17.24-.17s.36-.16.36-.22a3.35,3.35,0,0,1,.23-.43.32.32,0,0,0-.1-.48c0-.12-.48-.48-.48-.48a8.26,8.26,0,0,1-1-1.45,2.41,2.41,0,0,1,0-1.32,1.52,1.52,0,0,0-.16-1c-.13-.27-.21-.56-.34-.82a4.18,4.18,0,0,0-.4-.63A5.17,5.17,0,0,0,41,6c-.18-.16-.09-.24-.09-.24A2.35,2.35,0,0,0,41.23,4s0,0,0-.06a5.08,5.08,0,0,1,.36-2.29A2.78,2.78,0,0,0,41.69.5c0-.63-.27-.49-.27-.49s-.29.68-.29.68c-.14.2-1.39,1.64-1.39,1.64a16.21,16.21,0,0,0-1.43,2.11,2.2,2.2,0,0,0-1.43-.07A4.23,4.23,0,0,0,36,2.14,8.39,8.39,0,0,1,35,.6c-.49-.45-.63.13-.63.13a16,16,0,0,0-.58,3.05,2.19,2.19,0,0,0,0,.92L31,4.18l-2.06-.24.66.7-2.76-.25.49.45L22.72,4.6,20,4.83,22,5l-4.21.91,3.06.16-2.11.21A12.87,12.87,0,0,1,14,7.36l-2,1.5-2.87.36.75.3a12.58,12.58,0,0,0-2.55,1.93s-2-.52-2.69.67c0,0-1.4,2.07-1.83,2.91-.14.29.79-.92.62-.58s-2,2.74-2.51,3.76c-.23.44.77-.42.56,0-.3.59-.56,1.11-.71,1.44-.28.63.61-.77.41-.2A26.44,26.44,0,0,0,0,22.87ZM26.31,11.24a7.89,7.89,0,0,1-.73-1c.06,0-.48-1-.43-1,.37.24,1.46,1,1.81,1.26a2.66,2.66,0,0,1,1,1.76,4.74,4.74,0,0,0,.29,1.18,3,3,0,0,0,1.57,1.61c.28.09.44.34.65.52l.76.63a2.78,2.78,0,0,1,.77.93l.55.95c.11.19.45.67.39.9s-.34.45-.47.3a6.22,6.22,0,0,1-.75-1.18q-.37-.63-.78-1.23a.49.49,0,0,0-.53-.27l-.13.06a.61.61,0,0,1-.19,0,3,3,0,0,1-1.27-.52,4,4,0,0,1-1.18-1.49c-.18-.5-.22-1.07-.38-1.58s-.17-.83-.27-1.25a.77.77,0,0,0-.1-.29C26.78,11.35,26.49,11.41,26.31,11.24Zm-5.1-.53a2.65,2.65,0,0,1-.27-.88,1.66,1.66,0,0,1-.11-.62c0-.17.62.48.71.53a3.42,3.42,0,0,1,.71.66,2.46,2.46,0,0,1,.45.7L23.55,13A23.62,23.62,0,0,1,24,15.66a3.23,3.23,0,0,0,.15.67l.24,1c.07.32.12.66.22,1a2.9,2.9,0,0,0,.47.74,39.06,39.06,0,0,1,2.28,3.24c0,.09-1-.52-1-.56A11.89,11.89,0,0,0,25.25,21c-.57-.32-.86-1.14-1.16-1.68A4.79,4.79,0,0,1,23.48,18c-.11-.62-.21-1.26-.32-1.87a13.48,13.48,0,0,0-.43-2.1,14.49,14.49,0,0,0-1-2.38c-.07-.13-.15-.26-.23-.39S21.32,10.89,21.21,10.71Zm-5.4-.78c0-.11.14-.25.27-.2s.1.18.13.28a1.82,1.82,0,0,0,.35.6c.12.18.2.38.33.57a9.14,9.14,0,0,0,1,1.06,6.12,6.12,0,0,1,.9,1.13,4.8,4.8,0,0,1,.85,1.35c.11.42.24.81.36,1.22l.33,1.12a5.84,5.84,0,0,1,.18.69,4.82,4.82,0,0,1,.06,1.65,4.47,4.47,0,0,1-.19.46.84.84,0,0,1-.22.43c-.39.31-.6-1.92-.67-2.21-.12-.49-.32-.95-.47-1.43a8.1,8.1,0,0,0-1-2.59,9.2,9.2,0,0,0-.95-1.36A4.48,4.48,0,0,1,16,10.46,1.79,1.79,0,0,1,15.81,9.93Zm-4.75,3.42a4.81,4.81,0,0,1-1.24-.5.52.52,0,0,1-.08-.73.65.65,0,0,1,.64-.07,3.34,3.34,0,0,1,1,.47c.71.48,1.63.85,2,1.66a10.53,10.53,0,0,0,1.11,1.67,3.27,3.27,0,0,1,.39,1.41,11,11,0,0,0,.53,1.45,4.12,4.12,0,0,1,.23.78.81.81,0,0,1,0,.31.4.4,0,0,1-.19.27,4.17,4.17,0,0,0-.36-.81c-.16-.25-.35-.48-.51-.73a25.53,25.53,0,0,1-1.46-3,6,6,0,0,0-.81-1.24A3.9,3.9,0,0,0,11.06,13.35ZM8.72,16.46l.11-.06a4.86,4.86,0,0,1,.62.53c.34.3.75.58,1.06.91a7.45,7.45,0,0,1,1,1.61l.49,1c.06.1.39.84.48.84-.6,0-.95-.81-1.23-1.23L10.5,19,9,17.06Z"/></svg>