<svg xmlns="http://www.w3.org/2000/svg" viewBox="0 0 40 13.52"><defs><style>.cls-1{fill:#1a2026;}</style></defs><g id="Layer_2" data-name="Layer 2"><g id="Layer_1-2" data-name="Layer 1"><path class="cls-1" d="M13.6,13A8.79,8.79,0,0,0,13.6.55h0L13.12,1a8.12,8.12,0,0,1,0,11.48h0ZM17.22,2.05a10.24,10.24,0,0,1,0,9.42L17,11.25a9.93,9.93,0,0,0,0-9ZM6.76,0a6.76,6.76,0,1,0,6.76,6.76h0A6.76,6.76,0,0,0,6.76,0ZM23.83,6.76A8.72,8.72,0,0,1,26.41.55l.47.47a8.14,8.14,0,0,0,0,11.48l-.47.48A8.76,8.76,0,0,1,23.83,6.76Zm-.78-4.49a9.87,9.87,0,0,0,0,9l-.27.22a10.24,10.24,0,0,1,0-9.42ZM33.24,0A6.76,6.76,0,1,0,40,6.76,6.76,6.76,0,0,0,33.24,0Z"/></g></g></svg>