<svg xmlns="http://www.w3.org/2000/svg" viewBox="0 0 13.03 32"><defs><style>.cls-1{fill:#1a2026;}</style></defs><title>Suspicious Person</title><g id="Layer_2" data-name="Layer 2"><g id="Layer_1-2" data-name="Layer 1"><path class="cls-1" d="M13,11.32V11c0-1.28-.47-2.86-2-3.25a8.09,8.09,0,0,0-.82-.09H2.79A8.09,8.09,0,0,0,2,7.71C.49,8.1.05,9.68,0,11c0,.12,0,.24,0,.36a1,1,0,0,0,0,.17v7.2a1.12,1.12,0,0,0,1.14,1.08,1.11,1.11,0,0,0,1.13-1.08V11.47h.86v7.74h0V30.68A1.35,1.35,0,0,0,4.52,32h0a1.35,1.35,0,0,0,1.39-1.32v-9.3H7.12v9.3A1.35,1.35,0,0,0,8.51,32h0A1.35,1.35,0,0,0,9.9,30.68V19.21h0c0-1.94,0-3.88,0-5.81V11.47h.86v7.22a1.14,1.14,0,0,0,2.27,0v-7.2A1,1,0,0,0,13,11.32ZM7.2,16.11a.63.63,0,0,1-.16.24.6.6,0,0,1-.24.16.73.73,0,0,1-.58,0A.6.6,0,0,1,6,16.35a.78.78,0,0,1-.16-.24.72.72,0,0,1-.06-.29.77.77,0,0,1,.06-.3A.78.78,0,0,1,6,15.28a.6.6,0,0,1,.24-.16.87.87,0,0,1,.58,0,.6.6,0,0,1,.24.16.63.63,0,0,1,.16.24.77.77,0,0,1,.06.3A.72.72,0,0,1,7.2,16.11Zm1.39-3.75a1.56,1.56,0,0,1-.19.42,2.37,2.37,0,0,1-.34.41,4.38,4.38,0,0,1-.53.46,1,1,0,0,0-.28.32.82.82,0,0,0-.07.3v.26H5.84v-.39a1.27,1.27,0,0,1,.07-.46,1.1,1.1,0,0,1,.24-.35l.46-.42L7,12.58a1.72,1.72,0,0,0,.23-.3A.52.52,0,0,0,7.3,12a.59.59,0,0,0-.18-.46.7.7,0,0,0-.47-.17A.83.83,0,0,0,6,11.6a.92.92,0,0,0-.24.56l-1.38-.09a2.07,2.07,0,0,1,.7-1.44,2.28,2.28,0,0,1,1.54-.5,2.76,2.76,0,0,1,.77.11,2,2,0,0,1,.64.34,1.58,1.58,0,0,1,.44.55,1.67,1.67,0,0,1,.16.76A2.26,2.26,0,0,1,8.59,12.36ZM6.52,6.78A3.39,3.39,0,1,1,9.91,3.39,3.39,3.39,0,0,1,6.52,6.78Z"/></g></g></svg>