<svg xmlns="http://www.w3.org/2000/svg" viewBox="0 0 100 100"><g id="Layer_2" data-name="Layer 2"><g id="Layer_1-2" data-name="Layer 1"><path d="M80,0H20A20.06,20.06,0,0,0,0,20V80a20.06,20.06,0,0,0,20,20H80a20.06,20.06,0,0,0,20-20V20A20.06,20.06,0,0,0,80,0Zm7.5,83.5H12.7c-8,0-12.9-7.7-8.9-13.8L41.1,10.9A10.36,10.36,0,0,1,50,6.3a10.36,10.36,0,0,1,8.9,4.6L96.3,69.7C100.2,75.8,95.3,83.6,87.5,83.5Z"/><ellipse cx="50" cy="68.4" rx="5" ry="4.5"/><path d="M55,37.5h0L52.7,58.9a1,1,0,0,1-1,.9H48.4a1.06,1.06,0,0,1-1-.9L45,37.6V28.2c0-.6.4-.9,1-.9h8a.92.92,0,0,1,1,.9Z"/></g></g></svg>
