<svg xmlns="http://www.w3.org/2000/svg" width="34.2" height="21" viewBox="0 0 34.2 21">
  <title>Timber</title>
  <g id="Layer_2" data-name="Layer 2">
    <g id="Layer_1-2" data-name="Layer 1">
      <g>
        <path d="M12.6,11.5H10.8A6.1,6.1,0,0,1,6.5,9.6H5.2A5.2,5.2,0,0,0,0,14.9a5.2,5.2,0,0,0,5.2,5.2l6.7-.8a6.1,6.1,0,0,1,.7-7.8ZM5.3,19.1a4.3,4.3,0,1,1,0-8.5,4.3,4.3,0,0,1,0,8.5Zm-.1-7.8a3.5,3.5,0,0,0-3.5,3.5,3.5,3.5,0,0,0,3.5,3.5,3.4,3.4,0,0,0,3.5-3.5A3.5,3.5,0,0,0,5.2,11.3Zm0,6.1a2.6,2.6,0,0,1,0-5.1,2.6,2.6,0,0,1,2.6,2.5A2.6,2.6,0,0,1,5.2,17.4Zm0-4.6a2,2,0,1,0,0,4,2,2,0,0,0,0-4Z" fill="#1a2026"/>
        <path d="M26,2.4,10.8,0A5.2,5.2,0,0,0,5.6,5.2a5.3,5.3,0,0,0,5.2,5.3h3A5.7,5.7,0,0,1,17,9.6H28a4.2,4.2,0,0,0,1.1-3C29.1,4.4,28,2.7,26,2.4ZM10.8,9.5a4.3,4.3,0,1,1,4.3-4.2A4.2,4.2,0,0,1,10.8,9.5Zm0-7.7A3.5,3.5,0,0,0,7.3,5.3a3.5,3.5,0,1,0,7,0A3.5,3.5,0,0,0,10.8,1.8Zm0,6a2.6,2.6,0,1,1,2.5-2.5A2.5,2.5,0,0,1,10.8,7.8Zm0-4.5a1.9,1.9,0,0,0-2,2,2,2,0,1,0,4,0A1.9,1.9,0,0,0,10.8,3.3Z" fill="#1a2026"/>
        <path d="M30.4,10.6H17A5.2,5.2,0,0,0,17,21l13.8-2.1a4.3,4.3,0,0,0,3.4-4.2A3.9,3.9,0,0,0,30.4,10.6ZM17.1,20a4.3,4.3,0,1,1,4.3-4.3A4.3,4.3,0,0,1,17.1,20Zm0-7.8a3.5,3.5,0,0,0-3.5,3.5,3.5,3.5,0,1,0,7,0A3.5,3.5,0,0,0,17.1,12.2Zm0,6.1a2.6,2.6,0,1,1,2.5-2.6A2.6,2.6,0,0,1,17.1,18.3Zm0-4.6a2,2,0,1,0,2,2A2,2,0,0,0,17.1,13.7Z" fill="#1a2026"/>
      </g>
    </g>
  </g>
</svg>
