<svg xmlns="http://www.w3.org/2000/svg" viewBox="0 0 38 22.74"><defs><style>.cls-1{fill:#1a2026;}</style></defs><title>Tourist Attack</title><g id="Layer_2" data-name="Layer 2"><g id="Layer_1-2" data-name="Layer 1"><circle class="cls-1" cx="13.1" cy="2.41" r="2.15"/><path class="cls-1" d="M19,11.56l0,0Z"/><path class="cls-1" d="M19,11.56,16,10,14.25,6.08a1.76,1.76,0,0,0-2.78-.85,1.66,1.66,0,0,0-.43.5C9.62,7.85,8.19,10,6.76,12.06a1,1,0,0,0-.11,1.06L5,16.18C4.76,14.75,2.6,14.32,2,15.63L.47,18.89c-.16.34-.28.81-.11,1a.4.4,0,0,0-.13.76c.48.24,2.53,1.45,3,.62l4.05-7.84a.92.92,0,0,0,1-.36L10,10.6l-.84,6.56L7,21a1.08,1.08,0,1,0,1.83,1.13c.67-1.19,1.53-2.38,2.2-3.57a8.94,8.94,0,0,0,.72-3.41L15,22.09a1.07,1.07,0,1,0,1.9-1l-3.49-8a21.51,21.51,0,0,0,.51-3.31l.56,1.26c.18.41.71.57,1.1.77l1.78.91a5.48,5.48,0,0,0,1.06.52A.93.93,0,0,0,19,11.56Z"/><circle class="cls-1" cx="33.04" cy="2.29" r="2.29"/><path class="cls-1" d="M35.9,5H26.7V4.2l-.38-.38H20.84V3.43h-.38v.39h-.38V5h4.33l.64.63a.87.87,0,0,0-.06.32,1,1,0,0,0,1,1h4.24a.18.18,0,0,1,.18.17h0v14.3a1.15,1.15,0,0,0,2.29,0V14.68a.38.38,0,0,1,.76,0v6.66a1.15,1.15,0,0,0,2.29,0V7.89a.2.2,0,0,1,.19-.19.19.19,0,0,1,.19.19v4.24a1,1,0,0,0,1.91,0V7.06A2.1,2.1,0,0,0,35.9,5Zm-10.72.38L24.8,5h.76V5a1,1,0,0,0-.38.3Z"/></g></g></svg>