<svg xmlns="http://www.w3.org/2000/svg" viewBox="0 0 39.68 19.86"><defs><style>.cls-1{fill:#1a2026;}</style></defs><title>Traffic</title><g id="Layer_2" data-name="Layer 2"><g id="Layer_1-2" data-name="Layer 1"><path class="cls-1" d="M35.24,14v3.8a2.05,2.05,0,0,1-4.1,0V14a2.05,2.05,0,0,1,4.1,0ZM39.68,2.27a.91.91,0,0,1-1.79.24H36.68a1.42,1.42,0,0,0-1,.48l-.56.62H36.2A3.12,3.12,0,0,0,37,3.48a.65.65,0,0,1,.8.49.65.65,0,0,1-.64.78l-.14,0a5.25,5.25,0,0,0-1.17-.17H33.8a.71.71,0,0,1-.07.09v.88h.05a.72.72,0,0,1,.71.64,2.57,2.57,0,0,1,.68.49,2.75,2.75,0,0,1,.82,2v6.5a.77.77,0,0,1-.3.61V14a2.5,2.5,0,0,0-5,0v1.75a.78.78,0,0,1-.31-.61V8.64a2.79,2.79,0,0,1,1.54-2.49.72.72,0,0,1,.71-.62h0V4.65l-.07-.09h-2a5.25,5.25,0,0,0-1.17.17l-.14,0A.65.65,0,0,1,28.6,4a.65.65,0,0,1,.8-.49,3.12,3.12,0,0,0,.81.13H31.3L30.74,3a1.44,1.44,0,0,0-1.06-.48H28.47a.91.91,0,1,1,0-.48h1.21a1.89,1.89,0,0,1,1.42.64l.84.94h.64a.77.77,0,0,1,1.22,0h.62l.85-.94A1.87,1.87,0,0,1,36.68,2h1.21a.92.92,0,0,1,.88-.67A.91.91,0,0,1,39.68,2.27Zm-5.22,6a1.28,1.28,0,1,0-1.27,1.28A1.27,1.27,0,0,0,34.46,8.26ZM1.81,19.35H4.42a.12.12,0,0,0,.12-.12V15.59a.12.12,0,0,0-.12-.12H1.81a.12.12,0,0,0-.13.12v3.64A.12.12,0,0,0,1.81,19.35ZM4.17,0,1.62,6.76H1.23A1.24,1.24,0,0,0,0,8v5.58a1.23,1.23,0,0,0,1.23,1.24H22.77A1.23,1.23,0,0,0,24,13.57V8a1.24,1.24,0,0,0-1.23-1.23h-.4L19.83,0ZM19.11,1,21.2,6.57H2.8L4.89,1ZM4.94,10.25A1.73,1.73,0,1,1,3.22,8.53a1.72,1.72,0,0,1,1.72,1.72Zm17.57,0a1.73,1.73,0,1,1-1.72-1.72,1.72,1.72,0,0,1,1.72,1.72Zm.16,9V15.59a.12.12,0,0,0-.12-.12H19.94a.12.12,0,0,0-.12.12v3.64a.12.12,0,0,0,.12.12h2.61A.12.12,0,0,0,22.67,19.23Z"/></g></g></svg>