<svg xmlns="http://www.w3.org/2000/svg" width="23.5" height="26.7" viewBox="0 0 23.5 26.7">
  <title>Trafficker</title>
  <g id="Layer_2" data-name="Layer 2">
    <g id="Layer_1-2" data-name="Layer 1">
      <path d="M22,0a1.4,1.4,0,0,0-1.4,1.4V7.3a1.5,1.5,0,0,1,.9.4,2,2,0,0,1,.1,2.8l-2.7,2.7-.4-.3,2.7-2.8a1.5,1.5,0,0,0,0-2l-.6-.3h-.7l-.7.4-4.8,5a3.6,3.6,0,0,0-1.2,2.3,24.3,24.3,0,0,1,0,2.7l-.7-.4a1.9,1.9,0,0,0-1.9,1.1h-.4V15.4a3.6,3.6,0,0,0-1.1-2.3l-4.8-5-.7-.4H2.9l-.6.3a1.3,1.3,0,0,0,0,2L5,12.9l-.4.3L1.9,10.5a2,2,0,0,1,0-2.8,1.8,1.8,0,0,1,1-.4V1.4A1.5,1.5,0,0,0,1.4,0,1.4,1.4,0,0,0,0,1.4V11.5a1.6,1.6,0,0,0,.3.9l4.9,6.4H4.8A1.8,1.8,0,0,0,3,20.5,1.7,1.7,0,0,0,3.9,22,1.7,1.7,0,0,0,3,23.5a1.8,1.8,0,0,0,1.8,1.7h.5v.9h4.8a1.1,1.1,0,0,0,.9.5h.3A1.8,1.8,0,0,0,13,25.2h.3v.9h4.9v-.9h.5a1.8,1.8,0,0,0,1.7-1.7,1.6,1.6,0,0,0-.9-1.5,1.6,1.6,0,0,0,.9-1.5,1.8,1.8,0,0,0-1.7-1.7h-.4l4.8-6.4a1.8,1.8,0,0,0,.4-.9V1.4A1.5,1.5,0,0,0,22,0ZM3.9,20.5a.9.9,0,0,1,.9-.8h5.6l-.3,1.7H4.8A.9.9,0,0,1,3.9,20.5Zm0,3a.9.9,0,0,1,.9-.9H9.9l-.3,1.7H4.8A.9.9,0,0,1,3.9,23.5Zm8.2,1.6a.9.9,0,0,1-1,.7l-.6-.4a1.3,1.3,0,0,1-.1-.6l1-5.5a.8.8,0,0,1,.8-.7h.1a1,1,0,0,1,.8,1Zm7.4-1.6a.8.8,0,0,1-.8.8H13.1l.3-1.7h5.3A.8.8,0,0,1,19.5,23.5Zm0-3a.8.8,0,0,1-.8.9H13.6l.3-1.7h4.8A.8.8,0,0,1,19.5,20.5Z" fill="#1a2026"/>
    </g>
  </g>
</svg>
