<svg xmlns="http://www.w3.org/2000/svg" viewBox="0 0 37.83 32.38">
    <defs>
        <style>.cls-1{fill:#1a2026;}</style>
    </defs>
    <g id="Layer_2" data-name="Layer 2">
        <g id="Layer_1-2" data-name="Layer 1">
            <path class="cls-1"
                  d="M7.43,4.68a3,3,0,1,1-3,3A3,3,0,0,1,7.43,4.68ZM.89,20.22H3.44l-1-2.1,1-2.12.34-.71v4.93h7.27V14.85l.07.08.27.36,1.72,2.33a1.15,1.15,0,0,0,1.6.25l.1-.08,3.75-3.44a1.15,1.15,0,0,0,.07-1.63A1.14,1.14,0,0,0,17,12.65h0l-2.8,2.58L13,13.56a3.39,3.39,0,0,0-2.69-1.36H4.83a3.37,3.37,0,0,0-3,1.9L.11,17.63a1.17,1.17,0,0,0,0,1ZM0,31.85c0,.7,8.7.7,8.7,0,0-2-1.95-3.61-4.35-3.61S0,29.86,0,31.85ZM28.47,3.59h-14V4.87h13V18.3H20.39v1.28h8.08a.32.32,0,0,0,.32-.32V3.91A.32.32,0,0,0,28.47,3.59Zm-22.09,22a2,2,0,1,0-2,2A2,2,0,0,0,6.38,25.54Zm13.71,6.31c0,.7,8.7.7,8.7,0,0-2-1.95-3.61-4.35-3.61S20.09,29.86,20.09,31.85Zm6.38-6.31a2,2,0,1,0-2,2,2,2,0,0,0,2-2Zm-7.73,6.31c0-2-1.94-3.61-4.34-3.61S10,29.86,10,31.85C10,32.55,18.74,32.55,18.74,31.85Zm-6.37-6.31a2,2,0,1,0,2-2,2,2,0,0,0-2,2Z"/>
            <path class="cls-1"
                  d="M31.25,8.59V0H34A9.77,9.77,0,0,1,36.1.13,2.25,2.25,0,0,1,37.33,1a2.61,2.61,0,0,1,.5,1.67A2.82,2.82,0,0,1,37.55,4a2.55,2.55,0,0,1-.73.85,2.77,2.77,0,0,1-.9.41,10.25,10.25,0,0,1-1.8.12H33V8.59ZM33,1.45V3.89h.95a4.53,4.53,0,0,0,1.37-.13,1.1,1.1,0,0,0,.54-.43,1.14,1.14,0,0,0,.2-.66,1.15,1.15,0,0,0-.28-.78,1.21,1.21,0,0,0-.7-.38,8.07,8.07,0,0,0-1.25-.06Z"/>
        </g>
    </g>
</svg>
