<svg xmlns="http://www.w3.org/2000/svg" viewBox="0 0 44 28.26"><defs><style>.cls-1,.cls-2{fill:#1a2026;}.cls-1{fill-rule:evenodd;}</style></defs><g id="Layer_2" data-name="Layer 2"><g id="Layer_1-2" data-name="Layer 1"><path class="cls-1" d="M33.49,16.56c0,.15.08.06.19.11l0,0h.06l0,.06h.08l.06.08.18.05,0,.08h.08l0,.08h.05l0,.05h0v0a.39.39,0,0,0,.16.07c0,.09.05.09.13.11v.05a.91.91,0,0,1,.16.11l0,.05h.05l.18.21.11.06v.05l.11.05,0,.08.08,0v.05l.11.05v.05l.08,0c.06.06,0,.1.13.13s0,.09.1.11,0,.09.11.1.1.1.13.22.09,0,.11.1.06.1.18.13.06.07.08.16c.19.05.31.37.5.42v.06c.07,0,.09.1.13.13l.08,0,.06.07.07,0v.05c.09,0,.12,0,.14.11s.11,0,.13.1l.16.06c0,.09.06.09.16.1v.06a.37.37,0,0,1,.18.08s0,0,0,.05l.26,0,0,.08h0v.06h0c0,.08,0,.18,0,.23v0h.15c0-.06,0,0,.08-.05v0h.08v0h.06l.05-.07.18,0,0-.08a.24.24,0,0,0,.18-.05l0-.06.21-.05v0l.24-.05v-.06l.26,0,0-.05h.05v0h.14v0h.07v0h.08v0l.14,0v0a.38.38,0,0,0,.15,0v0h.16v0h.11v0H41v0h.56a2.57,2.57,0,0,1,.71.08l.4,0v0h.08l0,0,.24,0v0h.05l0,.05.18,0v.06c.09,0,.14,0,.16.13s.09,0,.11.1h.05l.08.19h0l.06.24,0,0v.06h0v.18h0v.18h0v.14h0v.05h0v.42h0v.08h0l-.08.5h0a1.05,1.05,0,0,1-.06.21l-.08,0V23l-.1,0c0,.12-.23.22-.37.23v.06a5,5,0,0,1-1,.13h-.36v0h-.08v0h-.11v0H41.1a3.66,3.66,0,0,0-.82,0H40v0h-.05l0,.08-.11,0,0,.08-.16.06v.05l-.13,0c0,.07,0,0-.08.07s-.06.05-.13.06v.05l-.19,0L39,24h0v.08h0v.16l0,0v.08h0l0,.21-.08.05,0,.18-.11.08V25l-.1.08v.05l-.11.08c0,.07,0,.11-.13.13s-.07.07-.16.13-.07.17-.1.24h0v.19h0l0,.52h0v.06l.05,0,0,.22h0a.24.24,0,0,1,.06.1l.1,0,0,.05.24.05,0,.06h0v0l.19,0,.05.08h.08v0l.11,0,0,.13h0a1.23,1.23,0,0,1-.05.56v0H39l-.05.08H38.8v0h-.08v0h-.08l0,.06H38.4c-.13,0-.36,0-.52,0v0h-.11v0l-.53,0v0h-.05l0-.05-.29,0v0h0v.08c-.1,0-.05,0-.11.08v0l-.26.06,0,.05h-.92v0h-.06v0h-.1v0l-.37,0,0,0h0v0l-.19,0v0s0,0,0-.05l-.11,0,0-.1c-.08,0-.06,0-.08-.08s0-.05-.06-.11h0l0-.42-.05,0-.06-.5a.39.39,0,0,0-.31-.08v0h-.11l0,.05H33.7v0l-.36,0v0l-.11,0v0H33v0l-.34,0v0h0v0h-.22v0H32a7.8,7.8,0,0,1-1.85.1,3.51,3.51,0,0,1-.87,0h-.43v0h-.08v0h-.26v0h-.42v0h-.29v0h-.05v0h-.16v0l-.53,0,0,0H27v0h-.23v0h-.27l0-.05h-.11v0h-.13v0h-.27v0h-.08l0-.06-.37,0v0h-.08v0h-.05v0l-.29,0v0h-.16l0-.05h-.18a.64.64,0,0,0,0,.24c.1,0,0,0,.08.08h0v0l.08,0,0,.08H25v0H25l0,.05h.05v0l.18,0,.06.08h.08v0l.15.13v.05l.06,0v.11c.07.08,0,.49,0,.6s-.09,0-.11.11l-.13,0v0h-.05l0,0h-.13v0H25v0l-.71,0v0c-.17-.05-.44,0-.61,0l-.34,0,0-.08L23.09,28,23,27.94H23l0-.08-.1-.05v0l0,0v0H22.7l0-.05h-.32v0l-.42,0v-.05a.2.2,0,0,1-.1,0v0h-.08l0-.08,0,0s0-.05-.06-.08l0-.32h0v-.13h0v-.08l.05,0,.06-.31h.05a3.27,3.27,0,0,0,.05-.35h0V26c-.07,0-.07,0-.13-.08v0c-.06,0-.32.19-.42.21l0,.08-.15,0-.06.08-.18,0,0,.05h0v0l-.21,0v0h-.11v0h-.05v0h-.13v0H19.9v0s0,0,0,0h-.76v0H19v0H18.9v0l-.51-.06v-.05l-.15,0v-.13c.1,0,.14-.11.21-.13l.37,0v0h.05l0-.05.34,0,.05-.08h.13v0h.08l.06-.08.15,0v0s0,0,0-.06.17-.12.29-.16.06-.07.11-.13h0v-.16l-.08,0,0-.06H20v0h0V25s-.06,0-.11,0v-.08h0v0h-.08V24.8l-.08,0v0h-.08l-.08-.11c-.1-.05-.09.07-.13-.08a.24.24,0,0,1-.21-.18c-.12-.1,0-.31,0-.45s.09-.05.11-.13h.05c0-.05,0-.09.08-.11h.05l.06-.1.07,0v0l.11-.08,0-.08h.05l0-.08h0l0-.08.05,0s0-.11.05-.13h.06c0-.13.12-.17.16-.31h.05c0-.15.12-.2.16-.35s.09-.06.1-.16h.06l0-.1h0V22l.08-.05v-.06h0v-.08l.08,0a.31.31,0,0,1,.08-.21l.05,0,0-.13.08-.05,0-.14.05,0v-.06h0l0-.13c.12,0,0,0,.08-.1h0v-.08l.08-.06,0-.15.08-.06,0-.13,0,0a.37.37,0,0,0,.08-.19h.05l.06-.18c.09,0,.09-.07.1-.16h0l0-.08h0v-.08l.1-.08v-.05l.06,0v-.05l.05,0v-.05l.1-.08v-.05l.11-.08V19.2l.11-.07v-.06l.13-.1v-.06l.1-.05v-.08l.08,0,.06-.11.07,0v-.08l.08,0,.06-.11h.05l0-.08c.05-.06.09,0,.13-.13s.08,0,.1-.1h.08v0s0-.06.06-.08h.05v0s0,0,.05-.08l.11,0c0-.11,0,0,.08-.08v0l.07,0v-.06c.08,0,.06,0,.14-.05v-.05l.13-.06,0-.07h.07l.08-.11h.06v0h.05l0-.08.11,0,0-.08h.05v0c.09,0,.07,0,.11-.08L25,17v-.05l.19-.05,0-.06h.06v0l.13,0,.05-.08h.11v0h.05v0h0l0-.06.18,0v0h.06l0-.05H26v0l.21,0,0-.06h.08v0l.26,0,0-.05h.05v0l.37,0v0l.11,0v0h.26v0h.19v0h.13v0h.05v0l1.4,0h1.08a2.64,2.64,0,0,1,.58,0h.56l0,0h.19v0l.45,0v0l.1,0v0l.35,0v0h.08l0,.05h.08v0l.24,0,0,.06H33v0l.21,0,.05.08Z"/><path class="cls-2" d="M9.09,3.09C5.8,2.34.83,3.4.07,6.16s3.29,6.17,6.53,6.92,6.44-.71,7.15-3.46S12.37,4,9.09,3.09Z"/><path class="cls-2" d="M15.79,13.39C13.35,12,9,14.81,7.36,17.74s-1.07,6.4,1.42,7.82,5.81.22,7.46-2.71S18.19,14.81,15.79,13.39Z"/><path class="cls-2" d="M28.33,6c-1.11-3.2-4.8-6.79-7.51-5.86s-3.28,6-2.22,9.19,4.18,5,6.8,4S29.39,9.16,28.33,6Z"/></g></g></svg>