<svg xmlns="http://www.w3.org/2000/svg" viewBox="0 0 32 32"><defs><style>.a{fill:#1c232b;}</style></defs><path class="a" d="M16,0A16,16,0,1,0,32,16,16,16,0,0,0,16,0Zm1.7,25.6H14.1V22h3.6Zm4.6-11.9a5.3,5.3,0,0,1-.8,1.5l-1.1,1-1.2.8a4.3,4.3,0,0,0-.9,1,2.6,2.6,0,0,0-.6,1.3v1.1H14.1V19.1a5.3,5.3,0,0,1,.4-1.9l.9-1.4,1-.9,1-.8.8-.9a3.7,3.7,0,0,0,.2-1.2,2.5,2.5,0,0,0-.6-1.9,2.4,2.4,0,0,0-1.7-.6,2.1,2.1,0,0,0-1.2.3,2.4,2.4,0,0,0-.9.8,3.7,3.7,0,0,0-.5,1.1,5.9,5.9,0,0,0-.2,1.3h-4a10.9,10.9,0,0,1,.5-2.6,7.7,7.7,0,0,1,1.4-2.1,4.8,4.8,0,0,1,2-1.4,5.9,5.9,0,0,1,2.7-.5,7.4,7.4,0,0,1,3.2.5,5.4,5.4,0,0,1,2.1,1.3,4.5,4.5,0,0,1,1.1,1.7,5.9,5.9,0,0,1,.4,1.7A5.6,5.6,0,0,1,22.3,13.7Z"/></svg>
