<svg xmlns="http://www.w3.org/2000/svg" viewBox="0 0 24.16 23.38"><defs><style>.cls-1{fill:#1a2026;fill-rule:evenodd;}</style></defs><g id="Layer_2" data-name="Layer 2"><g id="Layer_1-2" data-name="Layer 1"><path class="cls-1" d="M4.32,0a2.16,2.16,0,1,1-2,2.34A2.16,2.16,0,0,1,4.32,0ZM2.06,6.22a1.14,1.14,0,0,1,.55-.85,1.15,1.15,0,0,1,1.59.38A7.18,7.18,0,0,0,6.09,7.94,11.35,11.35,0,0,0,10,9.61a1.16,1.16,0,0,1-.58,2.24A13.47,13.47,0,0,1,4.72,9.79a2.65,2.65,0,0,1-.48-.37L4,11.9l3.33,4.33a3.21,3.21,0,0,1,.59,1.2l1,4.37a1.16,1.16,0,0,1-2.31.13l-.87-3.44a2.38,2.38,0,0,0-.49-1L3.24,15.29l-1,7.3a1.14,1.14,0,0,1-1.46.73,1.15,1.15,0,0,1-.73-1.46Zm9.75-4.47H23.7a.47.47,0,0,1,.46.47V22.57a.47.47,0,0,1-.46.46H11.81a.47.47,0,0,1-.46-.46V14.31a.45.45,0,0,1,.16-.35l1.58-1.5a.44.44,0,0,1,.54-.07l1.13.52-.34-1a.46.46,0,0,1,.28-.59l1.75-.56-1.84-.73a.47.47,0,0,1-.28-.57l.33-1.24-.83.56a.46.46,0,0,1-.61-.09L11.48,7a.46.46,0,0,1-.13-.33V2.22A.47.47,0,0,1,11.81,1.75Zm2.49,9.09-2.59-1,0,2.15Z"/></g></g></svg>
