<svg xmlns="http://www.w3.org/2000/svg" viewBox="0 0 32 31.7"><defs><style>.a{fill:#1c232b;}</style></defs><path class="a" d="M14.3,5.1a.8.8,0,0,0,.8.1c.1,0,.2-.1.3,0s.3.4.5.6.2-.1.2-.1a.8.8,0,0,1,.5.7h0v.3h.1c.1.1,0,.3,0,.4a2.4,2.4,0,0,1-.3,1,1.7,1.7,0,0,1-.6,1.2h-.6c-.2,0-.7.2-.6.5l.4.2h1l.7-.4.6-.9.3-.4.2-.2.3-.6V7.1h.1a.1.1,0,0,0,.1.1V7.1c.1,0,.4-.4.4-.4V7c0-.1.1-.1.1-.2V7h.3c0,.1,0,.2.1.2h.3c.1,0,.1-.1.2-.2h0c.1,0,.1-.1.1-.2h.1V6.6c.1,0,.2.3.2.3h0l.2.2V6.8h0c0-.1,0-.3.1-.3h.1V6.4h.1V6.3c-.1,0,.1.3.1.3a3.6,3.6,0,0,1,.2,1c.1.5.7,1.7,0,1.8s-.5.4-.2.6h1.2c.3-.1.2-.6.2-.8V8.4c-.1-.4,0-.7-.1-1.2a2.7,2.7,0,0,1,0-.9c0-.2.9-.2,1-.2a3.1,3.1,0,0,0,1.8-.9c.1-.1.1-.1.2,0a3.7,3.7,0,0,0,.5,1.1,4.8,4.8,0,0,1,.9,1.9,1.8,1.8,0,0,1-.3,1.2h-.1a.7.7,0,0,0-.6.1c-.1,0-.1.1-.1.3l.2.2h1a2.1,2.1,0,0,0,.4-.6c.1-.1.1-.2.2-.2a4.6,4.6,0,0,0,.4-1.3c.1-.1,0-.2,0-.3l-.4-1h.1c.5.3,1.1.7,1.2,1.2a2,2,0,0,1,0,1.1l-.2.5c0,.2-.1.1-.2.1s-.5.3-.4.4a.3.3,0,0,0,.3.3h.6a.6.6,0,0,0,.5-.2,5,5,0,0,0,.3-1.3,9.6,9.6,0,0,0,0-1.7,1,1,0,0,0-.4-.5c-.3-.3-.7-.6-.8-1a4.9,4.9,0,0,1-.1-1.2V3.6c0-.1,0-.6.1-.7s.3.3.3.4a5.7,5.7,0,0,1,.4,1.4c.2,1,.2,2,.9,2.7a1.6,1.6,0,0,0,.9.5c.2,0,.5.2.6-.2s-.2-.2-.5-.3l-.7-.2c-.7-.4-.7-1.4-.7-2.1A4.8,4.8,0,0,0,29,2.5a3.5,3.5,0,0,0-3-1.4,7.1,7.1,0,0,0-2.5.2h-.7a2.9,2.9,0,0,1-1.3.1c-.6-.1-1-.6-1.5-.8L18.6.2H16.5c-.7-.1-1.2-.4-1.8.6a5,5,0,0,0-.2,1.2l-.3.4c-.1.2-.1.4-.2.6s-.5.6-.5,1,.2.2.3.5Z"/><path class="a" d="M8.3,25.5a3.1,3.1,0,1,0,3.1,3.1A3.1,3.1,0,0,0,8.3,25.5Zm0,4.6a1.5,1.5,0,0,1,0-3,1.5,1.5,0,1,1,0,3Z"/><path class="a" d="M31.5,24.2h-1V21.5a1.4,1.4,0,0,0-1.4-1.4H21.8l-2.7-3.8a1.9,1.9,0,0,0-1.7-.9H5.2a1.8,1.8,0,0,0-1.8,1.7v7.1H.5a.5.5,0,0,0-.5.5v1.4a.5.5,0,0,0,.5.5h4l.6-1.6a1.1,1.1,0,0,1,1.1-.8h4.1a1.2,1.2,0,0,1,1.2.8l.6,1.6H22v-.2l.8-2a1.4,1.4,0,0,1,1.2-.9h4.6a.8.8,0,0,1,.8.9v2.2h2.1a.5.5,0,0,0,.5-.5V24.8A.6.6,0,0,0,31.5,24.2ZM13.1,19.6a.5.5,0,0,1-.5.5H5.8a.6.6,0,0,1-.6-.5V17.1a.6.6,0,0,1,.6-.5h6.8a.5.5,0,0,1,.5.5ZM16,22.2H14.7a.5.5,0,0,1-.4.2.5.5,0,1,1,0-1H16C16.4,21.5,16.4,22.2,16,22.2Zm3.9-2.1H14.8a.5.5,0,0,1-.5-.5V17.1a.5.5,0,0,1,.5-.5h2.7c.3,0,.4,0,.7.4L20,19.6C20.2,19.8,20.2,20.1,19.9,20.1Z"/><rect class="a" y="17.5" width="2.8" height="6.16" rx="0.9"/><path class="a" d="M25.8,25.5a3.1,3.1,0,1,0,3.1,3.1A3.1,3.1,0,0,0,25.8,25.5Zm0,4.6a1.5,1.5,0,0,1-1.5-1.5,1.5,1.5,0,0,1,1.5-1.5,1.4,1.4,0,0,1,1.5,1.5A1.5,1.5,0,0,1,25.8,30.1Z"/></svg>
