<svg xmlns="http://www.w3.org/2000/svg" width="34.8" height="27.6" viewBox="0 0 34.8 27.6">
  <title>Vehicle Movement</title>
  <g id="Layer_2" data-name="Layer 2">
    <g id="Layer_1-2" data-name="Layer 1">
      <g>
        <path d="M33.9,10.9,32.8,9.8l.5-.6h.5l.7.7a.4.4,0,0,1,0,.5Zm-1.5-.8,1.2,1.2-3.4,3.3H29.1V13.5ZM24.9,7.5h6.5V6.6H24.9Zm0-3.6h3.5V3H24.9Zm0,7.1h3.5v-.9H24.9Zm-1.1,2.8V.8H31V4.3a.4.4,0,0,0,.4.4H34V8.9h.8V4.3c0-.1,0-.2-.1-.2L31.8.2a.5.5,0,0,0-.4-.2h-8a.4.4,0,0,0-.4.4V14.2a.4.4,0,0,0,.1.3h5.2v-.8Zm8-12.4,1.8,2.5H31.8Z" fill="#1a2026"/>
        <path d="M24.2,21.8a2.9,2.9,0,1,1-2.9,2.9A2.9,2.9,0,0,1,24.2,21.8Zm0,4.3a1.4,1.4,0,1,0-1.4-1.4A1.4,1.4,0,0,0,24.2,26.1ZM.8,14.3h1a.8.8,0,0,1,.8.8v4.1a.8.8,0,0,1-.8.9H.8a.9.9,0,0,1-.8-.9V15.1A.9.9,0,0,1,.8,14.3ZM.5,20.7H3.2V14a1.7,1.7,0,0,1,1.7-1.6H16.3a1.8,1.8,0,0,1,1.6.8l2.5,3.6h6.9a1.3,1.3,0,0,1,1.3,1.3v2.6h.9a.5.5,0,0,1,.5.5v1.3a.5.5,0,0,1-.5.5H27.6V20.9a.9.9,0,0,0-.8-.9H22.5a1.3,1.3,0,0,0-1.1.9l-.8,1.9V23H11.4l-.6-1.5a1,1,0,0,0-1.1-.8H5.9a1,1,0,0,0-1.1.8L4.2,23H.5a.5.5,0,0,1-.5-.5V21.2A.5.5,0,0,1,.5,20.7Zm18.3-4.4-1.7-2.4c-.3-.4-.4-.4-.7-.4H13.9a.5.5,0,0,0-.5.5v2.3a.5.5,0,0,0,.5.5h4.7A.3.3,0,0,0,18.8,16.3ZM13.4,19l.4-.2H15c.4,0,.4-.7,0-.7H13.4A.5.5,0,1,0,13.4,19ZM4.9,16.3a.5.5,0,0,0,.5.5h6.4a.5.5,0,0,0,.5-.5V14a.5.5,0,0,0-.5-.5H5.4a.5.5,0,0,0-.5.5Zm2.9,5.6a2.9,2.9,0,0,1,2.9,2.9,2.8,2.8,0,0,1-2.9,2.8,2.8,2.8,0,0,1-2.9-2.8A2.9,2.9,0,0,1,7.8,21.9Zm0,4.3a1.5,1.5,0,0,0,1.4-1.4,1.5,1.5,0,0,0-1.4-1.5,1.5,1.5,0,1,0,0,2.9Z" fill="#1a2026"/>
      </g>
    </g>
  </g>
</svg>
