<svg xmlns="http://www.w3.org/2000/svg" width="31.7" height="29.4" viewBox="0 0 31.7 29.4">
  <title>Vehicle Overspeed</title>
  <g id="Layer_2" data-name="Layer 2">
    <g id="Layer_1-2" data-name="Layer 1">
      <g>
        <path d="M24.2,23.6a2.9,2.9,0,1,1-2.9,2.9A2.9,2.9,0,0,1,24.2,23.6Zm0,4.3a1.4,1.4,0,1,0-1.4-1.4A1.4,1.4,0,0,0,24.2,27.9ZM.8,16h1a.8.8,0,0,1,.8.9V21a.7.7,0,0,1-.8.8H.8A.8.8,0,0,1,0,21V16.9A.9.9,0,0,1,.8,16ZM.5,22.4H3.2V15.8a1.7,1.7,0,0,1,1.7-1.7H16.3a1.8,1.8,0,0,1,1.6.8l2.5,3.6h6.9a1.3,1.3,0,0,1,1.3,1.4v2.5h.9a.5.5,0,0,1,.5.5v1.3a.5.5,0,0,1-.5.5H27.6V22.6a.9.9,0,0,0-.8-.8H22.5a1.3,1.3,0,0,0-1.1.8l-.8,1.9v.2H11.4l-.6-1.4a1.1,1.1,0,0,0-1.1-.9H5.9a1.1,1.1,0,0,0-1.1.9l-.6,1.4H.5a.5.5,0,0,1-.5-.5V22.9A.5.5,0,0,1,.5,22.4ZM18.8,18l-1.7-2.4a.7.7,0,0,0-.7-.3H13.9a.5.5,0,0,0-.5.5V18a.5.5,0,0,0,.5.5h4.7C18.9,18.5,19,18.3,18.8,18Zm-5.4,2.7.4-.2H15a.3.3,0,0,0,0-.6H13.8l-.4-.2A.5.5,0,1,0,13.4,20.7ZM4.9,18a.5.5,0,0,0,.5.5h6.4a.5.5,0,0,0,.5-.5V15.8a.5.5,0,0,0-.5-.5H5.4a.5.5,0,0,0-.5.5Zm2.9,5.6a2.9,2.9,0,1,1-2.9,2.9A2.9,2.9,0,0,1,7.8,23.6Zm0,4.3a1.4,1.4,0,1,0,0-2.8,1.4,1.4,0,1,0,0,2.8Z" fill="#1a2026"/>
        <g>
          <path d="M22.7,0a9,9,0,0,0-9,9v.6a.6.6,0,0,0,.6.5H15a.6.6,0,0,0,.6-.5,5.9,5.9,0,0,1,5.8-6.1,6,6,0,0,1,5.9,6.1c0,.3.2.5.6.5h3.2a.6.6,0,0,0,.6-.5V9a9,9,0,0,0-9-9Z" fill="#1a2026"/>
          <path d="M21.8,8.1a1.1,1.1,0,0,0-1.4.7,1.3,1.3,0,0,0,.5,1.5,1.4,1.4,0,0,0,1.1.1l4.6-1.3h-.1Z" fill="#1a2026"/>
        </g>
      </g>
    </g>
  </g>
</svg>
