<svg xmlns="http://www.w3.org/2000/svg" viewBox="0 0 47.55 29.07">
    <defs>
        <style>.cls-1{fill:#1a2026;}</style>
    </defs>
    <g id="Layer_2" data-name="Layer 2">
        <g id="Layer_1-2" data-name="Layer 1">
            <path class="cls-1"
                  d="M7.75,21.28a3.87,3.87,0,1,0,3.87,3.87A3.87,3.87,0,0,0,7.75,21.28Zm0,5.76a1.89,1.89,0,1,1,1.89-1.89A1.88,1.88,0,0,1,7.75,27ZM39.07,11.19h-1.3a1.11,1.11,0,0,0-1.1,1.11v5.52a1.11,1.11,0,0,0,1.1,1.11h1.3a1.11,1.11,0,0,0,1.11-1.11V12.3A1.11,1.11,0,0,0,39.07,11.19Zm.43,8.54H35.89V10.81a2.21,2.21,0,0,0-2.22-2.22H18.33A2.33,2.33,0,0,0,16.24,9.7l-3.42,4.81H3.61a1.77,1.77,0,0,0-1.77,1.77v3.43H.66a.67.67,0,0,0-.66.67v1.75a.67.67,0,0,0,.66.67H3.21V20a1.1,1.1,0,0,1,1.1-1.11H10A1.78,1.78,0,0,1,11.56,20l1,2.57a1.25,1.25,0,0,1,.07.26H25l.75-2a1.51,1.51,0,0,1,1.47-1.11h5.15a1.52,1.52,0,0,1,1.47,1.11l.75,2H39.5a.67.67,0,0,0,.67-.67V20.39A.66.66,0,0,0,39.5,19.73ZM15,13.83l2.28-3.21c.34-.44.47-.48.84-.48h3.4a.67.67,0,0,1,.66.67v3a.66.66,0,0,1-.66.66H15.24C14.87,14.49,14.78,14.2,15,13.83Zm7.21,3.59a.64.64,0,0,1-.51-.22h-1.6a.44.44,0,1,1,0-.88h1.6a.62.62,0,0,1,.51-.23A.67.67,0,1,1,22.25,17.42Zm11.36-3.59a.66.66,0,0,1-.67.66H24.36a.66.66,0,0,1-.67-.66v-3a.67.67,0,0,1,.67-.67h8.58a.67.67,0,0,1,.67.67Zm-3.83,7.49a3.88,3.88,0,1,0,3.88,3.88A3.88,3.88,0,0,0,29.78,21.32Zm0,5.77a1.9,1.9,0,1,1,1.9-1.89A1.89,1.89,0,0,1,29.78,27.09Z"/>
            <path class="cls-1"
                  d="M41,8.59V0h2.79a9.77,9.77,0,0,1,2.06.13A2.31,2.31,0,0,1,47.06,1a2.67,2.67,0,0,1,.49,1.67A2.82,2.82,0,0,1,47.27,4a2.44,2.44,0,0,1-.73.85,2.77,2.77,0,0,1-.9.41,10.25,10.25,0,0,1-1.8.12H42.71V8.59Zm1.74-7.14V3.89h.95A4.53,4.53,0,0,0,45,3.76a1.1,1.1,0,0,0,.54-.43,1.14,1.14,0,0,0,.2-.66,1.15,1.15,0,0,0-.28-.78,1.18,1.18,0,0,0-.7-.38,8,8,0,0,0-1.24-.06Z"/>
        </g>
    </g>
</svg>
