<svg xmlns="http://www.w3.org/2000/svg" viewBox="0 0 31.9 25.4"><path d="M12.4,25.3H14v-.9l.4.3v-.2a.4.4,0,0,0,0-.5c-.6-1.9.1-4-.8-6l1.8.3a27,27,0,0,0,4.1.8,5,5,0,0,0,4.8-1.6c.4.9.6,1.7.9,2.4a6.7,6.7,0,0,1,.6,1.2,4.1,4.1,0,0,1-1.3,3.8l-.5.4a4.7,4.7,0,0,0,1.7-.1c1-.6.6-1.6,1-2.4a12.7,12.7,0,0,0,.6-1.8,1.7,1.7,0,0,0,0-1,9.8,9.8,0,0,1-.5-1.6l.2-.2.5.7a18,18,0,0,1,1.9,2,5.6,5.6,0,0,1,.9,1.7,5.8,5.8,0,0,1,.5,1.4c.1.5-.2.9-.8,1.3h1.3c.1-.3,0-.7.2-.9s0-1.1-.1-1.7-.2-1.4-.4-2.2a6.1,6.1,0,0,0-.7-1.4,3.2,3.2,0,0,1-.8-3.1,7.4,7.4,0,0,0,.2-4.4c-.3-.8-.9-1.4-1.1-2.1a17.6,17.6,0,0,0,0-2.3,15.7,15.7,0,0,0-2.3-4.9c-.2-.4-.3-.9-.5-1.3a2.1,2.1,0,0,0-.6-1c-.2.7-.2,1.4.5,1.8l.2.3a17.1,17.1,0,0,1,2.2,5.4,1.7,1.7,0,0,1-.1,1c-.1.5-.4.7-1,.6a14.2,14.2,0,0,0-4.6,0,32.9,32.9,0,0,1-4.5.3l1.3-.8c-1.5.1-2.8.2-4-.8l1-.3h0L15,7.6l.4-.3h0l-2.6.7h-.1L14,7.1a15.9,15.9,0,0,0-3.6.9l.6-.5.6-.5h-.1l-2.4.9.2-.4-.6.3A8.9,8.9,0,0,0,9,6.3a3,3,0,0,0-.2-1l-.7.2a3.7,3.7,0,0,0-.7,1.4A1.6,1.6,0,0,1,6.2,8.2,1.8,1.8,0,0,0,4.8,9.8c-.1.2-.1.4-.3.5L2,13a6.4,6.4,0,0,1-.6-1.4c-.1-.3-.2.1-.2.1a4.3,4.3,0,0,0,.2,1.2A1.8,1.8,0,0,1,.3,14.8c-.6.2-.1.7.2,1l.3.3.5.2c.3.3.4.6.7.6a1.1,1.1,0,0,0,1.4-.3c.2-.2.3-.4.5-.5l3-.7c.7,1.5,2.2,1.9,3.8,2.3s.3.3.3.5a14.3,14.3,0,0,0,.2,4.1A2.4,2.4,0,0,1,10,24.8l-.5.5c.5,0,.9.2,1.3,0s.4-.5.7-.8l.2.3c.7-1,0-2.4,1-3.3C13.5,22.8,13.9,24.1,12.4,25.3Z"/></svg>
