<svg xmlns="http://www.w3.org/2000/svg" viewBox="0 0 26 13"><defs><style>.cls-1{fill:#1a2026;}</style></defs><title>Water Level</title><g id="Layer_2" data-name="Layer 2"><g id="Layer_1-2" data-name="Layer 1"><path class="cls-1" d="M25,0a1.17,1.17,0,0,0-1.37,1l-1,4.24a4.39,4.39,0,0,1-4-2.8.88.88,0,0,0-1.65,0,4.35,4.35,0,0,1-8.14,0,.88.88,0,0,0-1.65,0,4.39,4.39,0,0,1-3.95,2.8v0L2.34,1A1.18,1.18,0,0,0,0,1.39L2.38,12a1.18,1.18,0,0,0,1.17,1h18.9a1.18,1.18,0,0,0,1.17-1L26,1.39A1.18,1.18,0,0,0,25,0ZM21.47,10.64H4.53L3.65,7A6.18,6.18,0,0,0,8.1,4.54,6.18,6.18,0,0,0,13,7a6.19,6.19,0,0,0,4.9-2.45A6.18,6.18,0,0,0,22.35,7Z"/></g></g></svg>