<?xml version="1.0" encoding="utf-8"?>
<!-- Generator: Adobe Illustrator 23.0.3, SVG Export Plug-In . SVG Version: 6.00 Build 0)  -->
<svg version="1.1" id="Layer_1" xmlns="http://www.w3.org/2000/svg" xmlns:xlink="http://www.w3.org/1999/xlink" x="0px" y="0px"
	 viewBox="0 0 100 100" style="enable-background:new 0 0 100 100;" xml:space="preserve">
<g>
	<path d="M50.2,10.1c4.8,13.5,13,25,19.3,37.6c1.3,2.6,2.5,5.4,3.7,8.1c4.7,11.7-0.1,24.4-8.7,30.1c-9,5.9-22.4,5.4-30.6-1.2
		c-8.2-6.6-11.2-18.3-6.9-28.9c2.4-6,5.7-11.7,8.7-17.5c2.4-4.7,5.3-9.1,7.7-13.8C45.7,19.8,47.8,15.1,50.2,10.1z M53.4,83
		c-12.9-1.8-18.3-8.4-20.3-24.7c-3.5,5.8-2.7,14.4,1.9,19.7C39.2,83.1,47.8,85.5,53.4,83z"/>
</g>
</svg>
