<svg xmlns="http://www.w3.org/2000/svg" viewBox="0 0 40.54 34.85"><g data-name="Layer 2"><g data-name="Layer 1"><path d="m40.27 12.78-.69.55-1.3 1L34 17.66a.33.33 0 0 0-.15.32v.37a8.46 8.46 0 0 1 .15 1.23 2.72 2.72 0 0 1-.77 1.81 3.65 3.65 0 0 1-.3.27l-.32.25-4.26 3.55a2.11 2.11 0 0 1 .21 1 1.53 1.53 0 0 1-.43 1l-.69.77a.16.16 0 0 0-.05.2c.2.49.17.6-.23 1s-.43.36-.59.34-.29-.18-.48-.5l-.09-.19-.15-.25a.48.48 0 0 0-.79-.09 1.74 1.74 0 0 0-.46 1.09c0 .25-.07.51-.1.75s0 .43-.07.65a2.78 2.78 0 0 1-.77 1.59c-.58.6-1.21 1.21-1.85 1.82a.6.6 0 0 1-.49.21.29.29 0 0 1-.1 0 6.69 6.69 0 0 1-3.33-2.88c-.22-.74 1.38-2 1.45-2.05l.55-.47 2.93-2.51a2.39 2.39 0 0 0 .83-2.24 1.66 1.66 0 0 1 .74-1.75l.29-.23.12-.09.11-.1-.39-.53a3.12 3.12 0 0 0-.94.94 5 5 0 0 1-.72.8h-.06l-1.28-1.63h.06a8.07 8.07 0 0 1 1-.51 4.77 4.77 0 0 0 1.29-.76 18.77 18.77 0 0 1 2-1.58 5.32 5.32 0 0 0 1.07-1.1 8.6 8.6 0 0 1 .7-.79l.06-.05 1.3 1.62h-.06l-.14.09a1.56 1.56 0 0 1-.28.16c-.17.09-.34.16-.5.23a3.57 3.57 0 0 0-1.1.63l-.12.1.41.52 11.3-8.82.69-.54a.69.69 0 0 1 .51-.15.65.65 0 0 1 .41.23l.32.42a.6.6 0 0 1 .12.47.65.65 0 0 1-.29.5ZM2.38 10.36c-.4 0-.74-.08-1.06.24a8.43 8.43 0 0 0-.81 1A2 2 0 0 0 .33 14c.42.64 1.33 1.28 2.08 1a2.6 2.6 0 0 1 2.59.71 35.34 35.34 0 0 1 3.92 3.82c1.53 1.53 3 3.17 4.34 4.83.7.82 1.72 1.85 1.5 3.06-.15.85-.33 1.89.88 1.92.53 0 .69-.14 1.2.1s1-.3 1.1-.79a1.53 1.53 0 0 1 .61-1c.3-.24.31-.53.55-.82.41-.51 1.44-1.38.49-2-.3-.19-.49-.57-.78-.75a2.92 2.92 0 0 0-.93-.26 7.36 7.36 0 0 1-1.73-.69 9.09 9.09 0 0 1-2.34-1.9l-3-3c-1.64-1.7-1.84-2-3.46-3.7A5.13 5.13 0 0 1 5.74 12a3.51 3.51 0 0 0-1.34-1.91 2 2 0 0 0-.73-.55c-.48-.11-1 .46-1.25.77Z"/><path d="M10.82 7.66a3.47 3.47 0 0 1 .18.44v.29c0 .1 0 .09.08.2a2.11 2.11 0 0 1 .2.56 2.18 2.18 0 0 1-.17.64c-.16.43-.38.83-.47 1s-.18.35-.08.51.3.45.37.58a.82.82 0 0 1 .07.74c-.14.41-.36.71-.25.92s.34.16.43.16a1.08 1.08 0 0 0 .73 0 1.23 1.23 0 0 0 .28 0 2.61 2.61 0 0 0 .5.06c.09 0 .1-.05.1-.05l.19.06c.06 0 .14 0 0-.23a1.82 1.82 0 0 0-.36-.54 1.08 1.08 0 0 1-.3-.34 4.27 4.27 0 0 1-.07-.56 2.61 2.61 0 0 1 .17-.65c.08-.2.17-.51.25-.7l.21-.48a3.31 3.31 0 0 1 0 .86 2.47 2.47 0 0 0-.07.76.72.72 0 0 0 .31.35 4.21 4.21 0 0 1 .64.6.79.79 0 0 1 .06.49 2.69 2.69 0 0 0-.13.47c0 .09 0 .25.29.21h.35c.06 0 .67.29 1 0 .13 0 .57.11.69 0s.09-.11.08-.17a3.09 3.09 0 0 0-.17-.39c0-.07-.05-.1-.23-.15a.91.91 0 0 1-.37-.17 1.38 1.38 0 0 1-.25-.43 6 6 0 0 0-.22-.56 3.17 3.17 0 0 1-.07-.69c0-.11.07-.58.11-.86a4.14 4.14 0 0 1 .1-.7 1.65 1.65 0 0 1 .59-.67 1 1 0 0 0 .41-.54 4.49 4.49 0 0 0 1.76 1.56 8 8 0 0 0 3.87.4 10 10 0 0 0 2.22-.45 12.39 12.39 0 0 0 .79 1.11.31.31 0 0 1 0 .15.2.2 0 0 0-.11.11c-.12-.05-.22-.07-.27 0a.78.78 0 0 0-.35-.17 5.29 5.29 0 0 0-.75.7.66.66 0 0 0-.16.49 1.8 1.8 0 0 0 .16.47.75.75 0 0 1 .19 0 .42.42 0 0 0 0 .46c.13.2.32.35.46.33a.75.75 0 0 0 .36-.2c.09-.08.39-.4.56-.52a2.17 2.17 0 0 0 .32-.22 1.58 1.58 0 0 0 .26 0 .17.17 0 0 1 0 .09 2 2 0 0 0-.2.24.91.91 0 0 0-.14.57c.05.11 0 .2.45.22a2.82 2.82 0 0 0 .73 0 2 2 0 0 0 .69.12 1.08 1.08 0 0 0 .45-.07s0-.12 0-.12a.81.81 0 0 0 .2 0c.07 0 .14 0 .11-.11a1.48 1.48 0 0 1-.16-.26.35.35 0 0 0-.21-.22 2.53 2.53 0 0 1-.41-.21 1.25 1.25 0 0 1-.31-.66 2.73 2.73 0 0 1 .07-.39 4.91 4.91 0 0 1 .5-1.36 7.11 7.11 0 0 1 .7-.81c.11 0 .3.14.44-.16h.33a.34.34 0 0 0 .36.19c.18-.06.45-.17.49-.26a1.57 1.57 0 0 0 .08-.24l.13-.08s.15.24.18.31a.77.77 0 0 0 .42.62c.1.11 1.47 1.43 1.55 1.54a.77.77 0 0 0 .52.3.46.46 0 0 0 .63.19 3.9 3.9 0 0 1 .77-.11s.43 0 .51-.26a1.91 1.91 0 0 1 .21-.38c.08-.15.11-.27.07-.33s.28-.59.28-.65a4.73 4.73 0 0 0 1.16-.94 3 3 0 0 0 .75-1.22 4.64 4.64 0 0 0 .05-.71c0-.09-.12-.35-.36 0a6.18 6.18 0 0 1-1.72.93 1.21 1.21 0 0 1-.44.06v-.12a1.57 1.57 0 0 1 .45-.17c.32-.08.59-.33.24-.37s-1 0-1 0a4.75 4.75 0 0 0-.53-.65 3.63 3.63 0 0 1-.64-.8 2.3 2.3 0 0 1-.25-1.06 3.07 3.07 0 0 0-.11-.89h.18c.14 0 .44 0 .7-.6.1-.15.27-.62.35-.69a.63.63 0 0 0 .13-.24.2.2 0 0 0-.13 0c-.07 0-.36.25-.53.33s-.77.28-.82.34 0-.26-.14-.31a1.26 1.26 0 0 0-.28 0c-.12 0-.2-.09-.19 0a.26.26 0 0 1-.08.25.24.24 0 0 0-.08.15.32.32 0 0 1-.16 0c-.06 0-.1-.23-.18-.27s-.28-.06-.32-.09a.25.25 0 0 1-.11-.15 2.43 2.43 0 0 0-.51-1 3 3 0 0 0-1.35-.67c-.48-.07-.76 0-1.06 0l-1.29-.13a3.9 3.9 0 0 0-1.79.17 2.34 2.34 0 0 1-.76.25 7.39 7.39 0 0 1-2.52-.21A19.21 19.21 0 0 1 19 .83a2.13 2.13 0 0 0-1.17.08 11.72 11.72 0 0 1-1.91.61c-.69.11-1.37.11-1.53.13a3.66 3.66 0 0 0-1.12.5 5 5 0 0 0-2 1.95 5.37 5.37 0 0 0-.6 2v.32a3.58 3.58 0 0 1-.1.53c-.07.24-.2.44-.24.59s-.09.3.06.41.19.17.18.21-.11.07 0 .25a1 1 0 0 1 .22.33s.18-.12.1-.43-.17-.37-.35-.46-.08 0-.06-.1.1-.15.17-.31a1.23 1.23 0 0 0 .08-.25s.07.39.09.47Z" style="fill:#fff"/><path d="M18.6.78a1.33 1.33 0 0 1 .4 0 19.21 19.21 0 0 0 2.39.59 7.8 7.8 0 0 0 1.88.24h.64a2.34 2.34 0 0 0 .76-.25 3.47 3.47 0 0 1 1.21-.21 4 4 0 0 1 .58 0l1.29.13h.56a3.13 3.13 0 0 1 .5 0 3 3 0 0 1 1.35.67 2.43 2.43 0 0 1 .51 1 .25.25 0 0 0 .11.15s.24 0 .32.09.12.23.18.27a.32.32 0 0 0 .16 0 .24.24 0 0 1 .08-.15.26.26 0 0 0 .08-.25h.17a1.26 1.26 0 0 1 .28 0c.11 0 .12.24.14.31s.65-.26.82-.34.46-.32.53-.33a.22.22 0 0 1 .09 0 .63.63 0 0 1-.13.24c-.08.07-.25.54-.35.69-.26.58-.56.59-.7.6h-.18a3.07 3.07 0 0 1 .11.89 2.3 2.3 0 0 0 .25 1.06 3.63 3.63 0 0 0 .64.8 4.75 4.75 0 0 1 .53.65s.7 0 1 0 .08.29-.24.37a1.57 1.57 0 0 0-.45.17v.12h.05a1.64 1.64 0 0 0 .39-.06 6.18 6.18 0 0 0 1.72-.93c.08-.1.15-.14.2-.14s.14.13.16.19a4.64 4.64 0 0 1-.05.71 3 3 0 0 1-.75 1.22 4.73 4.73 0 0 1-1.16.94c0 .06-.27.61-.28.65s0 .18-.07.33a1.91 1.91 0 0 0-.21.38c-.07.25-.48.26-.51.26a3.9 3.9 0 0 0-.77.11.64.64 0 0 1-.24.06.5.5 0 0 1-.39-.25.77.77 0 0 1-.52-.3c-.08-.11-1.45-1.43-1.55-1.54a.77.77 0 0 1-.42-.62c0-.07-.18-.31-.18-.31l-.13.08a1.57 1.57 0 0 1-.08.24c0 .09-.31.2-.49.26h-.07a.35.35 0 0 1-.29-.2s-.14 0-.23 0h-.1c-.08.16-.17.2-.25.2a.9.9 0 0 1-.19 0 7.11 7.11 0 0 0-.7.81 4.91 4.91 0 0 0-.5 1.36 2.73 2.73 0 0 0-.07.39 1.25 1.25 0 0 0 .31.66 2.53 2.53 0 0 0 .41.21.35.35 0 0 1 .21.22 1.48 1.48 0 0 0 .16.26c0 .07 0 .09-.11.11h-.17s.06.09 0 .12a1.08 1.08 0 0 1-.45.07 2 2 0 0 1-.66-.12 2.07 2.07 0 0 1-.41 0h-.32c-.43 0-.4-.11-.45-.22a.91.91 0 0 1 .14-.57 2 2 0 0 1 .2-.24.17.17 0 0 0 0-.09 1.58 1.58 0 0 1-.26 0 2.17 2.17 0 0 1-.32.22c-.17.12-.47.44-.56.52a.75.75 0 0 1-.36.2.64.64 0 0 1-.44-.33.42.42 0 0 1 0-.46h-.18a1.8 1.8 0 0 1-.16-.47.66.66 0 0 1 .16-.49c.09-.09.65-.7.75-.7a.78.78 0 0 1 .35.17.12.12 0 0 1 .09 0 .49.49 0 0 1 .18.05.2.2 0 0 1 .11-.11.31.31 0 0 0 0-.15 12.39 12.39 0 0 1-.79-1.11 10 10 0 0 1-2.22.45 8 8 0 0 1-1.16.08 7.94 7.94 0 0 1-2.71-.48A4.49 4.49 0 0 1 16 8.68a1 1 0 0 1-.44.54 1.65 1.65 0 0 0-.59.67 4.14 4.14 0 0 0-.12.83c0 .28-.11.75-.11.86a3.17 3.17 0 0 0 .07.69 6 6 0 0 1 .22.56 1.38 1.38 0 0 0 .25.43.91.91 0 0 0 .37.17c.18.05.19.08.23.15a3.09 3.09 0 0 1 .17.39c0 .06 0 .08-.08.17a.34.34 0 0 1-.19 0 4 4 0 0 1-.5-.06.73.73 0 0 1-.39.1 2 2 0 0 1-.64-.14h-.43c-.22 0-.21-.14-.21-.22a2.69 2.69 0 0 1 .13-.47.79.79 0 0 0-.06-.49 4.21 4.21 0 0 0-.64-.6.72.72 0 0 1-.31-.35 2.47 2.47 0 0 1 .07-.76 3.31 3.31 0 0 0 0-.86l-.21.48c-.08.19-.17.5-.25.7a2.61 2.61 0 0 0-.17.65 4.27 4.27 0 0 0 .07.56 1.08 1.08 0 0 0 .3.34 1.82 1.82 0 0 1 .36.54c.09.19 0 .23 0 .23l-.19-.06-.1.05a4.08 4.08 0 0 1-.46-.06h-.28a.59.59 0 0 1-.27.05 1.36 1.36 0 0 1-.46-.09H11a.31.31 0 0 1-.3-.17c-.11-.21.11-.51.25-.92a.82.82 0 0 0-.07-.74c-.07-.13-.27-.42-.37-.58s0-.32.08-.51.31-.6.47-1a2.18 2.18 0 0 0 .17-.64 2.11 2.11 0 0 0-.2-.56c-.07-.11-.07-.1-.08-.2s0-.17 0-.29a3.47 3.47 0 0 0-.13-.44c0-.08-.07-.45-.07-.45a1.23 1.23 0 0 1-.08.25c-.07.16-.15.26-.17.31s0 .07.06.1.26.15.35.46a.37.37 0 0 1-.1.43 1 1 0 0 0-.22-.33c-.15-.18 0-.21 0-.25s0-.1-.18-.21-.1-.26-.06-.41.17-.35.24-.59a3.58 3.58 0 0 0 .1-.53s0-.22 0-.32a5.37 5.37 0 0 1 .6-2 5 5 0 0 1 2-1.95 3.66 3.66 0 0 1 1.12-.5c.16 0 .84 0 1.53-.13a11.72 11.72 0 0 0 1.89-.6 2.23 2.23 0 0 1 .77-.13m0-.78a3.09 3.09 0 0 0-1 .18l-.19.07a8.93 8.93 0 0 1-1.58.5c-.43.07-.86.09-1.15.11h-.36a3.9 3.9 0 0 0-1.39.58 5.8 5.8 0 0 0-2.3 2.24 6.12 6.12 0 0 0-.71 2.37v.31a3.1 3.1 0 0 1-.07.38A2 2 0 0 1 9.7 7a1.78 1.78 0 0 0-.14.37 1.08 1.08 0 0 0 .19 1.08 1 1 0 0 0 .24.48l.1.13a.78.78 0 0 0 .28.34v.12a8.06 8.06 0 0 1-.34.76l-.1.21v.06a1.18 1.18 0 0 0 0 1.2l.12.18.2.31v.13a2.18 2.18 0 0 1-.11.27 1.43 1.43 0 0 0-.14 1.29 1.08 1.08 0 0 0 1 .59 2.22 2.22 0 0 0 .56.08 1.5 1.5 0 0 0 .37 0h.14a2.84 2.84 0 0 0 .5.06h.61a1 1 0 0 0 .71.27h.32a2.38 2.38 0 0 0 .75.14 1.59 1.59 0 0 0 .5-.08 2.58 2.58 0 0 0 .39 0 1 1 0 0 0 .65-.2.86.86 0 0 0 .36-1 3 3 0 0 0-.26-.6 1.06 1.06 0 0 0-.68-.47s0-.05 0-.08c-.06-.19-.15-.37-.2-.5v-.06a3.51 3.51 0 0 1 0-.41c0-.07.05-.32.08-.54v-.59a1.21 1.21 0 0 1 0-.3.91.91 0 0 1 .23-.28h.05A4 4 0 0 0 17.53 11a8.74 8.74 0 0 0 3 .52 9 9 0 0 0 1.26-.09s.56-.06 1.17-.17l-.21.22-.06.07a1.4 1.4 0 0 0-.38 1.13 2.89 2.89 0 0 0 .22.7.71.71 0 0 0 .11.17 1.21 1.21 0 0 0 .15.33 1.36 1.36 0 0 0 1.1.71H24a1.15 1.15 0 0 0 .52-.19 1.26 1.26 0 0 0 .91.35h.71a3 3 0 0 0 .73.1h.05a1.45 1.45 0 0 0 .9-.23.87.87 0 0 0 .52-.44.82.82 0 0 0 0-.7 1 1 0 0 0-.15-.25 1.07 1.07 0 0 0-.61-.62l-.19-.09a.21.21 0 0 1-.05-.09s0 0 0-.07v-.17a4.65 4.65 0 0 1 .37-1 5.19 5.19 0 0 1 .37-.45 1.15 1.15 0 0 0 .37-.12 1 1 0 0 0 .39.08 1 1 0 0 0 .3-.05l.23-.08a1.55 1.55 0 0 0 .36.31l.55.54c.29.28.76.74.87.86a1.48 1.48 0 0 0 .71.52 1.22 1.22 0 0 0 .81.32 1.29 1.29 0 0 0 .53-.11l.52-.06a1.23 1.23 0 0 0 1.22-.81L35 12a2.2 2.2 0 0 0 .12-.19 1.55 1.55 0 0 0 .17-.56l.1-.23a5.7 5.7 0 0 0 1.13-1 3.08 3.08 0 0 0 .93-1.65v-.14a2.66 2.66 0 0 0 0-.85 1 1 0 0 0-.91-.77 1 1 0 0 0-.81.43 2 2 0 0 1-.34.22.93.93 0 0 0-.49-.18h-.65c-.23 0-.24-.28-.37-.43l-.21-.22a1.45 1.45 0 0 1-.3-.4 1.43 1.43 0 0 1-.16-.71v-.3a1.84 1.84 0 0 0 .69-.82c.07-.12.13-.26.2-.41s0-.12.07-.17a1.51 1.51 0 0 0 .26-.47.78.78 0 0 0-.43-.94 1 1 0 0 0-.44-.1.75.75 0 0 0-.21 0 1.27 1.27 0 0 0-.49.25 1.86 1.86 0 0 1-.2.14l-.21.08-.11-.06a1.44 1.44 0 0 0-.43-.1 1.22 1.22 0 0 0-.33-.06 1 1 0 0 0-.33.07 2.63 2.63 0 0 0-.61-1 3.75 3.75 0 0 0-1.71-.82 4.1 4.1 0 0 0-.62 0h-.93l-.83-.17a5 5 0 0 0-.67 0 4.1 4.1 0 0 0-1.48.21l-.28.12a1 1 0 0 1-.27.09h-.58a7 7 0 0 1-1.69-.2A18.92 18.92 0 0 1 19.26.1h-.05a2.31 2.31 0 0 0-.61-.1Z"/></g></g></svg>