<svg xmlns="http://www.w3.org/2000/svg" viewBox="0 0 35.99 19.29"><g data-name="Layer 2"><g data-name="Layer 1"><path d="M1.7 9.85a5 5 0 0 1 .16.57v.37c0 .12 0 .11.1.25a2.94 2.94 0 0 1 .26.73 2.58 2.58 0 0 1-.22.82c-.2.55-.48 1.07-.59 1.32s-.25.46-.12.66a7.68 7.68 0 0 1 .48.75 1 1 0 0 1 .09.95c-.18.52-.45.91-.31 1.19s.43.2.54.2a1.38 1.38 0 0 0 .94 0 1.61 1.61 0 0 0 .37 0 4 4 0 0 0 .63.07c.12 0 .13-.06.13-.06a2.06 2.06 0 0 0 .26.07c.07 0 .17 0 0-.29a2.25 2.25 0 0 0-.42-.64 1.37 1.37 0 0 1-.38-.44 4.91 4.91 0 0 1-.09-.71 2.86 2.86 0 0 1 .21-.84c.1-.26.22-.66.32-.9s.27-.63.27-.63a4.38 4.38 0 0 1-.06 1.11 3.07 3.07 0 0 0-.09 1 .88.88 0 0 0 .4.45 5.06 5.06 0 0 1 .81.77.87.87 0 0 1 .09.63 3.75 3.75 0 0 0-.18.6c0 .12 0 .32.38.28h.45s.86.37 1.32 0c.18 0 .74.14.89 0s.12-.14.1-.21a3 3 0 0 0-.21-.5c-.06-.1-.07-.14-.3-.2a1.29 1.29 0 0 1-.48-.21 1.9 1.9 0 0 1-.31-.57c-.09-.28-.24-.58-.29-.71a4.48 4.48 0 0 1-.09-.89c0-.14.1-.75.15-1.11a4.92 4.92 0 0 1 .15-1.06 2.05 2.05 0 0 1 .76-.87 1.33 1.33 0 0 0 .56-.68 6 6 0 0 0 2.27 2 10.29 10.29 0 0 0 5 .51 12.74 12.74 0 0 0 2.86-.58 16 16 0 0 0 1 1.43.39.39 0 0 1 0 .19.24.24 0 0 0-.14.15c-.15-.07-.28-.09-.35 0a.9.9 0 0 0-.45-.22c-.11 0-.85.78-1 .9a.87.87 0 0 0-.2.64 2.8 2.8 0 0 0 .2.6 1.18 1.18 0 0 1 .25 0 .53.53 0 0 0 0 .58c.16.27.41.45.59.43a.94.94 0 0 0 .46-.25 7 7 0 0 1 .72-.67 3.12 3.12 0 0 0 .42-.29 1.68 1.68 0 0 0 .33 0 .36.36 0 0 1-.05.13 1.6 1.6 0 0 0-.26.3 1.23 1.23 0 0 0-.18.73c.06.14 0 .26.58.29a3.41 3.41 0 0 0 .93 0 2.52 2.52 0 0 0 .89.16 1.54 1.54 0 0 0 .65-.15c.06 0 0-.17 0-.17a.82.82 0 0 0 .27 0c.08 0 .17 0 .13-.14a2.18 2.18 0 0 1-.2-.33.43.43 0 0 0-.28-.28 3 3 0 0 1-.52-.28 1.54 1.54 0 0 1-.39-.85 4.43 4.43 0 0 1 .08-.49 6.68 6.68 0 0 1 .64-1.75 8.76 8.76 0 0 1 .91-1c.13 0 .37.17.57-.2.07 0 .36 0 .42-.07a.41.41 0 0 0 .46.25c.23-.07.58-.22.63-.33a2.42 2.42 0 0 0 .1-.3l.16-.11s.2.3.24.39a1 1 0 0 0 .54.8c.12.14 1.89 1.84 2 2a.93.93 0 0 0 .67.39.6.6 0 0 0 .8.25 4.64 4.64 0 0 1 1-.15s.56 0 .66-.33a2.46 2.46 0 0 1 .26-.49c.1-.2.14-.34.09-.42s.37-.76.37-.84A5.84 5.84 0 0 0 34 12.28a3.85 3.85 0 0 0 1-1.56 5.25 5.25 0 0 0 0-.92c0-.12-.15-.45-.46-.06a7.83 7.83 0 0 1-2.21 1.19 1.53 1.53 0 0 1-.57.07l-.06-.15a2.27 2.27 0 0 1 .58-.22c.41-.1.75-.43.31-.48s-1.23 0-1.23 0a6 6 0 0 0-.69-.85 4.28 4.28 0 0 1-.82-1 2.9 2.9 0 0 1-.32-1.37 3.75 3.75 0 0 0-.14-1.13.66.66 0 0 1 .23 0c.18 0 .57 0 .9-.78.13-.18.34-.79.44-.88a.88.88 0 0 0 .17-.31.28.28 0 0 0-.17 0c-.09 0-.45.33-.67.43s-1 .36-1.06.43c0-.08 0-.33-.18-.39a1.43 1.43 0 0 0-.36-.06c-.15 0-.26-.11-.24 0a.36.36 0 0 1-.1.33.36.36 0 0 0-.11.19.47.47 0 0 1-.21 0c-.07 0-.13-.29-.23-.36s-.35-.07-.41-.11a.3.3 0 0 1-.13-.18 3.36 3.36 0 0 0-.66-1.29 3.87 3.87 0 0 0-1.74-.87c-.61-.09-1 0-1.37-.05l-1.69-.34a4.79 4.79 0 0 0-2.29.21 3.21 3.21 0 0 1-1 .33 9.3 9.3 0 0 1-3.23-.28 22.49 22.49 0 0 1-3.08-.76 2.72 2.72 0 0 0-1.5.11A14.76 14.76 0 0 1 8.25 2c-.89.15-1.75.15-2 .18a4.32 4.32 0 0 0-1.44.63 6.47 6.47 0 0 0-2.55 2.47 7 7 0 0 0-.77 2.58v.42a4.49 4.49 0 0 1-.14.72c-.09.3-.26.56-.31.75s-.11.38.08.53.25.21.24.26-.16.1 0 .33a1.38 1.38 0 0 1 .28.42s.24-.16.13-.55a.74.74 0 0 0-.44-.59c-.06 0-.11-.07-.09-.13s.14-.19.23-.4a2.54 2.54 0 0 0 .1-.32s.1.45.13.55Z" style="fill:#fff"/><path d="M11.7 1a2.16 2.16 0 0 1 .51.06 22.49 22.49 0 0 0 3.08.76 10 10 0 0 0 2.42.32h.81a3.21 3.21 0 0 0 1-.33 5 5 0 0 1 2.29-.21l1.66.16h.73a3.81 3.81 0 0 1 .64.05 3.87 3.87 0 0 1 1.74.87 3.36 3.36 0 0 1 .66 1.29.3.3 0 0 0 .13.18c.06 0 .31 0 .41.11s.16.31.23.36a.47.47 0 0 0 .21 0 .36.36 0 0 1 .11-.19.36.36 0 0 0 .1-.33s0-.05 0-.05.12 0 .22.06a1.43 1.43 0 0 1 .36.06c.15.06.16.31.18.39.07-.07.83-.33 1.06-.43s.58-.41.67-.43H31a.33.33 0 0 1 .11 0 .88.88 0 0 1-.17.31c-.1.09-.31.7-.44.88-.33.76-.72.77-.9.78a.66.66 0 0 0-.23 0 3.75 3.75 0 0 1 .14 1.13 2.9 2.9 0 0 0 .32 1.37 4.28 4.28 0 0 0 .82 1 6 6 0 0 1 .69.85s.9 0 1.23 0 .1.38-.31.48a2.06 2.06 0 0 0-.57.22l.06.15h.07a2.37 2.37 0 0 0 .5-.08 7.83 7.83 0 0 0 2.21-1.19c.11-.14.19-.19.26-.19s.18.17.2.25a5.25 5.25 0 0 1-.06.92 3.85 3.85 0 0 1-1 1.56 5.84 5.84 0 0 1-1.49 1.21c0 .08-.36.79-.37.84s0 .22-.09.42a2.46 2.46 0 0 0-.26.49c-.1.32-.62.33-.66.33a4.64 4.64 0 0 0-1 .15.72.72 0 0 1-.3.07.65.65 0 0 1-.5-.32.93.93 0 0 1-.67-.39c-.1-.14-1.87-1.84-2-2a1 1 0 0 1-.54-.8c0-.09-.24-.39-.24-.39l-.16.11a2.42 2.42 0 0 1-.1.3c-.05.11-.4.26-.63.33h-.1a.44.44 0 0 1-.36-.26c0 .06-.18.06-.3.06h-.12c-.11.2-.23.25-.33.25a1.25 1.25 0 0 1-.24-.05 8.76 8.76 0 0 0-.91 1 6.68 6.68 0 0 0-.56 1.97 2.88 2.88 0 0 0-.08.49 1.54 1.54 0 0 0 .39.85 3 3 0 0 0 .52.28.43.43 0 0 1 .28.28 2.18 2.18 0 0 0 .2.33c0 .09-.05.12-.13.14h-.05a1 1 0 0 1-.22 0s.09.13 0 .17a1.54 1.54 0 0 1-.58.09 2.7 2.7 0 0 1-.85-.16 2.36 2.36 0 0 1-.53 0h-.4c-.55 0-.52-.15-.58-.29a1.23 1.23 0 0 1 .18-.73 1.6 1.6 0 0 1 .26-.3.36.36 0 0 0 .05-.13 1.68 1.68 0 0 1-.33 0 3.12 3.12 0 0 1-.42.29 7 7 0 0 0-.72.67.94.94 0 0 1-.46.25.8.8 0 0 1-.56-.43.53.53 0 0 1 0-.58 1.41 1.41 0 0 0-.24 0 2.8 2.8 0 0 1-.2-.6.87.87 0 0 1 .2-.64c.12-.12.84-.9 1-.9a.9.9 0 0 1 .45.22.14.14 0 0 1 .11 0 .64.64 0 0 1 .24.07.24.24 0 0 1 .14-.15.39.39 0 0 0 0-.19 16 16 0 0 1-1-1.43 12.74 12.74 0 0 1-2.86.58 11.26 11.26 0 0 1-1.48.1 10.29 10.29 0 0 1-3.49-.61 6 6 0 0 1-2.27-2 1.33 1.33 0 0 1-.56.68 2.05 2.05 0 0 0-.76.87 4.92 4.92 0 0 0-.15 1.06c0 .36-.14 1-.15 1.11a4.48 4.48 0 0 0 .09.89c.05.13.2.43.29.71a1.9 1.9 0 0 0 .31.57 1.29 1.29 0 0 0 .48.21c.23.06.24.1.3.2a3 3 0 0 1 .21.5c0 .07.05.1-.1.21a.41.41 0 0 1-.24.05 4.24 4.24 0 0 1-.65-.08.85.85 0 0 1-.49.14 2.79 2.79 0 0 1-.83-.18h-.74c-.28 0-.28-.17-.28-.28a5.26 5.26 0 0 1 .18-.6.87.87 0 0 0-.09-.63 5.06 5.06 0 0 0-.81-.77.88.88 0 0 1-.4-.45 3.07 3.07 0 0 1 .09-1 4.38 4.38 0 0 0 .06-1.11s-.17.38-.27.63-.22.64-.32.9a2.86 2.86 0 0 0-.21.84 4.91 4.91 0 0 0 .09.71 1.37 1.37 0 0 0 .38.44 2.25 2.25 0 0 1 .46.69c.11.24 0 .29 0 .29a2.06 2.06 0 0 1-.26-.07s0 0-.13.06H4a4.94 4.94 0 0 1-.59-.08h-.19L3 17.7a.77.77 0 0 1-.34.07 2.14 2.14 0 0 1-.6-.11h-.13a.39.39 0 0 1-.38-.21c-.14-.28.13-.67.31-1.19a1 1 0 0 0-.09-.95 7.68 7.68 0 0 0-.48-.75c-.13-.2 0-.42.12-.66s.39-.77.59-1.32a2.58 2.58 0 0 0 .22-.82A2.94 2.94 0 0 0 2 11c-.09-.14-.09-.13-.1-.25s0-.23 0-.37a5 5 0 0 0-.16-.57c0-.1-.09-.58-.09-.58a2.54 2.54 0 0 1-.1.32c-.09.21-.21.34-.23.4s0 .09.09.13a.74.74 0 0 1 .44.59c.1.37-.1.55-.13.55a1.38 1.38 0 0 0-.28-.42c-.2-.23 0-.28 0-.33s-.05-.12-.24-.26-.2-.29-.2-.49.22-.45.31-.75a4.49 4.49 0 0 0 .12-.69s0-.28 0-.42a7 7 0 0 1 .77-2.58 6.47 6.47 0 0 1 2.65-2.52 4.32 4.32 0 0 1 1.44-.63c.21 0 1.07 0 2-.18a14.76 14.76 0 0 0 2.46-.78 2.89 2.89 0 0 1 1-.17m0-1a4.16 4.16 0 0 0-1.34.23l-.25.09a12 12 0 0 1-2 .65 11.42 11.42 0 0 1-1.48.13h-.47a5.33 5.33 0 0 0-1.78.75 7.46 7.46 0 0 0-3.02 2.91 7.69 7.69 0 0 0-.92 3.06v.4c0 .08-.06.32-.1.48a1.7 1.7 0 0 1-.13.3 2.88 2.88 0 0 0-.19.47 1.4 1.4 0 0 0 .25 1.39 1.37 1.37 0 0 0 .31.63l.13.15a1 1 0 0 0 .36.45l-.06.15a9.23 9.23 0 0 1-.43 1l-.13.28v.08a1.52 1.52 0 0 0 0 1.54l.16.23c.07.12.22.33.25.4l.05.1a.18.18 0 0 1 0 .06c-.05.13-.1.24-.15.35A1.81 1.81 0 0 0 .7 17.9a1.38 1.38 0 0 0 1.27.76H2a3 3 0 0 0 .73.1 2.42 2.42 0 0 0 .47-.05h.18a4.81 4.81 0 0 0 .64.07h.46a.86.86 0 0 0 .23 0 1.29 1.29 0 0 0 .91.34H6a3 3 0 0 0 1 .18 2.2 2.2 0 0 0 .64-.1 4.21 4.21 0 0 0 .5 0 1.33 1.33 0 0 0 .8-.2 1.08 1.08 0 0 0 .46-1.29 3.77 3.77 0 0 0-.33-.77 1.36 1.36 0 0 0-.89-.62.47.47 0 0 1-.05-.1 6.15 6.15 0 0 0-.25-.64v-.61c0-.09 0-.4.09-.69l.05-.33v-.43a1.77 1.77 0 0 1 0-.39 1.15 1.15 0 0 1 .29-.36h.06a5.14 5.14 0 0 0 2 1.42 11.32 11.32 0 0 0 3.81.66 11.08 11.08 0 0 0 1.61-.11s.71-.07 1.49-.22l-.27.29-.08.08a1.85 1.85 0 0 0-.48 1.46 3.36 3.36 0 0 0 .29.9.83.83 0 0 0 .14.22 1.9 1.9 0 0 0 .18.42 1.77 1.77 0 0 0 1.42.91h.14a1.51 1.51 0 0 0 .67-.24 1.59 1.59 0 0 0 1.17.44 3.54 3.54 0 0 0 .47 0h.44a4.47 4.47 0 0 0 .94.13h.07a1.9 1.9 0 0 0 1.15-.29 1.12 1.12 0 0 0 .67-.57 1.11 1.11 0 0 0 0-.91A1.83 1.83 0 0 0 24 17a1.38 1.38 0 0 0-.79-.8l-.21-.15-.07-.12a.64.64 0 0 0 0-.09 1.55 1.55 0 0 0 0-.21 6.51 6.51 0 0 1 .47-1.33l.48-.59a1.17 1.17 0 0 0 .48-.15 1.16 1.16 0 0 0 .49.1 1.74 1.74 0 0 0 .39-.05l.3-.11a1.94 1.94 0 0 0 .46.39l.71.71c.37.36 1 1 1.11 1.1a2 2 0 0 0 .93.67 1.47 1.47 0 0 0 1 .42 1.67 1.67 0 0 0 .68-.15 6 6 0 0 1 .67-.07 1.59 1.59 0 0 0 1.57-1.05v-.06a1.83 1.83 0 0 0 .15-.25 1.85 1.85 0 0 0 .22-.72l.14-.3a7.35 7.35 0 0 0 1.45-1.25 4 4 0 0 0 1.2-2.11v-.19a3 3 0 0 0 0-1.09 1.23 1.23 0 0 0-1.17-1 1.32 1.32 0 0 0-1 .56 2.78 2.78 0 0 1-.44.27 1.28 1.28 0 0 0-.63-.23h-.83a6.09 6.09 0 0 0-.48-.55l-.27-.29a1.87 1.87 0 0 1-.39-.51 1.91 1.91 0 0 1-.2-.92v-.39a2.29 2.29 0 0 0 .89-1c.09-.15.17-.34.26-.52s.06-.16.09-.22a1.86 1.86 0 0 0 .33-.61 1 1 0 0 0-.5-1.21 1.23 1.23 0 0 0-.49-.22 1.27 1.27 0 0 0-.28 0 1.56 1.56 0 0 0-.62.33 2.85 2.85 0 0 1-.26.17l-.26.1-.15-.07a1.62 1.62 0 0 0-.55-.13 1.37 1.37 0 0 0-.43-.08 1.06 1.06 0 0 0-.42.09 3.22 3.22 0 0 0-.79-1.26A4.82 4.82 0 0 0 25 .78a5.06 5.06 0 0 0-.79-.06h-.63L23 .67 21.93.56a8.43 8.43 0 0 0-.86-.05 5.34 5.34 0 0 0-1.92.33L18.8 1a1 1 0 0 1-.35.12h-.74a9.29 9.29 0 0 1-2.18-.27 24.57 24.57 0 0 1-3-.73h-.06A2.85 2.85 0 0 0 11.7 0Z"/></g></g></svg>