<svg xmlns="http://www.w3.org/2000/svg" viewBox="0 0 37.31 29.33"><g data-name="Layer 2"><g data-name="Layer 1"><path d="M2.38 10.17c-.4 0-.74-.08-1.06.24a7.76 7.76 0 0 0-.81 1 1.94 1.94 0 0 0-.18 2.39c.42.64 1.33 1.29 2.08 1a2.64 2.64 0 0 1 2.59.72 35.34 35.34 0 0 1 3.92 3.82c1.53 1.54 3 3.17 4.34 4.83C14 25 15 26 14.78 27.23c-.15.85-.33 1.89.88 1.92.53 0 .69-.14 1.2.1s1-.29 1.1-.79a1.55 1.55 0 0 1 .61-1.05c.3-.24.31-.53.55-.82.41-.5 1.44-1.38.49-2-.3-.2-.49-.58-.78-.75a2.94 2.94 0 0 0-.93-.27 7.78 7.78 0 0 1-1.73-.68A9.34 9.34 0 0 1 13.83 21c-1-1-2-1.94-3-2.95-1.64-1.7-1.84-2-3.46-3.69a5.16 5.16 0 0 1-1.64-2.6A3.55 3.55 0 0 0 4.4 9.9a2.07 2.07 0 0 0-.73-.55c-.48-.11-1 .46-1.25.77v.05Z"/><path d="M10.64 7.66c0 .21.11.33.12.44s0 .19 0 .29 0 .09.08.2a2.17 2.17 0 0 1 .21.56 2 2 0 0 1-.18.64 10.62 10.62 0 0 1-.46 1c-.09.19-.19.35-.09.51a6 6 0 0 1 .37.58.82.82 0 0 1 .07.74c-.14.41-.35.71-.24.92s.34.16.42.16a1.09 1.09 0 0 0 .73 0 1.31 1.31 0 0 0 .29 0 2.6 2.6 0 0 0 .49.06c.1 0 .1-.05.1-.05l.2.06c.05 0 .13 0 0-.23a1.63 1.63 0 0 0-.35-.54 1 1 0 0 1-.3-.34 4.27 4.27 0 0 1-.07-.56 2.53 2.53 0 0 1 .16-.65c.08-.2.18-.51.26-.7s.21-.48.21-.48a3.81 3.81 0 0 1 0 .86 2.47 2.47 0 0 0-.07.76.72.72 0 0 0 .31.35 4.62 4.62 0 0 1 .63.6.67.67 0 0 1 .06.49 4.06 4.06 0 0 0-.13.47c0 .09 0 .25.29.21h.36c.06 0 .66.29 1 0 .14 0 .58.11.69 0s.1-.11.08-.17a2 2 0 0 0-.16-.39c-.05-.07-.06-.1-.24-.15a.91.91 0 0 1-.37-.17 1.24 1.24 0 0 1-.24-.43 5.5 5.5 0 0 0-.23-.56 3.17 3.17 0 0 1-.07-.69c0-.11.08-.58.12-.86a3.53 3.53 0 0 1 .12-.83 1.52 1.52 0 0 1 .59-.67 1.09 1.09 0 0 0 .44-.54 4.41 4.41 0 0 0 1.76 1.56 8 8 0 0 0 3.87.4 10 10 0 0 0 2.22-.45 12.29 12.29 0 0 0 .78 1.11.25.25 0 0 1 0 .15.18.18 0 0 0-.11.11c-.12-.05-.22-.07-.28 0a.8.8 0 0 0-.34-.17c-.09 0-.66.61-.76.7a.66.66 0 0 0-.15.49A1.93 1.93 0 0 0 23 13a.75.75 0 0 1 .19 0 .45.45 0 0 0 0 .46c.12.2.32.35.46.33a.72.72 0 0 0 .35-.2c.1-.08.4-.4.57-.52l.32-.22a1.7 1.7 0 0 0 .26 0 .41.41 0 0 1 0 .09 1.3 1.3 0 0 0-.2.24 1 1 0 0 0-.15.57c.05.11 0 .2.46.22a2.72 2.72 0 0 0 .72 0 2.09 2.09 0 0 0 .69.12 1.1 1.1 0 0 0 .46-.07s0-.12 0-.12a.81.81 0 0 0 .2 0c.06 0 .13 0 .1-.11a2.47 2.47 0 0 1-.16-.26.33.33 0 0 0-.21-.22 3 3 0 0 1-.41-.21 1.26 1.26 0 0 1-.3-.66c0-.09 0-.24.06-.39a5.26 5.26 0 0 1 .5-1.36 7 7 0 0 1 .71-.81.29.29 0 0 0 .38-.19h.33a.32.32 0 0 0 .35.19c.18-.06.46-.17.5-.26a1.57 1.57 0 0 0 .08-.24l.12-.08s.15.24.18.31a.77.77 0 0 0 .43.62c.09.11 1.47 1.43 1.54 1.54a.77.77 0 0 0 .52.3.47.47 0 0 0 .63.19 4.08 4.08 0 0 1 .78-.11s.43 0 .51-.26a1.91 1.91 0 0 1 .2-.38c.08-.15.11-.27.07-.33s.29-.59.29-.65a4.73 4.73 0 0 0 1.16-.94 3.05 3.05 0 0 0 .74-1.22 2.94 2.94 0 0 0 .05-.71c0-.09-.12-.35-.36 0a5.92 5.92 0 0 1-1.72.93 1.21 1.21 0 0 1-.44.06v-.12a1.46 1.46 0 0 1 .45-.17c.31-.08.58-.33.24-.37s-1 0-1 0a4.25 4.25 0 0 0-.54-.65 3.31 3.31 0 0 1-.63-.8 2.18 2.18 0 0 1-.25-1.06 3.07 3.07 0 0 0-.11-.89h.18c.14 0 .44 0 .7-.6.1-.15.26-.62.34-.69a.71.71 0 0 0 .14-.24.23.23 0 0 0-.14 0c-.07 0-.35.25-.52.33s-.77.28-.83.34 0-.26-.13-.31a1.35 1.35 0 0 0-.28 0c-.12 0-.21-.09-.19 0a.28.28 0 0 1-.08.25.3.3 0 0 0-.09.15.29.29 0 0 1-.15 0c-.06 0-.11-.23-.19-.27s-.27-.06-.32-.09a.28.28 0 0 1-.1-.15 2.57 2.57 0 0 0-.51-1 3.07 3.07 0 0 0-1.35-.67c-.48-.07-.76 0-1.07 0l-1.29-.13a3.86 3.86 0 0 0-1.78.17 2.31 2.31 0 0 1-.77.25 7.32 7.32 0 0 1-2.51-.21 19.46 19.46 0 0 1-2.4-.59 2.14 2.14 0 0 0-1.17.08 11.4 11.4 0 0 1-1.91.61c-.69.11-1.36.11-1.52.13a3.46 3.46 0 0 0-1.12.5 4.92 4.92 0 0 0-2 1.95 5.4 5.4 0 0 0-.61 2v.32a2.63 2.63 0 0 1-.1.53c-.06.24-.19.44-.23.59s-.09.3.06.41.19.17.18.21-.12.07 0 .25a1 1 0 0 1 .22.33s.19-.12.1-.43a.56.56 0 0 0-.34-.46s-.08 0-.06-.1.1-.15.17-.31a2.55 2.55 0 0 0 .08-.25s.09.09.11.17Z" style="fill:#fff"/><path d="M18.41.78a1.29 1.29 0 0 1 .4 0 19.46 19.46 0 0 0 2.4.59 7.74 7.74 0 0 0 1.88.24h.63a2.31 2.31 0 0 0 .77-.25 3.47 3.47 0 0 1 1.21-.21 3.86 3.86 0 0 1 .57 0l1.29.13h.57a3.22 3.22 0 0 1 .5 0 3.07 3.07 0 0 1 1.37.77 2.57 2.57 0 0 1 .51 1 .28.28 0 0 0 .1.15c.05 0 .25 0 .32.09s.13.23.19.27a.29.29 0 0 0 .15 0 .3.3 0 0 1 .09-.15.28.28 0 0 0 .08-.25h.17a1.35 1.35 0 0 1 .28 0c.11 0 .12.24.13.31s.65-.26.83-.34.45-.32.52-.33a.24.24 0 0 1 .1 0 .71.71 0 0 1-.14.24c-.08.07-.24.54-.34.69-.26.58-.56.59-.7.6h-.18a3.07 3.07 0 0 1 .11.89 2.18 2.18 0 0 0 .25 1.06 3.31 3.31 0 0 0 .63.8 4.25 4.25 0 0 1 .54.65s.7 0 1 0 .07.29-.24.37a1.46 1.46 0 0 0-.45.17v.12a1.52 1.52 0 0 0 .39-.06 5.92 5.92 0 0 0 1.72-.93c.08-.1.15-.14.2-.14s.15.13.16.19a2.94 2.94 0 0 1-.05.71 3.05 3.05 0 0 1-.74 1.22 4.73 4.73 0 0 1-1.16.94c0 .06-.28.61-.29.65s0 .18-.07.33a1.91 1.91 0 0 0-.2.38c-.08.25-.48.26-.51.26a4.08 4.08 0 0 0-.78.11.6.6 0 0 1-.23.06.52.52 0 0 1-.4-.25.77.77 0 0 1-.52-.3c-.07-.11-1.45-1.43-1.54-1.54a.77.77 0 0 1-.43-.62c0-.07-.18-.31-.18-.31l-.12.08a1.57 1.57 0 0 1-.08.24c0 .09-.32.2-.5.26h-.07a.35.35 0 0 1-.28-.2s-.14 0-.23 0H28c-.08.16-.17.2-.26.2a.8.8 0 0 1-.18 0 7 7 0 0 0-.71.81 5.26 5.26 0 0 0-.5 1.36c0 .15-.06.3-.06.39a1.26 1.26 0 0 0 .3.66 3 3 0 0 0 .41.21.33.33 0 0 1 .21.22 2.47 2.47 0 0 0 .16.26c0 .07 0 .09-.1.11h-.16s.06.09 0 .12a1.1 1.1 0 0 1-.46.07 2.16 2.16 0 0 1-.66-.12 2 2 0 0 1-.41 0h-.31c-.43 0-.41-.11-.46-.22a1 1 0 0 1 .15-.57 1.3 1.3 0 0 1 .2-.24.41.41 0 0 0 0-.09 1.7 1.7 0 0 1-.26 0l-.32.22c-.17.12-.47.44-.57.52a.72.72 0 0 1-.35.2.64.64 0 0 1-.44-.33.45.45 0 0 1 0-.46L23 13a1.93 1.93 0 0 1-.15-.47.66.66 0 0 1 .15-.49 6 6 0 0 1 .75-.7.8.8 0 0 1 .34.17h.09a.54.54 0 0 1 .19.05.18.18 0 0 1 .11-.11.25.25 0 0 0 0-.15 12.29 12.29 0 0 1-.78-1.11 10 10 0 0 1-2.22.45 8.08 8.08 0 0 1-1.16.08 7.89 7.89 0 0 1-2.71-.48 4.41 4.41 0 0 1-1.76-1.56 1.09 1.09 0 0 1-.44.54 1.52 1.52 0 0 0-.59.67 3.53 3.53 0 0 0-.12.83c0 .28-.11.75-.12.86a3.17 3.17 0 0 0 .07.69 5.5 5.5 0 0 1 .23.56 1.24 1.24 0 0 0 .24.43.91.91 0 0 0 .37.17c.18.05.19.08.24.15a2 2 0 0 1 .16.39c0 .06 0 .08-.08.17a.3.3 0 0 1-.19 0 4.29 4.29 0 0 1-.5-.06.72.72 0 0 1-.38.1 2 2 0 0 1-.64-.14h-.43c-.23 0-.22-.14-.22-.22a4.06 4.06 0 0 1 .13-.47.67.67 0 0 0-.06-.49 4.62 4.62 0 0 0-.63-.6.72.72 0 0 1-.31-.35 2.19 2.19 0 0 1 .07-.76 3.81 3.81 0 0 0 0-.86s-.14.29-.21.48-.18.5-.26.7a2.53 2.53 0 0 0-.16.65 4.27 4.27 0 0 0 .07.56 1 1 0 0 0 .3.34 1.63 1.63 0 0 1 .35.54c.09.19 0 .23 0 .23l-.2-.06-.1.05a3.82 3.82 0 0 1-.45-.06h-.29a.55.55 0 0 1-.26.05 1.43 1.43 0 0 1-.47-.09h-.12a.29.29 0 0 1-.3-.17c-.11-.21.1-.51.24-.92a.82.82 0 0 0-.07-.74 6 6 0 0 0-.37-.58c-.1-.16 0-.32.09-.51a10.62 10.62 0 0 0 .46-1 2 2 0 0 0 .18-.64 2.17 2.17 0 0 0-.21-.56c-.07-.11-.07-.1-.08-.2s0-.17 0-.29-.07-.23-.12-.44-.07-.45-.07-.45a2.55 2.55 0 0 1-.08.25c-.07.16-.16.26-.17.31s0 .07.06.1a.56.56 0 0 1 .34.46c.08.28-.07.43-.1.43a1 1 0 0 0-.22-.33c-.15-.18 0-.21 0-.25s0-.1-.18-.21-.1-.26-.06-.41.17-.35.23-.59a2.63 2.63 0 0 0 .1-.53s0-.22 0-.32a5.4 5.4 0 0 1 .61-2 4.92 4.92 0 0 1 2-1.95 3.46 3.46 0 0 1 1.12-.5c.16 0 .83 0 1.52-.13a11.4 11.4 0 0 0 1.87-.6 2.32 2.32 0 0 1 .77-.13m0-.78a3.14 3.14 0 0 0-1 .18l-.19.07a8.8 8.8 0 0 1-1.57.5c-.43.07-.87.09-1.15.11h-.37a4 4 0 0 0-1.39.58 5.85 5.85 0 0 0-2.29 2.24 6 6 0 0 0-.75 2.4v.31a3.25 3.25 0 0 1-.08.38 1 1 0 0 1-.1.23 2.59 2.59 0 0 0-.15.37 1.13 1.13 0 0 0 .19 1.08 1.06 1.06 0 0 0 .25.48.5.5 0 0 1 .09.13.74.74 0 0 0 .29.34v.12a8.19 8.19 0 0 1-.33.76c-.05.08-.08.16-.11.21v.06a1.21 1.21 0 0 0 0 1.2 1.4 1.4 0 0 0 .12.18l.2.31v.08a.13.13 0 0 1 0 .05l-.11.27a1.4 1.4 0 0 0-.09 1.26 1.08 1.08 0 0 0 1 .59 2.23 2.23 0 0 0 .57.08 1.37 1.37 0 0 0 .36 0h.14a3 3 0 0 0 .5.06h.54a1 1 0 0 0 .71.27H14a2.45 2.45 0 0 0 .76.14 1.53 1.53 0 0 0 .49-.08 2.87 2.87 0 0 0 .39 0 1.06 1.06 0 0 0 .66-.2.86.86 0 0 0 .36-1 3.81 3.81 0 0 0-.26-.6 1.09 1.09 0 0 0-.69-.47v-.08a4.32 4.32 0 0 0-.2-.5v-.47c0-.07 0-.32.07-.54v-.59a1.82 1.82 0 0 1 0-.3.79.79 0 0 1 .23-.28h.05A4 4 0 0 0 17.35 11a8.7 8.7 0 0 0 3 .52 9.11 9.11 0 0 0 1.26-.09s.56-.06 1.16-.17l-.21.22-.06.07a1.4 1.4 0 0 0-.37 1.13 2.5 2.5 0 0 0 .22.7.71.71 0 0 0 .11.17 1.56 1.56 0 0 0 .14.33 1.39 1.39 0 0 0 1.11.71h.11a1.07 1.07 0 0 0 .51-.19 1.29 1.29 0 0 0 .92.35h.7a3 3 0 0 0 .73.1h.06a1.48 1.48 0 0 0 .9-.23.85.85 0 0 0 .51-.44.78.78 0 0 0 0-.7 1 1 0 0 0-.15-.28 1.08 1.08 0 0 0-.62-.62l-.18-.09-.06-.09a.64.64 0 0 0 0-.07v-.17a4.63 4.63 0 0 1 .36-1c.11-.14.26-.32.38-.45a1.23 1.23 0 0 0 .37-.12.92.92 0 0 0 .38.08 1 1 0 0 0 .3-.05l.24-.08a1.5 1.5 0 0 0 .35.31l.56.54c.28.28.76.74.86.86a1.51 1.51 0 0 0 .72.52 1.2 1.2 0 0 0 .81.32 1.29 1.29 0 0 0 .53-.11c.08 0 .32 0 .51-.06a1.22 1.22 0 0 0 1.22-.81v-.05s.07-.11.11-.19a1.52 1.52 0 0 0 .18-.56l.11-.23a6 6 0 0 0 1.13-1 3.08 3.08 0 0 0 .93-1.65v-.16a2.17 2.17 0 0 0 0-.85 1 1 0 0 0-.91-.77 1 1 0 0 0-.81.43 2.27 2.27 0 0 1-.33.22.93.93 0 0 0-.5-.18H34c-.23 0-.24-.28-.38-.43l-.2-.22a1.49 1.49 0 0 1-.31-.4 1.54 1.54 0 0 1-.11-.75A2.81 2.81 0 0 0 33 5a1.72 1.72 0 0 0 .69-.82 3.13 3.13 0 0 0 .2-.41c0-.06.05-.12.08-.17a1.27 1.27 0 0 0 .25-.47.77.77 0 0 0-.38-.94 1 1 0 0 0-.45-.1.75.75 0 0 0-.21 0 1.23 1.23 0 0 0-.48.25 1.86 1.86 0 0 1-.2.14l-.21.08-.11-.06a1.51 1.51 0 0 0-.43-.1 1.22 1.22 0 0 0-.33-.06.93.93 0 0 0-.33.07 2.54 2.54 0 0 0-.62-1 3.75 3.75 0 0 0-1.73-.8 4 4 0 0 0-.61 0h-.94l-.82-.17a5.12 5.12 0 0 0-.67 0 4.12 4.12 0 0 0-1.49.25l-.27.12a1.18 1.18 0 0 1-.28.09h-.57a7.15 7.15 0 0 1-1.7-.22A19.18 19.18 0 0 1 19.08.1a2.39 2.39 0 0 0-.67-.1Z"/></g></g></svg>