<svg xmlns="http://www.w3.org/2000/svg" viewBox="0 0 32 23.5"><path d="M31.9,20.1s-.7-.8-.7-1.1l.5.7a3,3,0,0,1-.6-1.4,4.2,4.2,0,0,0,.9,1.4,3.8,3.8,0,0,1-.6-1.5c-.2-.8-.7-.7-.9-1.6s-.9-1.8-1-2.2a3.4,3.4,0,0,1,.9,1.6,3,3,0,0,0-.9-1.8,11.6,11.6,0,0,1-.7-1.5,10.7,10.7,0,0,1-.9-3.4c-.1-1.7-.6-1.7-.6-1.7s-2.9-2.9-4.4-3a2.1,2.1,0,0,0-1.8.4c-.5.4-4.3.4-5.5,0s-1.8-1.3-2.7-1.4-1-.4-.4-.8l-.3.2.4-.7-.6.5.4-.7s-.4.4-.3.4a6.4,6.4,0,0,1,.2-.7l-.3.4V1.5l-.2.5V2l-.2-.6v.5l-.2-.5v.2l-.3-.2h0l-.2-.2v.2l-.2-.2v.2l-.2-.2H10l-.2-.2v.2l-.2-.2v.2l-.3-.2v.2l-.3-.2H8.9l-.2-.2v.2l-.2-.2v.2l-.2-.2v.2l-.2-.2v.2l-.3-.2v.2l-.3-.2h0L7.5,1v.2L7.4,1a6.4,6.4,0,0,0-.6-1S7,1,7,1.2L6.8,1v.2L6.6,1v.2H6.4v.2l-.3-.2v.2H6v.2l-.3-.2v.2H5.6v.5a1.3,1.3,0,0,0-2.1.5c-.2.3-.3.7-.5,1l-.3.3c-.4.4-1.2,1-1.5.5S.7,2.2,2,.5A7.4,7.4,0,0,0,.3,2.6C-.2,3.8-.2,4.8.8,5.3s2.3-.8,2.3-.8a12.1,12.1,0,0,0,.3,1.4l-.6-.5.6.7L3,5.8l.4.5-.6-.2.6.4H2.9l.5.2H2.7l.6.2h0l-.8.4L3.3,7l-.6.4.6-.2-.4.3h.4a4.4,4.4,0,0,1-.1.9c-.1.3-.3,1.5.2,1.7a2.2,2.2,0,0,0,.9.3l.3.7v-.6l.2.7v-.6l.2.6v-.6l.3.6v-.6l.3.8-.2-.9.3.8v.1s0-2.2.2-2.2a14.6,14.6,0,0,1,1.6,1.7c.4.5.7,1.5,1.3,2.4a3.4,3.4,0,0,1,.5,1.7c0,.5-.1.9-.1,1.1a3.8,3.8,0,0,0-.2,2.4s-.3,2.8-.7,3.2-.9.6-1.2,1.3l1.7.2s0-.8.2-.9.6.3.6-.4a29.4,29.4,0,0,1,.5-3.5,5.6,5.6,0,0,0,.6-2v-.8l.2.9v.1l.2-.5v.5l.2-.5v.1s0,.3.1.3v0l.2-.4v.6l.2-.7a4.5,4.5,0,0,0,.4,2.3,1.8,1.8,0,0,0,1.1.8,17.6,17.6,0,0,1,2.1,3,4.7,4.7,0,0,0,.4,1.5L18,22s-.7-.5-.7-.8.4-.4,0-.7A25.1,25.1,0,0,1,15,18c0-.1,0-3.2-.5-4.2a10.1,10.1,0,0,0,4.3-.1,2.2,2.2,0,0,0,1.9-.9s1.7,2.4,2.5,3.3a1.7,1.7,0,0,1-.1,1.2c-.3.7-2,3.9-2,4.3s-1,.7-1.1,1.4h1.4s.1-.6.3-.6.6-.1.5-.8,2.8-4.5,3-5.3a3.9,3.9,0,0,1,.4,1.5c0,.4,0,3.8-.4,4.3a3.7,3.7,0,0,0-1,1.1h1.4a.5.5,0,0,1,.5-.5s.6.3.5-.9a19.1,19.1,0,0,1,.4-4.6,1.2,1.2,0,0,0,.1-1.4c-.4-.5-2.1-2.3-.5-5.8,0,0,.8,3.7.5,4.3a4.6,4.6,0,0,0,.3-.9v-.2s.2,1.9.3,2.3a4.7,4.7,0,0,1,0-1.2,10.4,10.4,0,0,0,.9,3,3.8,3.8,0,0,1-.3-1.5,5.8,5.8,0,0,0,1.2,2.3s-.5-.6-.4-.9a31.7,31.7,0,0,0,2.2,3.2A12.8,12.8,0,0,1,30,18.5,9.2,9.2,0,0,0,31.1,20s-.7-.9-.7-1.2l1.4,1.8-1-1.4a9,9,0,0,0,1,1.2s-.5-.7-.4-.8S31.7,20.1,31.9,20.1Z"/></svg>
