<svg xmlns="http://www.w3.org/2000/svg" viewBox="0 0 40 20.48"><defs><style>.cls-1{fill:#1a2026;}</style></defs><title>Wildlife Sighting</title><g id="Layer_2" data-name="Layer 2"><g id="Layer_1-2" data-name="Layer 1"><path class="cls-1" d="M18.18,11.66a.75.75,0,0,1-.07.12,4.67,4.67,0,0,0-.52,1.73c0,.09,0,.28,0,.28a3.14,3.14,0,0,1-.08.46c-.06.2-.17.37-.2.5s-.08.26.05.35.16.15.15.18-.1.07,0,.22a.94.94,0,0,1,.19.28s.16-.1.09-.37-.15-.31-.3-.39-.07,0-.05-.09.09-.13.15-.26a1.62,1.62,0,0,0,.06-.22l.06.39a2,2,0,0,1,.11.38,2.09,2.09,0,0,1,0,.25c0,.08,0,.07.07.17a1.79,1.79,0,0,1,.18.48,1.92,1.92,0,0,1-.15.55c-.14.37-.33.72-.4.88s-.16.31-.08.45a5.05,5.05,0,0,1,.32.49.69.69,0,0,1,.06.64c-.12.35-.3.61-.21.79s.29.14.37.14a.92.92,0,0,0,.63,0,.9.9,0,0,0,.24,0,2,2,0,0,0,.42.05c.09,0,.09,0,.09,0l.17,0c.05,0,.12,0,0-.2a1.55,1.55,0,0,0-.31-.46A.86.86,0,0,1,19,19.2a2.33,2.33,0,0,1-.06-.48,1.76,1.76,0,0,1,.14-.56c.07-.17.15-.44.21-.6s.19-.42.19-.42a3.25,3.25,0,0,1,0,.74,1.81,1.81,0,0,0-.06.66c0,.12.12.19.26.3a4,4,0,0,1,.55.51.6.6,0,0,1,.05.42,2.34,2.34,0,0,0-.11.41c0,.07,0,.21.25.18a2.81,2.81,0,0,0,.3,0c.05,0,.57.25.88,0,.12,0,.5.09.6,0s.08-.1.07-.14a3.23,3.23,0,0,0-.15-.34c0-.06,0-.09-.2-.13a.89.89,0,0,1-.32-.14,1.57,1.57,0,0,1-.21-.38c-.06-.19-.16-.39-.19-.48a3,3,0,0,1-.06-.59c0-.1.07-.5.1-.74a3,3,0,0,1,.1-.71,1.3,1.3,0,0,1,.51-.58.94.94,0,0,0,.38-.46,3.87,3.87,0,0,0,1.51,1.34,6.88,6.88,0,0,0,3.33.34A8.36,8.36,0,0,0,29,17a10.94,10.94,0,0,0,.67,1,.23.23,0,0,1,0,.13.14.14,0,0,0-.09.09c-.1,0-.19-.06-.24,0A.57.57,0,0,0,29,18c-.08,0-.57.52-.65.6a.59.59,0,0,0-.14.43,1.82,1.82,0,0,0,.14.4.57.57,0,0,1,.16,0,.36.36,0,0,0,0,.39.53.53,0,0,0,.4.29.64.64,0,0,0,.3-.17,5.81,5.81,0,0,1,.49-.45A1.82,1.82,0,0,0,30,19.3s.17,0,.22,0a.17.17,0,0,1,0,.09.8.8,0,0,0-.17.2.85.85,0,0,0-.12.49c0,.09,0,.17.39.19a2.41,2.41,0,0,0,.62,0,1.83,1.83,0,0,0,.6.11,1.39,1.39,0,0,0,.39-.06s0-.11,0-.11a.59.59,0,0,0,.17,0c.06,0,.12,0,.09-.1a1.72,1.72,0,0,1-.14-.22.28.28,0,0,0-.18-.19,2.75,2.75,0,0,1-.35-.18,1.07,1.07,0,0,1-.26-.57,2.67,2.67,0,0,1,.05-.33,4.5,4.5,0,0,1,.43-1.17,6.66,6.66,0,0,1,.61-.7c.09,0,.25.12.38-.13,0,0,.24,0,.28,0a.28.28,0,0,0,.31.16c.15-.05.39-.14.42-.22a1,1,0,0,0,.07-.2l.11-.07a2.32,2.32,0,0,1,.15.26.66.66,0,0,0,.37.53c.08.1,1.26,1.23,1.33,1.33a.68.68,0,0,0,.44.26.43.43,0,0,0,.55.16,3.41,3.41,0,0,1,.66-.1s.38,0,.44-.22a1.69,1.69,0,0,1,.18-.33c.07-.13.09-.22.06-.28s.24-.51.24-.56a3.62,3.62,0,0,0,1-.81,2.48,2.48,0,0,0,.64-1,3.24,3.24,0,0,0,0-.62c0-.07-.1-.3-.31,0a5.12,5.12,0,0,1-1.48.8.94.94,0,0,1-.37,0l0-.1h0a1.44,1.44,0,0,1,.39-.15c.27-.06.5-.28.2-.32s-.82,0-.82,0a3.26,3.26,0,0,0-.46-.56,3.1,3.1,0,0,1-.55-.68,1.92,1.92,0,0,1-.21-.92,2.62,2.62,0,0,0-.1-.76l.16,0c.12,0,.38,0,.6-.52.09-.12.23-.53.3-.59a.69.69,0,0,0,.11-.2.18.18,0,0,0-.11,0c-.07,0-.31.22-.46.29s-.66.24-.71.29,0-.22-.11-.26a1,1,0,0,0-.24,0c-.11,0-.18-.08-.17,0a.24.24,0,0,1-.06.22.27.27,0,0,0-.08.13.22.22,0,0,1-.13,0s-.09-.19-.16-.23S34.94,11,34.9,11a.18.18,0,0,1-.09-.12,2.3,2.3,0,0,0-.44-.86,2.72,2.72,0,0,0-1.16-.59c-.42-.06-.66,0-.92,0l-1.11-.11a3.38,3.38,0,0,0-1.53.14,2,2,0,0,1-.66.22,6.12,6.12,0,0,1-2.17-.18A15.7,15.7,0,0,1,24.76,9a1.91,1.91,0,0,0-1,.07l-.91.34.06.11a16.63,16.63,0,0,1-.36-3,4.77,4.77,0,0,0-1-2.24,12.82,12.82,0,0,0-2.39-2.61A6.23,6.23,0,0,0,15,.84S11.89.94,11.4.42a1.66,1.66,0,0,0-2-.12A20.09,20.09,0,0,1,7,.5S5.37.25,5,.55A4.36,4.36,0,0,0,3.52,2.07,4.41,4.41,0,0,0,2.63,3.5,20.38,20.38,0,0,0,1.55,6.06l-.2.59A5.5,5.5,0,0,1,0,6.82s0,.2.79.4a2.4,2.4,0,0,1-.74,0,2.32,2.32,0,0,0,1.13.34S1,10.44,3.27,11.35c0,0,2.1.37,1.87-1.6,0,0-.32-1.06-1.08-.57,0,0,.3.23.05.32,0,0,.49.62,0,.74,0,0-.92.4-1.16-1.38A3.32,3.32,0,0,1,3.64,6.5l.4,0,.32.24a.46.46,0,0,0,.42-.29l.44-.22s1.06,0,1.23-.35c0,0-.1.89.29,1.18,0,0,1.31-.24,1.48-.49a17.61,17.61,0,0,1-.44,2.31l-.57,2a9.53,9.53,0,0,1-.54,1.77,6.73,6.73,0,0,0-.32,1.82s-.22,1-.59,1.21c0,0-.81.42-.37.76,0,0,2.81.57,2.51-.22,0,0-.39-.76-.29-1.11a18.25,18.25,0,0,1,1.25-2.58,15.18,15.18,0,0,0,1.63-2.19s.86,2.06,1,2.33a8.64,8.64,0,0,0,.66,2s.34.81-.07,1.06c0,0-.94.61-.59.91,0,0,2.68.44,2.7-.17a1.18,1.18,0,0,0-.29-.72,2,2,0,0,1-.15-1.16,17.21,17.21,0,0,0-.2-1.87s-.27-1.74-.29-2.63c0,0,.12-.69.24-.74A6,6,0,0,0,16,10.1s1.21.12,1.19.27a5,5,0,0,0,.73.71s.15.27.29.58Z"/></g></g></svg>