<svg xmlns="http://www.w3.org/2000/svg" viewBox="0 0 36 35.59"><defs><style>.cls-1{fill:#1a2026;}</style></defs><title>Wildlife Gap Movement</title><g id="Layer_2" data-name="Layer 2"><g id="Layer_1-2" data-name="Layer 1"><path class="cls-1" d="M21.13,14.41A1.27,1.27,0,0,0,21,16.09c.71.83,1.77,1,2.34.3,0,0-.43-.79,0-1.23a.92.92,0,0,1-.32-.71s-.58.11-.72-.21C22.33,14.24,21.71,15,21.13,14.41Z"/><path class="cls-1" d="M21.25,14.23a.67.67,0,0,1,.15-.32.87.87,0,0,1,.27-.23c.11-.07.25-.16.38-.08a.51.51,0,0,1,.2.46.65.65,0,0,1-.91.4A.25.25,0,0,1,21.25,14.23Z"/><path class="cls-1" d="M22.41,13.48c.23-.13.86,0,.95.3a.27.27,0,0,1-.09.25c-.14.12-.55.7-.94,0a.63.63,0,0,1-.06-.27A.29.29,0,0,1,22.41,13.48Z"/><path class="cls-1" d="M23.54,14c.24,0,.46.25.54.46.18.44,0,.5-.17.54s-.56.12-.7-.26a.62.62,0,0,1,.2-.71A.31.31,0,0,1,23.54,14Z"/><path class="cls-1" d="M23.7,15.14a.36.36,0,0,1,.34.47c-.12.43-.43.71-.58.6C23.14,16,23.19,15.19,23.7,15.14Z"/><path class="cls-1" d="M21.28,8.35A1.29,1.29,0,0,0,21.15,10c.7.83,1.76,1,2.33.29,0,0-.42-.79,0-1.23a.89.89,0,0,1-.32-.71s-.59.11-.72-.21C22.48,8.18,21.86,9,21.28,8.35Z"/><path class="cls-1" d="M21.39,8.18a.6.6,0,0,1,.15-.32,1,1,0,0,1,.27-.24c.11-.07.26-.16.38-.07a.49.49,0,0,1,.2.45c0,.34-.64.63-.9.4A.28.28,0,0,1,21.39,8.18Z"/><path class="cls-1" d="M22.56,7.42c.23-.13.86,0,.94.3a.27.27,0,0,1-.08.25c-.14.12-.56.7-1,0a.6.6,0,0,1-.06-.27A.3.3,0,0,1,22.56,7.42Z"/><path class="cls-1" d="M23.68,7.94c.24,0,.46.25.55.46.18.44,0,.5-.18.54a.54.54,0,0,1-.7-.26.6.6,0,0,1,.21-.7A.19.19,0,0,1,23.68,7.94Z"/><path class="cls-1" d="M23.85,9.08s.45.05.33.47-.42.71-.58.61C23.29,9.94,23.33,9.13,23.85,9.08Z"/><path class="cls-1" d="M26.7,10.25a1.27,1.27,0,0,0-.13,1.68c.7.83,1.76,1,2.33.3,0,0-.42-.79,0-1.23a.89.89,0,0,1-.32-.71s-.58.11-.72-.21C27.9,10.08,27.28,10.85,26.7,10.25Z"/><path class="cls-1" d="M26.81,10.07A.67.67,0,0,1,27,9.75a1.18,1.18,0,0,1,.27-.23c.11-.07.26-.16.39-.08a.53.53,0,0,1,.19.46.64.64,0,0,1-.9.4A.28.28,0,0,1,26.81,10.07Z"/><path class="cls-1" d="M28,9.32c.23-.13.86,0,.94.29a.28.28,0,0,1-.08.26c-.14.12-.56.7-.95,0a.63.63,0,0,1-.06-.27A.29.29,0,0,1,28,9.32Z"/><path class="cls-1" d="M29.1,9.84c.24,0,.47.25.55.45.18.45,0,.51-.17.55s-.56.12-.7-.26a.62.62,0,0,1,.2-.71Z"/><path class="cls-1" d="M29.27,11a.36.36,0,0,1,.33.47c-.11.43-.42.71-.58.6S28.75,11,29.27,11Z"/><path class="cls-1" d="M3.68,22.94a1.28,1.28,0,0,0,.2,1.68c.85.67,1.93.65,2.35-.17,0,0-.57-.69-.2-1.21a.93.93,0,0,1-.46-.64s-.55.22-.75-.06C4.82,22.54,4.37,23.41,3.68,22.94Z"/><path class="cls-1" d="M3.76,22.74a.68.68,0,0,1,.08-.34,1.18,1.18,0,0,1,.22-.28c.1-.09.22-.21.36-.15a.52.52,0,0,1,.29.41c0,.33-.51.74-.82.56A.27.27,0,0,1,3.76,22.74Z"/><path class="cls-1" d="M4.76,21.77c.2-.16.84-.14,1,.11a.29.29,0,0,1,0,.27c-.12.14-.41.79-.93.18a.57.57,0,0,1-.11-.25A.3.3,0,0,1,4.76,21.77Z"/><path class="cls-1" d="M6,22.07c.23-.07.5.15.62.34.27.4.06.5-.06.57s-.52.22-.74-.12a.63.63,0,0,1,.06-.73A.34.34,0,0,1,6,22.07Z"/><path class="cls-1" d="M6.34,23.15s.45,0,.42.4-.27.78-.45.71C6,24.1,5.85,23.31,6.34,23.15Z"/><path class="cls-1" d="M.2,28a1.26,1.26,0,0,0,.29,1.66c.88.63,2,.55,2.33-.29,0,0-.61-.65-.27-1.2a.9.9,0,0,1-.48-.61s-.54.25-.75,0C1.32,27.5.91,28.41.2,28Z"/><path class="cls-1" d="M.26,27.77a.81.81,0,0,1,.07-.35,1,1,0,0,1,.2-.29c.1-.1.22-.22.36-.17a.5.5,0,0,1,.3.39c.07.34-.47.77-.78.61A.28.28,0,0,1,.26,27.77Z"/><path class="cls-1" d="M1.21,26.75c.19-.18.84-.19,1,.06a.27.27,0,0,1,0,.26c-.11.15-.37.82-.92.23a.68.68,0,0,1-.12-.24A.29.29,0,0,1,1.21,26.75Z"/><path class="cls-1" d="M2.43,27c.23-.08.51.13.64.31.28.38.08.5,0,.57s-.51.25-.74-.08a.63.63,0,0,1,0-.74A.34.34,0,0,1,2.43,27Z"/><path class="cls-1" d="M2.86,28a.36.36,0,0,1,.44.38c0,.44-.23.79-.41.72C2.53,29,2.38,28.22,2.86,28Z"/><path class="cls-1" d="M5.92,28.86a1.28,1.28,0,0,0,.29,1.66c.89.63,2,.55,2.34-.29,0,0-.61-.65-.27-1.2a.91.91,0,0,1-.49-.61s-.53.25-.75,0C7,28.4,6.63,29.3,5.92,28.86Z"/><path class="cls-1" d="M6,28.66a.61.61,0,0,1,.07-.35,1,1,0,0,1,.2-.29c.09-.1.21-.22.36-.17a.52.52,0,0,1,.3.39c.07.34-.47.77-.78.61A.26.26,0,0,1,6,28.66Z"/><path class="cls-1" d="M6.94,27.64c.19-.18.84-.19,1,.06a.27.27,0,0,1,0,.26c-.11.15-.37.82-.92.24A.64.64,0,0,1,6.87,28,.29.29,0,0,1,6.94,27.64Z"/><path class="cls-1" d="M8.16,27.87c.22-.08.51.13.64.31.28.38.08.5,0,.57S8.25,29,8,28.67a.63.63,0,0,1,0-.74A.34.34,0,0,1,8.16,27.87Z"/><path class="cls-1" d="M8.59,28.93s.45-.06.44.38-.23.79-.41.72C8.26,29.9,8.11,29.11,8.59,28.93Z"/><path class="cls-1" d="M9.38,24a1.28,1.28,0,0,0,.08,1.69c.79.74,1.87.8,2.35,0,0,0-.52-.73-.11-1.22a.93.93,0,0,1-.41-.67s-.56.18-.74-.12C10.55,23.69,10,24.53,9.38,24Z"/><path class="cls-1" d="M9.48,23.81a.57.57,0,0,1,.11-.33.78.78,0,0,1,.24-.27c.1-.08.24-.19.37-.12a.5.5,0,0,1,.25.43c0,.34-.57.7-.85.5A.24.24,0,0,1,9.48,23.81Z"/><path class="cls-1" d="M10.55,22.92c.21-.15.85-.07,1,.19a.31.31,0,0,1,0,.26c-.13.13-.47.76-.94.11a.51.51,0,0,1-.09-.26A.3.3,0,0,1,10.55,22.92Z"/><path class="cls-1" d="M11.72,23.31c.24,0,.49.19.6.39.23.42,0,.5-.11.56s-.54.18-.72-.18a.62.62,0,0,1,.11-.72A.21.21,0,0,1,11.72,23.31Z"/><path class="cls-1" d="M12,24.42a.37.37,0,0,1,.39.43c-.07.44-.33.76-.5.67C11.57,25.34,11.52,24.53,12,24.42Z"/><path class="cls-1" d="M2.07,33.51a1.28,1.28,0,0,0,.29,1.66c.89.63,2,.55,2.33-.29,0,0-.6-.65-.26-1.2a.91.91,0,0,1-.49-.61s-.54.25-.75,0C3.19,33,2.78,34,2.07,33.51Z"/><path class="cls-1" d="M2.14,33.31A.6.6,0,0,1,2.21,33a1,1,0,0,1,.2-.29c.09-.1.21-.22.35-.17a.54.54,0,0,1,.31.39c.07.34-.47.77-.78.61A.25.25,0,0,1,2.14,33.31Z"/><path class="cls-1" d="M3.09,32.29c.19-.18.84-.19,1,.06a.27.27,0,0,1,0,.26c-.11.15-.37.82-.92.23A.56.56,0,0,1,3,32.6.29.29,0,0,1,3.09,32.29Z"/><path class="cls-1" d="M4.3,32.52c.23-.08.51.13.64.31.29.38.09.5,0,.57s-.51.25-.74-.08a.61.61,0,0,1,0-.74A.24.24,0,0,1,4.3,32.52Z"/><path class="cls-1" d="M4.74,33.58s.45-.06.44.38-.23.79-.41.72C4.41,34.55,4.26,33.76,4.74,33.58Z"/><path class="cls-1" d="M16.61,11.85a1.27,1.27,0,0,0-.23,1.67c.66.87,1.71,1.12,2.31.43,0,0-.37-.81.12-1.22a.93.93,0,0,1-.29-.73s-.58.08-.7-.25C17.82,11.75,17.15,12.48,16.61,11.85Z"/><path class="cls-1" d="M16.74,11.68a.62.62,0,0,1,.16-.31.89.89,0,0,1,.29-.22c.11-.06.26-.14.38-.05a.51.51,0,0,1,.18.46c0,.34-.69.59-.93.35A.26.26,0,0,1,16.74,11.68Z"/><path class="cls-1" d="M18,11c.23-.11.85.08.92.36a.28.28,0,0,1-.1.25c-.15.11-.59.66-.94-.06a.65.65,0,0,1,0-.27A.31.31,0,0,1,18,11Z"/><path class="cls-1" d="M19,11.58c.24,0,.44.28.51.49.16.45-.07.5-.2.53s-.56.09-.68-.3a.59.59,0,0,1,.24-.69A.28.28,0,0,1,19,11.58Z"/><path class="cls-1" d="M19.13,12.73a.36.36,0,0,1,.31.49c-.14.42-.46.68-.61.57S18.62,12.75,19.13,12.73Z"/><path class="cls-1" d="M32.27,6.1a1.27,1.27,0,0,0-.39,1.64c.57.93,1.59,1.28,2.26.65,0,0-.3-.84.23-1.21a.92.92,0,0,1-.21-.75s-.59,0-.68-.32C33.48,6.11,32.75,6.78,32.27,6.1Z"/><path class="cls-1" d="M32.41,5.94a.72.72,0,0,1,.2-.29,1,1,0,0,1,.3-.19c.12,0,.28-.12.39,0a.53.53,0,0,1,.13.48.65.65,0,0,1-1,.26A.28.28,0,0,1,32.41,5.94Z"/><path class="cls-1" d="M33.68,5.38c.25-.09.85.16.89.44a.29.29,0,0,1-.12.24c-.16.09-.66.6-.94-.15a.67.67,0,0,1,0-.28A.31.31,0,0,1,33.68,5.38Z"/><path class="cls-1" d="M34.71,6.06c.24,0,.42.33.47.54.11.47-.12.49-.26.51s-.57,0-.65-.37a.6.6,0,0,1,.31-.66Z"/><path class="cls-1" d="M34.7,7.22a.36.36,0,0,1,.25.52c-.18.4-.52.63-.66.5S34.18,7.19,34.7,7.22Z"/><path class="cls-1" d="M33.06.74a1.26,1.26,0,0,0-.38,1.64c.56.93,1.58,1.28,2.25.66,0,0-.29-.85.23-1.21A.94.94,0,0,1,35,1.08s-.59,0-.67-.32C34.28.76,33.54,1.42,33.06.74Z"/><path class="cls-1" d="M33.2.58a.72.72,0,0,1,.2-.29A1,1,0,0,1,33.71.1c.12,0,.27-.11.39,0a.49.49,0,0,1,.12.48.65.65,0,0,1-1,.25A.31.31,0,0,1,33.2.58Z"/><path class="cls-1" d="M34.48,0c.24-.09.84.16.88.44a.29.29,0,0,1-.12.24c-.16.09-.66.6-.93-.15a.5.5,0,0,1,0-.27A.28.28,0,0,1,34.48,0Z"/><path class="cls-1" d="M35.5.71c.25,0,.42.32.47.53.11.47-.12.49-.25.51s-.57,0-.66-.36a.65.65,0,0,1,.31-.67A.3.3,0,0,1,35.5.71Z"/><path class="cls-1" d="M35.49,1.86a.36.36,0,0,1,.26.52c-.19.4-.53.64-.67.5S35,1.83,35.49,1.86Z"/><path class="cls-1" d="M27.21,3.87a1.28,1.28,0,0,0-.49,1.62c.51,1,1.51,1.37,2.22.78,0,0-.25-.86.3-1.19a.89.89,0,0,1-.17-.76s-.59,0-.65-.36C28.42,4,27.64,4.58,27.21,3.87Z"/><path class="cls-1" d="M27.36,3.72a.65.65,0,0,1,.21-.28,1.17,1.17,0,0,1,.31-.17c.13,0,.29-.1.39,0a.47.47,0,0,1,.1.48.63.63,0,0,1-1,.2A.24.24,0,0,1,27.36,3.72Z"/><path class="cls-1" d="M28.66,3.23c.25-.07.83.21.86.5a.31.31,0,0,1-.14.23c-.16.08-.69.56-.92-.21a.62.62,0,0,1,0-.27A.32.32,0,0,1,28.66,3.23Z"/><path class="cls-1" d="M29.64,4c.24,0,.4.35.44.56.08.48-.15.49-.29.5s-.56,0-.62-.41A.6.6,0,0,1,29.51,4,.3.3,0,0,1,29.64,4Z"/><path class="cls-1" d="M29.56,5.13a.36.36,0,0,1,.23.53c-.21.4-.57.61-.7.47S29.05,5.07,29.56,5.13Z"/></g></g></svg>