<svg xmlns="http://www.w3.org/2000/svg" width="32.1" height="26.2" viewBox="0 0 32.1 26.2">
  <title>SMART - Wildlife Sighting</title>
  <g id="Layer_2" data-name="Layer 2">
    <g id="Layer_1-2" data-name="Layer 1">
      <g>
        <path d="M30.9,2.5V5a8.5,8.5,0,0,1-.5,3.4,6.4,6.4,0,0,1-1.8,2.7l-1.7,1.3-.8.3h0l-.6-.3-1.4-.8a7.1,7.1,0,0,1-2.8-4.3,10.5,10.5,0,0,1-.3-3V2.4h1.5a7.7,7.7,0,0,0,3.6-1.2h0a8.5,8.5,0,0,0,3.6,1.2Zm-.3-1.1A10.3,10.3,0,0,1,26.2,0h-.1a10.3,10.3,0,0,1-4.4,1.4,3.3,3.3,0,0,1-1.4,0h-.5V3.7a21.5,21.5,0,0,0,.4,3.7,9.3,9.3,0,0,0,3.5,5.3,9.5,9.5,0,0,0,1.7,1l.7.3h0l1-.4,2.1-1.5a7.5,7.5,0,0,0,2.2-3.4,13.2,13.2,0,0,0,.7-4.2,15.6,15.6,0,0,1,0-3.1A3.8,3.8,0,0,1,30.6,1.4Z" fill="#1a2026" fill-rule="evenodd"/>
        <g id="Layer_1-2-2" data-name="Layer 1-2">
          <path d="M14.5,19.2h0a3.3,3.3,0,0,0-.4,1.4v.2c0,.1-.1.2-.1.3s-.1.3-.2.5,0,.2.1.2a.3.3,0,0,1,.1.2s-.1,0,0,.2l.2.2s.1-.1,0-.3-.1-.3-.2-.3-.1,0,0-.1,0-.1.1-.2v.1a.4.4,0,0,0,.1.3v.4l.2.3-.2.5a2.4,2.4,0,0,1-.3.7c0,.1-.1.2,0,.4l.2.3a1.3,1.3,0,0,1,.1.6c-.1.2-.3.4-.2.6h.3a.4.4,0,0,0,.5,0h.7c.1,0,.1,0,0-.1a.5.5,0,0,0-.2-.4.2.2,0,0,1-.2-.2v-.4a.6.6,0,0,1,.1-.4,4.3,4.3,0,0,1,.1-.5l.2-.3v.6a.7.7,0,0,0-.1.5c0,.1.1.1.2.2l.5.4c0,.1.1.3,0,.4a.4.4,0,0,1-.1.3c0,.1,0,.2.2.1h.3a.8.8,0,0,0,.7,0h.5a.3.3,0,0,0-.1-.2c0-.1,0-.1-.2-.1l-.2-.2-.2-.3v-.3a1.1,1.1,0,0,1-.1-.5c0-.1.1-.4.1-.6a1.3,1.3,0,0,1,.1-.6.8.8,0,0,1,.4-.4l.3-.4A4.3,4.3,0,0,0,19,23.5a4.9,4.9,0,0,0,2.7.2l1.5-.2a5.6,5.6,0,0,1,.5.8h-.5l-.5.4c-.1.1-.1.2-.1.4a.4.4,0,0,0,.1.3h.1a.2.2,0,0,0,0,.3l.3.2h.3l.4-.4H24c0,.1-.1.3-.1.4s0,.2.4.2h1.4a.1.1,0,0,0,.1-.1h-.2c0-.1,0-.2-.1-.2h-.3c-.1-.2-.2-.3-.2-.5a.4.4,0,0,1,.1-.3,1.6,1.6,0,0,1,.3-.9,1.2,1.2,0,0,1,.5-.5c.1,0,.2,0,.3-.2h.2l.3.2.3-.2c0-.1,0-.1.1-.2h0c.1,0,.1.1.2.2s.1.3.3.4,1,1,1,1.1l.4.2c.1.1.3.2.4.1h.9c0-.1.1-.2.1-.3a.3.3,0,0,0,.1-.2c0-.1.2-.4.2-.5a2.4,2.4,0,0,0,.8-.6,2.2,2.2,0,0,0,.5-.8v-.5c0-.1-.1-.3-.3,0a2.4,2.4,0,0,1-1.1.6h0c.2,0,.4-.2.1-.2a1.1,1.1,0,0,0-.6,0l-.4-.5a1,1,0,0,1-.4-.5,2.4,2.4,0,0,1-.2-.8,1.3,1.3,0,0,0-.1-.6h.1a.5.5,0,0,0,.5-.4l.3-.5h0l-.4.2-.6.2c0,.1,0-.1-.1-.2h-.3V19a.1.1,0,0,0-.1.1h-.1a.3.3,0,0,1-.1-.2c-.1,0-.2-.3-.3-.3h0a1.6,1.6,0,0,0-.4-.7,2,2,0,0,0-.9-.5H24.9a2.5,2.5,0,0,0-1.2.1l-.5.2a4.7,4.7,0,0,1-1.7-.2,5.3,5.3,0,0,1-1.7-.4H19l-.7.3h0L18,15.1a3,3,0,0,0-.8-1.8,7.6,7.6,0,0,0-1.9-2.1,4.8,4.8,0,0,0-3.3-.7s-2.5.1-2.9-.3a1.3,1.3,0,0,0-1.6-.1H5.6S4.3,10,4,10.3a3.4,3.4,0,0,0-1.2,1.2,4.1,4.1,0,0,0-.7,1.1l-.9,2.1v.5H0s0,.2.6.3H0a1.6,1.6,0,0,0,.9.3s-.1,2.3,1.7,3c0,0,1.7.3,1.5-1.3,0,0-.2-.8-.9-.4s.3.2.1.2.4.5,0,.6-.7.4-.9-1.1A2.7,2.7,0,0,1,2.9,15h.3l.3.2.3-.2.4-.2s.8,0,1-.2-.1.7.2.9a4.1,4.1,0,0,0,1.2-.4A16.2,16.2,0,0,1,6.2,17l-.4,1.6A12.1,12.1,0,0,1,5.3,20a5.9,5.9,0,0,0-.2,1.4s-.2.8-.5,1-.6.3-.3.6,2.3.5,2-.2-.3-.6-.2-.9a12.4,12.4,0,0,1,1-2l1.3-1.8L9.2,20a9.8,9.8,0,0,0,.5,1.6s.3.6,0,.8-.8.5-.5.8,2.1.3,2.2-.2-.1-.4-.3-.5a1.7,1.7,0,0,1-.1-1,7.7,7.7,0,0,0-.2-1.5,21,21,0,0,1-.2-2.1,2.1,2.1,0,0,1,.2-.6,3.6,3.6,0,0,0,2,.6s1,.1,1,.2.3.4.5.6a1.4,1.4,0,0,1,.3.5Z" fill="#1a2026"/>
        </g>
      </g>
    </g>
  </g>
</svg>
