<svg xmlns="http://www.w3.org/2000/svg" viewBox="0 0 32 27.1"><path d="M12.6,3.4l-1,1.5c0,.2-.1.3-.1.4a15.7,15.7,0,0,1-1.2,3c-.2.3-.8,1.7-1.2,2.4l-.2.2h0a1,1,0,0,0-.4-.5c.3-1,1.4-2.8,1.6-3.4L11,5l.6-1.6.8-1.5h.1v.6l.6-.3-.6,1.1.9-.7ZM8.9,10.9Zm0,0Zm0-3.3c.4-.8.6-1.7.9-2.4s.5-1.1.7-1.7,0-.7.5-.7l.6-1.1-.5.3.5-.8-.8.5.4-.7h-.4l-.7,1.1a7.8,7.8,0,0,1-.6,1.6A44.2,44.2,0,0,0,8,8.5l-.5,1h0l.4.3A23.5,23.5,0,0,1,8.9,7.6ZM7.5,9.5Zm0,0ZM9.8,1.9,10.5.8h-.2V.5L9.9.8V.4L9.3,1l-.2.4a11.9,11.9,0,0,0-.9,1.5A38.7,38.7,0,0,1,6.6,8.6l.5.5c.8-1.8,1.1-4.5,1.7-6S9.3,2,9.8,1.9ZM7.1,9.1c.1-.2.1-.4.2-.6s-.1.4-.2.6Zm.6-6.2a8,8,0,0,1,.8-1.6L9,.9,9.2.4H8.9L8.7,0,8.2.6,8,.3,7.8.8a3.5,3.5,0,0,1-.3,1.3A9.1,9.1,0,0,0,6.4,4.3c-.1.5-.1.9-.2,1.5s0,.9-.1,1.3V8.2h.2c0-.2.6-3.2.8-3.9S7.5,3.5,7.7,2.9Zm6.6,1.9h-.2a3.9,3.9,0,0,1,.2-.6c.2-.1-.4-.1-.4-.1l.5-.7-.7.3.5-.6-.6.2.3-.7h-.4V2.3h-.1l-.8,1.3c0,.3-.2.5-.3.9h0A16.5,16.5,0,0,0,12,7.7a5.7,5.7,0,0,1-1.5,3.1,5.5,5.5,0,0,1-1.1,1V12c.1.2.2.3.2.5l1-1a11.1,11.1,0,0,0,2.4-3.9,10.1,10.1,0,0,1,.7-2.3l.4-.2.4-.4Zm-1,.3c-.3,1.1-.3,2.5-1,2.8a18.8,18.8,0,0,1,.6-3.1l.6-.6C13.5,4.5,13.3,4.7,13.3,5.1Zm-.9,15a3.6,3.6,0,0,0,.2,1l2.1-.2a.7.7,0,0,0,.1-.5H13a5.3,5.3,0,0,1,1.9-.4v-.8C14.1,19.7,13.1,19.7,12.4,20.1Zm.5,2,.2.5a2.3,2.3,0,0,1,1.4.1v-.8a.4.4,0,0,0,.1-.3l-1.8.2A1,1,0,0,1,12.9,22.1Zm3.5-8.4c-.3-.8-.7-.7-1.1-1.4s-.5-2.1-.8-2.3-2.8,3.2-3.9,4.3-.1-.2-.1-.3A20.4,20.4,0,0,1,13,10.1c1-1.7,1.7-2.5,1.8-4.4l.6.2a28,28,0,0,1,0,2.9,8,8,0,0,0,.4,2.7C16,12.2,16.7,13.1,16.4,13.7Zm-2.2,1.8c-.5-.5-1.7-.6-2.1-1.1a6.7,6.7,0,0,0-1.1.7,4.5,4.5,0,0,1,.5.8A3.3,3.3,0,0,1,14.2,15.5Zm-2.5.9a3.6,3.6,0,0,1,.4.9c.1,0,.1.1.1.2a18.4,18.4,0,0,0,2.6-.2V17H13.1a5.2,5.2,0,0,1,1.8-1H15A12.8,12.8,0,0,0,11.7,16.4Zm15.4,7.4H27l1.8.5c.1,0,.1-.1.1-.2h-.4a.8.8,0,0,1,.6-.2l.2-.3H27.1Zm.7-1.6h0l-.3.7a12.3,12.3,0,0,0,2,.2.3.3,0,0,0,.1-.2h0c.1-.1.1-.3.2-.4S28.4,22.1,27.8,22.2Zm-1.1,2.2h0a12.1,12.1,0,0,0-.5,1.4c-.3.4-.9.8-.1.9h1.4c.3-.2.3-.2.2-.6s.7-.9.9-1.3h.1A7.1,7.1,0,0,0,26.7,24.4Zm-13.6-.7,1.3.6a1.4,1.4,0,0,0,.2-.7,5.8,5.8,0,0,1-1.4-.3A.6.6,0,0,1,13.1,23.7Zm1.1,1.2a6.5,6.5,0,0,0-1.3-.4,3.7,3.7,0,0,0-.5,1.1c-.1.3-.4.4-.5.7s.1.7.6.8h0c.7,0,1.5-.3,1.2-1.1S14.1,25.3,14.2,24.9Zm13.7-3.2,2.1.2.3-.5a10.2,10.2,0,0,0-2.5-.6A2.8,2.8,0,0,1,27.9,21.7ZM27.8,16l-2.5.4.5.7h3.5c0-.2-.1-.4-.1-.6a.4.4,0,0,1,0-.5Zm-3-.1h0c0-.1,0-.1-.1-.1S24.7,15.8,24.8,15.9Zm4.4-2.8a9.3,9.3,0,0,1-2.4.2c-.7.1-1.6,1.2-1.9,1.7l-.2.7c.1,0,.1,0,.1.1a3.1,3.1,0,0,1,2.1-1.1l3-.2a6.7,6.7,0,0,0,.6-1.2.4.4,0,0,1,.1.3l.3-.8v-.2Zm-1.7,6.6c.3.1.5.4.7.4h-.5v.3h.6a4,4,0,0,1,2.2.3,2.9,2.9,0,0,0,.2-.9,17.5,17.5,0,0,0-3.3-.5A.4.4,0,0,0,27.5,19.7Zm-.5-.9h.1a6.1,6.1,0,0,0,3.3-.5c-.2-.4-.6-.7-.8-1.1l-.7.4a8.5,8.5,0,0,1-2.3.4A4.3,4.3,0,0,1,27,18.8ZM13.4,13h-.1c-.2.2-.8.7-.8,1s1.2.2,1.7.5a1.3,1.3,0,0,1,.8,1.1q.1-.3.3-.3a1.5,1.5,0,0,0-.4-1.1C14.4,13.8,13.5,13.7,13.4,13Zm4-5.2c-.1-.5-.1-.8-.2-1.1l-.9-.4H16a4.3,4.3,0,0,0-.1,1.6,16,16,0,0,0,.5,2.1c.3.9.8.6.7,3.2,0,.3.1.7.3.8a3.6,3.6,0,0,0,.1-2.7C17.2,10,17.6,9.2,17.4,7.8ZM14.9,19c0-.2-.1-.7-.1-.8l-2.5-.3a3,3,0,0,1,.2,1A19.3,19.3,0,0,0,14.9,19ZM23.6,8.4a7.5,7.5,0,0,1,4.8-1.2,8.2,8.2,0,0,0-4.1-.5l-1.4.6a5.8,5.8,0,0,0-2.2,2.2,3.6,3.6,0,0,0,.1,2.5c.1.7.4,1.2.1,2h.2c.6-.6.6-.7.5-1.3A4.4,4.4,0,0,1,23.6,8.4Zm-3.8,2.7a3.6,3.6,0,0,1,1.5-3.6l.6-.5H20.7a2.7,2.7,0,0,0-1.1,1c-.1.2,0,.9-.3,1s-.4-.5-.3-.7a1.4,1.4,0,0,1,.9-1.2H18.6a2.6,2.6,0,0,0-.4,1.5,45.7,45.7,0,0,0,1,4.8,1.7,1.7,0,0,1,.1,1c.1,0,.6-.4.5-1.5S19.9,11.8,19.8,11.1ZM2.1,9.3c-.4-.1-.4-.3-.8-.5s0-1-.1-1-.3.3-.4.6.1.6,0,.9a2.2,2.2,0,0,1-.7.6,1.2,1.2,0,0,0,1.1.7,1.4,1.4,0,0,0,1.4-1A.5.5,0,0,0,2.1,9.3ZM.2,9.4H.4c.3,0,.3-.3.2-.5s-.4,0-.6.3l.2.3ZM2.8,8.3H1.3c.5.7,1.6,0,1.8,1L3.3,9C3.3,8.7,3.2,8.5,2.8,8.3Zm.4-1.5c-.7-.1-1.5-.2-1.9.6a2.4,2.4,0,0,1,2.2-.1c.5.2.4.9.4,1.4l.4-.2a4.1,4.1,0,0,0-.1-1.1C4.1,6.8,3.8,6.8,3.2,6.8ZM4.6,5.2c-.2.5.4,1.1.7,1.7a5.7,5.7,0,0,1,0,1.3h.3a3.5,3.5,0,0,0-.5-2.6S4.8,4.8,4.6,5.2ZM3.1,4.3c.2-.1.3-.6.3-.9a1.1,1.1,0,0,0-.1-.8.1.1,0,0,0-.1.1c.2.4-.1,1.1-.1,1.5ZM3,5c.1-.3-.1-.9-.1-.7a1.9,1.9,0,0,1-.3,1l-.8,1A7.9,7.9,0,0,0,3,5Zm-.2.6-.9.9,1-.8C3,5.6,2.9,5.4,2.8,5.6Zm.9-.9c-.4,0-1,.9-.7.7s.5.2.8.1.2-.2.3-.4.4-.2.1-.2S4,4.7,3.7,4.7Zm2.2-3c-.5-.3-.8.1-1.4.6a1.2,1.2,0,0,1,1-.2.7.7,0,0,1,.4.9h0A.9.9,0,0,0,5.9,1.7ZM30.7,14.1v.3a3.1,3.1,0,0,0-.1,2.5c0-.4,0-.7.1-.7a1.1,1.1,0,0,1,.1-.5A4.2,4.2,0,0,0,30.7,14.1Zm1.1,2.5a15.7,15.7,0,0,1-.4-2.3,5.4,5.4,0,0,1,0-2.2A4.9,4.9,0,0,0,29.7,8a5.5,5.5,0,0,0-4,.3,5.6,5.6,0,0,0-2.9,3.8,7.1,7.1,0,0,0-.1,2.2h.2c.3-.4.6-.1.8-.7a5.1,5.1,0,0,1,2.6-3.3l2.4-.9a2.4,2.4,0,0,1,1-.5l.9.3a.3.3,0,0,1,.1.2c-.1.1-.1.2-.1.4l-1.2.5a12.1,12.1,0,0,0-2.5.8,5.8,5.8,0,0,0-1.8,2c-.3.5-.9,1.3-.8,1.9s1.1-1.2,1.3-1.3l1.5-1.2a6.9,6.9,0,0,1,3-1.3s.6-.2.7,0a3.5,3.5,0,0,1,.1,1.5H31v.2a5.9,5.9,0,0,1-.2,1.3,4.2,4.2,0,0,1,.1,1.6,1.1,1.1,0,0,0-.1.5c0,.1.1.3.3,1a2.1,2.1,0,0,0,.9,1.5,2,2,0,0,0-.2-1.1c0,.1.2.3.2.4A2.3,2.3,0,0,0,31.8,16.6Zm-.9-4v0ZM5.5,3.1v.3H5.1l.2.3L5,3.3v.4l-.3-.2.3.7H4.6l.2.3-.3-.2.6.7h.4a16.8,16.8,0,0,1,.3-1.8H5.7ZM4,3.4a1.4,1.4,0,0,0,.2-.7c0-.2-.1-.5-.1-.7l-.2-.2a4,4,0,0,1,0,1.1A4.5,4.5,0,0,0,3.6,4C3.8,4,3.9,3.6,4,3.4ZM7.5,9.5Zm0,0Z"/></svg>
