<svg xmlns="http://www.w3.org/2000/svg" viewBox="0 0 39.76 30.6"><defs><style>.a{opacity:0.8;}.b{fill:#fff;}.c{fill:#5a6066;}</style></defs><title>Asset 10</title><g class="a"><path class="b" d="M13.49,29.1A6.27,6.27,0,0,1,8.77,27a9,9,0,0,1-1.21,0,26.89,26.89,0,0,1-4.19-.26l-.55-.07A1.5,1.5,0,0,1,1.5,25.18V8.75A1.5,1.5,0,0,1,3,7.25l1.91,0h1c1.87,0,2.35.14,3.41,1l.5.41c.34.27,2.23,1.87,4.13,3.5l.53.45a14.44,14.44,0,0,1,1.72.37L11.74,8.87a1.5,1.5,0,0,1,1-2.6h.13l6.37.54.5-4a1.5,1.5,0,0,1,2.46-1l3.56,3.05,3.07-1.75a1.5,1.5,0,0,1,2.19.9L32.46,9.2l5,2.68a1.5,1.5,0,0,1-.29,2.76l-3.69,1.06,2.41,5a1.5,1.5,0,0,1-2,2L29.42,20.4l-1,5.52a1.5,1.5,0,0,1-1.21,1.22l-.27,0a1.5,1.5,0,0,1-1.29-.74l-3.42-5.84a1.5,1.5,0,0,1,.36-1.93l1.09-.86a1.5,1.5,0,0,1,1.65-.14l.44-1.77a1.5,1.5,0,0,1,1.46-1.14,1.53,1.53,0,0,1,.38,0l.6.16-.14-.56A1.5,1.5,0,0,1,28.5,13l-.12,0a1.5,1.5,0,0,1-.9-1.17l-.36-2.46-1.57.53a1.5,1.5,0,0,1-1.27-.15l-.35-.22-.26,1a1.5,1.5,0,0,1-1.45,1.14H20.79l.18.49a1.5,1.5,0,0,1-.9,1.93l-.64.23a16.39,16.39,0,0,1,1.91,1.12,1.5,1.5,0,0,1,.63,1c.44,2.56-.45,7.48-.55,8a1.5,1.5,0,0,1-.92,1.12,14.8,14.8,0,0,1-1.61.52A6.31,6.31,0,0,1,13.49,29.1Zm0-7.19a.88.88,0,1,0,.88.88A.88.88,0,0,0,13.49,21.91ZM7.36,13.46l-.57-.52H6.73v.52Z"/><path class="b" d="M21.25,3l4.36,3.74,4-2.28,1.59,5.76,5.57,3-5.4,1.56,3.17,6.62L28.3,18.12,27,25.66l-3.42-5.84L24.64,19l1.59,1.37,1-4.09,3,.8-.74-3,2.56-1.18L29,11.52l-.62-4.24L25.08,8.39,23,7.07l-.76,3H18.64l.92,2.5L18.43,13,12.76,7.77l7.81.67L21.25,3M4.88,8.73h1c2,0,1.7.12,3,1.12.46.36,4.59,3.89,4.95,4.19a15.87,15.87,0,0,1,6.67,2.57c.4,2.38-.54,7.51-.54,7.51a12,12,0,0,1-2.06.6,4.79,4.79,0,0,1-8.42.66,17.33,17.33,0,0,1-1.91.1A27.64,27.64,0,0,1,3,25.18V8.75l1.88,0M5.23,15H9.66l.69-.83c-.75-.68-2.3-2-2.64-2.38A.94.94,0,0,0,7,11.44H5.23V15m8.26,10.22a2.38,2.38,0,1,0-2.38-2.38,2.39,2.39,0,0,0,2.38,2.38M21.25,0a3,3,0,0,0-3,2.63L18,5.21,13,4.79h-.26A3,3,0,0,0,10,6.56a2.94,2.94,0,0,0-.11.28c-1.23-.94-2.12-1.1-4-1.1h-1l-1.94,0A3,3,0,0,0,0,8.75V25.18a3,3,0,0,0,2.63,3l.54.07a28.37,28.37,0,0,0,4.38.27h.62a7.78,7.78,0,0,0,11.66-1.15c.61-.18,1.08-.37,1.22-.42a3,3,0,0,0,1.85-2.24v0l1.48,2.54a3,3,0,0,0,5.54-1l.61-3.49L33.15,24a3,3,0,0,0,4.1-4L35.6,16.66l2-.57a3,3,0,0,0,.59-5.53L33.74,8.18,32.49,3.66a3,3,0,0,0-4.38-1.81L26,3.08,23.2.72a3,3,0,0,0-2-.72Zm3.83,11.39a3,3,0,0,0,.82-.11L26,12a3,3,0,0,0,.56,1.36,3,3,0,0,0-2.21,2.19l-.12.48a3,3,0,0,0-.77.21v-.08a3,3,0,0,0-1.25-2l0,0,.13-.24a3,3,0,0,0,.24-.8,3,3,0,0,0,2.4-1.71Z"/></g><path class="c" d="M19.57,12.63,18.43,13,12.76,7.77l7.81.67L21.25,3l4.36,3.74,4-2.28,1.59,5.76,5.57,3-5.4,1.56,3.17,6.62L28.3,18.12,27,25.66l-3.42-5.84L24.64,19l1.59,1.37,1-4.09,3,.8-.74-3,2.56-1.18L29,11.52l-.62-4.24L25.08,8.39,23,7.07l-.76,3H18.64Zm.38,11.51a12,12,0,0,1-2.06.6,4.79,4.79,0,0,1-8.42.66,17.32,17.32,0,0,1-1.91.1A27.64,27.64,0,0,1,3,25.18V8.75c1.73,0,2.86,0,2.89,0,2,0,1.7.12,3,1.12.46.36,4.59,3.89,4.95,4.19a15.87,15.87,0,0,1,6.67,2.57C20.89,19,19.95,24.13,19.95,24.13Zm-9.6-10c-.75-.68-2.3-2-2.64-2.38A.94.94,0,0,0,7,11.44H5.23V15H9.66Zm5.53,8.67a2.38,2.38,0,1,0-2.38,2.38A2.39,2.39,0,0,0,15.88,22.8Z"/></svg>