<svg xmlns="http://www.w3.org/2000/svg" viewBox="0 0 26 30.69"><defs><style>.a{opacity:0.8;}.b{fill:#fff;}.c{fill:#5a6066;}</style></defs><title>Asset 86</title><g class="a"><path class="b" d="M13.31,29.19a1.5,1.5,0,0,1-.65-.15,1.49,1.49,0,0,1-.65.15H3.67a2.38,2.38,0,0,1-1.33-.43A2,2,0,0,1,1.5,27V3.67A2.2,2.2,0,0,1,3.67,1.5H17.3A2.13,2.13,0,0,1,19,2.37l5,6.59a2.31,2.31,0,0,1,.44,1.31V18a1.5,1.5,0,0,1-.66,1.24,2,2,0,0,1-.38,2.3l-.95.94a1.53,1.53,0,0,1-.3.23,1.56,1.56,0,0,1-.24.31L16.3,28.75a1.5,1.5,0,0,1-1.06.44ZM12,24.85h.12l.12-.14L17.92,19a1.47,1.47,0,0,1,.31-.24,1.47,1.47,0,0,1,.24-.31l.94-.94a2,2,0,0,1,.74-.47V12.45h-3A2.2,2.2,0,0,1,15,10.27V5.85H5.85V6.7a1.51,1.51,0,0,1,.35,0h6a1.5,1.5,0,0,1,1.5,1.5v1.5a1.5,1.5,0,0,1-1.5,1.5h-6a1.51,1.51,0,0,1-.35,0v1.65a1.59,1.59,0,0,1,.33,0l11-.14a1.5,1.5,0,0,1,1.5,1.48l0,1.5a1.5,1.5,0,0,1-1.48,1.52l-11,.14a1.5,1.5,0,0,1-.37,0V18.7a1.51,1.51,0,0,1,.35,0h6a1.5,1.5,0,0,1,1.5,1.5v1.5a1.5,1.5,0,0,1-1.5,1.5h-6a1.51,1.51,0,0,1-.35,0v1.73Z"/><path class="b" d="M17.3,3a.64.64,0,0,1,.54.27l5,6.6a.72.72,0,0,1,.13.4V18H21.65v-7.1H17.16a.69.69,0,0,1-.67-.67V4.35H4.35v22H12v1.35H3.67a.94.94,0,0,1-.49-.18A.61.61,0,0,1,3,27V3.67A.69.69,0,0,1,3.67,3H17.3m.54,6.56h3.1l-3.1-4.18V9.56M12.2,8.15v1.5h-6V8.15h6m5,5.93,0,1.5-11,.14,0-1.5,11-.14m3.64,4.38a.49.49,0,0,1,.36.15l1.2,1.2a.51.51,0,0,1,0,.72l-.94.94-1.92-1.92.94-.94a.52.52,0,0,1,.37-.15M19,20.09,20.91,22l-5.67,5.68H13.31V25.77L19,20.09m-6.78.06v1.5h-6v-1.5h6M17.3,0H3.67A3.68,3.68,0,0,0,0,3.67V27a3.5,3.5,0,0,0,1.52,3,3.9,3.9,0,0,0,2.16.68H12a3,3,0,0,0,.65-.07,3,3,0,0,0,.65.07h1.92a3,3,0,0,0,2.12-.88L23,24.14a3,3,0,0,0,.25-.29,3,3,0,0,0,.28-.25l.94-.94a3.54,3.54,0,0,0,1-2.54,3.45,3.45,0,0,0,0-.43A3,3,0,0,0,26,18V10.27a3.72,3.72,0,0,0-.64-2.07l-.11-.15-5-6.6A3.63,3.63,0,0,0,17.3,0ZM14.78,18.62l1.46,0-1.08,1.08a3,3,0,0,0-.39-1.06Z"/></g><path class="c" d="M21.45,21.47l-1.92-1.92.94-.94a.51.51,0,0,1,.72,0l1.2,1.2a.51.51,0,0,1,0,.72ZM19,20.09,20.91,22l-5.67,5.68H13.31V25.77ZM6.21,15.73l11-.14,0-1.5-11,.14Zm0-6.07h6V8.15h-6Zm0,12h6v-1.5h-6ZM4.35,26.35v-22H16.49v5.93a.69.69,0,0,0,.67.67h4.49V18H23V10.27a.72.72,0,0,0-.13-.4l-5-6.6A.64.64,0,0,0,17.3,3H3.67A.69.69,0,0,0,3,3.67V27a.61.61,0,0,0,.18.49.94.94,0,0,0,.49.18H12V26.35Zm13.49-21,3.1,4.18h-3.1Z"/></svg>