<svg id="1295f0f0-6b28-4c11-bf54-f00c2a75902e" data-name="Layer 1" xmlns="http://www.w3.org/2000/svg" viewBox="0 0 60 60"><defs><style>.faad9477-ac79-4e4b-86d0-2fc79602c448{fill:#fff;}.febf9284-5c48-40b4-8fed-48270aff2c55{fill:#d0021b;}</style></defs><title>DAS map icons 078-134</title><path class="faad9477-ac79-4e4b-86d0-2fc79602c448" d="M42.15,24.92a20.42,20.42,0,0,0,2.53.21s1.68-.26,2.12.05a4.55,4.55,0,0,1,1.5,1.6,4.68,4.68,0,0,1,.93,1.5A21.29,21.29,0,0,1,50.37,31l.21.62a6.16,6.16,0,0,0,1.42.18s0,.21-.83.41a2.37,2.37,0,0,0,.78,0,2.35,2.35,0,0,1-1.19.36s.16,3-2.2,4c0,0-2.2.39-2-1.68,0,0,.34-1.11,1.14-.59,0,0-.31.23-.05.34,0,0-.52.65,0,.78,0,0,1,.41,1.22-1.45a3.46,3.46,0,0,0-.7-2.48l-.41,0-.34.26a.48.48,0,0,1-.44-.31l-.47-.23s-1.11-.05-1.29-.36c0,0,.1.93-.31,1.24,0,0-1.37-.26-1.55-.52a18.37,18.37,0,0,0,.47,2.43L44.42,36A10.21,10.21,0,0,0,45,37.87a6.91,6.91,0,0,1,.34,1.91s.23,1,.62,1.27c0,0,.85.44.39.8,0,0-2.95.59-2.64-.23,0,0,.41-.8.31-1.16a19.3,19.3,0,0,0-1.32-2.71A15.63,15.63,0,0,1,41,35.44s-.9,2.17-1,2.46a9.16,9.16,0,0,1-.7,2.09s-.36.85.08,1.11c0,0,1,.65.62,1,0,0-2.82.47-2.84-.18a1.21,1.21,0,0,1,.31-.75,2.07,2.07,0,0,0,.15-1.22,18.23,18.23,0,0,1,.21-2s.28-1.84.31-2.77c0,0-.13-.72-.26-.78a6.18,6.18,0,0,1-2.64.8S34,35.34,34,35.5a5.45,5.45,0,0,1-.78.75,4.85,4.85,0,0,0-.57,1.47s-.18,2.28.28,2.66c0,0,1.06.78.8,1.4,0,0-2.59.41-3-.13a8.61,8.61,0,0,1,.21-2.2s.23-2.59-.23-3A6.52,6.52,0,0,0,29.43,38a18.14,18.14,0,0,0-.88,2.74s.36.9-.1,1.16c0,0-1.89.21-1.76-.85a3.66,3.66,0,0,1,.44-1.14,10.76,10.76,0,0,0,1-2.9l.05-1.34a10.35,10.35,0,0,0-.28,1.45s-.21,1.78-.85,2.25a16.39,16.39,0,0,1,.41-2.07,15.7,15.7,0,0,0,.47-2.69,17.88,17.88,0,0,0,.39-3.13,5,5,0,0,1,1-2.35,13.64,13.64,0,0,1,2.51-2.74,6.54,6.54,0,0,1,4.42-.85s3.23.1,3.75-.44A1.74,1.74,0,0,1,42.15,24.92ZM24.39,38.83a11.6,11.6,0,0,1-2,.58,4.63,4.63,0,0,1-8.15.64,16.75,16.75,0,0,1-1.85.1,26.73,26.73,0,0,1-4.4-.3V24c1.67,0,2.76,0,2.79,0,1.9,0,1.64.12,2.89,1.09.44.35,4.44,3.76,4.79,4.06a15.35,15.35,0,0,1,6.45,2.49C25.31,33.87,24.39,38.83,24.39,38.83Zm-9.28-9.68c-.72-.66-2.23-2-2.55-2.3a.91.91,0,0,0-.7-.3H10.16V30h4.28Zm5.34,8.38a2.3,2.3,0,1,0-2.3,2.3A2.31,2.31,0,0,0,20.45,37.54Zm5.59-15-4.78-4.41,0,6.65-3.42.17,2.66,3.18.62-.28-.47-1.62,2.21-.1.4-3.49,2.56,1.86,2.64-1.39.06,3.54.74.07L32,17.77Z"/><path class="faad9477-ac79-4e4b-86d0-2fc79602c448" d="M32,17.77h0m0,0-2.8,8.92-.74-.07-.06-3.54-2.64,1.39-2.56-1.86-.4,3.49-2.21.1.47,1.62-.62.28-2.66-3.18,3.42-.17,0-6.65L26,22.52l6-4.75M9.82,23.93h1c1.9,0,1.64.12,2.89,1.09.44.35,4.44,3.76,4.79,4.06a15.35,15.35,0,0,1,6.45,2.49c.39,2.3-.53,7.26-.53,7.26a11.6,11.6,0,0,1-2,.58,4.63,4.63,0,0,1-8.15.64,16.75,16.75,0,0,1-1.85.1,26.73,26.73,0,0,1-4.4-.3V24l1.82,0m.34,6h4.28l.67-.81c-.72-.66-2.23-2-2.55-2.3a.91.91,0,0,0-.7-.3H10.16V30m8,9.88a2.3,2.3,0,1,0-2.3-2.3,2.31,2.31,0,0,0,2.3,2.3M41.2,24.61a1.63,1.63,0,0,1,.95.31s1.7.22,2.34.22h.19a9.64,9.64,0,0,1,1.26-.1,1.72,1.72,0,0,1,.86.15,4.55,4.55,0,0,1,1.5,1.6,4.68,4.68,0,0,1,.93,1.5A21.3,21.3,0,0,1,50.37,31l.21.62a8.78,8.78,0,0,0,1.28.2H52s0,.21-.83.41a3,3,0,0,0,.44,0,1.45,1.45,0,0,0,.34,0,2.4,2.4,0,0,1-1.13.36h-.06s.16,3-2.2,4a2.52,2.52,0,0,1-.4,0,1.4,1.4,0,0,1-1.57-1.71s.22-.73.73-.73a.75.75,0,0,1,.4.14s-.31.23-.05.34c0,0-.52.65,0,.78a.61.61,0,0,0,.22,0c.3,0,.81-.2,1-1.49a3.46,3.46,0,0,0-.7-2.48l-.41,0-.34.26a.48.48,0,0,1-.44-.31l-.47-.23s-1.11-.05-1.29-.36c0,0,.1.93-.31,1.24,0,0-1.37-.26-1.55-.52a18.38,18.38,0,0,0,.47,2.43L44.42,36A10.21,10.21,0,0,0,45,37.87a6.91,6.91,0,0,1,.34,1.91s.23,1,.62,1.27c0,0,.85.44.39.8a11.14,11.14,0,0,1-1.8.21c-.54,0-1-.1-.83-.44,0,0,.41-.8.31-1.16a19.3,19.3,0,0,0-1.32-2.71A15.64,15.64,0,0,1,41,35.44s-.91,2.17-1,2.46a9.17,9.17,0,0,1-.7,2.09s-.36.85.08,1.11c0,0,1,.65.62,1a13.12,13.12,0,0,1-1.79.16c-.56,0-1-.08-1.05-.34a1.21,1.21,0,0,1,.31-.75,2.07,2.07,0,0,0,.16-1.22,18.22,18.22,0,0,1,.21-2s.28-1.84.31-2.77c0,0-.13-.72-.26-.78a6.4,6.4,0,0,1-2.54.8h-.1S34,35.34,34,35.5a5.46,5.46,0,0,1-.78.75,4.85,4.85,0,0,0-.57,1.47s-.18,2.28.28,2.66c0,0,1.06.78.8,1.4a13.21,13.21,0,0,1-1.77.15c-.55,0-1-.06-1.2-.28a8.61,8.61,0,0,1,.21-2.2s.23-2.59-.23-3A6.52,6.52,0,0,0,29.43,38a18.14,18.14,0,0,0-.88,2.74s.36.9-.1,1.16l-.36,0c-.54,0-1.49-.11-1.4-.87a3.66,3.66,0,0,1,.44-1.14,10.77,10.77,0,0,0,1-2.9l.05-1.34a10.36,10.36,0,0,0-.28,1.45s-.21,1.78-.85,2.25a16.37,16.37,0,0,1,.41-2.07,15.7,15.7,0,0,0,.47-2.69,17.87,17.87,0,0,0,.39-3.13,5,5,0,0,1,1-2.35,13.64,13.64,0,0,1,2.51-2.74,6.18,6.18,0,0,1,3.44-.91,8.22,8.22,0,0,1,1,.06h.61c1,0,2.76-.05,3.14-.45a1.93,1.93,0,0,1,1.17-.44m10.75,7.58h0M32,14.77h0a3,3,0,0,0-1.86.66l-4,3.14-2.9-2.67a3,3,0,0,0-5,2.19l0,3.8-.58,0a3,3,0,0,0-2,.87l-.17-.14-.45-.37c-1.4-1.17-2.26-1.36-4.28-1.36h-1L7.94,21A3,3,0,0,0,5,24v15.9a3,3,0,0,0,2.63,3l.52.07a27.51,27.51,0,0,0,4.25.26H13a7.63,7.63,0,0,0,11-.65,3.58,3.58,0,0,0,.62,1,4.45,4.45,0,0,0,3.5,1.38,6.54,6.54,0,0,0,.69,0,3,3,0,0,0,1-.29,5.51,5.51,0,0,0,2.18.38,16.07,16.07,0,0,0,2.25-.19,3,3,0,0,0,1.09-.4,4.35,4.35,0,0,0,2.9.89,16,16,0,0,0,2.28-.2,3,3,0,0,0,1.46-.68l0,0a4.16,4.16,0,0,0,2.57.75,13.7,13.7,0,0,0,2.4-.27,3,3,0,0,0,1.25-.57,3.29,3.29,0,0,0,1.28-2.91,3.38,3.38,0,0,0-.72-1.79l.34,0a3,3,0,0,0,.61-.18,6.47,6.47,0,0,0,3.81-4.55,3,3,0,0,0,1.45-2.45,3.15,3.15,0,0,0,0-.9,3,3,0,0,0-2.17-2.52c-.25-.6-.55-1.24-.81-1.79a7.67,7.67,0,0,0-1.22-2,7.67,7.67,0,0,0-2.33-2.39,4.48,4.48,0,0,0-2.5-.64,12.21,12.21,0,0,0-1.54.11c-.25,0-.77-.06-1.32-.13a4.57,4.57,0,0,0-1.88-.41h0a4.85,4.85,0,0,0-2.65.81,13.58,13.58,0,0,1-1.66.08h-.41a11.23,11.23,0,0,0-1.19-.06,10.52,10.52,0,0,0-1.62.12l1.18-3.76a3,3,0,0,0-2.82-4h0Zm0,6h0Zm-7,7.37a3,3,0,0,0,.47-.68h.11a3,3,0,0,0,.54,1l-.11.23c-.31-.19-.65-.39-1-.58Z"/><path class="febf9284-5c48-40b4-8fed-48270aff2c55" d="M42.15,24.92a20.42,20.42,0,0,0,2.53.21s1.68-.26,2.12.05a4.55,4.55,0,0,1,1.5,1.6,4.68,4.68,0,0,1,.93,1.5A21.29,21.29,0,0,1,50.37,31l.21.62a6.16,6.16,0,0,0,1.42.18s0,.21-.83.41a2.37,2.37,0,0,0,.78,0,2.35,2.35,0,0,1-1.19.36s.16,3-2.2,4c0,0-2.2.39-2-1.68,0,0,.34-1.11,1.14-.59,0,0-.31.23-.05.34,0,0-.52.65,0,.78,0,0,1,.41,1.22-1.45a3.46,3.46,0,0,0-.7-2.48l-.41,0-.34.26a.48.48,0,0,1-.44-.31l-.47-.23s-1.11-.05-1.29-.36c0,0,.1.93-.31,1.24,0,0-1.37-.26-1.55-.52a18.37,18.37,0,0,0,.47,2.43L44.42,36A10.21,10.21,0,0,0,45,37.87a6.91,6.91,0,0,1,.34,1.91s.23,1,.62,1.27c0,0,.85.44.39.8,0,0-2.95.59-2.64-.23,0,0,.41-.8.31-1.16a19.3,19.3,0,0,0-1.32-2.71A15.63,15.63,0,0,1,41,35.44s-.9,2.17-1,2.46a9.16,9.16,0,0,1-.7,2.09s-.36.85.08,1.11c0,0,1,.65.62,1,0,0-2.82.47-2.84-.18a1.21,1.21,0,0,1,.31-.75,2.07,2.07,0,0,0,.15-1.22,18.23,18.23,0,0,1,.21-2s.28-1.84.31-2.77c0,0-.13-.72-.26-.78a6.18,6.18,0,0,1-2.64.8S34,35.34,34,35.5a5.45,5.45,0,0,1-.78.75,4.85,4.85,0,0,0-.57,1.47s-.18,2.28.28,2.66c0,0,1.06.78.8,1.4,0,0-2.59.41-3-.13a8.61,8.61,0,0,1,.21-2.2s.23-2.59-.23-3A6.52,6.52,0,0,0,29.43,38a18.14,18.14,0,0,0-.88,2.74s.36.9-.1,1.16c0,0-1.89.21-1.76-.85a3.66,3.66,0,0,1,.44-1.14,10.76,10.76,0,0,0,1-2.9l.05-1.34a10.35,10.35,0,0,0-.28,1.45s-.21,1.78-.85,2.25a16.39,16.39,0,0,1,.41-2.07,15.7,15.7,0,0,0,.47-2.69,17.88,17.88,0,0,0,.39-3.13,5,5,0,0,1,1-2.35,13.64,13.64,0,0,1,2.51-2.74,6.54,6.54,0,0,1,4.42-.85s3.23.1,3.75-.44A1.74,1.74,0,0,1,42.15,24.92Z"/><path class="febf9284-5c48-40b4-8fed-48270aff2c55" d="M24.92,31.57a15.35,15.35,0,0,0-6.45-2.49c-.35-.29-4.34-3.71-4.79-4.06-1.24-1-1-1.09-2.89-1.09,0,0-1.12,0-2.79,0v15.9a26.73,26.73,0,0,0,4.4.3,16.75,16.75,0,0,0,1.85-.1,4.63,4.63,0,0,0,8.15-.64,11.6,11.6,0,0,0,2-.58S25.31,33.87,24.92,31.57ZM14.44,30H10.16V26.56h1.69a.91.91,0,0,1,.7.3c.32.33,1.83,1.64,2.55,2.3Zm3.71,9.88a2.3,2.3,0,1,1,2.3-2.3A2.31,2.31,0,0,1,18.15,39.85Z"/><polygon class="febf9284-5c48-40b4-8fed-48270aff2c55" points="26.04 22.52 21.26 18.11 21.23 24.76 17.82 24.93 20.48 28.1 21.1 27.82 20.63 26.21 22.84 26.1 23.24 22.62 25.79 24.48 28.44 23.09 28.5 26.62 29.24 26.69 32.03 17.77 26.04 22.52"/></svg>