<svg xmlns="http://www.w3.org/2000/svg" viewBox="0 0 22.88 28.6"><defs><style>.a{opacity:0.8;}.b{fill:#fff;}.c{fill:#ffab24;}</style></defs><title>Asset 150</title><g class="a"><path class="b" d="M15.48,27.1a2.1,2.1,0,0,1-1.82-1.05L7.09,14.72a2.08,2.08,0,0,1-.26-1.33l-5-8.74A2.1,2.1,0,0,1,4.91,2a15.66,15.66,0,0,1,3.49-.4h.22c1.2,0,7.36.21,11,4.28l.07.08a6.93,6.93,0,0,1,1.5,5.78A5.77,5.77,0,0,1,18,15.57a5.81,5.81,0,0,1-2.56.66A6.16,6.16,0,0,1,13.75,16l4.34,7.48a2.1,2.1,0,0,1-.77,2.87l-.8.46A2.11,2.11,0,0,1,15.48,27.1Z"/><path class="b" d="M3.6,3a.6.6,0,0,1,.52.3l.21.37a13.67,13.67,0,0,1,4.09-.61h.21c1.09,0,6.67.18,9.93,3.79a5.45,5.45,0,0,1,1.22,4.52,4.24,4.24,0,0,1-2.44,2.86,4.38,4.38,0,0,1-1.91.51,4.11,4.11,0,0,1-3.1-1.29C11.09,12,10.09,11.32,9,11.24H8.69l.81,1.41a.6.6,0,0,1,.71.27L16.8,24.24a.6.6,0,0,1-.22.82l-.8.46A.6.6,0,0,1,15,25.3L8.39,14a.6.6,0,0,1,.09-.72L3.08,3.9A.6.6,0,0,1,3.6,3M7.66,4a12.4,12.4,0,0,0-3.09.56l.69,1.2h.52l1.06,0A5.5,5.5,0,0,1,7.66,4m2.42,2.17A9.82,9.82,0,0,1,11.41,4.4,18.18,18.18,0,0,0,9,4,4,4,0,0,0,7.86,5.87a18,18,0,0,1,2.22.32m3.38,1.28A6.06,6.06,0,0,1,15.57,6a12.8,12.8,0,0,0-3-1.29A8.45,8.45,0,0,0,11.1,6.45a10.29,10.29,0,0,1,2.37,1M15.7,9.62a6.36,6.36,0,0,1,2.39-1.23,5.17,5.17,0,0,0-.43-.65,7.83,7.83,0,0,0-1.1-1.07h0A5.12,5.12,0,0,0,14.28,8,6.74,6.74,0,0,1,15.7,9.62M6.56,8A11.13,11.13,0,0,1,6.65,6.8H5.84L6.56,8M7.9,10.36a6.74,6.74,0,0,1,.85-.08h.08A8.3,8.3,0,0,1,9.6,7.13a17.15,17.15,0,0,0-2-.27,14.1,14.1,0,0,0-.05,3l.31.54m3.42.75a15.54,15.54,0,0,1,1.5-2.84,9.66,9.66,0,0,0-2.22-.91,7.29,7.29,0,0,0-.78,3.06,5.6,5.6,0,0,1,1.5.69m1.93,1.74a7.84,7.84,0,0,1,1.68-2.55,6,6,0,0,0-1.31-1.48,15.16,15.16,0,0,0-1.49,2.9,8.46,8.46,0,0,1,1,1l.11.13m4,.34a2.84,2.84,0,0,0,1.24-2.11,4.32,4.32,0,0,0-.05-1.75A5.56,5.56,0,0,0,16.2,10.5a19.54,19.54,0,0,1,1.07,2.69m-2.1.61h.23a5.26,5.26,0,0,0,.95-.18,20.08,20.08,0,0,0-.91-2.38,6.4,6.4,0,0,0-1.38,2.28,2.26,2.26,0,0,0,1.11.3M3.6,0A3.6,3.6,0,0,0,.48,5.4L5.3,13.75a3.58,3.58,0,0,0,.49,1.72l6.58,11.34a3.6,3.6,0,0,0,4.89,1.32l.82-.47a3.6,3.6,0,0,0,1.31-4.92l-3-5.09a8.11,8.11,0,0,0,2.19-.72A7.24,7.24,0,0,0,22.69,12a8.41,8.41,0,0,0-1.78-7l-.14-.17C16.78.4,10.46.06,8.62.06H8.37A17.16,17.16,0,0,0,5.18.37,3.6,3.6,0,0,0,3.6,0Z"/></g><path class="c" d="M18.55,6.84C15.3,3.24,9.71,3.06,8.62,3.06H8.42a13.67,13.67,0,0,0-4.09.61L4.12,3.3a.6.6,0,0,0-1,.6l5.4,9.35a.6.6,0,0,0-.09.72L15,25.3a.6.6,0,0,0,.82.22l.8-.46a.6.6,0,0,0,.22-.82L10.22,12.9a.6.6,0,0,0-.71-.27l-.81-1.41H9c1.1.08,2.09.74,3.33,2.2a4.11,4.11,0,0,0,3.1,1.29,4.38,4.38,0,0,0,1.91-.51,4.24,4.24,0,0,0,2.44-2.86A5.45,5.45,0,0,0,18.55,6.84Zm-2-.17a7.83,7.83,0,0,1,1.1,1.07,5.16,5.16,0,0,1,.43.65A6.37,6.37,0,0,0,15.7,9.62,6.74,6.74,0,0,0,14.28,8a5.12,5.12,0,0,1,2.24-1.35Zm-1-.69a6.06,6.06,0,0,0-2.11,1.49,10.29,10.29,0,0,0-2.37-1,8.45,8.45,0,0,1,1.46-1.76A12.8,12.8,0,0,1,15.57,6ZM9,4a18.19,18.19,0,0,1,2.41.36,9.82,9.82,0,0,0-1.33,1.79,18,18,0,0,0-2.22-.32A4,4,0,0,1,9,4ZM6.56,8,5.84,6.79h.81A11.13,11.13,0,0,0,6.56,8ZM5.79,5.79H5.27l-.69-1.2A12.4,12.4,0,0,1,7.66,4a5.5,5.5,0,0,0-.81,1.78Zm3,4.49H8.75a6.74,6.74,0,0,0-.85.08l-.31-.54a14.1,14.1,0,0,1,.05-3,17.13,17.13,0,0,1,2,.27A8.3,8.3,0,0,0,8.83,10.28Zm2.49.83a5.6,5.6,0,0,0-1.5-.69,7.29,7.29,0,0,1,.78-3.06,9.66,9.66,0,0,1,2.22.91A15.54,15.54,0,0,0,11.32,11.11Zm1.82,1.61a8.47,8.47,0,0,0-1-1,15.16,15.16,0,0,1,1.49-2.9,6,6,0,0,1,1.31,1.48,7.84,7.84,0,0,0-1.68,2.55Zm2.27,1.07h-.23a2.26,2.26,0,0,1-1.11-.3,6.4,6.4,0,0,1,1.38-2.28,20.08,20.08,0,0,1,.91,2.38A5.26,5.26,0,0,1,15.41,13.79Zm3.11-2.71a2.84,2.84,0,0,1-1.24,2.11A19.54,19.54,0,0,0,16.2,10.5a5.56,5.56,0,0,1,2.26-1.17A4.32,4.32,0,0,1,18.52,11.08Z"/></svg>