<svg xmlns="http://www.w3.org/2000/svg" viewBox="0 0 46.11 37.5"><defs><style>.a{opacity:0.8;}.b{fill:#ffab24;}.c{fill:#fff;}.d{fill:#4f8317;}</style></defs><title>Asset 5</title><g class="a"><path class="b" d="M43,25.7a9,9,0,0,0-5-8.1V14.3a1.49,1.49,0,0,0-1.3-1.4H34.1v-2a1.46,1.46,0,0,0,.9-.6,1.31,1.31,0,0,0,.3-1.2l-.2-1.5a1.6,1.6,0,0,0-1.9-1.3h-.1a2,2,0,0,0-.8.4l-1.6-1h0a2,2,0,0,0-.1-1.3,1.59,1.59,0,0,0-1-.8l-1.5-.4a1.7,1.7,0,0,0-2,1.3v.3L24.6,5a1.79,1.79,0,0,0-2.2-.9L21,4.5a1.66,1.66,0,0,0-.8,2.1L19,7.9,17.1,6.6a1.38,1.38,0,0,0-1.8.3L13.4,9.6a9.1,9.1,0,0,0-7,16.1l1-1.5a7.37,7.37,0,0,1,9.7-11.1A7.35,7.35,0,0,1,8.4,24.9l-1,1.5A9.17,9.17,0,0,0,20,23.6a8.94,8.94,0,0,0,.3-9.2l1.9-2.7a1.42,1.42,0,0,0-.3-1.9l-2-1.4.9-1a1.78,1.78,0,0,0,1,.4,1.27,1.27,0,0,0,.6-.1l1.4-.6a2,2,0,0,0,.9-1.3l1.5-.2v.1a1.45,1.45,0,0,0,1,.7l1.5.4c.1,0,.3.1.4,0a1.61,1.61,0,0,0,1.1-.5l1.5,1a1.7,1.7,0,0,0-.1.7l.3,1.5a1.49,1.49,0,0,0,1.2,1.3v2H31a1.32,1.32,0,0,0-1.3,1.3h0v3.3a9.14,9.14,0,0,0-4,12.3,9,9,0,0,0,7.5,5V32.9a7.38,7.38,0,1,1,8-6.7,7.29,7.29,0,0,1-6.7,6.7v1.8A9,9,0,0,0,43,25.7ZM18.5,11.1a.81.81,0,1,1-1.4-.8c0-.1.1-.1.1-.2a.78.78,0,0,1,.8-.2l.7-1.1.6.4-.7,1.1A2.49,2.49,0,0,1,18.5,11.1Zm5-4.8-1.4.6a.62.62,0,0,1-.7-.1l.3-.3a.45.45,0,0,0-.4-.8c-.1,0-.1.1-.2.2h0a.66.66,0,0,1,.4-.5l1.4-.6c.1,0,.1-.1.2-.1a.86.86,0,0,1,.6.3h-.2a.54.54,0,0,0-.5.5.54.54,0,0,0,.5.5h.3l-.3.3Zm6.3-1.4a.53.53,0,0,0-.7.2.62.62,0,0,0,.1.7l.2.2A.3.3,0,0,1,29,6l-1.5-.4a.22.22,0,0,1-.2-.2l.4-.1a.66.66,0,0,0,.4-.5c0-.3-.3-.4-.5-.4H27a.75.75,0,0,1,.7-.5h.2l1.5.4c.2.1.4.2.4.4.1,0,.1.2,0,.2Zm3,4.5-.2-1.5V7.8l.2.1a.37.37,0,0,0,.3.1.52.52,0,0,0,.4-.2.53.53,0,0,0-.2-.7h.3a.76.76,0,0,1,.8.6l.2,1.5c0,.2,0,.4-.2.5s-.1.1-.2.1V9.4c0-.3-.1-.5-.4-.5s-.5.1-.5.4v.6a.82.82,0,0,1-.5-.5Zm1,7.3a.79.79,0,0,1-.8-.8.75.75,0,0,1,.5-.7V13.9h.7v1.3c.3.1.4.4.5.7a1,1,0,0,1-.9.8Z"/><path class="c" d="M27.8,3h.4l1.5.4a1.59,1.59,0,0,1,1,.8,1.5,1.5,0,0,1,.1,1.3h0l1.6,1a2,2,0,0,1,.8-.4h.3a1.81,1.81,0,0,1,1.7,1.4L35.4,9a1.68,1.68,0,0,1-.3,1.2,1.8,1.8,0,0,1-.9.6v2.1h2.5A1.32,1.32,0,0,1,38,14.2v3.4a9.14,9.14,0,0,1,4,12.3,9.27,9.27,0,0,1-7.7,5V33.1a7.38,7.38,0,1,0-8-6.7A7.37,7.37,0,0,0,33,33.1v1.8a9.1,9.1,0,0,1-8.4-9.8,9,9,0,0,1,5-7.5V14.3a1.49,1.49,0,0,1,1.3-1.4h2.4v-2A1.49,1.49,0,0,1,32,9.6l-.2-1.5a1.7,1.7,0,0,1,.1-.7l-1.5-1a1.61,1.61,0,0,1-1.1.5h-.4l-1.5-.4a1.83,1.83,0,0,1-1-.7V5.7l-1.5.2A1.42,1.42,0,0,1,24,7.2l-1.4.6a1.27,1.27,0,0,1-.6.1,1.78,1.78,0,0,1-1-.4l-.9,1,2,1.4a1.38,1.38,0,0,1,.3,1.9l-1.9,2.7A9.13,9.13,0,0,1,7.6,26.6l1-1.5A7.43,7.43,0,1,0,5,18.7a7.12,7.12,0,0,0,2.6,5.6l-1,1.5A9,9,0,0,1,5,12.9a9.32,9.32,0,0,1,7.1-3.4,6.15,6.15,0,0,1,1.3.1l1.9-2.7a1.25,1.25,0,0,1,1.1-.6,2.35,2.35,0,0,1,.8.2L19,7.9l1.2-1.2A1.62,1.62,0,0,1,21,4.6L22.4,4a1.27,1.27,0,0,1,.6-.1,1.78,1.78,0,0,1,1.6,1l1.5-.2V4.4A1.7,1.7,0,0,1,27.8,3M27,4.4l.4-.1h.1a.66.66,0,0,1,.5.4.55.55,0,0,1-.4.6h0l-.4.1.2.2,1.6.3h.4l-.2-.1a.57.57,0,0,1-.2-.7.76.76,0,0,1,.4-.2.37.37,0,0,1,.3.1l.1.1V4.7a.78.78,0,0,0-.4-.4L28,3.9h-.2a1,1,0,0,0-.8.5M21,5.9h0a.37.37,0,0,1,.3-.1.47.47,0,0,1,.5.5.37.37,0,0,1-.1.3l-.3.3a.75.75,0,0,0,.5.1c.1,0,.2-.1.3-.1l1.4-.6c.1-.1.3-.2.3-.4h-.3a.47.47,0,0,1-.5-.5.47.47,0,0,1,.5-.5h.2a.86.86,0,0,0-.6-.3.37.37,0,0,0-.3.1l-1.4.7c-.4.1-.5.3-.5.5M33,8c-.1,0-.2,0-.2-.1h-.1V8l.2,1.5a.66.66,0,0,0,.4.5V9.5c0-.3.1-.5.4-.5s.5.1.5.4v.5a.35.35,0,0,0,.2-.1,1.69,1.69,0,0,0,.2-.5l-.2-1.5a.76.76,0,0,0-.8-.6h-.3a.57.57,0,0,1,.2.7c-.2,0-.3.1-.5.1M17.9,9.9h-.1a.76.76,0,0,0-.4,1.4.94.94,0,0,0,1.2-.3.61.61,0,0,0,0-.8l.7-1.1-.6-.4-.8,1.2m15.9,6.8a.86.86,0,0,0,.8-.8.75.75,0,0,0-.5-.7V13.9h-.7v1.3a.84.84,0,0,0-.4.7.86.86,0,0,0,.8.8M27.8,0h0a4.62,4.62,0,0,0-3,1.1A5.84,5.84,0,0,0,23,.7a4.33,4.33,0,0,0-1.9.4l-1.4.6a5.51,5.51,0,0,0-2,1.7A4.27,4.27,0,0,0,12.8,5l-.9,1.3A12.09,12.09,0,0,0,4.5,27.8a2.51,2.51,0,0,0,.7.4,1.79,1.79,0,0,0,.7.5A12.07,12.07,0,0,0,21.7,26,12.25,12.25,0,0,0,32.9,37.5h.2a1.27,1.27,0,0,0,.6-.1,1.7,1.7,0,0,0,.7.1h.2A12.25,12.25,0,0,0,46.1,24.7a12.1,12.1,0,0,0-5-9.2V13.9a4.38,4.38,0,0,0-2.6-4,4.88,4.88,0,0,0,.1-1.7l-.2-1.5a4.62,4.62,0,0,0-4.6-3.9h-.1l-.1-.3A4.22,4.22,0,0,0,30.7.2L29,.1A4.87,4.87,0,0,0,27.8,0ZM25.2,9.8l.9-.6.4.1,1.5.4a3.4,3.4,0,0,0,1,.1V10a.37.37,0,0,0,.1.3,4.48,4.48,0,0,0-2.5,3.9v1.7a12,12,0,0,0-2.3,2.2,20.21,20.21,0,0,0-.6-3.4l.9-1.3a4.24,4.24,0,0,0,.6-3.6ZM9.6,22.2l-.3-.3a4.33,4.33,0,1,1,5.6-6.6,4.4,4.4,0,0,1,.5,6.1,4.13,4.13,0,0,1-3.3,1.5,4,4,0,0,1-2.2-.6l-.3-.1Zm24.2,7.9-.4-.1a4.36,4.36,0,1,1,4.7-4,4.47,4.47,0,0,1-4,4l-.3.1Z"/></g><path class="d" d="M43,25.7a9,9,0,0,0-5-8.1V14.3a1.49,1.49,0,0,0-1.3-1.4H34.1v-2a1.46,1.46,0,0,0,.9-.6,1.31,1.31,0,0,0,.3-1.2l-.2-1.5a1.6,1.6,0,0,0-1.9-1.3h-.1a2,2,0,0,0-.8.4l-1.6-1h0a2,2,0,0,0-.1-1.3,1.59,1.59,0,0,0-1-.8l-1.5-.4a1.7,1.7,0,0,0-2,1.3v.3L24.6,5a1.69,1.69,0,0,0-2.2-.9L21,4.5a1.66,1.66,0,0,0-.8,2.1L19.1,7.9,17.2,6.6a1.42,1.42,0,0,0-1.9.3L13.4,9.6a9.1,9.1,0,0,0-7,16.1l1-1.5a7.37,7.37,0,0,1,9.7-11.1A7.35,7.35,0,0,1,8.4,24.9l-1,1.5A9.17,9.17,0,0,0,20,23.6a8.94,8.94,0,0,0,.3-9.2l1.9-2.7a1.42,1.42,0,0,0-.3-1.9l-2-1.4.9-1a1.78,1.78,0,0,0,1,.4,1.27,1.27,0,0,0,.6-.1l1.4-.6a2,2,0,0,0,.9-1.3l1.5-.2v.1a1.45,1.45,0,0,0,1,.7l1.5.4c.1,0,.3.1.4,0a1.61,1.61,0,0,0,1.1-.5l1.5,1a1.7,1.7,0,0,0-.1.7l.3,1.5a1.49,1.49,0,0,0,1.2,1.3v2H31a1.32,1.32,0,0,0-1.3,1.3h0v3.3a9.14,9.14,0,0,0-4,12.3,9,9,0,0,0,7.5,5V32.9a7.38,7.38,0,1,1,8-6.7,7.29,7.29,0,0,1-6.7,6.7v1.8A9,9,0,0,0,43,25.7ZM18.5,11.1a.81.81,0,1,1-1.4-.8c0-.1.1-.1.1-.2a.78.78,0,0,1,.8-.2l.7-1.1.6.4-.7,1.1A2.49,2.49,0,0,1,18.5,11.1Zm5-4.8-1.4.6a.62.62,0,0,1-.7-.1l.3-.3a.5.5,0,0,0-.6-.8c-.1,0-.1.1-.2.2h0a.66.66,0,0,1,.4-.5l1.4-.6c.1,0,.1-.1.2-.1a.86.86,0,0,1,.6.3h-.2a.54.54,0,0,0-.5.5.54.54,0,0,0,.5.5h.3c.1.1,0,.2-.1.3Zm6.3-1.4a.53.53,0,0,0-.7.2.62.62,0,0,0,.1.7l.2.2a.45.45,0,0,1-.5,0l-1.5-.4a.22.22,0,0,1-.2-.2l.4-.1a.66.66,0,0,0,.4-.5c0-.3-.3-.4-.5-.4H27a.75.75,0,0,1,.7-.5H28l1.5.4c.2.1.4.2.4.4v.4Zm3.1,4.5-.3-1.5V7.8l.1.1A.37.37,0,0,0,33,8a.52.52,0,0,0,.4-.2.53.53,0,0,0-.2-.7h.3a.76.76,0,0,1,.8.6l.2,1.5c0,.2,0,.4-.2.5s-.1.1-.2.1V9.4c0-.3-.1-.5-.4-.5s-.5.1-.5.4v.6a.62.62,0,0,1-.3-.5Zm1,7.3a1,1,0,0,1-.9-.8h0a.75.75,0,0,1,.5-.7V13.9h.7v1.3c.3.1.4.4.5.7-.1.4-.4.8-.8.8Z"/></svg>