<svg xmlns="http://www.w3.org/2000/svg" viewBox="0 0 45.98 37.88"><defs><style>.a{opacity:0.8;}.b{fill:#d0021b;}.c{fill:#fff;}</style></defs><title>Asset 2</title><g class="a"><path class="b" d="M43,25.74a9.15,9.15,0,0,0-5-8.14V14.31A1.33,1.33,0,0,0,36.63,13H34.16V10.89a1.8,1.8,0,0,0,.92-.58,1.57,1.57,0,0,0,.33-1.23l-.24-1.52a1.67,1.67,0,0,0-2-1.33,1.81,1.81,0,0,0-.81.37l-1.62-1v0a1.81,1.81,0,0,0-.13-1.3,1.55,1.55,0,0,0-1-.81L28.16,3a1.72,1.72,0,0,0-2,1.27,1.59,1.59,0,0,0,0,.26l-1.55.24a1.72,1.72,0,0,0-2.19-.88L21,4.58a1.68,1.68,0,0,0-.78,2.15L19,7.94l-1.9-1.33a1.33,1.33,0,0,0-1.85.33L13.4,9.64A9.13,9.13,0,0,0,6.34,25.76l1-1.48a7.37,7.37,0,1,1,1,.74l-1,1.48A9.13,9.13,0,0,0,20.24,14.42l1.89-2.7a1.34,1.34,0,0,0-.33-1.85l-2-1.39.94-1a1.66,1.66,0,0,0,1,.4,1.54,1.54,0,0,0,.65-.14l1.4-.65a1.6,1.6,0,0,0,.88-1.33l1.53-.24s0,.09,0,.14a1.57,1.57,0,0,0,1,.74l1.49.4a1.57,1.57,0,0,0,.4.05,1.63,1.63,0,0,0,1.1-.46l1.55,1a1.52,1.52,0,0,0-.07.72L32,9.63a1.6,1.6,0,0,0,1.26,1.29V13H30.94a1.33,1.33,0,0,0-1.33,1.33V17.6a9.13,9.13,0,0,0,3.45,17.26V33a7.35,7.35,0,1,1,1.26,0v1.81A9.17,9.17,0,0,0,43,25.74ZM18.45,11.1a.81.81,0,1,1-1.32-.92.76.76,0,0,1,.76-.28l.74-1.07.57.4-.74,1.06A.75.75,0,0,1,18.45,11.1Zm5-4.78L22.07,7a.72.72,0,0,1-.71-.1l.31-.32A.47.47,0,1,0,21,5.89l0,0a.7.7,0,0,1,.37-.54l1.4-.65A.67.67,0,0,1,23,4.68a.8.8,0,0,1,.57.29l-.2,0a.49.49,0,0,0,.08,1h.08l.25,0A.67.67,0,0,1,23.47,6.31ZM29.76,5a.49.49,0,0,0-.52.83l.2.12A.66.66,0,0,1,29,6l-1.49-.4c-.1,0-.16-.12-.23-.19l.36-.06A.49.49,0,0,0,28,4.77a.47.47,0,0,0-.56-.41l-.4.06a.82.82,0,0,1,.71-.54l.17,0,1.49.4a.7.7,0,0,1,.44.37.94.94,0,0,1,0,.38Zm3.08,4.54L32.59,8s0-.05,0-.08l.12.07A.49.49,0,0,0,33,8a.5.5,0,0,0,.42-.23.49.49,0,0,0-.16-.67s0,0,.07,0h.16a.79.79,0,0,1,.82.62l.24,1.52a.7.7,0,0,1-.15.55c-.06.07-.16.08-.23.13V9.55a.47.47,0,1,0-.93,0V10A.68.68,0,0,1,32.84,9.49Zm1,7.22a.81.81,0,0,1-.81-.8.76.76,0,0,1,.46-.67v-1.3h.69v1.3a.76.76,0,0,1,.46.67A.8.8,0,0,1,33.79,16.71Z"/><path class="c" d="M27.79,3a1.46,1.46,0,0,1,.37,0l1.49.4a1.55,1.55,0,0,1,1,.81,1.81,1.81,0,0,1,.13,1.3v0l1.62,1a1.81,1.81,0,0,1,.81-.37l.32,0a1.65,1.65,0,0,1,1.66,1.36l.24,1.52a1.57,1.57,0,0,1-.33,1.23,1.8,1.8,0,0,1-.92.58V13h2.47A1.33,1.33,0,0,1,38,14.31V17.6a9.14,9.14,0,0,1-3.64,17.28V33.07a7.4,7.4,0,1,0-1.26,0v1.81A9.13,9.13,0,0,1,29.62,17.6V14.31A1.33,1.33,0,0,1,30.94,13h2.29V10.91A1.6,1.6,0,0,1,32,9.63l-.24-1.52a1.52,1.52,0,0,1,.07-.72l-1.55-1a1.63,1.63,0,0,1-1.1.46,1.57,1.57,0,0,1-.4-.05l-1.49-.4a1.57,1.57,0,0,1-1-.74s0-.09,0-.14l-1.53.24a1.6,1.6,0,0,1-.88,1.33l-1.4.65a1.54,1.54,0,0,1-.65.14,1.66,1.66,0,0,1-1-.4l-.94,1,2,1.39a1.34,1.34,0,0,1,.33,1.85l-1.89,2.7A9.14,9.14,0,0,1,7.36,26.5L8.4,25a7.39,7.39,0,0,0,3.79,1,7.39,7.39,0,1,0-4.81-1.78l-1,1.48a9.12,9.12,0,0,1,5.8-16.2,9.39,9.39,0,0,1,1.26.09l1.89-2.7a1.33,1.33,0,0,1,1.09-.57,1.31,1.31,0,0,1,.76.24L19,7.94,20.2,6.73A1.68,1.68,0,0,1,21,4.58l1.4-.65A1.49,1.49,0,0,1,23,3.8a1.78,1.78,0,0,1,1.57,1l1.55-.24a1.59,1.59,0,0,1,0-.26A1.76,1.76,0,0,1,27.79,3m-.73,1.42.4-.06h.1a.48.48,0,0,1,.46.42.49.49,0,0,1-.41.56l-.36.06c.08.07.14.16.23.19L29,6l.13,0a.76.76,0,0,0,.32-.08l-.2-.12a.49.49,0,0,1-.16-.67.5.5,0,0,1,.42-.23.48.48,0,0,1,.26.08L29.9,5a.94.94,0,0,0,0-.38.7.7,0,0,0-.44-.37l-1.49-.4-.17,0a.82.82,0,0,0-.71.54M21,5.92l0,0a.46.46,0,0,1,.34-.14.47.47,0,0,1,.34.79l-.31.32a.83.83,0,0,0,.46.15A.58.58,0,0,0,22.07,7l1.4-.65a.67.67,0,0,0,.31-.38l-.25,0h-.08a.49.49,0,0,1-.08-1l.2,0A.8.8,0,0,0,23,4.68a.67.67,0,0,0-.28.06l-1.4.65a.7.7,0,0,0-.37.54M33,8A.49.49,0,0,1,32.73,8l-.12-.07s0,.05,0,.08l.24,1.52a.68.68,0,0,0,.39.49V9.55a.47.47,0,1,1,.93,0v.34c.07,0,.18-.06.23-.13a.7.7,0,0,0,.15-.55l-.24-1.52a.79.79,0,0,0-.82-.62h-.16s0,0-.07,0a.49.49,0,0,1,.16.67A.5.5,0,0,1,33,8M17.89,9.9h-.15a.71.71,0,0,0-.61.29.81.81,0,0,0,.2,1.12.8.8,0,0,0,.46.15.81.81,0,0,0,.66-.35.75.75,0,0,0,0-.81l.74-1.06-.57-.4L17.89,9.9m15.9,6.81a.8.8,0,0,0,.8-.8.76.76,0,0,0-.46-.67v-1.3h-.69v1.3a.76.76,0,0,0-.46.67.81.81,0,0,0,.81.8M27.79,0h0a4.66,4.66,0,0,0-3.05,1.14A4.66,4.66,0,0,0,23,.8a4.46,4.46,0,0,0-1.87.41l-1.41.65A4.48,4.48,0,0,0,17.77,3.6a4.34,4.34,0,0,0-4.95,1.62l-.93,1.33A12.12,12.12,0,0,0,4.43,28.07a3,3,0,0,0,.71.43,3,3,0,0,0,.66.55,12.17,12.17,0,0,0,15.83-2.68A12.23,12.23,0,0,0,32.83,37.85h.24a3,3,0,0,0,.58-.06,3,3,0,0,0,.68.08h.18A12.13,12.13,0,0,0,41,15.94V14.31a4.33,4.33,0,0,0-2.64-4,4.51,4.51,0,0,0,.06-1.72l-.24-1.52A4.62,4.62,0,0,0,33.51,3.2h-.06l-.14-.31A4.57,4.57,0,0,0,30.41.55L28.94.15A4.49,4.49,0,0,0,27.79,0ZM25.2,9.79a4.49,4.49,0,0,0,.9-.59l.4.12,1.47.4a4.7,4.7,0,0,0,1,.15l0,.23q0,.16.06.31a4.33,4.33,0,0,0-2.45,3.9v1.63a12.23,12.23,0,0,0-2.31,2.19,12.22,12.22,0,0,0-.65-3.35l.93-1.34a4.33,4.33,0,0,0,.62-3.65ZM9.6,22.26A3,3,0,0,0,9.33,22a4.36,4.36,0,1,1,2.86,1.06,4.41,4.41,0,0,1-2.25-.62l-.33-.17Zm24.14,7.86-.39-.06a4.35,4.35,0,1,1,.75,0l-.36,0Z"/></g><path class="b" d="M43,25.74a9.15,9.15,0,0,0-5-8.14V14.31A1.33,1.33,0,0,0,36.64,13H34.17V10.89a1.8,1.8,0,0,0,.92-.58,1.57,1.57,0,0,0,.33-1.23l-.24-1.52a1.67,1.67,0,0,0-2-1.33,1.81,1.81,0,0,0-.81.37l-1.62-1v0a1.81,1.81,0,0,0-.13-1.3,1.55,1.55,0,0,0-1-.81L28.17,3a1.72,1.72,0,0,0-2,1.27,1.59,1.59,0,0,0,0,.26l-1.55.24a1.72,1.72,0,0,0-2.19-.88L21,4.58a1.68,1.68,0,0,0-.78,2.15L19,7.94l-1.9-1.33a1.33,1.33,0,0,0-1.85.33l-1.89,2.7A9.13,9.13,0,0,0,6.35,25.76l1-1.48a7.37,7.37,0,1,1,1,.74l-1,1.48A9.13,9.13,0,0,0,20.25,14.42l1.89-2.7a1.34,1.34,0,0,0-.33-1.85l-2-1.39.94-1a1.66,1.66,0,0,0,1,.4,1.54,1.54,0,0,0,.65-.14l1.4-.65a1.6,1.6,0,0,0,.88-1.33l1.53-.24s0,.09,0,.14a1.57,1.57,0,0,0,1,.74l1.49.4a1.57,1.57,0,0,0,.4.05,1.63,1.63,0,0,0,1.1-.46l1.55,1a1.52,1.52,0,0,0-.07.72L32,9.63a1.6,1.6,0,0,0,1.26,1.29V13H31a1.33,1.33,0,0,0-1.33,1.33V17.6a9.13,9.13,0,0,0,3.45,17.26V33a7.35,7.35,0,1,1,1.26,0v1.81A9.17,9.17,0,0,0,43,25.74ZM18.46,11.1a.81.81,0,1,1-1.32-.92.76.76,0,0,1,.76-.28l.74-1.07.57.4-.74,1.06A.75.75,0,0,1,18.46,11.1Zm5-4.78L22.09,7a.72.72,0,0,1-.71-.1l.31-.32A.47.47,0,1,0,21,5.89l0,0a.7.7,0,0,1,.37-.54l1.4-.65A.67.67,0,0,1,23,4.68.8.8,0,0,1,23.6,5l-.2,0a.49.49,0,0,0,.08,1h.08l.25,0A.67.67,0,0,1,23.49,6.31ZM29.77,5a.49.49,0,0,0-.52.83l.2.12A.66.66,0,0,1,29,6l-1.49-.4c-.1,0-.16-.12-.23-.19l.36-.06A.49.49,0,0,0,28,4.77a.47.47,0,0,0-.56-.41l-.4.06a.82.82,0,0,1,.71-.54l.17,0,1.49.4a.7.7,0,0,1,.44.37.94.94,0,0,1,0,.38Zm3.08,4.54L32.6,8s0-.05,0-.08l.12.07A.49.49,0,0,0,33,8a.5.5,0,0,0,.42-.23.49.49,0,0,0-.16-.67s0,0,.07,0h.16a.79.79,0,0,1,.82.62l.24,1.52a.7.7,0,0,1-.15.55c-.06.07-.16.08-.23.13V9.55a.47.47,0,1,0-.93,0V10A.68.68,0,0,1,32.85,9.49Zm1,7.22a.81.81,0,0,1-.81-.8.76.76,0,0,1,.46-.67v-1.3h.69v1.3a.76.76,0,0,1,.46.67A.8.8,0,0,1,33.8,16.71Z"/></svg>