<svg xmlns="http://www.w3.org/2000/svg" viewBox="0 0 46.05 37.87"><defs><style>.a{opacity:0.8;}.b{fill:none;}.c{fill:#fff;}.d{fill:#acafb2;}</style></defs><title>Asset 4 1</title><g class="a"><path class="b" d="M43,25.74a9.15,9.15,0,0,0-5-8.14V14.31a1.33,1.33,0,0,0-1.29-1.37H34.21v-2a1.8,1.8,0,0,0,.92-.58,1.57,1.57,0,0,0,.33-1.23l-.24-1.52a1.67,1.67,0,0,0-1.94-1.34h-.06a1.81,1.81,0,0,0-.81.37l-1.62-1h0a1.81,1.81,0,0,0-.13-1.3,1.55,1.55,0,0,0-1-.81l-1.49-.4a1.72,1.72,0,0,0-2,1.27,1.59,1.59,0,0,0,0,.26l-1.55.24a1.72,1.72,0,0,0-2.19-.92L21,4.59a1.68,1.68,0,0,0-.78,2.15L19,7.94l-1.9-1.33a1.33,1.33,0,0,0-1.8.33l-1.89,2.7A9.13,9.13,0,0,0,6.39,25.76l1-1.48a7.37,7.37,0,1,1,1,.74l-1,1.48a9.13,9.13,0,0,0,12.9-12.08l1.89-2.7a1.34,1.34,0,0,0-.33-1.85l-2-1.39.94-1a1.66,1.66,0,0,0,1,.4,1.54,1.54,0,0,0,.65-.14l1.4-.65a1.6,1.6,0,0,0,.88-1.33l1.53-.24v.14a1.57,1.57,0,0,0,1,.74l1.49.4a1.57,1.57,0,0,0,.4,0,1.63,1.63,0,0,0,1.1-.46l1.55,1a1.52,1.52,0,0,0-.07.72L32,9.63a1.6,1.6,0,0,0,1.24,1.31v2H31a1.33,1.33,0,0,0-1.33,1.33h0v3.29a9.13,9.13,0,0,0,3.45,17.26V33.05a7.35,7.35,0,1,1,1.26,0v1.81A9.17,9.17,0,0,0,43,25.74ZM18.5,11.1a.81.81,0,1,1-1.32-.92.76.76,0,0,1,.76-.24l.74-1.07.57.4-.74,1.06A.75.75,0,0,1,18.5,11.1Zm5-4.78L22.1,7a.72.72,0,0,1-.71-.1l.31-.32A.47.47,0,1,0,21,5.94h0a.7.7,0,0,1,.37-.54l1.4-.65a.67.67,0,0,1,.28-.06.8.8,0,0,1,.57.29h-.2a.5.5,0,1,0,.08,1h.33a.67.67,0,0,1-.34.33Zm6.31-1.38a.49.49,0,0,0-.52.83l.2.12a.66.66,0,0,1-.45,0l-1.49-.4c-.1,0-.16-.12-.23-.19l.36-.06a.49.49,0,0,0,.41-.56h0a.47.47,0,0,0-.52-.42h0l-.4.06a.82.82,0,0,1,.71-.54H28l1.49.4a.7.7,0,0,1,.44.37.94.94,0,0,1,0,.38Zm3.08,4.54-.25-1.54V7.86l.12.07A.49.49,0,0,0,33,8a.5.5,0,0,0,.42-.23.49.49,0,0,0-.16-.67h.23a.79.79,0,0,1,.82.62l.24,1.52a.7.7,0,0,1-.15.55c-.06.07-.16.08-.23.13V9.59a.47.47,0,1,0-.93,0v.35a.68.68,0,0,1-.37-.45Zm1,7.22a.81.81,0,0,1-.85-.76.76.76,0,0,1,.46-.67V13.94h.69v1.3a.76.76,0,0,1,.46.67.8.8,0,0,1-.8.8h0Z"/><path class="c" d="M27.84,3a1.46,1.46,0,0,1,.37,0l1.49.4a1.55,1.55,0,0,1,1,.81,1.81,1.81,0,0,1,.13,1.3h0l1.62,1a1.81,1.81,0,0,1,.81-.37h.32A1.65,1.65,0,0,1,35.24,7.5L35.48,9a1.57,1.57,0,0,1-.33,1.23,1.8,1.8,0,0,1-.92.58v2.11H36.7A1.33,1.33,0,0,1,38,14.26s0,0,0,.05V17.6A9.14,9.14,0,0,1,34.4,34.88V33.07a7.4,7.4,0,1,0-1.26,0v1.81a9.13,9.13,0,0,1-3.45-17.26V14.31A1.33,1.33,0,0,1,31,12.94h2.35v-2A1.6,1.6,0,0,1,32,9.63L31.8,8.11a1.52,1.52,0,0,1,.07-.72l-1.55-1a1.63,1.63,0,0,1-1.1.46,1.57,1.57,0,0,1-.4,0l-1.49-.4a1.57,1.57,0,0,1-1-.74V5.52l-1.53.24a1.6,1.6,0,0,1-.88,1.33l-1.4.65a1.54,1.54,0,0,1-.65.14,1.66,1.66,0,0,1-1-.4l-.94,1,2,1.39a1.34,1.34,0,0,1,.33,1.85l-1.89,2.7a9.14,9.14,0,0,1-13,12.08l1-1.48a7.84,7.84,0,1,0-1-.78l-1,1.48a9.12,9.12,0,0,1,5.8-16.2,9.39,9.39,0,0,1,1.26.09l1.89-2.67a1.33,1.33,0,0,1,1.09-.57,1.31,1.31,0,0,1,.76.24L19,7.94l1.17-1.21A1.68,1.68,0,0,1,21,4.59l1.4-.65a1.49,1.49,0,0,1,.62-.13,1.78,1.78,0,0,1,1.57,1l1.55-.24a1.59,1.59,0,0,1,0-.26A1.76,1.76,0,0,1,27.83,3M27.1,4.42l.4-.06h.1a.48.48,0,0,1,.46.42.49.49,0,0,1-.41.56h0l-.36.06c.08.07.14.16.23.19L29,5.94h.13a.76.76,0,0,0,.32-.08l-.2-.12a.49.49,0,0,1-.16-.67.5.5,0,0,1,.42-.23.48.48,0,0,1,.26.08L30,5a.94.94,0,0,0,0-.38.7.7,0,0,0-.44-.37L28,3.94h-.17a.82.82,0,0,0-.71.54M21,5.94h0a.46.46,0,0,1,.34-.14.47.47,0,0,1,.34.79l-.31.32a.83.83,0,0,0,.46.15.58.58,0,0,0,.25,0l1.4-.65a.67.67,0,0,0,.32-.42h-.33a.5.5,0,1,1-.08-1h.2a.8.8,0,0,0-.57-.29.67.67,0,0,0-.28.06l-1.4.65a.7.7,0,0,0-.34.58M33,8A.49.49,0,0,1,32.78,8l-.11,0V8l.24,1.52a.68.68,0,0,0,.39.49V9.61a.47.47,0,1,1,.93,0v.33a.34.34,0,0,0,.23-.13.7.7,0,0,0,.15-.55l-.24-1.52a.79.79,0,0,0-.82-.62h-.23a.49.49,0,0,1,.16.67.5.5,0,0,1-.42.23M17.94,9.94h-.15a.71.71,0,0,0-.61.29.81.81,0,0,0,.2,1.12.8.8,0,0,0,.46.15.81.81,0,0,0,.66-.35.75.75,0,0,0,0-.81l.74-1.06-.57-.4-.73,1.06m15.9,6.81a.8.8,0,0,0,.8-.8.76.76,0,0,0-.46-.67V13.94h-.69v1.3a.76.76,0,0,0-.45.7.81.81,0,0,0,.81.8M27.85,0h0a4.66,4.66,0,0,0-3,1.14A4.66,4.66,0,0,0,23,.81a4.46,4.46,0,0,0-1.87.41l-1.41.65a4.48,4.48,0,0,0-2,1.74,4.34,4.34,0,0,0-4.95,1.62l-.93,1.33A12.12,12.12,0,0,0,4.47,28.08a3,3,0,0,0,.71.43,3,3,0,0,0,.66.55,12.17,12.17,0,0,0,15.83-2.68A12.23,12.23,0,0,0,32.88,37.85h.24a3,3,0,0,0,.58-.06,3,3,0,0,0,.68.08h.18A12.13,12.13,0,0,0,41,15.94V14.31a4.33,4.33,0,0,0-2.64-4,4.51,4.51,0,0,0,.06-1.72l-.24-1.52A4.62,4.62,0,0,0,33.6,3.19h-.06l-.14-.31A4.57,4.57,0,0,0,30.5.54L29,.15A4.49,4.49,0,0,0,27.89,0ZM25.26,9.82a4.49,4.49,0,0,0,.9-.59l.4.12,1.47.4a4.7,4.7,0,0,0,1,.15v.23a.83.83,0,0,0,.06.31,4.33,4.33,0,0,0-2.45,3.9v1.6a12.23,12.23,0,0,0-2.31,2.19,12.22,12.22,0,0,0-.65-3.35l.93-1.34a4.33,4.33,0,0,0,.62-3.65ZM9.65,22.26A3,3,0,0,0,9.38,22a4.36,4.36,0,1,1,2.86,1.06A4.41,4.41,0,0,1,10,22.43l-.33-.17Zm24.14,7.86-.39-.06a4.35,4.35,0,1,1,.75,0h-.36Z"/></g><path class="d" d="M43,25.74a9.15,9.15,0,0,0-5-8.14V14.31a1.33,1.33,0,0,0-1.29-1.37H34.23v-2a1.8,1.8,0,0,0,.92-.58,1.57,1.57,0,0,0,.33-1.23l-.24-1.52A1.67,1.67,0,0,0,33.3,6.22h-.06a1.81,1.81,0,0,0-.81.37l-1.62-1h0a1.81,1.81,0,0,0-.13-1.3,1.55,1.55,0,0,0-1-.81l-1.49-.4a1.72,1.72,0,0,0-2,1.27,1.59,1.59,0,0,0,0,.26l-1.55.24a1.72,1.72,0,0,0-2.2-.92L21,4.59a1.68,1.68,0,0,0-.78,2.15L19.1,7.94,17.2,6.61a1.33,1.33,0,0,0-1.85.33l-1.89,2.7A9.13,9.13,0,0,0,6.4,25.76l1-1.48a7.37,7.37,0,1,1,1,.74l-1,1.48A9.13,9.13,0,0,0,20.3,14.42l1.89-2.7a1.34,1.34,0,0,0-.33-1.85l-2-1.39.94-1a1.66,1.66,0,0,0,1,.4,1.54,1.54,0,0,0,.65-.14l1.4-.65a1.6,1.6,0,0,0,.88-1.33l1.53-.24v.14a1.57,1.57,0,0,0,1,.74l1.49.4a1.57,1.57,0,0,0,.4,0,1.63,1.63,0,0,0,1.1-.46l1.55,1a1.52,1.52,0,0,0-.07.72L32,9.63a1.6,1.6,0,0,0,1.25,1.31v2H31a1.33,1.33,0,0,0-1.33,1.33h0v3.29a9.13,9.13,0,0,0,3.45,17.26V33.05a7.35,7.35,0,1,1,1.26,0v1.81A9.17,9.17,0,0,0,43,25.74ZM18.52,11.1a.81.81,0,1,1-1.32-.92A.76.76,0,0,1,18,9.9l.74-1.07.57.4-.74,1.06A.75.75,0,0,1,18.52,11.1Zm5-4.78-1.38.62a.72.72,0,0,1-.71-.1l.31-.32a.47.47,0,1,0-.7-.58h0a.7.7,0,0,1,.37-.54l1.4-.65a.67.67,0,0,1,.28-.06.8.8,0,0,1,.57.29h-.2a.5.5,0,1,0,.08,1h.33a.67.67,0,0,1-.33.33Zm6.3-1.38a.49.49,0,0,0-.52.83l.2.12a.66.66,0,0,1-.46,0l-1.49-.4c-.1,0-.16-.12-.23-.19l.36-.06a.49.49,0,0,0,.41-.56h0a.47.47,0,0,0-.52-.42h0l-.4.06a.82.82,0,0,1,.71-.54l.2.1,1.49.4a.7.7,0,0,1,.44.37.94.94,0,0,1,0,.38ZM32.9,9.48l-.25-1.54V7.86l.12.07A.49.49,0,0,0,33,8a.5.5,0,0,0,.42-.23.49.49,0,0,0-.16-.67h.23a.79.79,0,0,1,.82.62l.24,1.52a.7.7,0,0,1-.15.55c-.06.07-.16.08-.23.13V9.59a.47.47,0,1,0-.93,0v.35a.68.68,0,0,1-.37-.45Zm1,7.22a.81.81,0,0,1-.86-.76h0a.76.76,0,0,1,.46-.67V13.94h.69v1.3a.76.76,0,0,1,.46.67.8.8,0,0,1-.8.8Z"/></svg>