<?xml version="1.0" encoding="utf-8"?>
<!-- Generator: Adobe Illustrator 20.1.0, SVG Export Plug-In . SVG Version: 6.00 Build 0)  -->
<svg version="1.1" id="Layer_1" xmlns="http://www.w3.org/2000/svg" xmlns:xlink="http://www.w3.org/1999/xlink" x="0px" y="0px"
	 viewBox="0 0 46.1 37.5" style="enable-background:new 0 0 46.1 37.5;" xml:space="preserve">
<style type="text/css">
	.st0{opacity:0.8;}
	.st1{fill:#FFAB24;}
	.st2{fill:#FFFFFF;}
</style>
<title>Asset 5</title>
<g class="st0">
	<path class="st1" d="M43,25.7c0-3.4-1.9-6.6-5-8.1v-3.3c0-0.7-0.6-1.3-1.3-1.4h-2.6v-2c0.4-0.1,0.7-0.3,0.9-0.6
		c0.3-0.3,0.4-0.8,0.3-1.2l-0.2-1.5c-0.1-0.9-1-1.5-1.8-1.3c0,0,0,0-0.1,0h-0.1c-0.3,0.1-0.6,0.2-0.8,0.4l-1.6-1l0,0
		c0.1-0.4,0.1-0.9-0.1-1.3c-0.2-0.4-0.6-0.7-1-0.8l-1.5-0.4c-0.9-0.2-1.8,0.4-2,1.3v0.3L24.6,5c-0.4-0.8-1.3-1.2-2.2-0.9L21,4.5
		c-0.8,0.4-1.1,1.3-0.8,2.1L19,7.9l-1.9-1.3c-0.6-0.4-1.4-0.2-1.8,0.3l-1.9,2.7c-5-0.7-9.6,2.7-10.3,7.7c-0.5,3.2,0.8,6.4,3.3,8.4
		l1-1.5C4.3,21.5,4,16.9,6.7,13.8s7.3-3.4,10.4-0.7l0,0c3.1,2.6,3.4,7.3,0.8,10.4c-2.4,2.8-6.4,3.4-9.5,1.4l-1,1.5
		c4.3,2.7,9.9,1.4,12.6-2.8c1.8-2.8,1.9-6.3,0.3-9.2l1.9-2.7c0.4-0.6,0.3-1.4-0.3-1.9l-2-1.4l0.9-1c0.3,0.2,0.6,0.4,1,0.4
		c0.2,0,0.4,0,0.6-0.1l1.4-0.6c0.5-0.3,0.8-0.8,0.9-1.3l1.5-0.2v0.1c0.2,0.4,0.6,0.6,1,0.7l1.5,0.4c0.1,0,0.3,0.1,0.4,0
		c0.4,0,0.8-0.2,1.1-0.5l1.5,1c-0.1,0.2-0.1,0.5-0.1,0.7l0.3,1.5c0.1,0.6,0.6,1.2,1.2,1.3v2H31c-0.7,0-1.3,0.6-1.3,1.3l0,0v3.3
		c-4.5,2.3-6.3,7.8-4,12.3c0,0,0,0,0,0c1.4,2.9,4.3,4.8,7.5,5v-1.8c-4.1-0.4-7.1-3.9-6.7-8s3.9-7.1,8-6.7s7.1,3.9,6.7,8c0,0,0,0,0,0
		c-0.3,3.6-3.1,6.4-6.7,6.7v1.8C39.3,34.4,43,30.5,43,25.7z M18.5,11.1c-0.2,0.4-0.7,0.6-1.1,0.4c-0.4-0.2-0.6-0.7-0.4-1.1
		c0,0,0-0.1,0.1-0.1c0-0.1,0.1-0.1,0.1-0.2c0.2-0.2,0.5-0.3,0.8-0.2l0.7-1.1l0.6,0.4l-0.7,1.1C18.6,10.6,18.6,10.8,18.5,11.1z
		 M23.5,6.3l-1.4,0.6C21.9,7,21.6,7,21.4,6.8l0.3-0.3c0.2-0.1,0.3-0.4,0.1-0.6c-0.1-0.2-0.3-0.3-0.5-0.2c-0.1,0-0.1,0.1-0.2,0.2l0,0
		c0-0.2,0.2-0.4,0.4-0.5l1.4-0.6c0.1,0,0.1-0.1,0.2-0.1c0.2,0,0.4,0.1,0.6,0.3h-0.2C23.2,5,23,5.2,23,5.5C23,5.8,23.2,6,23.5,6h0.3
		C23.8,6,23.5,6.3,23.5,6.3z M29.8,4.9c-0.2-0.1-0.6,0-0.7,0.2C29,5.3,29,5.6,29.2,5.8L29.4,6c-0.1,0.1-0.3,0.1-0.4,0l-1.5-0.4
		c-0.1,0-0.2-0.1-0.2-0.2l0.4-0.1c0.2-0.1,0.4-0.3,0.4-0.5c0-0.3-0.3-0.4-0.5-0.4H27c0.1-0.3,0.4-0.5,0.7-0.5h0.2l1.5,0.4
		c0.2,0.1,0.4,0.2,0.4,0.4C29.9,4.7,29.9,4.9,29.8,4.9z M32.8,9.4l-0.2-1.5V7.8l0.2,0.1C32.9,8,33,8,33.1,8c0.2,0,0.3-0.1,0.4-0.2
		c0.1-0.2,0-0.6-0.2-0.7h0.3c0.4,0,0.7,0.2,0.8,0.6l0.2,1.5c0,0.2,0,0.4-0.2,0.5s-0.1,0.1-0.2,0.1V9.4c0-0.3-0.1-0.5-0.4-0.5
		S33.3,9,33.3,9.3v0.6C33.1,9.8,32.9,9.6,32.8,9.4z M33.8,16.7c-0.4,0-0.8-0.3-0.8-0.8c0,0,0,0,0,0c0-0.3,0.2-0.6,0.5-0.7v-1.3h0.7
		v1.3c0.3,0.1,0.4,0.4,0.5,0.7C34.6,16.3,34.2,16.7,33.8,16.7z"/>
	<path class="st2" d="M27.8,3h0.4l1.5,0.4c0.4,0.1,0.8,0.4,1,0.8c0.2,0.4,0.3,0.9,0.1,1.3l0,0l1.6,1c0.2-0.2,0.5-0.3,0.8-0.4h0.3
		c0.8,0,1.5,0.6,1.7,1.4L35.4,9c0.1,0.4-0.1,0.9-0.3,1.2c-0.2,0.3-0.5,0.5-0.9,0.6v2.1h2.5c0.7,0,1.3,0.6,1.3,1.3v3.4
		c4.5,2.3,6.3,7.8,4,12.3c0,0,0,0,0,0c-1.5,2.9-4.4,4.8-7.7,5v-1.8c4.1-0.4,7.1-3.9,6.7-8s-3.9-7.1-8-6.7s-7.1,3.9-6.7,8
		c0,0,0,0,0,0c0.3,3.6,3.1,6.4,6.7,6.7v1.8c-5-0.4-8.8-4.7-8.4-9.7c0,0,0,0,0-0.1c0.2-3.2,2.1-6.1,5-7.5v-3.3c0-0.7,0.6-1.3,1.3-1.4
		h2.4v-2c-0.7-0.1-1.2-0.6-1.3-1.3l-0.2-1.5c0-0.2,0-0.5,0.1-0.7l-1.5-1c-0.3,0.3-0.7,0.5-1.1,0.5h-0.4l-1.5-0.4
		c-0.4-0.1-0.8-0.4-1-0.7V5.7l-1.5,0.2c0,0.6-0.4,1.1-0.9,1.3l-1.4,0.6c-0.2,0.1-0.4,0.1-0.6,0.1c-0.4,0-0.7-0.2-1-0.4l-0.9,1l2,1.4
		c0.6,0.4,0.7,1.3,0.3,1.9l-1.9,2.7c2.4,4.4,0.8,10-3.6,12.4c-2.9,1.6-6.5,1.5-9.3-0.3l1-1.5c3.5,2.1,8.1,1,10.2-2.5s1-8.1-2.5-10.2
		s-8.1-1-10.2,2.5C5.4,16,5,17.4,5,18.7c0,2.2,0.9,4.2,2.6,5.6l-1,1.5c-4-3-4.8-8.6-1.8-12.6C4.8,13.1,4.9,13,5,12.9
		c1.7-2.1,4.3-3.4,7.1-3.4c0.4,0,0.9,0,1.3,0.1l1.9-2.7c0.2-0.4,0.7-0.6,1.1-0.6c0.3,0,0.5,0.1,0.8,0.2L19,7.9l1.2-1.2
		c-0.3-0.8,0-1.7,0.8-2.1L22.4,4c0.2-0.1,0.4-0.1,0.6-0.1c0.7,0,1.3,0.4,1.6,1l1.5-0.2V4.4C26.2,3.6,27,3,27.8,3 M27,4.4l0.4-0.1
		h0.1c0.2,0,0.4,0.2,0.5,0.4c0,0.3-0.1,0.5-0.4,0.6l0,0l-0.4,0.1l0.2,0.2L29,5.9h0.4l-0.2-0.1C29,5.6,28.9,5.4,29,5.1
		c0.1-0.1,0.2-0.2,0.4-0.2c0.1,0,0.2,0,0.3,0.1l0.1,0.1V4.7c-0.1-0.2-0.2-0.3-0.4-0.4L28,3.9h-0.2C27.5,3.9,27.2,4.1,27,4.4 M21,5.9
		L21,5.9c0.1-0.1,0.2-0.1,0.3-0.1c0.3,0,0.5,0.2,0.5,0.4c0,0,0,0,0,0.1c0,0.1,0,0.2-0.1,0.3l-0.3,0.3C21.5,7,21.7,7,21.9,7
		c0.1,0,0.2-0.1,0.3-0.1l1.4-0.6c0.1-0.1,0.3-0.2,0.3-0.4h-0.3c-0.3,0-0.5-0.2-0.5-0.4c0,0,0,0,0-0.1c0-0.3,0.2-0.5,0.4-0.5
		c0,0,0,0,0.1,0h0.2c-0.2-0.2-0.4-0.3-0.6-0.3c-0.1,0-0.2,0-0.3,0.1l-1.4,0.7C21.1,5.5,21,5.7,21,5.9 M33,8c-0.1,0-0.2,0-0.2-0.1
		h-0.1V8l0.2,1.5c0,0.2,0.2,0.4,0.4,0.5V9.5c0-0.3,0.1-0.5,0.4-0.5s0.5,0.1,0.5,0.4v0.5c0.1,0,0.1,0,0.2-0.1
		c0.1-0.2,0.2-0.3,0.2-0.5l-0.2-1.5c-0.1-0.4-0.4-0.6-0.8-0.6h-0.3c0.2,0.2,0.3,0.4,0.2,0.7C33.3,7.9,33.2,8,33,8 M17.9,9.9h-0.1
		c-0.4,0-0.8,0.4-0.8,0.8c0,0.3,0.1,0.5,0.4,0.6c0.4,0.2,0.9,0.1,1.2-0.3c0.2-0.2,0.2-0.6,0-0.8l0.7-1.1l-0.6-0.4L17.9,9.9
		 M33.8,16.7c0.4,0,0.8-0.4,0.8-0.8c0-0.3-0.2-0.6-0.5-0.7v-1.3h-0.7v1.3c-0.2,0.1-0.4,0.4-0.4,0.7C33,16.3,33.4,16.7,33.8,16.7
		 M27.8,0L27.8,0c-1.1,0-2.2,0.4-3,1.1c-0.6-0.2-1.2-0.4-1.8-0.4c-0.7,0-1.3,0.1-1.9,0.4l-1.4,0.6c-0.8,0.4-1.5,1-2,1.7
		c-1.8-0.6-3.8,0-4.9,1.6l-0.9,1.3C5.2,6.4-0.1,11.9,0,18.6c0.1,3.6,1.7,7,4.5,9.2c0.2,0.2,0.4,0.3,0.7,0.4c0.2,0.2,0.4,0.4,0.7,0.5
		c5.2,3.2,12,2.1,15.8-2.7c0.4,6.1,5.1,11,11.2,11.5h0.2c0.2,0,0.4,0,0.6-0.1c0.2,0.1,0.5,0.1,0.7,0.1h0.2
		c6.7-0.4,11.8-6.1,11.5-12.8c-0.2-3.7-2-7.1-5-9.2v-1.6c0-1.7-1-3.3-2.6-4c0.1-0.6,0.2-1.1,0.1-1.7l-0.2-1.5
		c-0.4-2.3-2.3-3.9-4.6-3.9h-0.1l-0.1-0.3c-0.6-1.2-1.6-2-2.9-2.3L29,0.1C28.6,0,28.2,0,27.8,0z M25.2,9.8l0.9-0.6l0.4,0.1L28,9.7
		c0.3,0.1,0.7,0.1,1,0.1V10c0,0.1,0,0.2,0.1,0.3c-1.5,0.7-2.5,2.2-2.5,3.9v1.7c-0.9,0.6-1.6,1.4-2.3,2.2c-0.1-1.1-0.3-2.3-0.6-3.4
		l0.9-1.3C25.3,12.4,25.6,11,25.2,9.8z M9.6,22.2l-0.3-0.3c-1.9-1.5-2.2-4.2-0.7-6.1s4.2-2.2,6.1-0.7c0.1,0.1,0.1,0.1,0.2,0.2
		c1.8,1.6,2,4.3,0.5,6.1c-0.8,1-2,1.5-3.3,1.5c-0.8,0-1.5-0.2-2.2-0.6C9.9,22.3,9.6,22.2,9.6,22.2z M33.8,30.1L33.4,30
		c-2.4-0.2-4.2-2.3-4-4.7c0.2-2.4,2.3-4.2,4.7-4c2.4,0.2,4.2,2.3,4,4.7c-0.2,2.1-1.9,3.8-4,4L33.8,30.1z"/>
</g>
<path class="st1" d="M43,25.7c0-3.4-1.9-6.6-5-8.1v-3.3c0-0.7-0.6-1.3-1.3-1.4h-2.6v-2c0.4-0.1,0.7-0.3,0.9-0.6
	c0.3-0.3,0.4-0.8,0.3-1.2l-0.2-1.5c-0.1-0.9-1-1.5-1.8-1.3c0,0,0,0-0.1,0h-0.1c-0.3,0.1-0.6,0.2-0.8,0.4l-1.6-1l0,0
	c0.1-0.4,0.1-0.9-0.1-1.3c-0.2-0.4-0.6-0.7-1-0.8l-1.5-0.4c-0.9-0.2-1.8,0.4-2,1.3v0.3L24.6,5c-0.4-0.9-1.3-1.3-2.2-0.9L21,4.5
	c-0.8,0.4-1.1,1.3-0.8,2.1l-1.1,1.3l-1.9-1.3c-0.6-0.4-1.4-0.3-1.9,0.3l-1.9,2.7c-5-0.7-9.6,2.7-10.3,7.7c-0.5,3.2,0.8,6.4,3.3,8.4
	l1-1.5C4.3,21.5,4,16.9,6.7,13.8s7.3-3.4,10.4-0.7l0,0c3.1,2.6,3.4,7.3,0.8,10.4c-2.4,2.8-6.4,3.4-9.5,1.4l-1,1.5
	c4.3,2.7,9.9,1.4,12.6-2.8c1.8-2.8,1.9-6.3,0.3-9.2l1.9-2.7c0.4-0.6,0.3-1.4-0.3-1.9l-2-1.4l0.9-1c0.3,0.2,0.6,0.4,1,0.4
	c0.2,0,0.4,0,0.6-0.1l1.4-0.6c0.5-0.3,0.8-0.8,0.9-1.3l1.5-0.2v0.1c0.2,0.4,0.6,0.6,1,0.7l1.5,0.4c0.1,0,0.3,0.1,0.4,0
	c0.4,0,0.8-0.2,1.1-0.5l1.5,1c-0.1,0.2-0.1,0.5-0.1,0.7l0.3,1.5c0.1,0.6,0.6,1.2,1.2,1.3v2H31c-0.7,0-1.3,0.6-1.3,1.3l0,0v3.3
	c-4.5,2.3-6.3,7.8-4,12.3c0,0,0,0,0,0c1.4,2.9,4.3,4.8,7.5,5v-1.8c-4.1-0.4-7.1-3.9-6.7-8s3.9-7.1,8-6.7s7.1,3.9,6.7,8c0,0,0,0,0,0
	c-0.3,3.6-3.1,6.4-6.7,6.7v1.8C39.3,34.4,43,30.5,43,25.7z M18.5,11.1c-0.2,0.4-0.7,0.6-1.1,0.4c-0.4-0.2-0.6-0.7-0.4-1.1
	c0,0,0-0.1,0.1-0.1c0-0.1,0.1-0.1,0.1-0.2c0.2-0.2,0.5-0.3,0.8-0.2l0.7-1.1l0.6,0.4l-0.7,1.1C18.6,10.6,18.6,10.8,18.5,11.1z
	 M23.5,6.3l-1.4,0.6C21.9,7,21.6,7,21.4,6.8l0.3-0.3C21.9,6.3,22,6,21.8,5.8s-0.5-0.3-0.7-0.1l0,0c-0.1,0-0.1,0.1-0.2,0.2l0,0
	c0-0.2,0.2-0.4,0.4-0.5l1.4-0.6c0.1,0,0.1-0.1,0.2-0.1c0.2,0,0.4,0.1,0.6,0.3h-0.2c-0.3,0-0.5,0.2-0.5,0.5C22.8,5.8,23,6,23.3,6h0.3
	C23.7,6.1,23.6,6.2,23.5,6.3z M29.8,4.9c-0.2-0.1-0.6,0-0.7,0.2C29,5.3,29,5.6,29.2,5.8L29.4,6c-0.2,0.1-0.3,0.1-0.5,0l-1.5-0.4
	c-0.1,0-0.2-0.1-0.2-0.2l0.4-0.1C27.8,5.2,28,5,28,4.8c0-0.3-0.3-0.4-0.5-0.4H27c0.1-0.3,0.4-0.5,0.7-0.5H28l1.5,0.4
	c0.2,0.1,0.4,0.2,0.4,0.4v0.4L29.8,4.9z M32.9,9.4l-0.3-1.5V7.8l0.1,0.1C32.8,8,32.9,8,33,8c0.2,0,0.3-0.1,0.4-0.2
	c0.1-0.2,0-0.6-0.2-0.7h0.3c0.4,0,0.7,0.2,0.8,0.6l0.2,1.5c0,0.2,0,0.4-0.2,0.5s-0.1,0.1-0.2,0.1V9.4c0-0.3-0.1-0.5-0.4-0.5
	S33.2,9,33.2,9.3v0.6C33,9.8,32.9,9.6,32.9,9.4z M33.9,16.7c-0.4,0-0.8-0.4-0.9-0.8l0,0c0-0.3,0.2-0.6,0.5-0.7v-1.3h0.7v1.3
	c0.3,0.1,0.4,0.4,0.5,0.7C34.6,16.3,34.3,16.7,33.9,16.7z"/>
</svg>
