<svg xmlns="http://www.w3.org/2000/svg" viewBox="0 0 34.53 34.47"><defs><style>.a{opacity:0.8;}.b{fill:#fff;}.c{fill:#4a4a4a;}</style></defs><title>Asset 164</title><g class="a"><path class="b" d="M28.3,33a2.39,2.39,0,0,1-2.19-1.45L25,29c-.23.37-.46.74-.7,1.11s-.65,1-.93,1.52a2.41,2.41,0,0,1-2.1,1.28,2.5,2.5,0,0,1-2.14-1.24,2.45,2.45,0,0,1-.3-1.63l-.42.81A2,2,0,0,1,16.49,32,6.07,6.07,0,0,1,13.8,31L13.68,31a1.82,1.82,0,0,1-.75-2.58,3.2,3.2,0,0,1,.3-1l1.32-2.88a2.78,2.78,0,0,1,2.54-1.57,3.19,3.19,0,0,1,1.16.22l.24-.45a2.45,2.45,0,0,1,.44-1.59q1.91-2.81,3.8-5.62c.06-.08.12-.18.2-.29a3.41,3.41,0,1,1,5.2.66l.09.22L29.54,19l2.33,1.2A2.26,2.26,0,0,1,33,22.82a2.29,2.29,0,0,1-2.78,1.7,4,4,0,0,1-1.08-.47l-.2-.11-1-.5,2.62,6a2.47,2.47,0,0,1-.15,2.4A2.51,2.51,0,0,1,28.3,33ZM13.67,17.68A8.1,8.1,0,0,1,5.73,8.05a1.5,1.5,0,0,1-1-.14L4.5,7.79l-.23.12A1.5,1.5,0,0,1,2.09,6.33l0-.25L2,5.9a1.5,1.5,0,0,1,.83-2.56L3,3.3l.11-.23a1.5,1.5,0,0,1,2.69,0L6,3.3l.26,0a1.5,1.5,0,0,1,1.21,1l0,.07A8.11,8.11,0,0,1,13.68,1.5c.26,0,.52,0,.78,0a1.5,1.5,0,0,1,.48,2.86,5.09,5.09,0,0,0-2.1,7.45l.11-.63-.44-.42a1.5,1.5,0,0,1,.83-2.56l.6-.09.27-.55a1.5,1.5,0,0,1,1.34-.84h0a1.5,1.5,0,0,1,1.35.84l.27.55.6.09a1.51,1.51,0,0,1,1,.61,1.49,1.49,0,0,1-.06-.75L18.91,7l-.81-.79a1.5,1.5,0,0,1,.83-2.56l1.12-.16.5-1a1.5,1.5,0,0,1,1.34-.83h0a1.5,1.5,0,0,1,1.34.84l.5,1,1.12.16a1.5,1.5,0,0,1,.83,2.56L24.88,7l.19,1.11A1.5,1.5,0,0,1,22.9,9.67l-1-.53-1,.53a1.5,1.5,0,0,1-1.58-.11A1.51,1.51,0,0,1,19,9.22v0a1.5,1.5,0,0,1-.38,1.54l-.44.42.1.6a1.5,1.5,0,0,1-2.18,1.58l-.54-.28-.54.28a1.54,1.54,0,0,1-.33.13,5.1,5.1,0,0,0,1.88.56,1.5,1.5,0,0,1,.48,2.86A8.19,8.19,0,0,1,13.67,17.68Z"/><path class="b" d="M13.68,3q.32,0,.64,0a6.59,6.59,0,0,0,2.11,12.54,6.63,6.63,0,0,1-2.77.61A6.59,6.59,0,0,1,13.68,3m8.22.11.85,1.72,1.9.28L23.27,6.45l.32,1.89-1.7-.89-1.7.89.32-1.89L19.15,5.11,21,4.83l.85-1.72M4.5,3.73,5,4.67l1,.15-.75.73.18,1L4.5,6.1l-.93.49.18-1L3,4.82l1-.15.46-.94M15.57,8.26l.62,1.25,1.38.2-1,1,.24,1.38-1.24-.65-1.23.65.24-1.38-1-1,1.38-.2.62-1.25m10.24,3.21a1.91,1.91,0,1,1-1.91,1.91,1.91,1.91,0,0,1,1.91-1.91m-.48,4.07a1.6,1.6,0,0,1,1.5,1.1l1.55,3.49,2.7,1.39h0a.83.83,0,0,1-.38,1.56l-.2,0a4.62,4.62,0,0,1-.95-.46L28,21.79c-.34-.18-.81-.32-1-.69L26.51,20a18.44,18.44,0,0,1-.45,2.94L29.17,30a1,1,0,0,1-.87,1.45.9.9,0,0,1-.83-.58l-2.86-6.17a8.15,8.15,0,0,1-.64,3c-.59,1.06-1.36,2.12-2,3.18a.9.9,0,0,1-.8.51,1,1,0,0,1-.83-1.52l1.91-3.42.75-5.83L21.54,22.9a.83.83,0,0,1-.69.36.81.81,0,0,1-.23,0l-3.6,7a.55.55,0,0,1-.53.26,5.9,5.9,0,0,1-2.12-.81.35.35,0,0,1,.12-.67c-.15-.2,0-.62.1-.92l1.33-2.9a1.25,1.25,0,0,1,1.18-.7,1.56,1.56,0,0,1,1.56,1.19l1.44-2.72a.87.87,0,0,1,.09-.94q1.91-2.81,3.81-5.63a1.57,1.57,0,0,1,.38-.44,1.54,1.54,0,0,1,1-.35m5.76,6h0m0,0h0M13.68,0h0A9.62,9.62,0,0,0,7.52,2.23,3,3,0,0,0,6.93,2,3,3,0,0,0,2.07,2,3,3,0,0,0,.57,6.58a3,3,0,0,0,3.51,3,9.73,9.73,0,0,0,.14,1.64,9.59,9.59,0,0,0,9.45,8,9.69,9.69,0,0,0,4-.88A3,3,0,0,0,19,14.07a3,3,0,0,0,.75-2.34,3,3,0,0,0,.3-.39h.11a3,3,0,0,0,1.29-.29,4.91,4.91,0,0,0-.28,4c-1.17,1.75-2.34,3.47-3.51,5.19a4.13,4.13,0,0,0-.55,1.16h-.05a4.25,4.25,0,0,0-3.88,2.4l0,.05-1.32,2.89a4.77,4.77,0,0,0-.37,1.12A3.32,3.32,0,0,0,13,32.31l.1.05a7.34,7.34,0,0,0,3.41,1.1,3.72,3.72,0,0,0,1.71-.4,4,4,0,0,0,3,1.39,3.89,3.89,0,0,0,3.41-2l.13-.22a3.9,3.9,0,0,0,3.54,2.3,4,4,0,0,0,3.61-5.67l-1.19-2.71h0A3.83,3.83,0,0,0,32.67,19l-.15-.08h0l0,0h0L30.7,18l-.82-1.83a4.91,4.91,0,0,0-3.29-7.59,3,3,0,0,0,0-.7L26.5,7.5l.24-.24a3,3,0,0,0-1.66-5.12l-.34,0-.15-.31A3,3,0,0,0,21.9.11h0a3,3,0,0,0-2.69,1.67l-.15.31-.34,0a3,3,0,0,0-1.41.6q0-.11,0-.21A3,3,0,0,0,14.61,0c-.31,0-.62,0-.93,0Z"/></g><path class="c" d="M25.81,11.47a1.91,1.91,0,1,1-1.91,1.91A1.91,1.91,0,0,1,25.81,11.47Zm5.31,10.07h0Zm0,0-2.7-1.39-1.55-3.49A1.56,1.56,0,0,0,24,16.34Q22.09,19.17,20.17,22a.87.87,0,0,0-.09.94l-1.44,2.72a1.51,1.51,0,0,0-2.73-.49l-1.33,2.9c-.14.3-.25.72-.1.92a.35.35,0,0,0-.12.67c.42.22,2.24,1.3,2.65.55l3.6-7a.83.83,0,0,0,.92-.33l1.52-2.23-.75,5.83-1.91,3.42a1,1,0,1,0,1.63,1c.59-1.06,1.36-2.12,2-3.18a8.15,8.15,0,0,0,.64-3l2.86,6.17a1,1,0,1,0,1.7-.87l-3.11-7.09A18.41,18.41,0,0,0,26.51,20l.5,1.12c.16.37.64.51,1,.69l1.59.82a4.62,4.62,0,0,0,.95.46A.83.83,0,0,0,31.09,21.53ZM8.3,5.77a6.59,6.59,0,0,1,6-2.74,6.59,6.59,0,0,0,2.12,12.54A6.59,6.59,0,0,1,8.3,5.77ZM21,4.83l-1.9.28,1.37,1.34L20.2,8.34l1.7-.89,1.7.89-.32-1.89,1.37-1.34-1.9-.28L21.9,3.11ZM4,4.67,3,4.82l.75.73-.18,1L4.5,6.1l.93.49-.18-1L6,4.82,5,4.67,4.5,3.73ZM14.95,9.51l-1.38.2,1,1-.24,1.38,1.23-.65,1.24.65-.24-1.38,1-1-1.38-.2-.62-1.25Z"/></svg>