<svg xmlns="http://www.w3.org/2000/svg" viewBox="0 0 41.99 24.3"><defs><style>.a{opacity:0.8;}.b{fill:#fff;}.c{fill:#ffab24;}</style></defs><title>Asset 51</title><g class="a"><path class="b" d="M9.31,22.8a3.73,3.73,0,0,1-1.1-.18H7.85a1.82,1.82,0,0,1-1.1-.34H6.64l-.23,0H6.16a4.91,4.91,0,0,1-.71-.07H5.34a2.43,2.43,0,0,1-.55.06A3.29,3.29,0,0,1,4,22.15a1.91,1.91,0,0,1-1.72-1A2.34,2.34,0,0,1,2.35,19l.1-.23c0-.08-.14-.22-.23-.35L2,18.18a2,2,0,0,1,0-2.06l.18-.38c.11-.23.27-.54.4-.87a1.51,1.51,0,0,1-.25-.38l-.08-.1a2,2,0,0,1-.41-.76,1.91,1.91,0,0,1-.28-1.75,3.75,3.75,0,0,1,.23-.6,1.47,1.47,0,0,0,.1-.24A2.85,2.85,0,0,0,2,10.59s0-.26,0-.4a8.75,8.75,0,0,1,1-3.4,8.36,8.36,0,0,1,3.3-3.23,5.88,5.88,0,0,1,2-.85l.53,0a14.15,14.15,0,0,0,1.53-.14,12.25,12.25,0,0,0,2.05-.66l.27-.1a4.77,4.77,0,0,1,1.57-.27,3.48,3.48,0,0,1,1,.13,26,26,0,0,0,3.14.77,9.66,9.66,0,0,0,2.27.31c.29,0,.51,0,.66,0a.7.7,0,0,0,.31-.09l.4-.17A6.07,6.07,0,0,1,24.24,2a8.09,8.09,0,0,1,1,.06l1.12.11.61.06h.62a5.9,5.9,0,0,1,.9.07,5.62,5.62,0,0,1,2.61,1.28,3.51,3.51,0,0,1,.8,1.14h.19a1.68,1.68,0,0,1,.53.09,2,2,0,0,1,.68.16h0l.08,0,.19-.14a2.19,2.19,0,0,1,.83-.42,2,2,0,0,1,.38,0,1.81,1.81,0,0,1,.8.19,1.5,1.5,0,0,1,.75,1.81,2.48,2.48,0,0,1-.39.75l-.08.17a5.66,5.66,0,0,1-.29.58A3,3,0,0,1,34.67,9v.17a1.58,1.58,0,0,0,.16.78,1.56,1.56,0,0,0,.34.45l.32.34c.13.13.25.27.37.41l.71,0a2,2,0,0,1,.62.17l.17-.12a1.8,1.8,0,0,1,1.39-.69,1.73,1.73,0,0,1,1.66,1.36,3.58,3.58,0,0,1,0,1.33l0,.19A4.87,4.87,0,0,1,39,15.92a8.2,8.2,0,0,1-1.52,1.33l-.07.16a2.51,2.51,0,0,1-.27.83,3.43,3.43,0,0,1-.19.31,2.12,2.12,0,0,1-2.12,1.37l-.53.06a2.31,2.31,0,0,1-.85.17,2,2,0,0,1-1.32-.5,2.44,2.44,0,0,1-1.09-.81c-.17-.19-.71-.7-1.17-1.16L29.21,17a2.6,2.6,0,0,1-.34-.26l-.06,0a2.19,2.19,0,0,1-.54.08,1.82,1.82,0,0,1-.51-.07l-.29.09-.4.5a7.33,7.33,0,0,0-.41,1.22v.05h0a2,2,0,0,1,1,1,2,2,0,0,1,.23.39,1.68,1.68,0,0,1,0,1.34,1.6,1.6,0,0,1-.89.8,2.52,2.52,0,0,1-1.41.36h0a5.08,5.08,0,0,1-1.11-.13h-.43l-.53,0A2.36,2.36,0,0,1,22.27,22a2,2,0,0,1-.59.16h-.2a2.42,2.42,0,0,1-2.1-1.64,1.49,1.49,0,0,1-.15-.26,4.08,4.08,0,0,1-.34-1.08,2.41,2.41,0,0,1,.25-1.38l-.5.06a13.26,13.26,0,0,1-1.73.11,12.47,12.47,0,0,1-4.17-.73A5.43,5.43,0,0,1,10.8,16s0,.13,0,.21,0,.34,0,.5l-.05.38c0,.28-.08.58-.1.69s0,.24,0,.37v0c.08.17.17.38.25.6a1.82,1.82,0,0,1,1,.76,4.58,4.58,0,0,1,.43,1,1.63,1.63,0,0,1-.66,1.83,1.87,1.87,0,0,1-1.16.35,3.82,3.82,0,0,1-.5,0A2.57,2.57,0,0,1,9.31,22.8Z"/><path class="b" d="M14.32,3a2,2,0,0,1,.54.07,25.4,25.4,0,0,0,3.26.8,10.74,10.74,0,0,0,2.56.33c.4,0,.69,0,.86,0a3.4,3.4,0,0,0,1-.35,4.65,4.65,0,0,1,1.65-.28,6.4,6.4,0,0,1,.78,0c.44.05,1.34.13,1.75.17h.78a4.48,4.48,0,0,1,.68,0,4.17,4.17,0,0,1,1.84.92,3.44,3.44,0,0,1,.69,1.36.33.33,0,0,0,.14.2c.06,0,.33.05.44.12s.17.32.25.38a.44.44,0,0,0,.21.05.39.39,0,0,1,.12-.21A.38.38,0,0,0,32,6.29s0-.05,0-.05.13,0,.23.06a1.51,1.51,0,0,1,.39.06c.15.06.16.32.18.41.07-.08.89-.35,1.12-.45s.62-.43.72-.45h.06a.31.31,0,0,1,.13,0,1,1,0,0,1-.18.32c-.11.1-.33.74-.47.93-.35.8-.76.81-1,.82A.68.68,0,0,0,33,8a4,4,0,0,1,.15,1.2,3,3,0,0,0,.34,1.45,4.48,4.48,0,0,0,.87,1.08,5.85,5.85,0,0,1,.73.89s1,0,1.3,0,.11.4-.32.51a2.15,2.15,0,0,0-.61.23h0s.06.15.06.16h.07a2.2,2.2,0,0,0,.53-.08,8.17,8.17,0,0,0,2.34-1.27c.11-.14.2-.19.28-.19s.2.18.22.26a5.51,5.51,0,0,1-.06,1,4.18,4.18,0,0,1-1,1.66,6.21,6.21,0,0,1-1.58,1.28c0,.09-.37.83-.38.89s0,.24-.1.44a2.85,2.85,0,0,0-.28.52c-.1.34-.66.35-.7.35h0a5.11,5.11,0,0,0-1.05.16.82.82,0,0,1-.32.07.72.72,0,0,1-.54-.33,1,1,0,0,1-.71-.41c-.11-.15-2-1.95-2.11-2.1a1,1,0,0,1-.58-.84c0-.1-.25-.41-.25-.41l-.17.11A2.63,2.63,0,0,1,29,15c-.05.12-.43.27-.67.35h-.1a.46.46,0,0,1-.39-.27c0,.06-.19.06-.31.06h-.14c-.11.22-.23.27-.35.27a1,1,0,0,1-.25-.06,9,9,0,0,0-1,1.1,7,7,0,0,0-.68,1.85,4.68,4.68,0,0,0-.09.52,1.65,1.65,0,0,0,.42.9,3.2,3.2,0,0,0,.56.29.48.48,0,0,1,.29.3,2.84,2.84,0,0,0,.21.35c0,.1-.05.13-.14.15h-.05a1.06,1.06,0,0,1-.23,0s.09.13,0,.17a1.63,1.63,0,0,1-.62.1h0a2.92,2.92,0,0,1-.9-.16,2.89,2.89,0,0,1-.56,0l-.42,0c-.59,0-.56-.15-.62-.3a1.27,1.27,0,0,1,.19-.77,1.71,1.71,0,0,1,.28-.33.38.38,0,0,0,.05-.13,1.74,1.74,0,0,1-.35,0,4.49,4.49,0,0,1-.44.3,9,9,0,0,0-.77.7,1,1,0,0,1-.48.27h0a.86.86,0,0,1-.6-.46.58.58,0,0,1,0-.62h0a1.43,1.43,0,0,0-.24,0,2.86,2.86,0,0,1-.21-.64.91.91,0,0,1,.21-.67,6.66,6.66,0,0,1,1-1h0a1,1,0,0,1,.47.23.18.18,0,0,1,.12,0,.63.63,0,0,1,.25.07.23.23,0,0,1,.15-.15.42.42,0,0,0,0-.21,16.84,16.84,0,0,1-1.07-1.52,13.37,13.37,0,0,1-3,.62,12,12,0,0,1-1.58.11,11,11,0,0,1-3.7-.65,6.19,6.19,0,0,1-2.4-2.12,1.42,1.42,0,0,1-.6.73,2.14,2.14,0,0,0-.8.92,5.09,5.09,0,0,0-.16,1.13c-.05.38-.15,1-.16,1.17a4.6,4.6,0,0,0,.1.94c.05.14.21.45.31.76a1.87,1.87,0,0,0,.33.6,1.23,1.23,0,0,0,.5.23c.25.06.26.11.32.21a3.54,3.54,0,0,1,.22.53c0,.08.05.11-.11.23a.47.47,0,0,1-.26.05,4.26,4.26,0,0,1-.68-.08.9.9,0,0,1-.53.15,3,3,0,0,1-.87-.19H7.85c-.31,0-.3-.19-.3-.3a4.67,4.67,0,0,1,.18-.64,1,1,0,0,0-.09-.67,5.94,5.94,0,0,0-.87-.81c-.21-.16-.36-.28-.42-.48a3.21,3.21,0,0,1,.1-1A4.56,4.56,0,0,0,6.53,16s-.18.4-.29.66-.24.68-.34,1a3.08,3.08,0,0,0-.22.89,5.21,5.21,0,0,0,.1.76,1.47,1.47,0,0,0,.41.47,2.24,2.24,0,0,1,.48.73c.12.26.05.32,0,.32h0a2.39,2.39,0,0,1-.27-.08s0,0-.14.06H6.16a5.49,5.49,0,0,1-.62-.08H5.35l-.2,0a.77.77,0,0,1-.36.08,2,2,0,0,1-.63-.12H4a.41.41,0,0,1-.4-.23c-.15-.29.14-.7.33-1.26a1.09,1.09,0,0,0-.1-1c-.09-.18-.36-.57-.5-.79s0-.44.12-.7.42-.81.63-1.4a2.71,2.71,0,0,0,.24-.87A2.94,2.94,0,0,0,4,13.64c-.1-.15-.1-.14-.11-.27s0-.24,0-.39a5.48,5.48,0,0,0-.17-.61c0-.1-.09-.61-.09-.61a2.75,2.75,0,0,1-.11.34c-.1.22-.21.36-.24.42s0,.1.09.14c.24.12.35.19.47.62s-.1.59-.14.59h0a1.51,1.51,0,0,0-.3-.44c-.2-.24-.05-.29,0-.35s0-.13-.25-.28S3,12.44,3,12.24s.24-.49.32-.8a4.38,4.38,0,0,0,.14-.73s0-.29,0-.44a7.31,7.31,0,0,1,.82-2.74A6.82,6.82,0,0,1,7.07,4.87,4.59,4.59,0,0,1,8.6,4.19c.21,0,1.13,0,2.07-.18a15.26,15.26,0,0,0,2.6-.83,3.3,3.3,0,0,1,1-.18m0-3h0a6.28,6.28,0,0,0-2.08.36l-.3.12A11.7,11.7,0,0,1,10.2,1a13,13,0,0,1-1.36.12,6.71,6.71,0,0,0-.69.06,7.36,7.36,0,0,0-2.56,1A9.81,9.81,0,0,0,1.76,6l0,.07A10.28,10.28,0,0,0,.52,10.12c0,.1,0,.25,0,.37l0,.09,0,.07a4.75,4.75,0,0,0-.31.83,3.44,3.44,0,0,0,.36,2.8A3.43,3.43,0,0,0,.88,15l0,0-.17.35,0,.06A3.46,3.46,0,0,0,.77,19a3.53,3.53,0,0,0,.14,2.83,3.37,3.37,0,0,0,2.84,1.85,4.7,4.7,0,0,0,1,.12,4,4,0,0,0,.63,0,5,5,0,0,0,.74.06h.17a3.4,3.4,0,0,0,1.53.35H8a5.06,5.06,0,0,0,1.32.19,4.14,4.14,0,0,0,.81-.08l.4,0a3.35,3.35,0,0,0,2-.64,3.12,3.12,0,0,0,1.19-3.52h0a6.51,6.51,0,0,0-.43-1,13.6,13.6,0,0,0,3.58.48h.51A5.49,5.49,0,0,0,17.87,21a3,3,0,0,0,.17.31,3.93,3.93,0,0,0,3.44,2.45l.36,0,.29,0a4.29,4.29,0,0,0,1.3.26l.64,0h.3a6.19,6.19,0,0,0,1.16.13h.14a4.14,4.14,0,0,0,2.06-.52,3.08,3.08,0,0,0,1.6-4.07,3.47,3.47,0,0,0-.29-.53l.91.9A4,4,0,0,0,31.39,21a3.46,3.46,0,0,0,2.1.7,3.74,3.74,0,0,0,1.21-.21l.36,0h0a3.65,3.65,0,0,0,3.27-2.17c.06-.09.11-.19.18-.31a4.33,4.33,0,0,0,.31-.77,9.3,9.3,0,0,0,1.37-1.27,6.09,6.09,0,0,0,1.72-3.3l0-.19a4.82,4.82,0,0,0,0-1.87,3.2,3.2,0,0,0-5.05-1.83h-.07l-.19,0-.23-.25a5,5,0,0,0,.53-.87,7.34,7.34,0,0,0,.33-.68v0a4,4,0,0,0,.51-1,3,3,0,0,0-1.5-3.62,3.3,3.3,0,0,0-1.47-.35,3.26,3.26,0,0,0-.71.08,3.22,3.22,0,0,0-1,.43l-.15,0-.08,0a4.35,4.35,0,0,0-.73-.85A7.07,7.07,0,0,0,28.68.85,7.42,7.42,0,0,0,27.56.77h-.49L26.46.72,25.39.61A9.43,9.43,0,0,0,24.24.54,7.58,7.58,0,0,0,21.53,1l-.42.18-.41,0A7.88,7.88,0,0,1,18.84,1l-.13,0A26.74,26.74,0,0,1,15.89.25L15.7.19A5,5,0,0,0,14.32,0Z"/></g><path class="c" d="M3.74,12.37a5.51,5.51,0,0,1,.17.61c0,.15,0,.26,0,.39s0,.12.11.27a2.93,2.93,0,0,1,.28.77,2.71,2.71,0,0,1-.24.87c-.21.58-.51,1.14-.63,1.4s-.26.49-.12.7.42.61.5.79a1.09,1.09,0,0,1,.1,1c-.19.55-.48,1-.33,1.26s.46.22.58.22a1.43,1.43,0,0,0,1,0,1.6,1.6,0,0,0,.38,0,4.18,4.18,0,0,0,.67.08c.13,0,.14-.06.14-.06a2.39,2.39,0,0,0,.27.08c.08,0,.18,0,0-.31a2.24,2.24,0,0,0-.48-.73,1.47,1.47,0,0,1-.41-.47,5.24,5.24,0,0,1-.1-.76,3.08,3.08,0,0,1,.22-.89c.11-.27.24-.69.34-1s.29-.66.29-.66a4.56,4.56,0,0,1-.06,1.17,3.21,3.21,0,0,0-.1,1c.05.19.2.31.42.48a5.94,5.94,0,0,1,.87.81,1,1,0,0,1,.09.67,4.66,4.66,0,0,0-.18.64c0,.12,0,.34.4.29.16,0,.48,0,.48,0s.91.39,1.4,0c.18,0,.78.15.94,0s.13-.15.11-.23a3.56,3.56,0,0,0-.22-.53c-.06-.1-.08-.14-.32-.21a1.22,1.22,0,0,1-.5-.23,1.87,1.87,0,0,1-.33-.6c-.1-.3-.26-.62-.31-.76a4.58,4.58,0,0,1-.1-.94c0-.15.11-.79.16-1.17a5.09,5.09,0,0,1,.16-1.13,2.14,2.14,0,0,1,.8-.92,1.41,1.41,0,0,0,.6-.73,6.19,6.19,0,0,0,2.4,2.12,11,11,0,0,0,5.27.54,13.37,13.37,0,0,0,3-.62,16.79,16.79,0,0,0,1.07,1.52.42.42,0,0,1,0,.21.23.23,0,0,0-.15.15c-.16-.08-.3-.1-.37,0a1,1,0,0,0-.47-.23c-.12,0-.9.82-1,1a.91.91,0,0,0-.21.67,2.87,2.87,0,0,0,.21.64,1.13,1.13,0,0,1,.26,0,.58.58,0,0,0,0,.62c.17.28.44.48.63.46a1,1,0,0,0,.48-.27,9,9,0,0,1,.77-.7,4.48,4.48,0,0,0,.44-.3,1.74,1.74,0,0,0,.35,0,.38.38,0,0,1-.05.13,1.72,1.72,0,0,0-.28.33,1.27,1.27,0,0,0-.19.77c.06.15,0,.28.62.3a4,4,0,0,0,1,0,2.9,2.9,0,0,0,.94.16,1.63,1.63,0,0,0,.62-.1c.05,0,0-.17,0-.17a.8.8,0,0,0,.28,0c.09,0,.18-.05.14-.15a2.84,2.84,0,0,1-.21-.35.48.48,0,0,0-.29-.3,3.2,3.2,0,0,1-.56-.29,1.65,1.65,0,0,1-.42-.9,4.65,4.65,0,0,1,.09-.52,7,7,0,0,1,.68-1.85,9,9,0,0,1,1-1.1c.14,0,.4.18.6-.22.07,0,.38,0,.45-.06a.43.43,0,0,0,.48.26c.25-.08.62-.23.67-.35a2.64,2.64,0,0,0,.11-.32l.17-.11s.2.31.25.41a1,1,0,0,0,.58.84c.13.15,2,1.95,2.11,2.1a1,1,0,0,0,.71.41.64.64,0,0,0,.86.26,5.11,5.11,0,0,1,1.05-.16s.59,0,.7-.35a2.84,2.84,0,0,1,.28-.52c.11-.21.15-.36.1-.44s.38-.8.38-.89a6.21,6.21,0,0,0,1.58-1.28,4.18,4.18,0,0,0,1-1.66,5.51,5.51,0,0,0,.06-1c0-.12-.16-.48-.49-.06a8.17,8.17,0,0,1-2.34,1.27,1.55,1.55,0,0,1-.6.08s-.06-.16-.06-.16h0a2.15,2.15,0,0,1,.61-.23c.43-.11.79-.45.32-.51s-1.3,0-1.3,0a5.84,5.84,0,0,0-.73-.89,4.48,4.48,0,0,1-.87-1.08,3.05,3.05,0,0,1-.34-1.45A4,4,0,0,0,33,8a.68.68,0,0,1,.25,0c.19,0,.6,0,1-.82.14-.2.36-.83.47-.93a1,1,0,0,0,.18-.32.3.3,0,0,0-.18,0c-.1,0-.48.35-.72.45s-1,.38-1.12.45c0-.09,0-.35-.18-.41a1.51,1.51,0,0,0-.38-.06c-.16,0-.28-.12-.26,0a.38.38,0,0,1-.11.35.39.39,0,0,0-.12.21.44.44,0,0,1-.21-.05c-.07-.05-.14-.31-.25-.38s-.37-.08-.44-.12a.33.33,0,0,1-.14-.2,3.44,3.44,0,0,0-.7-1.36,4.17,4.17,0,0,0-1.84-.92c-.65-.1-1,0-1.45-.05S25.47,3.64,25,3.59a5.25,5.25,0,0,0-2.43.23,3.4,3.4,0,0,1-1,.35,9.79,9.79,0,0,1-3.42-.29,25.39,25.39,0,0,1-3.26-.8,3,3,0,0,0-1.59.11,15.27,15.27,0,0,1-2.6.83c-.94.15-1.86.15-2.07.18a4.59,4.59,0,0,0-1.53.67A6.82,6.82,0,0,0,4.34,7.53a7.31,7.31,0,0,0-.82,2.74c0,.14,0,.44,0,.44a4.4,4.4,0,0,1-.14.73c-.09.31-.27.6-.32.8s-.12.4.09.55.26.23.25.28-.16.11,0,.35a1.52,1.52,0,0,1,.3.44s.26-.16.14-.58-.24-.5-.47-.62c-.05,0-.11-.08-.09-.14s.14-.21.24-.42a2.76,2.76,0,0,0,.11-.34S3.71,12.27,3.74,12.37Z"/></svg>