<svg xmlns="http://www.w3.org/2000/svg" width="29.0008" height="34.0128" viewBox="0 0 29.0008 34.0128"><title>management_burn-med_green</title><g id="Layer_2" data-name="Layer 2"><g id="Layer_1-2" data-name="Layer 1"><g opacity="0.8"><path d="M6.505,33.0128a1,1,0,0,1-.5029-.1357s-.4434-.2559-.5615-.3291a13.1263,13.1263,0,0,1-2.7744-2.1719A6.0233,6.0233,0,0,1,1.045,25.3868a10.4909,10.4909,0,0,1,.9189-2.9951l.2627-.62a12.8649,12.8649,0,0,0,.832-2.3564c.0254-.1221.0459-.2441.0674-.377l.0459-.2646a.9995.9995,0,0,1,1.8623-.3018,9.4537,9.4537,0,0,1,.5205,1.1191,13.8758,13.8758,0,0,0,1.8418-6.7588A1,1,0,0,1,8.97,12.04l.2705.1855c.208.1416.4023.2744.5869.4189A14.9283,14.9283,0,0,1,12.8,15.4913q.2944.3984.5439.7979a1,1,0,0,1,1.3652-.0293l.1221.1064c.1123.0986.2246.1973.33.3018a15.1047,15.1047,0,0,1,2.8525,4.0947,9.2875,9.2875,0,0,1,.9375,4.7461A7.35,7.35,0,0,1,17.2062,29.82a13.1475,13.1475,0,0,1-3.6309,2.9932,1.4733,1.4733,0,0,1-.2236.1,1.06,1.06,0,0,1-.3447.0576,1.0218,1.0218,0,0,1-.7637-.3281.99.99,0,0,1-.1846-1.0879,7.223,7.223,0,0,0,.4639-5.1934,7.9638,7.9638,0,0,0-1.3945-2.9277c-.0674.416-.1523.8213-.2412,1.2148a7.6721,7.6721,0,0,1-1.541,3.373,1,1,0,0,1-1.7676-.6084,5.81,5.81,0,0,0-.5625,1.08,3.43,3.43,0,0,0,.1084,2.3535c.0547.16.1182.3174.1875.4893l.125.3135a1.0007,1.0007,0,0,1-.9316,1.3633Zm15.1289-16.332a1.0119,1.0119,0,0,1-.3623-.0674,1.0119,1.0119,0,0,1-.3623.0674H16.2931a1.4861,1.4861,0,0,1-.8252-.2656,1.2941,1.2941,0,0,1-.5479-1.1074V2.3732A1.3749,1.3749,0,0,1,16.2931,1h7.5488a1.36,1.36,0,0,1,1.1.5518l2.7793,3.6475a1.4489,1.4489,0,0,1,.28.83V10.337a.9963.9963,0,0,1-.3291.7412,1.2674,1.2674,0,0,1,.0752.42,1.288,1.288,0,0,1-.3789.9268l-.5205.5186a1.0107,1.0107,0,0,1-.165.1338,1.024,1.024,0,0,1-.1348.166l-3.1416,3.1445a.9993.9993,0,0,1-.707.293Zm-.7324-2.7461c.0078-.0088,3.167-3.1709,3.167-3.1709a1.044,1.044,0,0,1,.166-.1348,1.0607,1.0607,0,0,1,.1367-.168l.5234-.5205a1.26,1.26,0,0,1,.36-.2529V7.4025h-.7979a.9993.9993,0,0,1,.3252.7256l.0107.8311a1,1,0,0,1-.9873,1.0127s-6.1279.0781-6.1387.0771v.4551h3.3506a.9994.9994,0,0,1,1,1v.8311a.9994.9994,0,0,1-1,1H17.6671v.6ZM17.6671,7.2189l5.3086-.0674a1.3739,1.3739,0,0,1-.582-1.1221V3.7462H17.6671v.1094h3.3506a.9994.9994,0,0,1,1,1v.8311a.9994.9994,0,0,1-1,1H17.6671Z" fill="#fff"/><path d="M23.8416,2a.3546.3546,0,0,1,.2986.1492l2.7859,3.6565a.4013.4013,0,0,1,.0747.224V10.337h-.7463V6.4027H23.7672a.3827.3827,0,0,1-.3733-.373V2.7462H16.6666V14.9346h4.2427v.7462H16.2936a.5212.5212,0,0,1-.2737-.0995.3392.3392,0,0,1-.0994-.2736V2.373A.3825.3825,0,0,1,16.2936,2h7.5481M24.14,5.6316h1.7163L24.14,3.3184V5.6316m-3.1221-.7759v.8311H17.6939V4.8557h3.3242m2.7644,3.285.0107.8309L17.7,9.05l-.01-.8309,6.0935-.0782m2.019,2.426A.2716.2716,0,0,1,26,10.65l.6648.6648a.2832.2832,0,0,1,0,.4005l-.5227.52L25.0765,11.17l.5227-.52a.2862.2862,0,0,1,.2024-.0831m-1.0261.9041,1.0652,1.0653-3.1418,3.1447H21.6336V14.6156l3.1418-3.1448m-3.7573.0331v.8311H17.6939v-.8311h3.3242M8.3968,12.86c.2983.2087.5657.3792.8149.5731a14.0086,14.0086,0,0,1,2.7827,2.651,8.7668,8.7668,0,0,1,1.7542,4.0448c.0054.04.02.0785.0454.177a5.0879,5.0879,0,0,0,.2483-3.3c.1389.1238.2832.2422.4153.3732A14.3243,14.3243,0,0,1,17.1195,21.21a8.2552,8.2552,0,0,1,.8335,4.2419,6.3341,6.3341,0,0,1-1.52,3.7336,12.1717,12.1717,0,0,1-3.3616,2.7635,1.16,1.16,0,0,1-.1135.0435,8.2384,8.2384,0,0,0,.531-5.8849,8.294,8.294,0,0,0-3.2739-4.9,9.5133,9.5133,0,0,1-.304,3.2227,6.6883,6.6883,0,0,1-1.3337,2.95,6.9114,6.9114,0,0,0-.3328-3.7145l-.0562-.0006c-.0327.1393-.064.2791-.0984.4183a8.7324,8.7324,0,0,1-1.2451,2.6193,7.4244,7.4244,0,0,0-.77,1.4465,4.4405,4.4405,0,0,0,.1018,3.02c.0906.2659.2031.5249.3274.8431-.2129-.1241-.3784-.2173-.5408-.3168a12.2252,12.2252,0,0,1-2.57-2.0057,5.0343,5.0343,0,0,1-1.3552-4.1956A10.6709,10.6709,0,0,1,2.99,22.5332,16.2383,16.2383,0,0,0,4.0377,19.62c.0439-.2085.074-.4191.1182-.6714A7.907,7.907,0,0,1,5.11,21.9927,14.7308,14.7308,0,0,0,8.3968,12.86M23.8416,0H16.2936a2.3757,2.3757,0,0,0-2.373,2.373V15.0088a1.99,1.99,0,0,0-.2166.025q-.0491-.0683-.0994-.1365A15.8189,15.8189,0,0,0,10.44,11.8545c-.2012-.1566-.4114-.3013-.6367-.4548l-.26-.1787a2,2,0,0,0-3.1458,1.5841,13.4562,13.4562,0,0,1-.9133,4.6487,2,2,0,0,0-3.2983,1.15l-.0442.261c-.02.1211-.0376.2324-.061.3428a12.3141,12.3141,0,0,1-.7771,2.18l-.157.37-.104.2465a11.4138,11.4138,0,0,0-.9919,3.2744,6.9844,6.9844,0,0,0,1.8875,5.7823,14.0756,14.0756,0,0,0,2.9814,2.34c.126.0773.2539.1515.4.236l.1777.103A2,2,0,0,0,8.368,31.2853l-.1267-.3177c-.0627-.156-.1213-.298-.1707-.4429a3.1227,3.1227,0,0,1-.2078-1.2758,1.9989,1.9989,0,0,0,2.25-.5857A7.8828,7.8828,0,0,0,11.46,26.2786q.05.1648.0945.3363A6.2647,6.2647,0,0,1,11.16,31.118a2,2,0,0,0,2.5076,2.7449,2.8778,2.8778,0,0,0,.4226-.1921,14.0792,14.0792,0,0,0,3.8889-3.2155,8.3333,8.3333,0,0,0,1.9709-4.89,10.2759,10.2759,0,0,0-1.042-5.25,18.9018,18.9018,0,0,0-1.573-2.6338h3.5745a2.0112,2.0112,0,0,0,.3621-.0327,2.016,2.016,0,0,0,.3623.0327h1.0652a2,2,0,0,0,1.4148-.5864L27.2555,13.95a1.996,1.996,0,0,0,.1418-.1576,2.038,2.038,0,0,0,.1548-.1389l.5227-.52a2.3036,2.3036,0,0,0,.6726-1.651q-.0011-.0787-.0076-.1569a1.9913,1.9913,0,0,0,.261-.9885V6.03A2.3981,2.3981,0,0,0,28.59,4.6964q-.0348-.0526-.0732-.1028L25.7311.9371A2.3464,2.3464,0,0,0,23.8416,0Z" fill="#fff"/></g><path d="M5.9643,31.6961c.1623.1.3279.1926.5408.3168-.1244-.3183-.2368-.5773-.3274-.8432a4.4389,4.4389,0,0,1-.1017-3.02,7.4123,7.4123,0,0,1,.7694-1.4465A8.7287,8.7287,0,0,0,8.09,24.0843c.0344-.1393.0658-.2791.0985-.4183l.0559.0006a6.9111,6.9111,0,0,1,.333,3.7145,6.6926,6.6926,0,0,0,1.3337-2.95,9.5116,9.5116,0,0,0,.3038-3.2227,8.2949,8.2949,0,0,1,3.2741,4.9,8.24,8.24,0,0,1-.531,5.8848,1.1572,1.1572,0,0,0,.1135-.0434,12.1743,12.1743,0,0,0,3.3616-2.7636,6.3346,6.3346,0,0,0,1.52-3.7336A8.2574,8.2574,0,0,0,17.12,21.21a14.3235,14.3235,0,0,0-2.6621-3.832c-.1319-.131-.2764-.2494-.4151-.3732a5.0886,5.0886,0,0,1-.2483,3.3c-.0255-.0984-.04-.1371-.0454-.177a8.7685,8.7685,0,0,0-1.7542-4.0447,14.0057,14.0057,0,0,0-2.7829-2.651c-.2491-.194-.5165-.3644-.8148-.5731A14.73,14.73,0,0,1,5.11,21.9927a7.9075,7.9075,0,0,0-.9539-3.0438c-.0442.2523-.0744.4629-.1182.6714A16.23,16.23,0,0,1,2.99,22.5332a10.6711,10.6711,0,0,0-.9514,2.9616A5.0339,5.0339,0,0,0,3.394,29.69,12.2272,12.2272,0,0,0,5.9643,31.6961Z" fill="#4f8317"/><path d="M26.1419,12.235,25.0766,11.17l.5227-.52a.2829.2829,0,0,1,.4005,0l.6647.6647a.2829.2829,0,0,1,0,.4005Zm-1.3664-.7642,1.0653,1.0653-3.1418,3.1447H21.6337V14.6156ZM17.7,9.05l6.0937-.0782-.0107-.831L17.689,8.219Zm-.0056-3.3632h3.3241v-.831H17.6941Zm0,6.6482h3.3241v-.831H17.6941Zm-1.0274,2.6V2.7462H23.394V6.03a.3825.3825,0,0,0,.3731.3731h2.4874V10.337h.7462V6.03a.4013.4013,0,0,0-.0746-.2239L24.14,2.1492A.3546.3546,0,0,0,23.8417,2H16.2935a.3826.3826,0,0,0-.3731.3731V15.3077a.34.34,0,0,0,.0995.2736.5214.5214,0,0,0,.2736.1h4.6157v-.7462ZM24.14,3.3183l1.7163,2.3133H24.14Z" fill="#4f8317"/></g></g></svg>