<svg xmlns="http://www.w3.org/2000/svg" width="29.0008" height="34.0129" viewBox="0 0 29.0008 34.0129"><title>management_burn-lt_gray</title><g id="Layer_2" data-name="Layer 2"><g id="Layer_1-2" data-name="Layer 1"><g opacity="0.8"><path d="M6.505,33.0126a1,1,0,0,1-.5029-.1357l-.1865-.1084c-.1367-.0781-.2568-.1475-.375-.2207a13.122,13.122,0,0,1-2.7754-2.1719,6.0248,6.0248,0,0,1-1.62-4.9883,10.458,10.458,0,0,1,.92-2.9961l.2617-.62a12.8649,12.8649,0,0,0,.832-2.3564c.0254-.1221.0459-.2441.0674-.377l.0459-.2646a.9995.9995,0,0,1,1.8623-.3018,9.2438,9.2438,0,0,1,.5205,1.12,13.8854,13.8854,0,0,0,1.8418-6.76A1,1,0,0,1,8.97,12.04l.2705.1855c.207.1416.4.2744.585.417A14.9659,14.9659,0,0,1,12.7989,15.49q.2944.4.5449.7988a1,1,0,0,1,1.3652-.0293l.1182.1035c.1152.1006.2295.2012.3369.3086a15.1039,15.1039,0,0,1,2.85,4.0908,9.2875,9.2875,0,0,1,.9375,4.7461A7.35,7.35,0,0,1,17.2062,29.82a13.1105,13.1105,0,0,1-3.6309,2.9932,1.6132,1.6132,0,0,1-.2139.0967,1.0623,1.0623,0,0,1-.3535.06,1.0169,1.0169,0,0,1-.7607-.3242.9879.9879,0,0,1-.1885-1.09,7.223,7.223,0,0,0,.4639-5.1934,7.9638,7.9638,0,0,0-1.3945-2.9277c-.0674.416-.1523.82-.2412,1.2148a7.6913,7.6913,0,0,1-1.541,3.3721,1,1,0,0,1-1.7666-.6084,5.8616,5.8616,0,0,0-.5635,1.08,3.43,3.43,0,0,0,.1084,2.3535c.0547.16.1182.3174.1875.4893l.125.3135a1.0007,1.0007,0,0,1-.9316,1.3633Zm15.1289-16.332a1.0119,1.0119,0,0,1-.3623-.0674,1.0119,1.0119,0,0,1-.3623.0674H16.2931a1.4861,1.4861,0,0,1-.8252-.2656,1.2866,1.2866,0,0,1-.5479-1.1074V2.3729A1.3749,1.3749,0,0,1,16.2931,1h7.5488a1.36,1.36,0,0,1,1.1.5518l2.7793,3.6475a1.4626,1.4626,0,0,1,.28.8311v4.3066a.9963.9963,0,0,1-.3291.7412,1.29,1.29,0,0,1-.3008,1.3447l-.5244.5215a1.0508,1.0508,0,0,1-.1641.1328,1.024,1.024,0,0,1-.1348.166l-3.1416,3.1445a.9993.9993,0,0,1-.707.293Zm-.7314-2.7461c.0078-.0088,3.165-3.1709,3.165-3.1709a1.097,1.097,0,0,1,.167-.1348.9834.9834,0,0,1,.1377-.1689l.5234-.52a1.2559,1.2559,0,0,1,.3594-.252V7.4032h-.7969a.9979.9979,0,0,1,.3242.7246l.0107.8311a1,1,0,0,1-.9873,1.0127s-6.1279.0781-6.1387.0771v.4551h3.3506a.9994.9994,0,0,1,1,1v.8311a.9994.9994,0,0,1-1,1H17.6671v.6ZM17.6671,7.2186,22.9845,7.15a1.3829,1.3829,0,0,1-.5908-1.12V3.746H17.6671v.1094h3.3506a.9994.9994,0,0,1,1,1v.8311a.9994.9994,0,0,1-1,1H17.6671Z" fill="#fff"/><path d="M23.8416,2a.3547.3547,0,0,1,.2986.1493l2.7859,3.6565a.4009.4009,0,0,1,.0747.2239V10.337h-.7463V6.4028H23.7672a.3828.3828,0,0,1-.3733-.3732V2.7463H16.6666V14.9347h4.2427v.7462H16.2936a.5223.5223,0,0,1-.2737-.0995.34.34,0,0,1-.0994-.2737V2.3732A.3826.3826,0,0,1,16.2936,2h7.5481M24.14,5.6317h1.7163L24.14,3.3184V5.6317m-3.1221-.7759v.8309H17.6939V4.8558h3.3242m2.7644,3.2849.0107.8311L17.7,9.05l-.01-.8311,6.0935-.0782m2.019,2.4261A.2716.2716,0,0,1,26,10.65l.6648.6647a.2832.2832,0,0,1,0,.4005l-.5227.52L25.0765,11.17l.5227-.52a.2862.2862,0,0,1,.2024-.0831m-1.0261.9041,1.0652,1.0653-3.1418,3.1447H21.6336V14.6156l3.1418-3.1447m-3.7573.0331v.8311H17.6939V11.504h3.3242M8.3968,12.86c.2983.2087.5657.3792.8149.5731a14.0052,14.0052,0,0,1,2.7827,2.651,8.7669,8.7669,0,0,1,1.7542,4.0447c.0054.04.02.0786.0454.177a5.0879,5.0879,0,0,0,.2483-3.3c.1389.1238.2832.2422.4153.3732a14.323,14.323,0,0,1,2.6619,3.832,8.2545,8.2545,0,0,1,.8335,4.2418,6.3341,6.3341,0,0,1-1.52,3.7336,12.1722,12.1722,0,0,1-3.3616,2.7637,1.1417,1.1417,0,0,1-.1135.0433,8.2381,8.2381,0,0,0,.531-5.8848,8.2942,8.2942,0,0,0-3.2739-4.9,9.5137,9.5137,0,0,1-.304,3.2228,6.69,6.69,0,0,1-1.3337,2.95,6.9117,6.9117,0,0,0-.3328-3.7146l-.0562-.0006c-.0327.1393-.064.2791-.0984.4183a8.73,8.73,0,0,1-1.2451,2.6193,7.4279,7.4279,0,0,0-.77,1.4465,4.4409,4.4409,0,0,0,.1018,3.02c.0906.2657.2031.5248.3274.8431-.2129-.1241-.3784-.2173-.5408-.3168a12.2257,12.2257,0,0,1-2.57-2.0059,5.0343,5.0343,0,0,1-1.3552-4.1956A10.6722,10.6722,0,0,1,2.99,22.5332,16.2337,16.2337,0,0,0,4.0377,19.62c.0439-.2085.074-.4191.1182-.6715A7.9076,7.9076,0,0,1,5.11,21.9928,14.7308,14.7308,0,0,0,8.3968,12.86M23.8416,0H16.2936a2.3757,2.3757,0,0,0-2.373,2.3732V15.0088a1.99,1.99,0,0,0-.2166.025q-.0491-.0681-.0994-.1364a15.8133,15.8133,0,0,0-3.1646-3.043c-.2009-.1565-.4111-.3011-.6365-.4547l-.26-.1787a2,2,0,0,0-3.1458,1.5841,13.4555,13.4555,0,0,1-.9133,4.6486,2,2,0,0,0-3.2983,1.15l-.0442.2606c-.02.1212-.0376.2327-.061.3431a12.2952,12.2952,0,0,1-.7773,2.18l-.1567.37-.104.2463a11.4256,11.4256,0,0,0-.9919,3.2747,6.9844,6.9844,0,0,0,1.8875,5.7823,14.0742,14.0742,0,0,0,2.9814,2.34c.126.0773.2539.1515.4.236l.1777.103a2,2,0,0,0,2.8706-2.455l-.127-.319c-.063-.1558-.1211-.2975-.17-.4421a3.1211,3.1211,0,0,1-.2078-1.2755,1.9991,1.9991,0,0,0,2.25-.5858A7.8879,7.8879,0,0,0,11.46,26.2787q.05.1648.0945.3362A6.2646,6.2646,0,0,1,11.16,31.118a2,2,0,0,0,2.5049,2.7458,2.885,2.885,0,0,0,.426-.1935,14.074,14.074,0,0,0,3.8882-3.2151,8.3333,8.3333,0,0,0,1.9709-4.89,10.2732,10.2732,0,0,0-1.0422-5.25,18.8762,18.8762,0,0,0-1.5728-2.6337h3.5745a2.0112,2.0112,0,0,0,.3621-.0327,2.016,2.016,0,0,0,.3623.0327h1.0652a2,2,0,0,0,1.4148-.5864L27.2555,13.95a1.996,1.996,0,0,0,.1418-.1576,2.0189,2.0189,0,0,0,.155-.1392l.5227-.52a2.3019,2.3019,0,0,0,.6724-1.65q-.0011-.0789-.0076-.1575a1.9913,1.9913,0,0,0,.261-.9885V6.03a2.4,2.4,0,0,0-.4114-1.3345c-.0232-.0345-.0474-.0685-.0725-.1014L25.7311.9373A2.3465,2.3465,0,0,0,23.8416,0Z" fill="#fff"/></g><path d="M5.9643,31.6961c.1623.1.3279.1926.5408.3168-.1244-.3183-.2368-.5773-.3274-.8432a4.4389,4.4389,0,0,1-.1017-3.02,7.4123,7.4123,0,0,1,.7694-1.4465A8.7287,8.7287,0,0,0,8.09,24.0844c.0344-.1393.0658-.2791.0985-.4183l.0559.0006a6.9111,6.9111,0,0,1,.333,3.7145,6.6926,6.6926,0,0,0,1.3337-2.95,9.5116,9.5116,0,0,0,.3038-3.2227,8.2949,8.2949,0,0,1,3.2741,4.9,8.24,8.24,0,0,1-.531,5.8848,1.1572,1.1572,0,0,0,.1135-.0434,12.1743,12.1743,0,0,0,3.3616-2.7636,6.3346,6.3346,0,0,0,1.52-3.7336A8.2574,8.2574,0,0,0,17.12,21.21a14.3235,14.3235,0,0,0-2.6621-3.832c-.1319-.131-.2764-.2494-.4151-.3732a5.0886,5.0886,0,0,1-.2483,3.3c-.0255-.0984-.04-.1371-.0454-.177a8.7685,8.7685,0,0,0-1.7542-4.0447,14.0057,14.0057,0,0,0-2.7829-2.651c-.2491-.194-.5165-.3644-.8148-.5731A14.73,14.73,0,0,1,5.11,21.9928a7.9075,7.9075,0,0,0-.9539-3.0438c-.0442.2523-.0744.4629-.1182.6714A16.23,16.23,0,0,1,2.99,22.5332a10.6711,10.6711,0,0,0-.9514,2.9616A5.0339,5.0339,0,0,0,3.394,29.69,12.2272,12.2272,0,0,0,5.9643,31.6961Z" fill="#acafb2"/><path d="M26.1419,12.2351,25.0766,11.17l.5227-.52a.2829.2829,0,0,1,.4005,0l.6647.6647a.2829.2829,0,0,1,0,.4005Zm-1.3664-.7642,1.0653,1.0653-3.1418,3.1447H21.6337V14.6156ZM17.7,9.05l6.0937-.0782-.0107-.831L17.689,8.219Zm-.0056-3.3632h3.3241v-.831H17.6941Zm0,6.6482h3.3241v-.831H17.6941Zm-1.0274,2.6V2.7463H23.394V6.03a.3825.3825,0,0,0,.3731.3731h2.4874v3.9343h.7462V6.03a.4013.4013,0,0,0-.0746-.2239L24.14,2.1493A.3546.3546,0,0,0,23.8417,2H16.2935a.3826.3826,0,0,0-.3731.3731V15.3078a.34.34,0,0,0,.0995.2736.5214.5214,0,0,0,.2736.1h4.6157v-.7462ZM24.14,3.3184l1.7163,2.3133H24.14Z" fill="#acafb2"/></g></g></svg>