<svg xmlns="http://www.w3.org/2000/svg" width="20" height="16.5642" viewBox="0 0 20 16.5642"><title>camera_trap</title><g id="Layer_2" data-name="Layer 2"><g id="Layer_1-2" data-name="Layer 1"><path d="M10,6.4423a3.25,3.25,0,1,0,3.2506,3.25A3.25,3.25,0,0,0,10,6.4423Zm8.5533-4.1276h-3.68L14.4058.8528C14.1778.1084,13.7832,0,12.984,0H7.0167C6.2174,0,5.8233.1084,5.5948.8528L5.1268,2.3147H3.9244V1.8084a.2894.2894,0,0,0-.29-.29H1.9713a.2894.2894,0,0,0-.29.29v.5062H1.4467A1.4464,1.4464,0,0,0,0,3.7613V15.1176a1.4464,1.4464,0,0,0,1.4467,1.4467H18.5533A1.4464,1.4464,0,0,0,20,15.1176V3.7613A1.4459,1.4459,0,0,0,18.5538,2.3147ZM10,14.5029a4.81,4.81,0,1,1,4.81-4.81A4.81,4.81,0,0,1,10,14.5029Z" fill="#1a2026"/></g></g></svg>