<svg xmlns="http://www.w3.org/2000/svg" viewBox="0 0 34 33.99"><defs><style>.a{opacity:0.8;}.b{fill:#fff;}.c{fill:#ffab24;}</style></defs><title>Asset 6</title><g class="a"><path class="b" d="M6.33,4.17c-.56.06-1-.11-1.48.33A11.22,11.22,0,0,0,3.72,5.88a2.73,2.73,0,0,0-.25,3.35c.58.89,1.86,1.8,2.91,1.4,1.41-.53,2.58.17,3.65,1,2.71,2.14,3.05,2.91,5.48,5.35,2.14,2.15,4.13,4.44,6.09,6.76,1,1.16,2.41,2.6,2.1,4.29-.22,1.19-.47,2.64,1.22,2.69.74,0,1-.2,1.68.14s1.36-.42,1.54-1.11A2.21,2.21,0,0,1,29,28.3c.43-.33.44-.74.77-1.15.57-.7,2-1.93.69-2.78-.43-.27-.68-.8-1.09-1a4.26,4.26,0,0,0-1.3-.37,10.44,10.44,0,0,1-2.42-1,13.11,13.11,0,0,1-3.28-2.66c-1.41-1.37-2.82-2.73-4.18-4.14-2.29-2.38-2.57-2.77-4.84-5.17A7.27,7.27,0,0,1,11,6.39a5,5,0,0,0-1.87-2.6,2.87,2.87,0,0,0-1-.77c-.67-.15-1.36.64-1.74,1.07l-.07.07Z"/><path class="b" d="M8,3l.17,0a2.87,2.87,0,0,1,1,.77A5,5,0,0,1,11,6.39,7.27,7.27,0,0,0,13.33,10c2.27,2.4,2.55,2.79,4.84,5.17,1.36,1.41,2.78,2.77,4.18,4.14A13.11,13.11,0,0,0,25.64,22a10.44,10.44,0,0,0,2.42,1,4.26,4.26,0,0,1,1.3.37c.4.25.66.78,1.09,1,1.32.84-.12,2.07-.69,2.78-.33.41-.35.82-.77,1.15a2.21,2.21,0,0,0-.85,1.47C28,30.34,27.62,31,27,31a1,1,0,0,1-.42-.11,1.64,1.64,0,0,0-.75-.19c-.24,0-.48.05-.83.05h-.11c-1.69,0-1.44-1.5-1.22-2.69.31-1.69-1.13-3.13-2.1-4.29-2-2.32-3.94-4.61-6.09-6.76-2.43-2.44-2.78-3.21-5.48-5.35a4.48,4.48,0,0,0-2.68-1.21,2.74,2.74,0,0,0-1,.18,1.51,1.51,0,0,1-.54.1,3.2,3.2,0,0,1-2.37-1.5,2.73,2.73,0,0,1,.25-3.35A11.22,11.22,0,0,1,4.85,4.5a1.16,1.16,0,0,1,.93-.32h.53l-.25,0,.25,0h0l.07-.07C6.75,3.7,7.35,3,8,3M8,0A4.44,4.44,0,0,0,5,1.23,4,4,0,0,0,2.73,2.38,14,14,0,0,0,1.29,4.12a5.66,5.66,0,0,0-.34,6.74,6.13,6.13,0,0,0,4.89,2.87,4.51,4.51,0,0,0,1.52-.26,4,4,0,0,1,.81.54,23.29,23.29,0,0,1,3.24,3c.53.57,1.13,1.22,2,2.08,2.19,2.2,4.22,4.55,5.91,6.57l.33.38a7.21,7.21,0,0,1,1.11,1.51,5.49,5.49,0,0,0,.76,4.61,4.28,4.28,0,0,0,3.35,1.54H25l.58,0A3.9,3.9,0,0,0,27,34a4.25,4.25,0,0,0,4-3.46v0a4.65,4.65,0,0,0,1.1-1.5v0l.12-.13A5.17,5.17,0,0,0,34,24.68,4,4,0,0,0,32.25,22l-.06-.07a5.1,5.1,0,0,0-1.26-1.14,5.87,5.87,0,0,0-2.05-.71l-.19,0A8,8,0,0,1,27,19.32l0,0a8.63,8.63,0,0,1-2.08-1.7l-.44-.43L24,16.75c-1.22-1.19-2.49-2.41-3.67-3.64s-1.93-2-2.67-2.84C17.1,9.66,16.49,9,15.51,8l-.1-.1c-1-1-1.31-1.43-1.45-2.09a7.6,7.6,0,0,0-2.72-4.14l-.06-.06-.1-.09A4.86,4.86,0,0,0,8.81.1,3.79,3.79,0,0,0,8,0ZM6.33,7.17h0Z"/></g><path class="c" d="M6.33,4.17c-.56.06-1-.11-1.48.33A11.22,11.22,0,0,0,3.72,5.88a2.73,2.73,0,0,0-.25,3.35c.58.89,1.86,1.8,2.91,1.4,1.41-.53,2.58.17,3.65,1,2.71,2.14,3.05,2.91,5.48,5.35,2.14,2.15,4.13,4.44,6.09,6.76,1,1.16,2.41,2.6,2.1,4.29-.22,1.19-.47,2.64,1.22,2.69.74,0,1-.2,1.68.14s1.36-.42,1.54-1.11A2.21,2.21,0,0,1,29,28.3c.43-.33.44-.74.77-1.15.57-.7,2-1.93.69-2.78-.43-.27-.68-.8-1.09-1a4.26,4.26,0,0,0-1.3-.37,10.44,10.44,0,0,1-2.42-1,13.11,13.11,0,0,1-3.28-2.66c-1.41-1.37-2.82-2.73-4.18-4.14-2.29-2.38-2.57-2.77-4.84-5.17A7.27,7.27,0,0,1,11,6.39a5,5,0,0,0-1.87-2.6,2.87,2.87,0,0,0-1-.77c-.67-.15-1.36.64-1.74,1.07l-.07.07Z"/></svg>