<svg id="32bdd139-712d-40d9-b0cb-5e7f3bc2b541" data-name="Layer 1" xmlns="http://www.w3.org/2000/svg" viewBox="0 0 60 60"><defs><style>.ced8159d-ef73-41de-af4d-f00fae13e839{opacity:0.8;}.d63b1fc8-183b-4fc1-b42d-75d4e43931a8{fill:#fff;}.\38 204db0b-2d81-4cf2-8dd6-c515eb795809{fill:#1a2026;}</style></defs><title>1</title><g class="ced8159d-ef73-41de-af4d-f00fae13e839"><path class="d63b1fc8-183b-4fc1-b42d-75d4e43931a8" d="M40.23,12.5c3.28,3.28,5.2,8.89,3.16,10.2-0.46.64-3.91,2.56-4.26,4.54h0c-3.53-3.53-3.93-5.65-3.1-7.37a10.38,10.38,0,0,1,2.13-2.63,7.53,7.53,0,0,0,2.06-4.74M39,25.45a6.9,6.9,0,0,1,1.18-1.51,6,6,0,0,1,.69-0.59,7.25,7.25,0,0,0,1.73-1.48,1.87,1.87,0,0,0,.35-1.27,5.56,5.56,0,0,0-.84-2.32,7,7,0,0,1-1.87,2.1,7.22,7.22,0,0,0-1.73,1.47c-0.42.58-.69,1.51,0.49,3.59M34.72,26l0,0h0l0,0m0,0h0l2.79,2.79-3.06,3.06a8.22,8.22,0,0,0-1.73,2.19l-2.6,4.8a8.14,8.14,0,0,1-1.49,2.17L22.6,47.12a1.13,1.13,0,0,1-.79.38A1.17,1.17,0,0,1,21,47.1l-4.82-4.82a1,1,0,0,1,0-1.62l6.05-6.05a8,8,0,0,1,2.17-1.49l5.12-2.28a7.78,7.78,0,0,0,2.19-1.72l3.06-3.06M40.23,9.5a3,3,0,0,0-3,3A4.48,4.48,0,0,1,36,15.14a12.8,12.8,0,0,0-2.7,3.44,6.53,6.53,0,0,0-.31,5,3,3,0,0,0-.42.35l-0.18.2L29.56,27a5.11,5.11,0,0,1-1.41,1.16l-5,2.23L23,30.45a10.92,10.92,0,0,0-2.93,2L14,38.55a4,4,0,0,0,0,5.86l4.82,4.82a4.16,4.16,0,0,0,2.94,1.27,4.12,4.12,0,0,0,2.92-1.26l6-6a11,11,0,0,0,2-2.86l2.6-4.81A5.36,5.36,0,0,1,36.59,34L39.65,31a3,3,0,0,0,.65-1,3,3,0,0,0,1.78-2.13,11,11,0,0,1,2.14-1.94,11.79,11.79,0,0,0,1.22-1,5.06,5.06,0,0,0,1.77-3.46c0.34-3.22-1.74-8-4.84-11.09a3,3,0,0,0-2.12-.88h0Z"/></g><path class="8204db0b-2d81-4cf2-8dd6-c515eb795809" d="M40.23,12.5a7.53,7.53,0,0,1-2.06,4.74A10.39,10.39,0,0,0,36,19.87c-0.83,1.72-.43,3.84,3.1,7.37h0c0.35-2,3.8-3.9,4.26-4.54C45.43,21.39,43.52,15.78,40.23,12.5ZM39,25.45c-1.18-2.08-.9-3-0.49-3.59a7.22,7.22,0,0,1,1.73-1.47,7,7,0,0,0,1.87-2.1,5.56,5.56,0,0,1,.84,2.32,1.87,1.87,0,0,1-.35,1.27,7.25,7.25,0,0,1-1.73,1.48,6,6,0,0,0-.69.59A6.9,6.9,0,0,0,39,25.45Zm-7.27,3.67a7.78,7.78,0,0,1-2.19,1.72l-5.12,2.28a8,8,0,0,0-2.17,1.49l-6.05,6.05a1,1,0,0,0,0,1.62L21,47.1a1,1,0,0,0,1.61,0l6.05-6.05a8.14,8.14,0,0,0,1.49-2.17l2.6-4.8a8.22,8.22,0,0,1,1.73-2.19l3.06-3.06-2.79-2.79Zm3.06-3.06h0l0,0Z"/></svg>