<svg id="e16905f2-82ab-4bde-a852-561e19a0ade6" data-name="Layer 1" xmlns="http://www.w3.org/2000/svg" viewBox="0 0 60 60"><defs><style>.\30 2917d98-af82-4a24-8a0a-a53903bfc305{opacity:0.8;}.dcd4d056-5697-4366-ba04-a8e3a4d291bd{fill:#fff;}.\30 5440a4e-ef0a-4664-9a11-a8efccba9885{fill:#ffab24;}</style></defs><title>1</title><g class="02917d98-af82-4a24-8a0a-a53903bfc305"><path class="dcd4d056-5697-4366-ba04-a8e3a4d291bd" d="M42.43,17.5a1.26,1.26,0,0,1,1.25,1.28V36.66a1.22,1.22,0,0,1-1.25,1.25H37l-0.29,4.35a0.56,0.56,0,0,1-.43.24,0.45,0.45,0,0,1-.43-0.24l-5.37-4.35H17.6a1.22,1.22,0,0,1-1.28-1.25V18.78A1.27,1.27,0,0,1,17.6,17.5H42.43M30.12,29.91a1.2,1.2,0,0,0,1.19-1.09l0.52-6A1.68,1.68,0,0,0,30.15,21a1.72,1.72,0,0,0-1.67,1.82l0.55,6a1.14,1.14,0,0,0,1,1.09h0.06M30.18,34a1.24,1.24,0,0,0,1.32-1.19V32.58a1.31,1.31,0,0,0-1.32-1.22,1.26,1.26,0,0,0-1.32,1.22v0.23A1.24,1.24,0,0,0,30.18,34M42.43,14.5H17.6a4.28,4.28,0,0,0-4.28,4.28V36.66a4.22,4.22,0,0,0,4.28,4.25H29.39l4.25,3.44a3.47,3.47,0,0,0,2.6,1.15,3.52,3.52,0,0,0,2.83-1.44,3,3,0,0,0,.59-1.6l0.1-1.54h2.66a4.2,4.2,0,0,0,4.25-4.25V18.78a4.27,4.27,0,0,0-4.25-4.28h0Z"/></g><path class="05440a4e-ef0a-4664-9a11-a8efccba9885" d="M17.6,17.5a1.27,1.27,0,0,0-1.28,1.28V36.66a1.22,1.22,0,0,0,1.28,1.25H30.45l5.37,4.35a0.45,0.45,0,0,0,.43.24,0.56,0.56,0,0,0,.43-0.24L37,37.91h5.47a1.22,1.22,0,0,0,1.25-1.25V18.78a1.26,1.26,0,0,0-1.25-1.28H17.6ZM30.18,31.36a1.31,1.31,0,0,1,1.32,1.22v0.23a1.33,1.33,0,0,1-2.64,0V32.58a1.26,1.26,0,0,1,1.32-1.22h0Zm0-10.36a1.68,1.68,0,0,1,1.67,1.82l-0.52,6a1.2,1.2,0,0,1-1.24,1.09,1.14,1.14,0,0,1-1-1.09l-0.55-6A1.72,1.72,0,0,1,30.15,21Z"/></svg>