<svg xmlns="http://www.w3.org/2000/svg" viewBox="0 0 37.78 34.04"><defs><style>.a{opacity:0.8;}.b,.c{fill:#fff;}.c,.e{fill-rule:evenodd;}.d,.e{fill:#acafb2;}</style></defs><title>Asset 127</title><g class="a"><path class="b" d="M18.49,32.54a1.8,1.8,0,0,1-1.72-1.42,22.51,22.51,0,0,1,.46-9.28,19.85,19.85,0,0,1,4-7.8A22.42,22.42,0,0,1,30.5,7.59,4,4,0,0,1,32,7.2a1.91,1.91,0,0,1,1.73,1,1.81,1.81,0,0,1,.12,1.4,1.9,1.9,0,0,1,.62,1.84,2.14,2.14,0,0,1,.1.25,2,2,0,0,1,.09.7,2.12,2.12,0,0,1,.58,1.23,2.44,2.44,0,0,1,0,.47,2,2,0,0,1,.87,1,2.11,2.11,0,0,1-.25,1.93,1.78,1.78,0,0,1-1.34.82A14.87,14.87,0,0,0,28.64,20a17.19,17.19,0,0,0-4.57,4,22.67,22.67,0,0,0-3.88,7.37,1.76,1.76,0,0,1-1.68,1.22Z"/><path class="b" d="M32,8.7a.4.4,0,0,1,.39.21c.14.28-.09.59-.41,1a4.87,4.87,0,0,0-.34.51,1.35,1.35,0,0,0,.43.07,1.42,1.42,0,0,1,.73.19.4.4,0,0,1,.22.34c0,.24-.22.38-.43.52l-.18.12a.79.79,0,0,0,.22.09.64.64,0,0,1,.51.4.55.55,0,0,1-.17.55.42.42,0,0,0-.1.52c0,.14.08.14.11.14h.12l.18,0c.16,0,.43.06.49.49a.6.6,0,0,1-.26.66l0,0a.79.79,0,0,0,.05.32c.07.25.29.33.62.43s.51.15.6.4a.7.7,0,0,1-.12.6.27.27,0,0,1-.2.13,16.38,16.38,0,0,0-6.55,2.27,18.7,18.7,0,0,0-5,4.31,24.18,24.18,0,0,0-4.14,7.85.27.27,0,0,1-.26.19h0a.27.27,0,0,1-.25-.22,21.12,21.12,0,0,1,.44-8.6A18.37,18.37,0,0,1,22.34,15,21,21,0,0,1,31,9a3,3,0,0,1,1-.29m0-3a5.49,5.49,0,0,0-2.11.51A23.9,23.9,0,0,0,20,13.07a21.35,21.35,0,0,0-4.26,8.39,23.94,23.94,0,0,0-.48,9.94,3.27,3.27,0,0,0,3,2.63h.19a3.26,3.26,0,0,0,3.11-2.27,21.19,21.19,0,0,1,3.62-6.88,15.71,15.71,0,0,1,4.17-3.63,13.46,13.46,0,0,1,5.31-1.86,3.26,3.26,0,0,0,2.45-1.51,3.61,3.61,0,0,0,.39-3.26,3.38,3.38,0,0,0-.82-1.26,3.65,3.65,0,0,0-.59-1.51A3.43,3.43,0,0,0,36,11.3c0-.09,0-.18,0-.26a3.38,3.38,0,0,0-.58-1.85,3.27,3.27,0,0,0-.37-1.64A3.41,3.41,0,0,0,32,5.7Z"/><path class="c" d="M6.41,28.12A2.54,2.54,0,0,1,6,28.05c-1.57-.37-3.88-2.17-4.35-3.44s.62-2.76,1.66-3.68l.43-.43c.86-.85,1.75-1.73,2.63-2.59a.71.71,0,0,0,.24-.56A1.38,1.38,0,0,1,6.05,17L4.73,15.54a1.5,1.5,0,0,1,.21-2.2,8.57,8.57,0,0,1,1.11-.7,3.58,3.58,0,0,0,.82-.54,19.82,19.82,0,0,1,2-1.77,3.81,3.81,0,0,0,.65-.79,9.2,9.2,0,0,1,.73-1,1.58,1.58,0,0,1,1.13-.52h0a1.53,1.53,0,0,1,1.14.47l.52.58,7.23-6.51.11-.09.51-.46a2.15,2.15,0,0,1,1.44-.56h.11a2.07,2.07,0,0,1,1.44.68l.34.37a2.1,2.1,0,0,1,.53,1.56A2.15,2.15,0,0,1,24,5.55l-5.13,4.62a7.17,7.17,0,0,1,.12,1.1A4.12,4.12,0,0,1,18,14a4.3,4.3,0,0,1-.43.44l-.27.25-3.09,3a3.37,3.37,0,0,1,0,.48,3,3,0,0,1-.66,2l-.19.25a2.06,2.06,0,0,1-.71,1.77,2.23,2.23,0,0,1-1.6.82,2.1,2.1,0,0,1-.43-.07c0,.07,0,.14,0,.21a4.11,4.11,0,0,1-1,2.43c-.53.62-1.09,1.26-1.67,1.89a2.09,2.09,0,0,1-1.54.72Z"/><path class="b" d="M22.31,3h0a.58.58,0,0,1,.4.19l.33.37a.58.58,0,0,1,.15.44.65.65,0,0,1-.22.43L22.39,5h0L21.22,6,17.41,9.47a.3.3,0,0,0-.11.31l.06.35a7.28,7.28,0,0,1,.14,1.16,2.6,2.6,0,0,1-.6,1.77,2.74,2.74,0,0,1-.27.28l-.29.26-3.81,3.65a2.11,2.11,0,0,1,.27.95,1.52,1.52,0,0,1-.35,1l-.6.77a.15.15,0,0,0,0,.2c.22.45.2.56-.16.92s-.38.36-.53.36h0c-.16,0-.28-.15-.49-.45l-.1-.16a2.47,2.47,0,0,0-.16-.24A.49.49,0,0,0,10,20.4a.51.51,0,0,0-.37.19,1.71,1.71,0,0,0-.37,1.06c0,.24,0,.48,0,.72s0,.41,0,.62a2.64,2.64,0,0,1-.62,1.56c-.52.61-1.07,1.23-1.63,1.85a.6.6,0,0,1-.44.23h0l-.1,0A6.5,6.5,0,0,1,3,24.09c-.26-.69,1.18-2,1.25-2h0l.48-.48c.85-.85,1.74-1.72,2.62-2.58A2.27,2.27,0,0,0,8,16.81,1.58,1.58,0,0,1,8.6,15.1l.26-.23.1-.1.1-.1,0,0-.42-.46a3,3,0,0,0-.83,1,4.11,4.11,0,0,1-.63.81l0,0L5.84,14.53l.06,0a7.09,7.09,0,0,1,.88-.54,4.73,4.73,0,0,0,1.17-.81A18.31,18.31,0,0,1,9.77,11.5a4.88,4.88,0,0,0,1-1.11,7.84,7.84,0,0,1,.61-.8l0-.05L12.72,11l-.06,0-.12.09-.26.18-.46.25a3.53,3.53,0,0,0-1,.67l-.11.11,0,0,.43.47L21.25,3.72h0l.62-.56A.65.65,0,0,1,22.31,3M11,15.8a.64.64,0,0,0,.42-.19l4.4-4.3c.2-.19.26-.45.15-.57a.21.21,0,0,0-.15-.06h0a.63.63,0,0,0-.41.2L11,15.17a.62.62,0,0,0-.21.41.23.23,0,0,0,.06.16.22.22,0,0,0,.16.06M9.44,14.34l1.33-1.2-.43-.47L9,13.87l.43.47m1.89,4.8c.47-.4.71-.77.69-1.08a.57.57,0,0,0-.19-.39l-.17.17a5,5,0,0,0-.39.42.57.57,0,0,0,0,.88M22.31,0a3.65,3.65,0,0,0-2.45.94l-.46.42-.16.13L13.06,7.05a3,3,0,0,0-1.68-.52h0a3,3,0,0,0-2.22,1l0,.05a10.47,10.47,0,0,0-.85,1.09,5.08,5.08,0,0,1-.36.48,21.14,21.14,0,0,0-2.11,1.9c-.05,0-.29.17-.47.27a9.76,9.76,0,0,0-1.24.78l-.05,0a3,3,0,0,0-.42,4.4l.93,1L2.65,19.44l-.43.43c-1.91,1.73-2.62,3.6-2,5.27C.91,27,3.74,29,5.65,29.51a3.42,3.42,0,0,0,.69.1H6.5a3.57,3.57,0,0,0,2.65-1.21c.59-.65,1.16-1.29,1.7-1.93A5.56,5.56,0,0,0,12,24.34a4,4,0,0,0,1.83-1.16A3.7,3.7,0,0,0,15,20.85a4.51,4.51,0,0,0,.85-2.58l2.58-2.47.25-.22a5.59,5.59,0,0,0,1.87-4.33c0-.17,0-.34,0-.49l2.27-2,.49-.44L24.4,7.22,25,6.66a3.64,3.64,0,0,0,1.19-2.4,3.6,3.6,0,0,0-.91-2.7L25,1.18A3.56,3.56,0,0,0,22.49,0Z"/></g><path class="d" d="M18.51,31h0a.27.27,0,0,1-.25-.22,21.12,21.12,0,0,1,.44-8.6A18.37,18.37,0,0,1,22.34,15,21,21,0,0,1,31,9a3,3,0,0,1,1-.29.4.4,0,0,1,.39.21c.14.28-.09.59-.41,1a4.87,4.87,0,0,0-.34.51,1.34,1.34,0,0,0,.43.07,1.42,1.42,0,0,1,.73.19.4.4,0,0,1,.22.34c0,.24-.22.38-.43.52l-.18.12a.79.79,0,0,0,.22.09.64.64,0,0,1,.51.4.55.55,0,0,1-.17.55.42.42,0,0,0-.1.52c0,.14.08.14.11.14h.12l.18,0c.16,0,.43.06.49.49a.6.6,0,0,1-.26.66l0,0a.79.79,0,0,0,.05.32c.07.25.29.33.62.43s.51.15.6.4a.7.7,0,0,1-.12.6.27.27,0,0,1-.2.13,16.38,16.38,0,0,0-6.55,2.27,18.7,18.7,0,0,0-5,4.31,24.18,24.18,0,0,0-4.14,7.85A.27.27,0,0,1,18.51,31Z"/><path class="e" d="M23,4.43,22.39,5h0L21.22,6,17.41,9.47a.3.3,0,0,0-.11.31l.06.35a7.28,7.28,0,0,1,.14,1.16,2.6,2.6,0,0,1-.6,1.77,2.74,2.74,0,0,1-.27.28l-.29.26-3.81,3.65a2.11,2.11,0,0,1,.27.95,1.52,1.52,0,0,1-.35,1l-.6.77a.15.15,0,0,0,0,.2c.22.45.2.56-.16.92s-.39.37-.54.36-.28-.15-.49-.45l-.1-.16a2.45,2.45,0,0,0-.16-.24.46.46,0,0,0-.75,0,1.71,1.71,0,0,0-.37,1.06c0,.24,0,.48,0,.72s0,.41,0,.62a2.64,2.64,0,0,1-.62,1.56c-.52.61-1.07,1.23-1.63,1.85a.59.59,0,0,1-.46.23l-.1,0A6.5,6.5,0,0,1,3,24.09c-.26-.69,1.18-2,1.25-2h0l.48-.48c.85-.85,1.74-1.72,2.62-2.58A2.27,2.27,0,0,0,8,16.81,1.58,1.58,0,0,1,8.6,15.1l.26-.23.1-.1.1-.1,0,0-.42-.46a3,3,0,0,0-.83,1,4.11,4.11,0,0,1-.63.81l0,0L5.84,14.53l.06,0a7.1,7.1,0,0,1,.88-.54,4.73,4.73,0,0,0,1.17-.81A18.3,18.3,0,0,1,9.77,11.5a4.88,4.88,0,0,0,1-1.11,7.86,7.86,0,0,1,.61-.8l0-.05L12.72,11l-.06,0-.12.09-.26.18-.46.25a3.53,3.53,0,0,0-1,.67l-.11.11,0,0,.43.47L21.25,3.72h0l.62-.56A.65.65,0,0,1,22.34,3a.58.58,0,0,1,.4.19l.33.37a.58.58,0,0,1,.15.44A.65.65,0,0,1,23,4.43ZM10.77,13.14l-.43-.47L9,13.87l.43.47ZM12,18.06a.57.57,0,0,0-.19-.39l-.17.17a5,5,0,0,0-.39.42.57.57,0,0,0,0,.88C11.8,18.74,12,18.37,12,18.06Zm4-7.32a.21.21,0,0,0-.15-.06.62.62,0,0,0-.43.2L11,15.17a.62.62,0,0,0-.21.41.23.23,0,0,0,.06.16c.11.12.39.05.58-.13l4.4-4.3C16,11.12,16.1,10.86,16,10.74Z"/></svg>