<svg xmlns="http://www.w3.org/2000/svg" viewBox="0 0 50 31.48"><defs><style>.a{opacity:0.8;}.b{fill:#fff;}.c{fill:#ffab24;}</style></defs><title>Asset 39</title><g class="a"><path class="b" d="M41.38,3a2.59,2.59,0,1,1-2.59,2.59A2.59,2.59,0,0,1,41.38,3M8.62,3A2.59,2.59,0,1,1,6,5.59,2.59,2.59,0,0,1,8.62,3M27.56,6.89v.43h6.21l.43.43v.86H44.62A2.38,2.38,0,0,1,47,11v5.74a1.08,1.08,0,1,1-2.16,0v-4.8a.22.22,0,0,0-.43,0V27.18a1.3,1.3,0,0,1-2.59,0V19.63a.43.43,0,1,0-.86,0v7.55a1.3,1.3,0,0,1-2.59,0V11h0a.21.21,0,0,0-.21-.19h-4.8a1.07,1.07,0,0,1-1-1.45l-.72-.72H26.69V7.32h.43V6.89h.43m4.91,2.16h0a1.08,1.08,0,0,1,.43-.34V8.62H32l.43.43M22.88,6.89v.43h.43v1.3H18.4l-.72.72a1.07,1.07,0,0,1-1,1.45h-4.8a.21.21,0,0,0-.21.19h0V27.18a1.3,1.3,0,0,1-2.59,0V19.63a.43.43,0,1,0-.86,0v7.55a1.3,1.3,0,0,1-2.59,0V11.94a.22.22,0,0,0-.43,0v4.8a1.08,1.08,0,1,1-2.16,0V11A2.38,2.38,0,0,1,5.38,8.62H15.8V7.76l.43-.43h6.21V6.89h.43M17.53,9.05h0L18,8.62H17.1v.09a1.08,1.08,0,0,1,.43.34M41.38,0A5.6,5.6,0,0,0,35.8,5.12a3,3,0,0,0-2-.8H29.11a3,3,0,0,0-1.55-.43h-.43A3,3,0,0,0,25,4.77a3,3,0,0,0-2.12-.88h-.43a3,3,0,0,0-1.55.43H16.23a3,3,0,0,0-2,.8A5.59,5.59,0,0,0,3,5.59q0,.28,0,.55A5.39,5.39,0,0,0,0,11v5.74a4.09,4.09,0,0,0,2.59,3.8v6.64a4.3,4.3,0,0,0,6,3.93,4.3,4.3,0,0,0,6-3.93V13.78h2a4.09,4.09,0,0,0,3.6-2.16h3A3,3,0,0,0,25,11.1a3,3,0,0,0,1.69.52h3a4.09,4.09,0,0,0,3.6,2.16h2v13.4a4.3,4.3,0,0,0,6,3.93,4.3,4.3,0,0,0,6-3.93V20.54A4.09,4.09,0,0,0,50,16.74V11a5.39,5.39,0,0,0-3.05-4.85q0-.27,0-.55A5.6,5.6,0,0,0,41.38,0Z"/></g><path class="c" d="M41.38,3a2.59,2.59,0,1,1-2.59,2.59A2.59,2.59,0,0,1,41.38,3ZM47,11v5.74a1.08,1.08,0,1,1-2.16,0v-4.8a.22.22,0,0,0-.43,0V27.18a1.3,1.3,0,0,1-2.59,0V19.63a.43.43,0,0,0-.86,0v7.55a1.3,1.3,0,1,1-2.59,0V11h0a.21.21,0,0,0-.21-.19h-4.8a1.07,1.07,0,0,1-1-1.45l-.72-.72H26.69V7.32h.43V6.89h.43v.43h6.21l.43.43v.86H44.62A2.38,2.38,0,0,1,47,11ZM32.47,9.05a1.08,1.08,0,0,1,.43-.34V8.62H32l.43.43ZM8.62,3a2.59,2.59,0,1,0,2.59,2.59A2.59,2.59,0,0,0,8.62,3ZM3,11v5.74a1.08,1.08,0,1,0,2.16,0v-4.8a.22.22,0,0,1,.43,0V27.18a1.3,1.3,0,0,0,2.59,0V19.63a.43.43,0,1,1,.86,0v7.55a1.3,1.3,0,1,0,2.59,0V11h0a.21.21,0,0,1,.21-.19h4.8a1.07,1.07,0,0,0,1-1.45l.72-.72h4.91V7.32h-.43V6.89h-.43v.43H16.23l-.43.43v.86H5.38A2.38,2.38,0,0,0,3,11ZM17.53,9.05a1.08,1.08,0,0,0-.43-.34V8.62H18l-.43.43Z"/></svg>