<svg xmlns="http://www.w3.org/2000/svg" viewBox="0 0 38.28 34"><defs><style>.a{opacity:0.8;}.b{fill:#fff;}.c{fill:#ffab24;}</style></defs><title>Asset 21</title><g class="a"><path class="b" d="M31,32.5a2.91,2.91,0,0,1-1.9-.7,2.92,2.92,0,0,1-4.83-2.22V13.05h-4a2.69,2.69,0,0,1-2.67-2.38H13a1.5,1.5,0,0,1-1.5-1.5V7.75a1.5,1.5,0,0,1,.71-1.27,1.5,1.5,0,0,1,1.27-.7h.48A1.5,1.5,0,0,1,15,6.25h5.73a1.5,1.5,0,0,1,1.06.44l.47.48a1.49,1.49,0,0,1,.33.51h2.54A4.35,4.35,0,1,1,33,7.7a4.12,4.12,0,0,1,3.74,4.1V18.1a2.69,2.69,0,0,1-2.69,2.69h-.16v8.79A2.93,2.93,0,0,1,31,32.5ZM8.88,29.76a1.5,1.5,0,0,1-.67-.16L2.33,26.67a1.5,1.5,0,0,1-.83-1.34V21.5a1.5,1.5,0,0,1,.12-.59,1.49,1.49,0,0,1-.12-.59V13.26a1.5,1.5,0,0,1,2.17-1.34l5.21,2.61,5.21-2.61a1.5,1.5,0,0,1,2.17,1.34v7.06a1.49,1.49,0,0,1-.12.59,1.5,1.5,0,0,1,.12.59v3.82a1.5,1.5,0,0,1-.83,1.34L9.55,29.61A1.5,1.5,0,0,1,8.88,29.76Z"/><path class="b" d="M29.1,3a2.85,2.85,0,1,1-2.85,2.85A2.85,2.85,0,0,1,29.1,3M13.91,7.28v.48h6.82l.48.48v1H32.66a2.61,2.61,0,0,1,2.61,2.61V18.1a1.19,1.19,0,0,1-2.38,0V12.83a.24.24,0,1,0-.48,0V29.57a1.43,1.43,0,1,1-2.85,0v-8.3a.48.48,0,1,0-1,0v8.3a1.43,1.43,0,1,1-2.85,0V11.76h0a.24.24,0,0,0-.23-.21H20.26A1.18,1.18,0,0,1,19.15,10l-.79-.79H13V7.75h.48V7.28h.48m5.4,2.38h0a1.18,1.18,0,0,1,.47-.38v-.1h-1l.48.48m-4.55,3.61v7.06L8.88,23.26,3,20.32V13.26l5.88,2.94,5.88-2.94m0,8.24v3.82L8.88,28.26,3,25.32V21.5l5.88,2.94,5.88-2.94M29.1,0a5.86,5.86,0,0,0-5.85,5.85c0,.06,0,.12,0,.17l-.39-.39a3,3,0,0,0-2.12-.88h-5.2a3,3,0,0,0-1.62-.48h-.48a3,3,0,0,0-2.35,1.13A3,3,0,0,0,10,7.75V9.18a3,3,0,0,0,1.31,2.48L8.88,12.85,4.34,10.58A3,3,0,0,0,0,13.26v7.06a3,3,0,0,0,.06.59A3,3,0,0,0,0,21.5v3.82A3,3,0,0,0,1.66,28l5.88,2.94a3,3,0,0,0,2.68,0L16.11,28a3,3,0,0,0,1.66-2.68V21.5a3,3,0,0,0-.06-.59,3,3,0,0,0,.06-.59v-6.6a4.17,4.17,0,0,0,2.5.83h2.51v15a4.42,4.42,0,0,0,6.33,4,4.43,4.43,0,0,0,6.33-4v-7.5a4.2,4.2,0,0,0,2.85-4V11.79A5.63,5.63,0,0,0,34.9,6.64,5.85,5.85,0,0,0,29.1,0Z"/></g><path class="c" d="M29.1,3a2.85,2.85,0,1,1-2.85,2.85A2.85,2.85,0,0,1,29.1,3Zm6.18,8.79V18.1a1.19,1.19,0,0,1-2.38,0V12.83a.24.24,0,1,0-.48,0V29.57a1.43,1.43,0,1,1-2.85,0v-8.3a.48.48,0,1,0-1,0v8.3a1.43,1.43,0,1,1-2.85,0V11.76h0a.24.24,0,0,0-.23-.21H20.26A1.18,1.18,0,0,1,19.15,10l-.79-.79H13V7.75h.48V7.28h.48v.48h6.82l.48.48v1H32.66A2.61,2.61,0,0,1,35.28,11.79Zm-16-2.14a1.19,1.19,0,0,1,.47-.38v-.1h-1l.48.48ZM8.88,16.21,3,13.26v7.06l5.88,2.94,5.88-2.94V13.26Zm0,8.24L3,21.5v3.82l5.88,2.94,5.88-2.94V21.5Z"/></svg>