<svg xmlns="http://www.w3.org/2000/svg" viewBox="0 0 46.43 26.02"><defs><style>.a{opacity:0.8;}.b{fill:#fff;}.c{fill:#d0021b;}</style></defs><title>Asset 131</title><g class="a"><path class="b" d="M17.27,24.52A9,9,0,0,1,11,9c.19-.19.43-.39.67-.59L14.49,6,14.58,6a8.91,8.91,0,0,1,4-1.58l1.2-1.22a4.2,4.2,0,0,1,6.14.35,4,4,0,0,1,.64-.05h.32l.39,0A4.33,4.33,0,0,1,30.5,1.92h0A4.23,4.23,0,0,1,33.37,3l1.25,1.27a8.9,8.9,0,0,1,4,1.58l.09.07,2.84,2.39.34.3.32.29a9,9,0,1,1-14.83,9.36,5.44,5.44,0,0,1-.79.06,5.12,5.12,0,0,1-.79-.06,9.15,9.15,0,0,1-8.49,6.22ZM35,11.92a3.58,3.58,0,0,0-2.74,3.51,3.63,3.63,0,1,0,3.64-3.63l-.34,0ZM17.23,11.8a3.69,3.69,0,1,0,.8.1l-.56-.08-.17,0Zm9.34,1.09a.18.18,0,1,0,.18.18A.18.18,0,0,0,26.57,12.89Z"/><path class="b" d="M30.54,3.42a2.68,2.68,0,0,1,1.81.72l1.58,1.61h0l.14.14-.13-.14a7.4,7.4,0,0,1,3.79,1.37l2.84,2.39c.21.17.38.34.58.51a7.52,7.52,0,1,1-12.69,6.33,3.53,3.53,0,0,1-1.88.51,3.87,3.87,0,0,1-1.88-.51A7.5,7.5,0,0,1,9.74,15.5,7.54,7.54,0,0,1,12,10.09c.17-.17.38-.34.58-.51l2.84-2.39a7.4,7.4,0,0,1,3.79-1.37L19.11,6l.14-.14h0l1.58-1.61A2.68,2.68,0,0,1,25.2,5.34,2.53,2.53,0,0,1,26.54,5h.21a2.74,2.74,0,0,1,1.2.38,2.77,2.77,0,0,1,2.6-1.92m5.37,17.14a5.13,5.13,0,0,0,0-10.26c-.17,0-.31,0-.48,0l-.65.1a5.12,5.12,0,0,0,1.13,10.13m-18.68,0a5.12,5.12,0,0,0,1.13-10.12l-.65-.1a2.26,2.26,0,0,0-.48,0,5.13,5.13,0,1,0,0,10.26m9.34-5.81a1.68,1.68,0,1,0-1.68-1.68,1.68,1.68,0,0,0,1.68,1.68m4-14.32h-.08A5.85,5.85,0,0,0,26.65,2h-.17a5.71,5.71,0,0,0-7.7,0l-.1.1L17.82,3A10.38,10.38,0,0,0,13.7,4.75l-.18.14L10.68,7.29c-.23.19-.5.42-.77.69A10.52,10.52,0,0,0,17.27,26h.05a10.67,10.67,0,0,0,9.25-5.75A10.52,10.52,0,1,0,43.24,7.88l-.17-.16-.19-.17-.39-.34L39.66,4.82l-.18-.14a10.39,10.39,0,0,0-4.12-1.77L34.49,2l-.1-.1A5.65,5.65,0,0,0,30.54.42ZM17.23,17.56a2.13,2.13,0,1,1,0-4.26h0l.52.08a2.12,2.12,0,0,1-.55,4.18Zm18.5-4.24.25,0a2.13,2.13,0,1,1-2.2,2.13,2.11,2.11,0,0,1,1.58-2l.37-.06Z"/><path class="b" d="M5.23,21.5A3.11,3.11,0,0,1,2,18.44v-.29a3,3,0,0,1,1.43-2.59A3,3,0,0,1,2.22,13.3L1.51,5.51a3.65,3.65,0,0,1,1-2.78A3.69,3.69,0,0,1,5.19,1.5,3.72,3.72,0,0,1,8,2.78a3.56,3.56,0,0,1,.88,2.79l-.67,7.78A3.07,3.07,0,0,1,7,15.55a3.1,3.1,0,0,1,1.49,2.59v.29A3.11,3.11,0,0,1,5.23,21.5Z"/><path class="b" d="M5.19,3A2.2,2.2,0,0,1,7.37,5.38L6.7,13.22a1.57,1.57,0,0,1-1.55,1.43H5.07a1.49,1.49,0,0,1-1.35-1.43L3,5.38A2.24,2.24,0,0,1,5.19,3m0,13.54A1.71,1.71,0,0,1,7,18.15v.3A1.62,1.62,0,0,1,5.23,20,1.62,1.62,0,0,1,3.5,18.44v-.3a1.65,1.65,0,0,1,1.73-1.6M5.19,0A5.2,5.2,0,0,0,1.36,1.72,5.15,5.15,0,0,0,0,5.67l.71,7.79a4.53,4.53,0,0,0,.64,2A4.49,4.49,0,0,0,.5,18.15v.3A4.6,4.6,0,0,0,5.23,23,4.6,4.6,0,0,0,10,18.44v-.3A4.46,4.46,0,0,0,9,15.46a4.6,4.6,0,0,0,.64-2l.67-7.81A5.06,5.06,0,0,0,9.1,1.79,5.22,5.22,0,0,0,5.19,0Z"/></g><path class="c" d="M24.69,16.35a3.87,3.87,0,0,0,1.88.51,3.53,3.53,0,0,0,1.88-.51A7.52,7.52,0,1,0,41.14,10c-.21-.17-.38-.34-.58-.51h0L37.72,7.12a7.4,7.4,0,0,0-3.8-1.37l.14.14L32.35,4.14h0a2.68,2.68,0,0,0-1.81-.72,2.77,2.77,0,0,0-2.6,1.92A2.74,2.74,0,0,0,26.74,5h-.21a2.53,2.53,0,0,0-1.33.38,2.68,2.68,0,0,0-4.38-1.13h0L19.11,6l.14-.14a7.4,7.4,0,0,0-3.8,1.37L12.61,9.58h0c-.21.17-.41.34-.58.51A7.52,7.52,0,0,0,17.27,23,7.62,7.62,0,0,0,24.69,16.35Zm10.09-5.92.65-.1c.17,0,.31,0,.48,0a5.19,5.19,0,1,1-1.13.14Zm-8.21,1a1.68,1.68,0,1,1-1.68,1.68A1.68,1.68,0,0,1,26.57,11.39Zm-9.34,9.17a5.13,5.13,0,0,1,0-10.26,2.26,2.26,0,0,1,.48,0l.65.1a5.12,5.12,0,0,1-1.13,10.12Z"/><path class="c" d="M5.23,16.54A1.71,1.71,0,0,1,7,18.15v.3A1.62,1.62,0,0,1,5.23,20,1.62,1.62,0,0,1,3.5,18.44v-.3a1.65,1.65,0,0,1,1.73-1.6ZM3,5.38l.71,7.85a1.49,1.49,0,0,0,1.35,1.43A1.57,1.57,0,0,0,6.7,13.22l.67-7.85A2.2,2.2,0,0,0,5.19,3,2.24,2.24,0,0,0,3,5.38Z"/></svg>