<svg xmlns="http://www.w3.org/2000/svg" viewBox="0 0 30 30"><defs><style>.a{opacity:0.8;}.b{fill:#fff;}.c{fill:#acafb2;}</style></defs><title>Asset 139</title><g class="a"><path class="b" d="M15,28.5a13.5,13.5,0,0,1,0-27,13.36,13.36,0,0,1,6.05,1.44,1.49,1.49,0,0,1,.62.59h0a1.5,1.5,0,0,1,.84.25A13.5,13.5,0,0,1,15,28.5Zm.05-14a.49.49,0,1,0,.45.49.49.49,0,0,0-.1-.29l-.11-.18-.2,0Z"/><path class="b" d="M15,3a11.93,11.93,0,0,1,5.38,1.28L18.75,7.1a8.52,8.52,0,0,0-5.19-.73,1.3,1.3,0,0,0-2.23.69A8.75,8.75,0,1,0,20,7.86L21.68,5A12,12,0,1,1,15,3m0,4.25A7.7,7.7,0,0,1,18.25,8L16.67,10.7a4.7,4.7,0,1,0,1.29.77l1.58-2.74a7.75,7.75,0,1,1-8-.67,1.3,1.3,0,0,0,1.05.56,1.32,1.32,0,0,0,1.32-1.29A7.78,7.78,0,0,1,15,7.25m0,4a3.71,3.71,0,0,1,1.23.22L15.33,13A2,2,0,1,0,17,15a2,2,0,0,0-.39-1.18l.91-1.58a3.74,3.74,0,1,1-2.52-1M15,0a15,15,0,1,0,8.35,2.54,3,3,0,0,0-.88-.4,3,3,0,0,0-.75-.53A14.84,14.84,0,0,0,15,0Z"/></g><path class="c" d="M27,15A12,12,0,1,1,20.38,4.28L18.75,7.1a8.52,8.52,0,0,0-5.19-.73,1.3,1.3,0,0,0-2.23.69A8.75,8.75,0,1,0,20,7.86L21.68,5A12,12,0,0,1,27,15ZM19.54,8.73,18,11.47a4.6,4.6,0,1,1-1.29-.77L18.25,8a7.5,7.5,0,0,0-4.32-.64,1.32,1.32,0,0,1-1.32,1.29,1.3,1.3,0,0,1-1.05-.56,7.75,7.75,0,1,0,8,.67Zm-2,3.51-.91,1.58A2.07,2.07,0,1,1,15.33,13l.9-1.56a3.75,3.75,0,1,0,1.29.77Z"/></svg>