<svg xmlns="http://www.w3.org/2000/svg" viewBox="0 0 38 27.49"><defs><style>.a{opacity:0.8;}.b,.c{fill:#fff;}.b,.d{fill-rule:evenodd;}.d{fill:#acafb2;}</style></defs><title>Asset 121</title><g class="a"><path class="b" d="M26.85,26a6.21,6.21,0,0,1-1.25-.12,2.31,2.31,0,0,1-.81-.41l-.4,0a2.15,2.15,0,0,1-.75-.13,2.58,2.58,0,0,1-1.58-1.87l0-.14a1.65,1.65,0,0,1-.29-.48,7,7,0,0,1-.33-2c0-.26,0-.51-.06-.71s0-.25,0-.43,0-.18,0-.29l-1.56-.11-1-.1a13,13,0,0,0-1.45-.12H17a4.24,4.24,0,0,0-.35.32l-.41.38L14.88,21l-.35.29-.28.21c0,.12.06.23.07.31v0l.06.07a3.32,3.32,0,0,1,.88,1.65,1.54,1.54,0,0,1-.17,1.19,1.51,1.51,0,0,1-1,.7,4.5,4.5,0,0,1-.9.1,2.91,2.91,0,0,1-2.21-1,3.64,3.64,0,0,1-.8-2.08c0-.12,0-.24-.05-.35a1.28,1.28,0,0,0-.1-.22c-.05-.1-.12-.23-.18-.38a2.19,2.19,0,0,0-.42.2,1.19,1.19,0,0,0-.25.76l0,0a2,2,0,0,1,.6,1.6,1.61,1.61,0,0,1-1.64,1.75l-.24-1.5.1,1.5-.47,0a2.42,2.42,0,0,1-2.45-1.6A4.57,4.57,0,0,1,5,22.2c0-.14,0-.27,0-.38s0-.46,0-.54a7.8,7.8,0,0,1-2.32-1l-.48-.26A1.5,1.5,0,0,1,3,17.23h.3l.52,0a2.33,2.33,0,0,0,.58-.06l.3-.08c.06-.07.13-.16.22-.28A30,30,0,0,0,7,13.7l.13-.26a4.09,4.09,0,0,1,.83-1.24,10,10,0,0,1,1.93-1.29A12.22,12.22,0,0,1,12.16,10l.68-.23.83-.31a16.82,16.82,0,0,1,2.14-.7l-2-2a1.5,1.5,0,0,1,0-2.12l1-1a1.5,1.5,0,0,1,2.12,0L20,6.66l3.09-3.09a1.5,1.5,0,0,1,2.12,0l1,1a1.5,1.5,0,0,1,.43.86l0,0,.42-.29a3.73,3.73,0,0,0,.35-.24,1.1,1.1,0,0,1,.07-.26,4.94,4.94,0,0,1,.34-.79c.21-.37.42-.72.63-1.08l.32-.54a1.5,1.5,0,0,1,2-.59l.07,0h0a1.63,1.63,0,0,1,1.19.55,2.4,2.4,0,0,1,.3,2.09v0a2.77,2.77,0,0,1,1.33.77,3.06,3.06,0,0,1,.61,1.35c.9.52,2,1.17,2.12,2.33.07.58,0,2.52-3.17,2.91l-.62.05c-.45,0-.67.06-.75.14l-.51.49a4,4,0,0,0-.89,1c-.1.22-.18.47-.27.72a7.55,7.55,0,0,1-1,2,4.37,4.37,0,0,1-1.17,1l-.34.23c0,.07,0,.14,0,.2s0,.35,0,.48l-.18,1.61a8.65,8.65,0,0,0,0,1.72c0,.14,0,.34,0,.55,0,.07,0,.15,0,.24a3.18,3.18,0,0,1,.47.33A2.28,2.28,0,0,1,29,24.21a1.77,1.77,0,0,1-.63,1.35A2.13,2.13,0,0,1,26.85,26Z"/><path class="c" d="M30.19,3c.38.19.18.58.19.89l.56-.71c.23,0,0,1-.07,1.53s-.14.61.34.83,1.16.27,1.41.56a4.54,4.54,0,0,1,.42,1.32c.51.35,1.88,1,1.94,1.54.1.92-1.22,1.17-1.86,1.25-.87.1-1.65,0-2.26.63a7.45,7.45,0,0,0-1.7,2,13.1,13.1,0,0,1-1.06,2.44c-.41.55-1.4.86-1.69,1.47a4.33,4.33,0,0,0-.13,1.18l-.18,1.62a10.1,10.1,0,0,0,0,2,4.92,4.92,0,0,0,.11,1.5c.16.28.63.43.88.65s.59.51.28.77a1.11,1.11,0,0,1-.5.07,5,5,0,0,1-.85-.07c-.31-.08-.46-.38-.76-.47a.67.67,0,0,0-.2,0c-.21,0-.44.06-.64.06a.64.64,0,0,1-.23,0,1.16,1.16,0,0,1-.66-.86,3.24,3.24,0,0,0-.13-.53c0-.1-.2-.13-.24-.23a14.08,14.08,0,0,1-.3-2.4c-.06-.41-.08-1.67-.51-1.91a1,1,0,0,0-.46-.07H21.4l-1.59-.12c-.84-.06-1.74-.23-2.59-.23h-.36c-.65,0-1.07.63-1.57,1.06s-1.15,1-1.72,1.44c-.18.15-.86.54-.93.77a3.75,3.75,0,0,0,.2,1.14,1.32,1.32,0,0,0,.5.93,1.87,1.87,0,0,1,.48,1,3,3,0,0,1-.6.07,1.41,1.41,0,0,1-1.1-.46,3.56,3.56,0,0,1-.49-1.7c-.11-.58-.5-.85-.47-1.41s.45-1,.87-1.44l-1.76.78a8.29,8.29,0,0,0-1.76.77A2.33,2.33,0,0,0,8,23.38c.23.29.36.28.34.67s0,.33-.14.33H7.93l-.36,0a1,1,0,0,1-1-.63,5.89,5.89,0,0,1,0-1.86,6.65,6.65,0,0,1,.16-1.58c.17-.53.81-.6,1.26-.94a7.9,7.9,0,0,0,1-1,8.41,8.41,0,0,1-2.74,1.49l-.32,0A6.53,6.53,0,0,1,3,18.73l.82,0a3.82,3.82,0,0,0,.95-.1,1.76,1.76,0,0,0,1.36-.92,31.26,31.26,0,0,0,2.16-3.29A5.08,5.08,0,0,1,9,13.29a9.06,9.06,0,0,1,1.63-1.08,16,16,0,0,1,2.73-1.05,27.68,27.68,0,0,1,2.86-1c.41-.09.84-.17,1.26-.23l-3.3,3.3a1,1,0,0,0,0,1.41l1,1a1,1,0,0,0,1.41,0L20,12.27l3.44,3.44a1,1,0,0,0,1.41,0l1-1a1,1,0,0,0,0-1.41L22.5,9.82l.71-.71L24,9a3.47,3.47,0,0,0,1.72-.92l1.91-1.43a5.5,5.5,0,0,0,1-.77,10.78,10.78,0,0,0,.57-1.27c.3-.54.62-1.07.94-1.6m-5.1,20a10.57,10.57,0,0,1-.64-3.31c0,.54-.46,2.75.26,3l.38.27M24.2,4.63l1,1L21.08,9.82h0L25.24,14l-1,1L20,10.85h0L15.9,15l-1-1L19,9.82h0v0l0,0L14.86,5.66l1-1L20,8.78h0L24.2,4.63M17.45,10h0M30.19,0A3,3,0,0,0,27.6,1.49L27.29,2l-.54.93-.43-.43a3,3,0,0,0-4.24,0l-2,2-2-2a3,3,0,0,0-2.12-.88h0a3,3,0,0,0-2.12.88l-1,1a3,3,0,0,0,0,4.24l.29.29-.68.25-.65.22a13.59,13.59,0,0,0-2.55,1A11.26,11.26,0,0,0,6.92,11.1a5.48,5.48,0,0,0-1.15,1.67L5.68,13a28.47,28.47,0,0,1-1.82,2.8H3A3,3,0,0,0,1.6,21.39l.45.24a13.3,13.3,0,0,0,1.46.73,5.33,5.33,0,0,0,.21,2.46A3.94,3.94,0,0,0,7.57,27.4l.54,0h.07a3.14,3.14,0,0,0,2.44-1.15,4.42,4.42,0,0,0,2.6.8,6,6,0,0,0,1.2-.13,3,3,0,0,0,2.3-3.71,5.42,5.42,0,0,0-.51-1.35l1-.88.36-.33.9.09c.37,0,.74.08,1.1.11l.31,0V21a8.21,8.21,0,0,0,.42,2.43,3.14,3.14,0,0,0,.32.62,4.06,4.06,0,0,0,2.47,2.75,3.63,3.63,0,0,0,1.27.22h0a3.66,3.66,0,0,0,.82.33,7.28,7.28,0,0,0,1.63.17,3.6,3.6,0,0,0,2.45-.79,3.29,3.29,0,0,0,1.15-2.49,3.65,3.65,0,0,0-1.38-2.79c0-.05,0-.1,0-.14a7.12,7.12,0,0,1,0-1.43l0-.13.17-1.49v0A5.12,5.12,0,0,0,30.53,17a8.89,8.89,0,0,0,1.16-2.4c.07-.2.14-.4.22-.58a6.37,6.37,0,0,1,.56-.57l.23-.22h.11l.69-.06c3.64-.44,4.69-2.74,4.48-4.57a4.39,4.39,0,0,0-2.33-3.14,4,4,0,0,0-.76-1.35A3.59,3.59,0,0,0,34,3.42a3.18,3.18,0,0,0-.76-2.15,3.06,3.06,0,0,0-2-1.06A3,3,0,0,0,30.19,0Z"/></g><path class="d" d="M19,9.82,14.84,5.67l1-1L20,8.77h0l4.14-4.16,1,1L21.08,9.81h0L25.24,14l-1,1L20,10.85h0L15.9,15l-1-1L19,9.8Zm16-.89c.11.92-1.21,1.18-1.86,1.26-.87.11-1.65,0-2.26.64a7.45,7.45,0,0,0-1.69,2,13.1,13.1,0,0,1-1.05,2.45c-.41.55-1.4.86-1.69,1.47a4.33,4.33,0,0,0-.13,1.18l-.18,1.62a10.11,10.11,0,0,0,0,2A4.92,4.92,0,0,0,26.2,23c.16.28.63.43.88.65s.59.51.28.77a3.64,3.64,0,0,1-1.35,0c-.31-.08-.46-.38-.76-.47s-.76.12-1.07,0a1.16,1.16,0,0,1-.66-.86,3.24,3.24,0,0,0-.13-.53c0-.1-.2-.13-.24-.23a14.08,14.08,0,0,1-.31-2.39c-.06-.41-.09-1.67-.51-1.91a2.87,2.87,0,0,0-.92-.07l-1.59-.11a22.73,22.73,0,0,0-3-.21c-.65,0-1.07.63-1.57,1.06s-1.14,1-1.72,1.45c-.18.15-.85.55-.93.77a3.74,3.74,0,0,0,.2,1.14,1.32,1.32,0,0,0,.5.93,1.86,1.86,0,0,1,.48,1,1.67,1.67,0,0,1-1.7-.39,3.56,3.56,0,0,1-.49-1.7c-.11-.58-.5-.85-.47-1.41s.45-1,.87-1.44l-1.76.78a8.29,8.29,0,0,0-1.76.78A2.33,2.33,0,0,0,8,23.4c.23.29.36.28.34.67s0,.3-.38.33c-.59,0-1.16.05-1.41-.61a5.89,5.89,0,0,1,0-1.86,6.65,6.65,0,0,1,.16-1.58c.17-.53.81-.6,1.26-.94a7.9,7.9,0,0,0,1-1,8.41,8.41,0,0,1-2.73,1.5C5,20,4,19.29,3,18.76a6,6,0,0,0,1.77-.08,1.76,1.76,0,0,0,1.36-.92,31.26,31.26,0,0,0,2.15-3.29A5.08,5.08,0,0,1,9,13.31a9.06,9.06,0,0,1,1.63-1.08,16,16,0,0,1,2.73-1.06,27.68,27.68,0,0,1,2.86-1c.41-.1.84-.17,1.26-.23l-3.29,3.31a1,1,0,0,0,0,1.41l1,1a1,1,0,0,0,1.41,0L20,12.27l3.45,3.44a1,1,0,0,0,1.41,0l1-1a1,1,0,0,0,0-1.41L22.49,9.81l.71-.71L24,9a3.47,3.47,0,0,0,1.72-.92l1.91-1.43a5.5,5.5,0,0,0,1-.77,10.8,10.8,0,0,0,.57-1.27c.3-.54.62-1.07.93-1.6.39.19.18.58.19.89l.56-.71c.23,0,0,1-.06,1.53s-.14.61.35.83,1.16.27,1.42.56A4.54,4.54,0,0,1,33,7.4C33.56,7.76,34.92,8.37,35,8.94ZM25.1,23a10.57,10.57,0,0,1-.65-3.31c0,.54-.45,2.75.27,3Z"/></svg>