<svg id="80678952-4816-4b29-9559-5919618a2f0e" data-name="Layer 1" xmlns="http://www.w3.org/2000/svg" viewBox="0 0 60 60"><defs><style>.f06078f1-e8eb-4ec2-89ec-a6365d87cbde{fill:#fff;}.fdf80d36-0600-45c2-8b0d-81bd7407f097{fill:#d0021b;}</style></defs><title>DAS map icons 078-134</title><path class="f06078f1-e8eb-4ec2-89ec-a6365d87cbde" d="M47.5,41.48a6.24,6.24,0,0,1-3.21-1,5.82,5.82,0,0,1-3.25,1,5.23,5.23,0,0,1-3.05-1,5.2,5.2,0,0,1-6.11,0,5.2,5.2,0,0,1-6.12,0,5.35,5.35,0,0,1-3.08,1,5.43,5.43,0,0,1-3.12-1,5.63,5.63,0,0,1-3.17,1,6.06,6.06,0,0,1-3.26-1,5.78,5.78,0,0,1-3.62,1A1.5,1.5,0,0,1,8,40V38.46a1.49,1.49,0,0,1,.22-.78A1.49,1.49,0,0,1,8,36.9V35.38a1.5,1.5,0,0,1,1.5-1.5,2.49,2.49,0,0,0,2.42-1,1.5,1.5,0,0,1,.6-.43,1.49,1.49,0,0,1,.09-.31c.09-.21.17-.39.26-.57.58-1.37,2-4.45,3.21-5.53a12,12,0,0,1,7.31-3.27A18.36,18.36,0,0,0,28,21.37a4.38,4.38,0,0,1,3.39-1.76,4.13,4.13,0,0,1,1.21.19c1.33-.14,2.83-.33,3.21-.44h0a11.57,11.57,0,0,1,3.41-.84,2.55,2.55,0,0,1,1,.18,8.57,8.57,0,0,1,3.32,2.2,8.78,8.78,0,0,1,2.16,2.22A32.27,32.27,0,0,1,48.51,27l0,.08A7.38,7.38,0,0,0,49.4,27a1.5,1.5,0,0,1,.58-.12,1.5,1.5,0,0,1,1.41,1,1.59,1.59,0,0,1,.09.81,1.46,1.46,0,0,1-.35,1.4,5.56,5.56,0,0,1-1.25.95c0,1.56-.34,4.27-2.08,6A1.5,1.5,0,0,1,49,38.46V40A1.5,1.5,0,0,1,47.5,41.48ZM39,32.74l.14.15a2.54,2.54,0,0,0,1.9,1l.27,0a2.76,2.76,0,0,1,2.59-2.15h.19a3.86,3.86,0,0,0-.34-.63,1.47,1.47,0,0,1-.5.22,2.29,2.29,0,0,1-1.89-.43l-.09,0-.38,0a2.56,2.56,0,0,1-.57,1.31,1.5,1.5,0,0,1-1.09.53Z"/><path class="f06078f1-e8eb-4ec2-89ec-a6365d87cbde" d="M39.25,20a1.13,1.13,0,0,1,.42.06A7.18,7.18,0,0,1,42.54,22a7.39,7.39,0,0,1,2,2,33.58,33.58,0,0,1,2.69,3.73l.54.88A9.72,9.72,0,0,0,50,28.39s.11.31-1.13.93A3.74,3.74,0,0,0,50,29a3.71,3.71,0,0,1-1.7,1s.41,4.74-2.18,6.36a3,3,0,0,1-1.53.42c-.95,0-1.9-.51-2-2.14,0,0,.18-1.46,1.24-1.46l.26,0s-.34.67.1.74c0,0-.76,1.31.38,1.36h.07c.47,0,1.33-.22,1.22-2.55A5.46,5.46,0,0,0,44,29.22l-.64.11-.43.52h-.16a.71.71,0,0,1-.63-.34l-.8-.19a7.89,7.89,0,0,1-1.21.11,1.37,1.37,0,0,1-.91-.21s.49,1.39,0,2h-.59a4.73,4.73,0,0,1-2-.26s.38,1,.78,1.94a3.8,3.8,0,0,1-2.44.92,4,4,0,0,1-3.05-1.53,3.81,3.81,0,0,1-6.1,0,3.81,3.81,0,0,1-6.1,0,4,4,0,0,1-3.05,1.53A3.84,3.84,0,0,1,14,32.73a5.2,5.2,0,0,1,.23-.5S16,28,17.11,27.13a10.31,10.31,0,0,1,6.5-2.87s5-1,5.61-2a2.91,2.91,0,0,1,2.19-1.15,2.73,2.73,0,0,1,1,.21,32.19,32.19,0,0,0,4-.57A10.86,10.86,0,0,1,39.25,20M38,33.85A4,4,0,0,0,41,35.38a3.58,3.58,0,0,0,1.24-.24l.52,1.31A3.67,3.67,0,0,1,41,36.9,4,4,0,0,1,38,35.38a3.82,3.82,0,0,1-6.11,0,3.84,3.84,0,0,1-6.12,0,4,4,0,0,1-3.08,1.53,4.11,4.11,0,0,1-3.11-1.53,4.25,4.25,0,0,1-3.18,1.53,5.09,5.09,0,0,1-3.56-1.53A4.47,4.47,0,0,1,9,36.9V35.38a4.47,4.47,0,0,0,3.82-1.53,5.41,5.41,0,0,0,3.69,1.53,4.11,4.11,0,0,0,3.11-1.53,3.86,3.86,0,0,0,6.15,0,3.82,3.82,0,0,0,6.11,0,3.82,3.82,0,0,0,6.1,0m6,3.08a4.21,4.21,0,0,0,3,1.53V40a4.21,4.21,0,0,1-3-1.53A4.09,4.09,0,0,1,40.91,40a3.86,3.86,0,0,1-3-1.53,3.77,3.77,0,0,1-6.06,0,3.83,3.83,0,0,1-6.11,0A4,4,0,0,1,22.67,40a4.11,4.11,0,0,1-3.11-1.53A4.24,4.24,0,0,1,16.38,40a5.09,5.09,0,0,1-3.56-1.53A4.47,4.47,0,0,1,9,40V38.46a4.47,4.47,0,0,0,3.82-1.53,5.41,5.41,0,0,0,3.69,1.53,4.11,4.11,0,0,0,3.11-1.53,3.86,3.86,0,0,0,6.15,0,3.83,3.83,0,0,0,6.12,0,3.85,3.85,0,0,0,6.14,0,3.82,3.82,0,0,0,3,1.53,3.91,3.91,0,0,0,3-1.53M39.25,17a12.24,12.24,0,0,0-3.88.91c-.42.09-1.58.24-2.64.35a5.57,5.57,0,0,0-1.33-.16A5.86,5.86,0,0,0,27,20.2a22.53,22.53,0,0,1-3.87,1.09A13.44,13.44,0,0,0,15,25c-1.3,1.21-2.6,3.85-3.5,6-.1.19-.17.37-.24.51a3.05,3.05,0,0,0-.51.49c-.31.37-.62.45-1.51.45a3.22,3.22,0,0,0-3.25,3V36.9a3,3,0,0,0,.1.78,3,3,0,0,0-.1.78V40a3.22,3.22,0,0,0,3.25,3A8.53,8.53,0,0,0,13,42.22a7.71,7.71,0,0,0,3.29.76,7.19,7.19,0,0,0,3.19-.76,6.92,6.92,0,0,0,3.15.76,6.8,6.8,0,0,0,3.09-.75,6.65,6.65,0,0,0,6.13,0,6.61,6.61,0,0,0,6.11,0A6.69,6.69,0,0,0,41,43a7.24,7.24,0,0,0,3.26-.81,6.35,6.35,0,0,0,2.95.81A2.8,2.8,0,0,0,50,40V38.46a2.86,2.86,0,0,0-.33-1.77,11.35,11.35,0,0,0,1.53-4.81,9,9,0,0,0,.94-.75A3,3,0,0,0,53,28.47a3.24,3.24,0,0,0-.18-1.11,3,3,0,0,0-3.45-1.9c-.73-1.12-1.81-2.49-2.4-3.22a10.24,10.24,0,0,0-2.37-2.46,10.16,10.16,0,0,0-3.86-2.51A4.14,4.14,0,0,0,39.25,17Z"/><path class="fdf80d36-0600-45c2-8b0d-81bd7407f097" d="M48.35,30s.41,4.74-2.18,6.36c-1,.63-3.38.91-3.5-1.72,0,0,.21-1.69,1.5-1.43,0,0-.34.67.1.74,0,0-.76,1.31.38,1.36.45,0,1.41-.1,1.29-2.54A5.46,5.46,0,0,0,44,29.22l-.64.11-.43.52a.75.75,0,0,1-.78-.32l-.8-.19s-1.73.31-2.11-.1c0,0,.49,1.39,0,2,0,0-2.2.08-2.57-.25,0,0,.38,1,.78,1.94a3.8,3.8,0,0,1-2.44.92,4,4,0,0,1-3.05-1.53,3.81,3.81,0,0,1-6.1,0,3.81,3.81,0,0,1-6.1,0,4,4,0,0,1-3.05,1.53A3.84,3.84,0,0,1,14,32.73a5.18,5.18,0,0,1,.23-.5S16,28,17.11,27.13a10.31,10.31,0,0,1,6.5-2.87s5-1,5.61-2a2.74,2.74,0,0,1,3.21-.94,32.19,32.19,0,0,0,4-.57s2.49-1,3.28-.67A7.18,7.18,0,0,1,42.54,22a7.39,7.39,0,0,1,2,2,33.6,33.6,0,0,1,2.69,3.73l.54.88A9.72,9.72,0,0,0,50,28.39s.11.31-1.13.93A3.74,3.74,0,0,0,50,29,3.71,3.71,0,0,1,48.35,30Zm-3.83,6.92a4.42,4.42,0,0,1-3.27,1.53,4.2,4.2,0,0,1-3.16-1.53A4.09,4.09,0,0,1,35,38.46a4,4,0,0,1-3.08-1.53,3.83,3.83,0,0,1-6.12,0,3.82,3.82,0,0,1-6.11,0,4,4,0,0,1-3.05,1.53,4.54,4.54,0,0,1-3.32-1.53A3.49,3.49,0,0,1,10,38.46V40a3.49,3.49,0,0,0,3.32-1.53A4.25,4.25,0,0,0,16.5,40a4.12,4.12,0,0,0,3.12-1.53,3.86,3.86,0,0,0,6.15,0,3.83,3.83,0,0,0,6.11,0,3.82,3.82,0,0,0,6.1,0A4,4,0,0,0,41,40a4.9,4.9,0,0,0,3.48-1.53A5.33,5.33,0,0,0,48,40V38.46A5.33,5.33,0,0,1,44.52,36.93ZM41,35.38A4,4,0,0,1,38,33.85a3.81,3.81,0,0,1-6.1,0,3.81,3.81,0,0,1-6.1,0,3.81,3.81,0,0,1-6.1,0,4,4,0,0,1-3.05,1.53,4.54,4.54,0,0,1-3.32-1.53A3.49,3.49,0,0,1,10,35.38V36.9a3.49,3.49,0,0,0,3.32-1.53A4.25,4.25,0,0,0,16.5,36.9a4.12,4.12,0,0,0,3.12-1.53,3.86,3.86,0,0,0,6.15,0,3.83,3.83,0,0,0,6.11,0,3.82,3.82,0,0,0,6.1,0A4,4,0,0,0,41,36.9a3.67,3.67,0,0,0,1.76-.46l-.52-1.31A3.58,3.58,0,0,1,41,35.38Z"/></svg>