<svg xmlns="http://www.w3.org/2000/svg" viewBox="0 0 35 25.39"><defs><style>.a{opacity:0.8;}.b{fill:#262626;}.c{fill:#fff;}.d{fill:#4f8317;}</style></defs><title>Asset 179</title><g class="a"><path class="b" d="M21,2.17a25.35,25.35,0,0,0,3.14.26s2.09-.32,2.63.07a5.65,5.65,0,0,1,1.86,2,5.82,5.82,0,0,1,1.16,1.86,26.44,26.44,0,0,1,1.41,3.34l.26.77a7.65,7.65,0,0,0,1.77.22s0,.26-1,.52a3,3,0,0,0,1,0,2.92,2.92,0,0,1-1.48.45s.2,3.78-2.73,5c0,0-2.73.48-2.44-2.09,0,0,.42-1.38,1.41-.74,0,0-.39.29-.07.42,0,0-.64.8,0,1,0,0,1.19.52,1.51-1.78a4.3,4.3,0,0,0-.87-3.08l-.52,0-.42.32A.59.59,0,0,1,27,10.2l-.59-.29S25,9.84,24.78,9.46c0,0,.13,1.16-.39,1.54,0,0-1.7-.32-1.93-.64a22.81,22.81,0,0,0,.59,3l.74,2.6a12.67,12.67,0,0,0,.71,2.31,8.58,8.58,0,0,1,.42,2.37s.29,1.28.77,1.57c0,0,1.06.55.48,1,0,0-3.66.74-3.27-.29,0,0,.52-1,.39-1.45a23.47,23.47,0,0,0-1.64-3.37,19.44,19.44,0,0,1-2.12-2.86s-1.12,2.7-1.25,3a11.37,11.37,0,0,1-.87,2.6S17,22,17.5,22.29c0,0,1.22.8.77,1.19,0,0-3.5.59-3.56-.23a1.5,1.5,0,0,1,.39-.93,2.57,2.57,0,0,0,.23-1.57,22.63,22.63,0,0,1,.26-2.44s.36-2.28.39-3.43c0,0-.16-.9-.32-1a7.65,7.65,0,0,1-3.27,1s-1.57.16-1.54.36a6.77,6.77,0,0,1-1,.93A6,6,0,0,0,9.16,18s-.23,2.82.36,3.3c0,0,1.32,1,1,1.73,0,0-3.21.52-3.69-.16a10.86,10.86,0,0,1,.26-2.73s.29-3.21-.29-3.75a8.12,8.12,0,0,0-1.61,1.89,22.54,22.54,0,0,0-1.09,3.4s.45,1.12-.13,1.45c0,0-2.37.26-2.18-1.06a4.54,4.54,0,0,1,.55-1.41,13.36,13.36,0,0,0,1.23-3.58l.07-1.67a12.85,12.85,0,0,0-.36,1.78S3,19.45,2.2,20a20.34,20.34,0,0,1,.52-2.57,19.49,19.49,0,0,0,.59-3.34,22.19,22.19,0,0,0,.48-3.88A6.14,6.14,0,0,1,5.07,7.32s2.12-2.92,3.11-3.4a8.13,8.13,0,0,1,5.49-1.06s4,.13,4.66-.55A2.16,2.16,0,0,1,21,2.17Z"/><path class="c" d="M19.8,1.78A2,2,0,0,1,21,2.17s2.11.27,2.91.27h.24a12,12,0,0,1,1.56-.12,2.13,2.13,0,0,1,1.07.19,5.65,5.65,0,0,1,1.86,2,5.82,5.82,0,0,1,1.16,1.86A26.43,26.43,0,0,1,31.2,9.7l.26.77a10.89,10.89,0,0,0,1.58.2h.18s0,.26-1,.52a3.72,3.72,0,0,0,.54,0,1.78,1.78,0,0,0,.42,0,3,3,0,0,1-1.41.45h-.07s.2,3.78-2.73,5a3.13,3.13,0,0,1-.47,0,1.74,1.74,0,0,1-1.95-2.12s.27-.91.91-.91a.93.93,0,0,1,.5.17s-.39.29-.07.42c0,0-.64.8,0,1a.77.77,0,0,0,.28,0c.37,0,1-.24,1.23-1.84a4.3,4.3,0,0,0-.87-3.08l-.52,0-.42.32a.59.59,0,0,1-.55-.39l-.59-.29S25,9.79,24.8,9.41c0,0,.13,1.16-.39,1.54,0,0-1.7-.32-1.93-.64a22.81,22.81,0,0,0,.59,3l.74,2.6a12.67,12.67,0,0,0,.71,2.31,8.58,8.58,0,0,1,.42,2.37s.29,1.28.77,1.57c0,0,1.06.55.48,1a13.83,13.83,0,0,1-2.24.26c-.67,0-1.19-.12-1-.55,0,0,.52-1,.39-1.45a23.47,23.47,0,0,0-1.64-3.37,19.44,19.44,0,0,1-2.12-2.86s-1.12,2.7-1.25,3a11.37,11.37,0,0,1-.87,2.6s-.45,1.06.09,1.38c0,0,1.22.8.77,1.19a16.29,16.29,0,0,1-2.22.2c-.7,0-1.29-.09-1.3-.43a1.5,1.5,0,0,1,.39-.93,2.57,2.57,0,0,0,.17-1.51,22.63,22.63,0,0,1,.26-2.44s.36-2.28.39-3.43c0,0-.16-.9-.32-1a7.94,7.94,0,0,1-3.15,1h-.12s-1.57.16-1.54.36a6.77,6.77,0,0,1-1,.93A6,6,0,0,0,9.16,18s-.23,2.82.36,3.3c0,0,1.32,1,1,1.73a16.39,16.39,0,0,1-2.21.19c-.68,0-1.3-.08-1.49-.35a10.86,10.86,0,0,1,.26-2.73s.29-3.21-.29-3.75a8.12,8.12,0,0,0-1.61,1.89,22.54,22.54,0,0,0-1.09,3.4s.45,1.12-.13,1.45H3.51c-.67,0-1.85-.13-1.74-1.08a4.54,4.54,0,0,1,.55-1.41,13.36,13.36,0,0,0,1.23-3.56l.07-1.67a12.85,12.85,0,0,0-.36,1.78S3,19.45,2.2,20a20.34,20.34,0,0,1,.52-2.57,19.49,19.49,0,0,0,.59-3.34,22.19,22.19,0,0,0,.48-3.88A6.14,6.14,0,0,1,5.07,7.32s2.12-2.92,3.11-3.4A7.67,7.67,0,0,1,12.45,2.8a10.21,10.21,0,0,1,1.22.08h.76c1.19,0,3.43-.07,3.9-.56a2.37,2.37,0,0,1,1.47-.54m13.34,9.41h0M19.8,0h0a4.15,4.15,0,0,0-2.51.9,12.82,12.82,0,0,1-2.84.21h-.63A12,12,0,0,0,12.45,1,9.59,9.59,0,0,0,7.25,2.41,15.13,15.13,0,0,0,3.7,6.22,7.91,7.91,0,0,0,2,10a1.78,1.78,0,0,0,0,.4,19.9,19.9,0,0,1-.46,3.36,1.78,1.78,0,0,0,0,.31A17,17,0,0,1,1,17a22.17,22.17,0,0,0-.56,2.82,1.78,1.78,0,0,0,0,.59A7,7,0,0,0,0,21.8v.15a2.54,2.54,0,0,0,.59,2,3.69,3.69,0,0,0,2.89,1A6.26,6.26,0,0,0,4.15,25a1.78,1.78,0,0,0,.67-.21,2.27,2.27,0,0,0,.69-.59,3.6,3.6,0,0,0,2.79.91,18.18,18.18,0,0,0,2.48-.21,1.78,1.78,0,0,0,1.36-1.07c.59-1.35-.2-2.66-1.19-3.56a11.3,11.3,0,0,1,0-2v-.06a7.18,7.18,0,0,1,.3-.74,8.3,8.3,0,0,0,.59-.59l.59-.08h.05A6.19,6.19,0,0,0,14,16.5c-.07.59-.15,1.14-.2,1.47a17.94,17.94,0,0,0-.29,2.7,1.78,1.78,0,0,0,0,.55,1,1,0,0,1,0,.2A3.29,3.29,0,0,0,13,23.19v.07c0,.64.38,2.13,3.08,2.13a18.06,18.06,0,0,0,2.51-.23,1.78,1.78,0,0,0,.87-.4,2,2,0,0,0,.73-1.64,2.73,2.73,0,0,0-1-1.78A13.82,13.82,0,0,0,20,18.89l.33.39h0a25.12,25.12,0,0,1,1.19,2.48,3.66,3.66,0,0,1-.15.35,1.78,1.78,0,0,0-.08.19,2.06,2.06,0,0,0,.22,1.93,2.88,2.88,0,0,0,2.48,1,15.25,15.25,0,0,0,2.58-.33,1.78,1.78,0,0,0,.75-.31,2.12,2.12,0,0,0,.85-1.89,2.62,2.62,0,0,0-1.27-1.89,3.88,3.88,0,0,1-.14-.38,10.08,10.08,0,0,0-.48-2.64,4.1,4.1,0,0,0,2.22.59,4.84,4.84,0,0,0,.8-.07,1.78,1.78,0,0,0,.36-.11,6.36,6.36,0,0,0,3.75-5.16,5,5,0,0,0,.7-.36,1.78,1.78,0,0,0,.87-1.52,1.9,1.9,0,0,0,0-.72A1.78,1.78,0,0,0,33.21,8.9h-.4a29.6,29.6,0,0,0-1.38-3.25A7.56,7.56,0,0,0,30.1,3.45,7.51,7.51,0,0,0,27.73,1a3.56,3.56,0,0,0-2-.48A13.5,13.5,0,0,0,23.9.66c-.42,0-1.52-.12-2.31-.21A3.77,3.77,0,0,0,19.82,0Zm4.93,12.71a1.78,1.78,0,0,0,.77-.33,2.46,2.46,0,0,0,.56-.59,2.37,2.37,0,0,0,.34.23A3,3,0,0,0,25,13.52l-.19-.68a.23.23,0,0,0,0-.14Z"/></g><path class="d" d="M21,2.17a25.35,25.35,0,0,0,3.14.26s2.09-.32,2.63.07a5.65,5.65,0,0,1,1.86,2,5.82,5.82,0,0,1,1.16,1.86,26.44,26.44,0,0,1,1.41,3.34l.26.77a7.65,7.65,0,0,0,1.77.22s0,.26-1,.52a3,3,0,0,0,1,0,2.92,2.92,0,0,1-1.48.45s.2,3.78-2.73,5c0,0-2.73.48-2.44-2.09,0,0,.42-1.38,1.41-.74,0,0-.39.29-.07.42,0,0-.64.8,0,1,0,0,1.19.52,1.51-1.78a4.3,4.3,0,0,0-.87-3.08l-.52,0-.42.32A.59.59,0,0,1,27,10.2l-.59-.29S25,9.84,24.78,9.46c0,0,.13,1.16-.39,1.54,0,0-1.7-.32-1.93-.64a22.81,22.81,0,0,0,.59,3l.74,2.6a12.67,12.67,0,0,0,.71,2.31,8.58,8.58,0,0,1,.42,2.37s.29,1.28.77,1.57c0,0,1.06.55.48,1,0,0-3.66.74-3.27-.29,0,0,.52-1,.39-1.45a23.47,23.47,0,0,0-1.64-3.37,19.44,19.44,0,0,1-2.12-2.86s-1.12,2.7-1.25,3a11.37,11.37,0,0,1-.87,2.6S17,22,17.5,22.29c0,0,1.22.8.77,1.19,0,0-3.5.59-3.56-.23a1.5,1.5,0,0,1,.39-.93,2.57,2.57,0,0,0,.23-1.57,22.63,22.63,0,0,1,.26-2.44s.36-2.28.39-3.43c0,0-.16-.9-.32-1a7.65,7.65,0,0,1-3.27,1s-1.57.16-1.54.36a6.77,6.77,0,0,1-1,.93A6,6,0,0,0,9.16,18s-.23,2.82.36,3.3c0,0,1.32,1,1,1.73,0,0-3.21.52-3.69-.16a10.86,10.86,0,0,1,.26-2.73s.29-3.21-.29-3.75a8.12,8.12,0,0,0-1.61,1.89,22.54,22.54,0,0,0-1.09,3.4s.45,1.12-.13,1.45c0,0-2.37.26-2.18-1.06a4.54,4.54,0,0,1,.55-1.41,13.36,13.36,0,0,0,1.23-3.58l.07-1.67a12.85,12.85,0,0,0-.36,1.78S3,19.45,2.2,20a20.34,20.34,0,0,1,.52-2.57,19.49,19.49,0,0,0,.59-3.34,22.19,22.19,0,0,0,.48-3.88A6.14,6.14,0,0,1,5.07,7.32s2.12-2.92,3.11-3.4a8.13,8.13,0,0,1,5.49-1.06s4,.13,4.66-.55A2.16,2.16,0,0,1,21,2.17Z"/></svg>