<svg xmlns="http://www.w3.org/2000/svg" viewBox="0 0 47.49 37.58"><defs><style>.a{opacity:0.8;}.b{fill:#fff;}.c{fill:#4f8317;}</style></defs><title>Asset 206</title><g class="a"><path class="b" d="M29.2,24c-2.21,0-2.62-1.11-2.67-1.78a1.46,1.46,0,0,1,0-.18,2.85,2.85,0,0,1,.54-1.53.79.79,0,0,0,0-.37,1.48,1.48,0,0,1,0-.33,21.9,21.9,0,0,1,.24-2.33c0-.29.13-.9.21-1.51a5.55,5.55,0,0,1-1.47.22h0l-.56.08a7.57,7.57,0,0,1-.55.53,6.28,6.28,0,0,0-.32.72s0,0,0,.07a9.87,9.87,0,0,0,0,1.86,2.74,2.74,0,0,1,1.08,3.09,1.5,1.5,0,0,1-1.15.91,16.2,16.2,0,0,1-2.2.19,3,3,0,0,1-2.49-.86,1.93,1.93,0,0,1-.65.59,1.54,1.54,0,0,1-.57.18,5.47,5.47,0,0,1-.56,0,3.19,3.19,0,0,1-2.53-.92A2.16,2.16,0,0,1,15,20.9a5.87,5.87,0,0,1,.4-1.28,1.49,1.49,0,0,1,0-.56,19.66,19.66,0,0,1,.5-2.48,16,16,0,0,0,.48-2.72,1.61,1.61,0,0,1,0-.18,18.29,18.29,0,0,0,.4-3.2,1.48,1.48,0,0,1,0-.17A7,7,0,0,1,18.26,7a13.87,13.87,0,0,1,3.17-3.38A8.45,8.45,0,0,1,26,2.39a10.7,10.7,0,0,1,1.19.07h.58a11.19,11.19,0,0,0,2.55-.19,3.42,3.42,0,0,1,3.77-.37,21.47,21.47,0,0,0,2.2.17A11.63,11.63,0,0,1,37.79,2a3,3,0,0,1,1.83.45,6.46,6.46,0,0,1,2,2.11A6.66,6.66,0,0,1,42.8,6.45,25.08,25.08,0,0,1,44.06,9.4l.44,0A1.5,1.5,0,0,1,46,10.75a1.6,1.6,0,0,1,0,.62,1.5,1.5,0,0,1-.7,1.28,4.16,4.16,0,0,1-.68.35,5.6,5.6,0,0,1-3.3,4.6,1.72,1.72,0,0,1-.3.09,4.18,4.18,0,0,1-.7.05,3.44,3.44,0,0,1-2.15-.66l.06.17a9.17,9.17,0,0,1,.44,2.36,3.48,3.48,0,0,0,.16.44,2.26,2.26,0,0,1,1.11,1.63,1.81,1.81,0,0,1-.73,1.61,1.51,1.51,0,0,1-.62.29,13.5,13.5,0,0,1-2.29.26A2.5,2.5,0,0,1,34.09,23a1.76,1.76,0,0,1-.19-1.64,1.44,1.44,0,0,1,.07-.16,3.25,3.25,0,0,0,.15-.35,22.22,22.22,0,0,0-1.06-2.25l-.4-.48,0,.08a11.6,11.6,0,0,1-.75,2.29A2.37,2.37,0,0,1,32.78,22a1.73,1.73,0,0,1-.61,1.44,1.5,1.5,0,0,1-.72.34A15.77,15.77,0,0,1,29.2,24ZM36.9,12.94l.23.81a2.61,2.61,0,0,1,1.47-1.59,2,2,0,0,1-.52-.34,2.1,2.1,0,0,1-.54.59,1.5,1.5,0,0,1-.7.29Z"/><path class="b" d="M32.5,3a1.92,1.92,0,0,1,1.1.35,22.58,22.58,0,0,0,2.8.23,10.67,10.67,0,0,1,1.39-.11,1.91,1.91,0,0,1,1,.17A5,5,0,0,1,40.4,5.41a5.18,5.18,0,0,1,1,1.66,23.56,23.56,0,0,1,1.26,3l.23.69a6.82,6.82,0,0,0,1.57.2s0,.23-.91.46a2.64,2.64,0,0,0,.86,0,2.6,2.6,0,0,1-1.32.4s.17,3.36-2.43,4.42a2.78,2.78,0,0,1-.44,0,1.55,1.55,0,0,1-1.73-1.89s.24-.81.81-.81a.83.83,0,0,1,.45.15s-.34.26-.06.37c0,0-.57.71,0,.86a.68.68,0,0,0,.25,0c.33,0,.89-.22,1.09-1.63a3.83,3.83,0,0,0-.77-2.75l-.46,0-.37.29a.53.53,0,0,1-.49-.34l-.53-.26s-1.23-.06-1.43-.4c0,0,.12,1-.34,1.37,0,0-1.52-.29-1.72-.57a20.3,20.3,0,0,0,.53,2.69l.65,2.31a11.3,11.3,0,0,0,.63,2.06,7.65,7.65,0,0,1,.37,2.11s.26,1.14.69,1.4c0,0,.95.49.43.89a12.34,12.34,0,0,1-2,.23c-.6,0-1.07-.11-.93-.49,0,0,.46-.89.34-1.29a20.91,20.91,0,0,0-1.46-3A17.32,17.32,0,0,1,32.31,15s-1,2.4-1.11,2.71A10.13,10.13,0,0,1,30.42,20s-.4.95.08,1.23c0,0,1.09.71.69,1.06a14.23,14.23,0,0,1-2,.18c-.62,0-1.15-.09-1.18-.39a1.34,1.34,0,0,1,.34-.83,2.29,2.29,0,0,0,.2-1.39,20.17,20.17,0,0,1,.23-2.17s.32-2,.34-3.06c0,0-.14-.8-.29-.86a7.06,7.06,0,0,1-2.8.89h-.11s-1.4.14-1.37.32a6,6,0,0,1-.86.83,5.32,5.32,0,0,0-.63,1.63s-.2,2.51.32,2.94c0,0,1.17.86.89,1.54a14.53,14.53,0,0,1-2,.17c-.6,0-1.15-.07-1.32-.31a9.67,9.67,0,0,1,.23-2.43S21.48,16.54,21,16a7.23,7.23,0,0,0-1.43,1.69,20.06,20.06,0,0,0-1,3s.4,1-.12,1.29c0,0-.16,0-.4,0-.6,0-1.67-.12-1.55-1A4,4,0,0,1,17,19.85a11.91,11.91,0,0,0,1.09-3.19l.06-1.48a11.44,11.44,0,0,0-.32,1.58s-.23,2-.95,2.49A18.14,18.14,0,0,1,17.34,17a17.38,17.38,0,0,0,.53-3,19.76,19.76,0,0,0,.43-3.46,5.47,5.47,0,0,1,1.14-2.6s1.89-2.6,2.77-3a6.84,6.84,0,0,1,3.81-1A9.12,9.12,0,0,1,27.1,4h.69c1.07,0,3-.06,3.46-.49A1.92,1.92,0,0,1,32.5,3m11.93,8.38h0M32.5,0h0a4.92,4.92,0,0,0-2.78.86,14.49,14.49,0,0,1-1.93.1H27.3A12.11,12.11,0,0,0,26,.89a10,10,0,0,0-5.39,1.46A14.18,14.18,0,0,0,17,6.12a8.49,8.49,0,0,0-1.72,4,3.07,3.07,0,0,0,0,.34,16.79,16.79,0,0,1-.36,2.93,3,3,0,0,0-.06.36,14.43,14.43,0,0,1-.44,2.46,21.24,21.24,0,0,0-.54,2.67,3,3,0,0,0,0,.56,7,7,0,0,0-.32,1.1q0,.09,0,.17a3.64,3.64,0,0,0,.85,2.95A4.6,4.6,0,0,0,18,25.07a7.07,7.07,0,0,0,.72,0,3,3,0,0,0,1.14-.36,5.65,5.65,0,0,0,2.42.46,17.33,17.33,0,0,0,2.44-.21,3,3,0,0,0,1.24-.5,4.36,4.36,0,0,0,3.2,1.08,17,17,0,0,0,2.49-.23,3,3,0,0,0,1.45-.68l.23-.21a4.15,4.15,0,0,0,2.86.94A14.82,14.82,0,0,0,38.81,25a3,3,0,0,0,1.25-.57,3.33,3.33,0,0,0,1.3-2.94,3.5,3.5,0,0,0-1.2-2.3h.09a5.72,5.72,0,0,0,1-.08,3,3,0,0,0,.61-.17,6.87,6.87,0,0,0,4.06-5l.07,0a3,3,0,0,0,1.48-2.43,3.2,3.2,0,0,0,0-1A3,3,0,0,0,45.13,8q-.44-1.11-1-2.15a8.14,8.14,0,0,0-1.33-2.2,8.07,8.07,0,0,0-2.43-2.5A4.63,4.63,0,0,0,37.79.46a13.15,13.15,0,0,0-1.55.11c-.56,0-1.13-.06-1.69-.12a4.9,4.9,0,0,0-2-.44Z"/><path class="b" d="M20.16,36.08a2.18,2.18,0,0,1-.91-.21l-.51,0h-.13A2.42,2.42,0,0,1,16.7,35a3.33,3.33,0,0,1-.4-2.82c.07-.38-.52-1.07-.95-1.56l-.23-.27c-1.22-1.45-2.68-3.15-4.26-4.74-.6-.6-1-1.06-1.4-1.47A17.2,17.2,0,0,0,7.09,22a2.2,2.2,0,0,0-1-.54.46.46,0,0,0-.17,0,2.57,2.57,0,0,1-.91.16,3.76,3.76,0,0,1-3-1.76,3.39,3.39,0,0,1,.22-4.08,9.43,9.43,0,0,1,1-1.17,2.24,2.24,0,0,1,1.46-.66,2.69,2.69,0,0,1,1.83-.85,2.1,2.1,0,0,1,.46.05A2.86,2.86,0,0,1,8.33,14l.08.08A4.9,4.9,0,0,1,10.2,16.7a3.67,3.67,0,0,0,1.19,1.8l.07.08c.69.73,1.13,1.21,1.52,1.64s1,1.08,1.92,2,1.73,1.74,2.61,2.59l.65.63a6.59,6.59,0,0,0,1.65,1.33,6.25,6.25,0,0,0,1.38.56l.15,0a3.61,3.61,0,0,1,1.25.42,3,3,0,0,1,.75.68l.12.13a2.17,2.17,0,0,1,1,1.53,3.1,3.1,0,0,1-1,2.44l-.16.18,0,.07a2.61,2.61,0,0,1-.76,1,1.12,1.12,0,0,0-.07.24A2.41,2.41,0,0,1,20.16,36.08Z"/><path class="b" d="M6.54,14.59h.12a2.05,2.05,0,0,1,.74.55A3.53,3.53,0,0,1,8.74,17a5.2,5.2,0,0,0,1.64,2.6c1.62,1.71,1.82,2,3.46,3.69,1,1,2,2,3,3a9.37,9.37,0,0,0,2.35,1.9,7.46,7.46,0,0,0,1.73.68,3,3,0,0,1,.93.26c.29.18.47.56.78.75.95.6-.08,1.48-.49,2-.24.29-.25.58-.55.82A1.58,1.58,0,0,0,21,33.71c-.1.4-.38.87-.8.87a.7.7,0,0,1-.3-.08,1.17,1.17,0,0,0-.54-.14c-.17,0-.34,0-.59,0h-.07c-1.21,0-1-1.07-.87-1.92.22-1.21-.81-2.24-1.5-3.06-1.39-1.66-2.82-3.29-4.35-4.83A34.29,34.29,0,0,0,8,20.77a3.2,3.2,0,0,0-1.91-.86,2,2,0,0,0-.7.13,1.08,1.08,0,0,1-.38.07A2.28,2.28,0,0,1,3.33,19a2,2,0,0,1,.18-2.4,8,8,0,0,1,.81-1A.83.83,0,0,1,5,15.43h.37l-.17,0,.17,0h0l0-.05c.25-.28.69-.78,1.12-.78m0-3a3.93,3.93,0,0,0-2.5.94,3.67,3.67,0,0,0-1.84,1,10.79,10.79,0,0,0-1.12,1.35,4.93,4.93,0,0,0-.27,5.78A5.26,5.26,0,0,0,5,23.11,4.1,4.1,0,0,0,6,23l.17.13A15.77,15.77,0,0,1,8.37,25.2c.38.42.82.89,1.44,1.51,1.54,1.55,3,3.21,4.17,4.64l.24.28c.16.19.41.47.54.67A4.51,4.51,0,0,0,15.54,36a4,4,0,0,0,3,1.42H19a3.62,3.62,0,0,0,1.14.18,3.88,3.88,0,0,0,3.64-2.91,4.16,4.16,0,0,0,.74-1.06h0A4.5,4.5,0,0,0,26,30a3.66,3.66,0,0,0-1.49-2.46,4.46,4.46,0,0,0-1.08-1,5,5,0,0,0-1.75-.61l-.12,0a4.85,4.85,0,0,1-2.29-1.49l-.32-.31-.31-.3c-.91-.88-1.77-1.71-2.6-2.58s-1.37-1.44-1.9-2-.84-.91-1.54-1.66l-.07-.07c-.64-.68-.77-.84-.82-1.08A6.25,6.25,0,0,0,9.47,13l0,0-.05,0a4.3,4.3,0,0,0-2-1.2,3.56,3.56,0,0,0-.8-.09Z"/></g><path class="c" d="M33.6,3.35a22.58,22.58,0,0,0,2.8.23s1.86-.29,2.35.06A5,5,0,0,1,40.4,5.41a5.18,5.18,0,0,1,1,1.66,23.55,23.55,0,0,1,1.26,3l.23.69a6.81,6.81,0,0,0,1.57.2s0,.23-.91.46a2.64,2.64,0,0,0,.86,0,2.6,2.6,0,0,1-1.32.4s.17,3.36-2.43,4.42c0,0-2.43.43-2.17-1.86,0,0,.37-1.23,1.26-.65,0,0-.34.26-.06.37,0,0-.57.71,0,.86,0,0,1.06.46,1.34-1.58a3.83,3.83,0,0,0-.77-2.75l-.46,0-.37.29a.53.53,0,0,1-.49-.34l-.53-.26s-1.23-.06-1.43-.4c0,0,.12,1-.34,1.37,0,0-1.52-.29-1.72-.57a20.32,20.32,0,0,0,.53,2.69l.65,2.31a11.29,11.29,0,0,0,.63,2.06,7.64,7.64,0,0,1,.37,2.11s.26,1.14.69,1.4c0,0,.95.49.43.89,0,0-3.26.65-2.92-.26,0,0,.46-.89.34-1.29a20.91,20.91,0,0,0-1.46-3A17.32,17.32,0,0,1,32.31,15s-1,2.4-1.11,2.72A10.13,10.13,0,0,1,30.42,20s-.4.95.08,1.23c0,0,1.09.71.69,1.06,0,0-3.12.53-3.17-.2a1.34,1.34,0,0,1,.34-.83,2.29,2.29,0,0,0,.2-1.39,20.16,20.16,0,0,1,.23-2.17s.32-2,.34-3.06c0,0-.14-.8-.29-.86a6.81,6.81,0,0,1-2.92.89s-1.4.14-1.37.32a6,6,0,0,1-.86.83,5.32,5.32,0,0,0-.63,1.63s-.2,2.51.32,2.94c0,0,1.17.86.89,1.54,0,0-2.86.46-3.29-.14a9.67,9.67,0,0,1,.23-2.43S21.48,16.54,21,16a7.23,7.23,0,0,0-1.43,1.69,20.07,20.07,0,0,0-1,3s.4,1-.12,1.29c0,0-2.11.23-1.94-.95A4,4,0,0,1,17,19.85a11.9,11.9,0,0,0,1.09-3.19l.06-1.48a11.44,11.44,0,0,0-.32,1.58s-.23,2-.95,2.49A18.12,18.12,0,0,1,17.34,17a17.36,17.36,0,0,0,.53-3,19.77,19.77,0,0,0,.43-3.46,5.47,5.47,0,0,1,1.14-2.6s1.89-2.6,2.77-3A7.24,7.24,0,0,1,27.1,4s3.58.12,4.15-.49A1.92,1.92,0,0,1,33.6,3.35Z"/><path class="c" d="M5.37,15.42c-.4,0-.74-.08-1.06.24a8,8,0,0,0-.81,1A2,2,0,0,0,3.33,19c.41.64,1.33,1.28,2.08,1A2.6,2.6,0,0,1,8,20.77a34.28,34.28,0,0,1,3.92,3.82c1.53,1.53,3,3.17,4.35,4.83.7.83,1.72,1.86,1.5,3.06-.15.85-.34,1.89.87,1.92.53,0,.69-.14,1.2.1s1-.3,1.1-.79a1.58,1.58,0,0,1,.61-1.05c.3-.23.31-.53.55-.82.41-.5,1.44-1.38.49-2-.3-.19-.49-.57-.78-.75a3,3,0,0,0-.93-.26,7.46,7.46,0,0,1-1.73-.68,9.36,9.36,0,0,1-2.35-1.9c-1-1-2-1.95-3-3-1.64-1.7-1.84-2-3.46-3.69A5.19,5.19,0,0,1,8.74,17,3.53,3.53,0,0,0,7.4,15.15a2.05,2.05,0,0,0-.74-.55c-.48-.11-1,.46-1.25.77l0,.05Z"/></svg>