<svg xmlns="http://www.w3.org/2000/svg" viewBox="0 0 59 42.88"><defs><style>.a{opacity:0.8;}.b{fill:#262626;}.c{fill:#fff;}</style></defs><title>Asset 6</title><g class="a"><path class="b" d="M35.38,3.66a42.74,42.74,0,0,0,5.3.43s3.52-.54,4.44.11a9.53,9.53,0,0,1,3.14,3.36,9.81,9.81,0,0,1,1.95,3.14,44.58,44.58,0,0,1,2.38,5.63l.43,1.3A12.9,12.9,0,0,0,56,18s.05.43-1.73.87a5,5,0,0,0,1.62,0,4.92,4.92,0,0,1-2.49.76S53.73,26,48.8,28c0,0-4.6.81-4.11-3.52,0,0,.7-2.33,2.38-1.24,0,0-.65.49-.11.7,0,0-1.08,1.35-.05,1.62,0,0,2,.87,2.54-3,0,0,.38-3.25-1.46-5.2l-.87-.05-.7.54a1,1,0,0,1-.92-.65l-1-.49s-2.33-.11-2.71-.76c0,0,.22,1.95-.65,2.6,0,0-2.87-.54-3.25-1.08a38.46,38.46,0,0,0,1,5.09l1.24,4.38a21.37,21.37,0,0,0,1.19,3.9,14.47,14.47,0,0,1,.7,4s.49,2.16,1.3,2.65c0,0,1.79.92.81,1.68,0,0-6.17,1.24-5.52-.49,0,0,.87-1.68.65-2.44,0,0-2.06-5-2.76-5.68,0,0-3.46-4.06-3.57-4.82,0,0-1.89,4.55-2.11,5.14a19.18,19.18,0,0,1-1.46,4.38s-.76,1.79.16,2.33c0,0,2.06,1.35,1.3,2,0,0-5.9,1-6-.38a2.53,2.53,0,0,1,.65-1.57A4.34,4.34,0,0,0,25.85,35a38.16,38.16,0,0,1,.43-4.11s.6-3.84.65-5.79c0,0-.27-1.52-.54-1.62,0,0-3.14,1.79-5.52,1.68,0,0-2.65.27-2.6.6a11.41,11.41,0,0,1-1.62,1.57s-1.3,2.38-1.19,3.09c0,0-.38,4.76.6,5.57,0,0,2.22,1.62,1.68,2.92,0,0-5.41.87-6.22-.27,0,0-.05-3.52.43-4.6,0,0,.49-5.41-.49-6.33,0,0-2.38,2.16-2.71,3.19a38,38,0,0,0-1.84,5.74s.76,1.89-.22,2.44c0,0-4,.43-3.68-1.79a7.66,7.66,0,0,1,.92-2.38A22.53,22.53,0,0,0,6,28.88l.11-2.81a21.66,21.66,0,0,0-.6,3s-.43,3.73-1.79,4.71a34.3,34.3,0,0,1,.87-4.33,32.87,32.87,0,0,0,1-5.63,37.42,37.42,0,0,0,.81-6.55,10.36,10.36,0,0,1,2.16-4.93s3.57-4.93,5.25-5.74c0,0,3.41-2.49,9.26-1.79,0,0,6.77.22,7.85-.92A3.64,3.64,0,0,1,35.38,3.66Z"/><path class="c" d="M33.39,3a3.42,3.42,0,0,1,2,.66s3.56.46,4.9.46a2.06,2.06,0,0,0,.41,0,20.17,20.17,0,0,1,2.63-.21,3.6,3.6,0,0,1,1.81.32,9.52,9.52,0,0,1,3.14,3.36,9.81,9.81,0,0,1,1.95,3.14,44.57,44.57,0,0,1,2.38,5.63l.43,1.3A18.37,18.37,0,0,0,55.7,18a1.12,1.12,0,0,0,.3,0s.05.43-1.73.87a6.28,6.28,0,0,0,.91.07,3,3,0,0,0,.71-.07,5,5,0,0,1-2.37.76H53.4S53.73,26,48.8,28A5.28,5.28,0,0,1,48,28c-1.3,0-3.64-.43-3.28-3.58,0,0,.46-1.53,1.53-1.53a1.57,1.57,0,0,1,.85.29s-.65.49-.11.7c0,0-1.08,1.35-.05,1.62a1.29,1.29,0,0,0,.47.08c.63,0,1.7-.41,2.08-3.11,0,0,.38-3.25-1.46-5.2l-.87-.05-.7.54a1,1,0,0,1-.92-.65l-1-.49s-2.33-.11-2.71-.76c0,0,.22,1.95-.65,2.6,0,0-2.87-.54-3.25-1.08a38.46,38.46,0,0,0,1,5.09l1.24,4.38a21.37,21.37,0,0,0,1.19,3.9,14.47,14.47,0,0,1,.7,4s.49,2.16,1.3,2.65c0,0,1.79.92.81,1.68a23.32,23.32,0,0,1-3.77.43c-1.13,0-2-.21-1.75-.92,0,0,.87-1.68.65-2.44,0,0-2.06-5-2.76-5.68,0,0-3.46-4.06-3.57-4.82,0,0-1.89,4.55-2.11,5.14a19.18,19.18,0,0,1-1.46,4.38s-.76,1.79.16,2.33c0,0,2.06,1.35,1.3,2a27.47,27.47,0,0,1-3.75.34c-1.18,0-2.18-.16-2.2-.72a2.53,2.53,0,0,1,.65-1.57A4.34,4.34,0,0,0,25.85,35a38.16,38.16,0,0,1,.43-4.11s.6-3.84.65-5.79c0,0-.27-1.52-.54-1.62a13.39,13.39,0,0,1-5.31,1.68h-.21s-2.65.27-2.6.6a11.41,11.41,0,0,1-1.62,1.57s-1.3,2.38-1.19,3.09c0,0-.38,4.76.6,5.57,0,0,2.22,1.62,1.68,2.92a27.64,27.64,0,0,1-3.72.32c-1.14,0-2.19-.14-2.51-.59,0,0-.05-3.52.43-4.6,0,0,.49-5.41-.49-6.33,0,0-2.38,2.16-2.71,3.19a38,38,0,0,0-1.84,5.74s.76,1.89-.22,2.44c0,0-.31,0-.75,0-1.13,0-3.12-.22-2.93-1.82a7.66,7.66,0,0,1,.92-2.38A22.53,22.53,0,0,0,6,28.88l.11-2.81a21.66,21.66,0,0,0-.6,3s-.43,3.73-1.79,4.71a34.3,34.3,0,0,1,.87-4.33,32.87,32.87,0,0,0,1-5.63,37.42,37.42,0,0,0,.81-6.55,10.36,10.36,0,0,1,2.16-4.93s3.57-4.93,5.25-5.74A12.93,12.93,0,0,1,21,4.72a17.21,17.21,0,0,1,2.06.13l1.28,0c2,0,5.78-.11,6.57-.94A4,4,0,0,1,33.39,3m22.5,15.87h0M33.39,0h0a7,7,0,0,0-4.23,1.51,21.61,21.61,0,0,1-4.79.36H23.31A20.26,20.26,0,0,0,21,1.72a16.17,16.17,0,0,0-8.76,2.34c-2,1.13-4.58,4.43-6,6.43a13.34,13.34,0,0,0-2.79,6.41,3,3,0,0,0,0,.67,33.56,33.56,0,0,1-.77,5.67,3,3,0,0,0-.06.52,28.69,28.69,0,0,1-.87,4.91A37.38,37.38,0,0,0,.8,33.42a3,3,0,0,0,0,1,11.88,11.88,0,0,0-.75,2.34q0,.12,0,.25a4.28,4.28,0,0,0,1,3.41,6.22,6.22,0,0,0,4.88,1.77A10.55,10.55,0,0,0,7,42.09a3,3,0,0,0,1.13-.36,3.83,3.83,0,0,0,1.17-1c1.2,1.35,3.12,1.53,4.7,1.53a30.65,30.65,0,0,0,4.19-.35,3,3,0,0,0,2.3-1.81c1-2.28-.33-4.49-2-6a19.06,19.06,0,0,1,0-3.44v-.1A12.1,12.1,0,0,1,19,29.32a14,14,0,0,0,1-1l1-.13h.09a10.44,10.44,0,0,0,2.6-.37c-.12,1-.25,1.92-.34,2.48a30.25,30.25,0,0,0-.49,4.55,3,3,0,0,0,.08.92,1.75,1.75,0,0,1-.07.33,5.54,5.54,0,0,0-1,3s0,.08,0,.12c0,1.08.64,3.6,5.2,3.6a30.45,30.45,0,0,0,4.24-.38,3,3,0,0,0,1.46-.68A3.43,3.43,0,0,0,34,39a4.6,4.6,0,0,0-1.62-3,23.3,23.3,0,0,0,1.31-4.15l.55.65,0,0a42.36,42.36,0,0,1,2,4.18,6.18,6.18,0,0,1-.26.59,3,3,0,0,0-.14.32,3.48,3.48,0,0,0,.37,3.25c1.19,1.72,3.37,1.72,4.18,1.72A25.72,25.72,0,0,0,44.74,42,3,3,0,0,0,46,41.48a3.58,3.58,0,0,0,1.43-3.19,4.42,4.42,0,0,0-2.14-3.19,6.54,6.54,0,0,1-.23-.64A17,17,0,0,0,44.25,30,6.92,6.92,0,0,0,48,31a8.16,8.16,0,0,0,1.35-.11,3,3,0,0,0,.61-.18c4.18-1.7,5.84-5.57,6.32-8.7a8.41,8.41,0,0,0,1.18-.6,3,3,0,0,0,1.46-2.57A3.2,3.2,0,0,0,59,17.63,3,3,0,0,0,56,15l-.39,0-.28,0A49.91,49.91,0,0,0,53,9.52a12.75,12.75,0,0,0-2.24-3.7,12.66,12.66,0,0,0-4-4.13A6,6,0,0,0,43.31.88a22.77,22.77,0,0,0-3,.24c-.71,0-2.56-.2-3.89-.36a6.35,6.35,0,0,0-3-.76Zm8.31,21.44A3,3,0,0,0,43,20.89a4.15,4.15,0,0,0,.94-1,4,4,0,0,0,.58.38,5.07,5.07,0,0,0-2.38,2.53l-.32-1.14q0-.12-.08-.23Z"/></g><path class="b" d="M35.38,3.66a42.74,42.74,0,0,0,5.3.43s3.52-.54,4.44.11a9.53,9.53,0,0,1,3.14,3.36,9.81,9.81,0,0,1,1.95,3.14,44.58,44.58,0,0,1,2.38,5.63l.43,1.3A12.9,12.9,0,0,0,56,18s.05.43-1.73.87a5,5,0,0,0,1.62,0,4.92,4.92,0,0,1-2.49.76S53.73,26,48.8,28c0,0-4.6.81-4.11-3.52,0,0,.7-2.33,2.38-1.24,0,0-.65.49-.11.7,0,0-1.08,1.35-.05,1.62,0,0,2,.87,2.54-3,0,0,.38-3.25-1.46-5.2l-.87-.05-.7.54a1,1,0,0,1-.92-.65l-1-.49s-2.33-.11-2.71-.76c0,0,.22,1.95-.65,2.6,0,0-2.87-.54-3.25-1.08a38.46,38.46,0,0,0,1,5.09l1.24,4.38a21.37,21.37,0,0,0,1.19,3.9,14.47,14.47,0,0,1,.7,4s.49,2.16,1.3,2.65c0,0,1.79.92.81,1.68,0,0-6.17,1.24-5.52-.49,0,0,.87-1.68.65-2.44,0,0-2.06-5-2.76-5.68,0,0-3.46-4.06-3.57-4.82,0,0-1.89,4.55-2.11,5.14a19.18,19.18,0,0,1-1.46,4.38s-.76,1.79.16,2.33c0,0,2.06,1.35,1.3,2,0,0-5.9,1-6-.38a2.53,2.53,0,0,1,.65-1.57A4.34,4.34,0,0,0,25.85,35a38.16,38.16,0,0,1,.43-4.11s.6-3.84.65-5.79c0,0-.27-1.52-.54-1.62,0,0-3.14,1.79-5.52,1.68,0,0-2.65.27-2.6.6a11.41,11.41,0,0,1-1.62,1.57s-1.3,2.38-1.19,3.09c0,0-.38,4.76.6,5.57,0,0,2.22,1.62,1.68,2.92,0,0-5.41.87-6.22-.27,0,0-.05-3.52.43-4.6,0,0,.49-5.41-.49-6.33,0,0-2.38,2.16-2.71,3.19a38,38,0,0,0-1.84,5.74s.76,1.89-.22,2.44c0,0-4,.43-3.68-1.79a7.66,7.66,0,0,1,.92-2.38A22.53,22.53,0,0,0,6,28.88l.11-2.81a21.66,21.66,0,0,0-.6,3s-.43,3.73-1.79,4.71a34.3,34.3,0,0,1,.87-4.33,32.87,32.87,0,0,0,1-5.63,37.42,37.42,0,0,0,.81-6.55,10.36,10.36,0,0,1,2.16-4.93s3.57-4.93,5.25-5.74c0,0,3.41-2.49,9.26-1.79,0,0,6.77.22,7.85-.92A3.64,3.64,0,0,1,35.38,3.66Z"/></svg>