<svg xmlns="http://www.w3.org/2000/svg" viewBox="0 0 55 22.03"><defs><style>.a{opacity:0.8;}.b{fill:#d0021b;fill-rule:evenodd;}.c{fill:#fff;}</style></defs><title>Asset 8</title><g class="a"><path class="b" d="M6.22,14.51h5.73l2.15-3.22H6.22V7.44H14.7L11.48,4.22H6.22V3.61c0-.34-.14-.61-.31-.61H3.31C3.14,3,3,3.27,3,3.61v14.8c0,.34.14.62.31.62h2.6c.17,0,.31-.28.31-.62Z"/><path class="c" d="M5.91,3c.17,0,.31.27.31.61v.61h5.26L14.7,7.44H6.22V11.3h7.88l-2.15,3.22H6.22v3.9c0,.34-.14.61-.31.61H3.31c-.17,0-.31-.27-.31-.61V3.61c0-.34.14-.61.31-.61h2.6m8.18,8.3h0M5.91,0H3.31A3.43,3.43,0,0,0,0,3.61v14.8A3.43,3.43,0,0,0,3.31,22h2.6a3.43,3.43,0,0,0,3.31-3.61v-.9h2.73a3,3,0,0,0,2.5-1.34L16.54,13a3,3,0,0,0,.11-3.32,3,3,0,0,0,.17-4.4L13.6,2.1a3,3,0,0,0-2.12-.88H8.41A3.18,3.18,0,0,0,5.91,0Z"/><path class="b" d="M51.69,3h-2.6c-.17,0-.31.27-.31.61v.61H28.88V3.61c0-.34-.14-.61-.31-.61H26c-.17,0-.31.27-.31.61v.61H16.1l3.22,3.22h6.35V11.3H18.17L16,14.51h9.64v3.9c0,.34.14.61.31.61h2.6c.17,0,.31-.28.31-.61v-3.9h19.9v3.9c0,.34.14.61.31.61h2.6c.17,0,.31-.28.31-.61V3.61C52,3.27,51.86,3,51.69,3Zm-2.91,8.3H28.88V7.44h19.9Z"/><path class="c" d="M51.69,3c.17,0,.31.27.31.61v14.8c0,.34-.14.61-.31.61h-2.6c-.17,0-.31-.27-.31-.61v-3.9H28.88v3.9c0,.34-.14.61-.31.61H26c-.17,0-.31-.27-.31-.61v-3.9H16l2.15-3.22h7.49V7.44H19.31L16.1,4.22h9.57V3.61c0-.34.14-.61.31-.61h2.6c.17,0,.31.27.31.61v.61h19.9V3.61c0-.34.14-.61.31-.61h2.6M28.88,11.3h19.9V7.44H28.88V11.3M51.69,0h-2.6a3.18,3.18,0,0,0-2.5,1.22H31.07A3.18,3.18,0,0,0,28.57,0H26a3.18,3.18,0,0,0-2.5,1.22H16.1A3,3,0,0,0,14,6.34l2.49,2.49a3,3,0,0,0-.79.8l-2.15,3.22A3,3,0,0,0,16,17.51h6.64v.9A3.43,3.43,0,0,0,26,22h2.6a3.43,3.43,0,0,0,3.31-3.61v-.9h13.9v.9A3.43,3.43,0,0,0,49.09,22h2.6A3.43,3.43,0,0,0,55,18.41V3.61A3.43,3.43,0,0,0,51.69,0Z"/></g><path class="b" d="M6.22,14.51h5.73l2.15-3.22H6.22V7.44H14.7L11.48,4.22H6.22V3.61c0-.34-.14-.61-.31-.61H3.31C3.14,3,3,3.27,3,3.61v14.8c0,.34.14.62.31.62h2.6c.17,0,.31-.28.31-.62Z"/><path class="b" d="M51.69,3h-2.6c-.17,0-.31.27-.31.61v.61H28.88V3.61c0-.34-.14-.61-.31-.61H26c-.17,0-.31.27-.31.61v.61H16.1l3.22,3.22h6.35V11.3H18.17L16,14.51h9.64v3.9c0,.34.14.61.31.61h2.6c.17,0,.31-.28.31-.61v-3.9h19.9v3.9c0,.34.14.61.31.61h2.6c.17,0,.31-.28.31-.61V3.61C52,3.27,51.86,3,51.69,3Zm-2.91,8.3H28.88V7.44h19.9Z"/></svg>