<svg xmlns="http://www.w3.org/2000/svg" viewBox="0 0 31.01 36"><defs><style>.a{opacity:0.8;}.b{fill:#fff;}.c{fill:#acafb2;}</style></defs><title>Asset 1</title><g class="a"><path class="b" d="M9.21,32.5l.85.5c-.19-.5-.37-.9-.51-1.32a7,7,0,0,1-.16-4.73,11.61,11.61,0,0,1,1.21-2.27,13.67,13.67,0,0,0,2-4.1c.05-.22.1-.44.15-.66h.09c.9,1.84.68,3.79.52,5.82a10.48,10.48,0,0,0,2.09-4.62,14.9,14.9,0,0,0,.48-5A13,13,0,0,1,21,23.75,12.91,12.91,0,0,1,20.16,33l.18-.07a19.07,19.07,0,0,0,5.27-4.33A9.92,9.92,0,0,0,28,22.72a12.93,12.93,0,0,0-1.31-6.64,22.44,22.44,0,0,0-4.17-6c-.21-.21-.43-.39-.65-.58a8,8,0,0,1-.39,5.17c0-.15-.06-.21-.07-.28a13.73,13.73,0,0,0-2.75-6.34A21.94,21.94,0,0,0,14.3,3.9c-.39-.3-.81-.57-1.28-.9A23.07,23.07,0,0,1,7.87,17.31a12.39,12.39,0,0,0-1.49-4.77c-.07.4-.12.73-.19,1.05a25.42,25.42,0,0,1-1.64,4.56,16.71,16.71,0,0,0-1.49,4.64,7.88,7.88,0,0,0,2.12,6.57A19.15,19.15,0,0,0,9.21,32.5Z"/><path class="b" d="M13,3c.47.33.89.59,1.28.9a21.94,21.94,0,0,1,4.36,4.15,13.73,13.73,0,0,1,2.75,6.34c0,.06,0,.12.07.28a8,8,0,0,0,.39-5.17c.22.19.44.38.65.58a22.43,22.43,0,0,1,4.17,6A12.93,12.93,0,0,1,28,22.72a9.92,9.92,0,0,1-2.38,5.85,19.07,19.07,0,0,1-5.27,4.33l-.18.07A12.91,12.91,0,0,0,21,23.75a13,13,0,0,0-5.13-7.67,14.9,14.9,0,0,1-.48,5,10.48,10.48,0,0,1-2.09,4.62c.16-2,.38-4-.52-5.82h-.09c-.05.22-.1.44-.15.66a13.67,13.67,0,0,1-2,4.1,11.61,11.61,0,0,0-1.21,2.27,7,7,0,0,0,.16,4.73c.14.42.32.82.51,1.32l-.85-.5a19.15,19.15,0,0,1-4-3.14,7.88,7.88,0,0,1-2.12-6.57,16.71,16.71,0,0,1,1.49-4.64,25.42,25.42,0,0,0,1.64-4.56c.07-.33.12-.66.19-1.05a12.39,12.39,0,0,1,1.49,4.77A23.07,23.07,0,0,0,13,3m0-3a3,3,0,0,0-3,2.92,21.14,21.14,0,0,1-1.51,7.51A3,3,0,0,0,3.42,12l-.07.41c0,.19-.06.37-.1.55A19.36,19.36,0,0,1,2,16.41L1.79,17l-.16.39A17.78,17.78,0,0,0,.08,22.47a10.81,10.81,0,0,0,2.92,9,21.92,21.92,0,0,0,4.64,3.64l.62.37.28.16a3,3,0,0,0,4.31-3.68l-.2-.49c-.1-.25-.19-.47-.27-.7a4.7,4.7,0,0,1-.31-2.23l.1,0a3,3,0,0,0,3.44-.85,12.24,12.24,0,0,0,2.22-4.06q.15.44.27.91a9.94,9.94,0,0,1-.63,7.14,3,3,0,0,0,3.76,4.12,3.49,3.49,0,0,0,.65-.29,21.92,21.92,0,0,0,6.05-5A12.92,12.92,0,0,0,31,22.89a16,16,0,0,0-1.62-8.16,25.06,25.06,0,0,0-4.74-6.79c-.19-.19-.39-.37-.59-.54l-.17-.15a3,3,0,0,0-2.59-.7l-.2-.28a24.66,24.66,0,0,0-4.93-4.74c-.34-.26-.67-.49-1-.71L14.74.54A3,3,0,0,0,13,0Z"/></g><path class="c" d="M9.21,32.5l.85.5c-.19-.5-.37-.9-.51-1.32a7,7,0,0,1-.16-4.73,11.61,11.61,0,0,1,1.21-2.27,13.67,13.67,0,0,0,2-4.1c.05-.22.1-.44.15-.66h.09c.9,1.84.68,3.79.52,5.82a10.48,10.48,0,0,0,2.09-4.62,14.9,14.9,0,0,0,.48-5A13,13,0,0,1,21,23.75,12.91,12.91,0,0,1,20.16,33l.18-.07a19.07,19.07,0,0,0,5.27-4.33A9.92,9.92,0,0,0,28,22.72a12.93,12.93,0,0,0-1.31-6.64,22.44,22.44,0,0,0-4.17-6c-.21-.21-.43-.39-.65-.58a8,8,0,0,1-.39,5.17c0-.15-.06-.21-.07-.28a13.73,13.73,0,0,0-2.75-6.34A21.94,21.94,0,0,0,14.3,3.9c-.39-.3-.81-.57-1.28-.9A23.07,23.07,0,0,1,7.87,17.31a12.39,12.39,0,0,0-1.49-4.77c-.07.4-.12.73-.19,1.05a25.42,25.42,0,0,1-1.64,4.56,16.71,16.71,0,0,0-1.49,4.64,7.88,7.88,0,0,0,2.12,6.57A19.15,19.15,0,0,0,9.21,32.5Z"/></svg>