<svg xmlns="http://www.w3.org/2000/svg" width="40.3359" height="39.6657" viewBox="0 0 40.3359 39.6657"><title>Asset 428</title><g id="Layer_2" data-name="Layer 2"><g id="Layer_1-2" data-name="Layer 1"><g opacity="0.8"><path d="M15.3354,37.6657a1.0008,1.0008,0,0,1-.8721-.5107l-12.333-22a1.0007,1.0007,0,0,1,.2988-1.3086L19.0962,2.18a1,1,0,0,1,1.4424.3242l6.2842,11.0273a1,1,0,0,1-1.7383.99L19.3442,4.448,4.3169,14.9665,15.88,35.5925l19.8389-2.4043-6.71-11.7344a1,1,0,1,1,1.7363-.9922l7.458,13.042a1,1,0,0,1-.748,1.4893l-22,2.666A.9907.9907,0,0,1,15.3354,37.6657ZM35.2871,13.4132a.2907.2907,0,0,0,.0009-.0382.2967.2967,0,0,0-.4527-.2781l-4.3762,2.4923a.3018.3018,0,0,0,.2987.5244l4.3762-2.4922a.297.297,0,0,0,.1534-.2081Zm-1.2215,5.5405-4.0066-1.099a.2968.2968,0,0,1,.157-.5724l4.0066,1.099a.2968.2968,0,0,1,.2249.302.293.293,0,0,1-.001.0382.2884.2884,0,0,1-.0091.0376A.2967.2967,0,0,1,34.0656,18.9537Zm-4.8881-3.4948a.2968.2968,0,0,1-.5724-.157l1.099-4.0066a.2981.2981,0,0,1,.5871.1032l-.0074.0269-.0074.0269ZM18.902,21.6844a.2907.2907,0,0,0-.0009.0382.2967.2967,0,0,0,.4527.2781L23.73,19.5084a.3018.3018,0,0,0-.2987-.5244l-4.3762,2.4922a.297.297,0,0,0-.1534.2081Zm1.2215-5.5405,4.0066,1.099a.2968.2968,0,0,1-.157.5724l-4.0066-1.099a.2968.2968,0,0,1-.2249-.302.293.293,0,0,1,.001-.0382.2884.2884,0,0,1,.0091-.0376A.2967.2967,0,0,1,20.1235,16.1439Zm4.8881,3.4948a.2968.2968,0,1,1,.5724.157l-1.099,4.0066a.2981.2981,0,0,1-.5871-.1032l.0074-.0269.0074-.0269Z" fill="#fff"/><path d="M19.6706,2a.998.998,0,0,1,.8679.5046l6.2842,11.0273a1,1,0,0,1-1.7383.99L19.3442,4.448,4.3168,14.9665,15.88,35.5925l19.8389-2.4043-6.71-11.7344a1,1,0,1,1,1.7363-.9922l7.458,13.042a1,1,0,0,1-.748,1.4893l-22,2.666a.9907.9907,0,0,1-.12.0068,1.0008,1.0008,0,0,1-.8721-.5107l-12.333-22a1.0007,1.0007,0,0,1,.2988-1.3086L19.0961,2.18A1.0069,1.0069,0,0,1,19.6706,2m10.3268,9.0488a.2983.2983,0,0,1,.2939.35l-.0074.0269-.0074.0269-1.0989,4.0066a.2968.2968,0,0,1-.5724-.157l1.099-4.0066a.2982.2982,0,0,1,.2932-.2465m4.995,2.0031.0264.0012a.34.34,0,0,1,.2683.36h0a.297.297,0,0,1-.1534.2081l-4.3762,2.4922a.3018.3018,0,0,1-.2987-.5244l4.3762-2.4923a.2969.2969,0,0,1,.157-.045M20.0347,16.13a.2964.2964,0,0,1,.0887.0136l4.0067,1.099a.2968.2968,0,1,1-.157.5724l-4.0067-1.099a.297.297,0,0,1,.0683-.586m10.1025,1.1414a.2978.2978,0,0,1,.0787.0107l4.0066,1.099a.2969.2969,0,1,1-.157.5724l-4.0067-1.099a.2968.2968,0,0,1,.0783-.583M23.58,18.9444a.3018.3018,0,0,1,.15.564l-4.3762,2.4922a.2969.2969,0,0,1-.1571.045l-.0263-.0012a.34.34,0,0,1-.2683-.36h0a.2971.2971,0,0,1,.1534-.2081l4.3762-2.4922a.3.3,0,0,1,.149-.04m1.7172.476a.297.297,0,0,1,.2864.3753l-1.099,4.0066a.2981.2981,0,1,1-.5871-.1032l.0074-.0269.0074-.0269,1.0989-4.0066a.2969.2969,0,0,1,.286-.2183M19.6706,0a2.993,2.993,0,0,0-1.7158.538L1.2823,12.2079a2.9923,2.9923,0,0,0-.897,3.9242L12.7188,38.133a3.0052,3.0052,0,0,0,2.9787,1.5112l21.9987-2.6659a3,3,0,0,0,2.2447-4.4657l-6.6965-11.71.2741.0752a2.2964,2.2964,0,0,0,2.8277-1.5209l.0394-.1259.0316-.1675.0139-.08.0073-.0806q.01-.1056.0095-.2113A2.303,2.303,0,0,0,34.7048,16.44l-.3234-.0887,1.7266-.9833a2.2838,2.2838,0,0,0,1.1453-1.5876l.0226-.121.0076-.1228.0062-.1-.001-.0409a2.297,2.297,0,0,0-2.093-2.3349l-.0884-.0079-.1151-.0012a2.2946,2.2946,0,0,0-1.1651.3175l-1.7234.9815.0891-.3246.0155-.0478.0118-.0507q.0127-.0476.0234-.0959l.01-.0434.0077-.0438a2.2983,2.2983,0,0,0-2.2637-2.696h0a2.294,2.294,0,0,0-2.2355,1.7673l-.06.2188L22.2762,1.5144A2.9982,2.9982,0,0,0,19.6706,0ZM6.9464,15.5671,18.693,7.345,22.97,14.8508,20.6707,14.22a2.2963,2.2963,0,0,0-2.8277,1.521l-.0394.1257-.0316.1673-.0139.08-.0073.0808q-.01.1058-.0095.2113a2.303,2.303,0,0,0,1.7427,2.251l.3236.0888-1.7267.9834a2.2842,2.2842,0,0,0-1.1452,1.5875l-.0225.12-.0077.1221-.0063.1009.001.0419a2.2969,2.2969,0,0,0,2.093,2.3347l.0884.0079.1151.0012a2.2944,2.2944,0,0,0,1.165-.3174l1.7235-.9816-.0887.3233-.0157.0481-.0123.0531q-.011.041-.02.0826l-.0112.0492-.0087.05a2.2981,2.2981,0,0,0,4.4993.9287l.63-2.2984a3.004,3.004,0,0,0,.2156.4641l5.2139,9.118L16.97,33.4458,6.9464,15.5671Zm19.3415,1.4407a3.0147,3.0147,0,0,0,.8018-.2045,2.2881,2.2881,0,0,0,.7548.6216,2.276,2.276,0,0,0,.2233,1.1394,2.965,2.965,0,0,0-.5553.5466,2.3042,2.3042,0,0,0-1.1684-1.4386,2.2832,2.2832,0,0,0-.0561-.6645Z" fill="#fff"/></g><path d="M15.3354,37.6657a1.0008,1.0008,0,0,1-.8721-.5107l-12.333-22a1.0007,1.0007,0,0,1,.2988-1.3086L19.0962,2.18a1,1,0,0,1,1.4424.3242l6.2842,11.0273a1,1,0,0,1-1.7383.99L19.3442,4.448,4.3169,14.9665,15.88,35.5925l19.8389-2.4043-6.71-11.7344a1,1,0,1,1,1.7363-.9922l7.458,13.042a1,1,0,0,1-.748,1.4893l-22,2.666A.9907.9907,0,0,1,15.3354,37.6657ZM35.2871,13.4132a.2907.2907,0,0,0,.0009-.0382.2967.2967,0,0,0-.4527-.2781l-4.3762,2.4923a.3018.3018,0,0,0,.2987.5244l4.3762-2.4922a.297.297,0,0,0,.1534-.2081Zm-1.2215,5.5405-4.0066-1.099a.2968.2968,0,0,1,.157-.5724l4.0066,1.099a.2968.2968,0,0,1,.2249.302.293.293,0,0,1-.001.0382.2884.2884,0,0,1-.0091.0376A.2967.2967,0,0,1,34.0656,18.9537Zm-4.8881-3.4948a.2968.2968,0,0,1-.5724-.157l1.099-4.0066a.2981.2981,0,0,1,.5871.1032l-.0074.0269-.0074.0269ZM18.902,21.6844a.2907.2907,0,0,0-.0009.0382.2967.2967,0,0,0,.4527.2781L23.73,19.5084a.3018.3018,0,0,0-.2987-.5244l-4.3762,2.4922a.297.297,0,0,0-.1534.2081Zm1.2215-5.5405,4.0066,1.099a.2968.2968,0,0,1-.157.5724l-4.0066-1.099a.2968.2968,0,0,1-.2249-.302.293.293,0,0,1,.001-.0382.2884.2884,0,0,1,.0091-.0376A.2967.2967,0,0,1,20.1235,16.1439Zm4.8881,3.4948a.2968.2968,0,1,1,.5724.157l-1.099,4.0066a.2981.2981,0,0,1-.5871-.1032l.0074-.0269.0074-.0269Z" fill="#1a2026"/></g></g></svg>