<svg id="Layer_1" data-name="Layer 1" xmlns="http://www.w3.org/2000/svg" viewBox="0 0 60 60"><defs><style>.cls-1{opacity:0.8;}.cls-2{fill:#1a2026;}.cls-3{fill:#fff;}</style></defs><title>DAS map icons</title><g class="cls-1"><path class="cls-2" d="M22.44,44.4l-0.18-.49a19.59,19.59,0,0,1-.79-2.83c2.25,0,3.49-1.09,3.9-2.12a2.67,2.67,0,0,0-.41-2.6l2.32-.84A0.45,0.45,0,0,0,27.55,35l-1.37-3.77,5.45-2a0.45,0.45,0,0,0,.27-0.57L31,26.12a0.45,0.45,0,0,0-.57-0.27L18.67,30.12a0.45,0.45,0,0,0-.27.57l0.3,0.84c-1.11.4-2.59-1.21-3.07-1.86a0.45,0.45,0,0,0-.51-0.16l-0.84.3a0.45,0.45,0,0,0-.27.57c0.52,1.43,2,3.72,4.13,3.87C13,37.4,14.64,44,15.69,46.86a0.45,0.45,0,0,0,.57.27L22.18,45A0.44,0.44,0,0,0,22.44,44.4Zm2.1-5.76c-0.31.78-1.31,1.59-3.21,1.56-0.17-1.34.06-2.53,0.71-2.77l2-.74A1.83,1.83,0,0,1,24.54,38.64Zm20.85-5.12A1.36,1.36,0,0,1,44,34l-8.17-2.44a1.36,1.36,0,1,1,.78-2.61l8.17,2.44A1.36,1.36,0,0,1,45.65,33,1.34,1.34,0,0,1,45.39,33.52Zm-9.07-6.89A1.36,1.36,0,0,1,36.1,24l8.12-2.6A1.36,1.36,0,1,1,45.05,24l-8.12,2.6A1.36,1.36,0,0,1,36.33,26.63ZM33,23a1.36,1.36,0,0,1-1-2l4.19-7.43a1.36,1.36,0,1,1,2.37,1.34l-4.19,7.43A1.36,1.36,0,0,1,33,23Z"/><path class="cls-3" d="M37.38,12.85a1.36,1.36,0,0,1,1.18,2l-4.19,7.43a1.36,1.36,0,0,1-1.19.69H33a1.36,1.36,0,0,1-1-2l4.19-7.43a1.36,1.36,0,0,1,1.19-.69m7.26,8.48A1.36,1.36,0,0,1,45.05,24l-8.12,2.6a1.37,1.37,0,0,1-.41.06H36.33A1.36,1.36,0,0,1,36.1,24l8.12-2.6a1.37,1.37,0,0,1,.41-0.06m-14.08,4.5a0.45,0.45,0,0,1,.42.29l0.91,2.51a0.45,0.45,0,0,1-.27.57l-5.45,2L27.55,35a0.45,0.45,0,0,1-.27.57L25,36.37a2.67,2.67,0,0,1,.41,2.6c-0.41,1-1.65,2.1-3.9,2.12a19.59,19.59,0,0,0,.79,2.83l0.18,0.49a0.44,0.44,0,0,1-.27.57l-5.92,2.15-0.15,0a0.45,0.45,0,0,1-.42-0.29c-1-2.88-2.69-9.45,2.46-12.6-2.16-.15-3.6-2.44-4.13-3.87a0.45,0.45,0,0,1,.27-0.57l0.84-.3,0.15,0a0.45,0.45,0,0,1,.36.18c0.42,0.58,1.65,1.93,2.69,1.93a1.09,1.09,0,0,0,.37-0.06l-0.3-.84a0.45,0.45,0,0,1,.27-0.57L30.4,25.85l0.15,0M21.44,40.2c1.83,0,2.81-.8,3.1-1.56a1.83,1.83,0,0,0-.48-1.94l-2,.74c-0.65.23-.88,1.43-0.71,2.77h0.11M36.18,28.85a1.35,1.35,0,0,1,.39.06l8.17,2.44A1.36,1.36,0,0,1,45.65,33a1.34,1.34,0,0,1-.26.48A1.36,1.36,0,0,1,44,34l-8.17-2.44a1.36,1.36,0,0,1,.39-2.66m1.2-19h0a4.37,4.37,0,0,0-3.8,2.22l-4.19,7.42a4.33,4.33,0,0,0-.4,3.31q0,0.17.11,0.33L17.65,27.3l-0.1,0a3.44,3.44,0,0,0-3.44-.65l-0.84.3a3.45,3.45,0,0,0-2.06,4.42,10.51,10.51,0,0,0,2.1,3.47c-2.11,3.28-2.31,7.86-.44,13a3.45,3.45,0,0,0,4.42,2.06l5.92-2.15a3.44,3.44,0,0,0,2.06-4.42l-0.05-.14a6.17,6.17,0,0,0,3-3.17,5.49,5.49,0,0,0,.38-1.82,3.45,3.45,0,0,0,1.82-4.32L30,33l2.26-.82,0.06,0.12a4.33,4.33,0,0,0,2.59,2.11l8.17,2.44a4.36,4.36,0,1,0,2.5-8.36l-2.44-.73,2.81-.9a4.36,4.36,0,0,0-2.65-8.31l-4.11,1.32,2-3.49a4.36,4.36,0,0,0-3.8-6.5h0Z"/></g><path class="cls-2" d="M22.44,44.4l-0.18-.49a19.59,19.59,0,0,1-.79-2.83c2.25,0,3.49-1.09,3.9-2.12a2.67,2.67,0,0,0-.41-2.6l2.32-.84A0.45,0.45,0,0,0,27.55,35l-1.37-3.77,5.45-2a0.45,0.45,0,0,0,.27-0.57L31,26.12a0.45,0.45,0,0,0-.57-0.27L18.67,30.12a0.45,0.45,0,0,0-.27.57l0.3,0.84c-1.11.4-2.59-1.21-3.07-1.86a0.45,0.45,0,0,0-.51-0.16l-0.84.3a0.45,0.45,0,0,0-.27.57c0.52,1.43,2,3.72,4.13,3.87C13,37.4,14.64,44,15.69,46.86a0.45,0.45,0,0,0,.57.27L22.18,45A0.44,0.44,0,0,0,22.44,44.4Zm2.1-5.76c-0.31.78-1.31,1.59-3.21,1.56-0.17-1.34.06-2.53,0.71-2.77l2-.74A1.83,1.83,0,0,1,24.54,38.64Zm20.85-5.12A1.36,1.36,0,0,1,44,34l-8.17-2.44a1.36,1.36,0,0,1,.78-2.61l8.17,2.44A1.36,1.36,0,0,1,45.65,33,1.34,1.34,0,0,1,45.39,33.52Zm-9.07-6.89A1.36,1.36,0,0,1,36.1,24l8.12-2.6A1.36,1.36,0,1,1,45.05,24l-8.12,2.6A1.36,1.36,0,0,1,36.33,26.63ZM33,23a1.36,1.36,0,0,1-1-2l4.19-7.43a1.36,1.36,0,1,1,2.37,1.34l-4.19,7.43A1.36,1.36,0,0,1,33,23Z"/></svg>