<svg id="7fe29924-7422-4bc0-af92-cac0f39040f9" data-name="Layer 1" xmlns="http://www.w3.org/2000/svg" viewBox="0 0 60 60"><defs><style>.bba385e1-52b1-4703-a032-55b3d864cc4f{opacity:0.8;}.\35 b7d568a-ee27-4436-b761-1eb7cd6c7533{fill:#fff;}.bfc7c484-1f49-454f-a5a1-8f93d3a9e56f{fill:#5a6066;}</style></defs><title>–</title><g class="bba385e1-52b1-4703-a032-55b3d864cc4f"><path class="5b7d568a-ee27-4436-b761-1eb7cd6c7533" d="M32.87,13.5a3.36,3.36,0,1,1-3.36,3.36,3.36,3.36,0,0,1,3.36-3.36m0-3a6.36,6.36,0,1,0,6.36,6.36,6.37,6.37,0,0,0-6.36-6.36h0Z"/><path class="5b7d568a-ee27-4436-b761-1eb7cd6c7533" d="M15,18.54V19.1h8l0.56,0.56v1.12h13.5a3.08,3.08,0,0,1,3.08,3.08V31.3a1.4,1.4,0,1,1-2.8,0V25.08a0.28,0.28,0,1,0-.56,0V44.82a1.68,1.68,0,0,1-3.36,0V35a0.56,0.56,0,1,0-1.12,0v9.78a1.68,1.68,0,1,1-3.36,0v-21h0a0.28,0.28,0,0,0-.27-0.25H22.45a1.39,1.39,0,0,1-1.31-1.87l-0.93-.93H13.85V19.1h0.56V18.54H15m6.36,2.8h0a1.4,1.4,0,0,1,.55-0.44V20.78H20.77l0.56,0.56M15,15.54H14.41A3,3,0,0,0,12,16.72a3,3,0,0,0-1.18,2.38v1.68a3,3,0,0,0,3,3h4.5a4.41,4.41,0,0,0,4.1,2.8h3.5V44.82a4.68,4.68,0,0,0,6.92,4.11,4.68,4.68,0,0,0,6.92-4.11V35.58a4.41,4.41,0,0,0,3.36-4.28V23.86a6.08,6.08,0,0,0-6.08-6.08H25.91l-0.22-.24L25.13,17A3,3,0,0,0,23,16.1h-6.3A3,3,0,0,0,15,15.54h0Z"/></g><circle class="bfc7c484-1f49-454f-a5a1-8f93d3a9e56f" cx="32.87" cy="16.86" r="3.36"/><path class="bfc7c484-1f49-454f-a5a1-8f93d3a9e56f" d="M37.07,20.78H23.57V19.66L23,19.1H15V18.54H14.41V19.1H13.85v1.68h6.36l0.93,0.93a1.39,1.39,0,0,0,1.31,1.87h6.22a0.28,0.28,0,0,1,.27.25h0v21a1.68,1.68,0,1,0,3.36,0V35a0.56,0.56,0,0,1,1.12,0v9.78a1.68,1.68,0,0,0,3.36,0V25.08a0.28,0.28,0,1,1,.56,0V31.3a1.4,1.4,0,0,0,2.8,0V23.86A3.08,3.08,0,0,0,37.07,20.78Zm-15.74.56-0.56-.56h1.12V20.9a1.4,1.4,0,0,0-.55.44h0Z"/></svg>