<svg xmlns="http://www.w3.org/2000/svg" viewBox="0 0 44.93 30.62"><defs><style>.a{opacity:0.8;}.b{fill:#fff;}.c{fill:#ffab24;}</style></defs><title>Asset 27</title><g class="a"><path class="b" d="M30.17,29.12a14.8,14.8,0,0,1-2.08-.19,1.5,1.5,0,0,1-.73-.34,1.71,1.71,0,0,1-.6-1.42,2.26,2.26,0,0,1,.78-1.48,11.31,11.31,0,0,1-.62-1.94L26.7,24a21,21,0,0,0-1,2,3,3,0,0,0,.12.28l.07.16a1.74,1.74,0,0,1-.19,1.62,2.41,2.41,0,0,1-2.07.86,12.63,12.63,0,0,1-2.14-.24,1.5,1.5,0,0,1-.62-.29,1.78,1.78,0,0,1-.71-1.59,2.19,2.19,0,0,1,1.05-1.57,3,3,0,0,0,.1-.29,8.17,8.17,0,0,1,.37-2.07,3.46,3.46,0,0,1-1.76.43,4,4,0,0,1-.67-.05,1.73,1.73,0,0,1-.3-.09,5.27,5.27,0,0,1-3.11-4.25,4,4,0,0,1-.61-.32,1.5,1.5,0,0,1-.68-1.24,1.6,1.6,0,0,1,0-.62,1.5,1.5,0,0,1,1.49-1.31h.3c.13-.4.34-.91.55-1.38a1.5,1.5,0,0,1-1.9.19l-1.75-1.18-1.87.41a4.09,4.09,0,0,1,.45,1.83s0,.15,0,.15,0,.14,0,.18v4a2.12,2.12,0,0,1-1.76,2.08v4.67a2.26,2.26,0,0,1-2.28,2.24,2.29,2.29,0,0,1-1.12-.29,2.29,2.29,0,0,1-1.12.29,2.26,2.26,0,0,1-2.28-2.24V21.76A2.12,2.12,0,0,1,1.5,19.69v-4s0-.1,0-.16,0-.13,0-.14a3.24,3.24,0,0,1,1.92-3.19A3.41,3.41,0,0,1,7.7,7.84a1.5,1.5,0,0,1,1-.75l1.17-.27L9.1,5.54a1.5,1.5,0,0,1,1.29-2.27,1.49,1.49,0,0,1,.49.08l2.18.75.43-1.51A1.5,1.5,0,0,1,14.85,1.5h.07a1.5,1.5,0,0,1,1.4,1l.48,1.22.27-.22a1.5,1.5,0,0,1,2.38,1.61l-.05.16,1.41.06A1.5,1.5,0,0,1,21.63,8L19.86,9.26l.08.13a5.82,5.82,0,0,1,.63-.47,2.88,2.88,0,0,1,1.67-.38,11.15,11.15,0,0,1,1.48.12c.38,0,1.25-.1,1.89-.17a3.13,3.13,0,0,1,1.47-.37,3.45,3.45,0,0,1,2.08.74A10.62,10.62,0,0,0,31.49,9H32A10,10,0,0,1,33.12,9a7.94,7.94,0,0,1,4.29,1.15,13,13,0,0,1,3,3.15,6.54,6.54,0,0,1,1.37,3.15,1.45,1.45,0,0,1,0,.33,16.66,16.66,0,0,0,.37,2.76,1.56,1.56,0,0,1,0,.26,14.06,14.06,0,0,0,.43,2.41,18,18,0,0,1,.46,2.3,1.51,1.51,0,0,1,0,.47,5.8,5.8,0,0,1,.36,1.14s0,.08,0,.12a2.12,2.12,0,0,1-.51,1.69,3.07,3.07,0,0,1-2.41.88,5.09,5.09,0,0,1-.53,0,1.55,1.55,0,0,1-.57-.18,1.91,1.91,0,0,1-.55-.46,3,3,0,0,1-2.29.73,15.05,15.05,0,0,1-2.05-.17,1.5,1.5,0,0,1-1.15-.91,2.63,2.63,0,0,1,1-2.95,9.45,9.45,0,0,0,0-1.66v0a5.85,5.85,0,0,0-.27-.6A6.66,6.66,0,0,1,33.6,22L33.14,22h0a5.12,5.12,0,0,1-1.23-.17c.06.46.12.89.16,1.16a14.75,14.75,0,0,1,.24,2.22,1.49,1.49,0,0,1-.06.51h0s0,0,0,.08a2.75,2.75,0,0,1,.5,1.51C32.72,27.87,32.43,29.12,30.17,29.12ZM21.75,18.05a2.5,2.5,0,0,1,1.08,1.14l.16-.54a1.51,1.51,0,0,1-.59-.27,2.05,2.05,0,0,1-.45-.46Zm-4.16-5.5,0,0h0ZM14.43,8.91a1.5,1.5,0,0,1,.5.29l.15.13a1.55,1.55,0,0,1,.2-.2,1.49,1.49,0,0,1,0-.65,1.5,1.5,0,0,1-.3-.19,1.5,1.5,0,0,1-.36.11,1.41,1.41,0,0,1-.06.25A1.47,1.47,0,0,1,14.43,8.91Z"/><path class="b" d="M14.93,3l1.23,3.15L18,4.61l-.64,2,3.37.14L17.81,8.89,19.21,11H16.56l-.71,2-2.29-1.54-2.86.63,1.43-2.17L9,8.55l3.17-.73-1.81-3L14.07,6l.86-3m-.56,3.92-2.11-.49.87,1.74-1.31.64L13,9.63l-.54,1.18,1.5-.48,1.49,1.3.82-1.37,1.13-.17-.65-1.3L18,7.72l-1.45-.44.09-.65-.72.49L15.21,6l-.84,1M18,4.61h0M6.67,9.18a1.91,1.91,0,1,1-1.91,1.91A1.91,1.91,0,0,1,6.67,9.18m20.43.44a2,2,0,0,1,1.2.45c.38.4,2.22.46,3.2.46h.63a8.4,8.4,0,0,1,1-.06,6.31,6.31,0,0,1,3.51.93,13.93,13.93,0,0,1,2.56,2.8,5.06,5.06,0,0,1,1.06,2.4,18.28,18.28,0,0,0,.4,3.2,16,16,0,0,0,.48,2.75,16.73,16.73,0,0,1,.42,2.11c-.66-.48-.87-2.3-.87-2.3a10.57,10.57,0,0,0-.29-1.48l.05,1.37a11,11,0,0,0,1,3,3.74,3.74,0,0,1,.45,1.16c.09.78-.88.89-1.43.89l-.37,0C39.65,27,40,26.05,40,26.05a18.54,18.54,0,0,0-.9-2.8A6.66,6.66,0,0,0,37.8,21.7c-.48.45-.24,3.09-.24,3.09A8.79,8.79,0,0,1,37.77,27c-.16.22-.67.29-1.22.29a13.49,13.49,0,0,1-1.81-.15c-.26-.63.82-1.43.82-1.43.48-.4.29-2.72.29-2.72a5,5,0,0,0-.58-1.51,5.57,5.57,0,0,1-.79-.77c0-.16-1.27-.29-1.27-.29h-.1a6.53,6.53,0,0,1-2.59-.82c-.13.05-.26.79-.26.79,0,1,.32,2.83.32,2.83a18.62,18.62,0,0,1,.21,2,2.12,2.12,0,0,0,.16,1.24,1.24,1.24,0,0,1,.32.77c0,.27-.5.35-1.08.35a13.41,13.41,0,0,1-1.83-.17c-.37-.32.63-1,.63-1,.45-.26.08-1.14.08-1.14a9.36,9.36,0,0,1-.71-2.14c-.11-.29-1-2.51-1-2.51A16,16,0,0,1,25.57,23a19.71,19.71,0,0,0-1.35,2.77c-.11.37.32,1.19.32,1.19.13.35-.3.45-.85.45a11.38,11.38,0,0,1-1.84-.21c-.48-.37.4-.82.4-.82.4-.24.63-1.29.63-1.29a7.06,7.06,0,0,1,.34-2,10.44,10.44,0,0,0,.58-1.9l.61-2.14a18.78,18.78,0,0,0,.48-2.48c-.18.26-1.58.53-1.58.53-.42-.32-.32-1.27-.32-1.27-.19.32-1.32.37-1.32.37l-.48.24a.49.49,0,0,1-.45.32l-.34-.26-.42,0a3.54,3.54,0,0,0-.71,2.54c.18,1.32.71,1.52,1,1.52a.63.63,0,0,0,.23,0c.5-.13,0-.79,0-.79.26-.11-.05-.34-.05-.34a.77.77,0,0,1,.41-.14c.52,0,.75.75.75.75A1.43,1.43,0,0,1,20,21.83a2.57,2.57,0,0,1-.41,0c-2.4-1-2.25-4.07-2.25-4.07h-.06a2.46,2.46,0,0,1-1.16-.37,1.48,1.48,0,0,0,.35,0,3.06,3.06,0,0,0,.45,0c-.87-.21-.85-.42-.85-.42h.15a9,9,0,0,0,1.31-.2l.21-.63a21.73,21.73,0,0,1,1.16-2.75,4.79,4.79,0,0,1,1-1.53,4.65,4.65,0,0,1,1.53-1.64,1.76,1.76,0,0,1,.88-.16,9.84,9.84,0,0,1,1.28.1h.2c.65,0,2.39-.22,2.39-.22a1.67,1.67,0,0,1,1-.32M8.76,13.46a4.51,4.51,0,0,1,.46,0,1.77,1.77,0,0,1,1.1,1.83c0,.07,0,.13,0,.2a.58.58,0,0,1,0,.09v4a.64.64,0,0,1-1.28,0v-4H8.57q0,.54,0,1.08,0,1.64,0,3.27h0v6.45a.76.76,0,0,1-.78.74h0A.76.76,0,0,1,7,26.43V20H6.32v6.45a.76.76,0,0,1-.78.74h0a.76.76,0,0,1-.78-.74V20h0q0-1.64,0-3.27,0-.54,0-1.08H4.28v4a.64.64,0,0,1-1.28,0v-4a.55.55,0,0,1,0-.09c0-.07,0-.13,0-.2a1.77,1.77,0,0,1,1.1-1.83,4.49,4.49,0,0,1,.46,0H8.76M14.93,0h-.15A3,3,0,0,0,12,2.17l-.68-.23a3,3,0,0,0-3.76,4,3,3,0,0,0-.45.3l-.49,0a4.91,4.91,0,0,0-4.91,4.91q0,.16,0,.31A5,5,0,0,0,0,15.27s0,.06,0,.09v0q0,.12,0,.24v4a3.6,3.6,0,0,0,1.76,3.09v3.66a3.76,3.76,0,0,0,3.78,3.74A3.81,3.81,0,0,0,6.66,30a3.79,3.79,0,0,0,4.9-3.57V22.78a3.6,3.6,0,0,0,1.76-3.09v-1.2a3,3,0,0,0,1.14,1.39l.11.07a6.55,6.55,0,0,0,3.86,4.63,3,3,0,0,0,.61.18l.47.06a3.41,3.41,0,0,0-.8,1.88A3.3,3.3,0,0,0,20,29.61a3,3,0,0,0,1.25.57,13.93,13.93,0,0,0,2.43.27,4.16,4.16,0,0,0,2.63-.79l.07.06a3,3,0,0,0,1.46.68,16.22,16.22,0,0,0,2.32.21,4.35,4.35,0,0,0,3-.92,3,3,0,0,0,1.13.43,16.34,16.34,0,0,0,2.29.19,5.54,5.54,0,0,0,2.23-.39,3,3,0,0,0,1,.3,6.71,6.71,0,0,0,.69,0A4.48,4.48,0,0,0,44,28.88,3.61,3.61,0,0,0,44.9,26c0-.08,0-.16,0-.25a7.45,7.45,0,0,0-.31-1.06,3,3,0,0,0,0-.43,19.64,19.64,0,0,0-.5-2.52,12.9,12.9,0,0,1-.37-2,3,3,0,0,0-.06-.52,18.57,18.57,0,0,1-.35-2.37,3,3,0,0,0,0-.62,8,8,0,0,0-1.68-3.88c-1.82-2.49-2.89-3.24-3.39-3.52a9.48,9.48,0,0,0-5-1.34,11.41,11.41,0,0,0-1.21.07h-.42a13.77,13.77,0,0,1-1.72-.09,4.89,4.89,0,0,0-2.68-.83h0a4.6,4.6,0,0,0-1.9.41c-.57.07-1.11.12-1.37.13h-.09a3,3,0,0,0-2.82-3.37A3,3,0,0,0,18,1.61h0l-.4,0A3,3,0,0,0,14.93,0Zm-1.6,15.4v0s0-.06,0-.09,0-.24,0-.36l.35.24a3,3,0,0,0-.33.55v-.05c0-.08,0-.16,0-.24Z"/></g><path class="c" d="M28.29,10.07c.53.55,3.83.45,3.83.45a6.68,6.68,0,0,1,4.52.87,13.93,13.93,0,0,1,2.56,2.8,5.06,5.06,0,0,1,1.06,2.4,18.26,18.26,0,0,0,.4,3.2,16,16,0,0,0,.48,2.75,16.74,16.74,0,0,1,.42,2.11c-.66-.48-.87-2.3-.87-2.3a10.57,10.57,0,0,0-.29-1.48l.05,1.37a11,11,0,0,0,1,3,3.74,3.74,0,0,1,.45,1.16c.13,1.08-1.8.87-1.8.87C39.65,27,40,26.05,40,26.05a18.53,18.53,0,0,0-.9-2.8A6.66,6.66,0,0,0,37.8,21.7c-.48.45-.24,3.09-.24,3.09A8.8,8.8,0,0,1,37.77,27c-.4.55-3,.13-3,.13-.26-.63.82-1.43.82-1.43.48-.4.29-2.72.29-2.72a5,5,0,0,0-.58-1.51,5.57,5.57,0,0,1-.79-.77c0-.16-1.27-.29-1.27-.29a6.31,6.31,0,0,1-2.69-.82c-.13.05-.26.79-.26.79,0,1,.32,2.83.32,2.83a18.62,18.62,0,0,1,.21,2,2.12,2.12,0,0,0,.16,1.24,1.24,1.24,0,0,1,.32.77c0,.66-2.91.18-2.91.18-.37-.32.63-1,.63-1,.45-.26.08-1.14.08-1.14a9.36,9.36,0,0,1-.71-2.14c-.11-.29-1-2.51-1-2.51A16,16,0,0,1,25.57,23a19.72,19.72,0,0,0-1.35,2.77c-.11.37.32,1.19.32,1.19.32.85-2.69.24-2.69.24-.48-.37.4-.82.4-.82.4-.24.63-1.29.63-1.29a7.06,7.06,0,0,1,.34-2,10.43,10.43,0,0,0,.58-1.9l.61-2.14a18.77,18.77,0,0,0,.48-2.48c-.19.26-1.59.53-1.59.53-.42-.32-.32-1.27-.32-1.27-.19.32-1.32.37-1.32.37l-.48.24a.49.49,0,0,1-.45.32l-.34-.26-.42,0a3.54,3.54,0,0,0-.71,2.54c.26,1.9,1.24,1.48,1.24,1.48.5-.13,0-.79,0-.79.26-.11-.05-.34-.05-.34.82-.53,1.16.61,1.16.61.24,2.11-2,1.72-2,1.72-2.4-1-2.25-4.07-2.25-4.07a2.4,2.4,0,0,1-1.22-.37,2.42,2.42,0,0,0,.79,0c-.87-.21-.85-.42-.85-.42a6.3,6.3,0,0,0,1.45-.18l.21-.63a21.76,21.76,0,0,1,1.16-2.75,4.79,4.79,0,0,1,1-1.53,4.65,4.65,0,0,1,1.53-1.64c.45-.32,2.17-.05,2.17-.05a20.86,20.86,0,0,0,2.59-.21A1.78,1.78,0,0,1,28.29,10.07Zm-18,5.57v4a.64.64,0,0,1-1.28,0v-4H8.57q0,.54,0,1.08,0,1.64,0,3.27h0v6.45a.76.76,0,0,1-.78.74h0A.76.76,0,0,1,7,26.43V20H6.32v6.45a.76.76,0,0,1-.78.74h0a.76.76,0,0,1-.78-.74V20h0q0-1.64,0-3.27,0-.54,0-1.08H4.28v4a.64.64,0,0,1-1.28,0v-4a.55.55,0,0,1,0-.09c0-.07,0-.13,0-.2a1.77,1.77,0,0,1,1.1-1.83,4.5,4.5,0,0,1,.46,0H8.76a4.51,4.51,0,0,1,.46,0,1.77,1.77,0,0,1,1.1,1.83c0,.07,0,.13,0,.2A.58.58,0,0,1,10.33,15.64ZM8.57,11.08A1.91,1.91,0,1,0,6.67,13,1.91,1.91,0,0,0,8.57,11.08ZM20.75,6.78l-3.37-.14.64-2L16.16,6.15,14.93,3l-.86,3L10.39,4.77l1.81,3L9,8.55l3.1,1.37L10.7,12.09l2.86-.63L15.84,13l.71-2h2.66l-1.4-2.11Zm-4.5,3.49-.82,1.37-1.49-1.3-1.5.48L13,9.63,11.82,8.8l1.31-.64-.87-1.74,2.11.49.84-1,.7,1.17.72-.49-.09.65L18,7.72,16.74,8.8l.65,1.3Z"/></svg>