<svg xmlns="http://www.w3.org/2000/svg" width="36.7617" height="23.1389" viewBox="0 0 36.7617 23.1389"><title>IED-med_green</title><g id="Layer_2" data-name="Layer 2"><g id="Layer_1-2" data-name="Layer 1"><g opacity="0.8"><path d="M15.0206,22.1394a.997.997,0,0,1-.5049-.1367l-4.4639-2.6094a1,1,0,0,1,.5039-1.8633c.0234,0,3.3262.2314,3.3262.2314-.3682-.7207-.6846-1.3262-.6846-1.3262a1,1,0,0,1,.8867-1.4629.9733.9733,0,0,1,.2178.0244l1.6318.3643L15.12,11.197a1,1,0,0,1,1.7715-.8047l2.42,3.1211.6553-1.6943a.9991.9991,0,0,1,.9326-.64c.0225,0,.0449.001.0684.002a1,1,0,0,1,.9043.7676l.4287,1.8047,1.7959-1.86a1,1,0,0,1,1.6943.92l-.9121,3.9346,3.2021.34a1,1,0,0,1,.458,1.82L24.06,21.9656a.9994.9994,0,0,1-.5635.1738Z" fill="#fff"/><path d="M16.1019,11.0054l3.5039,4.5186L20.8993,12.18l.85,3.5837,3.0671-3.1759L23.65,17.6228l4.3254.4587L23.496,21.1389H15.0211L10.557,18.53l5.0063.3513c-.5327-1.0945-1.4792-2.9088-1.4792-2.9088l3.1238.6981-1.106-5.6653m8.7148,1.5822h.0049m-8.72-3.5823a2,2,0,0,0-1.9622,2.3833l.52,2.6631-.1384-.031a2,2,0,0,0-2.3215,2.62l-1.502-.1055c-.0471-.0033-.0942-.0049-.1409-.0049A2,2,0,0,0,9.548,20.2568l4.4641,2.6089a2,2,0,0,0,1.009.2732H23.496a2,2,0,0,0,1.1274-.3481l4.4792-3.0574a2,2,0,0,0-.9165-3.6407l-2.0776-.22.6331-2.7316a2.0013,2.0013,0,0,0-1.8965-2.5531h-.0276c-.0278,0-.0559,0-.0837.0017a1.9994,1.9994,0,0,0-1.3479.601l0,0-.0015.0013-.0012.0012,0,.0007-.002.002h0l-.0034.0035-.5256.5443-.0061-.0258a2,2,0,0,0-1.81-1.5336c-.0459-.0032-.0913-.0046-.1367-.0046a2,2,0,0,0-1.8645,1.2786l-.0168.043L17.6825,9.78a2,2,0,0,0-1.5813-.7745Z" fill="#fff"/><path d="M25.4249,21.7068a1,1,0,0,1-.5391-1.8428l4.1514-2.6533-3.65-.3877a1,1,0,0,1-.8691-1.22l.8887-3.832-2.0791,2.1523a1,1,0,0,1-.72.3057,1.0269,1.0269,0,0,1-.2646-.0352.9984.9984,0,0,1-.708-.7344l-.5391-2.27-.7725,1.9961a.9973.9973,0,0,1-.7881.6289,1.0283,1.0283,0,0,1-.1445.0107.9968.9968,0,0,1-.79-.3877l-2.627-3.3867.8174,4.1855a1,1,0,0,1-.9814,1.1914.9733.9733,0,0,1-.2178-.0244l-2.9033-.6484c.3779.7432.7637,1.5117,1.0693,2.1377l.3584.7363a1,1,0,0,1-.8994,1.4375c-.0234,0-3.04-.2109-3.04-.2109l1.6895.9873a1,1,0,0,1-.5049,1.8633H9.4865a.997.997,0,0,1-.5049-.1367l-7.4863-4.375a1,1,0,0,1,.5039-1.8633c.0234,0,7.96.5557,7.96.5557-.5859-1.1494-1.1318-2.1992-1.2852-2.4951L8.1613,12.41A1,1,0,0,1,9.047,10.947a.9733.9733,0,0,1,.2178.0244l4.0645.9082L11.5138,2.5808a1,1,0,0,1,1.7715-.8047l5.5332,7.1348,1.791-4.63a.9991.9991,0,0,1,.9326-.64c.0225,0,.0449.001.0684.002a1,1,0,0,1,.9043.7676L23.68,9.3181l4.4893-4.6494a1,1,0,0,1,1.6943.92l-1.9785,8.5371,6.9824.7412a1,1,0,0,1,.4336,1.8369l-7.58,4.8457a1.0056,1.0056,0,0,1-.5391.1572Z" fill="#fff"/><path d="M12.4955,2.39l6.6172,8.533,2.4292-6.2816,1.5872,6.6864,5.76-5.9641-2.2334,9.6373,8.1064.86-7.58,4.8463H25.4249l6.554-4.19-6.4868-.688,1.7036-7.35-4.5879,4.75L21.3251,7.8246,19.391,12.8257,14.1866,6.1143l1.6233,8.314L10.8248,13.314c.5439,1.0527,1.4429,2.8038,2.0332,4.0167l.3584.7363-7.2412-.5082,5.3865,3.1481H9.4867L2,16.3317l9.6443.6765c-.8972-1.8011-2.1123-4.1318-2.1262-4.1584l-.4707-.9025,5.5566,1.2419L12.4955,2.39M28.8886,5.3635h.0049M12.4948.39a2,2,0,0,0-1.9622,2.3834L12.0551,10.57,9.4838,9.9955a2,2,0,0,0-2.2095,2.8767l.4707.9025c.0051.01.2112.4052.5137.9911L2.14,14.3365c-.0471-.0033-.0942-.0049-.1409-.0049A2,2,0,0,0,.9911,18.0585l7.4866,4.3752a2,2,0,0,0,1.009.2732h1.875a2,2,0,0,0,1.8948-2.64,2,2,0,0,0,1.7583-2.8749l-.3584-.7363q-.0626-.1287-.1294-.2646l.8467.1892a2,2,0,0,0,2.3992-2.3351l-.011-.0564.0486.0627a2,2,0,0,0,3.0432.1385,2,2,0,0,0,2.7917.749l-.1016.4385a2,2,0,0,0,1.7373,2.44l.8147.0864-1.7483,1.1177a2,2,0,0,0,1.0774,3.6851h1.7563a2,2,0,0,0,1.0774-.3149l7.58-4.8463a2,2,0,0,0-.8665-3.674L29.1139,13.25l1.6995-7.3336a2.0013,2.0013,0,0,0-1.895-2.5531h-.0291q-.0436,0-.0872.0018a1.9989,1.9989,0,0,0-1.3191.5753l0,0-.0012.0012L27.48,3.944h0l-.0334.0339L24.23,7.308l-.7424-3.1287a2,2,0,0,0-1.81-1.5334c-.0457-.0032-.0913-.0046-.1365-.0046A2,2,0,0,0,19.6764,3.92L18.524,6.9l-4.448-5.7358A2,2,0,0,0,12.4948.39Z" fill="#fff"/><path d="M17.8351,6.5808a.9956.9956,0,0,1-.9648-.9941c0-.0244.2578-3.6582.2578-3.6582A1,1,0,0,1,18.1241,1h.001a1,1,0,0,1,.9971.9268l.2559,3.4687a1,1,0,0,1-.9971,1.0732c-.0156,0-.0322,0-.0479-.001a.9862.9862,0,0,1-.4619.1143C17.8585,6.5818,17.8468,6.5818,17.8351,6.5808Z" fill="#fff"/><path d="M18.1254,2l.2556,3.4689s-.0569-.0044-.1326-.0044c-.0381,0-.0806.0011-.1233.0044-.1221.0094-.2444.0369-.2546.1082L18.1254,2M17.87,5.577l-.0007.01.0007-.01M18.1254,0h-.0024A2,2,0,0,0,16.13,1.8578l-.2549,3.5771,0,.0024c-.0037.0507-.0056.1014-.0056.15a2,2,0,0,0,1.929,1.9988c.0242.0009.0483.0012.0723.0012a1.9916,1.9916,0,0,0,.7026-.1274,2,2,0,0,0,1.802-2.1377L20.12,1.853A2,2,0,0,0,18.1254,0Z" fill="#fff"/><path d="M10.9825,12.0056a1.0022,1.0022,0,0,1-.7373-.3564L7.0128,7.8074A1,1,0,0,1,8.3312,6.3308L12.549,9.13a1,1,0,0,1,.1738,1.52l-.9854,1.043a.9989.9989,0,0,1-.7266.3135Z" fill="#fff"/><path d="M7.7787,7.1638l4.2178,2.7987-.9854,1.0428L7.7787,7.1638m.001-2A2,2,0,0,0,6.2484,8.4515l3.2324,3.8416a2,2,0,0,0,1.4727.7114l.0576.0009a1.9992,1.9992,0,0,0,1.4536-.6265l.9854-1.0428a2,2,0,0,0-.3479-3.04L8.8844,5.4973A1.9932,1.9932,0,0,0,7.78,5.1637Z" fill="#fff"/><path d="M8.0548,16.0593A1,1,0,0,1,7.41,15.824l-1.1826-.9971a1,1,0,0,1,.6445-1.7646,1.0159,1.0159,0,0,1,.3164.0508l1.7734.5908a1.0006,1.0006,0,0,1,.25,1.7734l-.5908.4063A1.0014,1.0014,0,0,1,8.0548,16.0593Z" fill="#fff"/><path d="M6.8722,14.062l1.7737.5913-.5913.4056L6.8722,14.062m0-2a2,2,0,0,0-1.29,3.5293l1.1824.9969a2,2,0,0,0,2.4207.12l.5913-.4056a2,2,0,0,0-.4988-3.5466l-1.7737-.5913a1.9968,1.9968,0,0,0-.6323-.1029Z" fill="#fff"/><path d="M23.69,6.5867a1.0015,1.0015,0,0,1-.9551-.7061l-.2627-.8535a.9993.9993,0,0,1,.9561-1.2939.9876.9876,0,0,1,.4746.12l1.3135.709a.9994.9994,0,0,1-.3379,1.87l-1.0508.1445A.9328.9328,0,0,1,23.69,6.5867Z" fill="#fff"/><path d="M23.4279,4.733l1.314.7095-1.0513.1445-.2627-.854m0-2a2,2,0,0,0-1.9119,2.588l.2627.854A1.9986,1.9986,0,0,0,23.963,7.5684l1.0513-.1445a2,2,0,0,0,.6777-3.7412l-1.314-.7095a1.9982,1.9982,0,0,0-.95-.24Z" fill="#fff"/><path d="M23.4279,8.8865a1,1,0,0,1-.8477-1.53l.6572-1.0508a1,1,0,0,1,.8477-.47c.02,0,.0381.001.0576.002a.9976.9976,0,0,1,.8457.5693l.499,1.0508a1,1,0,0,1-.9033,1.4287Z" fill="#fff"/><path d="M24.0848,6.8353l.4993,1.0511H23.4279l.657-1.0511m0-2a2,2,0,0,0-1.6958.94l-.657,1.0511a2,2,0,0,0,1.696,3.06h1.1563a2,2,0,0,0,1.8066-2.858l-.4993-1.0511A2,2,0,0,0,24.2,4.8386c-.0386-.0022-.0771-.0033-.1155-.0033Z" fill="#fff"/></g><path d="M23.65,17.6228l1.167-5.0353L21.75,15.7635,20.8992,12.18,19.6058,15.524l-3.5039-4.5186,1.1061,5.6653-3.1237-.6982s.9464,1.8144,1.4792,2.9088L10.557,18.53l4.464,2.6089h8.4749l4.4794-3.0574Z" fill="#4f8317"/><path d="M26.6551,15.0008l2.2335-9.6373-5.76,5.9642-1.587-6.6865-2.4293,6.2817L12.4955,2.39,14.604,13.1893l-5.5566-1.242.4708.9025c.0139.0266,1.229,2.3572,2.1261,4.1585L2,16.3316l7.4865,4.3752h1.875l-5.3865-3.148,7.2413.5081-.3584-.7363c-.59-1.2129-1.4893-2.9639-2.0334-4.0167L15.81,14.4282,14.1867,6.1143l5.2044,6.7114,1.9341-5.0012,1.2827,5.4045,4.5878-4.7505-1.7035,7.35,6.4868.688-6.5538,4.19h1.7563l7.58-4.8463Z" fill="#4f8317"/><path d="M18.1252,5.4688a1.8974,1.8974,0,0,1,.2557,0L18.1253,2,17.87,5.5871C17.87,5.5083,17.9975,5.4787,18.1252,5.4688Z" fill="#4f8317"/><polygon points="11.996 9.963 7.779 7.164 11.011 11.005 11.996 9.963" fill="#4f8317"/><polygon points="8.646 14.653 6.872 14.062 8.055 15.059 8.646 14.653" fill="#4f8317"/><polygon points="24.742 5.443 23.428 4.733 23.691 5.587 24.742 5.443" fill="#4f8317"/><polygon points="24.085 6.835 23.428 7.886 24.584 7.886 24.085 6.835" fill="#4f8317"/></g></g></svg>