<svg xmlns="http://www.w3.org/2000/svg" width="38.2223" height="25" viewBox="0 0 38.2223 25"><title>illegal_logging-red</title><g id="Layer_2" data-name="Layer 2"><g id="Layer_1-2" data-name="Layer 1"><g opacity="0.8"><path d="M7.24,23.0992a6.2368,6.2368,0,1,1,0-12.4736H8.5032a1.0014,1.0014,0,0,1,.7119.2979A5.0831,5.0831,0,0,0,12.83,12.4674h1.7324a1,1,0,0,1,.7168,1.6973,5.1629,5.1629,0,0,0-.5518,6.5537,1.0005,1.0005,0,0,1-.6963,1.5615c-6.46.8193-6.668.8193-6.792.8193Z" fill="#fff"/><path d="M8.5029,11.6254a6.0806,6.0806,0,0,0,4.3237,1.8418H14.563a6.164,6.164,0,0,0-.6575,7.8206c-3.4175.4332-6.46.812-6.6663.812a5.2372,5.2372,0,1,1,0-10.4744H8.5029M7.25,21.124a4.2778,4.2778,0,1,0-4.2783-4.2786A4.2817,4.2817,0,0,0,7.25,21.124m0-7.7778a3.5,3.5,0,1,1-3.5,3.5,3.5,3.5,0,0,1,3.5-3.5m0,6.0278a2.5278,2.5278,0,1,0-2.5278-2.5275A2.5327,2.5327,0,0,0,7.25,19.374m7.313-5.9069h.0049M7.25,14.8462a2,2,0,1,1-2,2,2,2,0,0,1,2-2M8.5029,9.6254H7.2393A7.2372,7.2372,0,1,0,7.2383,24.1c.2,0,.3882,0,6.9187-.8279a2,2,0,0,0,1.3923-3.1233,4.1639,4.1639,0,0,1,.4133-5.2516,1.9992,1.9992,0,0,0-1.3948-3.43H12.8267a4.085,4.085,0,0,1-2.9-1.2463,2,2,0,0,0-1.4238-.5955Z" fill="#fff"/><path d="M12.8274,13.5065A6.2536,6.2536,0,0,1,12.8264,1c.49.001,9.7939,1.5137,15.2969,2.415,2.3994.3271,4.0166,2.417,3.9951,5.1973a5.022,5.022,0,0,1-1.4756,3.7.9993.9993,0,0,1-.6875.2734H19.0139a5.2246,5.2246,0,0,0-2.7217.7734.9966.9966,0,0,1-.5225.1475Z" fill="#fff"/><path d="M12.8271,2c.4795.0007,15.134,2.4017,15.134,2.4017,2.0073.2734,3.1736,2.0168,3.1577,4.2024a4.0386,4.0386,0,0,1-1.1641,2.9816H19.0139a6.2249,6.2249,0,0,0-3.2437.9209H12.8271A5.2934,5.2934,0,0,1,7.6257,7.1995,5.2012,5.2012,0,0,1,12.8271,2m-.02,9.5313A4.2778,4.2778,0,1,0,8.5291,7.2532a4.2818,4.2818,0,0,0,4.2786,4.2781m0-7.7777a3.5,3.5,0,1,1-3.5,3.5,3.5,3.5,0,0,1,3.5-3.5m0,6.0277A2.5278,2.5278,0,1,0,10.28,7.2539a2.5327,2.5327,0,0,0,2.5276,2.5273m0-4.5277a2,2,0,1,1-2,2,2,2,0,0,1,2-2M12.83,0h-.0039a7.2535,7.2535,0,0,0,.0007,14.5066H15.77a2,2,0,0,0,1.0447-.2946,4.2148,4.2148,0,0,1,2.2-.6263h10.94a2,2,0,0,0,1.3743-.5469,6.0125,6.0125,0,0,0,1.79-4.4315c.0239-3.2837-1.927-5.769-4.8582-6.1831C13.4709.0011,13.022,0,12.83,0Z" fill="#fff"/><path d="M18.9749,24A6.22,6.22,0,0,1,18.9963,11.56l13.3828-.001a4.956,4.956,0,0,1,4.8428,5.1348,5.3124,5.3124,0,0,1-4.1641,5.1631.935.935,0,0,1-.1377.03L19.1467,23.9879a.9659.9659,0,0,1-.15.0117Z" fill="#fff"/><path d="M32.3792,12.5587a3.9589,3.9589,0,0,1,3.843,4.137A4.33,4.33,0,0,1,32.77,20.8988L18.9963,23a5.22,5.22,0,1,1,0-10.44l13.3828-.0012M19.1116,22.0243a4.2778,4.2778,0,1,0-4.2783-4.2786,4.2822,4.2822,0,0,0,4.2783,4.2786m0-7.7778a3.5,3.5,0,1,1-3.5,3.5,3.5,3.5,0,0,1,3.5-3.5m0,6.0278a2.5278,2.5278,0,1,0-2.5278-2.5273,2.5329,2.5329,0,0,0,2.5278,2.5273m0-4.5278a2,2,0,1,1-2,2,2,2,0,0,1,2-2m13.2681-5.1877L18.9961,10.56A7.22,7.22,0,0,0,18.9529,25l.0435,0a2.0123,2.0123,0,0,0,.3015-.0228L33.0715,22.876a2.0049,2.0049,0,0,0,.2742-.0618c3.0735-.9238,4.8965-3.2163,4.8765-6.1323a5.9441,5.9441,0,0,0-5.8372-6.1232Z" fill="#fff"/></g><path d="M14.5631,13.4672H12.8267A6.08,6.08,0,0,1,8.503,11.6254H7.2391a5.2372,5.2372,0,1,0,0,10.4743c.2061,0,3.2488-.3788,6.6663-.812a6.1644,6.1644,0,0,1,.6576-7.8206ZM7.25,21.124a4.2778,4.2778,0,1,1,4.2774-4.2786A4.2823,4.2823,0,0,1,7.25,21.124Zm0-7.7778a3.5,3.5,0,1,0,3.5,3.5A3.5,3.5,0,0,0,7.25,13.3462Zm0,6.0278a2.5278,2.5278,0,1,1,2.5278-2.5274A2.5329,2.5329,0,0,1,7.25,19.374Zm0-4.5278a2,2,0,1,0,2,2A2,2,0,0,0,7.25,14.8462Z" fill="#d0021b"/><path d="M27.9611,4.4018S13.3066,2.0008,12.8271,2A5.2011,5.2011,0,0,0,7.6257,7.1995a5.2934,5.2934,0,0,0,5.2014,5.3072H15.77a6.2257,6.2257,0,0,1,3.2437-.9209h10.941a4.0387,4.0387,0,0,0,1.1639-2.9816C31.1348,6.4186,29.9685,4.6752,27.9611,4.4018ZM12.8076,11.5313a4.2778,4.2778,0,1,1,4.277-4.2786A4.2826,4.2826,0,0,1,12.8076,11.5313Zm0-7.7778a3.5,3.5,0,1,0,3.5,3.5A3.5,3.5,0,0,0,12.8073,3.7535Zm0,6.0278A2.5278,2.5278,0,1,1,15.335,7.2539,2.5324,2.5324,0,0,1,12.8073,9.7813Zm0-4.5278a2,2,0,1,0,2,2A2,2,0,0,0,12.8073,5.2535Z" fill="#d0021b"/><path d="M32.3792,12.5587,18.9964,12.56a5.22,5.22,0,1,0,0,10.44L32.77,20.8988a4.33,4.33,0,0,0,3.4522-4.2031A3.9591,3.9591,0,0,0,32.3792,12.5587ZM19.1115,22.0243a4.2778,4.2778,0,1,1,4.2774-4.2786A4.2828,4.2828,0,0,1,19.1115,22.0243Zm0-7.7778a3.5,3.5,0,1,0,3.5,3.5A3.5,3.5,0,0,0,19.1111,14.2465Zm0,6.0278a2.5278,2.5278,0,1,1,2.5278-2.5274A2.5326,2.5326,0,0,1,19.1111,20.2743Zm0-4.5278a2,2,0,1,0,2,2A2,2,0,0,0,19.1111,15.7465Z" fill="#d0021b"/></g></g></svg>