<svg xmlns="http://www.w3.org/2000/svg" viewBox="0 0 24 24"><defs><style>.a{opacity:0.8;}.b{fill:#fff;}.c{fill:#9ea7b3;}</style></defs><title>Asset 5</title><g class="a"><path class="b" d="M12,22.5A10.5,10.5,0,1,1,22.5,12,10.51,10.51,0,0,1,12,22.5Zm-1.78-5.23a5.51,5.51,0,0,0,1.78.29A5.57,5.57,0,0,0,17.56,12a5.51,5.51,0,0,0-.29-1.78ZM12,6.44a5.56,5.56,0,0,0-5.27,7.33l7-7A5.51,5.51,0,0,0,12,6.44Z"/><path class="b" d="M12,3a9,9,0,1,1-9,9,9,9,0,0,1,9-9M6.37,16.25l9.88-9.88a7.06,7.06,0,0,0-9.88,9.88M12,19.06A7.05,7.05,0,0,0,17.63,7.74L7.74,17.63A7,7,0,0,0,12,19.06M12,0A12,12,0,1,0,24,12,12,12,0,0,0,12,0ZM8.61,9.77A4.09,4.09,0,0,1,9.77,8.61L8.61,9.77Zm5.59,5.64,1.22-1.22a4.09,4.09,0,0,1-1.22,1.22Z"/></g><path class="c" d="M12,3a9,9,0,1,0,9,9A9,9,0,0,0,12,3ZM4.94,12A7.06,7.06,0,0,1,16.25,6.37L6.37,16.25A7,7,0,0,1,4.94,12ZM12,19.06a7,7,0,0,1-4.26-1.43l9.88-9.88A7.05,7.05,0,0,1,12,19.06Z"/></svg>