<svg xmlns="http://www.w3.org/2000/svg" width="33.2373" height="19.6688" viewBox="0 0 33.2373 19.6688"><title>immobility_alert-med_green</title><g id="Layer_2" data-name="Layer 2"><g id="Layer_1-2" data-name="Layer 1"><g opacity="0.8"><path d="M18.088,16.9977a1,1,0,0,1-.9033-1.43.7157.7157,0,0,0,.0771-.333.7.7,0,0,0-.2266-.501.7237.7237,0,0,0-1.02.03.7557.7557,0,0,0-.085.11,1.0023,1.0023,0,0,1-.7051.4541l-2.6709.3779a1.0015,1.0015,0,0,1-.957,1.291H6.1671a.999.999,0,0,1-.998-1.0605A11.38,11.38,0,0,1,6.4064,11.4a.9927.9927,0,0,1,.416-.4248,1.0028,1.0028,0,0,1,.1611-.5713A11.6183,11.6183,0,0,1,10.39,6.9967a1.0046,1.0046,0,0,1,.5439-.16h.0293a1.0012,1.0012,0,0,1,.4238-.416,11.3387,11.3387,0,0,1,4.6563-1.2461c.0156-.001.0322-.001.0488-.001a1,1,0,0,1,.5273.15,1,1,0,0,1,.5273-.15c.0166,0,.0332,0,.0488.001a11.3631,11.3631,0,0,1,4.6563,1.2461.9927.9927,0,0,1,.4248.416h.0273a.995.995,0,0,1,.5439.1611A11.6117,11.6117,0,0,1,26.254,10.403a1.0015,1.0015,0,0,1,.1611.5732,1.0012,1.0012,0,0,1,.416.4238,11.3484,11.3484,0,0,1,1.2363,4.5381,1,1,0,0,1-.998,1.06Z" fill="#fff"/><path d="M17.1464,6.1733A10.4167,10.4167,0,0,1,21.3954,7.31l-.7263,1.2578.91.5232.7244-1.2551a10.534,10.534,0,0,1,3.1111,3.1108l-1.2563.7255.5271.91,1.2563-.7256a10.4048,10.4048,0,0,1,1.1282,4.14H18.0883a1.7176,1.7176,0,0,0-2.8022-1.9161,1.7279,1.7279,0,0,0-.1995.2574l-4.3433.6143.0313.9812.8228.0632h-5.43a10.4133,10.4133,0,0,1,1.1292-4.1409l1.2581.7263.5229-.91L7.8227,10.948a10.5287,10.5287,0,0,1,3.1108-3.1112l.7253,1.2567.91-.5272L11.8436,7.31a10.4125,10.4125,0,0,1,4.248-1.1365V7.6227h1.0547V6.1733m-1.0547-2c-.033,0-.0659.0009-.0991.0024A12.3512,12.3512,0,0,0,10.93,5.5306a1.9975,1.9975,0,0,0-.5083.3727,1.9988,1.9988,0,0,0-.5757.255A12.6117,12.6117,0,0,0,6.1437,9.8611a2,2,0,0,0-.2542.574,1.9979,1.9979,0,0,0-.3721.5078A12.3522,12.3522,0,0,0,4.171,15.8774a2,2,0,0,0,1.9963,2.12h5.43a2.0008,2.0008,0,0,0,1.9133-1.4159l1.856-.2625a2,2,0,0,0,.7229-.25,2,2,0,0,0,1.9988,1.9283H27.07a2,2,0,0,0,1.9963-2.1191,12.3437,12.3437,0,0,0-1.3452-4.9341,1.9963,1.9963,0,0,0-.373-.5088,1.9981,1.9981,0,0,0-.2549-.5757,12.6161,12.6161,0,0,0-3.7024-3.7019,1.9954,1.9954,0,0,0-.5742-.2545,2.0029,2.0029,0,0,0-.5078-.3721,12.3574,12.3574,0,0,0-5.0632-1.3553c-.033-.0016-.0662-.0024-.0991-.0024a2,2,0,0,0-.5273.0708,2,2,0,0,0-.5273-.0708Z" fill="#fff"/><path d="M15.7189,17.7662a.9849.9849,0,0,1-.4473-.1074c-.0332-.0166-.1445-.0752-.1738-.0937a1.0118,1.0118,0,1,1,.6211.2012Z" fill="#fff"/><path d="M15.6276,16.7178c.0313.02.0657.0323.0981.05-.0325-.0176-.0669-.03-.0981-.05m.002-2a2,2,0,0,0-1.0667,3.6934,2.5205,2.5205,0,0,0,.26.1412,2,2,0,0,0,1.8555-3.5432c-.0225-.0122-.063-.0327-.0979-.05a1.989,1.989,0,0,0-.95-.2415Z" fill="#fff"/><path d="M16.2775,17.9606c-.0381-.0039-.1943-.0205-.2285-.0264a1,1,0,0,1,.1875-1.9824,1.0443,1.0443,0,0,1,.1895.0176,1.0236,1.0236,0,0,1,.9189,1.1.9771.9771,0,0,1-.9658.8965C16.3449,17.9655,16.3117,17.9635,16.2775,17.9606Z" fill="#fff"/><path d="M16.2374,16.952c.0459.0081.0935.0087.14.0132-.0469-.0045-.0942-.005-.14-.0132m-.0024-2a2,2,0,0,0-.3484,3.9694,2.8375,2.8375,0,0,0,.31.0361c.0649.0062.13.0093.1936.0093a2,2,0,0,0,.18-3.9919l-.0815-.0067a2.0253,2.0253,0,0,0-.2537-.0161Z" fill="#fff"/><path d="M16.0412,17.901a.99.99,0,0,1-.2783-.041c-.0361-.01-.168-.0488-.1982-.0605a1,1,0,0,1,.7129-1.8691,1.0243,1.0243,0,0,1,.6973,1.2529A.9827.9827,0,0,1,16.0412,17.901Z" fill="#fff"/><path d="M15.9213,16.8645c.0408.0156.0837.0238.1255.0364-.0417-.0126-.085-.0208-.1255-.0364m0-2a2,2,0,0,0-.72,3.8665,2.696,2.696,0,0,0,.2974.0939,1.9819,1.9819,0,0,0,2.4773-1.3425,2.0127,2.0127,0,0,0-1.3528-2.496c-.0171-.0051-.0566-.0162-.0876-.0247a1.9907,1.9907,0,0,0-.614-.0972Z" fill="#fff"/><path d="M16.8371,14.5651a1.023,1.023,0,0,1-.1436-.01c-.0273-.0029-.0957-.0078-.1016-.0088a1,1,0,0,1,.1045-1.9941c.0342,0,.0693.002.1045.0049.0215.0029.1816.0186.2031.0225a1,1,0,0,1-.167,1.9854Z" fill="#fff"/><path d="M16.6974,13.5527c.0464.0042.0928.0048.1387.0127-.0459-.0079-.0923-.0085-.1387-.0127m.043-1.9968a2.0183,2.0183,0,0,0-2.0144,1.8448,1.9807,1.9807,0,0,0,1.7932,2.144l.07.0054a2,2,0,0,0,.5881-3.9554,2.8536,2.8536,0,0,0-.3052-.0345c-.0439-.0028-.0879-.0043-.1313-.0043Z" fill="#fff"/><path d="M17.3472,13.7459c.0333.0177.0685.03.1009.0505C17.4157,13.7764,17.3806,13.7637,17.3472,13.7459Z" fill="#fff"/><path d="M17.3473,13.746c.0332.0177.0684.03.1008.0505-.0325-.02-.0676-.0328-.1008-.0505m.0017-2a2,2,0,0,0-.9426,3.7653c.0227.0121.0637.0325.0989.05a2,2,0,0,0,1.9971-3.4635,2.5014,2.5014,0,0,0-.2627-.1409,1.99,1.99,0,0,0-.8906-.21Z" fill="#fff"/><path d="M15.2863,15.0807a1,1,0,0,1-.7266-1.6865,2.6978,2.6978,0,0,1,.4248-.3662,1,1,0,1,1,1.1406,1.6426.7452.7452,0,0,0-.1123.0967A.9961.9961,0,0,1,15.2863,15.0807Z" fill="#fff"/><path d="M15.5551,13.8488a1.7138,1.7138,0,0,0-.269.2324,1.7138,1.7138,0,0,1,.269-.2324m-.0017-2a1.99,1.99,0,0,0-1.144.3608,3.7158,3.7158,0,0,0-.582.5034,2,2,0,0,0,2.8955,2.76,2,2,0,0,0-1.1694-3.6238Z" fill="#fff"/><path d="M17.0238,13.6145c.0423.0123.0854.02.1269.0359C17.1092,13.6348,17.0661,13.6268,17.0238,13.6145Z" fill="#fff"/><path d="M17.0238,13.6145c.0422.0123.0854.02.127.036-.0415-.0156-.0847-.0237-.127-.036m-.0229-2.0073a2.0023,2.0023,0,0,0-.5371,3.9274l.0825.0225a2,2,0,0,0,1.314-3.7764,2.731,2.731,0,0,0-.3013-.0933,1.9921,1.9921,0,0,0-.5581-.08Z" fill="#fff"/><path d="M15.7033,14.7516a.9992.9992,0,0,1-.86-.4619.9624.9624,0,0,1,.292-1.3516,2.6861,2.6861,0,0,1,.3213-.1729.9882.9882,0,0,1,.3994-.084,1,1,0,0,1,.4014,1.916A1.0638,1.0638,0,0,1,15.7033,14.7516Z" fill="#fff"/><path d="M15.8566,13.6812a1.04,1.04,0,0,0-.1052.0537,1.0156,1.0156,0,0,1,.1052-.0537m-.1052.0537c-.0317.0182-.0632.0374-.0947.0563.0315-.0189.063-.0381.0947-.0563m.1042-2.0542a1.9924,1.9924,0,0,0-.791.1639,3.0124,3.0124,0,0,0-.3071.1548l-.0481.0283-.0645.038A2.0037,2.0037,0,0,0,15.6666,15.79a1.9738,1.9738,0,0,0,1.0173-.2827l.0386-.0231a2,2,0,0,0-.8669-3.8033Z" fill="#fff"/><path d="M16.3227,13.56a1.7328,1.7328,0,0,1,.1924-.0192A1.7277,1.7277,0,0,0,16.3227,13.56Z" fill="#fff"/><path d="M16.515,13.5411a1.734,1.734,0,0,0-.1924.0192,1.7282,1.7282,0,0,1,.1924-.0192m0-2-.031,0a3.3632,3.3632,0,0,0-.3928.0321,2.0138,2.0138,0,0,0-1.7363,2.2426A1.9885,1.9885,0,0,0,16.3209,15.56a2.02,2.02,0,0,0,.2544-.0161l0-.004a2,2,0,0,0-.06-3.9991Zm0,4h0Z" fill="#fff"/><path d="M15.9863,13.6383a1.7317,1.7317,0,0,1,.1938-.06A1.7259,1.7259,0,0,0,15.9863,13.6383Z" fill="#fff"/><path d="M16.18,13.5785a1.7386,1.7386,0,0,0-.1938.06,1.7229,1.7229,0,0,1,.1938-.06m.002-2a2.0013,2.0013,0,0,0-.4187.0443,3.3526,3.3526,0,0,0-.3982.1145,2.0153,2.0153,0,0,0-1.2542,2.5439,1.9794,1.9794,0,0,0,2.5173,1.2516l-.0012-.0045a2,2,0,0,0-.4451-3.95Zm-.002,4h0Z" fill="#fff"/><path d="M16.54,18.6686a3.3953,3.3953,0,0,1-2.1484-.7627L10.0294,17.57a1,1,0,0,1-.9219-.9658l-.0713-2.2148a.9994.9994,0,0,1,.8584-1.0215l4.332-.6133a3.4135,3.4135,0,0,1,4.6475.0176,3.4095,3.4095,0,0,1-2.2236,5.8945C16.64,18.6676,16.5509,18.6686,16.54,18.6686Zm-1.166-3.3721a1.0024,1.0024,0,0,1,.58.3818.648.648,0,0,0,.0937.1064.7049.7049,0,0,0,.4922.1953.7167.7167,0,0,0,.5273-.2275.7194.7194,0,0,0-.0322-1.0186.7237.7237,0,0,0-1.02.03.7557.7557,0,0,0-.085.11A1.0051,1.0051,0,0,1,15.3742,15.2965Z" fill="#fff"/><path d="M16.5419,12.85a2.4094,2.4094,0,0,1,.0764,4.8176c-.0261.0007-.0522.0012-.0781.0012a2.399,2.399,0,0,1-1.6475-.6523c-.0283-.0266-.0562-.0538-.083-.0817L10.7218,16.62l-.6155-.0474-.02-.6171-.0312-.9811-.02-.6172.6113-.0864,4.0593-.5741q.0381-.0445.0779-.0872a2.4191,2.4191,0,0,1,1.7578-.76M16.54,16.98l.0562-.0009a1.721,1.721,0,1,0-1.31-2.8983,1.7279,1.7279,0,0,0-.1995.2574l-4.3433.6143.0313.9812,4.3733.3363a1.7469,1.7469,0,0,0,.2158.244A1.7092,1.7092,0,0,0,16.54,16.98m.0017-6.13a4.43,4.43,0,0,0-2.7417.9554l-3.4333.4855-.6113.0864a2,2,0,0,0-1.719,2.0444l.02.6172.0313.9807.02.6174a2,2,0,0,0,1.8457,1.93l.6155.0474,3.4558.2659a4.3889,4.3889,0,0,0,2.5159.7885l.1348-.0021a4.4094,4.4094,0,0,0-.1331-8.8168Z" fill="#fff"/><path d="M28.0714,16.9977a.9989.9989,0,0,1-.998-.9453,10.4713,10.4713,0,0,0-20.91,0,.9989.9989,0,0,1-.998.9453H2a1.0012,1.0012,0,0,1-.999-1.043,15.6324,15.6324,0,0,1,31.2354,0,1.0012,1.0012,0,0,1-.999,1.043Z" fill="#fff" fill-rule="evenodd"/><path d="M16.6188,2A14.6344,14.6344,0,0,1,31.2374,15.9973H28.0719a11.471,11.471,0,0,0-22.9065,0H2A14.6345,14.6345,0,0,1,16.6188,2m0-2A16.5928,16.5928,0,0,0,.0019,15.9115,2,2,0,0,0,2,17.9973H5.1654a2,2,0,0,0,1.9971-1.8905,9.4709,9.4709,0,0,1,18.9124,0,2,2,0,0,0,1.9971,1.8905h3.1655a2,2,0,0,0,1.998-2.0858A16.5927,16.5927,0,0,0,16.6188,0Z" fill="#fff"/></g><path d="M10.7433,14.9528l4.3432-.6143a1.72,1.72,0,0,1,1.4553-.8,1.7079,1.7079,0,0,1,1.5464,2.4589H27.07a10.4029,10.4029,0,0,0-1.128-4.14l-1.2564.7255-.5271-.91,1.2565-.7254a10.5336,10.5336,0,0,0-3.1112-3.1109l-.7244,1.2551-.91-.5232L21.3954,7.31a10.4149,10.4149,0,0,0-4.249-1.1371V7.6227H16.0916V6.1734A10.412,10.412,0,0,0,11.8436,7.31l.7253,1.2564-.91.5272-.7254-1.2566a10.53,10.53,0,0,0-3.1109,3.1112l1.2551.7245-.523.91-1.2581-.7264a10.4137,10.4137,0,0,0-1.129,4.1409h5.43l-.8228-.0633Z" fill="#4f8317"/><path d="M15.7256,16.7677c-.0323-.0175-.0668-.03-.098-.05C15.6589,16.7374,15.6933,16.75,15.7256,16.7677Z" fill="#4f8317"/><path d="M16.3776,16.9652c-.0468-.0044-.0943-.005-.14-.0132C16.2834,16.96,16.3308,16.9607,16.3776,16.9652Z" fill="#4f8317"/><path d="M16.0468,16.9009c-.0417-.0125-.0849-.0207-.1255-.0364C15.9619,16.88,16.005,16.8883,16.0468,16.9009Z" fill="#4f8317"/><path d="M16.6975,13.5527c.0463.0042.0928.0048.1386.0127C16.79,13.5575,16.7439,13.5569,16.6975,13.5527Z" fill="#4f8317"/><path d="M17.3472,13.7459c.0333.0177.0685.03.1009.0505C17.4157,13.7764,17.3806,13.7637,17.3472,13.7459Z" fill="#4f8317"/><path d="M15.286,14.0811a1.72,1.72,0,0,1,.2691-.2323A1.72,1.72,0,0,0,15.286,14.0811Z" fill="#4f8317"/><path d="M17.0238,13.6145c.0423.0123.0854.02.1269.0359C17.1092,13.6348,17.0661,13.6268,17.0238,13.6145Z" fill="#4f8317"/><path d="M15.6567,13.7912a1.7233,1.7233,0,0,1,.2-.11A1.7184,1.7184,0,0,0,15.6567,13.7912Z" fill="#4f8317"/><path d="M16.3227,13.56a1.7328,1.7328,0,0,1,.1924-.0192A1.7277,1.7277,0,0,0,16.3227,13.56Z" fill="#4f8317"/><path d="M15.9863,13.6383a1.7317,1.7317,0,0,1,.1938-.06A1.7259,1.7259,0,0,0,15.9863,13.6383Z" fill="#4f8317"/><path d="M18.19,13.5016a2.4116,2.4116,0,0,0-3.4059.1084q-.04.0427-.0778.0871l-4.0593.5741-.6113.0864.02.6171.0313.9812.02.6171.6156.0474,4.0878.3144q.0405.0418.083.0817a2.4,2.4,0,0,0,1.6475.6523q.039,0,.0782-.0012A2.41,2.41,0,0,0,18.19,13.5016Zm-.3933,2.9352a1.7086,1.7086,0,0,1-1.2.5427L16.54,16.98a1.7094,1.7094,0,0,1-1.1765-.466,1.7364,1.7364,0,0,1-.2157-.2441l-4.3733-.3363-.0313-.9812,4.3432-.6143a1.72,1.72,0,0,1,1.4553-.8,1.7209,1.7209,0,0,1,1.2548,2.8984Z" fill="#4f8317"/><path d="M16.6187,2A14.6345,14.6345,0,0,0,2,15.9973H5.1655a11.4709,11.4709,0,0,1,22.9063,0h3.1657A14.6345,14.6345,0,0,0,16.6187,2Z" fill="#4f8317" fill-rule="evenodd"/></g></g></svg>