<svg id="Layer_1" data-name="Layer 1" xmlns="http://www.w3.org/2000/svg" viewBox="0 0 60 60"><defs><style>.cls-1{opacity:0.8;}.cls-2,.cls-4{fill:#ffab24;}.cls-3{fill:#fff;}.cls-4{fill-rule:evenodd;}.cls-5{fill:#1a2026;}</style></defs><title>DAS map icons</title><g class="cls-1"><path class="cls-2" d="M22.66,36.4l5.43-.77a2.15,2.15,0,0,1,1.82-1,2.13,2.13,0,0,1,1.93,3.07H43.06a13,13,0,0,0-1.41-5.17l-1.57.91L39.42,32.3,41,31.39a13.17,13.17,0,0,0-3.89-3.89L36.2,29.07l-1.14-.65L36,26.85a13,13,0,0,0-5.31-1.42v1.81H29.34V25.42A13,13,0,0,0,24,26.84l0.91,1.57-1.14.66L22.89,27.5A13.16,13.16,0,0,0,19,31.39l1.57,0.91-0.65,1.14-1.57-.91a13,13,0,0,0-1.41,5.18h6.79l-1-.08Z"/><path class="cls-3" d="M30.66,25.42A13,13,0,0,1,36,26.85l-0.91,1.57,1.14,0.65,0.91-1.57A13.17,13.17,0,0,1,41,31.39l-1.57.91,0.66,1.14,1.57-.91a13,13,0,0,1,1.41,5.17H31.84a2.15,2.15,0,0,0-3.5-2.4,2.16,2.16,0,0,0-.25.32l-5.43.77,0,1.23,1,0.08H16.94a13,13,0,0,1,1.41-5.18l1.57,0.91,0.65-1.14L19,31.39a13.16,13.16,0,0,1,3.89-3.89l0.91,1.57,1.14-.66L24,26.84a13,13,0,0,1,5.31-1.42v1.81h1.32V25.42m0-3a3,3,0,0,0-.66.07,3,3,0,0,0-.66-0.07H29.19a15.93,15.93,0,0,0-6.53,1.75,3,3,0,0,0-.67.47,3,3,0,0,0-.73.34,16.27,16.27,0,0,0-4.78,4.78,3,3,0,0,0-.34.73,3,3,0,0,0-.46.66,15.94,15.94,0,0,0-1.74,6.37,3,3,0,0,0,3,3.18h6.79a3,3,0,0,0,2.76-1.82l2-.29a3,3,0,0,0,.44-0.1,3,3,0,0,0,2.89,2.2H43.06a3,3,0,0,0,3-3.18,15.93,15.93,0,0,0-1.74-6.37,3,3,0,0,0-.47-0.67,3,3,0,0,0-.34-0.73A16.28,16.28,0,0,0,38.74,25,3,3,0,0,0,38,24.64a3,3,0,0,0-.66-0.46,15.94,15.94,0,0,0-6.53-1.75H30.66Z"/><path class="cls-2" d="M32,34.58a3,3,0,0,0-4.26.14l-0.1.11-5.07.72-0.76.11,0,0.77,0,1.23,0,0.77,0.77,0.06,5.11,0.39,0.1,0.1a3,3,0,0,0,2.06.82H30A3,3,0,0,0,32,34.58Zm-0.49,3.67a2.14,2.14,0,0,1-1.5.68H29.9a2.14,2.14,0,0,1-1.47-.58A2.17,2.17,0,0,1,28.16,38l-5.47-.42,0-1.23,5.43-.77a2.15,2.15,0,0,1,1.82-1A2.15,2.15,0,0,1,31.47,38.25Z"/><path class="cls-3" d="M29.9,33.77a3,3,0,0,1,.1,6H29.9A3,3,0,0,1,27.84,39l-0.1-.1-5.11-.39-0.77-.06,0-.77,0-1.23,0-.77,0.76-.11,5.07-.72,0.1-.11a3,3,0,0,1,2.2-.95m0,5.16H30a2.15,2.15,0,1,0-1.64-3.62,2.16,2.16,0,0,0-.25.32l-5.43.77,0,1.23L28.16,38a2.17,2.17,0,0,0,.27.31,2.14,2.14,0,0,0,1.47.58m0-8.16A6,6,0,0,0,26.28,32l-4.16.59-0.76.11a3,3,0,0,0-2.58,3.07l0,0.77,0,1.23,0,0.77a3,3,0,0,0,2.77,2.9l0.77,0.06,4.19,0.32a6,6,0,0,0,3.32,1h0.19a6,6,0,0,0-.19-12h0Z"/><path class="cls-4" d="M30,20.21A18.29,18.29,0,0,0,11.73,37.7h4a14.34,14.34,0,0,1,28.63,0h4A18.29,18.29,0,0,0,30,20.21Z"/><path class="cls-3" d="M30,20.21A18.29,18.29,0,0,1,48.27,37.7h-4a14.34,14.34,0,0,0-28.63,0h-4A18.29,18.29,0,0,1,30,20.21m0-3A21.24,21.24,0,0,0,8.73,37.57a3,3,0,0,0,3,3.13h4a3,3,0,0,0,3-2.84,11.34,11.34,0,0,1,22.64,0,3,3,0,0,0,3,2.84h4a3,3,0,0,0,3-3.13A21.24,21.24,0,0,0,30,17.21h0Z"/></g><path class="cls-2" d="M22.66,36.61l5.43-.77a2.15,2.15,0,0,1,1.82-1,2.13,2.13,0,0,1,1.93,3.07H43.06a13,13,0,0,0-1.41-5.17l-1.57.91L39.42,32.5,41,31.6a13.17,13.17,0,0,0-3.89-3.89L36.2,29.28l-1.14-.65L36,27.05a13,13,0,0,0-5.31-1.42v1.81H29.34V25.63A13,13,0,0,0,24,27.05l0.91,1.57-1.14.66-0.91-1.57A13.16,13.16,0,0,0,19,31.6l1.57,0.91-0.65,1.14-1.57-.91a13,13,0,0,0-1.41,5.18h6.79l-1-.08Z"/><path class="cls-5" d="M28.88,38.87l-0.12-.06Z"/><path class="cls-5" d="M29.7,39.12l-0.18,0Z"/><path class="cls-5" d="M29.29,39l-0.16,0Z"/><path class="cls-5" d="M30.1,34.85l0.17,0Z"/><path class="cls-5" d="M30.91,35.1L31,35.16Z"/><path class="cls-5" d="M28.33,35.52a2.15,2.15,0,0,1,.34-0.29A2.15,2.15,0,0,0,28.33,35.52Z"/><path class="cls-5" d="M30.51,34.93l0.16,0Z"/><path class="cls-5" d="M28.8,35.15A2.15,2.15,0,0,1,29,35,2.15,2.15,0,0,0,28.8,35.15Z"/><path class="cls-5" d="M29.63,34.86l0.24,0Z"/><path class="cls-5" d="M29.21,35l0.24-.07Z"/><path class="cls-2" d="M32,34.79a3,3,0,0,0-4.26.14l-0.1.11-5.07.72-0.76.11,0,0.77,0,1.23,0,0.77,0.77,0.06,5.11,0.39,0.1,0.1A3,3,0,0,0,29.9,40H30A3,3,0,0,0,32,34.79Zm-0.49,3.67a2.14,2.14,0,0,1-1.5.68H29.9a2.14,2.14,0,0,1-1.47-.58,2.17,2.17,0,0,1-.27-0.31l-5.47-.42,0-1.23,5.43-.77a2.15,2.15,0,0,1,1.82-1A2.15,2.15,0,0,1,31.47,38.46Z"/><path class="cls-4" d="M30,20.41a18.29,18.29,0,0,0-18.27,17.5h4a14.34,14.34,0,0,1,28.63,0h4A18.29,18.29,0,0,0,30,20.41Z"/></svg>