<?xml version="1.0" encoding="utf-8"?>
<!-- Generator: Adobe Illustrator 20.1.0, SVG Export Plug-In . SVG Version: 6.00 Build 0)  -->
<svg version="1.1" id="Layer_1" xmlns="http://www.w3.org/2000/svg" xmlns:xlink="http://www.w3.org/1999/xlink" x="0px" y="0px"
	 viewBox="0 0 36 33.3" style="enable-background:new 0 0 36 33.3;" xml:space="preserve">
<style type="text/css">
	.st0{opacity:0.8;}
	.st1{fill:none;}
	.st2{fill:#FFFFFF;}
	.st3{fill:#FFAB24;}
</style>
<title>Asset 25</title>
<g class="st0">
	<path class="st1" d="M27.8,29.7H8.2c-2,0-3.4-0.7-4.2-2s-0.6-2.9,0.4-4.6l9.8-16.9c1-1.7,2.3-2.6,3.8-2.6s2.8,0.9,3.8,2.6l9.8,16.9
		c1,1.7,1.1,3.3,0.4,4.6S29.7,29.7,27.8,29.7z M20,23.7c0-1-0.8-1.8-1.8-1.8s-1.8,0.8-1.8,1.8c0,1,0.8,1.8,1.8,1.8
		C19.2,25.5,20,24.7,20,23.7L20,23.7z M20,12.6c0-1-0.8-1.9-1.9-1.9c-1,0-1.9,0.8-1.9,1.9l0,0l0.5,6.7l0,0c0.1,0.8,0.7,1.4,1.5,1.3
		c0.6,0,1.2-0.5,1.3-1.2c0-0.1,0-0.1,0-0.2l0,0L20,12.6z"/>
	<path class="st2" d="M18,3.6c1.5,0,2.8,0.9,3.8,2.6l9.8,16.9c1,1.7,1.1,3.3,0.4,4.6s-2.2,2-4.2,2H8.2c-2,0-3.4-0.7-4.2-2
		s-0.6-2.9,0.4-4.6l9.8-16.9C15.2,4.5,16.5,3.6,18,3.6 M16.7,19.4L16.7,19.4c0.1,0.8,0.7,1.4,1.5,1.3c0.6,0,1.2-0.5,1.3-1.2
		c0-0.1,0-0.1,0-0.2l0,0l0.4-6.7c0-1-0.8-1.9-1.9-1.9c-1,0-1.9,0.8-1.9,1.9l0,0L16.7,19.4 M18.1,25.6c1,0,1.8-0.8,1.8-1.8
		s-0.8-1.8-1.8-1.8c-1,0-1.8,0.8-1.8,1.8S17.1,25.6,18.1,25.6L18.1,25.6 M18,0c-2.8,0-5.3,1.6-6.9,4.4L1.3,21.4
		c-1.6,2.8-1.8,5.8-0.4,8.2s4,3.8,7.3,3.8h19.5c3.3,0,5.9-1.4,7.3-3.8s1.2-5.4-0.4-8.2L24.9,4.4C23.3,1.6,20.8,0,18,0z"/>
</g>
<path class="st3" d="M27.8,29.7H8.2c-2,0-3.4-0.7-4.2-2s-0.6-2.9,0.4-4.6l9.8-16.9c1-1.7,2.3-2.6,3.8-2.6s2.8,0.9,3.8,2.6l9.8,16.9
	c1,1.7,1.1,3.3,0.4,4.6S29.7,29.7,27.8,29.7z M20,23.7c0-1-0.8-1.8-1.8-1.8s-1.8,0.8-1.8,1.8c0,1,0.8,1.8,1.8,1.8
	C19.2,25.5,20,24.7,20,23.7L20,23.7z M20,12.6c0-1-0.8-1.9-1.9-1.9c-1,0-1.9,0.8-1.9,1.9l0,0l0.5,6.7l0,0c0.1,0.8,0.7,1.4,1.5,1.3
	c0.6,0,1.2-0.5,1.3-1.2c0-0.1,0-0.1,0-0.2l0,0L20,12.6z"/>
</svg>
