<svg xmlns="http://www.w3.org/2000/svg" viewBox="0 0 36 33.31"><defs><style>.a{opacity:0.8;}.b{fill:none;}.c{fill:#fff;}.d{fill:#acafb2;}</style></defs><title>Asset 24</title><g class="a"><path class="b" d="M27.77,29.7H8.23c-2,0-3.45-.69-4.18-2s-.59-2.89.4-4.59L14.22,6.24c1-1.7,2.33-2.64,3.78-2.64s2.8.94,3.78,2.64l9.77,16.92c1,1.7,1.12,3.33.4,4.59S29.73,29.7,27.77,29.7Zm-7.77-6a1.84,1.84,0,1,0-1.84,1.84A1.84,1.84,0,0,0,20,23.75Zm0-11.06a1.89,1.89,0,0,0-3.78,0l.45,6.7h0a1.44,1.44,0,0,0,2.85.17,1.48,1.48,0,0,0,0-.17h0Z"/><path class="c" d="M18,3.6c1.45,0,2.8.94,3.78,2.64l9.77,16.92c1,1.7,1.12,3.33.4,4.59s-2.21,2-4.18,2H8.23c-2,0-3.45-.69-4.18-2s-.59-2.89.4-4.59L14.22,6.24c1-1.7,2.33-2.64,3.78-2.64M16.71,19.39h0a1.44,1.44,0,0,0,2.85.17,1.48,1.48,0,0,0,0-.17h0l.44-6.7a1.89,1.89,0,1,0-3.78,0l.45,6.7m1.44,6.2a1.84,1.84,0,1,0-1.84-1.84,1.84,1.84,0,0,0,1.84,1.84M18,0c-2.76,0-5.27,1.62-6.9,4.44L1.34,21.36c-1.63,2.82-1.77,5.81-.4,8.2s4,3.75,7.3,3.75H27.77c3.26,0,5.92-1.37,7.29-3.75s1.23-5.37-.4-8.2L24.9,4.44C23.27,1.62,20.76,0,18,0Z"/></g><path class="d" d="M27.77,29.7H8.23c-2,0-3.45-.69-4.18-2s-.59-2.89.4-4.59L14.22,6.24c1-1.7,2.33-2.64,3.78-2.64s2.8.94,3.78,2.64l9.77,16.92c1,1.7,1.12,3.33.4,4.59S29.73,29.7,27.77,29.7Zm-7.77-6a1.84,1.84,0,1,0-1.84,1.84A1.84,1.84,0,0,0,20,23.75Zm0-11.06a1.89,1.89,0,0,0-3.78,0l.45,6.7h0a1.44,1.44,0,0,0,2.85.17,1.48,1.48,0,0,0,0-.17h0Z"/></svg>