<svg xmlns="http://www.w3.org/2000/svg" viewBox="0 0 38 30.23"><defs><style>.a{opacity:0.8;}.b,.c{fill:#fff;}.b,.d{fill-rule:evenodd;}.d{fill:#d0021b;}</style></defs><title>Asset 95</title><g class="a"><path class="b" d="M19.16,28.73c-2.29,0-2.68-1.15-2.7-1.83A2.93,2.93,0,0,1,17,25.22,1,1,0,0,0,17,25a1.28,1.28,0,0,1,0-.47A16.67,16.67,0,0,1,17.26,22c.05-.34.14-1,.21-1.58a5.84,5.84,0,0,1-1.59.25h0l-.6.08a7.7,7.7,0,0,1-.59.58,6.56,6.56,0,0,0-.33.75s0,0,0,.07a10.18,10.18,0,0,0,0,2,2.8,2.8,0,0,1,1.11,3.15,1.5,1.5,0,0,1-1.15.9,16.6,16.6,0,0,1-2.27.19,3,3,0,0,1-2.58-.93,1.94,1.94,0,0,1-.7.66,1.55,1.55,0,0,1-.57.18,5.55,5.55,0,0,1-.57,0A3.27,3.27,0,0,1,5,27.4a2.21,2.21,0,0,1-.53-1.75s0-.08,0-.12a6.29,6.29,0,0,1,.42-1.29,1.51,1.51,0,0,1,0-.52,20,20,0,0,1,.52-2.6,15.92,15.92,0,0,0,.47-2.7,1.64,1.64,0,0,1,0-.26s.07-.33.15-.79H4.28A2.81,2.81,0,0,1,1.5,14.48V6.85A2.73,2.73,0,0,1,4.28,4h.86A3.12,3.12,0,0,1,8.22,1.5h3A3.12,3.12,0,0,1,14.33,4h.84a2.78,2.78,0,0,1,2,.83,2.72,2.72,0,0,1,.76,1.68,10.59,10.59,0,0,0,2.42-.21,3.68,3.68,0,0,1,2.25-.81,3.28,3.28,0,0,1,1.59.41c.74.09,1.78.2,2.17.2l-.11,0,.11,0A12.27,12.27,0,0,1,28.05,6a3.09,3.09,0,0,1,1.86.45A6.67,6.67,0,0,1,32,8.66a6.84,6.84,0,0,1,1.21,2,26,26,0,0,1,1.31,3.07l.26,0H35a1.5,1.5,0,0,1,1.49,1.31,1.59,1.59,0,0,1-.06.67A1.49,1.49,0,0,1,35.76,17a4.38,4.38,0,0,1-.75.38,5.76,5.76,0,0,1-3.39,4.73,1.75,1.75,0,0,1-.3.09,4.26,4.26,0,0,1-.71.06,3.42,3.42,0,0,1-2.38-.83l0,0a1.5,1.5,0,0,1,.17.36,9.56,9.56,0,0,1,.46,2.48,3.38,3.38,0,0,0,.15.42,2.3,2.3,0,0,1,1.15,1.67A1.82,1.82,0,0,1,29.43,28a1.5,1.5,0,0,1-.62.29,13.92,13.92,0,0,1-2.36.27h0a2.53,2.53,0,0,1-2.17-.88A1.77,1.77,0,0,1,24.08,26l.07-.16a3.48,3.48,0,0,0,.17-.4,23.32,23.32,0,0,0-1.12-2.37l-.47-.56-.07.18a12.19,12.19,0,0,1-.77,2.41,2.43,2.43,0,0,1,.92,1.62,1.74,1.74,0,0,1-.61,1.44,1.5,1.5,0,0,1-.73.34A16.41,16.41,0,0,1,19.16,28.73ZM27,17.12a.67.67,0,0,1,.06.18l.29,1a2.64,2.64,0,0,1,1.71-1.83,2,2,0,0,1-.73-.44,2.17,2.17,0,0,1-.57.64,1.5,1.5,0,0,1-.8.3Z"/><path class="c" d="M11.25,3A1.66,1.66,0,0,1,12.9,4.71v.84h2.27a1.23,1.23,0,0,1,1.28,1.31v7.62a1.33,1.33,0,0,1-1.31,1.39H4.28A1.33,1.33,0,0,1,3,14.48V6.85A1.24,1.24,0,0,1,4.28,5.55h2.3V4.71A1.65,1.65,0,0,1,8.22,3h3M7.57,5.55h4.34V4.71a.64.64,0,0,0-.65-.63h-3a.63.63,0,0,0-.65.63v.84m-.81,6h2v2h1.82v-2h2V9.76h-2v-2H8.79v2h-2v1.82M22.62,7a1.87,1.87,0,0,1,1.09.36s2,.25,2.68.25l.22,0a11,11,0,0,1,1.44-.12,2,2,0,0,1,1,.18,5.21,5.21,0,0,1,1.72,1.84,5.37,5.37,0,0,1,1.07,1.72,24.41,24.41,0,0,1,1.3,3.08l.24.71a10.05,10.05,0,0,0,1.47.22l.16,0s0,.24-.95.47a3.43,3.43,0,0,0,.5,0,1.65,1.65,0,0,0,.39,0,2.76,2.76,0,0,1-1.3.42h-.07s.18,3.47-2.52,4.56a2.89,2.89,0,0,1-.45,0,1.6,1.6,0,0,1-1.8-2s.25-.84.84-.84a.86.86,0,0,1,.46.16s-.36.27-.06.39c0,0-.59.74,0,.89a.7.7,0,0,0,.26,0c.34,0,.93-.23,1.14-1.7a4,4,0,0,0-.8-2.85l-.47,0-.39.3a.55.55,0,0,1-.5-.36l-.53-.27s-1.27-.06-1.48-.42c0,0,.12,1.07-.36,1.42,0,0-1.57-.3-1.78-.59a21,21,0,0,0,.53,2.79l.68,2.4A11.7,11.7,0,0,0,27,22.24a7.92,7.92,0,0,1,.39,2.19s.27,1.19.71,1.45c0,0,1,.5.44.92a12.77,12.77,0,0,1-2.07.24c-.62,0-1.1-.11-1-.5,0,0,.47-.92.36-1.33a22.13,22.13,0,0,0-1.51-3.11,17.92,17.92,0,0,1-2-2.64s-1,2.49-1.16,2.82a10.5,10.5,0,0,1-.8,2.4s-.41,1,.09,1.27c0,0,1.13.74.71,1.1a15,15,0,0,1-2.05.19c-.64,0-1.19-.09-1.21-.39a1.39,1.39,0,0,1,.36-.86,2.37,2.37,0,0,0,.18-1.39,20.9,20.9,0,0,1,.24-2.25s.33-2.1.36-3.17c0,0-.15-.83-.3-.89a7.33,7.33,0,0,1-2.91.92h-.12s-1.45.15-1.42.33a6.25,6.25,0,0,1-.89.86,5.56,5.56,0,0,0-.65,1.69s-.21,2.61.33,3.05c0,0,1.22.89.92,1.6a15.13,15.13,0,0,1-2,.17c-.63,0-1.2-.07-1.37-.32A9.87,9.87,0,0,1,10.88,24s.27-3-.27-3.47a7.47,7.47,0,0,0-1.48,1.75,20.8,20.8,0,0,0-1,3.14s.42,1-.12,1.33c0,0-.17,0-.41,0-.62,0-1.71-.12-1.6-1a4.2,4.2,0,0,1,.5-1.3A12.34,12.34,0,0,0,7.64,21.2l.06-1.54a11.87,11.87,0,0,0-.33,1.66s-.24,2-1,2.58a18.77,18.77,0,0,1,.47-2.37,18,18,0,0,0,.53-3.08s.15-.74.28-1.58h7.46a2.32,2.32,0,0,0,2.31-2.39V8.05h.23c1.1,0,3.16-.06,3.59-.51A2.21,2.21,0,0,1,22.62,7m12.32,8.69h0M11.25,0h-3A4.59,4.59,0,0,0,4.08,2.55,4.25,4.25,0,0,0,0,6.85v7.62a4.34,4.34,0,0,0,4.28,4.39h.08c-.08.58-.25,1.36-.38,1.87a21.55,21.55,0,0,0-.56,2.78,3,3,0,0,0,0,.5A8,8,0,0,0,3,25.22q0,.12,0,.25a3.69,3.69,0,0,0,.89,2.93,4.67,4.67,0,0,0,3.69,1.43,7.14,7.14,0,0,0,.74,0,3,3,0,0,0,1.13-.36l0,0a5.64,5.64,0,0,0,2.52.48,17.94,17.94,0,0,0,2.51-.21,3,3,0,0,0,1.35-.58,4.37,4.37,0,0,0,3.29,1.13A17.82,17.82,0,0,0,21.71,30a3,3,0,0,0,1.46-.68,3.38,3.38,0,0,0,.3-.29,4.14,4.14,0,0,0,3,1,15.24,15.24,0,0,0,2.66-.3,3,3,0,0,0,1.25-.57,3.34,3.34,0,0,0,1.3-2.95,3.56,3.56,0,0,0-1.31-2.4v-.1h.27a5.82,5.82,0,0,0,1-.08,3,3,0,0,0,.61-.18,7,7,0,0,0,4.15-5.1l.13-.08A3,3,0,0,0,37.93,16a3.15,3.15,0,0,0,0-1.09,3,3,0,0,0-2.37-2.57c-.32-.79-.72-1.64-1-2.24a8.32,8.32,0,0,0-1.36-2.27,8.3,8.3,0,0,0-2.55-2.62,4.72,4.72,0,0,0-2.62-.66,13.79,13.79,0,0,0-1.75.13c-.31,0-1-.08-1.66-.16a4.8,4.8,0,0,0-2-.45,5.13,5.13,0,0,0-2.88.91L19.07,5a4.18,4.18,0,0,0-.81-1.18,4.25,4.25,0,0,0-2.88-1.28A4.64,4.64,0,0,0,11.25,0Z"/></g><path class="d" d="M15.17,5.55H12.9V4.71A1.66,1.66,0,0,0,11.25,3h-3A1.65,1.65,0,0,0,6.58,4.71v.84H4.28A1.24,1.24,0,0,0,3,6.85v7.62a1.33,1.33,0,0,0,1.28,1.39H15.15a1.33,1.33,0,0,0,1.31-1.39V6.85A1.23,1.23,0,0,0,15.17,5.55Zm-7.6-.84a.63.63,0,0,1,.65-.63h3a.64.64,0,0,1,.65.63v.84H7.57Zm5.08,6.88h-2v2H8.79v-2h-2V9.76h2v-2h1.82v2h2Zm21.4,4.13a2.72,2.72,0,0,0,.89,0,2.7,2.7,0,0,1-1.36.42s.18,3.47-2.52,4.56c0,0-2.52.44-2.25-1.93,0,0,.39-1.27,1.3-.68,0,0-.36.27-.06.39,0,0-.59.74,0,.89,0,0,1.1.47,1.39-1.66a4,4,0,0,0-.8-2.85l-.47,0-.39.3a.55.55,0,0,1-.5-.36l-.53-.27s-1.27-.06-1.48-.42c0,0,.12,1.07-.36,1.42,0,0-1.57-.3-1.78-.59a21,21,0,0,0,.53,2.79l.68,2.4A11.7,11.7,0,0,0,27,22.24a7.92,7.92,0,0,1,.39,2.19s.27,1.19.71,1.45c0,0,1,.5.44.92,0,0-3.38.68-3-.27,0,0,.47-.92.36-1.33a22.13,22.13,0,0,0-1.51-3.11,17.92,17.92,0,0,1-2-2.64s-1,2.49-1.16,2.82a10.51,10.51,0,0,1-.8,2.4s-.41,1,.09,1.27c0,0,1.13.74.71,1.1,0,0-3.23.53-3.26-.21a1.39,1.39,0,0,1,.36-.86,2.37,2.37,0,0,0,.18-1.39,20.9,20.9,0,0,1,.24-2.25s.33-2.1.36-3.17c0,0-.15-.83-.3-.89a7.08,7.08,0,0,1-3,.92s-1.45.15-1.42.33a6.25,6.25,0,0,1-.89.86,5.55,5.55,0,0,0-.65,1.69s-.21,2.61.33,3.05c0,0,1.22.89.92,1.6,0,0-3,.47-3.41-.15A9.87,9.87,0,0,1,10.88,24s.27-3-.27-3.47a7.47,7.47,0,0,0-1.48,1.75,20.8,20.8,0,0,0-1,3.14s.42,1-.12,1.33c0,0-2.16.24-2-1a4.2,4.2,0,0,1,.5-1.3A12.34,12.34,0,0,0,7.64,21.2l.06-1.54a11.87,11.87,0,0,0-.33,1.66s-.24,2-1,2.58a18.76,18.76,0,0,1,.47-2.37,18,18,0,0,0,.53-3.08s.15-.74.28-1.58h7.46a2.32,2.32,0,0,0,2.31-2.39V8.05c1,0,3.36,0,3.82-.51a2,2,0,0,1,2.43-.15,23.41,23.41,0,0,0,2.9.24s1.93-.3,2.43.06a5.21,5.21,0,0,1,1.72,1.84,5.37,5.37,0,0,1,1.07,1.72,24.42,24.42,0,0,1,1.3,3.08l.24.71a7.07,7.07,0,0,0,1.63.21S35,15.48,34.05,15.72Z"/></svg>