<svg xmlns="http://www.w3.org/2000/svg" viewBox="0 0 36.07 27.25"><defs><style>.a{opacity:0.8;}.b{fill:#fff;}.c{fill:#d0021b;}</style></defs><title>Asset 208</title><g class="a"><path class="b" d="M29.58,25.75H29.4l-5.34-.62-6.78.63h-.14a1.5,1.5,0,0,1-1.49-1.68l-6.85-.3A1.5,1.5,0,0,1,7.38,22.4a1.61,1.61,0,0,1,0-.23l-4.57-.58a1.5,1.5,0,0,1,.19-3l13.25.66c0-.48,0-1,0-1.72,0-2.15-.32-3-.6-3.09l-.14-.05a.91.91,0,0,0-.34-.06c-1.52,0-4.33,2.07-5.84,3.55A1.5,1.5,0,0,1,7,16c.17-.27,1.63-2.64,2.33-3.46l.35-.44a6.86,6.86,0,0,1,4.21-2.74l.49-.12a3.8,3.8,0,0,1-.05-.49,46.09,46.09,0,0,1,.35-5.95,1.5,1.5,0,0,1,2.38-1c1.29,1,5.48,4.28,5,7.14a2.94,2.94,0,0,1-1.38,2c0,.56,0,1.3,0,2.13a6.27,6.27,0,0,1,1.12-.18c.44-1.11,1.57-1.92,3.35-2.4a5.83,5.83,0,0,1,1.53-.2c3.5,0,6.86,2.87,7.23,3.2A1.5,1.5,0,0,1,32.36,16h0a4.29,4.29,0,0,0-1.48-.22,7.53,7.53,0,0,0-3.09.72,6.78,6.78,0,0,1-2.71.77,3.12,3.12,0,0,1-1.56-.44,1.65,1.65,0,0,0-1-.24l-.53,0c-1.44.14-1.84,2.12-1.94,3.58h3a1.5,1.5,0,0,1,1.43,1l.21,0L30,22.81a1.5,1.5,0,0,1-.42,2.94Z"/><path class="b" d="M16.21,3s7.54,5.54,3,7a35.89,35.89,0,0,1-.11,5.89A3,3,0,0,1,20,15a4.82,4.82,0,0,1,3.33-.51s-1-1.64,2.29-2.54a4.29,4.29,0,0,1,1.13-.15c3,0,6.24,2.82,6.24,2.82a5.37,5.37,0,0,0-2.12-.37,9,9,0,0,0-3.7.86,5.55,5.55,0,0,1-2.09.64c-.87,0-1-.67-2.55-.67-.2,0-.42,0-.67,0-3.32.31-3.38,5-3.31,6.58h4.57l-2.32,1.43,3.53-.4,5.24,1.53-5.49-.64-6.93.64L19,22.72,8.88,22.27,13,21.38,3,20.1l14.15.7-1.5.89h1.83a21.33,21.33,0,0,0,.31-4.15c0-3.22-.66-4.24-1.68-4.54a2.38,2.38,0,0,0-.91-.17c-2.82,0-6.89,4-6.89,4s1.56-2.52,2.2-3.28a5.89,5.89,0,0,1,3.83-2.71,3.26,3.26,0,0,1,.88-.14c1.64,0,1.38,1.83,1.38,1.83,1,.5,1.55,2,1.78,3a21.57,21.57,0,0,0,.36-5.43,4.26,4.26,0,0,1-1.1.16,1.54,1.54,0,0,1-1.77-1.57A45.31,45.31,0,0,1,16.21,3m3,6.3a9.22,9.22,0,0,0-.28-3.07,4.24,4.24,0,0,1,0,1.82,26.57,26.57,0,0,0-1.21-2.8c.68,3.66,1.49,4,1.49,4m-6.64,2.77a9.57,9.57,0,0,1,2.76-.63,1.17,1.17,0,0,1,1,.35S16.18,11,15.14,11a4.32,4.32,0,0,0-1.74.48l-.85.6M25.22,15.3a2.68,2.68,0,0,0,1.22-.35,8.45,8.45,0,0,1,3.91-1.06,3.75,3.75,0,0,1,.63,0,2.4,2.4,0,0,0-1.3-.23,8.42,8.42,0,0,0-1.13.08,13.86,13.86,0,0,0-3.75,1.11c-.32.13-.12.42.42.42M16.21,0a3,3,0,0,0-3,2.63,52.25,52.25,0,0,0-.37,5.5,8,8,0,0,0-4.32,3.06l-.32.4a42.4,42.4,0,0,0-2.46,3.64,3,3,0,0,0-.42,2l-2.2-.11H3a3,3,0,0,0-.38,6l3.53.45a3,3,0,0,0,2.59,1.74l5.69.25a3,3,0,0,0,2.72,1.73h.28L24,26.63l5.18.6.35,0a3,3,0,0,0,.84-5.88L25.57,20a3,3,0,0,0-2.45-1.27H21.84a1.69,1.69,0,0,1,.28-.59l.41,0h.18l.1.05a4.57,4.57,0,0,0,2.27.61,8.09,8.09,0,0,0,3.33-.91,6,6,0,0,1,2.47-.59,3.2,3.2,0,0,1,.89.11,2.82,2.82,0,0,0,1.36.35,3,3,0,0,0,2.42-1.29A3.09,3.09,0,0,0,35,12.37C34.57,12,30.81,8.8,26.76,8.8a7.3,7.3,0,0,0-1.93.25,10.2,10.2,0,0,0-1.3.45c0-.12.05-.23.07-.33.24-1.49-.17-4.59-5.61-8.59A3,3,0,0,0,16.21,0ZM12.06,17.55a11.59,11.59,0,0,1,2.66-1.6,11.47,11.47,0,0,1,.08,1.58q0,.08,0,.16l-2.74-.14Z"/></g><path class="c" d="M21.87,15.11c3.23-.31,1.81,1.58,5.31,0S33,14.62,33,14.62,28.93,11,25.62,11.95s-2.29,2.54-2.29,2.54A4.82,4.82,0,0,0,20,15a3,3,0,0,0-.92.92A35.89,35.89,0,0,0,19.2,10c4.56-1.49-3-7-3-7a45.33,45.33,0,0,0-.34,5.71c.09,2.26,2.87,1.41,2.87,1.41a21.58,21.58,0,0,1-.36,5.43c-.24-1.09-.74-2.53-1.78-3,0,0,.34-2.43-2.26-1.7a5.89,5.89,0,0,0-3.83,2.71c-.64.76-2.2,3.28-2.2,3.28s5-4.94,7.8-3.81c1,.3,1.7,1.32,1.68,4.54a21.32,21.32,0,0,1-.31,4.15H15.65l1.5-.89L3,20.1l10,1.28-4.15.89L19,22.72l-1.82,1.53,6.93-.64,5.49.64-5.24-1.53-3.53.4,2.32-1.43H18.56C18.49,20.14,18.54,15.43,21.87,15.11Zm2.94-.23a13.86,13.86,0,0,1,3.75-1.11c1.87-.26,2.43.15,2.43.15a7.55,7.55,0,0,0-4.54,1C25.08,15.67,24.3,15.09,24.81,14.88ZM12.54,12.07l.85-.6c2.68-1.24,2.9.32,2.9.32C15.63,10.86,12.54,12.07,12.54,12.07Zm5.15-6.81a26.57,26.57,0,0,1,1.21,2.8,4.24,4.24,0,0,0,0-1.82,9.22,9.22,0,0,1,.28,3.07S18.38,8.92,17.69,5.26Z"/></svg>