<svg xmlns="http://www.w3.org/2000/svg" viewBox="0 0 41.66 24"><defs><style>.a{opacity:0.8;}.b,.c{fill:#fff;}.b{fill-rule:evenodd;}.d{fill:#ffab24;}</style></defs><title>Asset 114</title><g class="a"><path class="b" d="M36.21,22.5A4.44,4.44,0,0,1,34,21.89a2.79,2.79,0,0,1-.94-1.12,4.12,4.12,0,0,1-1.69-1.51l-.84-.47c-.74-.4-1.42-.79-2-1.17l-.11.13a3.24,3.24,0,0,0-.17.32A2.34,2.34,0,0,1,30,20.26a2,2,0,0,1-2.12,2l-.35,0c-.27,0-.61,0-.94,0a3,3,0,0,1-2.68-1.08,1.88,1.88,0,0,1-.21-1.42c0-.17-.06-.33-.1-.49a5.66,5.66,0,0,1-.08-2.67,11,11,0,0,0,.08-1.27A10.05,10.05,0,0,0,21.14,15h-.49A8.8,8.8,0,0,1,18,14.4c-.11.2-.22.38-.33.55a7.15,7.15,0,0,0-.43.76L17.1,16a2,2,0,0,0-.34,1.22,1.62,1.62,0,0,0,.52.54h0a3.13,3.13,0,0,1,.68-.09,1.79,1.79,0,0,1,1.43.67,2.05,2.05,0,0,1,.39,2.27c-.4.84-1.33,1.27-2.76,1.27a6.09,6.09,0,0,1-1-.08A9.64,9.64,0,0,1,11.38,18a2.11,2.11,0,0,1-.07-2,2.25,2.25,0,0,0,.4-1.17c0-.12-.11-.3-.19-.51l-1.06.68-.18.11a4.68,4.68,0,0,1-.46.46l-.63.66a6.21,6.21,0,0,1-1.74,2.4A3.12,3.12,0,0,1,7.1,19a2.94,2.94,0,0,1-.22.81,2.25,2.25,0,0,1-2,1.46,2.09,2.09,0,0,1-1.3-.47l-.17-.12a2.75,2.75,0,0,1-1.26-1.37A3.38,3.38,0,0,1,2,18.21a1.9,1.9,0,0,1-.41-1.95,1.7,1.7,0,0,1,1.29-1A1.42,1.42,0,0,0,3,15c0-.11.06-.21.09-.31s.08-.28.12-.42a2,2,0,0,1,.74-1,1.5,1.5,0,0,1,.78-.57c.7-.22.74-.29.78-1.53A6.42,6.42,0,0,1,6,8.67a4.49,4.49,0,0,0,.22-.77A4.44,4.44,0,0,1,7.48,5.37a8.82,8.82,0,0,1,3.76-2.11,15,15,0,0,1,5.1-.72c1.25,0,2.52.08,3.75.16,1,.06,1.89.12,2.78.14.62,0,1.28,0,2,.08l.81,0a18.61,18.61,0,0,1,6.7-1.09h.19a1.77,1.77,0,0,1,1.08-.36,2.14,2.14,0,0,1,1.27.45,6.93,6.93,0,0,1,.71,0h.1a4.88,4.88,0,0,1,.79,0L37,1.77a1.69,1.69,0,0,1,.78-.19h.16a1.69,1.69,0,0,1,1.58,1,2.13,2.13,0,0,1-.18,2.06,2.88,2.88,0,0,1,.31,1.48A2.69,2.69,0,0,1,40,7,2.63,2.63,0,0,1,38.9,10.1h0A2.21,2.21,0,0,1,37,11.52h-.33a6.06,6.06,0,0,1-1.15-.12,2.62,2.62,0,0,1-1.17-.55,2,2,0,0,0-1.09,1,4.64,4.64,0,0,0-.36.67,26.27,26.27,0,0,0,2.4,3.7l.35.18a6.73,6.73,0,0,1,.64.35,6,6,0,0,1,.78.65l.23.21a2.55,2.55,0,0,1,1.81,1.94,2.35,2.35,0,0,1-1.34,2.65,3.11,3.11,0,0,1-1.31.29Z"/><path class="c" d="M33.62,3a.73.73,0,0,1,.47.23c.06.06.15.19.2.25h.12c.45,0,.68-.07,1.19-.07h.11c.29,0,.74,0,.9.17a4.11,4.11,0,0,1,1-.42c.08,0,.13-.09.22-.09h.16c.09,0,.17,0,.21.09.23.52-.32.94-.65,1.39.31.57.68.68.65,1.5,0,.12-.19,0-.09.31s.5.73.5,1A1.18,1.18,0,0,1,38,8.9l-.12,0c-.14,0-.3-.06-.4-.06h0s0,.08,0,.15a.69.69,0,0,1-.57,1h-.2a4.46,4.46,0,0,1-.83-.09c-.48-.11-.74-.29-.56-.69a.13.13,0,0,0-.1-.06h0A3.52,3.52,0,0,0,32,11c-.23.34-.9,1.51-.61,1.9a28.29,28.29,0,0,0,2.88,4.43c.36.26.86.45,1.18.66s.66.59,1.17,1a1,1,0,0,1,.51,1.83,1.94,1.94,0,0,1-.89.16h-.05a3.14,3.14,0,0,1-1.3-.33c-.74-.53-.32-1.08-1.21-1.28-.42-.1-1-.94-1.24-1.24-1-.65-4.1-2-4.66-3.27-.23,1.2.26,1.09-.55,2-.44.72-1,1.89.16,2.78a.57.57,0,0,1,.36-.13c.66,0,1.16,1.25.08,1.26-.26,0-.77,0-1.27,0-.87,0-1.73-.13-1.34-.86A7.66,7.66,0,0,1,25,17c.1-.41.24-2.65,0-2.83a16.12,16.12,0,0,0-3.8-.68h-.49c-.9,0-3.18-.74-3.6-1.37,0,1.42-.61,1.77-1.17,2.95a3.89,3.89,0,0,0-.61,2.31,2.78,2.78,0,0,0,1.46,1.81.8.8,0,0,0,.42.1c.31,0,.61-.12.84-.12a.31.31,0,0,1,.26.11c.74.92-.36,1.1-1.2,1.1a4.65,4.65,0,0,1-.73,0c-.85-.16-4.14-2.67-3.68-3.59a3.56,3.56,0,0,0,.55-2,11.17,11.17,0,0,0-1.08-2.57c-.86.56-1.58,1.07-2.45,1.61-.53.33-.35.28-.85.73-.08.07-.9.93-.9,1a6.39,6.39,0,0,1-1.25,1.94c-.29.18-.38.42-.73.54s-1.29.6-.47.6c.24,0,.13.43,0,.67a.8.8,0,0,1-.65.55.6.6,0,0,1-.37-.15c-.22-.17-.87-.55-.93-.76a2.87,2.87,0,0,1,.1-1.15c-.18-.18-1.19-1.05-.23-1.05.24,0,.33.43.39.43s0-.07.06-.25a8.41,8.41,0,0,1,.58-1.39c.08-.25.14-.49.22-.74s.5-.35.54-.58c2.68-.83,1.36-3.06,2.16-4.85.41-.91.31-2.09,1.11-2.8s2.24-1.75,3.09-1.75A13.39,13.39,0,0,1,16.34,4c2.19,0,4.48.26,6.5.29.94,0,2,.09,3.08.14,2.57-1.16,5.51-1,7.37-1.13,0-.24.18-.33.32-.33M5.05,17.71l.76-.64h0v0h0l0,0,0-.06v0l0,0H6l0,0h.06l.47-.64-.74.42h0l-.1.16-.06.07-.55.89M33.62,0A3.27,3.27,0,0,0,32.1.37a20.31,20.31,0,0,0-6.7,1.07l-.47,0c-.71,0-1.38-.07-2-.08-.84,0-1.75-.07-2.71-.13C18.94,1.11,17.65,1,16.34,1a16.61,16.61,0,0,0-5.48.76A10.11,10.11,0,0,0,6.48,4.25,5.88,5.88,0,0,0,4.75,7.58c0,.17-.09.41-.12.49A7.78,7.78,0,0,0,4,11.12c0,.08,0,.16,0,.25a3,3,0,0,0-1.12.83,3.42,3.42,0,0,0-1.09,1.58l-.08.28A3.21,3.21,0,0,0,.24,15.7a3.14,3.14,0,0,0,.29,2.94,4.18,4.18,0,0,0,.15,1.13,4.13,4.13,0,0,0,1.86,2.17l.12.08a3.57,3.57,0,0,0,2.19.76,3.73,3.73,0,0,0,3.4-2.36,4.57,4.57,0,0,0,.21-.6,5.69,5.69,0,0,0,1.38-1.57,4.49,4.49,0,0,0,.19.44c.9,1.81,4,4.25,5.74,4.58a7.38,7.38,0,0,0,1.28.1c2.56,0,3.65-1.15,4.11-2.12a3.59,3.59,0,0,0-.58-3.86,3.28,3.28,0,0,0-1.93-1.16l0,0a8.67,8.67,0,0,0,2,.31h.49a5.25,5.25,0,0,1,.85.08,7.29,7.29,0,0,0,.13,3.07l0,.2A3.36,3.36,0,0,0,22.61,22c1.09,1.81,3.25,1.81,4,1.81.36,0,.72,0,1,0h.28a3.53,3.53,0,0,0,3.42-2.37,4.5,4.5,0,0,0,.71.52,4.32,4.32,0,0,0,1.14,1.2,5.86,5.86,0,0,0,3.05.89h.32a4.56,4.56,0,0,0,1.85-.41,3.89,3.89,0,0,0,2.21-4.33,4,4,0,0,0-2.5-3,7.27,7.27,0,0,0-1-.79,7.61,7.61,0,0,0-.79-.44l0,0a21.85,21.85,0,0,1-1.5-2.27l.42.11a7.39,7.39,0,0,0,1.48.16l.48,0a3.71,3.71,0,0,0,2.92-1.9,4.13,4.13,0,0,0,1.4-4.47,3.76,3.76,0,0,0-.34-.94,4.44,4.44,0,0,0-.17-1,3.44,3.44,0,0,0-.08-2.72A3.17,3.17,0,0,0,37.95.07H37.7a3.16,3.16,0,0,0-1.26.3l-.15.05c-.23,0-.43,0-.58,0h-.44A3.56,3.56,0,0,0,33.62,0Z"/></g><path class="d" d="M33.39,3.16a.72.72,0,0,1,.46.23c.06.06.15.18.2.24h.12c.44,0,.67-.07,1.17-.07h.11a1.54,1.54,0,0,1,.89.17,4,4,0,0,1,.94-.41c.08,0,.12-.09.21-.09h.16c.09,0,.17,0,.2.09.23.51-.32.92-.63,1.37.3.56.67.67.63,1.47,0,.12-.19,0-.09.3s.49.72.49.94A1.16,1.16,0,0,1,37.67,9l-.12,0c-.14,0-.29-.06-.39-.06h0s0,.08,0,.14a.67.67,0,0,1-.56,1H36.4a4.38,4.38,0,0,1-.82-.09c-.47-.1-.73-.29-.55-.67a.13.13,0,0,0-.09-.05h0A3.45,3.45,0,0,0,31.83,11c-.22.34-.89,1.48-.6,1.86a27.78,27.78,0,0,0,2.83,4.35c.35.26.85.45,1.15.65s.65.58,1.15,1a1,1,0,0,1,.5,1.79,1.9,1.9,0,0,1-.88.15h-.05a3.09,3.09,0,0,1-1.28-.32c-.72-.52-.32-1.06-1.19-1.26-.42-.1-1-.93-1.22-1.22-.94-.64-4-2-4.57-3.21-.23,1.18.25,1.07-.54,1.94-.43.7-1,1.86.16,2.73a.56.56,0,0,1,.35-.13c.65,0,1.14,1.23.08,1.24-.26,0-.76,0-1.25,0-.85,0-1.7-.13-1.32-.84a7.51,7.51,0,0,1-.26-2.89c.1-.4.23-2.61,0-2.78a15.83,15.83,0,0,0-3.73-.67h-.48c-.89,0-3.12-.73-3.53-1.35,0,1.39-.6,1.74-1.15,2.89a3.82,3.82,0,0,0-.6,2.26,2.73,2.73,0,0,0,1.43,1.78.78.78,0,0,0,.41.1c.3,0,.6-.12.83-.12a.31.31,0,0,1,.26.1c.73.9-.36,1.08-1.18,1.08a4.57,4.57,0,0,1-.71,0c-.84-.16-4.06-2.62-3.61-3.53a3.49,3.49,0,0,0,.54-1.95,11,11,0,0,0-1.06-2.52c-.84.55-1.56,1.05-2.41,1.58-.52.32-.34.28-.83.72-.07.07-.89.92-.89.95a6.28,6.28,0,0,1-1.23,1.9c-.28.17-.37.41-.72.53s-1.27.59-.46.59c.23,0,.13.42,0,.66a.78.78,0,0,1-.64.54.59.59,0,0,1-.37-.14c-.22-.17-.85-.54-.92-.74A2.82,2.82,0,0,1,4,17.62c-.18-.18-1.16-1-.23-1,.24,0,.32.42.38.42s0-.07.06-.25a8.27,8.27,0,0,1,.57-1.36c.08-.24.13-.48.21-.73s.49-.34.53-.57c2.63-.81,1.33-3,2.12-4.76.4-.9.3-2,1.09-2.75s2.2-1.72,3-1.72a13.14,13.14,0,0,1,4.68-.69c2.15,0,4.4.25,6.38.29.92,0,2,.09,3,.13,2.52-1.14,5.41-1,7.23-1.11,0-.24.17-.33.32-.33M5.34,17.61,6.08,17h0v0h0l0,0,0-.06v0l0,0h0l0,0h.06L6.81,16l-.73.42H6l-.1.16-.06.07-.54.87M33.39,2.16a1.26,1.26,0,0,0-.88.35h-.35a17.71,17.71,0,0,0-6.51,1.07l-.9,0c-.68,0-1.32-.07-1.93-.08-.87,0-1.78-.07-2.75-.13-1.2-.08-2.43-.15-3.65-.15a14.14,14.14,0,0,0-4.9.7C10.09,4,8.25,5.65,8,5.84A3.91,3.91,0,0,0,6.94,8.08a4.7,4.7,0,0,1-.24.85,5.84,5.84,0,0,0-.4,2.28c0,1.25-.1,1.63-1.1,1.94a1,1,0,0,0-.56.44,1.55,1.55,0,0,0-.62.78c0,.14-.08.27-.12.4s-.06.22-.1.32a3.36,3.36,0,0,1-.19.4l-.06.11a1.25,1.25,0,0,0-1.13.76,1.51,1.51,0,0,0,.46,1.59,3.08,3.08,0,0,0,0,1.1A2.29,2.29,0,0,0,4,20.15l.2.14a1.59,1.59,0,0,0,1,.36A1.75,1.75,0,0,0,6.7,19.49a2.21,2.21,0,0,0,.2-.87,2.36,2.36,0,0,0,.46-.37l.1-.09A6.13,6.13,0,0,0,9,16l.72-.75a5.11,5.11,0,0,0,.4-.39.94.94,0,0,1,.27-.2c.54-.33,1-.65,1.5-1a11.59,11.59,0,0,1,.44,1.15,2.5,2.5,0,0,1-.42,1.4A1.63,1.63,0,0,0,12,17.7a9.16,9.16,0,0,0,4.25,3.45,5.51,5.51,0,0,0,.9.07c1.22,0,2-.32,2.29-1a1.57,1.57,0,0,0-.33-1.73A1.29,1.29,0,0,0,18,18a2.64,2.64,0,0,0-.56.08l-.23,0a1.8,1.8,0,0,1-.88-1,2.39,2.39,0,0,1,.38-1.45l.14-.28a7.49,7.49,0,0,1,.45-.8,6.32,6.32,0,0,0,.49-.9,8.76,8.76,0,0,0,2.84.72h.48a11.2,11.2,0,0,1,2.76.46l.12,0a11.7,11.7,0,0,1-.09,1.73A5.17,5.17,0,0,0,24,19.08c0,.2.08.4.12.6a1.38,1.38,0,0,0,.13,1.13,2.45,2.45,0,0,0,2.22.83c.32,0,.63,0,.89,0l.36,0a1.48,1.48,0,0,0,1.61-1.48,1.78,1.78,0,0,0-1.7-1.75h0c0-.19,0-.48.33-1a4,4,0,0,0,.38-.49,25.54,25.54,0,0,0,2.31,1.38c.35.19.69.38.92.52a3.35,3.35,0,0,0,1.68,1.45h0a2.34,2.34,0,0,0,.85,1.1,3.94,3.94,0,0,0,1.86.51h.23a2.56,2.56,0,0,0,1.1-.24,1.85,1.85,0,0,0,1.06-2.08,2,2,0,0,0-1.55-1.57l-.32-.29a5.51,5.51,0,0,0-.71-.59,5.86,5.86,0,0,0-.58-.32c-.16-.08-.32-.16-.45-.24a26.7,26.7,0,0,1-2.55-4,4.47,4.47,0,0,1,.48-1,2.29,2.29,0,0,1,1.6-1.23,1.92,1.92,0,0,0,1.1.6,5.32,5.32,0,0,0,1,.11h.29A1.68,1.68,0,0,0,38.13,10l.05-.16a2.13,2.13,0,0,0,1-2.62,2.48,2.48,0,0,0-.4-.87,1,1,0,0,0,0-.12,2.27,2.27,0,0,0-.39-1.47,1.75,1.75,0,0,0,.3-1.82,1.17,1.17,0,0,0-1.12-.69h-.15a1.21,1.21,0,0,0-.58.15,5.81,5.81,0,0,0-.65.25,4,4,0,0,0-.82-.07h-.06a6.89,6.89,0,0,0-.77,0h-.12a1.67,1.67,0,0,0-1.1-.46Z"/><circle class="d" cx="33.85" cy="4.87" r="0.75"/><path class="d" d="M10.55,6.11a.48.48,0,0,0,.4.76.49.49,0,0,0,.39-.2.34.34,0,0,1,.42-.15.49.49,0,0,0,.43-.87A1.3,1.3,0,0,0,10.55,6.11Z"/><path class="d" d="M12.22,10.4a.5.5,0,0,0,.46-.69A1.33,1.33,0,0,0,11.08,9a.5.5,0,1,0,.25,1s.32-.08.42.16A.5.5,0,0,0,12.22,10.4Z"/><path class="d" d="M16.37,5.09a.48.48,0,0,0-.67.11,1.28,1.28,0,0,0,.18,1.67.47.47,0,0,0,.3.13.48.48,0,0,0,.37-.81.34.34,0,0,1-.08-.43A.48.48,0,0,0,16.37,5.09Z"/><path class="d" d="M26.58,12.07a.57.57,0,0,0-1-.51l-.18.36a.57.57,0,0,0,1,.51Z"/><path class="d" d="M28.07,12.15a.53.53,0,0,0,.72-.22L29,11.5a.53.53,0,0,0-.94-.51l-.23.43A.53.53,0,0,0,28.07,12.15Z"/><path class="d" d="M23.07,10.35a.58.58,0,0,0,.71.92,2.61,2.61,0,0,0,.51-.5.56.56,0,0,0-.15-.78.59.59,0,0,0-.8.12A2.18,2.18,0,0,1,23.07,10.35Z"/><path class="d" d="M21.27,9a1.09,1.09,0,0,0-1-.9.72.72,0,0,0-.35,1.34.72.72,0,0,0,.67.45l.17,0A.72.72,0,0,0,21.27,9Z"/><path class="d" d="M24.51,8a.73.73,0,0,0-1.22-.78.73.73,0,0,0,0,1.45A1.33,1.33,0,0,0,24.51,8Z"/><path class="d" d="M15.57,10.27a.53.53,0,0,0,.25-.06l.43-.23A.53.53,0,0,0,15.75,9l-.43.23a.53.53,0,0,0,.25,1Z"/><path class="d" d="M18.43,7.55a.6.6,0,0,0,.21,0l.3-.11a.6.6,0,1,0-.42-1.12l-.3.11a.6.6,0,0,0,.21,1.16Z"/><path class="d" d="M28.63,6a.59.59,0,0,0,1-.61.9.9,0,0,0-1-.54.59.59,0,0,0,0,1.14Z"/><path class="d" d="M30.14,8.53a.79.79,0,0,0-1-.48l-.42.15a.79.79,0,1,0,.52,1.49l.42-.15A.79.79,0,0,0,30.14,8.53Z"/><path class="d" d="M26.38,7.87a.71.71,0,0,0,.27.06.7.7,0,0,0,.66-.41A.69.69,0,0,0,27,6.61a.52.52,0,0,1-.11-.19.7.7,0,0,0-1.34.41A1.74,1.74,0,0,0,26.38,7.87Z"/><path class="d" d="M31.63,5.72l-.36,0a.57.57,0,0,0,.07,1.14h.08l.36,0a.57.57,0,1,0-.15-1.13Z"/><path class="d" d="M8.81,11.28a.67.67,0,1,0,.94-.94l-.17-.17a.67.67,0,0,0-.94.94Z"/><path class="d" d="M13.53,6.89a.65.65,0,0,0-.15.9l.2.28a.65.65,0,1,0,1.06-.75L14.43,7A.65.65,0,0,0,13.53,6.89Z"/><path class="d" d="M19.35,11.7a.64.64,0,0,0,0-.9,2.73,2.73,0,0,1-.35-.56.64.64,0,0,0-1.15.55,3.88,3.88,0,0,0,.58.89.64.64,0,0,0,.9,0Z"/><path class="d" d="M21.13,6.34a.61.61,0,0,0,.22,0,1.76,1.76,0,0,1,.5-.12A.6.6,0,0,0,22,5a2.55,2.55,0,0,0-1.08.19.6.6,0,0,0,.22,1.17Z"/><path class="d" d="M34.38,7.84a.62.62,0,0,0,.12-1.23l-.26-.05A.62.62,0,0,0,34,7.77l.26.05Z"/><path class="d" d="M32.14,7.89A.6.6,0,1,0,31.61,9l.3.15A.6.6,0,1,0,32.44,8Z"/></svg>