<svg xmlns="http://www.w3.org/2000/svg" viewBox="0 0 38 24.12"><defs><style>.a{opacity:0.8;}.b,.c{fill:#fff;}.b,.d{fill-rule:evenodd;}.d{fill:#acafb2;}</style></defs><title>Asset 103</title><g class="a"><path class="b" d="M9,22.62l-1.21,0a2.38,2.38,0,0,1-2-1.17,8,8,0,0,1-.83-3v-.07a3.7,3.7,0,0,1-.6.14,3.27,3.27,0,0,1-.77.11,2,2,0,0,1-2-1.55,1.91,1.91,0,0,1,.27-1.73,1.79,1.79,0,0,1,1.49-.69h.33a2.59,2.59,0,0,0,.84-.28c.37-.21.4-1.41.41-2.06V12A10.16,10.16,0,0,1,6.4,6.56a7.8,7.8,0,0,1,6.53-3.2h.63a23.71,23.71,0,0,1,4.18.41L19.14,4a7.85,7.85,0,0,0,1.32.17h.26a2.81,2.81,0,0,0,1-.58A7.56,7.56,0,0,1,23,2.79a10.08,10.08,0,0,1,2.78-1,9.87,9.87,0,0,1,1.54-.1l1.32,0a8.14,8.14,0,0,0,.87,0l.55-.08a6.14,6.14,0,0,1,1.11-.13,3.54,3.54,0,0,1,3,1.94,3.81,3.81,0,0,1,.52,2c0,.15,0,.29,0,.4l0,.06.21.26a2.55,2.55,0,0,1,.46,1.38V7.6c0,.06.11.13.16.19A2.77,2.77,0,0,1,36.48,10,2.09,2.09,0,0,1,36,11.1,5,5,0,0,1,34.68,13a2.49,2.49,0,0,1-1.85.81,3,3,0,0,1-.56-.05,4,4,0,0,1-.23.34,1.5,1.5,0,0,1-1,.59,1.51,1.51,0,0,1-.24.45s0,.06,0,.09a1.26,1.26,0,0,0,.14.68,6,6,0,0,1,.22.62l.08.3a4.05,4.05,0,0,0,.25.74H32a3,3,0,0,1,2.13,1.14,1.88,1.88,0,0,1,.22,1.63,2.25,2.25,0,0,1-1.93,1.46,4.29,4.29,0,0,1-.76.05,12.45,12.45,0,0,1-1.55-.1,3.16,3.16,0,0,1-2-1.34l-.59-.82L27,18.93c-.15-.21-.31-.42-.47-.61l-.07-.06a3.79,3.79,0,0,1-.3-.32,4,4,0,0,1-.58-1l-.14-.07a1.51,1.51,0,0,1-.49.18l-.28,0a1.5,1.5,0,0,1-.3,0,1.49,1.49,0,0,1-.36,0H24a1.49,1.49,0,0,1-.76-.26,1.49,1.49,0,0,1-.4.08h-.15c-.05.21-.13.46-.21.73s-.16.5-.22.76A2.35,2.35,0,0,1,23.33,20a1.85,1.85,0,0,1-1.08,2,2.42,2.42,0,0,1-1.06.22h-.5a3.51,3.51,0,0,1-1.9-.32c-1.25-.7-1.21-2.26-1.2-2.85a5.72,5.72,0,0,1,.1-.9c0-.12,0-.24.05-.36s0-.44,0-.67a9.73,9.73,0,0,1,.13-1.6s0-.08,0-.12h-.06l-.47,0a6.16,6.16,0,0,1-2.65-1c-.1.19-.2.38-.31.57l-.4.67a8.78,8.78,0,0,0-1.08,2.19.8.8,0,0,0,.07.28,2.73,2.73,0,0,1,1,.35,2.06,2.06,0,0,1,1,1.92,1.94,1.94,0,0,1-1.81,1.83h-.13a7.47,7.47,0,0,1-.87.06,3.26,3.26,0,0,1-1.46-.31l-.18-.09a2.09,2.09,0,0,1-1.6.78Z"/><path class="c" d="M31.17,3c.6,0,1.15.24,1.78,1.24.41.64.21,1.35.38,2.05a2.17,2.17,0,0,0,.49.75c.23.31.11.77.27,1.12.26.58,1,1,.89,1.64-.07.48-.38.35-.43.88a5.81,5.81,0,0,1-1,1.33,1,1,0,0,1-.74.32,1.87,1.87,0,0,1-.67-.15.86.86,0,0,0-.3-.08.38.38,0,0,0-.19.05c-.44.25-.54.69-.82,1.06.07-.09-.24-.12-.38-.12H30.4a1.08,1.08,0,0,0-.8,1.13l-.09-.14s-.14.4-.17.46a.37.37,0,0,0-.1-.1c-.14.17,0,.52,0,.72A4.09,4.09,0,0,0,29.7,17c.22.78.36,1.59,1.11,2a.77.77,0,0,0,.41.1c.19,0,.38,0,.57,0h.1c.35,0,1.22.3,1.06.81-.1.3-.51.4-.78.45a3.07,3.07,0,0,1-.49,0,11.81,11.81,0,0,1-1.29-.07,1.67,1.67,0,0,1-1.07-.76c-.36-.49-.71-1-1.07-1.48-.17-.23-.34-.46-.52-.68s-.25-.24-.36-.38a3.06,3.06,0,0,1-.54-1.12,2.23,2.23,0,0,0-.11-.31s-.07-.06-.1-.09a2,2,0,0,1-.12.23c0-.11,0-.46-.06-.52a1.91,1.91,0,0,0-.23.4c-.11-.08-.6-.69-.65-.72s0,.45,0,.45l-.19-.23a.72.72,0,0,0,0,.24c-.07,0-.42-.1-.49-.1h0c0,.12-.08.25-.12.39l-.25-.31s0,.22,0,.22l-.2-.24-.19.34-.21-.51-.15.33L23.56,15l-.19.22a3,3,0,0,1,0-.53c-.15,0-.25.48-.27.59A.55.55,0,0,1,23,15c-.13,0-.13,0-.24.41l-.16-.37-.11.09a3.5,3.5,0,0,0,0-.58c0,.06-.21.23-.24.23h0c-.06,0,0-.38,0-.48h0a.44.44,0,0,0-.16.14l-.11-.31a4.07,4.07,0,0,1-.27.51,7.81,7.81,0,0,0-.39,1.73c-.16.89-1.22,3.05,0,3.2.36,0,1,.71.39,1a1,1,0,0,1-.42.07l-.49,0a3.84,3.84,0,0,1-1.17-.13c-.47-.26-.44-1.12-.44-1.52s.11-.75.15-1.14a21.32,21.32,0,0,1,.14-2.15,6.79,6.79,0,0,0,0-1.64c0-.28-1.59-.22-1.79-.25a4.94,4.94,0,0,1-3.14-1.72c-.07-.08-.13-.12-.18-.12s-.11.05-.16.17a20.91,20.91,0,0,1-1,2,13.53,13.53,0,0,0-1.63,3.23,2.7,2.7,0,0,0,.65,2.14.19.19,0,0,0,.13,0h.06a1.46,1.46,0,0,1,.3,0,1.22,1.22,0,0,1,.63.17.55.55,0,0,1,.3.52c0,.29-.21.41-.48.44a7.66,7.66,0,0,1-.84.07,1.82,1.82,0,0,1-.81-.16,2.3,2.3,0,0,1-.82-1c-.08-.14-.14-.28-.22-.42a9,9,0,0,1-.85-2.27.73.73,0,0,1,.1-.53c.24-.54.68-1.66.66-1.7s-.15.09-.19.12A4.31,4.31,0,0,0,8,17a5,5,0,0,0,0,1.91c.07.31.24.59.3.91,0,.13.1.15.2.15h.18c.6.06.83.54.78.71a.6.6,0,0,1-.53.41H9l-1.19,0a.9.9,0,0,1-.8-.51,7.07,7.07,0,0,1-.58-2.2,15.78,15.78,0,0,1,.08-3.11,1.45,1.45,0,0,1,.63-.77,4,4,0,0,0,1.43-1.76,6.45,6.45,0,0,0,.15-2.16c0-.4,0-.79-.05-1.19,0-.22.13-1.07-.15-1.19h0c-.18,0-.38.48-.43.59a9.3,9.3,0,0,0-.72,2.56C7,13,7,14.76,5.75,16A2.89,2.89,0,0,1,4.12,17a3.52,3.52,0,0,1-.55.09A.5.5,0,0,1,3,16.64c-.12-.46.06-.53.31-.53l.38,0,.17,0a4.24,4.24,0,0,0,1.34-.45c1.22-.67,1.16-2.41,1.19-3.6A8.67,8.67,0,0,1,7.64,7.4,6.42,6.42,0,0,1,13,4.86h.58a22.19,22.19,0,0,1,3.91.39l1.23.23a10,10,0,0,0,1.76.22l.43,0C22,5.54,22.7,4.59,23.64,4.15A8.86,8.86,0,0,1,26,3.32a8.6,8.6,0,0,1,1.31-.08l1.33,0a9.65,9.65,0,0,0,1,0c.56-.06,1-.2,1.49-.2m0-3h0A7.53,7.53,0,0,0,29.8.15l-.44.07a6.71,6.71,0,0,1-.71,0H27.32a11.31,11.31,0,0,0-1.77.12,11.58,11.58,0,0,0-3.18,1.08,8.87,8.87,0,0,0-1.52,1l-.43.3a7.61,7.61,0,0,1-1-.14l-.17,0-.57-.1L18,2.28a25.13,25.13,0,0,0-4.44-.43h-.68A9.36,9.36,0,0,0,5.16,5.72,11.58,11.58,0,0,0,3.44,12v.28c0,.23,0,.57,0,.85h0A3.28,3.28,0,0,0,.67,14.38a3.4,3.4,0,0,0-.53,3,3.48,3.48,0,0,0,3.43,2.66h.12a7.24,7.24,0,0,0,.84,2.19,3.83,3.83,0,0,0,3.21,1.84l1.23,0H9a3.61,3.61,0,0,0,1.92-.55,5.08,5.08,0,0,0,1.36.18,8.75,8.75,0,0,0,1.05-.07h.13a3.43,3.43,0,0,0,3-2.44,3.58,3.58,0,0,0,1.64,1.94,5,5,0,0,0,2.64.52h.06l.44,0a3.88,3.88,0,0,0,1.71-.37,3.36,3.36,0,0,0,1.91-3.57,3.52,3.52,0,0,0-.4-1.15h.41l.21.28a5.1,5.1,0,0,0,.41.45h0l.37.49.46.64.62.86a4.65,4.65,0,0,0,3,1.93,13.88,13.88,0,0,0,1.81.12,5.6,5.6,0,0,0,1-.08,3.71,3.71,0,0,0,3.08-2.46,3.37,3.37,0,0,0-.39-2.93,4.32,4.32,0,0,0-2.81-1.74v0c0-.14-.08-.27-.12-.38a3,3,0,0,0,.52-.42,4,4,0,0,0,2.8-1.28,7.26,7.26,0,0,0,1.58-2.26A3.63,3.63,0,0,0,38,10.22a4.1,4.1,0,0,0-1-3.24,3.85,3.85,0,0,0-.7-1.72,5.14,5.14,0,0,0-.75-2.62A5,5,0,0,0,31.17,0ZM14.84,17.15c.14-.25.3-.52.47-.79l0,0a7.66,7.66,0,0,0,1,.3c0,.14,0,.27,0,.4s0,.38,0,.56,0,.16,0,.24-.07.39-.09.64a3.61,3.61,0,0,0-1.28-1.32Z"/></g><path class="d" d="M33.57,12a1.21,1.21,0,0,1-1.41.17.52.52,0,0,0-.5,0c-.44.25-.54.69-.82,1.06.08-.11-.39-.12-.44-.11a1.08,1.08,0,0,0-.8,1.13l-.09-.14s-.14.4-.17.46a.37.37,0,0,0-.1-.1c-.14.17,0,.52,0,.72A4.09,4.09,0,0,0,29.7,17c.22.78.36,1.59,1.11,2,.31.19.73,0,1.07.06s1.22.3,1.06.81c-.1.3-.51.4-.78.45a9.53,9.53,0,0,1-1.78,0,1.67,1.67,0,0,1-1.07-.76c-.36-.49-.71-1-1.07-1.48-.17-.23-.34-.46-.52-.68s-.25-.24-.36-.38a3.06,3.06,0,0,1-.54-1.12,2.22,2.22,0,0,0-.11-.31s-.07-.06-.1-.09a1.93,1.93,0,0,1-.12.23c0-.11,0-.46-.06-.52a1.91,1.91,0,0,0-.23.4c-.11-.08-.6-.69-.65-.72s0,.45,0,.45l-.19-.23a.72.72,0,0,0,0,.24c-.08,0-.49-.12-.5-.1s-.08.25-.12.39l-.25-.31s0,.22,0,.22l-.2-.24-.19.34-.21-.51-.15.33L23.56,15l-.19.22a3,3,0,0,1,0-.53c-.15,0-.25.48-.27.59A.55.55,0,0,1,23,15c-.13,0-.13,0-.24.41l-.16-.37-.11.09a3.51,3.51,0,0,0,0-.58c0,.06-.22.25-.25.23s0-.38,0-.48-.12.08-.16.14l-.11-.31a4.07,4.07,0,0,1-.27.51,7.8,7.8,0,0,0-.39,1.73c-.16.89-1.22,3.05,0,3.2.36,0,1,.71.39,1a2.18,2.18,0,0,1-.91.05,3.84,3.84,0,0,1-1.17-.13c-.47-.26-.44-1.12-.44-1.52s.11-.75.15-1.14a21.29,21.29,0,0,1,.14-2.15,6.8,6.8,0,0,0,0-1.64c0-.28-1.59-.22-1.79-.25a4.94,4.94,0,0,1-3.14-1.72c-.15-.17-.24-.17-.34,0a21,21,0,0,1-1,2,13.53,13.53,0,0,0-1.63,3.23,2.7,2.7,0,0,0,.65,2.14.23.23,0,0,0,.19,0,1.25,1.25,0,0,1,.93.14.55.55,0,0,1,.3.52c0,.29-.21.41-.48.44a3,3,0,0,1-1.65-.09,2.3,2.3,0,0,1-.82-1c-.08-.14-.14-.28-.22-.42a9,9,0,0,1-.84-2.27.73.73,0,0,1,.1-.53c.24-.54.68-1.66.66-1.7s-.15.09-.19.12A4.31,4.31,0,0,0,8,17a5,5,0,0,0,0,1.91c.07.31.24.59.3.91s.21.13.38.15c.6.06.83.54.78.71a.6.6,0,0,1-.53.41l-1.19,0a.9.9,0,0,1-.8-.51,7.07,7.07,0,0,1-.58-2.2,15.78,15.78,0,0,1,.08-3.11,1.45,1.45,0,0,1,.63-.77,4,4,0,0,0,1.43-1.76,6.44,6.44,0,0,0,.15-2.16c0-.4,0-.79-.05-1.19,0-.22.13-1.07-.15-1.19s-.42.46-.47.58a9.3,9.3,0,0,0-.72,2.56C7,13,7,14.76,5.75,16A2.89,2.89,0,0,1,4.12,17c-.3,0-.91.31-1.08-.34s.47-.45.87-.53a4.24,4.24,0,0,0,1.34-.45c1.22-.67,1.16-2.41,1.19-3.6A8.67,8.67,0,0,1,7.64,7.4,6.42,6.42,0,0,1,13,4.86a21.21,21.21,0,0,1,4.49.37l1.24.23a7.68,7.68,0,0,0,2.19.2C22,5.54,22.7,4.59,23.64,4.15A8.85,8.85,0,0,1,26,3.32c1.22-.19,2.45,0,3.67-.11s2.17-.72,3.28,1c.41.64.21,1.35.38,2.05a2.17,2.17,0,0,0,.49.75c.23.31.11.77.27,1.12.26.58,1,1,.89,1.64-.07.48-.38.35-.43.88A5.81,5.81,0,0,1,33.57,12Z"/></svg>