<svg xmlns="http://www.w3.org/2000/svg" viewBox="0 0 50.7 38"><defs><style>.a{opacity:0.8;}.b{fill:#fff;}.c{fill:#ffab24;}</style></defs><title>Asset 15</title><g class="a"><path class="b" d="M22.4,36.5a2.27,2.27,0,0,1-1-.23h-.08a5.3,5.3,0,0,1-.55,0h-.13a2.56,2.56,0,0,1-2-.9,3.6,3.6,0,0,1-.41-3c.1-.53-.58-1.31-1.11-1.93l-.25-.3c-1.38-1.64-3-3.56-4.83-5.36-.67-.67-1.15-1.19-1.58-1.65a19.64,19.64,0,0,0-2.72-2.54,2.54,2.54,0,0,0-1.23-.65.72.72,0,0,0-.26.05,2.72,2.72,0,0,1-1,.17,4.06,4.06,0,0,1-3.17-1.89,3.65,3.65,0,0,1,.25-4.4,10.45,10.45,0,0,1,1.07-1.3A2.36,2.36,0,0,1,5,11.86a2.87,2.87,0,0,1,2-1,2.1,2.1,0,0,1,.48.05,3,3,0,0,1,1.41.88l.1.09a5.38,5.38,0,0,1,2,2.9A4.29,4.29,0,0,0,12.35,17l1.07,1.14a2.08,2.08,0,0,1,1-1.46l.06-.17A6.51,6.51,0,0,1,14.65,15a3.42,3.42,0,0,1-1.27.23,3.62,3.62,0,0,1-.62,0,1.72,1.72,0,0,1-.3-.09,4.78,4.78,0,0,1-2.83-3.78,3.58,3.58,0,0,1-.47-.25,1.5,1.5,0,0,1-.68-1.24,1.59,1.59,0,0,1,0-.58A1.5,1.5,0,0,1,9.94,7.94h.13a22.77,22.77,0,0,1,1-2.23,5.62,5.62,0,0,1,1-1.63,5.68,5.68,0,0,1,1.8-1.85,2.69,2.69,0,0,1,1.56-.36A10,10,0,0,1,16.7,2c.31,0,1-.08,1.59-.15a2.94,2.94,0,0,1,1.35-.33,3.22,3.22,0,0,1,1.91.67,9.81,9.81,0,0,0,2,.14H24a8.86,8.86,0,0,1,1-.06,7.17,7.17,0,0,1,3.87,1,11.17,11.17,0,0,1,2.65,2.81,6,6,0,0,1,1.24,2.86,1.46,1.46,0,0,1,0,.33,4.4,4.4,0,0,0,0,.65H33a2.68,2.68,0,0,1,.74.1l.1,0a15.13,15.13,0,0,0,1.73.42,5.24,5.24,0,0,0,1.23.17h.31l.29-.12a4.24,4.24,0,0,1,1.51-.26,5.24,5.24,0,0,1,.65,0l.67.07.35,0h.31a4.1,4.1,0,0,1,.62,0,4,4,0,0,1,1.87.91,2.43,2.43,0,0,1,.45.55l.16,0,.22,0a1.73,1.73,0,0,1,.59-.27,1.84,1.84,0,0,1,.38,0,1.67,1.67,0,0,1,.77.19,1.5,1.5,0,0,1,.73,1.81,2.08,2.08,0,0,1-.28.56l0,0a4,4,0,0,1-.19.39,2.54,2.54,0,0,1-.43.64v0l.11.13.26.28.21,0,.15,0a1.62,1.62,0,0,1,2.65.87,2.56,2.56,0,0,1,0,1v.12a3.41,3.41,0,0,1-1,1.81,5.39,5.39,0,0,1-.85.77,2.19,2.19,0,0,1-.19.49l-.1.18a1.84,1.84,0,0,1-1.79,1.15l-.17,0a2,2,0,0,1-.66.12,1.78,1.78,0,0,1-1.11-.38,2.06,2.06,0,0,1-.79-.61l-.64-.63-.37-.37h-.38v0l-.07.18a1.74,1.74,0,0,1,.45.59,1.77,1.77,0,0,1,.16.27,1.6,1.6,0,0,1,0,1.33,1.56,1.56,0,0,1-.79.74,2.15,2.15,0,0,1-1.1.28h0a3.84,3.84,0,0,1-.73-.08h-.56a2.21,2.21,0,0,1-.77-.17l-.23,0h-.18a2,2,0,0,1-1.64-1,1.87,1.87,0,0,1-.15-.31L35.37,22a3,3,0,0,1-.26-.83,1.78,1.78,0,0,1,0-.21l-.57,0a8.14,8.14,0,0,1-2.68-.46,3,3,0,0,1-.47-.21l0,.08a1.65,1.65,0,0,1,.64.59,3.4,3.4,0,0,1,.33.74,1.57,1.57,0,0,1-.61,1.75,1.72,1.72,0,0,1-1.05.33h-.25a2.17,2.17,0,0,1-.47.05,2.68,2.68,0,0,1-.74-.11h-.12a1.73,1.73,0,0,1-.83-.21h-.18l-.44,0a2,2,0,0,1-.38,0,2.54,2.54,0,0,1-.57-.07,1.73,1.73,0,0,1-1.48-1,1.86,1.86,0,0,1,0-1.59l-.07-.1a1.78,1.78,0,0,1-.05-1.8l.21-.43A1.83,1.83,0,0,1,25,18a1.73,1.73,0,0,1-.22-1.48A2.7,2.7,0,0,1,25,16.1a.75.75,0,0,0,.06-.2s0-.16,0-.24a5.61,5.61,0,0,1,.33-1.49l-.09-.1-.35,0a4.42,4.42,0,0,1-.87-.09c0,.3.08.56.1.75a13.19,13.19,0,0,1,.21,2,1.49,1.49,0,0,1,0,.42v0a2.57,2.57,0,0,1,.45,1.4c0,.59-.3,1.81-2.45,1.81a12.91,12.91,0,0,1-1.86-.17,1.5,1.5,0,0,1-.73-.34,1.68,1.68,0,0,1-.59-1.4,2.1,2.1,0,0,1,.65-1.33,9.25,9.25,0,0,1-.41-1.27c-.16.28-.48,1-.75,1.62l.07.16.07.16a1.7,1.7,0,0,1-.18,1.59,2.31,2.31,0,0,1-2,.83,9.81,9.81,0,0,1-1.42-.13l1.09,1.15c1,1,2,2,2.94,2.92l.76.74a7.67,7.67,0,0,0,1.91,1.53,7.3,7.3,0,0,0,1.61.65l.18,0a3.85,3.85,0,0,1,1.34.45,3.29,3.29,0,0,1,.8.73,1.52,1.52,0,0,0,.15.17A2.24,2.24,0,0,1,27.08,30,3.35,3.35,0,0,1,26,32.64l-.18.21a1.23,1.23,0,0,0-.06.12,2.74,2.74,0,0,1-.81,1,1.13,1.13,0,0,0-.15.38A2.53,2.53,0,0,1,22.4,36.5Z"/><path class="b" d="M19.64,3a1.73,1.73,0,0,1,1.05.4c.34.35,2,.4,2.82.4h.55a7.38,7.38,0,0,1,.88-.05A5.55,5.55,0,0,1,28,4.56,12.26,12.26,0,0,1,30.29,7a4.45,4.45,0,0,1,.93,2.11,14.58,14.58,0,0,0,.33,2.69h0l.06.11,0-.12c.36-.12.69-.26.82-.3a2,2,0,0,1,.63-.11,1.18,1.18,0,0,1,.32,0,15.13,15.13,0,0,0,1.94.48,6.41,6.41,0,0,0,1.53.2c.24,0,.41,0,.51,0a2,2,0,0,0,.62-.21,2.78,2.78,0,0,1,1-.17,3.82,3.82,0,0,1,.47,0l1,.1h.46a2.67,2.67,0,0,1,.4,0,2.49,2.49,0,0,1,1.1.55,2.05,2.05,0,0,1,.41.81.2.2,0,0,0,.08.12s.2,0,.26.07.1.19.15.23a.26.26,0,0,0,.13,0,.23.23,0,0,1,.07-.12.23.23,0,0,0,.06-.21s0,0,0,0l.14,0a.9.9,0,0,1,.23,0c.09,0,.1.19.11.25s.53-.21.67-.27.37-.26.43-.27h0l.08,0a.57.57,0,0,1-.11.19c-.06.06-.2.44-.28.56-.21.48-.45.48-.57.49l-.15,0a2.37,2.37,0,0,1,.09.72,1.82,1.82,0,0,0,.2.87,2.67,2.67,0,0,0,.52.65,3.47,3.47,0,0,1,.43.53s.57,0,.78,0,.06.24-.19.3a1.28,1.28,0,0,0-.37.14h0l0,.1h0a1.31,1.31,0,0,0,.32,0,4.87,4.87,0,0,0,1.4-.76c.07-.08.12-.11.16-.11s.12.11.13.15a3.25,3.25,0,0,1,0,.58,2.49,2.49,0,0,1-.61,1,3.7,3.7,0,0,1-.94.76c0,.05-.22.5-.23.53s0,.14-.06.26a1.69,1.69,0,0,0-.17.31c-.06.21-.39.21-.42.21h0a3,3,0,0,0-.63.09.49.49,0,0,1-.19,0,.43.43,0,0,1-.32-.2.61.61,0,0,1-.42-.25c-.06-.09-1.18-1.16-1.26-1.25a.62.62,0,0,1-.34-.5c0-.06-.15-.25-.15-.25l-.1.06a1.61,1.61,0,0,1-.06.19c0,.07-.26.16-.4.21h-.06a.28.28,0,0,1-.23-.16s-.12,0-.19,0h-.08c-.07.13-.14.16-.21.16a.59.59,0,0,1-.15,0,5.35,5.35,0,0,0-.57.66,4.15,4.15,0,0,0-.41,1.1,2.78,2.78,0,0,0-.05.31,1,1,0,0,0,.25.54,1.9,1.9,0,0,0,.33.17.28.28,0,0,1,.17.18,1.68,1.68,0,0,0,.13.21c0,.06,0,.08-.08.09h0l-.14,0s.05.08,0,.1a1,1,0,0,1-.37.06h0a1.74,1.74,0,0,1-.54-.1,1.72,1.72,0,0,1-.33,0h-.25c-.35,0-.33-.09-.37-.18a.76.76,0,0,1,.11-.46,1,1,0,0,1,.17-.19.23.23,0,0,0,0-.08,1,1,0,0,1-.21,0L38,21.4a5.37,5.37,0,0,0-.46.42.58.58,0,0,1-.29.16h0a.51.51,0,0,1-.36-.27.35.35,0,0,1,0-.37h0l-.14,0A1.72,1.72,0,0,1,36.6,21a.54.54,0,0,1,.13-.4,4,4,0,0,1,.61-.57h0a.59.59,0,0,1,.28.14l.07,0a.37.37,0,0,1,.15,0,.14.14,0,0,1,.09-.09.25.25,0,0,0,0-.12,10,10,0,0,1-.64-.9,8,8,0,0,1-1.8.37,7.18,7.18,0,0,1-.94.06,6.59,6.59,0,0,1-2.2-.39,3.69,3.69,0,0,1-1.43-1.27.84.84,0,0,1-.36.43,1.27,1.27,0,0,0-.48.55,3,3,0,0,0-.1.67c0,.23-.09.61-.1.7a2.73,2.73,0,0,0,.06.56c0,.08.13.27.19.45a1.11,1.11,0,0,0,.2.36.73.73,0,0,0,.3.14c.15,0,.15.06.19.12a2.11,2.11,0,0,1,.13.32s0,.06-.06.14a.28.28,0,0,1-.16,0,2.54,2.54,0,0,1-.41-.05.54.54,0,0,1-.31.09,1.82,1.82,0,0,1-.52-.11h-.35c-.18,0-.18-.11-.18-.18a2.77,2.77,0,0,1,.11-.38.59.59,0,0,0-.05-.4,3.55,3.55,0,0,0-.52-.48c-.13-.1-.22-.17-.25-.28a1.92,1.92,0,0,1,.06-.62,2.71,2.71,0,0,0,0-.7l-.17.39c-.06.15-.14.41-.2.57a1.84,1.84,0,0,0-.13.53,3.13,3.13,0,0,0,.06.45.88.88,0,0,0,.24.28,1.34,1.34,0,0,1,.29.43c.07.16,0,.19,0,.19h0l-.16,0s0,0-.08,0h0a3.27,3.27,0,0,1-.37,0h-.23a.46.46,0,0,1-.22,0,1.21,1.21,0,0,1-.38-.07h-.1a.25.25,0,0,1-.24-.13c-.09-.17.08-.42.2-.75a.65.65,0,0,0-.06-.6c-.05-.11-.22-.34-.3-.47s0-.26.07-.42.25-.48.38-.83a1.62,1.62,0,0,0,.14-.52,1.75,1.75,0,0,0-.17-.46c-.06-.09-.06-.08-.06-.16s0-.14,0-.23a3.28,3.28,0,0,0-.1-.36c0-.06-.06-.36-.06-.36a1.65,1.65,0,0,1-.06.2c-.06.13-.13.21-.14.25s0,.06.05.08.21.12.28.37-.06.35-.08.35h0a.9.9,0,0,0-.18-.26c-.12-.14,0-.17,0-.21s0-.08-.15-.17-.08-.21-.05-.33.14-.29.19-.48a2.63,2.63,0,0,0,.08-.44s0-.18,0-.26A4.36,4.36,0,0,1,27,14.12l.07-.11h0c-.13-.29-.27-.55-.27-.55a4.9,4.9,0,0,1-.7-.67c0-.14-1.12-.26-1.12-.26h-.09a5.75,5.75,0,0,1-2.28-.72c-.12,0-.23.7-.23.7,0,.84.28,2.49.28,2.49a16.43,16.43,0,0,1,.19,1.77A1.86,1.86,0,0,0,23,17.85a1.09,1.09,0,0,1,.28.67c0,.24-.44.31-.95.31a11.79,11.79,0,0,1-1.61-.15c-.33-.28.56-.86.56-.86.4-.23.07-1,.07-1a8.25,8.25,0,0,1-.63-1.88c-.09-.26-.91-2.21-.91-2.21a14,14,0,0,1-1.53,2.07,17.36,17.36,0,0,0-1.19,2.44c-.09.33.28,1,.28,1,.11.31-.26.4-.75.4A10,10,0,0,1,15,18.5c-.42-.33.35-.72.35-.72.35-.21.56-1.14.56-1.14a6.21,6.21,0,0,1,.3-1.72,9.18,9.18,0,0,0,.51-1.67l.53-1.88a16.49,16.49,0,0,0,.42-2.18c-.16.23-1.39.46-1.39.46C15.93,9.37,16,8.53,16,8.53c-.16.28-1.16.33-1.16.33l-.42.21a.43.43,0,0,1-.4.28l-.3-.23-.37,0a3.11,3.11,0,0,0-.63,2.23c.16,1.16.62,1.34.89,1.34a.55.55,0,0,0,.2,0c.44-.12,0-.7,0-.7.23-.09,0-.3,0-.3a.67.67,0,0,1,.36-.12c.46,0,.66.66.66.66a1.26,1.26,0,0,1-1.41,1.54,2.27,2.27,0,0,1-.36,0c-2.11-.86-2-3.58-2-3.58H11a2.16,2.16,0,0,1-1-.33,1.3,1.3,0,0,0,.3,0,2.7,2.7,0,0,0,.39,0c-.77-.19-.74-.37-.74-.37h.13a7.89,7.89,0,0,0,1.15-.18l.19-.56a19.12,19.12,0,0,1,1-2.42A4.21,4.21,0,0,1,13.26,5a4.09,4.09,0,0,1,1.35-1.44,1.54,1.54,0,0,1,.78-.14,8.66,8.66,0,0,1,1.13.09h.17c.57,0,2.1-.2,2.1-.2A1.47,1.47,0,0,1,19.64,3M7,12.4l.14,0A2.32,2.32,0,0,1,8,13a4,4,0,0,1,1.51,2.1,5.87,5.87,0,0,0,1.86,2.94c1.83,1.94,2.06,2.26,3.91,4.17,1.1,1.14,2.24,2.24,3.38,3.34a10.58,10.58,0,0,0,2.65,2.15,8.43,8.43,0,0,0,2,.77,3.44,3.44,0,0,1,1.05.3c.33.2.53.63.88.85,1.07.68-.1,1.67-.56,2.24-.27.33-.28.66-.62.93A1.79,1.79,0,0,0,23.3,34c-.12.46-.43,1-.9,1a.79.79,0,0,1-.34-.08,1.32,1.32,0,0,0-.61-.16c-.2,0-.38,0-.67,0H20.7c-1.37,0-1.16-1.21-1-2.17.25-1.37-.91-2.53-1.7-3.46-1.58-1.88-3.18-3.72-4.91-5.46a38.76,38.76,0,0,0-4.43-4.32,3.62,3.62,0,0,0-2.16-1,2.22,2.22,0,0,0-.79.15,1.22,1.22,0,0,1-.43.08,2.58,2.58,0,0,1-1.91-1.21,2.2,2.2,0,0,1,.2-2.71,9.05,9.05,0,0,1,.91-1.12.94.94,0,0,1,.75-.26h.44l-.22,0,.22,0,.05-.06C6,13,6.51,12.4,7,12.4M19.64,0h0a4.4,4.4,0,0,0-1.77.37L16.78.48a11.25,11.25,0,0,0-1.4-.1A4.3,4.3,0,0,0,13,1,7.23,7.23,0,0,0,10.8,3.22a7.1,7.1,0,0,0-1.13,1.9c-.22.45-.47,1-.68,1.48A3,3,0,0,0,7,9.07a2.79,2.79,0,0,0,0,.34,4.13,4.13,0,0,0-2.59,1,3.77,3.77,0,0,0-2,1.05A11.81,11.81,0,0,0,1.14,13a5.19,5.19,0,0,0-.29,6.09,5.54,5.54,0,0,0,4.43,2.58,4.23,4.23,0,0,0,1.16-.16l.36.26a18.14,18.14,0,0,1,2.55,2.39c.43.47.92,1,1.61,1.69,1.75,1.76,3.38,3.65,4.74,5.27l.27.31a8.68,8.68,0,0,1,.73.93,4.78,4.78,0,0,0,.76,4,4.06,4.06,0,0,0,3.14,1.46h.55A3.71,3.71,0,0,0,22.4,38a4,4,0,0,0,3.77-3.1A4.27,4.27,0,0,0,27,33.69l0,0a4.74,4.74,0,0,0,1.5-3.81A3.77,3.77,0,0,0,27,27.29a4.69,4.69,0,0,0-1.16-1A5.32,5.32,0,0,0,24,25.61l-.14,0a6.24,6.24,0,0,1-1.21-.51,6.57,6.57,0,0,1-1.57-1.28l-.36-.35-.35-.34c-.6-.58-1.22-1.18-1.82-1.78a3.31,3.31,0,0,0,.41-.22,3,3,0,0,0,1.31.56,14.67,14.67,0,0,0,2.1.19,5.8,5.8,0,0,0,1.21-.12,3.17,3.17,0,0,0,.36,1.46,3.24,3.24,0,0,0,2.6,1.75,4,4,0,0,0,.79.08l.38,0L28,25a3.26,3.26,0,0,0,1.1.21,4.09,4.09,0,0,0,.93.11,3.71,3.71,0,0,0,.55,0h.17a3.22,3.22,0,0,0,1.94-.62,3.12,3.12,0,0,0,1.27-2.2h0l.07.17.11.22A3.55,3.55,0,0,0,37.26,25h.28a3.91,3.91,0,0,0,.8.13l.46,0h.07a4.86,4.86,0,0,0,.8.07h.13a3.72,3.72,0,0,0,1.74-.44A3,3,0,0,0,43,23.41a3.32,3.32,0,0,0,1.47.35,3.41,3.41,0,0,0,1-.14,3.38,3.38,0,0,0,3-1.95l.1-.18c.05-.1.1-.2.14-.3a6.49,6.49,0,0,0,.71-.7,4.78,4.78,0,0,0,1.31-2.64v-.1a4,4,0,0,0-.06-1.56,3.15,3.15,0,0,0-2.43-2.31,3,3,0,0,0-1.56-3.41,3.18,3.18,0,0,0-1.42-.34,3.31,3.31,0,0,0-.69.08l-.09,0,0,0a5.47,5.47,0,0,0-2.63-1.26,5.69,5.69,0,0,0-.85-.06h-.25l-.29,0-.6-.06a6.85,6.85,0,0,0-.83-.05,5.73,5.73,0,0,0-2.05.36l-.09,0A3.62,3.62,0,0,1,36,9l-.13,0a12.55,12.55,0,0,1-1.51-.36l-.17-.06a7.44,7.44,0,0,0-1.53-3.43A10.71,10.71,0,0,0,29.56,2,8.74,8.74,0,0,0,24.95.74,10.4,10.4,0,0,0,23.86.8h-.35A12.63,12.63,0,0,1,22.13.74,4.66,4.66,0,0,0,19.64,0Z"/></g><path class="c" d="M5.68,13.34l.05-.06c.31-.35.87-1,1.41-.87A2.32,2.32,0,0,1,8,13a4,4,0,0,1,1.51,2.1,5.87,5.87,0,0,0,1.86,2.94c1.83,1.94,2.06,2.26,3.91,4.17,1.1,1.14,2.24,2.24,3.38,3.34a10.58,10.58,0,0,0,2.65,2.15,8.43,8.43,0,0,0,2,.77,3.44,3.44,0,0,1,1.05.3c.33.2.53.63.88.85,1.07.68-.1,1.67-.56,2.24-.27.33-.28.66-.62.93A1.78,1.78,0,0,0,23.3,34c-.14.56-.57,1.22-1.24.9s-.76-.1-1.36-.11c-1.37,0-1.16-1.21-1-2.17.25-1.37-.91-2.53-1.7-3.46-1.58-1.88-3.18-3.72-4.91-5.46a38.75,38.75,0,0,0-4.43-4.32,2.94,2.94,0,0,0-2.95-.83c-.85.32-1.88-.41-2.35-1.13a2.2,2.2,0,0,1,.2-2.71,9.06,9.06,0,0,1,.91-1.12c.36-.36.74-.22,1.19-.27ZM27.11,14l-.07.11a4.36,4.36,0,0,0-.49,1.63c0,.09,0,.26,0,.26a2.62,2.62,0,0,1-.08.44c-.05.19-.16.36-.19.48s-.07.24.05.33.15.14.15.17-.1.06,0,.21a.9.9,0,0,1,.18.26s.15-.1.08-.35-.14-.3-.28-.37-.06,0-.05-.08.08-.12.14-.25a1.65,1.65,0,0,0,.06-.2s0,.3.06.36a3.28,3.28,0,0,1,.1.36c0,.09,0,.15,0,.23s0,.07.06.16a1.75,1.75,0,0,1,.17.46,1.61,1.61,0,0,1-.14.52c-.13.35-.31.68-.38.83s-.15.29-.07.42.25.36.3.47a.65.65,0,0,1,.06.6c-.11.33-.29.57-.2.75s.27.13.34.13a.85.85,0,0,0,.59,0,1,1,0,0,0,.23,0,2.49,2.49,0,0,0,.4,0c.08,0,.08,0,.08,0l.16,0s.11,0,0-.19a1.34,1.34,0,0,0-.29-.43.88.88,0,0,1-.24-.28,3.12,3.12,0,0,1-.06-.45,1.84,1.84,0,0,1,.13-.53c.06-.16.14-.41.2-.57l.17-.39a2.72,2.72,0,0,1,0,.7,1.91,1.91,0,0,0-.06.62c0,.12.12.19.25.28a3.54,3.54,0,0,1,.52.48.59.59,0,0,1,.05.4A2.78,2.78,0,0,0,29,22c0,.07,0,.2.24.17h.29c.05,0,.54.23.84,0,.11,0,.47.09.56,0s.08-.09.06-.14a2.12,2.12,0,0,0-.13-.32c0-.06,0-.08-.19-.12a.73.73,0,0,1-.3-.14,1.11,1.11,0,0,1-.2-.36c-.06-.18-.15-.37-.18-.45a2.73,2.73,0,0,1-.06-.56c0-.09.06-.47.1-.7a3,3,0,0,1,.1-.67,1.27,1.27,0,0,1,.48-.55.84.84,0,0,0,.36-.43,3.69,3.69,0,0,0,1.43,1.27,6.56,6.56,0,0,0,3.14.32,8,8,0,0,0,1.8-.37,10,10,0,0,0,.64.9.25.25,0,0,1,0,.12.14.14,0,0,0-.09.09c-.1,0-.18-.06-.22,0a.59.59,0,0,0-.28-.14c-.07,0-.54.49-.61.57a.54.54,0,0,0-.13.4,1.71,1.71,0,0,0,.13.38.67.67,0,0,1,.15,0,.35.35,0,0,0,0,.37c.1.17.26.28.38.27a.58.58,0,0,0,.29-.16A5.37,5.37,0,0,1,38,21.4l.26-.18a1,1,0,0,0,.21,0,.23.23,0,0,1,0,.08,1,1,0,0,0-.17.19.76.76,0,0,0-.11.46c0,.09,0,.17.37.18a2.41,2.41,0,0,0,.59,0,1.73,1.73,0,0,0,.56.1,1,1,0,0,0,.37-.06s0-.1,0-.1a.47.47,0,0,0,.17,0c.05,0,.11,0,.08-.09a1.69,1.69,0,0,1-.13-.21.28.28,0,0,0-.17-.18,1.91,1.91,0,0,1-.33-.17,1,1,0,0,1-.25-.54,2.77,2.77,0,0,1,.05-.31,4.15,4.15,0,0,1,.41-1.1,5.35,5.35,0,0,1,.57-.66c.08,0,.24.11.36-.13,0,0,.23,0,.27,0a.26.26,0,0,0,.29.15c.15,0,.37-.14.4-.21a1.58,1.58,0,0,0,.06-.19l.1-.06s.12.19.15.25a.62.62,0,0,0,.34.5c.08.09,1.19,1.16,1.26,1.25a.61.61,0,0,0,.42.25.38.38,0,0,0,.51.16,3,3,0,0,1,.63-.09s.35,0,.42-.21a1.7,1.7,0,0,1,.17-.31c.06-.12.09-.21.06-.26s.23-.48.23-.53a3.7,3.7,0,0,0,.94-.76,2.49,2.49,0,0,0,.61-1,3.28,3.28,0,0,0,0-.58c0-.07-.1-.28-.29,0a4.87,4.87,0,0,1-1.4.76.93.93,0,0,1-.36,0l0-.1h0A1.28,1.28,0,0,1,46,17.5c.25-.06.47-.27.19-.3s-.78,0-.78,0a3.48,3.48,0,0,0-.43-.53,2.67,2.67,0,0,1-.52-.65,1.82,1.82,0,0,1-.2-.87,2.37,2.37,0,0,0-.09-.72l.15,0c.11,0,.36,0,.57-.49.08-.12.22-.5.28-.56a.56.56,0,0,0,.11-.19.18.18,0,0,0-.11,0c-.06,0-.29.21-.43.27s-.62.23-.67.27,0-.21-.11-.25a.9.9,0,0,0-.23,0c-.1,0-.17-.07-.15,0a.23.23,0,0,1-.06.21.23.23,0,0,0-.07.12.26.26,0,0,1-.13,0s-.08-.19-.15-.23-.22,0-.26-.07a.2.2,0,0,1-.08-.12,2.05,2.05,0,0,0-.41-.81,2.49,2.49,0,0,0-1.1-.55c-.39-.06-.62,0-.87,0l-1-.1a3.13,3.13,0,0,0-1.45.14,2,2,0,0,1-.62.21,5.84,5.84,0,0,1-2-.17,15.14,15.14,0,0,1-1.94-.48,1.76,1.76,0,0,0-1,.06c-.13,0-.48.19-.86.32l.06.11a16.07,16.07,0,0,1-.35-2.81A4.45,4.45,0,0,0,30.29,7,12.26,12.26,0,0,0,28,4.56a5.88,5.88,0,0,0-4-.77s-2.9.09-3.37-.4a1.56,1.56,0,0,0-1.91-.12,18.35,18.35,0,0,1-2.28.19s-1.51-.23-1.91,0A4.09,4.09,0,0,0,13.26,5a4.21,4.21,0,0,0-.84,1.35,19.14,19.14,0,0,0-1,2.42l-.19.56a5.54,5.54,0,0,1-1.28.16s0,.19.74.37a2.13,2.13,0,0,1-.7,0,2.11,2.11,0,0,0,1.07.33s-.14,2.72,2,3.58c0,0,2,.35,1.77-1.51,0,0-.3-1-1-.53,0,0,.28.21,0,.3,0,0,.46.58,0,.7,0,0-.86.37-1.09-1.3a3.11,3.11,0,0,1,.63-2.23l.37,0,.3.23a.43.43,0,0,0,.4-.28l.42-.21s1,0,1.16-.33c0,0-.09.84.28,1.12,0,0,1.23-.23,1.39-.46a16.51,16.51,0,0,1-.42,2.18l-.53,1.88a9.18,9.18,0,0,1-.51,1.67,6.21,6.21,0,0,0-.3,1.72s-.21.93-.56,1.14c0,0-.77.39-.35.72,0,0,2.65.53,2.37-.21,0,0-.37-.72-.28-1a17.35,17.35,0,0,1,1.19-2.44,14,14,0,0,0,1.53-2.07s.81,2,.91,2.21a8.24,8.24,0,0,0,.63,1.88s.33.77-.07,1c0,0-.88.58-.56.86,0,0,2.53.42,2.56-.16a1.09,1.09,0,0,0-.28-.67,1.86,1.86,0,0,1-.14-1.09A16.38,16.38,0,0,0,22.69,15s-.26-1.65-.28-2.49c0,0,.12-.65.23-.7a5.55,5.55,0,0,0,2.37.72s1.14.12,1.12.26a4.9,4.9,0,0,0,.7.67s.14.26.27.55Z"/></svg>