<svg xmlns="http://www.w3.org/2000/svg" viewBox="0 0 34.01 38.77"><defs><style>.a{opacity:0.8;}.b{fill:#fff;}.c{fill:#4f8317;}</style></defs><title>Asset 12</title><g class="a"><path class="b" d="M23.48,37.27a2.31,2.31,0,0,1-1-.24h-.12a5.41,5.41,0,0,1-.57,0h-.13a2.62,2.62,0,0,1-2.06-.92A3.73,3.73,0,0,1,19.16,33c.11-.59-.61-1.43-1.19-2.1l-.27-.32c-1.46-1.74-3.21-3.77-5.1-5.66-.71-.71-1.21-1.26-1.66-1.74a20.73,20.73,0,0,0-2.88-2.7,2.73,2.73,0,0,0-1.35-.71.85.85,0,0,0-.3.06,2.78,2.78,0,0,1-1,.18,4.19,4.19,0,0,1-3.28-2A3.77,3.77,0,0,1,2.4,13.5a10.9,10.9,0,0,1,1.12-1.36,2.42,2.42,0,0,1,1.65-.71,3,3,0,0,1,2.06-1,2.17,2.17,0,0,1,.48.05,3.12,3.12,0,0,1,1.44.9l.11.1a5.54,5.54,0,0,1,2,3l.05.21a1.5,1.5,0,0,1,1.39,2l.13.14c.83.88,1.35,1.44,1.82,2,.63.69,1.18,1.28,2.29,2.44s2.12,2.13,3.18,3.15l.72.7a14.07,14.07,0,0,0,1.25,1.14,2.44,2.44,0,0,1,0-.39V19.24a2.33,2.33,0,0,1-2.34-2.31V11.57a2.07,2.07,0,0,1,0-.22v-.17c.05-2,1-3.44,2.52-3.87l.19,0a4,4,0,1,1,7.26,0l.19,0c1.53.43,2.48,1.85,2.53,3.83v.21a2,2,0,0,1,0,.22v5.36a2.33,2.33,0,0,1-2.34,2.31v6.64a2.51,2.51,0,0,1-2.53,2.48,2.55,2.55,0,0,1-1.49-.47h0l.11.06a3.35,3.35,0,0,1,.83.75,1.58,1.58,0,0,0,.17.18,2.29,2.29,0,0,1,1.1,1.65,3.46,3.46,0,0,1-1.17,2.68l-.2.22a1,1,0,0,0-.07.14,2.83,2.83,0,0,1-.83,1.08l-.08.07s-.08.28-.11.37A2.59,2.59,0,0,1,23.48,37.27Z"/><path class="b" d="M26.15,3a2.53,2.53,0,1,1-2.53,2.53A2.53,2.53,0,0,1,26.15,3m2.78,5.68a6,6,0,0,1,.61.06A2.34,2.34,0,0,1,31,11.17c0,.09,0,.18,0,.27a.79.79,0,0,1,0,.13v5.36a.85.85,0,0,1-1.7,0V11.57h-.64q0,.72,0,1.43,0,2.17,0,4.34h0v8.55a1,1,0,0,1-1,1h0a1,1,0,0,1-1-1V17.32H25.7v8.55a1,1,0,0,1-1,1h0a1,1,0,0,1-1-1V17.32h0q0-2.17,0-4.34,0-.72,0-1.43H23v5.36a.85.85,0,0,1-1.7,0V11.57a.73.73,0,0,1,0-.13c0-.09,0-.18,0-.27a2.34,2.34,0,0,1,1.46-2.43,6,6,0,0,1,.61-.06h5.56M7.23,11.93l.15,0a2.45,2.45,0,0,1,.88.65,4.22,4.22,0,0,1,1.59,2.22,6.2,6.2,0,0,0,2,3.1c1.93,2,2.17,2.38,4.12,4.4,1.16,1.2,2.36,2.36,3.57,3.53a11.16,11.16,0,0,0,2.8,2.27,8.89,8.89,0,0,0,2.07.82,3.63,3.63,0,0,1,1.11.32c.34.21.56.66.93.89,1.13.72-.1,1.77-.59,2.37-.28.35-.3.7-.66,1a1.88,1.88,0,0,0-.72,1.26c-.12.48-.45,1-1,1a.83.83,0,0,1-.36-.09,1.39,1.39,0,0,0-.64-.16c-.21,0-.41,0-.71,0h-.09c-1.44,0-1.23-1.28-1-2.29.26-1.44-1-2.67-1.79-3.65-1.66-2-3.36-3.93-5.19-5.76A40.87,40.87,0,0,0,9,19.3a3.82,3.82,0,0,0-2.28-1,2.34,2.34,0,0,0-.83.16,1.29,1.29,0,0,1-.46.08,2.72,2.72,0,0,1-2-1.28,2.33,2.33,0,0,1,.21-2.86,9.54,9.54,0,0,1,1-1.18,1,1,0,0,1,.79-.27h.47l-.23,0,.23,0h0l.06-.06c.3-.34.82-.93,1.34-.93M26.15,0a5.53,5.53,0,0,0-5.46,6.41A5.51,5.51,0,0,0,18.3,11.1s0,.05,0,.08v.11c0,.1,0,.19,0,.28v5.36a3.81,3.81,0,0,0,2.34,3.5v2.33c-.85-.83-1.72-1.68-2.54-2.53-1.1-1.14-1.64-1.73-2.27-2.41-.48-.52-1-1.09-1.84-2l-.08-.09c-.81-.86-1-1.12-1.12-1.57a6.85,6.85,0,0,0-2.45-3.76l-.05,0-.07-.07A4.54,4.54,0,0,0,8.06,9a3.67,3.67,0,0,0-.82-.09A4.19,4.19,0,0,0,4.52,10a3.84,3.84,0,0,0-2.06,1.08,12.31,12.31,0,0,0-1.27,1.54,5.24,5.24,0,0,0-.3,6.24,5.68,5.68,0,0,0,4.54,2.65,4.3,4.3,0,0,0,1.25-.18,5,5,0,0,1,.46.33,19.25,19.25,0,0,1,2.71,2.54c.45.49,1,1,1.7,1.78,1.85,1.86,3.57,3.86,5,5.57l.28.33a8.17,8.17,0,0,1,.82,1.06,5,5,0,0,0,.76,4.15,4.13,4.13,0,0,0,3.19,1.48h.17l.43,0a3.76,3.76,0,0,0,1.27.22,4.08,4.08,0,0,0,3.83-3.19,4.36,4.36,0,0,0,.92-1.28l.06-.07a4.86,4.86,0,0,0,1.54-3.89,3.67,3.67,0,0,0-.27-1,4,4,0,0,0,2.11-3.5V20.43A3.81,3.81,0,0,0,34,16.93V11.57c0-.09,0-.19,0-.28v-.1s0-.06,0-.08a5.51,5.51,0,0,0-2.39-4.69A5.53,5.53,0,0,0,26.15,0Z"/></g><path class="c" d="M5.84,12.92l.06-.06c.33-.37.92-1,1.49-.91a2.45,2.45,0,0,1,.88.65,4.22,4.22,0,0,1,1.59,2.22,6.2,6.2,0,0,0,2,3.1c1.93,2,2.17,2.38,4.12,4.4,1.16,1.2,2.36,2.36,3.57,3.53a11.17,11.17,0,0,0,2.8,2.27,8.9,8.9,0,0,0,2.07.82,3.63,3.63,0,0,1,1.11.32c.35.21.56.66.93.89,1.13.72-.1,1.77-.59,2.37-.28.35-.3.7-.66,1a1.88,1.88,0,0,0-.72,1.26c-.15.59-.6,1.29-1.31.95s-.8-.1-1.43-.12c-1.44,0-1.23-1.28-1-2.29.26-1.44-1-2.67-1.79-3.65-1.66-2-3.36-3.93-5.19-5.76A40.88,40.88,0,0,0,9,19.3c-.92-.73-1.91-1.32-3.11-.87-.89.34-2-.43-2.48-1.19a2.33,2.33,0,0,1,.21-2.86,9.56,9.56,0,0,1,1-1.18c.38-.38.78-.24,1.26-.28ZM31,11.57v5.36a.85.85,0,0,1-1.7,0V11.57h-.64q0,.72,0,1.43,0,2.17,0,4.34h0v8.55a1,1,0,0,1-1,1h0a1,1,0,0,1-1-1V17.32H25.7v8.55a1,1,0,0,1-1,1h0a1,1,0,0,1-1-1V17.32h0q0-2.17,0-4.34,0-.72,0-1.43H23v5.36a.85.85,0,0,1-1.7,0V11.57a.73.73,0,0,1,0-.13c0-.09,0-.18,0-.27a2.34,2.34,0,0,1,1.46-2.43,6,6,0,0,1,.61-.06h5.56a6,6,0,0,1,.61.06A2.34,2.34,0,0,1,31,11.17c0,.09,0,.18,0,.27A.77.77,0,0,1,31,11.57Zm-2.33-6a2.53,2.53,0,1,0-2.53,2.53A2.53,2.53,0,0,0,28.68,5.53Z"/></svg>