<svg xmlns="http://www.w3.org/2000/svg" width="40.5472" height="23.5362" viewBox="0 0 40.5472 23.5362"><title>Asset 455</title><g id="Layer_2" data-name="Layer 2"><g id="Layer_1-2" data-name="Layer 1"><g opacity="0.8"><path d="M18.0726,18.9274l-4.77-2.7024.4855-1.127,5.2411,1.6107a2.1674,2.1674,0,0,1,.3624-.1854,2.1518,2.1518,0,0,1,2.7714,2.8507c-.0187.0435-.0464.0809-.0677.1227H33.3376a13.0036,13.0036,0,0,0-1.41-5.1748l-1.5706.9069-.6588-1.138,1.5706-.9067A13.167,13.167,0,0,0,27.38,9.2954l-.9055,1.5689-1.1378-.654.908-1.5722a13.0186,13.0186,0,0,0-5.3112-1.4214V9.0284H19.6148V7.2167a13.0149,13.0149,0,0,0-5.31,1.4206l.9067,1.5706-1.1378.659L13.167,9.296a13.1622,13.1622,0,0,0-3.8886,3.889l1.5689.9057-.6537,1.1378L8.6209,14.32A13.0172,13.0172,0,0,0,7.21,19.4966h11.07c-.03-.06-.0669-.1154-.092-.1785A2.1722,2.1722,0,0,1,18.0726,18.9274Z" fill="#1a2026"/><path d="M20.9332,7.2166A13.0184,13.0184,0,0,1,26.2445,8.638l-.908,1.5722,1.1378.654L27.38,9.2954a13.1675,13.1675,0,0,1,3.889,3.8886l-1.5706.9067.6589,1.138,1.5706-.9069a13.0037,13.0037,0,0,1,1.41,5.1748H22.0948c.0213-.0419.049-.0792.0677-.1227a2.1517,2.1517,0,0,0-2.7714-2.8507,2.167,2.167,0,0,0-.3624.1855L13.7877,15.098l-.4855,1.127,4.7705,2.7024a2.1665,2.1665,0,0,0,.1145.3907c.0251.0631.0616.1187.092.1785H7.21A13.0181,13.0181,0,0,1,8.6209,14.32l1.5727.908.6537-1.1378L9.2785,13.185A13.1624,13.1624,0,0,1,13.167,9.296l.9067,1.5708,1.1378-.659-.9067-1.5706a13.0151,13.0151,0,0,1,5.31-1.4206V9.0284h1.3185V7.2166m0-2a1.9993,1.9993,0,0,0-.6592.1118,2,2,0,0,0-.6591-.1118q-.05,0-.0992.0025A14.9411,14.9411,0,0,0,13.3914,6.858a2,2,0,0,0-.602.474,2,2,0,0,0-.71.2855,15.2665,15.2665,0,0,0-4.48,4.48,2,2,0,0,0-.285.708,1.9982,1.9982,0,0,0-.4731.6012,14.9491,14.9491,0,0,0-1.6284,5.97,2,2,0,0,0,1.9964,2.12h11.07a2,2,0,0,0,1.9078-1.4,2,2,0,0,0,1.9078,1.4H33.3376a2,2,0,0,0,1.9965-2.1191,14.9362,14.9362,0,0,0-1.6273-5.9691,2,2,0,0,0-.474-.602,2,2,0,0,0-.2856-.71,15.2711,15.2711,0,0,0-4.48-4.48,2,2,0,0,0-.7083-.2851,1.9994,1.9994,0,0,0-.601-.4728,14.9447,14.9447,0,0,0-6.1255-1.64q-.05-.0024-.0991-.0025Zm-.9175,13.2315q.045-.0255.0888-.0535a.1778.1778,0,0,1,.0792-.0238.1559.1559,0,0,1,.1434.0954.1428.1428,0,0,1,.0108.0744l-.0256.0488a2,2,0,0,0-.1254.3069,1.997,1.997,0,0,0-.1253-.3067l-.0228-.0439c-.0069-.0327-.0146-.0653-.0231-.0976Z" fill="#fff"/><path d="M20.1712,20.6742a2.1267,2.1267,0,0,1-.2816-.0289A2.1223,2.1223,0,0,0,20.1712,20.6742Z" fill="#1a2026"/><path d="M19.89,20.6453a2.1285,2.1285,0,0,0,.2817.0289,2.1259,2.1259,0,0,1-.2817-.0289" fill="#fff"/><path d="M20.58,20.638c-.0452.0085-.091.0075-.1364.013C20.49,20.6454,20.5353,20.6465,20.58,20.638Z" fill="#1a2026"/><path d="M20.58,20.638h.005m-.005,0c-.0444.0084-.09.0075-.1343.0128.0447-.0053.09-.0044.1343-.0128m-.1343.0128-.0021,0,.0021,0m.1365-2.0131q-.0931,0-.1874.0088-.0317.0029-.0631.0068c-.04.0029-.0775.0063-.1151.0107l-.01.0012H20.206l-.0021,0-.0071.0009-.0013,0h-.0007a2,2,0,0,0,.249,3.9843q.0949,0,.1912-.0091c.0751-.005.1472-.0121.2183-.0223a2,2,0,0,0-.11-3.9754q-.08-.0065-.1608-.0065Z" fill="#fff"/><path d="M19.7986,16.407c.0457-.0084.0913-.0075.137-.0129C19.89,16.3995,19.8444,16.3986,19.7986,16.407Z" fill="#1a2026"/><path d="M19.9357,16.3941h.005m-.005,0c-.0443.0052-.0883.0046-.1324.0121.0441-.0075.0881-.0069.1324-.0121m-.1324.0121-.0024,0,.0024,0m-.0024,0h0m0,0-.0021,0,.0021,0m.1374-2.0127q-.0585,0-.1176.0034-.04.0022-.0786.006c-.093.0063-.18.0154-.2679.03l-.0192.0033-.0058.001-.0071.0013-.0035.0006a2,2,0,0,0,.6024,3.9526c.0249-.0018.0488-.0037.0723-.0059a2,2,0,0,0-.0653-3.9894q-.0545-.003-.11-.003Z" fill="#fff"/><path d="M19.7476,20.6292a2.1675,2.1675,0,0,1-.4124-.13A2.1662,2.1662,0,0,0,19.7476,20.6292Z" fill="#1a2026"/><path d="M19.3353,20.4988a2.1681,2.1681,0,0,0,.4124.13,2.1659,2.1659,0,0,1-.4124-.13m.0272-1.9916a2.0084,2.0084,0,0,0-1.8474,1.2042,1.9874,1.9874,0,0,0,1.0279,2.6238,4.1785,4.1785,0,0,0,.7926.2511,2,2,0,0,0,.8243-3.9141,2.0094,2.0094,0,0,0-.7974-.1649Z" fill="#fff"/><path d="M21.3907,16.7415c.0158.0106.03.024.0452.0351C21.42,16.7655,21.4065,16.7521,21.3907,16.7415Z" fill="#1a2026"/><path d="M21.3907,16.7415c.0159.0107.03.024.0452.0351-.0156-.0111-.0294-.0245-.0452-.0351m.0018-2a2,2,0,0,0-1.2055,3.5975c.03.0238.0643.05.0888.067A2,2,0,0,0,22.6534,15.19c-.0469-.037-.105-.08-.1475-.1086a1.9906,1.9906,0,0,0-1.1133-.34Z" fill="#fff"/><path d="M21.9371,17.2819c.0225.0317.046.0625.0668.0957C21.983,17.3443,21.96,17.3137,21.9371,17.2819Z" fill="#1a2026"/><path d="M21.9371,17.2819l.0341.0473-.0341-.0473m.0341.0473c.0112.0158.0223.0318.0328.0484-.01-.0166-.0215-.0326-.0328-.0484m-.0357-2.0459A2,2,0,0,0,20.3065,18.44l.0281.0391a2,2,0,0,0,3.3621-2.1667c-.0315-.05-.0642-.0983-.0981-.1456l-.0317-.0432,0,0a2,2,0,0,0-1.6319-.84Z" fill="#fff"/><path d="M21.6811,16.9808c.0285.0275.0551.057.0822.0862C21.7361,17.0377,21.71,17.0084,21.6811,16.9808Z" fill="#1a2026"/><path d="M21.6811,16.9808c.0286.0276.0551.0569.0822.0862-.027-.0292-.0537-.0587-.0822-.0862m0-2a2,2,0,0,0-1.4071,3.4215,2.0474,2.0474,0,0,0,1.4808.6307,1.9888,1.9888,0,0,0,1.4765-3.324c-.0585-.0634-.1082-.1156-.16-.1661a1.9934,1.9934,0,0,0-1.39-.5621Z" fill="#fff"/><path d="M20.2115,16.3729c.029,0,.0574.0049.0862.0064C20.2688,16.3778,20.2406,16.3733,20.2115,16.3729Z" fill="#1a2026"/><path d="M20.2116,16.3729c.0291,0,.0573.0049.0862.0064-.0288-.0016-.0573-.0061-.0862-.0064m0-2a2,2,0,0,0-.108,3.9971c.031.0026.0684.0054.0865.0064.0367.002.0735.003.11.003a2,2,0,0,0,.1454-3.9946c-.0709-.0066-.1389-.0108-.2079-.0117l-.0259,0Z" fill="#fff"/><path d="M20.9683,16.5252c.032.0126.0648.0231.0962.0371C21.0331,16.5482,21,16.5378,20.9683,16.5252Z" fill="#1a2026"/><path d="M20.9683,16.5252l.0483.018-.0483-.018m.0483.018c.0161.0059.0321.0121.0479.0191-.0157-.007-.0317-.0132-.0479-.0191m-.0089-2.0017a2.0113,2.0113,0,0,0-1.8846,1.2814,1.9783,1.9783,0,0,0,1.1147,2.5642l.0651.0246a2,2,0,0,0,1.58-3.6744c-.0239-.0107-.0637-.0273-.1-.0419q-.0291-.0119-.0587-.023h0l-.0062-.0023-.0087-.0033a2.023,2.023,0,0,0-.701-.1252Z" fill="#fff"/><path d="M20.5887,16.4142c.0394.0076.0784.0167.1172.0265C20.6669,16.4309,20.6282,16.4218,20.5887,16.4142Z" fill="#1a2026"/><path d="M20.5886,16.4142c.0366.007.0724.0153.1085.0243-.0359-.0089-.072-.0173-.1085-.0243m.1085.0243.0088.0022-.0088-.0022m-.1107-2.0246a2,2,0,0,0-.3823,3.9631l.0172.0042a2,2,0,0,0,.9744-3.8795l-.0159-.004c-.071-.0176-.1416-.0336-.2137-.0475a2.0105,2.0105,0,0,0-.38-.0363Zm.1107,4.0247h0Z" fill="#fff"/><path d="M22.9851,17.4091a3.012,3.012,0,0,0-3.9119-1.6855q-.0679.0271-.1342.0573L14.04,14.2755l-.7377-.2267-.3053.7088-.4855,1.127-.3053.7088.6715.38L17.337,19.5q.0236.0689.0506.1365a3.0121,3.0121,0,1,0,5.5975-2.227Zm-.8226,1.9647a2.1517,2.1517,0,0,1-3.9754-.0557,2.1722,2.1722,0,0,1-.1145-.3907l-4.77-2.7024.4855-1.127,5.2411,1.6107a2.1674,2.1674,0,0,1,.3624-.1854,2.1518,2.1518,0,0,1,2.7714,2.8507Z" fill="#1a2026"/><path d="M13.3027,14.0487l.7377.2267,4.8986,1.5054q.0663-.03.1342-.0573a3.0123,3.0123,0,1,1-1.6856,3.9125q-.0269-.0676-.0505-.1365l-4.459-2.5259-.6714-.38.3053-.7088.4855-1.127.3053-.7088m6.883,6.6269a2.1524,2.1524,0,1,0-1.1569-3.967L13.7877,15.098l-.4855,1.127,4.7705,2.7024a2.1665,2.1665,0,0,0,.1145.3907,2.1572,2.1572,0,0,0,1.9985,1.3576m-6.8832-8.6273a2.0006,2.0006,0,0,0-1.8367,1.2092l-.3053.7088-.4855,1.1268-.3054.7088a2,2,0,0,0,.851,2.5314l.6714.38,3.89,2.2038a5.0119,5.0119,0,1,0,3.12-7.24l-4.2744-1.3136L13.89,12.137a1.9983,1.9983,0,0,0-.5877-.0886Zm6.7132,6.4q.045-.0255.0888-.0535a.178.178,0,0,1,.0792-.0238.1558.1558,0,0,1,.1434.0954.1517.1517,0,0,1-.0847.1974.1527.1527,0,0,1-.0568.012.1464.1464,0,0,1-.0583-.0133.14.14,0,0,1-.0818-.0835q-.0127-.0658-.03-.1307Z" fill="#fff"/><path d="M20.2736,2A18.2932,18.2932,0,0,0,2,19.4966H5.9571a14.3386,14.3386,0,0,1,28.6329,0h3.9571A18.2932,18.2932,0,0,0,20.2736,2Z" fill="#1a2026" fill-rule="evenodd"/><path d="M20.2736,2A18.2932,18.2932,0,0,1,38.5472,19.4966H34.59a14.3386,14.3386,0,0,0-28.6329,0H2A18.2932,18.2932,0,0,1,20.2736,2m0-2A20.2426,20.2426,0,0,0,.0018,19.4108,2,2,0,0,0,2,21.4966H5.9571a2,2,0,0,0,1.997-1.8905,12.3386,12.3386,0,0,1,24.6389,0,2,2,0,0,0,1.997,1.8905h3.9572a2,2,0,0,0,1.9982-2.0858A20.2426,20.2426,0,0,0,20.2736,0Z" fill="#fff"/></g><path d="M18.0726,18.9274l-4.77-2.7024.4855-1.127,5.2411,1.6107a2.1674,2.1674,0,0,1,.3624-.1854,2.1518,2.1518,0,0,1,2.7714,2.8507c-.0187.0435-.0464.0809-.0677.1227H33.3376a13.0036,13.0036,0,0,0-1.41-5.1748l-1.5706.9069-.6588-1.138,1.5706-.9067A13.167,13.167,0,0,0,27.38,9.2954l-.9055,1.5689-1.1378-.654.908-1.5722a13.0186,13.0186,0,0,0-5.3112-1.4214V9.0284H19.6148V7.2167a13.0149,13.0149,0,0,0-5.31,1.4206l.9067,1.5706-1.1378.659L13.167,9.296a13.1622,13.1622,0,0,0-3.8886,3.889l1.5689.9057-.6537,1.1378L8.6209,14.32A13.0172,13.0172,0,0,0,7.21,19.4966h11.07c-.03-.06-.0669-.1154-.092-.1785A2.1722,2.1722,0,0,1,18.0726,18.9274Z" fill="#5a6066"/><path d="M20.1712,20.6742a2.1267,2.1267,0,0,1-.2816-.0289A2.1223,2.1223,0,0,0,20.1712,20.6742Z" fill="#5a6066"/><path d="M20.58,20.638c-.0452.0085-.091.0075-.1364.013C20.49,20.6454,20.5353,20.6465,20.58,20.638Z" fill="#5a6066"/><path d="M19.7986,16.407c.0457-.0084.0913-.0075.137-.0129C19.89,16.3995,19.8444,16.3986,19.7986,16.407Z" fill="#5a6066"/><path d="M19.7476,20.6292a2.1675,2.1675,0,0,1-.4124-.13A2.1662,2.1662,0,0,0,19.7476,20.6292Z" fill="#5a6066"/><path d="M21.3907,16.7415c.0158.0106.03.024.0452.0351C21.42,16.7655,21.4065,16.7521,21.3907,16.7415Z" fill="#5a6066"/><path d="M21.9371,17.2819c.0225.0317.046.0625.0668.0957C21.983,17.3443,21.96,17.3137,21.9371,17.2819Z" fill="#5a6066"/><path d="M21.6811,16.9808c.0285.0275.0551.057.0822.0862C21.7361,17.0377,21.71,17.0084,21.6811,16.9808Z" fill="#5a6066"/><path d="M20.2115,16.3729c.029,0,.0574.0049.0862.0064C20.2688,16.3778,20.2406,16.3733,20.2115,16.3729Z" fill="#5a6066"/><path d="M20.9683,16.5252c.032.0126.0648.0231.0962.0371C21.0331,16.5482,21,16.5378,20.9683,16.5252Z" fill="#5a6066"/><path d="M20.5887,16.4142c.0394.0076.0784.0167.1172.0265C20.6669,16.4309,20.6282,16.4218,20.5887,16.4142Z" fill="#5a6066"/><path d="M22.9851,17.4091a3.012,3.012,0,0,0-3.9119-1.6855q-.0679.0271-.1342.0573L14.04,14.2755l-.7377-.2267-.3053.7088-.4855,1.127-.3053.7088.6715.38L17.337,19.5q.0236.0689.0506.1365a3.0121,3.0121,0,1,0,5.5975-2.227Zm-.8226,1.9647a2.1517,2.1517,0,0,1-3.9754-.0557,2.1722,2.1722,0,0,1-.1145-.3907l-4.77-2.7024.4855-1.127,5.2411,1.6107a2.1674,2.1674,0,0,1,.3624-.1854,2.1518,2.1518,0,0,1,2.7714,2.8507Z" fill="#5a6066"/><path d="M20.2736,2A18.2932,18.2932,0,0,0,2,19.4966H5.9571a14.3386,14.3386,0,0,1,28.6329,0h3.9571A18.2932,18.2932,0,0,0,20.2736,2Z" fill="#5a6066" fill-rule="evenodd"/></g></g></svg>