<?xml version="1.0" encoding="utf-8"?>
<!-- Generator: Adobe Illustrator 20.1.0, SVG Export Plug-In . SVG Version: 6.00 Build 0)  -->
<svg version="1.1" id="Layer_1" xmlns="http://www.w3.org/2000/svg" xmlns:xlink="http://www.w3.org/1999/xlink" x="0px" y="0px"
	 viewBox="0 0 38 33.2" style="enable-background:new 0 0 38 33.2;" xml:space="preserve">
<style type="text/css">
	.st0{opacity:0.8;}
	.st1{fill:#FFFFFF;}
	.st2{fill:#FFAB24;}
</style>
<title>Asset 3</title>
<g class="st0">
	<path class="st1" d="M19.2,10.1V9.2c0-0.9,0.7-1.6,1.6-1.6l0,0l0,0c0.9,0,1.6,0.7,1.6,1.6l0,0v0.9L19.2,10.1z M7.4,27.5
		c0,1.5,1.2,2.7,2.7,2.7s2.7-1.2,2.7-2.7s-1.2-2.7-2.7-2.7S7.4,26.1,7.4,27.5L7.4,27.5z M25.2,27.5c0,1.5,1.2,2.7,2.7,2.7
		s2.7-1.2,2.7-2.7s-1.2-2.7-2.7-2.7l0,0C26.4,24.9,25.2,26.1,25.2,27.5C25.2,27.5,25.2,27.5,25.2,27.5z M35,26.5
		c0,0.6-0.5,1.1-1.1,1.1h-2.5c-0.1-2-1.8-3.5-3.7-3.4c-1.8,0.1-3.3,1.5-3.4,3.4H13.7c0.1-2-1.4-3.6-3.4-3.7s-3.6,1.4-3.7,3.4
		c0,0.1,0,0.3,0,0.4H4.8c-1,0-1.8-0.8-1.8-1.8V12.4c0-1,0.8-1.8,1.8-1.8h21.2c0.7,0,1.3,0.3,1.8,0.8l6.5,6.5
		c0.5,0.5,0.7,1.2,0.8,1.8V26.5z M17.2,16.9c0-0.2-0.2-0.4-0.4-0.4c0,0,0,0,0,0h-2v-2c0-0.2-0.2-0.4-0.4-0.4h-1.7
		c-0.2,0-0.4,0.2-0.4,0.4v2h-2c-0.2,0-0.4,0.2-0.4,0.4l0,0v1.7c0,0.2,0.2,0.4,0.4,0.4l0,0h2v2c0,0.2,0.2,0.4,0.4,0.4l0,0h1.7
		c0.2,0,0.4-0.2,0.4-0.4l0,0v-2h2c0.2,0,0.4-0.2,0.4-0.4c0,0,0,0,0,0L17.2,16.9z M31.4,19.5l-0.1-1.3c0-0.3-0.2-0.6-0.4-0.8
		l-3.7-3.8c-0.2-0.2-0.5-0.3-0.8-0.3h-1.8c-0.3,0-0.5,0.2-0.5,0.5l0,0v5.7c0,0.3,0.2,0.5,0.5,0.5c0,0,0,0,0,0h6.2
		C31.2,20.1,31.4,19.8,31.4,19.5C31.4,19.5,31.4,19.5,31.4,19.5L31.4,19.5z M24.5,7.5L26,6.6c0.2-0.1,0.2-0.3,0.1-0.5l0,0
		C26,6,25.8,5.9,25.7,6l-1.5,0.9C24,7,23.9,7.2,24,7.4l0,0C24.1,7.5,24.3,7.6,24.5,7.5C24.5,7.5,24.5,7.5,24.5,7.5L24.5,7.5z
		 M23.1,5.9L24,4.3c0.1-0.2,0-0.4-0.1-0.5l0,0c-0.2-0.1-0.4,0-0.5,0.2l-0.9,1.5c-0.1,0.2,0,0.4,0.1,0.5c0,0,0,0,0,0l0,0
		C22.8,6.1,23,6,23.1,5.9z M21.1,5.1V3.4C21.1,3.2,21,3,20.8,3l0,0c-0.2,0-0.4,0.2-0.4,0.4c0,0,0,0,0,0v1.8c0,0.2,0.2,0.4,0.4,0.4
		l0,0l0,0C21,5.5,21.1,5.3,21.1,5.1z M17.5,7.4L17.5,7.4c0.1-0.2,0-0.4-0.1-0.5L15.9,6c-0.2-0.1-0.4,0-0.5,0.1l0,0
		c-0.1,0.2,0,0.4,0.1,0.5l1.5,0.9C17.2,7.6,17.4,7.5,17.5,7.4C17.5,7.4,17.5,7.4,17.5,7.4z M18.9,6L18.9,6c0.2-0.1,0.2-0.3,0.1-0.5
		L18.1,4c-0.1-0.2-0.3-0.2-0.5-0.1l0,0c-0.2,0.1-0.2,0.3-0.1,0.5l0.9,1.5C18.5,6.1,18.7,6.1,18.9,6z"/>
	<path class="st1" d="M20.8,3c0.2,0,0.4,0.2,0.4,0.4c0,0,0,0,0,0v1.8c0,0.2-0.1,0.4-0.3,0.4c-0.2,0-0.4-0.1-0.4-0.3c0,0,0-0.1,0-0.1
		V3.4C20.4,3.2,20.6,3,20.8,3 M23.7,3.8c0.2,0,0.4,0.2,0.4,0.4c0,0.1,0,0.1,0,0.2l-0.9,1.5C23,6,22.8,6.1,22.6,5.9
		c-0.1-0.1-0.2-0.3-0.1-0.4L23.4,4C23.5,3.9,23.6,3.8,23.7,3.8 M17.8,3.8c0.1,0,0.2,0.1,0.3,0.2L19,5.5c0.1,0.2,0,0.4-0.2,0.5
		c-0.2,0.1-0.3,0-0.4-0.1l-0.9-1.5c-0.1-0.2,0-0.4,0.1-0.5C17.7,3.8,17.7,3.8,17.8,3.8 M15.7,5.9c0.1,0,0.1,0,0.2,0l1.5,0.9
		c0.2,0.1,0.3,0.3,0.2,0.5c-0.1,0.2-0.3,0.3-0.5,0.2c0,0,0,0-0.1,0l-1.5-0.8c-0.2-0.1-0.2-0.3-0.1-0.5C15.5,6,15.6,5.9,15.7,5.9
		 M25.9,5.9c0.2,0,0.3,0.2,0.3,0.4c0,0.1-0.1,0.2-0.2,0.3l-1.5,0.9c-0.2,0.1-0.4,0.1-0.5-0.1S23.9,7,24,6.9c0,0,0,0,0.1,0L25.7,6
		C25.7,6,25.8,6,25.9,5.9 M20.8,7.6c0.9,0,1.6,0.7,1.6,1.6l0,0v0.9h-3.2V9.2C19.2,8.3,19.9,7.6,20.8,7.6L20.8,7.6 M25.9,10.6
		c0.7,0,1.3,0.3,1.8,0.8l6.5,6.5c0.5,0.5,0.7,1.2,0.8,1.8v6.8c0,0.6-0.5,1.1-1.1,1.1h-2.5c-0.1-2-1.8-3.5-3.7-3.4
		c-1.8,0.1-3.3,1.5-3.4,3.4H13.7c0.1-2-1.4-3.6-3.4-3.7s-3.6,1.4-3.7,3.4c0,0.1,0,0.3,0,0.4H4.8c-1,0-1.8-0.8-1.8-1.8V12.4
		c0-1,0.8-1.8,1.8-1.8L25.9,10.6 M24.7,20.1h6.2c0.3,0,0.5-0.2,0.5-0.5c0,0,0,0,0,0l-0.1-1.3c0-0.3-0.2-0.6-0.4-0.8l-3.7-3.8
		c-0.2-0.2-0.5-0.3-0.8-0.3h-1.8c-0.3,0-0.5,0.2-0.5,0.5l0,0v5.7C24.2,19.8,24.4,20.1,24.7,20.1C24.7,20.1,24.7,20.1,24.7,20.1
		 M10.5,18.9h2v2c0,0.2,0.2,0.4,0.4,0.4l0,0h1.7c0.2,0,0.4-0.2,0.4-0.4l0,0v-2h2c0.2,0,0.4-0.2,0.4-0.4c0,0,0,0,0,0v-1.6
		c0-0.2-0.2-0.4-0.4-0.4c0,0,0,0,0,0h-2v-2c0-0.2-0.2-0.4-0.4-0.4h-1.7c-0.2,0-0.4,0.2-0.4,0.4v2h-2c-0.2,0-0.4,0.2-0.4,0.4l0,0v1.7
		C10.1,18.8,10.3,19,10.5,18.9L10.5,18.9 M27.9,24.9c1.5,0,2.7,1.2,2.7,2.7s-1.2,2.7-2.7,2.7s-2.7-1.2-2.7-2.7l0,0
		C25.2,26.1,26.4,24.9,27.9,24.9 M10.1,24.9c1.5,0,2.7,1.2,2.7,2.7s-1.2,2.7-2.7,2.7S7.5,29,7.5,27.6l0,0
		C7.5,26.1,8.6,24.9,10.1,24.9 M20.8,0c-0.8,0-1.6,0.3-2.2,0.9c-1.7-0.4-3.3,0.6-3.9,2.2c-0.8,0.3-1.5,0.8-1.9,1.5
		c-0.4,0.8-0.6,1.7-0.3,2.5c0,0.2,0.1,0.3,0.2,0.5H4.8C2.1,7.6,0,9.8,0,12.4c0,0,0,0,0,0v13.3c0,2.6,2.1,4.8,4.8,4.8l0,0h0.5
		c1.7,2.7,5.1,3.5,7.8,1.8c0.7-0.5,1.4-1.1,1.8-1.8h8.2c1.7,2.7,5.1,3.5,7.8,1.8c0.7-0.5,1.4-1.1,1.8-1.8h1.2c2.2,0,4.1-1.8,4.1-4.1
		v-6.8c0-1.5-0.6-2.9-1.6-3.9l-6.5-6.5c-0.4-0.4-0.8-0.7-1.3-1c1.1-1.5,0.8-3.6-0.7-4.7c-0.3-0.2-0.6-0.4-0.9-0.5
		c-0.5-1.6-2.2-2.6-3.9-2.2C22.4,0.3,21.6,0,20.8,0z"/>
</g>
<path class="st2" d="M19.2,10.1V9.2c0-0.9,0.7-1.6,1.6-1.6l0,0l0,0c0.9,0,1.6,0.7,1.6,1.6l0,0v0.9L19.2,10.1z M7.4,27.5
	c0,1.5,1.2,2.7,2.7,2.7s2.7-1.2,2.7-2.7s-1.2-2.7-2.7-2.7S7.4,26.1,7.4,27.5L7.4,27.5z M25.2,27.5c0,1.5,1.2,2.7,2.7,2.7
	s2.7-1.2,2.7-2.7s-1.2-2.7-2.7-2.7l0,0C26.4,24.9,25.2,26.1,25.2,27.5C25.2,27.5,25.2,27.5,25.2,27.5z M35,26.5
	c0,0.6-0.5,1.1-1.1,1.1h-2.5c-0.1-2-1.8-3.5-3.7-3.4c-1.8,0.1-3.3,1.5-3.4,3.4H13.7c0.1-2-1.4-3.6-3.4-3.7s-3.6,1.4-3.7,3.4
	c0,0.1,0,0.3,0,0.4H4.8c-1,0-1.8-0.8-1.8-1.8V12.4c0-1,0.8-1.8,1.8-1.8h21.2c0.7,0,1.3,0.3,1.8,0.8l6.5,6.5c0.5,0.5,0.7,1.2,0.8,1.8
	V26.5z M17.2,16.9c0-0.2-0.2-0.4-0.4-0.4c0,0,0,0,0,0h-2v-2c0-0.2-0.2-0.4-0.4-0.4h-1.7c-0.2,0-0.4,0.2-0.4,0.4v2h-2
	c-0.2,0-0.4,0.2-0.4,0.4l0,0v1.7c0,0.2,0.2,0.4,0.4,0.4l0,0h2v2c0,0.2,0.2,0.4,0.4,0.4l0,0h1.7c0.2,0,0.4-0.2,0.4-0.4l0,0v-2h2
	c0.2,0,0.4-0.2,0.4-0.4c0,0,0,0,0,0L17.2,16.9z M31.4,19.5l-0.1-1.3c0-0.3-0.2-0.6-0.4-0.8l-3.7-3.8c-0.2-0.2-0.5-0.3-0.8-0.3h-1.8
	c-0.3,0-0.5,0.2-0.5,0.5l0,0v5.7c0,0.3,0.2,0.5,0.5,0.5c0,0,0,0,0,0h6.2C31.2,20.1,31.4,19.8,31.4,19.5
	C31.4,19.5,31.4,19.5,31.4,19.5L31.4,19.5z M24.5,7.5L26,6.6c0.2-0.1,0.2-0.3,0.1-0.5l0,0C26,6,25.8,5.9,25.7,6l-1.5,0.9
	C24,7,23.9,7.2,24,7.4l0,0C24.1,7.5,24.3,7.6,24.5,7.5C24.5,7.5,24.5,7.5,24.5,7.5L24.5,7.5z M23.1,5.9L24,4.3
	c0.1-0.2,0-0.4-0.1-0.5l0,0c-0.2-0.1-0.4,0-0.5,0.2l-0.9,1.5c-0.1,0.2,0,0.4,0.1,0.5c0,0,0,0,0,0l0,0C22.8,6.1,23,6,23.1,5.9z
	 M21.1,5.1V3.4C21.1,3.2,21,3,20.8,3l0,0c-0.2,0-0.4,0.2-0.4,0.4c0,0,0,0,0,0v1.8c0,0.2,0.2,0.4,0.4,0.4l0,0l0,0
	C21,5.5,21.1,5.3,21.1,5.1z M17.5,7.4L17.5,7.4c0.1-0.2,0-0.4-0.1-0.5L15.9,6c-0.2-0.1-0.4,0-0.5,0.1l0,0c-0.1,0.2,0,0.4,0.1,0.5
	l1.5,0.9C17.2,7.6,17.4,7.5,17.5,7.4C17.5,7.4,17.5,7.4,17.5,7.4z M18.9,6L18.9,6c0.2-0.1,0.2-0.3,0.1-0.5L18.1,4
	c-0.1-0.2-0.3-0.2-0.5-0.1l0,0c-0.2,0.1-0.2,0.3-0.1,0.5l0.9,1.5C18.5,6.1,18.7,6.1,18.9,6z"/>
</svg>
