<svg xmlns="http://www.w3.org/2000/svg" viewBox="0 0 38 33.2"><defs><style>.a{opacity:0.8;}.b{fill:#fff;}.c{fill:#d0021b;}</style></defs><title>Asset 2</title><g class="a"><path class="b" d="M19.18,10.12V9.22a1.6,1.6,0,0,1,1.6-1.6h0a1.6,1.6,0,0,1,1.6,1.6v.89ZM7.44,27.53a2.67,2.67,0,1,0,2.67-2.67A2.67,2.67,0,0,0,7.44,27.53Zm17.78,0a2.67,2.67,0,1,0,2.67-2.67A2.67,2.67,0,0,0,25.22,27.53ZM35,26.47a1.07,1.07,0,0,1-1.07,1.07H31.44a3.56,3.56,0,0,0-7.11,0H13.67a3.56,3.56,0,1,0-7.11,0H4.78A1.78,1.78,0,0,1,3,25.76V12.42a1.78,1.78,0,0,1,1.78-1.78H25.93a3,3,0,0,1,1.82.75l6.49,6.49A3,3,0,0,1,35,19.71ZM17.22,16.93a.36.36,0,0,0-.36-.36h-2v-2a.36.36,0,0,0-.36-.36H12.84a.36.36,0,0,0-.36.36v2h-2a.36.36,0,0,0-.36.36v1.66a.36.36,0,0,0,.36.36h2v2a.36.36,0,0,0,.36.36H14.5a.36.36,0,0,0,.36-.36v-2h2a.36.36,0,0,0,.36-.36Zm14.21,2.61-.07-1.32a1.42,1.42,0,0,0-.35-.79l-3.69-3.78a1.26,1.26,0,0,0-.79-.33H24.69a.53.53,0,0,0-.53.53v5.69a.53.53,0,0,0,.53.53h6.22A.52.52,0,0,0,31.43,19.53Zm-6.93-12L26,6.6a.36.36,0,0,0,.13-.49h0A.36.36,0,0,0,25.68,6l-1.54.89a.36.36,0,0,0-.13.49h0A.35.35,0,0,0,24.5,7.49ZM23.13,5.86,24,4.32a.36.36,0,0,0-.13-.49h0A.36.36,0,0,0,23.4,4L22.51,5.5a.35.35,0,0,0,.13.49h0A.36.36,0,0,0,23.13,5.86Zm-2-.73V3.36A.36.36,0,0,0,20.78,3h0a.36.36,0,0,0-.36.36V5.13a.36.36,0,0,0,.36.36h0A.36.36,0,0,0,21.13,5.13ZM17.54,7.36h0a.36.36,0,0,0-.13-.49L15.88,6a.36.36,0,0,0-.49.13h0a.36.36,0,0,0,.13.49l1.54.89A.35.35,0,0,0,17.54,7.36ZM18.91,6h0A.36.36,0,0,0,19,5.5L18.15,4a.36.36,0,0,0-.49-.13h0a.36.36,0,0,0-.13.49l.89,1.54A.36.36,0,0,0,18.91,6Z"/><path class="b" d="M20.78,3a.36.36,0,0,1,.36.36V5.13a.36.36,0,1,1-.71,0V3.36A.36.36,0,0,1,20.78,3m2.93.79a.36.36,0,0,1,.31.53l-.89,1.54a.36.36,0,0,1-.62-.36L23.4,4a.36.36,0,0,1,.31-.18m-5.87,0a.36.36,0,0,1,.31.18L19,5.5a.36.36,0,0,1-.62.36l-.89-1.54a.36.36,0,0,1,.31-.53M15.7,5.93a.35.35,0,0,1,.18,0l1.54.89a.36.36,0,1,1-.36.62L15.52,6.6a.36.36,0,0,1,.18-.66m10.16,0A.36.36,0,0,1,26,6.6l-1.54.89a.36.36,0,1,1-.36-.62L25.68,6a.35.35,0,0,1,.18,0M20.78,7.62a1.6,1.6,0,0,1,1.6,1.6v.89h-3.2V9.22a1.6,1.6,0,0,1,1.6-1.6m5.16,3a3,3,0,0,1,1.82.75l6.49,6.49A3,3,0,0,1,35,19.71v6.76a1.07,1.07,0,0,1-1.07,1.07H31.44a3.56,3.56,0,0,0-7.11,0H13.67a3.56,3.56,0,1,0-7.11,0H4.78A1.78,1.78,0,0,1,3,25.76V12.42a1.78,1.78,0,0,1,1.78-1.78H25.93m-1.24,9.42h6.22a.52.52,0,0,0,.52-.53l-.07-1.32a1.42,1.42,0,0,0-.35-.79l-3.69-3.78a1.26,1.26,0,0,0-.79-.33H24.69a.53.53,0,0,0-.53.53v5.69a.53.53,0,0,0,.53.53M10.47,18.94h2v2a.36.36,0,0,0,.36.36H14.5a.36.36,0,0,0,.36-.36v-2h2a.36.36,0,0,0,.36-.36V16.93a.36.36,0,0,0-.36-.36h-2v-2a.36.36,0,0,0-.36-.36H12.84a.36.36,0,0,0-.36.36v2h-2a.36.36,0,0,0-.36.36v1.66a.36.36,0,0,0,.36.36m17.42,5.93a2.67,2.67,0,1,1-2.67,2.67,2.67,2.67,0,0,1,2.67-2.67m-17.78,0a2.67,2.67,0,1,1-2.67,2.67,2.67,2.67,0,0,1,2.67-2.67M20.78,0a3.34,3.34,0,0,0-2.24.86A3.35,3.35,0,0,0,14.66,3.1a3.36,3.36,0,0,0-1.87,1.51,3.33,3.33,0,0,0-.33,2.54,3.4,3.4,0,0,0,.17.49H4.78A4.78,4.78,0,0,0,0,12.42V25.76a4.78,4.78,0,0,0,4.78,4.78h.53a5.66,5.66,0,0,0,9.61,0h8.17a5.66,5.66,0,0,0,9.61,0h1.24A4.07,4.07,0,0,0,38,26.47V19.71a5.94,5.94,0,0,0-1.63-3.94L29.88,9.28a5.41,5.41,0,0,0-1.34-1A3.36,3.36,0,0,0,26.9,3.1,3.35,3.35,0,0,0,23,.86,3.34,3.34,0,0,0,20.78,0Z"/></g><path class="c" d="M19.18,10.12V9.22a1.6,1.6,0,0,1,1.6-1.6h0a1.6,1.6,0,0,1,1.6,1.6v.89ZM7.44,27.53a2.67,2.67,0,1,0,2.67-2.67A2.67,2.67,0,0,0,7.44,27.53Zm17.78,0a2.67,2.67,0,1,0,2.67-2.67A2.67,2.67,0,0,0,25.22,27.53ZM35,26.47a1.07,1.07,0,0,1-1.07,1.07H31.44a3.56,3.56,0,0,0-7.11,0H13.67a3.56,3.56,0,1,0-7.11,0H4.78A1.78,1.78,0,0,1,3,25.76V12.42a1.78,1.78,0,0,1,1.78-1.78H25.93a3,3,0,0,1,1.82.75l6.49,6.49A3,3,0,0,1,35,19.71ZM17.22,16.93a.36.36,0,0,0-.36-.36h-2v-2a.36.36,0,0,0-.36-.36H12.84a.36.36,0,0,0-.36.36v2h-2a.36.36,0,0,0-.36.36v1.66a.36.36,0,0,0,.36.36h2v2a.36.36,0,0,0,.36.36H14.5a.36.36,0,0,0,.36-.36v-2h2a.36.36,0,0,0,.36-.36Zm14.21,2.61-.07-1.32a1.42,1.42,0,0,0-.35-.79l-3.69-3.78a1.26,1.26,0,0,0-.79-.33H24.69a.53.53,0,0,0-.53.53v5.69a.53.53,0,0,0,.53.53h6.22A.52.52,0,0,0,31.43,19.53Zm-6.93-12L26,6.6a.36.36,0,0,0,.13-.49h0A.36.36,0,0,0,25.68,6l-1.54.89a.36.36,0,0,0-.13.49h0A.35.35,0,0,0,24.5,7.49ZM23.13,5.86,24,4.32a.36.36,0,0,0-.13-.49h0A.36.36,0,0,0,23.4,4L22.51,5.5a.35.35,0,0,0,.13.49h0A.36.36,0,0,0,23.13,5.86Zm-2-.73V3.36A.36.36,0,0,0,20.78,3h0a.36.36,0,0,0-.36.36V5.13a.36.36,0,0,0,.36.36h0A.36.36,0,0,0,21.13,5.13ZM17.54,7.36h0a.36.36,0,0,0-.13-.49L15.88,6a.36.36,0,0,0-.49.13h0a.36.36,0,0,0,.13.49l1.54.89A.35.35,0,0,0,17.54,7.36ZM18.91,6h0A.36.36,0,0,0,19,5.5L18.15,4a.36.36,0,0,0-.49-.13h0a.36.36,0,0,0-.13.49l.89,1.54A.36.36,0,0,0,18.91,6Z"/></svg>