<svg xmlns="http://www.w3.org/2000/svg" width="37.0031" height="36.6219" viewBox="0 0 37.0031 36.6219"><title>migration-lt_gray</title><g id="Layer_2" data-name="Layer 2"><g id="Layer_1-2" data-name="Layer 1"><g opacity="0.8"><path d="M22.5488,18.4341A2.7442,2.7442,0,0,1,20.4942,17.4a2.1377,2.1377,0,0,1,.1611-2.8877.9994.9994,0,0,1,.7178-.3037h.001a1.0008,1.0008,0,0,1,.4277.0967,1.0484,1.0484,0,0,1,.6621-.2422.953.953,0,0,1,.1289.0088,1.0982,1.0982,0,0,1,.4551.1729c.0225-.001.0449-.002.0674-.002a1.018,1.018,0,0,1,1.0156.9355.9676.9676,0,0,1,.3125.69.9522.9522,0,0,1-.1953.6045.7316.7316,0,0,0,.0254.0723.9988.9988,0,0,1-.0918,1.0938A2.0356,2.0356,0,0,1,22.5488,18.4341Z" fill="#ffab24"/><path d="M22.4737,15.0505c.0745.1743.2913.21.4561.21a1.2057,1.2057,0,0,0,.2039-.0171.8316.8316,0,0,0,.2961.6506c-.4255.4073-.0354,1.1283-.0354,1.1283a1.0442,1.0442,0,0,1-.8447.412,1.766,1.766,0,0,1-1.2927-.6814,1.17,1.17,0,0,1,.1162-1.5448.6048.6048,0,0,0,.4419.21,1.0036,1.0036,0,0,0,.6587-.3674m0-2a1.9993,1.9993,0,0,0-.8223.177,2.01,2.01,0,0,0-.2756-.0194h-.0024a2,2,0,0,0-1.4358.6077,3.1116,3.1116,0,0,0-.2061,4.23A3.7386,3.7386,0,0,0,22.55,19.4343a3.055,3.055,0,0,0,2.4192-1.1786,2,2,0,0,0,.3611-1.7375,2.0006,2.0006,0,0,0-.2341-1.7308,1.8633,1.8633,0,0,0-.5974-1.0627,1.9535,1.9535,0,0,0-1.209-.5,2.0031,2.0031,0,0,0-.8159-.1738Z" fill="#fff"/><path d="M21.7949,16.3267a1.324,1.324,0,0,1-.8838-.3193,1.2353,1.2353,0,0,1-.4287-1.041,1.5391,1.5391,0,0,1,.3477-.8271,1.8815,1.8815,0,0,1,.5117-.4541,1.4409,1.4409,0,0,1,.77-.2441,1.1922,1.1922,0,0,1,.65.1924,1.4632,1.4632,0,0,1,.6348,1.2979A1.58,1.58,0,0,1,21.7949,16.3267Z" fill="#ffab24"/><path d="M22.1121,14.44a.1827.1827,0,0,1,.103.03.47.47,0,0,1,.1826.4159c-.01.2346-.3381.44-.6028.44a.3433.3433,0,0,1-.2292-.0748.2343.2343,0,0,1-.0864-.2036.5933.5933,0,0,1,.1377-.293.9177.9177,0,0,1,.2466-.2166.52.52,0,0,1,.2485-.098m0-2h0a2.4351,2.4351,0,0,0-1.29.3911,2.8886,2.8886,0,0,0-.7822.6945,2.5217,2.5217,0,0,0-.5542,1.3687,2.2291,2.2291,0,0,0,.77,1.8682,2.3444,2.3444,0,0,0,1.54.5637,2.5706,2.5706,0,0,0,2.6008-2.3524,2.4705,2.4705,0,0,0-1.0859-2.177,2.1849,2.1849,0,0,0-1.1978-.3567Z" fill="#fff"/><path d="M22.8555,16.1714a1.4211,1.4211,0,0,1-1.2578-.8232,1.5354,1.5354,0,0,1-.1826-.7451,1.2756,1.2756,0,0,1,.6621-1.13,1.4135,1.4135,0,0,1,.6768-.1592,1.6534,1.6534,0,0,1,1.6152,1.0166,1.2409,1.2409,0,0,1-.4,1.3066A1.5517,1.5517,0,0,1,22.8555,16.1714Z" fill="#ffab24"/><path d="M22.7544,14.314c.2556,0,.6013.1251.66.3132a.2631.2631,0,0,1-.0762.2351c-.0825.0684-.2668.3092-.4824.3092-.1226,0-.2554-.078-.385-.3105a.5454.5454,0,0,1-.0562-.2452.2759.2759,0,0,1,.1348-.2616.4452.4452,0,0,1,.2048-.04m0-2a2.4029,2.4029,0,0,0-1.1536.28,2.2641,2.2641,0,0,0-1.1858,1.99,2.5346,2.5346,0,0,0,.3079,1.2489,2.4152,2.4152,0,0,0,2.1331,1.339,2.5753,2.5753,0,0,0,1.8313-.8325,2.2448,2.2448,0,0,0,.637-2.3064,2.6573,2.6573,0,0,0-2.57-1.7186Z" fill="#fff"/><path d="M23.7022,16.7817a1.4133,1.4133,0,0,1-1.3584-.917,1.5484,1.5484,0,0,1,.6484-1.8809,1.2484,1.2484,0,0,1,.51-.15h.0088a1.6176,1.6176,0,0,1,1.4951,1.041,1.4152,1.4152,0,0,1,.0166,1.1719,1.2469,1.2469,0,0,1-.8018.6572A1.8153,1.8153,0,0,1,23.7022,16.7817Z" fill="#ffab24"/><path d="M23.6008,14.83c.2126,0,.4045.24.478.4209.1648.4081-.0388.4623-.1587.4991a.7785.7785,0,0,1-.2183.0321.4182.4182,0,0,1-.4241-.2716.5633.5633,0,0,1,.1853-.645.2952.2952,0,0,1,.116-.0347l.0217-.0009m0-2c-.0518,0-.125.0028-.1765.0068a2.2876,2.2876,0,0,0-.9.2626A2.5452,2.5452,0,0,0,21.408,16.22a2.4262,2.4262,0,0,0,2.2939,1.5619,2.7743,2.7743,0,0,0,.8062-.12,2.23,2.23,0,0,0,1.416-1.1835,2.3854,2.3854,0,0,0,.0093-1.9762,2.56,2.56,0,0,0-2.3325-1.672Z" fill="#fff"/><path d="M23.5762,17.8843a1.2439,1.2439,0,0,1-.6416-.2021,1.59,1.59,0,0,1-.5547-1.6914,1.4333,1.4333,0,0,1,1.248-1.1074c.0342-.0029.0674-.0049.1016-.0049s.0664.002.0986.0049a1.41,1.41,0,0,1,1.001.5771A1.3223,1.3223,0,0,1,25,16.5737,1.6113,1.6113,0,0,1,23.5762,17.8843Z" fill="#ffab24"/><path d="M23.73,15.8782a.3321.3321,0,0,1,.3059.4324c-.0908.3347-.3081.5734-.4587.5734a.12.12,0,0,1-.07-.0214c-.2878-.2008-.2483-.9358.2229-.9844m0-2a2.02,2.02,0,0,0-.2051.01,2.4414,2.4414,0,0,0-2.1128,1.8529,2.571,2.571,0,0,0,.9507,2.7612,2.111,2.111,0,0,0,1.2144.3811,2.5758,2.5758,0,0,0,2.3889-2.05,2.3352,2.3352,0,0,0-.3145-1.9427,2.4,2.4,0,0,0-1.7246-1.0033c-.0654-.0065-.1313-.01-.197-.01Z" fill="#fff"/><path d="M22.6826,12.88a2.7445,2.7445,0,0,1-2.0557-1.0342,2.1377,2.1377,0,0,1,.1611-2.8877.9994.9994,0,0,1,.7178-.3037h.001a1.0084,1.0084,0,0,1,.4287.0967,1.05,1.05,0,0,1,.6611-.2412.95.95,0,0,1,.1279.0088,1.0769,1.0769,0,0,1,.4551.1729c.0225-.002.0459-.0029.0684-.0029a1.018,1.018,0,0,1,1.0156.9355.9654.9654,0,0,1,.3125.6895.9549.9549,0,0,1-.1953.6055.5705.5705,0,0,0,.0332.0879,1.0289,1.0289,0,0,1-.1,1.0791A2.0356,2.0356,0,0,1,22.6826,12.88Z" fill="#ffab24"/><path d="M22.6067,9.4971c.0745.1743.2913.21.4561.21a1.2057,1.2057,0,0,0,.2039-.0171.8316.8316,0,0,0,.2961.6506c-.4255.4073-.0354,1.1282-.0354,1.1282a1.0443,1.0443,0,0,1-.8447.4121,1.766,1.766,0,0,1-1.2927-.6814,1.17,1.17,0,0,1,.1162-1.5448.6048.6048,0,0,0,.4419.21,1.0036,1.0036,0,0,0,.6587-.3674m0-2a1.9993,1.9993,0,0,0-.8223.177,2.01,2.01,0,0,0-.2756-.0194h-.0024a2,2,0,0,0-1.4358.6077,3.1116,3.1116,0,0,0-.2061,4.23,3.7382,3.7382,0,0,0,2.8184,1.3882,3.0545,3.0545,0,0,0,2.4192-1.1788,2,2,0,0,0,.3611-1.7373,2.0006,2.0006,0,0,0-.2341-1.7308,1.8633,1.8633,0,0,0-.5974-1.0627,1.9535,1.9535,0,0,0-1.209-.5,2.0031,2.0031,0,0,0-.8159-.1738Z" fill="#fff"/><path d="M21.9278,10.7729a1.3317,1.3317,0,0,1-.8857-.32,1.2383,1.2383,0,0,1-.4268-1.0391,1.5314,1.5314,0,0,1,.3477-.8281,1.8632,1.8632,0,0,1,.5166-.4561,1.4439,1.4439,0,0,1,.7656-.2422,1.1922,1.1922,0,0,1,.65.1924,1.4708,1.4708,0,0,1,.6338,1.2988A1.5781,1.5781,0,0,1,21.9278,10.7729Z" fill="#ffab24"/><path d="M22.2451,8.8868a.1827.1827,0,0,1,.103.03.47.47,0,0,1,.1826.416c-.01.2345-.3381.44-.6028.44a.3433.3433,0,0,1-.2292-.0748.2343.2343,0,0,1-.0864-.2036.5933.5933,0,0,1,.1377-.293.9177.9177,0,0,1,.2466-.2166.52.52,0,0,1,.2485-.098m0-2h0a2.4351,2.4351,0,0,0-1.29.3911,2.89,2.89,0,0,0-.7822.6945,2.5217,2.5217,0,0,0-.5542,1.3687,2.229,2.229,0,0,0,.77,1.868,2.3439,2.3439,0,0,0,1.54.5638,2.5706,2.5706,0,0,0,2.6008-2.3522,2.4712,2.4712,0,0,0-1.0859-2.1772,2.1849,2.1849,0,0,0-1.1978-.3567Z" fill="#fff"/><path d="M22.9893,10.6177a1.4191,1.4191,0,0,1-1.2578-.8232,1.52,1.52,0,0,1-.1836-.7451,1.2793,1.2793,0,0,1,.6533-1.126,1.43,1.43,0,0,1,.6855-.1631A1.6577,1.6577,0,0,1,24.502,8.7729a1.2571,1.2571,0,0,1-.3848,1.3A1.5856,1.5856,0,0,1,22.9893,10.6177Z" fill="#ffab24"/><path d="M22.8875,8.76c.2556,0,.6013.1251.66.3132a.2631.2631,0,0,1-.0762.2351c-.0825.0684-.2668.3092-.4822.3092-.1228,0-.2554-.078-.385-.3105a.5424.5424,0,0,1-.0564-.2452.2759.2759,0,0,1,.1348-.2616.4452.4452,0,0,1,.2048-.04m0-2a2.4029,2.4029,0,0,0-1.1536.28,2.2641,2.2641,0,0,0-1.1858,1.99,2.5315,2.5315,0,0,0,.3108,1.2538,2.4113,2.4113,0,0,0,2.13,1.3341,2.5758,2.5758,0,0,0,1.8313-.8325,2.2452,2.2452,0,0,0,.6367-2.3064,2.6573,2.6573,0,0,0-2.57-1.7186Z" fill="#fff"/><path d="M23.835,11.228a1.4133,1.4133,0,0,1-1.3584-.917A1.5523,1.5523,0,0,1,23.125,8.43a1.2962,1.2962,0,0,1,.51-.15h.0088a1.6187,1.6187,0,0,1,1.4951,1.041,1.4125,1.4125,0,0,1,.0146,1.1758,1.2441,1.2441,0,0,1-.8076.6553A1.7854,1.7854,0,0,1,23.835,11.228Z" fill="#ffab24"/><path d="M23.7339,9.2762c.2126,0,.4045.24.478.4209.1648.4081-.0388.4623-.1587.4991a.7785.7785,0,0,1-.2183.0321.4182.4182,0,0,1-.4241-.2716.5633.5633,0,0,1,.1853-.645.2952.2952,0,0,1,.116-.0347l.0217-.0009m0-2c-.0518,0-.125.0028-.1765.0068a2.2876,2.2876,0,0,0-.9.2626,2.5452,2.5452,0,0,0-1.1167,3.1208,2.4262,2.4262,0,0,0,2.2939,1.5619,2.7743,2.7743,0,0,0,.8062-.12,2.23,2.23,0,0,0,1.416-1.1835,2.3854,2.3854,0,0,0,.0093-1.9762,2.56,2.56,0,0,0-2.3325-1.672Z" fill="#fff"/><path d="M23.71,12.3306a1.2567,1.2567,0,0,1-.6406-.2,1.59,1.59,0,0,1-.5566-1.6914A1.4344,1.4344,0,0,1,23.7608,9.33c.0342-.0029.0684-.0049.1025-.0049s.0664.002.1.0049a1.4069,1.4069,0,0,1,.998.5762,1.3181,1.3181,0,0,1,.1738,1.1113A1.615,1.615,0,0,1,23.71,12.3306Z" fill="#ffab24"/><path d="M23.8628,10.3247a.3321.3321,0,0,1,.3059.4324c-.0908.3347-.3081.5734-.4587.5734a.12.12,0,0,1-.07-.0214c-.2878-.2008-.2483-.9358.2229-.9844m0-2a2.02,2.02,0,0,0-.2051.01,2.4411,2.4411,0,0,0-2.1128,1.853,2.5709,2.5709,0,0,0,.9507,2.7611A2.111,2.111,0,0,0,23.71,13.33a2.5758,2.5758,0,0,0,2.3889-2.05,2.3345,2.3345,0,0,0-.3142-1.9424A2.4,2.4,0,0,0,24.06,8.3345q-.0985-.01-.1975-.01Z" fill="#fff"/><path d="M27.6514,14.6206a2.7422,2.7422,0,0,1-2.0547-1.0352,2.1377,2.1377,0,0,1,.1611-2.8877.9994.9994,0,0,1,.7178-.3037h.001a1.0051,1.0051,0,0,1,.4287.0967,1.0493,1.0493,0,0,1,.6611-.24.8172.8172,0,0,1,.1289.0088,1.0666,1.0666,0,0,1,.4541.1719q.0337-.0029.0674-.0029a1.0157,1.0157,0,0,1,.6865.2646,1.0273,1.0273,0,0,1,.33.6709.9632.9632,0,0,1,.3125.6885.95.95,0,0,1-.1963.6074.5835.5835,0,0,0,.0342.0859,1.0266,1.0266,0,0,1-.1006,1.08A2.0337,2.0337,0,0,1,27.6514,14.6206Z" fill="#ffab24"/><path d="M27.5762,11.2366c.0745.1742.291.21.4558.21a1.2011,1.2011,0,0,0,.2039-.0172.8324.8324,0,0,0,.2964.6508c-.4255.4072-.0354,1.1282-.0354,1.1282a1.045,1.045,0,0,1-.845.412,1.765,1.765,0,0,1-1.2925-.6813,1.17,1.17,0,0,1,.1162-1.5449.6048.6048,0,0,0,.4421.21,1.0036,1.0036,0,0,0,.6584-.3673m0-2a2,2,0,0,0-.8223.1769,2.01,2.01,0,0,0-.2756-.0194h-.0024a2,2,0,0,0-1.4358.6078,3.1116,3.1116,0,0,0-.2061,4.23A3.7376,3.7376,0,0,0,27.6519,15.62a3.0557,3.0557,0,0,0,2.4192-1.1782,2,2,0,0,0,.3613-1.7378,2,2,0,0,0-.2346-1.7314A1.8608,1.8608,0,0,0,29.6,9.91a1.954,1.954,0,0,0-1.2083-.5,2.0016,2.0016,0,0,0-.8157-.1737Z" fill="#fff"/><path d="M26.8975,12.5122a1.3317,1.3317,0,0,1-.8857-.32,1.2383,1.2383,0,0,1-.4268-1.0391,1.5389,1.5389,0,0,1,.3477-.8281,1.9161,1.9161,0,0,1,.5117-.4541,1.4538,1.4538,0,0,1,.77-.2441,1.19,1.19,0,0,1,.65.1924,1.4693,1.4693,0,0,1,.6348,1.2988A1.5793,1.5793,0,0,1,26.8975,12.5122Z" fill="#ffab24"/><path d="M27.2144,10.6262a.1846.1846,0,0,1,.1033.0305.4693.4693,0,0,1,.1824.4159c-.01.2345-.3379.44-.6025.44a.3434.3434,0,0,1-.2292-.075.2336.2336,0,0,1-.0864-.2036.5929.5929,0,0,1,.1377-.2928.9145.9145,0,0,1,.2466-.2167.52.52,0,0,1,.2483-.098m0-2a2.4342,2.4342,0,0,0-1.29.391,2.89,2.89,0,0,0-.7832.6957,2.5211,2.5211,0,0,0-.5532,1.3674,2.225,2.225,0,0,0,.77,1.8682,2.3431,2.3431,0,0,0,1.54.5638,2.57,2.57,0,0,0,2.6006-2.3539,2.467,2.467,0,0,0-1.0867-2.1761,2.1839,2.1839,0,0,0-1.197-.3561Z" fill="#fff"/><path d="M27.958,12.3579A1.4211,1.4211,0,0,1,26.7,11.5347a1.5255,1.5255,0,0,1-.1826-.76A1.2685,1.2685,0,0,1,27.18,9.66a1.4107,1.4107,0,0,1,.6787-.16,1.6525,1.6525,0,0,1,1.6133,1.0166,1.258,1.258,0,0,1-.4,1.3076A1.5517,1.5517,0,0,1,27.958,12.3579Z" fill="#ffab24"/><path d="M27.857,10.5c.2556,0,.6013.1251.66.3134a.2622.2622,0,0,1-.0762.235c-.0823.0684-.2666.3092-.4822.3092-.1226,0-.2554-.078-.385-.3105a.5449.5449,0,0,1-.0562-.2451.2751.2751,0,0,1,.1348-.2617.4452.4452,0,0,1,.2048-.04m0-2a2.4025,2.4025,0,0,0-1.1543.28,2.2613,2.2613,0,0,0-1.1851,1.9934,2.53,2.53,0,0,0,.3086,1.2466,2.4143,2.4143,0,0,0,2.1323,1.3376,2.5731,2.5731,0,0,0,1.83-.8308,2.2409,2.2409,0,0,0,.6362-2.3148A2.6542,2.6542,0,0,0,27.857,8.5Z" fill="#fff"/><path d="M28.8047,12.9683a1.4178,1.4178,0,0,1-1.3594-.916,1.5534,1.5534,0,0,1,.6494-1.8828,1.3214,1.3214,0,0,1,.4844-.1484c.0342-.0029.09-.0059.123-.0059a1.6013,1.6013,0,0,1,1.4063,1.0459,1.4149,1.4149,0,0,1,.0156,1.1719,1.2475,1.2475,0,0,1-.8008.6572A1.82,1.82,0,0,1,28.8047,12.9683Z" fill="#ffab24"/><path d="M28.7031,11.0156c.2126,0,.4048.24.478.4209.165.4081-.0388.4623-.1587.4991a.7757.7757,0,0,1-.218.0322.4184.4184,0,0,1-.4241-.2717.5624.5624,0,0,1,.1853-.6449.2923.2923,0,0,1,.116-.0348l.0215-.0009m0-2c-.0518,0-.125.0028-.1765.0068a2.2836,2.2836,0,0,0-.9087.2676,2.5414,2.5414,0,0,0-1.1069,3.1178,2.4257,2.4257,0,0,0,2.2932,1.56,2.7729,2.7729,0,0,0,.8091-.1216,2.227,2.227,0,0,0,1.4131-1.183,2.3849,2.3849,0,0,0,.0088-1.9766,2.5589,2.5589,0,0,0-2.332-1.6711Z" fill="#fff"/><path d="M28.68,14.07a1.2445,1.2445,0,0,1-.6426-.2021,1.5867,1.5867,0,0,1-.5547-1.6875,1.4331,1.4331,0,0,1,1.2461-1.1113c.0342-.0029.0693-.0049.1035-.0049s.0664.002.0986.0049a1.41,1.41,0,0,1,1.001.5771,1.3217,1.3217,0,0,1,.1709,1.1133A1.6093,1.6093,0,0,1,28.68,14.07Z" fill="#ffab24"/><path d="M28.8323,12.0641a.332.332,0,0,1,.3057.4324c-.0906.3347-.3079.5735-.4585.5735a.12.12,0,0,1-.07-.0214c-.2881-.2009-.2485-.9359.2229-.9845m0-2a2.02,2.02,0,0,0-.2051.01,2.4417,2.4417,0,0,0-2.113,1.8531,2.5716,2.5716,0,0,0,.9512,2.7614,2.1126,2.1126,0,0,0,1.2141.3809,2.5757,2.5757,0,0,0,2.3892-2.0511,2.3346,2.3346,0,0,0-.3147-1.9413A2.4,2.4,0,0,0,29.03,10.0739c-.0657-.0065-.1318-.01-.1978-.01Z" fill="#fff"/><path d="M6.7129,26.0054a2.8868,2.8868,0,0,1-1.7715-.6572,2.138,2.138,0,0,1-.4053-2.8633.997.997,0,0,1,.6455-.4395,1.0075,1.0075,0,0,1,.1943-.0186,1.0336,1.0336,0,0,1,.2451.03,1.0392,1.0392,0,0,1,.7285-.3818c.0225-.001.0449-.002.0664-.002a1.0685,1.0685,0,0,1,.4219.0859.9947.9947,0,0,1,1.2383.7021.9657.9657,0,0,1,.3662,1.2471c.0186.0332.0371.0635.04.0664a1.0027,1.0027,0,0,1,.1221,1.0889A2.0721,2.0721,0,0,1,6.7129,26.0054Z" fill="#ffab24"/><path d="M6.4251,22.6578a.3587.3587,0,0,0,.3132.1357,1.1365,1.1365,0,0,0,.3716-.0752.8318.8318,0,0,0,.4172.58c-.3379.4823.1851,1.1134.1851,1.1134a1.0714,1.0714,0,0,1-1,.5929,1.89,1.89,0,0,1-1.1494-.44,1.17,1.17,0,0,1-.187-1.538.6484.6484,0,0,0,.3718.13c.417,0,.677-.4988.677-.4988m0-2q-.06,0-.12.0035a2,2,0,0,0-1.042.3685,2.0006,2.0006,0,0,0-1.5667.911A3.1122,3.1122,0,0,0,4.3186,26.13a3.8888,3.8888,0,0,0,2.394.8748,3.0557,3.0557,0,0,0,2.7842-1.69,2,2,0,0,0,.0156-1.7744A2.0006,2.0006,0,0,0,8.9163,21.86,2,2,0,0,0,7.11,20.7184q-.0846,0-.1689.0071a1.9987,1.9987,0,0,0-.5156-.0676Z" fill="#fff"/><path d="M5.7256,24.0688a1.3049,1.3049,0,0,1-.6465-.168,1.2353,1.2353,0,0,1-.6221-.93,1.5385,1.5385,0,0,1,.18-.8916,1.9088,1.9088,0,0,1,.41-.5391,1.3726,1.3726,0,0,1,.9434-.415,1.4243,1.4243,0,0,1,.4375.084,1.4687,1.4687,0,0,1,.8789,1.1494,1.3767,1.3767,0,0,1-.3428,1.1143A1.6856,1.6856,0,0,1,5.7256,24.0688Z" fill="#ffab24"/><path d="M5.9893,22.1259a.1835.1835,0,0,1,.0691.0135.4688.4688,0,0,1,.26.3724c.04.2583-.3135.5576-.592.5576a.3052.3052,0,0,1-.1528-.0377.2339.2339,0,0,1-.1243-.1829.5947.5947,0,0,1,.0779-.3142.9172.9172,0,0,1,.2-.26.4375.4375,0,0,1,.2625-.1483m0-2a2.3538,2.3538,0,0,0-1.6157.6757,2.8946,2.8946,0,0,0-.6335.8351,2.5238,2.5238,0,0,0-.2766,1.4492,2.2252,2.2252,0,0,0,1.1177,1.6823,2.3107,2.3107,0,0,0,1.1453.3014,2.6763,2.6763,0,0,0,1.9963-.9445,2.3949,2.3949,0,0,0,.5723-1.9189,2.4658,2.4658,0,0,0-1.49-1.9219,2.1748,2.1748,0,0,0-.8162-.1583Z" fill="#fff"/><path d="M6.7686,23.7075a1.4866,1.4866,0,0,1-1.1445-.5869,1.5312,1.5312,0,0,1-.3252-.6973,1.2813,1.2813,0,0,1,.4248-1.2324,1.6064,1.6064,0,0,1,1.0225-.3281,1.5312,1.5312,0,0,1,1.3965.7168,1.2509,1.2509,0,0,1-.1357,1.3623A1.5025,1.5025,0,0,1,6.7686,23.7075Z" fill="#ffab24"/><path d="M6.7459,21.863a.6128.6128,0,0,1,.52.1963.2633.2633,0,0,1-.0291.2454c-.073.09-.2246.4026-.468.4026a.532.532,0,0,1-.3828-.235.5463.5463,0,0,1-.103-.2295.2757.2757,0,0,1,.0813-.283.6444.6444,0,0,1,.3821-.0968m0-2a2.5833,2.5833,0,0,0-1.6558.5548,2.2628,2.2628,0,0,0-.7751,2.1833A2.5425,2.5425,0,0,0,4.8638,23.77a2.48,2.48,0,0,0,1.9045.937,2.4424,2.4424,0,0,0,2.0779-1.2155,2.2436,2.2436,0,0,0,.1772-2.3861A2.5133,2.5133,0,0,0,6.7459,19.863Z" fill="#fff"/><path d="M7.6563,24.1479a1.3908,1.3908,0,0,1-1.2-.666,1.5486,1.5486,0,0,1,.27-1.9717,1.2524,1.2524,0,0,1,.4873-.25,1.6646,1.6646,0,0,1,.333-.0439,1.6513,1.6513,0,0,1,1.3291.7783,1.4126,1.4126,0,0,1,.2432,1.1445,1.2437,1.2437,0,0,1-.6582.8A1.71,1.71,0,0,1,7.6563,24.1479Z" fill="#ffab24"/><path d="M7.5454,22.2159a.6922.6922,0,0,1,.4929.3253c.2412.368.052.4609-.0583.5205a.7329.7329,0,0,1-.324.0859.3953.3953,0,0,1-.3525-.1958.5627.5627,0,0,1,.0559-.6687.2867.2867,0,0,1,.186-.0673m0-2a2.2874,2.2874,0,0,0-1.4543.5209,2.5434,2.5434,0,0,0-.4822,3.2775A2.4029,2.4029,0,0,0,7.656,25.1477a2.7444,2.7444,0,0,0,1.2725-.3251,2.2321,2.2321,0,0,0,1.1592-1.438,2.3865,2.3865,0,0,0-.3765-1.94,2.6638,2.6638,0,0,0-2.1658-1.229Z" fill="#fff"/><path d="M7.8389,25.2437a1.26,1.26,0,0,1-.4512-.0947,1.5889,1.5889,0,0,1-.8711-1.5479,1.4333,1.4333,0,0,1,1.0068-1.332.976.976,0,0,1,.1982-.0391c.0322-.0029.0947-.0059.127-.0059a1.36,1.36,0,0,1,1.01.4209A1.3359,1.3359,0,0,1,9.2,23.66,1.5183,1.5183,0,0,1,7.8389,25.2437Z" fill="#ffab24"/><path d="M7.8484,23.2236a.3208.3208,0,0,1,.354.3657c-.0249.366-.21.6543-.3635.6543a.1165.1165,0,0,1-.0474-.01c-.3215-.1409-.426-.87.0269-1.009,0,0,.0112-.0011.03-.0011m0-2c-.0647,0-.1594.0043-.2239.01a1.9981,1.9981,0,0,0-.395.0792,2.4418,2.4418,0,0,0-1.7114,2.2292A2.5716,2.5716,0,0,0,6.989,26.0657a2.24,2.24,0,0,0,.85.178,2.5167,2.5167,0,0,0,2.3589-2.5183,2.32,2.32,0,0,0-.6094-1.764,2.3808,2.3808,0,0,0-1.74-.7377Z" fill="#fff"/><path d="M3.5449,30.5435a2.9353,2.9353,0,0,1-1.6777-.5674,2.1406,2.1406,0,0,1-.5518-2.84,1.0048,1.0048,0,0,1,.623-.4707.9835.9835,0,0,1,.2441-.03.9937.9937,0,0,1,.1943.02,1.0356,1.0356,0,0,1,.71-.42c.04-.0039.08-.0068.1211-.0068a1.0694,1.0694,0,0,1,.377.0684.9764.9764,0,0,1,.7979.0615A.9729.9729,0,0,1,4.85,26.93a.9585.9585,0,0,1,.4707.5918.94.94,0,0,1-.041.6348.6111.6111,0,0,0,.0537.0762,1.0276,1.0276,0,0,1,.168,1.07A2.0717,2.0717,0,0,1,3.5449,30.5435Z" fill="#ffab24"/><path d="M3.2107,27.2124a.3419.3419,0,0,0,.2861.12,1.1008,1.1008,0,0,0,.4009-.0952.8316.8316,0,0,0,.4465.5581c-.3125.4991.2427,1.1024.2427,1.1024a1.0832,1.0832,0,0,1-1.041.6456,1.9242,1.9242,0,0,1-1.0974-.3824,1.17,1.17,0,0,1-.2661-1.5261.6622.6622,0,0,0,.3508.1111c.4336,0,.6775-.5338.6775-.5338m0-2a2.0006,2.0006,0,0,0-1.2449.4344,2.0008,2.0008,0,0,0-1.5171.99,3.1115,3.1115,0,0,0,.8376,4.1517,3.9408,3.9408,0,0,0,2.2593.7546,3.0853,3.0853,0,0,0,2.87-1.8358,2,2,0,0,0-.0762-1.7737,2,2,0,0,0-.6819-1.647A2.0008,2.0008,0,0,0,3.6262,25.256a1.9968,1.9968,0,0,0-.4153-.0436Z" fill="#fff"/><path d="M2.5147,28.66a1.2886,1.2886,0,0,1-.5869-.1387,1.2255,1.2255,0,0,1-.666-.8926,1.5487,1.5487,0,0,1,.13-.8926,1.8907,1.8907,0,0,1,.3857-.5684,1.37,1.37,0,0,1,.98-.4639,1.3929,1.3929,0,0,1,.38.0625,1.4685,1.4685,0,0,1,.9375,1.1006,1.4008,1.4008,0,0,1-.3125,1.168A1.6646,1.6646,0,0,1,2.5147,28.66Z" fill="#ffab24"/><path d="M2.7576,26.7035a.1852.1852,0,0,1,.06.01.4694.4694,0,0,1,.2788.3585c.0544.2618-.3005.5879-.582.5879a.2966.2966,0,0,1-.135-.03.2335.2335,0,0,1-.1335-.1763.5908.5908,0,0,1,.0615-.3177.923.923,0,0,1,.1858-.2705.42.42,0,0,1,.2642-.1619m0-2h0a2.3229,2.3229,0,0,0-1.6924.762,2.9033,2.9033,0,0,0-.5881.8655,2.5173,2.5173,0,0,0-.2009,1.467A2.2215,2.2215,0,0,0,1.479,29.4156a2.31,2.31,0,0,0,1.0356.2445A2.6532,2.6532,0,0,0,4.54,28.6649a2.3964,2.3964,0,0,0,.5151-2A2.4678,2.4678,0,0,0,3.468,24.8224a2.1815,2.1815,0,0,0-.71-.1189Z" fill="#fff"/><path d="M3.541,28.2446a1.5073,1.5073,0,0,1-1.1074-.5293,1.5544,1.5544,0,0,1-.3594-.6768,1.2829,1.2829,0,0,1,.3594-1.2539,1.6692,1.6692,0,0,1,1.1133-.3838,1.49,1.49,0,0,1,1.3232.6465,1.25,1.25,0,0,1-.0566,1.3555A1.4967,1.4967,0,0,1,3.541,28.2446Z" fill="#ffab24"/><path d="M3.5476,26.4006a.5671.5671,0,0,1,.4712.1707.2627.2627,0,0,1-.0161.2466c-.07.0956-.209.4266-.4614.4266a.6018.6018,0,0,1-.4944-.4392.276.276,0,0,1,.0667-.2867.6983.6983,0,0,1,.4341-.1179m0-2h0a2.6565,2.6565,0,0,0-1.7866.6448,2.2639,2.2639,0,0,0-.66,2.2188,2.5358,2.5358,0,0,0,.6077,1.1389,2.4806,2.4806,0,0,0,1.8333.8416A2.4154,2.4154,0,0,0,5.6731,27.918a2.2438,2.2438,0,0,0,.0483-2.396,2.465,2.465,0,0,0-2.1738-1.1213Z" fill="#fff"/><path d="M4.4395,28.6382a1.3958,1.3958,0,0,1-1.1553-.6035,1.5538,1.5538,0,0,1,.168-1.9844,1.2874,1.2874,0,0,1,.4453-.2656,1.6622,1.6622,0,0,1,.4268-.0723,1.6809,1.6809,0,0,1,1.2988.71,1.4143,1.4143,0,0,1,.3027,1.13,1.2433,1.2433,0,0,1-.6162.834A1.7024,1.7024,0,0,1,4.4395,28.6382Z" fill="#ffab24"/><path d="M4.323,26.7128a.709.709,0,0,1,.4929.3c.26.3552.0757.4578-.0315.5228a.7157.7157,0,0,1-.345.1034.3926.3926,0,0,1-.3364-.1781.5628.5628,0,0,1,.0215-.6707.2863.2863,0,0,1,.1985-.0773m0-2a2.2854,2.2854,0,0,0-1.5449.5981,2.5438,2.5438,0,0,0-.313,3.2977,2.3829,2.3829,0,0,0,1.9741,1.03,2.7171,2.7171,0,0,0,1.3843-.3947A2.2281,2.2281,0,0,0,6.9055,27.75,2.3848,2.3848,0,0,0,6.43,25.832a2.6512,2.6512,0,0,0-2.1072-1.1193Z" fill="#fff"/><path d="M4.6944,29.7212a1.23,1.23,0,0,1-.3936-.0723,1.5887,1.5887,0,0,1-.9531-1.5029,1.4336,1.4336,0,0,1,.9365-1.3818.9735.9735,0,0,1,.1973-.05,1.9884,1.9884,0,0,1,.2012-.0137A1.3083,1.3083,0,0,1,6.03,28.0649,1.5085,1.5085,0,0,1,4.6944,29.7212Z" fill="#ffab24"/><path d="M4.6839,27.7007a.3143.3143,0,0,1,.3464.3475c-.0061.3718-.1807.6724-.3354.6724a.1176.1176,0,0,1-.0415-.0076c-.3286-.124-.47-.8463-.0254-1.009a.4209.4209,0,0,1,.0559-.0033m0-2a2.1636,2.1636,0,0,0-.353.0255,2.83,2.83,0,0,0-.39.0994,2.4416,2.4416,0,0,0-1.594,2.3152,2.5713,2.5713,0,0,0,1.6,2.4435,2.2438,2.2438,0,0,0,.7478.1364,2.4769,2.4769,0,0,0,2.3352-2.64,2.3063,2.3063,0,0,0-2.3462-2.38Z" fill="#fff"/><path d="M8.7959,31.36a2.9424,2.9424,0,0,1-1.6777-.5674,2.14,2.14,0,0,1-.5527-2.84,1.0048,1.0048,0,0,1,.623-.4707.9835.9835,0,0,1,.2441-.03.9937.9937,0,0,1,.1943.02,1.0356,1.0356,0,0,1,.71-.42c.04-.0039.08-.0068.1211-.0068a1.0694,1.0694,0,0,1,.377.0684.9764.9764,0,0,1,.7979.0615.9729.9729,0,0,1,.4668.5723.9585.9585,0,0,1,.4707.5918.94.94,0,0,1-.041.6348.6111.6111,0,0,0,.0537.0762,1.0259,1.0259,0,0,1,.168,1.0693A2.0693,2.0693,0,0,1,8.7959,31.36Z" fill="#ffab24"/><path d="M8.461,28.0287a.3419.3419,0,0,0,.2861.12,1.1008,1.1008,0,0,0,.4009-.0952.8316.8316,0,0,0,.4468.5581c-.3125.4991.2424,1.1024.2424,1.1024a1.0832,1.0832,0,0,1-1.041.6456,1.924,1.924,0,0,1-1.0972-.3824,1.17,1.17,0,0,1-.2664-1.5261.6622.6622,0,0,0,.3508.1111c.4336,0,.6775-.5338.6775-.5338m0-2a2.0006,2.0006,0,0,0-1.2449.4344,2,2,0,0,0-1.5171.9908,3.1116,3.1116,0,0,0,.8379,4.1514,3.9406,3.9406,0,0,0,2.259.7546,3.085,3.085,0,0,0,2.87-1.8358,2,2,0,0,0-.0759-1.7733,1.9994,1.9994,0,0,0-.6824-1.6477,2.0007,2.0007,0,0,0-2.031-1.0309,1.9968,1.9968,0,0,0-.4153-.0436Z" fill="#fff"/><path d="M7.7656,29.4761a1.2878,1.2878,0,0,1-.5869-.1377,1.2319,1.2319,0,0,1-.667-.8936,1.5487,1.5487,0,0,1,.13-.8926,1.8946,1.8946,0,0,1,.3955-.5771,1.3506,1.3506,0,0,1,.9717-.4551,1.3929,1.3929,0,0,1,.38.0625A1.4639,1.4639,0,0,1,9.3272,27.69a1.3994,1.3994,0,0,1-.3145,1.1611A1.6642,1.6642,0,0,1,7.7656,29.4761Z" fill="#ffab24"/><path d="M8.0078,27.52a.1841.1841,0,0,1,.06.01.4689.4689,0,0,1,.2788.3585c.0544.2618-.3005.5879-.582.5879a.2966.2966,0,0,1-.135-.03.2346.2346,0,0,1-.1335-.1763.5954.5954,0,0,1,.0615-.3177.9191.9191,0,0,1,.186-.2705.4192.4192,0,0,1,.2639-.1619m0-2a2.3233,2.3233,0,0,0-1.6914.761,2.8959,2.8959,0,0,0-.5894.8665A2.5273,2.5273,0,0,0,5.5254,28.61a2.2291,2.2291,0,0,0,1.2017,1.6212,2.3127,2.3127,0,0,0,1.0378.2456A2.6532,2.6532,0,0,0,9.79,29.4812a2.3964,2.3964,0,0,0,.5151-2,2.4649,2.4649,0,0,0-1.5867-1.8427,2.1837,2.1837,0,0,0-.71-.1189Z" fill="#fff"/><path d="M8.792,29.061a1.5057,1.5057,0,0,1-1.1084-.53,1.5524,1.5524,0,0,1-.3594-.6758,1.2823,1.2823,0,0,1,.3594-1.2539,1.67,1.67,0,0,1,1.1143-.3838,1.4951,1.4951,0,0,1,1.3223.6436,1.2575,1.2575,0,0,1-.0625,1.3672A1.4853,1.4853,0,0,1,8.792,29.061Z" fill="#ffab24"/><path d="M8.7979,27.2169a.5671.5671,0,0,1,.4712.1707.262.262,0,0,1-.0161.2466c-.07.0956-.209.4266-.4614.4266a.5506.5506,0,0,1-.38-.2152.5419.5419,0,0,1-.1145-.224.2755.2755,0,0,1,.0664-.2867.6988.6988,0,0,1,.4341-.1179m0-2h0a2.6573,2.6573,0,0,0-1.7856.6438,2.2634,2.2634,0,0,0-.6606,2.2233,2.5278,2.5278,0,0,0,.6067,1.1354,2.48,2.48,0,0,0,1.8333.8414,2.4139,2.4139,0,0,0,2.1294-1.3225,2.2406,2.2406,0,0,0,.0508-2.4,2.465,2.465,0,0,0-2.1738-1.1213Z" fill="#fff"/><path d="M9.69,29.4546a1.3946,1.3946,0,0,1-1.1553-.6035,1.5529,1.5529,0,0,1,.167-1.9854,1.3124,1.3124,0,0,1,.4453-.2646,1.6622,1.6622,0,0,1,.4268-.0723,1.6806,1.6806,0,0,1,1.2969.707,1.412,1.412,0,0,1,.3047,1.1318,1.2467,1.2467,0,0,1-.6113.833A1.7238,1.7238,0,0,1,9.69,29.4546Z" fill="#ffab24"/><path d="M9.5735,27.5291a.7081.7081,0,0,1,.4927.3c.26.3552.0757.4578-.0315.5228a.7157.7157,0,0,1-.345.1034.3924.3924,0,0,1-.3364-.178.563.563,0,0,1,.0215-.6708.2874.2874,0,0,1,.1987-.0773m0-2a2.2864,2.2864,0,0,0-1.5452.5981,2.5442,2.5442,0,0,0-.3135,3.2974A2.3838,2.3838,0,0,0,9.69,30.4551a2.7164,2.7164,0,0,0,1.386-.3956,2.2273,2.2273,0,0,0,1.08-1.4932,2.3845,2.3845,0,0,0-.4761-1.9187,2.6972,2.6972,0,0,0-2.1062-1.1185Z" fill="#fff"/><path d="M9.9483,30.54a1.23,1.23,0,0,1-.3936-.0723,1.5887,1.5887,0,0,1-.9531-1.5029,1.4333,1.4333,0,0,1,.9365-1.3809,1.1234,1.1234,0,0,1,.1953-.05,2.0463,2.0463,0,0,1,.2051-.0137,1.3052,1.3052,0,0,1,1.3457,1.3633A1.5085,1.5085,0,0,1,9.9483,30.54Z" fill="#ffab24"/><path d="M9.9375,28.52a.3146.3146,0,0,1,.3467.3475c-.0063.3718-.1807.6725-.3357.6725a.1176.1176,0,0,1-.0415-.0076c-.3284-.1241-.47-.8463-.0251-1.0092a.4145.4145,0,0,1,.0557-.0033m0-2a2.16,2.16,0,0,0-.3521.0254,2.8135,2.8135,0,0,0-.3909.1,2.4414,2.4414,0,0,0-1.5935,2.3147A2.5712,2.5712,0,0,0,9.2,31.4027a2.2407,2.2407,0,0,0,.7488.1368,2.4776,2.4776,0,0,0,2.3354-2.6388A2.3066,2.3066,0,0,0,9.9375,26.52Z" fill="#fff"/><path d="M11.8887,27.0786a2.819,2.819,0,0,1-1.8984-.8A2.1384,2.1384,0,0,1,9.81,23.3921a.9967.9967,0,0,1,.6777-.3867.9432.9432,0,0,1,.1172-.0068.9879.9879,0,0,1,.32.0527,1.0323,1.0323,0,0,1,.7393-.3242h.0176a1.0812,1.0812,0,0,1,.4727.1182.9636.9636,0,0,1,.1914-.0186,1.0111,1.0111,0,0,1,.9932.8164.9611.9611,0,0,1,.3926.6484.95.95,0,0,1-.124.625.4862.4862,0,0,0,.0439.0811,1.03,1.03,0,0,1,.0283,1.084A2.05,2.05,0,0,1,11.8887,27.0786Z" fill="#ffab24"/><path d="M11.6785,23.7124a.3912.3912,0,0,0,.3611.162,1.1843,1.1843,0,0,0,.3169-.0483.8317.8317,0,0,0,.3708.6111c-.3743.4547.0981,1.1245.0981,1.1245a1.0577,1.0577,0,0,1-.9377.5176,1.8384,1.8384,0,0,1-1.2166-.5326,1.17,1.17,0,0,1-.0669-1.5479.6281.6281,0,0,0,.4011.16c.3945,0,.6731-.4463.6731-.4463m0-2a1.9982,1.9982,0,0,0-1.0317.2869l-.0422,0a1.9994,1.9994,0,0,0-1.59.787,3.1117,3.1117,0,0,0,.2947,4.2251,3.8079,3.8079,0,0,0,2.5789,1.0684A3.07,3.07,0,0,0,14.5344,26.6a1.9991,1.9991,0,0,0,.1533-1.7681,1.9984,1.9984,0,0,0-.4636-1.7217,2,2,0,0,0-1.8679-1.2847h-.0129a1.9982,1.9982,0,0,0-.6289-.1133l-.0361,0Z" fill="#fff"/><path d="M10.9815,25.07a1.3159,1.3159,0,0,1-.7432-.2236,1.2352,1.2352,0,0,1-.5469-.9795,1.542,1.542,0,0,1,.248-.8682,1.9066,1.9066,0,0,1,.4551-.51,1.2552,1.2552,0,0,1,1.4063-.2158,1.4621,1.4621,0,0,1,.78,1.21,1.3688,1.3688,0,0,1-.3848,1.0391A1.6932,1.6932,0,0,1,10.9815,25.07Z" fill="#ffab24"/><path d="M11.2708,23.1477a.1833.1833,0,0,1,.0825.02.469.469,0,0,1,.23.3915c.0188.2507-.3284.5111-.6018.5111a.3174.3174,0,0,1-.1812-.0507.2346.2346,0,0,1-.11-.192.591.591,0,0,1,.1023-.3071.912.912,0,0,1,.2192-.2443.465.465,0,0,1,.2585-.1281m0-2h0a2.3959,2.3959,0,0,0-1.4949.5562,2.8831,2.8831,0,0,0-.6958.7841,2.5156,2.5156,0,0,0-.3875,1.423,2.2285,2.2285,0,0,0,.9846,1.7629,2.3109,2.3109,0,0,0,1.3047.396,2.71,2.71,0,0,0,1.9473-.8672,2.3612,2.3612,0,0,0,.6489-1.7937,2.467,2.467,0,0,0-1.3362-2.0336,2.1977,2.1977,0,0,0-.9709-.2277Z" fill="#fff"/><path d="M12.0391,24.79a1.45,1.45,0,0,1-1.1953-.6777,1.56,1.56,0,0,1-.27-.72,1.2755,1.2755,0,0,1,.53-1.2041,1.52,1.52,0,0,1,.873-.2461,1.59,1.59,0,0,1,1.4971.83,1.25,1.25,0,0,1-.2334,1.3389A1.5321,1.5321,0,0,1,12.0391,24.79Z" fill="#ffab24"/><path d="M11.9768,22.9418c.238,0,.5161.0835.5859.2393a.2634.2634,0,0,1-.0479.2423c-.0776.0817-.2446.366-.4761.366-.114,0-.2434-.0688-.3855-.2649a.5476.5476,0,0,1-.0847-.2368.276.276,0,0,1,.103-.2758.56.56,0,0,1,.3052-.07m0-2h0a2.51,2.51,0,0,0-1.4556.4341,2.2634,2.2634,0,0,0-.9421,2.116,2.5417,2.5417,0,0,0,.4536,1.2047,2.4427,2.4427,0,0,0,2.0061,1.0928,2.48,2.48,0,0,0,1.99-1.0583,2.2451,2.2451,0,0,0,.3611-2.364,2.556,2.556,0,0,0-2.4128-1.4252Z" fill="#fff"/><path d="M12.91,25.2983a1.4017,1.4017,0,0,1-1.2646-.7607,1.5538,1.5538,0,0,1,.42-1.9453,1.28,1.28,0,0,1,.5029-.2119,1.7729,1.7729,0,0,1,.2373-.0225,1.6408,1.6408,0,0,1,1.3652.88A1.414,1.414,0,0,1,14.3262,24.4a1.2423,1.2423,0,0,1-.7178.7471A1.7385,1.7385,0,0,1,12.91,25.2983Z" fill="#ffab24"/><path d="M12.8059,23.358a.6683.6683,0,0,1,.49.3635c.2119.3857.0161.4636-.0986.5144a.7533.7533,0,0,1-.2871.0621.4015.4015,0,0,1-.3789-.2242.563.563,0,0,1,.1079-.6622.2921.2921,0,0,1,.1111-.0482.2867.2867,0,0,1,.0557-.0054m0-2a2.2859,2.2859,0,0,0-1.3145.4156A2.5435,2.5435,0,0,0,10.7583,25,2.3883,2.3883,0,0,0,12.91,26.2981a2.7348,2.7348,0,0,0,1.0981-.2339,2.2286,2.2286,0,0,0,1.2649-1.342,2.3854,2.3854,0,0,0-.2244-1.9636,2.6153,2.6153,0,0,0-2.2429-1.4005Z" fill="#fff"/><path d="M12.9737,26.4038a1.2464,1.2464,0,0,1-.5254-.1309,1.5928,1.5928,0,0,1-.752-1.6162,1.4323,1.4323,0,0,1,1.1084-1.2461,1.0378,1.0378,0,0,1,.1973-.0244h.002a1.4226,1.4226,0,0,1,1.0693.4639,1.32,1.32,0,0,1,.2939,1.0752A1.5633,1.5633,0,0,1,12.9737,26.4038Z" fill="#ffab24"/><path d="M13.0252,24.3859a.33.33,0,0,1,.353.3933c-.0522.3553-.2517.6245-.4036.6245a.1181.1181,0,0,1-.0562-.0139c-.31-.1654-.3572-.9.105-1.0039h.0017m0-2-.0352,0a1.9967,1.9967,0,0,0-.4055.0486,2.4414,2.4414,0,0,0-1.8789,2.09,2.5713,2.5713,0,0,0,1.271,2.6292,2.1244,2.1244,0,0,0,.998.25A2.5469,2.5469,0,0,0,15.357,25.07,2.308,2.308,0,0,0,14.83,23.196a2.3759,2.3759,0,0,0-1.8049-.81Z" fill="#fff"/><path d="M5.2647,35.6226a2.94,2.94,0,0,1-1.6787-.5684,2.1406,2.1406,0,0,1-.5518-2.84,1.0048,1.0048,0,0,1,.623-.4707.9835.9835,0,0,1,.2441-.03.9937.9937,0,0,1,.1943.02,1.0376,1.0376,0,0,1,.71-.42c.04-.0039.0811-.0068.1211-.0068a1.0659,1.0659,0,0,1,.418.085c.0518-.0049.1045-.0078.1582-.0078a1.0618,1.0618,0,0,1,.5879.15,1.3858,1.3858,0,0,1,.46.4648.9614.9614,0,0,1,.4883.6006.9424.9424,0,0,1-.041.6357.5969.5969,0,0,0,.0537.0752,1.03,1.03,0,0,1,.1689,1.07A2.0724,2.0724,0,0,1,5.2647,35.6226Z" fill="#ffab24"/><path d="M4.9295,32.2908a.3421.3421,0,0,0,.2861.12,1.1008,1.1008,0,0,0,.4009-.0952.8316.8316,0,0,0,.4468.5582c-.3125.4991.2424,1.1023.2424,1.1023a1.0828,1.0828,0,0,1-1.041.6456A1.9239,1.9239,0,0,1,4.1675,34.24a1.17,1.17,0,0,1-.2664-1.5262.6619.6619,0,0,0,.3511.1111c.4333,0,.6772-.5337.6772-.5337m0-2a2.0214,2.0214,0,0,0-.2234.0125,2,2,0,0,0-1.0212.4219,1.9994,1.9994,0,0,0-1.5176.991,3.112,3.112,0,0,0,.8381,4.1514,3.94,3.94,0,0,0,2.259.7545,3.0856,3.0856,0,0,0,2.87-1.8359,2,2,0,0,0-.0762-1.7732,2,2,0,0,0-.6821-1.6475,2,2,0,0,0-2.0315-1.031,1.9945,1.9945,0,0,0-.415-.0436Z" fill="#fff"/><path d="M4.2334,33.7388a1.2814,1.2814,0,0,1-.584-.1367,1.2413,1.2413,0,0,1-.6689-.8955,1.5487,1.5487,0,0,1,.13-.8926,1.8907,1.8907,0,0,1,.3857-.5684,1.3711,1.3711,0,0,1,.9795-.4639,1.4146,1.4146,0,0,1,.3877.0654,1.4624,1.4624,0,0,1,.9316,1.1006,1.4008,1.4008,0,0,1-.3125,1.1641A1.667,1.667,0,0,1,4.2334,33.7388Z" fill="#ffab24"/><path d="M4.4763,31.7817a.1841.1841,0,0,1,.06.01.4693.4693,0,0,1,.2788.3585c.0544.2618-.3.5879-.5818.5879a.2969.2969,0,0,1-.1353-.03.2342.2342,0,0,1-.1335-.1761.5952.5952,0,0,1,.0615-.3177.9175.9175,0,0,1,.186-.2705.4189.4189,0,0,1,.2639-.162m0-2a2.3235,2.3235,0,0,0-1.6924.7621,2.9012,2.9012,0,0,0-.5889.8663,2.526,2.526,0,0,0-.2012,1.4612,2.2284,2.2284,0,0,0,1.2036,1.6224,2.3106,2.3106,0,0,0,1.0361.2446,2.6524,2.6524,0,0,0,2.0244-.995,2.3968,2.3968,0,0,0,.5156-2,2.4664,2.4664,0,0,0-1.5854-1.8423,2.1864,2.1864,0,0,0-.7119-.1194Z" fill="#fff"/><path d="M5.26,33.3228a1.506,1.506,0,0,1-1.1064-.5283,1.5562,1.5562,0,0,1-.36-.6777,1.2734,1.2734,0,0,1,.3652-1.2578,1.6617,1.6617,0,0,1,1.1084-.38,1.489,1.489,0,0,1,1.3232.6484,1.2459,1.2459,0,0,1-.0576,1.3535A1.4967,1.4967,0,0,1,5.26,33.3228Z" fill="#ffab24"/><path d="M5.2664,31.479a.5679.5679,0,0,1,.4714.1707.2625.2625,0,0,1-.0164.2465c-.07.0957-.2087.4268-.4614.4268a.5514.5514,0,0,1-.38-.2153.5415.5415,0,0,1-.1145-.2239.2755.2755,0,0,1,.0664-.2867.6988.6988,0,0,1,.4341-.1179m0-2h0a2.6573,2.6573,0,0,0-1.7856.6438A2.2619,2.2619,0,0,0,2.82,32.3461a2.5279,2.5279,0,0,0,.6067,1.1351,2.48,2.48,0,0,0,1.8333.8417A2.4137,2.4137,0,0,0,7.3894,33a2.2414,2.2414,0,0,0,.053-2.3967,2.4673,2.4673,0,0,0-2.176-1.1246Z" fill="#fff"/><path d="M6.1582,33.7173a1.3926,1.3926,0,0,1-1.1553-.6055,1.5526,1.5526,0,0,1,.168-1.9834,1.2874,1.2874,0,0,1,.4453-.2656,1.6533,1.6533,0,0,1,.4248-.0713,1.68,1.68,0,0,1,1.3008.71A1.41,1.41,0,0,1,7.6446,32.63a1.2454,1.2454,0,0,1-.6162.834A1.7207,1.7207,0,0,1,6.1582,33.7173Z" fill="#ffab24"/><path d="M6.042,31.7911a.7081.7081,0,0,1,.4927.3c.26.3551.0757.4576-.0315.5228a.7159.7159,0,0,1-.345.1033.3927.3927,0,0,1-.3364-.178.5628.5628,0,0,1,.0215-.6707.2874.2874,0,0,1,.1987-.0773m0-2a2.2865,2.2865,0,0,0-1.5449.5979,2.544,2.544,0,0,0-.3132,3.298,2.3831,2.3831,0,0,0,1.9741,1.03,2.7147,2.7147,0,0,0,1.3857-.3955,2.2283,2.2283,0,0,0,1.0808-1.4943,2.3857,2.3857,0,0,0-.4763-1.9178,2.6977,2.6977,0,0,0-2.1062-1.1183Z" fill="#fff"/><path d="M6.417,34.8022a1.23,1.23,0,0,1-.3936-.0723,1.59,1.59,0,0,1-.9541-1.502,1.4344,1.4344,0,0,1,.9375-1.3828,1.1234,1.1234,0,0,1,.1953-.05,2.0269,2.0269,0,0,1,.2041-.0137A1.3068,1.3068,0,0,1,7.7529,33.146,1.5085,1.5085,0,0,1,6.417,34.8022Z" fill="#ffab24"/><path d="M6.4063,32.7816a.3144.3144,0,0,1,.3464.3475c-.0063.3718-.1807.6725-.3354.6725a.1177.1177,0,0,1-.0415-.0077c-.3286-.124-.47-.8462-.0254-1.009a.4163.4163,0,0,1,.0559-.0033m0-2a2.17,2.17,0,0,0-.3521.0253,2.8345,2.8345,0,0,0-.3911.1A2.4415,2.4415,0,0,0,4.07,33.222a2.5713,2.5713,0,0,0,1.6,2.4431,2.2439,2.2439,0,0,0,.7478.1365,2.4776,2.4776,0,0,0,2.3352-2.6388,2.3066,2.3066,0,0,0-2.3462-2.3812Z" fill="#fff"/><path d="M18.3408,16.1528a2.7235,2.7235,0,0,1-2.1182-1.1582,2.1364,2.1364,0,0,1,.3311-2.8721A1.0048,1.0048,0,0,1,17.23,11.86c.02,0,.04.001.0605.002a1.003,1.003,0,0,1,.4209.1211,1.0536,1.0536,0,0,1,.6162-.2031.9972.9972,0,0,1,.1865.0176,1.0882,1.0882,0,0,1,.4434.1992h.0078a1.0172,1.0172,0,0,1,1.0186.9951.9631.9631,0,0,1,.2725.707.95.95,0,0,1-.2314.5938.6667.6667,0,0,0,.0215.0742,1.0022,1.0022,0,0,1-.1562,1.085A2.0413,2.0413,0,0,1,18.3408,16.1528Z" fill="#ffab24"/><path d="M18.3372,12.7673c.074.2058.3477.2386.5144.2386a1.1254,1.1254,0,0,0,.1328-.0072.8319.8319,0,0,0,.2573.667c-.4487.3815-.1018,1.1241-.1018,1.1241a1.0411,1.0411,0,0,1-.7986.3635,1.7308,1.7308,0,0,1-1.3193-.7584,1.17,1.17,0,0,1,.2073-1.5353.5956.5956,0,0,0,.4612.2365,1.03,1.03,0,0,0,.6467-.3289m0-2a2.0021,2.0021,0,0,0-.7136.1316,2.006,2.006,0,0,0-.2739-.0355c-.04-.0024-.08-.0037-.12-.0037a2,2,0,0,0-1.3511.5254,3.1115,3.1115,0,0,0-.4556,4.2106,3.7273,3.7273,0,0,0,2.9187,1.5577,3.0279,3.0279,0,0,0,2.2974-1.0394,2,2,0,0,0,.4631-1.7133,2.0012,2.0012,0,0,0-.1309-1.74,1.8561,1.8561,0,0,0-.5339-1.1,1.9507,1.9507,0,0,0-1.1812-.57,1.999,1.999,0,0,0-.9187-.2235Z" fill="#fff"/><path d="M17.6748,14.0034a1.3517,1.3517,0,0,1-.9541-.373,1.2344,1.2344,0,0,1-.3672-1.0586,1.5635,1.5635,0,0,1,.3926-.8086,1.9332,1.9332,0,0,1,.5479-.4287,1.4631,1.4631,0,0,1,.7051-.1982,1.1825,1.1825,0,0,1,.7109.2344,1.4643,1.4643,0,0,1,.5547,1.3369A1.5769,1.5769,0,0,1,17.6748,14.0034Z" fill="#ffab24"/><path d="M17.9993,12.1365a.1866.1866,0,0,1,.114.0369.47.47,0,0,1,.1577.4259c-.0229.2244-.3372.4043-.5959.4043a.3586.3586,0,0,1-.2561-.0892.2338.2338,0,0,1-.0742-.2084.5934.5934,0,0,1,.1545-.2843.9211.9211,0,0,1,.259-.2017.5557.5557,0,0,1,.241-.0835m0-2a2.481,2.481,0,0,0-1.179.317,2.8989,2.8989,0,0,0-.8228.6473,2.5233,2.5233,0,0,0-.6345,1.3353,2.2249,2.2249,0,0,0,.6589,1.9094,2.3444,2.3444,0,0,0,1.6531.658,2.5674,2.5674,0,0,0,2.5854-2.2,2.47,2.47,0,0,0-.9565-2.2373,2.1765,2.1765,0,0,0-1.3047-.43Z" fill="#fff"/><path d="M18.73,13.9116a1.4166,1.4166,0,0,1-1.2842-.8994,1.5535,1.5535,0,0,1-.14-.7471,1.284,1.284,0,0,1,.7314-1.0977,1.3767,1.3767,0,0,1,.5811-.12,1.685,1.685,0,0,1,1.6533,1.1084,1.255,1.255,0,0,1-.4668,1.2793A1.6035,1.6035,0,0,1,18.73,13.9116Z" fill="#ffab24"/><path d="M18.6182,12.0472c.2583,0,.6328.1509.6831.353a.2627.2627,0,0,1-.09.23c-.084.0616-.2742.2808-.4824.2808-.1277,0-.2622-.0822-.3833-.3333a.5439.5439,0,0,1-.0415-.248.2757.2757,0,0,1,.15-.2533.3978.3978,0,0,1,.1641-.0293m0-2a2.3715,2.3715,0,0,0-1.0076.2158,2.2637,2.2637,0,0,0-1.301,1.92,2.5313,2.5313,0,0,0,.2354,1.2653,2.428,2.428,0,0,0,2.1841,1.463,2.6169,2.6169,0,0,0,1.74-.7257,2.2432,2.2432,0,0,0,.7727-2.2678,2.6651,2.6651,0,0,0-2.624-1.87Z" fill="#fff"/><path d="M19.5625,14.5708a1.4135,1.4135,0,0,1-1.4033-.9971,1.5523,1.5523,0,0,1,.7607-1.8418,1.2861,1.2861,0,0,1,.5088-.1191h.001a1.5731,1.5731,0,0,1,1.4453,1.13,1.4119,1.4119,0,0,1-.0537,1.1709,1.2425,1.2425,0,0,1-.8408.6074A1.7785,1.7785,0,0,1,19.5625,14.5708Z" fill="#ffab24"/><path d="M19.4588,12.613c.2195,0,.4048.2585.469.4487.14.4171-.0662.4591-.188.4889a.7776.7776,0,0,1-.1772.0205.4306.4306,0,0,1-.45-.2975.563.563,0,0,1,.2231-.6329.2933.2933,0,0,1,.1177-.0277h.0051m0-2-.04,0a2.2857,2.2857,0,0,0-.9189.2106,2.5443,2.5443,0,0,0-1.2954,3.0492,2.4158,2.4158,0,0,0,2.3579,1.6981,2.784,2.784,0,0,0,.6533-.078,2.23,2.23,0,0,0,1.4817-1.0977,2.3867,2.3867,0,0,0,.1257-1.9717,2.5666,2.5666,0,0,0-2.3645-1.8108Z" fill="#fff"/><path d="M19.3389,15.6636a1.252,1.252,0,0,1-.6982-.2432,1.5884,1.5884,0,0,1-.4521-1.72,1.4313,1.4313,0,0,1,1.3105-1.0322c.0137-.001.0283-.001.043-.001A.96.96,0,0,1,19.7,12.68a1.4065,1.4065,0,0,1,.9639.6348,1.3172,1.3172,0,0,1,.1064,1.12A1.65,1.65,0,0,1,19.3389,15.6636Z" fill="#ffab24"/><path d="M19.5423,13.6676a.3321.3321,0,0,1,.28.45c-.1082.3225-.3328.5457-.4832.5457a.1213.1213,0,0,1-.0771-.0258c-.2756-.2175-.1929-.9489.2805-.97m0-2c-.0293,0-.0583.0006-.0876.002a2.4414,2.4414,0,0,0-2.2183,1.7251,2.5715,2.5715,0,0,0,.7864,2.8125,2.1325,2.1325,0,0,0,1.3162.4558,2.6217,2.6217,0,0,0,2.3794-1.91,2.3337,2.3337,0,0,0-.1995-1.9568,2.3994,2.3994,0,0,0-1.6621-1.1035,1.9956,1.9956,0,0,0-.3145-.0249Z" fill="#fff"/><path d="M32.5772,10.9839A2.64,2.64,0,0,1,30.375,9.6167a2.14,2.14,0,0,1,.6074-2.8281.9975.9975,0,0,1,.6016-.2012.9569.9569,0,0,1,.1572.0127.9993.9993,0,0,1,.44.1855.9377.9377,0,0,1,.8281-.1367.9242.9242,0,0,1,.41.252,1.0137,1.0137,0,0,1,.6709.3721,1.0242,1.0242,0,0,1,.2217.7148.9611.9611,0,0,1,.2012.7295.9513.9513,0,0,1-.2871.5674.7018.7018,0,0,0,.02.0908,1.03,1.03,0,0,1-.2656,1.0518A2.0311,2.0311,0,0,1,32.5772,10.9839Z" fill="#ffab24"/><path d="M31.584,7.5879a.5842.5842,0,0,0,.4917.2827,1.0761,1.0761,0,0,0,.62-.2672c.0706.2789.5139.2935.6052.2935l.0166,0a.8318.8318,0,0,0,.1914.6888c-.4836.3361-.21,1.1089-.21,1.1089a1.04,1.04,0,0,1-.7212.29,1.6767,1.6767,0,0,1-1.3484-.8882,1.17,1.17,0,0,1,.3552-1.5079m0-2a2.0011,2.0011,0,0,0-1.2017.4011,3.1117,3.1117,0,0,0-.8618,4.1467,3.6291,3.6291,0,0,0,3.0566,1.8483,3.0515,3.0515,0,0,0,2.0845-.8263,2.0014,2.0014,0,0,0,.6272-1.66,2.0008,2.0008,0,0,0,.02-1.7833A2,2,0,0,0,33.8469,5.968a2.0007,2.0007,0,0,0-1.68-.2935,2.004,2.004,0,0,0-.5825-.0867Z" fill="#fff"/><path d="M32.0723,8.7769a1.3631,1.3631,0,0,1-1.07-.4736A1.2312,1.2312,0,0,1,30.74,7.2163a1.5512,1.5512,0,0,1,.4727-.7686,1.8763,1.8763,0,0,1,.5781-.3691,1.5324,1.5324,0,0,1,.6064-.1367,1.1961,1.1961,0,0,1,.8076.3105,1.466,1.466,0,0,1,.4219,1.375A1.5446,1.5446,0,0,1,32.0723,8.7769Z" fill="#ffab24"/><path d="M32.397,6.9417a.1913.1913,0,0,1,.1335.0488.4693.4693,0,0,1,.1155.4392c-.0413.2047-.3276.3473-.5742.3473a.3885.3885,0,0,1-.3044-.1163.2346.2346,0,0,1-.0535-.2146.5931.5931,0,0,1,.1814-.2679.9188.9188,0,0,1,.2773-.1757.6249.6249,0,0,1,.2244-.0608m0-2h0a2.53,2.53,0,0,0-.9866.2118,2.8962,2.8962,0,0,0-.8813.5643,2.5219,2.5219,0,0,0-.7612,1.2678,2.2271,2.2271,0,0,0,.4678,1.9608,2.3828,2.3828,0,0,0,1.8364.8307,2.5367,2.5367,0,0,0,2.5347-1.9513,2.4674,2.4674,0,0,0-.7351-2.3193,2.1944,2.1944,0,0,0-1.4744-.5648Z" fill="#fff"/><path d="M33.1016,8.7856A1.4,1.4,0,0,1,31.7842,7.76a1.5271,1.5271,0,0,1-.0645-.7646,1.2794,1.2794,0,0,1,.8271-1.0117,1.3411,1.3411,0,0,1,.4414-.0723A1.7189,1.7189,0,0,1,34.68,7.189,1.25,1.25,0,0,1,34.0938,8.41,1.6508,1.6508,0,0,1,33.1016,8.7856Z" fill="#ffab24"/><path d="M32.989,6.9111c.2578,0,.6692.199.7019.4205a.2633.2633,0,0,1-.1118.22c-.0852.0507-.28.234-.4775.234-.137,0-.2751-.0883-.3789-.37a.54.54,0,0,1-.0173-.2509.2754.2754,0,0,1,.1736-.2375.3363.3363,0,0,1,.11-.0161m0-2a2.3245,2.3245,0,0,0-.7737.1294,2.2637,2.2637,0,0,0-1.481,1.7839,2.5293,2.5293,0,0,0,.1133,1.2874A2.4012,2.4012,0,0,0,33.1016,9.786,2.6567,2.6567,0,0,0,34.6831,9.22,2.2449,2.2449,0,0,0,35.67,7.0405,2.6835,2.6835,0,0,0,32.989,4.9111Z" fill="#fff"/><path d="M33.9141,9.5259A1.431,1.431,0,0,1,32.44,8.3872a1.55,1.55,0,0,1,.9355-1.7578,1.2679,1.2679,0,0,1,.4248-.0723c.0264,0,.0742.002.1006.0039a1.56,1.56,0,0,1,1.3223,1.2617,1.41,1.41,0,0,1-.167,1.1621,1.2425,1.2425,0,0,1-.8955.5234A1.7984,1.7984,0,0,1,33.9141,9.5259Z" fill="#ffab24"/><path d="M33.8,7.5573l.0215.0009c.2212.0175.3826.2957.4282.4927.1.4287-.11.4506-.2344.4684a.74.74,0,0,1-.1023.0068.4565.4565,0,0,1-.4949-.3434.563.563,0,0,1,.2834-.6083A.2983.2983,0,0,1,33.8,7.5573m0-2a2.2914,2.2914,0,0,0-.7544.1278,2.5435,2.5435,0,0,0-1.5847,2.9086,2.4287,2.4287,0,0,0,2.4521,1.9324,2.7385,2.7385,0,0,0,.3867-.0272,2.2292,2.2292,0,0,0,1.5825-.9495,2.3846,2.3846,0,0,0,.3154-1.9512,2.553,2.553,0,0,0-2.2187-2.0338c-.0525-.0042-.1265-.0071-.179-.0071Z" fill="#fff"/><path d="M33.5244,10.5884a1.2634,1.2634,0,0,1-.7832-.3135A1.5738,1.5738,0,0,1,32.4395,8.56a1.4444,1.4444,0,0,1,1.3438-.9443,1.21,1.21,0,0,1,.2773.0332,1.4073,1.4073,0,0,1,.8975.7256A1.3174,1.3174,0,0,1,34.9541,9.5,1.671,1.671,0,0,1,33.5244,10.5884Z" fill="#ffab24"/><path d="M33.7835,8.6157l.0242.0006a.3322.3322,0,0,1,.2349.4747c-.134.3-.3672.4971-.5181.4971a.1258.1258,0,0,1-.09-.0339c-.2488-.2391-.105-.9385.3491-.9385m0-2h0a2.4574,2.4574,0,0,0-2.272,1.5714,2.5788,2.5788,0,0,0,.5371,2.8092,2.1191,2.1191,0,0,0,1.4758.5918,2.6662,2.6662,0,0,0,2.344-1.681A2.3343,2.3343,0,0,0,35.86,7.9408a2.4009,2.4009,0,0,0-1.5469-1.26,1.9939,1.9939,0,0,0-.4-.062c-.0352-.0018-.0945-.0034-.13-.0034Z" fill="#fff"/><path d="M33.3037,6.0728a2.64,2.64,0,0,1-2.2012-1.3672,2.1382,2.1382,0,0,1,.6084-2.8281.9925.9925,0,0,1,.6006-.2012.9367.9367,0,0,1,.1563.0127.9983.9983,0,0,1,.4414.1855.9377.9377,0,0,1,.8281-.1367.9156.9156,0,0,1,.4092.252A1.0162,1.0162,0,0,1,35.04,3.0767a.9678.9678,0,0,1-.0859,1.2979.5471.5471,0,0,0,.0186.0889,1.0274,1.0274,0,0,1-.2656,1.0508A2.0269,2.0269,0,0,1,33.3037,6.0728Z" fill="#ffab24"/><path d="M32.3111,2.6766a.5847.5847,0,0,0,.4919.2828,1.0761,1.0761,0,0,0,.62-.2672c.07.2788.5139.2933.6052.2933l.0166,0a.832.832,0,0,0,.1912.6888c-.4836.3362-.21,1.109-.21,1.109a1.04,1.04,0,0,1-.7212.29,1.6765,1.6765,0,0,1-1.3484-.8883,1.17,1.17,0,0,1,.3552-1.5079m0-2a2,2,0,0,0-1.2017.4012,3.1117,3.1117,0,0,0-.8618,4.1467,3.6288,3.6288,0,0,0,3.0566,1.8483,3.0506,3.0506,0,0,0,2.0845-.8264,2,2,0,0,0,.6272-1.66,2,2,0,0,0,.0205-1.7827,2,2,0,0,0-1.4626-1.7469,2,2,0,0,0-1.68-.2932,1.9977,1.9977,0,0,0-.583-.0868Z" fill="#fff"/><path d="M32.7988,3.8657A1.3669,1.3669,0,0,1,31.73,3.394a1.23,1.23,0,0,1-.2578-1.1016,1.5292,1.5292,0,0,1,.4629-.751,1.9142,1.9142,0,0,1,.5869-.376,1.5319,1.5319,0,0,1,.6025-.1348,1.1926,1.1926,0,0,1,.8047.3076,1.4657,1.4657,0,0,1,.4248,1.3779A1.5623,1.5623,0,0,1,32.7988,3.8657Z" fill="#ffab24"/><path d="M33.1243,2.03a.1911.1911,0,0,1,.1333.0488.47.47,0,0,1,.1155.4393c-.0413.2047-.3274.3473-.5742.3473a.3887.3887,0,0,1-.3042-.1165.2339.2339,0,0,1-.0537-.2146.5942.5942,0,0,1,.1816-.2679A.92.92,0,0,1,32.9,2.0913a.6263.6263,0,0,1,.2246-.0609m0-2h0a2.5328,2.5328,0,0,0-.9868.2119,2.9005,2.9005,0,0,0-.8813.5642,2.524,2.524,0,0,0-.76,1.2635A2.2293,2.2293,0,0,0,30.9663,4.04a2.3794,2.3794,0,0,0,1.8325.8263,2.5366,2.5366,0,0,0,2.5347-1.951A2.4685,2.4685,0,0,0,34.5991.5959,2.1946,2.1946,0,0,0,33.1243.03Z" fill="#fff"/><path d="M33.8291,3.8745a1.4,1.4,0,0,1-1.3174-1.0254,1.5112,1.5112,0,0,1-.0645-.7646,1.2794,1.2794,0,0,1,.8271-1.0117A1.3411,1.3411,0,0,1,33.7158,1a1.7226,1.7226,0,0,1,1.6914,1.2734,1.2533,1.2533,0,0,1-.5859,1.2246A1.6508,1.6508,0,0,1,33.8291,3.8745Z" fill="#ffab24"/><path d="M33.7163,2c.2576,0,.6689.1989.7017.42a.263.263,0,0,1-.1118.22c-.0852.0508-.28.2341-.4775.2341-.137,0-.2751-.0883-.3789-.37a.5432.5432,0,0,1-.0173-.251.2753.2753,0,0,1,.1738-.2374A.3353.3353,0,0,1,33.7163,2m0-2a2.3274,2.3274,0,0,0-.7742.13,2.2626,2.2626,0,0,0-1.4807,1.7837,2.5326,2.5326,0,0,0,.1113,1.2817,2.4036,2.4036,0,0,0,2.2559,1.68A2.6547,2.6547,0,0,0,35.408,4.31,2.2438,2.2438,0,0,0,36.3967,2.13,2.6821,2.6821,0,0,0,33.7163,0Z" fill="#fff"/><path d="M34.6416,4.6147A1.4343,1.4343,0,0,1,33.167,3.478a1.553,1.553,0,0,1,.9336-1.7588,1.2816,1.2816,0,0,1,.4268-.0732c.0264,0,.0742.002.1006.0039a1.561,1.561,0,0,1,1.3232,1.2617,1.4156,1.4156,0,0,1-.168,1.1631,1.2445,1.2445,0,0,1-.8945.5225A1.7984,1.7984,0,0,1,34.6416,4.6147Z" fill="#ffab24"/><path d="M34.5269,2.6461l.0222.0009c.2209.0175.3826.2957.4282.4926.0994.4288-.11.4507-.2344.4684a.7435.7435,0,0,1-.1025.0068.4563.4563,0,0,1-.4946-.3434.563.563,0,0,1,.2832-.6083.3.3,0,0,1,.0979-.017m0-2a2.2952,2.2952,0,0,0-.7542.1277,2.5441,2.5441,0,0,0-1.5842,2.9084A2.4284,2.4284,0,0,0,34.64,5.6147a2.755,2.755,0,0,0,.3862-.0271,2.2286,2.2286,0,0,0,1.5823-.9484,2.3855,2.3855,0,0,0,.3169-1.9512A2.5543,2.5543,0,0,0,34.7066.6532c-.0522-.0042-.127-.0071-.18-.0071Z" fill="#fff"/><path d="M34.252,5.6772a1.2638,1.2638,0,0,1-.7842-.3135A1.5722,1.5722,0,0,1,33.166,3.65a1.4452,1.4452,0,0,1,1.3447-.9453,1.21,1.21,0,0,1,.2773.0332,1.4073,1.4073,0,0,1,.8975.7256,1.3174,1.3174,0,0,1-.0039,1.126A1.6739,1.6739,0,0,1,34.252,5.6772Z" fill="#ffab24"/><path d="M34.5108,3.7046l.0242.0006A.3319.3319,0,0,1,34.77,4.18c-.134.3-.3672.4969-.5178.4969a.1258.1258,0,0,1-.09-.0339c-.249-.2389-.105-.9384.3491-.9384m0-2h0a2.4576,2.4576,0,0,0-2.2725,1.5728,2.5782,2.5782,0,0,0,.5386,2.8087,2.1185,2.1185,0,0,0,1.4749.5908,2.6662,2.6662,0,0,0,2.3438-1.6807A2.3348,2.3348,0,0,0,36.5869,3.03a2.4,2.4,0,0,0-1.5476-1.26,1.9934,1.9934,0,0,0-.3972-.0618c-.0356-.002-.0952-.0035-.1309-.0035Z" fill="#fff"/><path d="M27.8555,8.9985a2.6257,2.6257,0,0,1-2.24-1.498,2.1388,2.1388,0,0,1,.7734-2.7871,1.0005,1.0005,0,0,1,1.1865.06.9654.9654,0,0,1,.834-.08.9621.9621,0,0,1,.3975.2734,1.0167,1.0167,0,0,1,.8359,1.14.9682.9682,0,0,1,.1582.7412.9519.9519,0,0,1-.3213.55.6089.6089,0,0,0,.0146.0908A1.0278,1.0278,0,0,1,29.166,8.522,2.0408,2.0408,0,0,1,27.8555,8.9985Z" fill="#ffab24"/><path d="M26.9419,5.5463a.58.58,0,0,0,.51.3124,1.1049,1.1049,0,0,0,.5981-.2312c.06.3153.6035.3292.6035.3292a.8324.8324,0,0,0,.15.699c-.5027.307-.2756,1.0947-.2756,1.0947a1.0415,1.0415,0,0,1-.6733.2484,1.6451,1.6451,0,0,1-1.3572-.9681,1.17,1.17,0,0,1,.4436-1.4844m0-2a2.0012,2.0012,0,0,0-1.1052.333,3.1117,3.1117,0,0,0-1.105,4.089,3.6169,3.6169,0,0,0,3.1238,2.0305,3.0248,3.0248,0,0,0,1.948-.7073,2,2,0,0,0,.7239-1.62,2,2,0,0,0,.1257-1.7792,2.0005,2.0005,0,0,0-1.3572-1.83,2,2,0,0,0-1.6594-.3916,2.0022,2.0022,0,0,0-.6946-.1245Z" fill="#fff"/><path d="M27.4571,6.7651a1.3953,1.3953,0,0,1-1.1387-.5391,1.2208,1.2208,0,0,1-.1934-1.1094,1.5372,1.5372,0,0,1,.51-.7275,1.9144,1.9144,0,0,1,.6084-.34,1.601,1.601,0,0,1,.5322-.1006,1.1938,1.1938,0,0,1,.8574.3535,1.4723,1.4723,0,0,1,.3457,1.4043A1.526,1.526,0,0,1,27.4571,6.7651Z" fill="#ffab24"/><path d="M27.7752,4.9486a.1961.1961,0,0,1,.1467.0571.47.47,0,0,1,.09.4453.57.57,0,0,1-.5547.314.409.409,0,0,1-.3362-.1353.2342.2342,0,0,1-.0408-.2174.5931.5931,0,0,1,.197-.2567.9175.9175,0,0,1,.2871-.1591.6835.6835,0,0,1,.2112-.048m0-2a2.5924,2.5924,0,0,0-.8623.157,2.8942,2.8942,0,0,0-.916.5133,2.5185,2.5185,0,0,0-.832,1.217,2.2266,2.2266,0,0,0,.3518,1.9884,2.383,2.383,0,0,0,1.94.9407,2.5237,2.5237,0,0,0,2.488-1.8024,2.47,2.47,0,0,0-.5967-2.359,2.1883,2.1883,0,0,0-1.573-.655Z" fill="#fff"/><path d="M28.4649,6.8345a1.3837,1.3837,0,0,1-1.333-1.1035,1.5428,1.5428,0,0,1-.0215-.7617,1.2816,1.2816,0,0,1,.8857-.9668,1.68,1.68,0,0,1,2.0605,1.3223,1.2589,1.2589,0,0,1-.6582,1.19A1.6951,1.6951,0,0,1,28.4649,6.8345Z" fill="#ffab24"/><path d="M28.3574,4.9528c.2551,0,.6824.231.7026.462a.2623.2623,0,0,1-.1245.2134,1.066,1.066,0,0,1-.4712.2061c-.1436,0-.2847-.0914-.3757-.3926a.541.541,0,0,1-.0024-.2516.2751.2751,0,0,1,.1875-.2268.3058.3058,0,0,1,.0837-.01m0-2a2.3088,2.3088,0,0,0-.635.0879,2.2609,2.2609,0,0,0-1.5837,1.6945,2.5243,2.5243,0,0,0,.0364,1.2881,2.3742,2.3742,0,0,0,2.2893,1.811A2.706,2.706,0,0,0,29.9368,7.36,2.2422,2.2422,0,0,0,31.052,5.2365a2.7132,2.7132,0,0,0-2.6946-2.2837Z" fill="#fff"/><path d="M29.2578,7.6216A1.4461,1.4461,0,0,1,27.749,6.395a1.5541,1.5541,0,0,1,1.0361-1.7,1.7314,1.7314,0,0,1,.3535-.0488,1.235,1.235,0,0,1,.1914.0146,1.5557,1.5557,0,0,1,1.2314,1.3359,1.4138,1.4138,0,0,1-.2334,1.1475,1.2465,1.2465,0,0,1-.9229.4717C29.3779,7.6177,29.2862,7.6216,29.2578,7.6216Z" fill="#ffab24"/><path d="M29.1389,5.646a.2869.2869,0,0,1,.0386.0027c.22.03.3645.3177.3984.517.074.434-.1367.4434-.2615.4537-.0149.0012-.0339.0022-.0554.0022a.4748.4748,0,0,1-.521-.3733.5631.5631,0,0,1,.3188-.5906.2985.2985,0,0,1,.082-.0117m0-2a2.2981,2.2981,0,0,0-.6274.0875A2.5437,2.5437,0,0,0,26.76,6.5424a2.4462,2.4462,0,0,0,2.4993,2.0792c.0872,0,.1631-.0042.2231-.0093a2.2289,2.2289,0,0,0,1.6345-.8536A2.3855,2.3855,0,0,0,31.5476,5.83a2.5536,2.5536,0,0,0-2.0959-2.162,2.6035,2.6035,0,0,0-.3127-.0216Z" fill="#fff"/><path d="M28.7715,8.6577a1.1207,1.1207,0,0,1-.833-.36,1.5768,1.5768,0,0,1-.2207-1.6846,1.4576,1.4576,0,0,1,1.333-.9111c.0381,0,.126.0049.1631.01a.9774.9774,0,0,1,.1963.042,1.406,1.406,0,0,1,.8535.7764,1.32,1.32,0,0,1-.0684,1.123A1.7151,1.7151,0,0,1,28.7715,8.6577Z" fill="#ffab24"/><path d="M29.0515,6.7014a.4307.4307,0,0,1,.05.0028.332.332,0,0,1,.2063.4878.79.79,0,0,1-.5356.4657.1284.1284,0,0,1-.0986-.0394c-.23-.2484-.0564-.9169.3784-.9169m0-2h0a2.4452,2.4452,0,0,0-2.25,1.5122,2.5526,2.5526,0,0,0,.4045,2.7632,2.1366,2.1366,0,0,0,1.5664.6809,2.68,2.68,0,0,0,2.31-1.5425,2.335,2.335,0,0,0,.1077-1.9646,2.4,2.4,0,0,0-1.47-1.3486,2.0061,2.0061,0,0,0-.3936-.0852c-.0745-.0084-.199-.0154-.2737-.0154Z" fill="#fff"/></g><path d="M21.3732,15.2081a1.17,1.17,0,0,0-.1163,1.5449c.6444.76,1.6176.9328,2.1375.2693,0,0-.39-.7209.0353-1.1282a.8321.8321,0,0,1-.2962-.6507s-.5336.1024-.66-.1928C22.4737,15.0506,21.9048,15.7591,21.3732,15.2081Z" fill="#acafb2"/><path d="M21.4793,15.0478a.5934.5934,0,0,1,.1376-.2929.9187.9187,0,0,1,.2466-.2166c.1028-.0627.2364-.1427.3516-.0675a.47.47,0,0,1,.1825.4159.5907.5907,0,0,1-.832.3648A.2339.2339,0,0,1,21.4793,15.0478Z" fill="#acafb2"/><path d="M22.55,14.3541c.2108-.1136.7874.025.8649.2731a.2629.2629,0,0,1-.0762.235c-.1293.1073-.51.6394-.8673-.0013a.5434.5434,0,0,1-.0562-.2452A.2756.2756,0,0,1,22.55,14.3541Z" fill="#acafb2"/><path d="M23.5791,14.8306c.2211-.0171.4239.2326.5.42.1649.4081-.0389.4623-.1587.4992s-.51.1083-.6422-.24a.5629.5629,0,0,1,.1852-.645A.2938.2938,0,0,1,23.5791,14.8306Z" fill="#acafb2"/><path d="M23.73,15.8782a.3321.3321,0,0,1,.3058.4324c-.106.3916-.3857.6518-.5286.552C23.2189,16.6618,23.2585,15.9267,23.73,15.8782Z" fill="#acafb2"/><path d="M21.5062,9.6546a1.17,1.17,0,0,0-.1163,1.5449c.6444.76,1.6176.9328,2.1375.2693,0,0-.39-.7209.0353-1.1282a.8322.8322,0,0,1-.2962-.6507s-.5336.1024-.66-.1928C22.6067,9.4971,22.0379,10.2057,21.5062,9.6546Z" fill="#acafb2"/><path d="M21.6124,9.4943a.5934.5934,0,0,1,.1376-.2929.9188.9188,0,0,1,.2466-.2166c.1028-.0627.2364-.1427.3516-.0675a.47.47,0,0,1,.1825.4159.5907.5907,0,0,1-.832.3648A.2339.2339,0,0,1,21.6124,9.4943Z" fill="#acafb2"/><path d="M22.6827,8.8006c.2108-.1136.7874.025.8649.2732a.2629.2629,0,0,1-.0762.235c-.1293.1073-.51.6394-.8673-.0013a.5432.5432,0,0,1-.0562-.2452A.2756.2756,0,0,1,22.6827,8.8006Z" fill="#acafb2"/><path d="M23.7122,9.2771c.2211-.0171.4239.2326.5.42.1649.4081-.0389.4623-.1587.4992s-.51.1083-.6422-.24a.5628.5628,0,0,1,.1852-.645A.2938.2938,0,0,1,23.7122,9.2771Z" fill="#acafb2"/><path d="M23.8629,10.3247a.3321.3321,0,0,1,.3058.4324c-.106.3916-.3857.6518-.5286.552C23.352,11.1083,23.3915,10.3733,23.8629,10.3247Z" fill="#acafb2"/><path d="M26.4756,11.3941a1.17,1.17,0,0,0-.1163,1.5449c.6444.76,1.6176.9328,2.1375.2693,0,0-.39-.7209.0353-1.1282a.8321.8321,0,0,1-.2962-.6507s-.5336.1024-.66-.1928C27.5761,11.2365,27.0073,11.9451,26.4756,11.3941Z" fill="#acafb2"/><path d="M26.5818,11.2338a.5934.5934,0,0,1,.1376-.2929.9188.9188,0,0,1,.2466-.2166c.1028-.0627.2364-.1427.3516-.0675a.47.47,0,0,1,.1825.4159.5907.5907,0,0,1-.832.3648A.2339.2339,0,0,1,26.5818,11.2338Z" fill="#acafb2"/><path d="M27.6521,10.54c.2108-.1136.7874.025.8649.2731a.2629.2629,0,0,1-.0762.235c-.1293.1073-.51.6394-.8673-.0013a.5432.5432,0,0,1-.0562-.2452A.2756.2756,0,0,1,27.6521,10.54Z" fill="#acafb2"/><path d="M28.6816,11.0165c.2211-.0171.4239.2326.5.42.1649.4081-.0389.4623-.1587.4992s-.51.1083-.6422-.24a.5629.5629,0,0,1,.1852-.645A.2938.2938,0,0,1,28.6816,11.0165Z" fill="#acafb2"/><path d="M28.8323,12.0641a.3321.3321,0,0,1,.3058.4324c-.106.3916-.3857.6518-.5286.552C28.3214,12.8477,28.3609,12.1127,28.8323,12.0641Z" fill="#acafb2"/><path d="M5.3763,23.0267a1.17,1.17,0,0,0,.187,1.5379c.78.62,1.7683.6,2.149-.1524,0,0-.5231-.6311-.1852-1.1134a.8319.8319,0,0,1-.4173-.5805s-.5034.2044-.6847-.0605C6.425,22.6578,6.0052,23.4636,5.3763,23.0267Z" fill="#acafb2"/><path d="M5.4492,22.8488a.593.593,0,0,1,.0779-.3142.918.918,0,0,1,.2-.2605c.0886-.0815.2041-.186.3317-.1347a.4693.4693,0,0,1,.26.3724c.0477.3093-.4689.6776-.7449.52A.2341.2341,0,0,1,5.4492,22.8488Z" fill="#acafb2"/><path d="M6.3638,21.96c.1846-.1525.7771-.1288.9015.0995a.2628.2628,0,0,1-.0289.2454c-.1058.13-.3755.7265-.8509.1677a.5442.5442,0,0,1-.1029-.23A.2757.2757,0,0,1,6.3638,21.96Z" fill="#acafb2"/><path d="M7.4665,22.2266c.2135-.06.4611.1456.5719.3146.2413.3681.052.461-.0584.5205a.4984.4984,0,0,1-.6766-.11.5628.5628,0,0,1,.056-.6687A.2946.2946,0,0,1,7.4665,22.2266Z" fill="#acafb2"/><path d="M7.8184,23.2247s.4118-.04.3841.3646-.2513.7145-.411.6444C7.47,24.0929,7.3655,23.3643,7.8184,23.2247Z" fill="#acafb2"/><path d="M2.1824,27.6351a1.17,1.17,0,0,0,.2662,1.5262c.8113.579,1.797.5075,2.1383-.2632,0,0-.5551-.6032-.2425-1.1024a.832.832,0,0,1-.4468-.5582s-.4922.23-.687-.0251C3.2107,27.2124,2.8331,28.0388,2.1824,27.6351Z" fill="#acafb2"/><path d="M2.246,27.4537a.5929.5929,0,0,1,.0616-.3178.918.918,0,0,1,.1859-.27c.0842-.0859.1942-.1963.3243-.1517a.4693.4693,0,0,1,.2789.3585c.0636.3064-.4333.7009-.717.5576A.2341.2341,0,0,1,2.246,27.4537Z" fill="#acafb2"/><path d="M3.1135,26.5185c.1765-.1618.7694-.1688.9054.0527a.2628.2628,0,0,1-.0162.2465c-.0989.1357-.3374.7449-.8411.2114a.544.544,0,0,1-.1146-.2239A.2757.2757,0,0,1,3.1135,26.5185Z" fill="#acafb2"/><path d="M4.2284,26.728c.21-.0708.468.1215.5874.2846.26.3552.0757.4577-.0314.5229a.4984.4984,0,0,1-.6814-.0747.5628.5628,0,0,1,.0214-.6707A.2945.2945,0,0,1,4.2284,26.728Z" fill="#acafb2"/><path d="M4.6279,27.704s.4091-.0613.4025.3442-.214.7265-.3771.6648C4.3248,28.589,4.1828,27.8667,4.6279,27.704Z" fill="#acafb2"/><path d="M7.4327,28.4514a1.17,1.17,0,0,0,.2662,1.5262c.8113.5791,1.797.5075,2.1383-.2632,0,0-.5551-.6032-.2425-1.1024a.8319.8319,0,0,1-.4467-.5582s-.4922.23-.687-.0251C8.461,28.0287,8.0834,28.8551,7.4327,28.4514Z" fill="#acafb2"/><path d="M7.4963,28.27a.5929.5929,0,0,1,.0616-.3178.9183.9183,0,0,1,.1859-.27c.0842-.0859.1942-.1963.3243-.1517a.4693.4693,0,0,1,.2789.3585c.0636.3064-.4333.7009-.717.5576A.234.234,0,0,1,7.4963,28.27Z" fill="#acafb2"/><path d="M8.3638,27.3348c.1765-.1618.7694-.1688.9054.0527a.2628.2628,0,0,1-.0162.2465c-.0989.1357-.3374.7449-.8411.2114a.5439.5439,0,0,1-.1146-.2239A.2757.2757,0,0,1,8.3638,27.3348Z" fill="#acafb2"/><path d="M9.4787,27.5442c.21-.0708.468.1215.5874.2846.26.3552.0757.4577-.0314.5229a.4984.4984,0,0,1-.6814-.0747.5628.5628,0,0,1,.0214-.6707A.2946.2946,0,0,1,9.4787,27.5442Z" fill="#acafb2"/><path d="M9.8817,28.5229s.4091-.0613.4024.3442-.214.7265-.3771.6648C9.5787,29.4079,9.4367,28.6857,9.8817,28.5229Z" fill="#acafb2"/><path d="M10.6042,23.9988a1.17,1.17,0,0,0,.0669,1.5478c.73.6789,1.7164.7353,2.1544.015,0,0-.4725-.67-.0982-1.1245a.8319.8319,0,0,1-.3709-.6112s-.5178.1646-.678-.1135C11.6785,23.7124,11.1973,24.4832,10.6042,23.9988Z" fill="#acafb2"/><path d="M10.6908,23.8271a.5929.5929,0,0,1,.1021-.3071.9183.9183,0,0,1,.2193-.2442c.0946-.0743.2179-.17.3411-.1086a.4693.4693,0,0,1,.23.3915c.0235.3121-.52.6391-.783.46A.234.234,0,0,1,10.6908,23.8271Z" fill="#acafb2"/><path d="M11.6717,23.0118c.1959-.1377.7847-.068.891.1692a.2628.2628,0,0,1-.0479.2424c-.1156.1218-.4308.6951-.8613.1011a.5439.5439,0,0,1-.0848-.2368A.2757.2757,0,0,1,11.6717,23.0118Z" fill="#acafb2"/><path d="M12.75,23.3634c.2175-.0431.4484.1809.5457.3581.2119.3858.016.4637-.0986.5144s-.4935.1677-.666-.162a.5628.5628,0,0,1,.1078-.6623A.2946.2946,0,0,1,12.75,23.3634Z" fill="#acafb2"/><path d="M13.0236,24.3859s.4136-.008.3546.3933-.306.6928-.46.6106C12.6088,25.2244,12.5612,24.49,13.0236,24.3859Z" fill="#acafb2"/><path d="M3.9012,32.7134A1.17,1.17,0,0,0,4.1674,34.24c.8113.5791,1.797.5075,2.1383-.2632,0,0-.5551-.6032-.2425-1.1024a.8319.8319,0,0,1-.4467-.5582s-.4922.23-.687-.0251C4.9295,32.2908,4.5519,33.1172,3.9012,32.7134Z" fill="#acafb2"/><path d="M3.9649,32.532a.5929.5929,0,0,1,.0616-.3178.9183.9183,0,0,1,.1859-.27c.0842-.0859.1942-.1963.3243-.1517a.4693.4693,0,0,1,.2789.3585c.0636.3064-.4333.7009-.717.5576A.234.234,0,0,1,3.9649,32.532Z" fill="#acafb2"/><path d="M4.8323,31.5969c.1765-.1618.7694-.1688.9054.0527a.2628.2628,0,0,1-.0162.2465c-.0989.1357-.3374.7449-.8411.2114a.5439.5439,0,0,1-.1146-.2239A.2757.2757,0,0,1,4.8323,31.5969Z" fill="#acafb2"/><path d="M5.9472,31.8063c.21-.0708.468.1215.5874.2846.26.3552.0757.4577-.0314.5229a.4984.4984,0,0,1-.6814-.0747.5628.5628,0,0,1,.0214-.6707A.2946.2946,0,0,1,5.9472,31.8063Z" fill="#acafb2"/><path d="M6.35,32.7849s.4091-.0613.4024.3442-.214.7265-.3771.6648C6.0472,33.67,5.9052,32.9477,6.35,32.7849Z" fill="#acafb2"/><path d="M17.2293,12.86a1.17,1.17,0,0,0-.2073,1.5353c.5985.797,1.56,1.0266,2.1179.395,0,0-.3469-.7427.1018-1.1242a.8321.8321,0,0,1-.2573-.667s-.5387.0707-.6473-.2314C18.3372,12.7674,17.7275,13.4412,17.2293,12.86Z" fill="#acafb2"/><path d="M17.3447,12.706a.5934.5934,0,0,1,.1547-.2843.9187.9187,0,0,1,.2589-.2017c.1063-.0565.2444-.1285.3549-.0467a.47.47,0,0,1,.1577.426.5907.5907,0,0,1-.852.3151A.2339.2339,0,0,1,17.3447,12.706Z" fill="#acafb2"/><path d="M18.4541,12.0766c.2171-.101.7845.0715.8473.3237a.2629.2629,0,0,1-.09.23c-.1354.0995-.5468.6082-.8657-.0525a.5434.5434,0,0,1-.0416-.2481A.2756.2756,0,0,1,18.4541,12.0766Z" fill="#acafb2"/><path d="M19.4537,12.613c.2217-.004.4094.2572.474.4488.1405.4171-.0661.4592-.1879.4889s-.5154.078-.627-.277a.5629.5629,0,0,1,.223-.6329A.2938.2938,0,0,1,19.4537,12.613Z" fill="#acafb2"/><path d="M19.5423,13.6676a.3321.3321,0,0,1,.28.45c-.1289.3846-.4235.628-.56.52C18.9861,14.42,19.0689,13.6883,19.5423,13.6676Z" fill="#acafb2"/><path d="M31.584,7.5878a1.17,1.17,0,0,0-.3552,1.508c.5183.8514,1.4528,1.1731,2.07.5986,0,0-.2732-.7729.21-1.109a.8321.8321,0,0,1-.1913-.6889s-.543.0181-.6218-.2931C32.6957,7.6034,32.0235,8.2149,31.584,7.5878Z" fill="#acafb2"/><path d="M31.7139,7.446a.5934.5934,0,0,1,.1815-.2679.9187.9187,0,0,1,.2773-.1756c.1113-.0459.2558-.1042.3578-.012a.47.47,0,0,1,.1156.4392.5907.5907,0,0,1-.8786.2309A.2339.2339,0,0,1,31.7139,7.446Z" fill="#acafb2"/><path d="M32.879,6.9273c.2259-.0794.7739.1472.8119.4044a.2629.2629,0,0,1-.1118.22c-.1444.0859-.6032.5523-.8565-.1362a.5434.5434,0,0,1-.0174-.2509A.2756.2756,0,0,1,32.879,6.9273Z" fill="#acafb2"/><path d="M33.8219,7.5581c.2211.0175.3826.2957.4283.4926.0994.4288-.11.4506-.2344.4684s-.5205.0276-.5971-.3365a.5629.5629,0,0,1,.2833-.6083A.2938.2938,0,0,1,33.8219,7.5581Z" fill="#acafb2"/><path d="M33.8077,8.6164a.3321.3321,0,0,1,.2348.4747c-.1656.37-.4824.5839-.6081.4631C33.1812,9.311,33.3346,8.591,33.8077,8.6164Z" fill="#acafb2"/><path d="M32.3112,2.6766a1.17,1.17,0,0,0-.3552,1.508c.5183.8513,1.4528,1.1731,2.07.5986,0,0-.2732-.7728.21-1.109a.8322.8322,0,0,1-.1913-.6889s-.543.0181-.6218-.2931C33.4228,2.6923,32.7507,3.3037,32.3112,2.6766Z" fill="#acafb2"/><path d="M32.441,2.5348a.5934.5934,0,0,1,.1815-.2679A.9188.9188,0,0,1,32.9,2.0913c.1113-.0459.2558-.1042.3578-.012a.47.47,0,0,1,.1156.4392.5907.5907,0,0,1-.8786.2309A.2339.2339,0,0,1,32.441,2.5348Z" fill="#acafb2"/><path d="M33.6061,2.0161c.2259-.0794.7739.1472.8119.4044a.2629.2629,0,0,1-.1118.22c-.1444.0859-.6032.5523-.8565-.1362a.5432.5432,0,0,1-.0174-.2509A.2756.2756,0,0,1,33.6061,2.0161Z" fill="#acafb2"/><path d="M34.549,2.6469c.2211.0175.3826.2957.4283.4926.0994.4288-.11.4506-.2344.4684s-.5205.0276-.5971-.3365a.5628.5628,0,0,1,.2833-.6083A.2938.2938,0,0,1,34.549,2.6469Z" fill="#acafb2"/><path d="M34.5349,3.7052A.3321.3321,0,0,1,34.77,4.18c-.1656.37-.4824.5839-.6081.463C33.9083,4.4,34.0617,3.68,34.5349,3.7052Z" fill="#acafb2"/><path d="M26.9419,5.5463a1.17,1.17,0,0,0-.4436,1.4844c.4672.88,1.381,1.2568,2.0306.72,0,0-.2272-.7876.2755-1.0946a.8321.8321,0,0,1-.15-.6989s-.5432-.014-.6034-.3293C28.0507,5.6274,27.3436,6.1982,26.9419,5.5463Z" fill="#acafb2"/><path d="M27.08,5.4124a.5934.5934,0,0,1,.197-.2568.9187.9187,0,0,1,.2872-.159c.1138-.0393.2615-.0889.3579.0091a.47.47,0,0,1,.0895.4453.5907.5907,0,0,1-.8907.1787A.2339.2339,0,0,1,27.08,5.4124Z" fill="#acafb2"/><path d="M28.2736,4.9632c.23-.066.7639.1926.7866.4516a.2629.2629,0,0,1-.1246.2133c-.1492.0772-.6348.5158-.847-.1865a.5434.5434,0,0,1-.0025-.2515A.2756.2756,0,0,1,28.2736,4.9632Z" fill="#acafb2"/><path d="M29.1776,5.6486c.22.03.3645.3178.3984.517.0739.4339-.1367.4433-.2617.4538s-.5212-.0031-.5762-.3712a.5629.5629,0,0,1,.3187-.5905A.2938.2938,0,0,1,29.1776,5.6486Z" fill="#acafb2"/><path d="M29.101,6.7042a.3321.3321,0,0,1,.2064.4877c-.1872.36-.516.5544-.6344.4264C28.4346,7.3606,28.63,6.651,29.101,6.7042Z" fill="#acafb2"/></g></g></svg>