<svg xmlns="http://www.w3.org/2000/svg" width="37.0029" height="36.6221" viewBox="0 0 37.0029 36.6221"><title>migration-amber</title><g id="Layer_2" data-name="Layer 2"><g id="Layer_1-2" data-name="Layer 1"><g opacity="0.8"><path d="M22.55,18.4343a2.7424,2.7424,0,0,1-2.0557-1.0352,2.1379,2.1379,0,0,1,.1611-2.8877.9978.9978,0,0,1,.7178-.3037h.002a1.004,1.004,0,0,1,.4277.0967,1.0493,1.0493,0,0,1,.6611-.24.8172.8172,0,0,1,.1289.0088,1.0886,1.0886,0,0,1,.4551.1719c.0225-.001.0439-.002.0664-.002a1.0183,1.0183,0,0,1,1.0156.9346.9668.9668,0,0,1,.1182,1.2959.7316.7316,0,0,0,.0254.0723.9988.9988,0,0,1-.0918,1.0938A2.0351,2.0351,0,0,1,22.55,18.4343Z" fill="#ffab24"/><path d="M22.4734,15.0507c.0745.1743.2913.21.4561.21a1.2057,1.2057,0,0,0,.2039-.0171.8325.8325,0,0,0,.2961.6506c-.4255.4072-.0354,1.1282-.0354,1.1282a1.0443,1.0443,0,0,1-.8447.4121,1.766,1.766,0,0,1-1.2927-.6814,1.17,1.17,0,0,1,.1165-1.5448.6044.6044,0,0,0,.4419.21,1.0035,1.0035,0,0,0,.6584-.3674m0-2a2,2,0,0,0-.8223.177,2.0025,2.0025,0,0,0-.2751-.0194h-.0027a2,2,0,0,0-1.4358.6077,3.1118,3.1118,0,0,0-.2065,4.23,3.7386,3.7386,0,0,0,2.8186,1.3884,3.0545,3.0545,0,0,0,2.4192-1.1788,2,2,0,0,0,.3611-1.7373,2,2,0,0,0-.2344-1.731,1.8621,1.8621,0,0,0-.5977-1.063,1.9537,1.9537,0,0,0-1.2085-.5,2.0031,2.0031,0,0,0-.8159-.1738Z" fill="#fff"/><path d="M21.795,16.3269a1.324,1.324,0,0,1-.8838-.3193,1.2353,1.2353,0,0,1-.4287-1.041,1.5389,1.5389,0,0,1,.3477-.8281,1.8593,1.8593,0,0,1,.5156-.4551,1.4437,1.4437,0,0,1,.7666-.2432,1.1866,1.1866,0,0,1,.6494.1924,1.4671,1.4671,0,0,1,.6348,1.2988A1.58,1.58,0,0,1,21.795,16.3269Z" fill="#ffab24"/><path d="M22.1119,14.44a.1838.1838,0,0,1,.103.0305.47.47,0,0,1,.1826.4159c-.01.2346-.3381.44-.6028.44a.3433.3433,0,0,1-.2292-.0748.2334.2334,0,0,1-.0862-.2036.5929.5929,0,0,1,.1375-.293.9182.9182,0,0,1,.2466-.2167.5239.5239,0,0,1,.2485-.098m0-2h0a2.437,2.437,0,0,0-1.2891.39,2.9,2.9,0,0,0-.7844.6965,2.52,2.52,0,0,0-.553,1.3676,2.2243,2.2243,0,0,0,.77,1.8682,2.3444,2.3444,0,0,0,1.54.5637,2.5706,2.5706,0,0,0,2.6008-2.3523A2.4706,2.4706,0,0,0,23.31,12.797a2.1837,2.1837,0,0,0-1.1978-.3567Z" fill="#fff"/><path d="M22.8555,16.1716a1.4211,1.4211,0,0,1-1.2578-.8232,1.5122,1.5122,0,0,1-.1826-.7588,1.2679,1.2679,0,0,1,.666-1.1191,1.4113,1.4113,0,0,1,.6729-.1562,1.6534,1.6534,0,0,1,1.6152,1.0166,1.2436,1.2436,0,0,1-.3936,1.3018A1.5675,1.5675,0,0,1,22.8555,16.1716Z" fill="#ffab24"/><path d="M22.7542,14.3141c.2556,0,.6013.1251.66.3132a.2627.2627,0,0,1-.0762.235c-.0825.0685-.2668.3093-.4822.3093-.1228,0-.2554-.078-.385-.3105a.5425.5425,0,0,1-.0562-.2452.2752.2752,0,0,1,.1345-.2616.4452.4452,0,0,1,.2048-.04m0-2a2.4029,2.4029,0,0,0-1.1536.28,2.2613,2.2613,0,0,0-1.1855,1.9935,2.5291,2.5291,0,0,0,.3105,1.25,2.4112,2.4112,0,0,0,2.13,1.3341,2.5745,2.5745,0,0,0,1.83-.8309,2.2433,2.2433,0,0,0,.6384-2.308,2.6573,2.6573,0,0,0-2.57-1.7186Z" fill="#fff"/><path d="M23.7012,16.782a1.4166,1.4166,0,0,1-1.3584-.915,1.555,1.555,0,0,1,.6494-1.8838,1.2919,1.2919,0,0,1,.51-.1494h.0088a1.6176,1.6176,0,0,1,1.4951,1.041,1.417,1.417,0,0,1,.0156,1.1729,1.249,1.249,0,0,1-.8008.6563A1.8071,1.8071,0,0,1,23.7012,16.782Z" fill="#ffab24"/><path d="M23.6006,14.83c.2126,0,.4048.24.478.4209.1648.4081-.0388.4623-.1587.4991a.778.778,0,0,1-.218.0321.4185.4185,0,0,1-.4243-.2717.5631.5631,0,0,1,.1853-.6449.2952.2952,0,0,1,.116-.0347l.0217-.0009m0-2c-.0518,0-.125.0028-.1765.0068a2.2876,2.2876,0,0,0-.9.2626A2.5446,2.5446,0,0,0,21.408,16.22,2.426,2.426,0,0,0,23.702,17.782a2.778,2.778,0,0,0,.8059-.12,2.23,2.23,0,0,0,1.416-1.1835,2.3854,2.3854,0,0,0,.0093-1.9762,2.6034,2.6034,0,0,0-2.3325-1.672Z" fill="#fff"/><path d="M23.5762,17.8845a1.2439,1.2439,0,0,1-.6416-.2021A1.5888,1.5888,0,0,1,22.38,15.99a1.4313,1.4313,0,0,1,1.249-1.1064c.0332-.0029.0664-.0049.1006-.0049.0322,0,.0645.002.0967.0049a1.4032,1.4032,0,0,1,1.002.5752A1.3207,1.3207,0,0,1,25,16.573,1.6123,1.6123,0,0,1,23.5762,17.8845Z" fill="#ffab24"/><path d="M23.73,15.8783a.3321.3321,0,0,1,.3059.4324c-.0906.3347-.3081.5734-.4585.5734a.12.12,0,0,1-.07-.0214c-.2881-.2008-.2485-.9358.2227-.9844m0-2a2.02,2.02,0,0,0-.2051.01,2.4414,2.4414,0,0,0-2.1128,1.8534,2.571,2.571,0,0,0,.9517,2.7612,2.1083,2.1083,0,0,0,1.2136.3806,2.5756,2.5756,0,0,0,2.3892-2.051,2.3353,2.3353,0,0,0-.3149-1.9417,2.4,2.4,0,0,0-1.7246-1.0033c-.0654-.0065-.1313-.01-.197-.01Z" fill="#fff"/><path d="M22.6827,12.8806a2.7445,2.7445,0,0,1-2.0557-1.0342,2.1377,2.1377,0,0,1,.1611-2.8877.9994.9994,0,0,1,.7178-.3037h.001a1.0008,1.0008,0,0,1,.4277.0967,1.0484,1.0484,0,0,1,.6621-.2422.953.953,0,0,1,.1289.0088,1.0982,1.0982,0,0,1,.4551.1729c.0225-.001.0449-.002.0674-.002a1.018,1.018,0,0,1,1.0156.9355.9676.9676,0,0,1,.3125.69.95.95,0,0,1-.1953.6045.585.585,0,0,0,.0322.0859,1.0267,1.0267,0,0,1-.0977,1.0791A2.0351,2.0351,0,0,1,22.6827,12.8806Z" fill="#ffab24"/><path d="M22.6065,9.4972c.0745.1743.2913.21.4561.21a1.2057,1.2057,0,0,0,.2039-.0171.8325.8325,0,0,0,.2961.6506c-.4253.4072-.0352,1.1282-.0352,1.1282a1.0448,1.0448,0,0,1-.845.4121A1.766,1.766,0,0,1,21.39,11.2a1.17,1.17,0,0,1,.1165-1.5448.6048.6048,0,0,0,.4419.21,1.0035,1.0035,0,0,0,.6584-.3674m0-2a2,2,0,0,0-.8223.177,2.006,2.006,0,0,0-.2754-.0194h-.0024a2,2,0,0,0-1.4358.6077,3.1118,3.1118,0,0,0-.2065,4.23,3.739,3.739,0,0,0,2.8186,1.3884,3.0556,3.0556,0,0,0,2.4192-1.1785,2.001,2.001,0,0,0,.3613-1.7382,2.0006,2.0006,0,0,0-.2346-1.73,1.8621,1.8621,0,0,0-.5977-1.063,1.9537,1.9537,0,0,0-1.2085-.5,1.9987,1.9987,0,0,0-.8159-.1738Z" fill="#fff"/><path d="M21.9278,10.7732a1.3317,1.3317,0,0,1-.8857-.32,1.2374,1.2374,0,0,1-.4268-1.04,1.5346,1.5346,0,0,1,.3477-.8271,1.8815,1.8815,0,0,1,.5117-.4541,1.4633,1.4633,0,0,1,.7705-.2441,1.1866,1.1866,0,0,1,.6494.1924,1.4638,1.4638,0,0,1,.6348,1.2988A1.5793,1.5793,0,0,1,21.9278,10.7732Z" fill="#ffab24"/><path d="M22.2449,8.8868a.1838.1838,0,0,1,.103.0305.47.47,0,0,1,.1826.4159c-.01.2346-.3381.44-.6028.44a.3433.3433,0,0,1-.2292-.0748.2334.2334,0,0,1-.0862-.2036.5929.5929,0,0,1,.1375-.293.9219.9219,0,0,1,.2466-.2167.5239.5239,0,0,1,.2485-.098m0-2h0a2.437,2.437,0,0,0-1.2891.39,2.9047,2.9047,0,0,0-.7822.6936,2.5241,2.5241,0,0,0-.5552,1.37,2.2243,2.2243,0,0,0,.77,1.8682,2.3444,2.3444,0,0,0,1.54.5637,2.5706,2.5706,0,0,0,2.6008-2.3523,2.4686,2.4686,0,0,0-1.0859-2.1771,2.1837,2.1837,0,0,0-1.1978-.3567Z" fill="#fff"/><path d="M22.9883,10.6179a1.4211,1.4211,0,0,1-1.2578-.8232,1.5354,1.5354,0,0,1-.1826-.7451A1.2756,1.2756,0,0,1,22.21,7.92a1.4135,1.4135,0,0,1,.6768-.1592A1.6577,1.6577,0,0,1,24.502,8.7732a1.259,1.259,0,0,1-.3848,1.3A1.5872,1.5872,0,0,1,22.9883,10.6179Z" fill="#ffab24"/><path d="M22.887,8.76c.2559,0,.6016.1252.66.3134a.2627.2627,0,0,1-.0762.235c-.0823.0684-.2668.3093-.4822.3093-.1228,0-.2554-.0781-.385-.3105a.5425.5425,0,0,1-.0562-.2452.2756.2756,0,0,1,.1345-.2617.4448.4448,0,0,1,.2046-.04m0-2h0a2.4054,2.4054,0,0,0-1.1523.2791,2.2638,2.2638,0,0,0-1.1863,1.9941,2.529,2.529,0,0,0,.3105,1.25,2.4113,2.4113,0,0,0,2.13,1.334,2.5735,2.5735,0,0,0,1.83-.8311,2.2428,2.2428,0,0,0,.6384-2.3079A2.6575,2.6575,0,0,0,22.887,6.76Z" fill="#fff"/><path d="M23.835,11.2283a1.4133,1.4133,0,0,1-1.3584-.917A1.5484,1.5484,0,0,1,23.1251,8.43a1.2484,1.2484,0,0,1,.51-.15h.0088a1.6187,1.6187,0,0,1,1.4951,1.041,1.4125,1.4125,0,0,1,.0146,1.1758,1.2441,1.2441,0,0,1-.8076.6553A1.7854,1.7854,0,0,1,23.835,11.2283Z" fill="#ffab24"/><path d="M23.7337,9.2764c.2126,0,.4048.24.478.4208.165.4082-.0388.4624-.1587.4993a.778.778,0,0,1-.218.0321.4184.4184,0,0,1-.4241-.2717.5627.5627,0,0,1,.1851-.6449.2952.2952,0,0,1,.116-.0347l.0217-.0009m0-2c-.0518,0-.125.0028-.1765.0068a2.2876,2.2876,0,0,0-.9.2626,2.544,2.544,0,0,0-1.1155,3.123,2.425,2.425,0,0,0,2.293,1.56,2.778,2.778,0,0,0,.8059-.12,2.23,2.23,0,0,0,1.4163-1.1838,2.3852,2.3852,0,0,0,.0088-1.9767,2.5584,2.5584,0,0,0-2.3323-1.6711Z" fill="#fff"/><path d="M23.71,12.3308a1.2567,1.2567,0,0,1-.6406-.2,1.59,1.59,0,0,1-.5566-1.6914A1.4332,1.4332,0,0,1,23.7588,9.33c.0342-.0029.0693-.0049.1035-.0049s.0664.002.0986.0049a1.41,1.41,0,0,1,1.001.5771,1.3217,1.3217,0,0,1,.1709,1.1133A1.6093,1.6093,0,0,1,23.71,12.3308Z" fill="#ffab24"/><path d="M23.8629,10.3248a.332.332,0,0,1,.3057.4324c-.0906.3347-.3081.5734-.4585.5734a.12.12,0,0,1-.07-.0214c-.2881-.2008-.2485-.9358.2229-.9844m0-2a2.02,2.02,0,0,0-.2051.01,2.4412,2.4412,0,0,0-2.113,1.8534,2.571,2.571,0,0,0,.9517,2.7612,2.1085,2.1085,0,0,0,1.2136.3806,2.5756,2.5756,0,0,0,2.3892-2.051,2.3352,2.3352,0,0,0-.3149-1.9417A2.4,2.4,0,0,0,24.06,8.3346c-.0654-.0065-.1313-.01-.197-.01Z" fill="#fff"/><path d="M27.6524,14.62a2.7445,2.7445,0,0,1-2.0557-1.0342,2.1377,2.1377,0,0,1,.1611-2.8877.9994.9994,0,0,1,.7178-.3037h.001a1.0051,1.0051,0,0,1,.4287.0967,1.0493,1.0493,0,0,1,.6611-.24.8172.8172,0,0,1,.1289.0088,1.0715,1.0715,0,0,1,.4541.1719q.0337-.0029.0674-.0029a1.0182,1.0182,0,0,1,1.0156.9346A.9664.9664,0,0,1,29.35,12.66a.5835.5835,0,0,0,.0342.0859,1.0266,1.0266,0,0,1-.1006,1.08A2.031,2.031,0,0,1,27.6524,14.62Z" fill="#ffab24"/><path d="M27.576,11.2367c.0745.1742.291.21.4558.21a1.2023,1.2023,0,0,0,.2041-.0172.8316.8316,0,0,0,.2961.6506c-.4255.4073-.0354,1.1283-.0354,1.1283a1.0442,1.0442,0,0,1-.8447.412,1.7659,1.7659,0,0,1-1.2927-.6813,1.17,1.17,0,0,1,.1162-1.5449.6048.6048,0,0,0,.4421.21,1.0036,1.0036,0,0,0,.6584-.3673m0-2a2,2,0,0,0-.8223.1769,2.01,2.01,0,0,0-.2756-.0194h-.0024a2,2,0,0,0-1.4358.6077,3.1116,3.1116,0,0,0-.2061,4.23A3.7382,3.7382,0,0,0,27.6519,15.62a3.055,3.055,0,0,0,2.4192-1.1786,2,2,0,0,0,.3611-1.7375,2.0006,2.0006,0,0,0-.2341-1.7308,1.8636,1.8636,0,0,0-.5974-1.0629,1.9544,1.9544,0,0,0-1.2092-.5,2.0016,2.0016,0,0,0-.8157-.1737Z" fill="#fff"/><path d="M26.8975,12.5125a1.3317,1.3317,0,0,1-.8857-.32,1.2383,1.2383,0,0,1-.4268-1.0391,1.5462,1.5462,0,0,1,.3418-.8223,1.8789,1.8789,0,0,1,.5215-.4619,1.4439,1.4439,0,0,1,.7656-.2422,1.1922,1.1922,0,0,1,.65.1924,1.4693,1.4693,0,0,1,.6348,1.2988A1.5793,1.5793,0,0,1,26.8975,12.5125Z" fill="#ffab24"/><path d="M27.2142,10.6263a.1846.1846,0,0,1,.1033.0305.47.47,0,0,1,.1826.4159c-.01.2345-.3381.44-.6025.44a.3436.3436,0,0,1-.2295-.075.2342.2342,0,0,1-.0864-.2036.5933.5933,0,0,1,.1377-.293.92.92,0,0,1,.2466-.2166.52.52,0,0,1,.2483-.098m0-2h0a2.4354,2.4354,0,0,0-1.2905.3911,2.8919,2.8919,0,0,0-.782.6943,2.5217,2.5217,0,0,0-.5542,1.3687,2.2293,2.2293,0,0,0,.77,1.868,2.3439,2.3439,0,0,0,1.54.564A2.5705,2.5705,0,0,0,29.4981,11.16a2.47,2.47,0,0,0-1.0869-2.1777,2.1847,2.1847,0,0,0-1.197-.3561Z" fill="#fff"/><path d="M27.959,12.3582a1.4225,1.4225,0,0,1-1.26-.8252,1.5155,1.5155,0,0,1-.1816-.7578,1.2707,1.2707,0,0,1,.6582-1.1143A1.41,1.41,0,0,1,27.8565,9.5a1.6534,1.6534,0,0,1,1.6152,1.0166,1.2481,1.2481,0,0,1-.3857,1.2959A1.5784,1.5784,0,0,1,27.959,12.3582Z" fill="#ffab24"/><path d="M27.8567,10.5c.2556,0,.6013.1251.66.3134a.2629.2629,0,0,1-.0762.235c-.0825.0684-.2668.3092-.4824.3092-.1226,0-.2554-.078-.385-.3105a.5452.5452,0,0,1-.0562-.2451.276.276,0,0,1,.1348-.2617.4452.4452,0,0,1,.2048-.04m0-2a2.4029,2.4029,0,0,0-1.1536.28,2.2643,2.2643,0,0,0-1.1858,1.99,2.5345,2.5345,0,0,0,.3079,1.2488,2.4152,2.4152,0,0,0,2.1331,1.339A2.5753,2.5753,0,0,0,29.79,12.525a2.244,2.244,0,0,0,.6365-2.3073A2.6566,2.6566,0,0,0,27.8567,8.5Z" fill="#fff"/><path d="M28.8047,12.9675a1.4179,1.4179,0,0,1-1.3594-.915,1.5534,1.5534,0,0,1,.6494-1.8828,1.2889,1.2889,0,0,1,.5117-.15h.0078a1.6125,1.6125,0,0,1,1.4941,1.0449,1.412,1.412,0,0,1,.0156,1.1689,1.2475,1.2475,0,0,1-.8008.6572A1.8185,1.8185,0,0,1,28.8047,12.9675Z" fill="#ffab24"/><path d="M28.7032,11.0157c.2126,0,.4045.24.478.4209.1648.4081-.0388.4623-.1587.4991a.7777.7777,0,0,1-.2183.0322.4184.4184,0,0,1-.4241-.2717.5633.5633,0,0,1,.1853-.645.2952.2952,0,0,1,.116-.0347l.0217-.0009m0-2c-.0518,0-.125.0028-.1765.0068a2.2876,2.2876,0,0,0-.9.2626A2.546,2.546,0,0,0,26.51,12.406a2.4263,2.4263,0,0,0,2.2939,1.562,2.7728,2.7728,0,0,0,.8081-.1212,2.2286,2.2286,0,0,0,1.4141-1.1829,2.3854,2.3854,0,0,0,.0093-1.9762,2.5606,2.5606,0,0,0-2.3325-1.672Z" fill="#fff"/><path d="M28.68,14.07a1.2445,1.2445,0,0,1-.6426-.2021,1.5891,1.5891,0,0,1-.5547-1.69A1.4324,1.4324,0,0,1,28.73,11.0691c.0342-.0029.0684-.0049.1025-.0049s.0664.002.0986.0049a1.41,1.41,0,0,1,1.001.5771,1.3223,1.3223,0,0,1,.1709,1.1133A1.6093,1.6093,0,0,1,28.68,14.07Z" fill="#ffab24"/><path d="M28.8321,12.0642a.3321.3321,0,0,1,.3059.4324c-.0908.3347-.3081.5735-.4587.5735a.12.12,0,0,1-.07-.0214c-.2878-.2009-.2483-.9359.2229-.9845m0-2a2.02,2.02,0,0,0-.2051.01,2.4414,2.4414,0,0,0-2.1128,1.8527,2.5717,2.5717,0,0,0,.95,2.7614,2.1134,2.1134,0,0,0,1.2148.3813,2.5759,2.5759,0,0,0,2.3889-2.05,2.3345,2.3345,0,0,0-.3142-1.9424A2.4,2.4,0,0,0,29.03,10.074q-.0985-.01-.1975-.01Z" fill="#fff"/><path d="M6.7129,26.0056a2.8847,2.8847,0,0,1-1.7715-.6572,2.1393,2.1393,0,0,1-.4053-2.8643.9945.9945,0,0,1,.84-.457,1.0336,1.0336,0,0,1,.2451.03,1.0356,1.0356,0,0,1,.7285-.3818c.0225-.001.0449-.002.0664-.002a1.0685,1.0685,0,0,1,.4219.0859.9939.9939,0,0,1,1.2373.7.9632.9632,0,0,1,.4414.6162.95.95,0,0,1-.0742.6328.5944.5944,0,0,0,.0488.0781,1.0278,1.0278,0,0,1,.1133,1.0781A2.0751,2.0751,0,0,1,6.7129,26.0056Z" fill="#ffab24"/><path d="M6.4249,22.658a.3585.3585,0,0,0,.313.1357,1.1354,1.1354,0,0,0,.3718-.0753.8318.8318,0,0,0,.4172.5806c-.3379.4823.1853,1.1134.1853,1.1134a1.0718,1.0718,0,0,1-1,.5929,1.8892,1.8892,0,0,1-1.15-.44,1.17,1.17,0,0,1-.1868-1.538.6484.6484,0,0,0,.3718.13c.417,0,.6768-.4988.6768-.4988m0-2c-.04,0-.08.0012-.12.0037A1.9994,1.9994,0,0,0,5.263,21.03a2.0016,2.0016,0,0,0-1.5662.9106,3.1117,3.1117,0,0,0,.6216,4.19,3.8884,3.8884,0,0,0,2.3943.8749,3.0561,3.0561,0,0,0,2.7839-1.6895,2,2,0,0,0,.0156-1.7753,2.0006,2.0006,0,0,0-.5959-1.68A2,2,0,0,0,7.11,20.7184q-.0846,0-.1692.0072a1.9954,1.9954,0,0,0-.5154-.0676Z" fill="#fff"/><path d="M5.7256,24.0691a1.3049,1.3049,0,0,1-.6465-.168,1.2353,1.2353,0,0,1-.6221-.93,1.5385,1.5385,0,0,1,.18-.8916,1.9088,1.9088,0,0,1,.41-.5391,1.3726,1.3726,0,0,1,.9434-.415,1.4243,1.4243,0,0,1,.4375.084,1.4708,1.4708,0,0,1,.8789,1.15,1.3757,1.3757,0,0,1-.3428,1.1133A1.6856,1.6856,0,0,1,5.7256,24.0691Z" fill="#ffab24"/><path d="M5.9893,22.126a.1844.1844,0,0,1,.0691.0135.47.47,0,0,1,.26.3724c.04.2583-.3137.5576-.5923.5576a.3049.3049,0,0,1-.1526-.0377.2344.2344,0,0,1-.1245-.1829.5947.5947,0,0,1,.0779-.3142.9172.9172,0,0,1,.2-.26.4374.4374,0,0,1,.2627-.1483m0-2a2.354,2.354,0,0,0-1.616.6757,2.8989,2.8989,0,0,0-.6335.8351,2.5238,2.5238,0,0,0-.2766,1.4492,2.23,2.23,0,0,0,1.12,1.6836,2.3076,2.3076,0,0,0,1.1428.3,2.6766,2.6766,0,0,0,1.9958-.9437,2.3955,2.3955,0,0,0,.5732-1.9181,2.47,2.47,0,0,0-1.4888-1.9231,2.1789,2.1789,0,0,0-.8171-.1587Z" fill="#fff"/><path d="M6.7686,23.7078A1.4825,1.4825,0,0,1,5.6241,23.12a1.5253,1.5253,0,0,1-.3252-.6963,1.28,1.28,0,0,1,.4238-1.2324,1.6064,1.6064,0,0,1,1.0225-.3281,1.5294,1.5294,0,0,1,1.3984.72,1.2541,1.2541,0,0,1-.1367,1.3594A1.5081,1.5081,0,0,1,6.7686,23.7078Z" fill="#ffab24"/><path d="M6.7457,21.8632a.6125.6125,0,0,1,.52.1962.2628.2628,0,0,1-.0291.2455c-.073.09-.2246.4026-.468.4026a.532.532,0,0,1-.3828-.235.5428.5428,0,0,1-.1028-.2295.2757.2757,0,0,1,.0811-.283.6444.6444,0,0,1,.3821-.0968m0-2h0A2.5829,2.5829,0,0,0,5.09,20.418a2.2637,2.2637,0,0,0-.7744,2.1866A2.53,2.53,0,0,0,4.8636,23.77a2.48,2.48,0,0,0,1.9045.9371A2.4421,2.4421,0,0,0,8.846,23.4919a2.243,2.243,0,0,0,.1753-2.39,2.5125,2.5125,0,0,0-2.2756-1.2389Z" fill="#fff"/><path d="M7.6563,24.1482a1.3936,1.3936,0,0,1-1.2-.6641,1.5561,1.5561,0,0,1,.27-1.9746,1.3275,1.3275,0,0,1,.4551-.2422,1.6387,1.6387,0,0,1,.3643-.0518,1.6768,1.6768,0,0,1,1.332.7813,1.4128,1.4128,0,0,1,.2412,1.1426,1.2437,1.2437,0,0,1-.6582.8A1.72,1.72,0,0,1,7.6563,24.1482Z" fill="#ffab24"/><path d="M7.5452,22.2161a.6924.6924,0,0,1,.4929.3252c.2415.3682.052.4611-.0583.5206a.7307.7307,0,0,1-.3237.0859.3955.3955,0,0,1-.3528-.1958.5627.5627,0,0,1,.0559-.6687.2962.2962,0,0,1,.1072-.0566.293.293,0,0,1,.0789-.0106m0-2a2.2849,2.2849,0,0,0-1.4487.5164,2.5448,2.5448,0,0,0-.488,3.2814,2.4029,2.4029,0,0,0,2.0476,1.134,2.7415,2.7415,0,0,0,1.2739-.326,2.23,2.23,0,0,0,1.1575-1.4374,2.3847,2.3847,0,0,0-.377-1.94,2.6637,2.6637,0,0,0-2.1653-1.2284Z" fill="#fff"/><path d="M7.8379,25.2439a1.2631,1.2631,0,0,1-.4443-.0918,1.5933,1.5933,0,0,1-.877-1.5547,1.4331,1.4331,0,0,1,1.0068-1.3291,1.0475,1.0475,0,0,1,.1982-.0391c.0322-.0029.0938-.0059.126-.0059a1.3568,1.3568,0,0,1,1.0088.42A1.33,1.33,0,0,1,9.2,23.657,1.5192,1.5192,0,0,1,7.8379,25.2439Z" fill="#ffab24"/><path d="M7.8482,23.2238a.321.321,0,0,1,.3542.3656c-.0251.3661-.21.6544-.3638.6544a.1165.1165,0,0,1-.0474-.01c-.3215-.1409-.426-.87.0269-1.009,0,0,.0112-.0011.03-.0011m0-2c-.0647,0-.1594.0043-.2239.01a2.0069,2.0069,0,0,0-.395.0792,2.4418,2.4418,0,0,0-1.7114,2.2292,2.5716,2.5716,0,0,0,1.4709,2.5231,2.24,2.24,0,0,0,.85.178,2.5175,2.5175,0,0,0,2.3591-2.5172,2.3209,2.3209,0,0,0-.61-1.7655,2.38,2.38,0,0,0-1.74-.7373Z" fill="#fff"/><path d="M3.545,30.5437a2.9347,2.9347,0,0,1-1.6768-.5674,2.1377,2.1377,0,0,1-.5518-2.84A.996.996,0,0,1,2.377,26.655a1.0356,1.0356,0,0,1,.71-.42c.04-.0039.08-.0068.1211-.0068a1.0694,1.0694,0,0,1,.377.0684.9927.9927,0,0,1,.3311-.0576.98.98,0,0,1,.9346.6924.9649.9649,0,0,1,.47.5908.9518.9518,0,0,1-.041.6348.6777.6777,0,0,0,.0537.0752,1.03,1.03,0,0,1,.168,1.0713A2.0732,2.0732,0,0,1,3.545,30.5437Z" fill="#ffab24"/><path d="M3.2105,27.2125a.3421.3421,0,0,0,.2861.12,1.1008,1.1008,0,0,0,.4009-.0952.8316.8316,0,0,0,.4468.5582c-.3125.4991.2424,1.1024.2424,1.1024a1.0832,1.0832,0,0,1-1.041.6456,1.924,1.924,0,0,1-1.0972-.3824,1.17,1.17,0,0,1-.2664-1.5262.6614.6614,0,0,0,.3508.1112c.4336,0,.6775-.5338.6775-.5338m0-2a2.0247,2.0247,0,0,0-.2234.0125,1.9994,1.9994,0,0,0-1.0212.4219,2,2,0,0,0-1.5176.991,3.1119,3.1119,0,0,0,.8381,4.1514,3.9406,3.9406,0,0,0,2.259.7546,3.085,3.085,0,0,0,2.87-1.8358,2,2,0,0,0-.0759-1.7733,2,2,0,0,0-.6821-1.6476,2,2,0,0,0-2.0315-1.031,1.9945,1.9945,0,0,0-.415-.0436Z" fill="#fff"/><path d="M2.5147,28.66a1.2886,1.2886,0,0,1-.5869-.1387,1.22,1.22,0,0,1-.668-.9053,1.5147,1.5147,0,0,1,.1348-.8887,1.9228,1.9228,0,0,1,.3867-.5635,1.3566,1.3566,0,0,1,.9756-.4609,1.4146,1.4146,0,0,1,.3877.0654,1.4673,1.4673,0,0,1,.9307,1.0986,1.4008,1.4008,0,0,1-.3125,1.168A1.6646,1.6646,0,0,1,2.5147,28.66Z" fill="#ffab24"/><path d="M2.7574,26.7036a.1852.1852,0,0,1,.06.01.4689.4689,0,0,1,.2788.3584c.0544.262-.3005.588-.582.588a.2966.2966,0,0,1-.135-.03.2346.2346,0,0,1-.1335-.1763.5952.5952,0,0,1,.0615-.3177.9175.9175,0,0,1,.186-.2705.4192.4192,0,0,1,.2639-.1619m0-2h0a2.3228,2.3228,0,0,0-1.6921.762,2.9012,2.9012,0,0,0-.5889.8663A2.526,2.526,0,0,0,.275,27.7931a2.229,2.229,0,0,0,1.2017,1.6216,2.3127,2.3127,0,0,0,1.0378.2456,2.6524,2.6524,0,0,0,2.0247-.9952,2.3955,2.3955,0,0,0,.5154-2,2.4654,2.4654,0,0,0-1.5867-1.8427,2.1815,2.1815,0,0,0-.71-.1189Z" fill="#fff"/><path d="M3.5411,28.2449a1.5073,1.5073,0,0,1-1.1074-.5293,1.5566,1.5566,0,0,1-.3594-.6768A1.28,1.28,0,0,1,2.4385,25.78a1.6676,1.6676,0,0,1,1.1084-.3789,1.49,1.49,0,0,1,1.3232.6465,1.25,1.25,0,0,1-.0566,1.3555A1.4967,1.4967,0,0,1,3.5411,28.2449Z" fill="#ffab24"/><path d="M3.5474,26.4008a.5671.5671,0,0,1,.4712.1707.2618.2618,0,0,1-.0161.2465c-.07.0957-.2087.4268-.4614.4268a.5514.5514,0,0,1-.38-.2153.5415.5415,0,0,1-.1145-.2239.2755.2755,0,0,1,.0664-.2867.6988.6988,0,0,1,.4341-.1179m0-2h0a2.6573,2.6573,0,0,0-1.7856.6438,2.2619,2.2619,0,0,0-.6606,2.2233,2.5281,2.5281,0,0,0,.6067,1.1353,2.48,2.48,0,0,0,1.8333.8416A2.4131,2.4131,0,0,0,5.67,27.9235,2.2389,2.2389,0,0,0,5.72,25.5206a2.4642,2.4642,0,0,0-2.1729-1.12Z" fill="#fff"/><path d="M4.44,28.6384a1.3958,1.3958,0,0,1-1.1553-.6035,1.557,1.557,0,0,1,.165-1.9834,1.2716,1.2716,0,0,1,.4785-.2764,1.6957,1.6957,0,0,1,.3965-.0625,1.6809,1.6809,0,0,1,1.2988.71,1.4177,1.4177,0,0,1,.3018,1.1318,1.25,1.25,0,0,1-.6152.833A1.7261,1.7261,0,0,1,4.44,28.6384Z" fill="#ffab24"/><path d="M4.3231,26.7129a.7081.7081,0,0,1,.4927.3c.26.3552.0757.4578-.0315.5228a.7159.7159,0,0,1-.345.1033.3927.3927,0,0,1-.3364-.178.5628.5628,0,0,1,.0215-.6707.2874.2874,0,0,1,.1987-.0773m0-2a2.2864,2.2864,0,0,0-1.5452.5981,2.5438,2.5438,0,0,0-.313,3.2977,2.3831,2.3831,0,0,0,1.9741,1.03,2.7147,2.7147,0,0,0,1.3857-.3955A2.2269,2.2269,0,0,0,6.9056,27.75,2.3845,2.3845,0,0,0,6.43,25.8314a2.6972,2.6972,0,0,0-2.1062-1.1185Z" fill="#fff"/><path d="M4.6954,29.72a1.2409,1.2409,0,0,1-.3994-.0742,1.5884,1.5884,0,0,1-.9492-1.499,1.4335,1.4335,0,0,1,.9375-1.3828,1.1234,1.1234,0,0,1,.1953-.05,2.0269,2.0269,0,0,1,.2041-.0137A1.3068,1.3068,0,0,1,6.03,28.0652,1.5081,1.5081,0,0,1,4.6954,29.72Z" fill="#ffab24"/><path d="M4.6837,27.7008a.3146.3146,0,0,1,.3467.3475c-.0063.3718-.1809.6724-.3357.6724a.1176.1176,0,0,1-.0415-.0076c-.3284-.124-.47-.8463-.0254-1.009a.4209.4209,0,0,1,.0559-.0033m0-2a2.1636,2.1636,0,0,0-.353.0255,2.83,2.83,0,0,0-.39.0994,2.4415,2.4415,0,0,0-1.594,2.3148,2.5715,2.5715,0,0,0,1.6,2.4436,2.2382,2.2382,0,0,0,.748.1366A2.4775,2.4775,0,0,0,7.03,28.082a2.3066,2.3066,0,0,0-2.3464-2.3812Z" fill="#fff"/><path d="M8.796,31.36a2.94,2.94,0,0,1-1.6787-.5684,2.1381,2.1381,0,0,1-.5508-2.8389,1,1,0,0,1,.6221-.4707.9835.9835,0,0,1,.2441-.03.9937.9937,0,0,1,.1943.02,1.0356,1.0356,0,0,1,.71-.42c.04-.0039.08-.0068.1211-.0068a1.0681,1.0681,0,0,1,.376.0684.9771.9771,0,0,1,1.2666.6338.9676.9676,0,0,1,.4707.5918.9456.9456,0,0,1-.042.6348.6111.6111,0,0,0,.0537.0762,1.0259,1.0259,0,0,1,.168,1.0693A2.0693,2.0693,0,0,1,8.796,31.36Z" fill="#ffab24"/><path d="M8.4608,28.0288a.3419.3419,0,0,0,.2861.12,1.1,1.1,0,0,0,.4009-.0953.8323.8323,0,0,0,.4468.5582c-.3125.4991.2424,1.1024.2424,1.1024a1.0832,1.0832,0,0,1-1.041.6456,1.924,1.924,0,0,1-1.0972-.3824,1.17,1.17,0,0,1-.2661-1.5262.6612.6612,0,0,0,.3508.1111c.4333,0,.6772-.5337.6772-.5337m0-2a2.0247,2.0247,0,0,0-.2234.0125,1.9985,1.9985,0,0,0-1.0212.4219,2,2,0,0,0-1.5171.9906,3.1118,3.1118,0,0,0,.8376,4.1517,3.9406,3.9406,0,0,0,2.259.7546,3.085,3.085,0,0,0,2.87-1.8358A2,2,0,0,0,11.59,28.751a2,2,0,0,0-.6821-1.6476,2,2,0,0,0-2.0315-1.031,1.9945,1.9945,0,0,0-.415-.0436Z" fill="#fff"/><path d="M7.7647,29.4763a1.2886,1.2886,0,0,1-.5869-.1387,1.2255,1.2255,0,0,1-.666-.8926,1.5588,1.5588,0,0,1,.1279-.8906,1.9519,1.9519,0,0,1,.3877-.5713,1.3716,1.3716,0,0,1,.98-.4639,1.43,1.43,0,0,1,.3848.0645,1.4668,1.4668,0,0,1,.9326,1.1,1.4008,1.4008,0,0,1-.3125,1.168A1.6646,1.6646,0,0,1,7.7647,29.4763Z" fill="#ffab24"/><path d="M8.0076,27.52a.1841.1841,0,0,1,.06.01.47.47,0,0,1,.2791.3585c.0542.2618-.3005.5879-.582.5879a.2966.2966,0,0,1-.135-.03.2344.2344,0,0,1-.1338-.1763.5954.5954,0,0,1,.0615-.3177.9222.9222,0,0,1,.186-.2705.42.42,0,0,1,.2639-.1619m0-2h0a2.3228,2.3228,0,0,0-1.6921.762,2.8959,2.8959,0,0,0-.5872.8627A2.53,2.53,0,0,0,5.5252,28.61a2.2291,2.2291,0,0,0,1.2041,1.6223,2.31,2.31,0,0,0,1.0356.2445,2.6532,2.6532,0,0,0,2.0242-.9944,2.3979,2.3979,0,0,0,.5164-1.9991,2.4688,2.4688,0,0,0-1.5874-1.8442,2.1794,2.1794,0,0,0-.71-.1189Z" fill="#fff"/><path d="M8.792,29.06a1.5077,1.5077,0,0,1-1.1074-.5283,1.5534,1.5534,0,0,1-.36-.6768,1.2823,1.2823,0,0,1,.3594-1.2539,1.6718,1.6718,0,0,1,1.1143-.3848,1.489,1.489,0,0,1,1.3232.6484,1.2508,1.2508,0,0,1-.0576,1.3545A1.4935,1.4935,0,0,1,8.792,29.06Z" fill="#ffab24"/><path d="M8.7977,27.217a.5673.5673,0,0,1,.4714.1707.2625.2625,0,0,1-.0164.2465c-.07.0957-.209.4268-.4614.4268a.5506.5506,0,0,1-.38-.2152.5427.5427,0,0,1-.1145-.224.2755.2755,0,0,1,.0664-.2867.6988.6988,0,0,1,.4341-.1179m0-2h0a2.6573,2.6573,0,0,0-1.7856.6438,2.2619,2.2619,0,0,0-.6606,2.2233,2.527,2.527,0,0,0,.6052,1.1337,2.4817,2.4817,0,0,0,1.8347.8431A2.4136,2.4136,0,0,0,10.92,28.74a2.2411,2.2411,0,0,0,.0547-2.3966,2.4672,2.4672,0,0,0-2.177-1.1261Z" fill="#fff"/><path d="M9.69,29.4548a1.3926,1.3926,0,0,1-1.1553-.6055,1.5518,1.5518,0,0,1,.168-1.9834,1.2732,1.2732,0,0,1,.4678-.2725,1.7122,1.7122,0,0,1,.4043-.0645,1.6806,1.6806,0,0,1,1.2969.707,1.4171,1.4171,0,0,1,.3047,1.1338,1.2437,1.2437,0,0,1-.6162.833A1.7024,1.7024,0,0,1,9.69,29.4548Z" fill="#ffab24"/><path d="M9.5733,27.5292a.7081.7081,0,0,1,.4927.3c.26.3552.0757.4578-.0315.5228a.7148.7148,0,0,1-.3447.1033.3927.3927,0,0,1-.3364-.178.5624.5624,0,0,1,.0212-.6707.2874.2874,0,0,1,.1987-.0773m0-2a2.2865,2.2865,0,0,0-1.5449.5979,2.5432,2.5432,0,0,0-.312,3.3A2.3826,2.3826,0,0,0,9.69,30.4551a2.7144,2.7144,0,0,0,1.3855-.3955,2.2268,2.2268,0,0,0,1.0806-1.493,2.3849,2.3849,0,0,0-.4761-1.9188,2.6972,2.6972,0,0,0-2.1062-1.1185Z" fill="#fff"/><path d="M9.9493,30.54a1.2312,1.2312,0,0,1-.3945-.0723,1.5885,1.5885,0,0,1-.9541-1.5029A1.4308,1.4308,0,0,1,9.54,27.5837a1.0041,1.0041,0,0,1,.1934-.05,2.0463,2.0463,0,0,1,.2051-.0137,1.3052,1.3052,0,0,1,1.3457,1.3633A1.5085,1.5085,0,0,1,9.9493,30.54Z" fill="#ffab24"/><path d="M9.9376,28.52a.3144.3144,0,0,1,.3464.3475c-.0061.3718-.1807.6725-.3354.6725a.1177.1177,0,0,1-.0415-.0077c-.3286-.124-.47-.8462-.0254-1.009a.4163.4163,0,0,1,.0559-.0033m0-2a2.17,2.17,0,0,0-.3521.0253,2.8345,2.8345,0,0,0-.3911.1A2.4415,2.4415,0,0,0,7.6009,28.96a2.5713,2.5713,0,0,0,1.6,2.4431,2.2439,2.2439,0,0,0,.7478.1365,2.477,2.477,0,0,0,2.3352-2.64,2.3065,2.3065,0,0,0-2.3462-2.38Z" fill="#fff"/><path d="M11.8878,27.0789a2.8172,2.8172,0,0,1-1.8984-.8,2.1393,2.1393,0,0,1-.18-2.8867.9967.9967,0,0,1,.6777-.3867.9432.9432,0,0,1,.1172-.0068.9879.9879,0,0,1,.32.0527,1.0323,1.0323,0,0,1,.7393-.3242h.0176a1.0812,1.0812,0,0,1,.4727.1182.9636.9636,0,0,1,.1914-.0186,1.0111,1.0111,0,0,1,.9932.8164.9665.9665,0,0,1,.27,1.2734.6888.6888,0,0,0,.0332.0674A.9974.9974,0,0,1,13.68,26.08,2.0487,2.0487,0,0,1,11.8878,27.0789Z" fill="#ffab24"/><path d="M11.6783,23.7125a.3907.3907,0,0,0,.3608.1619,1.185,1.185,0,0,0,.3171-.0483.8317.8317,0,0,0,.3711.6112c-.3745.4547.0981,1.1245.0981,1.1245a1.0581,1.0581,0,0,1-.938.5176,1.8384,1.8384,0,0,1-1.2166-.5326,1.17,1.17,0,0,1-.0669-1.5479.6286.6286,0,0,0,.4011.16c.3945,0,.6731-.4463.6731-.4463m0-2a1.9982,1.9982,0,0,0-1.0317.2869l-.0422,0a1.9988,1.9988,0,0,0-1.59.787,3.1117,3.1117,0,0,0,.2947,4.2251,3.8078,3.8078,0,0,0,2.5789,1.0682,3.07,3.07,0,0,0,2.6467-1.4783,2,2,0,0,0,.1536-1.7684,1.9992,1.9992,0,0,0-.4639-1.7222A2,2,0,0,0,12.356,21.826h-.0132a1.9981,1.9981,0,0,0-.6289-.1132l-.0359,0Z" fill="#fff"/><path d="M10.9815,25.07a1.3136,1.3136,0,0,1-.7432-.2236,1.23,1.23,0,0,1-.5469-.9795,1.542,1.542,0,0,1,.248-.8682,1.9066,1.9066,0,0,1,.4551-.51,1.2537,1.2537,0,0,1,1.4033-.2168A1.4586,1.4586,0,0,1,12.58,23.488a1.3682,1.3682,0,0,1-.3848,1.0352A1.6934,1.6934,0,0,1,10.9815,25.07Z" fill="#ffab24"/><path d="M11.2708,23.1478a.183.183,0,0,1,.0823.02.469.469,0,0,1,.23.3915c.019.2507-.3281.5111-.6018.5111a.318.318,0,0,1-.1812-.0508.2333.2333,0,0,1-.11-.1919.5925.5925,0,0,1,.1021-.3071.9162.9162,0,0,1,.2192-.2443.4664.4664,0,0,1,.2588-.1281m0-2h0a2.3972,2.3972,0,0,0-1.4932.5547,2.8947,2.8947,0,0,0-.6978.7856,2.5167,2.5167,0,0,0-.3872,1.4229,2.2231,2.2231,0,0,0,.9863,1.764,2.3089,2.3089,0,0,0,1.3027.3949,2.71,2.71,0,0,0,1.948-.8679,2.3615,2.3615,0,0,0,.6482-1.7946,2.4667,2.4667,0,0,0-1.3362-2.032,2.1953,2.1953,0,0,0-.9707-.2277Z" fill="#fff"/><path d="M12.0391,24.79a1.4515,1.4515,0,0,1-1.1953-.6787,1.5286,1.5286,0,0,1-.27-.7187,1.2763,1.2763,0,0,1,.5234-1.1992,1.5142,1.5142,0,0,1,.8779-.252,1.593,1.593,0,0,1,1.499.8311,1.25,1.25,0,0,1-.2334,1.3389A1.5321,1.5321,0,0,1,12.0391,24.79Z" fill="#ffab24"/><path d="M11.9769,22.9419c.238,0,.5159.0835.5857.2393a.2627.2627,0,0,1-.0479.2423c-.0776.0817-.2446.366-.4761.366-.1138,0-.2432-.0688-.3853-.2649a.5414.5414,0,0,1-.0847-.2368.2755.2755,0,0,1,.1028-.2758.5612.5612,0,0,1,.3054-.07m0-2a2.5112,2.5112,0,0,0-1.4548.4333,2.2631,2.2631,0,0,0-.9426,2.12,2.527,2.527,0,0,0,.4565,1.2052,2.4379,2.4379,0,0,0,2.0027,1.0886,2.48,2.48,0,0,0,1.99-1.0582,2.2432,2.2432,0,0,0,.3589-2.37,2.5529,2.5529,0,0,0-2.41-1.42Z" fill="#fff"/><path d="M12.91,25.2986a1.4017,1.4017,0,0,1-1.2646-.7607,1.5538,1.5538,0,0,1,.42-1.9453,1.2679,1.2679,0,0,1,.5078-.2129,1.7,1.7,0,0,1,.2334-.0215,1.6386,1.6386,0,0,1,1.3643.88A1.414,1.414,0,0,1,14.3262,24.4a1.2423,1.2423,0,0,1-.7178.7471A1.7385,1.7385,0,0,1,12.91,25.2986Z" fill="#ffab24"/><path d="M12.8057,23.3582a.6687.6687,0,0,1,.49.3635c.2119.3857.0159.4636-.0986.5144a.7544.7544,0,0,1-.2871.0621.4015.4015,0,0,1-.3789-.2242.5626.5626,0,0,1,.1077-.6622.2954.2954,0,0,1,.1111-.0482.2867.2867,0,0,1,.0557-.0054m0-2a2.2832,2.2832,0,0,0-1.3091.4119,2.5435,2.5435,0,0,0-.7373,3.2314A2.3866,2.3866,0,0,0,12.91,26.2982a2.7363,2.7363,0,0,0,1.0964-.2332,2.2314,2.2314,0,0,0,1.2668-1.3435,2.3859,2.3859,0,0,0-.2246-1.9629,2.6151,2.6151,0,0,0-2.2432-1.4005Z" fill="#fff"/><path d="M12.9737,26.4041a1.2464,1.2464,0,0,1-.5254-.1309,1.592,1.592,0,0,1-.752-1.6162,1.43,1.43,0,0,1,1.1094-1.2461,1.0182,1.0182,0,0,1,.1963-.0244h.002a1.4252,1.4252,0,0,1,1.0684.4629,1.3208,1.3208,0,0,1,.2949,1.0742A1.5637,1.5637,0,0,1,12.9737,26.4041Z" fill="#ffab24"/><path d="M13.0252,24.386a.33.33,0,0,1,.3528.3933c-.0522.3553-.2517.6245-.4036.6245a.1181.1181,0,0,1-.0562-.0139c-.31-.1654-.3572-.9.1052-1.0039h.0017m0-2-.0352,0a2.0073,2.0073,0,0,0-.4055.0485,2.4416,2.4416,0,0,0-1.8789,2.09,2.5707,2.5707,0,0,0,1.27,2.6294,2.1251,2.1251,0,0,0,.9985.25,2.5469,2.5469,0,0,0,2.3823-2.3333A2.3082,2.3082,0,0,0,14.83,23.196a2.3753,2.3753,0,0,0-1.8047-.81Z" fill="#fff"/><path d="M5.2637,35.6218a2.9353,2.9353,0,0,1-1.6777-.5674,2.1383,2.1383,0,0,1-.5508-2.84.996.996,0,0,1,1.0605-.4814,1.0356,1.0356,0,0,1,.71-.42c.04-.0039.08-.0068.1211-.0068a1.0694,1.0694,0,0,1,.377.0684.9927.9927,0,0,1,.3311-.0576.9787.9787,0,0,1,.9336.6914A.9632.9632,0,0,1,7.04,32.6a.9456.9456,0,0,1-.042.6348c.02.0322.041.0605.043.0635a.9985.9985,0,0,1,.1787,1.083A2.0717,2.0717,0,0,1,5.2637,35.6218Z" fill="#ffab24"/><path d="M4.9293,32.2909a.3421.3421,0,0,0,.2861.12,1.1008,1.1008,0,0,0,.4009-.0952.8323.8323,0,0,0,.4468.5582c-.3125.4991.2424,1.1023.2424,1.1023a1.0828,1.0828,0,0,1-1.041.6456A1.9239,1.9239,0,0,1,4.1673,34.24a1.17,1.17,0,0,1-.2661-1.5262.6612.6612,0,0,0,.3508.1111c.4333,0,.6772-.5337.6772-.5337m0-2a2.0214,2.0214,0,0,0-.2234.0125,2,2,0,0,0-1.0212.4219,2,2,0,0,0-1.5171.9906,3.1118,3.1118,0,0,0,.8376,4.1517,3.94,3.94,0,0,0,2.259.7545,3.0856,3.0856,0,0,0,2.87-1.8359,2,2,0,0,0-.0762-1.7732,2,2,0,0,0-.6821-1.6475,2,2,0,0,0-2.0315-1.031,1.9945,1.9945,0,0,0-.415-.0436Z" fill="#fff"/><path d="M4.2335,33.739a1.2814,1.2814,0,0,1-.584-.1367,1.233,1.233,0,0,1-.6709-.9082,1.5147,1.5147,0,0,1,.1348-.8887,1.8994,1.8994,0,0,1,.3828-.56,1.37,1.37,0,0,1,.98-.4639,1.3929,1.3929,0,0,1,.38.0625A1.4708,1.4708,0,0,1,5.795,31.948a1.4008,1.4008,0,0,1-.3125,1.1641A1.667,1.667,0,0,1,4.2335,33.739Z" fill="#ffab24"/><path d="M4.4764,31.7819a.1827.1827,0,0,1,.06.01.47.47,0,0,1,.2791.3585c.0542.2618-.3005.5879-.582.5879a.2966.2966,0,0,1-.135-.03.2342.2342,0,0,1-.1338-.1761.5931.5931,0,0,1,.0618-.3177.9168.9168,0,0,1,.1858-.2705.4194.4194,0,0,1,.2642-.162m0-2a2.3236,2.3236,0,0,0-1.6926.7621,2.8978,2.8978,0,0,0-.5886.8665,2.5183,2.5183,0,0,0-.2014,1.4611A2.2283,2.2283,0,0,0,3.2,34.495a2.3063,2.3063,0,0,0,1.0337.2435,2.6526,2.6526,0,0,0,2.0239-.9943,2.3972,2.3972,0,0,0,.5166-1.9991,2.47,2.47,0,0,0-1.5869-1.8442,2.1831,2.1831,0,0,0-.7107-.119Z" fill="#fff"/><path d="M5.26,33.323a1.506,1.506,0,0,1-1.1064-.5283,1.5642,1.5642,0,0,1-.36-.6777,1.2764,1.2764,0,0,1,.3652-1.2578,1.6617,1.6617,0,0,1,1.1084-.38,1.489,1.489,0,0,1,1.3232.6484,1.2459,1.2459,0,0,1-.0576,1.3535A1.4983,1.4983,0,0,1,5.26,33.323Z" fill="#ffab24"/><path d="M5.2664,31.4791a.5674.5674,0,0,1,.4712.1705.2634.2634,0,0,1-.0161.2466c-.07.0957-.209.4268-.4617.4268a.6013.6013,0,0,1-.4941-.4392.2755.2755,0,0,1,.0664-.2867.7.7,0,0,1,.4343-.1179m0-2h0a2.6567,2.6567,0,0,0-1.7856.6438A2.2619,2.2619,0,0,0,2.82,32.3462a2.5377,2.5377,0,0,0,.6035,1.1318,2.4839,2.4839,0,0,0,1.8364.845,2.4155,2.4155,0,0,0,2.1321-1.3269,2.2453,2.2453,0,0,0,.0513-2.391,2.4672,2.4672,0,0,0-2.1768-1.126Z" fill="#fff"/><path d="M6.1583,33.7175A1.3968,1.3968,0,0,1,5.003,33.113a1.5538,1.5538,0,0,1,.168-1.9844,1.2819,1.2819,0,0,1,.4521-.2686,1.7008,1.7008,0,0,1,.42-.0693,1.6809,1.6809,0,0,1,1.2988.71,1.4177,1.4177,0,0,1,.3018,1.1318,1.25,1.25,0,0,1-.6152.833A1.7288,1.7288,0,0,1,6.1583,33.7175Z" fill="#ffab24"/><path d="M6.0418,31.7913a.7081.7081,0,0,1,.4927.3c.26.3551.0757.4576-.0312.5228a.7172.7172,0,0,1-.345.1033.3924.3924,0,0,1-.3364-.178.5628.5628,0,0,1,.0212-.6707.2874.2874,0,0,1,.1987-.0773m0-2a2.2864,2.2864,0,0,0-1.5452.5981,2.5436,2.5436,0,0,0-.3132,3.2972,2.3838,2.3838,0,0,0,1.9746,1.0305,2.7177,2.7177,0,0,0,1.3828-.3937,2.2324,2.2324,0,0,0,1.0837-1.4971A2.3857,2.3857,0,0,0,8.1483,30.91,2.6977,2.6977,0,0,0,6.042,29.7913Z" fill="#fff"/><path d="M6.417,34.8015a1.2409,1.2409,0,0,1-.3994-.0742,1.589,1.589,0,0,1-.9482-1.5,1.4306,1.4306,0,0,1,.9355-1.3809,1.0352,1.0352,0,0,1,.1963-.0508,2.0269,2.0269,0,0,1,.2041-.0137A1.3068,1.3068,0,0,1,7.753,33.1443,1.5089,1.5089,0,0,1,6.417,34.8015Z" fill="#ffab24"/><path d="M6.4061,32.7817a.3143.3143,0,0,1,.3464.3475c-.0061.3718-.1807.6725-.3354.6725a.1177.1177,0,0,1-.0415-.0077c-.3284-.124-.47-.8463-.0254-1.009a.4209.4209,0,0,1,.0559-.0033m0-2a2.1636,2.1636,0,0,0-.353.0255,2.83,2.83,0,0,0-.39.0994,2.4415,2.4415,0,0,0-1.594,2.3148,2.5715,2.5715,0,0,0,1.6,2.4436,2.2394,2.2394,0,0,0,.748.1367,2.4771,2.4771,0,0,0,2.3352-2.64,2.3063,2.3063,0,0,0-2.3462-2.38Z" fill="#fff"/><path d="M18.3409,16.1531a2.7284,2.7284,0,0,1-2.1191-1.1572,2.1394,2.1394,0,0,1,.332-2.873A1.0048,1.0048,0,0,1,17.23,11.86c.02,0,.04.001.0605.002a1.003,1.003,0,0,1,.4209.1211,1.0536,1.0536,0,0,1,.6162-.2031.9972.9972,0,0,1,.1865.0176,1.0882,1.0882,0,0,1,.4434.1992h.0078a1.0172,1.0172,0,0,1,1.0186.9961.9656.9656,0,0,1,.04,1.3c.01.0361.0205.07.0225.0742a1.0022,1.0022,0,0,1-.1562,1.085A2.0413,2.0413,0,0,1,18.3409,16.1531Z" fill="#ffab24"/><path d="M18.337,12.7675c.074.2058.3477.2386.5146.2386a1.1254,1.1254,0,0,0,.1328-.0072.8321.8321,0,0,0,.2571.667c-.4487.3815-.1018,1.1241-.1018,1.1241a1.0411,1.0411,0,0,1-.7986.3635,1.7316,1.7316,0,0,1-1.3193-.7584,1.17,1.17,0,0,1,.2073-1.5354.5958.5958,0,0,0,.4612.2366,1.03,1.03,0,0,0,.6467-.3289m0-2a2,2,0,0,0-.7134.1316,2.0062,2.0062,0,0,0-.2739-.0356c-.04-.0024-.0806-.0037-.1206-.0037a2,2,0,0,0-1.3513.5255,3.1118,3.1118,0,0,0-.4553,4.2106,3.728,3.728,0,0,0,2.9187,1.5577,3.0282,3.0282,0,0,0,2.2974-1.0393,2.0006,2.0006,0,0,0,.4631-1.7134,2.001,2.001,0,0,0-.1306-1.74,1.8557,1.8557,0,0,0-.5339-1.1008,1.9514,1.9514,0,0,0-1.1814-.57,2.0023,2.0023,0,0,0-.9187-.2234Z" fill="#fff"/><path d="M17.6749,14.0037a1.3515,1.3515,0,0,1-.9551-.374,1.2336,1.2336,0,0,1-.3662-1.0576,1.539,1.539,0,0,1,.3926-.8086,1.9214,1.9214,0,0,1,.5469-.4287,1.479,1.479,0,0,1,.7061-.1982,1.1825,1.1825,0,0,1,.7109.2344,1.4694,1.4694,0,0,1,.5557,1.3311A1.58,1.58,0,0,1,17.6749,14.0037Z" fill="#ffab24"/><path d="M17.9991,12.1366a.1861.1861,0,0,1,.114.0369.47.47,0,0,1,.1577.4259c-.0229.2244-.3372.4043-.5959.4043a.3586.3586,0,0,1-.2561-.0892.2338.2338,0,0,1-.0742-.2084.5953.5953,0,0,1,.1548-.2843.9166.9166,0,0,1,.2588-.2017.5557.5557,0,0,1,.241-.0835m0-2a2.4813,2.4813,0,0,0-1.1792.317,2.8972,2.8972,0,0,0-.8247.65,2.5246,2.5246,0,0,0-.6321,1.3287,2.2271,2.2271,0,0,0,.6584,1.9136,2.3454,2.3454,0,0,0,1.6531.6581,2.5673,2.5673,0,0,0,2.5854-2.2,2.47,2.47,0,0,0-.9565-2.2373,2.1734,2.1734,0,0,0-1.3044-.43Z" fill="#fff"/><path d="M18.7286,13.9119a1.4163,1.4163,0,0,1-1.2842-.9,1.5186,1.5186,0,0,1-.1377-.76,1.2778,1.2778,0,0,1,.73-1.084,1.364,1.364,0,0,1,.5811-.12,1.6815,1.6815,0,0,1,1.6533,1.1113,1.2464,1.2464,0,0,1-.4668,1.2764A1.6064,1.6064,0,0,1,18.7286,13.9119Z" fill="#ffab24"/><path d="M18.618,12.0474c.2583,0,.6328.1509.6831.353a.2627.2627,0,0,1-.09.23c-.084.0616-.2739.2808-.4822.2808-.1277,0-.2622-.0822-.3835-.3333a.5439.5439,0,0,1-.0415-.248.2757.2757,0,0,1,.15-.2533.3978.3978,0,0,1,.1641-.0293m0-2a2.3715,2.3715,0,0,0-1.0076.2158,2.2637,2.2637,0,0,0-1.301,1.92,2.5309,2.5309,0,0,0,.2354,1.2651,2.4286,2.4286,0,0,0,2.1843,1.4631,2.6163,2.6163,0,0,0,1.74-.7258,2.2431,2.2431,0,0,0,.7725-2.2677,2.6649,2.6649,0,0,0-2.624-1.87Z" fill="#fff"/><path d="M19.5626,14.571a1.4147,1.4147,0,0,1-1.4033-.9951,1.5564,1.5564,0,0,1,.7617-1.8447,1.3018,1.3018,0,0,1,.5068-.1182h0a1.5743,1.5743,0,0,1,1.4482,1.1318,1.41,1.41,0,0,1-.0557,1.17,1.24,1.24,0,0,1-.8428.6064A1.7148,1.7148,0,0,1,19.5626,14.571Z" fill="#ffab24"/><path d="M19.4586,12.613c.22,0,.405.2587.469.4489.1406.4171-.0659.4591-.1877.4889a.7794.7794,0,0,1-.1772.0205.431.431,0,0,1-.45-.2975.5632.5632,0,0,1,.2231-.6329.2955.2955,0,0,1,.1177-.0278h.0051m0-2-.0405,0a2.2942,2.2942,0,0,0-.9182.2106,2.5445,2.5445,0,0,0-1.2959,3.0471,2.4169,2.4169,0,0,0,2.3586,1.7,2.7893,2.7893,0,0,0,.6526-.0778,2.2292,2.2292,0,0,0,1.4824-1.0984,2.3854,2.3854,0,0,0,.1252-1.9722,2.5647,2.5647,0,0,0-2.3643-1.81Z" fill="#fff"/><path d="M19.3389,15.6628a1.251,1.251,0,0,1-.6982-.2422A1.5894,1.5894,0,0,1,18.1885,13.7a1.4316,1.4316,0,0,1,1.3105-1.0312c.0137-.001.0283-.001.043-.001A.96.96,0,0,1,19.7,12.68a1.4065,1.4065,0,0,1,.9639.6348,1.3172,1.3172,0,0,1,.1064,1.12A1.6505,1.6505,0,0,1,19.3389,15.6628Z" fill="#ffab24"/><path d="M19.542,13.6677a.3321.3321,0,0,1,.28.45c-.1082.3225-.3325.5457-.4829.5457a.122.122,0,0,1-.0774-.0258c-.2756-.2175-.1929-.9489.2805-.97m0-2c-.0293,0-.0583.0006-.0876.002a2.4414,2.4414,0,0,0-2.2183,1.7251,2.5715,2.5715,0,0,0,.7864,2.8125,2.1345,2.1345,0,0,0,1.3164.4558,2.6217,2.6217,0,0,0,2.3792-1.91,2.3337,2.3337,0,0,0-.1995-1.9568,2.3994,2.3994,0,0,0-1.6621-1.1035,1.9956,1.9956,0,0,0-.3145-.0249Z" fill="#fff"/><path d="M32.5772,10.9841A2.6437,2.6437,0,0,1,30.3741,9.616a2.1367,2.1367,0,0,1,.6094-2.8271.9925.9925,0,0,1,.6006-.2012A.9367.9367,0,0,1,31.74,6.6a.9983.9983,0,0,1,.4414.1855.9377.9377,0,0,1,.8281-.1367.9193.9193,0,0,1,.4082.251,1.0164,1.0164,0,0,1,.8945,1.0869.9662.9662,0,0,1-.0859,1.2988.4688.4688,0,0,0,.02.09,1.03,1.03,0,0,1-.2656,1.05A2.0269,2.0269,0,0,1,32.5772,10.9841Z" fill="#ffab24"/><path d="M31.5838,7.5879a.5847.5847,0,0,0,.4919.2828,1.0761,1.0761,0,0,0,.62-.2672c.07.2787.5129.2933.605.2933l.0166,0a.8329.8329,0,0,0,.1914.689c-.4836.3361-.21,1.1089-.21,1.1089a1.04,1.04,0,0,1-.7212.29,1.6767,1.6767,0,0,1-1.3484-.8882,1.17,1.17,0,0,1,.3552-1.5081m0-2a2,2,0,0,0-1.2017.4012,3.1117,3.1117,0,0,0-.8618,4.1467,3.6291,3.6291,0,0,0,3.0566,1.8483,3.0506,3.0506,0,0,0,2.0845-.8264,2,2,0,0,0,.6272-1.66,2,2,0,0,0,.02-1.7833A2,2,0,0,0,33.8467,5.968a2,2,0,0,0-1.68-.2933,1.9977,1.9977,0,0,0-.583-.0868Z" fill="#fff"/><path d="M32.0713,8.7771a1.3625,1.3625,0,0,1-1.0693-.4736A1.2376,1.2376,0,0,1,30.74,7.2166a1.5456,1.5456,0,0,1,.4727-.7686,1.8819,1.8819,0,0,1,.5859-.3721,1.51,1.51,0,0,1,.5977-.1338,1.1926,1.1926,0,0,1,.8047.3076,1.4593,1.4593,0,0,1,.4229,1.3848A1.56,1.56,0,0,1,32.0713,8.7771Z" fill="#ffab24"/><path d="M32.3968,6.9418a.1913.1913,0,0,1,.1335.0488.4693.4693,0,0,1,.1155.4392c-.0413.2047-.3276.3473-.5742.3473a.3883.3883,0,0,1-.3042-.1163.2341.2341,0,0,1-.0537-.2146.5929.5929,0,0,1,.1816-.2679.9177.9177,0,0,1,.2771-.1757.6249.6249,0,0,1,.2244-.0608m0-2h0a2.53,2.53,0,0,0-.9866.2118,2.8984,2.8984,0,0,0-.8835.5664,2.517,2.517,0,0,0-.7581,1.262,2.228,2.228,0,0,0,.47,1.9678,2.38,2.38,0,0,0,1.8335.8274,2.5369,2.5369,0,0,0,2.5347-1.9509,2.4676,2.4676,0,0,0-.7351-2.32,2.1949,2.1949,0,0,0-1.4744-.5648Z" fill="#fff"/><path d="M33.1016,8.7859A1.4,1.4,0,0,1,31.7842,7.76a1.5267,1.5267,0,0,1-.0645-.7646,1.2794,1.2794,0,0,1,.8271-1.0117,1.3411,1.3411,0,0,1,.4414-.0723A1.7226,1.7226,0,0,1,34.68,7.1853,1.2533,1.2533,0,0,1,34.0938,8.41,1.6508,1.6508,0,0,1,33.1016,8.7859Z" fill="#ffab24"/><path d="M32.9891,6.9113c.2576,0,.6689.199.7017.4205a.2629.2629,0,0,1-.1118.22c-.0852.0508-.28.2341-.4775.2341-.137,0-.2751-.0883-.3789-.37a.5428.5428,0,0,1-.0173-.2509.2755.2755,0,0,1,.1738-.2375.3353.3353,0,0,1,.11-.0161m0-2a2.3265,2.3265,0,0,0-.7737.1294,2.2617,2.2617,0,0,0-1.481,1.7839,2.5262,2.5262,0,0,0,.1111,1.2816,2.4036,2.4036,0,0,0,2.2559,1.68A2.653,2.653,0,0,0,34.68,9.2216a2.2436,2.2436,0,0,0,.989-2.1809,2.6832,2.6832,0,0,0-2.68-2.1294Z" fill="#fff"/><path d="M33.9141,9.5261A1.4343,1.4343,0,0,1,32.44,8.3894a1.5611,1.5611,0,0,1,.9326-1.76A1.6768,1.6768,0,0,1,33.8,6.5574l.1006.0039A1.561,1.561,0,0,1,35.2237,7.823a1.4109,1.4109,0,0,1-.167,1.1621,1.2444,1.2444,0,0,1-.8955.5234A1.7984,1.7984,0,0,1,33.9141,9.5261Z" fill="#ffab24"/><path d="M33.8,7.5574l.0217.0009c.2209.0175.3826.2957.4282.4927.0994.4287-.11.4506-.2344.4684a.7424.7424,0,0,1-.1023.0068.4562.4562,0,0,1-.4949-.3434.5626.5626,0,0,1,.2832-.6083A.2983.2983,0,0,1,33.8,7.5574m0-2a2.2966,2.2966,0,0,0-.7544.1277,2.5429,2.5429,0,0,0-1.584,2.9108,2.4273,2.4273,0,0,0,2.4517,1.93A2.758,2.758,0,0,0,34.3,10.499,2.23,2.23,0,0,0,35.8824,9.55a2.3857,2.3857,0,0,0,.3159-1.95,2.5535,2.5535,0,0,0-2.219-2.0349c-.0522-.0042-.1265-.0071-.1792-.0071Z" fill="#fff"/><path d="M33.5245,10.5886a1.2563,1.2563,0,0,1-.7852-.3164,1.5674,1.5674,0,0,1-.3008-1.71,1.4452,1.4452,0,0,1,1.3447-.9463,1.1725,1.1725,0,0,1,.2744.0332,1.4043,1.4043,0,0,1,.8994.7227A1.3216,1.3216,0,0,1,34.9551,9.5,1.6729,1.6729,0,0,1,33.5245,10.5886Z" fill="#ffab24"/><path d="M33.7835,8.6158l.0242.0006a.332.332,0,0,1,.2346.4747c-.134.3-.3672.4969-.5178.4969a.1253.1253,0,0,1-.09-.0339c-.249-.239-.105-.9384.3491-.9384m0-2h0A2.4573,2.4573,0,0,0,31.511,8.1882a2.5783,2.5783,0,0,0,.5386,2.8091,2.1155,2.1155,0,0,0,1.4749.5908,2.6658,2.6658,0,0,0,2.3438-1.6808A2.3338,2.3338,0,0,0,35.86,7.9413a2.4,2.4,0,0,0-1.5469-1.26,1.9939,1.9939,0,0,0-.4-.062c-.0352-.0018-.0945-.0034-.13-.0034Z" fill="#fff"/><path d="M33.3038,6.073a2.64,2.64,0,0,1-2.2021-1.3691,2.1374,2.1374,0,0,1,.6074-2.8262.9975.9975,0,0,1,.6016-.2012.9367.9367,0,0,1,.1563.0127.9983.9983,0,0,1,.4414.1855.9517.9517,0,0,1,.55-.1787.9675.9675,0,0,1,.28.043.92.92,0,0,1,.4072.25,1.0171,1.0171,0,0,1,.8936,1.0879.966.966,0,0,1-.0859,1.2969c.0059.0371.0137.0713.0146.0752a1.0006,1.0006,0,0,1-.2607,1.0654A2.0269,2.0269,0,0,1,33.3038,6.073Z" fill="#ffab24"/><path d="M32.3111,2.6768a.5844.5844,0,0,0,.4919.2828,1.0759,1.0759,0,0,0,.62-.2672c.0706.2788.5139.2933.6052.2933l.0166,0a.8318.8318,0,0,0,.1914.6888c-.4836.3362-.21,1.109-.21,1.109a1.04,1.04,0,0,1-.7214.29,1.6766,1.6766,0,0,1-1.3481-.8882,1.17,1.17,0,0,1,.3552-1.5079m0-2a2,2,0,0,0-1.2017.4012,3.1117,3.1117,0,0,0-.8618,4.1467A3.6289,3.6289,0,0,0,33.304,7.0729a3.0521,3.0521,0,0,0,2.0845-.8258,2.0008,2.0008,0,0,0,.6274-1.6606,2.0009,2.0009,0,0,0,.02-1.7833,2,2,0,0,0-1.4626-1.7463,2,2,0,0,0-1.68-.2932,2.0017,2.0017,0,0,0-.5828-.0868Z" fill="#fff"/><path d="M32.7979,3.866A1.3648,1.3648,0,0,1,31.73,3.3943a1.24,1.24,0,0,1-.2627-1.0889,1.5456,1.5456,0,0,1,.4727-.7686,1.91,1.91,0,0,1,.582-.3711,1.5319,1.5319,0,0,1,.6025-.1348,1.1926,1.1926,0,0,1,.8047.3076,1.4657,1.4657,0,0,1,.4248,1.3779A1.5468,1.5468,0,0,1,32.7979,3.866Z" fill="#ffab24"/><path d="M33.1241,2.0305a.1911.1911,0,0,1,.1333.0488.47.47,0,0,1,.1157.4393c-.0415.2047-.3276.3473-.5745.3473a.3884.3884,0,0,1-.3042-.1165.2332.2332,0,0,1-.0535-.2146.5937.5937,0,0,1,.1814-.2679A.9185.9185,0,0,1,32.9,2.0914a.6226.6226,0,0,1,.2244-.0609m0-2h0a2.5284,2.5284,0,0,0-.9883.2126,2.8954,2.8954,0,0,0-.88.5635,2.5266,2.5266,0,0,0-.761,1.2678,2.2223,2.2223,0,0,0,.47,1.964,2.38,2.38,0,0,0,1.8335.8275,2.5372,2.5372,0,0,0,2.5344-1.95,2.4709,2.4709,0,0,0-.7341-2.32A2.194,2.194,0,0,0,33.1241.0305Z" fill="#fff"/><path d="M33.8282,3.8748A1.4027,1.4027,0,0,1,32.5108,2.85a1.5126,1.5126,0,0,1-.0615-.7773,1.2687,1.2687,0,0,1,.82-.999A1.3542,1.3542,0,0,1,33.7159,1a1.7235,1.7235,0,0,1,1.6914,1.2744A1.2523,1.2523,0,0,1,34.82,3.4988,1.6556,1.6556,0,0,1,33.8282,3.8748Z" fill="#ffab24"/><path d="M33.7159,2c.2578,0,.6692.199.7019.4205a.2624.2624,0,0,1-.1118.22c-.0852.0508-.28.2341-.4773.2341-.1372,0-.2754-.0883-.3792-.37a.5432.5432,0,0,1-.0173-.251.2756.2756,0,0,1,.1738-.2375A.3348.3348,0,0,1,33.7159,2m0-2h0a2.3266,2.3266,0,0,0-.772.129,2.2648,2.2648,0,0,0-1.4822,1.7843,2.5325,2.5325,0,0,0,.1113,1.2817,2.4041,2.4041,0,0,0,2.2561,1.68,2.6516,2.6516,0,0,0,1.5771-.5632A2.242,2.242,0,0,0,36.3965,2.13,2.6823,2.6823,0,0,0,33.7159,0Z" fill="#fff"/><path d="M34.6407,4.615A1.431,1.431,0,0,1,33.167,3.4763a1.5549,1.5549,0,0,1,.9316-1.7578,1.37,1.37,0,0,1,.4287-.0723c.0264,0,.0742.002.1006.0039a1.561,1.561,0,0,1,1.3232,1.2617,1.415,1.415,0,0,1-.168,1.1631,1.2441,1.2441,0,0,1-.8965.5225A1.7705,1.7705,0,0,1,34.6407,4.615Z" fill="#ffab24"/><path d="M34.5267,2.6462l.0222.0009c.2209.0175.3826.2957.4282.4926.0994.4288-.11.4507-.2344.4684a.74.74,0,0,1-.1023.0068.4565.4565,0,0,1-.4949-.3434.5628.5628,0,0,1,.2834-.6083.2971.2971,0,0,1,.0977-.017m0-2A2.2882,2.2882,0,0,0,33.77.7751a2.5432,2.5432,0,0,0-1.5813,2.9072A2.4287,2.4287,0,0,0,34.64,5.6149a2.7385,2.7385,0,0,0,.3867-.0272,2.228,2.228,0,0,0,1.5815-.9482,2.3855,2.3855,0,0,0,.3169-1.9512A2.5543,2.5543,0,0,0,34.7064.6533c-.0522-.0042-.127-.0071-.18-.0071Z" fill="#fff"/><path d="M34.252,5.6775a1.2638,1.2638,0,0,1-.7842-.3135,1.5738,1.5738,0,0,1-.3018-1.7148,1.4452,1.4452,0,0,1,1.3447-.9453,1.2017,1.2017,0,0,1,.2764.0332,1.4092,1.4092,0,0,1,.8975.7246,1.3219,1.3219,0,0,1-.001,1.125A1.6773,1.6773,0,0,1,34.252,5.6775Z" fill="#ffab24"/><path d="M34.5106,3.7047l.0242.0006A.3321.3321,0,0,1,34.77,4.18c-.1343.3-.3674.4969-.5181.4969a.1258.1258,0,0,1-.09-.0339c-.2488-.2389-.105-.9384.3491-.9384m0-2h0a2.4578,2.4578,0,0,0-2.2722,1.572,2.5787,2.5787,0,0,0,.5376,2.8088,2.1194,2.1194,0,0,0,1.4756.5914,2.6667,2.6667,0,0,0,2.3435-1.68,2.3363,2.3363,0,0,0-.0085-1.968A2.4,2.4,0,0,0,35.0391,1.77a1.9934,1.9934,0,0,0-.3972-.0618c-.0356-.002-.0952-.0035-.1309-.0035Z" fill="#fff"/><path d="M27.8555,8.9988A2.6251,2.6251,0,0,1,25.6143,7.5a2.1391,2.1391,0,0,1,.7744-2.7861,1.0005,1.0005,0,0,1,1.1865.06.9766.9766,0,0,1,.5-.14.9748.9748,0,0,1,.7314.333,1.0188,1.0188,0,0,1,.8359,1.14.9682.9682,0,0,1,.1582.7412.9459.9459,0,0,1-.3213.55.6072.6072,0,0,0,.0137.0918,1.0273,1.0273,0,0,1-.3271,1.0322A2.0364,2.0364,0,0,1,27.8555,8.9988Z" fill="#ffab24"/><path d="M26.9417,5.5464a.58.58,0,0,0,.51.3124,1.1051,1.1051,0,0,0,.5984-.2312c.06.3153.6033.3292.6033.3292a.8324.8324,0,0,0,.15.699c-.5027.307-.2754,1.0946-.2754,1.0946a1.0411,1.0411,0,0,1-.6736.2485,1.6451,1.6451,0,0,1-1.3572-.9681,1.17,1.17,0,0,1,.4436-1.4844m0-2a1.9989,1.9989,0,0,0-1.1052.3333,3.1116,3.1116,0,0,0-1.1052,4.0883,3.6177,3.6177,0,0,0,3.124,2.031,3.0259,3.0259,0,0,0,1.9482-.7073,2.0007,2.0007,0,0,0,.7239-1.6206,2,2,0,0,0,.1255-1.7787,2,2,0,0,0-1.3567-1.83,2,2,0,0,0-1.66-.3918,2.0012,2.0012,0,0,0-.6948-.1245Z" fill="#fff"/><path d="M27.4561,6.7654a1.3941,1.3941,0,0,1-1.1367-.5371,1.238,1.238,0,0,1-.1943-1.1113,1.531,1.531,0,0,1,.5137-.7314,1.9074,1.9074,0,0,1,.6006-.335,1.6323,1.6323,0,0,1,.5361-.1016,1.1938,1.1938,0,0,1,.8574.3535,1.4653,1.4653,0,0,1,.3428,1.41A1.5241,1.5241,0,0,1,27.4561,6.7654Z" fill="#ffab24"/><path d="M27.7752,4.9487a.1959.1959,0,0,1,.1465.0571.4694.4694,0,0,1,.09.4453.57.57,0,0,1-.5547.314.4088.4088,0,0,1-.3359-.1353.2337.2337,0,0,1-.041-.2174.5931.5931,0,0,1,.197-.2567.92.92,0,0,1,.2871-.1591.6834.6834,0,0,1,.2114-.048m0-2h0a2.6015,2.6015,0,0,0-.8608.1565,2.9036,2.9036,0,0,0-.9148.5118,2.52,2.52,0,0,0-.8345,1.2189,2.2258,2.2258,0,0,0,.3545,1.9919,2.3808,2.3808,0,0,0,1.9375.9373,2.5237,2.5237,0,0,0,2.488-1.8024,2.4681,2.4681,0,0,0-.5967-2.359,2.1877,2.1877,0,0,0-1.5728-.655Z" fill="#fff"/><path d="M28.4649,6.8347a1.3837,1.3837,0,0,1-1.333-1.1035,1.5258,1.5258,0,0,1-.0186-.7744A1.27,1.27,0,0,1,28.0059,4a1.78,1.78,0,0,1,.3516-.0469,1.7168,1.7168,0,0,1,1.6982,1.375,1.2491,1.2491,0,0,1-.6572,1.1875A1.6951,1.6951,0,0,1,28.4649,6.8347Z" fill="#ffab24"/><path d="M28.3572,4.9529c.2554,0,.6826.231.7029.462a.2632.2632,0,0,1-.1248.2134,1.066,1.066,0,0,1-.4712.2061c-.1436,0-.2847-.0914-.3757-.3926A.5442.5442,0,0,1,28.086,5.19a.2751.2751,0,0,1,.1875-.2268.3058.3058,0,0,1,.0837-.01m0-2a2.3087,2.3087,0,0,0-.635.0878A2.2614,2.2614,0,0,0,26.1385,4.735a2.53,2.53,0,0,0,.0344,1.2823,2.3773,2.3773,0,0,0,2.2913,1.817A2.7058,2.7058,0,0,0,29.9366,7.36,2.2444,2.2444,0,0,0,31.0528,5.243a2.7143,2.7143,0,0,0-2.6956-2.29Z" fill="#fff"/><path d="M29.2618,7.6218a1.4481,1.4481,0,0,1-1.5127-1.2256,1.5546,1.5546,0,0,1,1.0361-1.7012,1.7314,1.7314,0,0,1,.3535-.0488,1.235,1.235,0,0,1,.1914.0146,1.5557,1.5557,0,0,1,1.2314,1.3359,1.4174,1.4174,0,0,1-.2344,1.1484,1.25,1.25,0,0,1-.9219.4707C29.378,7.6179,29.29,7.6218,29.2618,7.6218Z" fill="#ffab24"/><path d="M29.1387,5.6461a.2906.2906,0,0,1,.0388.0027c.2195.03.3643.3177.3984.517.0737.434-.1367.4434-.2617.4537-.0149.0012-.0337.0022-.0554.0022a.4746.4746,0,0,1-.5208-.3733.5626.5626,0,0,1,.3186-.5906.3032.3032,0,0,1,.082-.0117m0-2a2.2994,2.2994,0,0,0-.6274.0875A2.543,2.543,0,0,0,26.76,6.5447a2.4451,2.4451,0,0,0,2.4988,2.077c.0867,0,.1624-.0042.2222-.0092a2.2285,2.2285,0,0,0,1.635-.8533,2.3853,2.3853,0,0,0,.4316-1.9285A2.5557,2.5557,0,0,0,29.452,3.6677a2.6081,2.6081,0,0,0-.3132-.0216Z" fill="#fff"/><path d="M28.7715,8.658a1.1207,1.1207,0,0,1-.833-.36,1.5768,1.5768,0,0,1-.2207-1.6846,1.4584,1.4584,0,0,1,1.334-.9121c.0371,0,.123.0049.16.0088a1.0552,1.0552,0,0,1,.1982.043,1.4051,1.4051,0,0,1,.8525.7764,1.316,1.316,0,0,1-.0674,1.123A1.7169,1.7169,0,0,1,28.7715,8.658Z" fill="#ffab24"/><path d="M29.0513,6.7015a.4306.4306,0,0,1,.05.0028.3319.3319,0,0,1,.2063.4877.7892.7892,0,0,1-.5356.4658.1292.1292,0,0,1-.0986-.0394c-.23-.2484-.0564-.9169.3784-.9169m0-2h0a2.4453,2.4453,0,0,0-2.25,1.5122,2.5526,2.5526,0,0,0,.4045,2.7632,2.1379,2.1379,0,0,0,1.5664.6809,2.68,2.68,0,0,0,2.31-1.5428,2.3356,2.3356,0,0,0,.1074-1.9641,2.4,2.4,0,0,0-1.47-1.3488,2.0061,2.0061,0,0,0-.3936-.0852c-.0745-.0083-.199-.0154-.2737-.0154Z" fill="#fff"/></g><path d="M21.373,15.2082a1.17,1.17,0,0,0-.1163,1.5449c.6444.76,1.6176.9328,2.1375.2693,0,0-.39-.7209.0353-1.1282a.8321.8321,0,0,1-.2962-.6507s-.5336.1024-.66-.1928C22.4735,15.0507,21.9047,15.7593,21.373,15.2082Z" fill="#ffab24"/><path d="M21.4792,15.0479a.5934.5934,0,0,1,.1376-.2929.9187.9187,0,0,1,.2466-.2166c.1028-.0627.2364-.1427.3516-.0675a.47.47,0,0,1,.1825.4159.5907.5907,0,0,1-.832.3648A.2339.2339,0,0,1,21.4792,15.0479Z" fill="#ffab24"/><path d="M22.5495,14.3542c.2108-.1136.7874.025.8649.2731a.2629.2629,0,0,1-.0762.235c-.1293.1073-.51.6394-.8673-.0013a.5434.5434,0,0,1-.0562-.2452A.2756.2756,0,0,1,22.5495,14.3542Z" fill="#ffab24"/><path d="M23.579,14.8307c.2211-.0171.4239.2326.5.42.1649.4081-.0389.4623-.1587.4992s-.51.1083-.6422-.24a.5629.5629,0,0,1,.1852-.645A.2938.2938,0,0,1,23.579,14.8307Z" fill="#ffab24"/><path d="M23.73,15.8783a.3321.3321,0,0,1,.3058.4324c-.106.3916-.3857.6518-.5286.552C23.2188,16.6619,23.2583,15.9268,23.73,15.8783Z" fill="#ffab24"/><path d="M21.5061,9.6547A1.17,1.17,0,0,0,21.39,11.2c.6444.76,1.6176.9328,2.1375.2693,0,0-.39-.7209.0353-1.1282a.8322.8322,0,0,1-.2962-.6507s-.5336.1024-.66-.1928C22.6066,9.4972,22.0378,10.2058,21.5061,9.6547Z" fill="#ffab24"/><path d="M21.6123,9.4945a.5934.5934,0,0,1,.1376-.2929.9188.9188,0,0,1,.2466-.2166c.1028-.0627.2364-.1427.3516-.0675a.47.47,0,0,1,.1825.4159.5907.5907,0,0,1-.832.3648A.2339.2339,0,0,1,21.6123,9.4945Z" fill="#ffab24"/><path d="M22.6825,8.8007c.2108-.1136.7874.025.8649.2732a.2629.2629,0,0,1-.0762.235c-.1293.1073-.51.6394-.8673-.0013a.5432.5432,0,0,1-.0562-.2452A.2756.2756,0,0,1,22.6825,8.8007Z" fill="#ffab24"/><path d="M23.7121,9.2772c.2211-.0171.4239.2326.5.42.1649.4081-.0389.4623-.1587.4992s-.51.1083-.6422-.24a.5628.5628,0,0,1,.1852-.645A.2938.2938,0,0,1,23.7121,9.2772Z" fill="#ffab24"/><path d="M23.8627,10.3248a.3321.3321,0,0,1,.3058.4324c-.106.3916-.3857.6518-.5286.552C23.3519,11.1084,23.3914,10.3734,23.8627,10.3248Z" fill="#ffab24"/><path d="M26.4755,11.3942a1.17,1.17,0,0,0-.1163,1.5449c.6444.76,1.6176.9328,2.1375.2693,0,0-.39-.7209.0353-1.1282a.8321.8321,0,0,1-.2962-.6507s-.5336.1024-.66-.1928C27.576,11.2366,27.0072,11.9452,26.4755,11.3942Z" fill="#ffab24"/><path d="M26.5817,11.2339a.5934.5934,0,0,1,.1376-.2929.9188.9188,0,0,1,.2466-.2166c.1028-.0627.2364-.1427.3516-.0675a.47.47,0,0,1,.1825.4159.5907.5907,0,0,1-.832.3648A.2339.2339,0,0,1,26.5817,11.2339Z" fill="#ffab24"/><path d="M27.6519,10.54c.2108-.1136.7874.025.8649.2731a.2629.2629,0,0,1-.0762.235c-.1293.1073-.51.6394-.8673-.0013a.5432.5432,0,0,1-.0562-.2452A.2756.2756,0,0,1,27.6519,10.54Z" fill="#ffab24"/><path d="M28.6814,11.0166c.2211-.0171.4239.2326.5.42.1649.4081-.0389.4623-.1587.4992s-.51.1083-.6422-.24a.5629.5629,0,0,1,.1852-.645A.2938.2938,0,0,1,28.6814,11.0166Z" fill="#ffab24"/><path d="M28.8321,12.0642a.3321.3321,0,0,1,.3058.4324c-.106.3916-.3857.6518-.5286.552C28.3213,12.8478,28.3608,12.1128,28.8321,12.0642Z" fill="#ffab24"/><path d="M5.3762,23.0268a1.17,1.17,0,0,0,.187,1.5379c.78.62,1.7683.6,2.149-.1524,0,0-.5231-.6311-.1852-1.1134a.8319.8319,0,0,1-.4173-.5805s-.5034.2044-.6847-.0605C6.4249,22.6579,6.0051,23.4637,5.3762,23.0268Z" fill="#ffab24"/><path d="M5.4491,22.8489a.593.593,0,0,1,.0779-.3142.918.918,0,0,1,.2-.2605c.0886-.0815.2041-.186.3317-.1347a.4693.4693,0,0,1,.26.3724c.0477.3093-.4689.6776-.7449.52A.2341.2341,0,0,1,5.4491,22.8489Z" fill="#ffab24"/><path d="M6.3637,21.96c.1846-.1525.7771-.1288.9015.0995a.2628.2628,0,0,1-.0289.2454c-.1058.13-.3755.7265-.8509.1677a.5442.5442,0,0,1-.1029-.23A.2757.2757,0,0,1,6.3637,21.96Z" fill="#ffab24"/><path d="M7.4663,22.2267c.2135-.06.4611.1456.5719.3146.2413.3681.052.461-.0584.5205a.4984.4984,0,0,1-.6766-.11.5628.5628,0,0,1,.056-.6687A.2946.2946,0,0,1,7.4663,22.2267Z" fill="#ffab24"/><path d="M7.8182,23.2248s.4118-.04.3841.3646-.2513.7145-.411.6444C7.47,24.093,7.3653,23.3644,7.8182,23.2248Z" fill="#ffab24"/><path d="M2.1823,27.6352a1.17,1.17,0,0,0,.2662,1.5262c.8113.579,1.797.5075,2.1383-.2632,0,0-.5551-.6032-.2425-1.1024a.832.832,0,0,1-.4468-.5582s-.4922.23-.687-.0251C3.2105,27.2125,2.8329,28.039,2.1823,27.6352Z" fill="#ffab24"/><path d="M2.2459,27.4538a.5929.5929,0,0,1,.0616-.3178.918.918,0,0,1,.1859-.27c.0842-.0859.1942-.1963.3243-.1517a.4693.4693,0,0,1,.2789.3585c.0636.3064-.4333.7009-.717.5576A.2341.2341,0,0,1,2.2459,27.4538Z" fill="#ffab24"/><path d="M3.1133,26.5187c.1765-.1618.7694-.1688.9054.0527a.2628.2628,0,0,1-.0162.2465c-.0989.1357-.3374.7449-.8411.2114a.544.544,0,0,1-.1146-.2239A.2757.2757,0,0,1,3.1133,26.5187Z" fill="#ffab24"/><path d="M4.2283,26.7281c.21-.0708.468.1215.5874.2846.26.3552.0757.4577-.0314.5229a.4984.4984,0,0,1-.6814-.0747.5628.5628,0,0,1,.0214-.6707A.2945.2945,0,0,1,4.2283,26.7281Z" fill="#ffab24"/><path d="M4.6278,27.7041s.4091-.0613.4025.3442-.214.7265-.3771.6648C4.3247,28.5891,4.1827,27.8668,4.6278,27.7041Z" fill="#ffab24"/><path d="M7.4326,28.4515a1.17,1.17,0,0,0,.2662,1.5262c.8113.5791,1.797.5075,2.1383-.2632,0,0-.5551-.6032-.2425-1.1024a.8319.8319,0,0,1-.4467-.5582s-.4922.23-.687-.0251C8.4608,28.0288,8.0832,28.8552,7.4326,28.4515Z" fill="#ffab24"/><path d="M7.4962,28.27a.5929.5929,0,0,1,.0616-.3178.9183.9183,0,0,1,.1859-.27c.0842-.0859.1942-.1963.3243-.1517a.4693.4693,0,0,1,.2789.3585c.0636.3064-.4333.7009-.717.5576A.234.234,0,0,1,7.4962,28.27Z" fill="#ffab24"/><path d="M8.3636,27.3349c.1765-.1618.7694-.1688.9054.0527a.2628.2628,0,0,1-.0162.2465c-.0989.1357-.3374.7449-.8411.2114a.5439.5439,0,0,1-.1146-.2239A.2757.2757,0,0,1,8.3636,27.3349Z" fill="#ffab24"/><path d="M9.4786,27.5444c.21-.0708.468.1215.5874.2846.26.3552.0757.4577-.0314.5229a.4984.4984,0,0,1-.6814-.0747.5628.5628,0,0,1,.0214-.6707A.2946.2946,0,0,1,9.4786,27.5444Z" fill="#ffab24"/><path d="M9.8816,28.523s.4091-.0613.4024.3442-.214.7265-.3771.6648C9.5785,29.408,9.4365,28.6858,9.8816,28.523Z" fill="#ffab24"/><path d="M10.6041,23.9989a1.17,1.17,0,0,0,.0669,1.5478c.73.6789,1.7164.7353,2.1544.015,0,0-.4725-.67-.0982-1.1245a.8319.8319,0,0,1-.3709-.6112s-.5178.1646-.678-.1135C11.6783,23.7126,11.1972,24.4833,10.6041,23.9989Z" fill="#ffab24"/><path d="M10.6906,23.8272a.5929.5929,0,0,1,.1021-.3071.9183.9183,0,0,1,.2193-.2442c.0946-.0743.2179-.17.3411-.1086a.4693.4693,0,0,1,.23.3915c.0235.3121-.52.6391-.783.46A.234.234,0,0,1,10.6906,23.8272Z" fill="#ffab24"/><path d="M11.6715,23.0119c.1959-.1377.7847-.068.891.1692a.2628.2628,0,0,1-.0479.2424c-.1156.1218-.4308.6951-.8613.1011a.5439.5439,0,0,1-.0848-.2368A.2757.2757,0,0,1,11.6715,23.0119Z" fill="#ffab24"/><path d="M12.75,23.3635c.2175-.0431.4484.1809.5457.3581.2119.3858.016.4637-.0986.5144s-.4935.1677-.666-.162a.5628.5628,0,0,1,.1078-.6623A.2946.2946,0,0,1,12.75,23.3635Z" fill="#ffab24"/><path d="M13.0234,24.386s.4136-.008.3546.3933-.306.6928-.46.6106C12.6086,25.2245,12.5611,24.49,13.0234,24.386Z" fill="#ffab24"/><path d="M3.9011,32.7135A1.17,1.17,0,0,0,4.1673,34.24c.8113.5791,1.797.5075,2.1383-.2632,0,0-.5551-.6032-.2425-1.1024a.8319.8319,0,0,1-.4467-.5582s-.4922.23-.687-.0251C4.9294,32.2909,4.5518,33.1173,3.9011,32.7135Z" fill="#ffab24"/><path d="M3.9647,32.5321a.5929.5929,0,0,1,.0616-.3178.9183.9183,0,0,1,.1859-.27c.0842-.0859.1942-.1963.3243-.1517a.4693.4693,0,0,1,.2789.3585c.0636.3064-.4333.7009-.717.5576A.234.234,0,0,1,3.9647,32.5321Z" fill="#ffab24"/><path d="M4.8322,31.597c.1765-.1618.7694-.1688.9054.0527a.2628.2628,0,0,1-.0162.2465c-.0989.1357-.3374.7449-.8411.2114a.5439.5439,0,0,1-.1146-.2239A.2757.2757,0,0,1,4.8322,31.597Z" fill="#ffab24"/><path d="M5.9471,31.8064c.21-.0708.468.1215.5874.2846.26.3552.0757.4577-.0314.5229a.4984.4984,0,0,1-.6814-.0747.5628.5628,0,0,1,.0214-.6707A.2946.2946,0,0,1,5.9471,31.8064Z" fill="#ffab24"/><path d="M6.35,32.785s.4091-.0613.4024.3442-.214.7265-.3771.6648C6.0471,33.67,5.9051,32.9478,6.35,32.785Z" fill="#ffab24"/><path d="M17.2291,12.86a1.17,1.17,0,0,0-.2073,1.5353c.5985.797,1.56,1.0266,2.1179.395,0,0-.3469-.7427.1018-1.1242a.8321.8321,0,0,1-.2573-.667s-.5387.0707-.6473-.2314C18.337,12.7675,17.7274,13.4413,17.2291,12.86Z" fill="#ffab24"/><path d="M17.3446,12.7061a.5934.5934,0,0,1,.1547-.2843.9187.9187,0,0,1,.2589-.2017c.1063-.0565.2444-.1285.3549-.0467a.47.47,0,0,1,.1577.426.5907.5907,0,0,1-.852.3151A.2339.2339,0,0,1,17.3446,12.7061Z" fill="#ffab24"/><path d="M18.4539,12.0767c.2171-.101.7845.0715.8473.3237a.2629.2629,0,0,1-.09.23c-.1354.0995-.5468.6082-.8657-.0525a.5434.5434,0,0,1-.0416-.2481A.2756.2756,0,0,1,18.4539,12.0767Z" fill="#ffab24"/><path d="M19.4535,12.6131c.2217-.004.4094.2572.474.4488.1405.4171-.0661.4592-.1879.4889s-.5154.078-.627-.277a.5629.5629,0,0,1,.223-.6329A.2938.2938,0,0,1,19.4535,12.6131Z" fill="#ffab24"/><path d="M19.5421,13.6677a.3321.3321,0,0,1,.28.45c-.1289.3846-.4235.628-.56.52C18.9859,14.42,19.0688,13.6884,19.5421,13.6677Z" fill="#ffab24"/><path d="M31.5839,7.5879a1.17,1.17,0,0,0-.3552,1.508c.5183.8514,1.4528,1.1731,2.07.5986,0,0-.2732-.7729.21-1.109a.8321.8321,0,0,1-.1913-.6889s-.543.0181-.6218-.2931C32.6955,7.6036,32.0234,8.215,31.5839,7.5879Z" fill="#ffab24"/><path d="M31.7137,7.4461a.5934.5934,0,0,1,.1815-.2679.9187.9187,0,0,1,.2773-.1756c.1113-.0459.2558-.1042.3578-.012a.47.47,0,0,1,.1156.4392.5907.5907,0,0,1-.8786.2309A.2339.2339,0,0,1,31.7137,7.4461Z" fill="#ffab24"/><path d="M32.8789,6.9274c.2259-.0794.7739.1472.8119.4044a.2629.2629,0,0,1-.1118.22c-.1444.0859-.6032.5523-.8565-.1362a.5434.5434,0,0,1-.0174-.2509A.2756.2756,0,0,1,32.8789,6.9274Z" fill="#ffab24"/><path d="M33.8217,7.5582c.2211.0175.3826.2957.4283.4926.0994.4288-.11.4506-.2344.4684s-.5205.0276-.5971-.3365a.5629.5629,0,0,1,.2833-.6083A.2938.2938,0,0,1,33.8217,7.5582Z" fill="#ffab24"/><path d="M33.8076,8.6165a.3321.3321,0,0,1,.2348.4747c-.1656.37-.4824.5839-.6081.4631C33.181,9.3111,33.3344,8.5912,33.8076,8.6165Z" fill="#ffab24"/><path d="M32.311,2.6767a1.17,1.17,0,0,0-.3552,1.508c.5183.8513,1.4528,1.1731,2.07.5986,0,0-.2732-.7728.21-1.109a.8322.8322,0,0,1-.1913-.6889s-.543.0181-.6218-.2931C33.4226,2.6924,32.7505,3.3038,32.311,2.6767Z" fill="#ffab24"/><path d="M32.4409,2.5349a.5934.5934,0,0,1,.1815-.2679A.9188.9188,0,0,1,32.9,2.0914c.1113-.0459.2558-.1042.3578-.012a.47.47,0,0,1,.1156.4392.5907.5907,0,0,1-.8786.2309A.2339.2339,0,0,1,32.4409,2.5349Z" fill="#ffab24"/><path d="M33.606,2.0162c.2259-.0794.7739.1472.8119.4044a.2629.2629,0,0,1-.1118.22c-.1444.0859-.6032.5523-.8565-.1362a.5432.5432,0,0,1-.0174-.2509A.2756.2756,0,0,1,33.606,2.0162Z" fill="#ffab24"/><path d="M34.5489,2.647c.2211.0175.3826.2957.4283.4926.0994.4288-.11.4506-.2344.4684s-.5205.0276-.5971-.3365a.5628.5628,0,0,1,.2833-.6083A.2938.2938,0,0,1,34.5489,2.647Z" fill="#ffab24"/><path d="M34.5347,3.7053A.3321.3321,0,0,1,34.77,4.18c-.1656.37-.4824.5839-.6081.463C33.9082,4.4,34.0616,3.68,34.5347,3.7053Z" fill="#ffab24"/><path d="M26.9418,5.5464a1.17,1.17,0,0,0-.4436,1.4844c.4672.88,1.381,1.2568,2.0306.72,0,0-.2272-.7876.2755-1.0946a.8321.8321,0,0,1-.15-.6989s-.5432-.014-.6034-.3293C28.0505,5.6275,27.3435,6.1983,26.9418,5.5464Z" fill="#ffab24"/><path d="M27.08,5.4125a.5934.5934,0,0,1,.197-.2568.9187.9187,0,0,1,.2872-.159c.1138-.0393.2615-.0889.3579.0091a.47.47,0,0,1,.0895.4453.5907.5907,0,0,1-.8907.1787A.2339.2339,0,0,1,27.08,5.4125Z" fill="#ffab24"/><path d="M28.2735,4.9633c.23-.066.7639.1926.7866.4516a.2629.2629,0,0,1-.1246.2133c-.1492.0772-.6348.5158-.847-.1865A.5434.5434,0,0,1,28.086,5.19.2756.2756,0,0,1,28.2735,4.9633Z" fill="#ffab24"/><path d="M29.1775,5.6487c.22.03.3645.3178.3984.517.0739.4339-.1367.4433-.2617.4538s-.5212-.0031-.5762-.3712a.5629.5629,0,0,1,.3187-.5905A.2938.2938,0,0,1,29.1775,5.6487Z" fill="#ffab24"/><path d="M29.1009,6.7043a.3321.3321,0,0,1,.2064.4877c-.1872.36-.516.5544-.6344.4264C28.4344,7.3607,28.63,6.6511,29.1009,6.7043Z" fill="#ffab24"/></g></g></svg>