<svg xmlns="http://www.w3.org/2000/svg" width="37.0027" height="36.6221" viewBox="0 0 37.0027 36.6221"><title>migration-red</title><g id="Layer_2" data-name="Layer 2"><g id="Layer_1-2" data-name="Layer 1"><g opacity="0.8"><path d="M22.5494,18.4341A2.7445,2.7445,0,0,1,20.4937,17.4a2.1377,2.1377,0,0,1,.1611-2.8877.9994.9994,0,0,1,.7178-.3037h.001a1.0008,1.0008,0,0,1,.4277.0967,1.0484,1.0484,0,0,1,.6621-.2422.95.95,0,0,1,.1279.0088,1.081,1.081,0,0,1,.4561.1729c.0225-.001.0449-.002.0684-.002a1.0162,1.0162,0,0,1,1.0146.9355.9654.9654,0,0,1,.3125.6895.9549.9549,0,0,1-.1953.6055.6853.6853,0,0,0,.0264.0732,1.0014,1.0014,0,0,1-.0928,1.0918A2.0318,2.0318,0,0,1,22.5494,18.4341Z" fill="#fff"/><path d="M22.4734,15.0507c.0745.1742.291.21.4558.21a1.2023,1.2023,0,0,0,.2041-.0172.8325.8325,0,0,0,.2961.6508c-.4253.4072-.0352,1.1282-.0352,1.1282a1.0447,1.0447,0,0,1-.845.412,1.7659,1.7659,0,0,1-1.2927-.6813,1.17,1.17,0,0,1,.1165-1.5449.6048.6048,0,0,0,.4421.21,1.0035,1.0035,0,0,0,.6582-.3673m0-2a1.9981,1.9981,0,0,0-.822.1769,2.01,2.01,0,0,0-.2756-.0194h-.0024a2,2,0,0,0-1.4358.6078,3.1118,3.1118,0,0,0-.2065,4.23,3.7384,3.7384,0,0,0,2.8186,1.3883,3.0557,3.0557,0,0,0,2.4192-1.1782,2,2,0,0,0,.3611-1.7383,1.9989,1.9989,0,0,0-.2344-1.73,1.8616,1.8616,0,0,0-.5977-1.0635,1.9552,1.9552,0,0,0-1.2087-.5,2.0033,2.0033,0,0,0-.8157-.1737Z" fill="#fff"/><path d="M21.7945,16.3267a1.3292,1.3292,0,0,1-.8848-.32A1.2369,1.2369,0,0,1,20.481,14.98a1.5418,1.5418,0,0,1,.3486-.8408,1.8632,1.8632,0,0,1,.5166-.4561,1.4439,1.4439,0,0,1,.7656-.2422,1.1922,1.1922,0,0,1,.65.1924,1.4669,1.4669,0,0,1,.6338,1.2979A1.5782,1.5782,0,0,1,21.7945,16.3267Z" fill="#fff"/><path d="M22.1119,14.44a.1838.1838,0,0,1,.103.0305.4689.4689,0,0,1,.1826.4159c-.01.2345-.3381.44-.6025.44a.3436.3436,0,0,1-.2295-.075.2333.2333,0,0,1-.0862-.2036.5925.5925,0,0,1,.1375-.2928.9219.9219,0,0,1,.2466-.2167.52.52,0,0,1,.2485-.098m0-2h0a2.4354,2.4354,0,0,0-1.2905.3911,2.9005,2.9005,0,0,0-.7808.6926,2.5238,2.5238,0,0,0-.5552,1.37,2.2244,2.2244,0,0,0,.77,1.868,2.3439,2.3439,0,0,0,1.54.564,2.5705,2.5705,0,0,0,2.6006-2.3523,2.4674,2.4674,0,0,0-1.0884-2.1787,2.18,2.18,0,0,0-1.1953-.3551Z" fill="#fff"/><path d="M22.856,16.1714a1.4211,1.4211,0,0,1-1.2578-.8232,1.5461,1.5461,0,0,1-.1836-.7451,1.2756,1.2756,0,0,1,.6621-1.13,1.4135,1.4135,0,0,1,.6768-.1592,1.6577,1.6577,0,0,1,1.6152,1.0127,1.2571,1.2571,0,0,1-.3848,1.3A1.5883,1.5883,0,0,1,22.856,16.1714Z" fill="#fff"/><path d="M22.7542,14.314c.2556,0,.6013.1251.66.3134a.2628.2628,0,0,1-.0762.235c-.0825.0684-.2668.3092-.4822.3092-.1228,0-.2554-.078-.385-.3105a.5417.5417,0,0,1-.0562-.2451.2754.2754,0,0,1,.1345-.2617.4452.4452,0,0,1,.2048-.04m0-2a2.4029,2.4029,0,0,0-1.1536.28,2.2631,2.2631,0,0,0-1.1855,1.9938,2.5265,2.5265,0,0,0,.3113,1.2513,2.41,2.41,0,0,0,2.13,1.3329,2.5748,2.5748,0,0,0,1.83-.8311,2.2433,2.2433,0,0,0,.6377-2.3087,2.6566,2.6566,0,0,0-2.5693-1.7178Z" fill="#fff"/><path d="M23.7017,16.7817a1.4133,1.4133,0,0,1-1.3584-.917,1.5516,1.5516,0,0,1,.6494-1.8809,1.235,1.235,0,0,1,.5088-.15H23.51a1.6187,1.6187,0,0,1,1.4951,1.041,1.41,1.41,0,0,1,.0146,1.1748,1.2391,1.2391,0,0,1-.8047.6553A1.7638,1.7638,0,0,1,23.7017,16.7817Z" fill="#fff"/><path d="M23.6006,14.83c.2126,0,.4048.24.478.4209.165.4081-.0388.4623-.1587.4991a.7772.7772,0,0,1-.218.0322.4188.4188,0,0,1-.4243-.2717.5631.5631,0,0,1,.1853-.6449.2934.2934,0,0,1,.116-.0348l.0217-.0009m0-2c-.0518,0-.125.0028-.1763.0068a2.2866,2.2866,0,0,0-.9043.265A2.5442,2.5442,0,0,0,21.4078,16.22a2.4271,2.4271,0,0,0,2.2942,1.562,2.7724,2.7724,0,0,0,.8079-.1212,2.2279,2.2279,0,0,0,1.4143-1.1833,2.3844,2.3844,0,0,0,.0085-1.9767,2.5584,2.5584,0,0,0-2.332-1.671Z" fill="#fff"/><path d="M23.5767,17.8843a1.2567,1.2567,0,0,1-.6406-.2,1.5921,1.5921,0,0,1-.5557-1.6934,1.4335,1.4335,0,0,1,1.2471-1.1074c.0342-.0029.0684-.0049.1025-.0049s.0664.002.1.0049a1.4069,1.4069,0,0,1,.998.5762,1.3181,1.3181,0,0,1,.1738,1.1113A1.615,1.615,0,0,1,23.5767,17.8843Z" fill="#fff"/><path d="M23.73,15.8782a.3322.3322,0,0,1,.3059.4325c-.0906.3346-.3081.5734-.4587.5734a.1194.1194,0,0,1-.07-.0214c-.2881-.2008-.2485-.9359.2227-.9845m0-2a2.02,2.02,0,0,0-.2051.01,2.4413,2.4413,0,0,0-2.1128,1.8535,2.571,2.571,0,0,0,.9517,2.7612,2.11,2.11,0,0,0,1.2134.3806,2.5757,2.5757,0,0,0,2.3894-2.0509,2.3361,2.3361,0,0,0-.3147-1.9417,2.4005,2.4005,0,0,0-1.7244-1.0035q-.0985-.01-.1975-.01Z" fill="#fff"/><path d="M22.6832,12.88a2.7445,2.7445,0,0,1-2.0557-1.0342,2.1377,2.1377,0,0,1,.1611-2.8877.9994.9994,0,0,1,.7178-.3037h.001a1.0051,1.0051,0,0,1,.4287.0967,1.0493,1.0493,0,0,1,.6611-.24.8172.8172,0,0,1,.1289.0088,1.0715,1.0715,0,0,1,.4541.1719q.0337-.0029.0674-.0029a1.0182,1.0182,0,0,1,1.0156.9346A.9664.9664,0,0,1,24.38,10.92a.5978.5978,0,0,0,.0332.0869,1.0289,1.0289,0,0,1-.1,1.0791A2.0338,2.0338,0,0,1,22.6832,12.88Z" fill="#fff"/><path d="M22.6065,9.4972c.0745.1742.291.21.4558.21a1.2023,1.2023,0,0,0,.2041-.0172.8325.8325,0,0,0,.2961.6508c-.4253.4072-.0352,1.1282-.0352,1.1282a1.0447,1.0447,0,0,1-.845.412A1.7659,1.7659,0,0,1,21.39,11.2a1.17,1.17,0,0,1,.1165-1.5449.6048.6048,0,0,0,.4421.21,1.0035,1.0035,0,0,0,.6582-.3673m0-2a1.9981,1.9981,0,0,0-.822.1769,2.01,2.01,0,0,0-.2756-.0194h-.0024a2,2,0,0,0-1.4358.6078,3.1118,3.1118,0,0,0-.2065,4.23,3.7388,3.7388,0,0,0,2.8186,1.3883,3.0557,3.0557,0,0,0,2.4192-1.1782,2.0012,2.0012,0,0,0,.3613-1.7383,2,2,0,0,0-.2346-1.73,1.862,1.862,0,0,0-.5977-1.0635,1.9552,1.9552,0,0,0-1.2087-.5,2.0033,2.0033,0,0,0-.8157-.1737Z" fill="#fff"/><path d="M21.9283,10.7729a1.3317,1.3317,0,0,1-.8857-.32,1.235,1.235,0,0,1-.4287-1.0254,1.57,1.57,0,0,1,.3438-.8359,1.9282,1.9282,0,0,1,.5215-.4619,1.4439,1.4439,0,0,1,.7656-.2422,1.19,1.19,0,0,1,.65.1924A1.4693,1.4693,0,0,1,23.53,9.3784,1.5793,1.5793,0,0,1,21.9283,10.7729Z" fill="#fff"/><path d="M22.2449,8.8868a.1838.1838,0,0,1,.103.0305.469.469,0,0,1,.1826.4159c-.01.2345-.3381.44-.6025.44a.3436.3436,0,0,1-.2295-.075.234.234,0,0,1-.0862-.2036.5925.5925,0,0,1,.1375-.2928.9219.9219,0,0,1,.2466-.2167.5214.5214,0,0,1,.2485-.098m0-2h0a2.437,2.437,0,0,0-1.2888.39,2.9045,2.9045,0,0,0-.7825.6937,2.5238,2.5238,0,0,0-.5552,1.37,2.2251,2.2251,0,0,0,.7673,1.8657,2.3461,2.3461,0,0,0,1.5425.5663,2.5705,2.5705,0,0,0,2.6006-2.3523,2.4673,2.4673,0,0,0-1.0874-2.178,2.18,2.18,0,0,0-1.1963-.3558Z" fill="#fff"/><path d="M22.99,10.6187a1.4225,1.4225,0,0,1-1.26-.8252,1.5366,1.5366,0,0,1-.1826-.7441,1.2717,1.2717,0,0,1,.6533-1.126,1.43,1.43,0,0,1,.6855-.1631,1.6547,1.6547,0,0,1,1.6162,1.0166,1.2481,1.2481,0,0,1-.3857,1.2959A1.5784,1.5784,0,0,1,22.99,10.6187Z" fill="#fff"/><path d="M22.8873,8.76c.2559,0,.6016.1251.66.3134a.2628.2628,0,0,1-.0762.235c-.0823.0684-.2668.3092-.4822.3092-.1228,0-.2554-.078-.385-.3105a.5417.5417,0,0,1-.0562-.2451.2754.2754,0,0,1,.1345-.2617.4452.4452,0,0,1,.2048-.04m0-2a2.4029,2.4029,0,0,0-1.1536.28,2.2631,2.2631,0,0,0-1.1855,1.9938,2.5275,2.5275,0,0,0,.3113,1.2516,2.41,2.41,0,0,0,2.13,1.3326,2.5742,2.5742,0,0,0,1.83-.8307,2.2431,2.2431,0,0,0,.6379-2.3091A2.6555,2.6555,0,0,0,22.8873,6.76Z" fill="#fff"/><path d="M23.8355,11.228a1.4179,1.4179,0,0,1-1.3594-.915A1.5534,1.5534,0,0,1,23.1255,8.43a1.2889,1.2889,0,0,1,.5117-.15h.0078a1.6125,1.6125,0,0,1,1.4941,1.0449,1.412,1.412,0,0,1,.0156,1.1689,1.2475,1.2475,0,0,1-.8008.6572A1.8185,1.8185,0,0,1,23.8355,11.228Z" fill="#fff"/><path d="M23.7337,9.2762c.2126,0,.4048.24.478.4209.165.4081-.0388.4623-.1587.4991a.7757.7757,0,0,1-.218.0322.4184.4184,0,0,1-.4241-.2717.5626.5626,0,0,1,.1851-.6449.2934.2934,0,0,1,.116-.0348l.0217-.0009m0-2c-.0518,0-.125.0028-.1765.0068a2.2866,2.2866,0,0,0-.9041.265,2.5432,2.5432,0,0,0-1.1113,3.12,2.4257,2.4257,0,0,0,2.2932,1.56,2.7729,2.7729,0,0,0,.8091-.1216,2.227,2.227,0,0,0,1.4131-1.183,2.3844,2.3844,0,0,0,.0085-1.9767,2.5582,2.5582,0,0,0-2.332-1.671Z" fill="#fff"/><path d="M23.7105,12.3306a1.2445,1.2445,0,0,1-.6426-.2021,1.5891,1.5891,0,0,1-.5547-1.69A1.4324,1.4324,0,0,1,23.76,9.33c.0342-.0029.0684-.0049.1025-.0049s.0664.002.0986.0049a1.41,1.41,0,0,1,1.001.5771,1.3217,1.3217,0,0,1,.1709,1.1133A1.6131,1.6131,0,0,1,23.7105,12.3306Z" fill="#fff"/><path d="M23.8629,10.3247a.3321.3321,0,0,1,.3057.4325c-.0906.3346-.3081.5734-.4587.5734a.1194.1194,0,0,1-.07-.0214c-.2881-.2008-.2485-.9359.2229-.9845m0-2a2.02,2.02,0,0,0-.2051.01,2.4412,2.4412,0,0,0-2.113,1.8535,2.571,2.571,0,0,0,.9517,2.7612,2.11,2.11,0,0,0,1.2134.3806A2.5751,2.5751,0,0,0,26.0989,11.28a2.3353,2.3353,0,0,0-.3145-1.9418,2.4,2.4,0,0,0-1.7239-1.0035c-.0657-.0065-.1318-.01-.1978-.01Z" fill="#fff"/><path d="M27.6519,14.6206a2.7441,2.7441,0,0,1-2.0557-1.0352,2.1377,2.1377,0,0,1,.1611-2.8877.9994.9994,0,0,1,.7178-.3037h.001a1.0084,1.0084,0,0,1,.4287.0967,1.05,1.05,0,0,1,.6611-.2412.95.95,0,0,1,.1279.0088,1.0769,1.0769,0,0,1,.4551.1729c.0225-.002.0459-.0029.0684-.0029a1.0179,1.0179,0,0,1,1.0156.9365.9676.9676,0,0,1,.3125.69.9483.9483,0,0,1-.1953.6045.6853.6853,0,0,0,.0264.0732,1.0012,1.0012,0,0,1-.0928,1.0928A2.0337,2.0337,0,0,1,27.6519,14.6206Z" fill="#fff"/><path d="M27.576,11.2366c.0745.1743.2913.21.4561.21a1.2057,1.2057,0,0,0,.2039-.0171.8316.8316,0,0,0,.2961.6506c-.4255.4072-.0354,1.1282-.0354,1.1282a1.0443,1.0443,0,0,1-.8447.4121,1.766,1.766,0,0,1-1.2927-.6814,1.17,1.17,0,0,1,.1162-1.5448.6048.6048,0,0,0,.4419.21,1.0036,1.0036,0,0,0,.6587-.3674m0-2a1.9993,1.9993,0,0,0-.8223.177,2.01,2.01,0,0,0-.2756-.0194h-.0024a2,2,0,0,0-1.4358.6077,3.1116,3.1116,0,0,0-.2061,4.23A3.7382,3.7382,0,0,0,27.6519,15.62a3.0545,3.0545,0,0,0,2.4192-1.1788,2,2,0,0,0,.3611-1.7373,2.0007,2.0007,0,0,0-.2341-1.7308,1.8633,1.8633,0,0,0-.5974-1.0627,1.9535,1.9535,0,0,0-1.209-.5,2.0031,2.0031,0,0,0-.8159-.1738Z" fill="#fff"/><path d="M26.897,12.5122a1.3317,1.3317,0,0,1-.8857-.32,1.2383,1.2383,0,0,1-.4268-1.0391,1.5389,1.5389,0,0,1,.3477-.8281,1.9127,1.9127,0,0,1,.5166-.4561,1.4439,1.4439,0,0,1,.7656-.2422,1.1922,1.1922,0,0,1,.65.1924,1.4708,1.4708,0,0,1,.6338,1.2988A1.5781,1.5781,0,0,1,26.897,12.5122Z" fill="#fff"/><path d="M27.2144,10.6262a.1838.1838,0,0,1,.103.0305.47.47,0,0,1,.1826.4159c-.01.2346-.3381.44-.6028.44a.3433.3433,0,0,1-.2292-.0748.2343.2343,0,0,1-.0864-.2036.5933.5933,0,0,1,.1377-.293.9182.9182,0,0,1,.2466-.2167.5229.5229,0,0,1,.2485-.098m0-2h0a2.437,2.437,0,0,0-1.2891.39,2.8988,2.8988,0,0,0-.7844.6965,2.5211,2.5211,0,0,0-.5532,1.3676,2.229,2.229,0,0,0,.77,1.868,2.3439,2.3439,0,0,0,1.54.5638A2.5706,2.5706,0,0,0,29.4981,11.16a2.4706,2.4706,0,0,0-1.0859-2.1771,2.1855,2.1855,0,0,0-1.1978-.3567Z" fill="#fff"/><path d="M27.9586,12.3579a1.4211,1.4211,0,0,1-1.2578-.8232,1.536,1.536,0,0,1-.1836-.7461A1.2752,1.2752,0,0,1,27.1793,9.66a1.4107,1.4107,0,0,1,.6787-.16,1.656,1.656,0,0,1,1.6133,1.0127,1.2558,1.2558,0,0,1-.3926,1.3066A1.5723,1.5723,0,0,1,27.9586,12.3579Z" fill="#fff"/><path d="M27.8565,10.5c.2559,0,.6016.1252.66.3134a.2627.2627,0,0,1-.0762.235c-.0825.0684-.2668.3093-.4824.3093-.1226,0-.2551-.0781-.3848-.3105a.5428.5428,0,0,1-.0564-.2452.2761.2761,0,0,1,.1348-.2617.4448.4448,0,0,1,.2046-.04m0-2h0a2.4054,2.4054,0,0,0-1.1523.2791A2.2646,2.2646,0,0,0,25.5174,10.77a2.5318,2.5318,0,0,0,.3108,1.2538,2.4112,2.4112,0,0,0,2.13,1.3341,2.5749,2.5749,0,0,0,1.83-.8312,2.2439,2.2439,0,0,0,.6382-2.3077A2.6575,2.6575,0,0,0,27.8565,8.5Z" fill="#fff"/><path d="M28.8043,12.9683a1.4145,1.4145,0,0,1-1.3594-.9189,1.5531,1.5531,0,0,1,.6494-1.88,1.3214,1.3214,0,0,1,.4844-.1484c.0342-.0029.09-.0059.124-.0059A1.6011,1.6011,0,0,1,30.108,11.061a1.413,1.413,0,0,1,.0166,1.1709,1.2482,1.2482,0,0,1-.8018.6582A1.8153,1.8153,0,0,1,28.8043,12.9683Z" fill="#fff"/><path d="M28.7032,11.0157c.2126,0,.4045.24.478.4208.1648.4082-.0388.4624-.1587.4993a.778.778,0,0,1-.218.0321.4185.4185,0,0,1-.4243-.2717.5631.5631,0,0,1,.1853-.6449.2952.2952,0,0,1,.116-.0347l.0217-.0009m0-2c-.0518,0-.125.0028-.1765.0068a2.2876,2.2876,0,0,0-.9.2626,2.5446,2.5446,0,0,0-1.1165,3.1211,2.426,2.426,0,0,0,2.2939,1.5616,2.778,2.778,0,0,0,.8059-.12,2.2306,2.2306,0,0,0,1.416-1.1833,2.3864,2.3864,0,0,0,.0093-1.9762,2.5605,2.5605,0,0,0-2.3325-1.6721Z" fill="#fff"/><path d="M28.6793,14.07a1.2567,1.2567,0,0,1-.6406-.2A1.5878,1.5878,0,0,1,27.482,12.18a1.4332,1.4332,0,0,1,1.248-1.1113c.0342-.0029.0684-.0049.1025-.0049s.0664.002.1.0049a1.4069,1.4069,0,0,1,.998.5762,1.3181,1.3181,0,0,1,.1738,1.1113A1.615,1.615,0,0,1,28.6793,14.07Z" fill="#fff"/><path d="M28.8321,12.0642a.3321.3321,0,0,1,.3059.4324c-.0908.3347-.3081.5734-.4587.5734a.12.12,0,0,1-.07-.0214c-.2878-.2008-.2483-.9358.2229-.9844m0-2a2.02,2.02,0,0,0-.2051.01,2.4411,2.4411,0,0,0-2.1128,1.853,2.5709,2.5709,0,0,0,.9507,2.7611,2.111,2.111,0,0,0,1.2144.3811,2.5758,2.5758,0,0,0,2.3889-2.05,2.3352,2.3352,0,0,0-.3145-1.9427,2.4,2.4,0,0,0-1.7246-1.0033c-.0654-.0065-.1313-.01-.197-.01Z" fill="#fff"/><path d="M6.7125,26.0054a2.8868,2.8868,0,0,1-1.7715-.6572,2.138,2.138,0,0,1-.4043-2.8643,1.0036,1.0036,0,0,1,.6465-.4385.99.99,0,0,1,.1934-.0186,1.0336,1.0336,0,0,1,.2451.03,1.0379,1.0379,0,0,1,.73-.3818c.0215-.001.043-.002.0645-.002a1.072,1.072,0,0,1,.4219.0859.9954.9954,0,0,1,1.2383.7021.9678.9678,0,0,1,.4395.6152.95.95,0,0,1-.0742.6309.6514.6514,0,0,0,.05.0791,1.0278,1.0278,0,0,1,.1133,1.0781A2.0755,2.0755,0,0,1,6.7125,26.0054Z" fill="#fff"/><path d="M6.4249,22.6578a.3587.3587,0,0,0,.3132.1357,1.1365,1.1365,0,0,0,.3716-.0752.8321.8321,0,0,0,.4172.5806c-.3379.4823.1853,1.1134.1853,1.1134a1.0717,1.0717,0,0,1-1,.5928,1.8892,1.8892,0,0,1-1.15-.44,1.17,1.17,0,0,1-.1868-1.538.6484.6484,0,0,0,.3718.13c.417,0,.6768-.4988.6768-.4988m0-2c-.04,0-.08.0012-.12.0037A1.9994,1.9994,0,0,0,5.263,21.03a2.0006,2.0006,0,0,0-1.5662.9108,3.1117,3.1117,0,0,0,.6216,4.19,3.8884,3.8884,0,0,0,2.3943.8748,3.0557,3.0557,0,0,0,2.7837-1.6892,1.9994,1.9994,0,0,0,.0159-1.7754,2.0011,2.0011,0,0,0-.5959-1.68A2.0008,2.0008,0,0,0,7.11,20.7184c-.0564,0-.1125.0023-.1689.0071a1.9987,1.9987,0,0,0-.5156-.0676Z" fill="#fff"/><path d="M5.7261,24.07a1.3091,1.3091,0,0,1-.65-.1709,1.2369,1.2369,0,0,1-.6191-.9277,1.54,1.54,0,0,1,.1758-.8838,1.9089,1.9089,0,0,1,.4189-.5508,1.3808,1.3808,0,0,1,.9385-.4111,1.4092,1.4092,0,0,1,.4395.085,1.464,1.464,0,0,1,.8779,1.1553,1.3765,1.3765,0,0,1-.3437,1.1084A1.69,1.69,0,0,1,5.7261,24.07Z" fill="#fff"/><path d="M5.9891,22.1259a.1826.1826,0,0,1,.0693.0137.47.47,0,0,1,.26.3724c.04.2583-.3137.5575-.592.5575a.3052.3052,0,0,1-.1528-.0377.2342.2342,0,0,1-.1245-.1829.5922.5922,0,0,1,.0781-.3141.9186.9186,0,0,1,.1995-.2606.4375.4375,0,0,1,.2625-.1483m0-2h0a2.3537,2.3537,0,0,0-1.6155.6755,2.8979,2.8979,0,0,0-.6335.8354,2.5168,2.5168,0,0,0-.2769,1.4492,2.2291,2.2291,0,0,0,1.12,1.6833,2.3079,2.3079,0,0,0,1.1431.3,2.6765,2.6765,0,0,0,1.9956-.9437,2.3954,2.3954,0,0,0,.5732-1.9181,2.4692,2.4692,0,0,0-1.49-1.9235,2.1759,2.1759,0,0,0-.8162-.1583Z" fill="#fff"/><path d="M6.7681,23.7075a1.4866,1.4866,0,0,1-1.1445-.5869,1.507,1.507,0,0,1-.3262-.709,1.2741,1.2741,0,0,1,.4258-1.2207,1.6039,1.6039,0,0,1,1.0215-.3281,1.533,1.533,0,0,1,1.3984.7178,1.2528,1.2528,0,0,1-.1318,1.3555A1.51,1.51,0,0,1,6.7681,23.7075Z" fill="#fff"/><path d="M6.7457,21.863a.6128.6128,0,0,1,.52.1963.2632.2632,0,0,1-.0288.2454c-.0732.09-.2246.4027-.4683.4027a.532.532,0,0,1-.3828-.235.5433.5433,0,0,1-.1028-.23.2754.2754,0,0,1,.0813-.283.6441.6441,0,0,1,.3818-.0968m0-2a2.5833,2.5833,0,0,0-1.6558.5548,2.2629,2.2629,0,0,0-.7747,2.1868,2.531,2.531,0,0,0,.5469,1.1642,2.482,2.482,0,0,0,1.9058.9386,2.4437,2.4437,0,0,0,2.0808-1.22,2.2455,2.2455,0,0,0,.1716-2.3868A2.5117,2.5117,0,0,0,6.7459,19.863Z" fill="#fff"/><path d="M7.6568,24.1479a1.3913,1.3913,0,0,1-1.2012-.666,1.5515,1.5515,0,0,1,.27-1.9717,1.2617,1.2617,0,0,1,.4863-.25,1.6742,1.6742,0,0,1,.334-.0439,1.6569,1.6569,0,0,1,1.3281.7754,1.4152,1.4152,0,0,1,.2451,1.1475,1.2437,1.2437,0,0,1-.6582.8A1.72,1.72,0,0,1,7.6568,24.1479Z" fill="#fff"/><path d="M7.5452,22.2161a.6919.6919,0,0,1,.4929.3252c.2415.3682.052.4609-.0583.5205a.73.73,0,0,1-.3237.0861.3953.3953,0,0,1-.3528-.1959.5629.5629,0,0,1,.0559-.6686.2962.2962,0,0,1,.1072-.0566.2883.2883,0,0,1,.0789-.0106m0-2a2.2856,2.2856,0,0,0-1.4487.5164,2.5448,2.5448,0,0,0-.4878,3.2817,2.4026,2.4026,0,0,0,2.0474,1.1337,2.7407,2.7407,0,0,0,1.2754-.3269,2.2285,2.2285,0,0,0,1.156-1.4366,2.3845,2.3845,0,0,0-.377-1.94,2.6637,2.6637,0,0,0-2.1653-1.2284Z" fill="#fff"/><path d="M7.8384,25.2437a1.26,1.26,0,0,1-.4512-.0947,1.59,1.59,0,0,1-.87-1.5479A1.43,1.43,0,0,1,7.523,22.27a.9155.9155,0,0,1,.1982-.04c.0322-.0029.0947-.0059.127-.0059a1.36,1.36,0,0,1,1.0088.42,1.329,1.329,0,0,1,.3438,1.0127A1.522,1.522,0,0,1,7.8384,25.2437Z" fill="#fff"/><path d="M7.848,23.2236a.3212.3212,0,0,1,.3545.3657c-.0251.3661-.21.6543-.3638.6543a.1173.1173,0,0,1-.0474-.01c-.3215-.1409-.426-.8694.0269-1.009,0,0,.0112-.0011.03-.0011m0-2c-.0645,0-.1587.0042-.2229.01a2.004,2.004,0,0,0-.3965.0795,2.4421,2.4421,0,0,0-1.7109,2.23,2.5719,2.5719,0,0,0,1.4709,2.5226,2.24,2.24,0,0,0,.85.178,2.5174,2.5174,0,0,0,2.3591-2.5171,2.3213,2.3213,0,0,0-.61-1.7656,2.3807,2.3807,0,0,0-1.74-.7373Z" fill="#fff"/><path d="M3.5455,30.5435a2.9248,2.9248,0,0,1-1.6777-.5684,2.1385,2.1385,0,0,1-.5527-2.8389,1.0048,1.0048,0,0,1,.623-.4707.9835.9835,0,0,1,.2441-.03.9937.9937,0,0,1,.1943.02,1.0356,1.0356,0,0,1,.71-.42c.04-.0039.08-.0068.1211-.0068a1.0694,1.0694,0,0,1,.377.0684.9764.9764,0,0,1,.7979.0615.9729.9729,0,0,1,.4668.5723.9585.9585,0,0,1,.4707.5918.94.94,0,0,1-.041.6348.6111.6111,0,0,0,.0537.0762,1.0259,1.0259,0,0,1,.168,1.0693A2.07,2.07,0,0,1,3.5455,30.5435Z" fill="#fff"/><path d="M3.2105,27.2125a.3421.3421,0,0,0,.2861.12,1.1008,1.1008,0,0,0,.4009-.0952.8316.8316,0,0,0,.4468.5581c-.3125.4993.2424,1.1024.2424,1.1024a1.083,1.083,0,0,1-1.041.6456,1.9239,1.9239,0,0,1-1.0972-.3823,1.17,1.17,0,0,1-.2664-1.5262.6612.6612,0,0,0,.3508.1111c.4336,0,.6775-.5337.6775-.5337m0-2a2.0247,2.0247,0,0,0-.2234.0125,1.9994,1.9994,0,0,0-1.0212.4219,2,2,0,0,0-1.5176.991,3.112,3.112,0,0,0,.8381,4.1514,3.94,3.94,0,0,0,2.259.7545,3.085,3.085,0,0,0,2.87-1.8358,2,2,0,0,0-.0759-1.7733,1.9991,1.9991,0,0,0-.6824-1.6477,2,2,0,0,0-2.0312-1.0308,1.9945,1.9945,0,0,0-.415-.0436Z" fill="#fff"/><path d="M2.5142,28.6606a1.28,1.28,0,0,1-.583-.1367,1.2418,1.2418,0,0,1-.67-.8955,1.5487,1.5487,0,0,1,.13-.8926,1.8878,1.8878,0,0,1,.3906-.5723,1.3565,1.3565,0,0,1,.9766-.46,1.3929,1.3929,0,0,1,.38.0625,1.4652,1.4652,0,0,1,.9385,1.1094,1.4,1.4,0,0,1-.3135,1.1592A1.6692,1.6692,0,0,1,2.5142,28.6606Z" fill="#fff"/><path d="M2.7574,26.7035a.1841.1841,0,0,1,.06.01.4691.4691,0,0,1,.2788.3585c.0544.2618-.3.5879-.582.5879a.2966.2966,0,0,1-.135-.03.2344.2344,0,0,1-.1335-.1761.5952.5952,0,0,1,.0615-.3177.9175.9175,0,0,1,.186-.2705.4194.4194,0,0,1,.2639-.162m0-2h0a2.323,2.323,0,0,0-1.6921.7621,2.9012,2.9012,0,0,0-.5889.8663A2.526,2.526,0,0,0,.275,27.7931a2.2289,2.2289,0,0,0,1.2036,1.6224,2.31,2.31,0,0,0,1.0359.2446,2.6531,2.6531,0,0,0,2.0249-.9951,2.3965,2.3965,0,0,0,.5151-2,2.4654,2.4654,0,0,0-1.5867-1.8427,2.1826,2.1826,0,0,0-.71-.1189Z" fill="#fff"/><path d="M3.5416,28.2446a1.506,1.506,0,0,1-1.1064-.5283,1.55,1.55,0,0,1-.3613-.6777,1.2812,1.2812,0,0,1,.3594-1.2529,1.6672,1.6672,0,0,1,1.1143-.3848,1.4948,1.4948,0,0,1,1.3232.6455,1.2532,1.2532,0,0,1-.0635,1.3652A1.4823,1.4823,0,0,1,3.5416,28.2446Z" fill="#fff"/><path d="M3.5474,26.4008a.567.567,0,0,1,.4712.1705.262.262,0,0,1-.0161.2466c-.07.0956-.209.4266-.4614.4266a.5506.5506,0,0,1-.38-.2152.5415.5415,0,0,1-.1145-.2239.2757.2757,0,0,1,.0664-.2869.6988.6988,0,0,1,.4341-.1178m0-2h0a2.6572,2.6572,0,0,0-1.7852.6433,2.2639,2.2639,0,0,0-.6611,2.2233,2.5268,2.5268,0,0,0,.6067,1.1357,2.4806,2.4806,0,0,0,1.8333.8416A2.4141,2.4141,0,0,0,5.67,27.922a2.2406,2.2406,0,0,0,.0508-2.4,2.4652,2.4652,0,0,0-2.1738-1.1212Z" fill="#fff"/><path d="M4.44,28.6392a1.3968,1.3968,0,0,1-1.1553-.6045,1.55,1.55,0,0,1,.17-1.9863,1.2611,1.2611,0,0,1,.4424-.2637,1.6622,1.6622,0,0,1,.4268-.0723,1.6842,1.6842,0,0,1,1.2979.707,1.4147,1.4147,0,0,1,.3037,1.1318,1.2467,1.2467,0,0,1-.6113.833A1.71,1.71,0,0,1,4.44,28.6392Z" fill="#fff"/><path d="M4.3233,26.7129a.7077.7077,0,0,1,.4924.3c.26.3551.0757.4576-.0315.5228a.7172.7172,0,0,1-.345.1033.3927.3927,0,0,1-.3364-.178.5628.5628,0,0,1,.0215-.6707.2874.2874,0,0,1,.199-.0773m0-2H4.3226a2.2875,2.2875,0,0,0-1.5444.5981,2.5437,2.5437,0,0,0-.3135,3.2972,2.3838,2.3838,0,0,0,1.9746,1.0305,2.7165,2.7165,0,0,0,1.3845-.3947,2.2292,2.2292,0,0,0,1.082-1.4951A2.3857,2.3857,0,0,0,6.43,25.8312a2.6968,2.6968,0,0,0-2.1062-1.1183Z" fill="#fff"/><path d="M4.6939,29.7212A1.23,1.23,0,0,1,4.3,29.6489a1.59,1.59,0,0,1-.9531-1.502,1.4319,1.4319,0,0,1,.9355-1.3818,1.0018,1.0018,0,0,1,.1982-.0508,1.9884,1.9884,0,0,1,.2012-.0137A1.3083,1.3083,0,0,1,6.03,28.0649,1.5085,1.5085,0,0,1,4.6939,29.7212Z" fill="#fff"/><path d="M4.6837,27.7007a.3147.3147,0,0,1,.3467.3475c-.0063.3718-.1809.6725-.3357.6725a.1177.1177,0,0,1-.0415-.0077c-.3284-.124-.47-.8462-.0254-1.009a.4163.4163,0,0,1,.0559-.0033m0-2a2.17,2.17,0,0,0-.3521.0253,2.8345,2.8345,0,0,0-.3911.1A2.4416,2.4416,0,0,0,2.347,28.1407a2.5715,2.5715,0,0,0,1.6,2.4432,2.2394,2.2394,0,0,0,.748.1367A2.4776,2.4776,0,0,0,7.03,28.0819a2.3066,2.3066,0,0,0-2.3464-2.3812Z" fill="#fff"/><path d="M8.7955,31.36a2.9353,2.9353,0,0,1-1.6777-.5674,2.14,2.14,0,0,1-.5527-2.84.9993.9993,0,0,1,.8672-.501.9937.9937,0,0,1,.1943.02,1.0119,1.0119,0,0,1,.8311-.4268,1.0748,1.0748,0,0,1,.3779.0684.9745.9745,0,0,1,.7988.0625.9736.9736,0,0,1,.4668.5723.9649.9649,0,0,1,.47.5908.9518.9518,0,0,1-.041.6348.6777.6777,0,0,0,.0537.0752,1.03,1.03,0,0,1,.168,1.0713A2.0717,2.0717,0,0,1,8.7955,31.36Z" fill="#fff"/><path d="M8.4608,28.0288a.3421.3421,0,0,0,.2861.12,1.1008,1.1008,0,0,0,.4009-.0952.8323.8323,0,0,0,.4468.5582c-.3125.4991.2424,1.1023.2424,1.1023a1.0828,1.0828,0,0,1-1.041.6456,1.9239,1.9239,0,0,1-1.0972-.3823,1.17,1.17,0,0,1-.2661-1.5262.6612.6612,0,0,0,.3508.1111c.4333,0,.6772-.5337.6772-.5337m0-2a2.0214,2.0214,0,0,0-.2234.0125,2,2,0,0,0-1.0212.4219,2,2,0,0,0-1.5171.9906,3.1118,3.1118,0,0,0,.8376,4.1517,3.94,3.94,0,0,0,2.259.7545,3.0856,3.0856,0,0,0,2.87-1.8359,2,2,0,0,0-.0762-1.7732,2,2,0,0,0-.6821-1.6475,2,2,0,0,0-2.0315-1.031,1.9945,1.9945,0,0,0-.415-.0436Z" fill="#fff"/><path d="M7.7652,29.4761a1.2878,1.2878,0,0,1-.5869-.1377,1.2252,1.2252,0,0,1-.668-.9062,1.5147,1.5147,0,0,1,.1348-.8887,1.9228,1.9228,0,0,1,.3867-.5635,1.3565,1.3565,0,0,1,.9766-.46,1.3929,1.3929,0,0,1,.38.0625,1.4685,1.4685,0,0,1,.9375,1.1006,1.3979,1.3979,0,0,1-.3125,1.167A1.6624,1.6624,0,0,1,7.7652,29.4761Z" fill="#fff"/><path d="M8.0076,27.52a.1841.1841,0,0,1,.06.01.47.47,0,0,1,.2791.3585c.0542.2618-.3005.5879-.582.5879a.2966.2966,0,0,1-.135-.03.2342.2342,0,0,1-.1338-.1761.5931.5931,0,0,1,.0618-.3177.9168.9168,0,0,1,.1858-.2705.42.42,0,0,1,.2639-.162m0-2h0a2.323,2.323,0,0,0-1.6921.7621,2.8983,2.8983,0,0,0-.5886.8666,2.5173,2.5173,0,0,0-.2014,1.4608,2.2283,2.2283,0,0,0,1.2061,1.6237,2.3071,2.3071,0,0,0,1.0337.2435,2.6532,2.6532,0,0,0,2.0242-.9944,2.3979,2.3979,0,0,0,.5164-1.9991,2.4693,2.4693,0,0,0-1.5874-1.8442,2.1815,2.1815,0,0,0-.71-.1189Z" fill="#fff"/><path d="M8.7916,29.061a1.5073,1.5073,0,0,1-1.1074-.5293,1.5234,1.5234,0,0,1-.3623-.6895,1.2736,1.2736,0,0,1,.3672-1.2461,1.6676,1.6676,0,0,1,1.1084-.3789,1.49,1.49,0,0,1,1.3232.6465,1.2465,1.2465,0,0,1-.0635,1.3643A1.4841,1.4841,0,0,1,8.7916,29.061Z" fill="#fff"/><path d="M8.7977,27.217a.5673.5673,0,0,1,.4714.1705.2634.2634,0,0,1-.0161.2466c-.07.0956-.209.4266-.4617.4266a.5506.5506,0,0,1-.38-.2152.5444.5444,0,0,1-.1145-.2239.2757.2757,0,0,1,.0664-.2869.6988.6988,0,0,1,.4341-.1178m0-2h0a2.6572,2.6572,0,0,0-1.7852.6433,2.2637,2.2637,0,0,0-.6611,2.2238,2.5356,2.5356,0,0,0,.6067,1.1353,2.4806,2.4806,0,0,0,1.8333.8416,2.4159,2.4159,0,0,0,2.1323-1.3271,2.2454,2.2454,0,0,0,.051-2.3907,2.4672,2.4672,0,0,0-2.1768-1.126Z" fill="#fff"/><path d="M9.69,29.4546a1.3958,1.3958,0,0,1-1.1553-.6035A1.5537,1.5537,0,0,1,8.7,26.8677a1.2946,1.2946,0,0,1,.4561-.27,1.6857,1.6857,0,0,1,.4189-.0693,1.6809,1.6809,0,0,1,1.2988.71,1.4177,1.4177,0,0,1,.3018,1.1318,1.25,1.25,0,0,1-.6152.833A1.7261,1.7261,0,0,1,9.69,29.4546Z" fill="#fff"/><path d="M9.5735,27.5292a.7077.7077,0,0,1,.4924.3c.26.3551.0757.4576-.0315.5228a.7172.7172,0,0,1-.345.1033.3923.3923,0,0,1-.3362-.178.5624.5624,0,0,1,.0212-.6707.2874.2874,0,0,1,.199-.0773m0-2H9.5728a2.2887,2.2887,0,0,0-1.5442.5979,2.5428,2.5428,0,0,0-.3123,3.299A2.3823,2.3823,0,0,0,9.69,30.4551,2.7161,2.7161,0,0,0,11.074,30.06a2.23,2.23,0,0,0,1.082-1.4951,2.3857,2.3857,0,0,0-.4763-1.9178,2.6971,2.6971,0,0,0-2.1062-1.1183Z" fill="#fff"/><path d="M9.9478,30.54a1.23,1.23,0,0,1-.3936-.0723,1.5887,1.5887,0,0,1-.9531-1.5029,1.4333,1.4333,0,0,1,.9365-1.3809,1.1234,1.1234,0,0,1,.1953-.05A2.0463,2.0463,0,0,1,9.938,27.52a1.3052,1.3052,0,0,1,1.3457,1.3633A1.5085,1.5085,0,0,1,9.9478,30.54Z" fill="#fff"/><path d="M9.9376,28.52a.3144.3144,0,0,1,.3464.3475c-.0061.3718-.1807.6724-.3354.6724a.1176.1176,0,0,1-.0415-.0076c-.3284-.124-.47-.8463-.0254-1.009a.4209.4209,0,0,1,.0559-.0033m0-2a2.1636,2.1636,0,0,0-.353.0255,2.83,2.83,0,0,0-.39.0994,2.4415,2.4415,0,0,0-1.594,2.3148A2.5715,2.5715,0,0,0,9.2,31.403a2.2382,2.2382,0,0,0,.748.1366,2.4769,2.4769,0,0,0,2.3352-2.64,2.3063,2.3063,0,0,0-2.3462-2.38Z" fill="#fff"/><path d="M11.8873,27.08A2.8127,2.8127,0,0,1,9.99,26.2778a2.1362,2.1362,0,0,1-.1807-2.8857.9967.9967,0,0,1,.6777-.3867.9432.9432,0,0,1,.1172-.0068.9879.9879,0,0,1,.32.0527,1.0323,1.0323,0,0,1,.7393-.3242h.0176a1.0812,1.0812,0,0,1,.4727.1182.9636.9636,0,0,1,.1914-.0186,1.01,1.01,0,0,1,.9932.8174.964.964,0,0,1,.27,1.2715.583.583,0,0,0,.043.082,1.0279,1.0279,0,0,1,.0283,1.085A2.0514,2.0514,0,0,1,11.8873,27.08Z" fill="#fff"/><path d="M11.6783,23.7125a.3911.3911,0,0,0,.3611.1619,1.1843,1.1843,0,0,0,.3169-.0483.832.832,0,0,0,.3711.6112c-.3745.4546.0981,1.1244.0981,1.1244a1.0578,1.0578,0,0,1-.938.5176,1.8384,1.8384,0,0,1-1.2166-.5326,1.17,1.17,0,0,1-.0669-1.5477.6286.6286,0,0,0,.4011.16c.3945,0,.6731-.4463.6731-.4463m0-2a1.9982,1.9982,0,0,0-1.0317.2869l-.0422,0a1.9991,1.9991,0,0,0-1.59.7869,3.1117,3.1117,0,0,0,.2947,4.2251,3.8079,3.8079,0,0,0,2.5789,1.0684,3.0707,3.0707,0,0,0,2.647-1.4785,2,2,0,0,0,.1533-1.7683,2,2,0,0,0-.4639-1.722A2,2,0,0,0,12.356,21.826h-.0132a1.9992,1.9992,0,0,0-.63-.1132l-.0352,0Z" fill="#fff"/><path d="M10.981,25.07a1.3159,1.3159,0,0,1-.7432-.2236,1.2359,1.2359,0,0,1-.5459-.9775,1.54,1.54,0,0,1,.2432-.8633,1.9121,1.9121,0,0,1,.46-.5166A1.2536,1.2536,0,0,1,11.8,22.2729a1.4622,1.4622,0,0,1,.78,1.21,1.3688,1.3688,0,0,1-.3848,1.0391A1.6932,1.6932,0,0,1,10.981,25.07Z" fill="#fff"/><path d="M11.2708,23.1477a.1823.1823,0,0,1,.0823.02.47.47,0,0,1,.23.3915c.0188.2507-.3284.5112-.6021.5112a.318.318,0,0,1-.1812-.0508.2335.2335,0,0,1-.11-.192.5932.5932,0,0,1,.1021-.3071.92.92,0,0,1,.2192-.2443.468.468,0,0,1,.2588-.1281m0-2h0a2.3983,2.3983,0,0,0-1.4924.5536,2.9114,2.9114,0,0,0-.6982.7856,2.5222,2.5222,0,0,0-.3877,1.424,2.2238,2.2238,0,0,0,.9846,1.7628,2.31,2.31,0,0,0,1.3044.3961,2.71,2.71,0,0,0,1.9475-.8673,2.361,2.361,0,0,0,.6489-1.7937,2.4705,2.4705,0,0,0-1.3352-2.033,2.1976,2.1976,0,0,0-.9717-.2281Z" fill="#fff"/><path d="M12.0386,24.79a1.45,1.45,0,0,1-1.1953-.6777,1.5725,1.5725,0,0,1-.2686-.72,1.27,1.27,0,0,1,.5244-1.2,1.5206,1.5206,0,0,1,.8779-.25,1.5894,1.5894,0,0,1,1.499.833,1.2455,1.2455,0,0,1-.2422,1.3428A1.52,1.52,0,0,1,12.0386,24.79Z" fill="#fff"/><path d="M11.9769,22.9418c.238,0,.5159.0835.5857.2393a.263.263,0,0,1-.0479.2424c-.0776.0815-.2446.366-.4761.366-.1138,0-.2432-.069-.3853-.2649a.5419.5419,0,0,1-.0847-.2368.2757.2757,0,0,1,.1028-.2759.5612.5612,0,0,1,.3054-.07m0-2h0a2.5113,2.5113,0,0,0-1.4546.4333,2.2648,2.2648,0,0,0-.9426,2.12,2.5294,2.5294,0,0,0,.4553,1.204,2.44,2.44,0,0,0,2.0039,1.09,2.4809,2.4809,0,0,0,1.991-1.06,2.2445,2.2445,0,0,0,.3579-2.3666,2.5533,2.5533,0,0,0-2.4106-1.421Z" fill="#fff"/><path d="M12.91,25.2983a1.4017,1.4017,0,0,1-1.2646-.7607,1.5546,1.5546,0,0,1,.4229-1.9473,1.2724,1.2724,0,0,1,.5059-.2109,1.6844,1.6844,0,0,1,.2324-.0205,1.6355,1.6355,0,0,1,1.3662.8828,1.4069,1.4069,0,0,1,.1533,1.16,1.2448,1.2448,0,0,1-.7207.7471A1.7485,1.7485,0,0,1,12.91,25.2983Z" fill="#fff"/><path d="M12.8057,23.3582a.6689.6689,0,0,1,.49.3634c.2119.3857.0159.4636-.0986.5144a.7544.7544,0,0,1-.2874.0623.4014.4014,0,0,1-.3787-.2242.5628.5628,0,0,1,.1077-.6624.297.297,0,0,1,.1111-.0481.2867.2867,0,0,1,.0557-.0054m0-2a2.2841,2.2841,0,0,0-1.3054.4092,2.5452,2.5452,0,0,0-.7412,3.2338A2.3868,2.3868,0,0,0,12.91,26.2982a2.7374,2.7374,0,0,0,1.0967-.2333,2.2314,2.2314,0,0,0,1.2668-1.3435,2.3859,2.3859,0,0,0-.2246-1.9629,2.6158,2.6158,0,0,0-2.2432-1.4Z" fill="#fff"/><path d="M12.9742,26.4038a1.2525,1.2525,0,0,1-.5273-.1318,1.5917,1.5917,0,0,1-.75-1.6152,1.43,1.43,0,0,1,1.1074-1.2461.963.963,0,0,1,.2188-.0244h0a1.4169,1.4169,0,0,1,1.05.4639,1.32,1.32,0,0,1,.2949,1.0732A1.566,1.566,0,0,1,12.9742,26.4038Z" fill="#fff"/><path d="M13.0252,24.386a.33.33,0,0,1,.3528.3933c-.0522.3553-.2517.6245-.4036.6245a.1174.1174,0,0,1-.0562-.0139c-.31-.1655-.3572-.9.1052-1.0039h.0017m0-2-.0339,0a2.0056,2.0056,0,0,0-.4062.0483,2.4415,2.4415,0,0,0-1.8794,2.0891,2.5718,2.5718,0,0,0,1.27,2.63,2.127,2.127,0,0,0,.9993.25,2.5469,2.5469,0,0,0,2.3823-2.3331,2.3078,2.3078,0,0,0-.5271-1.8748,2.3743,2.3743,0,0,0-1.8044-.81Z" fill="#fff"/><path d="M5.2652,35.6226a2.9371,2.9371,0,0,1-1.6787-.5684,2.14,2.14,0,0,1-.5527-2.84,1.0014,1.0014,0,0,1,.8672-.501.9937.9937,0,0,1,.1943.02,1.0391,1.0391,0,0,1,.709-.42c.041-.0039.0811-.0068.1221-.0068a1.0788,1.0788,0,0,1,.3779.0684.9787.9787,0,0,1,.7988.0615A.9732.9732,0,0,1,6.57,32.01a.9616.9616,0,0,1,.47.5908.9514.9514,0,0,1-.041.6348.5546.5546,0,0,0,.0527.0742A1.03,1.03,0,0,1,7.22,34.38,2.072,2.072,0,0,1,5.2652,35.6226Z" fill="#fff"/><path d="M4.9293,32.2908a.3419.3419,0,0,0,.2861.12,1.1008,1.1008,0,0,0,.4009-.0952.8323.8323,0,0,0,.4468.5581c-.3125.4991.2427,1.1024.2427,1.1024a1.0832,1.0832,0,0,1-1.041.6456A1.9242,1.9242,0,0,1,4.1673,34.24a1.17,1.17,0,0,1-.2661-1.5261.6622.6622,0,0,0,.3508.1111c.4333,0,.6772-.5338.6772-.5338m0-2a2,2,0,0,0-1.2449.4344,2.001,2.001,0,0,0-1.5168.9906,3.1117,3.1117,0,0,0,.8376,4.1517,3.9415,3.9415,0,0,0,2.2593.7545,3.0853,3.0853,0,0,0,2.87-1.8358,2,2,0,0,0-.0762-1.7737,2,2,0,0,0-.6824-1.6473,2.0007,2.0007,0,0,0-2.031-1.0309,1.9968,1.9968,0,0,0-.4153-.0436Z" fill="#fff"/><path d="M4.233,33.7388a1.28,1.28,0,0,1-.583-.1367,1.2418,1.2418,0,0,1-.67-.8955,1.5487,1.5487,0,0,1,.13-.8926,1.8878,1.8878,0,0,1,.3906-.5723,1.3559,1.3559,0,0,1,.9756-.46,1.4146,1.4146,0,0,1,.3877.0654,1.4639,1.4639,0,0,1,.9316,1.1064,1.3958,1.3958,0,0,1-.3115,1.1572A1.6672,1.6672,0,0,1,4.233,33.7388Z" fill="#fff"/><path d="M4.4761,31.7819a.1841.1841,0,0,1,.06.01.4694.4694,0,0,1,.2791.3585c.0542.2618-.3005.5879-.582.5879a.2966.2966,0,0,1-.135-.03.2344.2344,0,0,1-.1338-.1761.5937.5937,0,0,1,.0618-.3179.9162.9162,0,0,1,.1858-.27.42.42,0,0,1,.2639-.162m0-2h0a2.323,2.323,0,0,0-1.6921.7621,2.8953,2.8953,0,0,0-.5884.8655,2.5214,2.5214,0,0,0-.2017,1.4619A2.2294,2.2294,0,0,0,3.1978,34.494a2.31,2.31,0,0,0,1.0356.2445,2.6532,2.6532,0,0,0,2.0242-.9944A2.3979,2.3979,0,0,0,6.774,31.745,2.4691,2.4691,0,0,0,5.1856,29.9a2.1808,2.1808,0,0,0-.7095-.1185Z" fill="#fff"/><path d="M5.26,33.3228a1.506,1.506,0,0,1-1.1064-.5283,1.525,1.525,0,0,1-.3633-.69,1.2618,1.2618,0,0,1,.3682-1.2451,1.6564,1.6564,0,0,1,1.1074-.38,1.4948,1.4948,0,0,1,1.3232.6455A1.2532,1.2532,0,0,1,6.5259,32.49,1.4823,1.4823,0,0,1,5.26,33.3228Z" fill="#fff"/><path d="M5.2662,31.479a.5673.5673,0,0,1,.4714.1707.2634.2634,0,0,1-.0161.2466c-.07.0956-.209.4266-.4614.4266a.6019.6019,0,0,1-.4944-.4391.2757.2757,0,0,1,.0664-.2869.6988.6988,0,0,1,.4341-.1179m0-2h0a2.6573,2.6573,0,0,0-1.7856.6438A2.2639,2.2639,0,0,0,2.82,32.3457a2.5355,2.5355,0,0,0,.6069,1.1357,2.48,2.48,0,0,0,1.833.8416,2.4159,2.4159,0,0,0,2.1323-1.3271,2.2459,2.2459,0,0,0,.051-2.3907,2.4672,2.4672,0,0,0-2.177-1.1261Z" fill="#fff"/><path d="M6.1578,33.7173a1.3928,1.3928,0,0,1-1.1543-.6035,1.5551,1.5551,0,0,1,.167-1.9854,1.3024,1.3024,0,0,1,.4453-.2656,1.6537,1.6537,0,0,1,.4258-.0713,1.68,1.68,0,0,1,1.3008.71,1.41,1.41,0,0,1,.3018,1.127,1.24,1.24,0,0,1-.6113.834A1.7138,1.7138,0,0,1,6.1578,33.7173Z" fill="#fff"/><path d="M6.042,31.7913a.7079.7079,0,0,1,.4924.3c.26.3552.0757.4578-.0312.5229a.7172.7172,0,0,1-.345.1033.3924.3924,0,0,1-.3364-.178.563.563,0,0,1,.0212-.6708.288.288,0,0,1,.199-.0771m0-2a2.2881,2.2881,0,0,0-1.5452.598,2.5442,2.5442,0,0,0-.3132,3.2974,2.3838,2.3838,0,0,0,1.9746,1.0305,2.7177,2.7177,0,0,0,1.3828-.3937,2.2331,2.2331,0,0,0,1.0837-1.4969A2.3859,2.3859,0,0,0,8.1483,30.91,2.6971,2.6971,0,0,0,6.042,29.7913Z" fill="#fff"/><path d="M6.4166,34.8022A1.23,1.23,0,0,1,6.023,34.73,1.5887,1.5887,0,0,1,5.07,33.2271a1.4336,1.4336,0,0,1,.9365-1.3818,1.1234,1.1234,0,0,1,.1953-.05,2.0269,2.0269,0,0,1,.2041-.0137A1.3068,1.3068,0,0,1,7.7525,33.146,1.5085,1.5085,0,0,1,6.4166,34.8022Z" fill="#fff"/><path d="M6.4061,32.7817a.3143.3143,0,0,1,.3464.3474c-.0061.3718-.1807.6725-.3354.6725a.1166.1166,0,0,1-.0415-.0076c-.3284-.1241-.47-.8463-.0254-1.009a.4209.4209,0,0,1,.0559-.0033m0-2a2.1584,2.1584,0,0,0-.3528.0255,2.8075,2.8075,0,0,0-.39.0994A2.4412,2.4412,0,0,0,4.07,33.2209a2.5714,2.5714,0,0,0,1.5986,2.4438,2.24,2.24,0,0,0,.7488.1368,2.477,2.477,0,0,0,2.3352-2.64,2.3063,2.3063,0,0,0-2.3462-2.38Z" fill="#fff"/><path d="M18.3414,16.1528a2.7284,2.7284,0,0,1-2.1191-1.1572,2.1375,2.1375,0,0,1,.3311-2.873,1.0048,1.0048,0,0,1,.6758-.2627c.02,0,.04.001.0605.002a.9822.9822,0,0,1,.4209.1221,1.0507,1.0507,0,0,1,.6172-.2041.9224.9224,0,0,1,.1865.0186,1.0866,1.0866,0,0,1,.4434.1982h.0078a1.0172,1.0172,0,0,1,1.0176.9951.9653.9653,0,0,1,.2725.708.95.95,0,0,1-.2314.5928.6054.6054,0,0,0,.0283.0869,1.0281,1.0281,0,0,1-.1631,1.0723A2.0407,2.0407,0,0,1,18.3414,16.1528Z" fill="#fff"/><path d="M18.337,12.7675c.074.2057.3474.2385.5144.2385a1.1326,1.1326,0,0,0,.1331-.0072.8322.8322,0,0,0,.2571.6671c-.4487.3815-.1018,1.1241-.1018,1.1241a1.041,1.041,0,0,1-.7983.3635,1.7306,1.7306,0,0,1-1.3193-.7585,1.17,1.17,0,0,1,.207-1.5353.5956.5956,0,0,0,.4612.2365,1.0305,1.0305,0,0,0,.6467-.3287m0-2a2,2,0,0,0-.7134.1316,1.9956,1.9956,0,0,0-.2742-.0356c-.04-.0024-.08-.0037-.12-.0037a2,2,0,0,0-1.3513.5255,3.1117,3.1117,0,0,0-.4548,4.2109,3.7271,3.7271,0,0,0,2.9185,1.5574,3.0287,3.0287,0,0,0,2.2971-1.0392,2.0008,2.0008,0,0,0,.4631-1.7135,2.001,2.001,0,0,0-.1306-1.74,1.857,1.857,0,0,0-.5342-1.1012,1.95,1.95,0,0,0-1.1816-.5695,2.0006,2.0006,0,0,0-.9182-.2233Z" fill="#fff"/><path d="M17.6744,14.0034a1.3517,1.3517,0,0,1-.9541-.373,1.2413,1.2413,0,0,1-.3672-1.0586,1.5449,1.5449,0,0,1,.3984-.8135,1.9025,1.9025,0,0,1,.542-.4238A1.479,1.479,0,0,1,18,11.1362a1.1818,1.1818,0,0,1,.71.2344,1.4661,1.4661,0,0,1,.5566,1.3311A1.5812,1.5812,0,0,1,17.6744,14.0034Z" fill="#fff"/><path d="M17.9993,12.1365a.1854.1854,0,0,1,.1138.0369.4694.4694,0,0,1,.1577.426c-.0229.2242-.3372.4043-.5959.4043a.3586.3586,0,0,1-.2561-.0892.2338.2338,0,0,1-.0742-.2084.5947.5947,0,0,1,.1548-.2843.917.917,0,0,1,.2588-.2018.5556.5556,0,0,1,.2412-.0835m0-2a2.4816,2.4816,0,0,0-1.1775.3162,2.9,2.9,0,0,0-.8264.6506,2.5219,2.5219,0,0,0-.6321,1.3287,2.2271,2.2271,0,0,0,.6584,1.9136,2.3458,2.3458,0,0,0,1.6531.6581,2.5676,2.5676,0,0,0,2.5854-2.2,2.4676,2.4676,0,0,0-.9565-2.2374,2.1758,2.1758,0,0,0-1.3044-.43Z" fill="#fff"/><path d="M18.7291,13.9116a1.4166,1.4166,0,0,1-1.2842-.8994,1.5307,1.5307,0,0,1-.1377-.7607,1.27,1.27,0,0,1,.7256-1.082,1.3848,1.3848,0,0,1,.585-.1221,1.6828,1.6828,0,0,1,1.6543,1.1113,1.2559,1.2559,0,0,1-.4668,1.2764A1.607,1.607,0,0,1,18.7291,13.9116Z" fill="#fff"/><path d="M18.6182,12.0472c.2585,0,.6328.151.6831.3531a.2635.2635,0,0,1-.09.23c-.084.0616-.2739.2808-.4822.2808-.1277,0-.2622-.0823-.3833-.3333a.5414.5414,0,0,1-.0417-.248.2754.2754,0,0,1,.15-.2533.3969.3969,0,0,1,.1643-.0294m0-2h0a2.3726,2.3726,0,0,0-1.0076.2159,2.2622,2.2622,0,0,0-1.301,1.92,2.5305,2.5305,0,0,0,.2375,1.2689,2.4255,2.4255,0,0,0,2.1821,1.4592,2.6157,2.6157,0,0,0,1.74-.7258,2.2444,2.2444,0,0,0,.7742-2.2614,2.6661,2.6661,0,0,0-2.6255-1.8768Z" fill="#fff"/><path d="M19.5621,14.5708a1.4135,1.4135,0,0,1-1.4033-.9971,1.5523,1.5523,0,0,1,.7607-1.8418,1.2861,1.2861,0,0,1,.5088-.1191h.001a1.5731,1.5731,0,0,1,1.4453,1.13,1.41,1.41,0,0,1-.0537,1.1719,1.2392,1.2392,0,0,1-.8428.6064A1.7452,1.7452,0,0,1,19.5621,14.5708Z" fill="#fff"/><path d="M19.4588,12.613c.2195,0,.4048.2587.4688.4487.1406.4171-.0659.4592-.1877.489a.7788.7788,0,0,1-.1772.02.4306.4306,0,0,1-.45-.2975.5627.5627,0,0,1,.2229-.6328.2916.2916,0,0,1,.1179-.0278h.0051m0-2-.0405,0a2.28,2.28,0,0,0-.9229.2126,2.5422,2.5422,0,0,0-1.2905,3.0472,2.4153,2.4153,0,0,0,2.3577,1.6979,2.788,2.788,0,0,0,.6523-.0776,2.23,2.23,0,0,0,1.4827-1.0984,2.3858,2.3858,0,0,0,.1252-1.9723,2.5649,2.5649,0,0,0-2.364-1.81Z" fill="#fff"/><path d="M19.3384,15.6636A1.252,1.252,0,0,1,18.64,15.42a1.59,1.59,0,0,1-.4521-1.72A1.4325,1.4325,0,0,1,19.5,12.6685c.0137-.001.0283-.001.043-.001a.96.96,0,0,1,.1582.0127,1.4052,1.4052,0,0,1,.9629.6348,1.3172,1.3172,0,0,1,.1064,1.12A1.65,1.65,0,0,1,19.3384,15.6636Z" fill="#fff"/><path d="M19.542,13.6677a.3321.3321,0,0,1,.28.45c-.1082.3224-.3325.5455-.4829.5455a.122.122,0,0,1-.0774-.0258c-.2756-.2174-.1926-.9489.2805-.9695m0-2q-.0436,0-.0872.002a2.4411,2.4411,0,0,0-2.2187,1.7252,2.5713,2.5713,0,0,0,.7869,2.8126,2.1324,2.1324,0,0,0,1.3159.4554,2.6221,2.6221,0,0,0,2.3792-1.91,2.3342,2.3342,0,0,0-.1995-1.957,2.3994,2.3994,0,0,0-1.6621-1.1035,1.9956,1.9956,0,0,0-.3145-.0249Z" fill="#fff"/><path d="M32.5777,10.9839a2.639,2.639,0,0,1-2.2031-1.3682,2.1393,2.1393,0,0,1,.6074-2.8271.9975.9975,0,0,1,.6016-.2012.9569.9569,0,0,1,.1572.0127.9993.9993,0,0,1,.44.1855.9524.9524,0,0,1,.5508-.1787.9643.9643,0,0,1,.2793.042.921.921,0,0,1,.4082.252,1.0168,1.0168,0,0,1,.8926,1.0869.9611.9611,0,0,1,.2012.7295.9513.9513,0,0,1-.2871.5674.7018.7018,0,0,0,.02.0908,1.03,1.03,0,0,1-.2656,1.0518A2.0305,2.0305,0,0,1,32.5777,10.9839Z" fill="#fff"/><path d="M31.5838,7.5879a.5847.5847,0,0,0,.4919.2828,1.0761,1.0761,0,0,0,.62-.2672c.07.2788.5137.2933.605.2933l.0166,0a.8327.8327,0,0,0,.1914.6888c-.4836.3362-.21,1.109-.21,1.109a1.04,1.04,0,0,1-.7212.29,1.6765,1.6765,0,0,1-1.3484-.8883,1.17,1.17,0,0,1,.3552-1.5079m0-2a2,2,0,0,0-1.2017.4012,3.1117,3.1117,0,0,0-.8618,4.1467,3.6291,3.6291,0,0,0,3.0566,1.8483,3.0519,3.0519,0,0,0,2.0845-.8262,2.001,2.001,0,0,0,.6272-1.66,2.0005,2.0005,0,0,0,.02-1.7833A2,2,0,0,0,33.8467,5.968a2,2,0,0,0-1.68-.2933,1.9977,1.9977,0,0,0-.583-.0868Z" fill="#fff"/><path d="M32.0718,8.7769a1.3669,1.3669,0,0,1-1.0693-.4717A1.2342,1.2342,0,0,1,30.74,7.2163a1.5512,1.5512,0,0,1,.4727-.7686,1.9028,1.9028,0,0,1,.5752-.3682,1.5429,1.5429,0,0,1,.6094-.1377,1.1961,1.1961,0,0,1,.8076.3105,1.466,1.466,0,0,1,.4219,1.375A1.5446,1.5446,0,0,1,32.0718,8.7769Z" fill="#fff"/><path d="M32.397,6.9417A.1911.1911,0,0,1,32.53,6.99a.47.47,0,0,1,.1155.4393c-.0413.2047-.3274.3473-.5742.3473a.3884.3884,0,0,1-.3042-.1165.234.234,0,0,1-.0537-.2146.5942.5942,0,0,1,.1816-.2679.92.92,0,0,1,.2771-.1755.6225.6225,0,0,1,.2246-.0609m0-2h0a2.5284,2.5284,0,0,0-.9883.2126,2.8973,2.8973,0,0,0-.88.5635,2.524,2.524,0,0,0-.76,1.2635,2.23,2.23,0,0,0,.47,1.9683,2.38,2.38,0,0,0,1.8335.8275,2.5366,2.5366,0,0,0,2.5347-1.951,2.4685,2.4685,0,0,0-.7344-2.3188,2.1944,2.1944,0,0,0-1.4749-.5656Z" fill="#fff"/><path d="M33.1021,8.7856a1.4022,1.4022,0,0,1-1.3184-1.0244,1.5308,1.5308,0,0,1-.0645-.7656,1.2794,1.2794,0,0,1,.8271-1.0117,1.326,1.326,0,0,1,.4424-.0723A1.7226,1.7226,0,0,1,34.68,7.1851,1.2523,1.2523,0,0,1,34.0933,8.41,1.6474,1.6474,0,0,1,33.1021,8.7856Z" fill="#fff"/><path d="M32.9891,6.9113c.2576,0,.6689.1989.7017.42a.263.263,0,0,1-.1118.22c-.0852.0508-.28.2341-.4775.2341-.137,0-.2751-.0883-.3789-.37a.5432.5432,0,0,1-.0173-.251.2753.2753,0,0,1,.1738-.2374.3353.3353,0,0,1,.11-.0161m0-2a2.3265,2.3265,0,0,0-.7737.1294,2.2621,2.2621,0,0,0-1.4812,1.7838,2.5325,2.5325,0,0,0,.1113,1.2817,2.4036,2.4036,0,0,0,2.2559,1.68A2.653,2.653,0,0,0,34.68,9.2216a2.2429,2.2429,0,0,0,.989-2.1805,2.6821,2.6821,0,0,0-2.68-2.13Z" fill="#fff"/><path d="M33.9136,9.5259A1.43,1.43,0,0,1,32.44,8.3882a1.5516,1.5516,0,0,1,.9355-1.7588A1.2857,1.2857,0,0,1,33.8,6.5571c.0264,0,.0742.002.1006.0039A1.5784,1.5784,0,0,1,35.2242,7.83a1.4047,1.4047,0,0,1-.168,1.1562,1.24,1.24,0,0,1-.8965.5225A1.7705,1.7705,0,0,1,33.9136,9.5259Z" fill="#fff"/><path d="M33.8,7.5574l.0222.0009c.2209.0175.3826.2957.4282.4926.0994.4288-.11.4507-.2344.4684a.7435.7435,0,0,1-.1025.0068.4563.4563,0,0,1-.4946-.3434.5626.5626,0,0,1,.2832-.6083.3.3,0,0,1,.0979-.017m0-2a2.2927,2.2927,0,0,0-.7539.1277,2.5432,2.5432,0,0,0-1.584,2.9106,2.4277,2.4277,0,0,0,2.4514,1.93,2.755,2.755,0,0,0,.3862-.0271A2.2283,2.2283,0,0,0,35.8816,9.55a2.3852,2.3852,0,0,0,.3169-1.951,2.5545,2.5545,0,0,0-2.2192-2.0349c-.0522-.0042-.127-.0071-.18-.0071Z" fill="#fff"/><path d="M33.525,10.5884a1.2638,1.2638,0,0,1-.7842-.3135A1.5738,1.5738,0,0,1,32.439,8.56a1.4444,1.4444,0,0,1,1.3438-.9443,1.21,1.21,0,0,1,.2773.0332,1.41,1.41,0,0,1,.8975.7246,1.3185,1.3185,0,0,1-.002,1.125A1.6754,1.6754,0,0,1,33.525,10.5884Z" fill="#fff"/><path d="M33.7835,8.6158l.0242.0006a.3319.3319,0,0,1,.2346.4747c-.134.3-.3672.4969-.5178.4969a.1258.1258,0,0,1-.09-.0339c-.249-.2389-.105-.9384.3491-.9384m0-2h0A2.4576,2.4576,0,0,0,31.511,8.1886a2.5782,2.5782,0,0,0,.5386,2.8087,2.1185,2.1185,0,0,0,1.4749.5908,2.6662,2.6662,0,0,0,2.3438-1.6807A2.3348,2.3348,0,0,0,35.86,7.9409a2.4,2.4,0,0,0-1.5476-1.26,1.9934,1.9934,0,0,0-.3972-.0618c-.0356-.002-.0952-.0035-.1309-.0035Z" fill="#fff"/><path d="M33.3043,6.0728a2.64,2.64,0,0,1-2.2021-1.3672,2.1382,2.1382,0,0,1,.6084-2.8281.9925.9925,0,0,1,.6006-.2012.9484.9484,0,0,1,.1572.0127.9993.9993,0,0,1,.44.1855.9377.9377,0,0,1,.8281-.1367.9242.9242,0,0,1,.41.252,1.0137,1.0137,0,0,1,.6709.3721,1.0242,1.0242,0,0,1,.2217.7148.9678.9678,0,0,1-.0859,1.2979.5261.5261,0,0,0,.0146.0771,1,1,0,0,1-.2617,1.0635A2.0236,2.0236,0,0,1,33.3043,6.0728Z" fill="#fff"/><path d="M32.3111,2.6766a.5844.5844,0,0,0,.4919.2828,1.0759,1.0759,0,0,0,.62-.2672c.0706.2789.5139.2935.6052.2935l.0166,0a.8318.8318,0,0,0,.1914.6888c-.4836.3361-.21,1.1089-.21,1.1089a1.04,1.04,0,0,1-.7214.29,1.6763,1.6763,0,0,1-1.3481-.8882,1.17,1.17,0,0,1,.3552-1.5081m0-2a2,2,0,0,0-1.2017.4012,3.1117,3.1117,0,0,0-.8618,4.1467A3.629,3.629,0,0,0,33.304,7.0729a3.0514,3.0514,0,0,0,2.0845-.8262,2,2,0,0,0,.6274-1.66,2.0008,2.0008,0,0,0,.02-1.7833A2,2,0,0,0,34.574,1.0568a2.0006,2.0006,0,0,0-1.68-.2933,2.0017,2.0017,0,0,0-.5828-.0868Z" fill="#fff"/><path d="M32.7994,3.8657a1.3631,1.3631,0,0,1-1.07-.4736,1.2312,1.2312,0,0,1-.2617-1.0869,1.5512,1.5512,0,0,1,.4727-.7686,1.8622,1.8622,0,0,1,.5781-.3691,1.5324,1.5324,0,0,1,.6064-.1367,1.1961,1.1961,0,0,1,.8076.3105,1.4624,1.4624,0,0,1,.42,1.3809A1.563,1.563,0,0,1,32.7994,3.8657Z" fill="#fff"/><path d="M33.1241,2.0305a.1911.1911,0,0,1,.1333.0488.4694.4694,0,0,1,.1157.4392c-.0413.2047-.3276.3473-.5742.3473a.3888.3888,0,0,1-.3044-.1163.2332.2332,0,0,1-.0535-.2146.5931.5931,0,0,1,.1814-.2679A.9188.9188,0,0,1,32.9,2.0913a.6249.6249,0,0,1,.2244-.0608m0-2h0a2.53,2.53,0,0,0-.9866.2118,2.9,2.9,0,0,0-.8816.5643,2.5249,2.5249,0,0,0-.761,1.2678,2.2217,2.2217,0,0,0,.47,1.964,2.3808,2.3808,0,0,0,1.8337.8275,2.5367,2.5367,0,0,0,2.5347-1.9513A2.4683,2.4683,0,0,0,34.5982.5953,2.1942,2.1942,0,0,0,33.1241.0305Z" fill="#fff"/><path d="M33.8287,3.8745a1.4,1.4,0,0,1-1.3174-1.0254,1.5267,1.5267,0,0,1-.0645-.7646,1.2794,1.2794,0,0,1,.8271-1.0117A1.3411,1.3411,0,0,1,33.7154,1a1.7226,1.7226,0,0,1,1.6914,1.2734,1.2533,1.2533,0,0,1-.5859,1.2246A1.6508,1.6508,0,0,1,33.8287,3.8745Z" fill="#fff"/><path d="M33.7161,2c.2576,0,.6689.199.7017.4205a.2623.2623,0,0,1-.1116.22c-.0852.0507-.28.234-.4775.234-.1372,0-.2754-.0883-.3792-.37a.5428.5428,0,0,1-.0173-.2509.2756.2756,0,0,1,.1738-.2375A.3353.3353,0,0,1,33.7161,2m0-2a2.3274,2.3274,0,0,0-.7742.13,2.2643,2.2643,0,0,0-1.4807,1.7838,2.53,2.53,0,0,0,.1113,1.2816,2.4043,2.4043,0,0,0,2.2561,1.68A2.6559,2.6559,0,0,0,35.41,4.3087a2.2435,2.2435,0,0,0,.9856-2.1852A2.6811,2.6811,0,0,0,33.7161,0Z" fill="#fff"/><path d="M34.6412,4.6147a1.431,1.431,0,0,1-1.4736-1.1387,1.55,1.55,0,0,1,.9355-1.7578,1.2679,1.2679,0,0,1,.4248-.0723c.0264,0,.0742.002.1006.0039a1.56,1.56,0,0,1,1.3223,1.2617,1.41,1.41,0,0,1-.167,1.1621,1.2425,1.2425,0,0,1-.8955.5234A1.7984,1.7984,0,0,1,34.6412,4.6147Z" fill="#fff"/><path d="M34.5274,2.6461l.0215.0009c.2212.0175.3826.2957.4282.4927.0994.4287-.11.4506-.2344.4684a.74.74,0,0,1-.1023.0068.4565.4565,0,0,1-.4949-.3434.5627.5627,0,0,1,.2834-.6083.2983.2983,0,0,1,.0984-.0171m0-2a2.2955,2.2955,0,0,0-.7544.1277,2.5434,2.5434,0,0,0-1.5847,2.9086A2.4287,2.4287,0,0,0,34.64,5.6149a2.7385,2.7385,0,0,0,.3867-.0272,2.23,2.23,0,0,0,1.5823-.9492,2.3861,2.3861,0,0,0,.3159-1.95A2.5535,2.5535,0,0,0,34.7064.6532C34.6539.649,34.58.6461,34.5274.6461Z" fill="#fff"/><path d="M34.2515,5.6772a1.2563,1.2563,0,0,1-.7852-.3164,1.5688,1.5688,0,0,1-.3008-1.71A1.4452,1.4452,0,0,1,34.51,2.7046a1.21,1.21,0,0,1,.2773.0332,1.4073,1.4073,0,0,1,.8975.7256,1.3174,1.3174,0,0,1-.0039,1.126A1.671,1.671,0,0,1,34.2515,5.6772Z" fill="#fff"/><path d="M34.5106,3.7046l.0242.0006A.3322.3322,0,0,1,34.77,4.18c-.1343.3-.3674.4971-.5181.4971a.1258.1258,0,0,1-.09-.0339c-.2488-.2391-.105-.9385.3491-.9385m0-2h0a2.4574,2.4574,0,0,0-2.272,1.5714,2.5788,2.5788,0,0,0,.5371,2.8092,2.1191,2.1191,0,0,0,1.4758.5918,2.6667,2.6667,0,0,0,2.3435-1.68A2.3347,2.3347,0,0,0,36.5867,3.03,2.4009,2.4009,0,0,0,35.04,1.77a1.9939,1.9939,0,0,0-.4-.062c-.0352-.0018-.0945-.0034-.13-.0034Z" fill="#fff"/><path d="M27.855,8.9985a2.6218,2.6218,0,0,1-2.24-1.5A2.1361,2.1361,0,0,1,26.39,4.7124a1,1,0,0,1,1.1855.0605.9685.9685,0,0,1,1.23.1934,1.0173,1.0173,0,0,1,.8359,1.14.9645.9645,0,0,1,.1572.7412.9526.9526,0,0,1-.32.55.6089.6089,0,0,0,.0146.0908,1.03,1.03,0,0,1-.3271,1.0332A2.039,2.039,0,0,1,27.855,8.9985Z" fill="#fff"/><path d="M26.9417,5.5463a.58.58,0,0,0,.51.3124,1.1051,1.1051,0,0,0,.5984-.2312c.06.3154.6033.3293.6033.3293a.8324.8324,0,0,0,.15.699c-.5027.307-.2754,1.0946-.2754,1.0946a1.0417,1.0417,0,0,1-.6736.2484,1.6451,1.6451,0,0,1-1.3572-.9681,1.17,1.17,0,0,1,.4436-1.4844m0-2a1.9989,1.9989,0,0,0-1.1052.3333,3.1116,3.1116,0,0,0-1.1052,4.0883,3.6177,3.6177,0,0,0,3.124,2.031,3.0264,3.0264,0,0,0,1.948-.707,2,2,0,0,0,.7241-1.6207,2,2,0,0,0,.1255-1.7787,2.0005,2.0005,0,0,0-1.3564-1.83,2,2,0,0,0-1.66-.392,2.0012,2.0012,0,0,0-.6948-.1245Z" fill="#fff"/><path d="M27.4566,6.7651a1.3953,1.3953,0,0,1-1.1387-.5391,1.2271,1.2271,0,0,1-.1973-1.0967,1.54,1.54,0,0,1,.5186-.7441,1.9267,1.9267,0,0,1,.6035-.3359,1.6024,1.6024,0,0,1,.5332-.1006,1.1937,1.1937,0,0,1,.8594.3564,1.4644,1.4644,0,0,1,.3428,1.4014A1.526,1.526,0,0,1,27.4566,6.7651Z" fill="#fff"/><path d="M27.775,4.9487a.1964.1964,0,0,1,.1467.0571.4694.4694,0,0,1,.09.4453.5694.5694,0,0,1-.5544.314.4091.4091,0,0,1-.3362-.1354.2334.2334,0,0,1-.041-.2173.5946.5946,0,0,1,.197-.2568.9183.9183,0,0,1,.2874-.1589.6785.6785,0,0,1,.2109-.048m0-2a2.5941,2.5941,0,0,0-.8643.1576,2.895,2.895,0,0,0-.9121.5107,2.5273,2.5273,0,0,0-.8345,1.22A2.225,2.225,0,0,0,25.52,6.829a2.38,2.38,0,0,0,1.9368.9362,2.5236,2.5236,0,0,0,2.4878-1.8024,2.4681,2.4681,0,0,0-.5967-2.359,2.1877,2.1877,0,0,0-1.5728-.655Z" fill="#fff"/><path d="M28.4644,6.8345a1.3844,1.3844,0,0,1-1.333-1.1035,1.5428,1.5428,0,0,1-.0215-.7617,1.2831,1.2831,0,0,1,.8828-.9658,1.6966,1.6966,0,0,1,.3643-.0508,1.7178,1.7178,0,0,1,1.6992,1.375,1.2456,1.2456,0,0,1-.6631,1.1895A1.6727,1.6727,0,0,1,28.4644,6.8345Z" fill="#fff"/><path d="M28.357,4.9529c.2554,0,.6829.2308.7031.462a.2629.2629,0,0,1-.1248.2133,1.066,1.066,0,0,1-.4712.2061c-.1436,0-.2847-.0913-.3757-.3926A.5437.5437,0,0,1,28.086,5.19a.2754.2754,0,0,1,.1875-.2269.3054.3054,0,0,1,.0835-.01m0-2a2.2991,2.2991,0,0,0-.634.0876A2.2633,2.2633,0,0,0,26.1385,4.735a2.53,2.53,0,0,0,.0344,1.2822,2.3771,2.3771,0,0,0,2.2913,1.817A2.7051,2.7051,0,0,0,29.9363,7.36,2.2436,2.2436,0,0,0,31.0528,5.243a2.7142,2.7142,0,0,0-2.6956-2.29Z" fill="#fff"/><path d="M29.2574,7.6216A1.4461,1.4461,0,0,1,27.7486,6.395a1.5534,1.5534,0,0,1,1.0371-1.7,1.722,1.722,0,0,1,.3525-.0488,1.235,1.235,0,0,1,.1914.0146,1.5557,1.5557,0,0,1,1.2314,1.3359,1.4121,1.4121,0,0,1-.2334,1.1475,1.2429,1.2429,0,0,1-.9219.4717C29.3775,7.6177,29.2857,7.6216,29.2574,7.6216Z" fill="#fff"/><path d="M29.1392,5.6461a.2807.2807,0,0,1,.0383.0026c.2195.0305.3643.3177.3984.5171.074.4338-.1367.4432-.2617.4537-.0149.0012-.0337.0022-.0554.0022a.4746.4746,0,0,1-.5208-.3734.5625.5625,0,0,1,.3186-.59.3006.3006,0,0,1,.0825-.0117m0-2a2.3021,2.3021,0,0,0-.6272.0873A2.543,2.543,0,0,0,26.76,6.5446a2.4452,2.4452,0,0,0,2.4988,2.0771c.0867,0,.1624-.0042.2222-.0092a2.2309,2.2309,0,0,0,1.6362-.8546,2.3852,2.3852,0,0,0,.43-1.9283,2.5556,2.5556,0,0,0-2.0945-2.1619,2.5913,2.5913,0,0,0-.3137-.0216Z" fill="#fff"/><path d="M28.7711,8.6577a1.122,1.122,0,0,1-.83-.3574,1.5756,1.5756,0,0,1-.2236-1.6865,1.4584,1.4584,0,0,1,1.334-.9121c.0381,0,.126.0049.1631.01a.9774.9774,0,0,1,.1963.042,1.4086,1.4086,0,0,1,.8535.7773,1.3221,1.3221,0,0,1-.07,1.124A1.7139,1.7139,0,0,1,28.7711,8.6577Z" fill="#fff"/><path d="M29.0513,6.7015a.4306.4306,0,0,1,.05.0028.3319.3319,0,0,1,.2063.4877.7891.7891,0,0,1-.5356.4658.1288.1288,0,0,1-.0986-.0394c-.23-.2484-.0562-.9169.3784-.9169m0-2h0a2.4455,2.4455,0,0,0-2.25,1.5123,2.5529,2.5529,0,0,0,.4045,2.7631,2.1382,2.1382,0,0,0,1.5664.6809,2.6794,2.6794,0,0,0,2.31-1.5436,2.3346,2.3346,0,0,0,.1072-1.9634,2.4,2.4,0,0,0-1.47-1.3488,2.0076,2.0076,0,0,0-.3933-.0852c-.0745-.0083-.199-.0154-.2739-.0154Z" fill="#fff"/></g><path d="M21.373,15.2081a1.17,1.17,0,0,0-.1163,1.5449c.6444.76,1.6176.9328,2.1375.2693,0,0-.39-.7209.0353-1.1282a.8321.8321,0,0,1-.2962-.6507s-.5336.1024-.66-.1928C22.4735,15.0506,21.9047,15.7592,21.373,15.2081Z" fill="#d0021b"/><path d="M21.4792,15.0479a.5934.5934,0,0,1,.1376-.2929.9187.9187,0,0,1,.2466-.2166c.1028-.0627.2364-.1427.3516-.0675a.47.47,0,0,1,.1825.4159.5907.5907,0,0,1-.832.3648A.2339.2339,0,0,1,21.4792,15.0479Z" fill="#d0021b"/><path d="M22.5495,14.3541c.2108-.1136.7874.025.8649.2731a.2629.2629,0,0,1-.0762.235c-.1293.1073-.51.6394-.8673-.0013a.5434.5434,0,0,1-.0562-.2452A.2756.2756,0,0,1,22.5495,14.3541Z" fill="#d0021b"/><path d="M23.579,14.8306c.2211-.0171.4239.2326.5.42.1649.4081-.0389.4623-.1587.4992s-.51.1083-.6422-.24a.5629.5629,0,0,1,.1852-.645A.2938.2938,0,0,1,23.579,14.8306Z" fill="#d0021b"/><path d="M23.73,15.8782a.3321.3321,0,0,1,.3058.4324c-.106.3916-.3857.6518-.5286.552C23.2188,16.6618,23.2584,15.9268,23.73,15.8782Z" fill="#d0021b"/><path d="M21.5061,9.6547A1.17,1.17,0,0,0,21.39,11.2c.6444.76,1.6176.9328,2.1375.2693,0,0-.39-.7209.0353-1.1282a.8322.8322,0,0,1-.2962-.6507s-.5336.1024-.66-.1928C22.6066,9.4972,22.0378,10.2057,21.5061,9.6547Z" fill="#d0021b"/><path d="M21.6123,9.4944a.5934.5934,0,0,1,.1376-.2929.9188.9188,0,0,1,.2466-.2166c.1028-.0627.2364-.1427.3516-.0675a.47.47,0,0,1,.1825.4159.5907.5907,0,0,1-.832.3648A.2339.2339,0,0,1,21.6123,9.4944Z" fill="#d0021b"/><path d="M22.6825,8.8007c.2108-.1136.7874.025.8649.2732a.2629.2629,0,0,1-.0762.235c-.1293.1073-.51.6394-.8673-.0013a.5432.5432,0,0,1-.0562-.2452A.2756.2756,0,0,1,22.6825,8.8007Z" fill="#d0021b"/><path d="M23.7121,9.2772c.2211-.0171.4239.2326.5.42.1649.4081-.0389.4623-.1587.4992s-.51.1083-.6422-.24a.5628.5628,0,0,1,.1852-.645A.2938.2938,0,0,1,23.7121,9.2772Z" fill="#d0021b"/><path d="M23.8627,10.3247a.3321.3321,0,0,1,.3058.4324c-.106.3916-.3857.6518-.5286.552C23.3519,11.1083,23.3914,10.3733,23.8627,10.3247Z" fill="#d0021b"/><path d="M26.4755,11.3941a1.17,1.17,0,0,0-.1163,1.5449c.6444.76,1.6176.9328,2.1375.2693,0,0-.39-.7209.0353-1.1282a.8321.8321,0,0,1-.2962-.6507s-.5336.1024-.66-.1928C27.576,11.2366,27.0072,11.9452,26.4755,11.3941Z" fill="#d0021b"/><path d="M26.5817,11.2338a.5934.5934,0,0,1,.1376-.2929.9188.9188,0,0,1,.2466-.2166c.1028-.0627.2364-.1427.3516-.0675a.47.47,0,0,1,.1825.4159.5907.5907,0,0,1-.832.3648A.2339.2339,0,0,1,26.5817,11.2338Z" fill="#d0021b"/><path d="M27.6519,10.54c.2108-.1136.7874.025.8649.2731a.2629.2629,0,0,1-.0762.235c-.1293.1073-.51.6394-.8673-.0013a.5432.5432,0,0,1-.0562-.2452A.2756.2756,0,0,1,27.6519,10.54Z" fill="#d0021b"/><path d="M28.6815,11.0166c.2211-.0171.4239.2326.5.42.1649.4081-.0389.4623-.1587.4992s-.51.1083-.6422-.24a.5629.5629,0,0,1,.1852-.645A.2938.2938,0,0,1,28.6815,11.0166Z" fill="#d0021b"/><path d="M28.8321,12.0642a.3321.3321,0,0,1,.3058.4324c-.106.3916-.3857.6518-.5286.552C28.3213,12.8478,28.3608,12.1128,28.8321,12.0642Z" fill="#d0021b"/><path d="M5.3762,23.0268a1.17,1.17,0,0,0,.187,1.5379c.78.62,1.7683.6,2.149-.1524,0,0-.5231-.6311-.1852-1.1134a.8319.8319,0,0,1-.4173-.5805s-.5034.2044-.6847-.0605C6.4249,22.6578,6.0051,23.4636,5.3762,23.0268Z" fill="#d0021b"/><path d="M5.4491,22.8489a.593.593,0,0,1,.0779-.3142.918.918,0,0,1,.2-.2605c.0886-.0815.2041-.186.3317-.1347a.4693.4693,0,0,1,.26.3724c.0477.3093-.4689.6776-.7449.52A.2341.2341,0,0,1,5.4491,22.8489Z" fill="#d0021b"/><path d="M6.3637,21.96c.1846-.1525.7771-.1288.9015.0995a.2628.2628,0,0,1-.0289.2454c-.1058.13-.3755.7265-.8509.1677a.5442.5442,0,0,1-.1029-.23A.2757.2757,0,0,1,6.3637,21.96Z" fill="#d0021b"/><path d="M7.4663,22.2266c.2135-.06.4611.1456.5719.3146.2413.3681.052.461-.0584.5205a.4984.4984,0,0,1-.6766-.11.5628.5628,0,0,1,.056-.6687A.2946.2946,0,0,1,7.4663,22.2266Z" fill="#d0021b"/><path d="M7.8182,23.2248s.4118-.04.3841.3646-.2513.7145-.411.6444C7.47,24.0929,7.3653,23.3643,7.8182,23.2248Z" fill="#d0021b"/><path d="M2.1823,27.6351a1.17,1.17,0,0,0,.2662,1.5262c.8113.579,1.797.5075,2.1383-.2632,0,0-.5551-.6032-.2425-1.1024a.832.832,0,0,1-.4468-.5582s-.4922.23-.687-.0251C3.2105,27.2125,2.8329,28.0389,2.1823,27.6351Z" fill="#d0021b"/><path d="M2.2459,27.4537a.5929.5929,0,0,1,.0616-.3178.918.918,0,0,1,.1859-.27c.0842-.0859.1942-.1963.3243-.1517a.4693.4693,0,0,1,.2789.3585c.0636.3064-.4333.7009-.717.5576A.2341.2341,0,0,1,2.2459,27.4537Z" fill="#d0021b"/><path d="M3.1133,26.5186c.1765-.1618.7694-.1688.9054.0527a.2628.2628,0,0,1-.0162.2465c-.0989.1357-.3374.7449-.8411.2114a.544.544,0,0,1-.1146-.2239A.2757.2757,0,0,1,3.1133,26.5186Z" fill="#d0021b"/><path d="M4.2283,26.728c.21-.0708.468.1215.5874.2846.26.3552.0757.4577-.0314.5229a.4984.4984,0,0,1-.6814-.0747.5628.5628,0,0,1,.0214-.6707A.2945.2945,0,0,1,4.2283,26.728Z" fill="#d0021b"/><path d="M4.6278,27.704s.4091-.0613.4025.3442-.214.7265-.3771.6648C4.3247,28.589,4.1827,27.8668,4.6278,27.704Z" fill="#d0021b"/><path d="M7.4326,28.4514a1.17,1.17,0,0,0,.2662,1.5262c.8113.5791,1.797.5075,2.1383-.2632,0,0-.5551-.6032-.2425-1.1024a.8319.8319,0,0,1-.4467-.5582s-.4922.23-.687-.0251C8.4608,28.0288,8.0833,28.8552,7.4326,28.4514Z" fill="#d0021b"/><path d="M7.4962,28.27a.5929.5929,0,0,1,.0616-.3178.9183.9183,0,0,1,.1859-.27c.0842-.0859.1942-.1963.3243-.1517a.4693.4693,0,0,1,.2789.3585c.0636.3064-.4333.7009-.717.5576A.234.234,0,0,1,7.4962,28.27Z" fill="#d0021b"/><path d="M8.3637,27.3349c.1765-.1618.7694-.1688.9054.0527a.2628.2628,0,0,1-.0162.2465c-.0989.1357-.3374.7449-.8411.2114a.5439.5439,0,0,1-.1146-.2239A.2757.2757,0,0,1,8.3637,27.3349Z" fill="#d0021b"/><path d="M9.4786,27.5443c.21-.0708.468.1215.5874.2846.26.3552.0757.4577-.0314.5229a.4984.4984,0,0,1-.6814-.0747.5628.5628,0,0,1,.0214-.6707A.2946.2946,0,0,1,9.4786,27.5443Z" fill="#d0021b"/><path d="M9.8816,28.5229s.4091-.0613.4024.3442-.214.7265-.3771.6648C9.5786,29.4079,9.4366,28.6857,9.8816,28.5229Z" fill="#d0021b"/><path d="M10.6041,23.9989a1.17,1.17,0,0,0,.0669,1.5478c.73.6789,1.7164.7353,2.1544.015,0,0-.4725-.67-.0982-1.1245a.8319.8319,0,0,1-.3709-.6112s-.5178.1646-.678-.1135C11.6783,23.7125,11.1972,24.4833,10.6041,23.9989Z" fill="#d0021b"/><path d="M10.6907,23.8272a.5929.5929,0,0,1,.1021-.3071.9183.9183,0,0,1,.2193-.2442c.0946-.0743.2179-.17.3411-.1086a.4693.4693,0,0,1,.23.3915c.0235.3121-.52.6391-.783.46A.234.234,0,0,1,10.6907,23.8272Z" fill="#d0021b"/><path d="M11.6715,23.0119c.1959-.1377.7847-.068.891.1692a.2628.2628,0,0,1-.0479.2424c-.1156.1218-.4308.6951-.8613.1011a.5439.5439,0,0,1-.0848-.2368A.2757.2757,0,0,1,11.6715,23.0119Z" fill="#d0021b"/><path d="M12.75,23.3635c.2175-.0431.4484.1809.5457.3581.2119.3858.016.4637-.0986.5144s-.4935.1677-.666-.162a.5628.5628,0,0,1,.1078-.6623A.2946.2946,0,0,1,12.75,23.3635Z" fill="#d0021b"/><path d="M13.0234,24.386s.4136-.008.3546.3933-.306.6928-.46.6106C12.6087,25.2244,12.5611,24.49,13.0234,24.386Z" fill="#d0021b"/><path d="M3.9011,32.7135A1.17,1.17,0,0,0,4.1673,34.24c.8113.5791,1.797.5075,2.1383-.2632,0,0-.5551-.6032-.2425-1.1024a.8319.8319,0,0,1-.4467-.5582s-.4922.23-.687-.0251C4.9294,32.2908,4.5518,33.1172,3.9011,32.7135Z" fill="#d0021b"/><path d="M3.9648,32.532a.5929.5929,0,0,1,.0616-.3178.9183.9183,0,0,1,.1859-.27c.0842-.0859.1942-.1963.3243-.1517a.4693.4693,0,0,1,.2789.3585c.0636.3064-.4333.7009-.717.5576A.234.234,0,0,1,3.9648,32.532Z" fill="#d0021b"/><path d="M4.8322,31.5969c.1765-.1618.7694-.1688.9054.0527a.2628.2628,0,0,1-.0162.2465c-.0989.1357-.3374.7449-.8411.2114a.5439.5439,0,0,1-.1146-.2239A.2757.2757,0,0,1,4.8322,31.5969Z" fill="#d0021b"/><path d="M5.9471,31.8064c.21-.0708.468.1215.5874.2846.26.3552.0757.4577-.0314.5229a.4984.4984,0,0,1-.6814-.0747.5628.5628,0,0,1,.0214-.6707A.2946.2946,0,0,1,5.9471,31.8064Z" fill="#d0021b"/><path d="M6.35,32.785s.4091-.0613.4024.3442-.214.7265-.3771.6648C6.0471,33.67,5.9051,32.9478,6.35,32.785Z" fill="#d0021b"/><path d="M17.2292,12.86a1.17,1.17,0,0,0-.2073,1.5353c.5985.797,1.56,1.0266,2.1179.395,0,0-.3469-.7427.1018-1.1242a.8321.8321,0,0,1-.2573-.667s-.5387.0707-.6473-.2314C18.3371,12.7674,17.7274,13.4412,17.2292,12.86Z" fill="#d0021b"/><path d="M17.3446,12.706a.5934.5934,0,0,1,.1547-.2843.9187.9187,0,0,1,.2589-.2017c.1063-.0565.2444-.1285.3549-.0467a.47.47,0,0,1,.1577.426.5907.5907,0,0,1-.852.3151A.2339.2339,0,0,1,17.3446,12.706Z" fill="#d0021b"/><path d="M18.4539,12.0766c.2171-.101.7845.0715.8473.3237a.2629.2629,0,0,1-.09.23c-.1354.0995-.5468.6082-.8657-.0525a.5434.5434,0,0,1-.0416-.2481A.2756.2756,0,0,1,18.4539,12.0766Z" fill="#d0021b"/><path d="M19.4536,12.613c.2217-.004.4094.2572.474.4488.1405.4171-.0661.4592-.1879.4889s-.5154.078-.627-.277a.5629.5629,0,0,1,.223-.6329A.2938.2938,0,0,1,19.4536,12.613Z" fill="#d0021b"/><path d="M19.5422,13.6677a.3321.3321,0,0,1,.28.45c-.1289.3846-.4235.628-.56.52C18.9859,14.42,19.0688,13.6884,19.5422,13.6677Z" fill="#d0021b"/><path d="M31.5839,7.5879a1.17,1.17,0,0,0-.3552,1.508c.5183.8514,1.4528,1.1731,2.07.5986,0,0-.2732-.7729.21-1.109a.8321.8321,0,0,1-.1913-.6889s-.543.0181-.6218-.2931C32.6955,7.6035,32.0234,8.215,31.5839,7.5879Z" fill="#d0021b"/><path d="M31.7137,7.4461a.5934.5934,0,0,1,.1815-.2679.9187.9187,0,0,1,.2773-.1756c.1113-.0459.2558-.1042.3578-.012a.47.47,0,0,1,.1156.4392.5907.5907,0,0,1-.8786.2309A.2339.2339,0,0,1,31.7137,7.4461Z" fill="#d0021b"/><path d="M32.8789,6.9273c.2259-.0794.7739.1472.8119.4044a.2629.2629,0,0,1-.1118.22c-.1444.0859-.6032.5523-.8565-.1362a.5434.5434,0,0,1-.0174-.2509A.2756.2756,0,0,1,32.8789,6.9273Z" fill="#d0021b"/><path d="M33.8218,7.5582c.2211.0175.3826.2957.4283.4926.0994.4288-.11.4506-.2344.4684s-.5205.0276-.5971-.3365a.5629.5629,0,0,1,.2833-.6083A.2938.2938,0,0,1,33.8218,7.5582Z" fill="#d0021b"/><path d="M33.8076,8.6164a.3321.3321,0,0,1,.2348.4747c-.1656.37-.4824.5839-.6081.4631C33.1811,9.311,33.3345,8.5911,33.8076,8.6164Z" fill="#d0021b"/><path d="M32.311,2.6767a1.17,1.17,0,0,0-.3552,1.508c.5183.8513,1.4528,1.1731,2.07.5986,0,0-.2732-.7728.21-1.109a.8322.8322,0,0,1-.1913-.6889s-.543.0181-.6218-.2931C33.4227,2.6923,32.7505,3.3038,32.311,2.6767Z" fill="#d0021b"/><path d="M32.4409,2.5349a.5934.5934,0,0,1,.1815-.2679A.9188.9188,0,0,1,32.9,2.0913c.1113-.0459.2558-.1042.3578-.012a.47.47,0,0,1,.1156.4392.5907.5907,0,0,1-.8786.2309A.2339.2339,0,0,1,32.4409,2.5349Z" fill="#d0021b"/><path d="M33.606,2.0161c.2259-.0794.7739.1472.8119.4044a.2629.2629,0,0,1-.1118.22c-.1444.0859-.6032.5523-.8565-.1362a.5432.5432,0,0,1-.0174-.2509A.2756.2756,0,0,1,33.606,2.0161Z" fill="#d0021b"/><path d="M34.5489,2.647c.2211.0175.3826.2957.4283.4926.0994.4288-.11.4506-.2344.4684s-.5205.0276-.5971-.3365a.5628.5628,0,0,1,.2833-.6083A.2938.2938,0,0,1,34.5489,2.647Z" fill="#d0021b"/><path d="M34.5347,3.7053A.3321.3321,0,0,1,34.77,4.18c-.1656.37-.4824.5839-.6081.463C33.9082,4.4,34.0616,3.68,34.5347,3.7053Z" fill="#d0021b"/><path d="M26.9418,5.5463a1.17,1.17,0,0,0-.4436,1.4844c.4672.88,1.381,1.2568,2.0306.72,0,0-.2272-.7876.2755-1.0946a.8321.8321,0,0,1-.15-.6989s-.5432-.014-.6034-.3293C28.0505,5.6275,27.3435,6.1982,26.9418,5.5463Z" fill="#d0021b"/><path d="M27.08,5.4124a.5934.5934,0,0,1,.197-.2568.9187.9187,0,0,1,.2872-.159c.1138-.0393.2615-.0889.3579.0091a.47.47,0,0,1,.0895.4453.5907.5907,0,0,1-.8907.1787A.2339.2339,0,0,1,27.08,5.4124Z" fill="#d0021b"/><path d="M28.2735,4.9633c.23-.066.7639.1926.7866.4516a.2629.2629,0,0,1-.1246.2133c-.1492.0772-.6348.5158-.847-.1865A.5434.5434,0,0,1,28.086,5.19.2756.2756,0,0,1,28.2735,4.9633Z" fill="#d0021b"/><path d="M29.1775,5.6487c.22.03.3645.3178.3984.517.0739.4339-.1367.4433-.2617.4538s-.5212-.0031-.5762-.3712a.5629.5629,0,0,1,.3187-.5905A.2938.2938,0,0,1,29.1775,5.6487Z" fill="#d0021b"/><path d="M29.1009,6.7043a.3321.3321,0,0,1,.2064.4877c-.1872.36-.516.5544-.6344.4264C28.4345,7.3607,28.63,6.6511,29.1009,6.7043Z" fill="#d0021b"/></g></g></svg>