<svg xmlns="http://www.w3.org/2000/svg" width="37.003" height="36.6221" viewBox="0 0 37.003 36.6221"><title>migration-gray</title><g id="Layer_2" data-name="Layer 2"><g id="Layer_1-2" data-name="Layer 1"><g opacity="0.8"><path d="M22.5491,18.4341A2.7442,2.7442,0,0,1,20.4944,17.4a2.1377,2.1377,0,0,1,.1611-2.8877.9994.9994,0,0,1,.7178-.3037h.001a1.0008,1.0008,0,0,1,.4277.0967,1.0474,1.0474,0,0,1,.6621-.2412.953.953,0,0,1,.1289.0088,1.0886,1.0886,0,0,1,.4551.1719c.0225-.001.0449-.002.0674-.002a1.0163,1.0163,0,0,1,1.0146.9346.9668.9668,0,0,1,.1182,1.2959.585.585,0,0,0,.0322.0859,1.0265,1.0265,0,0,1-.0986,1.08A2.0356,2.0356,0,0,1,22.5491,18.4341Z" fill="#ffab24"/><path d="M22.4737,15.0505c.0745.1743.291.21.4561.21a1.2011,1.2011,0,0,0,.2039-.0172.8316.8316,0,0,0,.2961.6506c-.4255.4073-.0354,1.1283-.0354,1.1283a1.0442,1.0442,0,0,1-.8447.412,1.766,1.766,0,0,1-1.2927-.6814,1.17,1.17,0,0,1,.1165-1.5448.6044.6044,0,0,0,.4419.21,1.0035,1.0035,0,0,0,.6584-.3674m0-2a2,2,0,0,0-.8223.177,1.999,1.999,0,0,0-.2749-.0194h-.0029a2,2,0,0,0-1.4355.6074,3.1114,3.1114,0,0,0-.2065,4.2306A3.7386,3.7386,0,0,0,22.55,19.4343a3.055,3.055,0,0,0,2.4192-1.1786,2,2,0,0,0,.3611-1.7375,2.0006,2.0006,0,0,0-.2341-1.7308,1.8636,1.8636,0,0,0-.5974-1.0629,1.9546,1.9546,0,0,0-1.209-.5,2.0014,2.0014,0,0,0-.8159-.1738Z" fill="#fff"/><path d="M21.7952,16.3267a1.324,1.324,0,0,1-.8838-.3193,1.2353,1.2353,0,0,1-.4287-1.041,1.5391,1.5391,0,0,1,.3477-.8271,1.8553,1.8553,0,0,1,.5156-.4561,1.4439,1.4439,0,0,1,.7656-.2422,1.1922,1.1922,0,0,1,.65.1924,1.4632,1.4632,0,0,1,.6348,1.2979A1.58,1.58,0,0,1,21.7952,16.3267Z" fill="#ffab24"/><path d="M22.1121,14.44a.1846.1846,0,0,1,.103.03.47.47,0,0,1,.1826.416c-.01.2345-.3381.44-.6028.44a.3434.3434,0,0,1-.2292-.075.2342.2342,0,0,1-.0864-.2036.5933.5933,0,0,1,.1377-.293.92.92,0,0,1,.2466-.2166.5214.5214,0,0,1,.2485-.098m0-2a2.4364,2.4364,0,0,0-1.2908.391,2.8943,2.8943,0,0,0-.782.6945,2.5217,2.5217,0,0,0-.5542,1.3687,2.2293,2.2293,0,0,0,.77,1.868,2.3445,2.3445,0,0,0,1.54.5638,2.5706,2.5706,0,0,0,2.6008-2.3522A2.4712,2.4712,0,0,0,23.31,12.7969a2.1853,2.1853,0,0,0-1.1978-.3566Z" fill="#fff"/><path d="M22.8557,16.1714a1.4211,1.4211,0,0,1-1.2578-.8232,1.5122,1.5122,0,0,1-.1826-.7588,1.2679,1.2679,0,0,1,.666-1.1191,1.4113,1.4113,0,0,1,.6729-.1562,1.6534,1.6534,0,0,1,1.6152,1.0166,1.2436,1.2436,0,0,1-.3936,1.3018A1.5675,1.5675,0,0,1,22.8557,16.1714Z" fill="#ffab24"/><path d="M22.7544,14.314c.2556,0,.6013.1251.66.3132a.2631.2631,0,0,1-.0762.2351c-.0825.0684-.2668.3092-.4822.3092-.1228,0-.2554-.078-.385-.3105a.5424.5424,0,0,1-.0564-.2452.2759.2759,0,0,1,.1348-.2616.4452.4452,0,0,1,.2048-.04m0-2a2.4029,2.4029,0,0,0-1.1536.28,2.2641,2.2641,0,0,0-1.1858,1.99,2.5315,2.5315,0,0,0,.3108,1.2538,2.4113,2.4113,0,0,0,2.13,1.3341,2.5758,2.5758,0,0,0,1.8313-.8325,2.2452,2.2452,0,0,0,.6367-2.3064,2.6573,2.6573,0,0,0-2.57-1.7186Z" fill="#fff"/><path d="M23.7014,16.7817a1.4166,1.4166,0,0,1-1.3584-.915,1.5534,1.5534,0,0,1,.6494-1.8828,1.2484,1.2484,0,0,1,.51-.15h.0088a1.6117,1.6117,0,0,1,1.4951,1.0449,1.41,1.41,0,0,1,.0156,1.168,1.2451,1.2451,0,0,1-.8008.6572A1.8071,1.8071,0,0,1,23.7014,16.7817Z" fill="#ffab24"/><path d="M23.6009,14.83c.2126,0,.4048.24.478.4209.1648.4081-.0388.4623-.1587.4991a.7785.7785,0,0,1-.2183.0321.4182.4182,0,0,1-.4241-.2716.5633.5633,0,0,1,.1853-.645.2952.2952,0,0,1,.116-.0347l.0217-.0009m0-2c-.0518,0-.125.0028-.1765.0068a2.2876,2.2876,0,0,0-.9.2626A2.5452,2.5452,0,0,0,21.408,16.22a2.4262,2.4262,0,0,0,2.2939,1.5619,2.7743,2.7743,0,0,0,.8062-.12,2.23,2.23,0,0,0,1.416-1.1835,2.3854,2.3854,0,0,0,.0093-1.9762,2.6034,2.6034,0,0,0-2.3325-1.672Z" fill="#fff"/><path d="M23.5764,17.8843a1.2439,1.2439,0,0,1-.6416-.2021,1.5891,1.5891,0,0,1-.5547-1.69,1.4324,1.4324,0,0,1,1.2471-1.1084c.0342-.0029.0684-.0049.1025-.0049s.0664.002.0986.0049a1.41,1.41,0,0,1,1.001.5771A1.3223,1.3223,0,0,1,25,16.5737,1.6113,1.6113,0,0,1,23.5764,17.8843Z" fill="#ffab24"/><path d="M23.73,15.8782a.3321.3321,0,0,1,.3059.4324c-.0906.3347-.3081.5734-.4587.5734a.12.12,0,0,1-.07-.0214c-.2878-.2008-.2483-.9358.2229-.9844m0-2a2.02,2.02,0,0,0-.2051.01,2.4411,2.4411,0,0,0-2.1128,1.853,2.5709,2.5709,0,0,0,.9507,2.7611,2.111,2.111,0,0,0,1.2144.3811,2.5757,2.5757,0,0,0,2.3894-2.051,2.3346,2.3346,0,0,0-.3147-1.9413,2.4,2.4,0,0,0-1.7244-1.0037q-.0985-.01-.1975-.01Z" fill="#fff"/><path d="M22.6829,12.88a2.7445,2.7445,0,0,1-2.0557-1.0342,2.1377,2.1377,0,0,1,.1611-2.8877.9994.9994,0,0,1,.7178-.3037h.001a1.0084,1.0084,0,0,1,.4287.0967,1.05,1.05,0,0,1,.6611-.2412.953.953,0,0,1,.1289.0088,1.068,1.068,0,0,1,.4541.1729q.0337-.0029.0674-.0029a1.018,1.018,0,0,1,1.0166.9355.9676.9676,0,0,1,.3125.69.95.95,0,0,1-.1963.6055.5835.5835,0,0,0,.0342.0859,1.0266,1.0266,0,0,1-.1006,1.08A2.031,2.031,0,0,1,22.6829,12.88Z" fill="#ffab24"/><path d="M22.6067,9.4971c.0745.1743.2913.21.4561.21a1.2057,1.2057,0,0,0,.2039-.0171.8316.8316,0,0,0,.2961.6506c-.4255.4073-.0354,1.1283-.0354,1.1283a1.0442,1.0442,0,0,1-.8447.412,1.766,1.766,0,0,1-1.2927-.6814,1.17,1.17,0,0,1,.1165-1.5448.6044.6044,0,0,0,.4419.21,1.0035,1.0035,0,0,0,.6584-.3674m0-2a2,2,0,0,0-.8223.177,2.0025,2.0025,0,0,0-.2751-.0194h-.0027a2,2,0,0,0-1.4358.6077,3.1118,3.1118,0,0,0-.2065,4.23,3.739,3.739,0,0,0,2.8186,1.3884,3.055,3.055,0,0,0,2.4192-1.1786,2,2,0,0,0,.3611-1.7375,2.0006,2.0006,0,0,0-.2341-1.7308,1.8633,1.8633,0,0,0-.5974-1.0627,1.9535,1.9535,0,0,0-1.209-.5,2.0031,2.0031,0,0,0-.8159-.1738Z" fill="#fff"/><path d="M21.928,10.7729a1.3317,1.3317,0,0,1-.8857-.32,1.2383,1.2383,0,0,1-.4268-1.0391,1.5314,1.5314,0,0,1,.3477-.8281,1.8815,1.8815,0,0,1,.5117-.4541,1.4633,1.4633,0,0,1,.7705-.2441,1.189,1.189,0,0,1,.6494.1924A1.4693,1.4693,0,0,1,23.53,9.3784,1.5793,1.5793,0,0,1,21.928,10.7729Z" fill="#ffab24"/><path d="M22.2451,8.8868a.1838.1838,0,0,1,.103.0305.47.47,0,0,1,.1826.4159c-.01.2345-.3381.44-.6028.44a.3434.3434,0,0,1-.2292-.075.2334.2334,0,0,1-.0862-.2036.5929.5929,0,0,1,.1375-.293.92.92,0,0,1,.2466-.2166.52.52,0,0,1,.2485-.098m0-2h0a2.4354,2.4354,0,0,0-1.2905.3911,2.8919,2.8919,0,0,0-.782.6943,2.5206,2.5206,0,0,0-.554,1.3689,2.2237,2.2237,0,0,0,.77,1.8679,2.3451,2.3451,0,0,0,1.54.5637,2.5706,2.5706,0,0,0,2.6008-2.3523,2.47,2.47,0,0,0-1.0869-2.1776,2.1815,2.1815,0,0,0-1.1968-.3561Z" fill="#fff"/><path d="M22.99,10.6187a1.4225,1.4225,0,0,1-1.26-.8252,1.5375,1.5375,0,0,1-.1816-.7441,1.2793,1.2793,0,0,1,.6533-1.126A1.43,1.43,0,0,1,22.887,7.76a1.6534,1.6534,0,0,1,1.6152,1.0166,1.2473,1.2473,0,0,1-.3926,1.3018A1.5661,1.5661,0,0,1,22.99,10.6187Z" fill="#ffab24"/><path d="M22.8875,8.76c.2556,0,.6013.1251.66.3132a.2631.2631,0,0,1-.0762.2351c-.0825.0684-.2668.3092-.4822.3092-.1228,0-.2554-.078-.385-.3105a.539.539,0,0,1-.0562-.2452.2754.2754,0,0,1,.1345-.2616.4452.4452,0,0,1,.2048-.04m0-2a2.4029,2.4029,0,0,0-1.1536.28,2.2628,2.2628,0,0,0-1.1855,1.9935,2.5182,2.5182,0,0,0,.3105,1.25,2.4113,2.4113,0,0,0,2.13,1.3341,2.5758,2.5758,0,0,0,1.8313-.8325,2.2452,2.2452,0,0,0,.6367-2.3064,2.6573,2.6573,0,0,0-2.57-1.7186Z" fill="#fff"/><path d="M23.8362,11.228a1.4146,1.4146,0,0,1-1.3594-.917A1.5484,1.5484,0,0,1,23.1253,8.43a1.2962,1.2962,0,0,1,.51-.15h.0088a1.6187,1.6187,0,0,1,1.4951,1.041,1.4152,1.4152,0,0,1,.0166,1.1719,1.2482,1.2482,0,0,1-.8018.6582A1.7938,1.7938,0,0,1,23.8362,11.228Z" fill="#ffab24"/><path d="M23.7339,9.2762c.2126,0,.4048.24.478.4209.1648.4081-.0388.4623-.1587.4991a.7785.7785,0,0,1-.2183.0321.4182.4182,0,0,1-.4241-.2716.5633.5633,0,0,1,.1853-.645.2952.2952,0,0,1,.116-.0347l.0217-.0009m0-2c-.0518,0-.125.0028-.1765.0068a2.2876,2.2876,0,0,0-.9.2626,2.546,2.546,0,0,0-1.1167,3.1208,2.4262,2.4262,0,0,0,2.2939,1.5619,2.7743,2.7743,0,0,0,.8062-.12,2.23,2.23,0,0,0,1.416-1.1835,2.3854,2.3854,0,0,0,.0093-1.9762,2.6034,2.6034,0,0,0-2.3325-1.672Z" fill="#fff"/><path d="M23.71,12.3306a1.2567,1.2567,0,0,1-.6406-.2,1.59,1.59,0,0,1-.5566-1.6914A1.4332,1.4332,0,0,1,23.7591,9.33c.0342-.0029.0693-.0049.1035-.0049s.0664.002.0986.0049a1.41,1.41,0,0,1,1.001.5771,1.3223,1.3223,0,0,1,.1709,1.1133A1.6093,1.6093,0,0,1,23.71,12.3306Z" fill="#ffab24"/><path d="M23.8628,10.3247a.3321.3321,0,0,1,.3059.4324c-.0906.3347-.3081.5734-.4585.5734a.12.12,0,0,1-.07-.0214c-.2881-.2008-.2485-.9358.2227-.9844m0-2a2.02,2.02,0,0,0-.2051.01,2.4414,2.4414,0,0,0-2.1128,1.8534,2.571,2.571,0,0,0,.9517,2.7612A2.1085,2.1085,0,0,0,23.71,13.33a2.5756,2.5756,0,0,0,2.3892-2.051,2.3346,2.3346,0,0,0-.3147-1.9413A2.4,2.4,0,0,0,24.06,8.3345q-.0985-.01-.1975-.01Z" fill="#fff"/><path d="M27.6516,14.6206a2.7422,2.7422,0,0,1-2.0547-1.0352,2.1377,2.1377,0,0,1,.1611-2.8877.9994.9994,0,0,1,.7178-.3037h.001a1.0051,1.0051,0,0,1,.4287.0967,1.0493,1.0493,0,0,1,.6611-.24.8172.8172,0,0,1,.1289.0088,1.0715,1.0715,0,0,1,.4541.1719q.0337-.0029.0674-.0029a1.0182,1.0182,0,0,1,1.0156.9346.9626.9626,0,0,1,.3135.6895.95.95,0,0,1-.1963.6074.5835.5835,0,0,0,.0342.0859,1.0266,1.0266,0,0,1-.1006,1.08A2.0337,2.0337,0,0,1,27.6516,14.6206Z" fill="#ffab24"/><path d="M27.5762,11.2366c.0745.1742.291.21.4558.21a1.2023,1.2023,0,0,0,.2041-.0172.8317.8317,0,0,0,.2961.6508c-.4255.4072-.0354,1.1282-.0354,1.1282a1.0443,1.0443,0,0,1-.845.412,1.7658,1.7658,0,0,1-1.2925-.6813,1.17,1.17,0,0,1,.1162-1.5449.6048.6048,0,0,0,.4421.21,1.0036,1.0036,0,0,0,.6584-.3673m0-2a2,2,0,0,0-.8223.1769,2.01,2.01,0,0,0-.2756-.0194h-.0024a2,2,0,0,0-1.4358.6078,3.1116,3.1116,0,0,0-.2061,4.23A3.738,3.738,0,0,0,27.6519,15.62a3.0555,3.0555,0,0,0,2.4194-1.1786,2,2,0,0,0,.3611-1.7374,2,2,0,0,0-.2341-1.7307A1.8635,1.8635,0,0,0,29.6009,9.91a1.9544,1.9544,0,0,0-1.2092-.5,2.0016,2.0016,0,0,0-.8157-.1737Z" fill="#fff"/><path d="M26.8977,12.5122a1.3317,1.3317,0,0,1-.8857-.32,1.2383,1.2383,0,0,1-.4268-1.0391,1.5462,1.5462,0,0,1,.3418-.8223,1.9282,1.9282,0,0,1,.5215-.4619,1.4439,1.4439,0,0,1,.7656-.2422,1.19,1.19,0,0,1,.65.1924,1.4693,1.4693,0,0,1,.6348,1.2988A1.5793,1.5793,0,0,1,26.8977,12.5122Z" fill="#ffab24"/><path d="M27.2146,10.6262a.1838.1838,0,0,1,.103.0305.4694.4694,0,0,1,.1824.4159c-.01.2345-.3379.44-.6023.44a.3436.3436,0,0,1-.2295-.075.2341.2341,0,0,1-.0864-.2036.5929.5929,0,0,1,.1377-.2928.9182.9182,0,0,1,.2466-.2167.5229.5229,0,0,1,.2485-.098m0-2h0a2.437,2.437,0,0,0-1.2891.39,2.8988,2.8988,0,0,0-.7844.6965,2.5211,2.5211,0,0,0-.5532,1.3674,2.2282,2.2282,0,0,0,.7717,1.8693,2.3425,2.3425,0,0,0,1.5383.5627,2.57,2.57,0,0,0,2.6-2.3539,2.4673,2.4673,0,0,0-1.0857-2.1755,2.1855,2.1855,0,0,0-1.1978-.3567Z" fill="#fff"/><path d="M27.9583,12.3579A1.4211,1.4211,0,0,1,26.7,11.5347a1.5255,1.5255,0,0,1-.1826-.76A1.2665,1.2665,0,0,1,27.179,9.66a1.4107,1.4107,0,0,1,.6787-.16,1.653,1.653,0,0,1,1.6143,1.0166,1.2452,1.2452,0,0,1-.3936,1.3027A1.5675,1.5675,0,0,1,27.9583,12.3579Z" fill="#ffab24"/><path d="M27.857,10.5c.2556,0,.6013.1251.66.3134a.2627.2627,0,0,1-.0762.235c-.0825.0684-.2668.3093-.4824.3093-.1226,0-.2554-.0781-.385-.3107a.5449.5449,0,0,1-.0562-.2451.2761.2761,0,0,1,.1348-.2617.4452.4452,0,0,1,.2048-.04m0-2a2.4025,2.4025,0,0,0-1.1543.28,2.2638,2.2638,0,0,0-1.1851,1.99,2.5332,2.5332,0,0,0,.3086,1.25,2.4142,2.4142,0,0,0,2.1323,1.3378,2.5737,2.5737,0,0,0,1.83-.8311,2.2437,2.2437,0,0,0,.6384-2.3079A2.6572,2.6572,0,0,0,27.857,8.5Z" fill="#fff"/><path d="M28.805,12.9683a1.4178,1.4178,0,0,1-1.3594-.916,1.5534,1.5534,0,0,1,.6494-1.8828,1.2992,1.2992,0,0,1,.4873-.1484c.0332-.0029.0869-.0059.12-.0059a1.5952,1.5952,0,0,1,1.4063,1.05,1.4075,1.4075,0,0,1,.0156,1.167,1.244,1.244,0,0,1-.8008.6582A1.82,1.82,0,0,1,28.805,12.9683Z" fill="#ffab24"/><path d="M28.7034,11.0157c.2126,0,.4045.24.478.4208.1648.4081-.0391.4623-.1587.4991a.7777.7777,0,0,1-.2183.0322.4184.4184,0,0,1-.4241-.2717.5627.5627,0,0,1,.1853-.6449.292.292,0,0,1,.116-.0347l.0217-.0009m0-2c-.052,0-.126.0029-.1777.007a2.2831,2.2831,0,0,0-.9072.2672,2.542,2.542,0,0,0-1.1072,3.1179,2.4257,2.4257,0,0,0,2.2932,1.56,2.7728,2.7728,0,0,0,.8081-.1212,2.2294,2.2294,0,0,0,1.4143-1.1835,2.3852,2.3852,0,0,0,.009-1.9756,2.5607,2.5607,0,0,0-2.3325-1.6719Z" fill="#fff"/><path d="M28.68,14.07a1.2445,1.2445,0,0,1-.6426-.2021,1.5871,1.5871,0,0,1-.5557-1.6875,1.4342,1.4342,0,0,1,1.248-1.1113c.0342-.0029.0684-.0049.1025-.0049s.0664.002.0986.0049a1.41,1.41,0,0,1,1.001.5771,1.3217,1.3217,0,0,1,.1709,1.1133A1.6093,1.6093,0,0,1,28.68,14.07Z" fill="#ffab24"/><path d="M28.8323,12.0641a.332.332,0,0,1,.3057.4325c-.0906.3346-.3079.5734-.4585.5734a.12.12,0,0,1-.07-.0214c-.2878-.2008-.2483-.9359.2229-.9845m0-2a2.02,2.02,0,0,0-.2051.01,2.4414,2.4414,0,0,0-2.1128,1.853,2.571,2.571,0,0,0,.9507,2.7612,2.1115,2.1115,0,0,0,1.2144.3811,2.575,2.575,0,0,0,2.3889-2.0509,2.3337,2.3337,0,0,0-.314-1.9412,2.4,2.4,0,0,0-1.7246-1.004q-.0985-.01-.1975-.01Z" fill="#fff"/><path d="M6.7132,26.0054a2.8847,2.8847,0,0,1-1.7715-.6572,2.138,2.138,0,0,1-.4053-2.8633.997.997,0,0,1,.6455-.4395,1.0075,1.0075,0,0,1,.1943-.0186,1.0336,1.0336,0,0,1,.2451.03,1.0392,1.0392,0,0,1,.7285-.3818c.0225-.001.0449-.002.0664-.002a1.0685,1.0685,0,0,1,.4219.0859.9947.9947,0,0,1,1.2383.7021.9639.9639,0,0,1,.4395.6162.9476.9476,0,0,1-.0742.63.6514.6514,0,0,0,.05.0791,1.0278,1.0278,0,0,1,.1133,1.0781A2.0751,2.0751,0,0,1,6.7132,26.0054Z" fill="#ffab24"/><path d="M6.4251,22.6578a.3587.3587,0,0,0,.3132.1357,1.1365,1.1365,0,0,0,.3716-.0752.8318.8318,0,0,0,.4172.58c-.3379.4824.1853,1.1135.1853,1.1135a1.0717,1.0717,0,0,1-1,.5928,1.8892,1.8892,0,0,1-1.15-.44,1.17,1.17,0,0,1-.187-1.538.6484.6484,0,0,0,.3718.13c.417,0,.677-.4988.677-.4988m0-2q-.06,0-.12.0035a2,2,0,0,0-1.042.3685,2.0006,2.0006,0,0,0-1.5667.911A3.1122,3.1122,0,0,0,4.3186,26.13a3.889,3.889,0,0,0,2.3943.8748,3.0557,3.0557,0,0,0,2.7837-1.6892,1.9994,1.9994,0,0,0,.0159-1.7754A2,2,0,0,0,8.9163,21.86,2,2,0,0,0,7.11,20.7184c-.0564,0-.1125.0023-.1689.0071a1.9987,1.9987,0,0,0-.5156-.0676Z" fill="#fff"/><path d="M5.7259,24.0688a1.3049,1.3049,0,0,1-.6465-.168,1.2337,1.2337,0,0,1-.6221-.93,1.5385,1.5385,0,0,1,.18-.8916,1.9088,1.9088,0,0,1,.41-.5391,1.3726,1.3726,0,0,1,.9434-.415,1.4243,1.4243,0,0,1,.4375.084,1.4728,1.4728,0,0,1,.8789,1.1494,1.3767,1.3767,0,0,1-.3428,1.1143A1.6856,1.6856,0,0,1,5.7259,24.0688Z" fill="#ffab24"/><path d="M5.99,22.1259a.1844.1844,0,0,1,.0691.0135.47.47,0,0,1,.26.3724c.04.2583-.3137.5576-.5923.5576a.3049.3049,0,0,1-.1526-.0377.2342.2342,0,0,1-.1245-.1829.595.595,0,0,1,.0779-.3142.9189.9189,0,0,1,.2-.26.4374.4374,0,0,1,.2627-.1483m0-2a2.354,2.354,0,0,0-1.616.6757,2.9019,2.9019,0,0,0-.6335.8351,2.5246,2.5246,0,0,0-.2766,1.4495,2.2291,2.2291,0,0,0,1.12,1.6833,2.3076,2.3076,0,0,0,1.1428.3,2.6766,2.6766,0,0,0,1.9958-.9437,2.3955,2.3955,0,0,0,.5732-1.9181,2.47,2.47,0,0,0-1.4888-1.9231,2.1789,2.1789,0,0,0-.8171-.1587Z" fill="#fff"/><path d="M6.7688,23.7075A1.4825,1.4825,0,0,1,5.6243,23.12a1.52,1.52,0,0,1-.3252-.6963,1.28,1.28,0,0,1,.4238-1.2324,1.6064,1.6064,0,0,1,1.0225-.3281,1.5294,1.5294,0,0,1,1.3984.72,1.2415,1.2415,0,0,1-.1367,1.3594A1.5081,1.5081,0,0,1,6.7688,23.7075Z" fill="#ffab24"/><path d="M6.7459,21.863a.6128.6128,0,0,1,.52.1963.2626.2626,0,0,1-.0291.2454c-.073.09-.2246.4026-.468.4026a.532.532,0,0,1-.3828-.235.5428.5428,0,0,1-.1028-.2295.2757.2757,0,0,1,.0811-.283.6444.6444,0,0,1,.3821-.0968m0-2a2.5833,2.5833,0,0,0-1.6558.5548,2.2638,2.2638,0,0,0-.7744,2.1868A2.5339,2.5339,0,0,0,4.8638,23.77a2.48,2.48,0,0,0,1.9045.937,2.4421,2.4421,0,0,0,2.0779-1.2155,2.2426,2.2426,0,0,0,.1746-2.3911A2.5118,2.5118,0,0,0,6.7459,19.863Z" fill="#fff"/><path d="M7.6565,24.1479a1.3936,1.3936,0,0,1-1.2-.6641,1.552,1.552,0,0,1,.2715-1.9756,1.2592,1.2592,0,0,1,.4834-.248,1.6742,1.6742,0,0,1,.334-.0439,1.6516,1.6516,0,0,1,1.33.7783,1.4126,1.4126,0,0,1,.2432,1.1445,1.2437,1.2437,0,0,1-.6582.8A1.72,1.72,0,0,1,7.6565,24.1479Z" fill="#ffab24"/><path d="M7.5452,22.2159a.6925.6925,0,0,1,.4932.3253c.2412.368.052.4609-.0583.5205a.7307.7307,0,0,1-.3237.0859.3955.3955,0,0,1-.3528-.1958.5627.5627,0,0,1,.0559-.6687.2866.2866,0,0,1,.1858-.0673m0-2a2.2859,2.2859,0,0,0-1.4541.5208,2.5433,2.5433,0,0,0-.4824,3.2776,2.403,2.403,0,0,0,2.0474,1.1334A2.7415,2.7415,0,0,0,8.93,24.8218a2.2307,2.2307,0,0,0,1.1577-1.4371,2.3865,2.3865,0,0,0-.3765-1.94,2.6646,2.6646,0,0,0-2.1658-1.229Z" fill="#fff"/><path d="M7.8391,25.2437a1.25,1.25,0,0,1-.45-.0937,1.5907,1.5907,0,0,1-.8721-1.5488,1.4323,1.4323,0,0,1,1.0068-1.332,1.0475,1.0475,0,0,1,.1982-.0391c.0322-.0029.0938-.0059.127-.0059a1.3562,1.3562,0,0,1,1.0078.42A1.3277,1.3277,0,0,1,9.2,23.6567,1.5192,1.5192,0,0,1,7.8391,25.2437Z" fill="#ffab24"/><path d="M7.8484,23.2236a.3211.3211,0,0,1,.3542.3657c-.0251.366-.21.6543-.3638.6543a.1165.1165,0,0,1-.0474-.01c-.3215-.1409-.426-.87.0269-1.009,0,0,.0112-.0011.03-.0011m0-2c-.0647,0-.1594.0043-.2239.01a1.9981,1.9981,0,0,0-.395.0792,2.4418,2.4418,0,0,0-1.7114,2.2292A2.5716,2.5716,0,0,0,6.989,26.0657a2.24,2.24,0,0,0,.85.178,2.5174,2.5174,0,0,0,2.3591-2.517,2.3222,2.3222,0,0,0-.61-1.7657,2.38,2.38,0,0,0-1.74-.7373Z" fill="#fff"/><path d="M3.5452,30.5435a2.9353,2.9353,0,0,1-1.6777-.5674,2.1383,2.1383,0,0,1-.5508-2.84.9993.9993,0,0,1,.8662-.501,1.0826,1.0826,0,0,1,.1943.0186,1.0113,1.0113,0,0,1,.83-.4258,1.0748,1.0748,0,0,1,.3779.0684.9745.9745,0,0,1,.7988.0625.9736.9736,0,0,1,.4668.5723.9649.9649,0,0,1,.47.5908.9489.9489,0,0,1-.041.6338.5976.5976,0,0,0,.043.0645,1,1,0,0,1,.1787,1.083A2.0717,2.0717,0,0,1,3.5452,30.5435Z" fill="#ffab24"/><path d="M3.2107,27.2124a.3419.3419,0,0,0,.2861.12,1.1008,1.1008,0,0,0,.4009-.0952.8316.8316,0,0,0,.4468.5581c-.3127.4991.2424,1.1024.2424,1.1024a1.0832,1.0832,0,0,1-1.041.6456,1.9235,1.9235,0,0,1-1.0972-.3824,1.17,1.17,0,0,1-.2664-1.5261.6622.6622,0,0,0,.3508.1111c.4336,0,.6775-.5338.6775-.5338m0-2a2.0006,2.0006,0,0,0-1.2449.4344,2.0006,2.0006,0,0,0-1.5171.9906,3.1114,3.1114,0,0,0,.8381,4.152,3.94,3.94,0,0,0,2.2588.7543,3.0853,3.0853,0,0,0,2.87-1.8358A2,2,0,0,0,6.34,27.9346a2,2,0,0,0-.6824-1.6477,2.0007,2.0007,0,0,0-2.031-1.0309,1.9968,1.9968,0,0,0-.4153-.0436Z" fill="#fff"/><path d="M2.5149,28.66a1.2886,1.2886,0,0,1-.5869-.1387,1.22,1.22,0,0,1-.668-.9053,1.5147,1.5147,0,0,1,.1348-.8887,1.8994,1.8994,0,0,1,.3828-.56,1.3613,1.3613,0,0,1,.98-.4639,1.3929,1.3929,0,0,1,.38.0625,1.4685,1.4685,0,0,1,.9375,1.1006,1.4008,1.4008,0,0,1-.3125,1.168A1.6646,1.6646,0,0,1,2.5149,28.66Z" fill="#ffab24"/><path d="M2.7576,26.7035a.1852.1852,0,0,1,.06.01.4691.4691,0,0,1,.2788.3585c.0544.2618-.3005.5879-.582.5879a.2966.2966,0,0,1-.135-.03.2341.2341,0,0,1-.1335-.1763.591.591,0,0,1,.0615-.3177.917.917,0,0,1,.186-.27.4194.4194,0,0,1,.2639-.162m0-2h0a2.323,2.323,0,0,0-1.6921.7621,2.8947,2.8947,0,0,0-.5886.8655,2.5207,2.5207,0,0,0-.2007,1.4667,2.2225,2.2225,0,0,0,1.2009,1.6168,2.3127,2.3127,0,0,0,1.0378.2456A2.6532,2.6532,0,0,0,4.54,28.6649a2.3956,2.3956,0,0,0,.5151-2A2.4652,2.4652,0,0,0,3.468,24.8224a2.1837,2.1837,0,0,0-.71-.1189Z" fill="#fff"/><path d="M3.5413,28.2446a1.5073,1.5073,0,0,1-1.1074-.5293,1.5544,1.5544,0,0,1-.3594-.6768A1.2764,1.2764,0,0,1,2.44,25.7808a1.6617,1.6617,0,0,1,1.1084-.38,1.489,1.489,0,0,1,1.3232.6484,1.2459,1.2459,0,0,1-.0576,1.3535A1.4967,1.4967,0,0,1,3.5413,28.2446Z" fill="#ffab24"/><path d="M3.5476,26.4006a.5671.5671,0,0,1,.4712.1707.2627.2627,0,0,1-.0161.2466c-.07.0956-.209.4266-.4614.4266a.6019.6019,0,0,1-.4944-.4391.2762.2762,0,0,1,.0667-.2869.6988.6988,0,0,1,.4341-.1179m0-2h0a2.6573,2.6573,0,0,0-1.7856.6438A2.2649,2.2649,0,0,0,1.1,27.2639a2.542,2.542,0,0,0,.6079,1.1392,2.4806,2.4806,0,0,0,1.8333.8416A2.4154,2.4154,0,0,0,5.6731,27.918a2.2438,2.2438,0,0,0,.0483-2.396,2.465,2.465,0,0,0-2.1738-1.1213Z" fill="#fff"/><path d="M4.44,28.6392a1.3968,1.3968,0,0,1-1.1553-.6045,1.5538,1.5538,0,0,1,.168-1.9844,1.2474,1.2474,0,0,1,.4531-.2686,1.6857,1.6857,0,0,1,.4189-.0693,1.6809,1.6809,0,0,1,1.2988.71,1.4177,1.4177,0,0,1,.3018,1.1318,1.25,1.25,0,0,1-.6152.833A1.7118,1.7118,0,0,1,4.44,28.6392Z" fill="#ffab24"/><path d="M4.3235,26.7129a.7089.7089,0,0,1,.4924.3c.26.3552.0757.4578-.0315.5229a.7172.7172,0,0,1-.345.1033.3927.3927,0,0,1-.3364-.178.563.563,0,0,1,.0215-.6708.2919.2919,0,0,1,.104-.062.2951.2951,0,0,1,.095-.0151m0-2a2.288,2.288,0,0,0-1.5449.598,2.5442,2.5442,0,0,0-.3135,3.2974,2.3838,2.3838,0,0,0,1.9746,1.0305,2.7165,2.7165,0,0,0,1.3845-.3947A2.2306,2.2306,0,0,0,6.9058,27.75,2.3862,2.3862,0,0,0,6.43,25.832a2.65,2.65,0,0,0-2.1072-1.1191Z" fill="#fff"/><path d="M4.6946,29.7212a1.23,1.23,0,0,1-.3936-.0723,1.59,1.59,0,0,1-.9541-1.502,1.4344,1.4344,0,0,1,.9375-1.3828.9735.9735,0,0,1,.1973-.05,1.9884,1.9884,0,0,1,.2012-.0137,1.3083,1.3083,0,0,1,1.3477,1.3643A1.5085,1.5085,0,0,1,4.6946,29.7212Z" fill="#ffab24"/><path d="M4.6839,27.7007a.3144.3144,0,0,1,.3464.3475c-.0061.3718-.1807.6725-.3354.6725a.1177.1177,0,0,1-.0415-.0077c-.3284-.124-.47-.8463-.0254-1.009a.4209.4209,0,0,1,.0559-.0033m0-2a2.1636,2.1636,0,0,0-.353.0255,2.83,2.83,0,0,0-.39.0994A2.4415,2.4415,0,0,0,2.3472,28.14a2.5715,2.5715,0,0,0,1.6,2.4436,2.2394,2.2394,0,0,0,.748.1367,2.477,2.477,0,0,0,2.3352-2.64,2.3063,2.3063,0,0,0-2.3462-2.38Z" fill="#fff"/><path d="M8.7962,31.36a2.9353,2.9353,0,0,1-1.6777-.5674,2.14,2.14,0,0,1-.5527-2.84,1.0048,1.0048,0,0,1,.623-.4707.9835.9835,0,0,1,.2441-.03.9937.9937,0,0,1,.1943.02,1.0356,1.0356,0,0,1,.71-.42c.04-.0039.08-.0068.1211-.0068a1.0694,1.0694,0,0,1,.377.0684.9764.9764,0,0,1,.7979.0615.9729.9729,0,0,1,.4668.5723.9585.9585,0,0,1,.4707.5918.94.94,0,0,1-.041.6348.6111.6111,0,0,0,.0537.0762,1.0259,1.0259,0,0,1,.168,1.0693A2.0693,2.0693,0,0,1,8.7962,31.36Z" fill="#ffab24"/><path d="M8.461,28.0287a.3419.3419,0,0,0,.2861.12,1.1008,1.1008,0,0,0,.4009-.0952.8316.8316,0,0,0,.4468.5581c-.3125.4991.2424,1.1024.2424,1.1024a1.0832,1.0832,0,0,1-1.041.6456,1.924,1.924,0,0,1-1.0972-.3824,1.17,1.17,0,0,1-.2664-1.5261.6622.6622,0,0,0,.3508.1111c.4336,0,.6775-.5338.6775-.5338m0-2a2,2,0,0,0-1.2449.4344,2,2,0,0,0-1.5173.991,3.1117,3.1117,0,0,0,.8381,4.1514,3.9414,3.9414,0,0,0,2.259.7545,3.085,3.085,0,0,0,2.87-1.8358,2,2,0,0,0-.0759-1.7733,1.9994,1.9994,0,0,0-.6824-1.6477,2.0007,2.0007,0,0,0-2.031-1.0309,1.9968,1.9968,0,0,0-.4153-.0436Z" fill="#fff"/><path d="M7.7649,29.4761a1.2886,1.2886,0,0,1-.5869-.1387,1.2255,1.2255,0,0,1-.666-.8926,1.5487,1.5487,0,0,1,.13-.8926,1.9138,1.9138,0,0,1,.39-.5723,1.3659,1.3659,0,0,1,.9775-.46,1.4158,1.4158,0,0,1,.3779.0615,1.4688,1.4688,0,0,1,.9385,1.1016,1.4008,1.4008,0,0,1-.3125,1.168A1.6646,1.6646,0,0,1,7.7649,29.4761Z" fill="#ffab24"/><path d="M8.0078,27.52a.1841.1841,0,0,1,.06.01.4691.4691,0,0,1,.2788.3585c.0544.2618-.3.5879-.5818.5879a.2966.2966,0,0,1-.135-.03.2344.2344,0,0,1-.1338-.1761.5958.5958,0,0,1,.0615-.3179.917.917,0,0,1,.186-.27.4194.4194,0,0,1,.2639-.162m0-2h0a2.323,2.323,0,0,0-1.6921.7621,2.8934,2.8934,0,0,0-.5884.8654,2.5274,2.5274,0,0,0-.2017,1.462A2.2294,2.2294,0,0,0,6.73,30.2319a2.31,2.31,0,0,0,1.0356.2445A2.653,2.653,0,0,0,9.79,29.4813a2.3958,2.3958,0,0,0,.5151-2,2.4654,2.4654,0,0,0-1.5867-1.8427,2.1837,2.1837,0,0,0-.71-.1189Z" fill="#fff"/><path d="M8.7923,29.061a1.5057,1.5057,0,0,1-1.1084-.53,1.5524,1.5524,0,0,1-.3594-.6758,1.2823,1.2823,0,0,1,.3594-1.2539,1.6692,1.6692,0,0,1,1.1133-.3838,1.49,1.49,0,0,1,1.3232.6465,1.25,1.25,0,0,1-.0566,1.3555A1.494,1.494,0,0,1,8.7923,29.061Z" fill="#ffab24"/><path d="M8.7981,27.2169a.5671.5671,0,0,1,.4712.1707.2627.2627,0,0,1-.0164.2466c-.07.0956-.209.4266-.4614.4266a.5506.5506,0,0,1-.38-.2152.5422.5422,0,0,1-.1145-.2239.2757.2757,0,0,1,.0664-.2869.7.7,0,0,1,.4343-.1179m0-2h0a2.6577,2.6577,0,0,0-1.7854.6434,2.2643,2.2643,0,0,0-.6609,2.2233,2.5271,2.5271,0,0,0,.6067,1.1357,2.48,2.48,0,0,0,1.8333.8414,2.4138,2.4138,0,0,0,2.1294-1.3226,2.2422,2.2422,0,0,0,.054-2.3951,2.467,2.467,0,0,0-2.1768-1.1261Z" fill="#fff"/><path d="M9.69,29.4546a1.3926,1.3926,0,0,1-1.1553-.6055,1.5518,1.5518,0,0,1,.168-1.9834,1.2969,1.2969,0,0,1,.4453-.2646,1.6622,1.6622,0,0,1,.4268-.0723,1.6809,1.6809,0,0,1,1.2988.71,1.4143,1.4143,0,0,1,.3027,1.13,1.2433,1.2433,0,0,1-.6162.834A1.7024,1.7024,0,0,1,9.69,29.4546Z" fill="#ffab24"/><path d="M9.5738,27.5292a.7079.7079,0,0,1,.4924.3c.26.3552.0757.4578-.0315.5229a.7172.7172,0,0,1-.345.1033.393.393,0,0,1-.3364-.178.563.563,0,0,1,.0215-.6708.288.288,0,0,1,.199-.0771m0-2a2.2881,2.2881,0,0,0-1.5452.598,2.5442,2.5442,0,0,0-.3135,3.2974A2.3845,2.3845,0,0,0,9.69,30.4551a2.7161,2.7161,0,0,0,1.3845-.3947,2.23,2.23,0,0,0,1.082-1.495,2.3849,2.3849,0,0,0-.4763-1.9178,2.697,2.697,0,0,0-2.1062-1.1184Z" fill="#fff"/><path d="M9.9485,30.54a1.23,1.23,0,0,1-.3936-.0723,1.59,1.59,0,0,1-.9541-1.501,1.4335,1.4335,0,0,1,.9375-1.3828,1.1234,1.1234,0,0,1,.1953-.05,2.0463,2.0463,0,0,1,.2051-.0137,1.3052,1.3052,0,0,1,1.3457,1.3633A1.5085,1.5085,0,0,1,9.9485,30.54Z" fill="#ffab24"/><path d="M9.9378,28.52a.3144.3144,0,0,1,.3464.3474c-.0063.3718-.1807.6725-.3354.6725a.1166.1166,0,0,1-.0415-.0076c-.3286-.124-.47-.8463-.0254-1.009a.4209.4209,0,0,1,.0559-.0033m0-2a2.1584,2.1584,0,0,0-.3528.0255,2.8075,2.8075,0,0,0-.39.0994A2.4416,2.4416,0,0,0,7.6011,28.96a2.5714,2.5714,0,0,0,1.6,2.4435,2.2438,2.2438,0,0,0,.7478.1364,2.4776,2.4776,0,0,0,2.3352-2.6388A2.3064,2.3064,0,0,0,9.9378,26.52Z" fill="#fff"/><path d="M11.888,27.0786a2.819,2.819,0,0,1-1.8984-.8,2.1393,2.1393,0,0,1-.18-2.8867.9967.9967,0,0,1,.6777-.3867.9432.9432,0,0,1,.1172-.0068.9879.9879,0,0,1,.32.0527,1.0323,1.0323,0,0,1,.7393-.3242h.0176a1.0812,1.0812,0,0,1,.4727.1182.9636.9636,0,0,1,.1914-.0186,1.0111,1.0111,0,0,1,.9932.8164.9611.9611,0,0,1,.3926.6484.95.95,0,0,1-.124.625.4862.4862,0,0,0,.0439.0811,1.03,1.03,0,0,1,.0283,1.084A2.05,2.05,0,0,1,11.888,27.0786Z" fill="#ffab24"/><path d="M11.6785,23.7125a.3912.3912,0,0,0,.3611.1619,1.1843,1.1843,0,0,0,.3169-.0483.8317.8317,0,0,0,.3708.6111c-.3743.4547.0984,1.1245.0984,1.1245a1.0578,1.0578,0,0,1-.938.5176,1.8384,1.8384,0,0,1-1.2166-.5326,1.17,1.17,0,0,1-.0669-1.5479.6281.6281,0,0,0,.4011.16c.3945,0,.6731-.4462.6731-.4462m0-2a1.9984,1.9984,0,0,0-1.0315.2867l-.0425,0a1.9994,1.9994,0,0,0-1.59.787,3.1117,3.1117,0,0,0,.2947,4.2251,3.8079,3.8079,0,0,0,2.5789,1.0684,3.0707,3.0707,0,0,0,2.647-1.4785,2,2,0,0,0,.1533-1.7687,2,2,0,0,0-.4639-1.7213,2,2,0,0,0-1.8679-1.2847h-.0134a1.9954,1.9954,0,0,0-.6287-.1132l-.0359,0Z" fill="#fff"/><path d="M10.9817,25.07a1.3159,1.3159,0,0,1-.7432-.2236,1.2322,1.2322,0,0,1-.5469-.9775,1.5438,1.5438,0,0,1,.248-.87,1.9066,1.9066,0,0,1,.4551-.51,1.2537,1.2537,0,0,1,1.4033-.2168,1.4589,1.4589,0,0,1,.7822,1.2168,1.3674,1.3674,0,0,1-.3848,1.0342A1.6955,1.6955,0,0,1,10.9817,25.07Z" fill="#ffab24"/><path d="M11.271,23.1477a.183.183,0,0,1,.0823.02.4692.4692,0,0,1,.23.3915c.019.2507-.3281.5111-.6018.5111a.3179.3179,0,0,1-.1812-.0507.2344.2344,0,0,1-.11-.192.5932.5932,0,0,1,.1023-.3071.9157.9157,0,0,1,.2192-.2443.4656.4656,0,0,1,.2588-.1281m0-2h0a2.3953,2.3953,0,0,0-1.4951.5563,2.8939,2.8939,0,0,0-.6953.783,2.5216,2.5216,0,0,0-.3879,1.424,2.2283,2.2283,0,0,0,.9849,1.7629,2.31,2.31,0,0,0,1.3044.396,2.71,2.71,0,0,0,1.948-.8679,2.3613,2.3613,0,0,0,.6482-1.7946,2.4672,2.4672,0,0,0-1.3362-2.032,2.1974,2.1974,0,0,0-.9707-.2277Z" fill="#fff"/><path d="M12.0393,24.79a1.45,1.45,0,0,1-1.1953-.6777,1.56,1.56,0,0,1-.27-.72,1.2755,1.2755,0,0,1,.53-1.2041,1.52,1.52,0,0,1,.873-.2461,1.59,1.59,0,0,1,1.4971.83,1.25,1.25,0,0,1-.2334,1.3389A1.5321,1.5321,0,0,1,12.0393,24.79Z" fill="#ffab24"/><path d="M11.9768,22.9418c.2383,0,.5161.0835.5859.2393a.263.263,0,0,1-.0479.2424c-.0776.0815-.2446.366-.4761.366-.1138,0-.2432-.069-.3853-.2649a.5419.5419,0,0,1-.0847-.2368.2756.2756,0,0,1,.1028-.2759.56.56,0,0,1,.3052-.07m0-2h0a2.51,2.51,0,0,0-1.4556.4341,2.263,2.263,0,0,0-.9417,2.12,2.5294,2.5294,0,0,0,.4553,1.204,2.44,2.44,0,0,0,2.0039,1.09,2.4809,2.4809,0,0,0,1.991-1.06,2.245,2.245,0,0,0,.3574-2.3678,2.5532,2.5532,0,0,0-2.41-1.42Z" fill="#fff"/><path d="M12.91,25.2983a1.4017,1.4017,0,0,1-1.2646-.7607,1.5536,1.5536,0,0,1,.42-1.9453,1.2679,1.2679,0,0,1,.5078-.2129,1.6844,1.6844,0,0,1,.2324-.0205,1.64,1.64,0,0,1,1.3652.8789A1.414,1.414,0,0,1,14.3264,24.4a1.2423,1.2423,0,0,1-.7178.7471A1.7385,1.7385,0,0,1,12.91,25.2983Z" fill="#ffab24"/><path d="M12.8059,23.358a.6682.6682,0,0,1,.49.3635c.2122.3857.0161.4636-.0986.5144a.7529.7529,0,0,1-.2871.0623.4017.4017,0,0,1-.3789-.2242.5632.5632,0,0,1,.1079-.6624.2956.2956,0,0,1,.1111-.0482.2867.2867,0,0,1,.0557-.0054m0-2a2.2833,2.2833,0,0,0-1.3093.4121,2.5447,2.5447,0,0,0-.7383,3.2291,2.3881,2.3881,0,0,0,2.1519,1.299,2.7343,2.7343,0,0,0,1.0979-.234,2.2288,2.2288,0,0,0,1.2654-1.3425,2.3842,2.3842,0,0,0-.2251-1.964,2.6131,2.6131,0,0,0-2.2424-1.4Z" fill="#fff"/><path d="M12.9739,26.4038a1.2464,1.2464,0,0,1-.5254-.1309,1.592,1.592,0,0,1-.752-1.6162,1.43,1.43,0,0,1,1.1094-1.2461,1.0182,1.0182,0,0,1,.1963-.0244h.002a1.4252,1.4252,0,0,1,1.0684.4629,1.3208,1.3208,0,0,1,.2949,1.0742A1.5637,1.5637,0,0,1,12.9739,26.4038Z" fill="#ffab24"/><path d="M13.0254,24.3859a.33.33,0,0,1,.3528.3933c-.0522.3553-.2517.6245-.4036.6245a.1181.1181,0,0,1-.0562-.0139c-.31-.1654-.3572-.9.1052-1.0039h.0017m0-2-.0352,0a2.0073,2.0073,0,0,0-.4055.0485,2.4416,2.4416,0,0,0-1.8789,2.09,2.5707,2.5707,0,0,0,1.27,2.6294,2.1251,2.1251,0,0,0,.9985.25A2.5469,2.5469,0,0,0,15.357,25.07a2.3082,2.3082,0,0,0-.5269-1.8745,2.3753,2.3753,0,0,0-1.8047-.81Z" fill="#fff"/><path d="M5.2649,35.6226a2.94,2.94,0,0,1-1.6787-.5684,2.1383,2.1383,0,0,1-.5508-2.84.9955.9955,0,0,1,.623-.4707.9815.9815,0,0,1,.2432-.03.9937.9937,0,0,1,.1943.02,1.0376,1.0376,0,0,1,.71-.42c.04-.0039.0811-.0068.1211-.0068a1.07,1.07,0,0,1,.418.085c.0518-.0049.1045-.0078.1582-.0078a1.0575,1.0575,0,0,1,.5889.1514A1.3918,1.3918,0,0,1,6.5511,32a.9626.9626,0,0,1,.4883.6.9514.9514,0,0,1-.041.6348.7343.7343,0,0,0,.043.0645,1,1,0,0,1,.1787,1.083A2.0712,2.0712,0,0,1,5.2649,35.6226Z" fill="#ffab24"/><path d="M4.9295,32.2908a.3421.3421,0,0,0,.2861.12,1.1008,1.1008,0,0,0,.4009-.0952.8323.8323,0,0,0,.4468.5582c-.3125.4991.2424,1.1024.2424,1.1024a1.0832,1.0832,0,0,1-1.041.6456A1.924,1.924,0,0,1,4.1675,34.24a1.17,1.17,0,0,1-.2661-1.5262.6612.6612,0,0,0,.3508.1111c.4333,0,.6772-.5337.6772-.5337m0-2a2.0214,2.0214,0,0,0-.2234.0125,2,2,0,0,0-1.0212.4219,2,2,0,0,0-1.5171.9906,3.1118,3.1118,0,0,0,.8376,4.1517,3.9406,3.9406,0,0,0,2.259.7546,3.085,3.085,0,0,0,2.87-1.8358,2,2,0,0,0-.0759-1.7733,2,2,0,0,0-.6821-1.6476,2,2,0,0,0-2.0315-1.031,1.9945,1.9945,0,0,0-.415-.0436Z" fill="#fff"/><path d="M4.2337,33.7388a1.2814,1.2814,0,0,1-.584-.1367,1.233,1.233,0,0,1-.6709-.9082,1.5147,1.5147,0,0,1,.1348-.8887,1.8994,1.8994,0,0,1,.3828-.56,1.3711,1.3711,0,0,1,.9795-.4639,1.4146,1.4146,0,0,1,.3877.0654,1.4624,1.4624,0,0,1,.9316,1.1006,1.4008,1.4008,0,0,1-.3125,1.1641A1.667,1.667,0,0,1,4.2337,33.7388Z" fill="#ffab24"/><path d="M4.4763,31.7819a.1852.1852,0,0,1,.06.01.47.47,0,0,1,.2791.3585c.0542.2618-.3005.5879-.582.5879a.2966.2966,0,0,1-.135-.03.2344.2344,0,0,1-.1338-.1763.5954.5954,0,0,1,.0615-.3177.9222.9222,0,0,1,.186-.2705.4192.4192,0,0,1,.2639-.1619m0-2h0a2.3228,2.3228,0,0,0-1.6921.762,2.8959,2.8959,0,0,0-.5872.8627,2.53,2.53,0,0,0-.2029,1.4652A2.2291,2.2291,0,0,0,3.198,34.494a2.31,2.31,0,0,0,1.0356.2445,2.6532,2.6532,0,0,0,2.0242-.9944,2.3979,2.3979,0,0,0,.5164-1.9991,2.4688,2.4688,0,0,0-1.5874-1.8442,2.1815,2.1815,0,0,0-.71-.1189Z" fill="#fff"/><path d="M5.26,33.3228a1.506,1.506,0,0,1-1.1064-.5283,1.5642,1.5642,0,0,1-.36-.6777,1.2734,1.2734,0,0,1,.3652-1.2578,1.6617,1.6617,0,0,1,1.1084-.38,1.489,1.489,0,0,1,1.3232.6484,1.2459,1.2459,0,0,1-.0576,1.3535A1.4983,1.4983,0,0,1,5.26,33.3228Z" fill="#ffab24"/><path d="M5.2664,31.479a.5673.5673,0,0,1,.4714.1707.2625.2625,0,0,1-.0164.2465c-.07.0957-.2087.4268-.4614.4268a.5514.5514,0,0,1-.38-.2153.5415.5415,0,0,1-.1145-.2239.2755.2755,0,0,1,.0664-.2867.6988.6988,0,0,1,.4341-.1179m0-2h0a2.6573,2.6573,0,0,0-1.7856.6438A2.2619,2.2619,0,0,0,2.82,32.3461a2.5279,2.5279,0,0,0,.6067,1.1351,2.48,2.48,0,0,0,1.8333.8417,2.4134,2.4134,0,0,0,2.1287-1.3212,2.2411,2.2411,0,0,0,.0547-2.3966,2.4672,2.4672,0,0,0-2.177-1.1261Z" fill="#fff"/><path d="M6.1575,33.7173a1.3928,1.3928,0,0,1-1.1543-.6035,1.5571,1.5571,0,0,1,.168-1.9854,1.3251,1.3251,0,0,1,.4531-.2686,1.6766,1.6766,0,0,1,.417-.0684,1.68,1.68,0,0,1,1.3008.71,1.4126,1.4126,0,0,1,.3018,1.13,1.2461,1.2461,0,0,1-.6152.834A1.716,1.716,0,0,1,6.1575,33.7173Z" fill="#ffab24"/><path d="M6.042,31.7911a.7081.7081,0,0,1,.4927.3c.26.3552.0757.4578-.0315.5228a.7148.7148,0,0,1-.3447.1033.3927.3927,0,0,1-.3364-.178.5624.5624,0,0,1,.0212-.6707.2874.2874,0,0,1,.1987-.0773m0-2a2.2865,2.2865,0,0,0-1.5447.5979,2.5432,2.5432,0,0,0-.312,3.3A2.3826,2.3826,0,0,0,6.1585,34.717a2.7144,2.7144,0,0,0,1.3855-.3955,2.2268,2.2268,0,0,0,1.0806-1.493A2.3849,2.3849,0,0,0,8.1485,30.91,2.6973,2.6973,0,0,0,6.042,29.7911Z" fill="#fff"/><path d="M6.4163,34.8022a1.23,1.23,0,0,1-.3936-.0723A1.59,1.59,0,0,1,5.07,33.228a1.4319,1.4319,0,0,1,.9355-1.3818,1.0352,1.0352,0,0,1,.1963-.0508,2.0269,2.0269,0,0,1,.2041-.0137A1.3068,1.3068,0,0,1,7.7532,33.144,1.51,1.51,0,0,1,6.4163,34.8022Z" fill="#ffab24"/><path d="M6.4063,32.7816a.3144.3144,0,0,1,.3464.3475c-.0061.3718-.1807.6725-.3354.6725a.1177.1177,0,0,1-.0415-.0077c-.3286-.124-.47-.8462-.0254-1.009a.4163.4163,0,0,1,.0559-.0033m0-2a2.1652,2.1652,0,0,0-.3518.0253,2.8289,2.8289,0,0,0-.3914.1A2.4415,2.4415,0,0,0,4.07,33.222a2.5713,2.5713,0,0,0,1.6,2.4431,2.2439,2.2439,0,0,0,.7478.1365,2.4771,2.4771,0,0,0,2.3352-2.64,2.3065,2.3065,0,0,0-2.3462-2.38Z" fill="#fff"/><path d="M18.3411,16.1528a2.7284,2.7284,0,0,1-2.1191-1.1572,2.1364,2.1364,0,0,1,.333-2.873A.9959.9959,0,0,1,17.23,11.86c.0205,0,.04.001.0605.002a.9989.9989,0,0,1,.4209.1211,1.0536,1.0536,0,0,1,.6162-.2031.9972.9972,0,0,1,.1865.0176,1.0882,1.0882,0,0,1,.4434.1992h.0078a1.0172,1.0172,0,0,1,1.0186.9961.9656.9656,0,0,1,.04,1.3c.01.0361.0205.07.0225.0742a1,1,0,0,1-.1572,1.085A2.0407,2.0407,0,0,1,18.3411,16.1528Z" fill="#ffab24"/><path d="M18.3372,12.7673c.074.2058.3477.2386.5144.2386a1.1254,1.1254,0,0,0,.1328-.0072.8328.8328,0,0,0,.2573.667c-.4487.3815-.1018,1.1243-.1018,1.1243a1.0409,1.0409,0,0,1-.7983.3634,1.7312,1.7312,0,0,1-1.32-.7584,1.17,1.17,0,0,1,.2073-1.5353.5956.5956,0,0,0,.4612.2365,1.03,1.03,0,0,0,.6467-.3289m0-2a2.0021,2.0021,0,0,0-.7136.1316,2.006,2.006,0,0,0-.2739-.0355c-.04-.0024-.08-.0037-.12-.0037a2,2,0,0,0-1.3511.5254,3.1115,3.1115,0,0,0-.4556,4.2106,3.7281,3.7281,0,0,0,2.9189,1.5577,3.0282,3.0282,0,0,0,2.2971-1.0391,2.001,2.001,0,0,0,.4631-1.7136,2,2,0,0,0-.1311-1.74,1.8557,1.8557,0,0,0-.5342-1.1007,1.9508,1.9508,0,0,0-1.1807-.5691,2.0007,2.0007,0,0,0-.9187-.2235Z" fill="#fff"/><path d="M17.6751,14.0034a1.3515,1.3515,0,0,1-.9551-.374,1.2336,1.2336,0,0,1-.3662-1.0576,1.539,1.539,0,0,1,.3926-.8086,1.9214,1.9214,0,0,1,.5469-.4287,1.479,1.479,0,0,1,.7061-.1982,1.1825,1.1825,0,0,1,.7109.2344,1.4694,1.4694,0,0,1,.5557,1.3311A1.58,1.58,0,0,1,17.6751,14.0034Z" fill="#ffab24"/><path d="M17.9993,12.1365a.1866.1866,0,0,1,.114.0369.47.47,0,0,1,.1577.4259c-.0229.2244-.3372.4043-.5959.4043a.359.359,0,0,1-.2561-.0892.2337.2337,0,0,1-.0742-.2084.5938.5938,0,0,1,.1548-.2843.9188.9188,0,0,1,.2588-.2017.5557.5557,0,0,1,.241-.0835m0-2a2.481,2.481,0,0,0-1.179.317,2.9,2.9,0,0,0-.8237.6486,2.5224,2.5224,0,0,0-.6335,1.3341,2.2249,2.2249,0,0,0,.66,1.9108,2.3441,2.3441,0,0,0,1.6516.6566,2.5673,2.5673,0,0,0,2.5854-2.2,2.47,2.47,0,0,0-.9565-2.2373,2.1765,2.1765,0,0,0-1.3047-.43Z" fill="#fff"/><path d="M18.7288,13.9116a1.4163,1.4163,0,0,1-1.2842-.9,1.5186,1.5186,0,0,1-.1377-.76,1.2778,1.2778,0,0,1,.73-1.084,1.3767,1.3767,0,0,1,.5811-.12,1.6815,1.6815,0,0,1,1.6533,1.1113,1.2464,1.2464,0,0,1-.4668,1.2764A1.6064,1.6064,0,0,1,18.7288,13.9116Z" fill="#ffab24"/><path d="M18.6182,12.0472c.2583,0,.6328.1509.6831.353a.2626.2626,0,0,1-.09.23c-.084.0616-.2739.2808-.4822.2808-.1277,0-.2622-.0822-.3835-.3333a.5439.5439,0,0,1-.0415-.248.2757.2757,0,0,1,.15-.2533.3978.3978,0,0,1,.1641-.0293m0-2a2.3715,2.3715,0,0,0-1.0076.2158,2.2637,2.2637,0,0,0-1.301,1.92,2.5313,2.5313,0,0,0,.2354,1.2653,2.4287,2.4287,0,0,0,2.1843,1.463,2.615,2.615,0,0,0,1.74-.7257,2.243,2.243,0,0,0,.7729-2.2671,2.6653,2.6653,0,0,0-2.6243-1.8711Z" fill="#fff"/><path d="M19.5628,14.5708a1.4147,1.4147,0,0,1-1.4033-.9951,1.5564,1.5564,0,0,1,.7617-1.8447,1.3018,1.3018,0,0,1,.5068-.1182h0a1.5735,1.5735,0,0,1,1.4473,1.13,1.41,1.41,0,0,1-.0547,1.1719,1.24,1.24,0,0,1-.8428.6064A1.7148,1.7148,0,0,1,19.5628,14.5708Z" fill="#ffab24"/><path d="M19.4588,12.613c.22,0,.4048.2587.469.4487.1406.4171-.0662.4592-.188.4889a.7776.7776,0,0,1-.1772.0205.4306.4306,0,0,1-.45-.2975.563.563,0,0,1,.2231-.6329.2933.2933,0,0,1,.1177-.0277h.0051m0-2-.0405,0a2.2836,2.2836,0,0,0-.9182.21,2.5439,2.5439,0,0,0-1.2952,3.0494,2.4154,2.4154,0,0,0,2.3577,1.6979,2.784,2.784,0,0,0,.6533-.078,2.2277,2.2277,0,0,0,1.4814-1.0974,2.3848,2.3848,0,0,0,.1257-1.9729,2.5667,2.5667,0,0,0-2.3643-1.81Z" fill="#fff"/><path d="M19.3391,15.6636a1.252,1.252,0,0,1-.6982-.2432A1.5894,1.5894,0,0,1,18.1887,13.7a1.4316,1.4316,0,0,1,1.3105-1.0312c.0137-.001.0283-.001.043-.001A.96.96,0,0,1,19.7,12.68a1.4052,1.4052,0,0,1,.9629.6348,1.3172,1.3172,0,0,1,.1064,1.12A1.65,1.65,0,0,1,19.3391,15.6636Z" fill="#ffab24"/><path d="M19.5423,13.6676a.3321.3321,0,0,1,.28.45c-.1082.3225-.3325.5457-.4829.5457a.122.122,0,0,1-.0774-.0258c-.2756-.2174-.1929-.9489.2805-.97m0-2c-.0293,0-.0583.0006-.0876.002a2.4409,2.4409,0,0,0-2.2183,1.7256,2.5709,2.5709,0,0,0,.7869,2.8124,2.1324,2.1324,0,0,0,1.3159.4554,2.6217,2.6217,0,0,0,2.3792-1.91,2.3341,2.3341,0,0,0-.1992-1.9565,2.4,2.4,0,0,0-1.6619-1.1038,1.9874,1.9874,0,0,0-.3149-.025Z" fill="#fff"/><path d="M32.5774,10.9839a2.64,2.64,0,0,1-2.2021-1.3672,2.1382,2.1382,0,0,1,.6084-2.8281.9925.9925,0,0,1,.6006-.2012.9484.9484,0,0,1,.1572.0127.9993.9993,0,0,1,.44.1855.9377.9377,0,0,1,.8281-.1367.9242.9242,0,0,1,.41.252,1.0164,1.0164,0,0,1,.8926,1.0869.9678.9678,0,0,1-.0859,1.2979.5261.5261,0,0,0,.0146.0771,1,1,0,0,1-.2617,1.0635A2.0236,2.0236,0,0,1,32.5774,10.9839Z" fill="#ffab24"/><path d="M31.584,7.5879a.5844.5844,0,0,0,.4919.2828,1.0759,1.0759,0,0,0,.62-.2672c.0706.2788.5139.2933.6052.2933l.0166,0a.8327.8327,0,0,0,.1914.6888c-.4836.3361-.21,1.109-.21,1.109a1.04,1.04,0,0,1-.7212.29,1.6767,1.6767,0,0,1-1.3484-.8882,1.17,1.17,0,0,1,.3552-1.5079m0-2a2.0011,2.0011,0,0,0-1.2017.4011,3.1117,3.1117,0,0,0-.8618,4.1467,3.6288,3.6288,0,0,0,3.0566,1.8483,3.0518,3.0518,0,0,0,2.0845-.826,2.001,2.001,0,0,0,.6272-1.66,2,2,0,0,0,.02-1.7833,2,2,0,0,0-1.4626-1.7463,2,2,0,0,0-1.68-.2932,2.0017,2.0017,0,0,0-.5828-.0868Z" fill="#fff"/><path d="M32.0725,8.7769a1.3631,1.3631,0,0,1-1.07-.4736,1.2312,1.2312,0,0,1-.2617-1.0869,1.5512,1.5512,0,0,1,.4727-.7686,1.8737,1.8737,0,0,1,.5781-.3691,1.5313,1.5313,0,0,1,.6055-.1367,1.1926,1.1926,0,0,1,.8047.3076,1.4626,1.4626,0,0,1,.4238,1.3838A1.5622,1.5622,0,0,1,32.0725,8.7769Z" fill="#ffab24"/><path d="M32.397,6.9417a.1913.1913,0,0,1,.1335.0488.4694.4694,0,0,1,.1155.4392c-.0413.2047-.3276.3473-.5742.3473a.3883.3883,0,0,1-.3042-.1163.2341.2341,0,0,1-.0537-.2146.5917.5917,0,0,1,.1816-.2679.92.92,0,0,1,.2771-.1757.6249.6249,0,0,1,.2244-.0608m0-2h0a2.53,2.53,0,0,0-.9866.2118,2.9069,2.9069,0,0,0-.8835.5664,2.5167,2.5167,0,0,0-.759,1.2657,2.2266,2.2266,0,0,0,.4707,1.964,2.3807,2.3807,0,0,0,1.8335.8275,2.5367,2.5367,0,0,0,2.5347-1.9513,2.4678,2.4678,0,0,0-.7344-2.3186,2.1952,2.1952,0,0,0-1.4751-.5656Z" fill="#fff"/><path d="M33.1018,8.7856A1.4,1.4,0,0,1,31.7844,7.76a1.5271,1.5271,0,0,1-.0645-.7646,1.2794,1.2794,0,0,1,.8271-1.0117,1.3411,1.3411,0,0,1,.4414-.0723A1.7226,1.7226,0,0,1,34.68,7.1851,1.2525,1.2525,0,0,1,34.094,8.41,1.6508,1.6508,0,0,1,33.1018,8.7856Z" fill="#ffab24"/><path d="M32.9893,6.9111c.2576,0,.6689.199.7017.4205a.263.263,0,0,1-.1118.22c-.0854.0507-.28.234-.4775.234-.137,0-.2751-.0883-.3789-.37a.5434.5434,0,0,1-.0173-.251.2756.2756,0,0,1,.1738-.2375.3353.3353,0,0,1,.11-.0161m0-2a2.3274,2.3274,0,0,0-.7742.13,2.2643,2.2643,0,0,0-1.4807,1.7838,2.5306,2.5306,0,0,0,.1108,1.2808A2.4041,2.4041,0,0,0,33.1016,9.786a2.6556,2.6556,0,0,0,1.58-.5648,2.2444,2.2444,0,0,0,.9885-2.18,2.6832,2.6832,0,0,0-2.68-2.13Z" fill="#fff"/><path d="M33.9143,9.5259A1.4337,1.4337,0,0,1,32.44,8.3911a1.5574,1.5574,0,0,1,.9365-1.7617A1.69,1.69,0,0,1,33.8,6.5571l.1006.0039a1.561,1.561,0,0,1,1.3232,1.2617,1.41,1.41,0,0,1-.167,1.1621,1.2425,1.2425,0,0,1-.8955.5234A1.7984,1.7984,0,0,1,33.9143,9.5259Z" fill="#ffab24"/><path d="M33.8,7.5573l.0215.0009c.2212.0175.3826.2958.4285.4927.0994.4287-.11.4506-.2346.4684a.74.74,0,0,1-.1023.0068.4561.4561,0,0,1-.4946-.3434.5626.5626,0,0,1,.2832-.6083A.2983.2983,0,0,1,33.8,7.5573m0-2a2.2955,2.2955,0,0,0-.7544.1277,2.5429,2.5429,0,0,0-1.584,2.9108,2.4271,2.4271,0,0,0,2.4514,1.93,2.7385,2.7385,0,0,0,.3867-.0272A2.2294,2.2294,0,0,0,35.8823,9.55a2.3844,2.3844,0,0,0,.3162-1.95,2.5556,2.5556,0,0,0-2.2192-2.0349c-.0525-.0042-.1265-.0071-.179-.0071Z" fill="#fff"/><path d="M33.5247,10.5884a1.2563,1.2563,0,0,1-.7852-.3164,1.5674,1.5674,0,0,1-.3008-1.71,1.4452,1.4452,0,0,1,1.3447-.9463,1.21,1.21,0,0,1,.2773.0332,1.4073,1.4073,0,0,1,.8975.7256A1.3174,1.3174,0,0,1,34.9544,9.5,1.671,1.671,0,0,1,33.5247,10.5884Z" fill="#ffab24"/><path d="M33.7837,8.6158l.0242.0006a.332.332,0,0,1,.2346.4746c-.134.3-.3672.4971-.5181.4971a.1258.1258,0,0,1-.09-.0339c-.2488-.2389-.1047-.9384.3494-.9384m0-2h0A2.4577,2.4577,0,0,0,31.5115,8.188a2.5789,2.5789,0,0,0,.5374,2.8087,2.1194,2.1194,0,0,0,1.4756.5914,2.6662,2.6662,0,0,0,2.344-1.681A2.3348,2.3348,0,0,0,35.86,7.9406a2.4006,2.4006,0,0,0-1.5469-1.2594,2.0009,2.0009,0,0,0-.3977-.0618c-.0356-.002-.0952-.0035-.1309-.0035Z" fill="#fff"/><path d="M33.305,6.0728a2.639,2.639,0,0,1-2.2031-1.3682,2.1393,2.1393,0,0,1,.6074-2.8271.9975.9975,0,0,1,.6016-.2012.9569.9569,0,0,1,.1572.0127.9993.9993,0,0,1,.44.1855.9524.9524,0,0,1,.5508-.1787.9643.9643,0,0,1,.2793.042.921.921,0,0,1,.4082.252,1.0168,1.0168,0,0,1,.8926,1.0869.9611.9611,0,0,1,.2012.7295.9513.9513,0,0,1-.2871.5674.7018.7018,0,0,0,.02.0908,1.03,1.03,0,0,1-.2656,1.0518A2.0305,2.0305,0,0,1,33.305,6.0728Z" fill="#ffab24"/><path d="M32.3113,2.6766a.5844.5844,0,0,0,.4919.2828,1.0759,1.0759,0,0,0,.62-.2672c.07.2787.5132.2933.6052.2933l.0166,0a.832.832,0,0,0,.1912.6888c-.4836.3362-.21,1.109-.21,1.109a1.04,1.04,0,0,1-.7214.29,1.6763,1.6763,0,0,1-1.3481-.8882,1.17,1.17,0,0,1,.3552-1.5081m0-2a2,2,0,0,0-1.2017.4012,3.1117,3.1117,0,0,0-.8618,4.1467,3.629,3.629,0,0,0,3.0564,1.8483,3.0514,3.0514,0,0,0,2.0845-.8262,1.9994,1.9994,0,0,0,.6272-1.6608,1.9993,1.9993,0,0,0,.0205-1.7823,2,2,0,0,0-1.4626-1.7469,2,2,0,0,0-1.68-.2932,2.0017,2.0017,0,0,0-.5828-.0868Z" fill="#fff"/><path d="M32.7991,3.8657A1.3669,1.3669,0,0,1,31.73,3.394a1.2342,1.2342,0,0,1-.2627-1.0889,1.5512,1.5512,0,0,1,.4727-.7686,1.9028,1.9028,0,0,1,.5752-.3682,1.5429,1.5429,0,0,1,.6094-.1377,1.1926,1.1926,0,0,1,.8047.3076,1.4657,1.4657,0,0,1,.4248,1.3779A1.5449,1.5449,0,0,1,32.7991,3.8657Z" fill="#ffab24"/><path d="M33.1243,2.03a.1912.1912,0,0,1,.1333.049.47.47,0,0,1,.1157.4392c-.0415.2047-.3276.3473-.5745.3473a.3884.3884,0,0,1-.3042-.1165.2338.2338,0,0,1-.0537-.2145.5929.5929,0,0,1,.1816-.2679A.9165.9165,0,0,1,32.9,2.0913a.625.625,0,0,1,.2244-.0609m0-2a2.5307,2.5307,0,0,0-.9866.2118,2.8941,2.8941,0,0,0-.8828.5656,2.5175,2.5175,0,0,0-.7593,1.2629A2.2274,2.2274,0,0,0,30.9663,4.04a2.3794,2.3794,0,0,0,1.8325.8263,2.5372,2.5372,0,0,0,2.5344-1.95A2.4709,2.4709,0,0,0,34.5984.5953,2.1933,2.1933,0,0,0,33.1243.03Z" fill="#fff"/><path d="M33.8294,3.8745A1.4022,1.4022,0,0,1,32.511,2.85a1.5126,1.5126,0,0,1-.0615-.7773,1.265,1.265,0,0,1,.8242-1A1.326,1.326,0,0,1,33.7161,1a1.7226,1.7226,0,0,1,1.6914,1.2734,1.2523,1.2523,0,0,1-.5869,1.2246A1.6474,1.6474,0,0,1,33.8294,3.8745Z" fill="#ffab24"/><path d="M33.7163,2c.2576,0,.6689.1989.7017.42a.263.263,0,0,1-.1118.22c-.0852.0508-.28.2341-.4773.2341-.1372,0-.2754-.0883-.3792-.37a.5428.5428,0,0,1-.0173-.2509.2753.2753,0,0,1,.1738-.2375A.3353.3353,0,0,1,33.7163,2m0-2a2.3274,2.3274,0,0,0-.7742.13,2.2621,2.2621,0,0,0-1.4807,1.7841,2.5289,2.5289,0,0,0,.1113,1.2814,2.4041,2.4041,0,0,0,2.2561,1.68A2.6529,2.6529,0,0,0,35.408,4.31a2.2431,2.2431,0,0,0,.9888-2.18A2.6821,2.6821,0,0,0,33.7163,0Z" fill="#fff"/><path d="M34.6409,4.6147a1.431,1.431,0,0,1-1.4736-1.1387,1.55,1.55,0,0,1,.9355-1.7578,1.2814,1.2814,0,0,1,.4248-.0723c.0264,0,.0742.002.1006.0039a1.561,1.561,0,0,1,1.3232,1.2617,1.415,1.415,0,0,1-.168,1.1631,1.2441,1.2441,0,0,1-.8965.5225A1.7705,1.7705,0,0,1,34.6409,4.6147Z" fill="#ffab24"/><path d="M34.5276,2.6461l.0215.0009c.2209.0175.3826.2957.4282.4926.0994.4288-.11.4507-.2344.4685a.74.74,0,0,1-.1023.0068.4565.4565,0,0,1-.4949-.3434.5629.5629,0,0,1,.2832-.6083.2987.2987,0,0,1,.0986-.0171m0-2a2.2918,2.2918,0,0,0-.7546.1278,2.5435,2.5435,0,0,0-1.5845,2.9084,2.4287,2.4287,0,0,0,2.4521,1.9325,2.7385,2.7385,0,0,0,.3867-.0272,2.23,2.23,0,0,0,1.582-.9492,2.3857,2.3857,0,0,0,.3164-1.95A2.5543,2.5543,0,0,0,34.7066.6532C34.6543.649,34.58.6461,34.5276.6461Z" fill="#fff"/><path d="M34.2522,5.6772a1.2638,1.2638,0,0,1-.7842-.3135,1.5738,1.5738,0,0,1-.3018-1.7148A1.4444,1.4444,0,0,1,34.51,2.7046a1.21,1.21,0,0,1,.2773.0332,1.41,1.41,0,0,1,.8975.7246,1.3185,1.3185,0,0,1-.002,1.125A1.6754,1.6754,0,0,1,34.2522,5.6772Z" fill="#ffab24"/><path d="M34.5108,3.7046l.0242.0006A.3322.3322,0,0,1,34.77,4.18c-.1343.3-.3674.4969-.5181.4969a.1258.1258,0,0,1-.09-.0339c-.2488-.239-.105-.9384.3491-.9384m0-2h0a2.4575,2.4575,0,0,0-2.2722,1.5717,2.5789,2.5789,0,0,0,.5378,2.8092,2.1178,2.1178,0,0,0,1.4753.5914,2.6665,2.6665,0,0,0,2.3435-1.68A2.3347,2.3347,0,0,0,36.5869,3.03,2.4009,2.4009,0,0,0,35.04,1.77a1.9939,1.9939,0,0,0-.4-.062c-.0352-.0018-.0945-.0034-.13-.0034Z" fill="#fff"/><path d="M27.8557,8.9985A2.6251,2.6251,0,0,1,25.6145,7.5a2.1391,2.1391,0,0,1,.7744-2.7861,1.0005,1.0005,0,0,1,1.1865.06.9766.9766,0,0,1,.5-.14.9748.9748,0,0,1,.7314.333,1.0188,1.0188,0,0,1,.8359,1.14.9682.9682,0,0,1,.1582.7412.9459.9459,0,0,1-.3213.55.7637.7637,0,0,0,.01.0771.9986.9986,0,0,1-.3232,1.0469A2.0364,2.0364,0,0,1,27.8557,8.9985Z" fill="#ffab24"/><path d="M26.9419,5.5463a.58.58,0,0,0,.51.3124,1.1051,1.1051,0,0,0,.5984-.2312c.06.3153.6033.3293.6033.3293a.832.832,0,0,0,.15.6989c-.5027.307-.2754,1.0947-.2754,1.0947a1.0417,1.0417,0,0,1-.6736.2484,1.6451,1.6451,0,0,1-1.3572-.9681,1.17,1.17,0,0,1,.4436-1.4844m0-2a1.9989,1.9989,0,0,0-1.1052.3333,3.1116,3.1116,0,0,0-1.1052,4.0883,3.6177,3.6177,0,0,0,3.124,2.031,3.0264,3.0264,0,0,0,1.948-.707,2,2,0,0,0,.7241-1.6208,2,2,0,0,0,.1255-1.7787,2,2,0,0,0-1.3564-1.8295,2,2,0,0,0-1.66-.392,2.0012,2.0012,0,0,0-.6948-.1245Z" fill="#fff"/><path d="M27.4563,6.7651A1.3941,1.3941,0,0,1,26.32,6.228a1.2306,1.2306,0,0,1-.1943-1.1113,1.531,1.531,0,0,1,.5137-.7314A1.9074,1.9074,0,0,1,27.24,4.05a1.6323,1.6323,0,0,1,.5361-.1016,1.1938,1.1938,0,0,1,.8574.3535,1.4653,1.4653,0,0,1,.3428,1.41A1.5241,1.5241,0,0,1,27.4563,6.7651Z" fill="#ffab24"/><path d="M27.7754,4.9486a.1964.1964,0,0,1,.1465.0571.47.47,0,0,1,.09.4453.57.57,0,0,1-.5547.314.409.409,0,0,1-.3362-.1353.2342.2342,0,0,1-.0408-.2174.5931.5931,0,0,1,.197-.2567.9147.9147,0,0,1,.2871-.1589.6817.6817,0,0,1,.2114-.0481m0-2a2.5963,2.5963,0,0,0-.863.1572,2.8917,2.8917,0,0,0-.9155.5129,2.5208,2.5208,0,0,0-.832,1.217,2.2277,2.2277,0,0,0,.3516,1.9883,2.3834,2.3834,0,0,0,1.94.9409,2.5237,2.5237,0,0,0,2.488-1.8024,2.4682,2.4682,0,0,0-.5959-2.3583,2.1888,2.1888,0,0,0-1.5735-.6558Z" fill="#fff"/><path d="M28.4651,6.8345a1.3837,1.3837,0,0,1-1.333-1.1035,1.5258,1.5258,0,0,1-.0186-.7744,1.2757,1.2757,0,0,1,.8828-.9541,1.6786,1.6786,0,0,1,2.06,1.3252,1.2491,1.2491,0,0,1-.6572,1.1875A1.6951,1.6951,0,0,1,28.4651,6.8345Z" fill="#ffab24"/><path d="M28.3572,4.9529c.2554,0,.6829.2308.7031.4619a.2632.2632,0,0,1-.1248.2134,1.066,1.066,0,0,1-.4712.2061c-.1436,0-.2847-.0913-.3757-.3926a.541.541,0,0,1-.0024-.2516.2754.2754,0,0,1,.1875-.2268.3054.3054,0,0,1,.0835-.01m0-2a2.2991,2.2991,0,0,0-.634.0876,2.2634,2.2634,0,0,0-1.5847,1.694,2.526,2.526,0,0,0,.0364,1.2885,2.3742,2.3742,0,0,0,2.2893,1.8113A2.7063,2.7063,0,0,0,29.9365,7.36,2.244,2.244,0,0,0,31.053,5.2429a2.7143,2.7143,0,0,0-2.6956-2.29Z" fill="#fff"/><path d="M29.2581,7.6216A1.4461,1.4461,0,0,1,27.7493,6.395a1.5537,1.5537,0,0,1,1.0361-1.7,1.7314,1.7314,0,0,1,.3535-.0488,1.235,1.235,0,0,1,.1914.0146,1.5557,1.5557,0,0,1,1.2314,1.3359,1.4174,1.4174,0,0,1-.2344,1.1484,1.25,1.25,0,0,1-.9219.4707C29.3782,7.6177,29.2864,7.6216,29.2581,7.6216Z" fill="#ffab24"/><path d="M29.1392,5.6461a.287.287,0,0,1,.0386.0026c.2195.0305.3643.3177.3984.517.0737.434-.1367.4434-.2617.4539-.0149.0012-.0337.0021-.0552.0021a.4747.4747,0,0,1-.521-.3733.5627.5627,0,0,1,.3186-.5906.3046.3046,0,0,1,.0823-.0116m0-2a2.3045,2.3045,0,0,0-.6221.0858A2.5447,2.5447,0,0,0,26.76,6.5446a2.4452,2.4452,0,0,0,2.499,2.077c.0859,0,.1606-.004.22-.0089a2.2326,2.2326,0,0,0,1.6377-.8542,2.3852,2.3852,0,0,0,.4309-1.9277,2.5565,2.5565,0,0,0-2.0947-2.163,2.5953,2.5953,0,0,0-.314-.0216Z" fill="#fff"/><path d="M28.7718,8.6577a1.1207,1.1207,0,0,1-.833-.36,1.5768,1.5768,0,0,1-.2207-1.6846,1.4576,1.4576,0,0,1,1.333-.9111c.0381,0,.126.0049.1631.01a.9774.9774,0,0,1,.1963.042,1.406,1.406,0,0,1,.8535.7764,1.32,1.32,0,0,1-.0684,1.123A1.7151,1.7151,0,0,1,28.7718,8.6577Z" fill="#ffab24"/><path d="M29.0515,6.7014a.4307.4307,0,0,1,.05.0028.3321.3321,0,0,1,.2063.4878.79.79,0,0,1-.5356.4658.1288.1288,0,0,1-.0986-.0394c-.23-.2485-.0564-.917.3784-.917m0-2h0a2.4457,2.4457,0,0,0-2.25,1.512,2.5533,2.5533,0,0,0,.4043,2.7633,2.1385,2.1385,0,0,0,1.5667.6812,2.68,2.68,0,0,0,2.31-1.5426,2.3357,2.3357,0,0,0,.1079-1.9641,2.4009,2.4009,0,0,0-1.47-1.349,1.9985,1.9985,0,0,0-.394-.0853c-.0745-.0084-.199-.0154-.2737-.0154Z" fill="#fff"/></g><path d="M21.3732,15.2081a1.17,1.17,0,0,0-.1163,1.5449c.6444.76,1.6176.9328,2.1375.2693,0,0-.39-.7209.0353-1.1282a.8321.8321,0,0,1-.2962-.6507s-.5336.1024-.66-.1928C22.4737,15.0506,21.9049,15.7592,21.3732,15.2081Z" fill="#5a6066"/><path d="M21.4794,15.0478a.5934.5934,0,0,1,.1376-.2929.9187.9187,0,0,1,.2466-.2166c.1028-.0627.2364-.1427.3516-.0675a.47.47,0,0,1,.1825.4159.5907.5907,0,0,1-.832.3648A.2339.2339,0,0,1,21.4794,15.0478Z" fill="#5a6066"/><path d="M22.55,14.3541c.2108-.1136.7874.025.8649.2731a.2629.2629,0,0,1-.0762.235c-.1293.1073-.51.6394-.8673-.0013a.5434.5434,0,0,1-.0562-.2452A.2756.2756,0,0,1,22.55,14.3541Z" fill="#5a6066"/><path d="M23.5792,14.8306c.2211-.0171.4239.2326.5.42.1649.4081-.0389.4623-.1587.4992s-.51.1083-.6422-.24a.5629.5629,0,0,1,.1852-.645A.2938.2938,0,0,1,23.5792,14.8306Z" fill="#5a6066"/><path d="M23.73,15.8782a.3321.3321,0,0,1,.3058.4324c-.106.3916-.3857.6518-.5286.552C23.219,16.6618,23.2585,15.9268,23.73,15.8782Z" fill="#5a6066"/><path d="M21.5063,9.6546A1.17,1.17,0,0,0,21.39,11.2c.6444.76,1.6176.9328,2.1375.2693,0,0-.39-.7209.0353-1.1282a.8322.8322,0,0,1-.2962-.6507s-.5336.1024-.66-.1928C22.6068,9.4971,22.038,10.2057,21.5063,9.6546Z" fill="#5a6066"/><path d="M21.6125,9.4944a.5934.5934,0,0,1,.1376-.2929.9188.9188,0,0,1,.2466-.2166c.1028-.0627.2364-.1427.3516-.0675a.47.47,0,0,1,.1825.4159.5907.5907,0,0,1-.832.3648A.2339.2339,0,0,1,21.6125,9.4944Z" fill="#5a6066"/><path d="M22.6827,8.8006c.2108-.1136.7874.025.8649.2732a.2629.2629,0,0,1-.0762.235c-.1293.1073-.51.6394-.8673-.0013a.5432.5432,0,0,1-.0562-.2452A.2756.2756,0,0,1,22.6827,8.8006Z" fill="#5a6066"/><path d="M23.7122,9.2771c.2211-.0171.4239.2326.5.42.1649.4081-.0389.4623-.1587.4992s-.51.1083-.6422-.24a.5628.5628,0,0,1,.1852-.645A.2938.2938,0,0,1,23.7122,9.2771Z" fill="#5a6066"/><path d="M23.8629,10.3247a.3321.3321,0,0,1,.3058.4324c-.106.3916-.3857.6518-.5286.552C23.3521,11.1083,23.3916,10.3733,23.8629,10.3247Z" fill="#5a6066"/><path d="M26.4757,11.3941a1.17,1.17,0,0,0-.1163,1.5449c.6444.76,1.6176.9328,2.1375.2693,0,0-.39-.7209.0353-1.1282a.8321.8321,0,0,1-.2962-.6507s-.5336.1024-.66-.1928C27.5762,11.2366,27.0074,11.9451,26.4757,11.3941Z" fill="#5a6066"/><path d="M26.5819,11.2338a.5934.5934,0,0,1,.1376-.2929.9188.9188,0,0,1,.2466-.2166c.1028-.0627.2364-.1427.3516-.0675a.47.47,0,0,1,.1825.4159.5907.5907,0,0,1-.832.3648A.2339.2339,0,0,1,26.5819,11.2338Z" fill="#5a6066"/><path d="M27.6521,10.54c.2108-.1136.7874.025.8649.2731a.2629.2629,0,0,1-.0762.235c-.1293.1073-.51.6394-.8673-.0013a.5432.5432,0,0,1-.0562-.2452A.2756.2756,0,0,1,27.6521,10.54Z" fill="#5a6066"/><path d="M28.6816,11.0166c.2211-.0171.4239.2326.5.42.1649.4081-.0389.4623-.1587.4992s-.51.1083-.6422-.24a.5629.5629,0,0,1,.1852-.645A.2938.2938,0,0,1,28.6816,11.0166Z" fill="#5a6066"/><path d="M28.8323,12.0641a.3321.3321,0,0,1,.3058.4324c-.106.3916-.3857.6518-.5286.552C28.3215,12.8477,28.361,12.1127,28.8323,12.0641Z" fill="#5a6066"/><path d="M5.3763,23.0267a1.17,1.17,0,0,0,.187,1.5379c.78.62,1.7683.6,2.149-.1524,0,0-.5231-.6311-.1852-1.1134a.8319.8319,0,0,1-.4173-.5805s-.5034.2044-.6847-.0605C6.4251,22.6578,6.0053,23.4636,5.3763,23.0267Z" fill="#5a6066"/><path d="M5.4493,22.8489a.593.593,0,0,1,.0779-.3142.918.918,0,0,1,.2-.2605c.0886-.0815.2041-.186.3317-.1347a.4693.4693,0,0,1,.26.3724c.0477.3093-.4689.6776-.7449.52A.2341.2341,0,0,1,5.4493,22.8489Z" fill="#5a6066"/><path d="M6.3639,21.96c.1846-.1525.7771-.1288.9015.0995a.2628.2628,0,0,1-.0289.2454c-.1058.13-.3755.7265-.8509.1677a.5442.5442,0,0,1-.1029-.23A.2757.2757,0,0,1,6.3639,21.96Z" fill="#5a6066"/><path d="M7.4665,22.2266c.2135-.06.4611.1456.5719.3146.2413.3681.052.461-.0584.5205a.4984.4984,0,0,1-.6766-.11.5628.5628,0,0,1,.056-.6687A.2946.2946,0,0,1,7.4665,22.2266Z" fill="#5a6066"/><path d="M7.8184,23.2248s.4118-.04.3841.3646-.2513.7145-.411.6444C7.47,24.0929,7.3655,23.3643,7.8184,23.2248Z" fill="#5a6066"/><path d="M2.1824,27.6351a1.17,1.17,0,0,0,.2662,1.5262c.8113.579,1.797.5075,2.1383-.2632,0,0-.5551-.6032-.2425-1.1024a.832.832,0,0,1-.4468-.5582s-.4922.23-.687-.0251C3.2107,27.2125,2.8331,28.0389,2.1824,27.6351Z" fill="#5a6066"/><path d="M2.2461,27.4537a.5929.5929,0,0,1,.0616-.3178.918.918,0,0,1,.1859-.27c.0842-.0859.1942-.1963.3243-.1517a.4693.4693,0,0,1,.2789.3585c.0636.3064-.4333.7009-.717.5576A.2341.2341,0,0,1,2.2461,27.4537Z" fill="#5a6066"/><path d="M3.1135,26.5186c.1765-.1618.7694-.1688.9054.0527a.2628.2628,0,0,1-.0162.2465c-.0989.1357-.3374.7449-.8411.2114a.544.544,0,0,1-.1146-.2239A.2757.2757,0,0,1,3.1135,26.5186Z" fill="#5a6066"/><path d="M4.2285,26.728c.21-.0708.468.1215.5874.2846.26.3552.0757.4577-.0314.5229a.4984.4984,0,0,1-.6814-.0747.5628.5628,0,0,1,.0214-.6707A.2945.2945,0,0,1,4.2285,26.728Z" fill="#5a6066"/><path d="M4.628,27.704s.4091-.0613.4025.3442-.214.7265-.3771.6648C4.3249,28.589,4.1829,27.8668,4.628,27.704Z" fill="#5a6066"/><path d="M7.4328,28.4514a1.17,1.17,0,0,0,.2662,1.5262c.8113.5791,1.797.5075,2.1383-.2632,0,0-.5551-.6032-.2425-1.1024a.8319.8319,0,0,1-.4467-.5582s-.4922.23-.687-.0251C8.461,28.0287,8.0834,28.8552,7.4328,28.4514Z" fill="#5a6066"/><path d="M7.4964,28.27a.5929.5929,0,0,1,.0616-.3178.9183.9183,0,0,1,.1859-.27c.0842-.0859.1942-.1963.3243-.1517a.4693.4693,0,0,1,.2789.3585c.0636.3064-.4333.7009-.717.5576A.234.234,0,0,1,7.4964,28.27Z" fill="#5a6066"/><path d="M8.3638,27.3349c.1765-.1618.7694-.1688.9054.0527a.2628.2628,0,0,1-.0162.2465c-.0989.1357-.3374.7449-.8411.2114a.5439.5439,0,0,1-.1146-.2239A.2757.2757,0,0,1,8.3638,27.3349Z" fill="#5a6066"/><path d="M9.4788,27.5443c.21-.0708.468.1215.5874.2846.26.3552.0757.4577-.0314.5229a.4984.4984,0,0,1-.6814-.0747.5628.5628,0,0,1,.0214-.6707A.2946.2946,0,0,1,9.4788,27.5443Z" fill="#5a6066"/><path d="M9.8818,28.5229s.4091-.0613.4024.3442-.214.7265-.3771.6648C9.5787,29.4079,9.4367,28.6857,9.8818,28.5229Z" fill="#5a6066"/><path d="M10.6043,23.9988a1.17,1.17,0,0,0,.0669,1.5478c.73.6789,1.7164.7353,2.1544.015,0,0-.4725-.67-.0982-1.1245a.8319.8319,0,0,1-.3709-.6112s-.5178.1646-.678-.1135C11.6785,23.7125,11.1974,24.4832,10.6043,23.9988Z" fill="#5a6066"/><path d="M10.6908,23.8272a.5929.5929,0,0,1,.1021-.3071.9183.9183,0,0,1,.2193-.2442c.0946-.0743.2179-.17.3411-.1086a.4693.4693,0,0,1,.23.3915c.0235.3121-.52.6391-.783.46A.234.234,0,0,1,10.6908,23.8272Z" fill="#5a6066"/><path d="M11.6717,23.0119c.1959-.1377.7847-.068.891.1692a.2628.2628,0,0,1-.0479.2424c-.1156.1218-.4308.6951-.8613.1011a.5439.5439,0,0,1-.0848-.2368A.2757.2757,0,0,1,11.6717,23.0119Z" fill="#5a6066"/><path d="M12.75,23.3635c.2175-.0431.4484.1809.5457.3581.2119.3858.016.4637-.0986.5144s-.4935.1677-.666-.162a.5628.5628,0,0,1,.1078-.6623A.2946.2946,0,0,1,12.75,23.3635Z" fill="#5a6066"/><path d="M13.0236,24.3859s.4136-.008.3546.3933-.306.6928-.46.6106C12.6088,25.2244,12.5612,24.49,13.0236,24.3859Z" fill="#5a6066"/><path d="M3.9013,32.7134A1.17,1.17,0,0,0,4.1675,34.24c.8113.5791,1.797.5075,2.1383-.2632,0,0-.5551-.6032-.2425-1.1024a.8319.8319,0,0,1-.4467-.5582s-.4922.23-.687-.0251C4.93,32.2908,4.5519,33.1172,3.9013,32.7134Z" fill="#5a6066"/><path d="M3.9649,32.532a.5929.5929,0,0,1,.0616-.3178.9183.9183,0,0,1,.1859-.27c.0842-.0859.1942-.1963.3243-.1517a.4693.4693,0,0,1,.2789.3585c.0636.3064-.4333.7009-.717.5576A.234.234,0,0,1,3.9649,32.532Z" fill="#5a6066"/><path d="M4.8323,31.5969c.1765-.1618.7694-.1688.9054.0527a.2628.2628,0,0,1-.0162.2465c-.0989.1357-.3374.7449-.8411.2114a.5439.5439,0,0,1-.1146-.2239A.2757.2757,0,0,1,4.8323,31.5969Z" fill="#5a6066"/><path d="M5.9473,31.8063c.21-.0708.468.1215.5874.2846.26.3552.0757.4577-.0314.5229a.4984.4984,0,0,1-.6814-.0747.5628.5628,0,0,1,.0214-.6707A.2946.2946,0,0,1,5.9473,31.8063Z" fill="#5a6066"/><path d="M6.35,32.7849s.4091-.0613.4024.3442-.214.7265-.3771.6648C6.0473,33.67,5.9053,32.9477,6.35,32.7849Z" fill="#5a6066"/><path d="M17.2293,12.86a1.17,1.17,0,0,0-.2073,1.5353c.5985.797,1.56,1.0266,2.1179.395,0,0-.3469-.7427.1018-1.1242a.8321.8321,0,0,1-.2573-.667s-.5387.0707-.6473-.2314C18.3372,12.7674,17.7276,13.4412,17.2293,12.86Z" fill="#5a6066"/><path d="M17.3448,12.706a.5934.5934,0,0,1,.1547-.2843.9187.9187,0,0,1,.2589-.2017c.1063-.0565.2444-.1285.3549-.0467a.47.47,0,0,1,.1577.426.5907.5907,0,0,1-.852.3151A.2339.2339,0,0,1,17.3448,12.706Z" fill="#5a6066"/><path d="M18.4541,12.0766c.2171-.101.7845.0715.8473.3237a.2629.2629,0,0,1-.09.23c-.1354.0995-.5468.6082-.8657-.0525a.5434.5434,0,0,1-.0416-.2481A.2756.2756,0,0,1,18.4541,12.0766Z" fill="#5a6066"/><path d="M19.4537,12.613c.2217-.004.4094.2572.474.4488.1405.4171-.0661.4592-.1879.4889s-.5154.078-.627-.277a.5629.5629,0,0,1,.223-.6329A.2938.2938,0,0,1,19.4537,12.613Z" fill="#5a6066"/><path d="M19.5423,13.6677a.3321.3321,0,0,1,.28.45c-.1289.3846-.4235.628-.56.52C18.9861,14.42,19.069,13.6883,19.5423,13.6677Z" fill="#5a6066"/><path d="M31.5841,7.5879a1.17,1.17,0,0,0-.3552,1.508c.5183.8514,1.4528,1.1731,2.07.5986,0,0-.2732-.7729.21-1.109a.8321.8321,0,0,1-.1913-.6889s-.543.0181-.6218-.2931C32.6957,7.6035,32.0236,8.2149,31.5841,7.5879Z" fill="#5a6066"/><path d="M31.7139,7.446a.5934.5934,0,0,1,.1815-.2679.9187.9187,0,0,1,.2773-.1756c.1113-.0459.2558-.1042.3578-.012a.47.47,0,0,1,.1156.4392.5907.5907,0,0,1-.8786.2309A.2339.2339,0,0,1,31.7139,7.446Z" fill="#5a6066"/><path d="M32.8791,6.9273c.2259-.0794.7739.1472.8119.4044a.2629.2629,0,0,1-.1118.22c-.1444.0859-.6032.5523-.8565-.1362a.5434.5434,0,0,1-.0174-.2509A.2756.2756,0,0,1,32.8791,6.9273Z" fill="#5a6066"/><path d="M33.8219,7.5581c.2211.0175.3826.2957.4283.4926.0994.4288-.11.4506-.2344.4684s-.5205.0276-.5971-.3365a.5629.5629,0,0,1,.2833-.6083A.2938.2938,0,0,1,33.8219,7.5581Z" fill="#5a6066"/><path d="M33.8078,8.6164a.3321.3321,0,0,1,.2348.4747c-.1656.37-.4824.5839-.6081.4631C33.1812,9.311,33.3346,8.5911,33.8078,8.6164Z" fill="#5a6066"/><path d="M32.3112,2.6767a1.17,1.17,0,0,0-.3552,1.508c.5183.8513,1.4528,1.1731,2.07.5986,0,0-.2732-.7728.21-1.109a.8322.8322,0,0,1-.1913-.6889s-.543.0181-.6218-.2931C33.4228,2.6923,32.7507,3.3037,32.3112,2.6767Z" fill="#5a6066"/><path d="M32.441,2.5349a.5934.5934,0,0,1,.1815-.2679A.9188.9188,0,0,1,32.9,2.0913c.1113-.0459.2558-.1042.3578-.012a.47.47,0,0,1,.1156.4392.5907.5907,0,0,1-.8786.2309A.2339.2339,0,0,1,32.441,2.5349Z" fill="#5a6066"/><path d="M33.6062,2.0161c.2259-.0794.7739.1472.8119.4044a.2629.2629,0,0,1-.1118.22c-.1444.0859-.6032.5523-.8565-.1362a.5432.5432,0,0,1-.0174-.2509A.2756.2756,0,0,1,33.6062,2.0161Z" fill="#5a6066"/><path d="M34.5491,2.6469c.2211.0175.3826.2957.4283.4926.0994.4288-.11.4506-.2344.4684s-.5205.0276-.5971-.3365a.5628.5628,0,0,1,.2833-.6083A.2938.2938,0,0,1,34.5491,2.6469Z" fill="#5a6066"/><path d="M34.5349,3.7052A.3321.3321,0,0,1,34.77,4.18c-.1656.37-.4824.5839-.6081.463C33.9084,4.4,34.0618,3.68,34.5349,3.7052Z" fill="#5a6066"/><path d="M26.942,5.5463a1.17,1.17,0,0,0-.4436,1.4844c.4672.88,1.381,1.2568,2.0306.72,0,0-.2272-.7876.2755-1.0946a.8321.8321,0,0,1-.15-.6989s-.5432-.014-.6034-.3293C28.0507,5.6275,27.3437,6.1982,26.942,5.5463Z" fill="#5a6066"/><path d="M27.08,5.4124a.5934.5934,0,0,1,.197-.2568.9187.9187,0,0,1,.2872-.159c.1138-.0393.2615-.0889.3579.0091a.47.47,0,0,1,.0895.4453.5907.5907,0,0,1-.8907.1787A.2339.2339,0,0,1,27.08,5.4124Z" fill="#5a6066"/><path d="M28.2736,4.9633c.23-.066.7639.1926.7866.4516a.2629.2629,0,0,1-.1246.2133c-.1492.0772-.6348.5158-.847-.1865a.5434.5434,0,0,1-.0025-.2515A.2756.2756,0,0,1,28.2736,4.9633Z" fill="#5a6066"/><path d="M29.1776,5.6487c.22.03.3645.3178.3984.517.0739.4339-.1367.4433-.2617.4538s-.5212-.0031-.5762-.3712a.5629.5629,0,0,1,.3187-.5905A.2938.2938,0,0,1,29.1776,5.6487Z" fill="#5a6066"/><path d="M29.1011,6.7043a.3321.3321,0,0,1,.2064.4877c-.1872.36-.516.5544-.6344.4264C28.4346,7.3606,28.63,6.651,29.1011,6.7043Z" fill="#5a6066"/></g></g></svg>