<svg xmlns="http://www.w3.org/2000/svg" viewBox="0 0 28.9 36"><defs><style>.a{opacity:0.8;}.b{fill:#fff;}.c{fill:#d0021b;}</style></defs><title>Asset 38</title><g class="a"><path class="b" d="M11,34.5a2.83,2.83,0,0,1-1.87-.7,2.83,2.83,0,0,1-1.87.7,2.77,2.77,0,0,1-2.8-2.74V23l-.37,0A2.54,2.54,0,0,1,1.5,20.52V13.77a2.21,2.21,0,0,1,0-.26v-.22c.06-2.35,1.14-4,2.9-4.5a3.28,3.28,0,0,1,.75-.11,4.68,4.68,0,1,1,7.9,0,4.78,4.78,0,0,1,.59.07,1.5,1.5,0,0,1,.8.45,7.66,7.66,0,0,1,9.2,10.63l3,3a2.44,2.44,0,0,1,0,3.44l-.12.12a2.43,2.43,0,0,1-3.44,0l-3-3a7.7,7.7,0,0,1-6.33.15v6.58l0,1.61A2.78,2.78,0,0,1,11,34.5Zm7.85-16.32a2.66,2.66,0,0,0,.27-.41l-.25.18a1.36,1.36,0,0,1,0,.2ZM14.23,17a2.59,2.59,0,0,0,.48,1.09,1.45,1.45,0,0,1,0-.22s0-.45,0-.49,0-.2,0-.3h0A1.49,1.49,0,0,1,14.23,17Z"/><path class="b" d="M9.11,3A3.18,3.18,0,1,1,5.93,6.18,3.18,3.18,0,0,1,9.11,3m3.5,7.15s.57,0,.74.07a7.18,7.18,0,0,0-1.64,1.23,7.15,7.15,0,0,0,0,10.11,7.27,7.27,0,0,0,.56.5v8.07l0,1.63A1.27,1.27,0,0,1,11,33h0a1.27,1.27,0,0,1-1.3-1.24V21H8.54V31.76A1.27,1.27,0,0,1,7.24,33h0a1.27,1.27,0,0,1-1.3-1.24v-18H5.13v6.76a1,1,0,0,1-1.07,1,1,1,0,0,1-1.07-1V13.77a1,1,0,0,1,0-.16c0-.11,0-.22,0-.34,0-1.2.44-2.69,1.83-3.05a7.44,7.44,0,0,1,.77-.08h7m4.15.2a6.16,6.16,0,0,1,5,9.73l.15.15,1,1h0l2.72,2.72a.94.94,0,0,1,0,1.32l-.12.12a.93.93,0,0,1-1.32,0l-1-1h0L20.77,22l-.45-.45a6.15,6.15,0,1,1-3.57-11.17m0,10.3a4.11,4.11,0,1,0-2.91-1.2,4.1,4.1,0,0,0,2.91,1.2m0-7.13a2.65,2.65,0,0,1,1,.17,2,2,0,0,1,.65.41,1.49,1.49,0,0,1,.35.53,1.53,1.53,0,0,1,.11.53,1.81,1.81,0,0,1-.11.67,1.66,1.66,0,0,1-.26.45,1.75,1.75,0,0,1-.35.32l-.36.26a1.66,1.66,0,0,0-.3.3.86.86,0,0,0-.17.42v.32H16.2v-.38a1.66,1.66,0,0,1,.41-1,2.14,2.14,0,0,1,.32-.3l.31-.25a1.14,1.14,0,0,0,.23-.28.7.7,0,0,0,.08-.38.78.78,0,0,0-.19-.58.73.73,0,0,0-.53-.19.82.82,0,0,0-.39.09.79.79,0,0,0-.27.24,1,1,0,0,0-.16.35,1.73,1.73,0,0,0-.05.43H14.71a2.42,2.42,0,0,1,.16-.84,2,2,0,0,1,.42-.66,1.87,1.87,0,0,1,.64-.44,2.18,2.18,0,0,1,.84-.16m.57,4.89v1.15H16.19V18.41h1.15M9.11,0a6.18,6.18,0,0,0-6,7.68A6,6,0,0,0,0,13.2s0,.06,0,.09v.15c0,.11,0,.22,0,.33v6.74a4,4,0,0,0,2.94,3.86v7.39A4.27,4.27,0,0,0,7.24,36h0a4.33,4.33,0,0,0,1.87-.42A4.33,4.33,0,0,0,11,36h0a4.27,4.27,0,0,0,4.3-4.24l0-1.67V25.53a9.27,9.27,0,0,0,1.5.12,9.15,9.15,0,0,0,3-.49l1.34,1.34,0,0,1,1a3.94,3.94,0,0,0,5.56,0l.12-.12a3.94,3.94,0,0,0,0-5.57l-2.34-2.34A9.16,9.16,0,0,0,16.76,7.35a9.26,9.26,0,0,0-1.61.14A6.18,6.18,0,0,0,9.11,0Z"/></g><path class="c" d="M12.26,30.13l0,1.63A1.27,1.27,0,0,1,11,33h0a1.27,1.27,0,0,1-1.3-1.24V21H8.54V31.76A1.27,1.27,0,0,1,7.24,33h0a1.27,1.27,0,0,1-1.3-1.24v-18H5.13v6.76a1,1,0,0,1-1.07,1,1,1,0,0,1-1.07-1V13.77a1,1,0,0,1,0-.16c0-.11,0-.22,0-.34,0-1.2.44-2.69,1.83-3.05a7.44,7.44,0,0,1,.77-.08h7s.57,0,.74.07a7.18,7.18,0,0,0-1.64,1.23,7.15,7.15,0,0,0,0,10.11,7.29,7.29,0,0,0,.56.5Zm0-24A3.18,3.18,0,1,0,9.11,9.35,3.18,3.18,0,0,0,12.29,6.18Zm5.52,10.67.36-.26a1.75,1.75,0,0,0,.35-.32,1.66,1.66,0,0,0,.26-.45,1.81,1.81,0,0,0,.11-.67,1.52,1.52,0,0,0-.11-.53,1.49,1.49,0,0,0-.35-.53,2,2,0,0,0-.65-.41,2.65,2.65,0,0,0-1-.17,2.18,2.18,0,0,0-.84.16,1.87,1.87,0,0,0-.64.44,2,2,0,0,0-.42.66,2.43,2.43,0,0,0-.16.84H16a1.72,1.72,0,0,1,.05-.43,1,1,0,0,1,.16-.35.79.79,0,0,1,.27-.24.82.82,0,0,1,.39-.09.73.73,0,0,1,.53.19.78.78,0,0,1,.19.58.7.7,0,0,1-.08.38,1.14,1.14,0,0,1-.23.28l-.31.25a2.13,2.13,0,0,0-.32.3,1.66,1.66,0,0,0-.41,1v.38h1.15v-.32a.86.86,0,0,1,.17-.42A1.67,1.67,0,0,1,17.81,16.85Zm-1.61,2.7h1.15V18.41H16.19Zm9.44,4.38-2.72-2.72h0l-1-1h0l-.15-.15a6.15,6.15,0,1,0-1.44,1.44l.45.45h0l2.42,2.43h0l1,1a.93.93,0,0,0,1.32,0l.12-.12A.93.93,0,0,0,25.63,23.94ZM19.7,19.44a4.11,4.11,0,1,1,0-5.81A4.1,4.1,0,0,1,19.7,19.44Z"/></svg>