<?xml version="1.0" encoding="utf-8"?>
<!-- Generator: Adobe Illustrator 20.0.0, SVG Export Plug-In . SVG Version: 6.00 Build 0)  -->
<svg version="1.1" id="Layer_1" xmlns="http://www.w3.org/2000/svg" xmlns:xlink="http://www.w3.org/1999/xlink" x="0px" y="0px"
	 viewBox="0 0 60 60" style="enable-background:new 0 0 60 60;" xml:space="preserve">
<style type="text/css">
	.st0{opacity:0.8;}
	.st1{fill:#FFAB24;}
	.st2{fill:#FFFFFF;}
	.st3{fill:#4F8317;}
</style>
<title>DAS map icons</title>
<g class="st0">
	<path class="st1" d="M26.4,17.3h7.2c0.8,0,1.5,0.7,1.5,1.5c0,0,0,0,0,0v2H24.9v-2C24.9,17.9,25.5,17.3,26.4,17.3
		C26.4,17.3,26.4,17.3,26.4,17.3z M43,20.8h-5.4v-2c0-2.2-1.7-4-3.9-4.1h-7.2c-2.2,0-3.9,1.7-3.9,3.9c0,0.1,0,0.1,0,0.2v2H17
		c-1.7,0-3,1.3-3.1,2.9c0,0.1,0,0.1,0,0.2V42c-0.1,1.7,1.3,3.2,3,3.3c0,0,0,0,0,0h25.8c1.8,0,3.1-1.5,3.1-3.2c0,0,0-0.1,0-0.1V23.9
		c0.1-1.6-1.1-3-2.7-3.1C43.2,20.8,43,20.8,43,20.8L43,20.8z M37,35.1h-4.8V40h-4.3v-4.9h-4.8v-4.3h4.8V26h4.3v4.8h4.8L37,35.1
		L37,35.1z"/>
	<path class="st2" d="M33.6,14.7c2.2,0,3.9,1.9,3.9,4.1v2H43c1.6-0.1,3,1.2,3.1,2.8c0,0.1,0,0.2,0,0.3V42c0.1,1.7-1.3,3.2-3,3.3
		c0,0,0,0-0.1,0H17c-1.7-0.1-3.1-1.5-3.1-3.3c0,0,0,0,0,0V23.9c-0.1-1.7,1.2-3,2.9-3.1c0.1,0,0.1,0,0.2,0h5.5v-2
		c-0.1-2.2,1.6-4,3.8-4.1c0.1,0,0.1,0,0.2,0L33.6,14.7 M24.9,20.8h10.3v-2c0-0.8-0.7-1.5-1.5-1.5c0,0,0,0,0,0h-7.2
		c-0.8,0-1.5,0.6-1.5,1.4c0,0,0,0,0,0.1L24.9,20.8 M22.9,35.1h4.8V40h4.3v-4.9h4.8v-4.3h-4.8V26h-4.3v4.8h-4.8V35.1 M33.6,11.7h-7.2
		c-3.5,0-6.4,2.6-6.8,6.1H17c-3.3,0-6,2.6-6.1,5.9c0,0.1,0,0.1,0,0.2V42c-0.1,3.4,2.5,6.2,5.9,6.3c0,0,0.1,0,0.1,0h25.8
		c3.4,0,6.1-2.8,6.1-6.2c0,0,0-0.1,0-0.1V23.9c0-1.6-0.6-3.2-1.7-4.3c-1.2-1.2-2.7-1.8-4.4-1.8h-2.5C40.1,14.3,37.1,11.7,33.6,11.7
		C33.6,11.7,33.6,11.7,33.6,11.7z"/>
</g>
<path class="st3" d="M26.4,17.3h7.2c0.8,0,1.5,0.7,1.5,1.5c0,0,0,0,0,0v2H24.9v-2C24.9,17.9,25.5,17.3,26.4,17.3
	C26.4,17.3,26.4,17.3,26.4,17.3z M43,20.8h-5.4v-2c0-2.2-1.7-4-3.9-4.1h-7.2c-2.2,0-3.9,1.7-3.9,3.9c0,0.1,0,0.1,0,0.2v2H17
	c-1.7,0-3,1.3-3.1,2.9c0,0.1,0,0.1,0,0.2V42c-0.1,1.7,1.3,3.2,3,3.3c0,0,0,0,0,0h25.8c1.8,0,3.1-1.5,3.1-3.2c0,0,0-0.1,0-0.1V23.9
	c0.1-1.6-1.1-3-2.7-3.1C43.2,20.8,43,20.8,43,20.8L43,20.8z M37,35.1h-4.8V40h-4.3v-4.9h-4.8v-4.3h4.8V26h4.3v4.8h4.8L37,35.1
	L37,35.1z"/>
</svg>
