<?xml version="1.0" encoding="utf-8"?>
<!-- Generator: Adobe Illustrator 20.1.0, SVG Export Plug-In . SVG Version: 6.00 Build 0)  -->
<svg version="1.1" id="Layer_1" xmlns="http://www.w3.org/2000/svg" xmlns:xlink="http://www.w3.org/1999/xlink" x="0px" y="0px"
	 viewBox="0 0 38 36.6" style="enable-background:new 0 0 38 36.6;" xml:space="preserve">
<style type="text/css">
	.st0{opacity:0.8;}
	.st1{fill:#FFFFFF;}
	.st2{fill:#FFAB24;}
</style>
<title>Asset 20</title>
<g class="st0">
	<path class="st1" d="M15.4,5.6h7.2c0.8,0,1.5,0.7,1.5,1.5c0,0,0,0,0,0v2H13.9v-2C13.9,6.2,14.5,5.6,15.4,5.6
		C15.4,5.5,15.4,5.5,15.4,5.6z M31.9,9.1h-5.4v-2c0-2.2-1.7-4-3.9-4.1h-7.2c-2.2,0-3.9,1.7-3.9,3.9c0,0.1,0,0.1,0,0.2v2H6.1
		C4.4,9,3,10.4,3,12c0,0.1,0,0.1,0,0.2v18.1c-0.1,1.7,1.3,3.2,3,3.3c0,0,0,0,0,0h25.8c1.8,0,3.1-1.5,3.1-3.2c0,0,0-0.1,0-0.1V12.2
		c0.1-1.6-1.1-3-2.8-3.1C32.1,9.1,32,9.1,31.9,9.1z M25.9,23.4h-4.8v4.8h-4.3v-4.8h-4.8v-4.3h4.8v-4.8h4.3v4.8h4.8L25.9,23.4z"/>
	<path class="st1" d="M22.6,3c2.2,0,3.9,1.9,3.9,4.1v2h5.4c1.6-0.1,3,1.2,3.1,2.8c0,0.1,0,0.2,0,0.3v18.1c0.1,1.7-1.3,3.2-3,3.3
		c0,0,0,0-0.1,0H6.1c-1.7-0.1-3.1-1.5-3.1-3.3c0,0,0,0,0,0V12.2c-0.1-1.7,1.2-3,2.9-3.1c0.1,0,0.1,0,0.2,0h5.5v-2
		c-0.1-2.2,1.6-4,3.8-4.1c0.1,0,0.1,0,0.2,0H22.6 M13.9,9.1h10.3v-2c0-0.8-0.7-1.5-1.5-1.5c0,0,0,0,0,0h-7.2c-0.8,0-1.5,0.6-1.5,1.4
		c0,0,0,0,0,0.1V9.1 M11.9,23.4h4.8v4.8h4.3v-4.8h4.8v-4.3h-4.8v-4.8h-4.3v4.8h-4.8V23.4 M22.6,0h-7.2C11.9,0,9,2.6,8.6,6.1H6.1
		C2.7,6,0,8.7,0,12c0,0.1,0,0.1,0,0.2v18.1c-0.1,3.4,2.5,6.2,5.9,6.3c0,0,0.1,0,0.1,0h25.8c3.4,0,6.1-2.8,6.1-6.2c0,0,0-0.1,0-0.1
		V12.2c0-1.6-0.6-3.2-1.7-4.3c-1.2-1.2-2.7-1.8-4.4-1.8h-2.5C29.1,2.6,26.1,0,22.6,0z"/>
</g>
<path class="st2" d="M15.4,5.6h7.2c0.8,0,1.5,0.7,1.5,1.5c0,0,0,0,0,0v2H13.9v-2C13.9,6.2,14.5,5.6,15.4,5.6
	C15.4,5.5,15.4,5.5,15.4,5.6z M31.9,9.1h-5.4v-2c0-2.2-1.7-4-3.9-4.1h-7.2c-2.2,0-3.9,1.7-3.9,3.9c0,0.1,0,0.1,0,0.2v2H6.1
	C4.4,9,3,10.4,3,12c0,0.1,0,0.1,0,0.2v18.1c-0.1,1.7,1.3,3.2,3,3.3c0,0,0,0,0,0h25.8c1.8,0,3.1-1.5,3.1-3.2c0,0,0-0.1,0-0.1V12.2
	c0.1-1.6-1.1-3-2.8-3.1C32.1,9.1,32,9.1,31.9,9.1z M25.9,23.4h-4.8v4.8h-4.3v-4.8h-4.8v-4.3h4.8v-4.8h4.3v4.8h4.8L25.9,23.4z"/>
</svg>
