<svg xmlns="http://www.w3.org/2000/svg" viewBox="0 0 38 36.6"><defs><style>.a{opacity:0.8;}.b,.c{fill:#fff;}.b,.d{fill-rule:evenodd;}.d{fill:#4f8317;}</style></defs><title>Asset 20</title><g class="a"><path class="b" d="M15.42,5.55h7.21a1.52,1.52,0,0,1,1.55,1.5v2H13.87v-2A1.49,1.49,0,0,1,15.42,5.55ZM31.94,9.06H26.54v-2A4,4,0,0,0,22.63,3H15.42a3.91,3.91,0,0,0-3.91,4.06v2H6.05A3,3,0,0,0,3,12.16V30.29A3.16,3.16,0,0,0,6.05,33.6H31.89A3.17,3.17,0,0,0,35,30.29V12.16A2.93,2.93,0,0,0,31.94,9.06Zm-6,14.36H21.11v4.83H16.78V23.42H11.94V19.09h4.83V14.25h4.33v4.83h4.83Z"/><path class="c" d="M22.63,3a4,4,0,0,1,3.91,4.06v2h5.41A2.93,2.93,0,0,1,35,12.16V30.29a3.17,3.17,0,0,1-3.1,3.31H6.05A3.16,3.16,0,0,1,3,30.29V12.16a3,3,0,0,1,3.05-3.1h5.46v-2A3.91,3.91,0,0,1,15.42,3h7.21M13.87,9.06H24.18v-2a1.52,1.52,0,0,0-1.55-1.5H15.42a1.49,1.49,0,0,0-1.55,1.5v2M11.94,23.42h4.83v4.83h4.33V23.42h4.83V19.09H21.11V14.25H16.78v4.83H11.94v4.33M22.63,0H15.42A6.87,6.87,0,0,0,8.58,6.06H6.05A6,6,0,0,0,0,12.16V30.29A6.12,6.12,0,0,0,6.05,36.6H31.89A6.14,6.14,0,0,0,38,30.29V12.2a6,6,0,0,0-1.67-4.34,6.05,6.05,0,0,0-4.39-1.8H29.47A6.87,6.87,0,0,0,22.63,0Z"/></g><path class="d" d="M15.42,5.55h7.21a1.52,1.52,0,0,1,1.55,1.5v2H13.87v-2A1.49,1.49,0,0,1,15.42,5.55ZM31.94,9.06H26.54v-2A4,4,0,0,0,22.63,3H15.42a3.91,3.91,0,0,0-3.91,4.06v2H6.05A3,3,0,0,0,3,12.16V30.29A3.16,3.16,0,0,0,6.05,33.6H31.89A3.17,3.17,0,0,0,35,30.29V12.16A2.93,2.93,0,0,0,31.94,9.06Zm-6,14.36H21.11v4.83H16.78V23.42H11.94V19.09h4.83V14.25h4.33v4.83h4.83Z"/></svg>