<svg xmlns="http://www.w3.org/2000/svg" viewBox="0 0 39.22 33.62"><defs><style>.a{opacity:0.8;}.b{fill:#fff;}.c{fill:#5a6066;}</style></defs><title>Asset 236</title><g class="a"><path class="b" d="M20.65,32.12A2.53,2.53,0,0,1,20,32h-.08a1.72,1.72,0,0,1-.79-.19H19l-.38,0-.34,0a2.42,2.42,0,0,1-.59-.08,1.69,1.69,0,0,1-1.38-.92,1.79,1.79,0,0,1-.06-1.46h0A1.67,1.67,0,0,1,16,28.13a2.2,2.2,0,0,1-2.09.91,11.57,11.57,0,0,1-1.66-.15,1.49,1.49,0,0,1-.73-.34,1.67,1.67,0,0,1-.54-.86,1.68,1.68,0,0,1-.21.41,2.2,2.2,0,0,1-1.88.81,10.17,10.17,0,0,1-1.72-.19,1.5,1.5,0,0,1-.63-.29,1.74,1.74,0,0,1-.68-1.53,2,2,0,0,1,.87-1.41l0-.06a5.4,5.4,0,0,1,.13-1,3.31,3.31,0,0,1-.87.11,3.4,3.4,0,0,1-.57,0,1.74,1.74,0,0,1-.3-.09,4.36,4.36,0,0,1-2.58-3.37,3.31,3.31,0,0,1-.35-.2,1.5,1.5,0,0,1-.68-1.2,1.6,1.6,0,0,1,0-.57A1.5,1.5,0,0,1,3,17.77c.23-.63.61-1.42.81-1.85a5.15,5.15,0,0,1,.88-1.47,5.1,5.1,0,0,1,1.63-1.68,2.52,2.52,0,0,1,1.47-.34A8.94,8.94,0,0,1,9,12.53c.26,0,.86-.07,1.33-.12a2.76,2.76,0,0,1,1.24-.3,3,3,0,0,1,1.76.6,9.09,9.09,0,0,0,1.65.11h.38a8,8,0,0,1,.88,0h.24l-.28-.28a2.62,2.62,0,0,1-.73-2.13l.78-5.81A2.61,2.61,0,0,1,18.44,2.3l5.77-.78.32,0a2.54,2.54,0,0,1,1.89.81L35,10.83a2.63,2.63,0,0,1,0,3.71l-5.35,5.35.32,0h.25a3.85,3.85,0,0,1,.58,0,3.64,3.64,0,0,1,1.73.84,2.19,2.19,0,0,1,.39.46l.18,0a1.62,1.62,0,0,1,.52-.23A1.78,1.78,0,0,1,34,21a1.8,1.8,0,0,1,.76.18,1.5,1.5,0,0,1,.73,1.8,2.07,2.07,0,0,1-.26.53v0a3.73,3.73,0,0,1-.17.35,2.48,2.48,0,0,1-.31.49l.19.2.19,0a1.6,1.6,0,0,1,2.56.9,2.44,2.44,0,0,1,0,1,3.15,3.15,0,0,1-.9,1.79,4.83,4.83,0,0,1-.73.67,2.16,2.16,0,0,1-.16.41l-.09.16a1.8,1.8,0,0,1-1.74,1.11H34a1.88,1.88,0,0,1-.62.11,1.74,1.74,0,0,1-1.06-.36,2,2,0,0,1-.74-.57L31,29.24,30.7,29h-.07a1.76,1.76,0,0,1,.29.43,2.11,2.11,0,0,1,.15.26,1.55,1.55,0,0,1,0,1.3,1.67,1.67,0,0,1-.73.71,2,2,0,0,1-1.1.3h0a3.46,3.46,0,0,1-.66-.07h-.5a2.19,2.19,0,0,1-.68-.14l-.16,0H27a1.92,1.92,0,0,1-1.6-1,1.84,1.84,0,0,1-.14-.29l-.08-.16a2.78,2.78,0,0,1-.24-.78h-.33a7.13,7.13,0,0,1-2-.3l0,0a3,3,0,0,1,.29.66,1.58,1.58,0,0,1-.6,1.75,1.69,1.69,0,0,1-1,.32h-.21A2.08,2.08,0,0,1,20.65,32.12Zm-4.4-4.85a1.88,1.88,0,0,1,0,.24l.09-.18-.06-.1S16.25,27.25,16.25,27.27Zm-5.36-.89.07.16a1.76,1.76,0,0,1,.06.2,2.17,2.17,0,0,1,.46-.77c-.07-.18-.14-.38-.2-.58-.13.27-.28.6-.42.93Zm4.8-2.53a11.68,11.68,0,0,1,.19,1.76l0-.1a2.7,2.7,0,0,1,.17-.45.38.38,0,0,0,0-.11v-.2a5,5,0,0,1,.25-1.24l-.18,0a3.74,3.74,0,0,1-.55,0Z"/><path class="b" d="M24.54,3a1.05,1.05,0,0,1,.8.34l8.6,8.56a1.11,1.11,0,0,1,0,1.59L27.4,20a1.11,1.11,0,0,1-1.59,0l-8.6-8.6a1.13,1.13,0,0,1-.3-.92l.77-5.76a1.1,1.1,0,0,1,1-1L24.41,3h.13m-3.8,5.32a1.49,1.49,0,0,0,1.05-2.55,1.51,1.51,0,0,0-1.07-.44,1.41,1.41,0,0,0-1,.44,1.49,1.49,0,0,0,1.05,2.55m2,5.44a.55.55,0,0,0,.39-.17l4.39-4.39a.53.53,0,0,0,0-.77.54.54,0,0,0-.77,0l-4.39,4.39a.53.53,0,0,0,0,.77.55.55,0,0,0,.39.17m3.38,3.37a.63.63,0,0,0,.4-.14L30.9,12.6a.53.53,0,0,0,0-.77.53.53,0,0,0-.77,0l-4.39,4.39a.53.53,0,0,0,0,.77.53.53,0,0,0,.37.14M11.53,13.61a1.52,1.52,0,0,1,.93.35,5.58,5.58,0,0,0,2.48.35h.48a6.49,6.49,0,0,1,.78,0,4.88,4.88,0,0,1,2.72.72,10.78,10.78,0,0,1,2,2.17A3.91,3.91,0,0,1,21.72,19,12.84,12.84,0,0,0,22,21.38h0l.05.09,0-.11c.32-.11.61-.23.72-.27a1.73,1.73,0,0,1,.55-.09,1,1,0,0,1,.29,0,13.31,13.31,0,0,0,1.71.42,5.64,5.64,0,0,0,1.34.18c.21,0,.36,0,.45,0a1.79,1.79,0,0,0,.55-.18,2.44,2.44,0,0,1,.86-.15,3.36,3.36,0,0,1,.41,0l.92.09h.41a2.35,2.35,0,0,1,.36,0,2.19,2.19,0,0,1,1,.48,1.8,1.8,0,0,1,.36.72.17.17,0,0,0,.07.1s.17,0,.23.06.09.17.13.2a.23.23,0,0,0,.11,0,.2.2,0,0,1,.06-.11.2.2,0,0,0,.06-.18s0,0,0,0l.12,0a.79.79,0,0,1,.2,0c.08,0,.08.17.1.22s.47-.18.59-.24.33-.23.38-.24h.1a.5.5,0,0,1-.1.17c-.06.05-.17.39-.25.49-.18.42-.4.43-.5.43l-.13,0a2.09,2.09,0,0,1,.08.63,1.6,1.6,0,0,0,.18.76,2.36,2.36,0,0,0,.45.57,3.06,3.06,0,0,1,.38.47s.5,0,.68,0,.06.21-.17.27a1.13,1.13,0,0,0-.32.12h0l0,.09h0a1.15,1.15,0,0,0,.28,0A4.29,4.29,0,0,0,36,25.87c.06-.07.11-.1.14-.1s.1.09.11.14a2.9,2.9,0,0,1,0,.51,2.19,2.19,0,0,1-.53.87,3.26,3.26,0,0,1-.83.67s-.2.44-.2.47,0,.13-.05.23a1.5,1.5,0,0,0-.15.27c-.05.18-.34.18-.37.18h0a2.67,2.67,0,0,0-.55.08.43.43,0,0,1-.17,0,.38.38,0,0,1-.28-.18.53.53,0,0,1-.37-.22c-.06-.08-1-1-1.1-1.1a.54.54,0,0,1-.3-.44c0-.05-.13-.22-.13-.22l-.09.06a1.4,1.4,0,0,1-.06.17c0,.06-.22.14-.35.18h-.05a.24.24,0,0,1-.2-.14s-.1,0-.16,0h-.07c-.06.11-.12.14-.18.14a.53.53,0,0,1-.13,0,4.72,4.72,0,0,0-.5.58A3.65,3.65,0,0,0,29,29a2.42,2.42,0,0,0,0,.27.87.87,0,0,0,.22.47,1.68,1.68,0,0,0,.29.15.25.25,0,0,1,.15.16,1.45,1.45,0,0,0,.11.18c0,.05,0,.07-.07.08h0l-.12,0s0,.07,0,.09a.85.85,0,0,1-.33.05h0a1.53,1.53,0,0,1-.47-.09l-.29,0h-.22c-.31,0-.29-.08-.33-.16a.66.66,0,0,1,.1-.4.9.9,0,0,1,.15-.17.2.2,0,0,0,0-.07.91.91,0,0,1-.19,0l-.23.16a4.73,4.73,0,0,0-.4.37.51.51,0,0,1-.25.14h0a.45.45,0,0,1-.32-.24.3.3,0,0,1,0-.32h0l-.12,0a1.51,1.51,0,0,1-.11-.34.48.48,0,0,1,.11-.35,3.49,3.49,0,0,1,.54-.5h0a.52.52,0,0,1,.25.12l.06,0a.33.33,0,0,1,.13,0,.12.12,0,0,1,.08-.08.22.22,0,0,0,0-.11,8.83,8.83,0,0,1-.56-.8,7,7,0,0,1-1.59.32,6.32,6.32,0,0,1-.83.06,5.8,5.8,0,0,1-1.94-.34,3.25,3.25,0,0,1-1.26-1.11.74.74,0,0,1-.31.38,1.12,1.12,0,0,0-.42.48,2.67,2.67,0,0,0-.08.59c0,.2-.08.53-.08.61a2.4,2.4,0,0,0,.05.49c0,.07.11.24.16.4a1,1,0,0,0,.17.31.64.64,0,0,0,.26.12c.13,0,.13.06.17.11a1.87,1.87,0,0,1,.12.28s0,.06-.06.12a.25.25,0,0,1-.14,0,2.24,2.24,0,0,1-.36,0,.47.47,0,0,1-.28.08,1.59,1.59,0,0,1-.46-.1h-.3c-.16,0-.16-.1-.16-.16a2.43,2.43,0,0,1,.1-.34.52.52,0,0,0,0-.35,3.13,3.13,0,0,0-.45-.43c-.11-.09-.19-.15-.22-.25a1.68,1.68,0,0,1,.05-.55,2.4,2.4,0,0,0,0-.61l-.15.35c-.06.14-.12.36-.18.5a1.61,1.61,0,0,0-.12.47,2.74,2.74,0,0,0,.05.4.77.77,0,0,0,.21.24,1.18,1.18,0,0,1,.25.38c.07.14,0,.17,0,.17h0l-.14,0s0,0-.07,0h0a2.88,2.88,0,0,1-.33,0h-.2a.4.4,0,0,1-.19,0,1.06,1.06,0,0,1-.33-.06h-.09a.22.22,0,0,1-.21-.12c-.08-.15.07-.37.17-.66a.57.57,0,0,0-.05-.53c0-.1-.19-.3-.26-.41s0-.23.06-.37.22-.43.33-.73A1.42,1.42,0,0,0,18,27a1.54,1.54,0,0,0-.15-.4c-.05-.08-.05-.07-.06-.14s0-.12,0-.2a2.9,2.9,0,0,0-.09-.32c0-.05,0-.32,0-.32a1.45,1.45,0,0,1-.06.18c-.05.11-.11.19-.12.22s0,.05,0,.07.19.1.25.32-.05.31-.07.31h0a.79.79,0,0,0-.16-.23c-.11-.12,0-.15,0-.18s0-.07-.13-.15-.07-.18,0-.29.12-.26.17-.42a2.29,2.29,0,0,0,.07-.38s0-.15,0-.23A3.84,3.84,0,0,1,18,23.39l.06-.1h0c-.12-.26-.24-.48-.24-.48a4.31,4.31,0,0,1-.61-.59c0-.12-1-.22-1-.22h-.08a5.05,5.05,0,0,1-2-.64c-.1,0-.2.61-.2.61,0,.74.25,2.19.25,2.19a14.41,14.41,0,0,1,.16,1.55,1.64,1.64,0,0,0,.12,1,1,1,0,0,1,.25.59c0,.21-.39.27-.83.27a10.38,10.38,0,0,1-1.42-.13c-.29-.25.49-.76.49-.76.35-.2.06-.88.06-.88a7.25,7.25,0,0,1-.55-1.66c-.08-.22-.8-1.94-.8-1.94A12.35,12.35,0,0,1,10.35,24a15.26,15.26,0,0,0-1,2.15c-.08.29.25.92.25.92.1.27-.23.35-.66.35a8.81,8.81,0,0,1-1.42-.16c-.37-.29.31-.63.31-.63.31-.18.49-1,.49-1a5.47,5.47,0,0,1,.27-1.51A8.09,8.09,0,0,0,9,22.63L9.45,21A14.53,14.53,0,0,0,9.82,19c-.14.2-1.23.41-1.23.41-.33-.25-.25-1-.25-1-.14.25-1,.29-1,.29L7,18.95a.38.38,0,0,1-.35.25L6.35,19,6,19a2.74,2.74,0,0,0-.55,2c.14,1,.55,1.18.78,1.18a.48.48,0,0,0,.18,0c.39-.1,0-.61,0-.61.2-.08,0-.27,0-.27a.59.59,0,0,1,.32-.11c.4,0,.58.58.58.58A1.11,1.11,0,0,1,6,23.06a2,2,0,0,1-.31,0C3.85,22.28,4,19.89,4,19.89h0A1.9,1.9,0,0,1,3,19.6a1.15,1.15,0,0,0,.27,0,2.37,2.37,0,0,0,.35,0C3,19.44,3,19.27,3,19.27h.11a6.94,6.94,0,0,0,1-.15l.16-.49a16.83,16.83,0,0,1,.9-2.13,3.7,3.7,0,0,1,.74-1.19A3.6,3.6,0,0,1,7.1,14.06a1.36,1.36,0,0,1,.68-.12,7.62,7.62,0,0,1,1,.08h.15c.5,0,1.85-.17,1.85-.17a1.29,1.29,0,0,1,.75-.25M24.54,0l-.46,0H24L18.25.81a4.11,4.11,0,0,0-3.53,3.51l-.78,5.78v.1a4.33,4.33,0,0,0,0,1.08h-.12a4.45,4.45,0,0,0-2.31-.66,4.23,4.23,0,0,0-1.65.34L9,11a10.23,10.23,0,0,0-1.24-.09,4.13,4.13,0,0,0-2.32.6,6.61,6.61,0,0,0-2,2,6.62,6.62,0,0,0-1,1.73q-.31.64-.54,1.16A3,3,0,0,0,0,18.91a3.09,3.09,0,0,0,0,.8A3,3,0,0,0,1.27,22a5.67,5.67,0,0,0,3.31,3.79h0a3.22,3.22,0,0,0,1,3.79,3,3,0,0,0,1.25.57,11.5,11.5,0,0,0,2,.22,4.14,4.14,0,0,0,2-.46,3,3,0,0,0,1.11.42,13,13,0,0,0,1.91.17,5.74,5.74,0,0,0,.73,0,3.13,3.13,0,0,0,.32,1,3.21,3.21,0,0,0,2.56,1.73,3.86,3.86,0,0,0,.75.07l.33,0,.18,0a3.23,3.23,0,0,0,1,.19,3.94,3.94,0,0,0,.86.1,3.64,3.64,0,0,0,.5,0h.13a3.18,3.18,0,0,0,2.93-1.86A3.36,3.36,0,0,0,27,33.31h.21a3.85,3.85,0,0,0,.72.11l.43,0h0a4.6,4.6,0,0,0,.72.06h.12A3.6,3.6,0,0,0,31,33a3.08,3.08,0,0,0,1.19-1,3.3,3.3,0,0,0,1.15.21,3.36,3.36,0,0,0,.91-.13,3.33,3.33,0,0,0,2.89-1.91l.09-.16.1-.2a6,6,0,0,0,.6-.6,4.66,4.66,0,0,0,1.24-2.52v-.1a3.81,3.81,0,0,0-.06-1.49A3.14,3.14,0,0,0,37,22.91a3,3,0,0,0-1.63-3.06A3.16,3.16,0,0,0,34,19.52a3.3,3.3,0,0,0-.59.06,5.58,5.58,0,0,0-.79-.53l3.43-3.43a4.13,4.13,0,0,0,0-5.83L27.5,1.27a4,4,0,0,0-3-1.27Z"/></g><path class="c" d="M18.1,23.29c-.12-.26-.24-.48-.24-.48a4.31,4.31,0,0,1-.61-.59c0-.12-1-.22-1-.22a4.88,4.88,0,0,1-2.09-.63c-.1,0-.2.61-.2.61,0,.74.25,2.19.25,2.19a14.41,14.41,0,0,1,.16,1.55,1.64,1.64,0,0,0,.12,1,1,1,0,0,1,.25.59c0,.51-2.25.14-2.25.14-.29-.25.49-.76.49-.76.35-.2.06-.88.06-.88a7.24,7.24,0,0,1-.55-1.66c-.08-.22-.8-1.94-.8-1.94A12.36,12.36,0,0,1,10.35,24a15.26,15.26,0,0,0-1,2.15c-.08.29.25.92.25.92.25.65-2.09.18-2.09.18-.37-.29.31-.63.31-.63.31-.18.49-1,.49-1a5.46,5.46,0,0,1,.27-1.51A8.07,8.07,0,0,0,9,22.63L9.45,21A14.53,14.53,0,0,0,9.82,19c-.14.2-1.23.41-1.23.41-.33-.25-.25-1-.25-1-.14.25-1,.29-1,.29L7,18.95a.38.38,0,0,1-.35.25L6.35,19,6,19a2.74,2.74,0,0,0-.55,2c.2,1.47,1,1.14,1,1.14.39-.1,0-.61,0-.61.2-.08,0-.27,0-.27.63-.41.9.47.9.47C7.45,23.34,5.71,23,5.71,23,3.85,22.28,4,19.89,4,19.89A1.86,1.86,0,0,1,3,19.6a1.87,1.87,0,0,0,.61,0C3,19.44,3,19.27,3,19.27a4.87,4.87,0,0,0,1.12-.14l.16-.49a16.84,16.84,0,0,1,.9-2.13,3.7,3.7,0,0,1,.74-1.19A3.6,3.6,0,0,1,7.1,14.06c.35-.25,1.68,0,1.68,0a16.14,16.14,0,0,0,2-.16,1.38,1.38,0,0,1,1.68.1c.41.43,3,.35,3,.35a5.17,5.17,0,0,1,3.5.67,10.78,10.78,0,0,1,2,2.17A3.91,3.91,0,0,1,21.72,19,14.13,14.13,0,0,0,22,21.48L22,21.39c.33-.11.64-.24.75-.28a1.55,1.55,0,0,1,.84-.06,13.32,13.32,0,0,0,1.71.42,5.13,5.13,0,0,0,1.79.15,1.78,1.78,0,0,0,.55-.18,2.75,2.75,0,0,1,1.27-.12l.92.09c.22,0,.42,0,.76,0a2.19,2.19,0,0,1,1,.48,1.8,1.8,0,0,1,.36.72.17.17,0,0,0,.07.1s.17,0,.23.06.09.17.13.2a.23.23,0,0,0,.11,0,.2.2,0,0,1,.06-.11.2.2,0,0,0,.06-.18c0-.06.05,0,.13,0a.79.79,0,0,1,.2,0c.08,0,.08.17.1.22s.47-.18.59-.24.33-.23.38-.24a.16.16,0,0,1,.1,0,.5.5,0,0,1-.1.17c-.06.05-.17.39-.25.49-.18.42-.4.43-.5.43l-.13,0a2.09,2.09,0,0,1,.08.63,1.6,1.6,0,0,0,.18.76,2.35,2.35,0,0,0,.45.57,3.06,3.06,0,0,1,.38.47s.5,0,.68,0,.06.21-.17.27a1.13,1.13,0,0,0-.32.12h0l0,.09a.81.81,0,0,0,.31,0A4.29,4.29,0,0,0,36,25.87c.17-.22.24,0,.26,0a2.89,2.89,0,0,1,0,.51,2.19,2.19,0,0,1-.53.87,3.26,3.26,0,0,1-.83.67s-.2.44-.2.47,0,.12-.05.23a1.49,1.49,0,0,0-.15.27c-.06.19-.37.18-.37.18a2.68,2.68,0,0,0-.55.08.34.34,0,0,1-.45-.14.53.53,0,0,1-.37-.22c-.06-.08-1-1-1.1-1.1a.54.54,0,0,1-.3-.44c0-.05-.13-.22-.13-.22l-.09.06a1.39,1.39,0,0,1-.06.17c0,.06-.22.14-.35.18a.23.23,0,0,1-.25-.14s-.2,0-.24,0c-.11.21-.24.13-.31.11a4.71,4.71,0,0,0-.5.58A3.65,3.65,0,0,0,29,29a2.44,2.44,0,0,0,0,.27.87.87,0,0,0,.22.47,1.68,1.68,0,0,0,.29.15.25.25,0,0,1,.15.16,1.49,1.49,0,0,0,.11.18c0,.05,0,.07-.07.08a.42.42,0,0,1-.15,0s0,.07,0,.09a.85.85,0,0,1-.33.05,1.52,1.52,0,0,1-.49-.09,2.12,2.12,0,0,1-.52,0c-.31,0-.29-.08-.33-.16a.66.66,0,0,1,.1-.4.9.9,0,0,1,.15-.17.2.2,0,0,0,0-.07.91.91,0,0,1-.19,0l-.23.16a4.73,4.73,0,0,0-.4.37.51.51,0,0,1-.25.14c-.1,0-.24-.09-.33-.24a.3.3,0,0,1,0-.32.59.59,0,0,0-.13,0,1.51,1.51,0,0,1-.11-.34.48.48,0,0,1,.11-.35c.07-.07.48-.51.54-.5a.52.52,0,0,1,.25.12s.11,0,.2,0a.12.12,0,0,1,.08-.08.22.22,0,0,0,0-.11,8.81,8.81,0,0,1-.56-.8,7,7,0,0,1-1.59.32,5.77,5.77,0,0,1-2.77-.28,3.25,3.25,0,0,1-1.26-1.11.74.74,0,0,1-.31.38,1.12,1.12,0,0,0-.42.48,2.67,2.67,0,0,0-.08.59c0,.2-.08.53-.08.61a2.4,2.4,0,0,0,.05.49c0,.07.11.24.16.4a1,1,0,0,0,.17.31.64.64,0,0,0,.26.12c.13,0,.13.06.17.11a1.87,1.87,0,0,1,.12.28s0,.06-.06.12-.4,0-.49,0c-.26.18-.69,0-.73,0h-.25c-.21,0-.21-.09-.21-.15a2.44,2.44,0,0,1,.1-.34.52.52,0,0,0,0-.35,3.12,3.12,0,0,0-.45-.43c-.11-.09-.19-.15-.22-.25a1.68,1.68,0,0,1,.05-.55,2.39,2.39,0,0,0,0-.61l-.15.35c-.06.14-.12.36-.18.5a1.62,1.62,0,0,0-.12.47,2.75,2.75,0,0,0,.05.4.77.77,0,0,0,.21.24,1.18,1.18,0,0,1,.25.38c.07.15,0,.17,0,.16l-.14,0s0,0-.07,0a2.19,2.19,0,0,1-.35,0,.84.84,0,0,1-.2,0,.75.75,0,0,1-.52,0c-.06,0-.22,0-.3-.11s.07-.37.17-.66a.57.57,0,0,0-.05-.53c0-.1-.19-.3-.26-.41s0-.23.06-.37.22-.43.33-.73A1.42,1.42,0,0,0,18,27a1.54,1.54,0,0,0-.15-.4c-.05-.08-.05-.07-.06-.14s0-.12,0-.2a2.89,2.89,0,0,0-.09-.32c0-.05,0-.32,0-.32a1.45,1.45,0,0,1-.06.18c-.05.11-.11.19-.12.22s0,.05,0,.07.19.1.25.32-.07.32-.07.31a.8.8,0,0,0-.16-.23c-.11-.12,0-.15,0-.18s0-.07-.13-.15-.07-.18,0-.29.12-.26.17-.42a2.31,2.31,0,0,0,.07-.38s0-.15,0-.23A3.83,3.83,0,0,1,18,23.39l.06-.1Zm-.88-11.87,8.6,8.6a1.11,1.11,0,0,0,1.59,0l6.53-6.53a1.11,1.11,0,0,0,0-1.59l-8.6-8.56A1.08,1.08,0,0,0,24.41,3l-5.76.77a1.1,1.1,0,0,0-1,1l-.77,5.76A1.13,1.13,0,0,0,17.22,11.42Zm4.57-5.64a1.49,1.49,0,1,1-2.1,0A1.47,1.47,0,0,1,21.79,5.77ZM25.74,17a.53.53,0,0,1,0-.77l4.39-4.39a.55.55,0,1,1,.77.77L26.51,17A.61.61,0,0,1,25.74,17ZM22.34,13.6a.53.53,0,0,1,0-.77l4.39-4.39a.55.55,0,1,1,.77.77L23.12,13.6A.53.53,0,0,1,22.34,13.6Z"/></svg>