<svg xmlns="http://www.w3.org/2000/svg" viewBox="0 0 33.15 35.94"><defs><style>.a{opacity:0.8;}.b{fill:#fff;}.c{fill:#acafb2;}</style></defs><title>Asset 109</title><g class="a"><path class="b" d="M22.17,34.44a3.31,3.31,0,0,1-2-.52,1.75,1.75,0,0,1-.27-.27,2.55,2.55,0,0,1-3-.63,1.89,1.89,0,0,1-.23-.38l0,0a1.93,1.93,0,0,1-.46-1.49l0-.09a3,3,0,0,1-.23-1.28c0-.16,0-.32,0-.48a2.4,2.4,0,0,0,0-.43c0-.19-.07-.37-.11-.55a8.2,8.2,0,0,1-.19-1.1,4,4,0,0,1,.07-1c0-.08,0-.16,0-.24s0-.25,0-.38l-.36,0,0,.09a2.83,2.83,0,0,1-.17.71l-.06.19a3.46,3.46,0,0,1-.6,1.06c-.12.48-.33,1.51-.38,1.8a5.84,5.84,0,0,1-.15,1.07l.27.33a1.74,1.74,0,0,1,.85,1.24,1.7,1.7,0,0,1-1,1.81,2.37,2.37,0,0,1-1,.21H12.9l-1-.11-.29,0L11,33.87a1.5,1.5,0,0,1-1-.58,2.06,2.06,0,0,1-.89.33,4.38,4.38,0,0,1-.57,0,2.85,2.85,0,0,1-1.39-.29,1.73,1.73,0,0,1-.81-.84A2.5,2.5,0,0,1,6.07,32a1.65,1.65,0,0,1-.24.7,1.76,1.76,0,0,1-1.28.82l-.33,0a2.91,2.91,0,0,1-2.07-1,1.66,1.66,0,0,1-.41-1.37,1.6,1.6,0,0,1,.47-.9s0-.09,0-.11A2.14,2.14,0,0,1,2.62,29,1.5,1.5,0,0,1,1.5,27.46a3.41,3.41,0,0,1,1.16-2.23,3.55,3.55,0,0,0,.35-1c0-.2.1-.39.15-.57a3.36,3.36,0,0,1,.19-2c.07-.26.16-.53.2-.78l.07-.38A5.93,5.93,0,0,1,4.3,18.3a2.13,2.13,0,0,1,.8-.84,3.51,3.51,0,0,1,.44-.24,5,5,0,0,1,.84-.52l.09-.14a2.8,2.8,0,0,0,.15-.27,2.11,2.11,0,0,1,.81-.92l.18-.15a2.65,2.65,0,0,1,.26-.31,1.52,1.52,0,0,1,.27-.22l.15-.13a2.56,2.56,0,0,1,1.28-.63h0l.51-.08a2.89,2.89,0,0,1,.41-.12l.89-.32.36-.16a1.8,1.8,0,0,1,.32-.25l.53-.29.11-.13a3.58,3.58,0,0,1,.77-.62l.21-.21a3.19,3.19,0,0,1,.41-.41l0,0a1.88,1.88,0,0,1,1.35-.83l.43-.14a2,2,0,0,1,.61-.31,7.19,7.19,0,0,1,.65-.35l.14-.07A7.21,7.21,0,0,1,18,9.14c.16-.11.88-.63,1-.77A4.71,4.71,0,0,1,19.53,8l.16-.11.08-.09A4.38,4.38,0,0,1,20.56,7l.62-.5.27-.3a2.93,2.93,0,0,1,.71-.77l.08-.07a5.32,5.32,0,0,1,.58-.74s.14-.14.87-.74c0-.05,0-.11,0-.17a1.75,1.75,0,0,1,.46-1.33,1.63,1.63,0,0,1,1.13-.48,1.59,1.59,0,0,1,.49.08L26,2h.06a1.67,1.67,0,0,1,1.17-.47,2.28,2.28,0,0,1,1.07.3,1.63,1.63,0,0,1,.81,1,2.28,2.28,0,0,1,.55.39,1.59,1.59,0,0,1,.56,1.59l.42.63a6.83,6.83,0,0,1,.65.88,2.76,2.76,0,0,1,.35,1.63,1.74,1.74,0,0,1-1.72,1.8A1.89,1.89,0,0,1,29,9.45a4.39,4.39,0,0,1-1.07-.76l-.25,0a2,2,0,0,1-1-.31L26.19,9c-.15.19-.61.76-1,1.25l-.59.72c-.14.21-.47.7-.87,1.24l.39,0h0a4.93,4.93,0,0,1,1.28.17,2.48,2.48,0,0,1,1.82,1.35,1.75,1.75,0,0,1,.11,1l.08.18c0,.12.07.24.1.35l-1.41.53,1.45-.38a3.61,3.61,0,0,0,.17.56,6,6,0,0,0,.74,1.16l.15.19a3.37,3.37,0,0,1,.9,2.09,2.45,2.45,0,0,1-2.39,2.49H27a2.55,2.55,0,0,1-1.78-.76,5.23,5.23,0,0,1-.45-.47l-.25-.2a1.66,1.66,0,0,0-.51-.27l-.1.1-.33.32h0a5.88,5.88,0,0,0-1.16,1.41c-.35.79-.71,1.52-1.11,2.25.08.22.19.48.25.61h0a4.69,4.69,0,0,1,.37,2l.46,1.34c.43,1.25.6,1.75.67,2a2.67,2.67,0,0,1,.16.35,1.88,1.88,0,0,1,.14.62h0a2.11,2.11,0,0,1,.94,1.59C24.27,33.21,24.12,34.44,22.17,34.44Z"/><path class="b" d="M27.23,3a.94.94,0,0,1,.37.13c.16.08,0,.59,0,.59a1.24,1.24,0,0,0,.24.23C28,4,28,4,28,4h0s0,0,0,.09.07.12.07.12h.12l.12,0s.12,0,.12-.06h0s.21.16.28.22-.07.18-.07.3.07.32.07.4a1.58,1.58,0,0,0,.16.42c0,.09.5.76.53.8A7.25,7.25,0,0,1,30,7a1.29,1.29,0,0,1,.15.71c0,.37-.12.46-.23.46s-.24-.1-.29-.12a3.41,3.41,0,0,1-.77-.58,2.61,2.61,0,0,0-.31-.28s-.7-.07-.87-.07a1.84,1.84,0,0,1-.76-.51.27.27,0,0,0-.22-.09.37.37,0,0,0-.22.06c-.05.05-.27,0-.41.08A12.59,12.59,0,0,0,25,8.12c-.25.34-1.58,1.9-1.63,2A24.24,24.24,0,0,1,21.11,13a24.55,24.55,0,0,0-2.22,2.55,1.21,1.21,0,0,0-.12.76.49.49,0,0,1-.2.13l-.13,0a5.62,5.62,0,0,0-1.31.37c-.34.14-.68.29-1,.45l-.86.37-.53.19a2.85,2.85,0,0,1-.9.13,8.87,8.87,0,0,1-1.21-.12,23.47,23.47,0,0,0-3.2-.35,5.6,5.6,0,0,0-1.92.3,4.37,4.37,0,0,1,.23-.45,4.48,4.48,0,0,0,.3-.54c.06-.14.26-.26.32-.3l.36-.3s.12-.07.12-.12.16-.21.16-.21a2.88,2.88,0,0,0,.35-.28,1.09,1.09,0,0,1,.49-.26s.34-.07.52-.08a3.38,3.38,0,0,0,.47-.13c.12,0,1.13-.38,1.19-.41l.58-.26c.12-.07.2-.19.28-.24l.59-.31a1.58,1.58,0,0,0,.39-.39,5.38,5.38,0,0,1,.63-.47,2.67,2.67,0,0,1,.26-.26s.21-.28.38-.38a1.07,1.07,0,0,0,.31-.4c.05-.08.37-.12.49-.16l.82-.26s.11-.09.12-.13.35-.1.46-.2.76-.4.82-.45l.66-.44s1.18-.84,1.24-.91.62-.43.69-.5.61-.7.68-.73.63-.52.74-.59a3.8,3.8,0,0,0,.63-.72c0-.12.63-.55.68-.65a4,4,0,0,1,.45-.61c.14-.14,1.48-1.22,1.48-1.22s-.09-.21-.11-.27a1.25,1.25,0,0,1-.07-.53c0-.2,0-.25.09-.25s.15.09.17.09.28.22.37.29h0l0,0h0l0,0h0a.14.14,0,0,1,0-.06.48.48,0,0,1,.2-.27s.22.16.27.18a2.37,2.37,0,0,1,.29.25h0l.09-.09c.12-.11,0-.07,0-.14s.15-.25.17-.29.07,0,.12,0h.14s-.1,0,0-.25A.16.16,0,0,1,27.23,3M24.18,13.71a3.46,3.46,0,0,1,.84.12c.28.07.69.18.81.47s-.14.41-.14.6a4.65,4.65,0,0,0,.29.54c0,.1.06.21.09.32a5.59,5.59,0,0,0,.27.85,7.43,7.43,0,0,0,.92,1.46A2.53,2.53,0,0,1,28,19.47a1,1,0,0,1-1,1H27a1.07,1.07,0,0,1-.75-.35,3.68,3.68,0,0,1-.43-.47s-.19-.13-.27-.21a3.86,3.86,0,0,0-1.57-.76l-.14,0c-.47,0-.93.63-1.28.93h0A7.91,7.91,0,0,0,21,21.46c-.33.74-.68,1.45-1.07,2.16-.22.4-.45.8-.64,1.22a5.28,5.28,0,0,0-.35.88v0A3.29,3.29,0,0,0,18.86,27a3.3,3.3,0,0,1-.32,1.83,1.87,1.87,0,0,0-.15,1.3c.13.41.36.84.53,1.23.09.21.29.33.39.53.18.36-.17.55-.57.55s-.95-.24-.81-.74h-.08c-.42,0-.18-.61-.24-.88h0l0-.06v0l-.17-.35a1.51,1.51,0,0,1-.11-.66,7,7,0,0,0,0-1.16c-.07-.53-.24-1-.28-1.57a5.3,5.3,0,0,1,.1-1q0,.09,0,.19,0-.13,0-.26s0-.07,0-.1v.18a8,8,0,0,0-.1-1.75c-.05-.3-.09-.47-.35-.47h-.11a15.89,15.89,0,0,1-3.21.32q-.74,0-1.48-.06c-.46,0-1-.15-1.44-.15h-.37s-.06,0-.15.12a2.51,2.51,0,0,0-.28.37l-.49.62v0l-.3.39A4.19,4.19,0,0,0,7.75,29a7.81,7.81,0,0,0,.8,1.54c.16.32.16.72.36,1s.65.54,0,.63l-.35,0a1.66,1.66,0,0,1-.67-.1c-.2-.11-.19-.14-.13-.43H7.73c-.35,0-.43-.65-.61-.93a5.21,5.21,0,0,1-.74-1.33,8.65,8.65,0,0,1-.82-2.57c0-.89,1.05-1.29,1.18-2.15s-.64-1.57-1-2.26l-.11-.21-.06-.14c0,.09,0,.18,0,.27a3.08,3.08,0,0,1,.07-1.52h0c0-.3.07-.71.13-1h0c0-.14,0-.24,0-.29a.48.48,0,0,1,0-.18,1.84,1.84,0,0,1,.6-.18h0a2.18,2.18,0,0,1,.76.34c.56.27,1.16.43,1.71.71a3.39,3.39,0,0,1,1.92,2.39c.13.42.37.16.57.5l.16.07a5.21,5.21,0,0,0-.11-1.64A3.86,3.86,0,0,0,9.2,18.78a4.94,4.94,0,0,0-1.89-.41,2.92,2.92,0,0,0-1,.16A3.48,3.48,0,0,1,7.12,18l.35-.14v0a5.69,5.69,0,0,1,1.94-.3,23.23,23.23,0,0,1,3.17.34,8.87,8.87,0,0,0,1.21.12,2.86,2.86,0,0,0,.9-.13l.55-.2c.3-.12.59-.25.88-.38s.68-.31,1-.45a5.59,5.59,0,0,1,1.3-.36l.15,0c.31-.08.31-.29.53-.59.06-.09.17-.26.26-.26s.07,0,.1.08c-.07-.32.29-.57.51-.74a3.66,3.66,0,0,1,2-.91H22c.07,0,.19.05.25.05h0c.13,0,.07,0,.24-.1a.61.61,0,0,1,.21,0c.17,0,.32.06.48.06l.15,0c.07,0,.23-.22.33-.26a1.26,1.26,0,0,1,.43-.06h0M6.31,18.53a3.62,3.62,0,0,0-1.2,3,6.23,6.23,0,0,1,0,1.65c-.1.55-.18,1.12-.31,1.67a1.51,1.51,0,0,0-.06,1s.12-.2.16-.25h0s.75-1.06.67-1.46a5.6,5.6,0,0,1-.09-1.79c0,.29.09.59.15.85a7.78,7.78,0,0,1,.19,1.06,2.12,2.12,0,0,1-.14.59c0-.17,0-.27-.07-.27s-.09.2-.22.7c-.25,1-.55,1.08-1.44,1.42s-.94.88-.94.88a1.93,1.93,0,0,1,.66-1.21A5,5,0,0,0,4.61,24a6.83,6.83,0,0,0,.27-1.37s-.14,0-.27.54c-.15-.27.27-1.28.42-2.07a5.94,5.94,0,0,1,.58-2.08s.13-.25.25-.29a2.05,2.05,0,0,1,.46-.23m-.75,3.64,0,0,.11.21a3.2,3.2,0,0,0,.26.47H6c.35.53.86,1.17.76,1.8-.13.86-1.13,1.25-1.18,2.15a2,2,0,0,0,.06.58c-.19.45-.45,1-.46,1.12a3.43,3.43,0,0,1-.22.63,1.23,1.23,0,0,0-.09.38,5.36,5.36,0,0,0-.19.64.72.72,0,0,1-.12.32,3.89,3.89,0,0,0-.17.41s0,.24,0,.27.16.24.16.35.26.49-.17.56H4.22a1.43,1.43,0,0,1-.94-.49c-.16-.18,0-.23,0-.26a3.56,3.56,0,0,0,.35-.58,2.66,2.66,0,0,0,0-.57.84.84,0,0,1,.19-.4,3.66,3.66,0,0,0,.22-.43L5.26,26.3v-.08s0-.1,0-.1-.08.09-.17.4a1,1,0,0,1-.1.28s0-.24,0-.49a5.19,5.19,0,0,0,.5-1c.06-.14.12-.29.18-.44l0,.18a2,2,0,0,0,.12-.77,1,1,0,0,0,0-.27c-.06-.29-.12-.59-.19-.88a3.72,3.72,0,0,1-.1-.89s0,0,0,0h0M10.47,24a5.55,5.55,0,0,1,.73.06l-.09.3c0,.07-.32,1.13-.39,1.59a2.53,2.53,0,0,0,0,.93,8.56,8.56,0,0,0,.44,1.26c.13.24.64,1.53.64,1.53s.32-1.37.43-1.91.24-1.94.24-2.18a4.79,4.79,0,0,1,.39-1l.08-.35h.47l.77,0c-.12.46-.37,1.2-.37,1.33a2.33,2.33,0,0,1-.17.63,2.91,2.91,0,0,1-.53.8,24,24,0,0,0-.53,2.41,4.07,4.07,0,0,1-.12.85,3.2,3.2,0,0,0-.07.68l0,.17.54.66s.32.42.46.44a.22.22,0,0,1,0,.41.87.87,0,0,1-.36.07h-.14l-1.2-.14-.49-.07.19-.54a3.11,3.11,0,0,0,0-.44,4.84,4.84,0,0,1,0-.54s-.22-.46-.24-.53-1-2.32-1.17-2.61A4.89,4.89,0,0,0,9.69,27c-.07-.05-.63-.92-.7-1a3.67,3.67,0,0,1,.21-.94l.51-.65a2.52,2.52,0,0,1,.28-.37l.13-.11h.35m3.72.19h0m5.46,0c.07.18.1.31.1.31s.39,1.05.47,1.15a9.51,9.51,0,0,1,.17,1.51c0,.07,1.19,3.44,1.21,3.58s.1.19.19.41,0,.15,0,.37.27.49.32.61.66.53.66.7-.27.11-.6.11a2.42,2.42,0,0,1-1.12-.2c-.31-.24.14-.71.12-.8a7.68,7.68,0,0,0-.41-.71,4.59,4.59,0,0,1-.19-.73c0-.05-.44-1.54-.78-2.58a15.59,15.59,0,0,0-.64-1.78s-.1-.22-.18-.41a5.68,5.68,0,0,1,.34-.9c.11-.22.22-.43.34-.65M27.23,0a3.18,3.18,0,0,0-1.61.43l-.35,0a3.08,3.08,0,0,0-2.21.94,3.14,3.14,0,0,0-.86,1.81c-.32.27-.39.34-.45.4a6.41,6.41,0,0,0-.64.79,4.32,4.32,0,0,0-.9,1l0,0-.35.28-.16.13a5.55,5.55,0,0,0-1,1h0a6.57,6.57,0,0,0-.64.48l-.86.63c-.18.1-.4.24-.67.44h0c-.22.11-.43.22-.62.33a3.59,3.59,0,0,0-.61.3l-.13,0a3.37,3.37,0,0,0-2.19,1.36c-.12.12-.24.24-.33.35l-.1.09a5.16,5.16,0,0,0-.86.71l-.34.19a3.41,3.41,0,0,0-.37.26l-.12.05-.79.28-.29.09-.36.06h0a4.05,4.05,0,0,0-2.09,1,1.66,1.66,0,0,0-.49.42c-.06.07-.16.17-.27.31a3.65,3.65,0,0,0-1.22,1.41q-.28.16-.53.35l-.39.22A3.59,3.59,0,0,0,3,17.55a7.36,7.36,0,0,0-.87,2.67l-.06.36c0,.15-.1.41-.17.64a5.38,5.38,0,0,0-.29,2.41l-.06.23c0,.14-.08.34-.13.48a4.87,4.87,0,0,0-1.42,3,3,3,0,0,0,.77,2.2q0,.09,0,.18A3.08,3.08,0,0,0,.26,31,3.18,3.18,0,0,0,1,33.55a4.41,4.41,0,0,0,3.21,1.53,3.72,3.72,0,0,0,.56,0,3.39,3.39,0,0,0,1.41-.55l.31.19a4.3,4.3,0,0,0,2.11.47,5.73,5.73,0,0,0,.77,0L9.8,35a3,3,0,0,0,1,.34l.61.08.31,0c.77.09,1,.11,1.13.12h.24a3.84,3.84,0,0,0,1.62-.35,3.25,3.25,0,0,0,1.22-1,4,4,0,0,0,2.82,1.13,4.1,4.1,0,0,0,.79-.08,5,5,0,0,0,2.64.61c3.56,0,3.6-3,3.6-3.11a3.25,3.25,0,0,0-1.06-2.37,3.75,3.75,0,0,0-.13-.39c-.06-.15-.11-.28-.17-.38-.11-.33-.29-.88-.64-1.9l-.39-1.13a6.12,6.12,0,0,0-.44-2.28c.29-.55.56-1.12.82-1.71a4,4,0,0,1,.35-.44l0,0A4,4,0,0,0,27,23.44h.21a4,4,0,0,0,3.82-4,4.8,4.8,0,0,0-1.23-3l-.12-.15a5.07,5.07,0,0,1-.56-.86s-.06-.22-.09-.34L29,15v-.05c0-.13-.07-.25-.1-.37a3.28,3.28,0,0,0-.26-1.43,3.67,3.67,0,0,0-2.19-2l.81-1h.09a5,5,0,0,0,1,.64,3.35,3.35,0,0,0,1.6.42A3.27,3.27,0,0,0,33.14,8a4.26,4.26,0,0,0-.56-2.46,7.62,7.62,0,0,0-.74-1l-.06-.09v0a3.1,3.1,0,0,0-1.1-2.32,4.78,4.78,0,0,0-.37-.3A3.14,3.14,0,0,0,29,.48,3.76,3.76,0,0,0,27.23,0Z"/></g><g class="a"><path class="b" d="M23.95,18.65c-.52-.15-1,.58-1.42.91A8,8,0,0,0,21,21.46c-.33.74-.68,1.45-1.07,2.16A5.83,5.83,0,0,0,18.86,27a3.3,3.3,0,0,1-.32,1.83,1.87,1.87,0,0,0-.15,1.3c.13.41.36.84.53,1.23.09.21.29.33.39.53.39.77-1.64.76-1.37-.19-.57.09-.23-.66-.34-.92.09.22-.12-.22-.16-.3a1.51,1.51,0,0,1-.11-.66,7,7,0,0,0,0-1.16c-.08-.53-.24-1-.28-1.57a10.68,10.68,0,0,1,.11-1.18q0,.18,0,.36a8.06,8.06,0,0,0-.09-1.94c-.06-.34-.09-.5-.46-.46a16.6,16.6,0,0,1-4.69.26,12.11,12.11,0,0,0-1.6-.15c-.24,0-.14-.06-.34.12a2.52,2.52,0,0,0-.28.37c-.27.35-.55.69-.81,1A4.19,4.19,0,0,0,7.75,29a7.82,7.82,0,0,0,.8,1.54c.16.32.16.72.36,1s.65.54,0,.63a2.31,2.31,0,0,1-1-.08c-.2-.11-.19-.14-.13-.43-.41.08-.48-.62-.68-.93a5.21,5.21,0,0,1-.74-1.33,8.65,8.65,0,0,1-.82-2.57c0-.89,1.05-1.29,1.18-2.15s-.92-1.87-1.22-2.6a5.24,5.24,0,0,0,0,2.06c.09.42-.74,1.6-.67,1.44,0,0-.17.2-.16.25a1.51,1.51,0,0,1,.06-1c.13-.55.21-1.11.31-1.67a6.23,6.23,0,0,0,0-1.65,3.55,3.55,0,0,1,2-3.49c1.68-.79,3.71-.34,5.46-.09a4.49,4.49,0,0,0,2.1,0,13.74,13.74,0,0,0,1.41-.58,8.49,8.49,0,0,1,2.33-.82c.43-.06.41-.28.66-.62.09-.12.25-.4.36-.18-.07-.32.29-.57.51-.74a3.49,3.49,0,0,1,2.06-.9,2.53,2.53,0,0,0,.26.05c.13,0,.07,0,.24-.1s.56.09.84,0c.07,0,.23-.22.33-.26a1.26,1.26,0,0,1,.43-.06,3.37,3.37,0,0,1,.88.12c.28.07.69.18.81.47s-.14.41-.14.6a4.65,4.65,0,0,0,.29.54c0,.1.06.21.09.32a5.59,5.59,0,0,0,.27.85,7.42,7.42,0,0,0,.92,1.46A2.53,2.53,0,0,1,28,19.47a1,1,0,0,1-1,1,1.05,1.05,0,0,1-.81-.35,3.67,3.67,0,0,1-.43-.47s-.19-.13-.27-.21A3.86,3.86,0,0,0,23.95,18.65Z"/></g><path class="c" d="M25.82,3.8l0,0S25.83,3.83,25.82,3.8Zm.76.11h0S26.57,3.91,26.57,3.91ZM6.72,24.66c.09-.63-.41-1.27-.76-1.8,0,0-.38-.73-.39-.69s-.05,0-.05,0a3.72,3.72,0,0,0,.1.89c.07.29.12.59.19.88a2.39,2.39,0,0,1-.31,1.3,5.19,5.19,0,0,1-.5,1c0,.38-.09.77.08.22s.2-.38.2-.3v.08L4.12,29.37a3.66,3.66,0,0,1-.22.43.84.84,0,0,0-.19.4,2.66,2.66,0,0,1,0,.57,3.56,3.56,0,0,1-.35.58s-.2.07,0,.26a1.34,1.34,0,0,0,1,.48c.44-.07.17-.44.17-.56s-.17-.32-.16-.35,0-.25,0-.27a3.89,3.89,0,0,1,.17-.41.72.72,0,0,0,.12-.32,5.36,5.36,0,0,1,.19-.64,1.23,1.23,0,0,1,.09-.38,3.43,3.43,0,0,0,.22-.63c0-.07.28-.66.46-1.12a2,2,0,0,1-.06-.58C5.59,25.92,6.59,25.52,6.72,24.66Zm12.44,1.48a15.59,15.59,0,0,1,.64,1.78c.34,1,.78,2.53.78,2.58a4.59,4.59,0,0,0,.19.73,7.68,7.68,0,0,1,.41.71c0,.08-.42.56-.12.8s1.71.25,1.71.08-.61-.58-.66-.7-.32-.39-.32-.61.08-.15,0-.37-.17-.27-.19-.41-1.21-3.51-1.21-3.58a9.51,9.51,0,0,0-.17-1.51c-.09-.1-.47-1.15-.47-1.15s0-.13-.1-.31A7.53,7.53,0,0,0,19,25.71C19.05,25.92,19.12,26.09,19.16,26.14Zm-6.21-2-.08.35a4.79,4.79,0,0,0-.39,1c0,.24-.14,1.64-.24,2.18s-.43,1.91-.43,1.91-.51-1.29-.64-1.53a8.56,8.56,0,0,1-.44-1.26,2.53,2.53,0,0,1,0-.93c.07-.46.37-1.52.39-1.59l.09-.3a4.67,4.67,0,0,0-.89-.06c-.24,0-.14-.06-.34.12a2.51,2.51,0,0,0-.28.37l-.49.62A3.78,3.78,0,0,0,9,26c.07.07.63.93.7,1a4.89,4.89,0,0,1,.41.71c.15.29,1.15,2.55,1.17,2.61s.24.53.24.53a4.84,4.84,0,0,0,0,.54,3.11,3.11,0,0,1,0,.44l-.19.54.49.07,1.2.14a1,1,0,0,0,.51-.07.22.22,0,0,0,0-.41c-.14,0-.46-.44-.46-.44L12.42,31l0-.17a3.2,3.2,0,0,1,.07-.68,4.07,4.07,0,0,0,.12-.85,24,24,0,0,1,.53-2.41,2.91,2.91,0,0,0,.53-.8,2.33,2.33,0,0,0,.17-.63c0-.13.25-.87.37-1.33C13.77,24.17,13.36,24.17,13,24.16ZM30,7a7.25,7.25,0,0,0-.57-.75s-.48-.71-.53-.8a1.58,1.58,0,0,1-.16-.42c0-.08-.07-.29-.07-.4s.16-.23.07-.3-.28-.26-.29-.21-.12.06-.12.06l-.12,0H28.1S28,4.15,28,4.11s.08-.06,0-.09,0,0-.17-.07a1.24,1.24,0,0,1-.24-.23s.12-.51,0-.59-.47-.25-.54,0,0,.25,0,.25-.24,0-.26,0-.18.22-.17.29.13,0,0,.14l-.09.09s0,0,0,0,0,0,0,0a2.37,2.37,0,0,0-.29-.25S26,3.47,26,3.47a.48.48,0,0,0-.2.27.14.14,0,0,0,0,.06s0,0,0,0,0,0,0,0-.34-.29-.37-.29-.28-.28-.26.16a1.25,1.25,0,0,0,.07.53c0,.06.11.27.11.27S24,5.55,23.88,5.69a4,4,0,0,0-.45.61c0,.1-.63.53-.68.65a3.8,3.8,0,0,1-.63.72c-.11.07-.68.55-.74.59s-.6.66-.68.73-.63.43-.69.5-1.22.91-1.24.91l-.66.44c-.07,0-.72.35-.82.45s-.45.16-.46.2-.12.13-.12.13l-.82.26c-.12,0-.44.07-.49.16a1.07,1.07,0,0,1-.31.4c-.16.1-.35.38-.38.38a2.67,2.67,0,0,0-.26.26,5.38,5.38,0,0,0-.63.47,1.58,1.58,0,0,1-.39.39l-.59.31c-.08,0-.16.17-.28.24l-.58.26c-.07,0-1.07.39-1.19.41a3.38,3.38,0,0,1-.47.13c-.18,0-.49.08-.52.08a1.09,1.09,0,0,0-.49.26,2.88,2.88,0,0,1-.35.28s-.16.16-.16.21-.1.1-.12.12l-.36.3c-.07,0-.26.16-.32.3a4.48,4.48,0,0,1-.3.54,4.51,4.51,0,0,0-.24.47c1.61-.58,3.47-.19,5.11,0a4.49,4.49,0,0,0,2.1,0,13.72,13.72,0,0,0,1.41-.58,8.49,8.49,0,0,1,2.33-.82.55.55,0,0,0,.35-.16,1.21,1.21,0,0,1,.12-.76A24.55,24.55,0,0,1,21.11,13a24.24,24.24,0,0,0,2.26-2.94c.05-.08,1.37-1.65,1.63-2a12.59,12.59,0,0,1,1.09-1.41c.14-.05.36,0,.41-.08a.36.36,0,0,1,.44,0,1.84,1.84,0,0,0,.76.51c.17,0,.87.07.87.07a2.61,2.61,0,0,1,.31.28,3.41,3.41,0,0,0,.77.58c.11,0,.48.4.52-.35A1.29,1.29,0,0,0,30,7ZM18.9,27.33a2.15,2.15,0,0,1-.1.74A13,13,0,0,1,17.22,28a2,2,0,0,1-.07-.37,7.68,7.68,0,0,0,1.32.07c-.29-.21-1-.19-1.38-.33a3,3,0,0,1,0-.52A16.53,16.53,0,0,1,18.9,27.33ZM17.13,16.88l0,0-.33.14a9.9,9.9,0,0,0,0,2.11,6.33,6.33,0,0,1-.29,2c-.14.48-.62,1.12-.4,1.59.19-.6.51-.48.8-1,.18-.36.3-1.51.52-1.66.27.86,2.08,2.35,2.87,3.14l.12-.23a23.76,23.76,0,0,0-1.83-2.86C17.74,18.83,17.18,18.35,17.13,16.88Zm0,8.2A2.1,2.1,0,0,0,18.35,25a2.68,2.68,0,0,0-1.28-.74c.72-.21,1.56.28,2.31.42,0,.06-.24.56-.32.77a6.09,6.09,0,0,1-1.88-.29A.38.38,0,0,1,17.17,25.08ZM8.27,30l.08.14c-.51,0-.84.3-1.37.35,0,0,0-.06-.06-.11a1.51,1.51,0,0,0,.3-.05.53.53,0,0,0-.44-.15c0-.08-.1-.16-.14-.24.24,0,.43.09.72.1A6.4,6.4,0,0,0,8.27,30Zm.28.48a3,3,0,0,0,.8,1c.45.32.28.27,0,.49A1.9,1.9,0,0,1,7.87,32c-.22-.08-.1-.34-.19-.39-.32-.17-.2-.07-.36-.48,0-.1-.17-.36-.24-.54A5.64,5.64,0,0,1,8.54,30.49Zm9.79-.85c0,.06,0,.3,0,.35-.4.09-.51.36-.92.46a1.17,1.17,0,0,1-.12-.29,1.1,1.1,0,0,1,0-.26A8.78,8.78,0,0,0,18.33,29.64Zm.89,2.06a.41.41,0,0,1-.24.74,1.37,1.37,0,0,1-1-.24c-.13-.16,0-.41-.3-.57s-.07-.57-.09-.82c.53,0,.46-.34,1-.25C18.7,30.72,19,31.58,19.22,31.7ZM7.68,28.47a6.8,6.8,0,0,0-1.58.17l-.17-.37a9,9,0,0,1,1.78-.41A5.31,5.31,0,0,0,7.68,28.47Zm.7-5.05a8.59,8.59,0,0,1-2.16-.2,8.63,8.63,0,0,1-.7-1.16c.45.11.75.13,1.16.23a9.66,9.66,0,0,0,1.71.14c.52,0,1.22.85,1.39,1.21,0,0,.14.48.07.53A1.91,1.91,0,0,0,8.38,23.42ZM5.81,26.11c0-.12.55-.64.61-.77.2.06.27.22.47.3a7.62,7.62,0,0,0,1.71.25c0,.08-.37.57-.39.64C7.66,26.57,6.19,26.53,5.81,26.11Zm11.28-3c.34-.33,1-.41,1.09-.91h0c.18.17.61.52.64.73-.37-.22-.93.19-1.28.4A1,1,0,0,0,17,24a.24.24,0,0,0-.23-.17A1.24,1.24,0,0,1,17.09,23.08Zm-3.6-.86c.06-.46,0-.92,0-1.4a2.67,2.67,0,0,0-1.06-2.63l-.38-.34.68.1a4.64,4.64,0,0,1,.92.76c.08.16,0,.67.21.73s.29-.4.27-.55a1,1,0,0,0-.66-.85s.17,0,.49,0a1.5,1.5,0,0,0,.5-.08c.25,0,.26.74.21,1.06-.16,1.11-.45,2.39-.7,3.49a2.13,2.13,0,0,0-.09.76S13.43,23,13.5,22.22Zm12.9-2.75c.29-.06.28-.16.54-.33s.06-.7.1-.72.21.21.32.41-.09.44,0,.65.35.37.56.47a1.73,1.73,0,0,1-.2.36c-.13.14-.63.13-.95.17s-.5-.42-.69-.55c0,0-.12-.15-.14-.16C26,19.56,26.18,19.52,26.4,19.47Zm1.09-.36c.06-.15.25,0,.43.24a.69.69,0,0,1-.13.21l0,0a.4.4,0,0,0-.15-.07C27.42,19.5,27.41,19.31,27.49,19.11Zm-1.63-.31a5.55,5.55,0,0,1,1.07-.12h0c-.35.53-1.25-.06-1.28.82a.57.57,0,0,1-.17-.15C25.51,19.11,25.55,18.93,25.85,18.81Zm-.24-1.16c.51,0,1.07-.09,1.33.49A1.81,1.81,0,0,0,25.36,18c-.42.22-.27.62-.34,1-.09,0-.14-.09-.25-.13a3.08,3.08,0,0,1,.06-.85C25,17.66,25.15,17.69,25.61,17.65Zm-1-1.1c.16.3-.33.79-.5,1.22s0,.59,0,.9l-.19,0a3,3,0,0,1,.35-1.87S24.42,16.25,24.58,16.55Zm1.1-.72h0c-.17,0-.22-.44-.25-.63a1.24,1.24,0,0,1,.06-.61l.08.08C25.46,15,25.66,15.51,25.68,15.83Zm.11.06a1.5,1.5,0,0,0,.24.67c.15.22.55.78.55.78a6.88,6.88,0,0,1-.85-1C25.66,16.15,25.78,15.73,25.8,15.89Zm.07.88.69.7a4.92,4.92,0,0,1-.78-.59C25.76,16.78,25.77,16.67,25.87,16.77Zm-.72,0c-.2,0-.16-.18-.24-.31s-.25-.12-.07-.16.19-.12.42-.14.67.65.46.53S25.35,16.8,25.15,16.76ZM23.65,14c.32-.24.58.07,1,.42a1.11,1.11,0,0,0-.77-.12.53.53,0,0,0-.26.68h0A.61.61,0,0,1,23.65,14ZM11.42,23.15l-.16-.07c-.2-.34-.44-.08-.57-.5a3.39,3.39,0,0,0-1.92-2.39c-.55-.29-1.15-.45-1.71-.71a2.18,2.18,0,0,0-.76-.34,1.7,1.7,0,0,0-.63.18.48.48,0,0,0,0,.18s0,.14,0,.29h0c-.06.3-.1.71-.13,1h0a4.74,4.74,0,0,0,.08,2.37A3,3,0,0,1,5.69,25c-.09-.57-.06-.74-.31.24s-.55,1.08-1.44,1.42-.94.88-.94.88a1.93,1.93,0,0,1,.66-1.21A5,5,0,0,0,4.6,24a6.83,6.83,0,0,0,.27-1.37s-.14,0-.27.54c-.15-.27.27-1.28.42-2.07a5.94,5.94,0,0,1,.58-2.08s.13-.25.25-.29a3.74,3.74,0,0,1,3.34,0,3.86,3.86,0,0,1,2.11,2.73A5.21,5.21,0,0,1,11.42,23.15Zm12.69-6.71-.08.06v0l-.14.09a9.15,9.15,0,0,0-.17-1.36h.05l.15-.17,0,.22.27-.14-.14.22.26-.22-.11.33.25-.17-.19.52h.32l-.11.17.18-.11s-.19.24-.38.46l-.12.08ZM25,14.07a2.52,2.52,0,0,0,.06.76,3.77,3.77,0,0,1,.19.85c-.11,0-.23-.35-.3-.48a.79.79,0,0,1-.13-.51c0-.17,0-.35.07-.52Zm-5.1,2.28s-.29-.64-.42-1a.43.43,0,0,0-.1.35c-.11-.22-.27,0-.36.17a1,1,0,0,1,.41.43l.08.3a10.93,10.93,0,0,0,.87,2.18,15.24,15.24,0,0,0,1,1.95c.09-.12.18-.24.28-.35-.19-.73-1-2-1.19-2.53S19.95,16.36,19.95,16.36Zm1.59-2.23a2.59,2.59,0,0,0-.43.14,1.93,1.93,0,0,1,.42.68c.44,1.15.67,3.1,1.23,4.38L23.1,19A29.5,29.5,0,0,1,22,14.85,5.46,5.46,0,0,0,21.54,14.13Z"/></svg>