<svg xmlns="http://www.w3.org/2000/svg" width="37.0001" height="34.9401" viewBox="0 0 37.0001 34.9401"><title>alien_plant_control-black</title><g id="Layer_2" data-name="Layer 2"><g id="Layer_1-2" data-name="Layer 1"><g opacity="0.8"><path d="M24.8509,33.9336l-4.6445-.541-5.8867.5439c-.0312.0029-.0615.0039-.0918.0039a1,1,0,0,1-.9014-1.4336l-6.291-.2793a1,1,0,0,1-.9521-.915.9871.9871,0,0,1,.0566-.4258l-4.2656-.543a1,1,0,0,1,.125-1.9922c.0166,0,11.7295.5811,11.7295.5811.03-.4775.0527-1.0693.0566-1.7979.0078-1.249-.1133-2.7754-.7324-2.959-.0322-.01-.0645-.0215-.0957-.0342a1.0734,1.0734,0,0,0-.4092-.07c-1.4795,0-4.0078,1.9316-5.2529,3.1484a1,1,0,0,1-1.55-1.24c.1416-.2295,1.4-2.2607,1.9893-2.958.1123-.1338.2139-.2646.3135-.3916a5.6048,5.6048,0,0,1,3.4863-2.2637,4.2355,4.2355,0,0,1,.6973-.14,2.8453,2.8453,0,0,1-.1055-.6836,39.35,39.35,0,0,1,.3018-5.0928,1,1,0,0,1,1.585-.6826c1.084.7969,4.5918,3.5771,4.2207,5.8857a2.2483,2.2483,0,0,1-1.2031,1.63c.0234.5742.0439,1.44.0166,2.3994a5.0926,5.0926,0,0,1,1.4844-.2656c.0166-.0547.0352-.11.0566-.166a3.6835,3.6835,0,0,1,2.7-1.9111,4.7177,4.7177,0,0,1,1.2441-.1621c2.9648,0,5.93,2.5791,6.0537,2.6885a1,1,0,0,1-1.0869,1.6553h0A3.9176,3.9176,0,0,0,26.0951,25.3a6.7919,6.7919,0,0,0-2.7881.6514,5.6,5.6,0,0,1-2.2207.6416,2.3855,2.3855,0,0,1-1.2119-.3437,1.7312,1.7312,0,0,0-.9893-.2383c-.1445,0-.3057.0078-.4863.0244-1.5615.1484-1.8984,2.3271-1.9561,3.6895H19.39a1,1,0,0,1,.9619.7275.9664.9664,0,0,1,.0322.165c.0186-.001.0361-.002.0547-.002a1.02,1.02,0,0,1,.2813.04L25.2474,31.98a1,1,0,0,1-.28,1.96A.9386.9386,0,0,1,24.8509,33.9336Z" fill="#fff"/><path d="M13.42,14.5736s6.5156,4.79,2.5769,6.073a31.0262,31.0262,0,0,1-.0972,5.09,2.6277,2.6277,0,0,1,.7917-.7944,4.1676,4.1676,0,0,1,2.8821-.4393s-.8784-1.4163,1.9785-2.1982a3.71,3.71,0,0,1,.98-.1265c2.6223,0,5.3943,2.4386,5.3943,2.4386a4.6436,4.6436,0,0,0-1.8306-.3176,7.7547,7.7547,0,0,0-3.2.7408,4.7945,4.7945,0,0,1-1.81.5531c-.7493,0-.8259-.5828-2.2019-.5826-.1719,0-.3643.009-.58.03-2.87.272-2.9214,4.35-2.86,5.6844h3.9456l-2.0007,1.2334,3.0505-.343L24.9664,32.94l-4.7483-.5519-5.99.5519,1.5737-1.3251-8.7229-.3865,3.5886-.7732L2,29.3513l12.2283.6078-1.2971.7659h1.5854a18.3988,18.3988,0,0,0,.269-3.5845c.0168-2.7842-.57-3.6631-1.4487-3.924a2.06,2.06,0,0,0-.7886-.1454c-2.4392,0-5.9521,3.4341-5.9521,3.4341s1.345-2.178,1.9021-2.8384a5.0873,5.0873,0,0,1,3.3079-2.3392,2.8135,2.8135,0,0,1,.76-.12c1.4146,0,1.1934,1.5848,1.1934,1.5848a3.762,3.762,0,0,1,1.5393,2.6246,18.6517,18.6517,0,0,0,.31-4.6926,3.6854,3.6854,0,0,1-.9543.1343,1.3345,1.3345,0,0,1-1.53-1.3535,39.1763,39.1763,0,0,1,.2944-4.932m2.5664,5.4478a7.9641,7.9641,0,0,0-.239-2.65,3.6645,3.6645,0,0,1,0,1.5734,22.9844,22.9844,0,0,0-1.0493-2.4194c.5894,3.165,1.2883,3.4962,1.2883,3.4962m-5.7417,2.3922a8.2687,8.2687,0,0,1,2.3811-.5459,1.0148,1.0148,0,0,1,.8579.3033s-.094-.6855-.9958-.6855a3.73,3.73,0,0,0-1.5068.4128l-.7363.5153m10.9607,2.79a2.3147,2.3147,0,0,0,1.0554-.3053,7.3009,7.3009,0,0,1,3.3767-.92,3.2444,3.2444,0,0,1,.5435.0369,2.0716,2.0716,0,0,0-1.12-.2018,7.2814,7.2814,0,0,0-.9783.0731,11.9732,11.9732,0,0,0-3.2388.9573c-.28.1161-.1064.36.3611.36M13.42,12.5736a2,2,0,0,0-1.9846,1.7549,41.6788,41.6788,0,0,0-.3127,5.115,6.5885,6.5885,0,0,0-3.863,2.5715c-.0916.1176-.1851.2385-.2893.3621-.6211.7363-1.8376,2.6926-2.0752,3.0773a2,2,0,0,0-.0391,2.0364l-2.7561-.137c-.0339-.0017-.0674-.0024-.1008-.0024a2,2,0,0,0-.2512,3.984l3.4058.4337A2.0006,2.0006,0,0,0,6.99,33.2264l5.3069.2351a2,2,0,0,0,1.93,1.4784c.0613,0,.1228-.0027.1846-.0084l5.7825-.5327,4.5413.5278a2.0292,2.0292,0,0,0,.2329.0134,2,2,0,0,0,.56-3.92l-4.4021-1.2886a2.0006,2.0006,0,0,0-1.7366-1.0074H17.5435c.1428-.889.4355-1.6447.9492-1.6934.1458-.0138.2756-.0206.3916-.0206a.7879.7879,0,0,1,.5188.1212,3.357,3.357,0,0,0,1.6831.4614,6.4687,6.4687,0,0,0,2.6328-.73,5.8022,5.8022,0,0,1,2.3767-.5636,3.2093,3.2093,0,0,1,1.0034.14,1.909,1.909,0,0,0,.8921.2231,1.9906,1.9906,0,0,0,1.626-.8739,2.0431,2.0431,0,0,0-.37-2.6736c-.3418-.3007-3.4333-2.9369-6.7153-2.937a5.7193,5.7193,0,0,0-1.5073.1971,5.2435,5.2435,0,0,0-2.9695,1.7869q-.0029-.1893-.0073-.3623a3.1755,3.1755,0,0,0,1.1726-1.9879c.1855-1.1544-.1672-3.5795-4.6162-6.85a2,2,0,0,0-1.1848-.3885ZM8.2845,27.6613c1.4109-1.2972,3.3635-2.59,4.2639-2.59l.0313.001a6.4667,6.4667,0,0,1,.2061,2.0563q-.0026.4081-.012.756l-4.4893-.2231Z" fill="#fff"/></g><g opacity="0.8"><path d="M29.596,16.7744a1.0074,1.0074,0,0,1-.3652-.0684.9983.9983,0,0,1-.3643.0684H24.2191a1.4874,1.4874,0,0,1-.8271-.2656,1.2985,1.2985,0,0,1-.5488-1.1094V2.376A1.3774,1.3774,0,0,1,24.2191,1H31.82a1.3618,1.3618,0,0,1,1.1006.5518l2.8,3.6738a1.4631,1.4631,0,0,1,.28.832v4.3369a.9951.9951,0,0,1-.332.7441,1.3142,1.3142,0,0,1,.0762.4189,1.2936,1.2936,0,0,1-.373.9287l-.5312.5283a1.0173,1.0173,0,0,1-.166.1338.99.99,0,0,1-.1348.167l-3.1641,3.166a.9993.9993,0,0,1-.707.293Zm-.7344-2.751c.0088-.01,3.19-3.1943,3.19-3.1943a.9739.9739,0,0,1,.168-.1357.99.99,0,0,1,.1377-.17L32.8841,10a1.2651,1.2651,0,0,1,.3643-.2549V7.4326h-.8271c.0127.0107.0254.0225.0371.0342A1.0018,1.0018,0,0,1,32.76,8.17l.0107.8369a1,1,0,0,1-.9873,1.0127s-6.1748.0791-6.1885.0781V10.57c.0117-.001,3.3809-.001,3.3809-.001a.9994.9994,0,0,1,1,1v.8369a.9994.9994,0,0,1-1,1s-3.3691,0-3.3809-.001v.6182ZM25.5951,7.2617l5.374-.0693a1.374,1.374,0,0,1-.6006-1.1348V3.751H25.5951v.125c.0117-.001,3.3809-.001,3.3809-.001a.9994.9994,0,0,1,1,1v.8369a.9994.9994,0,0,1-1,1s-3.3691,0-3.3809-.001Z" fill="#fff"/><path d="M31.8192,2a.3567.3567,0,0,1,.3005.15l2.8052,3.6815A.4045.4045,0,0,1,35,6.0573v4.3369h-.7515V6.433H31.7442a.3853.3853,0,0,1-.3757-.3757V2.7513H24.5948v12.272h4.2717v.7513H24.2193a.5256.5256,0,0,1-.2756-.1.3421.3421,0,0,1-.1-.2755V2.3756A.3851.3851,0,0,1,24.2193,2h7.6M32.12,5.6565H33.848L32.12,3.3274V5.6565m-3.1433-.7812V5.712H25.6295V4.8752h3.3469M31.76,8.1829l.0107.8367-6.1355.0787-.0107-.8367L31.76,8.1829m2.033,2.4427a.2737.2737,0,0,1,.1995.0836l.6692.6693a.2848.2848,0,0,1,0,.4033l-.5264.5234-1.0725-1.0726.5264-.5234a.2881.2881,0,0,1,.2039-.0836m-1.0334.91,1.0728,1.0725-3.1636,3.1663H29.596V14.7021l3.1633-3.1663m-3.783.0332v.8368H25.6295v-.8368h3.3469M31.8192,0h-7.6a2.3783,2.3783,0,0,0-2.3757,2.3756V15.399a2.2761,2.2761,0,0,0,.99,1.9392,2.5038,2.5038,0,0,0,1.3857.4364h4.6472a2.0059,2.0059,0,0,0,.3647-.0332,2.0059,2.0059,0,0,0,.3647.0332h1.0725a2,2,0,0,0,1.4148-.5864l3.1636-3.1663a1.9855,1.9855,0,0,0,.1431-.1592,2.0038,2.0038,0,0,0,.1553-.1393l.5264-.5234a2.3038,2.3038,0,0,0,.6733-1.6522c-.0007-.054-.0034-.1079-.0081-.1615A1.99,1.99,0,0,0,37,10.3942V6.0573a2.4028,2.4028,0,0,0-.41-1.3337q-.0352-.0531-.074-.1039L33.7105.9381A2.3462,2.3462,0,0,0,31.8192,0Z" fill="#fff"/></g><path d="M18.304,25.04c2.793-.2643,1.5638,1.3675,4.5917,0a6.3211,6.3211,0,0,1,5.0306-.4232s-3.516-3.0932-6.3743-2.3121-1.9786,2.1982-1.9786,2.1982a4.1628,4.1628,0,0,0-2.882.4393,2.6251,2.6251,0,0,0-.7918.7945,31.0166,31.0166,0,0,0,.097-5.09c3.9389-1.2834-2.5768-6.073-2.5768-6.073a39.1725,39.1725,0,0,0-.2945,4.932c.0737,1.95,2.4843,1.2193,2.4843,1.2193a18.6479,18.6479,0,0,1-.31,4.6925A3.7618,3.7618,0,0,0,13.76,22.7929s.2934-2.1-1.9538-1.4652a5.0864,5.0864,0,0,0-3.3079,2.3392c-.5573.66-1.9022,2.8384-1.9022,2.8384S10.96,22.24,13.3369,23.2165c.8793.2609,1.4656,1.14,1.4488,3.924a18.4216,18.4216,0,0,1-.2689,3.5844H12.9312l1.2972-.7659L2,29.3514l8.6677,1.1039-3.5886.7731,8.7227.3866L14.228,32.94l5.99-.5519,4.7483.5519-4.5271-1.3251-3.05.343L19.39,30.7245H15.4438C15.3827,29.39,15.4339,25.312,18.304,25.04Zm2.54-.1967a11.975,11.975,0,0,1,3.2387-.9572c1.62-.2208,2.0978.1287,2.0978.1287a6.5238,6.5238,0,0,0-3.92.8831C21.081,25.5221,20.4056,25.0255,20.8441,24.8433Zm-10.6-2.43.7364-.5153c2.3186-1.0676,2.5027.2727,2.5027.2727C12.9125,21.3678,10.2444,22.4136,10.2444,22.4136Zm4.4534-5.8885a22.9582,22.9582,0,0,1,1.0493,2.4194,3.6619,3.6619,0,0,0,0-1.5733,7.9663,7.9663,0,0,1,.2391,2.65S15.2872,19.69,14.6978,16.5251Z" fill="#1a2026"/><path d="M34.1352,12.3053l-1.0726-1.0726.5263-.5234a.2848.2848,0,0,1,.4033,0l.6693.6693a.2848.2848,0,0,1,0,.4033Zm-1.3758-.7694,1.0726,1.0726-3.1634,3.1663H29.596V14.7021ZM25.635,9.0983,31.7705,9.02,31.76,8.1829l-6.1355.0788ZM25.6294,5.712h3.3469V4.8753H25.6294Zm0,6.6938h3.3469v-.8367H25.6294Zm-1.0345,2.6175V2.7513h6.7735V6.0573a.3852.3852,0,0,0,.3757.3757h2.5045v3.9613H35V6.0573a.4041.4041,0,0,0-.0751-.2254L32.12,2.15A.3571.3571,0,0,0,31.8193,2h-7.6a.3852.3852,0,0,0-.3757.3757V15.399a.342.342,0,0,0,.1.2755.525.525,0,0,0,.2755.1h4.6474v-.7513ZM32.12,3.3274l1.7281,2.3292H32.12Z" fill="#1a2026"/></g></g></svg>