<svg xmlns="http://www.w3.org/2000/svg" width="37.0001" height="34.9402" viewBox="0 0 37.0001 34.9402"><title>alien_plant_control-red</title><g id="Layer_2" data-name="Layer 2"><g id="Layer_1-2" data-name="Layer 1"><g opacity="0.8"><path d="M24.8516,33.9335l-4.6455-.54-5.8857.543c-.0312.0029-.0615.0039-.0918.0039a1,1,0,0,1-.9014-1.4336l-6.292-.2793a1,1,0,0,1-.9521-.915.9871.9871,0,0,1,.0566-.4258l-4.2656-.543a1,1,0,0,1,.125-1.9922c.0166,0,11.7295.5811,11.7295.5811.03-.4775.0527-1.0693.0576-1.7979.0078-1.249-.1143-2.7754-.7334-2.959-.0322-.01-.0645-.0215-.0957-.0342a1.0717,1.0717,0,0,0-.4082-.07c-1.4756,0-4.0049,1.9326-5.2539,3.15A1,1,0,0,1,5.7462,25.98c.1416-.2295,1.4-2.2617,1.9873-2.958.1133-.1338.2148-.2656.3145-.3926a5.6047,5.6047,0,0,1,3.4873-2.2637,4.2249,4.2249,0,0,1,.6963-.14,2.83,2.83,0,0,1-.1055-.6826,39.7134,39.7134,0,0,1,.3018-5.0928.9993.9993,0,0,1,1.584-.6826c1.085.7969,4.5928,3.5762,4.2217,5.8848a2.2483,2.2483,0,0,1-1.2031,1.63c.0234.5742.0439,1.44.0166,2.4a5.0926,5.0926,0,0,1,1.4844-.2656c.0156-.0557.0352-.1113.0566-.167a3.6835,3.6835,0,0,1,2.7-1.9111,4.7177,4.7177,0,0,1,1.2441-.1621c2.9658,0,5.9307,2.5791,6.0547,2.6885A1,1,0,0,1,27.5,25.5214h0A3.9138,3.9138,0,0,0,26.0948,25.3a6.7919,6.7919,0,0,0-2.7881.6514,5.5959,5.5959,0,0,1-2.2207.6416,2.3992,2.3992,0,0,1-1.2119-.3428,1.7251,1.7251,0,0,0-.9912-.2393c-.1436,0-.3047.0078-.4854.0244-1.5625.1484-1.8984,2.3281-1.9551,3.6895H19.39a1,1,0,0,1,.9619.7275.9664.9664,0,0,1,.0322.165c.0186-.001.0371-.002.0557-.002a1.02,1.02,0,0,1,.2813.04L25.2481,31.98a1,1,0,0,1-.28,1.96A.9386.9386,0,0,1,24.8516,33.9335Z" fill="#fff"/><path d="M13.42,14.5737s6.5159,4.79,2.5769,6.073a31.0119,31.0119,0,0,1-.0969,5.09,2.6221,2.6221,0,0,1,.7917-.7944,4.1669,4.1669,0,0,1,2.8818-.4393s-.8784-1.4164,1.9788-2.1982a3.71,3.71,0,0,1,.98-.1265c2.6221,0,5.394,2.4386,5.394,2.4386a4.6406,4.6406,0,0,0-1.8306-.3177,7.7563,7.7563,0,0,0-3.2.741,4.7937,4.7937,0,0,1-1.8093.5531c-.7493,0-.8264-.5828-2.2019-.5826-.1719,0-.3643.009-.5806.03-2.87.272-2.9211,4.35-2.86,5.6844H19.39L17.389,31.958l3.05-.343L24.9664,32.94l-4.7483-.552-5.99.552,1.5737-1.3251-8.7227-.3866,3.5886-.7731L2,29.3514l12.2285.6077-1.2974.7659h1.5857a18.4267,18.4267,0,0,0,.2688-3.5844c.0168-2.7842-.5693-3.6632-1.4487-3.9241a2.0594,2.0594,0,0,0-.7886-.1454c-2.439,0-5.9521,3.4342-5.9521,3.4342s1.345-2.178,1.9023-2.8385a5.0859,5.0859,0,0,1,3.3079-2.3391,2.8121,2.8121,0,0,1,.76-.12c1.4143,0,1.1934,1.5848,1.1934,1.5848A3.7628,3.7628,0,0,1,15.3,25.4175a18.65,18.65,0,0,0,.31-4.6925,3.683,3.683,0,0,1-.9543.1343,1.3345,1.3345,0,0,1-1.53-1.3535,39.1763,39.1763,0,0,1,.2944-4.932m2.5667,5.4476a7.969,7.969,0,0,0-.2393-2.65,3.6589,3.6589,0,0,1,0,1.5734,22.9291,22.9291,0,0,0-1.0493-2.4193c.59,3.1649,1.2886,3.4961,1.2886,3.4961m-5.7419,2.3923a8.2674,8.2674,0,0,1,2.3813-.546,1.0152,1.0152,0,0,1,.8579.3035s-.094-.6855-.9958-.6855a3.73,3.73,0,0,0-1.5068.4128l-.7366.5153m10.9609,2.79a2.3147,2.3147,0,0,0,1.0552-.3053,7.3,7.3,0,0,1,3.3765-.92,3.25,3.25,0,0,1,.5437.0369,2.0711,2.0711,0,0,0-1.1194-.2018,7.2786,7.2786,0,0,0-.9783.0731,11.9684,11.9684,0,0,0-3.2388.9572c-.28.1162-.1067.36.3611.36M13.42,12.5737a2,2,0,0,0-1.9846,1.7549,41.6808,41.6808,0,0,0-.3127,5.115,6.5892,6.5892,0,0,0-3.8633,2.5719c-.0913.1174-.1848.2383-.2891.3618-.6211.7361-1.8376,2.6925-2.0752,3.0771a2,2,0,0,0-.0391,2.0364l-2.7561-.137c-.0337-.0017-.0674-.0024-.1008-.0024a2,2,0,0,0-.2512,3.984l3.406.4337a2.0005,2.0005,0,0,0,1.8372,1.4573l5.3066.2352a2.0023,2.0023,0,0,0,1.93,1.4784c.0613,0,.1228-.0027.1846-.0084l5.7825-.533,4.5413.528a2,2,0,0,0,.7927-3.906l-4.4019-1.2885A2,2,0,0,0,19.39,28.7246H17.5438c.1431-.889.4355-1.6448.949-1.6934.146-.0138.2756-.0206.3918-.0206a.7868.7868,0,0,1,.5188.1213,3.3584,3.3584,0,0,0,1.6831.4613,6.4668,6.4668,0,0,0,2.6326-.73,5.8034,5.8034,0,0,1,2.3767-.5637,3.2034,3.2034,0,0,1,1.0029.14,1.91,1.91,0,0,0,.8926.2234,1.991,1.991,0,0,0,1.626-.8737,2.0433,2.0433,0,0,0-.37-2.674c-.3418-.3007-3.4333-2.9369-6.7151-2.937a5.7161,5.7161,0,0,0-1.5076.1973,5.2421,5.2421,0,0,0-2.9692,1.7866c-.002-.1262-.0046-.2471-.0073-.3623a3.1744,3.1744,0,0,0,1.1724-1.9878c.1858-1.1545-.1672-3.5795-4.6162-6.85a2,2,0,0,0-1.1848-.3885ZM8.2845,27.6613c1.4111-1.2972,3.3638-2.59,4.2639-2.59l.0313.001a6.46,6.46,0,0,1,.2061,2.0564q-.0026.408-.012.7559l-4.4893-.2231Z" fill="#fff"/></g><g opacity="0.8"><path d="M29.5958,16.7743a.9983.9983,0,0,1-.3643-.0684,1.0074,1.0074,0,0,1-.3652.0684H24.22a1.49,1.49,0,0,1-.8281-.2656,1.29,1.29,0,0,1-.5479-1.1094V2.3759A1.3774,1.3774,0,0,1,24.22,1h7.6a1.3623,1.3623,0,0,1,1.1016.5518l2.8,3.6738A1.4615,1.4615,0,0,1,36,6.0575v4.3369a.9982.9982,0,0,1-.332.7441,1.289,1.289,0,0,1-.3027,1.3535l-.5254.5225a1.0107,1.0107,0,0,1-.166.1328.9968.9968,0,0,1-.1348.168l-3.1631,3.166a.9993.9993,0,0,1-.707.293Zm-.7344-2.751c.0088-.01,3.1914-3.1943,3.1914-3.1943a1.0092,1.0092,0,0,1,.167-.1348.96.96,0,0,1,.1377-.1709L32.8839,10a1.2729,1.2729,0,0,1,.3652-.2559V7.4335H32.422c.0127.0107.0244.0215.0361.0332A1.0018,1.0018,0,0,1,32.76,8.17l.0107.8369a1,1,0,0,1-.9873,1.0127s-6.1748.0791-6.1885.0781V10.57c.0117-.001,3.3818-.001,3.3818-.001a.9994.9994,0,0,1,1,1v.8369a.9994.9994,0,0,1-1,1s-3.37,0-3.3818-.001v.6182ZM25.5948,7.2616l5.3721-.0693a1.3748,1.3748,0,0,1-.5986-1.1348V3.7518H25.5948v.125c.0117-.001,3.3818-.001,3.3818-.001a.9994.9994,0,0,1,1,1v.8359a.9994.9994,0,0,1-1,1s-3.37,0-3.3818-.001Z" fill="#fff"/><path d="M31.8194,2a.3573.3573,0,0,1,.3005.15l2.8049,3.6816A.4045.4045,0,0,1,35,6.0574v4.3369h-.7515V6.433H31.7442a.3851.3851,0,0,1-.3757-.3756V2.7513H24.5951V15.0234h4.2717v.7513H24.2193a.5239.5239,0,0,1-.2754-.1.3419.3419,0,0,1-.1-.2755V2.3757A.3853.3853,0,0,1,24.2193,2h7.6M32.12,5.6566h1.728L32.12,3.3274V5.6566m-3.1436-.7812v.8368H25.6295V4.8754h3.3469M31.76,8.183l.0107.8367-6.1355.0787-.0107-.8367L31.76,8.183m2.033,2.4427a.2733.2733,0,0,1,.1995.0836l.6694.6693a.2851.2851,0,0,1,0,.4032l-.5264.5234-1.0725-1.0725.5261-.5234a.2877.2877,0,0,1,.2039-.0836m-1.0332.91,1.0725,1.0726-3.1633,3.1663H29.596V14.7021L32.76,11.5359m-3.7832.0333v.8367H25.6295v-.8367h3.3469M31.8194,0h-7.6a2.3784,2.3784,0,0,0-2.3757,2.3757V15.399a2.2753,2.2753,0,0,0,.9922,1.94,2.4923,2.4923,0,0,0,1.3835.4353h4.6475a2.0032,2.0032,0,0,0,.3645-.0332,2.0079,2.0079,0,0,0,.3647.0332h1.0728a2,2,0,0,0,1.4148-.5864l3.1633-3.1663a2.0319,2.0319,0,0,0,.1431-.1591,1.9856,1.9856,0,0,0,.1555-.14l.5264-.5234a2.3039,2.3039,0,0,0,.6731-1.6515q-.0011-.0815-.0078-.1621A1.9925,1.9925,0,0,0,37,10.3943V6.0574a2.4041,2.4041,0,0,0-.41-1.3336q-.0355-.0531-.0742-.1039L33.7108.9382A2.3494,2.3494,0,0,0,31.8194,0Z" fill="#fff"/></g><path d="M18.3041,25.04c2.793-.2643,1.5638,1.3675,4.5917,0a6.3211,6.3211,0,0,1,5.0306-.4232s-3.516-3.0932-6.3743-2.3121-1.9786,2.1982-1.9786,2.1982a4.1628,4.1628,0,0,0-2.882.4393,2.6251,2.6251,0,0,0-.7918.7945,31.0166,31.0166,0,0,0,.097-5.09c3.9389-1.2834-2.5768-6.073-2.5768-6.073a39.1725,39.1725,0,0,0-.2945,4.932c.0737,1.95,2.4843,1.2193,2.4843,1.2193a18.6479,18.6479,0,0,1-.31,4.6925A3.7618,3.7618,0,0,0,13.76,22.793s.2934-2.1-1.9538-1.4652a5.0864,5.0864,0,0,0-3.3079,2.3392c-.5573.66-1.9022,2.8384-1.9022,2.8384S10.96,22.24,13.337,23.2166c.8793.2609,1.4656,1.14,1.4488,3.924a18.4216,18.4216,0,0,1-.2689,3.5844H12.9313l1.2972-.7659L2,29.3514l8.6677,1.1039-3.5886.7731,8.7227.3866L14.2281,32.94l5.99-.5519,4.7483.5519L20.4394,31.615l-3.05.343L19.39,30.7246H15.4439C15.3828,29.39,15.434,25.3121,18.3041,25.04Zm2.54-.1967a11.975,11.975,0,0,1,3.2387-.9572c1.62-.2208,2.0978.1287,2.0978.1287a6.5238,6.5238,0,0,0-3.92.8831C21.0811,25.5222,20.4058,25.0256,20.8443,24.8434Zm-10.6-2.43.7364-.5153c2.3186-1.0676,2.5027.2727,2.5027.2727C12.9126,21.3678,10.2445,22.4137,10.2445,22.4137Zm4.4534-5.8885a22.9582,22.9582,0,0,1,1.0493,2.4194,3.6619,3.6619,0,0,0,0-1.5733,7.9663,7.9663,0,0,1,.2391,2.65S15.2873,19.69,14.698,16.5252Z" fill="#d0021b"/><path d="M34.1353,12.3053l-1.0726-1.0726.5263-.5234a.2848.2848,0,0,1,.4033,0l.6693.6693a.2848.2848,0,0,1,0,.4033ZM32.76,11.5359l1.0726,1.0726-3.1634,3.1663H29.5961V14.7022ZM25.6351,9.0984,31.7706,9.02,31.76,8.1829l-6.1355.0788ZM25.63,5.7121h3.3469V4.8754H25.63Zm0,6.6938h3.3469v-.8367H25.63ZM24.595,15.0234V2.7514h6.7735V6.0573a.3852.3852,0,0,0,.3757.3757h2.5045v3.9613H35V6.0573a.4041.4041,0,0,0-.0751-.2254L32.12,2.15A.3571.3571,0,0,0,31.8194,2h-7.6a.3852.3852,0,0,0-.3757.3757V15.3991a.342.342,0,0,0,.1.2755.525.525,0,0,0,.2755.1h4.6474v-.7513ZM32.12,3.3274,33.848,5.6566H32.12Z" fill="#d0021b"/></g></g></svg>