<svg xmlns="http://www.w3.org/2000/svg" width="37.0001" height="34.9402" viewBox="0 0 37.0001 34.9402"><title>alien_plant_control-med_green</title><g id="Layer_2" data-name="Layer 2"><g id="Layer_1-2" data-name="Layer 1"><g opacity="0.8"><path d="M24.8509,33.9331l-4.6445-.54-5.8867.543c-.0312.0029-.0615.0039-.0918.0039a1,1,0,0,1-.9014-1.4336l-6.291-.2793a1.0021,1.0021,0,0,1-.8965-1.3408l-4.2646-.543a1,1,0,0,1,.125-1.9922c.0166,0,11.7295.582,11.7295.582.03-.4775.0527-1.07.0566-1.7988.0078-1.249-.1133-2.7754-.7324-2.959-.0322-.01-.0645-.0215-.0957-.0342a1.0717,1.0717,0,0,0-.4082-.07c-1.48,0-4.0088,1.9316-5.2539,3.1494a1,1,0,0,1-1.55-1.24c.1416-.2295,1.4014-2.2607,1.9883-2.958.1143-.1348.2158-.2656.3145-.3936a5.6186,5.6186,0,0,1,3.4863-2.2627,4.1491,4.1491,0,0,1,.6973-.1387,2.8453,2.8453,0,0,1-.1055-.6836,39.6928,39.6928,0,0,1,.3018-5.0918.9992.9992,0,0,1,1.584-.6836c1.084.7969,4.5928,3.5762,4.2217,5.8848a2.25,2.25,0,0,1-1.2031,1.6309c.0234.5732.0439,1.44.0166,2.3994a5.0926,5.0926,0,0,1,1.4844-.2656c.0166-.0557.0352-.1113.0576-.167a3.6763,3.6763,0,0,1,2.6992-1.91,4.7177,4.7177,0,0,1,1.2441-.1621c2.9648,0,5.93,2.5781,6.0537,2.6875a1,1,0,0,1-1.0869,1.6553h0a3.9019,3.9019,0,0,0-1.4033-.2217,6.7938,6.7938,0,0,0-2.7881.6523,5.6,5.6,0,0,1-2.2207.6416,2.3927,2.3927,0,0,1-1.2129-.3437,1.7289,1.7289,0,0,0-.9893-.2383c-.1445,0-.3057.0078-.4863.0244-1.5615.1484-1.8984,2.3271-1.9561,3.6885H19.39a1,1,0,0,1,.9619.7275.9664.9664,0,0,1,.0322.165c.0186-.001.0371-.002.0557-.002a1.02,1.02,0,0,1,.2813.04L25.2474,31.98a1,1,0,0,1-.28,1.96A.9386.9386,0,0,1,24.8509,33.9331Z" fill="#fff"/><path d="M13.42,14.5737s6.5156,4.79,2.5767,6.0729a31.0135,31.0135,0,0,1-.0969,5.09,2.628,2.628,0,0,1,.7917-.7946,4.1682,4.1682,0,0,1,2.8821-.4392s-.8787-1.4164,1.9785-2.1982a3.71,3.71,0,0,1,.98-.1265c2.6223,0,5.3943,2.4385,5.3943,2.4385a4.6436,4.6436,0,0,0-1.8306-.3176,7.7561,7.7561,0,0,0-3.2.741,4.7937,4.7937,0,0,1-1.8093.5531c-.7493,0-.8262-.5828-2.2017-.5826-.1719,0-.3643.009-.5806.03-2.87.2719-2.9214,4.35-2.86,5.6844H19.39L17.389,31.958l3.0505-.343L24.9666,32.94l-4.7483-.552-5.99.552,1.5735-1.3251-8.7227-.3866,3.5886-.7731L2,29.3514l12.2285.6077-1.2971.7659h1.5854a18.4187,18.4187,0,0,0,.269-3.5845c.0168-2.7842-.57-3.6631-1.449-3.924a2.0594,2.0594,0,0,0-.7886-.1454c-2.4387,0-5.9519,3.4342-5.9519,3.4342s1.345-2.178,1.9021-2.8385a5.0868,5.0868,0,0,1,3.3079-2.3391,2.8135,2.8135,0,0,1,.76-.12c1.4146,0,1.1934,1.5848,1.1934,1.5848A3.7617,3.7617,0,0,1,15.3,25.4175a18.65,18.65,0,0,0,.31-4.6925,3.683,3.683,0,0,1-.9543.1343,1.3345,1.3345,0,0,1-1.53-1.3535,39.1743,39.1743,0,0,1,.2944-4.932m2.5664,5.4476a7.9645,7.9645,0,0,0-.239-2.65,3.6642,3.6642,0,0,1,0,1.5734,22.9844,22.9844,0,0,0-1.0493-2.4194c.5894,3.165,1.2883,3.4962,1.2883,3.4962m-5.7417,2.3923a8.2672,8.2672,0,0,1,2.3811-.546,1.0149,1.0149,0,0,1,.8579.3035s-.094-.6855-.9958-.6855a3.73,3.73,0,0,0-1.5068.4128l-.7363.5153m10.9607,2.79a2.3147,2.3147,0,0,0,1.0554-.3053,7.3,7.3,0,0,1,3.3765-.92,3.25,3.25,0,0,1,.5437.0369,2.0712,2.0712,0,0,0-1.12-.2019,7.2754,7.2754,0,0,0-.978.0731,11.9778,11.9778,0,0,0-3.2388.9573c-.28.1162-.1067.36.3611.36M13.42,12.5737a2,2,0,0,0-1.9846,1.7549,41.6767,41.6767,0,0,0-.3127,5.115,6.5879,6.5879,0,0,0-3.863,2.5714c-.0916.1176-.1851.2385-.2893.3621-.6211.7365-1.8376,2.6927-2.0752,3.0775a2,2,0,0,0-.0391,2.0363l-2.7563-.137c-.0337-.0017-.0674-.0024-.1008-.0024a2,2,0,0,0-.2512,3.984l3.406.4337a2.0005,2.0005,0,0,0,1.8372,1.4573l5.3069.2352a1.977,1.977,0,0,0,.0857.25A2,2,0,0,0,14.2274,34.94c.0613,0,.1228-.0027.1846-.0084l5.7825-.5328,4.5413.5278a2,2,0,0,0,.7927-3.906l-4.4021-1.2886A2.0006,2.0006,0,0,0,19.39,28.7246H17.544c.1428-.889.4355-1.6448.9487-1.6934.1462-.0138.2761-.0206.3921-.0206a.7868.7868,0,0,1,.5186.1212,3.357,3.357,0,0,0,1.6831.4614,6.4668,6.4668,0,0,0,2.6326-.73,5.8044,5.8044,0,0,1,2.377-.5637,3.2016,3.2016,0,0,1,1.0032.14,1.9106,1.9106,0,0,0,.8923.2231,1.99,1.99,0,0,0,1.626-.8738,2.0432,2.0432,0,0,0-.37-2.6738c-.3418-.3005-3.4333-2.9366-6.7153-2.9368a5.7193,5.7193,0,0,0-1.5073.1971,5.2413,5.2413,0,0,0-2.9695,1.7869c-.002-.1262-.0046-.2473-.0073-.3624a3.1767,3.1767,0,0,0,1.1726-1.9878c.1855-1.1545-.1672-3.5795-4.6162-6.85a2,2,0,0,0-1.1848-.3885ZM8.2847,27.6613c1.4111-1.2972,3.3635-2.59,4.2637-2.59l.0313.001a6.454,6.454,0,0,1,.2063,2.0563q-.0026.408-.012.756l-4.4893-.2231Z" fill="#fff"/></g><g opacity="0.8"><path d="M29.596,16.7749a.9983.9983,0,0,1-.3643-.0684,1.0074,1.0074,0,0,1-.3652.0684H24.2191a1.4992,1.4992,0,0,1-.835-.2715,1.2882,1.2882,0,0,1-.54-1.1045V2.3755A1.377,1.377,0,0,1,24.2191,1H31.82a1.3645,1.3645,0,0,1,1.0986.5469L35.721,5.2251A1.4615,1.4615,0,0,1,36,6.0571V10.394a1,1,0,0,1-.333.7451,1.2683,1.2683,0,0,1,.0771.4248,1.2937,1.2937,0,0,1-.376.9248l-.5283.5254a1.0508,1.0508,0,0,1-.1641.1328,1.0574,1.0574,0,0,1-.1367.1689l-3.1631,3.166a.9993.9993,0,0,1-.707.293Zm-.7334-2.752,3.19-3.1943a.9683.9683,0,0,1,.168-.1348.9931.9931,0,0,1,.1367-.17L32.8841,10a1.2651,1.2651,0,0,1,.3643-.2549V7.4331h-.8271A.9967.9967,0,0,1,32.76,8.17l.0107.8369a1,1,0,0,1-.9873,1.0127s-6.1748.0781-6.1885.0771V10.57c.0117-.001,3.3818-.001,3.3818-.001a.9994.9994,0,0,1,1,1v.8369a.9994.9994,0,0,1-1,1s-3.37,0-3.3818-.001v.6182ZM25.5951,7.2612l5.374-.0684a1.3745,1.3745,0,0,1-.6006-1.1357V3.7515H25.5951v.125c.0117-.001,3.3818-.001,3.3818-.001a.9994.9994,0,0,1,1,1v.8369a.9994.9994,0,0,1-1,1s-3.37,0-3.3818-.001Z" fill="#fff"/><path d="M31.8194,2a.3573.3573,0,0,1,.3005.15l2.8052,3.6816A.4039.4039,0,0,1,35,6.0574v4.3369h-.7512V6.433H31.7442a.3851.3851,0,0,1-.3755-.3756V2.7513H24.5951V15.0234h4.2717v.7513H24.22a.5247.5247,0,0,1-.2756-.1.3418.3418,0,0,1-.1-.2755V2.3757A.3853.3853,0,0,1,24.22,2h7.6M32.12,5.6566h1.7283L32.12,3.3274V5.6566m-3.1433-.7812V5.712H25.63V4.8754h3.3469M31.76,8.183l.0107.8365-6.1355.0789-.0107-.8367L31.76,8.183m2.033,2.4427a.2737.2737,0,0,1,.1995.0836l.6692.6693a.2847.2847,0,0,1,0,.4032l-.5264.5234-1.0725-1.0725.5264-.5234a.2881.2881,0,0,1,.2039-.0836m-1.0334.91,1.0725,1.0726-3.1633,3.1663H29.5963V14.7021L32.76,11.5359m-3.783.0333v.8367H25.63v-.8367h3.3469M31.8194,0h-7.6a2.3784,2.3784,0,0,0-2.3757,2.3757V15.399a2.2754,2.2754,0,0,0,.9919,1.94,2.4972,2.4972,0,0,0,1.3838.4353h4.6472a2.0059,2.0059,0,0,0,.3647-.0332,2.0059,2.0059,0,0,0,.3647.0332h1.0725a2,2,0,0,0,1.4148-.5864l3.1633-3.1663a2.0319,2.0319,0,0,0,.1431-.1591,1.9856,1.9856,0,0,0,.1555-.14l.5264-.5234a2.3033,2.3033,0,0,0,.6733-1.6515q-.0011-.0815-.0081-.1625A1.9886,1.9886,0,0,0,37,10.3943V6.0574a2.403,2.403,0,0,0-.4109-1.335Q36.554,4.67,36.516,4.62L33.7108.9381A2.35,2.35,0,0,0,31.8194,0Z" fill="#fff"/></g><path d="M18.3043,25.04c2.793-.2643,1.5638,1.3675,4.5917,0a6.3211,6.3211,0,0,1,5.0306-.4232s-3.516-3.0932-6.3743-2.3121-1.9786,2.1982-1.9786,2.1982a4.1628,4.1628,0,0,0-2.882.4393,2.6251,2.6251,0,0,0-.7918.7945,31.0166,31.0166,0,0,0,.097-5.09c3.9389-1.2834-2.5768-6.073-2.5768-6.073a39.1725,39.1725,0,0,0-.2945,4.932c.0737,1.95,2.4843,1.2193,2.4843,1.2193a18.6479,18.6479,0,0,1-.31,4.6925A3.7618,3.7618,0,0,0,13.76,22.793s.2934-2.1-1.9538-1.4652a5.0864,5.0864,0,0,0-3.3079,2.3392c-.5573.66-1.9022,2.8384-1.9022,2.8384S10.96,22.24,13.3371,23.2166c.8793.2609,1.4656,1.14,1.4488,3.924a18.4216,18.4216,0,0,1-.2689,3.5844H12.9314l1.2972-.7659L2,29.3514l8.6677,1.1039-3.5886.7731,8.7227.3866L14.2282,32.94l5.99-.5519,4.7483.5519L20.4395,31.615l-3.05.343L19.39,30.7246H15.444C15.3829,29.39,15.4341,25.3121,18.3043,25.04Zm2.54-.1967a11.975,11.975,0,0,1,3.2387-.9572c1.62-.2208,2.0978.1287,2.0978.1287a6.5238,6.5238,0,0,0-3.92.8831C21.0812,25.5221,20.4059,25.0256,20.8444,24.8434Zm-10.6-2.43.7364-.5153c2.3186-1.0676,2.5027.2727,2.5027.2727C12.9127,21.3678,10.2447,22.4137,10.2447,22.4137Zm4.4534-5.8885a22.9582,22.9582,0,0,1,1.0493,2.4194,3.6619,3.6619,0,0,0,0-1.5733,7.9663,7.9663,0,0,1,.2391,2.65S15.2874,19.69,14.6981,16.5252Z" fill="#4f8317"/><path d="M34.1354,12.3053l-1.0726-1.0726.5263-.5234a.2848.2848,0,0,1,.4033,0l.6693.6693a.2848.2848,0,0,1,0,.4033ZM32.76,11.5359l1.0726,1.0726-3.1634,3.1663H29.5962V14.7022ZM25.6352,9.0984,31.7707,9.02,31.76,8.1829l-6.1355.0788ZM25.63,5.7121h3.3469V4.8754H25.63Zm0,6.6938h3.3469v-.8367H25.63Zm-1.0345,2.6175V2.7514h6.7735V6.0573a.3852.3852,0,0,0,.3757.3757h2.5045v3.9613H35V6.0573a.4041.4041,0,0,0-.0751-.2254L32.12,2.15A.3571.3571,0,0,0,31.8195,2h-7.6a.3852.3852,0,0,0-.3757.3757V15.3991a.342.342,0,0,0,.1.2755.525.525,0,0,0,.2755.1h4.6474v-.7513ZM32.12,3.3274l1.7281,2.3292H32.12Z" fill="#4f8317"/></g></g></svg>