<svg xmlns="http://www.w3.org/2000/svg" width="37.0001" height="34.9401" viewBox="0 0 37.0001 34.9401"><title>alien_plant_control-gray</title><g id="Layer_2" data-name="Layer 2"><g id="Layer_1-2" data-name="Layer 1"><g opacity="0.8"><path d="M24.8516,33.933l-4.6455-.54-5.8857.543c-.0312.0029-.0615.0039-.0918.0039a1,1,0,0,1-.9014-1.4336l-6.292-.2793a1.0021,1.0021,0,0,1-.8965-1.3408l-4.2646-.543a1,1,0,0,1,.125-1.9922c.0166,0,11.7295.582,11.7295.582.03-.4775.0527-1.0693.0576-1.7979.0078-1.249-.1133-2.7764-.7334-2.96-.0322-.01-.0645-.0215-.0957-.0342a1.0717,1.0717,0,0,0-.4082-.07c-1.48,0-4.0078,1.9316-5.2529,3.1494a1,1,0,0,1-1.55-1.24c.1416-.2295,1.4-2.2607,1.9873-2.957.1133-.1348.2148-.2656.3145-.3926a5.609,5.609,0,0,1,3.4863-2.2646,4.1491,4.1491,0,0,1,.6973-.1387,2.8453,2.8453,0,0,1-.1055-.6836,39.6928,39.6928,0,0,1,.3018-5.0918,1,1,0,0,1,1.585-.6836c1.084.7969,4.5918,3.5771,4.2207,5.8857a2.2483,2.2483,0,0,1-1.2031,1.63c.0234.5742.0439,1.44.0166,2.3994a5.1251,5.1251,0,0,1,1.4844-.2656c.0166-.0557.0352-.1113.0576-.167a3.6763,3.6763,0,0,1,2.6992-1.91,4.7177,4.7177,0,0,1,1.2441-.1621c2.9658,0,5.93,2.5781,6.0547,2.6875A1,1,0,0,1,27.5,25.5209h0a3.9019,3.9019,0,0,0-1.4033-.2217,6.7945,6.7945,0,0,0-2.7891.6523,5.6,5.6,0,0,1-2.2207.6416,2.3927,2.3927,0,0,1-1.2129-.3437,1.7289,1.7289,0,0,0-.9893-.2383c-.1445,0-.3057.0078-.4863.0244-1.5635.1484-1.8994,2.3281-1.9561,3.6895H19.39a1,1,0,0,1,.9619.7275.9555.9555,0,0,1,.0322.1641c.0186-.001.0371-.002.0557-.002a1.02,1.02,0,0,1,.2813.04L25.2481,31.98a1,1,0,0,1-.28,1.96A.9386.9386,0,0,1,24.8516,33.933ZM12.5977,22.4974Z" fill="#fff"/><path d="M13.42,14.5736s6.5159,4.79,2.5769,6.073a31.0133,31.0133,0,0,1-.0969,5.09,2.6211,2.6211,0,0,1,.7917-.7946,4.1675,4.1675,0,0,1,2.8818-.4392s-.8784-1.4164,1.9788-2.1982a3.71,3.71,0,0,1,.98-.1265c2.6221,0,5.394,2.4385,5.394,2.4385a4.6436,4.6436,0,0,0-1.8306-.3176,7.7547,7.7547,0,0,0-3.2.7408,4.7937,4.7937,0,0,1-1.8093.5531c-.75,0-.8262-.5828-2.2021-.5826-.1719,0-.3643.009-.58.03-2.87.272-2.9211,4.35-2.86,5.6846H19.39L17.389,31.9579l3.05-.3429,4.5271,1.325-4.7483-.5519-5.99.5519,1.5737-1.325-8.7227-.3866,3.5886-.7731L2,29.3513l12.2285.6078-1.2974.7659h1.5857a18.4284,18.4284,0,0,0,.2688-3.5845c.0168-2.7842-.5693-3.6631-1.4487-3.924a2.06,2.06,0,0,0-.7886-.1454c-2.439,0-5.9521,3.4341-5.9521,3.4341s1.345-2.178,1.9023-2.8384a5.0859,5.0859,0,0,1,3.3079-2.3392,2.8215,2.8215,0,0,1,.76-.12c1.4148,0,1.1936,1.585,1.1936,1.585A3.7623,3.7623,0,0,1,15.3,25.4175a18.65,18.65,0,0,0,.31-4.6925,3.6878,3.6878,0,0,1-.9541.1342,1.3345,1.3345,0,0,1-1.53-1.3535,39.1763,39.1763,0,0,1,.2944-4.932m2.5667,5.4478a7.969,7.969,0,0,0-.2393-2.65,3.6592,3.6592,0,0,1,0,1.5734,22.9329,22.9329,0,0,0-1.0493-2.4194c.59,3.165,1.2886,3.4962,1.2886,3.4962m-5.7419,2.3922a8.2689,8.2689,0,0,1,2.3813-.5459,1.0148,1.0148,0,0,1,.8579.3033s-.094-.6855-.9958-.6855a3.73,3.73,0,0,0-1.5068.4128l-.7366.5153m10.9609,2.79a2.3147,2.3147,0,0,0,1.0552-.3053,7.3,7.3,0,0,1,3.3765-.92,3.25,3.25,0,0,1,.5437.0369,2.0712,2.0712,0,0,0-1.12-.2019,7.2693,7.2693,0,0,0-.9778.0731,11.9717,11.9717,0,0,0-3.2388.9573c-.28.1161-.1064.36.3611.36M13.42,12.5736a2,2,0,0,0-1.9846,1.7549,41.6808,41.6808,0,0,0-.3127,5.115,6.5892,6.5892,0,0,0-3.8633,2.5719c-.0913.1176-.1848.2384-.2891.3619-.6211.7358-1.8376,2.6924-2.0752,3.0771a2,2,0,0,0-.0391,2.0363l-2.7561-.137c-.0339-.0017-.0674-.0024-.1008-.0024a2,2,0,0,0-.2512,3.984l3.406.4338a2.0005,2.0005,0,0,0,1.8372,1.4573l5.3066.2352a2.0006,2.0006,0,0,0,1.93,1.4783c.061,0,.1226-.0027.1843-.0084l5.7825-.5327,4.5413.5277a2,2,0,0,0,.7927-3.906l-4.4019-1.2883A2,2,0,0,0,19.39,28.7246H17.5438c.1428-.8892.4355-1.6449.949-1.6935.1458-.0138.2756-.0206.3918-.0206a.7872.7872,0,0,1,.5188.1213,3.3584,3.3584,0,0,0,1.6831.4613,6.4668,6.4668,0,0,0,2.6326-.73,5.8031,5.8031,0,0,1,2.3767-.5636,3.2056,3.2056,0,0,1,1.0032.14,1.9106,1.9106,0,0,0,.8923.2231,1.99,1.99,0,0,0,1.626-.8738,2.0434,2.0434,0,0,0-.37-2.6738c-.3418-.3005-3.4331-2.9366-6.7151-2.9368a5.7212,5.7212,0,0,0-1.5076.1973,5.2421,5.2421,0,0,0-2.9692,1.7866c-.002-.1262-.0046-.2472-.0073-.3624a3.1744,3.1744,0,0,0,1.1724-1.9878c.1858-1.1544-.167-3.5795-4.6162-6.85a2,2,0,0,0-1.1848-.3885ZM8.2845,27.6613c1.4111-1.2972,3.3635-2.59,4.2639-2.59l.0313.001a6.4593,6.4593,0,0,1,.2061,2.0563q-.0026.4081-.012.7559l-4.4893-.223Z" fill="#fff"/></g><g opacity="0.8"><path d="M29.5958,16.7748a.9983.9983,0,0,1-.3643-.0684,1.0074,1.0074,0,0,1-.3652.0684H24.22a1.5023,1.5023,0,0,1-.8359-.2715,1.2882,1.2882,0,0,1-.54-1.1045V2.3754A1.3772,1.3772,0,0,1,24.22,1h7.6a1.3645,1.3645,0,0,1,1.0986.5469L35.7208,5.225A1.4615,1.4615,0,0,1,36,6.057v4.3369a.9951.9951,0,0,1-.332.7441,1.2893,1.2893,0,0,1-.3027,1.3535l-.5254.5225a1.0508,1.0508,0,0,1-.1641.1328,1.0574,1.0574,0,0,1-.1367.1689l-3.1631,3.166a.9993.9993,0,0,1-.707.293Zm-.7344-2.751c.0088-.01,3.1914-3.1953,3.1914-3.1953a.9683.9683,0,0,1,.168-.1348.9931.9931,0,0,1,.1367-.17L32.8839,10a1.2729,1.2729,0,0,1,.3652-.2559V7.433H32.421c.0127.0107.0244.0225.0371.0342A1.0018,1.0018,0,0,1,32.76,8.17l.0107.8369a1,1,0,0,1-.9873,1.0127s-6.1758.0781-6.1885.0771V10.57c.0117-.001,3.3818-.001,3.3818-.001a.9994.9994,0,0,1,1,1v.8369a.9994.9994,0,0,1-1,1s-3.37,0-3.3818-.001v.6191ZM25.5948,7.2621l5.374-.0693a1.3745,1.3745,0,0,1-.6006-1.1357V3.7513H25.5948v.125c.0117-.001,3.3818-.001,3.3818-.001a.9994.9994,0,0,1,1,1v.8369a.9994.9994,0,0,1-1,1s-3.37,0-3.3818-.001Z" fill="#fff"/><path d="M31.8194,2a.357.357,0,0,1,.3005.15l2.8049,3.6816A.4042.4042,0,0,1,35,6.0573v4.337h-.7515V6.433H31.7442a.3852.3852,0,0,1-.3757-.3757V2.7513H24.5951V15.0234h4.2717v.7513H24.2193a.5249.5249,0,0,1-.2754-.1.3421.3421,0,0,1-.1-.2755V2.3756A.3851.3851,0,0,1,24.2193,2h7.6M32.12,5.6565h1.728L32.12,3.3274V5.6565m-3.1436-.7811V5.712H25.6295V4.8754h3.3469M31.76,8.1829l.0107.8367-6.1355.0787-.0107-.8365L31.76,8.1829m2.033,2.4427a.2738.2738,0,0,1,.1995.0836l.6694.6693a.2853.2853,0,0,1,0,.4033l-.5264.5234-1.0725-1.0726.5261-.5234a.2882.2882,0,0,1,.2039-.0836m-1.0332.91,1.0725,1.0726-3.1633,3.1663H29.596V14.7021L32.76,11.5359m-3.7832.0333v.8367H25.6295v-.8367h3.3469M31.8194,0h-7.6a2.3783,2.3783,0,0,0-2.3757,2.3756V15.399a2.276,2.276,0,0,0,.99,1.9392,2.4987,2.4987,0,0,0,1.3855.4365h4.6475a2.0032,2.0032,0,0,0,.3645-.0332,2.0079,2.0079,0,0,0,.3647.0332h1.0728a2,2,0,0,0,1.4148-.5864l3.1633-3.1663a2.0319,2.0319,0,0,0,.1431-.1591,1.9856,1.9856,0,0,0,.1555-.14l.5264-.5234a2.3054,2.3054,0,0,0,.6731-1.6522c-.0007-.054-.0034-.1079-.0078-.1615A1.9917,1.9917,0,0,0,37,10.3943V6.0573a2.4021,2.4021,0,0,0-.4111-1.3348q-.0348-.0524-.0732-.1025L33.7108.9382A2.3483,2.3483,0,0,0,31.8194,0Z" fill="#fff"/></g><path d="M18.3041,25.04c2.793-.2643,1.5638,1.3675,4.5917,0a6.3211,6.3211,0,0,1,5.0306-.4232s-3.516-3.0932-6.3743-2.3121-1.9786,2.1982-1.9786,2.1982a4.1628,4.1628,0,0,0-2.882.4393,2.6251,2.6251,0,0,0-.7918.7945,31.0166,31.0166,0,0,0,.097-5.09c3.9389-1.2834-2.5768-6.073-2.5768-6.073a39.1725,39.1725,0,0,0-.2945,4.932c.0737,1.95,2.4843,1.2193,2.4843,1.2193a18.6479,18.6479,0,0,1-.31,4.6925A3.7618,3.7618,0,0,0,13.76,22.7929s.2934-2.1-1.9538-1.4652a5.0864,5.0864,0,0,0-3.3079,2.3392c-.5573.66-1.9022,2.8384-1.9022,2.8384S10.96,22.24,13.337,23.2165c.8793.2609,1.4656,1.14,1.4488,3.924a18.4216,18.4216,0,0,1-.2689,3.5844H12.9313l1.2972-.7659L2,29.3514l8.6677,1.1039-3.5886.7731,8.7227.3866L14.2281,32.94l5.99-.5519,4.7483.5519-4.5271-1.3251-3.05.343L19.39,30.7246H15.4439C15.3828,29.39,15.434,25.312,18.3041,25.04Zm2.54-.1967a11.975,11.975,0,0,1,3.2387-.9572c1.62-.2208,2.0978.1287,2.0978.1287a6.5238,6.5238,0,0,0-3.92.8831C21.0811,25.5221,20.4058,25.0255,20.8443,24.8433Zm-10.6-2.43.7364-.5153c2.3186-1.0676,2.5027.2727,2.5027.2727C12.9126,21.3678,10.2445,22.4136,10.2445,22.4136Zm4.4534-5.8885a22.9582,22.9582,0,0,1,1.0493,2.4194,3.6619,3.6619,0,0,0,0-1.5733,7.9663,7.9663,0,0,1,.2391,2.65S15.2873,19.69,14.698,16.5252Z" fill="#5a6066"/><path d="M34.1353,12.3053l-1.0726-1.0726.5263-.5234a.2848.2848,0,0,1,.4033,0l.6693.6693a.2848.2848,0,0,1,0,.4033ZM32.76,11.5359l1.0726,1.0726-3.1634,3.1663H29.5961V14.7021ZM25.6351,9.0983,31.7706,9.02,31.76,8.1829l-6.1355.0788ZM25.63,5.7121h3.3469V4.8753H25.63Zm0,6.6938h3.3469v-.8367H25.63ZM24.595,15.0234V2.7513h6.7735V6.0573a.3852.3852,0,0,0,.3757.3757h2.5045v3.9613H35V6.0573a.4041.4041,0,0,0-.0751-.2254L32.12,2.15A.3571.3571,0,0,0,31.8194,2h-7.6a.3852.3852,0,0,0-.3757.3757V15.3991a.342.342,0,0,0,.1.2755.525.525,0,0,0,.2755.1h4.6474v-.7513ZM32.12,3.3274,33.848,5.6565H32.12Z" fill="#5a6066"/></g></g></svg>