<svg xmlns="http://www.w3.org/2000/svg" viewBox="0 0 50 27.05"><defs><style>.a{opacity:0.8;}.b{fill:#fff;}.c{fill:#9ea7b3;}</style></defs><title>Asset 35</title><g class="a"><path class="b" d="M30.49,3a2.19,2.19,0,0,1,1.33.5c.43.45,2.47.51,3.57.51h.7a9.35,9.35,0,0,1,1.12-.07,7,7,0,0,1,3.91,1C42,5.42,44,8.09,44,8.09a5.63,5.63,0,0,1,1.18,2.68,20.33,20.33,0,0,0,.44,3.56,17.85,17.85,0,0,0,.53,3.06,18.64,18.64,0,0,1,.47,2.35c-.74-.53-1-2.56-1-2.56a11.74,11.74,0,0,0-.32-1.65l.06,1.53a12.24,12.24,0,0,0,1.15,3.29,4.16,4.16,0,0,1,.5,1.29c.11.87-1,1-1.59,1-.24,0-.41,0-.41,0-.53-.29-.12-1.32-.12-1.32a20.64,20.64,0,0,0-1-3.12,7.41,7.41,0,0,0-1.47-1.73c-.53.5-.26,3.44-.26,3.44a9.79,9.79,0,0,1,.24,2.5c-.17.24-.74.32-1.36.32a15,15,0,0,1-2-.17c-.29-.71.91-1.59.91-1.59.53-.44.32-3,.32-3a5.51,5.51,0,0,0-.65-1.68,6.19,6.19,0,0,1-.88-.85c0-.18-1.41-.32-1.41-.32h-.12a7.27,7.27,0,0,1-2.88-.91c-.15.06-.29.88-.29.88,0,1.06.35,3.15.35,3.15a20.71,20.71,0,0,1,.24,2.23,2.36,2.36,0,0,0,.18,1.38,1.38,1.38,0,0,1,.35.85c0,.3-.56.39-1.2.39a14.92,14.92,0,0,1-2-.18c-.41-.35.71-1.09.71-1.09.5-.29.09-1.26.09-1.26a10.41,10.41,0,0,1-.79-2.38c-.12-.32-1.15-2.79-1.15-2.79a17.77,17.77,0,0,1-1.94,2.62A22,22,0,0,0,27.29,21c-.12.41.35,1.32.35,1.32.14.39-.33.5-.95.5a12.67,12.67,0,0,1-2-.24c-.53-.41.44-.91.44-.91.44-.26.71-1.44.71-1.44a7.86,7.86,0,0,1,.38-2.18A11.62,11.62,0,0,0,26.82,16l.68-2.38A20.9,20.9,0,0,0,28,10.83c-.21.29-1.76.59-1.76.59-.47-.35-.35-1.41-.35-1.41-.21.35-1.47.41-1.47.41l-.53.26a.54.54,0,0,1-.5.35L23,10.74l-.47,0a3.94,3.94,0,0,0-.79,2.82c.2,1.47.79,1.69,1.13,1.69a.7.7,0,0,0,.25,0c.56-.15,0-.88,0-.88.29-.12-.06-.38-.06-.38a.85.85,0,0,1,.46-.16c.58,0,.83.83.83.83a1.59,1.59,0,0,1-1.78,1.94,2.87,2.87,0,0,1-.45,0c-2.68-1.09-2.5-4.53-2.5-4.53h-.07a2.73,2.73,0,0,1-1.29-.41,1.64,1.64,0,0,0,.39,0,3.41,3.41,0,0,0,.5,0c-1-.24-.94-.47-.94-.47l.16,0a10,10,0,0,0,1.45-.22l.24-.71a24.22,24.22,0,0,1,1.29-3.06,5.33,5.33,0,0,1,1.06-1.71,5.17,5.17,0,0,1,1.71-1.82,2,2,0,0,1,1-.17,11,11,0,0,1,1.43.11l.22,0c.73,0,2.66-.25,2.66-.25A1.86,1.86,0,0,1,30.49,3M6.5,8.19A1.62,1.62,0,1,1,4.88,9.8,1.62,1.62,0,0,1,6.5,8.19m8.87,2.42v.27h.27v.81H12.58l-.45.45a.67.67,0,0,1-.63.9h-3a.13.13,0,0,0-.13.12h0V23.24a.81.81,0,1,1-1.62,0v-4.7a.27.27,0,1,0-.54,0v4.7a.81.81,0,0,1-1.62,0V13.76a.13.13,0,1,0-.27,0v3a.67.67,0,0,1-1.35,0V13.17a1.48,1.48,0,0,1,1.48-1.48H11v-.54l.27-.27H15.1v-.27h.27M12,12h0l.27-.27h-.54v.06A.67.67,0,0,1,12,12M30.49,0a4.79,4.79,0,0,0-2,.45c-.65.08-1.33.14-1.63.16A13.71,13.71,0,0,0,25.1.48a4.7,4.7,0,0,0-2.62.66,8.26,8.26,0,0,0-2.54,2.61A8.28,8.28,0,0,0,18.59,6c-.29.6-.69,1.44-1,2.21l-.31.08a3,3,0,0,0-1.91-.68H15.1a3,3,0,0,0-1.24.27H11.24a3,3,0,0,0-.52,0A4.62,4.62,0,0,0,1.89,9.51a4.54,4.54,0,0,0-.58.49A4.45,4.45,0,0,0,0,13.17v3.57a3.67,3.67,0,0,0,1.62,3v3.46A3.81,3.81,0,0,0,6.5,26.9a3.81,3.81,0,0,0,4.88-3.65V16h.12a3.67,3.67,0,0,0,2.84-1.35h1.3a3,3,0,0,0,1.25-.27A7,7,0,0,0,21,19.34a3,3,0,0,0,.61.18,5.8,5.8,0,0,0,1,.08h.24v.06A3.55,3.55,0,0,0,21.5,22,3.33,3.33,0,0,0,22.8,25a3,3,0,0,0,1.25.57,15.13,15.13,0,0,0,2.64.29,4.14,4.14,0,0,0,2.95-1,3.35,3.35,0,0,0,.29.28,3,3,0,0,0,1.46.68,17.69,17.69,0,0,0,2.53.22,4.37,4.37,0,0,0,3.27-1.12,3,3,0,0,0,1.34.57A17.82,17.82,0,0,0,41,25.7a5.63,5.63,0,0,0,2.5-.47h0a3,3,0,0,0,1.13.36,7.1,7.1,0,0,0,.74,0,4.66,4.66,0,0,0,3.68-1.43A3.68,3.68,0,0,0,50,21.28c0-.08,0-.16,0-.24a7.93,7.93,0,0,0-.35-1.2,3,3,0,0,0,0-.49A21.46,21.46,0,0,0,49,16.59a14.55,14.55,0,0,1-.42-2.34,3,3,0,0,0-.06-.52A19.8,19.8,0,0,1,48.13,11a2.6,2.6,0,0,0,0-.62,8.58,8.58,0,0,0-1.8-4.16,14.39,14.39,0,0,0-3.62-3.8A10.13,10.13,0,0,0,37.2.94,12.34,12.34,0,0,0,35.88,1h-.49a14.77,14.77,0,0,1-2-.11A5.11,5.11,0,0,0,30.49,0Z"/></g><path class="c" d="M8.11,9.8A1.62,1.62,0,1,1,6.5,8.19,1.62,1.62,0,0,1,8.11,9.8ZM3,13.17v3.58a.67.67,0,1,0,1.35,0v-3a.13.13,0,0,1,.27,0v9.49a.81.81,0,0,0,1.62,0v-4.7a.27.27,0,0,1,.54,0v4.7a.81.81,0,1,0,1.62,0V13.15h0A.13.13,0,0,1,8.52,13h3a.67.67,0,0,0,.63-.9l.45-.45h3.06v-.81h-.27v-.27H15.1v.27H11.24l-.27.27v.54H4.48A1.48,1.48,0,0,0,3,13.17ZM12,12a.67.67,0,0,0-.27-.21v-.06h.54L12,12Zm17.37-8.6a23.22,23.22,0,0,1-2.88.24s-1.91-.29-2.41.06a5.17,5.17,0,0,0-1.71,1.82,5.33,5.33,0,0,0-1.06,1.71,24.22,24.22,0,0,0-1.29,3.06l-.24.71a7,7,0,0,1-1.62.21s0,.24.94.47a2.7,2.7,0,0,1-.88,0,2.68,2.68,0,0,0,1.35.41s-.18,3.44,2.5,4.53c0,0,2.5.44,2.23-1.91,0,0-.38-1.26-1.29-.68,0,0,.35.26.06.38,0,0,.59.74,0,.88,0,0-1.09.47-1.38-1.65a3.94,3.94,0,0,1,.79-2.82l.47,0,.38.29a.54.54,0,0,0,.5-.35l.53-.26s1.26-.06,1.47-.41c0,0-.12,1.06.35,1.41,0,0,1.56-.29,1.76-.59a20.9,20.9,0,0,1-.53,2.76L26.82,16a11.61,11.61,0,0,1-.65,2.12,7.86,7.86,0,0,0-.38,2.18s-.26,1.18-.71,1.44c0,0-1,.5-.44.91,0,0,3.35.68,3-.26,0,0-.47-.91-.35-1.32a22,22,0,0,1,1.5-3.09,17.78,17.78,0,0,0,1.94-2.62s1,2.47,1.15,2.79a10.42,10.42,0,0,0,.79,2.38s.41,1-.09,1.26c0,0-1.12.74-.71,1.09,0,0,3.21.53,3.23-.21a1.38,1.38,0,0,0-.35-.85,2.36,2.36,0,0,1-.18-1.38,20.73,20.73,0,0,0-.24-2.23S34,16.09,34,15c0,0,.15-.82.29-.88a7,7,0,0,0,3,.91s1.44.15,1.41.32a6.2,6.2,0,0,0,.88.85,5.51,5.51,0,0,1,.65,1.68s.21,2.59-.32,3c0,0-1.21.88-.91,1.59,0,0,2.94.47,3.38-.15a9.79,9.79,0,0,0-.24-2.5s-.26-2.94.26-3.44a7.41,7.41,0,0,1,1.47,1.73,20.62,20.62,0,0,1,1,3.12s-.41,1,.12,1.32c0,0,2.15.24,2-1a4.16,4.16,0,0,0-.5-1.29,12.24,12.24,0,0,1-1.15-3.29l-.06-1.53a11.77,11.77,0,0,1,.32,1.65s.24,2,1,2.56a18.63,18.63,0,0,0-.47-2.35,17.86,17.86,0,0,1-.53-3.06,20.33,20.33,0,0,1-.44-3.56A5.63,5.63,0,0,0,44,8.09S42,5.42,41.11,5a7.44,7.44,0,0,0-5-1s-3.68.12-4.26-.5A2,2,0,0,0,29.41,3.36Z"/></svg>