<svg xmlns="http://www.w3.org/2000/svg" viewBox="0 0 41.01 29.62"><defs><style>.a{opacity:0.8;}.b,.c{fill:#fff;}.b,.d{fill-rule:evenodd;}.d{fill:#5a6066;}</style></defs><title>Asset 146</title><g class="a"><path class="b" d="M6.41,28.12A2.54,2.54,0,0,1,6,28.05c-1.57-.37-3.88-2.17-4.35-3.44s.62-2.75,1.64-3.67l.44-.44c.88-.87,1.76-1.74,2.63-2.59a.71.71,0,0,0,.24-.56A1.38,1.38,0,0,1,6.06,17L4.73,15.53a1.5,1.5,0,0,1,.21-2.2,8.55,8.55,0,0,1,1.11-.7,3.6,3.6,0,0,0,.82-.54,20,20,0,0,1,2-1.78,3.81,3.81,0,0,0,.65-.79,9.53,9.53,0,0,1,.73-.95,1.58,1.58,0,0,1,1.14-.52h0a1.53,1.53,0,0,1,1.14.47l.52.58,7.23-6.51.11-.09.51-.46a2.15,2.15,0,0,1,1.44-.56h.11a2.06,2.06,0,0,1,1.44.69l.33.37a2.1,2.1,0,0,1,.53,1.57,2.15,2.15,0,0,1-.21.75,1.75,1.75,0,0,1,2.58.45L36.8,21.14a1.59,1.59,0,0,1,.57-.11,1.76,1.76,0,0,1,.59.11l.53.21a1.74,1.74,0,0,1,.91.92,1.62,1.62,0,0,1,0,1.28l-.5,1.09a1.74,1.74,0,0,1-1.69,2.16H30.42A1.75,1.75,0,0,1,28.93,26l-3.31-5.41L22.3,26a1.75,1.75,0,0,1-1.49.83H14.08a1.74,1.74,0,0,1-1.69-2.15l-.51-1.12a1.69,1.69,0,0,1-.14-.69,1.77,1.77,0,0,1-.6.1h0a2.1,2.1,0,0,1-.43-.07c0,.07,0,.14,0,.21a4.11,4.11,0,0,1-1,2.43c-.53.62-1.09,1.26-1.67,1.89a2.08,2.08,0,0,1-1.54.72ZM13.87,21a1.6,1.6,0,0,1,.57.1L24,5.59,21.46,7.86l-2.57,2.31a7.35,7.35,0,0,1,.12,1.1A4.12,4.12,0,0,1,18,14a4.4,4.4,0,0,1-.42.43l-.28.25-3.09,3a3.27,3.27,0,0,1,0,.48,3,3,0,0,1-.66,2l-.19.25a1.75,1.75,0,0,1-.06.75A1.77,1.77,0,0,1,13.87,21Z"/><path class="c" d="M22.32,3h0a.58.58,0,0,1,.4.19l.33.37a.58.58,0,0,1,.15.44.65.65,0,0,1-.22.43L22.4,5h0L21.23,6,17.41,9.47a.3.3,0,0,0-.11.31l.06.35a7.29,7.29,0,0,1,.14,1.16,2.6,2.6,0,0,1-.6,1.77,2.71,2.71,0,0,1-.27.28l-.29.26-3.81,3.65a2.1,2.1,0,0,1,.27.95,1.52,1.52,0,0,1-.35,1l-.6.77a.15.15,0,0,0,0,.2c.22.45.2.56-.16.92s-.38.36-.53.36h0c-.16,0-.28-.15-.49-.45l-.1-.16a2.46,2.46,0,0,0-.16-.24A.49.49,0,0,0,10,20.4a.51.51,0,0,0-.37.19,1.71,1.71,0,0,0-.37,1.06c0,.24,0,.48,0,.72s0,.41,0,.62a2.64,2.64,0,0,1-.62,1.56c-.52.61-1.07,1.23-1.63,1.85a.6.6,0,0,1-.44.23h0l-.1,0A6.5,6.5,0,0,1,3,24.09c-.26-.69,1.18-2,1.24-2h0l.48-.48c.85-.85,1.74-1.72,2.62-2.58A2.27,2.27,0,0,0,8,16.81a1.58,1.58,0,0,1,.58-1.71l.26-.23.1-.1.1-.1,0,0-.42-.46a3.05,3.05,0,0,0-.83,1,4.1,4.1,0,0,1-.63.81l0,0L5.85,14.53l.06,0a7.09,7.09,0,0,1,.88-.54A4.72,4.72,0,0,0,8,13.14,18.35,18.35,0,0,1,9.78,11.5a4.87,4.87,0,0,0,1-1.11,7.9,7.9,0,0,1,.61-.8l0-.05L12.72,11l-.06,0-.12.09-.26.18-.46.25a3.53,3.53,0,0,0-1,.67l-.11.11,0,0,.43.47L21.26,3.72h0l.62-.56A.65.65,0,0,1,22.32,3M11,15.8a.64.64,0,0,0,.42-.19l4.4-4.3c.2-.19.26-.45.15-.57a.21.21,0,0,0-.15-.06h0a.63.63,0,0,0-.41.2L11,15.17a.62.62,0,0,0-.21.41.23.23,0,0,0,.06.16.22.22,0,0,0,.16.06M9.44,14.34l1.33-1.2-.43-.47L9,13.87l.43.47m1.89,4.8c.47-.4.71-.77.69-1.08a.57.57,0,0,0-.19-.39l-.17.17a5,5,0,0,0-.39.42.57.57,0,0,0,0,.88M25.62,6a.24.24,0,0,1,.21.12L36.9,24.17h0l0,0,.33-1.53a.12.12,0,0,1,.12-.1h0l.52.21a.12.12,0,0,1,.06.16l-.8,1.74h0l.18.29a.24.24,0,0,1-.21.37H30.42a.24.24,0,0,1-.21-.12L25.83,18a.24.24,0,0,0-.41,0L21,25.19a.24.24,0,0,1-.21.12H14.08a.24.24,0,0,1-.21-.37l.16-.27-.8-1.75a.12.12,0,0,1,.06-.16l.52-.21h0a.12.12,0,0,1,.12.1l.34,1.57v0L25.41,6.11A.24.24,0,0,1,25.62,6m-3.3-6a3.64,3.64,0,0,0-2.45.94l-.46.42-.16.13L13.07,7.05a3,3,0,0,0-1.67-.52h0a3,3,0,0,0-2.21,1l0,.05a10.6,10.6,0,0,0-.86,1.1,5.07,5.07,0,0,1-.36.48A21.21,21.21,0,0,0,5.8,11c-.05,0-.29.17-.47.27a9.76,9.76,0,0,0-1.24.78l0,0a3,3,0,0,0-.42,4.41l.93,1L2.66,19.44l-.43.43C.29,21.62-.4,23.44.23,25.14.92,27,3.74,29,5.65,29.51a3.42,3.42,0,0,0,.69.1h.17a3.57,3.57,0,0,0,2.65-1.21c.59-.65,1.17-1.3,1.7-1.93l.2-.24a3.24,3.24,0,0,0,3,2.06h6.74a3.26,3.26,0,0,0,2.77-1.55l2-3.32,2,3.32a3.26,3.26,0,0,0,2.76,1.55h6.74a3.24,3.24,0,0,0,3.24-3.43l.33-.71A3.12,3.12,0,0,0,39,20l-.52-.21a3.26,3.26,0,0,0-.95-.22l-9.19-15A3.21,3.21,0,0,0,26.11,3a3.57,3.57,0,0,0-.8-1.48L25,1.18A3.56,3.56,0,0,0,22.5,0Z"/></g><path class="d" d="M16.34,13.6l.29-.26a2.72,2.72,0,0,0,.27-.28,2.6,2.6,0,0,0,.6-1.77,7.29,7.29,0,0,0-.14-1.16l-.06-.35a.3.3,0,0,1,.11-.31L21.23,6,22.4,5h0L23,4.43A.65.65,0,0,0,23.23,4a.58.58,0,0,0-.15-.44l-.33-.37a.58.58,0,0,0-.4-.19.65.65,0,0,0-.47.17l-.62.56h0L11.12,12.84l-.43-.47,0,0,.11-.11a3.53,3.53,0,0,1,1-.67l.46-.25.26-.18.12-.09.06,0L11.39,9.54l0,.05a7.88,7.88,0,0,0-.61.8,4.87,4.87,0,0,1-1,1.11A18.35,18.35,0,0,0,8,13.14a4.72,4.72,0,0,1-1.17.81,7.09,7.09,0,0,0-.88.54l-.06,0L7.17,16l0,0a4.1,4.1,0,0,0,.63-.81,3.05,3.05,0,0,1,.83-1l.42.46,0,0-.1.1-.1.1-.26.23A1.58,1.58,0,0,0,8,16.81,2.27,2.27,0,0,1,7.39,19c-.88.85-1.76,1.73-2.62,2.58l-.48.48h0c-.06.05-1.5,1.35-1.24,2a6.5,6.5,0,0,0,3.35,2.51l.1,0a.59.59,0,0,0,.46-.23c.56-.62,1.12-1.24,1.63-1.85A2.64,2.64,0,0,0,9.2,23c0-.21,0-.41,0-.62s0-.48,0-.72a1.71,1.71,0,0,1,.37-1.06.46.46,0,0,1,.75,0,2.48,2.48,0,0,1,.16.24l.1.16c.2.3.33.44.49.45s.3-.12.54-.36.37-.48.16-.92a.15.15,0,0,1,0-.2l.6-.77a1.52,1.52,0,0,0,.35-1,2.11,2.11,0,0,0-.27-.95Zm-6.9.74L9,13.87l1.33-1.2.43.47Zm1.89,4.8a.57.57,0,0,1,0-.88,5,5,0,0,1,.39-.42l.17-.17a.57.57,0,0,1,.19.39C12,18.37,11.8,18.74,11.33,19.14Zm.1-3.53c-.19.19-.46.25-.58.13a.23.23,0,0,1-.06-.16.62.62,0,0,1,.21-.41l4.4-4.3a.62.62,0,0,1,.43-.2.21.21,0,0,1,.15.06c.12.12,0,.38-.15.57Zm26.5,7.14a.12.12,0,0,1,.06.16l-.8,1.74h0l.18.29a.24.24,0,0,1-.21.37H30.42a.24.24,0,0,1-.21-.12L25.83,18a.24.24,0,0,0-.41,0L21,25.19a.24.24,0,0,1-.21.12H14.08a.24.24,0,0,1-.21-.37l.16-.27-.8-1.75a.12.12,0,0,1,.06-.16l.52-.21a.12.12,0,0,1,.16.09l.34,1.57v0L25.41,6.11a.24.24,0,0,1,.41,0L36.9,24.17h0l0,0,.33-1.53a.12.12,0,0,1,.16-.09Z"/></svg>