<svg xmlns="http://www.w3.org/2000/svg" viewBox="0 0 29.88 38"><defs><style>.a{opacity:0.8;}.b{fill:#fff;}.c{fill:#ffab24;}</style></defs><title>Asset 78</title><g class="a"><path class="b" d="M19,36.5c-3.48,0-6-1.51-6-3.6V21.31a3,3,0,0,1,1.61-2.53v-.83a2.83,2.83,0,0,1,2.94-2.69,2.86,2.86,0,0,1,2.93,2.46h2V13.8a3,3,0,0,1,5.89,0V32.9c0,2.09-2.53,3.6-6,3.6Z"/><path class="b" d="M25.43,12.61a1.34,1.34,0,0,1,1.44,1.19V32.9c0,1.16-2,2.1-4.5,2.1H19c-2.49,0-4.5-.94-4.5-2.1V21.31c0-.65.63-1.23,1.61-1.61V18a1.34,1.34,0,0,1,1.44-1.19A1.34,1.34,0,0,1,19,18v1.26h3.38a9.17,9.17,0,0,1,1.62.14V13.8a1.34,1.34,0,0,1,1.44-1.19m-2.37,11a.6.6,0,1,0-.6-.6.6.6,0,0,0,.6.6m-2.37,0a.6.6,0,1,0-.6-.6.6.6,0,0,0,.6.6m-2.37,0a.6.6,0,1,0-.6-.6.6.6,0,0,0,.6.6m-.6,3.26h5.95V24.78H17.71v2.06M25.43,9.61A4.33,4.33,0,0,0,21,13.8v1.5a4.54,4.54,0,0,0-3.44-1.54A4.33,4.33,0,0,0,13.11,18V18a4.29,4.29,0,0,0-1.61,3.29V32.9c0,3,3.09,5.1,7.5,5.1h3.38c4.42,0,7.5-2.1,7.5-5.1V13.8a4.33,4.33,0,0,0-4.44-4.19Z"/><path class="b" d="M6,16.37a1.5,1.5,0,0,1-1.5-1.48l0-1.4A1.5,1.5,0,0,1,6,12l10.28-.13a1.5,1.5,0,0,1,1.5,1.48l0,1.4a1.5,1.5,0,0,1-1.48,1.52Z"/><path class="b" d="M16.24,13.34l0,1.4L6,14.87l0-1.4,10.26-.13m0-3h0l-10.26.13a3,3,0,0,0-3,3l0,1.4a3,3,0,0,0,3,3H6l10.26-.13a3,3,0,0,0,3-3l0-1.4a3,3,0,0,0-3-3Z"/><rect class="b" x="4.49" y="6.31" width="8.6" height="4.4" rx="1.5" ry="1.5"/><path class="b" d="M11.59,7.81v1.4H6V7.81h5.6m0-3H6a3,3,0,0,0-3,3v1.4a3,3,0,0,0,3,3h5.6a3,3,0,0,0,3-3V7.81a3,3,0,0,0-3-3Z"/><rect class="b" x="4.49" y="17.51" width="8.6" height="4.4" rx="1.5" ry="1.5"/><path class="b" d="M11.59,19v1.4H6V19h5.6m0-3H6a3,3,0,0,0-3,3v1.4a3,3,0,0,0,3,3h5.6a3,3,0,0,0,3-3V19a3,3,0,0,0-3-3Z"/><path class="b" d="M3.63,27.54a2.34,2.34,0,0,1-1.3-.42,2,2,0,0,1-.83-1.71V3.63A2.16,2.16,0,0,1,3.63,1.5H16.34a2.08,2.08,0,0,1,1.7.85L22.73,8.5l.06.08a2.19,2.19,0,0,1,.37,1.2V17a1.5,1.5,0,0,1-1.5,1.5H20.41a1.5,1.5,0,0,1-1.5-1.5V11.92H16.22a2.16,2.16,0,0,1-2.13-2.13v-4H5.76V23.29H11.4a1.5,1.5,0,0,1,1.5,1.5V26a1.5,1.5,0,0,1-1.5,1.5Z"/><path class="b" d="M16.34,3a.6.6,0,0,1,.5.25l4.69,6.16a.68.68,0,0,1,.13.38V17H20.41V10.42H16.22a.64.64,0,0,1-.63-.63V4.26H4.26V24.79H11.4V26H3.63a.88.88,0,0,1-.46-.17A.57.57,0,0,1,3,25.41V3.63A.64.64,0,0,1,3.63,3H16.34m.5,6.12h2.89l-2.89-3.9v3.9M16.34,0H3.63A3.63,3.63,0,0,0,0,3.63V25.41a3.47,3.47,0,0,0,1.5,3A3.83,3.83,0,0,0,3.63,29H11.4a3,3,0,0,0,3-3V24.79a3,3,0,0,0-3-3H7.26V7.26h5.33V9.79a3.63,3.63,0,0,0,3.63,3.63h1.19V17a3,3,0,0,0,3,3h1.26a3,3,0,0,0,3-3V9.79a3.68,3.68,0,0,0-.63-2l-.11-.16L19.23,1.43A3.59,3.59,0,0,0,16.34,0Z"/></g><path class="c" d="M25.43,12.61A1.34,1.34,0,0,0,24,13.8v5.56a9.17,9.17,0,0,0-1.62-.14H19V18a1.34,1.34,0,0,0-1.44-1.19A1.34,1.34,0,0,0,16.11,18V19.7c-1,.39-1.61,1-1.61,1.61V32.9c0,1.16,2,2.1,4.5,2.1h3.38c2.49,0,4.5-.94,4.5-2.1V13.8A1.34,1.34,0,0,0,25.43,12.61Zm-4.75,9.77a.6.6,0,1,1-.6.6A.6.6,0,0,1,20.68,22.38Zm-2.37,0a.6.6,0,1,1-.6.6A.6.6,0,0,1,18.31,22.38Zm5.35,4.46H17.71V24.78h5.95Zm-.6-3.26a.6.6,0,1,1,.6-.6A.6.6,0,0,1,23.06,23.58Z"/><rect class="c" x="5.99" y="13.41" width="10.26" height="1.4" transform="translate(-0.18 0.14) rotate(-0.74)"/><rect class="c" x="5.99" y="7.81" width="5.6" height="1.4"/><rect class="c" x="5.99" y="19.01" width="5.6" height="1.4"/><path class="c" d="M21.54,9.41,16.84,3.25a.6.6,0,0,0-.5-.25H3.63A.64.64,0,0,0,3,3.63V25.41a.57.57,0,0,0,.17.46.88.88,0,0,0,.46.17H11.4V24.79H4.26V4.26H15.59V9.79a.64.64,0,0,0,.63.63h4.19V17h1.26V9.79A.68.68,0,0,0,21.54,9.41Zm-4.69-.29V5.22l2.89,3.9Z"/></svg>