<svg xmlns="http://www.w3.org/2000/svg" viewBox="0 0 36 32.04"><defs><style>.a{opacity:0.8;}.b{fill:#fff;}.c{fill:#9ea7b3;}</style></defs><title>Asset 89</title><g class="a"><path class="b" d="M9.39,30.54a3.39,3.39,0,0,1-3.2-2.84,3.1,3.1,0,0,1,1.32-3.2c.63-.42,1.28-.81,1.94-1.21H8.92A7.37,7.37,0,0,1,2,13.27a7.47,7.47,0,0,1,2.28-3.06l.37-.27A7.08,7.08,0,0,1,11.5,4.4,7,7,0,0,1,13,4.56,9.52,9.52,0,0,1,19.88,1.5a8.71,8.71,0,0,1,1.85.2,9.15,9.15,0,0,1,5.65,3.83,8.8,8.8,0,0,1,1.5,4.2,6.83,6.83,0,0,1,5.36,4.88,6.84,6.84,0,0,1-6.3,8.67H26.35c0,.42,0,.85-.07,1.28A3.17,3.17,0,0,1,23,27.32h-.12a3.39,3.39,0,0,1-3.2-2.84,3.62,3.62,0,0,1,.12-1.65l-.36-.06c0,.26,0,.53,0,.79,0,.82,0,1.67-.08,2.54a3.17,3.17,0,0,1-3.28,2.75H16a3.42,3.42,0,0,1-3.1-2.4c0,.44,0,.89-.07,1.33A3.17,3.17,0,0,1,9.5,30.54Zm3.49-6.14v0h0S12.87,24.39,12.87,24.4ZM15,16.29a1.5,1.5,0,0,1,1.42,1l0,.13a1.79,1.79,0,0,1,.14.68c0,.34,0,.66,0,1,0,.72,0,1.46-.06,2.21l.59-.36a3.35,3.35,0,0,1,1-4.14c.67-.44,1.36-.86,2.07-1.29l.9-.54a1.5,1.5,0,0,1,2.2.79l0,.13a1.79,1.79,0,0,1,.14.68c0,.34,0,.66,0,1,0,.72,0,1.46-.06,2.21l.53-.32a1.5,1.5,0,0,1,1.69.08A1.5,1.5,0,0,1,27,18.74l.84,0a2.31,2.31,0,0,0,1.72-1,2.25,2.25,0,0,0,.36-2,2.36,2.36,0,0,0-2.29-1.74H25.87a1.5,1.5,0,0,1-1.5-1.5v-.74s0-.09,0-.13a5.42,5.42,0,0,0-.72-3.67,4.68,4.68,0,0,0-2.93-2A3.86,3.86,0,0,0,19.88,6a4.84,4.84,0,0,0-4,2.12l-.08.11L15.34,9a1.5,1.5,0,0,1-2,.55l-.64-.35a2.44,2.44,0,0,0-1.19-.31A2.52,2.52,0,0,0,9,11.37v.46a1.5,1.5,0,0,1-.88,1.35l-.44.2a3.26,3.26,0,0,0-.64.39,2.9,2.9,0,0,0-.85,1.17,2.77,2.77,0,0,0,.13,2.27,3.49,3.49,0,0,0,.34.53,2.32,2.32,0,0,0,.34.37,2.88,2.88,0,0,0,2,.68h1.26a1.49,1.49,0,0,1,.38,0,3.17,3.17,0,0,1,.58-.49c.66-.44,1.34-.85,2-1.27l.93-.56A1.5,1.5,0,0,1,15,16.29Z"/><path class="b" d="M19.88,3a7.16,7.16,0,0,1,1.53.17,7.68,7.68,0,0,1,4.73,3.22,7.77,7.77,0,0,1,1.29,4.73h.2A5.35,5.35,0,0,1,32.8,15a5.34,5.34,0,0,1-4.91,6.76H26.23L27,20.24l.84,0a3.8,3.8,0,0,0,2.93-1.57,3.75,3.75,0,0,0,.59-3.26,3.85,3.85,0,0,0-3.72-2.82H25.87v-.74a6.83,6.83,0,0,0-1-4.66,6.19,6.19,0,0,0-3.82-2.6,5.3,5.3,0,0,0-1.19-.13,6.36,6.36,0,0,0-5.24,2.79,2.22,2.22,0,0,0-.14.21L14,8.24l-.64-.35a3.92,3.92,0,0,0-1.91-.49,4,4,0,0,0-4,3.94v.47l-.44.2a4.72,4.72,0,0,0-.93.57A4.4,4.4,0,0,0,4.8,14.37,4.28,4.28,0,0,0,5,17.9a5.12,5.12,0,0,0,.5.78,3.71,3.71,0,0,0,.54.58,4.35,4.35,0,0,0,3,1h1.27a1.89,1.89,0,0,0-.22,1.3c0,.07,0,.13,0,.19H8.92A5.69,5.69,0,0,1,3.65,18.6a5.75,5.75,0,0,1-.26-4.78,6,6,0,0,1,1.81-2.43A7.2,7.2,0,0,1,6,10.85H6A5.56,5.56,0,0,1,11.5,5.9a5.42,5.42,0,0,1,2,.38h0A7.92,7.92,0,0,1,19.88,3m2,13.25a1.66,1.66,0,0,1,.11.33c0,1.13,0,2.26-.08,3.37a1.71,1.71,0,0,1-1.79,1.39h-.07a1.88,1.88,0,0,1-1.76-1.55A1.66,1.66,0,0,1,19,18.05c.93-.62,1.91-1.18,2.92-1.8M15,17.79a1.69,1.69,0,0,1,.11.33c0,1.13,0,2.26-.08,3.37a1.71,1.71,0,0,1-1.79,1.39h-.07a1.88,1.88,0,0,1-1.76-1.55,1.66,1.66,0,0,1,.66-1.75C13,19,14,18.41,15,17.79m-4.71,2.5h0m14.49.44a1.7,1.7,0,0,1,.11.33c0,1.13,0,2.26-.08,3.37A1.71,1.71,0,0,1,23,25.82h-.07a1.88,1.88,0,0,1-1.76-1.55,1.66,1.66,0,0,1,.66-1.75c.93-.62,1.91-1.18,2.92-1.8m-6.92,1.54a1.68,1.68,0,0,1,.11.33c0,1.13,0,2.26-.08,3.37a1.71,1.71,0,0,1-1.79,1.39H16a1.88,1.88,0,0,1-1.76-1.55,1.66,1.66,0,0,1,.66-1.75c.93-.62,1.91-1.18,2.92-1.8m-6.57,1.69a1.7,1.7,0,0,1,.11.33c0,1.13,0,2.26-.08,3.37A1.71,1.71,0,0,1,9.5,29H9.44A1.88,1.88,0,0,1,7.68,27.5a1.66,1.66,0,0,1,.66-1.75c.93-.62,1.91-1.18,2.92-1.8M19.88,0a11.12,11.12,0,0,0-7.44,3,8.42,8.42,0,0,0-.94-.05A8.6,8.6,0,0,0,3.33,9.05,9,9,0,0,0,.62,12.69,8.76,8.76,0,0,0,1,20,8.61,8.61,0,0,0,5.63,24.2a4.76,4.76,0,0,0-.93,3.7A4.87,4.87,0,0,0,9.34,32H9.5a4.82,4.82,0,0,0,4.19-2.31,4.81,4.81,0,0,0,2.21.63h.16A4.82,4.82,0,0,0,20.3,28a4.82,4.82,0,0,0,2.54.82H23a4.67,4.67,0,0,0,4.77-4H28A8.33,8.33,0,0,0,30.21,8.52a10.21,10.21,0,0,0-1.6-3.83A10.73,10.73,0,0,0,22.09.25,10.23,10.23,0,0,0,19.88,0ZM17,9.07,17.13,9a3.37,3.37,0,0,1,2.74-1.45,2.31,2.31,0,0,1,.52.05,3.19,3.19,0,0,1,2,1.37,3.74,3.74,0,0,1,.47,2.7q0,.13,0,.27v.74a3,3,0,0,0,.12.83l-.07,0a3,3,0,0,0-2.58.27l-.9.54c-.69.42-1.41.85-2.11,1.31l-.2.14a3,3,0,0,0-3.71-.46l-.9.54c-.69.42-1.41.85-2.11,1.32l-.27.2H9A1.34,1.34,0,0,1,8,17l0,0-.1-.11,0,0a2.19,2.19,0,0,1-.21-.33,1.27,1.27,0,0,1,0-1,1.4,1.4,0,0,1,.4-.55,1.59,1.59,0,0,1,.31-.19l.43-.19a3,3,0,0,0,1.77-2.7v-.47a1,1,0,0,1,1-1,.92.92,0,0,1,.45.11l.66.36a3,3,0,0,0,4-1.1L17,9.07Zm8,8.66v-.18c0-.31,0-.62,0-.92a3.24,3.24,0,0,0-.21-1.2,3,3,0,0,0,1.08.2h1.75a.85.85,0,0,1,.84.64.77.77,0,0,1-.13.68.79.79,0,0,1-.54.33l-.67,0H27a3,3,0,0,0-1.71.53l-.27,0Z"/></g><path class="c" d="M32,19.59a5.27,5.27,0,0,1-4.08,2.19H26.23L27,20.24l.84,0a3.8,3.8,0,0,0,2.93-1.57,3.75,3.75,0,0,0,.59-3.26,3.85,3.85,0,0,0-3.72-2.82H25.87v-.74a6.83,6.83,0,0,0-1-4.66,6.19,6.19,0,0,0-3.82-2.6,5.3,5.3,0,0,0-1.19-.13,6.36,6.36,0,0,0-5.24,2.79,2.27,2.27,0,0,0-.14.21L14,8.24l-.64-.35a3.92,3.92,0,0,0-1.91-.49,4,4,0,0,0-4,3.94v.47l-.44.2a4.72,4.72,0,0,0-.93.57A4.4,4.4,0,0,0,4.8,14.37,4.28,4.28,0,0,0,5,17.9a5.12,5.12,0,0,0,.5.78,3.7,3.7,0,0,0,.54.58,4.35,4.35,0,0,0,3,1h1.27a1.89,1.89,0,0,0-.22,1.3c0,.07,0,.13,0,.19H8.92A5.69,5.69,0,0,1,3.65,18.6a5.75,5.75,0,0,1-.26-4.78,6,6,0,0,1,1.81-2.43A7.21,7.21,0,0,1,6,10.85H6A5.56,5.56,0,0,1,11.5,5.9a5.42,5.42,0,0,1,2,.38h0A7.92,7.92,0,0,1,19.88,3a7.16,7.16,0,0,1,1.53.17,7.68,7.68,0,0,1,4.73,3.22,7.77,7.77,0,0,1,1.29,4.73h.2A5.35,5.35,0,0,1,32.8,15,5.25,5.25,0,0,1,32,19.59Zm-19.91,0a1.66,1.66,0,0,0-.66,1.75,1.88,1.88,0,0,0,1.76,1.55A1.72,1.72,0,0,0,15,21.49c.1-1.12.07-2.25.08-3.37a1.69,1.69,0,0,0-.11-.33C14,18.41,13,19,12.05,19.59ZM8.34,25.75a1.66,1.66,0,0,0-.66,1.75A1.88,1.88,0,0,0,9.44,29a1.72,1.72,0,0,0,1.85-1.39c.1-1.12.07-2.25.08-3.37a1.69,1.69,0,0,0-.11-.33C10.25,24.57,9.28,25.13,8.34,25.75Zm6.57-1.69a1.66,1.66,0,0,0-.66,1.75A1.88,1.88,0,0,0,16,27.36,1.72,1.72,0,0,0,17.86,26c.1-1.12.07-2.25.08-3.37a1.69,1.69,0,0,0-.11-.33C16.82,22.89,15.85,23.45,14.91,24.06Zm4.06-6a1.66,1.66,0,0,0-.66,1.75,1.88,1.88,0,0,0,1.76,1.55A1.72,1.72,0,0,0,21.93,20c.1-1.12.07-2.25.08-3.37a1.69,1.69,0,0,0-.11-.33C20.88,16.87,19.91,17.44,19,18.05Zm2.86,4.47a1.66,1.66,0,0,0-.66,1.75,1.88,1.88,0,0,0,1.76,1.55,1.72,1.72,0,0,0,1.85-1.39c.1-1.12.07-2.25.08-3.37a1.69,1.69,0,0,0-.11-.33C23.74,21.35,22.77,21.91,21.83,22.53Z"/></svg>