<?xml version="1.0" encoding="utf-8"?>
<!-- Generator: Adobe Illustrator 20.1.0, SVG Export Plug-In . SVG Version: 6.00 Build 0)  -->
<svg version="1.1" id="Layer_1" xmlns="http://www.w3.org/2000/svg" xmlns:xlink="http://www.w3.org/1999/xlink" x="0px" y="0px"
	 viewBox="0 0 38.8 41.1" style="enable-background:new 0 0 38.8 41.1;" xml:space="preserve">
<style type="text/css">
	.st0{opacity:0.8;}
	.st1{fill:#FFFFFF;}
	.st2{fill:#FFAB24;}
</style>
<title>Asset 35</title>
<g class="st0">
	<path class="st1" d="M28,39.6c-0.2,0-0.5-0.1-0.7-0.2l-7.8-3.9c-0.5-0.3-0.8-0.8-0.8-1.3v-5.1c0-0.3,0.1-0.5,0.2-0.8
		c-0.1-0.2-0.2-0.5-0.2-0.8v-8.4l-2.1,2c0.1,0.2,0.1,0.5,0.1,0.7c0,0.8-0.2,1.6-0.7,2.2l-0.3,0.4c0.1,0.8-0.2,1.5-0.8,2
		c-0.4,0.5-1.1,0.9-1.7,0.9c-0.3,0-0.6-0.1-0.9-0.2c0,0.3,0,0.5,0,0.7c-0.1,1-0.5,2-1.1,2.8C10.4,31.4,9.7,32.2,9,33
		c-0.4,0.5-1,0.8-1.7,0.8H7.2c-0.1,0-0.3,0-0.4-0.1c-1.8-0.4-4.6-2.6-5.2-4c-0.6-1.6,1-3.3,2-4.2L4.2,25c1-1.1,2.1-2.2,3.2-3.2
		c0.3-0.3,0.5-0.8,0.4-1.2c-0.3-0.1-0.5-0.2-0.7-0.4l-1.6-1.8c-0.6-0.6-0.5-1.6,0.1-2.1c0,0,0.1-0.1,0.1-0.1
		c0.4-0.3,0.9-0.6,1.3-0.8c0.4-0.2,0.8-0.4,1.1-0.7c0.8-0.8,1.6-1.5,2.4-2.2c0.3-0.3,0.6-0.7,0.9-1.1c0.3-0.4,0.6-0.8,0.9-1.1
		c0.3-0.3,0.7-0.5,1.1-0.5l0,0c0.4,0,0.8,0.2,1.1,0.5l0.9,1l9.2-8.3l0.1-0.1l0.6-0.6c0.4-0.4,1-0.6,1.5-0.6h0.1
		c0.6,0,1.1,0.3,1.5,0.7L29,2.7c0.4,0.5,0.6,1.1,0.6,1.7c0,0.6-0.3,1.1-0.8,1.5l-2.2,2l-4.3,3.8c0.1,0.5,0.2,1,0.2,1.5
		c0,1.3-0.5,2.7-1.5,3.6l7,3.5l7.2-3.6c0.7-0.4,1.6-0.1,2,0.7c0.1,0.2,0.2,0.4,0.2,0.7v9.4c0,0.3-0.1,0.5-0.2,0.8
		c0.1,0.2,0.2,0.5,0.2,0.8v5.1c0,0.6-0.3,1.1-0.8,1.3l-7.8,3.9C28.5,39.5,28.2,39.6,28,39.6z"/>
	<path class="st1" d="M26.9,3L26.9,3c0.2,0,0.4,0.1,0.5,0.2l0.4,0.5C28,3.8,28.1,4,28,4.2c0,0.2-0.1,0.4-0.3,0.5L27,5.5l0,0
		l-1.4,1.3L20.9,11c-0.1,0.1-0.2,0.2-0.1,0.4l0.1,0.4c0.1,0.5,0.2,1,0.2,1.5c0,0.8-0.2,1.6-0.8,2.2c-0.1,0.1-0.2,0.2-0.3,0.4
		l-0.4,0.3l-4.7,4.5c0.2,0.4,0.3,0.8,0.3,1.2c0,0.5-0.1,0.9-0.4,1.2c-0.2,0.3-0.5,0.6-0.8,1c-0.1,0.1-0.1,0.2,0,0.2
		c0.3,0.5,0.2,0.7-0.2,1.1c-0.3,0.3-0.5,0.5-0.6,0.5l0,0c-0.2,0-0.4-0.2-0.6-0.5l-0.1-0.2c-0.1-0.1-0.1-0.2-0.2-0.3
		c-0.1-0.2-0.3-0.3-0.5-0.3c-0.2,0-0.3,0.1-0.5,0.2c-0.3,0.4-0.5,0.8-0.5,1.3c0,0.3,0,0.6,0,0.9s0,0.5,0,0.8c0,0.7-0.3,1.4-0.8,1.9
		c-0.6,0.8-1.3,1.5-2,2.3c-0.1,0.2-0.3,0.3-0.5,0.3l0,0H7.4C5.6,31.8,4,30.7,3,29.1c-0.3-0.9,1.5-2.5,1.5-2.5l0,0L5.1,26
		c1.1-1,2.2-2.1,3.3-3.2c0.7-0.7,1-1.7,0.8-2.7C9,19.3,9.3,18.5,9.9,18c0.1-0.1,0.2-0.2,0.3-0.3l0.1-0.1l0.1-0.1l0,0L10,16.9
		c-0.4,0.3-0.8,0.7-1,1.2c-0.2,0.4-0.5,0.7-0.8,1l-0.1,0l-1.6-1.8l0.1,0c0.3-0.2,0.7-0.5,1.1-0.7c0.5-0.3,1-0.6,1.4-1
		c0.7-0.7,1.5-1.4,2.3-2c0.5-0.4,0.9-0.9,1.2-1.4c0.2-0.3,0.5-0.7,0.8-1l0.1-0.1l1.6,1.8V13l-0.1,0.1c-0.1,0.1-0.2,0.2-0.3,0.2
		c-0.2,0.1-0.4,0.2-0.6,0.3c-0.5,0.2-0.9,0.5-1.2,0.8l-0.1,0.1l0,0l0.5,0.6L25.6,3.9l0,0l0.8-0.7C26.5,3.1,26.7,3,26.9,3 M35.8,18.1
		v9.4L28,31.4l-7.9-3.9v-9.4L28,22L35.8,18.1 M35.8,29.1v5.1L28,38.1l-7.8-3.9v-5.1L28,33L35.8,29.1 M26.9,0c-0.9,0-1.9,0.4-2.5,1
		l-0.6,0.5l-0.2,0.1L15.5,9c-0.6-0.6-1.3-0.9-2.1-0.9l0,0c-0.8,0-1.7,0.4-2.2,1l-0.1,0.1c-0.4,0.4-0.7,0.8-1,1.3
		C10,10.8,9.8,11,9.5,11.2c-0.9,0.7-1.8,1.5-2.5,2.3c-0.2,0.2-0.5,0.3-0.8,0.5c-0.5,0.3-1,0.6-1.4,0.9H4.7c-1.3,1-1.6,2.9-0.6,4.2
		c0.1,0.1,0.1,0.1,0.2,0.2L5.9,21l-2.8,2.8l-0.6,0.6c-1.5,1.4-3.1,3.5-2.3,5.8c0.7,1.9,3.8,4.4,6.2,5c0.2,0.1,0.5,0.1,0.7,0.1h0.2
		c1.1,0,2.1-0.5,2.8-1.3c0.7-0.8,1.4-1.6,2.1-2.4c0.7-0.8,1.2-1.8,1.4-2.8c0.9-0.2,1.7-0.6,2.3-1.3c0.7-0.7,1.2-1.6,1.2-2.6l0,0v2.6
		c0,0.3,0,0.5,0.1,0.8c-0.1,0.3-0.1,0.5-0.1,0.8v5.1c0,1.1,0.6,2.2,1.7,2.7l7.8,3.9c0.8,0.4,1.8,0.4,2.7,0l7.8-3.9
		c1-0.5,1.7-1.5,1.7-2.7v-5.1c0-0.3,0-0.5-0.1-0.8c0.1-0.3,0.1-0.5,0.1-0.8v-9.4c0-1.7-1.3-3-3-3c-0.5,0-0.9,0.1-1.3,0.3L28,18.7
		l-4.7-2.4c0.5-0.9,0.8-2,0.7-3.1c0-0.3,0-0.6-0.1-0.9l3.2-2.9L27.6,9L29,7.7L29.8,7c0.7-0.6,1.2-1.5,1.2-2.5c0.1-1-0.3-2-1-2.8
		l-0.4-0.5C29,0.5,28.1,0.1,27.1,0H26.9z"/>
</g>
<path class="st2" d="M27.8,4.8L27,5.5l0,0l-1.4,1.3L20.9,11c-0.1,0.1-0.2,0.2-0.1,0.4l0.1,0.4c0.1,0.5,0.2,1,0.2,1.5
	c0,0.8-0.2,1.6-0.8,2.2c-0.1,0.1-0.2,0.2-0.3,0.4l-0.4,0.3l-4.7,4.5c0.2,0.4,0.3,0.8,0.3,1.2c0,0.5-0.1,0.9-0.4,1.2
	c-0.2,0.3-0.5,0.6-0.8,1c-0.1,0.1-0.1,0.2,0,0.2c0.3,0.5,0.2,0.7-0.2,1.1s-0.5,0.5-0.7,0.5s-0.4-0.2-0.6-0.5l-0.1-0.2
	c-0.1-0.1-0.1-0.2-0.2-0.3c-0.2-0.3-0.5-0.3-0.8-0.2c-0.1,0-0.1,0.1-0.2,0.2c-0.3,0.4-0.5,0.8-0.5,1.3c0,0.3,0,0.6,0,0.9
	s0,0.5,0,0.8c0,0.7-0.3,1.4-0.8,1.9c-0.6,0.8-1.3,1.5-2,2.3c-0.1,0.2-0.3,0.3-0.6,0.3H7.3C5.6,31.8,4,30.7,3,29.1
	c-0.3-0.9,1.5-2.5,1.5-2.5l0,0L5.1,26c1.1-1,2.2-2.1,3.3-3.2c0.7-0.7,1-1.7,0.8-2.7C9,19.3,9.3,18.5,9.9,18c0.1-0.1,0.2-0.2,0.3-0.3
	l0.1-0.1l0.1-0.1l0,0L10,16.9c-0.4,0.3-0.8,0.7-1,1.2c-0.2,0.4-0.5,0.7-0.8,1l-0.1,0l-1.6-1.8l0.1,0c0.3-0.2,0.7-0.5,1.1-0.7
	c0.5-0.3,1-0.6,1.4-1c0.7-0.7,1.5-1.4,2.3-2c0.5-0.4,0.9-0.9,1.2-1.4c0.2-0.3,0.5-0.7,0.8-1l0.1-0.1l1.6,1.8V13l-0.1,0.1
	c-0.1,0.1-0.2,0.2-0.3,0.2L14,13.6c-0.5,0.2-0.9,0.5-1.2,0.8l-0.1,0.1l0,0l0.5,0.6L25.6,3.9l0,0l0.8-0.7C26.6,3.1,26.8,3,27,3
	c0.2,0,0.4,0.1,0.5,0.2l0.4,0.5C28,3.8,28.1,4,28.1,4.2C28.1,4.4,28,4.6,27.8,4.8z M28,22l-7.8-3.9v9.4l7.8,3.9l7.8-3.9v-9.4L28,22z
	 M35.8,29.1v5.1L28,38.1l-7.8-3.9v-5.1L28,33L35.8,29.1z"/>
</svg>
