<?xml version="1.0" encoding="utf-8"?>
<!-- Generator: Adobe Illustrator 20.0.0, SVG Export Plug-In . SVG Version: 6.00 Build 0)  -->
<svg version="1.1" id="Layer_1" xmlns="http://www.w3.org/2000/svg" xmlns:xlink="http://www.w3.org/1999/xlink" x="0px" y="0px"
	 viewBox="0 0 60 60" style="enable-background:new 0 0 60 60;" xml:space="preserve">
<style type="text/css">
	.st0{opacity:0.8;}
	.st1{fill:#FFFFFF;}
	.st2{fill:#4F8317;}
</style>
<title>traf_rep-black</title>
<g class="st0">
	<path class="st1" d="M38.6,49c-0.2,0-0.5-0.1-0.7-0.2L30,45c-0.5-0.3-0.8-0.8-0.8-1.3v-5.1c0-0.3,0.1-0.5,0.2-0.8
		c-0.1-0.2-0.2-0.5-0.2-0.8v-8.5l-2.1,2c0.1,0.2,0.1,0.5,0.1,0.7c0,0.8-0.2,1.6-0.7,2.2l-0.3,0.4c0.1,0.8-0.2,1.5-0.8,2
		c-0.4,0.5-1.1,0.9-1.7,0.9c-0.3,0-0.6-0.1-0.9-0.2c0,0.3,0,0.5,0,0.7c-0.1,1-0.5,2-1.1,2.8c-0.7,0.8-1.4,1.5-2.1,2.3
		c-0.4,0.5-1,0.8-1.6,0.8h-0.1c-0.1,0-0.3,0-0.4-0.1c-1.8-0.4-4.6-2.6-5.2-4c-0.6-1.6,1-3.3,2-4.2l0.5-0.5c1.1-1,2.2-2.1,3.2-3.2
		c0.3-0.3,0.5-0.8,0.4-1.2c-0.3-0.1-0.5-0.2-0.7-0.4L16,27.8c-0.6-0.6-0.5-1.6,0.1-2.1c0,0,0.1-0.1,0.1-0.1c0.4-0.3,0.9-0.6,1.3-0.8
		c0.4-0.2,0.8-0.4,1.1-0.7c0.8-0.8,1.6-1.5,2.4-2.2c0.3-0.3,0.6-0.7,0.9-1c0.3-0.4,0.6-0.8,0.9-1.1c0.3-0.3,0.7-0.5,1.2-0.5l0,0
		c0.4,0,0.8,0.2,1.1,0.5l0.9,1l9.2-8.3l0.1-0.1l0.6-0.6c0.4-0.4,1-0.6,1.5-0.6h0.1c0.6,0,1.1,0.3,1.5,0.7l0.4,0.5
		c0.4,0.5,0.6,1.1,0.6,1.7c0,0.6-0.3,1.1-0.8,1.5l-2.2,2l-4.3,3.8c0.1,0.5,0.2,1,0.2,1.5c0,1.4-0.5,2.7-1.5,3.6l7,3.5l7.2-3.6
		c0.7-0.4,1.6-0.1,2,0.7c0.1,0.2,0.2,0.4,0.2,0.7V37c0,0.3-0.1,0.5-0.2,0.8c0.1,0.2,0.2,0.5,0.2,0.8v5.1c0,0.6-0.3,1.1-0.8,1.3
		l-7.8,3.9C39,49,38.8,49,38.6,49z"/>
	<path class="st1" d="M37.5,12.4L37.5,12.4c0.2,0,0.4,0.1,0.5,0.2l0.4,0.5c0.1,0.2,0.2,0.3,0.2,0.6c0,0.2-0.1,0.4-0.3,0.5l-0.8,0.7
		l0,0l-1.5,1.3l-4.7,4.2c-0.1,0.1-0.2,0.2-0.1,0.4l0.1,0.4c0.1,0.5,0.2,0.9,0.2,1.4c0,0.8-0.2,1.6-0.8,2.2c-0.1,0.1-0.2,0.2-0.3,0.4
		l-0.4,0.3l-4.7,4.5c0.2,0.4,0.3,0.8,0.3,1.2c0,0.5-0.1,0.9-0.4,1.2c-0.2,0.3-0.5,0.6-0.8,1c-0.1,0.1-0.1,0.2,0,0.2
		c0.3,0.5,0.2,0.7-0.2,1.2c-0.3,0.3-0.5,0.5-0.6,0.5l0,0c-0.2,0-0.4-0.2-0.6-0.5L23,34.6c-0.1-0.1-0.1-0.2-0.2-0.3
		c-0.1-0.2-0.3-0.3-0.5-0.3c-0.2,0-0.3,0.1-0.5,0.2c-0.3,0.4-0.5,0.8-0.5,1.3c0,0.3,0,0.6,0,0.9s0,0.5,0,0.8c0,0.7-0.3,1.4-0.8,1.9
		c-0.6,0.8-1.3,1.5-2,2.3c-0.1,0.2-0.3,0.3-0.5,0.3l0,0H18c-1.7-0.5-3.2-1.6-4.2-3.1c-0.3-0.9,1.5-2.5,1.5-2.5l0,0l0.6-0.6
		c1.1-1,2.2-2.1,3.2-3.2c0.7-0.7,1-1.7,0.8-2.7c-0.2-0.8,0.1-1.6,0.7-2.1c0.1-0.1,0.2-0.2,0.3-0.3l0-0.2l0.1-0.1l0,0l-0.5-0.6
		c-0.4,0.3-0.8,0.7-1,1.2c-0.2,0.4-0.5,0.7-0.8,1l-0.1,0l-1.6-1.8l0.1,0c0.3-0.3,0.7-0.5,1.1-0.7c0.5-0.3,1-0.6,1.5-1
		c0.7-0.7,1.5-1.4,2.3-2c0.5-0.4,0.9-0.9,1.2-1.4c0.2-0.3,0.5-0.7,0.8-1l0.1-0.1l1.7,1.8l-0.1,0l-0.1,0.1c-0.1,0.1-0.2,0.2-0.3,0.2
		c-0.2,0.1-0.4,0.2-0.6,0.3c-0.5,0.2-0.9,0.5-1.2,0.8L23.2,24l0,0l0.5,0.6l12.6-11.3l0,0l0.8-0.7C37.2,12.5,37.4,12.4,37.5,12.4
		 M46.5,27.5V37l-7.8,3.9L30.7,37v-9.5l7.8,3.9L46.5,27.5 M46.4,38.5v5.1l-7.8,3.9l-7.8-3.9v-5.1l7.8,3.9L46.4,38.5 M37.5,9.4
		c-0.9,0-1.9,0.4-2.5,1L34.4,11l-0.2,0.1l-8.1,7.3c-0.6-0.6-1.3-0.9-2.1-0.9l0,0c-0.8,0-1.7,0.4-2.2,1l-0.1,0.1
		c-0.4,0.4-0.7,0.8-1,1.3c-0.2,0.3-0.4,0.5-0.6,0.7c-0.9,0.7-1.8,1.5-2.6,2.3c-0.2,0.2-0.5,0.3-0.8,0.5c-0.5,0.3-1,0.6-1.4,0.9h-0.1
		c-1.3,1-1.6,2.9-0.6,4.2c0.1,0.1,0.1,0.1,0.2,0.2l1.6,1.8l-2.8,2.8l-0.6,0.6c-1.5,1.4-3.2,3.5-2.3,5.8c0.7,1.9,3.8,4.4,6.2,5
		c0.2,0.1,0.5,0.1,0.7,0.1H18c1.1,0,2.1-0.5,2.8-1.3c0.7-0.8,1.4-1.6,2.1-2.4c0.7-0.8,1.2-1.8,1.4-2.8c0.9-0.2,1.7-0.6,2.3-1.3
		c0.7-0.7,1.2-1.6,1.2-2.6l0,0V37c0,0.3,0,0.5,0.1,0.8c-0.1,0.3-0.1,0.5-0.1,0.8v5.1c0,1.1,0.6,2.2,1.7,2.7l7.8,3.9
		c0.8,0.4,1.8,0.4,2.7,0l7.8-3.9c1-0.5,1.7-1.5,1.7-2.7v-5.1c0-0.3,0-0.5-0.1-0.8c0.1-0.3,0.1-0.5,0.1-0.8v-9.5c0-1.7-1.3-3-3-3
		c-0.5,0-0.9,0.1-1.3,0.3l-6.5,3.2l-4.7-2.4c0.5-0.9,0.7-2,0.7-3.1c0-0.3,0-0.6-0.1-0.9l3.2-2.9l0.5-0.5l1.5-1.3l0.8-0.7
		c0.7-0.6,1.2-1.5,1.2-2.5c0.1-1-0.3-2-1-2.8l-0.4-0.5c-0.7-0.7-1.6-1.2-2.6-1.2L37.5,9.4z"/>
</g>
<path class="st2" d="M38.4,14.2l-0.8,0.7l0,0l-1.5,1.3l-4.7,4.2c-0.1,0.1-0.2,0.2-0.1,0.4l0.1,0.4c0.1,0.5,0.2,0.9,0.2,1.4
	c0,0.8-0.2,1.6-0.8,2.2c-0.1,0.1-0.2,0.2-0.3,0.4l-0.4,0.3l-4.7,4.5c0.2,0.4,0.3,0.8,0.3,1.2c0,0.5-0.1,0.9-0.4,1.2
	c-0.2,0.3-0.5,0.6-0.8,1c-0.1,0.1-0.1,0.2,0,0.2c0.3,0.5,0.2,0.7-0.2,1.2s-0.5,0.5-0.7,0.5s-0.4-0.2-0.6-0.5L23,34.6
	c-0.1-0.1-0.1-0.2-0.2-0.3c-0.2-0.3-0.5-0.3-0.8-0.2c-0.1,0-0.1,0.1-0.2,0.2c-0.3,0.4-0.5,0.8-0.5,1.3c0,0.3,0,0.6,0,0.9
	s0,0.5,0,0.8c0,0.7-0.3,1.4-0.8,1.9c-0.6,0.8-1.3,1.5-2,2.3c-0.1,0.2-0.3,0.3-0.6,0.3h-0.1c-1.7-0.5-3.2-1.6-4.2-3.1
	c-0.3-0.9,1.5-2.5,1.5-2.5l0,0l0.6-0.6c1.1-1,2.2-2.1,3.2-3.2c0.7-0.7,1-1.7,0.8-2.7c-0.2-0.8,0.1-1.6,0.7-2.1
	c0.1-0.1,0.2-0.2,0.3-0.3l0-0.3l0.1-0.1l0,0l-0.5-0.6c-0.4,0.3-0.8,0.7-1,1.2c-0.2,0.4-0.5,0.7-0.8,1l-0.1,0l-1.6-1.8l0.1,0
	c0.3-0.3,0.7-0.5,1.1-0.7c0.5-0.3,1-0.6,1.5-1c0.7-0.7,1.5-1.4,2.3-2c0.5-0.4,0.9-0.9,1.2-1.4c0.2-0.3,0.5-0.7,0.8-1l0.1-0.1
	l1.7,1.8l-0.1,0l-0.1,0.1c-0.1,0.1-0.2,0.2-0.3,0.2l-0.6,0.3c-0.5,0.2-0.9,0.5-1.2,0.8L23.2,24l0,0l0.5,0.6l12.6-11.3l0,0l0.8-0.7
	c0.2-0.1,0.4-0.2,0.6-0.2c0.2,0,0.4,0.1,0.5,0.2l0.4,0.5c0.1,0.2,0.2,0.3,0.2,0.6C38.7,13.9,38.6,14.1,38.4,14.2z M38.6,31.5
	l-7.8-3.9V37l7.8,3.9l7.9-3.9v-9.5L38.6,31.5z M46.4,38.5v5.1l-7.8,3.9l-7.8-3.9v-5.1l7.8,3.9L46.4,38.5z"/>
</svg>
