<svg xmlns="http://www.w3.org/2000/svg" viewBox="0 0 60 60"><defs><style>.a{opacity:0.8;}.b,.c{fill:#fff;}.b,.d{fill-rule:evenodd;}.d{fill:#acafb2;}</style></defs><title>spoor-gray</title><g class="a"><path class="b" d="M38.56,49a1.5,1.5,0,0,1-.67-.16L30,45a1.5,1.5,0,0,1-.83-1.34v-5.1a1.5,1.5,0,0,1,.22-.78,1.49,1.49,0,0,1-.22-.78V28.53l-2.07,2a3.84,3.84,0,0,1,.09.72,3.37,3.37,0,0,1-.74,2.2l-.34.44a2.18,2.18,0,0,1-.75,2,2.41,2.41,0,0,1-1.73.9,2,2,0,0,1-.88-.24c0,.27,0,.51,0,.74a4.74,4.74,0,0,1-1.12,2.8c-.66.77-1.35,1.55-2.06,2.33a2.19,2.19,0,0,1-1.65.78h-.1a2,2,0,0,1-.44-.07c-1.84-.43-4.63-2.59-5.17-4-.6-1.6,1-3.3,2-4.18l.54-.54c1.06-1.05,2.16-2.14,3.25-3.21A1.28,1.28,0,0,0,18.37,30a1.43,1.43,0,0,1-.72-.42L16,27.75a1.5,1.5,0,0,1,.22-2.21,10.13,10.13,0,0,1,1.31-.82A4.78,4.78,0,0,0,18.65,24a24.37,24.37,0,0,1,2.41-2.17,4.93,4.93,0,0,0,.87-1.05,10.83,10.83,0,0,1,.88-1.15A1.6,1.6,0,0,1,24,19.09h0a1.53,1.53,0,0,1,1.14.46l.89,1,9.23-8.3.13-.1.64-.58a2.31,2.31,0,0,1,1.55-.6h.12a2.21,2.21,0,0,1,1.54.73l.41.46a2.21,2.21,0,0,1,.56,1.67,2.31,2.31,0,0,1-.76,1.53l-2.22,2L32.89,21.2a9.52,9.52,0,0,1,.17,1.51,4.71,4.71,0,0,1-1.48,3.59l7,3.49,7.17-3.59a1.5,1.5,0,0,1,2.17,1.34V37a1.49,1.49,0,0,1-.22.78,1.5,1.5,0,0,1,.22.78v5.1A1.5,1.5,0,0,1,47.08,45l-7.84,3.92A1.5,1.5,0,0,1,38.56,49Z"/><path class="c" d="M37.52,12.45h0a.72.72,0,0,1,.5.23l.42.46a.72.72,0,0,1,.18.55.81.81,0,0,1-.27.53l-.77.7h0l-1.45,1.31-4.73,4.25a.37.37,0,0,0-.14.39l.08.43a9,9,0,0,1,.18,1.43,3.22,3.22,0,0,1-.75,2.2,3.41,3.41,0,0,1-.34.35l-.35.32L25.4,30.11a2.61,2.61,0,0,1,.33,1.18,1.88,1.88,0,0,1-.43,1.24c-.24.32-.49.64-.75,1a.19.19,0,0,0,0,.25c.27.55.25.69-.2,1.15-.29.29-.47.45-.65.45h0c-.2,0-.35-.19-.6-.55l-.12-.2a3,3,0,0,0-.2-.29.61.61,0,0,0-.47-.26.64.64,0,0,0-.46.23,2.12,2.12,0,0,0-.46,1.32c0,.3,0,.6,0,.89s0,.51,0,.76a3.27,3.27,0,0,1-.77,1.93c-.64.75-1.33,1.53-2,2.29a.75.75,0,0,1-.54.29h0l-.12,0a8.06,8.06,0,0,1-4.16-3.11c-.32-.86,1.47-2.46,1.54-2.53h0l.6-.6c1.06-1.05,2.15-2.14,3.24-3.19a2.82,2.82,0,0,0,.8-2.71,2,2,0,0,1,.72-2.12c.11-.09.22-.19.33-.29L21,27l.13-.12,0,0-.52-.57a3.78,3.78,0,0,0-1,1.19,5.09,5.09,0,0,1-.78,1l-.06.05-1.64-1.82.07-.05A8.8,8.8,0,0,1,18.27,26a5.86,5.86,0,0,0,1.45-1A22.68,22.68,0,0,1,22,23a6,6,0,0,0,1.18-1.37,9.74,9.74,0,0,1,.76-1l.06-.07,1.66,1.84-.07.05-.15.11a3.85,3.85,0,0,1-.32.22c-.19.11-.38.21-.57.3a4.37,4.37,0,0,0-1.24.83l-.13.13,0,0,.53.59,12.56-11.3h0l.77-.69a.8.8,0,0,1,.54-.21m8.88,15.09V37l-7.84,3.92L30.72,37V27.55l7.84,3.92,7.84-3.92m0,11v5.1l-7.84,3.92-7.84-3.92v-5.1l7.84,3.92,7.84-3.92M37.52,9.45h0a3.8,3.8,0,0,0-2.55,1l-.59.54-.17.15-8.12,7.3a3,3,0,0,0-2.1-.87h0a3,3,0,0,0-2.22,1l-.06.07a12.42,12.42,0,0,0-1,1.29,4.62,4.62,0,0,1-.57.73,25.71,25.71,0,0,0-2.56,2.3,4.6,4.6,0,0,1-.75.46,11.5,11.5,0,0,0-1.45.91l-.06,0a3,3,0,0,0-.42,4.4l1.61,1.79-2.81,2.77-.57.56c-1.53,1.38-3.15,3.48-2.3,5.76.7,1.9,3.84,4.39,6.23,5a3.53,3.53,0,0,0,.7.11h.18a3.72,3.72,0,0,0,2.76-1.27c.72-.79,1.43-1.59,2.09-2.37a6.21,6.21,0,0,0,1.36-2.81A4,4,0,0,0,26.48,37a3.81,3.81,0,0,0,1.22-2.63l0,0V37a3,3,0,0,0,.1.78,3,3,0,0,0-.1.78v5.1a3,3,0,0,0,1.66,2.68l7.84,3.92a3,3,0,0,0,2.68,0l7.84-3.92a3,3,0,0,0,1.66-2.68v-5.1a3,3,0,0,0-.1-.78,3,3,0,0,0,.1-.78V27.55a3,3,0,0,0-4.34-2.68l-6.5,3.25-4.71-2.36a6.35,6.35,0,0,0,.71-3.07,8.62,8.62,0,0,0-.07-.91l3.2-2.88.49-.44,1.45-1.31.77-.7a3.8,3.8,0,0,0,1.24-2.5,3.74,3.74,0,0,0-.95-2.81l-.41-.46a3.7,3.7,0,0,0-2.58-1.22Z"/></g><path class="d" d="M38.39,14.23l-.77.7h0l-1.45,1.31-4.73,4.25a.37.37,0,0,0-.14.39l.08.43a9,9,0,0,1,.18,1.43,3.22,3.22,0,0,1-.75,2.2,3.4,3.4,0,0,1-.34.35l-.35.32L25.4,30.11a2.61,2.61,0,0,1,.33,1.18,1.88,1.88,0,0,1-.43,1.24c-.24.32-.49.64-.75,1a.19.19,0,0,0,0,.25c.27.55.25.69-.2,1.15s-.48.46-.67.45-.35-.19-.6-.55l-.12-.2a3,3,0,0,0-.2-.29.56.56,0,0,0-.93,0,2.12,2.12,0,0,0-.46,1.32c0,.3,0,.6,0,.89s0,.51,0,.76a3.27,3.27,0,0,1-.77,1.93c-.64.75-1.33,1.53-2,2.29a.73.73,0,0,1-.57.29l-.12,0a8.06,8.06,0,0,1-4.16-3.11c-.32-.86,1.47-2.46,1.54-2.53h0l.6-.6c1.06-1.05,2.15-2.14,3.24-3.19a2.82,2.82,0,0,0,.8-2.71,2,2,0,0,1,.72-2.12c.11-.09.22-.19.33-.29L21,27l.13-.12,0,0-.52-.57a3.78,3.78,0,0,0-1,1.19,5.09,5.09,0,0,1-.78,1l-.06.05-1.64-1.82.07-.05A8.8,8.8,0,0,1,18.27,26a5.86,5.86,0,0,0,1.45-1A22.68,22.68,0,0,1,22,23a6,6,0,0,0,1.18-1.37,9.74,9.74,0,0,1,.76-1l.06-.07,1.66,1.84-.07.05-.15.11a3.87,3.87,0,0,1-.32.22l-.57.3a4.37,4.37,0,0,0-1.24.83l-.13.13,0,0,.53.59,12.56-11.3h0l.77-.69a.8.8,0,0,1,.58-.21.72.72,0,0,1,.5.23l.41.46a.72.72,0,0,1,.18.55A.81.81,0,0,1,38.39,14.23Zm.17,17.24-7.84-3.92V37l7.84,3.92L46.41,37V27.55Zm7.84,7.06v5.1l-7.84,3.92-7.84-3.92v-5.1l7.84,3.92Z"/></svg>