<svg xmlns="http://www.w3.org/2000/svg" viewBox="0 0 33.01 37.53"><defs><style>.a{opacity:0.8;}.b,.c{fill:#fff;}.b,.d{fill-rule:evenodd;}.d{fill:#d0021b;}</style></defs><title>Asset 20</title><g class="a"><path class="b" d="M7.58,36A2.07,2.07,0,0,1,7.12,36c-2-.45-4.91-2.74-5.48-4.28s.79-3.22,2-4.35l.61-.61c1.14-1.14,2.33-2.31,3.5-3.45a1.52,1.52,0,0,0,.44-1.49,1.45,1.45,0,0,1-.8-.43l-1.77-2a1.5,1.5,0,0,1,.21-2.2,10.9,10.9,0,0,1,1.42-.89,5.22,5.22,0,0,0,1.22-.81,25.86,25.86,0,0,1,2.58-2.33,5.38,5.38,0,0,0,1-1.16A11.78,11.78,0,0,1,13,10.78a1.6,1.6,0,0,1,1.14-.52h0a1.54,1.54,0,0,1,1.14.46l1,1.15,10-9,.13-.11.7-.63a2.37,2.37,0,0,1,1.59-.62h.11a2.27,2.27,0,0,1,1.58.75l.45.5a2.26,2.26,0,0,1,.58,1.71A2.37,2.37,0,0,1,30.72,6L28.33,8.18l-4.67,4.2A10.44,10.44,0,0,1,23.86,14a5,5,0,0,1-1.16,3.36,5.36,5.36,0,0,1-.51.52l-.38.34-4.33,4.15a4,4,0,0,1,.11.82,3.52,3.52,0,0,1-.78,2.29l-.4.51a2.21,2.21,0,0,1-.77,2.15,2.49,2.49,0,0,1-1.78.94,2.06,2.06,0,0,1-1.06-.34v.1c0,.3,0,.6,0,.9a5,5,0,0,1-1.18,2.95c-.7.83-1.45,1.67-2.22,2.51a2.25,2.25,0,0,1-1.69.8Z"/><path class="c" d="M28.78,3h0a.77.77,0,0,1,.54.25l.45.49a.77.77,0,0,1,.2.59.87.87,0,0,1-.29.57l-.83.75h0L27.33,7.07l-5.09,4.58a.4.4,0,0,0-.15.42l.08.47a9.71,9.71,0,0,1,.19,1.54,3.47,3.47,0,0,1-.81,2.36,3.68,3.68,0,0,1-.36.37l-.38.34L15.73,22a2.81,2.81,0,0,1,.36,1.27,2,2,0,0,1-.46,1.33c-.26.34-.53.69-.8,1a.21.21,0,0,0,0,.27c.29.6.26.75-.21,1.23-.31.32-.5.48-.7.48h0c-.21,0-.38-.2-.65-.6l-.13-.21a3.27,3.27,0,0,0-.21-.31.66.66,0,0,0-.51-.28.69.69,0,0,0-.5.25,2.28,2.28,0,0,0-.49,1.42c0,.32,0,.65,0,1s0,.55,0,.82a3.52,3.52,0,0,1-.83,2.08c-.69.81-1.43,1.64-2.18,2.47a.8.8,0,0,1-.58.31h0l-.13,0A8.68,8.68,0,0,1,3,31.15c-.34-.93,1.58-2.65,1.66-2.72h0l.65-.64c1.14-1.13,2.32-2.3,3.49-3.44a3,3,0,0,0,.86-2.91,2.11,2.11,0,0,1,.77-2.29c.12-.09.24-.2.35-.31l.14-.13.14-.13,0,0-.56-.62a4.07,4.07,0,0,0-1.11,1.28,5.48,5.48,0,0,1-.84,1.08l-.06.06-1.77-2,.07-.06A9.48,9.48,0,0,1,8,17.61a6.31,6.31,0,0,0,1.57-1.08A24.43,24.43,0,0,1,12,14.34a6.51,6.51,0,0,0,1.27-1.48,10.48,10.48,0,0,1,.82-1.07l.06-.07,1.78,2-.08.06-.16.12c-.12.09-.23.17-.34.24s-.41.22-.61.33a4.71,4.71,0,0,0-1.34.89l-.14.14,0,0,.57.63L27.37,4h0l.82-.75A.87.87,0,0,1,28.78,3m0-3a3.86,3.86,0,0,0-2.59,1l-.65.58-.18.15-8.91,8,0,0a3,3,0,0,0-2.22-1h0a3,3,0,0,0-2.22,1l-.06.07a13.18,13.18,0,0,0-1.05,1.36,4.87,4.87,0,0,1-.67.84,27.42,27.42,0,0,0-2.73,2.46A4.7,4.7,0,0,1,6.6,15a12.2,12.2,0,0,0-1.54,1L5,16a3,3,0,0,0-.42,4.4l1.77,2,.12.13c-1.08,1.05-2.16,2.13-3.21,3.17l-.59.58c-1.6,1.44-3.29,3.62-2.42,6,.74,2,4,4.6,6.55,5.22a3.58,3.58,0,0,0,.71.11h.18a3.78,3.78,0,0,0,2.8-1.29c.78-.85,1.53-1.71,2.25-2.54a6.47,6.47,0,0,0,1.45-3.09,4.07,4.07,0,0,0,2.55-1.38A3.86,3.86,0,0,0,18,26.49l0,0a5.07,5.07,0,0,0,1.1-3.27q0-.12,0-.23l3.77-3.62.34-.31a6.59,6.59,0,0,0,.64-.66A6.47,6.47,0,0,0,25.36,14a9.28,9.28,0,0,0-.08-1.08L28.89,9.7l.44-.4L30.9,7.89l.83-.75A3.86,3.86,0,0,0,33,4.59a3.8,3.8,0,0,0-1-2.85l-.45-.49A3.75,3.75,0,0,0,29,0Z"/></g><path class="d" d="M29.72,4.91l-.83.75h0L27.33,7.07l-5.09,4.58a.4.4,0,0,0-.15.42l.08.47a9.72,9.72,0,0,1,.19,1.54,3.47,3.47,0,0,1-.81,2.36,3.66,3.66,0,0,1-.36.37l-.38.34L15.73,22a2.81,2.81,0,0,1,.36,1.27,2,2,0,0,1-.46,1.33c-.26.34-.53.69-.8,1a.21.21,0,0,0,0,.27c.29.6.26.75-.21,1.23-.32.33-.52.49-.72.48s-.38-.2-.65-.6l-.13-.21a3.27,3.27,0,0,0-.21-.31.61.61,0,0,0-1,0,2.28,2.28,0,0,0-.49,1.42c0,.32,0,.65,0,1s0,.55,0,.82a3.52,3.52,0,0,1-.83,2.08c-.69.81-1.43,1.64-2.18,2.47a.79.79,0,0,1-.61.31l-.13,0A8.68,8.68,0,0,1,3,31.16c-.34-.93,1.58-2.65,1.66-2.72h0l.65-.64c1.14-1.13,2.32-2.3,3.49-3.44a3,3,0,0,0,.86-2.91,2.11,2.11,0,0,1,.77-2.29c.12-.09.24-.2.35-.31l.14-.13.14-.13,0,0-.56-.62a4.07,4.07,0,0,0-1.11,1.28,5.48,5.48,0,0,1-.84,1.08l-.06.06-1.77-2,.07-.06A9.47,9.47,0,0,1,8,17.61a6.31,6.31,0,0,0,1.57-1.08A24.43,24.43,0,0,1,12,14.34a6.51,6.51,0,0,0,1.27-1.48,10.49,10.49,0,0,1,.82-1.07l.06-.07,1.78,2-.08.06-.16.12a4.17,4.17,0,0,1-.34.24c-.2.12-.41.22-.61.33a4.71,4.71,0,0,0-1.34.89l-.14.14,0,0,.57.63L27.37,4h0l.82-.75A.86.86,0,0,1,28.82,3a.77.77,0,0,1,.54.25l.45.49a.77.77,0,0,1,.2.59A.87.87,0,0,1,29.72,4.91Z"/></svg>