<svg xmlns="http://www.w3.org/2000/svg" viewBox="0 0 26 32.61"><defs><style>.a{opacity:0.8;}.b{fill:#fff;}.c{fill:#1a2026;}</style></defs><title>Asset 43</title><g class="a"><path class="b" d="M3.6,31.11a1.85,1.85,0,0,1-1.77-1.47,26.71,26.71,0,0,1,.54-10.92A23.38,23.38,0,0,1,7,9.54,26.43,26.43,0,0,1,18,1.95a4.52,4.52,0,0,1,1.72-.45,2,2,0,0,1,1.8,1.07,1.94,1.94,0,0,1,.07,1.65,2,2,0,0,1,.84,1.57,2,2,0,0,1-.07.55,2.19,2.19,0,0,1,.15.36,2,2,0,0,1,.09.85,2.21,2.21,0,0,1,.71,1.4,2.68,2.68,0,0,1,0,.69,2.1,2.1,0,0,1,1.08,1.16,2.24,2.24,0,0,1-.28,2,1.82,1.82,0,0,1-1.36.85,18,18,0,0,0-7.19,2.5A20.77,20.77,0,0,0,10,21a27.29,27.29,0,0,0-4.67,8.87,1.82,1.82,0,0,1-1.73,1.26Z"/><path class="b" d="M19.72,3a.48.48,0,0,1,.46.25c.17.33-.11.71-.49,1.23a5.79,5.79,0,0,0-.41.61,1.6,1.6,0,0,0,.51.08,1.69,1.69,0,0,1,.87.23.48.48,0,0,1,.26.41c0,.29-.26.46-.51.62l-.21.15a.94.94,0,0,0,.26.1.77.77,0,0,1,.61.48.66.66,0,0,1-.2.65.5.5,0,0,0-.12.61c.06.16.09.16.13.16l.14,0,.21,0c.19,0,.51.08.58.59a.72.72,0,0,1-.31.78l0,0a.94.94,0,0,0,.06.38c.09.3.35.4.74.51s.6.18.71.48a.83.83,0,0,1-.15.72.33.33,0,0,1-.24.15,19.51,19.51,0,0,0-7.8,2.7A22.27,22.27,0,0,0,8.86,20a28.8,28.8,0,0,0-4.94,9.35.32.32,0,0,1-.31.22h0a.32.32,0,0,1-.3-.26A25.16,25.16,0,0,1,3.82,19.1a21.88,21.88,0,0,1,4.36-8.6A25,25,0,0,1,18.54,3.34,3.52,3.52,0,0,1,19.72,3m0-3a6,6,0,0,0-2.3.56,27.9,27.9,0,0,0-11.54,8,24.86,24.86,0,0,0-5,9.77A27.93,27.93,0,0,0,.36,29.93,3.32,3.32,0,0,0,3.42,32.6h.2A3.31,3.31,0,0,0,6.78,30.3a25.8,25.8,0,0,1,4.41-8.38,19.28,19.28,0,0,1,5.12-4.45,16.64,16.64,0,0,1,6.57-2.3,3.31,3.31,0,0,0,2.49-1.54,3.74,3.74,0,0,0,.42-3.38,3.49,3.49,0,0,0-1-1.43V8.75A3.82,3.82,0,0,0,24.08,7a3.61,3.61,0,0,0-.15-.72l0-.08a3.74,3.74,0,0,0,0-.38,3.45,3.45,0,0,0-.7-2,3.33,3.33,0,0,0-.37-1.86A3.49,3.49,0,0,0,19.72,0Z"/></g><path class="c" d="M3.61,29.61h0a.32.32,0,0,1-.3-.26A25.16,25.16,0,0,1,3.82,19.1a21.88,21.88,0,0,1,4.36-8.6A25,25,0,0,1,18.54,3.34,3.52,3.52,0,0,1,19.72,3a.48.48,0,0,1,.46.25c.17.33-.11.71-.49,1.23a5.8,5.8,0,0,0-.41.61,1.6,1.6,0,0,0,.51.08,1.69,1.69,0,0,1,.87.23.48.48,0,0,1,.26.41c0,.29-.26.46-.51.62l-.21.15a.94.94,0,0,0,.26.1.77.77,0,0,1,.61.48.66.66,0,0,1-.2.65.5.5,0,0,0-.12.61c.06.16.09.16.13.16l.14,0,.21,0c.19,0,.51.08.58.59a.72.72,0,0,1-.31.78l0,0a.94.94,0,0,0,.06.38c.09.3.35.4.74.51s.6.18.71.48a.83.83,0,0,1-.15.72.32.32,0,0,1-.24.15,19.51,19.51,0,0,0-7.8,2.7A22.27,22.27,0,0,0,8.86,20a28.8,28.8,0,0,0-4.94,9.35A.32.32,0,0,1,3.61,29.61Z"/></svg>