<svg xmlns="http://www.w3.org/2000/svg" width="35.5674" height="30.1772" viewBox="0 0 35.5674 30.1772"><title>rhino_boma-gray</title><g id="Layer_2" data-name="Layer 2"><g id="Layer_1-2" data-name="Layer 1"><g opacity="0.8"><path d="M27.3987,29.1771a5.6946,5.6946,0,0,1-1.3564-.2051,4.1677,4.1677,0,0,0-.8037-.1426A4.5884,4.5884,0,0,1,20.75,25.2386a8.4,8.4,0,0,0-.4316-1.5586,6.242,6.242,0,0,1-.3066-1.0537,1.7672,1.7672,0,0,0-.0742-.1924,2.0905,2.0905,0,0,1-.1875-.6572,2.5559,2.5559,0,0,1,.2432-1.2988c.0205-.0488.041-.0957.0576-.1436a1.3653,1.3653,0,0,1,.5186-.6982,2.1251,2.1251,0,0,1,.4873-1.85,2.1964,2.1964,0,0,1,.666-.59,1.8383,1.8383,0,0,0,.2744-.1973c.02-.0244.0479-.0713.0762-.1152a2.0554,2.0554,0,0,1,.3711-.4443,1.9,1.9,0,0,1,1.2217-.4463,1.8533,1.8533,0,0,1,.3242.0293,1.3116,1.3116,0,0,1,.0908-.1914,1.5522,1.5522,0,0,1,1.3594-.9062h.0127a2.79,2.79,0,0,1,.7744-.1172c.0186,0,.0547.002.0908.0039a2.9354,2.9354,0,0,0,.2939-.0293,3.4393,3.4393,0,0,1,.36-.0293c.1191.001.165.0049.2646.0137l.1484.0117a1.3449,1.3449,0,0,1,.3037-.0371,1.4518,1.4518,0,0,1,1.1289.6543,1.7993,1.7993,0,0,1,.124.1807,1.67,1.67,0,0,1,.6777-.1387c.0645,0,.1318.0039.2041.0107A2.9012,2.9012,0,0,1,32.1721,17.01a3.1758,3.1758,0,0,1,.6084,1.72,1.4654,1.4654,0,0,1,.74.4961,3.1307,3.1307,0,0,1,.5078,1.0313,3.0617,3.0617,0,0,0,.1572.41,2.1924,2.1924,0,0,1,.1191,2.2969,2.4541,2.4541,0,0,1-.4971.9141,1.3553,1.3553,0,0,1-.0371.667.8827.8827,0,0,0-.0273.1133,3.25,3.25,0,0,1-.9971,2.125,3.5031,3.5031,0,0,1-.7432.4873,2.6028,2.6028,0,0,0-.416.2529,7.9552,7.9552,0,0,1-2.4814,1.2334c-.2021.0723-.4053.1445-.6055.2207A3.0151,3.0151,0,0,1,27.3987,29.1771ZM6.4973,16.0472a2.5938,2.5938,0,0,1-.7725-.1318l-.2627.001a1.2181,1.2181,0,0,1-.7656-.248.8853.8853,0,0,1-.1016.0059,1.249,1.249,0,0,1-.16-.0117l-.0273-.0049a1.5205,1.5205,0,0,1-.1543.01,4.4377,4.4377,0,0,1-.4932-.0527c-.0264.001-.0957.002-.1016.002a1.67,1.67,0,0,1-.3818.042,2.3332,2.3332,0,0,1-.5771-.0791,1.2926,1.2926,0,0,1-1.1758-.707,1.614,1.614,0,0,1,.082-1.4307c.0293-.0684.0615-.1416.0908-.2207l-.02.01c-.0332-.0625-.1123-.1748-.1787-.2744l-.1143-.1719a1.3847,1.3847,0,0,1-.0117-1.4033l.1289-.27c.085-.1729.2041-.4131.3008-.666a1.0115,1.0115,0,0,1-.2012-.293c-.0146-.0215-.0361-.0469-.0605-.0762a1.33,1.33,0,0,1-.2793-.5254A1.28,1.28,0,0,1,1.06,8.3549a2.535,2.535,0,0,1,.16-.4229,1.08,1.08,0,0,0,.0771-.1836A2.0259,2.0259,0,0,0,1.3625,7.41l.0068-.2773a6.1579,6.1579,0,0,1,.7148-2.3945A5.8781,5.8781,0,0,1,4.4133,2.4594,4.1551,4.1551,0,0,1,5.844,1.8627c.07-.0107.1982-.02.3711-.0283a10.1268,10.1268,0,0,0,1.1006-.1016,8.7818,8.7818,0,0,0,1.4785-.4736L8.98,1.1879A3.3594,3.3594,0,0,1,10.0744,1a2.4175,2.4175,0,0,1,.6641.0869,18.5555,18.5555,0,0,0,2.2432.5518,6.9312,6.9312,0,0,0,1.6318.2188c.2109,0,.3682-.0127.4736-.0215a.5553.5553,0,0,0,.2471-.0723c.084-.0371.1758-.0771.2842-.1182a4.2724,4.2724,0,0,1,1.5254-.2617,5.505,5.505,0,0,1,.6826.043c.1943.0234.5254.0537.8115.0811l.416.0391a1.0164,1.0164,0,0,0,.1064.0049l.3428-.0059a4.2385,4.2385,0,0,1,.6328.0459,3.95,3.95,0,0,1,1.8232.8936,2.4751,2.4751,0,0,1,.5791.8408.9548.9548,0,0,1,.1748-.0166,1.46,1.46,0,0,1,.3877.0713l.0215-.001a1.188,1.188,0,0,1,.4316.1074l.0225.01c.0342-.0127.0635-.0244.0859-.0342.0352-.0205.0957-.0664.15-.1055a1.4885,1.4885,0,0,1,.5557-.2852,1.3964,1.3964,0,0,1,.2627-.0293,1.2261,1.2261,0,0,1,.543.1279A1,1,0,0,1,25.67,4.3773a1.7113,1.7113,0,0,1-.2734.5156c-.0186.0391-.0391.0859-.06.1338-.0615.1387-.1289.2783-.1885.3848a2.0792,2.0792,0,0,1-.6445.833c.002.0508.0039.1035.0049.1582a1.19,1.19,0,0,0,.126.584,1.1334,1.1334,0,0,0,.252.3311c.0654.0684.14.1455.2275.2441.0977.1.1934.2051.2852.3154.2.0059.41.0156.53.0293a1.3075,1.3075,0,0,1,.4512.1318,1.3455,1.3455,0,0,0,.1836-.124,1.1508,1.1508,0,0,1,2.0459.4551,2.505,2.505,0,0,1,.001.9219l-.0146.1416a3.4065,3.4065,0,0,1-.958,1.73,5.7573,5.7573,0,0,1-1.0889.9482c-.0205.0439-.042.0908-.0654.1406a1.7117,1.7117,0,0,1-.1875.5781c-.0508.0957-.09.1572-.1279.2158a1.4547,1.4547,0,0,1-1.4561.9473,3.9629,3.9629,0,0,0-.4238.0527.63.63,0,0,0,.15-.0625,1.6894,1.6894,0,0,1-.709.1758,1.35,1.35,0,0,1-.9141-.35,1.6727,1.6727,0,0,1-.7861-.6035c-.0518-.05-1.1777-1.1523-1.3027-1.2773a1.792,1.792,0,0,1-.2686-.209c-.0273.0088-.0557.0186-.085.0273a1.52,1.52,0,0,1-.3623.0547,1.2365,1.2365,0,0,1-.36-.0537,1.2053,1.2053,0,0,1-.249.0762c-.1006.1191-.2148.2588-.3008.3721a5.1568,5.1568,0,0,0-.3008.8945l-.0186.0947c.0244.0117.0459.0215.0615.0283a1.3406,1.3406,0,0,1,.7168.709,1.3644,1.3644,0,0,1,.165.2773,1.1319,1.1319,0,0,1-.0205.8936,1.0763,1.0763,0,0,1-.6035.5332,1.72,1.72,0,0,1-.9766.2451h-.0068a3.5878,3.5878,0,0,1-.7871-.0957c-.0928.0068-.1953.01-.3076.01a4.0269,4.0269,0,0,1-.41-.02,1.483,1.483,0,0,1-.8662-.2734,1.4066,1.4066,0,0,1-.4326.127,1.3572,1.3572,0,0,1-.1406.0078,1.5607,1.5607,0,0,1-1.2852-.8105,1.4913,1.4913,0,0,1-.1484-.3242.8987.8987,0,0,1-.1074-.1768,2.8262,2.8262,0,0,1-.2383-.752,1.6789,1.6789,0,0,1,.24-1.0605c-.2891.04-.4883.0605-.4951.0615a9.42,9.42,0,0,1-1.2266.0811A8.8039,8.8039,0,0,1,8.96,12.1322a3.93,3.93,0,0,1-1.4258-.958.6593.6593,0,0,0-.041.0664c-.002.0313-.0029.1152-.0088.1992-.0078.1182-.0176.2363-.0332.3477l-.0342.2393c-.0312.2119-.0654.4463-.0732.5322.002.0371.0127.1855.0283.2881.08.1807.1475.3379.1992.4893a1.25,1.25,0,0,1,.7227.5391,3.2933,3.2933,0,0,1,.2852.6494A1.0848,1.0848,0,0,1,8.14,15.7689a1.2655,1.2655,0,0,1-.7822.2344A3.0272,3.0272,0,0,1,7,15.976,1.7683,1.7683,0,0,1,6.4973,16.0472Z" fill="#fff"/><path d="M10.0737,2a1.4189,1.4189,0,0,1,.3884.0486,18.08,18.08,0,0,0,2.3245.571,7.65,7.65,0,0,0,1.8254.2384c.2886,0,.4932-.0206.6133-.03a2.4236,2.4236,0,0,0,.7466-.2469,3.3185,3.3185,0,0,1,1.1724-.1973,4.5649,4.5649,0,0,1,.5576.0352c.3127.0386.9526.0928,1.25.1237a1.9781,1.9781,0,0,0,.2046.0093c.1089,0,.2214-.0055.3479-.0055a3.19,3.19,0,0,1,.4836.0347,2.9749,2.9749,0,0,1,1.3108.656,2.4529,2.4529,0,0,1,.4954.9722.2346.2346,0,0,0,.0991.139c.0457.0309.2363.0386.3125.085s.1221.2313.1753.27a.315.315,0,0,0,.1523.0386.2736.2736,0,0,1,.084-.1464.27.27,0,0,0,.0759-.2471c-.0054-.0278.0022-.0376.0193-.0376.03,0,.0908.03.1638.0454a1.0743,1.0743,0,0,1,.2744.0463c.1064.046.1143.2314.13.293.053-.0538.6326-.2469.8-.324s.4424-.3088.511-.3242a.1827.1827,0,0,1,.04-.0043.2215.2215,0,0,1,.09.02.6769.6769,0,0,1-.13.2316c-.0764.07-.2363.5249-.3357.6639-.2512.5707-.5408.5785-.6782.5863a.4819.4819,0,0,0-.175.0234,2.8415,2.8415,0,0,1,.1067.8562,2.1758,2.1758,0,0,0,.2437,1.0339,3.1924,3.1924,0,0,0,.6174.7716,4.1454,4.1454,0,0,1,.5188.6368s.6792.0052.928.0338c.3352.0387.0762.2853-.2288.3628a1.5324,1.5324,0,0,0-.437.1635l.0042.0071s.0457.108.0457.1156c0,.0026.0168.005.0481.005a1.5644,1.5644,0,0,0,.3787-.0586,5.8218,5.8218,0,0,0,1.6692-.9032c.0815-.1013.146-.1372.196-.1372.095,0,.1394.1281.1543.1835a3.9061,3.9061,0,0,1-.0459.6945,2.9719,2.9719,0,0,1-.7239,1.1808,4.4263,4.4263,0,0,1-1.1279.9105c0,.0616-.2668.5942-.2739.6328.0376.0615.0071.17-.0688.3165a2.0308,2.0308,0,0,0-.1982.37c-.0735.2457-.469.25-.4968.25H24.71a3.638,3.638,0,0,0-.7517.1128.5826.5826,0,0,1-.228.0527.5106.5106,0,0,1-.3816-.238.7256.7256,0,0,1-.5029-.293c-.0764-.1085-1.41-1.3894-1.5012-1.4972a.74.74,0,0,1-.4116-.6019c-.03-.07-.1753-.2936-.1753-.2936l-.1218.0774a1.899,1.899,0,0,1-.0762.2316c-.0381.0847-.3049.193-.48.2468a.232.232,0,0,1-.0684.01.33.33,0,0,1-.2747-.1956c-.0305.0411-.1392.0447-.2239.0447h-.0483a.4073.4073,0,0,0-.0479.0017c-.0781.1543-.1675.1937-.2488.1937a.7157.7157,0,0,1-.178-.0393,6.4071,6.4071,0,0,0-.686.7874,4.9526,4.9526,0,0,0-.4875,1.3193,3.283,3.283,0,0,0-.0608.37,1.1766,1.1766,0,0,0,.2969.6406,2.2806,2.2806,0,0,0,.3962.2083.3394.3394,0,0,1,.2058.2162,2.035,2.035,0,0,0,.1526.2469c.0305.07-.0381.0928-.0991.1083a.151.151,0,0,1-.0359.0037.7541.7541,0,0,1-.1621-.0267s.061.0923.0227.1232a1.1624,1.1624,0,0,1-.4421.07l-.03,0a2.0853,2.0853,0,0,1-.64-.1165,2.0589,2.0589,0,0,1-.3987.0291,3.0013,3.0013,0,0,1-.3022-.0137c-.4192-.0154-.3962-.1078-.4421-.2159a.9033.9033,0,0,1,.1375-.5479,1.2266,1.2266,0,0,1,.1978-.2317.2693.2693,0,0,0,.0383-.0925,1.2392,1.2392,0,0,1-.2515.031,3.1808,3.1808,0,0,1-.3125.2162,6.4053,6.4053,0,0,0-.5486.5015.6953.6953,0,0,1-.343.193l-.0212.0012a.61.61,0,0,1-.4282-.3254.4128.4128,0,0,1-.0229-.44l-.0129-.001a1.022,1.022,0,0,0-.17.0319,2.0445,2.0445,0,0,1-.1526-.4552A.6457.6457,0,0,1,14.54,12.96a4.7526,4.7526,0,0,1,.728-.6792l.0034,0a.7057.7057,0,0,1,.3352.1621.1275.1275,0,0,1,.0859-.0275.4448.4448,0,0,1,.1807.0507.1638.1638,0,0,1,.1069-.1084.302.302,0,0,0-.0229-.1462,11.9338,11.9338,0,0,1-.762-1.08,9.5274,9.5274,0,0,1-2.157.44,8.5822,8.5822,0,0,1-1.1233.0757,7.8721,7.8721,0,0,1-2.6338-.4615A4.4154,4.4154,0,0,1,7.5735,9.6726a1.0086,1.0086,0,0,1-.4265.5168,1.5235,1.5235,0,0,0-.5715.656,3.627,3.627,0,0,0-.1143.8026c-.0381.27-.1067.7256-.1143.8334a3.28,3.28,0,0,0,.0684.6715c.0381.1.1528.3239.2212.54a1.3261,1.3261,0,0,0,.2361.4246.8723.8723,0,0,0,.3582.1621c.1753.0461.1831.0773.2288.1466a2.5371,2.5371,0,0,1,.16.3779c.0154.0542.0381.0774-.0759.1622a.3387.3387,0,0,1-.1855.0369,3.0254,3.0254,0,0,1-.4854-.06.6412.6412,0,0,1-.3745.1039,2.1732,2.1732,0,0,1-.6238-.1346s-.1016.0034-.2031.0034c-.0508,0-.1016-.0009-.14-.0034a.6786.6786,0,0,1-.07.004c-.2185,0-.2119-.135-.2119-.2123a3.3211,3.3211,0,0,1,.1294-.4554.7066.7066,0,0,0-.061-.4783,4.2276,4.2276,0,0,0-.6169-.5789c-.1528-.1158-.2593-.2007-.2976-.3394a2.29,2.29,0,0,1,.0688-.741,3.2442,3.2442,0,0,0,.0454-.8336s-.1294.2855-.2056.4712-.1677.4861-.2439.679a2.1835,2.1835,0,0,0-.16.6326,3.75,3.75,0,0,0,.0684.54,1.05,1.05,0,0,0,.29.3318,1.6041,1.6041,0,0,1,.3433.5168c.0889.1869.0364.225-.0139.225l-.0168-.0013a1.6978,1.6978,0,0,1-.19-.0538s-.0076.0305-.0989.0464a.22.22,0,0,1-.0356.0022,3.9152,3.9152,0,0,1-.4448-.0565s-.0613.0052-.13.0052a.6525.6525,0,0,1-.1438-.0125.546.546,0,0,1-.2583.0553,1.4444,1.4444,0,0,1-.45-.0867c-.0288,0-.0737.0063-.1245.0063a.2937.2937,0,0,1-.2869-.16c-.1069-.2084.0989-.5017.2361-.8955a.7776.7776,0,0,0-.0686-.7175c-.0608-.1311-.259-.4086-.3584-.5631s0-.3165.084-.5017.2971-.5786.4495-.9951a1.9305,1.9305,0,0,0,.168-.6176A2.0937,2.0937,0,0,0,2.7268,9.58c-.0686-.1082-.0686-.1-.0762-.193s.0076-.17,0-.2777a3.8979,3.8979,0,0,0-.1221-.4325c-.0183-.0719-.0674-.4329-.0674-.4329a1.9477,1.9477,0,0,1-.0774.24c-.0686.1541-.1523.2546-.1677.3008s.0229.0695.0608.1c.168.0851.2517.1388.3357.44.0779.2793-.0742.4194-.0964.4194l-.0027-.0026A1.0837,1.0837,0,0,0,2.3,9.4258c-.145-.17-.0383-.2084-.0305-.2468s-.0305-.0929-.175-.2007-.0994-.2469-.0613-.3937.1677-.347.2285-.571a3.1246,3.1246,0,0,0,.0972-.5215s.0049-.2094.01-.3119a5.2132,5.2132,0,0,1,.5869-1.9523A4.8615,4.8615,0,0,1,4.9062,3.33a3.2781,3.2781,0,0,1,1.09-.4786c.1523-.0232.8083-.0232,1.4788-.1312a10.87,10.87,0,0,0,1.8516-.5942A2.3522,2.3522,0,0,1,10.0737,2M27.69,15.7415c.0815,0,.1694.0521.3413.2717a.6125.6125,0,0,1,.1206.5444.7631.7631,0,0,1-.1411.3676,1.67,1.67,0,0,1-.6162.476,4.1563,4.1563,0,0,1-.8638.366h-.0027a2.4525,2.4525,0,0,1-1.0393-.3622c-.167-.1084-.22-.0662-.344-.2278-.1406-.1827-.3208-.6318-.1985-.8434.218-.3767.3564-.4084.4939-.4084.0276,0,.0554.0012.0837.0012a.4341.4341,0,0,0,.14-.0194,1.8428,1.8428,0,0,1,.5647-.0981.7652.7652,0,0,1,.0811.0034c.2517-.0029.5327-.0587.6628-.0587h0c.1309.0007.1272.0088.417.0294l.0366.0012c.1211,0,.19-.0427.2637-.0427m1.9319.6967q.0487,0,.1033.0052c.2942.0293.8984.0154,1.6079,1.1112.4456.688.5225,1.2189.3813,1.3208a.9759.9759,0,0,1-.4382.1589,1.8949,1.8949,0,0,1-.2913.022,1.8438,1.8438,0,0,1-.3638-.0342,2.5476,2.5476,0,0,1-.8511-.3982,1.4494,1.4494,0,0,1-.4988-.5784c-.1475-.3219-.6008-.186-.0491-1.4434.0352-.08.1687-.1641.4-.1641m-5.9558.5557c.3137,0,.5759.1742.5244.4686-.0786.4506.113.998-.3728,1.5719a1.853,1.853,0,0,1-1.2454.7518,1.9185,1.9185,0,0,1-.2717.02.8854.8854,0,0,1-.637-.1781c-.1877-.281-.304-.5269.2136-1.27.16-.2294.4922-.3416.7971-.6221.167-.1532.2886-.4246.4155-.5317a.9041.9041,0,0,1,.5762-.21m4.38.8781a1.08,1.08,0,0,1,.2759.0693c.1514.0441.1833.04.2444.1671.03.0621.06.1241.09.1866a4.6364,4.6364,0,0,1,.4727.6165.3921.3921,0,0,0,.2327.2368c.4917.224.2207.1715.33.2374.0759.0459.1477.053.2244.0991a2.0871,2.0871,0,0,0,.3628.116c.1428.0353.2085.0511.2356.0574l.0076.0022c.0947.0265.4048.0752.4048.0752a.2121.2121,0,0,1,.1108.2349,5.6673,5.6673,0,0,1-.2842.8312,6.1047,6.1047,0,0,0-.0811.6538,3.87,3.87,0,0,0,.11.6454h0c.0071,0,.0269.0762.0347.0762h0c.07.1362.1372.2935.21.4235.1292.229.0337.215.2358.3727.0007,0,.6165.4307.64.4471l.0007,0-.0007,0v0c.002,0,.0466.02.5437.2743.3088.1584.32.2567.3589.3337.07.1406-.0059.1971-.05.4744a2.3422,2.3422,0,0,1-.6794,1.5387c-.3069.2769-.75.4026-1.125.71a9.8535,9.8535,0,0,1-2.8093,1.293,2.0529,2.0529,0,0,1-.7444.1331c-.7346,0-1.4365-.3307-2.1355-.3474a3.6228,3.6228,0,0,1-3.5251-2.751c-.2012-1.2415-.6318-1.969-.74-2.6167-.0483-.2887-.2341-.5585-.2507-.7653A2.19,2.19,0,0,1,21,20.6482c.0945-.2872.4678-.3136.5977-.3136.0283,0,.0449.0012.0449.0013l.4856.0483c.1357.0135.2776.0134.4141.0192.1411.0057.3.0194.4534.0194a1.486,1.486,0,0,0,.3-.0256,4.1155,4.1155,0,0,0,.4292-.2026c.1125-.0632.1787-.2073.2358-.2682.1746-.1849.2222-.47.3545-.6458.1348-.178.5283-.5841.5283-.5841l.1194-.3333c.0935-.2606-.15-.2933.1414-.394a.1464.1464,0,0,1,.0476-.0092.0533.0533,0,0,1,.0544.0308l.2737.1118.6116.1776.4858.0629s.0439.0043.116.0043a1.8417,1.8417,0,0,0,.4456-.0538,2.3185,2.3185,0,0,0,.7759-.3763.1992.1992,0,0,1,.1316-.0454m2.4612,1.7838.0242.0061-.0166-.0037-.0076-.0024m1.8884.0211a.4408.4408,0,0,1,.35.1812,7.4279,7.4279,0,0,1,.5488,1.2629c.53,1.0438.1509,1.24.0649,1.507-.1426.4437-.3074.6836-.5381.6836-.2715,0-.6338-.3322-1.1584-1.0551a1.284,1.284,0,0,1-.2993-1.1255,3.5929,3.5929,0,0,1,.3933-1.0793.95.95,0,0,1,.6392-.3748M10.0737,0A4.3322,4.3322,0,0,0,8.6365.2485l-.21.0809A8.4139,8.4139,0,0,1,7.157.7454,9.3587,9.3587,0,0,1,6.17.8348C5.9441.8464,5.7773.8615,5.695.874A5.1317,5.1317,0,0,0,3.9189,1.59,6.8613,6.8613,0,0,0,1.2383,4.2029l-.0259.0446A7.17,7.17,0,0,0,.3711,7.0828c-.0034.0724-.0071.1884-.0093.27-.0042.0251-.011.0594-.0193.0942L.3135,7.51a3.2247,3.2247,0,0,0-.2153.5686,2.3011,2.3011,0,0,0,.2571,1.9265,2.3141,2.3141,0,0,0,.2993.5605l-.0493.1c-.0486.0989-.09.1831-.1189.2477a2.3629,2.3629,0,0,0,.0542,2.4086l.0222.0342a2.413,2.413,0,0,0,.0725,1.9749,2.2673,2.2673,0,0,0,1.9233,1.2432,3.2135,3.2135,0,0,0,.7178.0844,2.72,2.72,0,0,0,.4465-.0361,3.8589,3.8589,0,0,0,.5308.0446c.04,0,.085-.0015.1311-.0043l.0232.0022a2.2843,2.2843,0,0,0,1.0535.2507c.031,0,.063-.0006.0964-.0018l.0234,0a3.391,3.391,0,0,0,.9167.132,2.81,2.81,0,0,0,.5669-.057c.0957.0084.1936.0133.293.0133a2.2576,2.2576,0,0,0,1.3762-.43,2.0934,2.0934,0,0,0,.7976-2.3546l0,.0021a4.115,4.115,0,0,0-.4023-.8943q-.0377-.0588-.0781-.1143a9.666,9.666,0,0,0,2.8628.4346q.2388,0,.4819-.0116l.0071.06a3.7615,3.7615,0,0,0,.3245,1.0461,1.9637,1.9637,0,0,0,.1174.2159,2.6625,2.6625,0,0,0,2.3281,1.6713,2.4059,2.4059,0,0,0,.2461-.0139,2.3457,2.3457,0,0,0,.2344-.0389,2.8877,2.8877,0,0,0,.9241.1936c.134.0116.29.0181.4431.0181.08,0,.1543-.0016.2227-.0043a4.2737,4.2737,0,0,0,.8164.0917c.0225,0,.075-.0009.0974-.0016a2.8172,2.8172,0,0,0,1.4084-.3555,2.0577,2.0577,0,0,0,1.073-2.7238,2.2879,2.2879,0,0,0-.21-.3766,2.3216,2.3216,0,0,0-.44-.615h.0227q.0839,0,.1675-.0062c.0916.09.2095.2059.3643.3574.2932.2871.6221.6073.7644.7555a2.6882,2.6882,0,0,0,.999.7714,2.3582,2.3582,0,0,0,.7434.38,2.782,2.782,0,0,0-1.7957,1.25c-.0254.0164-.0508.0315-.0745.0469a3.1344,3.1344,0,0,0-.9443.8575,3.4737,3.4737,0,0,0-.7285,2.061,2.3551,2.3551,0,0,0-.407.7474l-.0276.0638a3.5553,3.5553,0,0,0-.3188,1.7723,3.0048,3.0048,0,0,0,.2625.963l.0249.0583a7.4819,7.4819,0,0,0,.3354,1.1339,7.4459,7.4459,0,0,1,.387,1.3843,5.6,5.6,0,0,0,5.4519,4.43,3.8825,3.8825,0,0,1,.595.1158,6.6341,6.6341,0,0,0,1.5881.2322,4.0679,4.0679,0,0,0,1.4592-.2651c.1941-.0743.3906-.1442.5864-.214a8.8367,8.8367,0,0,0,2.7776-1.4015,2.7954,2.7954,0,0,1,.2524-.1438,4.4773,4.4773,0,0,0,.9426-.6271,4.2141,4.2141,0,0,0,1.3127-2.6892,2.604,2.604,0,0,0,.1042-.67,3.7294,3.7294,0,0,0,.38-.7819,3.2269,3.2269,0,0,0-.136-3.1689c-.0227-.0447-.0684-.18-.1018-.2783a4.0716,4.0716,0,0,0-.6792-1.3418,2.5363,2.5363,0,0,0-.5806-.5242,4.8216,4.8216,0,0,0-.7046-1.6044,3.8416,3.8416,0,0,0-3.0605-2.0117c-.1357-.0131-.2354-.0176-.3293-.0176a2.8587,2.8587,0,0,0-.2986.0155,2.2686,2.2686,0,0,0-1.6331-.7122h0a2.24,2.24,0,0,0-.3628.03,3.2317,3.2317,0,0,0-.3433-.0177h0l-.04,0a2.2665,2.2665,0,0,0,.1113-.2367c.0413-.066.0815-.1348.126-.22a2.9255,2.9255,0,0,0,.2249-.5677,6.54,6.54,0,0,0,.9922-.9164,4.2136,4.2136,0,0,0,1.1936-2.28l.0137-.132a3.3109,3.3109,0,0,0-.0269-1.2834,2.14,2.14,0,0,0-3.4272-1.19c-.0347-.0055-.0693-.01-.1045-.0144-.0544-.0062-.1165-.0116-.1829-.0164L25.83,6.8622c-.0837-.0927-.1553-.1677-.219-.2344l-.033-.0339a3.36,3.36,0,0,0,.4431-.69,5.069,5.069,0,0,0,.2312-.4749l.012-.0275a2.7157,2.7157,0,0,0,.3552-.71,2,2,0,0,0-1.0012-2.4159,2.21,2.21,0,0,0-.9873-.2323,2.3716,2.3716,0,0,0-.4795.0532,2.1954,2.1954,0,0,0-.7241.3131c-.0613-.0112-.1172-.0189-.1658-.0244-.0347-.0094-.0732-.0188-.115-.0277a3,3,0,0,0-.5271-.6218A4.8926,4.8926,0,0,0,20.2832.6029a5.1446,5.1446,0,0,0-.7786-.0565c-.0823,0-.16.0017-.2344.0035l-.1135.002L18.7058.51c-.27-.025-.5752-.0531-.759-.0758a6.5934,6.5934,0,0,0-.8025-.05A5.2657,5.2657,0,0,0,15.2575.713c-.1179.0447-.2217.09-.3174.1316-.083.0066-.1924.0134-.3281.0134a5.75,5.75,0,0,1-1.35-.1812C13.2339.67,13.206.6638,13.1777.6583a19.0892,19.0892,0,0,1-2.0332-.49q-.063-.0229-.1272-.0414A3.4037,3.4037,0,0,0,10.0737,0Z" fill="#fff"/></g><path d="M25.6634,15.907c-.2384.0781-.3863-.1457-.7172.4266-.1224.2115.0579.6607.1985.8435.124.1615.1769.1193.3439.2278a2.4529,2.4529,0,0,0,1.0392.3621,4.0788,4.0788,0,0,0,.8665-.3658,1.6709,1.6709,0,0,0,.6161-.476.7613.7613,0,0,0,.1411-.3675.6126.6126,0,0,0-.1205-.5445c-.3425-.4377-.3518-.21-.6418-.23s-.286-.0287-.4169-.0294-.4114.0557-.6634.0587A1.6483,1.6483,0,0,0,25.6634,15.907Z" fill="#5a6066"/><path d="M29.271,18.0455a1.4487,1.4487,0,0,0,.4989.5784,2.546,2.546,0,0,0,.851.3982,1.9406,1.9406,0,0,0,.6551.0122.9745.9745,0,0,0,.4382-.1589c.141-.1019.0642-.6328-.3812-1.3208-.71-1.0957-1.3139-1.0819-1.6081-1.1112s-.4629.0672-.503.1588C28.67,17.86,29.1234,17.7237,29.271,18.0455Z" fill="#5a6066"/><path d="M21.8769,18.3573c.16-.2294.4923-.3416.7973-.6221.1669-.1533.2885-.4245.4155-.5318.4493-.3783,1.1837-.2164,1.1005.259-.0787.4505.1131.998-.3727,1.5718a1.8534,1.8534,0,0,1-1.2454.7519,1.1335,1.1335,0,0,1-.9087-.1586C21.4757,19.3465,21.3594,19.1007,21.8769,18.3573Z" fill="#5a6066"/><path d="M31.6625,22.2563a1.2837,1.2837,0,0,1-.2994-1.1255,3.5857,3.5857,0,0,1,.3933-1.0794c.3174-.3562.7137-.5314.9888-.1935a7.4333,7.4333,0,0,1,.5488,1.2629c.5295,1.0438.151,1.24.065,1.507C33.0486,23.5938,32.6324,23.5934,31.6625,22.2563Z" fill="#5a6066"/><path d="M2.5286,8.677a3.9247,3.9247,0,0,1,.1219.4325c.0077.108-.0078.185,0,.2777s.0077.0848.0762.1931a2.0917,2.0917,0,0,1,.1983.5476,1.9289,1.9289,0,0,1-.1679.6175c-.1524.4165-.3656.81-.45.9952s-.1831.3473-.0839.5017.2975.432.3582.5632a.7775.7775,0,0,1,.0686.7175c-.1372.3938-.3429.6871-.2361.8954s.3276.1541.4114.1541a1.0213,1.0213,0,0,0,.7087.0313,1.1433,1.1433,0,0,0,.2742.0073,2.9813,2.9813,0,0,0,.48.0543c.0913-.0158.099-.0463.099-.0463a1.7058,1.7058,0,0,0,.19.0537c.0536.008.13-.0154.0307-.2236a1.6,1.6,0,0,0-.3431-.5168,1.0483,1.0483,0,0,1-.2895-.3318,3.7339,3.7339,0,0,1-.0686-.54,2.1965,2.1965,0,0,1,.16-.6325c.0762-.1929.1678-.4941.244-.679s.2057-.4711.2057-.4711a3.25,3.25,0,0,1-.0455.8336,2.2883,2.2883,0,0,0-.0688.7409c.0383.1388.1447.2236.2975.3394a4.2335,4.2335,0,0,1,.6171.5789.7071.7071,0,0,1,.0611.4783,3.32,3.32,0,0,0-.13.4554c0,.0847-.0077.2391.282.2083.1143.0078.343,0,.343,0,.0609.0078.6477.2777.9982.0308.13.0232.5564.1081.6708.0232s.0914-.108.0761-.1621a2.5377,2.5377,0,0,0-.16-.3779c-.0456-.0694-.0535-.1-.2288-.1467a.8718.8718,0,0,1-.3582-.1621,1.3293,1.3293,0,0,1-.2362-.4245c-.0684-.2161-.183-.44-.221-.54a3.2643,3.2643,0,0,1-.0684-.6715c.0074-.1078.0761-.5634.1141-.8334a3.63,3.63,0,0,1,.1144-.8026,1.5232,1.5232,0,0,1,.5715-.656,1.0082,1.0082,0,0,0,.4265-.5169,4.4144,4.4144,0,0,0,1.7074,1.5125,7.8462,7.8462,0,0,0,3.7571.3859,9.529,9.529,0,0,0,2.1568-.44,11.9655,11.9655,0,0,0,.762,1.08.3.3,0,0,1,.023.1463.1631.1631,0,0,0-.1068.1084c-.1142-.0544-.2133-.0694-.2667-.0232a.7076.7076,0,0,0-.3353-.1621c-.0839-.0154-.64.5867-.7315.679a.6459.6459,0,0,0-.1525.4785,2.0481,2.0481,0,0,0,.1525.4552.8023.8023,0,0,1,.183-.0308.4126.4126,0,0,0,.0228.44c.1217.2006.3124.34.4494.3243a.6952.6952,0,0,0,.3431-.193,6.4238,6.4238,0,0,1,.5487-.5015,3.1956,3.1956,0,0,0,.3125-.2162,1.2385,1.2385,0,0,0,.2514-.031.2714.2714,0,0,1-.0382.0925,1.2243,1.2243,0,0,0-.1979.2317.9026.9026,0,0,0-.1374.5478c.0459.1081.0229.2006.4421.216a2.8815,2.8815,0,0,0,.701-.0154,2.0675,2.0675,0,0,0,.6707.1159,1.1612,1.1612,0,0,0,.4419-.07c.0385-.0309-.0226-.1233-.0226-.1233a.5676.5676,0,0,0,.198.0231c.0611-.0155.13-.0386.0992-.1082a2.0255,2.0255,0,0,1-.1525-.2469.34.34,0,0,0-.2058-.2162,2.283,2.283,0,0,1-.3964-.2083,1.1781,1.1781,0,0,1-.2969-.6406,3.3153,3.3153,0,0,1,.0609-.37,4.9558,4.9558,0,0,1,.4877-1.3194,6.3956,6.3956,0,0,1,.686-.7873c.0991.0232.282.1313.4266-.1544.0534-.0074.2743.0154.32-.0462a.3092.3092,0,0,0,.3431.1852c.1752-.0539.442-.1621.48-.2469a1.883,1.883,0,0,0,.0762-.2316l.1219-.0774s.145.2239.1754.2935a.7389.7389,0,0,0,.4114.602c.0914.1078,1.425,1.3887,1.5013,1.4972a.7256.7256,0,0,0,.5029.293.4571.4571,0,0,0,.61.1853,3.64,3.64,0,0,1,.7516-.1128s.4221.0047.4983-.25a2.0263,2.0263,0,0,1,.1982-.37c.076-.1467.1065-.255.0687-.3165.0073-.0385.2741-.5712.2741-.6328a4.4282,4.4282,0,0,0,1.128-.9105,2.977,2.977,0,0,0,.7239-1.1808,3.924,3.924,0,0,0,.0457-.6945c-.023-.0847-.1145-.3393-.35-.0462a5.8225,5.8225,0,0,1-1.6691.9032,1.1058,1.1058,0,0,1-.4268.0536c0-.0076-.0457-.1155-.0457-.1155l-.0041-.007a1.5334,1.5334,0,0,1,.4372-.1636c.3047-.0774.5638-.3241.2286-.3627-.2486-.0285-.9278-.0339-.9278-.0339a4.16,4.16,0,0,0-.5189-.6368,3.1926,3.1926,0,0,1-.6174-.7715,2.1747,2.1747,0,0,1-.2438-1.034,2.8357,2.8357,0,0,0-.1067-.8562.4835.4835,0,0,1,.1751-.0234c.1374-.0078.4271-.0156.6782-.5862.0994-.1391.2593-.5944.3356-.664a.6753.6753,0,0,0,.13-.2315.214.214,0,0,0-.13-.0154c-.0686.0154-.3431.2469-.5108.3243s-.7468.27-.8.3239c-.0153-.0615-.0231-.2468-.13-.293a1.0748,1.0748,0,0,0-.2744-.0462c-.1143-.0234-.198-.085-.183-.0077a.27.27,0,0,1-.0761.247.2745.2745,0,0,0-.0839.1464.3153.3153,0,0,1-.1524-.0386c-.0532-.0385-.099-.2235-.1752-.27s-.2668-.054-.3126-.0848a.2354.2354,0,0,1-.0992-.1391,2.4523,2.4523,0,0,0-.4954-.9722,2.9741,2.9741,0,0,0-1.3107-.656c-.4647-.0693-.7393-.0077-1.0363-.0385s-.9374-.085-1.25-.1236a3.7421,3.7421,0,0,0-1.73.1621,2.4237,2.4237,0,0,1-.7468.247A6.9753,6.9753,0,0,1,12.7865,2.62a18.0959,18.0959,0,0,1-2.3245-.571,2.1015,2.1015,0,0,0-1.1356.0772A10.88,10.88,0,0,1,7.4748,2.72c-.6705.108-1.3264.108-1.4787.1312a3.2741,3.2741,0,0,0-1.09.4786A4.8616,4.8616,0,0,0,2.9555,5.228,5.21,5.21,0,0,0,2.3686,7.18c-.005.1025-.01.3119-.01.3119a3.1332,3.1332,0,0,1-.0971.5214c-.0609.224-.19.4244-.2286.571s-.0838.2854.0612.3937.1825.1618.175.2007-.1144.077.0305.2468a1.0807,1.0807,0,0,1,.2134.3163c0,.0234.1832-.116.0991-.4169s-.1676-.3546-.3355-.44c-.038-.0307-.0761-.054-.0609-.1s.0991-.1467.1678-.3007a1.9671,1.9671,0,0,0,.0774-.24S2.51,8.6051,2.5286,8.677Z" fill="#5a6066"/><path d="M21,20.6482a2.19,2.19,0,0,0-.253,1.0487c.0168.2068.2025.4766.2509.7653.1081.6478.5388,1.3752.74,2.6167a3.6227,3.6227,0,0,0,3.5252,2.751c.9312.0223,1.8676.6018,2.88.2144a9.8531,9.8531,0,0,0,2.8093-1.293c.3745-.3078.8182-.4336,1.1252-.71a2.3418,2.3418,0,0,0,.6793-1.5387c.0439-.2772.12-.3338.05-.4744-.039-.077-.05-.1752-.3588-.3337-.5883-.3013-.543-.2736-.543-.2736l-.6406-.4476c-.2022-.1577-.1067-.1436-.2358-.3727-.0729-.13-.14-.2872-.21-.4234-.0076.0036-.0291-.08-.0358-.0759a3.8718,3.8718,0,0,1-.11-.6454,6.1823,6.1823,0,0,1,.081-.6538,5.6578,5.6578,0,0,0,.2843-.8312.2122.2122,0,0,0-.1109-.2349s-.31-.0487-.4047-.0752c-.0765-.0217.1816.0453-.2433-.06a2.0812,2.0812,0,0,1-.3627-.116c-.0765-.0461-.1484-.0532-.2244-.0991-.1093-.0659.1618-.0134-.33-.2375a.3915.3915,0,0,1-.2327-.2368,4.6477,4.6477,0,0,0-.4726-.6164c-.03-.0625-.06-.1245-.09-.1867-.0611-.1267-.093-.1231-.2444-.1672-.1484-.0439-.2931-.1177-.4074-.0239a2.3169,2.3169,0,0,1-.7761.3764,1.8219,1.8219,0,0,1-.5614.05L26.091,18.28l-.6117-.1776-.2735-.1119s-.0168-.0511-.1021-.0216c-.2916.1008-.0479.1335-.1413.3941l-.1195.3332s-.3935.4061-.5282.5841c-.1325.1752-.18.4608-.3546.6457-.057.0609-.1233.2049-.2357.2682a4.1137,4.1137,0,0,1-.4292.2027,3.2971,3.2971,0,0,1-.7529.0062c-.1366-.0058-.2783-.0056-.414-.0191l-.4857-.0484C21.6428,20.3354,21.1151,20.2987,21,20.6482Z" fill="#5a6066"/></g></g></svg>