<svg xmlns="http://www.w3.org/2000/svg" viewBox="0 0 42 33.26"><defs><style>.a{opacity:0.8;}.b{fill:#fff;}.c{fill:#d0021b;}</style></defs><title>Asset 68</title><g class="a"><path class="b" d="M31.69,31.77a4.68,4.68,0,0,1-2.45-.69,2.08,2.08,0,0,1-1-1.29,2.22,2.22,0,0,1,0-.27,2.11,2.11,0,0,1-1.35-1,22.17,22.17,0,0,1-1.23-2.44,2.12,2.12,0,0,1-.13-1.3,2.09,2.09,0,0,1-.85-.93,10.07,10.07,0,0,0-1-1.77,2.1,2.1,0,0,1-.29-.51h-.3a1.89,1.89,0,0,0-.95.38A2.1,2.1,0,0,1,21,22.3h-.14a2.11,2.11,0,0,1-.55.81l-.17.14a6.41,6.41,0,0,1-3.31,1.36h-.18A2.08,2.08,0,0,1,15,23.76,2.09,2.09,0,0,1,12.63,23c-.1-.13-.2-.28-.3-.43l-.45-.73a2.09,2.09,0,1,1,3.57-2.2l.44.72.1.14a2.09,2.09,0,0,1,.51-.11,2.43,2.43,0,0,0,1.16-.54,2.08,2.08,0,0,1,1.26-.42h.14a2.08,2.08,0,0,1,.55-.82,2,2,0,0,1,.31-.23,5.84,5.84,0,0,1,3.14-1,4.37,4.37,0,0,1,.53,0,2.08,2.08,0,0,1,1.4.78,2.12,2.12,0,0,1,.31.54h0a2.1,2.1,0,0,1,1.67.83,13.5,13.5,0,0,1,1.45,2.53,2.08,2.08,0,0,1,.15,1.33,2.09,2.09,0,0,1,.87,1,18.8,18.8,0,0,0,1,2,2.06,2.06,0,0,1,.29.85,2.09,2.09,0,0,1,.64.25.52.52,0,0,0,.29.09,1.29,1.29,0,0,0,.38-.07,2.1,2.1,0,0,1,.63-.1l.29,0a2.1,2.1,0,0,1,.47-.62l.23-.21A2.09,2.09,0,0,1,35,22.89L38.5,23a2.09,2.09,0,0,1,2,2.19l-.16,3.36a2.09,2.09,0,0,1-2.09,2h-.1a2.09,2.09,0,0,1-1.62-.9l-.23.21a2.09,2.09,0,0,1-1.41.55h0l-.29,0a2.09,2.09,0,0,1-1.24,1.07A5.46,5.46,0,0,1,31.69,31.77ZM7.5,17.55a3,3,0,0,1-.85-.13H6.46a1.78,1.78,0,0,1-.91-.24h-.3a4.66,4.66,0,0,1-.52-.05h0a2.21,2.21,0,0,1-.44,0,2.77,2.77,0,0,1-.64-.08,1.78,1.78,0,0,1-1.55-1,2.06,2.06,0,0,1,0-1.81L2,14.06a1.85,1.85,0,0,1,0-1.89l.13-.28.18-.37-.05-.09a2,2,0,0,1-.36-.62,1.79,1.79,0,0,1-.25-1.57,3,3,0,0,1,.19-.51l.05-.12a1.67,1.67,0,0,0,0-.21c0-.08,0-.22,0-.3a6.69,6.69,0,0,1,.78-2.6A6.35,6.35,0,0,1,5.17,3a4.58,4.58,0,0,1,1.6-.66l.42,0a9.6,9.6,0,0,0,1-.09,8.53,8.53,0,0,0,1.38-.45l.19-.08a3.9,3.9,0,0,1,1.27-.22,2.88,2.88,0,0,1,.8.11l.1,0a18,18,0,0,0,2.11.51,6.48,6.48,0,0,0,1.53.21l.43,0,.08,0,.31-.13a4.77,4.77,0,0,1,1.7-.29,6,6,0,0,1,.74,0l.8.08.42,0h.4a4.66,4.66,0,0,1,.71.05,4.44,4.44,0,0,1,2.08,1,2.67,2.67,0,0,1,.55.71l.32.06a1.88,1.88,0,0,1,.36.07,2,2,0,0,1,.73-.36,1.88,1.88,0,0,1,.37,0,1.71,1.71,0,0,1,.78.19,1.5,1.5,0,0,1,.74,1.8,2.23,2.23,0,0,1-.32.62l0,.08a4.51,4.51,0,0,1-.22.44,2.69,2.69,0,0,1-.57.8.59.59,0,0,0,.06.28.72.72,0,0,0,.17.22l.39.41.35,0,.3.06A1.7,1.7,0,0,1,28.49,8a1.68,1.68,0,0,1,1.6,1.29,2.9,2.9,0,0,1,0,1.09v.14a3.78,3.78,0,0,1-1.08,2,6.25,6.25,0,0,1-1.06.94,2.3,2.3,0,0,1-.22.63l-.13.22a1.92,1.92,0,0,1-1.89,1.21l-.27,0a2,2,0,0,1-.72.13,1.82,1.82,0,0,1-1.17-.42,2.18,2.18,0,0,1-.87-.66l-.8-.79-.48-.47-.07-.05-.33,0a1.73,1.73,0,0,1-.33,0l-.18.23s-.08.24-.14.43a1.81,1.81,0,0,1,.63.74,1.89,1.89,0,0,1,.18.32,1.62,1.62,0,0,1,0,1.33,1.58,1.58,0,0,1-.81.75,2.26,2.26,0,0,1-1.2.3h0a4.12,4.12,0,0,1-.84-.09H18l-.41,0A2.28,2.28,0,0,1,16.7,17a1.8,1.8,0,0,1-.33.07h-.2a2.06,2.06,0,0,1-1.71-1,2,2,0,0,1-.17-.36,1.41,1.41,0,0,1-.11-.19,3.31,3.31,0,0,1-.28-.89,2.08,2.08,0,0,1,0-.54,9.78,9.78,0,0,1-1,.05,9.27,9.27,0,0,1-3.11-.54,3.57,3.57,0,0,1-.9-.47c0,.19-.06.38-.06.47h0a.7.7,0,0,1,0,.11L9,14a1.68,1.68,0,0,1,.75.65,3.64,3.64,0,0,1,.36.81,1.57,1.57,0,0,1-.63,1.76,1.77,1.77,0,0,1-1.08.33l-.32,0A2.31,2.31,0,0,1,7.5,17.55Z"/><path class="b" d="M11.08,3a1.42,1.42,0,0,1,.39,0,18.09,18.09,0,0,0,2.32.57,7.65,7.65,0,0,0,1.83.24c.29,0,.49,0,.61,0A2.43,2.43,0,0,0,17,3.58a3.32,3.32,0,0,1,1.17-.2,4.56,4.56,0,0,1,.56,0L20,3.54h.55a3.19,3.19,0,0,1,.48,0,3,3,0,0,1,1.31.66,2.45,2.45,0,0,1,.5,1,.24.24,0,0,0,.1.14s.24,0,.31.08.12.23.18.27a.32.32,0,0,0,.15,0,.28.28,0,0,1,.08-.15.27.27,0,0,0,.08-.25s0,0,0,0l.16,0a1.07,1.07,0,0,1,.27,0c.11,0,.11.23.13.29s.63-.25.8-.32.44-.31.51-.32h0a.22.22,0,0,1,.09,0,.68.68,0,0,1-.13.23c-.08.07-.24.52-.34.66-.25.57-.54.58-.68.59a.49.49,0,0,0-.18,0,2.83,2.83,0,0,1,.11.86,2.17,2.17,0,0,0,.24,1,3.19,3.19,0,0,0,.62.77,4.15,4.15,0,0,1,.52.64s.68,0,.93,0,.08.29-.23.36a1.53,1.53,0,0,0-.44.16h0l0,.12h0a1.56,1.56,0,0,0,.38-.06,5.82,5.82,0,0,0,1.67-.9c.08-.1.15-.14.2-.14s.14.13.15.18a3.92,3.92,0,0,1,0,.69,3,3,0,0,1-.72,1.18,4.43,4.43,0,0,1-1.13.91c0,.06-.27.59-.27.63s0,.17-.07.32a2,2,0,0,0-.2.37c-.07.25-.47.25-.5.25h0a3.64,3.64,0,0,0-.75.11.58.58,0,0,1-.23.05.51.51,0,0,1-.38-.24.73.73,0,0,1-.5-.29c-.08-.11-1.41-1.39-1.5-1.5a.74.74,0,0,1-.41-.6c0-.07-.18-.29-.18-.29l-.12.08a1.9,1.9,0,0,1-.08.23c0,.08-.3.19-.48.25H21a.33.33,0,0,1-.27-.2s-.14,0-.22,0h-.1c-.08.15-.17.19-.25.19a.71.71,0,0,1-.18,0,6.38,6.38,0,0,0-.69.79,5,5,0,0,0-.49,1.32,3.33,3.33,0,0,0-.06.37,1.18,1.18,0,0,0,.3.64,2.28,2.28,0,0,0,.4.21.34.34,0,0,1,.21.22,2,2,0,0,0,.15.25c0,.07,0,.09-.1.11h0a.75.75,0,0,1-.16,0s.06.09,0,.12a1.16,1.16,0,0,1-.44.07h0a2.09,2.09,0,0,1-.64-.12,2.06,2.06,0,0,1-.4,0h-.3c-.42,0-.4-.11-.44-.22a.9.9,0,0,1,.14-.55,1.22,1.22,0,0,1,.2-.23.27.27,0,0,0,0-.09,1.23,1.23,0,0,1-.25,0l-.31.22a6.44,6.44,0,0,0-.55.5.69.69,0,0,1-.34.19h0a.61.61,0,0,1-.43-.33.41.41,0,0,1,0-.44h0l-.17,0a2.06,2.06,0,0,1-.15-.46.65.65,0,0,1,.15-.48,4.75,4.75,0,0,1,.73-.68h0a.71.71,0,0,1,.34.16.13.13,0,0,1,.09,0,.45.45,0,0,1,.18.05.16.16,0,0,1,.11-.11.3.3,0,0,0,0-.15,11.94,11.94,0,0,1-.76-1.08,9.53,9.53,0,0,1-2.16.44,8.58,8.58,0,0,1-1.12.08,7.87,7.87,0,0,1-2.63-.46,4.41,4.41,0,0,1-1.71-1.51,1,1,0,0,1-.43.52,1.52,1.52,0,0,0-.57.66,3.63,3.63,0,0,0-.11.8c0,.27-.11.73-.11.83a3.26,3.26,0,0,0,.07.67c0,.1.15.32.22.54a1.33,1.33,0,0,0,.24.42.87.87,0,0,0,.36.16c.18,0,.18.08.23.15a2.51,2.51,0,0,1,.16.38c0,.05,0,.08-.08.16a.34.34,0,0,1-.19,0,3,3,0,0,1-.49-.06.64.64,0,0,1-.37.1,2.17,2.17,0,0,1-.62-.13H6.46c-.22,0-.21-.14-.21-.21a3.3,3.3,0,0,1,.13-.46.71.71,0,0,0-.06-.48,4.25,4.25,0,0,0-.62-.58c-.15-.12-.26-.2-.3-.34a2.28,2.28,0,0,1,.07-.74,3.25,3.25,0,0,0,0-.83s-.13.29-.21.47-.17.49-.24.68a2.2,2.2,0,0,0-.16.63A3.71,3.71,0,0,0,5,14.6a1,1,0,0,0,.29.33,1.6,1.6,0,0,1,.34.52c.09.19,0,.22,0,.22h0l-.19-.05s0,0-.1,0h0a3.91,3.91,0,0,1-.44-.06H4.54a.55.55,0,0,1-.26.06,1.45,1.45,0,0,1-.45-.09H3.7a.29.29,0,0,1-.29-.16c-.11-.21.1-.5.24-.9a.78.78,0,0,0-.07-.72c-.06-.13-.26-.41-.36-.56s0-.32.08-.5.3-.58.45-1a1.93,1.93,0,0,0,.17-.62,2.09,2.09,0,0,0-.2-.55c-.07-.11-.07-.1-.08-.19s0-.17,0-.28a3.94,3.94,0,0,0-.12-.43c0-.07-.07-.43-.07-.43a2,2,0,0,1-.08.24c-.07.15-.15.25-.17.3s0,.07.06.1.25.14.34.44-.07.42-.1.42h0a1.08,1.08,0,0,0-.21-.32c-.15-.17,0-.21,0-.25s0-.09-.18-.2S3,9.73,3,9.58s.17-.35.23-.57a3.12,3.12,0,0,0,.1-.52s0-.21,0-.31a5.21,5.21,0,0,1,.59-2,4.86,4.86,0,0,1,2-1.9A3.27,3.27,0,0,1,7,3.85c.15,0,.81,0,1.48-.13a10.89,10.89,0,0,0,1.85-.59A2.35,2.35,0,0,1,11.08,3m12,15.89.35,0a.59.59,0,0,1-.07,1.19h-.27a3.35,3.35,0,0,0-1.73.62.59.59,0,0,1-.72-.94l.08-.06a4.44,4.44,0,0,1,2.36-.8m-9.41,1.28a.59.59,0,0,1,.51.28l.44.72.16.24a.59.59,0,0,1-.12.83l0,0a.6.6,0,0,1-.79-.15c-.08-.11-.15-.22-.23-.33l-.44-.72a.6.6,0,0,1,.51-.91m11.69.07a.59.59,0,0,1,.47.24,12.17,12.17,0,0,1,1.29,2.26.59.59,0,1,1-1.08.5,11.3,11.3,0,0,0-1.16-2,.6.6,0,0,1,.07-.8l0,0a.59.59,0,0,1,.36-.12M18.93,21a.6.6,0,0,1,.4,1l0,0a5,5,0,0,1-2.55,1.08h-.05a.59.59,0,0,1,0-1.19,3.82,3.82,0,0,0,1.94-.84.59.59,0,0,1,.36-.12M35,24.39h0l3.36.16a.59.59,0,0,1,.57.62l-.16,3.36a.59.59,0,0,1-.59.57h0a.59.59,0,0,1-.57-.62l.09-1.93-2.46,2.24a.59.59,0,1,1-.8-.88l2.45-2.24h0L35,25.58a.59.59,0,0,1,0-1.19m-7.47.27a.6.6,0,0,1,.54.35,19.82,19.82,0,0,0,1.07,2.15.6.6,0,0,1-1,.61A21.07,21.07,0,0,1,27,25.49a.6.6,0,0,1,.14-.68.62.62,0,0,1,.16-.1.59.59,0,0,1,.24-.05m2.75,4a.6.6,0,0,1,.31.09,2,2,0,0,0,1.06.3,2.75,2.75,0,0,0,.83-.14l.18,0a.59.59,0,0,1,.18,1.16,3.93,3.93,0,0,1-1.2.2A3.19,3.19,0,0,1,30,29.79a.59.59,0,0,1-.2-.82.6.6,0,0,1,.11-.13.6.6,0,0,1,.4-.15M11.08,0A5.37,5.37,0,0,0,9.29.31L9.06.4A6.76,6.76,0,0,1,8,.76a8.43,8.43,0,0,1-.88.08l-.57,0a6,6,0,0,0-2.12.84,7.8,7.8,0,0,0-3,3l0,.07A8.16,8.16,0,0,0,.37,8s0,.09,0,.14a4,4,0,0,0-.24.65,3.27,3.27,0,0,0,.33,2.63l.07.15a3.37,3.37,0,0,0,0,2.87,3.29,3.29,0,0,0,2.93,4.09,4.19,4.19,0,0,0,.86.09l.45,0a4.41,4.41,0,0,0,.46,0,3.31,3.31,0,0,0,1.27.25,4.34,4.34,0,0,0,1,.13A3.84,3.84,0,0,0,8.12,19h.24a3.27,3.27,0,0,0,2-.63,3.12,3.12,0,0,0,1.29-2.81c.31,0,.64.06,1,.07a5.37,5.37,0,0,0,.21.52l.13.25a3.51,3.51,0,0,0,.23.45q.1.17.22.33a3.6,3.6,0,0,0-2.8,5.47l.44.72q.18.29.38.56a3.62,3.62,0,0,0,2.88,1.44h.18a3.59,3.59,0,0,0,2.2.74H17a7.91,7.91,0,0,0,4.1-1.67l.25-.21a3.69,3.69,0,0,0,.46-.51,3.59,3.59,0,0,0,.92-.34,12.45,12.45,0,0,1,.59,1.14,3.55,3.55,0,0,0,.67,1,3.59,3.59,0,0,0,.3,1.23,23.77,23.77,0,0,0,1.32,2.61A3.61,3.61,0,0,0,27,30.64a3.57,3.57,0,0,0,1.47,1.72,6.16,6.16,0,0,0,3.23.9,6.94,6.94,0,0,0,2.11-.34,3.58,3.58,0,0,0,1.57-1,3.59,3.59,0,0,0,1-.31,3.58,3.58,0,0,0,1.66.49h.17a3.59,3.59,0,0,0,3.59-3.43L42,25.3a3.6,3.6,0,0,0-3.42-3.76l-3.36-.16H35a3.59,3.59,0,0,0-3.59,3.43q0,.11,0,.22c-.21-.4-.41-.84-.58-1.24a3.6,3.6,0,0,0-.7-1,3.59,3.59,0,0,0-.33-1.29,14.94,14.94,0,0,0-1.62-2.8,3.61,3.61,0,0,0-2-1.31l-.06-.07a3.67,3.67,0,0,0-.26-.29,3.45,3.45,0,0,0,3-2l.12-.22a4.09,4.09,0,0,0,.19-.43,7.18,7.18,0,0,0,.9-.86,5.17,5.17,0,0,0,1.43-2.83V10.5a4.18,4.18,0,0,0-.06-1.64,3.16,3.16,0,0,0-3.05-2.4h-.11A3.81,3.81,0,0,0,28.57,6a3,3,0,0,0-1.5-3.62A3.22,3.22,0,0,0,25.63,2a3.37,3.37,0,0,0-.7.08,3.05,3.05,0,0,0-.39.12L24.28,2A6,6,0,0,0,21.43.61a6.22,6.22,0,0,0-.93-.07h-.32l-.38,0L19.07.44a7.59,7.59,0,0,0-.92-.06,6.26,6.26,0,0,0-2.24.4l-.19.08h-.09A4.77,4.77,0,0,1,14.5.71l-.13,0A15.44,15.44,0,0,1,12.49.23L12.3.17A4.4,4.4,0,0,0,11.08,0Zm5.46,18.61h0l.23.06,0,0-.11.08-.11-.16Z"/></g><path class="c" d="M3.46,9.24a2,2,0,0,1-.08.24c-.07.15-.15.25-.17.3s0,.07.06.1.25.14.34.44-.1.44-.1.42a1.08,1.08,0,0,0-.21-.32c-.14-.17,0-.21,0-.25s0-.09-.18-.2S3,9.73,3,9.58s.17-.35.23-.57a3.13,3.13,0,0,0,.1-.52s0-.21,0-.31a5.21,5.21,0,0,1,.59-2,4.86,4.86,0,0,1,2-1.9A3.27,3.27,0,0,1,7,3.85c.15,0,.81,0,1.48-.13a10.88,10.88,0,0,0,1.85-.59A2.1,2.1,0,0,1,11.46,3a18.1,18.1,0,0,0,2.32.57,7,7,0,0,0,2.44.21A2.42,2.42,0,0,0,17,3.58a3.74,3.74,0,0,1,1.73-.16L20,3.54c.3,0,.57,0,1,0a3,3,0,0,1,1.31.66,2.45,2.45,0,0,1,.5,1,.24.24,0,0,0,.1.14s.24,0,.31.08.12.23.18.27a.32.32,0,0,0,.15,0,.27.27,0,0,1,.08-.15.27.27,0,0,0,.08-.25c0-.08.07,0,.18,0a1.07,1.07,0,0,1,.27,0c.11,0,.11.23.13.29s.63-.25.8-.32.44-.31.51-.32a.21.21,0,0,1,.13,0,.68.68,0,0,1-.13.23c-.08.07-.24.52-.34.66-.25.57-.54.58-.68.59a.48.48,0,0,0-.18,0,2.84,2.84,0,0,1,.11.86,2.17,2.17,0,0,0,.24,1,3.19,3.19,0,0,0,.62.77,4.16,4.16,0,0,1,.52.64s.68,0,.93,0,.08.29-.23.36a1.53,1.53,0,0,0-.44.16h0l0,.12a1.11,1.11,0,0,0,.43-.05,5.82,5.82,0,0,0,1.67-.9c.24-.29.33,0,.35,0a3.92,3.92,0,0,1,0,.69,3,3,0,0,1-.72,1.18,4.43,4.43,0,0,1-1.13.91c0,.06-.27.59-.27.63s0,.17-.07.32a2,2,0,0,0-.2.37c-.08.25-.5.25-.5.25a3.64,3.64,0,0,0-.75.11.46.46,0,0,1-.61-.19.73.73,0,0,1-.5-.29c-.08-.11-1.41-1.39-1.5-1.5a.74.74,0,0,1-.41-.6c0-.07-.18-.29-.18-.29l-.12.08a1.88,1.88,0,0,1-.08.23c0,.08-.3.19-.48.25a.31.31,0,0,1-.34-.19c0,.06-.27,0-.32,0-.14.29-.33.18-.43.15a6.4,6.4,0,0,0-.69.79,5,5,0,0,0-.49,1.32,3.32,3.32,0,0,0-.06.37,1.18,1.18,0,0,0,.3.64,2.28,2.28,0,0,0,.4.21.34.34,0,0,1,.21.22,2,2,0,0,0,.15.25c0,.07,0,.09-.1.11a.57.57,0,0,1-.2,0s.06.09,0,.12a1.16,1.16,0,0,1-.44.07,2.07,2.07,0,0,1-.67-.12,2.88,2.88,0,0,1-.7,0c-.42,0-.4-.11-.44-.22a.9.9,0,0,1,.14-.55,1.22,1.22,0,0,1,.2-.23.27.27,0,0,0,0-.09,1.24,1.24,0,0,1-.25,0l-.31.22a6.42,6.42,0,0,0-.55.5.7.7,0,0,1-.34.19c-.14,0-.33-.12-.45-.32a.41.41,0,0,1,0-.44.8.8,0,0,0-.18,0,2,2,0,0,1-.15-.46.65.65,0,0,1,.15-.48c.09-.09.65-.69.73-.68a.71.71,0,0,1,.34.16c.05,0,.15,0,.27,0a.16.16,0,0,1,.11-.11.3.3,0,0,0,0-.15,12,12,0,0,1-.76-1.08,9.53,9.53,0,0,1-2.16.44,7.85,7.85,0,0,1-3.76-.39,4.41,4.41,0,0,1-1.71-1.51,1,1,0,0,1-.43.52,1.52,1.52,0,0,0-.57.66,3.63,3.63,0,0,0-.11.8c0,.27-.11.73-.11.83a3.26,3.26,0,0,0,.07.67c0,.1.15.32.22.54a1.33,1.33,0,0,0,.24.42.87.87,0,0,0,.36.16c.18,0,.18.08.23.15a2.54,2.54,0,0,1,.16.38c0,.05,0,.08-.08.16s-.54,0-.67,0c-.35.25-.94,0-1,0H6.53c-.29,0-.28-.12-.28-.21a3.32,3.32,0,0,1,.13-.46.71.71,0,0,0-.06-.48,4.23,4.23,0,0,0-.62-.58c-.15-.12-.26-.2-.3-.34a2.29,2.29,0,0,1,.07-.74,3.25,3.25,0,0,0,0-.83s-.13.29-.21.47-.17.49-.24.68a2.2,2.2,0,0,0-.16.63A3.73,3.73,0,0,0,5,14.6a1,1,0,0,0,.29.33,1.6,1.6,0,0,1,.34.52c.1.21,0,.23,0,.22l-.19-.05s0,0-.1,0a3,3,0,0,1-.48-.05,1.14,1.14,0,0,1-.27,0,1,1,0,0,1-.71,0c-.08,0-.3.05-.41-.15s.1-.5.24-.9a.78.78,0,0,0-.07-.72c-.06-.13-.26-.41-.36-.56s0-.32.08-.5.3-.58.45-1a1.93,1.93,0,0,0,.17-.62,2.09,2.09,0,0,0-.2-.55c-.07-.11-.07-.1-.08-.19s0-.17,0-.28a3.92,3.92,0,0,0-.12-.43C3.51,9.61,3.46,9.24,3.46,9.24ZM20.63,19.76a.59.59,0,0,0,.72.94,3.08,3.08,0,0,1,1.93-.61.59.59,0,1,0,.14-1.18,4.14,4.14,0,0,0-2.71.78ZM25,20.4a.6.6,0,0,0-.07.8,11.3,11.3,0,0,1,1.16,2,.59.59,0,0,0,1.08-.5,12.17,12.17,0,0,0-1.29-2.26.59.59,0,0,0-.83-.11Zm2.22,4.41a.6.6,0,0,0-.14.68,21.06,21.06,0,0,0,1.14,2.28.6.6,0,0,0,1-.61A19.86,19.86,0,0,1,28.12,25a.6.6,0,0,0-.79-.3A.61.61,0,0,0,27.17,24.81Zm2.75,4a.6.6,0,0,0,.09.95,3.36,3.36,0,0,0,2.87.28.59.59,0,1,0-.36-1.13,2.17,2.17,0,0,1-1.89-.16A.6.6,0,0,0,29.92,28.84ZM14.61,22.28a.6.6,0,0,1-.79-.15c-.08-.11-.15-.22-.23-.33l-.44-.72a.59.59,0,1,1,1-.62l.44.72.16.24a.59.59,0,0,1-.12.83ZM19.33,22l0,0a5,5,0,0,1-2.55,1.08.59.59,0,1,1-.1-1.19,3.82,3.82,0,0,0,1.94-.84.6.6,0,0,1,.76.91Zm18.41,4.55-.09,1.93a.59.59,0,1,0,1.19.06L39,25.16a.59.59,0,0,0-.57-.62l-3.36-.16A.59.59,0,1,0,35,25.58l1.92.09h0l-2.45,2.24a.59.59,0,0,0,.8.88Z"/></svg>