<svg xmlns="http://www.w3.org/2000/svg" viewBox="0 0 41.99 24.3"><defs><style>.a{opacity:0.8;}.b{fill:#fff;}.c{fill:#4f8317;}</style></defs><title>Asset 66</title><g class="a"><path class="b" d="M12.77,22.8a2.62,2.62,0,0,1-.7-.1H12a1.71,1.71,0,0,1-.8-.19H11l-.4,0a2.13,2.13,0,0,1-.36,0,2.46,2.46,0,0,1-.61-.08H9.58a1.5,1.5,0,0,1-1.32.22l0,0H7.85a1.81,1.81,0,0,1-1.1-.34H6.64l-.24,0H6.16a4.91,4.91,0,0,1-.71-.07H5.34a2.43,2.43,0,0,1-.55.06A3.29,3.29,0,0,1,4,22.15a1.91,1.91,0,0,1-1.72-1A2.35,2.35,0,0,1,2.36,19l.1-.23c0-.08-.15-.23-.24-.36L2,18.18a2,2,0,0,1,0-2.07l.18-.38c.11-.23.27-.54.4-.87a1.5,1.5,0,0,1-.25-.39l-.08-.09a2,2,0,0,1-.41-.76,1.91,1.91,0,0,1-.28-1.75,3.75,3.75,0,0,1,.23-.6,1.47,1.47,0,0,0,.1-.24A2.85,2.85,0,0,0,2,10.59s0-.26,0-.4a8.73,8.73,0,0,1,1-3.4,8.34,8.34,0,0,1,3.3-3.23,5.88,5.88,0,0,1,2-.85l.53,0a14.11,14.11,0,0,0,1.53-.14,12.21,12.21,0,0,0,2.05-.66l.27-.1a4.77,4.77,0,0,1,1.57-.27,3.48,3.48,0,0,1,1,.13,26,26,0,0,0,3.14.77,9.66,9.66,0,0,0,2.27.31c.29,0,.51,0,.66,0a.7.7,0,0,0,.31-.09l.4-.17A6.07,6.07,0,0,1,24.24,2a8.09,8.09,0,0,1,1,.06l1.12.11.61.06h.62a5.9,5.9,0,0,1,.9.07,5.64,5.64,0,0,1,2.61,1.28,3.53,3.53,0,0,1,.8,1.14h.19a1.69,1.69,0,0,1,.53.09,2,2,0,0,1,.68.16h0l.08,0,.19-.14a2.19,2.19,0,0,1,.83-.42,2,2,0,0,1,.38,0,1.81,1.81,0,0,1,.8.19,1.5,1.5,0,0,1,.75,1.81,2.48,2.48,0,0,1-.39.75l-.08.18a5.8,5.8,0,0,1-.28.58A3,3,0,0,1,34.67,9v.17a1.58,1.58,0,0,0,.16.78,1.56,1.56,0,0,0,.34.45l.32.34c.13.13.25.27.37.41l.71,0a2,2,0,0,1,.62.17l.17-.12a1.8,1.8,0,0,1,1.39-.69,1.73,1.73,0,0,1,1.66,1.36,3.58,3.58,0,0,1,0,1.33l0,.19A4.87,4.87,0,0,1,39,15.92a8.08,8.08,0,0,1-1.52,1.33l-.07.16a2.51,2.51,0,0,1-.27.83,3.43,3.43,0,0,1-.19.31,2.12,2.12,0,0,1-2.12,1.37h0l-.53.06a2.3,2.3,0,0,1-.85.17,2,2,0,0,1-1.32-.5,2.44,2.44,0,0,1-1.09-.81c-.13-.14-.48-.49-.85-.84a5.62,5.62,0,0,1-.57.77,5,5,0,0,1-.77.71,2.16,2.16,0,0,1-.17.44l-.09.16a1.56,1.56,0,0,1-.57.75,1.5,1.5,0,0,1-.35.89,1.69,1.69,0,0,1-.66.47,2.49,2.49,0,0,1-1.42.36h-.09a4.77,4.77,0,0,1-1-.14h-.43l-.53,0a3.29,3.29,0,0,1-.5-.06l-.08,0-.06,0a2.06,2.06,0,0,1-1.12.3h0a3.66,3.66,0,0,1-.68-.07h-.52a2.19,2.19,0,0,1-.71-.15l-.18,0h-.2a1.94,1.94,0,0,1-1.62-1,1.84,1.84,0,0,1-.15-.29L17.63,21a2.84,2.84,0,0,1-.25-.8v-.09H17a7.4,7.4,0,0,1-2.34-.38,1.65,1.65,0,0,1,.15.21,3.12,3.12,0,0,1,.31.71,1.54,1.54,0,0,1-.61,1.74,1.7,1.7,0,0,1-1,.32h-.22A2.12,2.12,0,0,1,12.77,22.8Z"/><path class="b" d="M14.32,3a2,2,0,0,1,.54.07,25.4,25.4,0,0,0,3.26.8,10.74,10.74,0,0,0,2.56.33c.4,0,.69,0,.86,0a3.4,3.4,0,0,0,1-.35,4.65,4.65,0,0,1,1.65-.28,6.4,6.4,0,0,1,.78,0c.44.05,1.34.13,1.75.17h.78a4.47,4.47,0,0,1,.68,0,4.17,4.17,0,0,1,1.84.92,3.44,3.44,0,0,1,.69,1.36.33.33,0,0,0,.14.2c.06,0,.33.05.44.12s.17.32.25.38a.44.44,0,0,0,.21.05.39.39,0,0,1,.12-.21A.38.38,0,0,0,32,6.29s0-.05,0-.05.13,0,.23.06a1.51,1.51,0,0,1,.39.06c.15.06.16.32.18.41.07-.08.89-.35,1.12-.45s.62-.43.72-.45h.06a.31.31,0,0,1,.13,0,1,1,0,0,1-.18.32c-.11.1-.33.74-.47.93-.35.8-.76.81-1,.82A.68.68,0,0,0,33,8a4,4,0,0,1,.15,1.2,3.05,3.05,0,0,0,.34,1.45,4.48,4.48,0,0,0,.87,1.08,5.84,5.84,0,0,1,.73.89s1,0,1.3,0,.11.4-.32.51a2.15,2.15,0,0,0-.61.23h0s.06.15.06.16h.07a2.19,2.19,0,0,0,.53-.08,8.17,8.17,0,0,0,2.34-1.27c.11-.14.2-.19.28-.19s.2.18.22.26a5.48,5.48,0,0,1-.06,1,4.18,4.18,0,0,1-1,1.66,6.21,6.21,0,0,1-1.58,1.28c0,.09-.37.83-.38.89s0,.24-.1.44a2.85,2.85,0,0,0-.28.52c-.1.34-.66.35-.7.35h0a5.11,5.11,0,0,0-1.05.16.82.82,0,0,1-.32.07.72.72,0,0,1-.54-.33,1,1,0,0,1-.71-.41c-.11-.15-2-1.95-2.11-2.1a1,1,0,0,1-.58-.84c0-.1-.25-.41-.25-.41l-.17.11A2.61,2.61,0,0,1,29,15c-.05.12-.43.27-.67.35h-.1a.46.46,0,0,1-.39-.27c0,.06-.19.06-.31.06h-.14a.57.57,0,0,1-.14.19l-.14-.15A.68.68,0,0,1,27,15a.7.7,0,0,1-.07-.35h0a1.92,1.92,0,0,0,.46-.62,3.26,3.26,0,0,0,.16-.33l0-.07a1.53,1.53,0,0,0,.23-.45l.27-.82-.77-.39a1.18,1.18,0,0,0-.52-.12h-.11l-.14,0a1.37,1.37,0,0,0-.51.26l-.06,0a1.29,1.29,0,0,0-.34-.07,1.09,1.09,0,0,0-.32,0,2,2,0,0,0-.43-.58,3.26,3.26,0,0,0-1.53-.75,3.45,3.45,0,0,0-.52,0H22.5l-.34,0-.61-.06a4.55,4.55,0,0,0-.55,0,3.53,3.53,0,0,0-1.26.22l-.23.09-.09,0-.38,0a5,5,0,0,1-1.17-.16,14.75,14.75,0,0,1-1.69-.41h-.06a2.08,2.08,0,0,0-.58-.08,2.82,2.82,0,0,0-.92.16l-.15.06a6.72,6.72,0,0,1-1.09.35,7.68,7.68,0,0,1-.82.08l-.31,0a3.39,3.39,0,0,0-1.19.49A4.73,4.73,0,0,0,9.17,13.2a5,5,0,0,0-.59,2c0,.06,0,.17,0,.23a1.51,1.51,0,0,1,0,.2.89.89,0,0,1,0,.11,2,2,0,0,0-.13.35,1.24,1.24,0,0,0,.16,1.1,1.23,1.23,0,0,0,.18.35v.68l-.07.15a1.33,1.33,0,0,0,0,1.34l.09.14.08.11,0,0A1.5,1.5,0,0,0,8.7,21.2l-.27-.08H7.85c-.31,0-.3-.19-.3-.3a4.67,4.67,0,0,1,.18-.64,1,1,0,0,0-.09-.67,5.94,5.94,0,0,0-.87-.81c-.21-.16-.36-.28-.42-.48a3.21,3.21,0,0,1,.1-1A4.56,4.56,0,0,0,6.53,16s-.18.4-.29.66-.24.68-.34,1a3.08,3.08,0,0,0-.22.89,5.21,5.21,0,0,0,.1.76,1.47,1.47,0,0,0,.41.47,2.24,2.24,0,0,1,.48.73c.12.26.05.32,0,.32h0a2.39,2.39,0,0,1-.27-.08s0,0-.14.06H6.16a5.49,5.49,0,0,1-.62-.08H5.35l-.2,0a.77.77,0,0,1-.36.08,2,2,0,0,1-.63-.12H4a.41.41,0,0,1-.4-.23c-.15-.29.14-.7.33-1.26a1.09,1.09,0,0,0-.1-1c-.09-.18-.36-.57-.5-.79s0-.44.12-.7.42-.81.63-1.4a2.71,2.71,0,0,0,.24-.87A2.93,2.93,0,0,0,4,13.64c-.1-.15-.1-.14-.11-.27s0-.24,0-.39a5.48,5.48,0,0,0-.17-.61c0-.1-.09-.61-.09-.61a2.75,2.75,0,0,1-.11.34c-.1.22-.21.36-.24.42s0,.1.09.14c.24.12.35.19.47.62s-.1.59-.14.59h0a1.51,1.51,0,0,0-.3-.44c-.2-.24-.05-.29,0-.35s0-.13-.25-.28S3,12.44,3,12.24s.24-.49.32-.8a4.38,4.38,0,0,0,.14-.73s0-.29,0-.44a7.31,7.31,0,0,1,.82-2.74A6.82,6.82,0,0,1,7.07,4.87,4.59,4.59,0,0,1,8.6,4.19c.21,0,1.13,0,2.07-.18a15.26,15.26,0,0,0,2.6-.83,3.3,3.3,0,0,1,1-.18m1.21,8.22a1.1,1.1,0,0,1,.3,0,14,14,0,0,0,1.8.44,5.92,5.92,0,0,0,1.41.18c.22,0,.38,0,.47,0a1.87,1.87,0,0,0,.58-.19,2.56,2.56,0,0,1,.91-.15,3.53,3.53,0,0,1,.43,0l1,.1h.43a2.46,2.46,0,0,1,.37,0,2.3,2.3,0,0,1,1,.51,1.89,1.89,0,0,1,.38.75.18.18,0,0,0,.08.11s.18,0,.24.07.09.18.14.21a.24.24,0,0,0,.12,0,.21.21,0,0,1,.06-.11.21.21,0,0,0,.06-.19s0,0,0,0l.13,0a.83.83,0,0,1,.21,0c.08,0,.09.18.1.23s.49-.19.62-.25.34-.24.39-.25h0l.07,0a.52.52,0,0,1-.1.18c-.06.05-.18.41-.26.51-.19.44-.42.45-.52.45l-.14,0a2.19,2.19,0,0,1,.08.66,1.68,1.68,0,0,0,.19.8,2.47,2.47,0,0,0,.48.6,3.22,3.22,0,0,1,.4.49s.52,0,.72,0,.06.22-.18.28a1.19,1.19,0,0,0-.34.13h0l0,.09h0a1.21,1.21,0,0,0,.29,0,4.5,4.5,0,0,0,1.29-.7c.06-.08.11-.11.15-.11s.11.1.12.14a3,3,0,0,1,0,.54,2.3,2.3,0,0,1-.56.91,3.42,3.42,0,0,1-.87.7s-.21.46-.21.49,0,.13-.05.24a1.56,1.56,0,0,0-.15.29c-.06.19-.36.19-.38.19h0a2.81,2.81,0,0,0-.58.09.45.45,0,0,1-.18,0,.39.39,0,0,1-.29-.18.56.56,0,0,1-.39-.23c-.06-.08-1.09-1.07-1.16-1.16a.57.57,0,0,1-.32-.47c0-.05-.14-.23-.14-.23l-.09.06a1.46,1.46,0,0,1-.06.18c0,.07-.24.15-.37.19h-.05a.26.26,0,0,1-.21-.15s-.11,0-.17,0h-.08c-.06.12-.13.15-.19.15a.55.55,0,0,1-.14,0,4.94,4.94,0,0,0-.53.61,3.83,3.83,0,0,0-.38,1,2.5,2.5,0,0,0,0,.29.91.91,0,0,0,.23.5,1.77,1.77,0,0,0,.31.16.26.26,0,0,1,.16.17,1.55,1.55,0,0,0,.12.19c0,.05,0,.07-.08.08h0l-.13,0s0,.07,0,.1a.9.9,0,0,1-.34.05h0a1.61,1.61,0,0,1-.49-.09,1.59,1.59,0,0,1-.31,0h-.23c-.32,0-.31-.08-.34-.17a.7.7,0,0,1,.11-.42.94.94,0,0,1,.15-.18.21.21,0,0,0,0-.07,1,1,0,0,1-.19,0l-.24.17a4.92,4.92,0,0,0-.42.39.54.54,0,0,1-.27.15h0a.47.47,0,0,1-.33-.25.32.32,0,0,1,0-.34h0l-.13,0a1.58,1.58,0,0,1-.12-.35.5.5,0,0,1,.12-.37,3.67,3.67,0,0,1,.56-.53h0a.55.55,0,0,1,.26.13l.07,0a.34.34,0,0,1,.14,0,.13.13,0,0,1,.08-.08.23.23,0,0,0,0-.11,9.25,9.25,0,0,1-.59-.83,7.36,7.36,0,0,1-1.67.34,6.63,6.63,0,0,1-.87.06,6.09,6.09,0,0,1-2-.36,3.41,3.41,0,0,1-1.32-1.17.78.78,0,0,1-.33.4,1.18,1.18,0,0,0-.44.51,2.81,2.81,0,0,0-.09.62c0,.21-.08.56-.09.64a2.52,2.52,0,0,0,.05.52c0,.08.12.25.17.42a1,1,0,0,0,.18.33.67.67,0,0,0,.28.13c.14,0,.14.06.18.11a2,2,0,0,1,.12.29s0,.06-.06.13a.26.26,0,0,1-.14,0,2.34,2.34,0,0,1-.38,0,.5.5,0,0,1-.29.08,1.67,1.67,0,0,1-.48-.1H12c-.17,0-.16-.1-.16-.16a2.59,2.59,0,0,1,.1-.35.55.55,0,0,0,0-.37,3.27,3.27,0,0,0-.48-.45c-.12-.09-.2-.16-.23-.26A1.76,1.76,0,0,1,11.2,19a2.52,2.52,0,0,0,0-.64l-.16.36c-.06.14-.13.38-.19.52a1.7,1.7,0,0,0-.12.49,2.89,2.89,0,0,0,.05.42.81.81,0,0,0,.22.26,1.24,1.24,0,0,1,.27.4c.07.14,0,.17,0,.17h0l-.15,0s0,0-.08,0h0a3,3,0,0,1-.34,0h-.21a.42.42,0,0,1-.2,0,1.12,1.12,0,0,1-.35-.07h-.1a.23.23,0,0,1-.22-.12c-.08-.16.08-.39.18-.69a.6.6,0,0,0-.05-.55c0-.1-.2-.32-.28-.44s0-.24.06-.39.23-.45.35-.77A1.49,1.49,0,0,0,10,17.5a1.61,1.61,0,0,0-.15-.42C9.8,17,9.8,17,9.8,16.93s0-.13,0-.21a3,3,0,0,0-.09-.33c0-.06-.05-.33-.05-.33a1.54,1.54,0,0,1-.06.19c-.05.12-.12.2-.13.23s0,.05,0,.08.19.11.26.34-.06.32-.07.32h0A.84.84,0,0,0,9.53,17c-.11-.13,0-.16,0-.19s0-.07-.14-.16-.08-.19,0-.3.13-.27.18-.44a2.43,2.43,0,0,0,.08-.4s0-.16,0-.24A4,4,0,0,1,10,13.72a3.76,3.76,0,0,1,1.51-1.47,2.53,2.53,0,0,1,.84-.37c.12,0,.62,0,1.14-.1A8.41,8.41,0,0,0,15,11.32a1.81,1.81,0,0,1,.58-.1m8,7.77.11.08.39.38.62.62a1.54,1.54,0,0,0,.63.48,1.26,1.26,0,0,0,.83.3l.09,0s.05.1,0,.14a1.63,1.63,0,0,1-.62.1h0a2.93,2.93,0,0,1-.9-.16,2.9,2.9,0,0,1-.56,0l-.42,0-.31,0-.13-.33a1.25,1.25,0,0,0-.14-.24l0,0a1.63,1.63,0,0,1,.17-.45,1.71,1.71,0,0,1,.28-.33.38.38,0,0,0,.05-.13,1.74,1.74,0,0,1-.35,0,4.48,4.48,0,0,1-.44.3l-.12.09a1.25,1.25,0,0,0-.12-.09,3.36,3.36,0,0,1,.19-.54l.15-.18.08,0a1.18,1.18,0,0,0,.56,0m3.05,1.77h0m0,0a.23.23,0,0,1-.12.07h-.05l-.13,0a1.42,1.42,0,0,0,.3-.06m-.4,0,.1,0-.08,0,0,0M14.32,0h0a6.28,6.28,0,0,0-2.08.36l-.3.11A11.7,11.7,0,0,1,10.2,1a13,13,0,0,1-1.36.12,6.7,6.7,0,0,0-.69.06,7.36,7.36,0,0,0-2.56,1A9.81,9.81,0,0,0,1.76,6l0,.07A10.27,10.27,0,0,0,.52,10.12c0,.1,0,.25,0,.37l0,.09,0,.07a4.75,4.75,0,0,0-.31.83,3.44,3.44,0,0,0,.36,2.8A3.42,3.42,0,0,0,.88,15l0,0-.17.36,0,.05A3.46,3.46,0,0,0,.77,19a3.53,3.53,0,0,0,.14,2.83,3.37,3.37,0,0,0,2.84,1.85,4.7,4.7,0,0,0,1,.12,4,4,0,0,0,.63,0,5,5,0,0,0,.74.06h.17a3.4,3.4,0,0,0,1.53.35H8A3,3,0,0,0,9.83,24l.45,0,.35,0,.22,0a3.24,3.24,0,0,0,1,.2,4,4,0,0,0,.89.1,3.66,3.66,0,0,0,.52,0h.15a3.2,3.2,0,0,0,1.93-.62,3.15,3.15,0,0,0,1.12-1.53l.09.16A3.4,3.4,0,0,0,19.48,24h.24a3.89,3.89,0,0,0,.75.11l.44,0H21a4.7,4.7,0,0,0,.75.07h.13a3.89,3.89,0,0,0,1.37-.27l.23,0,.63,0h.3a6.19,6.19,0,0,0,1.16.13h.14a4.12,4.12,0,0,0,2.08-.53,3.17,3.17,0,0,0,.92-.64,3,3,0,0,0,.78-1.32,3.18,3.18,0,0,0,.5-.78l.09-.16.11-.24.16-.14a4,4,0,0,0,1.07.71,3.46,3.46,0,0,0,2.1.7,3.74,3.74,0,0,0,1.21-.21l.36,0h0a3.65,3.65,0,0,0,3.27-2.17c.06-.09.11-.19.18-.31a4.34,4.34,0,0,0,.31-.77,9.3,9.3,0,0,0,1.37-1.27,6.09,6.09,0,0,0,1.72-3.3l0-.19a4.79,4.79,0,0,0,0-1.87,3.2,3.2,0,0,0-5-1.82h-.07l-.19,0-.23-.25a5,5,0,0,0,.53-.87,7.35,7.35,0,0,0,.33-.68v0a4,4,0,0,0,.51-1,3,3,0,0,0-1.5-3.62,3.3,3.3,0,0,0-1.47-.35,3.26,3.26,0,0,0-.71.08,3.22,3.22,0,0,0-1,.43l-.15,0-.08,0a4.32,4.32,0,0,0-.73-.85A7.07,7.07,0,0,0,28.68.85,7.42,7.42,0,0,0,27.56.77h-.49L26.46.72,25.39.61A9.44,9.44,0,0,0,24.24.54,7.58,7.58,0,0,0,21.53,1l-.42.18-.41,0A7.89,7.89,0,0,1,18.84,1l-.13,0A26.73,26.73,0,0,1,15.89.25L15.7.19A5,5,0,0,0,14.32,0Z"/></g><path class="c" d="M9.65,16a1.52,1.52,0,0,1-.06.19c-.05.12-.12.2-.13.23s0,.05,0,.08.19.11.26.34-.08.34-.08.32A.84.84,0,0,0,9.53,17c-.11-.13,0-.16,0-.19s0-.07-.14-.16-.08-.19,0-.3.13-.27.18-.44a2.42,2.42,0,0,0,.08-.4s0-.16,0-.24A4,4,0,0,1,10,13.72a3.76,3.76,0,0,1,1.51-1.47,2.53,2.53,0,0,1,.84-.37c.12,0,.62,0,1.14-.1A8.41,8.41,0,0,0,15,11.32a1.62,1.62,0,0,1,.88-.06,14,14,0,0,0,1.8.44,5.39,5.39,0,0,0,1.88.16,1.87,1.87,0,0,0,.58-.19,2.89,2.89,0,0,1,1.34-.13l1,.1c.23,0,.44,0,.8,0a2.3,2.3,0,0,1,1,.51,1.9,1.9,0,0,1,.38.75.18.18,0,0,0,.08.11s.18,0,.24.07.09.18.14.21a.24.24,0,0,0,.12,0,.21.21,0,0,1,.06-.11.21.21,0,0,0,.06-.19c0-.06.05,0,.14,0a.83.83,0,0,1,.21,0c.08,0,.09.18.1.23s.49-.19.62-.25.34-.24.39-.25a.17.17,0,0,1,.1,0,.52.52,0,0,1-.1.18c-.06.05-.18.41-.26.51-.19.44-.42.45-.52.45l-.14,0a2.19,2.19,0,0,1,.08.66,1.68,1.68,0,0,0,.19.8,2.47,2.47,0,0,0,.48.6,3.21,3.21,0,0,1,.4.49s.52,0,.72,0,.06.22-.18.28a1.19,1.19,0,0,0-.34.13h0l0,.09a.85.85,0,0,0,.33,0,4.5,4.5,0,0,0,1.29-.7c.18-.23.25,0,.27,0a3,3,0,0,1,0,.54,2.3,2.3,0,0,1-.56.91,3.42,3.42,0,0,1-.87.7s-.21.46-.21.49,0,.13-.05.24a1.57,1.57,0,0,0-.15.29c-.06.2-.39.19-.39.19a2.81,2.81,0,0,0-.58.09.35.35,0,0,1-.47-.14.56.56,0,0,1-.39-.23c-.06-.08-1.09-1.07-1.16-1.16a.57.57,0,0,1-.32-.47c0-.05-.14-.23-.14-.23l-.09.06a1.46,1.46,0,0,1-.06.18c0,.07-.24.15-.37.19a.24.24,0,0,1-.27-.14s-.21,0-.25,0c-.11.22-.25.14-.33.12a4.94,4.94,0,0,0-.53.61,3.83,3.83,0,0,0-.38,1,2.56,2.56,0,0,0,0,.29.91.91,0,0,0,.23.5,1.76,1.76,0,0,0,.31.16.26.26,0,0,1,.16.17,1.57,1.57,0,0,0,.12.19c0,.05,0,.07-.08.08a.44.44,0,0,1-.15,0s0,.07,0,.1a.9.9,0,0,1-.34.05,1.6,1.6,0,0,1-.52-.09,2.23,2.23,0,0,1-.54,0c-.32,0-.31-.08-.34-.17a.7.7,0,0,1,.11-.42,1,1,0,0,1,.15-.18.21.21,0,0,0,0-.07,1,1,0,0,1-.19,0l-.24.17a5,5,0,0,0-.42.39.54.54,0,0,1-.27.15c-.11,0-.25-.1-.35-.25a.32.32,0,0,1,0-.34.62.62,0,0,0-.14,0,1.58,1.58,0,0,1-.12-.35.5.5,0,0,1,.12-.37c.07-.07.5-.54.57-.52a.55.55,0,0,1,.26.13s.12,0,.21,0a.13.13,0,0,1,.08-.08.23.23,0,0,0,0-.11,9.25,9.25,0,0,1-.59-.83,7.36,7.36,0,0,1-1.67.34,6.06,6.06,0,0,1-2.9-.3,3.41,3.41,0,0,1-1.32-1.17.78.78,0,0,1-.33.4,1.18,1.18,0,0,0-.44.51,2.81,2.81,0,0,0-.09.62c0,.21-.08.56-.09.64a2.52,2.52,0,0,0,.05.52c0,.08.12.25.17.42a1,1,0,0,0,.18.33.67.67,0,0,0,.28.13c.14,0,.14.06.18.11a2,2,0,0,1,.12.29s0,.06-.06.13-.42,0-.52,0c-.27.19-.72,0-.77,0H12c-.22,0-.22-.1-.22-.16a2.57,2.57,0,0,1,.1-.35.55.55,0,0,0,0-.37,3.27,3.27,0,0,0-.48-.45c-.12-.09-.2-.16-.23-.26A1.77,1.77,0,0,1,11.2,19a2.51,2.51,0,0,0,0-.64l-.16.36c-.06.14-.13.38-.19.52a1.7,1.7,0,0,0-.12.49,2.89,2.89,0,0,0,.05.42.81.81,0,0,0,.22.26,1.24,1.24,0,0,1,.27.4c.08.16,0,.18,0,.17l-.15,0s0,0-.08,0a2.3,2.3,0,0,1-.37,0,.88.88,0,0,1-.21,0,.79.79,0,0,1-.55,0c-.06,0-.24,0-.32-.12s.08-.39.18-.69a.6.6,0,0,0-.05-.55c0-.1-.2-.32-.28-.44s0-.24.06-.39.23-.45.35-.77A1.49,1.49,0,0,0,10,17.5a1.62,1.62,0,0,0-.15-.42C9.8,17,9.8,17,9.8,16.93s0-.13,0-.21a3,3,0,0,0-.09-.33C9.69,16.33,9.65,16,9.65,16ZM39,12.31c0-.12-.16-.48-.49-.06a8.17,8.17,0,0,1-2.34,1.27,1.55,1.55,0,0,1-.6.08s-.06-.16-.06-.16h0a2.15,2.15,0,0,1,.61-.23c.43-.11.79-.45.32-.51s-1.3,0-1.3,0a5.84,5.84,0,0,0-.73-.89,4.48,4.48,0,0,1-.87-1.08,3.05,3.05,0,0,1-.34-1.45A4,4,0,0,0,33,8a.68.68,0,0,1,.25,0c.19,0,.6,0,1-.82.14-.2.36-.83.47-.93a1,1,0,0,0,.18-.32.3.3,0,0,0-.18,0c-.1,0-.48.35-.72.45s-1,.38-1.12.45c0-.09,0-.35-.18-.41a1.51,1.51,0,0,0-.39-.06c-.16,0-.28-.12-.26,0a.38.38,0,0,1-.11.35.39.39,0,0,0-.12.21.44.44,0,0,1-.21-.05c-.07-.05-.14-.31-.25-.38s-.37-.08-.44-.12a.33.33,0,0,1-.14-.2,3.44,3.44,0,0,0-.69-1.36,4.17,4.17,0,0,0-1.84-.92c-.65-.1-1,0-1.45-.05S25.47,3.64,25,3.59a5.25,5.25,0,0,0-2.43.23,3.4,3.4,0,0,1-1,.35,9.79,9.79,0,0,1-3.42-.29,25.4,25.4,0,0,1-3.26-.8,3,3,0,0,0-1.59.11,15.26,15.26,0,0,1-2.6.83c-.94.15-1.86.15-2.07.18a4.59,4.59,0,0,0-1.53.67A6.82,6.82,0,0,0,4.34,7.53a7.31,7.31,0,0,0-.82,2.74c0,.14,0,.44,0,.44a4.38,4.38,0,0,1-.14.73c-.09.31-.27.6-.32.8s-.12.4.09.55.26.23.25.28-.16.11,0,.35a1.51,1.51,0,0,1,.3.44s.26-.16.14-.58-.24-.5-.47-.62c-.05,0-.11-.08-.09-.14s.14-.21.24-.42a2.75,2.75,0,0,0,.11-.34s.07.51.09.61a5.48,5.48,0,0,1,.17.61c0,.15,0,.26,0,.39s0,.12.11.27a2.93,2.93,0,0,1,.28.77,2.71,2.71,0,0,1-.24.87c-.21.58-.51,1.14-.63,1.4s-.26.49-.12.7.42.61.5.79a1.09,1.09,0,0,1,.1,1c-.19.55-.48,1-.33,1.26s.46.22.58.22a1.43,1.43,0,0,0,1,0,1.6,1.6,0,0,0,.38,0,4.19,4.19,0,0,0,.67.08c.13,0,.14-.06.14-.06a2.39,2.39,0,0,0,.27.08c.07,0,.18,0,0-.31a2.24,2.24,0,0,0-.48-.73,1.47,1.47,0,0,1-.41-.47,5.21,5.21,0,0,1-.1-.76,3.08,3.08,0,0,1,.22-.89c.11-.27.24-.69.34-1s.29-.66.29-.66a4.56,4.56,0,0,1-.06,1.17,3.21,3.21,0,0,0-.1,1c.05.19.2.31.42.48a5.94,5.94,0,0,1,.87.81,1,1,0,0,1,.09.67,4.67,4.67,0,0,0-.18.64c0,.12,0,.34.4.29.16,0,.48,0,.48,0l.27.08A1.5,1.5,0,0,1,8.78,20l0,0-.08-.11-.09-.14a1.33,1.33,0,0,1,0-1.34l.07-.15v-.68a1.23,1.23,0,0,1-.18-.35,1.24,1.24,0,0,1-.16-1.1,2,2,0,0,1,.13-.35.89.89,0,0,0,0-.11,1.51,1.51,0,0,0,0-.2c0-.06,0-.17,0-.23a5,5,0,0,1,.59-2A4.73,4.73,0,0,1,11,11.38a3.39,3.39,0,0,1,1.19-.49l.31,0a7.68,7.68,0,0,0,.82-.08,6.72,6.72,0,0,0,1.09-.35l.15-.06a2.82,2.82,0,0,1,.92-.16,2.08,2.08,0,0,1,.58.08h.06a14.75,14.75,0,0,0,1.69.41,5,5,0,0,0,1.17.16l.38,0,.09,0,.23-.09A3.53,3.53,0,0,1,21,10.52a4.55,4.55,0,0,1,.55,0l.61.06.34,0h.32a3.45,3.45,0,0,1,.52,0,3.26,3.26,0,0,1,1.53.75,2,2,0,0,1,.43.58,1.09,1.09,0,0,1,.32,0,1.29,1.29,0,0,1,.34.07l.06,0a1.37,1.37,0,0,1,.51-.26l.14,0h.11a1.18,1.18,0,0,1,.52.12l.77.39-.27.82a1.53,1.53,0,0,1-.23.45l0,.07a3.26,3.26,0,0,1-.16.33,1.92,1.92,0,0,1-.46.62h0A.7.7,0,0,0,27,15a.68.68,0,0,0,.16.21l.14.15a.57.57,0,0,0,.14-.19c.08,0,.39,0,.45-.06a.43.43,0,0,0,.48.26c.25-.08.62-.23.67-.35a2.61,2.61,0,0,0,.11-.32l.17-.11s.2.31.25.41a1,1,0,0,0,.58.84c.13.15,2,1.95,2.11,2.1a1,1,0,0,0,.71.41.64.64,0,0,0,.86.26,5.11,5.11,0,0,1,1.05-.16s.59,0,.7-.35a2.85,2.85,0,0,1,.28-.52c.11-.21.15-.36.1-.44s.38-.8.38-.89a6.21,6.21,0,0,0,1.58-1.28,4.18,4.18,0,0,0,1-1.66A5.48,5.48,0,0,0,39,12.31ZM26.44,20.82a.23.23,0,0,0,.12-.07,1.42,1.42,0,0,1-.3.06A.49.49,0,0,0,26.44,20.82Zm-1.18-.28a1.54,1.54,0,0,1-.63-.48L24,19.45l-.39-.38L23.51,19a1.18,1.18,0,0,1-.56,0l-.08,0-.15.18a3.36,3.36,0,0,0-.19.54,1.25,1.25,0,0,1,.12.09l.12-.09a4.48,4.48,0,0,0,.44-.3,1.74,1.74,0,0,0,.35,0,.38.38,0,0,1-.05.13,1.71,1.71,0,0,0-.28.33,1.63,1.63,0,0,0-.17.45l0,0a1.25,1.25,0,0,1,.14.24l.13.33.31,0a4,4,0,0,0,1,0,2.9,2.9,0,0,0,.94.16,1.63,1.63,0,0,0,.62-.1s0-.1,0-.14l-.09,0A1.26,1.26,0,0,1,25.26,20.54Zm.92.28.08,0-.1,0Z"/></svg>