<svg xmlns="http://www.w3.org/2000/svg" viewBox="0 0 24.49 32"><defs><style>.a{opacity:0.8;}.b{fill:#fff;}.c{fill:#d0021b;}</style></defs><title>Asset 239</title><g class="a"><path class="b" d="M3.58,30.5A2.08,2.08,0,0,1,1.5,28.42V25a2.08,2.08,0,0,1,2.08-2.08H4.2l4-19.71a2.09,2.09,0,0,1,2-1.67h4a2.08,2.08,0,0,1,2,1.64l4,19.74h.62A2.08,2.08,0,0,1,23,25v3.47a2.08,2.08,0,0,1-2.08,2.08ZM13.84,16.87l-.72-4.63H11.39l-.72,4.63Z"/><path class="b" d="M14.27,3a.59.59,0,0,1,.58.46l4.22,20.92h1.85a.58.58,0,0,1,.58.58v3.47a.58.58,0,0,1-.58.58H3.58A.58.58,0,0,1,3,28.42V25a.58.58,0,0,1,.58-.58H5.43L9.64,3.46A.59.59,0,0,1,10.22,3h4M8.92,18.37H15.6l-1.18-7.63h-4.3L8.92,18.37M14.27,0h-4A3.57,3.57,0,0,0,6.72,2.81v.06L3,21.43A3.58,3.58,0,0,0,0,25v3.47A3.58,3.58,0,0,0,3.58,32H20.91a3.58,3.58,0,0,0,3.58-3.58V25a3.58,3.58,0,0,0-3-3.52L17.79,2.87V2.81A3.57,3.57,0,0,0,14.27,0Z"/></g><path class="c" d="M20.91,24.38H19.06L14.84,3.46A.59.59,0,0,0,14.27,3h-4a.59.59,0,0,0-.58.46L5.43,24.38H3.58A.58.58,0,0,0,3,25v3.47a.58.58,0,0,0,.58.58H20.91a.58.58,0,0,0,.58-.58V25A.58.58,0,0,0,20.91,24.38ZM10.11,10.74h4.3l1.18,7.63H8.92Z"/></svg>