<svg xmlns="http://www.w3.org/2000/svg" viewBox="0 0 45.99 28.11"><defs><style>.a{opacity:0.8;}.b{fill:#fff;}.c{fill:#ffab24;}</style></defs><title>Asset 3</title><g class="a"><path class="b" d="M39.61,26.61a2.61,2.61,0,0,1-1.5-.47A2.62,2.62,0,0,1,34,24V11.26H31.13a2.44,2.44,0,0,1-2.37-1.88H25.37a1.5,1.5,0,0,1-1.5-1.5V6.75a1.5,1.5,0,0,1,.64-1.23,1.5,1.5,0,0,1,1.23-.65h.38a1.49,1.49,0,0,1,1,.38h4.4a1.5,1.5,0,0,1,1.06.44l.38.38a1.49,1.49,0,0,1,.24.31h1.35a3.75,3.75,0,1,1,7.13.08,3.57,3.57,0,0,1,2.83,3.49v5a2.44,2.44,0,0,1-2.25,2.43V24A2.63,2.63,0,0,1,39.61,26.61Zm-17,0a5.21,5.21,0,0,1-3.83-1.68c-.47,0-.84,0-1.57,0a26.55,26.55,0,0,1-3.89-.24,5.2,5.2,0,0,1-8.65-1l-.37-.16c-.21-.09-.43-.19-.68-.28a1.49,1.49,0,0,1-.5-.31c-1-1-2.48-4.58-1.12-8.6a1.5,1.5,0,0,1,1.42-1h.86c.3-.27.67-.64,1-1A16.44,16.44,0,0,1,8.77,9.52c.37-.19,1.14-.6,6.22-.6h1a4.48,4.48,0,0,1,3.6,1.19l4.27,3.4a14.88,14.88,0,0,1,6.11,1.81,1.5,1.5,0,0,1,.63,1,22.07,22.07,0,0,1-.43,6.1,1.5,1.5,0,0,1-.75,1,8.75,8.75,0,0,1-2.36.8A5.24,5.24,0,0,1,22.65,26.61Zm0-5.59a.35.35,0,0,0-.35.35.35.35,0,1,0,.35-.35ZM9.37,21a.35.35,0,0,0,0,.71.36.36,0,0,0,.35-.35A.36.36,0,0,0,9.37,21Z"/><path class="b" d="M38.11,3a2.25,2.25,0,1,1-2.25,2.25A2.25,2.25,0,0,1,38.11,3m-12,3.38v.38h5.39l.38.38v.75h9A2.06,2.06,0,0,1,43,9.94v5a.94.94,0,0,1-1.88,0V10.76a.19.19,0,1,0-.38,0V24a1.13,1.13,0,1,1-2.25,0V17.43a.38.38,0,1,0-.75,0V24a1.13,1.13,0,0,1-2.25,0V9.92h0a.19.19,0,0,0-.18-.16H31.13a.93.93,0,0,1-.88-1.25l-.62-.62H25.37V6.75h.38V6.38h.38m4.26,1.88h0a.94.94,0,0,1,.37-.3V7.88H30l.38.38M15,10.43h1a3.08,3.08,0,0,1,2.68.87C19,11.58,23,14.76,23.26,15a13.87,13.87,0,0,1,5.82,1.58,21.58,21.58,0,0,1-.42,5.56,8,8,0,0,1-2.59.75,3.73,3.73,0,0,1-6.55.51c-1,.05-1.24.08-2.26.08a29.7,29.7,0,0,1-4.61-.34,3.71,3.71,0,0,1-6.81-.58c-.51-.15-1-.41-1.66-.66-.62-.57-1.88-3.61-.72-7h1.4c1.05-.77,3.07-3.22,4.6-4,.72-.38,3.89-.43,5.52-.43m-.17,4.85h4.37l.36-.75c-.71-.6-1.48-1.21-1.77-1.43a2.35,2.35,0,0,0-1.88-.63c-.28,0-.92,0-1.66.07l.59,2.74m-5.94,0H13l-.49-2.72h-.08a16.93,16.93,0,0,0-2.25.14L8.77,14.38l.1.89m13.78,8a1.85,1.85,0,1,0-1.85-1.85,1.86,1.86,0,0,0,1.85,1.85m-13.29,0a1.85,1.85,0,1,0-1.85-1.85,1.86,1.86,0,0,0,1.85,1.85M38.11,0A5.26,5.26,0,0,0,33,4.14a3,3,0,0,0-1.47-.39H27.57a3,3,0,0,0-1.45-.38h-.38a3,3,0,0,0-2.3,1.07,3,3,0,0,0-1.07,2.3V7.88a3,3,0,0,0,3,3h2.41a3.94,3.94,0,0,0,3.35,1.88h1.35V24a4.13,4.13,0,0,0,5.63,3.84A4.13,4.13,0,0,0,43.74,24v-5.5A3.94,3.94,0,0,0,46,14.93v-5a5,5,0,0,0-1.48-3.58,5.09,5.09,0,0,0-1.15-.86q0-.12,0-.25A5.26,5.26,0,0,0,38.11,0ZM15,7.43c-5.45,0-6.33.46-6.92.77A17.42,17.42,0,0,0,4.3,11.31l-.57.56H3.46a3,3,0,0,0-2.84,2C-.86,18.27.56,22.63,2.15,24.1a3,3,0,0,0,1,.61l.52.21a6.7,6.7,0,0,0,10.28,1.39,27.44,27.44,0,0,0,3.32.16h1a6.72,6.72,0,0,0,9.67-.89,9.68,9.68,0,0,0,2.2-.82,3,3,0,0,0,1.49-2A22.89,22.89,0,0,0,32,16.07a3,3,0,0,0-1.25-2,16,16,0,0,0-6.37-2L20.49,8.94A5.87,5.87,0,0,0,16,7.43Z"/></g><path class="c" d="M29.09,16.57A13.88,13.88,0,0,0,23.26,15c-.28-.23-4.27-3.41-4.63-3.69A3.08,3.08,0,0,0,16,10.43c-.05,0-5.53-.09-6.5.42-1.53.8-3.55,3.26-4.6,4H3.46c-1.16,3.41.1,6.45.72,7,.65.24,1.14.51,1.66.66a3.71,3.71,0,0,0,6.81.58,29.7,29.7,0,0,0,4.61.34c1,0,1.3,0,2.26-.08a3.73,3.73,0,0,0,6.55-.51,8,8,0,0,0,2.59-.75A21.58,21.58,0,0,0,29.09,16.57ZM9.37,23.23a1.85,1.85,0,1,1,1.85-1.85A1.86,1.86,0,0,1,9.37,23.23Zm-.5-8-.1-.89,1.44-1.69a17,17,0,0,1,2.34-.14L13,15.28Zm10.31,0H14.82l-.59-2.74c.75,0,1.39-.07,1.66-.07a2.35,2.35,0,0,1,1.88.63c.29.23,1.07.83,1.77,1.43Zm3.47,8a1.85,1.85,0,1,1,1.85-1.85A1.86,1.86,0,0,1,22.66,23.23ZM38.11,3a2.25,2.25,0,1,1-2.25,2.25A2.25,2.25,0,0,1,38.11,3Zm2.81,4.88h-9V7.13l-.38-.38H26.12V6.38h-.38v.38h-.38V7.88h4.26l.62.62a.93.93,0,0,0,.88,1.25H35.3a.19.19,0,0,1,.18.16h0V24a1.13,1.13,0,1,0,2.25,0V17.43a.38.38,0,1,1,.75,0V24a1.13,1.13,0,1,0,2.25,0V10.76a.19.19,0,0,1,.38,0v4.17a.94.94,0,0,0,1.88,0v-5A2.06,2.06,0,0,0,40.93,7.88Zm-10.55.38L30,7.88h.75V8a.94.94,0,0,0-.37.3Z"/></svg>