<svg xmlns="http://www.w3.org/2000/svg" viewBox="0 0 48.04 28.22"><defs><style>.a{fill:#1a2026;}.b{opacity:0.8;}.c{fill:#fff;}.d{fill:#4f8317;}</style></defs><title>Asset 18</title><path class="a" d="M48,18.82h0Z"/><g class="b"><path class="c" d="M27.59,26.72a4.75,4.75,0,0,1-3-1.22l-1.44-1.4a5.22,5.22,0,0,1-1.39-2.84l-.1-.9a4.82,4.82,0,0,1,.85-3.12L23.42,16a8.33,8.33,0,0,1,2.12-1.88l.31-.18.35-.18a3.14,3.14,0,0,1-.48-.63l-.66-1.18A2.1,2.1,0,0,1,27,8.72h.25a4.76,4.76,0,0,1,2.36.63A5.38,5.38,0,0,1,32,8.72h.38A2.11,2.11,0,0,1,34.37,9.8,2.11,2.11,0,0,1,34.12,12l-1,1.32a3.13,3.13,0,0,1-.34.4l.27.11a6.57,6.57,0,0,1,2.36,1.82l1,1.32a5.41,5.41,0,0,1,1,3v.5a5.13,5.13,0,0,1-1.09,3l-1.57,1.86a4.31,4.31,0,0,1-3,1.41Zm-10.35-.1a2.61,2.61,0,0,1-1.5-.47A2.62,2.62,0,0,1,11.62,24V11.25H8.76A2.44,2.44,0,0,1,6.39,9.38H3a1.5,1.5,0,0,1-1.5-1.5V6.75a1.5,1.5,0,0,1,.64-1.23,1.5,1.5,0,0,1,1.23-.64h.38a1.49,1.49,0,0,1,1,.38h4.4a1.5,1.5,0,0,1,1.06.44l.38.38a1.5,1.5,0,0,1,.24.31h1.35a3.75,3.75,0,1,1,7.13.08,3.57,3.57,0,0,1,2.83,3.49v5a2.44,2.44,0,0,1-2.25,2.43V24A2.63,2.63,0,0,1,17.25,26.61Z"/><path class="c" d="M15.75,3a2.25,2.25,0,1,1-2.25,2.25A2.25,2.25,0,0,1,15.75,3m-12,3.38v.38H9.14l.38.38v.75h9a2.06,2.06,0,0,1,2.06,2.06v5a.94.94,0,0,1-1.88,0V10.76a.19.19,0,1,0-.38,0V24a1.13,1.13,0,1,1-2.25,0V17.43a.38.38,0,1,0-.75,0V24a1.13,1.13,0,1,1-2.25,0V9.92h0a.19.19,0,0,0-.18-.16H8.76A.93.93,0,0,1,7.88,8.5l-.62-.62H3V6.75h.38V6.38h.38M8,8.25H8A.94.94,0,0,1,8.39,8V7.88H7.64L8,8.25m24.41,2c.63,0,.84.42.48.93l-1,1.32a2.52,2.52,0,0,1-1.81.93h-1.4a2.16,2.16,0,0,1-1.7-1l-.66-1.18c-.31-.55,0-1,.59-1h.25a3,3,0,0,1,1.72.51.92.92,0,0,0,.61.21,1.14,1.14,0,0,0,.66-.21A3.69,3.69,0,0,1,32,10.22h.38M30,14.67a6.77,6.77,0,0,1,2.2.44l.31.13a5.14,5.14,0,0,1,1.75,1.35l1,1.32A3.93,3.93,0,0,1,36,20v.5a3.64,3.64,0,0,1-.74,2l-1.57,1.86a2.81,2.81,0,0,1-1.88.87h-4.2a3.25,3.25,0,0,1-2-.8L24.2,23a3.73,3.73,0,0,1-.95-1.93l-.1-.9a3.33,3.33,0,0,1,.56-2.05l.91-1.21a6.81,6.81,0,0,1,1.68-1.49l.31-.18a5,5,0,0,1,2.13-.58H30M15.75,0a5.26,5.26,0,0,0-5.13,4.14,3,3,0,0,0-1.47-.39H5.21a3,3,0,0,0-1.45-.38H3.38a3,3,0,0,0-2.3,1.07A3,3,0,0,0,0,6.75V7.88a3,3,0,0,0,3,3H5.41a3.94,3.94,0,0,0,3.35,1.88h1.35V24a4.13,4.13,0,0,0,5.63,3.84,4.13,4.13,0,0,0,5.62-3.55,5.71,5.71,0,0,0,.74.9l1.43,1.4a6.21,6.21,0,0,0,4.06,1.65h4.2A5.77,5.77,0,0,0,36,26.28l1.57-1.86a6.58,6.58,0,0,0,1.45-4V20a6.87,6.87,0,0,0-1.32-3.88l-1-1.32a7.8,7.8,0,0,0-1.58-1.49l.27-.37a3.51,3.51,0,0,0-2.91-5.68H32a7.14,7.14,0,0,0-2.45.47,6.64,6.64,0,0,0-2.38-.47H27A3.68,3.68,0,0,0,23.73,9q-.08.14-.15.28a5,5,0,0,0-1.44-2.91A5.08,5.08,0,0,0,21,5.5q0-.12,0-.25A5.26,5.26,0,0,0,15.75,0Zm7.88,13.67V12.43l.13.25.34.61-.47.38Z"/></g><path class="d" d="M15.75,3a2.25,2.25,0,1,1-2.25,2.25A2.25,2.25,0,0,1,15.75,3Zm2.81,4.88h-9V7.13l-.38-.38H3.75V6.38H3.38v.38H3V7.88H7.26l.62.62a.93.93,0,0,0,.88,1.25h4.17a.19.19,0,0,1,.18.16h0V24a1.13,1.13,0,1,0,2.25,0V17.43a.38.38,0,0,1,.75,0V24a1.13,1.13,0,0,0,2.25,0V10.76a.19.19,0,1,1,.38,0v4.17a.94.94,0,0,0,1.88,0v-5A2.06,2.06,0,0,0,18.56,7.88ZM8,8.25A.94.94,0,0,1,8.39,8V7.88H7.64L8,8.25Zm22.12,5.14a2.52,2.52,0,0,0,1.81-.93l1-1.32c.37-.51.15-.93-.48-.93H32a3.69,3.69,0,0,0-1.84.51,1.07,1.07,0,0,1-1.27,0,3,3,0,0,0-1.72-.51H27c-.63,0-.89.45-.59,1L27,12.4a2.16,2.16,0,0,0,1.7,1Zm5.15,4.52-1-1.32a5.14,5.14,0,0,0-1.75-1.35l-.31-.13a6.77,6.77,0,0,0-2.2-.44H28.74a5,5,0,0,0-2.13.58l-.31.18a6.81,6.81,0,0,0-1.68,1.49l-.91,1.21a3.33,3.33,0,0,0-.56,2.05l.1.9A3.73,3.73,0,0,0,24.2,23l1.43,1.4a3.25,3.25,0,0,0,2,.8h4.2a2.81,2.81,0,0,0,1.88-.87l1.57-1.86a3.64,3.64,0,0,0,.74-2V20A3.93,3.93,0,0,0,35.29,17.91Z"/></svg>