<svg xmlns="http://www.w3.org/2000/svg" width="31.0025" height="33.0774" viewBox="0 0 31.0025 33.0774"><title>scholarship-amber</title><g id="Layer_2" data-name="Layer 2"><g id="Layer_1-2" data-name="Layer 1"><g opacity="0.8"><path d="M21.4729,8.694a1.811,1.811,0,0,1-.1855-3.6123l1.24-.1289a1.4272,1.4272,0,0,0-.01-.3154L4.9846,5.0826a1.8116,1.8116,0,0,1-.0928-3.6221L23.0324,1a1.8873,1.8873,0,0,1,.7148.13A3.67,3.67,0,0,1,25.841,3.1608,5.8456,5.8456,0,0,1,25.63,7.34a1.82,1.82,0,0,1-1.4756,1.083l-2.4922.26C21.6271,8.6871,21.508,8.694,21.4729,8.694Z" fill="#fff"/><path d="M23.0551,2a.87.87,0,0,1,.3206.0579,2.6882,2.6882,0,0,1,1.54,1.4845,4.8793,4.8793,0,0,1-.2051,3.4031.8085.8085,0,0,1-.6594.483l-2.4934.26a.7678.7678,0,0,1-.0847.0048.8106.8106,0,0,1-.083-1.6168L23.3718,5.87a2.8422,2.8422,0,0,0,.0437-1.7119,1.0109,1.0109,0,0,0-.5029-.5312L4.96,4.0824H4.9392a.8109.8109,0,0,1-.0205-1.6216L23.0551,2m0-2-.0508.0006L4.8679.4614a2.8109,2.8109,0,0,0,.0713,5.621L5.01,6.0818,18.91,5.7286a2.8089,2.8089,0,0,0,2.8694,3.948l2.48-.259A2.8111,2.8111,0,0,0,26.5461,7.74a6.8363,6.8363,0,0,0,.2188-4.96A4.7058,4.7058,0,0,0,24.1152.2a2.8636,2.8636,0,0,0-1.06-.2Z" fill="#fff"/><path d="M9.0539,32.0778a1.8108,1.8108,0,0,1-.9424-3.3564,2.4384,2.4384,0,0,0,1.0107-1.9492C9.07,25.9108,6.8186,21.2887,5.61,18.8053c-1.9951-4.0986-4.0576-8.3369-4.49-10.58-.373-1.9424.11-4.6191,1.7549-5.9795A3.4031,3.4031,0,0,1,5.0607,1.442a3.7185,3.7185,0,0,1,1.375.2715A4.0437,4.0437,0,0,1,8.798,4.0416a5.02,5.02,0,0,1,.2871,2.1641L21.1584,5.14c.0293-.0029.1357-.0078.165-.0078a1.8136,1.8136,0,0,1,1.6953,1.1914c.0088.0234.5625,1.543,1.3926,3.5957a1.81,1.81,0,1,1-3.3564,1.3555c-.3809-.9375-.7051-1.77-.9482-2.4062l-13.2578,1.17c-.0293.0029-.1416.0088-.1709.0088A1.7965,1.7965,0,0,1,5.2395,9.32c.8262,2.1445,2.3447,5.2637,3.6279,7.9,2.7539,5.6611,3.876,8.11,3.876,9.5518a6.09,6.09,0,0,1-.0732.9482l13.1875-2.56c.4385-.6191,1.0566-2.0869-.3564-4.4531-.4453-.7461-.91-1.6016-1.3809-2.5439a1.8107,1.8107,0,0,1,3.2383-1.6211c.4365.8721.8574,1.6484,1.252,2.3086,2.75,4.6045.7822,8.13-.6426,9.3506a1.8218,1.8218,0,0,1-.8262.3984L9.4,32.0436A1.7431,1.7431,0,0,1,9.0539,32.0778ZM5.1291,5.0914A3.4372,3.4372,0,0,0,4.677,7.5406a7.0006,7.0006,0,0,0,.2041.7705,1.808,1.808,0,0,1,.1836-.875,3.4993,3.4993,0,0,0,.3535-2.0937C5.3928,5.278,5.3586,5.1891,5.1291,5.0914Z" fill="#fff"/><path d="M5.0617,2.4418a2.7262,2.7262,0,0,1,1.0056.2012A3.0681,3.0681,0,0,1,7.8657,4.4015a4.8234,4.8234,0,0,1,.0188,2.9138L21.2458,6.1362c.0256-.0026.0513-.0038.0767-.0038a.8107.8107,0,0,1,.7563.5343c.0056.0151.5662,1.5527,1.4063,3.6279a.8107.8107,0,1,1-1.5029.6082c-.5415-1.3373-.9683-2.4553-1.21-3.0967L6.7609,9.0421a.7134.7134,0,0,1-.0837.0049.8126.8126,0,0,1-.7151-1.17,4.3734,4.3734,0,0,0,.3887-2.8955,1.4314,1.4314,0,0,0-.8818-.8306,1.0977,1.0977,0,0,0-.4043-.0875.7889.7889,0,0,0-.519.2023A4.1032,4.1032,0,0,0,3.6945,7.73c.365,1.8971,2.4409,6.1641,4.2732,9.9282,2.3413,4.8108,3.7759,7.8252,3.7759,9.1134a4.871,4.871,0,0,1-.5391,2.2518l15.199-2.95c.4775-.5146,1.9629-2.5187-.0435-5.8782-.4292-.7181-.8821-1.5519-1.3452-2.4783a.8108.8108,0,0,1,1.45-.7253c.4451.89.8782,1.6881,1.2866,2.3722,3.0293,5.0721-.4,8.05-.4346,8.0793a.8092.8092,0,0,1-.3682.1758l-17.74,3.4435a.7967.7967,0,0,1-.1553.015.8109.8109,0,0,1-.4219-1.5028,3.4425,3.4425,0,0,0,1.49-2.8029c0-.98-2.0032-5.0959-3.6128-8.4039-1.9675-4.0428-4.0017-8.2235-4.408-10.332-.31-1.6113.0793-3.9186,1.41-5.019a2.3986,2.3986,0,0,1,1.55-.575m0-2A4.3894,4.3894,0,0,0,2.236,1.4762C.2019,3.1583-.2781,6.2513.1372,8.4131c.4568,2.37,2.4565,6.4795,4.5737,10.83A73.3446,73.3446,0,0,1,8.12,26.8491a1.4377,1.4377,0,0,1-.5737,1.0457A2.8106,2.8106,0,0,0,9.6,33.0238l17.73-3.4415a2.8131,2.8131,0,0,0,1.2756-.61c1.66-1.4031,3.9724-5.4282.863-10.6344-.3843-.6438-.7932-1.3979-1.2148-2.2412A2.7988,2.7988,0,0,0,25.74,14.5435a2.8307,2.8307,0,0,0-1.2529.2948,2.8108,2.8108,0,0,0-1.26,3.7748c.4829.9658.96,1.844,1.4165,2.6082.9111,1.5258.8062,2.5056.5769,3.0446L13.7338,26.4952c-.1135-1.6528-1.2373-4.1017-3.9678-9.7122C8.9,15.0043,7.861,12.87,7.04,11.0253L19.4445,9.931c.2244.5765.4529,1.1523.6838,1.7224a2.8106,2.8106,0,0,0,5.2109-2.1083c-.78-1.9272-1.3213-3.3992-1.38-3.5607a2.8182,2.8182,0,0,0-2.6365-1.8521q-.1351,0-.2715.0133l-10.9834.9691A5.54,5.54,0,0,0,9.7321,3.683,5.0878,5.0878,0,0,0,6.8054.7841,4.7216,4.7216,0,0,0,5.0617.4418Z" fill="#fff"/><path d="M22.7824,20.4391a5.5362,5.5362,0,0,1-4.7559-2.7119,5.585,5.585,0,0,1,6.1211-8.3027,5.5,5.5,0,0,1,3.415,2.5469,5.6009,5.6009,0,0,1-4.78,8.4678Z" fill="#fff"/><path d="M22.8193,10.2623a4.5037,4.5037,0,0,1,3.8835,2.22,4.6243,4.6243,0,0,1-1.57,6.2922,4.5172,4.5172,0,0,1-6.2456-1.5574,4.61,4.61,0,0,1,3.9321-6.955m0-2h0a6.6106,6.6106,0,0,0-5.6533,9.9741,6.48,6.48,0,0,0,4.0344,3.0077,6.6006,6.6006,0,0,0,7.2227-9.7817,6.4866,6.4866,0,0,0-4.03-3.0072A6.5531,6.5531,0,0,0,22.82,8.2623Z" fill="#fff"/><path d="M23.0282,19.2569a.811.811,0,1,1,1.5345-.5257l1.6319,4.7626a.8112.8112,0,0,1-1.1251.9905l-1.6453-.8084-1.179,1.1291a.8067.8067,0,0,1-.5606.2257.823.823,0,0,1-.3056-.0594.81.81,0,0,1-.5044-.7237l-.1853-5.39a.81.81,0,0,1,.7823-.8377.7822.7822,0,0,1,.8377.7823" fill="#fff" stroke="#fff" stroke-linecap="round" stroke-linejoin="round" stroke-width="2"/><path d="M21.7312,19.0851a.8106.8106,0,0,1,.2035,1.1283l-2.582,3.72a.81.81,0,0,1-.6659.3484.8022.8022,0,0,1-.2154-.0293.8108.8108,0,0,1-.5938-.7261l-.13-1.9066-1.217-.5091a.8115.8115,0,0,1-.2082-1.37l2.852-2.39a.811.811,0,1,1,1.042,1.2431" fill="#fff" stroke="#fff" stroke-linecap="round" stroke-linejoin="round" stroke-width="2"/></g><path d="M21.4731,7.6937A.8106.8106,0,0,1,21.39,6.0769l1.9818-.2074a2.842,2.842,0,0,0,.0435-1.7118,1.0107,1.0107,0,0,0-.5028-.5313L4.96,4.0824H4.9391a.8109.8109,0,0,1-.0206-1.6216L23.0551,2a.8708.8708,0,0,1,.3207.0578,2.6885,2.6885,0,0,1,1.54,1.4846,4.8794,4.8794,0,0,1-.2051,3.4031.8089.8089,0,0,1-.66.483l-2.4933.26A.77.77,0,0,1,21.4731,7.6937Z" fill="#ffab24"/><path d="M9.054,31.0774a.8109.8109,0,0,1-.422-1.5028,3.4423,3.4423,0,0,0,1.49-2.8029c0-.98-2.0032-5.0959-3.6129-8.404-1.9676-4.0428-4.0017-8.2235-4.4079-10.332-.31-1.6113.0792-3.9185,1.41-5.0191a2.44,2.44,0,0,1,2.5559-.3737A3.0675,3.0675,0,0,1,7.8656,4.4015a4.8223,4.8223,0,0,1,.019,2.9138l13.3613-1.179a.8084.8084,0,0,1,.833.53c.0055.015.5661,1.5527,1.4062,3.6279a.8106.8106,0,1,1-1.5028.6081c-.5416-1.3373-.9683-2.4553-1.21-3.0967L6.761,9.0421a.8.8,0,0,1-.74-.3492.8114.8114,0,0,1-.0586-.8163,4.374,4.374,0,0,0,.3888-2.8955,1.4316,1.4316,0,0,0-.882-.8306.8291.8291,0,0,0-.9232.1148A4.1031,4.1031,0,0,0,3.6944,7.73c.365,1.8971,2.4411,6.164,4.2732,9.9282,2.3413,4.8109,3.776,7.8252,3.776,9.1134a4.8691,4.8691,0,0,1-.5392,2.2518l15.1991-2.95c.4774-.5147,1.9628-2.5187-.0435-5.8782-.4291-.7181-.882-1.5519-1.3452-2.4783a.8109.8109,0,0,1,1.4505-.7253c.445.89.8781,1.6881,1.2866,2.3722,3.0294,5.0722-.4,8.05-.4347,8.0793a.8082.8082,0,0,1-.3682.1758l-17.74,3.4435A.7928.7928,0,0,1,9.054,31.0774Z" fill="#ffab24"/><path d="M22.7827,19.439a4.5577,4.5577,0,0,1-1.0982-.1354h0a4.4925,4.4925,0,0,1-2.7974-2.0863,4.6021,4.6021,0,0,1,5.02-6.822,4.5,4.5,0,0,1,2.7958,2.0871,4.6242,4.6242,0,0,1-1.57,6.2923A4.5153,4.5153,0,0,1,22.7827,19.439Z" fill="#ffab24"/><path d="M23.0282,19.2569a.811.811,0,1,1,1.5345-.5257l1.6319,4.7626a.8112.8112,0,0,1-1.1251.9905l-1.6453-.8084-1.179,1.1291a.8067.8067,0,0,1-.5606.2257.823.823,0,0,1-.3056-.0594.81.81,0,0,1-.5044-.7237l-.1853-5.39a.81.81,0,0,1,.7823-.8377.7822.7822,0,0,1,.8377.7823" fill="#ffab24"/><path d="M21.7312,19.0851a.8106.8106,0,0,1,.2035,1.1283l-2.582,3.72a.81.81,0,0,1-.6659.3484.8022.8022,0,0,1-.2154-.0293.8108.8108,0,0,1-.5938-.7261l-.13-1.9066-1.217-.5091a.8115.8115,0,0,1-.2082-1.37l2.852-2.39a.811.811,0,1,1,1.042,1.2431" fill="#ffab24"/></g></g></svg>