<svg xmlns="http://www.w3.org/2000/svg" width="31.0025" height="33.0774" viewBox="0 0 31.0025 33.0774"><title>scholarship-red</title><g id="Layer_2" data-name="Layer 2"><g id="Layer_1-2" data-name="Layer 1"><g opacity="0.8"><path d="M21.4729,8.6934a1.81,1.81,0,0,1-.1855-3.6113l1.24-.13a1.4272,1.4272,0,0,0-.01-.3154L4.9846,5.082a1.8111,1.8111,0,0,1-.0928-3.6211L23.0324,1a1.9077,1.9077,0,0,1,.707.126A3.6749,3.6749,0,0,1,25.841,3.16a5.8291,5.8291,0,0,1-.2119,4.1816,1.8173,1.8173,0,0,1-1.4746,1.082l-2.4932.2588C21.6271,8.6865,21.507,8.6934,21.4729,8.6934Z" fill="#fff"/><path d="M23.0551,2a.87.87,0,0,1,.3206.0577,2.6884,2.6884,0,0,1,1.54,1.4846,4.88,4.88,0,0,1-.2051,3.4031.8083.8083,0,0,1-.6594.4829l-2.4934.26a.7678.7678,0,0,1-.0847.0048.8106.8106,0,0,1-.083-1.6168l1.9817-.2074a2.8418,2.8418,0,0,0,.0437-1.7118,1.0111,1.0111,0,0,0-.5029-.5314L4.96,4.0823H4.9392a.8109.8109,0,0,1-.0205-1.6215L23.0551,2m0-2-.0508.0006L4.8679.4614a2.8109,2.8109,0,0,0,.0713,5.6208L5.01,6.0817,18.91,5.7285a2.8133,2.8133,0,0,0,2.5632,3.9651,2.76,2.76,0,0,0,.3054-.017l2.48-.2592A2.8109,2.8109,0,0,0,26.5461,7.74a6.8389,6.8389,0,0,0,.2188-4.96A4.7063,4.7063,0,0,0,24.1154.2a2.8614,2.8614,0,0,0-1.06-.2Z" fill="#fff"/><path d="M9.0539,32.0771A1.811,1.811,0,0,1,8.11,28.7217a2.4344,2.4344,0,0,0,1.0127-1.95C9.07,25.9121,6.8186,21.2891,5.61,18.8047c-1.9941-4.0977-4.0576-8.334-4.49-10.5791-.373-1.9424.11-4.6191,1.7549-5.9795a3.4014,3.4014,0,0,1,2.1875-.8047,3.7334,3.7334,0,0,1,1.374.2715A4.0437,4.0437,0,0,1,8.798,4.041a5.0444,5.0444,0,0,1,.2881,2.1641L21.1584,5.14c.0293-.0029.1348-.0078.1641-.0078a1.8138,1.8138,0,0,1,1.6963,1.1924c.0078.0215.5586,1.5332,1.3926,3.5957a1.81,1.81,0,1,1-3.3564,1.3545c-.3809-.9375-.7051-1.77-.9482-2.4062l-13.2578,1.17c-.0293.0029-.1426.0088-.1719.0088A1.7965,1.7965,0,0,1,5.2395,9.32c.8262,2.1445,2.3447,5.2637,3.6279,7.9,2.7539,5.66,3.876,8.1094,3.876,9.5508a6.1022,6.1022,0,0,1-.0732.9492L25.8586,25.16c.4385-.6182,1.0566-2.084-.3574-4.4521-.4492-.752-.9131-1.6084-1.3809-2.5439a1.8109,1.8109,0,0,1,.81-2.43,1.8323,1.8323,0,0,1,.81-.19,1.8016,1.8016,0,0,1,1.6191.998c.4365.873.8574,1.6484,1.252,2.3076,2.75,4.6055.7822,8.1318-.6426,9.3525a1.83,1.83,0,0,1-.8262.3984L9.4,32.0439A1.84,1.84,0,0,1,9.0539,32.0771ZM5.1291,5.0918A3.4372,3.4372,0,0,0,4.677,7.541a6.9545,6.9545,0,0,0,.2041.7715,1.8118,1.8118,0,0,1,.1836-.876,3.5078,3.5078,0,0,0,.3535-2.0937C5.3928,5.2773,5.3586,5.1885,5.1291,5.0918Z" fill="#fff"/><path d="M5.0617,2.4417a2.7262,2.7262,0,0,1,1.0056.2012A3.0681,3.0681,0,0,1,7.8657,4.4014a4.8234,4.8234,0,0,1,.0188,2.9138l13.3613-1.179c.0256-.0026.0513-.0038.0767-.0038a.81.81,0,0,1,.7563.5343c.0056.015.5662,1.5526,1.4063,3.6279a.8106.8106,0,1,1-1.5029.608c-.5415-1.3373-.9683-2.4553-1.21-3.0967L6.7609,9.0421a.7093.7093,0,0,1-.0835.0049.8127.8127,0,0,1-.7153-1.17A4.3739,4.3739,0,0,0,6.3508,4.981,1.4317,1.4317,0,0,0,5.4689,4.15a1.0977,1.0977,0,0,0-.4043-.0875.789.789,0,0,0-.519.2024A4.1031,4.1031,0,0,0,3.6945,7.73c.365,1.8971,2.4409,6.1639,4.2732,9.9281,2.3413,4.8109,3.7759,7.8252,3.7759,9.1134a4.8706,4.8706,0,0,1-.5391,2.2518l15.199-2.95c.4775-.5146,1.9629-2.5186-.0435-5.8782-.4292-.7181-.8821-1.5519-1.3452-2.4783a.8108.8108,0,0,1,1.45-.7252c.4451.89.8782,1.6881,1.2866,2.3722,3.0293,5.0721-.4,8.05-.4346,8.0793a.8092.8092,0,0,1-.3682.1758l-17.74,3.4434a.7875.7875,0,0,1-.1553.0151.8109.8109,0,0,1-.4219-1.5028,3.4429,3.4429,0,0,0,1.49-2.803c0-.98-2.0032-5.0958-3.6128-8.4039-1.9675-4.0428-4.0017-8.2235-4.408-10.332-.31-1.6112.0793-3.9185,1.41-5.019a2.3986,2.3986,0,0,1,1.55-.575m0-2A4.39,4.39,0,0,0,2.236,1.476C.2019,3.1583-.2781,6.2515.1372,8.413c.4568,2.37,2.4565,6.4795,4.5737,10.83A73.3421,73.3421,0,0,1,8.12,26.849a1.4383,1.4383,0,0,1-.5735,1.0458,2.81,2.81,0,0,0,2.0579,5.1281L27.33,29.5823a2.8131,2.8131,0,0,0,1.2756-.61c1.66-1.4031,3.9724-5.4282.863-10.6344-.384-.6432-.7927-1.3973-1.2148-2.2413a2.7992,2.7992,0,0,0-2.5146-1.5535,2.8288,2.8288,0,0,0-1.2522.2944,2.8109,2.8109,0,0,0-1.26,3.7753c.4827.9656.9595,1.8438,1.4163,2.6079.9111,1.5258.8062,2.5056.5769,3.0446L13.7338,26.4951c-.1135-1.6526-1.2373-4.1016-3.9678-9.7122C8.9,15.0042,7.8613,12.87,7.04,11.0253L19.4445,9.9309c.2244.5765.4529,1.1523.6838,1.7224a2.8106,2.8106,0,0,0,5.2109-2.1082c-.7588-1.8744-1.2825-3.2935-1.38-3.559a2.8185,2.8185,0,0,0-2.637-1.8538c-.09,0-.1809.0044-.272.0133l-10.9829.969a5.5413,5.5413,0,0,0-.3354-1.4319A5.0878,5.0878,0,0,0,6.8054.7839,4.7216,4.7216,0,0,0,5.0617.4417Z" fill="#fff"/><path d="M22.7824,20.4385a5.6059,5.6059,0,0,1-1.3379-.1641,5.4886,5.4886,0,0,1-3.418-2.5479,5.5847,5.5847,0,0,1,6.1211-8.3018,5.4942,5.4942,0,0,1,3.415,2.5469,5.6,5.6,0,0,1-4.78,8.4668Z" fill="#fff"/><path d="M22.8193,10.2623a4.5039,4.5039,0,0,1,3.8835,2.22,4.6245,4.6245,0,0,1-1.57,6.2924,4.5171,4.5171,0,0,1-6.2456-1.5575,4.61,4.61,0,0,1,3.9321-6.9548m0-2h0a6.61,6.61,0,0,0-5.6528,9.974,6.4785,6.4785,0,0,0,4.0342,3.0078,6.6005,6.6005,0,0,0,7.2224-9.7819,6.4856,6.4856,0,0,0-4.03-3.0072A6.5571,6.5571,0,0,0,22.82,8.2623Z" fill="#fff"/><path d="M23.0282,19.2568a.811.811,0,1,1,1.5345-.5257l1.6319,4.7626a.8112.8112,0,0,1-1.1251.9905l-1.6453-.8084-1.179,1.1291a.8067.8067,0,0,1-.5606.2257.823.823,0,0,1-.3056-.0594.81.81,0,0,1-.5044-.7237l-.1853-5.39a.81.81,0,0,1,.7823-.8377.7822.7822,0,0,1,.8377.7823" fill="#fff" stroke="#fff" stroke-linecap="round" stroke-linejoin="round" stroke-width="2"/><path d="M21.7312,19.085a.8106.8106,0,0,1,.2035,1.1283l-2.582,3.72a.81.81,0,0,1-.6659.3484.8022.8022,0,0,1-.2154-.0293.8108.8108,0,0,1-.5938-.7261l-.13-1.9066-1.217-.5091a.8115.8115,0,0,1-.2082-1.37l2.852-2.39a.811.811,0,0,1,1.042,1.2431" fill="#fff" stroke="#fff" stroke-linecap="round" stroke-linejoin="round" stroke-width="2"/></g><path d="M21.4731,7.6937A.8106.8106,0,0,1,21.39,6.0768l1.9818-.2074a2.842,2.842,0,0,0,.0435-1.7118,1.0107,1.0107,0,0,0-.5028-.5313L4.96,4.0823H4.9391a.8109.8109,0,0,1-.0206-1.6216L23.0551,2a.8708.8708,0,0,1,.3207.0578,2.6885,2.6885,0,0,1,1.54,1.4846,4.8794,4.8794,0,0,1-.2051,3.4031.8089.8089,0,0,1-.66.483l-2.4933.26A.77.77,0,0,1,21.4731,7.6937Z" fill="#d0021b"/><path d="M9.054,31.0774a.8109.8109,0,0,1-.422-1.5028,3.4423,3.4423,0,0,0,1.49-2.8029c0-.98-2.0032-5.0959-3.6129-8.404-1.9676-4.0428-4.0017-8.2235-4.4079-10.332-.31-1.6113.0792-3.9185,1.41-5.0191a2.44,2.44,0,0,1,2.5559-.3737A3.0675,3.0675,0,0,1,7.8656,4.4014a4.8223,4.8223,0,0,1,.019,2.9138l13.3613-1.179a.8084.8084,0,0,1,.833.53c.0055.015.5661,1.5527,1.4062,3.6279a.8106.8106,0,0,1-1.5028.6081c-.5416-1.3373-.9683-2.4553-1.21-3.0967L6.761,9.0421a.8.8,0,0,1-.74-.3492.8114.8114,0,0,1-.0586-.8163A4.374,4.374,0,0,0,6.3509,4.981a1.4316,1.4316,0,0,0-.882-.8306.8291.8291,0,0,0-.9232.1148A4.1031,4.1031,0,0,0,3.6944,7.73c.365,1.8971,2.4411,6.164,4.2732,9.9282,2.3413,4.8109,3.776,7.8252,3.776,9.1134a4.8691,4.8691,0,0,1-.5392,2.2518l15.1991-2.95c.4774-.5147,1.9628-2.5187-.0435-5.8782-.4291-.7181-.882-1.5519-1.3452-2.4783a.8109.8109,0,0,1,1.4505-.7253c.445.89.8781,1.6881,1.2866,2.3722,3.0294,5.0722-.4,8.05-.4347,8.0793a.8082.8082,0,0,1-.3682.1758l-17.74,3.4435A.7928.7928,0,0,1,9.054,31.0774Z" fill="#d0021b"/><path d="M22.7827,19.4389a4.5577,4.5577,0,0,1-1.0982-.1354h0a4.4925,4.4925,0,0,1-2.7974-2.0863,4.6021,4.6021,0,0,1,5.02-6.822,4.5,4.5,0,0,1,2.7958,2.0871,4.6242,4.6242,0,0,1-1.57,6.2923A4.5153,4.5153,0,0,1,22.7827,19.4389Z" fill="#d0021b"/><path d="M23.0282,19.2568a.811.811,0,1,1,1.5345-.5257l1.6319,4.7626a.8112.8112,0,0,1-1.1251.9905l-1.6453-.8084-1.179,1.1291a.8067.8067,0,0,1-.5606.2257.823.823,0,0,1-.3056-.0594.81.81,0,0,1-.5044-.7237l-.1853-5.39a.81.81,0,0,1,.7823-.8377.7822.7822,0,0,1,.8377.7823" fill="#d0021b"/><path d="M21.7312,19.085a.8106.8106,0,0,1,.2035,1.1283l-2.582,3.72a.81.81,0,0,1-.6659.3484.8022.8022,0,0,1-.2154-.0293.8108.8108,0,0,1-.5938-.7261l-.13-1.9066-1.217-.5091a.8115.8115,0,0,1-.2082-1.37l2.852-2.39a.811.811,0,0,1,1.042,1.2431" fill="#d0021b"/></g></g></svg>