<svg xmlns="http://www.w3.org/2000/svg" viewBox="0 0 38.82 41.09"><defs><style>.a{opacity:0.8;}.b,.c{fill:#fff;}.b,.d{fill-rule:evenodd;}.d{fill:#d0021b;}</style></defs><title>Asset 32</title><g class="a"><path class="b" d="M28,39.59a1.5,1.5,0,0,1-.67-.16l-7.84-3.92a1.5,1.5,0,0,1-.83-1.34v-5.1a1.5,1.5,0,0,1,.22-.78,1.49,1.49,0,0,1-.22-.78V19.08l-2.07,2a3.84,3.84,0,0,1,.09.72,3.37,3.37,0,0,1-.74,2.2l-.34.44a2.18,2.18,0,0,1-.75,2,2.41,2.41,0,0,1-1.73.9,2,2,0,0,1-.88-.24c0,.27,0,.51,0,.74a4.74,4.74,0,0,1-1.12,2.8C10.4,31.44,9.71,32.22,9,33a2.19,2.19,0,0,1-1.65.78h-.1a2,2,0,0,1-.44-.07c-1.84-.43-4.62-2.59-5.17-4-.6-1.6,1-3.3,2-4.18l.54-.54C5.2,23.9,6.3,22.81,7.39,21.74a1.28,1.28,0,0,0,.39-1.21,1.43,1.43,0,0,1-.72-.42L5.41,18.29a1.5,1.5,0,0,1,.22-2.21,10.13,10.13,0,0,1,1.31-.82,4.78,4.78,0,0,0,1.12-.74,24.37,24.37,0,0,1,2.41-2.17,4.93,4.93,0,0,0,.87-1.05,10.83,10.83,0,0,1,.88-1.15,1.6,1.6,0,0,1,1.14-.52h0a1.53,1.53,0,0,1,1.14.46l.89,1,9.23-8.3.13-.1.64-.58a2.31,2.31,0,0,1,1.55-.6h.12a2.21,2.21,0,0,1,1.54.73l.41.46a2.21,2.21,0,0,1,.56,1.67,2.31,2.31,0,0,1-.76,1.53l-2.22,2L22.3,11.75a9.52,9.52,0,0,1,.17,1.51A4.71,4.71,0,0,1,21,16.84l7,3.49,7.17-3.59a1.5,1.5,0,0,1,2.17,1.34V27.5a1.49,1.49,0,0,1-.22.78,1.5,1.5,0,0,1,.22.78v5.1a1.5,1.5,0,0,1-.83,1.34l-7.84,3.92A1.5,1.5,0,0,1,28,39.59Z"/><path class="c" d="M26.94,3h0a.72.72,0,0,1,.5.23l.42.46a.72.72,0,0,1,.18.55.81.81,0,0,1-.27.53l-.77.7h0L25.59,6.78,20.86,11a.37.37,0,0,0-.14.39l.08.43A9,9,0,0,1,21,13.28a3.22,3.22,0,0,1-.75,2.2,3.41,3.41,0,0,1-.34.35l-.35.32-4.72,4.52a2.61,2.61,0,0,1,.33,1.18,1.88,1.88,0,0,1-.43,1.24c-.24.32-.49.64-.75,1a.19.19,0,0,0,0,.25c.27.55.25.69-.2,1.15-.29.29-.47.45-.65.45h0c-.2,0-.35-.19-.6-.55l-.12-.2a3,3,0,0,0-.2-.29.61.61,0,0,0-.47-.26.64.64,0,0,0-.46.23,2.12,2.12,0,0,0-.46,1.32c0,.3,0,.6,0,.89s0,.51,0,.76a3.27,3.27,0,0,1-.77,1.93c-.64.75-1.33,1.53-2,2.29a.75.75,0,0,1-.54.29h0l-.12,0A8.06,8.06,0,0,1,3,29.14c-.32-.86,1.47-2.46,1.54-2.53h0l.6-.6C6.25,25,7.34,23.88,8.43,22.82a2.82,2.82,0,0,0,.8-2.71A2,2,0,0,1,9.95,18c.11-.09.22-.19.33-.29l.13-.12.13-.12,0,0L10,16.87a3.78,3.78,0,0,0-1,1.19,5.09,5.09,0,0,1-.78,1l-.06.05L6.53,17.29l.07-.05a8.8,8.8,0,0,1,1.09-.67,5.86,5.86,0,0,0,1.45-1,22.68,22.68,0,0,1,2.26-2,6,6,0,0,0,1.18-1.37,9.74,9.74,0,0,1,.76-1l.06-.07L15,12.94,15,13l-.15.11a3.86,3.86,0,0,1-.32.22c-.19.11-.38.21-.57.3a4.37,4.37,0,0,0-1.24.83l-.13.13,0,0,.53.59L25.63,3.9h0l.77-.69A.8.8,0,0,1,26.94,3m8.88,15.09V27.5L28,31.42,20.13,27.5V18.09L28,22l7.84-3.92m0,11v5.1L28,38.09l-7.84-3.92v-5.1L28,33l7.84-3.92M26.94,0a3.8,3.8,0,0,0-2.55,1l-.59.54-.17.15L15.5,9a3,3,0,0,0-2.1-.87h0a3,3,0,0,0-2.22,1l-.06.07a12.49,12.49,0,0,0-1,1.29,4.6,4.6,0,0,1-.57.73A25.7,25.7,0,0,0,7,13.48a4.6,4.6,0,0,1-.75.46,11.49,11.49,0,0,0-1.45.91l-.06,0A3,3,0,0,0,4.3,19.3l1.61,1.79L3.1,23.87l-.56.56C1,25.81-.61,27.91.23,30.19c.7,1.9,3.84,4.39,6.23,5a3.53,3.53,0,0,0,.7.11h.18A3.72,3.72,0,0,0,10.1,34c.72-.79,1.43-1.59,2.09-2.37a6.21,6.21,0,0,0,1.36-2.81,4,4,0,0,0,2.34-1.33,3.81,3.81,0,0,0,1.22-2.63l0,0V27.5a3,3,0,0,0,.1.78,3,3,0,0,0-.1.78v5.1a3,3,0,0,0,1.66,2.68l7.84,3.92a3,3,0,0,0,2.68,0l7.84-3.92a3,3,0,0,0,1.66-2.68v-5.1a3,3,0,0,0-.1-.78,3,3,0,0,0,.1-.78V18.09a3,3,0,0,0-4.34-2.68L28,18.66,23.26,16.3A6.35,6.35,0,0,0,24,13.23a8.62,8.62,0,0,0-.07-.91l3.18-2.86L27.59,9,29,7.7l.77-.7a3.8,3.8,0,0,0,1.24-2.5,3.74,3.74,0,0,0-.95-2.81l-.41-.46A3.7,3.7,0,0,0,27.13,0Z"/></g><path class="d" d="M27.81,4.77l-.77.7h0L25.59,6.78,20.86,11a.37.37,0,0,0-.14.39l.08.43A9,9,0,0,1,21,13.28a3.22,3.22,0,0,1-.75,2.2,3.4,3.4,0,0,1-.34.35l-.35.32-4.72,4.52a2.61,2.61,0,0,1,.33,1.18,1.88,1.88,0,0,1-.43,1.24c-.24.32-.49.64-.75,1a.19.19,0,0,0,0,.25c.27.55.25.69-.2,1.15s-.48.46-.67.45-.35-.19-.6-.55l-.12-.2a3,3,0,0,0-.2-.29.56.56,0,0,0-.93,0,2.12,2.12,0,0,0-.46,1.32c0,.3,0,.6,0,.89s0,.51,0,.76a3.27,3.27,0,0,1-.77,1.93c-.64.75-1.33,1.53-2,2.29a.73.73,0,0,1-.57.29l-.12,0A8.06,8.06,0,0,1,3,29.14c-.32-.86,1.47-2.46,1.54-2.53h0l.6-.6C6.25,25,7.35,23.88,8.43,22.82a2.82,2.82,0,0,0,.8-2.71A2,2,0,0,1,9.95,18c.11-.09.22-.19.33-.29l.13-.12.13-.12,0,0L10,16.87a3.78,3.78,0,0,0-1,1.19,5.09,5.09,0,0,1-.78,1l-.06.05L6.53,17.29l.07-.05a8.8,8.8,0,0,1,1.09-.67,5.86,5.86,0,0,0,1.45-1,22.68,22.68,0,0,1,2.26-2,6,6,0,0,0,1.18-1.37,9.74,9.74,0,0,1,.76-1l.06-.07L15,12.94,15,13l-.15.11a3.87,3.87,0,0,1-.32.22l-.57.3a4.37,4.37,0,0,0-1.24.83l-.13.13,0,0,.53.59L25.63,3.9h0l.77-.69A.8.8,0,0,1,27,3a.72.72,0,0,1,.5.23l.41.46a.72.72,0,0,1,.18.55A.81.81,0,0,1,27.81,4.77ZM28,22l-7.84-3.92V27.5L28,31.42l7.84-3.92V18.09Zm7.84,7.06v5.1L28,38.09l-7.84-3.92v-5.1L28,33Z"/></svg>