<?xml version="1.0" encoding="utf-8"?>
<!-- Generator: Adobe Illustrator 20.1.0, SVG Export Plug-In . SVG Version: 6.00 Build 0)  -->
<svg version="1.1" id="Layer_1" xmlns="http://www.w3.org/2000/svg" xmlns:xlink="http://www.w3.org/1999/xlink" x="0px" y="0px"
	 viewBox="0 0 38 40.3" style="enable-background:new 0 0 38 40.3;" xml:space="preserve">
<style type="text/css">
	.st0{opacity:0.8;}
	.st1{fill:#FFAB24;}
	.st2{fill:#FFFFFF;}
</style>
<title>Asset 5</title>
<g class="st0">
	<path class="st1" d="M11.4,34.5l-0.2-0.5c-0.3-0.9-0.6-1.9-0.8-2.8c2.2,0,3.5-1.1,3.9-2.1c0.3-0.9,0.2-1.9-0.4-2.6l2.3-0.8
		c0.2-0.1,0.4-0.3,0.3-0.6l-1.4-3.8l5.4-2c0.2-0.1,0.4-0.3,0.3-0.6L20,16.3c-0.1-0.2-0.3-0.4-0.6-0.3c0,0,0,0,0,0L7.7,20.3
		c-0.2,0.1-0.4,0.3-0.3,0.6l0.3,0.8c-1.1,0.4-2.6-1.2-3.1-1.9c-0.1-0.2-0.3-0.2-0.5-0.2L3.3,20C3,20,2.9,20.3,3,20.5
		c0.5,1.4,2,3.7,4.1,3.9C2,27.6,3.6,34.1,4.7,37c0.1,0.2,0.3,0.4,0.6,0.3l5.9-2.2C11.4,35,11.5,34.8,11.4,34.5
		C11.4,34.6,11.4,34.6,11.4,34.5z M13.5,28.8c-0.3,0.8-1.3,1.6-3.2,1.6c-0.2-1.3,0.1-2.5,0.7-2.8l2-0.7
		C13.6,27.3,13.8,28.1,13.5,28.8z M34.4,23.7c-0.3,0.4-0.9,0.6-1.4,0.4l-8.2-2.4c-0.7-0.2-1.1-1-0.9-1.7c0.2-0.7,1-1.1,1.7-0.9
		l8.2,2.4c0.7,0.2,1.1,1,0.9,1.7C34.6,23.4,34.5,23.5,34.4,23.7z M25.3,16.8c-0.7-0.1-1.3-0.8-1.2-1.5c0.1-0.5,0.4-1,1-1.1l8.1-2.6
		c0.7-0.2,1.5,0.1,1.7,0.9c0.2,0.7-0.1,1.5-0.9,1.7c0,0,0,0,0,0l-8.1,2.6C25.7,16.8,25.5,16.8,25.3,16.8L25.3,16.8z M22,13.1
		c-0.7-0.1-1.3-0.8-1.2-1.5c0-0.2,0.1-0.3,0.2-0.5l4.2-7.4c0.3-0.7,1.1-1,1.8-0.8s1,1.1,0.8,1.8c0,0.1-0.1,0.2-0.2,0.3l-4.2,7.4
		C23.1,12.9,22.6,13.2,22,13.1z"/>
	<path class="st2" d="M26.4,3c0.8,0,1.4,0.6,1.3,1.4c0,0.2-0.1,0.4-0.2,0.6l-4.2,7.4c-0.2,0.4-0.7,0.7-1.2,0.7H22
		c-0.7-0.1-1.3-0.8-1.2-1.5c0-0.2,0.1-0.3,0.2-0.5l4.2-7.4C25.4,3.3,25.9,3,26.4,3 M33.6,11.5c0.8,0,1.4,0.6,1.4,1.3
		c0,0.6-0.4,1.1-1,1.3l-8.1,2.6c-0.1,0-0.3,0.1-0.4,0.1h-0.2c-0.7-0.1-1.3-0.8-1.2-1.5c0.1-0.5,0.4-1,1-1.1l8.1-2.6
		C33.4,11.5,33.5,11.5,33.6,11.5 M19.5,16c0.2,0,0.4,0.1,0.4,0.3l0.9,2.5c0.1,0.2,0,0.5-0.3,0.6l-5.4,2l1.4,3.8
		c0.1,0.2,0,0.5-0.3,0.6L14,26.5c0.6,0.7,0.7,1.7,0.4,2.6c-0.4,1-1.6,2.1-3.9,2.1c0.2,1,0.5,1.9,0.8,2.8l0.2,0.5
		c0.1,0.2,0,0.5-0.3,0.6c0,0,0,0,0,0l-5.9,2.1H5.1c-0.2,0-0.3-0.1-0.4-0.3c-1-2.9-2.7-9.5,2.5-12.6C5,24.3,3.5,22,3,20.5
		c-0.1-0.2,0.1-0.5,0.3-0.5l0.8-0.3h0.2c0.1,0,0.3,0.1,0.4,0.2c0.4,0.6,1.7,1.9,2.7,1.9c0.1,0,0.3,0,0.4-0.1l-0.3-0.8
		c-0.1-0.2,0-0.5,0.3-0.6L19.4,16H19.5 M10.4,30.4c1.8,0,2.8-0.8,3.1-1.6c0.2-0.7,0.1-1.4-0.5-1.9l-2,0.7
		C10.4,27.8,10.2,29,10.4,30.4L10.4,30.4 M25.2,19c0.1,0,0.3,0,0.4,0.1l8.2,2.4c0.7,0.2,1.1,1,0.9,1.7c-0.1,0.2-0.1,0.3-0.3,0.5
		c-0.3,0.4-0.9,0.6-1.4,0.4l-8.2-2.4c-0.7-0.2-1.1-1-0.9-1.7C24.1,19.4,24.6,19,25.2,19 M26.4,0L26.4,0c-1.6,0-3,0.8-3.8,2.2
		l-4.2,7.4c-0.6,1-0.7,2.2-0.4,3.4c0,0.1,0,0.2,0.1,0.3L6.7,17.5H6.6c-0.9-0.8-2.3-1.1-3.4-0.6l-0.8,0.3c-1.8,0.6-2.7,2.6-2.1,4.4
		c0,0,0,0,0,0C0.7,22.8,1.4,24,2.3,25C0.2,28.3,0,32.9,1.9,38c0.7,1.8,2.6,2.7,4.4,2.1l5.9-2.2c1.8-0.6,2.7-2.6,2.1-4.4c0,0,0,0,0,0
		l-0.1-0.1c1.4-0.7,2.4-1.8,3-3.2c0.2-0.6,0.4-1.2,0.4-1.8c1.6-0.7,2.4-2.6,1.8-4.3l-0.4-1l2.3-0.8l0.1,0.1c0.5,1,1.5,1.8,2.6,2.1
		l8.1,2.5c2.3,0.7,4.7-0.6,5.4-2.9s-0.6-4.7-2.9-5.4l-2.4-0.7L35,17c2.3-0.7,3.6-3.2,2.8-5.5S34.6,8,32.3,8.7L28.2,10l2-3.5
		c1.2-2.1,0.5-4.8-1.6-5.9C27.9,0.2,27.1,0,26.4,0z"/>
</g>
<path class="st1" d="M11.4,34.5l-0.2-0.5c-0.3-0.9-0.6-1.9-0.8-2.8c2.2,0,3.5-1.1,3.9-2.1c0.3-0.9,0.2-1.9-0.4-2.6l2.3-0.8
	c0.2-0.1,0.4-0.3,0.3-0.6l-1.4-3.8l5.4-2c0.2-0.1,0.4-0.3,0.3-0.6L20,16.3c-0.1-0.2-0.3-0.4-0.6-0.3c0,0,0,0,0,0L7.7,20.3
	c-0.2,0.1-0.4,0.3-0.3,0.6l0.3,0.8c-1.1,0.4-2.6-1.2-3.1-1.9c-0.1-0.2-0.3-0.2-0.5-0.2L3.3,20C3,20,2.9,20.3,3,20.5
	c0.5,1.4,2,3.7,4.1,3.9C2,27.6,3.6,34.1,4.7,37c0.1,0.2,0.3,0.4,0.6,0.3l5.9-2.2C11.4,35,11.5,34.8,11.4,34.5
	C11.4,34.6,11.4,34.6,11.4,34.5z M13.5,28.8c-0.3,0.8-1.3,1.6-3.2,1.6c-0.2-1.3,0.1-2.5,0.7-2.8l2-0.7
	C13.6,27.3,13.8,28.1,13.5,28.8z M34.4,23.7c-0.3,0.4-0.9,0.6-1.4,0.4l-8.2-2.4c-0.7-0.2-1.1-1-0.9-1.7c0.2-0.7,1-1.1,1.7-0.9
	l8.2,2.4c0.7,0.2,1.1,1,0.9,1.7C34.6,23.4,34.5,23.5,34.4,23.7z M25.3,16.8c-0.7-0.1-1.3-0.8-1.2-1.5c0.1-0.5,0.4-1,1-1.1l8.1-2.6
	c0.7-0.2,1.5,0.1,1.7,0.9c0.2,0.7-0.1,1.5-0.9,1.7c0,0,0,0,0,0l-8.1,2.6C25.7,16.8,25.5,16.8,25.3,16.8L25.3,16.8z M22,13.1
	c-0.7-0.1-1.3-0.8-1.2-1.5c0-0.2,0.1-0.3,0.2-0.5l4.2-7.4c0.3-0.7,1.1-1,1.8-0.8s1,1.1,0.8,1.8c0,0.1-0.1,0.2-0.2,0.3l-4.2,7.4
	C23.1,12.9,22.6,13.2,22,13.1z"/>
</svg>
