<svg xmlns="http://www.w3.org/2000/svg" viewBox="0 0 38 40.3"><defs><style>.a{opacity:0.8;}.b{fill:#ffab24;}.c{fill:#fff;}.d{fill:#4f8317;}</style></defs><title>Asset 5</title><g class="a"><path class="b" d="M11.44,34.55l-.18-.49a19.59,19.59,0,0,1-.79-2.83c2.25,0,3.49-1.09,3.9-2.12a2.67,2.67,0,0,0-.41-2.6l2.32-.84a.45.45,0,0,0,.27-.57l-1.37-3.77,5.45-2a.45.45,0,0,0,.27-.57L20,16.27A.45.45,0,0,0,19.4,16L7.67,20.27a.45.45,0,0,0-.27.57l.3.84c-1.11.4-2.59-1.21-3.07-1.86a.45.45,0,0,0-.51-.16l-.84.3a.45.45,0,0,0-.27.57c.52,1.43,2,3.72,4.13,3.87C2,27.56,3.64,34.13,4.69,37a.45.45,0,0,0,.57.27l5.92-2.15A.44.44,0,0,0,11.44,34.55Zm2.1-5.76c-.31.78-1.31,1.59-3.21,1.56-.17-1.34.06-2.53.71-2.77l2-.74A1.83,1.83,0,0,1,13.54,28.79Zm20.85-5.12A1.36,1.36,0,0,1,33,24.1l-8.17-2.44a1.36,1.36,0,0,1,.78-2.61l8.17,2.44a1.36,1.36,0,0,1,.91,1.69A1.34,1.34,0,0,1,34.39,23.67Zm-9.07-6.89a1.36,1.36,0,0,1-.23-2.65l8.12-2.6a1.36,1.36,0,1,1,.83,2.59l-8.12,2.6A1.36,1.36,0,0,1,25.33,16.79ZM22,13.14a1.36,1.36,0,0,1-1-2l4.19-7.43A1.36,1.36,0,1,1,27.56,5l-4.19,7.43A1.36,1.36,0,0,1,22,13.14Z"/><path class="c" d="M26.38,3a1.36,1.36,0,0,1,1.18,2l-4.19,7.43a1.36,1.36,0,0,1-1.19.69H22a1.36,1.36,0,0,1-1-2l4.19-7.43A1.36,1.36,0,0,1,26.38,3m7.26,8.48a1.36,1.36,0,0,1,.42,2.66l-8.12,2.6a1.37,1.37,0,0,1-.41.06h-.19a1.36,1.36,0,0,1-.23-2.65l8.12-2.6a1.37,1.37,0,0,1,.41-.06M19.55,16a.45.45,0,0,1,.42.29l.91,2.51a.45.45,0,0,1-.27.57l-5.45,2,1.37,3.77a.45.45,0,0,1-.27.57L14,26.52a2.67,2.67,0,0,1,.41,2.6c-.41,1-1.65,2.1-3.9,2.12a19.59,19.59,0,0,0,.79,2.83l.18.49a.44.44,0,0,1-.27.57L5.26,37.27l-.15,0A.45.45,0,0,1,4.69,37c-1-2.88-2.69-9.45,2.46-12.6C5,24.26,3.55,22,3,20.54A.45.45,0,0,1,3.29,20l.84-.3.15,0a.45.45,0,0,1,.36.18c.42.58,1.65,1.93,2.69,1.93a1.09,1.09,0,0,0,.37-.06l-.3-.84a.45.45,0,0,1,.27-.57L19.4,16l.15,0M10.44,30.35c1.83,0,2.81-.8,3.1-1.56a1.83,1.83,0,0,0-.48-1.94l-2,.74c-.65.23-.88,1.43-.71,2.77h.11M25.18,19a1.35,1.35,0,0,1,.39.06l8.17,2.44a1.36,1.36,0,0,1,.91,1.69,1.34,1.34,0,0,1-.26.48A1.36,1.36,0,0,1,33,24.1l-8.17-2.44A1.36,1.36,0,0,1,25.18,19m1.2-19h0a4.37,4.37,0,0,0-3.8,2.22L18.39,9.64A4.33,4.33,0,0,0,18,13q0,.17.11.33L6.65,17.45l-.1,0a3.44,3.44,0,0,0-3.44-.65l-.84.3A3.45,3.45,0,0,0,.21,21.56,10.51,10.51,0,0,0,2.31,25C.2,28.31,0,32.89,1.87,38a3.45,3.45,0,0,0,4.42,2.06l5.92-2.15a3.44,3.44,0,0,0,2.06-4.42l-.05-.14a6.17,6.17,0,0,0,3-3.17,5.49,5.49,0,0,0,.38-1.82,3.45,3.45,0,0,0,1.82-4.32l-.35-1,2.26-.82.06.12a4.33,4.33,0,0,0,2.59,2.11L32.1,27a4.36,4.36,0,1,0,2.5-8.36l-2.44-.73L35,17a4.36,4.36,0,0,0-2.65-8.31L28.21,10l2-3.49A4.36,4.36,0,0,0,26.38,0Z"/></g><path class="d" d="M11.44,34.55l-.18-.49a19.59,19.59,0,0,1-.79-2.83c2.25,0,3.49-1.09,3.9-2.12a2.67,2.67,0,0,0-.41-2.6l2.32-.84a.45.45,0,0,0,.27-.57l-1.37-3.77,5.45-2a.45.45,0,0,0,.27-.57L20,16.27A.45.45,0,0,0,19.4,16L7.67,20.27a.45.45,0,0,0-.27.57l.3.84c-1.11.4-2.59-1.21-3.07-1.86a.45.45,0,0,0-.51-.16l-.84.3a.45.45,0,0,0-.27.57c.52,1.43,2,3.72,4.13,3.87C2,27.56,3.64,34.13,4.69,37a.45.45,0,0,0,.57.27l5.92-2.15A.44.44,0,0,0,11.44,34.55Zm2.1-5.76c-.31.78-1.31,1.59-3.21,1.56-.17-1.34.06-2.53.71-2.77l2-.74A1.83,1.83,0,0,1,13.54,28.79Zm20.85-5.12A1.36,1.36,0,0,1,33,24.1l-8.17-2.44a1.36,1.36,0,0,1,.78-2.61l8.17,2.44a1.36,1.36,0,0,1,.91,1.69A1.34,1.34,0,0,1,34.39,23.67Zm-9.07-6.89a1.36,1.36,0,0,1-.23-2.65l8.12-2.6a1.36,1.36,0,1,1,.83,2.59l-8.12,2.6A1.36,1.36,0,0,1,25.33,16.79ZM22,13.14a1.36,1.36,0,0,1-1-2l4.19-7.43A1.36,1.36,0,1,1,27.56,5l-4.19,7.43A1.36,1.36,0,0,1,22,13.14Z"/></svg>