<svg xmlns="http://www.w3.org/2000/svg" viewBox="0 0 43 40.56"><defs><style>.a{opacity:0.8;}.b{fill:#fff;}.c{fill:#ffab24;}</style></defs><title>Asset 156</title><g class="a"><path class="b" d="M17.52,30A2.63,2.63,0,0,1,16,29.55a2.65,2.65,0,0,1-4.18-2.16v-13H8.88a2.46,2.46,0,0,1-2.4-1.91H3A1.5,1.5,0,0,1,1.5,11V9.83a1.5,1.5,0,0,1,.65-1.23,1.5,1.5,0,0,1,1.23-.65h.38a1.49,1.49,0,0,1,1,.38H9.26a1.5,1.5,0,0,1,1.06.44l.38.38a1.51,1.51,0,0,1,.25.32h1.43a3.79,3.79,0,1,1,7.19.07,3.61,3.61,0,0,1,2.89,3.53v5.08a2.46,2.46,0,0,1-2.29,2.45v6.78A2.65,2.65,0,0,1,17.52,30Z"/><path class="b" d="M16,6A2.29,2.29,0,1,1,13.69,8.3,2.29,2.29,0,0,1,16,6M3.77,9.45v.38H9.26l.38.38V11h9.22a2.1,2.1,0,0,1,2.1,2.1v5.08a1,1,0,0,1-1.91,0V13.91a.19.19,0,1,0-.38,0V27.39a1.15,1.15,0,1,1-2.29,0V20.71a.38.38,0,1,0-.76,0v6.68a1.15,1.15,0,1,1-2.29,0V13.06h0a.19.19,0,0,0-.19-.17H8.87A.95.95,0,0,1,8,11.61L7.34,11H3V9.83h.38V9.45h.38m4.34,1.91h0a1,1,0,0,1,.38-.3V11H7.73l.38.38M16,3A5.3,5.3,0,0,0,10.8,7.25a3,3,0,0,0-1.54-.43h-4a3,3,0,0,0-1.47-.38H3.38a3,3,0,0,0-2.3,1.08A3,3,0,0,0,0,9.83V11a3,3,0,0,0,3,3H5.49a4,4,0,0,0,3.39,1.91h1.44v11.5A4.15,4.15,0,0,0,16,31.25a4.15,4.15,0,0,0,5.68-3.86V21.75A4,4,0,0,0,24,18.16V13.08a5.07,5.07,0,0,0-1.49-3.61,5.12,5.12,0,0,0-1.19-.89q0-.14,0-.28A5.3,5.3,0,0,0,16,3Z"/><path class="b" d="M36.56,27A2.63,2.63,0,0,1,35,26.55a2.65,2.65,0,0,1-4.18-2.16v-13H27.91a2.46,2.46,0,0,1-2.4-1.91H22A1.5,1.5,0,0,1,20.54,8V6.82a1.5,1.5,0,0,1,.65-1.24,1.5,1.5,0,0,1,1.23-.65h.38a1.5,1.5,0,0,1,1,.38H28.3a1.5,1.5,0,0,1,1.06.44l.38.38a1.5,1.5,0,0,1,.25.33h1.43a3.8,3.8,0,1,1,7.19.07,3.61,3.61,0,0,1,2.89,3.53v5.08a2.46,2.46,0,0,1-2.29,2.45v6.78A2.65,2.65,0,0,1,36.56,27Z"/><path class="b" d="M35,3a2.29,2.29,0,1,1-2.29,2.29A2.29,2.29,0,0,1,35,3M22.81,6.44v.38H28.3l.38.38V8H37.9a2.1,2.1,0,0,1,2.1,2.1v5.08a1,1,0,0,1-1.91,0V10.91a.19.19,0,0,0-.38,0V24.39a1.15,1.15,0,1,1-2.29,0V17.71a.38.38,0,1,0-.76,0v6.68a1.15,1.15,0,1,1-2.29,0V10.05h0a.19.19,0,0,0-.19-.17H27.91A.95.95,0,0,1,27,8.61L26.38,8H22V6.82h.38V6.44h.38m4.34,1.91h0a1,1,0,0,1,.38-.3V8h-.76l.38.38M35,0a5.3,5.3,0,0,0-5.19,4.25,3,3,0,0,0-1.54-.43h-4a3,3,0,0,0-1.47-.38h-.38a3,3,0,0,0-2.3,1.08A3,3,0,0,0,19,6.82V8a3,3,0,0,0,3,3h2.49a4,4,0,0,0,3.39,1.91h1.44v11.5A4.15,4.15,0,0,0,35,28.24a4.15,4.15,0,0,0,5.68-3.85V18.74A4,4,0,0,0,43,15.15V10.08a5.07,5.07,0,0,0-1.49-3.61,5.12,5.12,0,0,0-1.19-.89q0-.14,0-.28A5.3,5.3,0,0,0,35,0Z"/><path class="b" d="M26.53,39.06A2.63,2.63,0,0,1,25,38.57a2.65,2.65,0,0,1-4.18-2.16v-13H17.89a2.46,2.46,0,0,1-2.4-1.91H12a1.5,1.5,0,0,1-1.5-1.5V18.85a1.5,1.5,0,0,1,.65-1.23A1.5,1.5,0,0,1,12.4,17h.38a1.49,1.49,0,0,1,1,.38h4.49a1.5,1.5,0,0,1,1.06.44l.38.38a1.49,1.49,0,0,1,.25.33H21.4a3.76,3.76,0,0,1-.19-1.18,3.79,3.79,0,1,1,7.38,1.25,3.61,3.61,0,0,1,2.89,3.53v5.08a2.46,2.46,0,0,1-2.29,2.45v6.78A2.65,2.65,0,0,1,26.53,39.06Z"/><path class="b" d="M25,15a2.29,2.29,0,1,1-2.29,2.29A2.29,2.29,0,0,1,25,15M12.78,18.47v.38h5.49l.38.38V20h9.22A2.1,2.1,0,0,1,30,22.1v5.08a1,1,0,0,1-1.91,0V22.94a.19.19,0,0,0-.38,0V36.41a1.15,1.15,0,1,1-2.29,0V29.74a.38.38,0,1,0-.76,0v6.68a1.15,1.15,0,1,1-2.29,0V22.08h0a.19.19,0,0,0-.19-.17H17.89a.95.95,0,0,1-.9-1.28L16.36,20H12V18.85h.38v-.38h.38m4.34,1.91h0a1,1,0,0,1,.38-.3V20h-.76l.38.38M25,12a5.3,5.3,0,0,0-5.19,4.25,3,3,0,0,0-1.54-.43h-4a3,3,0,0,0-1.47-.38H12.4a3,3,0,0,0-2.3,1.08A3,3,0,0,0,9,18.85V20a3,3,0,0,0,3,3H14.5a4,4,0,0,0,3.39,1.91h1.44v11.5A4.15,4.15,0,0,0,25,40.27a4.15,4.15,0,0,0,5.68-3.85V30.77A4,4,0,0,0,33,27.18V22.1a5.07,5.07,0,0,0-1.49-3.61,5.12,5.12,0,0,0-1.19-.89q0-.14,0-.28A5.3,5.3,0,0,0,25,12Z"/></g><path class="c" d="M16,6A2.29,2.29,0,1,1,13.69,8.3,2.29,2.29,0,0,1,16,6Zm5,7.08v5.08a1,1,0,1,1-1.91,0V13.91a.19.19,0,0,0-.38,0V27.39a1.15,1.15,0,1,1-2.29,0V20.71a.38.38,0,0,0-.76,0v6.68a1.15,1.15,0,1,1-2.29,0V13.06h0a.19.19,0,0,0-.19-.17H8.87A.95.95,0,0,1,8,11.61L7.34,11H3V9.83h.38V9.45h.38v.38H9.26l.38.38V11h9.22A2.1,2.1,0,0,1,21,13.08ZM8.11,11.36a1,1,0,0,1,.38-.3V11H7.73l.38.38Z"/><path class="c" d="M35,3a2.29,2.29,0,1,1-2.29,2.29A2.29,2.29,0,0,1,35,3Zm5,7.08v5.08a1,1,0,0,1-1.91,0V10.91a.19.19,0,0,0-.38,0V24.39a1.15,1.15,0,1,1-2.29,0V17.71a.38.38,0,0,0-.76,0v6.68a1.15,1.15,0,1,1-2.29,0V10.05h0a.19.19,0,0,0-.19-.17H27.91A.95.95,0,0,1,27,8.61L26.38,8H22V6.82h.38V6.44h.38v.38H28.3l.38.38V8H37.9A2.1,2.1,0,0,1,40,10.08ZM27.15,8.35a1,1,0,0,1,.38-.3V8h-.76l.38.38Z"/><path class="c" d="M25,15a2.29,2.29,0,1,1-2.29,2.29A2.29,2.29,0,0,1,25,15Zm5,7.08v5.08a1,1,0,1,1-1.91,0V22.94a.19.19,0,0,0-.38,0V36.41a1.15,1.15,0,0,1-2.29,0V29.74a.38.38,0,1,0-.76,0v6.68a1.15,1.15,0,1,1-2.29,0V22.08h0a.19.19,0,0,0-.19-.17H17.89a.95.95,0,0,1-.9-1.28L16.36,20H12V18.85h.38v-.38h.38v.38h5.49l.38.38V20h9.22A2.1,2.1,0,0,1,30,22.1ZM17.13,20.38a1,1,0,0,1,.38-.3V20h-.76l.38.38Z"/></svg>