<?xml version="1.0" encoding="utf-8"?>
<!-- Generator: Adobe Illustrator 20.1.0, SVG Export Plug-In . SVG Version: 6.00 Build 0)  -->
<svg version="1.1" id="Layer_1" xmlns="http://www.w3.org/2000/svg" xmlns:xlink="http://www.w3.org/1999/xlink" x="0px" y="0px"
	 viewBox="0 0 28 30.7" style="enable-background:new 0 0 28 30.7;" xml:space="preserve">
<style type="text/css">
	.st0{fill:#FFFFFF;}
	.st1{opacity:0.8;}
	.st2{fill:#FFAB24;}
</style>
<title>Asset 15</title>
<polygon class="st0" points="24.2,26.8 4,26.8 4,3.7 19.3,3.7 24.2,10 "/>
<g class="st1">
	<path class="st0" d="M24.3,27.7H3.7c-0.2,0-0.3-0.1-0.5-0.2C3,27.4,3,27.2,3,27V3.7C3,3.3,3.3,3,3.7,3h15.6c0.2,0,0.4,0.1,0.5,0.3
		l5,6.6c0.1,0.1,0.1,0.3,0.1,0.4V27C25,27.4,24.7,27.7,24.3,27.7C24.3,27.7,24.3,27.7,24.3,27.7z M4.3,26.3h19.3V10.9h-4.5
		c-0.4,0-0.7-0.3-0.7-0.7V4.3H4.3L4.3,26.3z M22.9,9.6l-3.1-4.2v4.2H22.9z"/>
	<path class="st0" d="M19.3,3c0.2,0,0.4,0.1,0.5,0.3l5,6.6c0.1,0.1,0.1,0.3,0.1,0.4V27c0,0.4-0.3,0.7-0.6,0.7c0,0,0,0,0,0H3.7
		c-0.2,0-0.3-0.1-0.5-0.2C3,27.4,3,27.2,3,27V3.7C3,3.3,3.3,3,3.7,3H19.3 M4.3,26.4h19.4V10.9h-4.5c-0.4,0-0.7-0.3-0.7-0.7V4.3H4.3
		L4.3,26.4 M19.8,9.6h3.1l-3.1-4.2V9.6 M19.3,0H3.7C1.6,0,0,1.6,0,3.7V27c0,1.2,0.5,2.3,1.5,3c0.6,0.4,1.4,0.7,2.2,0.7h20.6
		c2,0,3.7-1.7,3.7-3.7V10.3c0-0.7-0.2-1.5-0.6-2.1L27.2,8l-5-6.6C21.6,0.5,20.5,0,19.3,0z M7.3,7.3h8.1v2.9c0,2,1.6,3.7,3.7,3.7h1.5
		v9.4H7.3L7.3,7.3L7.3,7.3z"/>
</g>
<path class="st2" d="M24.3,27.7H3.7c-0.2,0-0.3-0.1-0.5-0.2C3,27.4,3,27.2,3,27V3.7C3,3.3,3.3,3,3.7,3h15.6c0.2,0,0.4,0.1,0.5,0.3
	l5,6.6c0.1,0.1,0.1,0.3,0.1,0.4V27C25,27.4,24.7,27.7,24.3,27.7C24.3,27.7,24.3,27.7,24.3,27.7z M4.3,26.3h19.3V10.9h-4.5
	c-0.4,0-0.7-0.3-0.7-0.7V4.3H4.3L4.3,26.3z M22.9,9.6l-3.1-4.2v4.2H22.9z"/>
<rect x="11.1" y="20.5" class="st2" width="11" height="1.5"/>
<rect x="11.1" y="14.6" transform="matrix(0.9999 -1.291508e-02 1.291508e-02 0.9999 -0.1964 0.2154)" class="st2" width="11" height="1.5"/>
<rect x="11.1" y="8.6" class="st2" width="6" height="1.5"/>
<path class="st2" d="M7.5,11L6.1,9.6L6.7,9l0.8,0.8L9.3,8l0,0l0.1-0.2l0.6,0.6L7.5,11z"/>
<path class="st2" d="M7.5,16.9l-1.4-1.4l0.6-0.6l0.8,0.8l1.8-1.8l0,0l0.1-0.1l0.6,0.6L7.5,16.9z"/>
<path class="st2" d="M8.1,23c-1,0-1.8-0.8-1.8-1.8s0.8-1.8,1.8-1.8s1.8,0.8,1.8,1.8S9,23,8.1,23z M8.1,20.3c-0.5,0-0.9,0.5-0.9,1
	c0,0.5,0.5,0.9,1,0.9c0.5,0,0.9-0.4,0.9-0.9C9,20.7,8.6,20.3,8.1,20.3L8.1,20.3z"/>
</svg>
