<svg xmlns="http://www.w3.org/2000/svg" viewBox="0 0 28 30.69"><defs><style>.a{fill:#fff;}.b{opacity:0.8;}.c{fill:#4f8317;}</style></defs><title>Asset 15</title><polygon class="a" points="24.24 26.84 3.95 26.84 3.95 3.67 19.33 3.67 24.24 10 24.24 26.84"/><g class="b"><path class="a" d="M24.33,27.69H3.67a.94.94,0,0,1-.49-.18A.61.61,0,0,1,3,27V3.67A.69.69,0,0,1,3.67,3H19.3a.64.64,0,0,1,.54.27l5,6.6a.72.72,0,0,1,.13.4V27A.66.66,0,0,1,24.33,27.69Zm-20-1.35H23.65V10.95H19.16a.69.69,0,0,1-.67-.67V4.35H4.35ZM22.93,9.56l-3.1-4.18V9.56Z"/><path class="a" d="M19.3,3a.64.64,0,0,1,.54.27l5,6.6a.72.72,0,0,1,.13.4V27a.66.66,0,0,1-.67.67H3.67a.94.94,0,0,1-.49-.18A.61.61,0,0,1,3,27V3.67A.69.69,0,0,1,3.67,3H19.3m-15,23.35H23.65V10.95H19.16a.69.69,0,0,1-.67-.67V4.35H4.35v22M19.84,9.56h3.1l-3.1-4.18V9.56M19.3,0H3.67A3.68,3.68,0,0,0,0,3.67V27a3.5,3.5,0,0,0,1.52,3,3.9,3.9,0,0,0,2.16.68H24.33A3.68,3.68,0,0,0,28,27V10.27a3.72,3.72,0,0,0-.64-2.07l-.11-.16-5-6.6A3.63,3.63,0,0,0,19.3,0Zm-12,7.35h8.14v2.93a3.68,3.68,0,0,0,3.67,3.67h1.49v9.4H7.35v-16Z"/></g><path class="c" d="M24.33,27.69H3.67a.94.94,0,0,1-.49-.18A.61.61,0,0,1,3,27V3.67A.69.69,0,0,1,3.67,3H19.3a.64.64,0,0,1,.54.27l5,6.6a.72.72,0,0,1,.13.4V27A.66.66,0,0,1,24.33,27.69Zm-20-1.35H23.65V10.95H19.16a.69.69,0,0,1-.67-.67V4.35H4.35ZM22.93,9.56l-3.1-4.18V9.56Z"/><rect class="c" x="11.08" y="20.49" width="11" height="1.5"/><rect class="c" x="11.08" y="14.57" width="11" height="1.5" transform="translate(-0.2 0.21) rotate(-0.74)"/><rect class="c" x="11.08" y="8.65" width="6" height="1.5"/><path class="c" d="M7.46,11,6.07,9.57,6.67,9l.8.8L9.32,8h0l.15-.15.59.62Z"/><path class="c" d="M7.46,16.88,6.07,15.49l.61-.61.8.8,1.84-1.77h0l.15-.15.59.62Z"/><path class="c" d="M8.07,23a1.75,1.75,0,1,1,1.75-1.75A1.75,1.75,0,0,1,8.07,23Zm0-2.7a.95.95,0,1,0,1,.95A1,1,0,0,0,8.07,20.29Z"/></svg>