<svg id="Layer_1" data-name="Layer 1" xmlns="http://www.w3.org/2000/svg" xmlns:xlink="http://www.w3.org/1999/xlink" viewBox="0 0 376.8 296.55"><defs><style>.cls-1,.cls-2,.cls-3,.cls-4,.cls-5,.cls-6{fill-rule:evenodd;}.cls-1{fill:url(#linear-gradient);}.cls-2,.cls-4{fill:none;stroke-linecap:round;stroke-linejoin:round;}.cls-2{stroke:#9c9c9c;stroke-width:0.5px;}.cls-3{fill:#324a73;}.cls-4{stroke:#cececd;stroke-width:2px;}.cls-5{fill:#e2e2e1;}.cls-6{fill:#33446b;}</style><linearGradient id="linear-gradient" x1="0.25" y1="178.63" x2="312.66" y2="178.63" gradientUnits="userSpaceOnUse"><stop offset="0" stop-color="#436d9d"/><stop offset="0.2" stop-color="#33446b"/><stop offset="0.47" stop-color="#6e9dcd"/><stop offset="0.71" stop-color="#33446b"/><stop offset="1" stop-color="#6e9dcd"/></linearGradient><symbol id="final_logo_1.ai_Illustrator_Sym" data-name="final_logo_1.ai/Illustrator Sym" viewBox="0 0 312.91 357.25"><g id="Layer_1-2" data-name="Layer 1"><path class="cls-1" d="M252,64.15q-47.46-3.86-91.4-29.9h-.15Q116.3,60.3,69,64.15a167,167,0,0,1-28.35-.1l-10.4-1.4q-.6,21.75.15,48.25,1.25,52.65,7.25,76.5,17.55,68.4,71.85,108.85A186.81,186.81,0,0,0,145,317.4a114.52,114.52,0,0,0,15.25,5.75h.25q6.24-1.75,19.4-7.75,13.5-6,43.6-31.75t45.5-70.5q15.35-44.81,13.9-86.5-1.35-41.45-.5-62.75A189.25,189.25,0,0,1,252,64.15ZM311.86,36.9q-1,26.45.65,77.5T295.36,221.15q-18.9,55.3-56.15,87.1T185.36,347.5q-16.61,7.46-24,9.5H161a134.25,134.25,0,0,1-18.75-7.2,230.84,230.84,0,0,1-43.9-26q-66.9-50-88.6-134.4-7.3-29-9-94.5Q-.1,62.76.51,35.4l13,1.75a203.26,203.26,0,0,0,34.9,0q58.4-4.65,113-36.85l.1,0,0,0q54.5,32.21,113,36.85A215.76,215.76,0,0,0,311.86,36.9Z"/><path class="cls-2" d="M160.46,323.15q6.24-1.75,19.4-7.75,13.5-6,43.6-31.75t45.5-70.5q15.35-44.81,13.9-86.5-1.35-41.45-.5-62.75a189.25,189.25,0,0,1-30.35.25q-47.46-3.86-91.4-29.9h-.15Q116.3,60.3,69,64.15a167,167,0,0,1-28.35-.1l-10.4-1.4q-.6,21.75.15,48.25,1.25,52.65,7.25,76.5,17.55,68.4,71.85,108.85A186.81,186.81,0,0,0,145,317.4a114.52,114.52,0,0,0,15.25,5.75M161.36,357q7.39-2.06,24-9.5,16.74-7.61,53.85-39.25,37.25-31.8,56.15-87.1,18.94-55.54,17.15-106.75-1.65-51-.65-77.5a215.76,215.76,0,0,1-37.4.25Q216,32.5,161.51.3l0,0-.1,0q-54.6,32.21-113,36.85a203.26,203.26,0,0,1-34.9,0L.51,35.4q-.6,27.35.2,59.5,1.74,65.5,9.05,94.5,21.69,84.4,88.6,134.4a230.84,230.84,0,0,0,43.9,26A134.25,134.25,0,0,0,161,357"/></g></symbol></defs><title>FINAL_LOGO_ACCEPTEDX_Style2 [Converted]</title><path class="cls-3" d="M234.55,246.45h5c.67,0,1.1.17,1.3.5a2.38,2.38,0,0,1,.45,1.5l3,71.8a1.93,1.93,0,0,1-.5,1.55,2,2,0,0,1-1.5.45H236.1a1.88,1.88,0,0,1-1.6-.6,3.86,3.86,0,0,1-.5-1.9l-1.85-53.25H232l-21.3,54.4a2.1,2.1,0,0,1-.8,1.1,2.5,2.5,0,0,1-1.15.25H205a2.82,2.82,0,0,1-1.35-.25,2.67,2.67,0,0,1-.85-1.3l-23.05-54.2h-.1l-1.3,53.75a1.93,1.93,0,0,1-.5,1.55,2.66,2.66,0,0,1-1.7.45H170.7a2.34,2.34,0,0,1-1.5-.4,1.87,1.87,0,0,1-.4-1.5l2.5-71.6a3.12,3.12,0,0,1,.45-1.8,1.34,1.34,0,0,1,1.25-.5h4.75a3.47,3.47,0,0,1,1.9.4,2.62,2.62,0,0,1,1,1.3l26.75,59.9h.1l24.65-59.8a3.45,3.45,0,0,1,.9-1.4A2.49,2.49,0,0,1,234.55,246.45Zm58.8,20.6q-1-2.85-1.6-4.8c-.4-1.23-.72-2.23-.95-3h-.1c-.27.83-.62,1.87-1.05,3.1s-1,2.9-1.7,4.9l-9.05,25h23.25Zm-5.1-20.6h5.85a1.9,1.9,0,0,1,2,1.35L323.3,320a2.25,2.25,0,0,1,.1,1.6c-.13.43-.65.67-1.55.7H315a3.12,3.12,0,0,1-1.95-.4,2.77,2.77,0,0,1-1-1.6L304.8,299.8H276.3l-7.6,20.55a2.87,2.87,0,0,1-.9,1.5,2.54,2.54,0,0,1-1.6.4h-6.5q-1.15,0-1.2-.75a3.13,3.13,0,0,1,.15-1.45L286.35,248a2.1,2.1,0,0,1,.7-1.1A1.72,1.72,0,0,1,288.25,246.45Zm-159.9-1.35a51.7,51.7,0,0,1,9,.75,41.36,41.36,0,0,1,8.45,2.6,4,4,0,0,1,1.3.75,1.5,1.5,0,0,1,.45,1.1,1.27,1.27,0,0,1-.1.5c0,.17-.07.33-.1.5l-1.65,4.5a2.32,2.32,0,0,1-.65.9,1.18,1.18,0,0,1-.9.3,2.76,2.76,0,0,1-1.3-.35,48.2,48.2,0,0,0-7-2.3,30.45,30.45,0,0,0-6.95-.85,19.84,19.84,0,0,0-6.25,1,11.73,11.73,0,0,0-5,3.3,8.58,8.58,0,0,0-2.1,5.9,10.36,10.36,0,0,0,2.55,6.95,20,20,0,0,0,6.05,4.4l11.75,6.25a36,36,0,0,1,10.7,8.15q4.16,4.69,4.25,12.25a20.24,20.24,0,0,1-3.6,12A21.18,21.18,0,0,1,138,321a31.85,31.85,0,0,1-12.6,2.45,51.89,51.89,0,0,1-9.2-.85,66.34,66.34,0,0,1-9.3-2.25,2.18,2.18,0,0,1-1.4-1.1,2.62,2.62,0,0,1,0-1.7l1.45-4.9a1.72,1.72,0,0,1,1.1-1.3,2.74,2.74,0,0,1,1.75.2,55.29,55.29,0,0,0,7.75,2.25,33.86,33.86,0,0,0,7.9.95,22.08,22.08,0,0,0,7.35-1.25,13,13,0,0,0,5.75-3.95,10.75,10.75,0,0,0,2.3-7A11.14,11.14,0,0,0,138,295a24.47,24.47,0,0,0-6.85-5.05l-14-7.45a26.51,26.51,0,0,1-8.8-7.45,17.93,17.93,0,0,1-3.3-10.4A17.45,17.45,0,0,1,108.45,254a21.2,21.2,0,0,1,8.65-6.55A28.27,28.27,0,0,1,128.35,245.1Zm219.75,9.15v29.5h8.45A20.18,20.18,0,0,0,365.2,282a12.61,12.61,0,0,0,5.85-4.95,15.36,15.36,0,0,0,2.2-8.3q0-8-4.8-11.3t-13.35-3.2Zm-8-7.8h15.75a46.18,46.18,0,0,1,13.55,1.75,19.77,19.77,0,0,1,9.75,6.15,19.57,19.57,0,0,1,3.35,6.35,25.92,25.92,0,0,1,1.15,7.95,21.78,21.78,0,0,1-2.1,9.5,20.56,20.56,0,0,1-5.5,7.1,23.78,23.78,0,0,1-7.8,4.4l.1.2,17.9,30.1a1.85,1.85,0,0,1,.3,1.5c-.13.5-.58.77-1.35.8h-6.6a3.84,3.84,0,0,1-2.05-.5,3.48,3.48,0,0,1-1.4-1.5l-16.5-28.85H348.1V320a2.33,2.33,0,0,1-.55,1.65,1.84,1.84,0,0,1-1.55.65H340a1.9,1.9,0,0,1-1.55-.6,2.61,2.61,0,0,1-.5-1.7v-71a3.18,3.18,0,0,1,.45-1.9A2.28,2.28,0,0,1,340.1,246.45Zm109.8,0a1.79,1.79,0,0,1,1.45.5,1.57,1.57,0,0,1,.3,1.3l-.65,4.5a1.73,1.73,0,0,1-.9,1.45,4.53,4.53,0,0,1-1.85.3h-20.6v65.55a2.63,2.63,0,0,1-.4,1.65,2,2,0,0,1-1.55.55h-6.25a2,2,0,0,1-1.55-.55,2.43,2.43,0,0,1-.45-1.65V254.5h-21.2a1.4,1.4,0,0,1-1.75-1.75v-4.6a1.94,1.94,0,0,1,.35-1.35,2,2,0,0,1,1.3-.35Z" transform="translate(-88.24 -26.85)"/><path class="cls-4" d="M209.45,143.1q9.35.3,13.9.55,4.54-2.7,9.35-5.1l-15-.35q-4.6,2.51-8.25,4.3m-2.5-4.4,10.75.1a78.78,78.78,0,0,0,8.7-5.35m6.3,5.7,8.4-4.65q-2.81,0-11.55-.35m-6.2,10.1q-6,3.1-10.45,5.6,9.4.41,17,.95l9.75-5.75Q230,143.85,223.35,143.65Zm19.55-10.9a3.56,3.56,0,0,0-1.8,1.15l15,.15,3.6-2.7m-38.25,33.4,4.7.65,11.6-7.05q-9.5-1.35-18.85-1.8l-2.2,1.2m29.2,36.1q7.95-4.9,14-9.2a154.56,154.56,0,0,0-24.95-7.5,15.74,15.74,0,0,1-2.55,1.35m2.55-1.35q-3-.65-4.8-1.2m-11.3-19.4q5.35-3.26,11-6.35m-7.2,17.25,3.45-2a202.09,202.09,0,0,1,21.35,3.75l-12.5,8m55.9-46.6a23.7,23.7,0,0,1-2.75,4.1q5.7.15,17.1.25.71-.94,5.4-9.85m12.15,9.45q-5.74.45-17.55.4-2.1,2.85-5.2,7.5,8.06.45,18.7.55,1.54-2.89,4.05-8.45l1.05-2.4,1.25-2.85a4,4,0,0,1-1.25,2.85m-75.6,7.05q9.15.4,16.7.95,3-2.35,6.85-5.75l-15.7-.3q-3.8,2.35-7.85,5.1l-8.6,5.3q9.25.56,17.3,1.6l-8.9,5.9q9.19,1.25,19.25,3.15,4.05-3.19,7.95-6.75m-3.45-14a35.89,35.89,0,0,1,3.25-3.1M265,140.1q-3,2.1-8,6,8.4.75,18.3,2.3l6.75-6.9Zm15,27.65q-10.54-3-21.9-5.7-6.7,4.65-10.55,7.1A180.67,180.67,0,0,1,271,176.5a121.21,121.21,0,0,0,8.95-8.75q3.75-4.2,7.5-8.7-10.35-1.7-20.15-4-4.1,3.3-9.25,7a194.31,194.31,0,0,0-20.3-3.7q6.45-4.09,10.3-6.4-9.6-1.24-18.15-1.75m30,34.45q13.24,6,26.7,11.9,3.94-5.55,8.3-12.3A231.11,231.11,0,0,1,271,176.5Q266,180.36,260,184.65Zm40.1-42.25-5.9,8.15q12,1,19.9,1.4a99.64,99.64,0,0,1,4.7-9M280,167.75q11.35,2.9,22.4,4.75,4.09-7.25,6.1-10.65-9.56-1.09-21-2.8,4.1-5,6.7-8.5-11.06-1.16-18.9-2.2M331.2,176.4q-19.8-2.4-28.85-3.9-2.66,4.4-7.4,11.75,9,2.2,24.25,5.15m23-36q-19.31-1-28.15-1.5-3.6,6.15-5.6,9.9,9.75.9,29.65,2.45m-50-29.65-6.15,6.8q8.25.65,18.05,1m-28.25-8.05q8.2.3,16.35.3m-55.45,3.9,15.55.6M302.8,202.5l-16.15-5.95q-2.2,2.89-11,13.8m71.05-66.8q-19.4-.26-27.95-.6" transform="translate(-88.24 -26.85)"/><path class="cls-5" d="M434.57,155.1A197.68,197.68,0,0,1,465,176l-7.44-4.5q-8.79-5.65-25.39-12.8l-1.73-.75A337.15,337.15,0,0,0,358,137.05Q301.62,127.19,241.4,134q-75.56,8.66-153.16,42.65Q165.9,133.6,241.4,122.8q60.27-8.6,116.56,3.8a283.15,283.15,0,0,1,74.25,27.2Z" transform="translate(-88.24 -26.85)"/><use id="sheild" width="312.91" height="357.25" transform="translate(101.59 0) scale(0.57)" xlink:href="#final_logo_1.ai_Illustrator_Sym"/><path class="cls-6" d="M332,120.13c-1.48-.18-1.88,1-1.2,3.52a14.41,14.41,0,0,1-.2,8q-1.23,4.2,3.9,10.47a57.17,57.17,0,0,0,5.4,5.9l.35.25,5.7,5.75c.53.35,1,.65,1.4.88a30.48,30.48,0,0,1,2.9,2.25,17.85,17.85,0,0,1,3.7,4,37.58,37.58,0,0,0,.5,10.4,15.23,15.23,0,0,0,.9,3.55q.49,3.15-3.9,6.5a7,7,0,0,1-4.5,2.45l-2.4-.1c-1.67.23-2.63-.6-2.9-2.5l.2-3,1.2-2.6a7.1,7.1,0,0,0,1.5-4.7l-.4-2.5-7.25-8.4-2.1-.7q-4-1.5-12.9-8.65a25.08,25.08,0,0,1-6.8-5.65L312.5,140q0,2.2-3.35,3.9-2.44,4.91-.45,12.15a34.8,34.8,0,0,0,2.6,6.35,33.45,33.45,0,0,0,1.4,3.05,4.39,4.39,0,0,1,.35,3,87.29,87.29,0,0,0-.65,9.07,42.46,42.46,0,0,0-.65,6.78v.67a5.33,5.33,0,0,0-1,.45,4.88,4.88,0,0,1,.8,0l-.8.1-.3.1-11.85.9c-1.53-.17-2.22-1.18-2.05-3.05l.65-2.8a3.89,3.89,0,0,1,2.55-2.15,5.26,5.26,0,0,1,1.65-.3c1.63-.53,2.17-1.72,1.6-3.55a3.73,3.73,0,0,0-1.5-3.25l-1.7-1.4q-4.31-1.25-8.45-12.05l-3.2-10.45a6.31,6.31,0,0,1-5.8-1.2l-2-2.15-1.5,1.3.85,8a53.45,53.45,0,0,1-.1,9.8q0,1.2-1.85,4.7a4.32,4.32,0,0,0-2.05.35l-1.15.55q-3.56,2.1-11.45.5-1.25-1.5,0-3.65l1.6-1.75c2-.43,3.08-1.1,3.25-2,.73-.77,1-2.35.85-4.75l-.6-3.25a12.59,12.59,0,0,1-1.45-3.55l-.4-1.8a8.77,8.77,0,0,0-.75-2.85l-.75-1.8-5,2.8q-1.35,4.54-3.25,11.85l-.55,11a4.87,4.87,0,0,1-1.2,2.55c-.73.93-1.27,1.4-1.6,1.4a10.89,10.89,0,0,0-3.45.65l-1.7.65a12.19,12.19,0,0,1-4.62,2,9.4,9.4,0,0,1-1.48.15l.5-.05q-4.49.3-5.5-1.35l.1-1.8a3.15,3.15,0,0,1,1-3.55l1.8-.9c1.83-.37,2.92-1.3,3.25-2.8q2.15-1.2,2.15-7.65a27.11,27.11,0,0,0-1-10.85l-1.8-4.75a47.42,47.42,0,0,1-3.05-14v-6.15a35.17,35.17,0,0,0-1.4-6.45l-.75-3.5a29.46,29.46,0,0,1,2.3-15.9l3.45-5.7a10.09,10.09,0,0,1,2.43-6.4l-.88,1.05q5.7-9.9,11.7-15l5.6-3.85q2.25-1.1,4.5-5.7a3.23,3.23,0,0,1,2.15-1.85,1.46,1.46,0,0,1,1.05,0c1.13-.07,2,.62,2.5,2a6.71,6.71,0,0,1,.55,2.25,11.83,11.83,0,0,1,9.7,1.2,17.54,17.54,0,0,1,4.1,3.2,17.12,17.12,0,0,0,3.65,4.1,49.73,49.73,0,0,1,6.55,5.3,7,7,0,0,1-1.2,6.15,10,10,0,0,1-3.55,3.5,20.3,20.3,0,0,1-1.5,4.55,5.65,5.65,0,0,1-4.65,1.85,4.36,4.36,0,0,1-3.85-1.3L280.7,91c-1-.87-2.47-1-4.3-.55l-2.55,1a4.76,4.76,0,0,0-.55,4.4,8.1,8.1,0,0,0,1.05,2.4,13.79,13.79,0,0,0,7,4,12.58,12.58,0,0,0,5.85,1.6,28.11,28.11,0,0,0,3.45,0q5.55-2.25,15.9-2.15,13.38,1.14,20.5,3.42a22.29,22.29,0,0,1,7.45,4.06v0a59.71,59.71,0,0,1,7.88,9,52.86,52.86,0,0,1,5.37,10.85q2.55,6.71,2.85,7.6c.23.7.5,1.42.8,2.15a36.81,36.81,0,0,0,2,4.1c.23.4.47.82.7,1.25.43.73.9,1.48,1.4,2.25a.58.58,0,0,0,.15.25,22.47,22.47,0,0,0,1.9,2.4,1.93,1.93,0,0,0,.35.35,2.16,2.16,0,0,0,.4.4,2.21,2.21,0,0,0,.25.3c.47.43,1,.87,1.5,1.3l2.5,2a22.68,22.68,0,0,0,6.13,3.1,57.17,57.17,0,0,1,7.45,3.32c2.14,1.17,2.48,2.39,1,3.65s-4.8,1-9.93-.65l-5.9-2.2v0a12.46,12.46,0,0,1-1.65-.77c-.37-.2-.73-.42-1.1-.65-.2-.13-.38-.27-.55-.4-.5-.37-1-.75-1.45-1.15a11.36,11.36,0,0,1-.85-.85,0,0,0,0,1,0,0l-1.25-1.35c-.47-.5-.9-1-1.3-1.5l-.8-.9c-.43-.53-.85-1.07-1.25-1.6s-.85-1.07-1.25-1.6l-.55-.75c-.37-.53-.73-1-1.1-1.55-.73-1.13-1.4-2.25-2-3.35-.23-.43-.45-.85-.65-1.25a31.85,31.85,0,0,1-1.8-4.1c-.23-.67-.43-1.33-.6-2a.5.5,0,0,1-.05-.15q-2.36-8.59-5.6-12.45C335.24,121.68,333.42,120.3,332,120.13Z" transform="translate(-88.24 -26.85)"/></svg>