<?xml version="1.0" encoding="utf-8"?>
<!-- Generator: Adobe Illustrator 20.1.0, SVG Export Plug-In . SVG Version: 6.00 Build 0)  -->
<svg version="1.1" id="Layer_1" xmlns="http://www.w3.org/2000/svg" xmlns:xlink="http://www.w3.org/1999/xlink" x="0px" y="0px"
	 viewBox="0 0 33 27.2" style="enable-background:new 0 0 33 27.2;" xml:space="preserve">
<style type="text/css">
	.st0{opacity:0.8;}
	.st1{fill:#5A6066;}
	.st2{fill:#FFFFFF;}
	.st3{fill:#FFAB24;}
</style>
<title>Asset 40</title>
<g class="st0">
	<path class="st1" d="M8.4,25.7c-0.7,0-1.3-0.2-1.9-0.5c-0.6,0.2-1.3,0.3-1.9,0.3c-0.5,0-1.1-0.1-1.6-0.3c-0.9-0.5-1.5-1.4-1.5-2.5
		c0-1.2,1-2.3,2.2-2.3c0,0,0,0,0,0h0.1c-0.1-0.6-0.1-1.1-0.1-1.7c-0.8-0.9-1.3-1.9-1.4-3.1c-0.2-2-0.2-4.1,0.1-6.1
		c0.8-3.7,2.9-5.3,4.3-5.9C7,3.4,7.2,3.2,7.4,3c0.6-0.5,1.4-0.8,2.2-0.8c0.2,0,0.3,0,0.5,0c0.8,0.1,1.5,0.6,1.9,1.3l0.1,0.1
		c0.2,0.1,0.5,0.2,0.7,0.3c0.3-0.1,0.7-0.2,1-0.2c1.4-1.3,3.2-2.1,5.1-2.2c0.7,0,1.4,0.1,2,0.3c0.9,0.3,1.7,0.7,2.4,1.2
		c0.5-0.4,1.2-0.6,1.9-0.6c0.2,0,0.3,0,0.5,0c0.8,0.1,1.6,0.6,2,1.4c0.6,1.3,1.1,2.6,1.4,4c0.2,0.2,0.4,0.5,0.6,0.8
		c1.3,1.7,1.9,3.8,1.6,5.9c0.1,0.5,0.2,1,0.2,1.4c0.2,2-0.5,3.9-1.9,5.3c-0.2,1.1-1.1,1.9-2.2,1.9h-0.2l-0.6,0L26,23.2
		c-1.1,0.8-2.4,1.2-3.7,1.2c-1,0-1.9-0.2-2.9-0.5l-0.6-0.2h-0.1c-0.8,0.8-1.9,1.2-3,1.2c-1,0-2-0.3-2.9-0.8l-0.2,0.1
		C11.4,25.1,9.9,25.6,8.4,25.7z M23.4,9.9c-1,1.9-1.4,4-1.2,6.1h0.4c1-1.8,1.4-3.9,1.1-6c0-0.1,0-0.2,0-0.3L23.4,9.9z"/>
	<path class="st2" d="M18.9,3c0.5,0,1,0.1,1.5,0.2c1,0.4,2,0.9,2.8,1.6h0.2c0.2-0.2,0.4-0.4,0.6-0.6c0.3-0.2,0.6-0.4,1-0.4h0.3
		c0.4,0.1,0.7,0.3,0.9,0.6c0.6,1.3,1.1,2.6,1.4,4c0.3,0.3,0.6,0.6,0.8,0.9c1.1,1.4,1.6,3.2,1.2,5c0.1,0.5,0.2,1,0.3,1.6
		c0.2,1.8-0.6,3.5-2,4.6c0,0.1,0,0.2,0,0.3c0,0.4-0.4,0.7-0.8,0.7h-0.1l-0.7-0.1h-0.2c-0.3,0.1-0.7,0.2-1,0.3
		c-0.8,0.7-1.9,1.1-3,1.1c-0.8,0-1.6-0.2-2.4-0.4c-0.3-0.1-0.6-0.2-0.9-0.4c-0.3,0.1-0.7,0.1-1,0.1l-0.2,0.2c-0.5,0.6-1.3,1-2.1,1
		c-0.8,0-1.6-0.3-2.3-0.7c-0.2-0.1-0.4-0.3-0.6-0.5L11.6,23c-0.9,0.8-2.1,1.2-3.2,1.3c-0.5,0-1.1-0.2-1.5-0.5l-0.2-0.1
		C6,23.9,5.3,24,4.6,24c-0.3,0-0.6,0-0.9-0.2C3.3,23.6,3,23.2,3,22.7C3,22.3,3.3,22,3.8,22l0,0c0.3,0,0.6,0.2,0.7,0.5h0.1
		c0.4,0,0.8-0.1,1.2-0.2c-0.5-1.3-0.7-2.7-0.6-4.1c-0.8-0.7-1.3-1.6-1.4-2.6c-0.2-1.9-0.2-3.8,0.1-5.7C4.5,7,6,5.5,7.7,4.9
		c0.2-0.3,0.5-0.6,0.7-0.8c0.3-0.3,0.7-0.4,1.2-0.4h0.3c0.4,0.1,0.7,0.3,0.9,0.6c0.1,0.2,0.2,0.3,0.3,0.5c0.6,0.2,1.2,0.5,1.7,0.8
		c0.1-0.1,0.3-0.2,0.4-0.3c0.2-0.1,0.5-0.2,0.7-0.2c0.1,0,0.2,0,0.4,0l0,0C15.5,3.9,17.2,3.1,18.9,3 M16.1,6.6L16.1,6.6
		c0.5,0,1,0.3,1.2,0.8c0.2,0.3,0.4,0.5,0.5,0.8c0.9-1.2,2-2.2,3.3-2.9C20.8,5,20.4,4.8,20,4.7c-0.3-0.1-0.7-0.2-1-0.2
		c-1.2,0.1-2.4,0.6-3.2,1.5C15.9,6.2,16.1,6.4,16.1,6.6 M25.5,6.2c-0.1-0.2-0.2-0.5-0.3-0.7L25,5.7C25.2,5.8,25.3,6,25.5,6.2
		 M7.5,10.4L7.5,10.4c0.7,0,1.4,0.1,2.1,0.3c0.1-0.7,0.4-1.5,0.7-2.1l0,0c0-0.8-0.1-1.6-0.3-2.3H9.8H9.4c-0.3,0-0.5,0-0.8,0.1
		C8.4,6.6,8.2,7,8.1,7.4C7.8,8.3,7.6,9.3,7.5,10.4L7.5,10.4 M22.2,6.5c-1.5,0.7-2.7,1.9-3.6,3.3c0.2,0.5,0.3,1.1,0.4,1.7
		c0-0.2,0.1-0.4,0.1-0.5C19.5,8.1,21,7.1,22,6.8L22.2,6.5 M11.8,7.1l0.1-0.2l-0.1-0.1L11.8,7.1 M6.4,7.8c-0.5,0.7-0.8,1.5-1,2.4
		c-0.3,1.7-0.3,3.5-0.1,5.2c0,0.1,0,0.2,0,0.2c0.1-1.1,0.3-2.3,0.5-3.4c0-0.8,0.1-1.5,0.1-2.2C6,9.4,6.1,8.6,6.4,7.8 M21.5,17.7
		c0.7-0.1,1.4-0.1,2-0.3c1.5-2.2,2.1-4.9,1.6-7.6C25.1,9.4,25,9,24.9,8.6l-0.2-0.3c-0.4-0.2-0.9-0.3-1.4-0.3c-0.1,0-0.3,0-0.4,0
		c-0.2,0.3-0.5,0.7-0.7,1c-1.2,2.3-1.7,4.9-1.4,7.4C21,16.9,21.3,17.3,21.5,17.7 M13.3,16.6c0-2.4,0.3-4.7,0.7-7
		c-0.1-0.3-0.2-0.6-0.4-0.8c-0.6,1.1-1.1,2.3-1.5,3.5c0.4,0.5,0.6,1.1,0.7,1.7c0.1,0.8,0,1.6-0.2,2.3C12.8,16.5,13,16.6,13.3,16.6
		 M8.7,18.1c0.2,0,0.3,0,0.5-0.1c0.3-0.1,0.6-0.2,0.9-0.4C10,17.1,10,16.6,10,16c-0.1-0.2-0.2-0.3-0.3-0.5c-0.4-1.1-0.5-2.3-0.3-3.4
		c-0.6-0.2-1.3-0.3-1.9-0.3c0,0.1-0.1,0.3-0.2,0.6c-0.1,1.6-0.2,3.4-0.2,5.3C7.7,18,8.2,18.1,8.7,18.1 M16.6,16.3
		c0.7-1.2,1-2.6,0.7-3.9c-0.2,0.6-0.4,1.3-0.5,2C16.6,15,16.6,15.7,16.6,16.3 M26.7,13.3c-0.2,1.2-0.5,2.4-1.1,3.6
		c0.3-0.1,0.5-0.2,0.8-0.3C26.6,15.5,26.7,14.4,26.7,13.3 M28.2,14.7v-0.1v-0.1C28.2,14.5,28.2,14.6,28.2,14.7 M28.5,17
		c-0.2,0.2-0.5,0.4-0.7,0.5c-0.2,0.6-0.4,1.3-0.6,1.9C27.9,18.8,28.4,17.9,28.5,17 M17.9,17.1c-0.1,0.2-0.2,0.4-0.3,0.5h0.3
		C17.9,17.5,17.9,17.3,17.9,17.1 M19.5,17.7c0-0.1-0.1-0.3-0.1-0.4C19.4,17.4,19.4,17.6,19.5,17.7L19.5,17.7 M12.4,18.6
		c0.2-0.1,0.3-0.3,0.5-0.4c-0.2-0.1-0.5-0.2-0.7-0.3C12.3,18.1,12.4,18.4,12.4,18.6 M25.9,18.3c-0.5,0.2-1,0.3-1.5,0.4
		c-0.2,0.3-0.4,0.5-0.6,0.7c0.4,0.2,0.9,0.3,1.4,0.4C25.4,19.4,25.7,18.9,25.9,18.3 M19.6,19.2h-0.4c-0.1,0.3-0.2,0.7-0.3,1l0.3,0.2
		c0.4-0.1,0.8-0.2,1.2-0.4c-0.2-0.2-0.3-0.5-0.4-0.8L19.6,19.2 M8,20.9c0.4-0.4,0.8-0.8,1.2-1.3c-0.2,0-0.3,0-0.5,0
		c-0.5,0-1-0.1-1.5-0.3c0,0.4,0,0.8,0,1.2c0,0.1,0,0.1,0.1,0.2C7.5,20.8,7.7,20.8,8,20.9 M17,20.7c-0.4-0.4-0.7-0.8-1-1.3l-0.9,0.8
		c0,0.1,0.1,0.2,0.1,0.3C15.8,20.6,16.4,20.7,17,20.7 M10.3,20.6c0.3-0.1,0.7-0.3,1-0.5v-0.1c-0.2-0.1-0.3-0.2-0.4-0.3
		c-0.1,0.2-0.2,0.4-0.4,0.6L10.3,20.6 M21.7,21.3l-0.2-0.2l-0.2,0.1L21.7,21.3 M9.7,22.3c-0.4,0.1-0.8,0.1-1.1,0.1l-0.3,0.2h0.2
		C8.9,22.6,9.3,22.5,9.7,22.3 M18.9,0c-2.1,0-4.2,0.9-5.8,2.3H13c-0.7-0.8-1.6-1.4-2.7-1.5c-0.2,0-0.5-0.1-0.7-0.1
		c-1.1,0-2.3,0.4-3.1,1.1C6.3,2.1,6.1,2.3,5.9,2.5C4.1,3.3,1.9,5.2,1,9.3c-0.4,2.2-0.4,4.4-0.2,6.5c0.1,1.3,0.6,2.5,1.4,3.5
		c-1.4,0.6-2.2,2-2.2,3.5c0,1.6,0.9,3.1,2.4,3.8C3.1,26.9,3.8,27,4.6,27c0.6,0,1.2-0.1,1.8-0.2C7,27,7.7,27.2,8.4,27.2
		c1.6-0.1,3.1-0.6,4.4-1.5c0.9,0.4,1.8,0.6,2.8,0.6c1.2,0,2.4-0.3,3.4-1c1.1,0.4,2.2,0.6,3.3,0.6c1.6,0,3.1-0.4,4.4-1.3h0H27h0.3
		c1.6,0,3.1-1,3.6-2.6c1.5-1.7,2.3-3.9,2.1-6.1c0-0.5-0.1-0.9-0.2-1.4c0.3-2.4-0.4-4.9-1.9-6.8c-0.1-0.2-0.3-0.4-0.5-0.6
		c-0.3-1.4-0.8-2.7-1.5-4C28.4,2,27.3,1.2,26,1c-0.3,0-0.5-0.1-0.8-0.1c-0.6,0-1.3,0.1-1.8,0.4c-0.6-0.4-1.3-0.7-2-0.9
		C20.6,0.2,19.8,0,18.9,0z"/>
</g>
<path class="st3" d="M8.4,24.2c-0.5,0-1.1-0.2-1.5-0.5l-0.2-0.1c-0.9,0.4-2,0.5-3,0.3C3.3,23.7,3,23.2,3,22.7C3,22.3,3.3,22,3.8,22
	l0,0c0.3,0,0.6,0.2,0.7,0.5c0.5,0,0.9-0.1,1.3-0.2c-0.5-1.3-0.7-2.7-0.6-4.1c-0.8-0.7-1.3-1.6-1.4-2.6c-0.2-1.9-0.2-3.8,0.1-5.7
	C4.5,7,6,5.5,7.7,4.9c0.2-0.3,0.5-0.6,0.7-0.8c0.4-0.3,0.9-0.5,1.4-0.4c0.4,0.1,0.7,0.3,0.9,0.6c0.1,0.2,0.2,0.3,0.3,0.5
	c0.6,0.2,1.2,0.5,1.7,0.8c0.1-0.1,0.3-0.2,0.4-0.3c0.4-0.2,0.8-0.2,1.2-0.1l0,0c1.9-2,4-2.7,6.1-2c1,0.4,2,0.9,2.8,1.6h0.2
	c0.2-0.2,0.4-0.4,0.6-0.6C24.5,4,25,3.8,25.5,3.9c0.4,0.1,0.7,0.3,0.9,0.6c0.6,1.3,1.1,2.6,1.4,4c0.3,0.3,0.6,0.6,0.8,0.9
	c1.1,1.4,1.6,3.2,1.2,5c0.1,0.5,0.2,1,0.2,1.5c0.2,1.8-0.6,3.5-2,4.6c0,0.1,0,0.2,0,0.3c0,0.4-0.4,0.7-0.8,0.7l-0.7-0.1h-0.2
	c-0.3,0.1-0.7,0.2-1,0.3c-1.1,0.9-2.9,1.5-5.4,0.6c-0.3-0.1-0.6-0.2-0.9-0.4c-0.3,0.1-0.7,0.1-1,0.1l-0.2,0.2
	c-0.6,0.7-2.1,1.6-4.4,0.2c-0.2-0.1-0.4-0.3-0.6-0.5l-1.1,0.8C10.7,23.7,9.6,24.1,8.4,24.2z M8.3,22.7c0.5,0,1-0.1,1.4-0.3
	c-0.4,0.1-0.8,0.1-1.1,0.1L8.3,22.7z M21.3,21.3l0.4,0.1l-0.2-0.2L21.3,21.3z M7.3,20.8c0.2,0,0.5,0.1,0.7,0.1
	c0.4-0.4,0.8-0.8,1.2-1.3c-0.7,0.1-1.4,0-2-0.2c0,0.4,0,0.8,0,1.2C7.3,20.7,7.3,20.7,7.3,20.8L7.3,20.8z M15.2,20.4
	c0.6,0.2,1.2,0.2,1.8,0.3c-0.4-0.4-0.7-0.8-1-1.3l-0.9,0.8C15.2,20.3,15.2,20.4,15.2,20.4L15.2,20.4z M10.9,19.8
	c-0.1,0.2-0.2,0.4-0.4,0.6l-0.2,0.2c0.3-0.1,0.7-0.3,1-0.5v-0.1C11.2,20,11,19.9,10.9,19.8L10.9,19.8z M18.9,20.3l0.3,0.2
	c0.4-0.1,0.8-0.3,1.2-0.5c-0.2-0.2-0.3-0.5-0.4-0.8h-0.9C19.1,19.6,19,19.9,18.9,20.3L18.9,20.3z M23.8,19.5
	c0.4,0.2,0.9,0.3,1.4,0.4c0.3-0.5,0.6-1,0.8-1.5c-0.5,0.2-1,0.3-1.5,0.4C24.2,19,24,19.2,23.8,19.5L23.8,19.5z M27.8,17.5
	c-0.2,0.6-0.4,1.3-0.6,1.9c0.7-0.6,1.2-1.4,1.3-2.3C28.2,17.2,28,17.4,27.8,17.5L27.8,17.5z M12.3,17.9c0.1,0.2,0.1,0.5,0.2,0.7
	c0.2-0.1,0.3-0.3,0.5-0.4C12.7,18.1,12.5,18,12.3,17.9L12.3,17.9z M7.3,17.7c0.6,0.3,1.3,0.5,2,0.3c0.3-0.1,0.6-0.2,0.9-0.4
	C10,17.1,10,16.6,10,16c-0.1-0.2-0.2-0.3-0.3-0.5c-0.4-1.1-0.5-2.3-0.3-3.4c-0.6-0.2-1.3-0.3-1.9-0.3c0,0.1-0.1,0.3-0.2,0.6
	C7.3,14.1,7.2,15.9,7.3,17.7L7.3,17.7z M19.4,17.7h0.1c0-0.1-0.1-0.3-0.1-0.4C19.4,17.4,19.4,17.6,19.4,17.7L19.4,17.7z M17.6,17.6
	h0.3c0-0.2,0-0.4,0-0.5C17.8,17.3,17.7,17.5,17.6,17.6L17.6,17.6z M20.9,16.6c0.2,0.4,0.5,0.8,0.7,1.1c0.7-0.1,1.4-0.1,2-0.3
	c1.5-2.2,2.1-4.9,1.6-7.6C25.2,9.4,25.1,9,25,8.6l-0.2-0.3c-0.6-0.3-1.2-0.3-1.9-0.2c-0.2,0.3-0.5,0.7-0.7,1
	C21,11.4,20.5,14,20.9,16.6L20.9,16.6z M26.7,13.3c-0.2,1.2-0.5,2.4-1.1,3.6c0.3-0.1,0.5-0.2,0.8-0.3C26.6,15.5,26.7,14.4,26.7,13.3
	L26.7,13.3z M12.7,16.4c0.2,0.1,0.4,0.2,0.6,0.3c0-2.4,0.3-4.7,0.7-7c-0.1-0.3-0.2-0.6-0.4-0.8c-0.6,1.1-1.1,2.3-1.5,3.5
	c0.4,0.5,0.6,1.1,0.7,1.7C13,14.9,12.9,15.7,12.7,16.4L12.7,16.4z M17.3,12.4c-0.2,0.6-0.4,1.3-0.5,2c-0.1,0.6-0.2,1.3-0.1,1.9
	C17.4,15.2,17.6,13.7,17.3,12.4L17.3,12.4z M6.4,7.8c-0.5,0.7-0.8,1.5-1,2.4c-0.3,1.7-0.3,3.5-0.1,5.2c0,0.1,0,0.2,0,0.2
	c0.1-1.1,0.3-2.3,0.5-3.4c0-0.8,0.1-1.5,0.1-2.2C6,9.4,6.2,8.6,6.4,7.8z M28.2,14.4c0,0.1,0,0.2,0,0.3v-0.1V14.4z M18.6,9.9
	c0.2,0.5,0.3,1.1,0.4,1.7c0-0.2,0.1-0.4,0.1-0.5C19.5,8.1,21,7.1,22,6.8l0.2-0.2C20.7,7.3,19.4,8.4,18.6,9.9z M7.6,10.4
	c0.7,0,1.4,0.1,2.1,0.3c0.1-0.7,0.4-1.5,0.7-2.1l0,0c0-0.8-0.2-1.6-0.4-2.3H9.8c-0.4,0-0.7,0-1.1,0.1C8.5,6.6,8.3,7,8.1,7.4
	c-0.3,0.9-0.5,1.9-0.6,2.9L7.6,10.4L7.6,10.4z M16.2,6.6c0.5,0,1,0.3,1.2,0.8c0.2,0.3,0.4,0.5,0.5,0.8c0.9-1.2,2-2.2,3.3-2.9
	C20.8,5,20.4,4.8,20,4.7c-1.6-0.4-3.2,0.1-4.3,1.4C15.9,6.2,16,6.4,16.2,6.6L16.2,6.6z M11.7,6.8l0.1,0.3l0.1-0.2L11.7,6.8z M25,5.7
	c0.2,0.2,0.3,0.3,0.5,0.5c-0.1-0.2-0.2-0.5-0.3-0.7L25,5.7z"/>
</svg>
