<svg xmlns="http://www.w3.org/2000/svg" viewBox="0 0 33 27.21"><defs><style>.a{opacity:0.8;}.b{fill:#5a6066;}.c{fill:#fff;}</style></defs><title>Asset 38</title><g class="a"><path class="b" d="M8.44,25.71a4,4,0,0,1-1.94-.48,7.23,7.23,0,0,1-1.92.3A3.46,3.46,0,0,1,3,25.2,2.72,2.72,0,0,1,1.5,22.75a2.26,2.26,0,0,1,2.24-2.28h.11a15.53,15.53,0,0,1-.13-1.67,5.41,5.41,0,0,1-1.4-3.1A21.11,21.11,0,0,1,2.46,9.6c.77-3.73,2.88-5.27,4.32-5.9A6.2,6.2,0,0,1,7.45,3a3.36,3.36,0,0,1,2.16-.79,3.14,3.14,0,0,1,.51,0,2.78,2.78,0,0,1,1.95,1.29l.05.09q.34.14.68.3a3.28,3.28,0,0,1,1-.23A7.57,7.57,0,0,1,18.94,1.5a6.48,6.48,0,0,1,2,.33A9.75,9.75,0,0,1,23.35,3a3.08,3.08,0,0,1,1.87-.62,3,3,0,0,1,.52,0,2.72,2.72,0,0,1,2,1.38,16,16,0,0,1,1.4,4,9.39,9.39,0,0,1,.63.76,7.7,7.7,0,0,1,1.57,5.91,9.91,9.91,0,0,1,.19,1.45,6.66,6.66,0,0,1-1.93,5.29,2.25,2.25,0,0,1-2.23,1.85h-.19L26.53,23l-.53.17a6.19,6.19,0,0,1-3.72,1.18,8.79,8.79,0,0,1-2.87-.52l-.62-.24-.14,0a4.34,4.34,0,0,1-3,1.22A5.73,5.73,0,0,1,12.75,24l-.2.14A7.25,7.25,0,0,1,8.44,25.71Zm15-15.78a10.72,10.72,0,0,0-1.21,6.13l.36,0a9.13,9.13,0,0,0,1.06-6c0-.11,0-.21-.05-.32Z"/><path class="c" d="M18.94,3a5,5,0,0,1,1.55.25,9.55,9.55,0,0,1,2.82,1.62l.25,0q.31-.32.63-.62a1.55,1.55,0,0,1,1-.37l.26,0a1.24,1.24,0,0,1,.9.62,15.11,15.11,0,0,1,1.35,4,8,8,0,0,1,.8.92,6.17,6.17,0,0,1,1.24,5A8.62,8.62,0,0,1,30,16,5.11,5.11,0,0,1,28,20.56a.75.75,0,0,1,0,.34.76.76,0,0,1-.76.69h-.07l-.73-.06-.21,0a7.7,7.7,0,0,1-1,.31,4.72,4.72,0,0,1-3,1.06,7.23,7.23,0,0,1-2.38-.44,9.2,9.2,0,0,1-.92-.37,9.08,9.08,0,0,1-1.05.14l-.17.2a2.86,2.86,0,0,1-2.12,1,4.33,4.33,0,0,1-2.26-.74,4.16,4.16,0,0,1-.64-.48l-1.06.77a5.92,5.92,0,0,1-3.25,1.3,2.55,2.55,0,0,1-1.52-.48l-.19-.15A6.81,6.81,0,0,1,4.57,24a2,2,0,0,1-.88-.17A1.23,1.23,0,0,1,3,22.74.76.76,0,0,1,3.75,22h0a.76.76,0,0,1,.73.55h.1a5.22,5.22,0,0,0,1.25-.25,10.69,10.69,0,0,1-.62-4.09,4.09,4.09,0,0,1-1.4-2.61A19.84,19.84,0,0,1,3.93,9.9C4.52,7,6,5.53,7.7,4.94a5,5,0,0,1,.73-.79,1.86,1.86,0,0,1,1.18-.42l.27,0a1.27,1.27,0,0,1,.91.59c.1.17.2.35.29.54a6.36,6.36,0,0,1,1.72.81,2.28,2.28,0,0,1,.45-.29A1.83,1.83,0,0,1,14,5.22a1.8,1.8,0,0,1,.37,0l0,0A6.36,6.36,0,0,1,18.94,3M16.15,6.57h0a1.54,1.54,0,0,1,1.24.76,5.73,5.73,0,0,1,.5.83,9.56,9.56,0,0,1,3.32-2.88A6,6,0,0,0,20,4.69a3.35,3.35,0,0,0-1-.17,4.85,4.85,0,0,0-3.23,1.55,3.74,3.74,0,0,1,.42.5m9.32-.38q-.15-.37-.31-.69L25,5.65a3.81,3.81,0,0,1,.48.53M7.54,10.36h0a7.64,7.64,0,0,1,2.07.26,6.44,6.44,0,0,1,.73-2.13v0A8.92,8.92,0,0,0,10,6.19l-.24,0H9.45a3.83,3.83,0,0,0-.81.08,7.1,7.1,0,0,0-.54,1.11,9.61,9.61,0,0,0-.56,2.88v.13M22.17,6.53a8.47,8.47,0,0,0-3.59,3.33c.16.53.31,1.1.43,1.7,0-.18.06-.37.09-.54C19.51,8.15,21,7.13,22,6.77l.18-.24m-10.42.54.1-.18-.15-.09.05.28m-5.38.76a6.48,6.48,0,0,0-1,2.38,18.25,18.25,0,0,0-.09,5.23,1.9,1.9,0,0,0,0,.25,31.69,31.69,0,0,1,.54-3.36c0-.78.09-1.51.14-2.2a13.2,13.2,0,0,1,.34-2.3m15.17,9.81c.69-.06,1.35-.14,2-.26a10.49,10.49,0,0,0,1.65-7.6,10.39,10.39,0,0,0-.23-1.16l-.24-.28a3.86,3.86,0,0,0-1.39-.28,2.65,2.65,0,0,0-.42,0q-.35.49-.69,1a12.14,12.14,0,0,0-1.39,7.45c.25.4.49.75.73,1.06m-8.22-.93a36.2,36.2,0,0,1,.74-7,6.29,6.29,0,0,0-.4-.84,17.94,17.94,0,0,0-1.49,3.52,4.28,4.28,0,0,1,.69,1.74,5,5,0,0,1-.2,2.32q.3.16.64.3M8.74,18.13a1.89,1.89,0,0,0,.49-.06,2.41,2.41,0,0,0,.85-.44A10.24,10.24,0,0,1,10,16.05a3.5,3.5,0,0,1-.27-.5,6.51,6.51,0,0,1-.28-3.4,5.83,5.83,0,0,0-1.9-.28c0,.15-.1.33-.15.55-.09,1.64-.17,3.45-.19,5.31a3.58,3.58,0,0,0,1.52.39m7.88-1.81a5.36,5.36,0,0,0,.67-3.93,11.19,11.19,0,0,0-.55,2,8.15,8.15,0,0,0-.12,1.94m10.07-3a11.63,11.63,0,0,1-1.09,3.57,8.33,8.33,0,0,0,.81-.33,17.46,17.46,0,0,0,.28-3.24m1.48,1.36,0-.15,0-.12c0,.09,0,.18,0,.26M28.45,17a5.07,5.07,0,0,1-.71.52,11,11,0,0,1-.63,1.86A3.39,3.39,0,0,0,28.45,17m-10.55.13q-.16.27-.34.53l.3,0c0-.18,0-.37,0-.55m1.6.61c0-.14-.06-.28-.09-.43,0,.14,0,.28,0,.43h.13m-7.07.87a2.37,2.37,0,0,0,.49-.42c-.23-.09-.46-.19-.67-.29q.09.37.19.72m13.47-.26a14.49,14.49,0,0,1-1.52.41q-.31.38-.65.73a5.72,5.72,0,0,0,1.37.37,6.57,6.57,0,0,0,.79-1.51m-6.33.9h-.41a10.26,10.26,0,0,1-.27,1l.31.19A7.16,7.16,0,0,0,20.45,20a6,6,0,0,1-.43-.78h-.44M8,20.88a9.67,9.67,0,0,0,1.2-1.27,3.59,3.59,0,0,1-.5,0,4.71,4.71,0,0,1-1.51-.27q0,.62,0,1.24a.39.39,0,0,0,.06.18q.37.06.72.09m9-.17a6.2,6.2,0,0,1-1-1.32l-.87.8a1.3,1.3,0,0,0,.1.26,8.49,8.49,0,0,0,1.8.26m-6.66-.08a5,5,0,0,0,1-.47l0-.06a1.74,1.74,0,0,1-.45-.29,4.9,4.9,0,0,1-.37.58l-.18.23m11.38.7-.23-.16-.18.1.42.07m-12,1a7.81,7.81,0,0,1-1.13.08l-.31.25h.2a3,3,0,0,0,1.24-.34M18.94,0a8.81,8.81,0,0,0-5.77,2.3l-.15,0A4.3,4.3,0,0,0,10.34.79,4.6,4.6,0,0,0,9.61.73,4.88,4.88,0,0,0,6.47,1.88a7.59,7.59,0,0,0-.61.59c-1.71.84-4,2.71-4.87,6.82a22.44,22.44,0,0,0-.17,6.54A6.79,6.79,0,0,0,2.2,19.32,3.75,3.75,0,0,0,0,22.77a4.24,4.24,0,0,0,2.36,3.78A5,5,0,0,0,4.57,27a8.09,8.09,0,0,0,1.78-.22,5.61,5.61,0,0,0,2.09.4,8.2,8.2,0,0,0,4.42-1.48,6.79,6.79,0,0,0,2.78.62A5.77,5.77,0,0,0,19,25.29a10.21,10.21,0,0,0,3.29.58,7.78,7.78,0,0,0,4.37-1.31l.05,0,.3,0h.33A3.74,3.74,0,0,0,30.91,22,8.26,8.26,0,0,0,33,15.87a11.23,11.23,0,0,0-.16-1.41,9.21,9.21,0,0,0-1.89-6.78q-.22-.29-.46-.57a17,17,0,0,0-1.46-4A4.21,4.21,0,0,0,26,1a4.52,4.52,0,0,0-.76-.06,4.65,4.65,0,0,0-1.83.38,10.35,10.35,0,0,0-2-.9A8,8,0,0,0,18.94,0Z"/></g><path class="b" d="M8.44,24.21a2.55,2.55,0,0,1-1.52-.48l-.19-.15a4.56,4.56,0,0,1-3,.28A1.23,1.23,0,0,1,3,22.74.76.76,0,0,1,3.75,22h0a.76.76,0,0,1,.73.55,4.46,4.46,0,0,0,1.35-.24,10.69,10.69,0,0,1-.62-4.09,4.09,4.09,0,0,1-1.4-2.61A19.84,19.84,0,0,1,3.93,9.9C4.52,7,6,5.53,7.7,4.94a5,5,0,0,1,.73-.79,1.85,1.85,0,0,1,1.45-.4,1.27,1.27,0,0,1,.91.59c.1.17.2.35.29.54a6.36,6.36,0,0,1,1.72.81,2.28,2.28,0,0,1,.45-.29,1.8,1.8,0,0,1,1.16-.14l0,0c1.91-2,4-2.67,6.07-2a9.55,9.55,0,0,1,2.82,1.62l.25,0q.31-.32.63-.62a1.58,1.58,0,0,1,1.29-.35,1.24,1.24,0,0,1,.9.62,15.1,15.1,0,0,1,1.35,4,7.94,7.94,0,0,1,.8.92,6.17,6.17,0,0,1,1.24,5A8.6,8.6,0,0,1,30,16,5.11,5.11,0,0,1,28,20.56a.75.75,0,0,1,0,.34.76.76,0,0,1-.82.68l-.73-.06-.21,0a7.69,7.69,0,0,1-1,.31c-1.12.9-2.85,1.51-5.42.62a9.24,9.24,0,0,1-.92-.37,9.09,9.09,0,0,1-1.05.14l-.17.2c-.64.69-2.06,1.65-4.38.22a4.16,4.16,0,0,1-.64-.48l-1.06.77A5.92,5.92,0,0,1,8.44,24.21Zm-.18-1.54a2.63,2.63,0,0,0,1.44-.33,7.81,7.81,0,0,1-1.13.08Zm13.07-1.41.42.07-.23-.16Zm-14-.46c.25,0,.49.07.72.09a9.67,9.67,0,0,0,1.2-1.27,4.41,4.41,0,0,1-2-.23q0,.62,0,1.24A.39.39,0,0,0,7.31,20.8Zm7.9-.35a8.49,8.49,0,0,0,1.8.26,6.2,6.2,0,0,1-1-1.32l-.87.8A1.3,1.3,0,0,0,15.22,20.45Zm-4.31-.64a4.91,4.91,0,0,1-.37.58l-.18.23a5,5,0,0,0,1-.47l0-.06A1.75,1.75,0,0,1,10.91,19.81Zm8,.47.31.19A7.17,7.17,0,0,0,20.45,20a6,6,0,0,1-.43-.78h-.86A10.24,10.24,0,0,1,18.89,20.28Zm4.85-.8a5.72,5.72,0,0,0,1.37.37,6.56,6.56,0,0,0,.79-1.51,14.47,14.47,0,0,1-1.52.41Q24.08,19.13,23.74,19.48Zm4-2a11,11,0,0,1-.63,1.86A3.39,3.39,0,0,0,28.45,17,5.06,5.06,0,0,1,27.74,17.5Zm-15.5.38q.09.37.19.72a2.36,2.36,0,0,0,.49-.42C12.69,18.08,12.46,18,12.24,17.88Zm-5-.14a3.06,3.06,0,0,0,2,.33,2.41,2.41,0,0,0,.85-.44A10.24,10.24,0,0,1,10,16.05a3.5,3.5,0,0,1-.27-.5,6.51,6.51,0,0,1-.28-3.4,5.83,5.83,0,0,0-1.9-.28c0,.15-.1.33-.15.55C7.32,14.06,7.24,15.88,7.23,17.74Zm12.15,0h.13c0-.14-.06-.28-.09-.43Q19.39,17.51,19.37,17.72Zm-1.81-.09.3,0c0-.18,0-.37,0-.55Q17.74,17.38,17.56,17.64Zm3.26-1.05c.25.4.49.75.73,1.06.69-.06,1.35-.14,2-.26a10.49,10.49,0,0,0,1.65-7.6,10.39,10.39,0,0,0-.23-1.16l-.24-.28A3.52,3.52,0,0,0,22.9,8.1q-.35.49-.69,1A12.14,12.14,0,0,0,20.82,16.58Zm5.87-3.3a11.63,11.63,0,0,1-1.09,3.57,8.33,8.33,0,0,0,.81-.33A17.47,17.47,0,0,0,26.69,13.29Zm-14,3.12q.3.16.64.3a36.19,36.19,0,0,1,.74-7,6.31,6.31,0,0,0-.4-.84,17.94,17.94,0,0,0-1.49,3.52,4.28,4.28,0,0,1,.69,1.74A5,5,0,0,1,12.68,16.41Zm4.61-4a11.2,11.2,0,0,0-.55,2,8.15,8.15,0,0,0-.12,1.94A5.36,5.36,0,0,0,17.29,12.39ZM6.37,7.83a6.49,6.49,0,0,0-1,2.38,18.25,18.25,0,0,0-.09,5.23,1.88,1.88,0,0,0,0,.25,31.73,31.73,0,0,1,.54-3.36c0-.78.09-1.51.14-2.2A13.2,13.2,0,0,1,6.37,7.83Zm21.81,6.55c0,.09,0,.18,0,.26l0-.15Zm-9.6-4.52c.16.53.31,1.1.43,1.7,0-.18.07-.37.09-.54C19.51,8.15,21,7.13,22,6.77l.18-.24A8.47,8.47,0,0,0,18.58,9.86Zm-11,.5a7.64,7.64,0,0,1,2.07.26,6.44,6.44,0,0,1,.73-2.13v0A8.93,8.93,0,0,0,10,6.19l-.24,0a4,4,0,0,0-1.08.07,7.12,7.12,0,0,0-.54,1.11,9.61,9.61,0,0,0-.56,2.88v.13Zm8.59-3.79a1.54,1.54,0,0,1,1.24.76,5.74,5.74,0,0,1,.5.83,9.56,9.56,0,0,1,3.32-2.88A6,6,0,0,0,20,4.69a4.29,4.29,0,0,0-4.28,1.38,3.73,3.73,0,0,1,.42.5Zm-4.49.22.05.28.1-.18ZM25,5.65a3.8,3.8,0,0,1,.48.53q-.15-.37-.31-.69Z"/></svg>