<svg xmlns="http://www.w3.org/2000/svg" viewBox="0 0 28.98 37.86"><defs><style>.a{opacity:0.8;}.b{fill:#fff;}.c{fill:#9ea7b3;}</style></defs><title>Asset 29</title><g class="a"><path class="b" d="M9.15,28.35a4.56,4.56,0,0,1-3.09-1.21,1.79,1.79,0,0,1-.48-.79A1.84,1.84,0,0,1,5,25.66a7.78,7.78,0,0,1-.61-2,1.78,1.78,0,0,1,0-.63,1.82,1.82,0,0,1-.15-.6c0-.33,0-.69-.05-1.09a1.82,1.82,0,0,1,.46-1.25,1.81,1.81,0,0,1-.5-.78c0-.14-.12-.32-.2-.52a1.63,1.63,0,0,1-.13-.48,1.84,1.84,0,0,1-.29-.41l-.3-.56a1.87,1.87,0,0,1-.2-.58,1.83,1.83,0,0,1-.4-.52c-.1-.19-.19-.38-.28-.58a1.73,1.73,0,0,1-.16-.73,1.82,1.82,0,0,1-.35-.68,8.63,8.63,0,0,1-.21-1.06,1.85,1.85,0,0,1,0-.7,1.8,1.8,0,0,1-.15-.66c0-.29,0-.59,0-.92a1.89,1.89,0,0,1,.14-.67,1.82,1.82,0,0,1-.07-.66c0-.34.07-.67.13-1A1.77,1.77,0,0,1,2,7.91,1.82,1.82,0,0,1,2,7.15a10.53,10.53,0,0,1,.37-1.08,1.77,1.77,0,0,1,.5-.69,1.8,1.8,0,0,1,.29-.82,7.22,7.22,0,0,1,.91-1.12A1.78,1.78,0,0,1,4.88,3a1.79,1.79,0,0,1,.67-.65,6.55,6.55,0,0,1,1.39-.57,2.19,2.19,0,0,1,.48-.07,1.83,1.83,0,0,1,.36,0A1.84,1.84,0,0,1,8.6,1.5h0a5.11,5.11,0,0,1,1.89.33,1.81,1.81,0,0,1,.83.65,1.81,1.81,0,0,1,.92.47,7,7,0,0,1,1,1.14,1.89,1.89,0,0,1,.3.82,1.79,1.79,0,0,1,.51.68c.13.31.26.64.36,1a1.84,1.84,0,0,1,.08.7,1.79,1.79,0,0,1,.29.64q.09.41.17.86a1.74,1.74,0,0,1,0,.64,1.77,1.77,0,0,1,.17.6l0,.4c0,.19,0,.36,0,.53a1.75,1.75,0,0,1-.1.67,1.8,1.8,0,0,1,.08.66c0,.3-.06.58-.1.85a1.78,1.78,0,0,1-.24.66,1.78,1.78,0,0,1-.06.7c-.07.24-.15.48-.23.71a1.81,1.81,0,0,1-.28.53,1.82,1.82,0,0,1-.09.53c-.08.24-.13.43-.17.6a2,2,0,0,1-.13.36,1.88,1.88,0,0,1,0,.37,2.81,2.81,0,0,0,0,.43,1.81,1.81,0,0,1-.36,1.33,1.82,1.82,0,0,1,.69,1.14c.06.42.11.78.14,1.11a1.88,1.88,0,0,1,0,.61,1.8,1.8,0,0,1,.11.64,7.85,7.85,0,0,1-.26,2.07,1.77,1.77,0,0,1-.44.77,1.79,1.79,0,0,1-.34.86,4.53,4.53,0,0,1-2.8,1.72,2.16,2.16,0,0,1-.36,0,1.87,1.87,0,0,1-.38,0,1.82,1.82,0,0,1-.68.13Z"/><path class="b" d="M8.7,3A3.49,3.49,0,0,1,10,3.23a.31.31,0,0,1,.19.33l-.31,2a.31.31,0,0,1-.31.26l-.12,0a1.68,1.68,0,0,0-.66-.13H8.59a.24.24,0,0,1-.15,0,.18.18,0,0,1-.07-.14l0-2.15a.31.31,0,0,1,.09-.22A.31.31,0,0,1,8.64,3H8.7M8.56,5.4h0m.07.06h0M7.42,3.19a.32.32,0,0,1,.16,0,.31.31,0,0,1,.14.2l.42,2a.31.31,0,0,1-.2.36,2.69,2.69,0,0,0-.7.36.31.31,0,0,1-.18.06l-.1,0a.31.31,0,0,1-.2-.2L6.13,4a.31.31,0,0,1,.15-.36A5,5,0,0,1,7.34,3.2h.08M11,4a.31.31,0,0,1,.21.09,5.48,5.48,0,0,1,.74.89.31.31,0,0,1,0,.32l-.9,1.62a.31.31,0,0,1-.27.16h0a.31.31,0,0,1-.27-.15,3.38,3.38,0,0,0-.41-.58A.31.31,0,0,1,10.06,6l.65-1.83a.31.31,0,0,1,.22-.2H11M5.36,4.4h0a.31.31,0,0,1,.23.16l1,1.85a.31.31,0,0,1,0,.34,4.54,4.54,0,0,0-.44.65.31.31,0,0,1-.25.16h0a.31.31,0,0,1-.26-.13L4.43,5.73a.31.31,0,0,1,0-.35,5.81,5.81,0,0,1,.72-.89.31.31,0,0,1,.22-.09m7,1.6h0a.31.31,0,0,1,.24.19c.12.27.22.55.32.84a.31.31,0,0,1-.08.32L11.63,8.49a.31.31,0,0,1-.21.08h-.08a.31.31,0,0,1-.22-.21h0c-.06-.2-.12-.4-.18-.58a.31.31,0,0,1,.05-.3l1.12-1.35A.31.31,0,0,1,12.35,6m-8.29.45a.32.32,0,0,1,.22.09L5.68,7.91a.31.31,0,0,1,.07.33h0c-.08.21-.16.44-.22.67a.31.31,0,0,1-.2.21H5.24A.32.32,0,0,1,5,9.08L3.56,7.89a.31.31,0,0,1-.1-.33,9.09,9.09,0,0,1,.32-.93A.31.31,0,0,1,4,6.45h.06m4.4.26a.2.2,0,0,1,.2.2l0,.24.23,0h0a.22.22,0,0,1,.23.2l0,.27a.21.21,0,0,1,0,.16A.21.21,0,0,1,9,7.82l-.23,0,0,.24a.21.21,0,0,1-.2.23l-.26,0h0a.21.21,0,0,1-.22-.2L8,7.9l-.23,0h0a.2.2,0,0,1-.13-.05.22.22,0,0,1-.08-.15l0-.27a.22.22,0,0,1,.2-.23L8,7.2,8,7a.22.22,0,0,1,.2-.23l.27,0h0m.44.63h0m-1.13.13h0M9,7.57H9m-1.13.13h0m.72.35h0M13,8l.12,0a.31.31,0,0,1,.18.22q.08.38.15.78a.31.31,0,0,1-.16.32l-1.38.75a.31.31,0,0,1-.29,0,.31.31,0,0,1-.17-.23h0q0-.33-.11-.66a.31.31,0,0,1,.14-.32L12.81,8A.31.31,0,0,1,13,8M7.14,8.5a.23.23,0,0,1,.16,0,.22.22,0,0,1,.08.15l0,.23.23,0h0a.21.21,0,0,1,.2.2l0,.27a.22.22,0,0,1-.19.23l-.24,0,0,.24a.22.22,0,0,1-.2.23l-.27,0H7a.21.21,0,0,1-.21-.19l0-.24-.24,0h0a.23.23,0,0,1-.15,0,.22.22,0,0,1-.08-.15l0-.27A.21.21,0,0,1,6.46,9l.23,0,0-.24a.22.22,0,0,1,0-.16.22.22,0,0,1,.15-.08l.27,0m0,.22h0m.49.41h0M6.53,9.5h0m.72.36h0M9.5,8.57a.25.25,0,0,1,.16,0,.22.22,0,0,1,.08.15l0,.23L10,9a.24.24,0,0,1,.16,0,.21.21,0,0,1,.08.15l0,.27a.22.22,0,0,1-.2.23l-.23,0,0,.23a.21.21,0,0,1-.2.23l-.27,0h0a.21.21,0,0,1-.14-.05A.22.22,0,0,1,9.14,10l0-.23-.24,0a.23.23,0,0,1-.23-.2l0-.27a.21.21,0,0,1,0-.16.22.22,0,0,1,.15-.08l.23,0,0-.24a.22.22,0,0,1,.2-.23l.27,0m0,.22h0m-.23.05h0m-.16.22h0m-.25.27h0m1.18.1h0M8.9,9.56h0m.88.14h0M9.39,10h0M3.48,8.59a.32.32,0,0,1,.14,0l1.55.82a.31.31,0,0,1,.16.33c0,.23-.08.47-.11.72a.31.31,0,0,1-.31.27l-.13,0L3.24,10a.31.31,0,0,1-.18-.31c0-.29.06-.59.11-.87a.31.31,0,0,1,.17-.23.32.32,0,0,1,.14,0m9.8,1.3a.31.31,0,0,1,.31.28h0l0,.37c0,.16,0,.3,0,.45a.31.31,0,0,1-.21.31L12,11.77h-.1a.31.31,0,0,1-.31-.31c0-.26,0-.51,0-.76v0a.3.3,0,0,1,.21-.31l1.44-.46.09,0m-3.16.59a.22.22,0,0,1,.23.2l0,.24.24,0h0a.19.19,0,0,1,.13.05.22.22,0,0,1,.08.15l0,.27a.21.21,0,0,1-.2.23l-.24,0,0,.23a.22.22,0,0,1-.19.23l-.27,0h0a.22.22,0,0,1-.22-.2l0-.24-.24,0h0a.22.22,0,0,1-.22-.2l0-.27a.22.22,0,0,1,.05-.16A.21.21,0,0,1,9.44,11l.23,0,0-.24a.22.22,0,0,1,.2-.23l.27,0h0m-.25.27h0m-.41.49h0m.27.39h0m.47.23h0M6.58,10.48a.23.23,0,0,1,.15,0,.22.22,0,0,1,.08.15l0,.23.23,0h0a.22.22,0,0,1,.22.2l0,.27a.22.22,0,0,1,0,.16.22.22,0,0,1-.15.08l-.23,0,0,.24a.22.22,0,0,1-.2.23l-.27,0h0a.22.22,0,0,1-.22-.2l0-.23-.24,0h0a.23.23,0,0,1-.23-.2l0-.27a.21.21,0,0,1,.2-.23l.24,0,0-.24a.21.21,0,0,1,.2-.23l.27,0h0m0,.22h0m.27.25h0m.22.16H7m.05.23h0m-.41.49h0m-.23.06h0M3.31,10.64h.08L4.92,11a.31.31,0,0,1,.23.32h0c0,.27,0,.54,0,.8A.31.31,0,0,1,5,12.4a.32.32,0,0,1-.2.07H4.75l-1.5-.38A.31.31,0,0,1,3,11.79c0-.27,0-.55,0-.85a.31.31,0,0,1,.31-.31m10,1.18a.31.31,0,0,1,.31.33c0,.24,0,.47-.08.7a.31.31,0,0,1-.25.26l-1.57.3h-.06a.3.3,0,0,1-.22-.1.31.31,0,0,1-.08-.29,6.8,6.8,0,0,0,.13-.74.31.31,0,0,1,.27-.27l1.5-.2h0M7,12.37a.22.22,0,0,1,.22.2l0,.24.24,0a.26.26,0,0,1,.16.05A.22.22,0,0,1,7.7,13l0,.27a.22.22,0,0,1-.2.23l-.23,0,0,.24a.22.22,0,0,1-.19.23l-.27,0h0a.22.22,0,0,1-.21-.2l0-.24-.24,0h0a.22.22,0,0,1-.22-.2l0-.27a.22.22,0,0,1,.19-.23l.24,0,0-.23a.21.21,0,0,1,0-.16.21.21,0,0,1,.15-.08l.27,0H7m-.26.27h0m-.38.45h0m1.15.14h0m-.91.3h0m3.25-1.09a.24.24,0,0,1,.16,0,.22.22,0,0,1,.08.15l0,.23.23,0h0a.23.23,0,0,1,.23.2l0,.27a.22.22,0,0,1-.2.23l-.23,0,0,.24A.21.21,0,0,1,10,14l-.27,0h0a.22.22,0,0,1-.22-.2l0-.23-.24,0a.24.24,0,0,1-.15,0A.21.21,0,0,1,9,13.46l0-.27a.22.22,0,0,1,.2-.23l.23,0,0-.23a.22.22,0,0,1,.05-.16.21.21,0,0,1,.15-.08l.27,0m0,.22h0m.27.25h0m-.67,0h0m.94.37h0m-1.13.13h0m.22.16h0m.27.25h0m-6.29-1.2,1.51.09a.31.31,0,0,1,.29.25,4.81,4.81,0,0,0,.24.83.31.31,0,0,1,0,.3.3.3,0,0,1-.24.12h0l-1.6-.15a.31.31,0,0,1-.27-.23A7,7,0,0,1,3.1,13a.31.31,0,0,1,.08-.25.31.31,0,0,1,.23-.1h0m9.56,1a.31.31,0,0,1,.3.4c-.07.22-.13.44-.21.64a.31.31,0,0,1-.26.21L11.2,15h0a.31.31,0,0,1-.25-.12.31.31,0,0,1,0-.29l.06-.16.21-.6a.3.3,0,0,1,.29-.21H13m-4.76.57a.22.22,0,0,1,.23.2l0,.24.23,0a.24.24,0,0,1,.23.2l0,.27a.22.22,0,0,1-.2.23l-.23,0,0,.24a.22.22,0,0,1-.2.23l-.27,0h0a.22.22,0,0,1-.22-.2l0-.23-.24,0a.24.24,0,0,1-.16,0,.21.21,0,0,1-.08-.15l0-.27a.21.21,0,0,1,.2-.23l.23,0,0-.24A.22.22,0,0,1,8,14.22l.27,0h0m.26.47h0m-.67,0h0m.94.37h0m-1.13.13h0m.25.19h0m.24.22h0M5.57,14.47a.31.31,0,0,1,.27.17c.13.24.26.49.41.75a.19.19,0,0,1-.16.28l-1.84.07h0A.31.31,0,0,1,4,15.57q-.13-.26-.25-.52a.31.31,0,0,1,0-.28A.31.31,0,0,1,4,14.61l1.58-.14h0m5.34.74h0l1.5.14a.3.3,0,0,1,.23.14.31.31,0,0,1,0,.27c-.09.28-.16.5-.21.71a.31.31,0,0,1-.3.24l-1.51,0h0a.31.31,0,0,1-.24-.11.31.31,0,0,1-.07-.25h0a8.6,8.6,0,0,1,.23-.93.31.31,0,0,1,.3-.22m-4.6.63a.31.31,0,0,1,.28.16c.12.22.24.45.36.69a.31.31,0,0,1,0,.28.31.31,0,0,1-.22.16l-1.53.25H5.13a.31.31,0,0,1-.27-.17l-.32-.59a.31.31,0,0,1,.2-.45l1.5-.34H6.3M9.16,16a.22.22,0,0,1,.14.05.22.22,0,0,1,.08.15l0,.23.25,0a.23.23,0,0,1,.22.2l0,.27a.21.21,0,0,1,0,.16.22.22,0,0,1-.15.08l-.23,0,0,.24a.22.22,0,0,1-.19.23l-.27,0H9a.22.22,0,0,1-.21-.2l0-.24-.24,0a.24.24,0,0,1-.16-.05.21.21,0,0,1-.08-.15l0-.27a.22.22,0,0,1,.18-.23l.25,0,0-.23a.22.22,0,0,1,.2-.23l.27,0h0m0,.23h0m-.23,0h0m-.38.45h0m1.15.14h0M8.54,17h0m.22.16h0m1.82-.26h.05l1.47.26a.31.31,0,0,1,.26.31,4.38,4.38,0,0,0,0,.65.31.31,0,0,1-.31.35h0l-1.51-.23a.31.31,0,0,1-.26-.29,6.75,6.75,0,0,1,0-.77.31.31,0,0,1,.12-.22.32.32,0,0,1,.19-.07M7,17.29a.31.31,0,0,1,.29.19c.09.23.18.45.25.67a.31.31,0,0,1-.19.39l-1.12.41L6,19l-.11,0a.3.3,0,0,1-.13,0,.3.3,0,0,1-.16-.18c-.07-.2-.15-.4-.24-.63a.3.3,0,0,1,0-.24.32.32,0,0,1,.18-.17l1.39-.5.11,0m5.42,3.14a.3.3,0,0,1,.16,0,.31.31,0,0,1,.14.21c.06.37.1.69.13,1a.31.31,0,0,1-.08.23.3.3,0,0,1-.21.11l-1.46.08h0a.31.31,0,0,1-.31-.28c0-.21-.05-.42-.09-.63a.31.31,0,0,1,.22-.35l1.43-.41h.09m-3.1.14a.19.19,0,0,1,.13.05.21.21,0,0,1,.08.15l0,.23.23,0h0a.23.23,0,0,1,.14,0,.21.21,0,0,1,.08.15l0,.27a.22.22,0,0,1-.19.23l-.25,0,0,.24a.22.22,0,0,1-.2.23l-.27,0h0a.21.21,0,0,1-.21-.2l0-.23-.24,0h0a.22.22,0,0,1-.21-.19l0-.27a.21.21,0,0,1,.2-.23l.24,0,0-.23a.22.22,0,0,1,.2-.23l.27,0h0m-.27.28h0m.51.19h0m.25.19h0m-.23.47h0m-.16.22h0M9.19,22h0M6,21H6l1.48.16a.31.31,0,0,1,.28.3h0c0,.21,0,.43,0,.64a.31.31,0,0,1-.27.33l-1.45.17H6a.31.31,0,0,1-.31-.28c0-.31,0-.64,0-1A.31.31,0,0,1,6,21m5.15,1.29h0l1.45.19a.31.31,0,0,1,.27.31,6.38,6.38,0,0,1-.2,1.69.31.31,0,0,1-.19.21l-.11,0a.31.31,0,0,1-.17-.05l-1.32-.88a.31.31,0,0,1-.13-.31,4.6,4.6,0,0,0,.05-.86.31.31,0,0,1,.1-.24.32.32,0,0,1,.21-.08m-3.57.31a.3.3,0,0,1,.16,0,.31.31,0,0,1,.14.21,4.49,4.49,0,0,0,.2.83A.31.31,0,0,1,8,24l-1.15,1.1a.31.31,0,0,1-.21.08H6.58A.31.31,0,0,1,6.36,25a6.34,6.34,0,0,1-.49-1.63A.31.31,0,0,1,6.08,23l1.4-.44.09,0m1.93.13a.22.22,0,0,1,.23.2l0,.23.24,0h0a.22.22,0,0,1,.22.2l0,.27a.22.22,0,0,1-.2.23l-.24,0,0,.23a.21.21,0,0,1,0,.16.21.21,0,0,1-.15.08l-.27,0h0a.21.21,0,0,1-.14-.05.21.21,0,0,1-.08-.15l0-.24-.23,0h0a.22.22,0,0,1-.22-.2l0-.27a.22.22,0,0,1,.19-.23l.24,0L9,23a.22.22,0,0,1,0-.16.22.22,0,0,1,.15-.08l.27,0h0m0,.22h0M9.24,23h0m.5.19h0m-.88.26h0m.24.43h0m.5.19h0M10.8,24a.29.29,0,0,1,.21.09l1.12,1.09a.31.31,0,0,1,0,.41,3,3,0,0,1-1.89,1.14h-.06A.32.32,0,0,1,10,26.7a.31.31,0,0,1-.13-.2L9.64,25a.31.31,0,0,1,.22-.35,1.14,1.14,0,0,0,.67-.51.32.32,0,0,1,.23-.14h0m-2.6.22a.32.32,0,0,1,.25.1,1.14,1.14,0,0,0,.75.39.31.31,0,0,1,.27.31v1.49a.32.32,0,0,1-.09.22.31.31,0,0,1-.22.09h0a3,3,0,0,1-2.06-.79.31.31,0,0,1,0-.41L8,24.37a.31.31,0,0,1,.23-.13M8.7,0H8.57a3.32,3.32,0,0,0-1,.19H7.42A3.27,3.27,0,0,0,6.5.32,8,8,0,0,0,4.83,1a3.33,3.33,0,0,0-.89.72A3.29,3.29,0,0,0,3,2.4,8.74,8.74,0,0,0,1.92,3.73a3.36,3.36,0,0,0-.42.93A3.32,3.32,0,0,0,1,5.53,12,12,0,0,0,.57,6.74a3.34,3.34,0,0,0-.13.84,3.3,3.3,0,0,0-.23.81c-.05.3-.1.67-.13,1a3.38,3.38,0,0,0,0,.72,3.33,3.33,0,0,0-.09.72c0,.39,0,.71,0,1a3.3,3.3,0,0,0,.1.71,3.35,3.35,0,0,0,0,.75,10.1,10.1,0,0,0,.25,1.26,3.33,3.33,0,0,0,.35.82,3.29,3.29,0,0,0,.27.88c.08.18.19.4.3.62a3.26,3.26,0,0,0,.36.56,3.33,3.33,0,0,0,.23.54l.3.55a3.4,3.4,0,0,0,.23.38,3.28,3.28,0,0,0,.14.41c.06.15.12.3.17.43a3.27,3.27,0,0,0,.15.36,3.31,3.31,0,0,0-.2,1.19c0,.44,0,.83.06,1.18a3.27,3.27,0,0,0,.12.67,3.3,3.3,0,0,0,.05.72,9.22,9.22,0,0,0,.74,2.37,3.27,3.27,0,0,0,.66.93,3.28,3.28,0,0,0,.71,1,6,6,0,0,0,4,1.62h.09a3.36,3.36,0,0,0,.82-.1h.24a3.28,3.28,0,0,0,.69-.07,6,6,0,0,0,3.68-2.29,3.28,3.28,0,0,0,.53-1.1,3.27,3.27,0,0,0,.49-1,9.32,9.32,0,0,0,.31-2.46,3.2,3.2,0,0,0-.07-.71,3.27,3.27,0,0,0,0-.62c0-.41-.09-.79-.15-1.22a3.46,3.46,0,0,0-.42-1.16,3.33,3.33,0,0,0,.09-1.31,1.39,1.39,0,0,1,0-.2q0-.1,0-.19l0-.17v-.05c0-.12.07-.27.13-.45a3.51,3.51,0,0,0,.12-.5,3.29,3.29,0,0,0,.25-.57c.08-.24.16-.49.24-.76a3.26,3.26,0,0,0,.13-.78,3.28,3.28,0,0,0,.22-.77c0-.3.09-.61.11-.93v-.06a3.33,3.33,0,0,0,0-.74,3.29,3.29,0,0,0,.05-.77c0-.16,0-.36,0-.57l0-.39a3.49,3.49,0,0,0-.14-.68,3.31,3.31,0,0,0-.05-.72c0-.29-.11-.6-.18-.9A3.28,3.28,0,0,0,16,6.85a3.28,3.28,0,0,0-.15-.74c-.13-.39-.26-.75-.41-1.1a3.37,3.37,0,0,0-.52-.84,3.32,3.32,0,0,0-.41-.88,8.57,8.57,0,0,0-1.18-1.41,3.36,3.36,0,0,0-1.11-.7A3.3,3.3,0,0,0,11,.43,6.49,6.49,0,0,0,8.7,0Z"/><path class="b" d="M19.83,36.36a1.81,1.81,0,0,1-.68-.13,1.74,1.74,0,0,1-.37,0,2.07,2.07,0,0,1-.41,0,4.49,4.49,0,0,1-2.75-1.71,1.8,1.8,0,0,1-.34-.87,1.79,1.79,0,0,1-.44-.78,7.88,7.88,0,0,1-.25-2.08,1.76,1.76,0,0,1,.1-.62,1.88,1.88,0,0,1,0-.59c0-.35.08-.71.14-1.11a1.84,1.84,0,0,1,.69-1.16A1.81,1.81,0,0,1,15.1,26a2.86,2.86,0,0,0,0-.43,1.8,1.8,0,0,1,0-.37,1.86,1.86,0,0,1-.12-.34c0-.2-.1-.38-.18-.61a1.91,1.91,0,0,1-.09-.55,1.8,1.8,0,0,1-.29-.53c-.08-.22-.15-.46-.22-.7a1.8,1.8,0,0,1-.06-.7,1.81,1.81,0,0,1-.25-.66c0-.26-.08-.54-.1-.81a1.91,1.91,0,0,1,.08-.69,1.8,1.8,0,0,1-.1-.68c0-.16,0-.33,0-.51l0-.37a1.93,1.93,0,0,1,.18-.63,1.84,1.84,0,0,1,0-.65c0-.28.1-.57.17-.84a1.79,1.79,0,0,1,.28-.64,1.78,1.78,0,0,1,.08-.69q.17-.51.37-1a1.83,1.83,0,0,1,.51-.69,1.82,1.82,0,0,1,.29-.8,7.06,7.06,0,0,1,1-1.15,1.82,1.82,0,0,1,.92-.47,1.79,1.79,0,0,1,.83-.65,5,5,0,0,1,1.8-.33,2,2,0,0,1,.92.22,1.79,1.79,0,0,1,.36,0,2.07,2.07,0,0,1,.54.08,6.32,6.32,0,0,1,1.33.55,1.81,1.81,0,0,1,.67.65,1.81,1.81,0,0,1,.82.48,7.22,7.22,0,0,1,.89,1.11,1.82,1.82,0,0,1,.29.83,1.8,1.8,0,0,1,.5.7A10.44,10.44,0,0,1,27,15.17a1.81,1.81,0,0,1,.05.76,1.78,1.78,0,0,1,.27.71c0,.3.09.63.12,1a1.83,1.83,0,0,1-.07.67,1.83,1.83,0,0,1,.14.66c0,.34,0,.65,0,.94a1.83,1.83,0,0,1-.15.65,1.82,1.82,0,0,1,0,.68,8.56,8.56,0,0,1-.21,1.06,1.84,1.84,0,0,1-.35.69,1.8,1.8,0,0,1-.17.75c-.08.18-.18.38-.28.57a1.78,1.78,0,0,1-.39.51,1.79,1.79,0,0,1-.19.57l-.31.57a1.82,1.82,0,0,1-.29.41,1.77,1.77,0,0,1-.14.51c-.06.16-.13.33-.19.51a1.73,1.73,0,0,1-.49.75,1.82,1.82,0,0,1,.46,1.25c0,.4,0,.76-.05,1.09a1.8,1.8,0,0,1-.15.59,1.81,1.81,0,0,1,0,.64,7.77,7.77,0,0,1-.61,2,1.8,1.8,0,0,1-.57.68,1.8,1.8,0,0,1-.49.79,4.53,4.53,0,0,1-3.05,1.2h-.05Z"/><path class="b" d="M20.35,11a.31.31,0,0,1,.22.09.31.31,0,0,1,.09.22l0,2.15a.18.18,0,0,1-.07.14.24.24,0,0,1-.15,0h-.16a1.68,1.68,0,0,0-.66.13l-.12,0a.31.31,0,0,1-.31-.26l-.31-2a.31.31,0,0,1,.19-.33A3.49,3.49,0,0,1,20.29,11h.06m.07,2.4h0m-.07.06h0m1.21-2.28h.08a5,5,0,0,1,1.06.43.31.31,0,0,1,.15.36l-.63,2a.31.31,0,0,1-.2.2l-.1,0a.31.31,0,0,1-.18-.06,2.69,2.69,0,0,0-.7-.36.31.31,0,0,1-.2-.36l.42-2a.31.31,0,0,1,.14-.2.32.32,0,0,1,.16,0M18,12h.07a.31.31,0,0,1,.22.2L18.92,14a.31.31,0,0,1-.06.31,3.38,3.38,0,0,0-.41.58.31.31,0,0,1-.27.15h0a.31.31,0,0,1-.27-.16L17,13.27a.31.31,0,0,1,0-.32,5.48,5.48,0,0,1,.74-.89A.31.31,0,0,1,18,12m5.64.45a.31.31,0,0,1,.22.09,5.81,5.81,0,0,1,.72.89.31.31,0,0,1,0,.35l-1.19,1.7a.31.31,0,0,1-.26.13h0a.31.31,0,0,1-.25-.16,4.54,4.54,0,0,0-.44-.65.31.31,0,0,1,0-.34l1-1.85a.31.31,0,0,1,.23-.16h0m-7,1.6a.31.31,0,0,1,.24.11L18,15.48a.31.31,0,0,1,.05.3c-.07.18-.13.37-.18.58h0a.31.31,0,0,1-.22.21h-.08a.31.31,0,0,1-.21-.08l-1.23-1.13A.31.31,0,0,1,16,15c.09-.29.2-.57.32-.84a.31.31,0,0,1,.24-.19h0m8.29.45H25a.31.31,0,0,1,.22.19,9.09,9.09,0,0,1,.32.93.31.31,0,0,1-.1.33l-1.49,1.18a.32.32,0,0,1-.19.07h-.09a.31.31,0,0,1-.2-.21c-.07-.23-.14-.46-.22-.67h0a.31.31,0,0,1,.07-.33l1.41-1.38a.32.32,0,0,1,.22-.09m-4.4.26h0l.27,0A.22.22,0,0,1,21,15l0,.24.23,0a.22.22,0,0,1,.2.23l0,.27a.22.22,0,0,1-.08.15.2.2,0,0,1-.13.05h0l-.23,0,0,.24a.21.21,0,0,1-.22.2h0l-.26,0a.21.21,0,0,1-.2-.23l0-.24-.23,0a.21.21,0,0,1-.15-.08.21.21,0,0,1,0-.16l0-.27a.22.22,0,0,1,.23-.2h0l.23,0,0-.24a.2.2,0,0,1,.2-.2m-.44.63h0m1.13.13h0m-1.18.1h0m1.13.13h0m-.72.35h0M16,16a.31.31,0,0,1,.17,0l1.34.84a.31.31,0,0,1,.14.32q-.06.32-.11.66h0a.31.31,0,0,1-.17.23.31.31,0,0,1-.29,0l-1.38-.75a.31.31,0,0,1-.16-.32q.07-.4.15-.78a.31.31,0,0,1,.18-.22L16,16m5.84.52.27,0a.22.22,0,0,1,.15.08.22.22,0,0,1,0,.16l0,.24.23,0a.21.21,0,0,1,.2.23l0,.27a.22.22,0,0,1-.08.15.23.23,0,0,1-.15,0h0l-.24,0,0,.24a.21.21,0,0,1-.21.19h0l-.27,0a.22.22,0,0,1-.2-.23l0-.24-.24,0a.22.22,0,0,1-.19-.23l0-.27a.21.21,0,0,1,.2-.2h0l.23,0,0-.23a.22.22,0,0,1,.08-.15.23.23,0,0,1,.16,0m0,.22h0m-.49.41h0m1.07.36h0m-.72.36h0m-2.25-1.28.27,0a.22.22,0,0,1,.2.23l0,.24.23,0a.22.22,0,0,1,.15.08.21.21,0,0,1,0,.16l0,.27a.23.23,0,0,1-.23.2l-.24,0,0,.23a.22.22,0,0,1-.08.15.21.21,0,0,1-.14.05h0l-.27,0a.21.21,0,0,1-.2-.23l0-.23-.23,0a.22.22,0,0,1-.2-.23l0-.27a.21.21,0,0,1,.08-.15A.24.24,0,0,1,19,17l.24,0,0-.23a.22.22,0,0,1,.08-.15.25.25,0,0,1,.16,0m0,.22h0m.23.06h0m.16.22h0m.25.27h0m-1.18.1h0m1.13.13h0m-.88.14h0m.39.27h0m5.9-1.39a.32.32,0,0,1,.14,0,.31.31,0,0,1,.17.23c0,.28.08.58.11.87a.31.31,0,0,1-.18.31l-1.54.72-.13,0a.31.31,0,0,1-.31-.27c0-.26-.07-.49-.11-.72a.31.31,0,0,1,.16-.33l1.55-.82a.32.32,0,0,1,.14,0m-9.8,1.3.09,0,1.44.46a.3.3,0,0,1,.21.31v0c0,.25,0,.5,0,.76a.31.31,0,0,1-.31.31H17l-1.47-.49a.31.31,0,0,1-.21-.31c0-.15,0-.3,0-.45l0-.37h0a.31.31,0,0,1,.31-.28m3.16.59h0l.27,0a.22.22,0,0,1,.2.23l0,.24.23,0a.21.21,0,0,1,.15.07.22.22,0,0,1,.05.16l0,.27a.22.22,0,0,1-.22.2h0l-.24,0,0,.24a.22.22,0,0,1-.22.2h0l-.27,0a.22.22,0,0,1-.19-.23l0-.23-.24,0a.21.21,0,0,1-.2-.23l0-.27a.22.22,0,0,1,.08-.15.19.19,0,0,1,.13-.05h0l.24,0,0-.24a.22.22,0,0,1,.23-.2m.25.27h0m.41.49h0m-.27.39h0m-.47.23h0m3.63-1.37h0l.27,0a.21.21,0,0,1,.2.23l0,.24.24,0a.21.21,0,0,1,.2.23l0,.27a.23.23,0,0,1-.23.2h0l-.24,0,0,.23a.22.22,0,0,1-.22.2h0l-.27,0a.22.22,0,0,1-.2-.23l0-.24-.23,0a.22.22,0,0,1-.15-.08.22.22,0,0,1,0-.16l0-.27a.22.22,0,0,1,.22-.2h0l.23,0,0-.23a.22.22,0,0,1,.08-.15.23.23,0,0,1,.15,0m0,.22h0m-.27.25h0m-.21.16h0m-.06.23h0m.41.49h0m.23.05h0m3.14-1.25A.31.31,0,0,1,26,19c0,.3,0,.58,0,.85a.31.31,0,0,1-.23.29l-1.5.38h-.07a.32.32,0,0,1-.2-.07.31.31,0,0,1-.11-.25c0-.26,0-.53,0-.8h0a.31.31,0,0,1,.23-.32l1.53-.39h.08m-10,1.18h0l1.5.2a.31.31,0,0,1,.27.27,6.8,6.8,0,0,0,.13.74.31.31,0,0,1-.08.29.3.3,0,0,1-.22.1h-.06l-1.57-.3a.31.31,0,0,1-.25-.26c0-.23-.07-.46-.08-.7a.31.31,0,0,1,.31-.33m6.34.56h0l.27,0a.21.21,0,0,1,.15.08.21.21,0,0,1,0,.16l0,.23.24,0a.22.22,0,0,1,.19.23l0,.27a.22.22,0,0,1-.22.2h0l-.24,0,0,.24a.22.22,0,0,1-.21.2h0l-.27,0a.22.22,0,0,1-.19-.23l0-.24-.23,0a.22.22,0,0,1-.2-.23l0-.27a.22.22,0,0,1,.08-.15.26.26,0,0,1,.16-.05l.24,0,0-.24a.22.22,0,0,1,.22-.2m.26.27h0m.38.45h0m-1.15.14h0m.91.3h0m-3.25-1.09.27,0a.21.21,0,0,1,.15.08.22.22,0,0,1,.05.16l0,.23.23,0a.22.22,0,0,1,.2.23l0,.27a.21.21,0,0,1-.08.15.24.24,0,0,1-.15,0l-.24,0,0,.23a.22.22,0,0,1-.22.2h0l-.27,0a.21.21,0,0,1-.2-.23l0-.24-.23,0a.22.22,0,0,1-.2-.23l0-.27a.23.23,0,0,1,.23-.2h0l.23,0,0-.23a.22.22,0,0,1,.08-.15.24.24,0,0,1,.16,0m0,.22h0m-.27.25h0m.67,0h0m-.94.37h0m1.13.13h0m-.22.16h0m-.27.25h0m6.31-1.2a.31.31,0,0,1,.23.1.31.31,0,0,1,.08.25,7,7,0,0,1-.17.86.31.31,0,0,1-.27.23l-1.6.15h0a.3.3,0,0,1-.24-.12.31.31,0,0,1,0-.3,4.81,4.81,0,0,0,.24-.83.31.31,0,0,1,.29-.25l1.51-.09h0m-9.58,1h1.55a.3.3,0,0,1,.29.21l.21.6.06.16a.31.31,0,0,1,0,.29.31.31,0,0,1-.25.12h0l-1.62-.15a.31.31,0,0,1-.26-.21c-.07-.21-.14-.42-.21-.64a.31.31,0,0,1,.3-.4m4.76.57h0l.27,0a.22.22,0,0,1,.19.23l0,.24.23,0a.21.21,0,0,1,.2.23l0,.27a.21.21,0,0,1-.08.15.24.24,0,0,1-.16,0l-.24,0,0,.23a.22.22,0,0,1-.22.2h0l-.27,0a.22.22,0,0,1-.2-.23l0-.24-.23,0a.22.22,0,0,1-.2-.23l0-.27a.24.24,0,0,1,.23-.2l.23,0,0-.24a.22.22,0,0,1,.23-.2m-.25.47h0m.67,0h0m-.94.37h0m1.13.13h0m-.25.19h0m-.24.22h0m2.55-1.13h0l1.58.14a.31.31,0,0,1,.24.15.31.31,0,0,1,0,.28q-.12.27-.25.52a.31.31,0,0,1-.28.17h0l-1.84-.07a.19.19,0,0,1-.16-.28c.15-.26.28-.51.41-.75a.31.31,0,0,1,.27-.17m-5.34.74a.31.31,0,0,1,.3.22,8.6,8.6,0,0,1,.23.93h0a.31.31,0,0,1-.07.25.31.31,0,0,1-.24.11h0l-1.51,0a.31.31,0,0,1-.3-.24c0-.21-.11-.44-.21-.71a.31.31,0,0,1,0-.27.3.3,0,0,1,.23-.14l1.5-.14h0m4.6.63h.07l1.5.34a.31.31,0,0,1,.2.45l-.32.59a.31.31,0,0,1-.27.17H23.8l-1.53-.25a.31.31,0,0,1-.22-.16.31.31,0,0,1,0-.28c.12-.24.24-.47.36-.69a.31.31,0,0,1,.28-.16m-2.86.21h0l.27,0a.22.22,0,0,1,.2.23l0,.23.25,0a.22.22,0,0,1,.18.23l0,.27a.21.21,0,0,1-.08.15.24.24,0,0,1-.16.05l-.24,0,0,.24a.22.22,0,0,1-.21.2h0l-.27,0a.22.22,0,0,1-.19-.23l0-.24-.23,0a.22.22,0,0,1-.15-.08.21.21,0,0,1,0-.16l0-.27a.23.23,0,0,1,.22-.2l.25,0,0-.23a.22.22,0,0,1,.08-.15.22.22,0,0,1,.14-.05m0,.23h0m.23,0h0m.38.45h0m-1.15.14h0m1.13.13h0m-.22.16h0M18.41,25a.32.32,0,0,1,.19.07.31.31,0,0,1,.12.22,6.75,6.75,0,0,1,0,.77.31.31,0,0,1-.26.29l-1.51.23h0a.31.31,0,0,1-.31-.35,4.38,4.38,0,0,0,0-.65.31.31,0,0,1,.26-.31L18.35,25h.05m3.57.36.11,0,1.39.5a.32.32,0,0,1,.18.17.3.3,0,0,1,0,.24c-.09.22-.17.43-.24.63a.3.3,0,0,1-.16.18.3.3,0,0,1-.13,0l-.11,0-.27-.1-1.12-.41a.31.31,0,0,1-.19-.39c.07-.22.16-.44.25-.67a.31.31,0,0,1,.29-.19m-5.42,3.14h.09l1.43.41a.31.31,0,0,1,.22.35c0,.21-.06.42-.09.63a.31.31,0,0,1-.31.28h0L16.42,30a.3.3,0,0,1-.21-.11.31.31,0,0,1-.08-.23c0-.31.07-.63.13-1a.31.31,0,0,1,.14-.21.3.3,0,0,1,.16,0m3.1.14h0l.27,0a.22.22,0,0,1,.2.23l0,.23.24,0a.21.21,0,0,1,.2.23l0,.27a.22.22,0,0,1-.21.19h0l-.24,0L20,30a.21.21,0,0,1-.21.2h0l-.27,0a.22.22,0,0,1-.2-.23l0-.24-.25,0a.22.22,0,0,1-.19-.23l0-.27A.21.21,0,0,1,19,29a.23.23,0,0,1,.14,0h0l.23,0,0-.23a.21.21,0,0,1,.08-.15.19.19,0,0,1,.13-.05m.27.28h0m-.51.19h0m-.25.19h0m.23.47h0m.16.22h0m.23.05h0M23,29a.31.31,0,0,1,.31.32c0,.37,0,.7,0,1a.31.31,0,0,1-.31.28h0l-1.45-.17a.31.31,0,0,1-.27-.33c0-.21,0-.43,0-.64h0a.31.31,0,0,1,.28-.3L23,29h0M17.84,30.3a.32.32,0,0,1,.21.08.31.31,0,0,1,.1.24,4.6,4.6,0,0,0,.05.86.31.31,0,0,1-.13.31l-1.32.88a.31.31,0,0,1-.17.05l-.11,0a.31.31,0,0,1-.19-.21,6.38,6.38,0,0,1-.2-1.69.31.31,0,0,1,.27-.31l1.45-.19h0m3.57.31.09,0,1.4.44a.31.31,0,0,1,.21.35A6.34,6.34,0,0,1,22.63,33a.31.31,0,0,1-.22.17h-.06a.31.31,0,0,1-.21-.08L21,32a.31.31,0,0,1-.08-.33,4.49,4.49,0,0,0,.2-.83.31.31,0,0,1,.14-.21.3.3,0,0,1,.16,0m-1.93.13h0l.27,0a.22.22,0,0,1,.15.08A.22.22,0,0,1,20,31l0,.23.24,0a.22.22,0,0,1,.19.23l0,.27a.22.22,0,0,1-.22.2h0l-.23,0,0,.24a.21.21,0,0,1-.08.15.21.21,0,0,1-.14.05h0l-.27,0a.21.21,0,0,1-.15-.08.21.21,0,0,1,0-.16l0-.23-.24,0a.22.22,0,0,1-.2-.23l0-.27a.22.22,0,0,1,.22-.2h0l.24,0,0-.23a.22.22,0,0,1,.23-.2m0,.22h0m.23.06h0m-.5.19h0m.88.26h0m-.24.43h0m-.5.19h0M18.18,32h0a.32.32,0,0,1,.23.14,1.14,1.14,0,0,0,.67.51.31.31,0,0,1,.22.35l-.27,1.47a.31.31,0,0,1-.13.2.32.32,0,0,1-.17.05h-.06a3,3,0,0,1-1.89-1.14.31.31,0,0,1,0-.41L18,32.13a.29.29,0,0,1,.21-.09m2.6.22a.31.31,0,0,1,.23.13l.92,1.27a.31.31,0,0,1,0,.41,3,3,0,0,1-2.06.79h0a.31.31,0,0,1-.22-.09.32.32,0,0,1-.09-.22V33.07a.31.31,0,0,1,.27-.31,1.14,1.14,0,0,0,.75-.39.32.32,0,0,1,.25-.1M20.35,8h-.06a6.48,6.48,0,0,0-2.34.43,3.34,3.34,0,0,0-1.14.74,3.32,3.32,0,0,0-1.1.69,8.51,8.51,0,0,0-1.16,1.39,3.48,3.48,0,0,0-.42.91,3.31,3.31,0,0,0-.52.84q-.23.53-.41,1.09a3.35,3.35,0,0,0-.15.76,3.26,3.26,0,0,0-.26.73q-.1.45-.18.93a3.22,3.22,0,0,0,0,.69,3.32,3.32,0,0,0-.13.64v.06l0,.36c0,.22,0,.42,0,.61a3.17,3.17,0,0,0,.05.75,3.31,3.31,0,0,0,0,.73v.06c0,.32.06.63.11.93a3.26,3.26,0,0,0,.22.76,3.28,3.28,0,0,0,.13.77c.08.27.16.52.25.77a3.26,3.26,0,0,0,.25.55,3.38,3.38,0,0,0,.11.47c.07.22.11.36.14.48v.05l0,.17q0,.1,0,.19a1.38,1.38,0,0,1,0,.21,3.27,3.27,0,0,0,.09,1.29,3.31,3.31,0,0,0-.41,1.12c-.07.47-.12.86-.16,1.22a3.48,3.48,0,0,0,0,.66,3.32,3.32,0,0,0-.07.74,9.28,9.28,0,0,0,.31,2.46,3.2,3.2,0,0,0,.49,1,3.27,3.27,0,0,0,.53,1.09,6,6,0,0,0,3.68,2.29,3.28,3.28,0,0,0,.69.07H19a3.33,3.33,0,0,0,.81.1h.09a6,6,0,0,0,4-1.62,3.28,3.28,0,0,0,.71-1,3.31,3.31,0,0,0,.66-.94,9.27,9.27,0,0,0,.73-2.38,3.24,3.24,0,0,0,.05-.71,3.32,3.32,0,0,0,.12-.66c0-.35,0-.74.06-1.17a3.32,3.32,0,0,0-.2-1.2,3.28,3.28,0,0,0,.15-.36c0-.14.1-.28.17-.43a3.29,3.29,0,0,0,.14-.41,3.33,3.33,0,0,0,.23-.37l.29-.54a3.5,3.5,0,0,0,.24-.56,3.33,3.33,0,0,0,.37-.58c.1-.2.21-.42.31-.65a3.11,3.11,0,0,0,.26-.84,3.26,3.26,0,0,0,.33-.79,10.05,10.05,0,0,0,.25-1.25,3.46,3.46,0,0,0,0-.77,3.34,3.34,0,0,0,.11-.73c0-.3,0-.63,0-1a3.5,3.5,0,0,0-.09-.74,3.28,3.28,0,0,0,0-.71c0-.41-.08-.77-.14-1.11a3.13,3.13,0,0,0-.23-.79,3.32,3.32,0,0,0-.13-.83A12.07,12.07,0,0,0,28,13.53a3.22,3.22,0,0,0-.5-.85,3.33,3.33,0,0,0-.42-.92A8.84,8.84,0,0,0,26,10.4,3.21,3.21,0,0,0,25,9.74,3.28,3.28,0,0,0,24.17,9a8,8,0,0,0-1.69-.69,3.27,3.27,0,0,0-.91-.13h-.12a3.32,3.32,0,0,0-1-.19Z"/></g><path class="c" d="M9.16,26.85h0a3,3,0,0,1-2.06-.79.31.31,0,0,1,0-.41L8,24.37a.31.31,0,0,1,.23-.13.32.32,0,0,1,.25.1h0a1.14,1.14,0,0,0,.75.39.31.31,0,0,1,.27.31v1.49a.32.32,0,0,1-.09.22A.31.31,0,0,1,9.16,26.85Zm1.05-.09A.32.32,0,0,1,10,26.7a.31.31,0,0,1-.13-.2L9.64,25a.31.31,0,0,1,.22-.35,1.14,1.14,0,0,0,.67-.51.32.32,0,0,1,.23-.14.3.3,0,0,1,.25.08l1.12,1.09a.31.31,0,0,1,0,.41,3,3,0,0,1-1.89,1.14ZM6.64,25.2H6.58A.31.31,0,0,1,6.36,25a6.34,6.34,0,0,1-.49-1.63A.31.31,0,0,1,6.08,23l1.4-.44a.3.3,0,0,1,.26,0,.31.31,0,0,1,.14.21,4.49,4.49,0,0,0,.2.83A.31.31,0,0,1,8,24l-1.15,1.1A.31.31,0,0,1,6.64,25.2Zm5.77-.5a.31.31,0,0,1-.17-.05l-1.32-.88a.31.31,0,0,1-.13-.31,4.6,4.6,0,0,0,.05-.86.31.31,0,0,1,.35-.31l1.45.19a.31.31,0,0,1,.27.31,6.38,6.38,0,0,1-.2,1.69.31.31,0,0,1-.19.21Zm-3.07-.35a.21.21,0,0,1-.14-.05.21.21,0,0,1-.08-.15l0-.24-.23,0h0a.22.22,0,0,1-.22-.2l0-.27a.22.22,0,0,1,.19-.23l.24,0L9,23a.22.22,0,0,1,0-.16.22.22,0,0,1,.15-.08l.27,0a.22.22,0,0,1,.23.2l0,.23.24,0a.22.22,0,0,1,.23.2l0,.27a.22.22,0,0,1-.2.23l-.24,0,0,.23a.21.21,0,0,1,0,.16.21.21,0,0,1-.15.08l-.27,0Zm0-.25Zm.27,0h0Zm-.5-.19h0Zm-.24-.43h0Zm.88-.26h0ZM9.24,23h0Zm.23-.05h0ZM6,22.6a.31.31,0,0,1-.31-.28c0-.31,0-.64,0-1A.31.31,0,0,1,6,21l1.48.16a.31.31,0,0,1,.28.3h0c0,.21,0,.43,0,.64a.31.31,0,0,1-.27.33l-1.45.17Zm3.12-.41a.21.21,0,0,1-.21-.2l0-.23-.24,0h0a.22.22,0,0,1-.21-.19l0-.27a.21.21,0,0,1,.2-.23l.24,0,0-.23a.22.22,0,0,1,.2-.23l.27,0a.19.19,0,0,1,.16,0,.21.21,0,0,1,.08.15l0,.23.23,0a.23.23,0,0,1,.16,0,.21.21,0,0,1,.08.15l0,.27a.22.22,0,0,1-.19.23l-.25,0,0,.24a.22.22,0,0,1-.2.23l-.27,0Zm0-.22h0Zm.23-.06h0Zm-.5-.19Zm.67,0h0Zm-.92-.17Zm1.14-.06Zm0-.24h0ZM9.56,21h0Zm-.5-.19h0Zm.23-.05Zm1.8,1.33a.31.31,0,0,1-.31-.28c0-.21-.05-.42-.09-.63a.31.31,0,0,1,.22-.35l1.43-.41a.31.31,0,0,1,.25,0,.31.31,0,0,1,.14.21c.06.37.1.69.13,1a.31.31,0,0,1-.08.23.3.3,0,0,1-.21.11l-1.46.08Zm-5.23-3a.3.3,0,0,1-.13,0,.3.3,0,0,1-.16-.18c-.07-.2-.15-.4-.24-.63a.3.3,0,0,1,0-.24.32.32,0,0,1,.18-.17l1.39-.5a.31.31,0,0,1,.39.17c.09.23.18.45.25.67a.31.31,0,0,1-.19.39h0l-1.12.41L6,19Zm6.23-.55h0l-1.51-.23a.31.31,0,0,1-.26-.29,6.75,6.75,0,0,1,0-.77.31.31,0,0,1,.12-.22.31.31,0,0,1,.25-.06h0l1.47.26a.31.31,0,0,1,.26.31,4.38,4.38,0,0,0,0,.65.31.31,0,0,1-.31.35ZM9,17.66a.22.22,0,0,1-.21-.2l0-.24-.24,0a.24.24,0,0,1-.16-.05.21.21,0,0,1-.08-.15l0-.27a.22.22,0,0,1,.18-.23l.25,0,0-.23a.22.22,0,0,1,.2-.23l.27,0a.22.22,0,0,1,.16,0,.22.22,0,0,1,.08.15l0,.23.25,0a.23.23,0,0,1,.22.2l0,.27a.21.21,0,0,1,0,.16.22.22,0,0,1-.15.08l-.23,0,0,.24a.22.22,0,0,1-.19.23l-.27,0Zm0-.25Zm-.24-.22h0Zm.7-.06ZM8.54,17h0Zm1.13-.13h0Zm-1.16-.14h0Zm1.1-.09Zm-.25-.19Zm-.47-.16h0Zm.23-.05h0Zm-4,1.13a.31.31,0,0,1-.27-.17l-.32-.59a.31.31,0,0,1,.2-.45l1.5-.34a.31.31,0,0,1,.34.16c.12.22.24.45.36.69a.31.31,0,0,1,0,.28.31.31,0,0,1-.22.16l-1.53.25Zm5.55-.67a.31.31,0,0,1-.24-.11.31.31,0,0,1-.07-.25h0a8.6,8.6,0,0,1,.23-.93.31.31,0,0,1,.33-.22l1.5.14a.3.3,0,0,1,.23.14.31.31,0,0,1,0,.27c-.09.28-.16.5-.21.71a.31.31,0,0,1-.3.24l-1.51,0Zm-2.59-.91a.22.22,0,0,1-.22-.2l0-.23-.24,0a.24.24,0,0,1-.16,0,.21.21,0,0,1-.08-.15l0-.27a.21.21,0,0,1,.2-.23l.23,0,0-.24A.22.22,0,0,1,8,14.22l.27,0a.22.22,0,0,1,.23.2l0,.24.23,0a.24.24,0,0,1,.23.2l0,.27a.22.22,0,0,1-.2.23l-.23,0,0,.24a.22.22,0,0,1-.2.23l-.27,0Zm0-.22h0Zm.23-.05Zm-.47-.16h0Zm-.25-.19h0Zm1.13-.13h0ZM7.57,15Zm.25-.27h0Zm.67,0h0ZM4.24,15.74A.31.31,0,0,1,4,15.57q-.13-.26-.25-.52a.31.31,0,0,1,0-.28A.31.31,0,0,1,4,14.61l1.58-.14a.31.31,0,0,1,.3.17c.13.24.26.49.41.75a.19.19,0,0,1-.16.28l-1.84.07ZM6,15.51ZM11.17,15a.31.31,0,0,1-.25-.12.31.31,0,0,1,0-.29l.06-.16.21-.6a.3.3,0,0,1,.29-.21H13a.31.31,0,0,1,.3.4c-.07.22-.13.44-.21.64a.31.31,0,0,1-.26.21L11.2,15Zm-6-.78h0l-1.6-.15a.31.31,0,0,1-.27-.23A7,7,0,0,1,3.1,13a.31.31,0,0,1,.08-.25.31.31,0,0,1,.23-.1h0l1.51.09a.31.31,0,0,1,.29.25h0a4.81,4.81,0,0,0,.24.83.31.31,0,0,1,0,.3A.3.3,0,0,1,5.18,14.24Zm4.51-.18a.22.22,0,0,1-.22-.2l0-.23-.24,0a.24.24,0,0,1-.15,0A.21.21,0,0,1,9,13.46l0-.27a.22.22,0,0,1,.2-.23l.23,0,0-.23a.22.22,0,0,1,.05-.16.21.21,0,0,1,.15-.08l.27,0a.24.24,0,0,1,.16,0,.22.22,0,0,1,.08.15l0,.23.23,0a.23.23,0,0,1,.23.2l0,.27a.22.22,0,0,1-.2.23l-.23,0,0,.24A.21.21,0,0,1,10,14l-.27,0Zm0-.22h0Zm-.27-.25h0Zm.7-.06Zm-.92-.1h0Zm1.13-.13h0Zm-.94-.37h0Zm.67,0h0Zm-.27-.25h0ZM6.83,14a.22.22,0,0,1-.21-.2l0-.24-.24,0h0a.22.22,0,0,1-.22-.2l0-.27a.22.22,0,0,1,.19-.23l.24,0,0-.23a.21.21,0,0,1,0-.16.21.21,0,0,1,.15-.08l.27,0a.22.22,0,0,1,.23.2l0,.24.24,0a.26.26,0,0,1,.16.05A.22.22,0,0,1,7.7,13l0,.27a.22.22,0,0,1-.2.23l-.23,0,0,.24a.22.22,0,0,1-.19.23l-.27,0Zm-.24-.47h0Zm.92-.3h0ZM6.35,13.1h0Zm.38-.45h0Zm.27,0Zm4.68.79a.3.3,0,0,1-.22-.1.31.31,0,0,1-.08-.29h0a6.8,6.8,0,0,0,.13-.74.31.31,0,0,1,.27-.27l1.5-.2a.31.31,0,0,1,.35.33c0,.24,0,.47-.08.7a.31.31,0,0,1-.25.26l-1.57.3Zm-6.86-.94H4.75l-1.5-.38A.31.31,0,0,1,3,11.79c0-.27,0-.55,0-.85a.31.31,0,0,1,.39-.3L4.92,11a.31.31,0,0,1,.23.32h0c0,.27,0,.54,0,.8A.31.31,0,0,1,5,12.4.32.32,0,0,1,4.82,12.47Zm1.6-.37a.22.22,0,0,1-.22-.2l0-.23-.24,0a.23.23,0,0,1-.23-.2l0-.27a.21.21,0,0,1,.2-.23l.24,0,0-.24a.21.21,0,0,1,.2-.23l.27,0a.23.23,0,0,1,.16,0,.22.22,0,0,1,.08.15l0,.23.23,0h0a.22.22,0,0,1,.22.2l0,.27a.22.22,0,0,1,0,.16.22.22,0,0,1-.15.08l-.23,0,0,.24a.22.22,0,0,1-.2.23l-.27,0Zm0-.22h0Zm.23-.06h0Zm.19-.25Zm.22-.24h0ZM7,11.11H7Zm-.22-.16h0Zm-.27-.25h0ZM10,12.09a.22.22,0,0,1-.22-.2l0-.24-.24,0h0a.22.22,0,0,1-.22-.2l0-.27a.22.22,0,0,1,.05-.16A.21.21,0,0,1,9.44,11l.23,0,0-.24a.22.22,0,0,1,.2-.23l.27,0a.22.22,0,0,1,.23.2l0,.24.24,0a.2.2,0,0,1,.16,0,.22.22,0,0,1,.08.15l0,.27a.21.21,0,0,1-.2.23l-.24,0,0,.23a.22.22,0,0,1-.19.23l-.27,0Zm.23-.24h0Zm-.47-.23h0Zm-.27-.39h0ZM9.71,11Zm.16-.22h0Zm2,1a.31.31,0,0,1-.31-.31c0-.26,0-.51,0-.76v0a.3.3,0,0,1,.21-.31l1.44-.46a.31.31,0,0,1,.26,0,.32.32,0,0,1,.14.23h0l0,.37c0,.16,0,.3,0,.45a.31.31,0,0,1-.21.31L12,11.77Zm-7-1-.13,0L3.24,10a.31.31,0,0,1-.18-.31c0-.29.06-.59.11-.87a.31.31,0,0,1,.17-.23.32.32,0,0,1,.28,0l1.55.82a.31.31,0,0,1,.16.33c0,.23-.08.47-.11.72a.31.31,0,0,1-.31.27Zm4.43-.58a.21.21,0,0,1-.14-.05A.22.22,0,0,1,9.14,10l0-.23-.24,0a.23.23,0,0,1-.23-.2l0-.27a.21.21,0,0,1,0-.16.22.22,0,0,1,.15-.08l.23,0,0-.24a.22.22,0,0,1,.2-.23l.27,0a.25.25,0,0,1,.16,0,.22.22,0,0,1,.08.15l0,.23L10,9a.24.24,0,0,1,.16,0,.21.21,0,0,1,.08.15l0,.27a.22.22,0,0,1-.2.23l-.23,0,0,.23a.21.21,0,0,1-.2.23l-.27,0Zm0-.22h0Zm.4-.27h0ZM8.9,9.56h0ZM10,9.43h0Zm-1.18-.1h0ZM10,9.23Zm-.92-.17h0ZM9.72,9Zm-.47-.16h0Zm.23-.05h0ZM7,10.13a.21.21,0,0,1-.21-.19l0-.24-.24,0a.23.23,0,0,1-.16,0,.22.22,0,0,1-.08-.15l0-.27A.21.21,0,0,1,6.46,9l.23,0,0-.24a.22.22,0,0,1,0-.16.22.22,0,0,1,.15-.08l.27,0a.23.23,0,0,1,.16,0,.22.22,0,0,1,.08.15l0,.23.23,0a.2.2,0,0,1,.23.2l0,.27a.22.22,0,0,1-.19.23l-.24,0,0,.24a.22.22,0,0,1-.2.23l-.27,0Zm.27-.27h0ZM6.53,9.5h0Zm1.1-.09Zm0-.27h0ZM7.39,9Zm-.27-.25h0Zm4.62,1.4a.31.31,0,0,1-.14,0,.31.31,0,0,1-.17-.23h0q0-.33-.11-.66a.31.31,0,0,1,.14-.32L12.81,8a.3.3,0,0,1,.28,0,.31.31,0,0,1,.18.22q.08.38.15.78a.31.31,0,0,1-.16.32l-1.38.75A.3.3,0,0,1,11.75,10.12Zm-6.51-1A.32.32,0,0,1,5,9.08L3.56,7.89a.31.31,0,0,1-.1-.33,9.09,9.09,0,0,1,.32-.93A.31.31,0,0,1,4,6.45a.31.31,0,0,1,.28.08L5.68,7.91a.31.31,0,0,1,.07.33h0c-.08.21-.16.44-.22.67a.31.31,0,0,1-.2.21Zm6.18-.57h-.08a.31.31,0,0,1-.22-.21h0c-.06-.2-.12-.4-.18-.58a.31.31,0,0,1,.05-.3l1.12-1.35a.31.31,0,0,1,.52.08c.12.27.22.55.32.84a.31.31,0,0,1-.08.32L11.63,8.49A.31.31,0,0,1,11.42,8.57ZM8.28,8.33a.21.21,0,0,1-.22-.2L8,7.9l-.23,0a.19.19,0,0,1-.16,0,.22.22,0,0,1-.08-.15l0-.27a.22.22,0,0,1,.2-.23L8,7.2,8,7a.22.22,0,0,1,.2-.23l.27,0a.2.2,0,0,1,.23.19l0,.24.23,0a.22.22,0,0,1,.23.2l0,.27a.21.21,0,0,1,0,.16A.21.21,0,0,1,9,7.82l-.23,0,0,.24a.21.21,0,0,1-.2.23l-.26,0Zm.26-.27h0Zm-.72-.35h0ZM9,7.57H9Zm-1.18-.1h0ZM8.9,7.34h0Zm-3,.22a.31.31,0,0,1-.26-.13L4.43,5.73a.31.31,0,0,1,0-.35,5.81,5.81,0,0,1,.72-.89A.32.32,0,0,1,5.4,4.4a.31.31,0,0,1,.23.16l1,1.85a.31.31,0,0,1,0,.34,4.54,4.54,0,0,0-.44.65.31.31,0,0,1-.25.16ZM10.8,7a.31.31,0,0,1-.27-.15h0a3.38,3.38,0,0,0-.41-.58A.31.31,0,0,1,10.06,6l.65-1.83A.31.31,0,0,1,11.21,4a5.48,5.48,0,0,1,.74.89.31.31,0,0,1,0,.32l-.9,1.62a.31.31,0,0,1-.27.16ZM7.05,6.2l-.1,0a.31.31,0,0,1-.2-.2L6.13,4a.31.31,0,0,1,.15-.36A5,5,0,0,1,7.34,3.2a.3.3,0,0,1,.24,0,.31.31,0,0,1,.14.2l.42,2a.31.31,0,0,1-.2.36h0a2.69,2.69,0,0,0-.7.36A.31.31,0,0,1,7.05,6.2Zm2.49-.4-.12,0a1.7,1.7,0,0,0-.82-.12.24.24,0,0,1-.15,0,.18.18,0,0,1-.07-.14l0-2.15a.31.31,0,0,1,.09-.22A.31.31,0,0,1,8.64,3H8.7A3.49,3.49,0,0,1,10,3.23a.31.31,0,0,1,.19.33l-.31,2a.31.31,0,0,1-.31.26Zm-.91-.34h0ZM8.56,5.4h0Z"/><path class="c" d="M19.83,34.86h0a3,3,0,0,0,2.06-.79.31.31,0,0,0,0-.41L21,32.39a.31.31,0,0,0-.23-.13.32.32,0,0,0-.25.1h0a1.14,1.14,0,0,1-.75.39.31.31,0,0,0-.27.31v1.49a.32.32,0,0,0,.09.22A.31.31,0,0,0,19.83,34.86Zm-1.05-.09a.32.32,0,0,0,.17-.05.31.31,0,0,0,.13-.2l.27-1.47a.31.31,0,0,0-.22-.35,1.14,1.14,0,0,1-.67-.51.32.32,0,0,0-.23-.14.3.3,0,0,0-.25.08l-1.12,1.09a.31.31,0,0,0,0,.41,3,3,0,0,0,1.89,1.14Zm3.57-1.56h.06a.31.31,0,0,0,.22-.17,6.34,6.34,0,0,0,.49-1.63.31.31,0,0,0-.21-.35l-1.4-.44a.3.3,0,0,0-.26,0,.31.31,0,0,0-.14.21,4.49,4.49,0,0,1-.2.83A.31.31,0,0,0,21,32l1.15,1.1A.31.31,0,0,0,22.35,33.21Zm-5.77-.5a.31.31,0,0,0,.17-.05l1.32-.88a.31.31,0,0,0,.13-.31,4.6,4.6,0,0,1-.05-.86.31.31,0,0,0-.35-.31l-1.45.19a.31.31,0,0,0-.27.31,6.38,6.38,0,0,0,.2,1.69.31.31,0,0,0,.19.21Zm3.07-.35a.21.21,0,0,0,.14-.05.21.21,0,0,0,.08-.15l0-.24.23,0h0a.22.22,0,0,0,.22-.2l0-.27a.22.22,0,0,0-.19-.23l-.24,0L20,31a.22.22,0,0,0,0-.16.22.22,0,0,0-.15-.08l-.27,0a.22.22,0,0,0-.23.2l0,.23-.24,0a.22.22,0,0,0-.23.2l0,.27a.22.22,0,0,0,.2.23l.24,0,0,.23a.21.21,0,0,0,0,.16.21.21,0,0,0,.15.08l.27,0Zm0-.25Zm-.27,0h0Zm.5-.19h0Zm.24-.43h0Zm-.88-.26h0Zm.5-.19h0ZM19.51,31h0Zm3.44-.34a.31.31,0,0,0,.31-.28c0-.31,0-.64,0-1A.31.31,0,0,0,23,29l-1.48.16a.31.31,0,0,0-.28.3h0c0,.21,0,.43,0,.64a.31.31,0,0,0,.27.33l1.45.17Zm-3.12-.41A.21.21,0,0,0,20,30l0-.23.24,0h0a.22.22,0,0,0,.21-.19l0-.27a.21.21,0,0,0-.2-.23l-.24,0,0-.23a.22.22,0,0,0-.2-.23l-.27,0a.19.19,0,0,0-.16,0,.21.21,0,0,0-.08.15l0,.23-.23,0A.23.23,0,0,0,19,29a.21.21,0,0,0-.08.15l0,.27a.22.22,0,0,0,.19.23l.25,0,0,.24a.22.22,0,0,0,.2.23l.27,0Zm0-.22h0Zm-.23-.06h0Zm.5-.19Zm-.67,0h0Zm.92-.17Zm-1.14-.06Zm0-.24h0Zm.25-.2h0Zm.5-.19h0Zm-.23-.05Zm-1.8,1.33a.31.31,0,0,0,.31-.28c0-.21.05-.42.09-.63a.31.31,0,0,0-.22-.35l-1.43-.41a.31.31,0,0,0-.25,0,.31.31,0,0,0-.14.21c-.06.37-.1.69-.13,1a.31.31,0,0,0,.08.23.3.3,0,0,0,.21.11l1.46.08Zm5.23-3a.3.3,0,0,0,.13,0,.3.3,0,0,0,.16-.18c.07-.2.15-.4.24-.63a.3.3,0,0,0,0-.24.32.32,0,0,0-.18-.17l-1.39-.5a.31.31,0,0,0-.39.17c-.09.23-.18.45-.25.67a.31.31,0,0,0,.19.39h0l1.12.41.27.1Zm-6.23-.55h0l1.51-.23a.31.31,0,0,0,.26-.29,6.75,6.75,0,0,0,0-.77A.31.31,0,0,0,18.6,25a.31.31,0,0,0-.25-.06h0l-1.47.26a.31.31,0,0,0-.26.31,4.38,4.38,0,0,1,0,.65.31.31,0,0,0,.31.35ZM20,25.68a.22.22,0,0,0,.21-.2l0-.24.24,0a.24.24,0,0,0,.16-.05.21.21,0,0,0,.08-.15l0-.27a.22.22,0,0,0-.18-.23l-.25,0,0-.23a.22.22,0,0,0-.2-.23l-.27,0a.22.22,0,0,0-.16,0,.22.22,0,0,0-.08.15l0,.23-.25,0a.23.23,0,0,0-.22.2l0,.27a.21.21,0,0,0,0,.16.22.22,0,0,0,.15.08l.23,0,0,.24a.22.22,0,0,0,.19.23l.27,0Zm0-.25Zm.24-.22h0Zm-.7-.06Zm.92-.1h0Zm-1.13-.13h0Zm1.16-.14h0Zm-1.1-.09Zm.25-.19Zm.47-.16h0Zm-.23-.05h0Zm4,1.13a.31.31,0,0,0,.27-.17l.32-.59a.31.31,0,0,0-.2-.45l-1.5-.34a.31.31,0,0,0-.34.16c-.12.22-.24.45-.36.69a.31.31,0,0,0,0,.28.31.31,0,0,0,.22.16l1.53.25Zm-5.55-.67a.31.31,0,0,0,.24-.11.31.31,0,0,0,.07-.25h0a8.6,8.6,0,0,0-.23-.93.31.31,0,0,0-.33-.22l-1.5.14a.3.3,0,0,0-.23.14.31.31,0,0,0,0,.27c.09.28.16.5.21.71a.31.31,0,0,0,.3.24l1.51,0Zm2.59-.91a.22.22,0,0,0,.22-.2l0-.23.24,0a.24.24,0,0,0,.16,0,.21.21,0,0,0,.08-.15l0-.27a.21.21,0,0,0-.2-.23l-.23,0,0-.24a.22.22,0,0,0-.19-.23l-.27,0a.22.22,0,0,0-.23.2l0,.24-.23,0a.24.24,0,0,0-.23.2l0,.27a.22.22,0,0,0,.2.23l.23,0,0,.24a.22.22,0,0,0,.2.23l.27,0Zm0-.22h0Zm-.23-.05Zm.47-.16h0Zm.25-.19h0Zm-1.13-.13h0Zm1.19-.1Zm-.25-.27h0Zm-.67,0h0Zm4.25,1.08a.31.31,0,0,0,.28-.17q.13-.26.25-.52a.31.31,0,0,0,0-.28.31.31,0,0,0-.24-.15l-1.58-.14a.31.31,0,0,0-.3.17c-.12.24-.26.49-.41.75a.19.19,0,0,0,.16.28l1.84.07ZM23,23.53ZM17.81,23a.31.31,0,0,0,.25-.12.31.31,0,0,0,0-.29L18,22.47l-.21-.6a.3.3,0,0,0-.29-.21H16a.31.31,0,0,0-.3.4c.07.22.13.44.21.64a.31.31,0,0,0,.26.21l1.62.15Zm6-.78h0l1.6-.15a.31.31,0,0,0,.27-.23,7,7,0,0,0,.17-.86.31.31,0,0,0-.08-.25.31.31,0,0,0-.23-.1h0L24,20.76a.31.31,0,0,0-.29.25h0a4.81,4.81,0,0,1-.24.83.31.31,0,0,0,0,.3A.3.3,0,0,0,23.8,22.26Zm-4.51-.18a.22.22,0,0,0,.22-.2l0-.23.24,0a.24.24,0,0,0,.15,0,.21.21,0,0,0,.08-.15l0-.27a.22.22,0,0,0-.2-.23l-.23,0,0-.23a.22.22,0,0,0-.05-.16.21.21,0,0,0-.15-.08l-.27,0a.24.24,0,0,0-.16,0,.22.22,0,0,0-.08.15l0,.23-.23,0a.23.23,0,0,0-.23.2l0,.27a.22.22,0,0,0,.2.23l.23,0,0,.24a.21.21,0,0,0,.2.23l.27,0Zm0-.22h0Zm.27-.25h0Zm-.7-.06Zm.92-.1h0Zm-1.13-.13h0Zm.94-.37h0Zm-.67,0h0Zm.27-.25h0Zm3,1.33a.22.22,0,0,0,.21-.2l0-.24.24,0h0a.22.22,0,0,0,.22-.2l0-.27a.22.22,0,0,0-.19-.23l-.24,0,0-.23a.21.21,0,0,0,0-.16.21.21,0,0,0-.15-.08l-.27,0a.22.22,0,0,0-.23.2l0,.24-.24,0a.26.26,0,0,0-.16.05.22.22,0,0,0-.08.15l0,.27a.22.22,0,0,0,.2.23l.23,0,0,.24a.22.22,0,0,0,.19.23l.27,0Zm.24-.47h0Zm-.92-.3h0Zm1.16-.14h0Zm-.38-.45h0Zm-.27,0Zm-4.68.79a.3.3,0,0,0,.22-.1A.31.31,0,0,0,17.6,21h0a6.8,6.8,0,0,1-.13-.74A.31.31,0,0,0,17.2,20l-1.5-.2a.31.31,0,0,0-.35.33c0,.24,0,.47.08.7a.31.31,0,0,0,.25.26l1.57.3Zm6.86-.94h.07l1.5-.38a.31.31,0,0,0,.23-.29c0-.27,0-.55,0-.85a.31.31,0,0,0-.39-.3l-1.53.39a.31.31,0,0,0-.23.32h0c0,.27,0,.54,0,.8a.31.31,0,0,0,.11.25A.32.32,0,0,0,24.16,20.49Zm-1.6-.37a.22.22,0,0,0,.22-.2l0-.23.24,0a.23.23,0,0,0,.23-.2l0-.27a.21.21,0,0,0-.2-.23l-.24,0,0-.24a.21.21,0,0,0-.2-.23l-.27,0a.23.23,0,0,0-.16,0,.22.22,0,0,0-.08.15l0,.23-.23,0h0a.22.22,0,0,0-.22.2l0,.27a.22.22,0,0,0,0,.16.22.22,0,0,0,.15.08l.23,0,0,.24a.22.22,0,0,0,.2.23l.27,0Zm0-.22h0Zm-.23-.06h0Zm-.19-.25Zm-.22-.24h0Zm.06-.23h0Zm.22-.16h0Zm.27-.25h0ZM19,20.11a.22.22,0,0,0,.22-.2l0-.24.24,0h0a.22.22,0,0,0,.22-.2l0-.27a.22.22,0,0,0-.05-.16.21.21,0,0,0-.15-.07l-.23,0,0-.24a.22.22,0,0,0-.2-.23l-.27,0a.22.22,0,0,0-.23.2l0,.24-.24,0a.2.2,0,0,0-.16,0,.22.22,0,0,0-.08.15l0,.27a.21.21,0,0,0,.2.23l.24,0,0,.23a.22.22,0,0,0,.19.23l.27,0Zm-.23-.24h0Zm.47-.23h0Zm.27-.39h0ZM19.28,19Zm-.16-.22h0Zm-2,1a.31.31,0,0,0,.31-.31c0-.26,0-.51,0-.76v0a.3.3,0,0,0-.21-.31l-1.44-.46a.31.31,0,0,0-.26,0,.32.32,0,0,0-.14.23h0l0,.37c0,.16,0,.3,0,.45a.31.31,0,0,0,.21.31l1.47.49Zm7-1,.13,0L25.74,18a.31.31,0,0,0,.18-.31c0-.29-.06-.59-.11-.87a.31.31,0,0,0-.17-.23.32.32,0,0,0-.28,0l-1.55.82a.31.31,0,0,0-.16.33c0,.23.08.47.11.72a.31.31,0,0,0,.31.27Zm-4.43-.58a.21.21,0,0,0,.14-.05.22.22,0,0,0,.08-.15l0-.23.24,0a.23.23,0,0,0,.23-.2l0-.27a.21.21,0,0,0,0-.16.22.22,0,0,0-.15-.08l-.23,0,0-.24a.22.22,0,0,0-.2-.23l-.27,0a.25.25,0,0,0-.16,0,.22.22,0,0,0-.08.15l0,.23L19,17a.24.24,0,0,0-.16,0,.21.21,0,0,0-.08.15l0,.27a.22.22,0,0,0,.2.23l.23,0,0,.23a.21.21,0,0,0,.2.23l.27,0Zm0-.22h0Zm-.4-.27h0Zm.88-.14h0ZM19,17.45h0Zm1.18-.1h0ZM19,17.25Zm.92-.17h0ZM19.27,17Zm.47-.16h0Zm-.23-.05h0ZM22,18.14a.21.21,0,0,0,.21-.19l0-.24.24,0a.23.23,0,0,0,.16,0,.22.22,0,0,0,.08-.15l0-.27a.21.21,0,0,0-.2-.23l-.23,0,0-.24a.22.22,0,0,0,0-.16.22.22,0,0,0-.15-.08l-.27,0a.23.23,0,0,0-.16,0,.22.22,0,0,0-.08.15l0,.23-.23,0a.2.2,0,0,0-.23.2l0,.27a.22.22,0,0,0,.19.23l.24,0,0,.24a.22.22,0,0,0,.2.23l.27,0Zm-.27-.27h0Zm.72-.36h0Zm-1.1-.09Zm0-.27h0Zm.21-.16Zm.27-.25h0Zm-4.62,1.4a.31.31,0,0,0,.14,0,.31.31,0,0,0,.17-.23h0q0-.33.11-.66a.31.31,0,0,0-.14-.32l-1.34-.84a.3.3,0,0,0-.28,0,.31.31,0,0,0-.18.22q-.08.38-.15.78a.31.31,0,0,0,.16.32l1.38.75A.3.3,0,0,0,17.24,18.14Zm6.51-1a.32.32,0,0,0,.19-.07l1.49-1.18a.31.31,0,0,0,.1-.33,9.09,9.09,0,0,0-.32-.93.31.31,0,0,0-.22-.19.31.31,0,0,0-.28.08L23.3,15.93a.31.31,0,0,0-.07.33h0c.08.21.16.44.22.67a.31.31,0,0,0,.2.21Zm-6.18-.57h.08a.31.31,0,0,0,.22-.21h0c.06-.2.12-.4.18-.58a.31.31,0,0,0-.05-.3l-1.12-1.35a.31.31,0,0,0-.52.08c-.12.27-.22.55-.32.84a.31.31,0,0,0,.08.32l1.23,1.13A.31.31,0,0,0,17.56,16.58Zm3.14-.23a.21.21,0,0,0,.22-.2l0-.24.23,0a.19.19,0,0,0,.16,0,.22.22,0,0,0,.08-.15l0-.27a.22.22,0,0,0-.2-.23l-.23,0L21,15a.22.22,0,0,0-.2-.23l-.27,0a.2.2,0,0,0-.23.19l0,.24-.23,0a.22.22,0,0,0-.23.2l0,.27a.21.21,0,0,0,0,.16.21.21,0,0,0,.15.08l.23,0,0,.24a.21.21,0,0,0,.2.23l.26,0Zm-.26-.27h0Zm.72-.35h0ZM20,15.59h0Zm1.18-.1h0Zm-1.13-.13h0Zm3,.22a.31.31,0,0,0,.26-.13l1.19-1.7a.31.31,0,0,0,0-.35,5.81,5.81,0,0,0-.72-.89.32.32,0,0,0-.27-.09.31.31,0,0,0-.23.16l-1,1.85a.31.31,0,0,0,0,.34,4.54,4.54,0,0,1,.44.65.31.31,0,0,0,.25.16Zm-4.92-.53a.31.31,0,0,0,.27-.15h0a3.38,3.38,0,0,1,.41-.58.31.31,0,0,0,.06-.31l-.65-1.83a.31.31,0,0,0-.51-.12,5.48,5.48,0,0,0-.74.89.31.31,0,0,0,0,.32l.9,1.62a.31.31,0,0,0,.27.16Zm3.75-.83.1,0a.31.31,0,0,0,.2-.2l.63-2a.31.31,0,0,0-.15-.36,5,5,0,0,0-1.06-.43.3.3,0,0,0-.24,0,.31.31,0,0,0-.14.2l-.42,2a.31.31,0,0,0,.2.36h0a2.69,2.69,0,0,1,.7.36A.31.31,0,0,0,21.93,14.22Zm-2.49-.4.12,0a1.7,1.7,0,0,1,.82-.12.24.24,0,0,0,.15,0,.18.18,0,0,0,.07-.14l0-2.15a.31.31,0,0,0-.09-.22.31.31,0,0,0-.22-.09h-.06a3.49,3.49,0,0,0-1.26.23.31.31,0,0,0-.19.33l.31,2a.31.31,0,0,0,.31.26Zm.91-.34h0Zm.07-.06h0Z"/></svg>