<?xml version="1.0" encoding="utf-8"?>
<!-- Generator: Adobe Illustrator 20.1.0, SVG Export Plug-In . SVG Version: 6.00 Build 0)  -->
<svg version="1.1" id="Layer_1" xmlns="http://www.w3.org/2000/svg" xmlns:xlink="http://www.w3.org/1999/xlink" x="0px" y="0px"
	 viewBox="0 0 29 37.9" style="enable-background:new 0 0 29 37.9;" xml:space="preserve">
<style type="text/css">
	.st0{opacity:0.8;}
	.st1{fill:#FFFFFF;}
	.st2{fill:#FFAB24;}
</style>
<title>Asset 30</title>
<g class="st0">
	<path class="st1" d="M9.1,28.4c-1.1,0-2.2-0.4-3.1-1.2c-0.2-0.2-0.4-0.5-0.5-0.8c-0.2-0.2-0.4-0.4-0.6-0.7c-0.3-0.6-0.5-1.3-0.6-2
		c0-0.2,0-0.4,0-0.6c-0.1-0.2-0.1-0.4-0.2-0.6c0-0.3,0-0.7-0.1-1.1c0-0.5,0.2-0.9,0.5-1.2c-0.2-0.2-0.4-0.5-0.5-0.8
		c0-0.1-0.1-0.3-0.2-0.5c-0.1-0.2-0.1-0.3-0.1-0.5c-0.1-0.1-0.2-0.3-0.3-0.4l-0.3-0.6C3.1,17.2,3.1,17,3,16.8
		c-0.2-0.1-0.3-0.3-0.4-0.5c-0.1-0.2-0.2-0.4-0.3-0.6c-0.1-0.2-0.2-0.5-0.2-0.7c-0.2-0.2-0.3-0.4-0.4-0.7c-0.1-0.3-0.2-0.7-0.2-1.1
		c0-0.2,0-0.5,0-0.7c-0.1-0.2-0.1-0.4-0.1-0.7c0-0.3,0-0.6,0-0.9c0-0.2,0.1-0.5,0.1-0.7C1.6,10,1.5,9.8,1.5,9.6c0-0.3,0.1-0.7,0.1-1
		C1.7,8.3,1.8,8.1,2,7.9C1.9,7.7,1.9,7.4,2,7.2c0.1-0.4,0.2-0.7,0.4-1.1c0.1-0.3,0.3-0.5,0.5-0.7c0-0.3,0.1-0.6,0.3-0.8
		c0.3-0.4,0.6-0.8,0.9-1.1C4.3,3.2,4.6,3.1,4.9,3C5,2.7,5.3,2.5,5.6,2.3C6,2.1,6.5,1.9,6.9,1.8c0.2,0,0.3-0.1,0.5-0.1
		c0.1,0,0.2,0,0.4,0C8,1.6,8.3,1.5,8.6,1.5l0,0c0.6,0,1.3,0.1,1.9,0.3c0.3,0.1,0.6,0.4,0.8,0.6C11.7,2.5,12,2.7,12.2,3
		c0.4,0.3,0.7,0.7,1,1.1c0.2,0.2,0.3,0.5,0.3,0.8c0.2,0.2,0.4,0.4,0.5,0.7c0.1,0.3,0.3,0.6,0.4,1c0.1,0.2,0.1,0.5,0.1,0.7
		c0.1,0.2,0.2,0.4,0.3,0.6c0.1,0.3,0.1,0.6,0.2,0.9c0,0.2,0,0.4,0,0.6c0.1,0.2,0.1,0.4,0.2,0.6v0.4c0,0.2,0,0.4,0,0.5
		c0,0.2,0,0.5-0.1,0.7c0.1,0.2,0.1,0.4,0.1,0.7c0,0.3-0.1,0.6-0.1,0.9c0,0.2-0.1,0.5-0.2,0.7c0,0.2,0,0.5-0.1,0.7
		c-0.1,0.2-0.1,0.5-0.2,0.7c-0.1,0.2-0.2,0.4-0.3,0.5c0,0.2,0,0.4-0.1,0.5c-0.1,0.2-0.1,0.4-0.2,0.6c0,0.1-0.1,0.2-0.1,0.4
		c0,0.1,0,0.2,0,0.4c0,0.1,0,0.3,0,0.4c0.1,0.5-0.1,1-0.4,1.3c0.4,0.3,0.6,0.7,0.7,1.1c0.1,0.4,0.1,0.8,0.1,1.1c0,0.2,0,0.4,0,0.6
		c0.1,0.2,0.1,0.4,0.1,0.6c0,0.7-0.1,1.4-0.3,2.1c-0.1,0.3-0.2,0.6-0.4,0.8c0,0.3-0.2,0.6-0.3,0.9c-0.7,0.9-1.7,1.5-2.8,1.7
		c-0.1,0-0.2,0-0.4,0c-0.1,0-0.3,0-0.4,0C9.6,28.4,9.4,28.4,9.1,28.4L9.1,28.4z"/>
	<path class="st1" d="M8.7,3C9.1,3,9.6,3.1,10,3.2c0.1,0.1,0.2,0.2,0.2,0.3l-0.3,2c0,0.2-0.2,0.3-0.3,0.3H9.4C9.2,5.7,9,5.7,8.8,5.7
		H8.6c0,0-0.1,0-0.1,0c0,0-0.1-0.1-0.1-0.1V3.4c0-0.1,0-0.2,0.1-0.2C8.5,3.1,8.6,3,8.7,3L8.7,3 M8.6,5.4L8.6,5.4 M8.6,5.5L8.6,5.5
		 M7.4,3.2c0.1,0,0.1,0,0.2,0c0.1,0,0.1,0.1,0.1,0.2l0.4,2c0,0.2-0.1,0.3-0.2,0.4C7.7,5.8,7.5,6,7.2,6.1c-0.1,0-0.1,0.1-0.2,0.1H7
		C6.9,6.1,6.8,6.1,6.8,6L6.1,4c0-0.1,0-0.3,0.2-0.4C6.6,3.5,7,3.3,7.4,3.2L7.4,3.2 M11,4c0.1,0,0.2,0,0.2,0.1
		c0.3,0.3,0.5,0.6,0.7,0.9c0.1,0.1,0.1,0.2,0,0.3l-0.9,1.6C11,7,10.9,7.1,10.8,7.1l0,0c-0.1,0-0.2-0.1-0.3-0.2
		c-0.1-0.2-0.3-0.4-0.4-0.6C10,6.3,10,6.1,10.1,6l0.6-1.8C10.7,4.1,10.8,4,11,4L11,4 M5.4,4.4L5.4,4.4c0.1,0,0.2,0.1,0.2,0.2l1,1.8
		c0.1,0.1,0.1,0.2,0,0.3C6.4,7,6.3,7.2,6.2,7.4C6.1,7.5,6,7.6,5.9,7.6l0,0c-0.1,0-0.2,0-0.3-0.1L4.4,5.7c-0.1-0.1-0.1-0.2,0-0.3
		c0.2-0.3,0.5-0.6,0.7-0.9C5.2,4.4,5.3,4.4,5.4,4.4 M12.4,6L12.4,6c0.1,0,0.2,0.1,0.2,0.2c0.1,0.3,0.2,0.6,0.3,0.8
		c0,0.1,0,0.2-0.1,0.3l-1.2,1.1c-0.1,0.1-0.1,0.1-0.2,0.1h-0.1c-0.1,0-0.2-0.1-0.2-0.2l0,0C11.1,8.2,11,8,10.9,7.8
		c0-0.1,0-0.2,0.1-0.3l1.1-1.3C12.2,6.1,12.3,6,12.4,6 M4.1,6.4c0.1,0,0.2,0,0.2,0.1l1.4,1.4C5.8,8,5.8,8.1,5.8,8.2l0,0
		C5.7,8.4,5.6,8.7,5.5,8.9c0,0.1-0.1,0.2-0.2,0.2H5.2c-0.1,0-0.2,0-0.2,0L3.6,7.9C3.5,7.8,3.4,7.7,3.5,7.6c0.1-0.3,0.2-0.6,0.3-0.9
		C3.8,6.5,3.9,6.5,4.1,6.4L4.1,6.4 M8.5,6.7c0.1,0,0.2,0.1,0.2,0.2v0.2h0.2l0,0c0.1,0,0.2,0.1,0.2,0.2v0.3c0,0.1,0,0.1,0,0.2
		c0,0-0.1,0-0.1,0H8.8v0.2c0,0.1-0.1,0.2-0.2,0.2c0,0,0,0,0,0H8.3l0,0c-0.1,0-0.2-0.1-0.2-0.2c0,0,0,0,0,0L8,7.9H7.8l0,0
		c0,0-0.1,0-0.1-0.1c0,0-0.1-0.1-0.1-0.2V7.4c0-0.1,0.1-0.2,0.2-0.2H8V7c0-0.1,0.1-0.2,0.2-0.2L8.5,6.7L8.5,6.7 M8.9,7.4L8.9,7.4
		 M7.8,7.5L7.8,7.5 M9,7.6L9,7.6 M7.9,7.7L7.9,7.7 M8.6,8.1L8.6,8.1 M13,8h0.1c0.1,0,0.2,0.1,0.2,0.2c0.1,0.3,0.1,0.5,0.1,0.8
		c0,0.1,0,0.3-0.2,0.3l-1.4,0.8c-0.1,0-0.2,0-0.3,0c-0.1,0-0.2-0.1-0.2-0.2l0,0c0-0.2,0-0.4-0.1-0.7c0-0.1,0-0.3,0.1-0.3L12.8,8
		C12.9,8,12.9,8,13,8 M7.1,8.5c0.1,0,0.1,0,0.2,0c0,0,0.1,0.1,0.1,0.1v0.2h0.2l0,0c0.1,0,0.2,0.1,0.2,0.2v0.3c0,0.1-0.1,0.2-0.2,0.2
		H7.4v0.2c0,0.1-0.1,0.2-0.2,0.2H6.9H7c-0.1,0-0.2-0.1-0.2-0.2V9.6H6.6l0,0c0,0-0.1,0-0.2,0c0,0-0.1-0.1-0.1-0.1V9.2
		C6.3,9.1,6.4,9,6.5,9h0.2V8.8c0-0.1,0-0.1,0-0.2c0,0,0.1-0.1,0.2-0.1L7.1,8.5 M7.1,8.7L7.1,8.7 M7.6,9.2L7.6,9.2 M6.5,9.5L6.5,9.5
		 M7.2,9.9L7.2,9.9 M9.5,8.6c0.1,0,0.1,0,0.2,0c0,0,0.1,0.1,0.1,0.1v0.2L10,9c0.1,0,0.1,0,0.2,0c0,0,0.1,0.1,0.1,0.1v0.3
		c0,0.1-0.1,0.2-0.2,0.2H9.8v0.2c0,0.1-0.1,0.2-0.2,0.2c0,0,0,0,0,0H9.3l0,0c-0.1,0-0.1,0-0.1-0.1c0,0,0,0-0.1-0.1V9.8H8.9
		c-0.1,0-0.2-0.1-0.2-0.2V9.3c0-0.1,0-0.1,0-0.2c0,0,0.1-0.1,0.1-0.1h0.2V8.8c0-0.1,0.1-0.2,0.2-0.2L9.5,8.6 M9.5,8.8L9.5,8.8
		 M9.3,8.9L9.3,8.9 M9.1,9.1L9.1,9.1 M8.9,9.4L8.9,9.4 M10.1,9.5L10.1,9.5 M8.9,9.6L8.9,9.6 M9.8,9.7L9.8,9.7 M9.4,10L9.4,10
		 M3.5,8.6c0,0,0.1,0,0.1,0l1.5,0.8c0.1,0.1,0.2,0.2,0.2,0.3c0,0.2-0.1,0.5-0.1,0.7c0,0.2-0.2,0.3-0.3,0.3H4.8L3.2,10
		C3.1,9.9,3,9.8,3.1,9.7c0-0.3,0.1-0.6,0.1-0.9c0-0.1,0.1-0.2,0.2-0.2C3.4,8.6,3.4,8.6,3.5,8.6 M13.3,9.9c0.2,0,0.3,0.1,0.3,0.3l0,0
		v0.4c0,0.2,0,0.3,0,0.4c0,0.1-0.1,0.3-0.2,0.3L12,11.8h-0.1c-0.2,0-0.3-0.1-0.3-0.3v0c0-0.3,0-0.5,0-0.8l0,0c0-0.1,0.1-0.3,0.2-0.3
		L13.3,9.9L13.3,9.9 M10.2,10.5c0.1,0,0.2,0.1,0.2,0.2V11h0.2l0,0c0,0,0.1,0,0.1,0.1c0,0,0.1,0.1,0.1,0.1v0.3c0,0.1-0.1,0.2-0.2,0.2
		c0,0,0,0,0,0h-0.2v0.2c0,0.1-0.1,0.2-0.2,0.2H9.9l0,0c-0.1,0-0.2-0.1-0.2-0.2v-0.2H9.5l0,0c-0.1,0-0.2-0.1-0.2-0.2v-0.3
		c0-0.1,0-0.1,0.1-0.2c0,0,0.1,0,0.1,0h0.2v-0.2c0-0.1,0.1-0.2,0.2-0.2L10.2,10.5L10.2,10.5 M9.9,10.8L9.9,10.8 M9.5,11.3L9.5,11.3
		 M9.8,11.7L9.8,11.7 M10.2,11.9L10.2,11.9 M6.6,10.5c0,0,0.1,0,0.2,0c0,0,0.1,0.1,0.1,0.1v0.2H7l0,0c0.1,0,0.2,0.1,0.2,0.2v0.3
		c0,0.1,0,0.1,0,0.2c0,0-0.1,0.1-0.2,0.1H6.9v0.2c0,0.1-0.1,0.2-0.2,0.2H6.4l0,0c-0.1,0-0.2-0.1-0.2-0.2v-0.2H6l0,0
		c-0.1,0-0.2-0.1-0.2-0.2v-0.3c0-0.1,0.1-0.2,0.2-0.2c0,0,0,0,0,0h0.2v-0.2c0-0.1,0.1-0.2,0.2-0.2c0,0,0,0,0,0L6.6,10.5L6.6,10.5
		 M6.6,10.7L6.6,10.7 M6.9,10.9L6.9,10.9 M7.1,11.1H7 M7.1,11.3L7.1,11.3 M6.6,11.8L6.6,11.8 M6.4,11.8L6.4,11.8 M3.3,10.6L3.3,10.6
		L4.9,11c0.1,0,0.2,0.2,0.2,0.3l0,0c0,0.3,0,0.5,0,0.8c0,0.1-0.1,0.2-0.2,0.3c-0.1,0-0.1,0.1-0.2,0.1H4.8l-1.5-0.4
		c-0.1,0-0.2-0.2-0.2-0.3c0-0.3,0-0.6,0-0.9C3,10.8,3.1,10.6,3.3,10.6L3.3,10.6 M13.3,11.8c0.2,0,0.3,0.1,0.3,0.3c0,0,0,0,0,0
		c0,0.2,0,0.5-0.1,0.7c0,0.1-0.1,0.2-0.2,0.3l-1.6,0.3h-0.1c-0.1,0-0.2,0-0.2-0.1c-0.1-0.1-0.1-0.2-0.1-0.3c0.1-0.2,0.1-0.5,0.1-0.7
		c0-0.1,0.1-0.3,0.3-0.3L13.3,11.8L13.3,11.8 M7,12.4c0.1,0,0.2,0.1,0.2,0.2v0.2h0.2c0.1,0,0.1,0,0.2,0.1c0,0,0.1,0.1,0.1,0.1v0.3
		c0,0.1-0.1,0.2-0.2,0.2H7.3v0.2c0,0.1-0.1,0.2-0.2,0.2H6.8l0,0c-0.1,0-0.2-0.1-0.2-0.2v-0.2H6.4l0,0c-0.1,0-0.2-0.1-0.2-0.2v-0.3
		c0-0.1,0.1-0.2,0.2-0.2h0.2v-0.2c0-0.1,0-0.1,0-0.2c0,0,0.1-0.1,0.2-0.1L7,12.4L7,12.4 M6.7,12.6L6.7,12.6 M6.4,13.1L6.4,13.1
		 M7.5,13.2L7.5,13.2 M6.6,13.5L6.6,13.5 M9.9,12.4c0.1,0,0.1,0,0.2,0c0,0,0.1,0.1,0.1,0.1v0.2h0.2l0,0c0.1,0,0.2,0.1,0.2,0.2v0.3
		c0,0.1-0.1,0.2-0.2,0.2h-0.2v0.2c0,0.1,0,0.2-0.1,0.2H9.7l0,0c-0.1,0-0.2-0.1-0.2-0.2v-0.2H9.3c0,0-0.1,0-0.1,0
		c-0.1,0-0.1-0.1-0.1-0.1v-0.3C9,13.1,9.1,13,9.2,13h0.2v-0.2c0-0.1,0-0.1,0.1-0.2c0,0,0.1-0.1,0.1-0.1L9.9,12.4 M9.9,12.7L9.9,12.7
		 M10.2,13L10.2,13 M9.5,13L9.5,13 M10.4,13.3L10.4,13.3 M9.3,13.5L9.3,13.5 M9.5,13.6L9.5,13.6 M9.8,13.9L9.8,13.9 M3.5,12.7
		L5,12.8c0.1,0,0.3,0.1,0.3,0.2c0.1,0.3,0.1,0.6,0.2,0.8c0.1,0.1,0.1,0.2,0,0.3c-0.1,0.1-0.1,0.1-0.2,0.1l0,0l-1.6-0.1
		c-0.1,0-0.2-0.1-0.3-0.2c-0.1-0.3-0.2-0.6-0.3-0.9c0-0.1,0-0.2,0.1-0.2c0.1-0.1,0.1-0.1,0.2-0.1l0,0 M13,13.6
		c0.2,0,0.3,0.1,0.3,0.3c0,0,0,0.1,0,0.1c-0.1,0.2-0.1,0.4-0.2,0.6c0,0.1-0.1,0.2-0.3,0.2L11.2,15l0,0c-0.1,0-0.2,0-0.2-0.1
		c0-0.1,0-0.2,0-0.3l0.1-0.2l0.2-0.6c0-0.1,0.2-0.2,0.3-0.2L13,13.6 M8.2,14.2c0.1,0,0.2,0.1,0.2,0.2v0.2h0.2c0.1,0,0.2,0.1,0.2,0.2
		v0.3c0,0.1-0.1,0.2-0.2,0.2H8.5v0.2c0,0.1-0.1,0.2-0.2,0.2H8l0,0c-0.1,0-0.2-0.1-0.2-0.2v-0.2H7.6c-0.1,0-0.1,0-0.2,0
		c0,0-0.1-0.1-0.1-0.1v-0.3c0-0.1,0.1-0.2,0.2-0.2c0,0,0,0,0,0h0.2v-0.2c0-0.1,0.1-0.2,0.2-0.3c0,0,0,0,0.1,0L8.2,14.2L8.2,14.2
		 M8.5,14.7L8.5,14.7 M7.9,14.7L7.9,14.7 M8.8,15.1L8.8,15.1 M7.7,15.2L7.7,15.2 M7.9,15.4L7.9,15.4 M8.2,15.6L8.2,15.6 M5.6,14.5
		c0.1,0,0.2,0.1,0.3,0.2c0.1,0.2,0.3,0.5,0.4,0.8c0,0.1,0,0.2-0.1,0.3c0,0-0.1,0-0.1,0l-1.8,0.1l0,0c-0.1,0-0.2-0.1-0.2-0.2
		c-0.1-0.2-0.2-0.3-0.2-0.5c0-0.1,0-0.2,0-0.3c0.1-0.1,0.1-0.2,0.2-0.2L5.6,14.5L5.6,14.5 M10.9,15.2L10.9,15.2l1.5,0.1
		c0.1,0,0.2,0.1,0.2,0.1c0,0.1,0,0.2,0,0.3c-0.1,0.3-0.2,0.5-0.2,0.7c0,0.1-0.2,0.2-0.3,0.2h-1.5l0,0c-0.1,0-0.2,0-0.2-0.1
		c-0.1-0.1-0.1-0.2-0.1-0.2l0,0c0.1-0.3,0.1-0.6,0.2-0.9C10.6,15.3,10.7,15.2,10.9,15.2 M6.2,15.8c0.1,0,0.2,0.1,0.3,0.2
		c0.1,0.2,0.2,0.5,0.4,0.7c0,0.1,0,0.2,0,0.3c0,0.1-0.1,0.1-0.2,0.2l-1.5,0.2h0c-0.1,0-0.2-0.1-0.3-0.2l-0.3-0.6
		c-0.1-0.2,0-0.3,0.1-0.4c0,0,0,0,0.1,0L6.2,15.8L6.2,15.8 M9.2,16c0.1,0,0.1,0,0.1,0c0,0,0.1,0.1,0.1,0.1v0.2h0.2
		c0.1,0,0.2,0.1,0.2,0.2v0.3c0,0.1,0,0.1,0,0.2c0,0-0.1,0.1-0.1,0.1H9.5v0.2c0,0.1-0.1,0.2-0.2,0.2H9h0c-0.1,0-0.2-0.1-0.2-0.2v-0.2
		H8.6c-0.1,0-0.1,0-0.2,0c0,0-0.1-0.1-0.1-0.1v-0.3c0-0.1,0.1-0.2,0.2-0.2h0.2v-0.2c0-0.1,0.1-0.2,0.2-0.2L9.2,16L9.2,16 M9.2,16.2
		L9.2,16.2 M9,16.2L9,16.2 M8.6,16.7L8.6,16.7 M9.8,16.8L9.8,16.8 M8.5,17L8.5,17 M8.8,17.2L8.8,17.2 M10.6,16.9L10.6,16.9l1.5,0.3
		c0.2,0,0.3,0.2,0.3,0.3c0,0.2,0,0.4,0,0.6c0,0.2-0.1,0.3-0.3,0.3c0,0,0,0,0,0l0,0l-1.5-0.2c-0.1,0-0.3-0.1-0.3-0.3
		c0-0.3,0-0.5,0-0.8c0-0.1,0.1-0.2,0.1-0.2C10.5,16.9,10.5,16.9,10.6,16.9 M7,17.3c0.1,0,0.2,0.1,0.3,0.2c0.1,0.2,0.2,0.5,0.2,0.7
		c0.1,0.2,0,0.3-0.2,0.4L6.2,19L6,19H5.9c0,0-0.1,0-0.1,0c-0.1,0-0.1-0.1-0.2-0.2c-0.1-0.2-0.2-0.4-0.2-0.6c0-0.1,0-0.2,0-0.2
		c0-0.1,0.1-0.1,0.2-0.2L7,17.3L7,17.3 M12.5,20.4c0.1,0,0.1,0,0.2,0c0.1,0,0.1,0.1,0.1,0.2c0.1,0.4,0.1,0.7,0.1,1
		c0,0.1,0,0.2-0.1,0.2c-0.1,0.1-0.1,0.1-0.2,0.1L11.1,22l0,0c-0.2,0-0.3-0.1-0.3-0.3c0-0.2-0.1-0.4-0.1-0.6c0-0.2,0.1-0.3,0.2-0.4
		L12.5,20.4L12.5,20.4 M9.4,20.5c0,0,0.1,0,0.1,0c0,0,0.1,0.1,0.1,0.1v0.2h0.2l0,0c0,0,0.1,0,0.1,0c0,0,0.1,0.1,0.1,0.1v0.3
		c0,0.1-0.1,0.2-0.2,0.2H9.6v0.2c0,0.1-0.1,0.2-0.2,0.2H9.1l0,0c-0.1,0-0.2-0.1-0.2-0.2v-0.2H8.7l0,0c-0.1,0-0.2-0.1-0.2-0.2v-0.3
		c0-0.1,0.1-0.2,0.2-0.2c0,0,0,0,0,0h0.2v-0.2c0-0.1,0.1-0.2,0.2-0.2L9.4,20.5L9.4,20.5 M9.1,20.8L9.1,20.8 M9.6,21L9.6,21
		 M9.9,21.1L9.9,21.1 M9.6,21.6L9.6,21.6 M9.5,21.8L9.5,21.8 M9.2,22L9.2,22 M6,21L6,21l1.5,0.2c0.2,0,0.3,0.1,0.3,0.3l0,0
		c0,0.2,0,0.4,0,0.6c0,0.2-0.1,0.3-0.3,0.3L6,22.6h0c-0.2,0-0.3-0.1-0.3-0.3c0-0.3,0-0.6,0-1C5.7,21.1,5.8,21,6,21C6,21,6,21,6,21
		 M11.1,22.3L11.1,22.3l1.4,0.2c0.2,0,0.3,0.2,0.3,0.3c0,0.6-0.1,1.1-0.2,1.7c0,0.1-0.1,0.2-0.2,0.2h-0.1c-0.1,0-0.1,0-0.2,0
		l-1.3-0.9c-0.1-0.1-0.2-0.2-0.1-0.3c0-0.3,0.1-0.6,0.1-0.9c0-0.1,0-0.2,0.1-0.2C11,22.3,11,22.3,11.1,22.3 M7.5,22.6
		c0.1,0,0.1,0,0.2,0c0.1,0,0.1,0.1,0.1,0.2c0,0.3,0.1,0.6,0.2,0.8c0.1,0.1,0.1,0.3,0,0.4l-1.2,1.1c-0.1,0.1-0.1,0.1-0.2,0.1H6.6
		c-0.1,0-0.2-0.1-0.2-0.2c-0.2-0.5-0.4-1.1-0.5-1.6c0-0.2,0.1-0.3,0.2-0.4L7.5,22.6L7.5,22.6 M9.5,22.7c0.1,0,0.2,0.1,0.2,0.2v0.2
		H10l0,0c0.1,0,0.2,0.1,0.2,0.2v0.3c0,0.1-0.1,0.2-0.2,0.2H9.8V24c0,0.1,0,0.1,0,0.2c0,0-0.1,0.1-0.1,0.1H9.3l0,0
		c-0.1,0-0.1,0-0.1,0c0,0-0.1-0.1-0.1-0.1v-0.2H8.9l0,0c-0.1,0-0.2-0.1-0.2-0.2v-0.3c0-0.1,0.1-0.2,0.2-0.2h0.2L9,23
		c0-0.1,0-0.1,0-0.2c0,0,0.1-0.1,0.1-0.1L9.5,22.7L9.5,22.7 M9.4,23L9.4,23 M9.2,23L9.2,23 M9.7,23.2L9.7,23.2 M8.9,23.5L8.9,23.5
		 M9.1,23.9L9.1,23.9 M9.6,24.1L9.6,24.1 M10.8,24c0.1,0,0.2,0,0.2,0.1l1.1,1.1c0.1,0.1,0.1,0.3,0,0.4c-0.5,0.6-1.1,1-1.9,1.1h-0.1
		c-0.1,0-0.1,0-0.2,0c-0.1,0-0.1-0.1-0.1-0.2L9.6,25c0-0.2,0.1-0.3,0.2-0.4c0.3-0.1,0.5-0.3,0.7-0.5C10.6,24.1,10.7,24,10.8,24
		L10.8,24 M8.2,24.2c0.1,0,0.2,0,0.2,0.1c0.2,0.2,0.5,0.4,0.8,0.4c0.2,0,0.3,0.2,0.3,0.3v1.5c0,0.1,0,0.2-0.1,0.2
		c-0.1,0.1-0.1,0.1-0.2,0.1l0,0c-0.8,0-1.5-0.3-2.1-0.8c-0.1-0.1-0.1-0.3,0-0.4L8,24.4C8.1,24.3,8.1,24.2,8.2,24.2 M8.7,0H8.6
		c-0.3,0-0.7,0.1-1,0.2H7.4c-0.3,0-0.6,0-0.9,0.1C5.9,0.5,5.4,0.7,4.8,1C4.5,1.2,4.2,1.4,3.9,1.7C3.6,1.9,3.3,2.1,3,2.4
		C2.6,2.8,2.2,3.3,1.9,3.7C1.7,4,1.6,4.3,1.5,4.7C1.3,4.9,1.1,5.2,1,5.5C0.8,5.9,0.7,6.3,0.6,6.7C0.5,7,0.4,7.3,0.4,7.6
		C0.3,7.8,0.3,8.1,0.2,8.4c0,0.3-0.1,0.7-0.1,1c0,0.2,0,0.5,0,0.7C0,10.3,0,10.6,0,10.8c0,0.4,0,0.7,0,1c0,0.2,0,0.5,0.1,0.7
		c0,0.2,0,0.5,0,0.8c0.1,0.4,0.1,0.8,0.2,1.3c0.1,0.3,0.2,0.6,0.3,0.8c0,0.3,0.1,0.6,0.3,0.9c0.1,0.2,0.2,0.4,0.3,0.6
		c0.1,0.2,0.2,0.4,0.4,0.6c0.1,0.2,0.1,0.4,0.2,0.5l0.3,0.5c0.1,0.1,0.1,0.3,0.2,0.4c0,0.1,0.1,0.3,0.1,0.4c0.1,0.1,0.1,0.3,0.2,0.4
		c0,0.1,0.1,0.2,0.2,0.4c-0.1,0.4-0.2,0.8-0.2,1.2c0,0.4,0,0.8,0.1,1.2c0,0.2,0.1,0.5,0.1,0.7c0,0.2,0,0.5,0,0.7
		c0.1,0.8,0.4,1.6,0.7,2.4c0.2,0.3,0.4,0.7,0.7,0.9c0.2,0.4,0.4,0.7,0.7,1c1.1,1,2.5,1.6,4,1.6h0.1c0.3,0,0.6,0,0.8-0.1h0.2
		c0.2,0,0.5,0,0.7-0.1c1.5-0.3,2.8-1.1,3.7-2.3c0.2-0.3,0.4-0.7,0.5-1.1c0.2-0.3,0.4-0.6,0.5-1c0.2-0.8,0.3-1.6,0.3-2.5
		c0-0.2,0-0.5-0.1-0.7c0-0.2,0-0.4,0-0.6c0-0.4-0.1-0.8-0.1-1.2c-0.1-0.4-0.2-0.8-0.4-1.2c0.1-0.4,0.1-0.9,0.1-1.3
		c0-0.1,0-0.1,0-0.2c0-0.1,0-0.1,0-0.2v-0.2v0c0-0.1,0.1-0.3,0.1-0.5c0.1-0.2,0.1-0.3,0.1-0.5c0.1-0.2,0.2-0.4,0.2-0.6
		c0.1-0.2,0.2-0.5,0.2-0.8c0.1-0.3,0.1-0.5,0.1-0.8c0.1-0.2,0.2-0.5,0.2-0.8c0-0.3,0.1-0.6,0.1-0.9v-0.1c0-0.2,0-0.5,0-0.7
		c0-0.3,0.1-0.5,0-0.8c0-0.2,0-0.4,0-0.6V9.8c0-0.2-0.1-0.5-0.1-0.7c0-0.2,0-0.5,0-0.7c0-0.3-0.1-0.6-0.2-0.9c0-0.2-0.1-0.5-0.2-0.7
		c0-0.3-0.1-0.5-0.1-0.7c-0.1-0.4-0.3-0.8-0.4-1.1c-0.1-0.3-0.3-0.6-0.5-0.8c-0.1-0.3-0.2-0.6-0.4-0.9c-0.3-0.5-0.7-1-1.2-1.4
		c-0.3-0.3-0.7-0.5-1.1-0.7c-0.3-0.3-0.8-0.6-1.2-0.7C10.3,0.1,9.5,0,8.7,0z"/>
	<path class="st1" d="M19.8,36.4c-0.2,0-0.5,0-0.7-0.1c-0.1,0-0.2,0-0.4,0c-0.1,0-0.3,0-0.4,0c-1.1-0.2-2.1-0.8-2.8-1.7
		c-0.2-0.3-0.3-0.6-0.3-0.9c-0.2-0.2-0.4-0.5-0.4-0.8c-0.2-0.7-0.3-1.4-0.2-2.1c0-0.2,0-0.4,0.1-0.6c0-0.2,0-0.4,0-0.6
		c0-0.4,0.1-0.7,0.1-1.1c0.1-0.5,0.3-0.9,0.7-1.2c-0.3-0.4-0.5-0.8-0.4-1.3c0-0.1,0-0.3,0-0.4c0-0.1,0-0.2,0-0.4
		C15,25.1,15,25,15,24.9c0-0.2-0.1-0.4-0.2-0.6c-0.1-0.2-0.1-0.4-0.1-0.5c-0.1-0.2-0.2-0.3-0.3-0.5c-0.1-0.2-0.1-0.5-0.2-0.7
		c-0.1-0.2-0.1-0.5-0.1-0.7c-0.1-0.2-0.2-0.4-0.2-0.7c0-0.3-0.1-0.5-0.1-0.8c0-0.2,0-0.5,0.1-0.7c-0.1-0.2-0.1-0.4-0.1-0.7
		c0-0.2,0-0.3,0-0.5V18c0-0.2,0.1-0.4,0.2-0.6c0-0.2,0-0.4,0-0.6c0-0.3,0.1-0.6,0.2-0.8c0.1-0.2,0.1-0.4,0.3-0.6
		c0-0.2,0-0.5,0.1-0.7c0.1-0.3,0.2-0.7,0.4-1c0.1-0.3,0.3-0.5,0.5-0.7c0-0.3,0.1-0.6,0.3-0.8c0.3-0.4,0.6-0.8,1-1.1
		c0.3-0.2,0.6-0.4,0.9-0.5c0.2-0.3,0.5-0.5,0.8-0.6c0.6-0.2,1.2-0.3,1.8-0.3c0.3,0,0.6,0.1,0.9,0.2c0.1,0,0.2,0,0.4,0
		c0.2,0,0.4,0,0.5,0.1c0.5,0.1,0.9,0.3,1.3,0.6c0.3,0.2,0.5,0.4,0.7,0.6c0.3,0.1,0.6,0.2,0.8,0.5c0.3,0.3,0.6,0.7,0.9,1.1
		c0.2,0.2,0.3,0.5,0.3,0.8c0.2,0.2,0.4,0.4,0.5,0.7c0.2,0.3,0.3,0.7,0.5,1c0.1,0.2,0.1,0.5,0,0.8c0.1,0.2,0.2,0.5,0.3,0.7
		c0,0.3,0.1,0.6,0.1,1c0,0.2,0,0.5-0.1,0.7c0.1,0.2,0.1,0.4,0.1,0.7c0,0.3,0,0.6,0,0.9c0,0.2-0.1,0.4-0.1,0.6c0,0.2,0,0.5,0,0.7
		c0,0.4-0.1,0.7-0.2,1.1c-0.1,0.3-0.2,0.5-0.4,0.7c0,0.3-0.1,0.5-0.2,0.8c-0.1,0.2-0.2,0.4-0.3,0.6c-0.1,0.2-0.2,0.4-0.4,0.5
		c0,0.2-0.1,0.4-0.2,0.6L25.5,26c-0.1,0.1-0.2,0.3-0.3,0.4c0,0.2-0.1,0.3-0.1,0.5c-0.1,0.2-0.1,0.3-0.2,0.5
		c-0.1,0.3-0.3,0.5-0.5,0.8c0.3,0.3,0.5,0.8,0.5,1.2c0,0.4,0,0.8,0,1.1c0,0.2-0.1,0.4-0.1,0.6c0,0.2,0,0.4,0,0.6
		c-0.1,0.7-0.3,1.4-0.6,2c-0.1,0.3-0.3,0.5-0.6,0.7c-0.1,0.3-0.3,0.6-0.5,0.8C22.1,35.9,21,36.4,19.8,36.4L19.8,36.4L19.8,36.4z"/>
	<path class="st1" d="M20.4,11c0.1,0,0.2,0,0.2,0.1c0.1,0.1,0.1,0.1,0.1,0.2v2.2c0,0.1,0,0.1-0.1,0.1c0,0-0.1,0-0.1,0h-0.2
		c-0.2,0-0.5,0-0.7,0.1h-0.1c-0.2,0-0.3-0.1-0.3-0.3l-0.3-2c0-0.1,0.1-0.3,0.2-0.3C19.5,11,19.9,11,20.4,11L20.4,11 M20.4,13.4
		L20.4,13.4 M20.4,13.5L20.4,13.5 M21.6,11.2L21.6,11.2c0.4,0.1,0.8,0.2,1.1,0.4c0.1,0.1,0.2,0.2,0.1,0.4l-0.6,2
		c0,0.1-0.1,0.2-0.2,0.2h-0.1c-0.1,0-0.1,0-0.2-0.1c-0.2-0.2-0.5-0.3-0.7-0.4c-0.1-0.1-0.2-0.2-0.2-0.4l0.4-2c0-0.1,0.1-0.2,0.1-0.2
		C21.5,11.2,21.5,11.2,21.6,11.2 M18,12L18,12c0.2,0,0.3,0.1,0.3,0.2l0.6,1.8c0,0.1,0,0.2-0.1,0.3c-0.2,0.2-0.3,0.4-0.4,0.6
		C18.4,15,18.3,15,18.2,15l0,0c-0.1,0-0.2-0.1-0.3-0.2L17,13.3c-0.1-0.1-0.1-0.2,0-0.3c0.2-0.3,0.5-0.6,0.7-0.9
		C17.8,12,17.9,12,18,12 M23.6,12.4c0.1,0,0.2,0,0.2,0.1c0.3,0.3,0.5,0.6,0.7,0.9c0.1,0.1,0.1,0.2,0,0.4l-1.2,1.7
		c-0.1,0.1-0.2,0.1-0.3,0.1l0,0c-0.1,0-0.2-0.1-0.2-0.2c-0.1-0.2-0.3-0.4-0.4-0.6c-0.1-0.1-0.1-0.2,0-0.3l1-1.9
		C23.5,12.5,23.6,12.5,23.6,12.4L23.6,12.4 M16.7,14.1c0.1,0,0.2,0,0.2,0.1l1.1,1.3c0.1,0.1,0.1,0.2,0,0.3c-0.1,0.2-0.1,0.4-0.2,0.6
		l0,0c0,0.1-0.1,0.2-0.2,0.2h-0.1c-0.1,0-0.2,0-0.2-0.1l-1.2-1.1C16,15.3,16,15.1,16,15c0.1-0.3,0.2-0.6,0.3-0.8
		c0-0.1,0.1-0.2,0.2-0.2l0,0 M24.8,14.4H25c0.1,0,0.2,0.1,0.2,0.2c0.1,0.3,0.2,0.6,0.3,0.9c0,0.1,0,0.3-0.1,0.3L23.9,17
		c-0.1,0-0.1,0.1-0.2,0.1h-0.1c-0.1,0-0.2-0.1-0.2-0.2c-0.1-0.2-0.1-0.5-0.2-0.7l0,0c0-0.1,0-0.2,0.1-0.3l1.4-1.4
		C24.8,14.5,24.9,14.4,24.8,14.4 M20.5,14.7L20.5,14.7h0.3c0.1,0,0.2,0.1,0.2,0.2c0,0,0,0,0,0.1v0.2h0.2c0.1,0,0.2,0.1,0.2,0.2v0.3
		c0,0.1,0,0.1-0.1,0.1c0,0-0.1,0-0.1,0.1l0,0H21v0.2c0,0.1-0.1,0.2-0.2,0.2c0,0,0,0,0,0l0,0h-0.3c-0.1,0-0.2-0.1-0.2-0.2
		c0,0,0,0,0,0v-0.2h-0.2c-0.1,0-0.1,0-0.1-0.1c0-0.1,0-0.1,0-0.2v-0.3c0-0.1,0.1-0.2,0.2-0.2l0,0h0.2V15
		C20.4,14.8,20.5,14.8,20.5,14.7L20.5,14.7 M20.2,15.4L20.2,15.4 M21.3,15.5L21.3,15.5 M20.1,15.6L20.1,15.6 M21.2,15.8L21.2,15.8
		 M20.5,16.1L20.5,16.1 M16,16c0.1,0,0.1,0,0.2,0l1.3,0.8c0.1,0.1,0.2,0.2,0.1,0.3c0,0.2-0.1,0.4-0.1,0.7l0,0c0,0.1-0.1,0.2-0.2,0.2
		c-0.1,0-0.2,0-0.3,0l-1.4-0.8c-0.1-0.1-0.2-0.2-0.2-0.3c0-0.3,0.1-0.5,0.1-0.8c0-0.1,0.1-0.2,0.2-0.2L16,16 M21.8,16.5h0.3
		c0.1,0,0.1,0,0.1,0.1c0,0.1,0,0.1,0,0.2V17h0.2c0.1,0,0.2,0.1,0.2,0.2c0,0,0,0,0,0v0.3c0,0.1,0,0.1-0.1,0.1c0,0-0.1,0-0.1,0l0,0
		h-0.2v0.2c0,0.1-0.1,0.2-0.2,0.2l0,0h-0.3c-0.1,0-0.2-0.1-0.2-0.2v-0.2h-0.2c-0.1,0-0.2-0.1-0.2-0.2v-0.3c0-0.1,0.1-0.2,0.2-0.2
		l0,0h0.2v-0.2c0-0.1,0-0.1,0.1-0.1C21.7,16.5,21.7,16.5,21.8,16.5 M21.8,16.8L21.8,16.8 M21.3,17.2L21.3,17.2 M22.4,17.5L22.4,17.5
		 M21.6,17.9L21.6,17.9 M19.4,16.6h0.3c0.1,0,0.2,0.1,0.2,0.2v0.2h0.2c0.1,0,0.1,0,0.1,0.1c0,0.1,0,0.1,0,0.2v0.3
		c0,0.1-0.1,0.2-0.2,0.2h-0.2V18c0,0.1,0,0.1-0.1,0.1c0,0-0.1,0.1-0.1,0l0,0h-0.3c-0.1,0-0.2-0.1-0.2-0.2c0,0,0,0,0,0v-0.2h-0.2
		c-0.1,0-0.2-0.1-0.2-0.2v-0.3c0-0.1,0-0.1,0.1-0.1C18.8,17,18.9,17,19,17h0.2v-0.2C19.2,16.7,19.3,16.7,19.4,16.6
		C19.4,16.6,19.4,16.6,19.4,16.6 M19.5,16.8L19.5,16.8 M19.7,16.9L19.7,16.9 M19.9,17.1L19.9,17.1 M20.1,17.4L20.1,17.4 M18.9,17.5
		L18.9,17.5 M20.1,17.6L20.1,17.6 M19.2,17.8L19.2,17.8 M19.6,18L19.6,18 M25.5,16.6c0,0,0.1,0,0.1,0c0.1,0,0.2,0.1,0.2,0.2
		c0,0.3,0.1,0.6,0.1,0.9c0,0.1-0.1,0.3-0.2,0.3l-1.5,0.7H24c-0.2,0-0.3-0.1-0.3-0.3c0-0.3-0.1-0.5-0.1-0.7c0-0.1,0-0.3,0.2-0.3
		l1.5-0.8C25.4,16.6,25.4,16.6,25.5,16.6 M15.7,17.9L15.7,17.9l1.5,0.5c0.1,0,0.2,0.2,0.2,0.3l0,0c0,0.2,0,0.5,0,0.8
		c0,0.2-0.1,0.3-0.3,0.3H17l-1.5-0.5c-0.1,0-0.2-0.2-0.2-0.3c0-0.1,0-0.3,0-0.5v-0.4l0,0C15.3,18,15.5,17.9,15.7,17.9 M18.8,18.5
		L18.8,18.5h0.3c0.1,0,0.2,0.1,0.2,0.2v0.2h0.2c0.1,0,0.1,0,0.1,0.1c0,0,0.1,0.1,0,0.2v0.3c0,0.1-0.1,0.2-0.2,0.2l0,0h-0.2v0.2
		c0,0.1-0.1,0.2-0.2,0.2l0,0h-0.3c-0.1,0-0.2-0.1-0.2-0.2v-0.2h-0.2c-0.1,0-0.2-0.1-0.2-0.2c0,0,0,0,0,0v-0.3c0-0.1,0-0.1,0.1-0.1
		c0,0,0.1-0.1,0.1,0l0,0h0.2v-0.2C18.6,18.6,18.7,18.5,18.8,18.5 M19,18.7L19,18.7 M19.4,19.2L19.4,19.2 M19.2,19.6L19.2,19.6
		 M18.7,19.8L18.7,19.8 M22.3,18.5L22.3,18.5h0.3c0.1,0,0.2,0.1,0.2,0.2c0,0,0,0,0,0v0.2h0.2c0.1,0,0.2,0.1,0.2,0.2c0,0,0,0,0,0v0.3
		c0,0.1-0.1,0.2-0.2,0.2l0,0h-0.2v0.2c0,0.1-0.1,0.2-0.2,0.2l0,0h-0.3c-0.1,0-0.2-0.1-0.2-0.2v-0.2h-0.2c-0.1,0-0.1,0-0.1-0.1
		c0-0.1,0-0.1,0-0.2v-0.3c0-0.1,0.1-0.2,0.2-0.2l0,0h0.2v-0.2C22.2,18.6,22.2,18.6,22.3,18.5C22.3,18.5,22.3,18.5,22.3,18.5
		 M22.4,18.7L22.4,18.7 M22.1,19L22.1,19 M21.9,19.1L21.9,19.1 M21.9,19.4L21.9,19.4 M22.3,19.9L22.3,19.9 M22.5,19.9L22.5,19.9
		 M25.6,18.7c0.2,0,0.3,0.1,0.4,0.2c0,0,0,0.1,0,0.1c0,0.3,0,0.6,0,0.9c0,0.1-0.1,0.3-0.2,0.3l-1.5,0.4h-0.1c-0.1,0-0.1,0-0.2-0.1
		c-0.1-0.1-0.1-0.2-0.1-0.2c0-0.3,0-0.5,0-0.8l0,0c0-0.1,0.1-0.3,0.2-0.3L25.6,18.7L25.6,18.7 M15.7,19.9L15.7,19.9l1.5,0.2
		c0.1,0,0.3,0.1,0.3,0.3c0,0.2,0.1,0.5,0.1,0.7c0,0.1,0,0.2-0.1,0.3c-0.1,0.1-0.1,0.1-0.2,0.1h-0.1l-1.6-0.3c-0.1,0-0.2-0.1-0.2-0.3
		c0-0.2-0.1-0.5-0.1-0.7C15.4,20,15.5,19.9,15.7,19.9C15.7,19.9,15.7,19.9,15.7,19.9 M22,20.4L22,20.4h0.3c0.1,0,0.1,0,0.1,0.1
		c0,0.1,0,0.1,0,0.2v0.2h0.2c0.1,0,0.2,0.1,0.2,0.2v0.3c0,0.1-0.1,0.2-0.2,0.2l0,0h-0.2v0.2c0,0.1-0.1,0.2-0.2,0.2l0,0h-0.3
		c-0.1,0-0.2-0.1-0.2-0.2v-0.2h-0.2c-0.1,0-0.2-0.1-0.2-0.2v-0.3c0-0.1,0-0.1,0.1-0.1c0,0,0.1-0.1,0.2,0h0.2v-0.2
		C21.8,20.5,21.9,20.4,22,20.4 M22.3,20.7L22.3,20.7 M22.6,21.2L22.6,21.2 M21.5,21.3L21.5,21.3 M22.4,21.6L22.4,21.6 M19.2,20.5
		h0.3c0.1,0,0.1,0,0.1,0.1c0,0,0.1,0.1,0,0.2V21h0.2c0.1,0,0.2,0.1,0.2,0.2v0.3c0,0.1,0,0.1-0.1,0.1c0,0-0.1,0-0.1,0h-0.2v0.2
		c0,0.1-0.1,0.2-0.2,0.2l0,0h-0.3c-0.1,0-0.2-0.1-0.2-0.2c0,0,0,0,0,0v-0.2h-0.2c-0.1,0-0.2-0.1-0.2-0.2v-0.3c0-0.1,0.1-0.2,0.2-0.2
		l0,0h0.2v-0.2c0-0.1,0-0.1,0.1-0.1C19.1,20.5,19.1,20.5,19.2,20.5 M19.2,20.7L19.2,20.7 M18.9,21L18.9,21 M19.6,21L19.6,21
		 M18.6,21.4L18.6,21.4 M19.8,21.5L19.8,21.5 M19.5,21.6L19.5,21.6 M19.3,21.9L19.3,21.9 M25.6,20.7c0.1,0,0.2,0,0.2,0.1
		c0.1,0.1,0.1,0.2,0.1,0.2c0,0.3-0.1,0.6-0.2,0.9c0,0.1-0.1,0.2-0.3,0.2l-1.6,0.1l0,0c-0.1,0-0.2,0-0.2-0.1c-0.1-0.1-0.1-0.2,0-0.3
		c0.1-0.3,0.2-0.5,0.2-0.8c0-0.1,0.1-0.2,0.3-0.2L25.6,20.7L25.6,20.7 M16.1,21.7h1.5c0.1,0,0.3,0.1,0.3,0.2l0.2,0.6l0.1,0.2
		c0,0.1,0,0.2,0,0.3c-0.1,0.1-0.2,0.1-0.2,0.1l0,0l-1.6-0.1c-0.1,0-0.2-0.1-0.3-0.2c-0.1-0.2-0.1-0.4-0.2-0.6
		C15.8,21.9,15.9,21.7,16.1,21.7C16.1,21.7,16.1,21.7,16.1,21.7 M20.9,22.2L20.9,22.2h0.3c0.1,0,0.2,0.1,0.2,0.2v0.2h0.2
		c0.1,0,0.2,0.1,0.2,0.2c0,0,0,0,0,0v0.3c0,0.1,0,0.1-0.1,0.1c-0.1,0-0.1,0-0.2,0h-0.2v0.2c0,0.1-0.1,0.2-0.2,0.2l0,0h-0.3
		c-0.1,0-0.2-0.1-0.2-0.2v-0.2h-0.2c-0.1,0-0.2-0.1-0.2-0.2v-0.3c0-0.1,0.1-0.2,0.2-0.2h0.2v-0.2C20.7,22.3,20.8,22.2,20.9,22.2
		 M20.6,22.7L20.6,22.7 M21.3,22.7L21.3,22.7 M20.4,23L20.4,23 M21.5,23.2L21.5,23.2 M21.2,23.3L21.2,23.3 M21,23.6L21,23.6
		 M23.5,22.4L23.5,22.4l1.6,0.1c0.1,0,0.2,0.1,0.2,0.1c0,0.1,0,0.2,0,0.3c-0.1,0.2-0.2,0.4-0.2,0.5c-0.1,0.1-0.2,0.2-0.3,0.2l0,0
		L23,23.6c-0.1,0-0.2-0.1-0.2-0.2c0,0,0-0.1,0-0.1c0.1-0.3,0.3-0.5,0.4-0.8C23.3,22.5,23.4,22.4,23.5,22.4 M18.2,23.2
		c0.1,0,0.3,0.1,0.3,0.2c0.1,0.3,0.2,0.6,0.2,0.9l0,0c0,0.1,0,0.2-0.1,0.2c-0.1,0.1-0.1,0.1-0.2,0.1l0,0h-1.5
		c-0.1,0-0.3-0.1-0.3-0.2c0-0.2-0.1-0.4-0.2-0.7c0-0.1,0-0.2,0-0.3c0.1-0.1,0.1-0.1,0.2-0.1L18.2,23.2L18.2,23.2 M22.7,23.8
		L22.7,23.8l1.6,0.3c0.2,0,0.3,0.2,0.2,0.4c0,0,0,0.1,0,0.1l-0.3,0.6c-0.1,0.1-0.2,0.2-0.3,0.2h-0.1l-1.5-0.2
		c-0.1,0-0.2-0.1-0.2-0.2c0-0.1,0-0.2,0-0.3c0.1-0.2,0.2-0.5,0.4-0.7C22.5,23.9,22.6,23.8,22.7,23.8 M19.8,24L19.8,24h0.3
		c0.1,0,0.2,0.1,0.2,0.2v0.2h0.2c0.1,0,0.2,0.1,0.2,0.2V25c0,0.1,0,0.1-0.1,0.1c0,0-0.1,0.1-0.2,0h-0.2v0.2c0,0.1-0.1,0.2-0.2,0.2
		l0,0h-0.3c-0.1,0-0.2-0.1-0.2-0.2v-0.2h-0.2c-0.1,0-0.1,0-0.1-0.1c0-0.1,0-0.1,0-0.2v-0.3c0-0.1,0.1-0.2,0.2-0.2h0.2v-0.2
		C19.7,24.2,19.7,24.1,19.8,24C19.8,24,19.8,24,19.8,24 M19.9,24.2L19.9,24.2 M20.1,24.2L20.1,24.2 M20.5,24.7L20.5,24.7 M19.4,24.8
		L19.4,24.8 M20.5,25L20.5,25 M20.3,25.1L20.3,25.1 M18.4,25c0.1,0,0.1,0,0.2,0.1c0.1,0.1,0.1,0.1,0.1,0.2c0,0.3,0,0.5,0,0.8
		c0,0.1-0.1,0.3-0.3,0.3L17,26.6l0,0c-0.2,0-0.3-0.1-0.3-0.3c0,0,0,0,0,0c0-0.2,0-0.4,0-0.6c0-0.2,0.1-0.3,0.3-0.3L18.4,25L18.4,25
		 M22,25.4h0.1l1.4,0.5c0.1,0,0.1,0.1,0.2,0.2c0,0.1,0,0.2,0,0.2c-0.1,0.2-0.2,0.4-0.2,0.6c0,0.1-0.1,0.1-0.2,0.2c0,0-0.1,0-0.1,0
		H23L22.7,27l-1.1-0.4c-0.2-0.1-0.2-0.2-0.2-0.4c0.1-0.2,0.2-0.4,0.2-0.7C21.7,25.4,21.8,25.3,22,25.4 M16.5,28.5L16.5,28.5l1.5,0.4
		c0.2,0,0.2,0.2,0.2,0.4c0,0.2-0.1,0.4-0.1,0.6c0,0.2-0.1,0.3-0.3,0.3l0,0L16.4,30c-0.1,0-0.2,0-0.2-0.1c-0.1-0.1-0.1-0.1-0.1-0.2
		c0-0.3,0.1-0.6,0.1-1c0-0.1,0.1-0.2,0.1-0.2C16.5,28.4,16.5,28.4,16.5,28.5 M19.7,28.6L19.7,28.6h0.3c0.1,0,0.2,0.1,0.2,0.2V29h0.2
		c0.1,0,0.2,0.1,0.2,0.2c0,0,0,0,0,0v0.3c0,0.1-0.1,0.2-0.2,0.2l0,0h-0.2L20,30c0,0.1-0.1,0.2-0.2,0.2l0,0h-0.3
		c-0.1,0-0.2-0.1-0.2-0.2v-0.2h-0.2c-0.1,0-0.2-0.1-0.2-0.2v-0.3c0-0.1,0-0.2,0.1-0.2c0,0,0.1,0,0.1,0l0,0h0.2v-0.2
		c0-0.1,0-0.1,0.1-0.1C19.5,28.6,19.5,28.6,19.7,28.6 M19.8,28.9L19.8,28.9 M19.3,29L19.3,29 M19.1,29.2L19.1,29.2 M19.3,29.7
		L19.3,29.7 M19.5,29.9L19.5,29.9 M19.7,30L19.7,30 M23,29c0.2,0,0.3,0.1,0.3,0.3c0,0,0,0,0,0c0,0.4,0,0.7,0,1
		c0,0.2-0.1,0.3-0.3,0.3l0,0l-1.5-0.2c-0.2,0-0.3-0.2-0.3-0.3c0-0.2,0-0.4,0-0.6l0,0c0-0.2,0.1-0.3,0.3-0.3L23,29L23,29 M17.8,30.3
		c0.1,0,0.2,0,0.2,0.1c0.1,0.1,0.1,0.1,0.1,0.2c0,0.3,0,0.6,0,0.9c0,0.1,0,0.2-0.1,0.3l-1.3,0.9c-0.1,0-0.1,0.1-0.2,0h-0.1
		c-0.1,0-0.2-0.1-0.2-0.2c-0.1-0.6-0.2-1.1-0.2-1.7c0-0.2,0.1-0.3,0.3-0.3L17.8,30.3L17.8,30.3 M21.4,30.6L21.4,30.6l1.5,0.4
		c0.1,0,0.2,0.2,0.2,0.4C23,32,22.8,32.5,22.6,33c0,0.1-0.1,0.2-0.2,0.2h-0.1c-0.1,0-0.2,0-0.2-0.1L21,32c-0.1-0.1-0.1-0.2-0.1-0.3
		c0.1-0.3,0.2-0.5,0.2-0.8c0-0.1,0.1-0.2,0.1-0.2C21.3,30.6,21.4,30.6,21.4,30.6 M19.5,30.8L19.5,30.8h0.3c0.1,0,0.1,0,0.1,0.1
		c0.1,0,0.1,0.1,0.1,0.2v0.2h0.2c0.1,0,0.2,0.1,0.2,0.2v0.3c0,0.1-0.1,0.2-0.2,0.2l0,0H20v0.2c0,0.1,0,0.1-0.1,0.2
		c0,0-0.1,0.1-0.1,0l0,0h-0.3c-0.1,0-0.1,0-0.1-0.1c0-0.1,0-0.1,0-0.2v-0.2h-0.2c-0.1,0-0.2-0.1-0.2-0.2v-0.3c0-0.1,0.1-0.2,0.2-0.2
		l0,0h0.2V31c0-0.1,0.1-0.2,0.2-0.2 M19.6,31L19.6,31 M19.8,31L19.8,31 M19.3,31.2L19.3,31.2 M20.2,31.5L20.2,31.5 M20,31.9L20,31.9
		 M19.5,32.1L19.5,32.1 M18.2,32L18.2,32c0.1,0,0.2,0.1,0.2,0.1c0.2,0.2,0.4,0.4,0.7,0.5c0.2,0,0.2,0.2,0.2,0.3L19,34.5
		c0,0.1-0.1,0.2-0.1,0.2c-0.1,0-0.1,0-0.2,0h-0.1c-0.8-0.1-1.4-0.5-1.9-1.1c-0.1-0.1-0.1-0.3,0-0.4l1.2-1C18.1,32.1,18.1,32,18.2,32
		 M20.8,32.3c0.1,0,0.2,0.1,0.2,0.1l0.9,1.3c0.1,0.1,0.1,0.3,0,0.4c-0.6,0.5-1.3,0.8-2.1,0.8l0,0c-0.1,0-0.2,0-0.2-0.1
		c-0.1-0.1-0.1-0.1-0.1-0.2v-1.5c0-0.2,0.1-0.3,0.3-0.3c0.3,0,0.6-0.2,0.8-0.4C20.7,32.3,20.8,32.3,20.8,32.3 M20.4,8L20.4,8
		c-0.9,0-1.7,0.1-2.4,0.4c-0.4,0.2-0.8,0.4-1.1,0.7c-0.4,0.2-0.8,0.4-1.1,0.7c-0.4,0.4-0.8,0.9-1.2,1.4c-0.2,0.3-0.3,0.6-0.4,0.9
		c-0.2,0.3-0.4,0.5-0.5,0.8c-0.2,0.4-0.3,0.7-0.4,1.1c-0.1,0.2-0.1,0.5-0.1,0.8c-0.1,0.2-0.2,0.5-0.3,0.7c-0.1,0.3-0.1,0.6-0.2,0.9
		c0,0.2,0,0.5,0,0.7c-0.1,0.2-0.1,0.4-0.1,0.6v0.1v0.4c0,0.2,0,0.4,0,0.6c0,0.3,0,0.5,0.1,0.8c0,0.2,0,0.5,0,0.7v0.1
		c0,0.3,0.1,0.6,0.1,0.9c0,0.3,0.1,0.5,0.2,0.8c0,0.3,0.1,0.5,0.1,0.8c0.1,0.3,0.2,0.5,0.2,0.8c0.1,0.2,0.1,0.4,0.2,0.5
		c0,0.2,0.1,0.3,0.1,0.5c0.1,0.2,0.1,0.4,0.1,0.5v0v0.2c0,0.1,0,0.1,0,0.2c0,0.1,0,0.1,0,0.2c-0.1,0.4,0,0.9,0.1,1.3
		c-0.2,0.3-0.3,0.7-0.4,1.1c-0.1,0.5-0.1,0.9-0.2,1.2c0,0.2,0,0.4,0,0.7c-0.1,0.2-0.1,0.5-0.1,0.7c0,0.8,0.1,1.7,0.3,2.5
		c0.1,0.4,0.3,0.7,0.5,1c0.1,0.4,0.3,0.8,0.5,1.1c0.9,1.2,2.2,2,3.7,2.3c0.2,0,0.5,0.1,0.7,0.1H19c0.3,0.1,0.5,0.1,0.8,0.1h0.1
		c1.5,0,2.9-0.6,4-1.6c0.3-0.3,0.5-0.6,0.7-1c0.3-0.3,0.5-0.6,0.7-0.9c0.3-0.8,0.6-1.6,0.7-2.4c0-0.2,0.1-0.5,0-0.7
		c0.1-0.2,0.1-0.4,0.1-0.7c0-0.4,0-0.7,0.1-1.2c0-0.4-0.1-0.8-0.2-1.2c0.1-0.1,0.1-0.2,0.1-0.4c0-0.1,0.1-0.3,0.2-0.4
		c0.1-0.1,0.1-0.3,0.1-0.4c0.1-0.1,0.2-0.2,0.2-0.4L27,26c0.1-0.2,0.2-0.4,0.2-0.6c0.1-0.2,0.3-0.4,0.4-0.6c0.1-0.2,0.2-0.4,0.3-0.6
		c0.1-0.3,0.2-0.5,0.3-0.8c0.1-0.2,0.3-0.5,0.3-0.8c0.1-0.4,0.2-0.8,0.2-1.2c0-0.3,0-0.5,0-0.8c0.1-0.2,0.1-0.5,0.1-0.7
		c0-0.3,0-0.6,0-1c0-0.2,0-0.5-0.1-0.7c0-0.2,0-0.5,0-0.7c0-0.4-0.1-0.8-0.1-1.1c0-0.3-0.1-0.5-0.2-0.8c0-0.3-0.1-0.6-0.1-0.8
		c-0.1-0.4-0.2-0.8-0.3-1.1c-0.1-0.3-0.3-0.6-0.5-0.9c-0.1-0.3-0.2-0.6-0.4-0.9c-0.3-0.5-0.7-0.9-1.1-1.4c-0.3-0.3-0.6-0.5-1-0.7
		c-0.2-0.3-0.5-0.5-0.8-0.7c-0.5-0.3-1.1-0.5-1.7-0.7c-0.3-0.1-0.6-0.1-0.9-0.1h-0.1C21.1,8.1,20.8,8,20.4,8L20.4,8z"/>
</g>
<path class="st2" d="M9.2,26.9L9.2,26.9c-0.8,0-1.5-0.3-2.1-0.8c-0.1-0.1-0.1-0.3,0-0.4L8,24.4c0.1-0.1,0.1-0.1,0.2-0.1
	c0.1,0,0.2,0,0.2,0.1l0,0c0.2,0.2,0.5,0.4,0.8,0.4c0.2,0,0.3,0.2,0.3,0.3v1.5c0,0.1,0,0.2-0.1,0.2C9.3,26.8,9.3,26.9,9.2,26.9z
	 M10.2,26.8c-0.1,0-0.1,0-0.2-0.1c-0.1,0-0.1-0.1-0.1-0.2L9.6,25c0-0.2,0.1-0.3,0.2-0.4c0.3-0.1,0.5-0.3,0.7-0.5
	c0.1-0.1,0.1-0.1,0.2-0.1c0.1,0,0.2,0,0.2,0.1l1.1,1.1c0.1,0.1,0.1,0.3,0,0.4C11.7,26.2,11,26.6,10.2,26.8L10.2,26.8z M6.6,25.2
	L6.6,25.2c-0.2,0-0.2-0.1-0.3-0.2c-0.2-0.5-0.4-1.1-0.5-1.6c0-0.2,0.1-0.3,0.2-0.4l1.4-0.4c0.1,0,0.2,0,0.3,0c0.1,0,0.1,0.1,0.1,0.2
	c0,0.3,0.1,0.6,0.2,0.8c0.1,0.1,0,0.3-0.1,0.4l-1.2,1.1C6.8,25.2,6.7,25.2,6.6,25.2z M12.4,24.7c-0.1,0-0.1,0-0.2,0l-1.3-0.9
	c-0.1-0.1-0.2-0.2-0.1-0.3c0-0.3,0.1-0.6,0.1-0.9c0-0.2,0.1-0.3,0.3-0.3c0,0,0,0,0,0l1.4,0.2c0.2,0,0.3,0.2,0.3,0.3
	c0,0.6-0.1,1.1-0.2,1.7c0,0.1-0.1,0.2-0.2,0.2L12.4,24.7z M9.3,24.4c-0.1,0-0.1,0-0.1,0c0,0-0.1-0.1-0.1-0.1v-0.2H8.9l0,0
	c-0.1,0-0.2-0.1-0.2-0.2v-0.3c0-0.1,0.1-0.2,0.2-0.2h0.2L9,23c0-0.1,0-0.1,0-0.2c0,0,0.1-0.1,0.1-0.1h0.3c0.1,0,0.2,0.1,0.2,0.2v0.2
	h0.2c0.1,0,0.2,0.1,0.2,0.2v0.3c0,0.1-0.1,0.2-0.2,0.2H9.7v0.2c0,0.1,0,0.1,0,0.2c0,0-0.1,0.1-0.1,0.1L9.3,24.4L9.3,24.4z M9.6,24.1
	L9.6,24.1z M9.1,23.9L9.1,23.9z M8.9,23.5L8.9,23.5z M9.8,23.2L9.8,23.2z M9.2,23L9.2,23z M9.5,23L9.5,23z M6,22.6
	c-0.2,0-0.3-0.1-0.3-0.3c0-0.3,0-0.6,0-1C5.7,21.1,5.8,21,6,21c0,0,0,0,0,0l1.5,0.2c0.2,0,0.3,0.1,0.3,0.3l0,0c0,0.2,0,0.4,0,0.6
	c0,0.2-0.1,0.3-0.3,0.3L6,22.6L6,22.6z M9.1,22.2c-0.1,0-0.2-0.1-0.2-0.2v-0.2H8.7l0,0c-0.1,0-0.2-0.1-0.2-0.2v-0.3
	c0-0.1,0.1-0.2,0.2-0.2c0,0,0,0,0,0h0.2v-0.2c0-0.1,0.1-0.2,0.2-0.2h0.3c0.1,0,0.1,0,0.2,0c0,0,0.1,0.1,0.1,0.1V21h0.2
	c0.1,0,0.1,0,0.2,0c0,0,0.1,0.1,0.1,0.1v0.3c0,0.1-0.1,0.2-0.2,0.2H9.6v0.2c0,0.1-0.1,0.2-0.2,0.2L9.1,22.2L9.1,22.2z M9.1,22
	L9.1,22z M9.3,21.9L9.3,21.9z M9.5,21.7L9.5,21.7z M9.7,21.3L9.7,21.3z M9.6,21L9.6,21z M9.1,20.8L9.1,20.8z M11.1,22.1
	c-0.2,0-0.3-0.1-0.3-0.3c0-0.2-0.1-0.4-0.1-0.6c0-0.2,0.1-0.3,0.2-0.4l1.4-0.4c0.1,0,0.2,0,0.2,0c0.1,0,0.1,0.1,0.1,0.2
	c0.1,0.4,0.1,0.7,0.1,1c0,0.1,0,0.2-0.1,0.2c-0.1,0.1-0.1,0.1-0.2,0.1L11.1,22.1L11.1,22.1z M5.9,19.1c0,0-0.1,0-0.1,0
	c-0.1,0-0.1-0.1-0.2-0.2c-0.1-0.2-0.2-0.4-0.2-0.6c0-0.1,0-0.2,0-0.2c0-0.1,0.1-0.1,0.2-0.2l1.4-0.5c0.2-0.1,0.3,0,0.4,0.2
	c0.1,0.2,0.2,0.5,0.2,0.7c0.1,0.2,0,0.3-0.2,0.4l0,0L6.2,19L6,19L5.9,19.1z M12.1,18.5L12.1,18.5l-1.5-0.2c-0.1,0-0.3-0.1-0.3-0.3
	c0-0.3,0-0.5,0-0.8c0-0.1,0.1-0.2,0.1-0.2c0.1-0.1,0.2-0.1,0.2-0.1l0,0l1.5,0.3c0.2,0,0.3,0.2,0.3,0.3c0,0.2,0,0.4,0,0.6
	C12.4,18.4,12.3,18.5,12.1,18.5C12.1,18.5,12.1,18.5,12.1,18.5L12.1,18.5z M9,17.7c-0.1,0-0.2-0.1-0.2-0.2v-0.2H8.6
	c-0.1,0-0.1,0-0.2,0c0,0-0.1-0.1-0.1-0.1v-0.3c0-0.1,0.1-0.2,0.2-0.2h0.2v-0.2c0-0.1,0.1-0.2,0.2-0.2h0.3c0.1,0,0.1,0,0.2,0
	c0,0,0.1,0.1,0.1,0.1v0.2h0.2c0.1,0,0.2,0.1,0.2,0.2v0.3c0,0.1,0,0.1,0,0.2c0,0-0.1,0.1-0.1,0.1H9.5v0.2c0,0.1-0.1,0.2-0.2,0.2
	L9,17.7L9,17.7z M8.8,17.2L8.8,17.2z M8.5,17L8.5,17z M9.7,16.9L9.7,16.9z M8.5,16.7L8.5,16.7z M8.9,16.3L8.9,16.3z M9.1,16.2
	L9.1,16.2z M5.1,17.4c-0.1,0-0.2-0.1-0.3-0.2l-0.3-0.6c-0.1-0.2,0-0.3,0.1-0.4c0,0,0,0,0.1,0l1.5-0.3c0.1,0,0.3,0,0.3,0.2
	c0.1,0.2,0.2,0.5,0.4,0.7c0,0.1,0,0.2,0,0.3c0,0.1-0.1,0.1-0.2,0.2L5.1,17.4L5.1,17.4z M10.7,16.7c-0.1,0-0.2,0-0.2-0.1
	c-0.1-0.1-0.1-0.2-0.1-0.2l0,0c0.1-0.3,0.1-0.6,0.2-0.9c0-0.1,0.2-0.2,0.3-0.2l1.5,0.1c0.1,0,0.2,0.1,0.2,0.1c0,0.1,0,0.2,0,0.3
	c-0.1,0.3-0.2,0.5-0.2,0.7c0,0.1-0.2,0.2-0.3,0.2L10.7,16.7L10.7,16.7z M8.1,15.8c-0.1,0-0.2-0.1-0.2-0.2v-0.2H7.6
	c-0.1,0-0.1,0-0.2,0c0,0-0.1-0.1-0.1-0.1v-0.3c0-0.1,0.1-0.2,0.2-0.2c0,0,0,0,0,0h0.2v-0.2c0-0.1,0.1-0.2,0.2-0.2c0,0,0,0,0,0h0.3
	c0.1,0,0.2,0.1,0.2,0.2v0.2h0.2c0.1,0,0.2,0.1,0.2,0.2v0.3c0,0.1-0.1,0.2-0.2,0.2H8.5v0.2c0,0.1-0.1,0.2-0.2,0.2L8.1,15.8L8.1,15.8z
	 M8.1,15.6L8.1,15.6z M7.8,15.4L7.8,15.4z M7.6,15.2L7.6,15.2z M8.7,15L8.7,15z M7.8,14.7L7.8,14.7z M8.5,14.7L8.5,14.7z M4.2,15.7
	c-0.1,0-0.2-0.1-0.2-0.2c-0.1-0.2-0.2-0.3-0.2-0.5c0-0.1,0-0.2,0-0.3c0.1-0.1,0.1-0.2,0.2-0.2l1.6-0.1c0.1,0,0.2,0.1,0.3,0.2
	c0.1,0.2,0.3,0.5,0.4,0.8c0,0.1,0,0.2-0.1,0.3c0,0-0.1,0-0.1,0L4.2,15.7L4.2,15.7z M11.2,15c-0.1,0-0.2,0-0.2-0.1c0-0.1,0-0.2,0-0.3
	l0.1-0.2l0.2-0.6c0-0.1,0.2-0.2,0.3-0.2H13c0.2,0,0.3,0.1,0.3,0.3c0,0,0,0.1,0,0.1c-0.1,0.2-0.1,0.4-0.2,0.6c0,0.1-0.1,0.2-0.3,0.2
	L11.2,15L11.2,15z M5.2,14.2L5.2,14.2l-1.6-0.1c-0.1,0-0.2-0.1-0.3-0.2c-0.1-0.3-0.2-0.6-0.2-0.8c0-0.1,0-0.2,0.1-0.2
	c0.1-0.1,0.1-0.1,0.2-0.1l0,0l1.5,0.1c0.1,0,0.3,0.1,0.3,0.2l0,0c0.1,0.3,0.1,0.6,0.2,0.8c0.1,0.1,0.1,0.2,0,0.3
	C5.4,14.2,5.3,14.3,5.2,14.2L5.2,14.2z M9.7,14c-0.1,0-0.2-0.1-0.2-0.2v-0.2H9.2c0,0-0.1,0-0.1,0c0,0-0.1-0.1-0.1-0.2v-0.3
	C9,13.1,9.1,13,9.2,13h0.2v-0.2c0-0.1,0-0.1,0.1-0.2c0,0,0.1-0.1,0.1-0.1h0.3c0.1,0,0.1,0,0.2,0c0,0,0.1,0.1,0.1,0.1v0.2h0.2
	c0.1,0,0.2,0.1,0.2,0.2v0.3c0,0.1-0.1,0.2-0.2,0.2h-0.2v0.2c0,0.1-0.1,0.2-0.2,0.2L9.7,14L9.7,14z M9.7,13.8L9.7,13.8z M9.4,13.6
	L9.4,13.6z M9.2,13.4L9.2,13.4z M10.3,13.3L10.3,13.3z M9.4,12.9L9.4,12.9z M10.1,12.9L10.1,12.9z M9.8,12.7L9.8,12.7z M6.8,14
	c-0.1,0-0.2-0.1-0.2-0.2v-0.2H6.4l0,0c-0.1,0-0.2-0.1-0.2-0.2v-0.3c0-0.1,0.1-0.2,0.2-0.2h0.2v-0.2c0-0.1,0-0.1,0-0.2
	c0,0,0.1-0.1,0.2-0.1H7c0.1,0,0.2,0.1,0.2,0.2v0.2h0.2c0.1,0,0.1,0,0.2,0.1c0,0,0.1,0.1,0.1,0.1v0.3c0,0.1-0.1,0.2-0.2,0.2H7.3v0.2
	c0,0.1-0.1,0.2-0.2,0.2L6.8,14L6.8,14z M6.6,13.5L6.6,13.5z M7.5,13.2L7.5,13.2z M6.3,13.1L6.3,13.1z M6.7,12.7L6.7,12.7z
	 M11.7,13.4c-0.1,0-0.2,0-0.2-0.1c-0.1-0.1-0.1-0.2-0.1-0.3l0,0c0.1-0.2,0.1-0.5,0.1-0.7c0-0.1,0.1-0.3,0.3-0.3l1.5-0.2
	c0.2,0,0.3,0.1,0.3,0.3c0,0,0,0,0,0.1c0,0.2,0,0.5-0.1,0.7c0,0.1-0.1,0.2-0.2,0.3L11.7,13.4L11.7,13.4z M4.8,12.5L4.8,12.5l-1.6-0.4
	c-0.2,0-0.3-0.2-0.2-0.3c0-0.3,0-0.6,0-0.9c0-0.2,0.1-0.3,0.3-0.3c0,0,0.1,0,0.1,0L4.9,11c0.1,0,0.2,0.2,0.2,0.3l0,0
	c0,0.3,0,0.5,0,0.8c0,0.1-0.1,0.2-0.2,0.3C4.9,12.4,4.9,12.5,4.8,12.5L4.8,12.5z M6.4,12.1c-0.1,0-0.2-0.1-0.2-0.2v-0.2H6
	c-0.1,0-0.2-0.1-0.2-0.2v-0.3c0-0.1,0.1-0.2,0.2-0.2c0,0,0,0,0,0h0.2v-0.2c0-0.1,0.1-0.2,0.2-0.2c0,0,0,0,0,0h0.3c0.1,0,0.1,0,0.2,0
	c0,0,0.1,0.1,0.1,0.1v0.2h0.2l0,0c0.1,0,0.2,0.1,0.2,0.2v0.3c0,0.1,0,0.1,0,0.2c0,0-0.1,0.1-0.2,0.1H6.9v0.2c0,0.1-0.1,0.2-0.2,0.2
	L6.4,12.1L6.4,12.1z M6.4,11.9L6.4,11.9z M6.7,11.9L6.7,11.9z M7.1,11.4L7.1,11.4z M7,11.1L7,11.1z M6.8,10.9L6.8,10.9z M6.5,10.7
	L6.5,10.7z M10,12.1c-0.1,0-0.2-0.1-0.2-0.2v-0.2H9.5l0,0c-0.1,0-0.2-0.1-0.2-0.2v-0.3c0-0.1,0-0.1,0.1-0.2c0,0,0,0,0.1,0h0.2v-0.2
	c0-0.1,0.1-0.2,0.2-0.2h0.3c0.1,0,0.2,0.1,0.2,0.2V11h0.2c0.1,0,0.1,0,0.2,0c0,0,0.1,0.1,0.1,0.1v0.3c0,0.1-0.1,0.2-0.2,0.2
	c0,0,0,0,0,0h-0.2v0.2c0,0.1-0.1,0.2-0.2,0.2L10,12.1L10,12.1z M10.2,11.9L10.2,11.9z M9.8,11.6L9.8,11.6z M9.5,11.2L9.5,11.2z
	 M9.9,10.8L9.9,10.8z M11.9,11.8c-0.2,0-0.3-0.1-0.3-0.3v0c0-0.3,0-0.5,0-0.8l0,0c0-0.1,0.1-0.3,0.2-0.3l1.4-0.5c0.1,0,0.2,0,0.3,0
	c0.1,0.1,0.1,0.1,0.1,0.2l0,0v0.4c0,0.2,0,0.3,0,0.4c0,0.1-0.1,0.3-0.2,0.3L12,11.8L11.9,11.8z M4.9,10.8H4.7L3.2,10
	C3.1,9.9,3,9.8,3.1,9.7c0-0.3,0.1-0.6,0.1-0.9c0-0.1,0.1-0.2,0.2-0.2c0.1,0,0.2,0,0.3,0l1.6,0.8c0.1,0.1,0.2,0.2,0.2,0.3
	c0,0.2-0.1,0.5-0.1,0.7C5.2,10.6,5.1,10.7,4.9,10.8L4.9,10.8z M9.3,10.2c-0.1,0-0.1,0-0.1-0.1c0,0,0-0.1,0-0.1V9.8H8.9
	c-0.1,0-0.2-0.1-0.2-0.2V9.3c0-0.1,0-0.1,0-0.2c0,0,0.1-0.1,0.1-0.1h0.2V8.8c0-0.1,0.1-0.2,0.2-0.2h0.3c0.1,0,0.1,0,0.2,0
	c0,0,0.1,0.1,0.1,0.1V9L10,9c0.1,0,0.1,0,0.2,0c0,0,0.1,0.1,0.1,0.1v0.3c0,0.1-0.1,0.2-0.2,0.2H9.8v0.2c0,0.1-0.1,0.2-0.2,0.2
	c0,0,0,0,0,0L9.3,10.2L9.3,10.2z M9.3,10L9.3,10z M9.7,9.7L9.7,9.7z M8.9,9.6L8.9,9.6z M10,9.4L10,9.4z M8.8,9.3L8.8,9.3z M9.1,9.1
	L9.1,9.1z M9.2,8.8L9.2,8.8z M9.5,8.8L9.5,8.8z M7,10.1c-0.1,0-0.2-0.1-0.2-0.2V9.7H6.6c-0.1,0-0.1,0-0.2,0c0,0-0.1-0.1-0.1-0.1V9.3
	c0-0.1,0-0.2,0.1-0.3c0,0,0,0,0,0h0.2V8.8c0-0.1,0-0.1,0-0.2c0,0,0.1-0.1,0.2-0.1h0.3c0.1,0,0.1,0,0.2,0c0,0,0.1,0.1,0.1,0.1v0.2
	h0.2c0.1,0,0.2,0.1,0.2,0.2c0,0,0,0,0,0v0.3c0,0.1-0.1,0.2-0.2,0.2H7.4v0.2c0,0.1-0.1,0.2-0.2,0.2L7,10.1L7,10.1z M7.3,9.9L7.3,9.9z
	 M6.5,9.5L6.5,9.5z M7.6,9.1L7.6,9.1z M7.1,8.8L7.1,8.8z M11.7,10.1c0,0-0.1,0-0.1,0c-0.1,0-0.2-0.1-0.2-0.2l0,0
	c0-0.2,0-0.4-0.1-0.7c0-0.1,0-0.3,0.1-0.3L12.8,8c0.1,0,0.2,0,0.3,0c0.1,0,0.2,0.1,0.2,0.2c0.1,0.3,0.1,0.5,0.1,0.8
	c0,0.1,0,0.3-0.2,0.3l-1.4,0.8C11.8,10.1,11.8,10.1,11.7,10.1L11.7,10.1z M5.2,9.1c-0.1,0-0.2,0-0.2-0.1L3.6,7.9
	C3.5,7.8,3.4,7.7,3.5,7.6c0.1-0.3,0.2-0.6,0.3-0.9c0-0.1,0.1-0.2,0.2-0.2c0.1,0,0.2,0,0.3,0.1l1.4,1.4C5.8,8,5.8,8.1,5.8,8.2l0,0
	C5.7,8.4,5.6,8.7,5.5,8.9c0,0.1-0.1,0.2-0.2,0.2L5.2,9.1z M11.4,8.6L11.4,8.6c-0.2,0-0.3-0.1-0.3-0.2l0,0C11,8.2,11,8,10.9,7.8
	c0-0.1,0-0.2,0.1-0.3l1.1-1.3c0.1-0.1,0.3-0.1,0.4,0c0,0,0.1,0.1,0.1,0.1c0.1,0.3,0.2,0.6,0.3,0.8c0,0.1,0,0.2-0.1,0.3l-1.2,1.1
	C11.6,8.5,11.5,8.6,11.4,8.6L11.4,8.6z M8.3,8.3c-0.1,0-0.2-0.1-0.2-0.2c0,0,0,0,0,0L8,7.9H7.8c-0.1,0-0.1,0-0.2,0
	c0,0-0.1-0.1-0.1-0.2V7.5c0-0.1,0.1-0.2,0.2-0.2L8,7.2V7c0-0.1,0.1-0.2,0.2-0.2h0.3c0.1,0,0.2,0.1,0.2,0.2c0,0,0,0,0,0v0.2h0.2
	c0.1,0,0.2,0.1,0.2,0.2v0.3c0,0.1,0,0.1,0,0.2c-0.1,0-0.1,0-0.2,0H8.8v0.2c0,0.1-0.1,0.2-0.2,0.2c0,0,0,0,0,0L8.3,8.3L8.3,8.3z
	 M8.5,8.1L8.5,8.1z M7.8,7.7L7.8,7.7z M9,7.6L9,7.6z M7.8,7.5L7.8,7.5z M8.9,7.3L8.9,7.3z M5.9,7.6c-0.1,0-0.2,0-0.3-0.1L4.4,5.7
	c-0.1-0.1-0.1-0.2,0-0.3c0.2-0.3,0.5-0.6,0.7-0.9c0.1-0.1,0.2-0.1,0.3-0.1c0.1,0,0.2,0.1,0.2,0.2l1,1.8c0.1,0.1,0.1,0.2,0,0.3
	C6.5,7,6.3,7.2,6.2,7.4C6.1,7.5,6,7.6,5.9,7.6L5.9,7.6z M10.8,7c-0.1,0-0.2-0.1-0.3-0.2l0,0c-0.1-0.2-0.3-0.4-0.4-0.6
	C10.1,6.2,10,6.1,10.1,6l0.6-1.8c0-0.2,0.2-0.3,0.4-0.2c0,0,0.1,0,0.1,0.1c0.3,0.3,0.5,0.6,0.7,0.9C12,5,12,5.1,11.9,5.2l-0.9,1.6
	C11,6.9,10.9,7,10.8,7L10.8,7z M7.1,6.2L7.1,6.2C6.9,6.2,6.8,6.1,6.8,6L6.1,4c0-0.1,0-0.3,0.2-0.4C6.6,3.5,7,3.3,7.3,3.2
	c0.1,0,0.2,0,0.2,0c0.1,0,0.1,0.1,0.1,0.2l0.4,2c0,0.2-0.1,0.3-0.2,0.4l0,0C7.7,5.8,7.5,6,7.2,6.1C7.2,6.2,7.1,6.2,7.1,6.2z
	 M9.5,5.8H9.4C9.2,5.7,8.9,5.7,8.6,5.7c0,0-0.1,0-0.1,0c0,0-0.1-0.1-0.1-0.1V3.4c0-0.1,0-0.2,0.1-0.2C8.5,3.1,8.6,3,8.6,3h0.1
	C9.1,3,9.6,3.1,10,3.2c0.1,0.1,0.2,0.2,0.2,0.3l-0.3,2C9.9,5.7,9.7,5.8,9.5,5.8L9.5,5.8z M8.6,5.5L8.6,5.5z M8.6,5.4L8.6,5.4z"/>
<path class="st2" d="M19.8,34.9L19.8,34.9c0.8,0,1.5-0.3,2.1-0.8c0.1-0.1,0.1-0.3,0-0.4L21,32.4c-0.1-0.1-0.1-0.1-0.2-0.1
	c-0.1,0-0.2,0-0.2,0.1l0,0c-0.2,0.2-0.5,0.4-0.8,0.4c-0.2,0-0.3,0.2-0.3,0.3v1.5c0,0.1,0,0.2,0.1,0.2C19.7,34.8,19.7,34.9,19.8,34.9
	z M18.8,34.8c0.1,0,0.1,0,0.2,0c0.1,0,0.1-0.1,0.1-0.2l0.3-1.5c0-0.2-0.1-0.3-0.2-0.3c-0.3-0.1-0.5-0.3-0.7-0.5
	c-0.1-0.1-0.1-0.1-0.2-0.1c-0.1,0-0.2,0-0.2,0.1l-1.1,1.1c-0.1,0.1-0.1,0.3,0,0.4C17.3,34.2,18,34.6,18.8,34.8L18.8,34.8z
	 M22.4,33.2L22.4,33.2c0.2,0,0.2-0.1,0.3-0.2c0.2-0.5,0.4-1.1,0.5-1.6c0-0.2-0.1-0.3-0.2-0.4l-1.4-0.4c-0.1,0-0.2,0-0.3,0
	c-0.1,0-0.1,0.1-0.1,0.2c0,0.3-0.1,0.6-0.2,0.8c0,0.1,0,0.3,0.1,0.3l1.1,1.1C22.2,33.2,22.3,33.2,22.4,33.2z M16.6,32.7
	c0.1,0,0.1,0,0.2,0l1.3-0.9c0.1-0.1,0.2-0.2,0.1-0.3c0-0.3-0.1-0.6,0-0.9c0-0.2-0.1-0.3-0.3-0.3c0,0,0,0,0,0l-1.5,0.2
	c-0.2,0-0.3,0.2-0.3,0.3c0,0.6,0.1,1.1,0.2,1.7c0,0.1,0.1,0.2,0.2,0.2L16.6,32.7z M19.6,32.4c0.1,0,0.1,0,0.1,0c0,0,0.1-0.1,0.1-0.2
	v-0.2h0.2l0,0c0.1,0,0.2-0.1,0.2-0.2v-0.3c0-0.1-0.1-0.2-0.2-0.2h-0.2L20,31c0-0.1,0-0.1,0-0.2c0,0-0.1-0.1-0.1-0.1h-0.3
	c-0.1,0-0.2,0.1-0.2,0.2v0.2h-0.2c-0.1,0-0.2,0.1-0.2,0.2v0.3c0,0.1,0.1,0.2,0.2,0.2h0.2v0.2c0,0.1,0,0.1,0,0.2c0,0,0.1,0.1,0.1,0.1
	L19.6,32.4L19.6,32.4z M19.4,32.1L19.4,32.1z M19.9,31.9L19.9,31.9z M20.1,31.5L20.1,31.5z M19.2,31.2L19.2,31.2z M19.7,31L19.7,31z
	 M19.5,31L19.5,31z M23,30.7c0.2,0,0.3-0.1,0.3-0.3c0-0.3,0-0.6,0-1c0-0.2-0.1-0.3-0.2-0.4c0,0,0,0,0,0l-1.5,0.2
	c-0.2,0-0.3,0.1-0.3,0.3l0,0c0,0.2,0,0.4,0,0.6c0,0.2,0.1,0.3,0.3,0.3L23,30.7L23,30.7z M19.8,30.2c0.1,0,0.2-0.1,0.2-0.2
	c0,0,0,0,0,0v-0.2h0.2l0,0c0.1,0,0.2-0.1,0.2-0.2v-0.3c0-0.1-0.1-0.2-0.2-0.2c0,0,0,0,0,0H20v-0.2c0-0.1-0.1-0.2-0.2-0.2h-0.3
	c-0.1,0-0.1,0-0.2,0c0,0-0.1,0.1-0.1,0.1V29h-0.2c0,0,0,0-0.1,0c0,0-0.1,0.1-0.1,0.1v0.3c0,0.1,0.1,0.2,0.2,0.2h0.2v0.2
	c0,0.1,0.1,0.2,0.2,0.2h0.3V30.2z M19.8,30L19.8,30z M19.6,30L19.6,30z M19.4,29.8L19.4,29.8z M19.2,29.3L19.2,29.3z M19.5,29.1
	L19.5,29.1z M20,28.9L20,28.9z M17.9,30.2c0.2,0,0.3-0.1,0.3-0.3c0-0.2,0-0.4,0.1-0.6c0-0.2-0.1-0.3-0.2-0.4l-1.4-0.4
	c-0.1,0-0.2,0-0.2,0c-0.1,0-0.1,0.1-0.1,0.2c-0.1,0.4-0.1,0.7-0.1,1c0,0.1,0,0.2,0.1,0.2c0.1,0.1,0.1,0.1,0.2,0.1L17.9,30.2
	L17.9,30.2z M23.2,27.2c0,0,0.1,0,0.1,0c0.1,0,0.1-0.1,0.2-0.2c0.1-0.2,0.1-0.4,0.2-0.6c0-0.1,0-0.2,0-0.2c0-0.1-0.1-0.1-0.2-0.2
	l-1.4-0.5c-0.2-0.1-0.3,0-0.4,0.2c-0.1,0.2-0.2,0.5-0.2,0.7c-0.1,0.2,0,0.3,0.2,0.4l0,0l1.1,0.4L23.2,27.2L23.2,27.2z M16.9,26.7
	L16.9,26.7l1.5-0.2c0.1,0,0.3-0.1,0.3-0.3c0-0.3,0-0.5,0-0.8c0.1-0.1,0-0.3-0.1-0.4c-0.1-0.1-0.2-0.1-0.2-0.1l0,0l-1.5,0.3
	c-0.2,0-0.3,0.2-0.3,0.3c0,0.2,0,0.4,0,0.6c0,0.2,0.1,0.3,0.3,0.3c0,0,0,0,0,0L16.9,26.7z M20,25.7c0.1,0,0.2-0.1,0.2-0.2v-0.2h0.2
	c0.1,0,0.1,0,0.2,0c0,0,0.1-0.1,0.1-0.1v-0.3c0-0.1-0.1-0.2-0.2-0.2h-0.2v-0.2c0-0.1-0.1-0.2-0.2-0.2h-0.3c-0.1,0-0.1,0-0.2,0
	c0,0-0.1,0.1-0.1,0.1v0.2h-0.2c-0.1,0-0.2,0.1-0.2,0.2v0.3c0,0.1,0,0.1,0,0.2c0,0,0.1,0.1,0.1,0.1h0.2v0.2c0,0.1,0.1,0.2,0.2,0.2
	L20,25.7L20,25.7z M20.2,25.2L20.2,25.2z M20.5,25.1L20.5,25.1z M19.3,24.9L19.3,24.9z M20.5,24.8L20.5,24.8z M20.1,24.3L20.1,24.3z
	 M19.9,24.3L19.9,24.3z M23.9,25.4c0.1,0,0.2-0.1,0.3-0.2l0.3-0.6c0.1-0.2,0-0.3-0.1-0.4c0,0,0,0-0.1,0l-1.5-0.3
	c-0.1,0-0.3,0-0.3,0.2c-0.1,0.2-0.2,0.5-0.4,0.7c0,0.1,0,0.2,0,0.3c0,0.1,0.1,0.1,0.2,0.2L23.9,25.4L23.9,25.4z M18.3,24.8
	c0.1,0,0.2,0,0.2-0.1c0.1-0.1,0.1-0.2,0.1-0.2l0,0c-0.1-0.3-0.1-0.6-0.2-0.9c0-0.1-0.2-0.2-0.3-0.2l-1.5,0.1c-0.1,0-0.2,0.1-0.2,0.1
	c0,0.1,0,0.2,0,0.3c0.1,0.3,0.2,0.5,0.2,0.7c0,0.1,0.2,0.2,0.3,0.2L18.3,24.8L18.3,24.8z M20.9,23.8c0.1,0,0.2-0.1,0.2-0.2v-0.2h0.2
	c0.1,0,0.1,0,0.2,0c0,0,0.1-0.1,0.1-0.1V23c0-0.1-0.1-0.2-0.2-0.2c0,0,0,0,0,0h-0.2v-0.2c0-0.1-0.1-0.2-0.2-0.2h-0.3
	c-0.1,0-0.2,0.1-0.2,0.2v0.2h-0.2c-0.1,0-0.2,0.1-0.2,0.2v0.3c0,0.1,0.1,0.2,0.2,0.2h0.2v0.2c0,0.1,0.1,0.2,0.2,0.2L20.9,23.8
	L20.9,23.8z M20.9,23.6L20.9,23.6z M21.2,23.4L21.2,23.4z M21.4,23.2L21.4,23.2z M20.3,23.1L20.3,23.1z M21.2,22.7L21.2,22.7z
	 M20.5,22.7L20.5,22.7z M24.8,23.8c0.1,0,0.2-0.1,0.3-0.2c0.1-0.2,0.2-0.3,0.2-0.5c0-0.1,0-0.2,0-0.3c-0.1-0.1-0.1-0.1-0.2-0.1
	l-1.6-0.1c-0.1,0-0.2,0.1-0.3,0.2c-0.1,0.2-0.3,0.5-0.4,0.8c0,0.1,0,0.2,0.1,0.3c0,0,0.1,0,0.1,0L24.8,23.8L24.8,23.8z M17.8,23
	c0.1,0,0.2,0,0.2-0.1c0-0.1,0-0.2,0-0.3L18,22.5l-0.2-0.6c0-0.1-0.2-0.2-0.3-0.2H16c-0.2,0-0.3,0.1-0.3,0.3c0,0,0,0.1,0,0.1
	c0.1,0.2,0.1,0.4,0.2,0.6c0,0.1,0.1,0.2,0.3,0.2L17.8,23L17.8,23z M23.8,22.2L23.8,22.2l1.6-0.1c0.1,0,0.2-0.1,0.3-0.2
	c0.1-0.3,0.1-0.6,0.2-0.9c0-0.1,0-0.2-0.1-0.2c-0.1-0.1-0.1-0.1-0.2-0.1l0,0L24,20.8c-0.1,0-0.3,0.1-0.3,0.2l0,0
	c-0.1,0.3-0.1,0.6-0.2,0.8c-0.1,0.1-0.1,0.2,0,0.3C23.5,22.2,23.7,22.3,23.8,22.2L23.8,22.2z M19.3,22c0.1,0,0.2-0.1,0.2-0.2v-0.2
	h0.2c0,0,0.1,0,0.1,0c0,0,0.1-0.1,0.1-0.1v-0.3c0-0.1-0.1-0.2-0.2-0.2h-0.2v-0.2c0-0.1,0-0.1,0-0.2c0,0-0.1-0.1-0.1-0.1h-0.3
	c-0.1,0-0.1,0-0.2,0c0,0-0.1,0.1-0.1,0.1v0.2h-0.2c-0.1,0-0.2,0.1-0.2,0.2v0.3c0,0.1,0.1,0.2,0.2,0.2h0.2v0.2c0,0.1,0.1,0.2,0.2,0.2
	c0,0,0,0,0,0H19.3L19.3,22z M19.3,21.8L19.3,21.8z M19.6,21.6L19.6,21.6z M19.8,21.4L19.8,21.4z M18.7,21.3L18.7,21.3z M19.6,20.9
	L19.6,20.9z M18.9,20.9L18.9,20.9z M19.2,20.7L19.2,20.7z M22.2,22c0.1,0,0.2-0.1,0.2-0.2v-0.2h0.2l0,0c0.1,0,0.2-0.1,0.2-0.2v-0.3
	c0-0.1-0.1-0.2-0.2-0.2h-0.2v-0.2c0-0.1,0-0.1,0-0.2c0,0-0.1-0.1-0.1-0.1H22c-0.1,0-0.2,0.1-0.2,0.2v0.2h-0.2c-0.1,0-0.1,0-0.2,0
	c0,0-0.1,0.1-0.1,0.1v0.3c0,0.1,0.1,0.2,0.2,0.2h0.2v0.2c0,0.1,0.1,0.2,0.2,0.2C21.9,22,22.2,22,22.2,22z M22.4,21.5L22.4,21.5z
	 M21.5,21.2L21.5,21.2z M22.7,21.1L22.7,21.1z M22.3,20.6L22.3,20.6z M17.4,21.4c0.1,0,0.2,0,0.2-0.1c0.1-0.1,0.1-0.2,0-0.3l0,0
	c-0.1-0.2-0.1-0.5-0.1-0.7c0-0.1-0.1-0.2-0.3-0.3l-1.5-0.2c-0.2,0-0.3,0.1-0.3,0.3c0,0,0,0,0,0.1c0,0.2,0,0.5,0.1,0.7
	c0,0.1,0.1,0.2,0.2,0.3l1.6,0.3L17.4,21.4z M24.2,20.5L24.2,20.5l1.6-0.4c0.1,0,0.2-0.2,0.2-0.3c0-0.3,0-0.5,0-0.9
	c0-0.2-0.1-0.3-0.3-0.3c0,0-0.1,0-0.1,0l-1.5,0.4c-0.1,0-0.2,0.2-0.2,0.3l0,0c0,0.3,0,0.5,0,0.8c0,0.1,0,0.2,0.1,0.2
	C24,20.5,24.1,20.5,24.2,20.5L24.2,20.5z M22.6,20.1c0.1,0,0.2-0.1,0.2-0.2v-0.2h0.2c0.1,0,0.2-0.1,0.2-0.2v-0.3
	c0-0.1-0.1-0.2-0.2-0.2c0,0,0,0,0,0h-0.2v-0.2c0-0.1-0.1-0.2-0.2-0.2c0,0,0,0,0,0h-0.3c-0.1,0-0.1,0-0.2,0c0,0-0.1,0.1-0.1,0.1v0.2
	h-0.2l0,0c-0.1,0-0.2,0.1-0.2,0.2v0.3c0,0.1,0,0.1,0,0.2c0,0,0.1,0.1,0.1,0.1h0.2v0.2c0,0.1,0.1,0.2,0.2,0.2L22.6,20.1L22.6,20.1z
	 M22.6,19.9L22.6,19.9z M22.4,19.8L22.4,19.8z M22,19.3L22,19.3z M22,19.1L22,19.1z M22.2,19L22.2,19z M22.5,18.7L22.5,18.7z
	 M19,20.1c0.1,0,0.2-0.1,0.2-0.2v-0.2h0.2l0,0c0.1,0,0.2-0.1,0.2-0.2v-0.3c0-0.1,0-0.1,0-0.2c0,0-0.1-0.1-0.1-0.1h-0.2v-0.2
	c0-0.1-0.1-0.2-0.2-0.2h-0.3c-0.1,0-0.2,0.1-0.2,0.2v0.2h-0.2c-0.1,0-0.1,0-0.2,0c0,0-0.1,0.1-0.1,0.1v0.3c0,0.1,0.1,0.2,0.2,0.2
	c0,0,0,0,0,0h0.2v0.2c0,0.1,0.1,0.2,0.2,0.2L19,20.1L19,20.1z M18.8,19.9L18.8,19.9z M19.2,19.6L19.2,19.6z M19.5,19.3L19.5,19.3z
	 M19.1,18.8L19.1,18.8z M17.1,19.8c0.2,0,0.3-0.1,0.3-0.3c0-0.3,0-0.5,0-0.8l0,0c0-0.1-0.1-0.3-0.2-0.3l-1.4-0.5c-0.1,0-0.2,0-0.3,0
	c-0.1,0.1-0.1,0.1-0.1,0.2l0,0v0.4c0,0.2,0,0.3,0,0.5c0,0.1,0.1,0.3,0.2,0.3L17.1,19.8L17.1,19.8z M24.1,18.8h0.1l1.5-0.8
	c0.1-0.1,0.2-0.2,0.2-0.3c0-0.3-0.1-0.6-0.1-0.9c0-0.1-0.1-0.2-0.2-0.2c-0.1,0-0.2,0-0.3,0l-1.5,0.8c-0.1,0.1-0.2,0.2-0.2,0.3
	c0,0.2,0.1,0.5,0.1,0.7C23.8,18.6,23.9,18.7,24.1,18.8L24.1,18.8z M19.7,18.2c0.1,0,0.1,0,0.1,0c0,0,0.1-0.1,0.1-0.1v-0.2h0.2
	c0.1,0,0.2-0.1,0.2-0.2v-0.3c0-0.1,0-0.1,0-0.2c0,0-0.1-0.1-0.1-0.1H20v-0.2c0-0.1-0.1-0.2-0.2-0.2h-0.3c-0.1,0-0.1,0-0.2,0
	c0,0-0.1,0.1-0.1,0.1V17L19,17c-0.1,0-0.1,0-0.2,0c0,0-0.1,0.1-0.1,0.1v0.3c0,0.1,0.1,0.2,0.2,0.2h0.2v0.2c0,0.1,0.1,0.2,0.2,0.2
	c0,0,0,0,0,0L19.7,18.2L19.7,18.2z M19.7,18L19.7,18z M19.3,17.7L19.3,17.7z M20.2,17.6L20.2,17.6z M19,17.5L19,17.5z M20.2,17.4
	L20.2,17.4z M19.9,17.1L19.9,17.1z M19.7,16.8L19.7,16.8z M19.5,16.8L19.5,16.8z M22,18.1c0.1,0,0.2-0.1,0.2-0.2v-0.2h0.2
	c0.1,0,0.1,0,0.2,0c0,0,0.1-0.1,0.1-0.1v-0.3c0-0.1-0.1-0.2-0.2-0.2c0,0,0,0,0,0h-0.2v-0.2c0-0.1,0-0.1,0-0.2c0,0-0.1-0.1-0.1-0.1
	h-0.3c-0.1,0-0.1,0-0.2,0c0,0-0.1,0.1-0.1,0.1V17h-0.2c-0.1,0-0.2,0.1-0.2,0.2c0,0,0,0,0,0v0.3c0,0.1,0.1,0.2,0.2,0.2h0.2v0.2
	c0,0.1,0.1,0.2,0.2,0.2L22,18.1L22,18.1z M21.7,17.9L21.7,17.9z M22.4,17.5L22.4,17.5z M21.3,17.1L21.3,17.1z M21.8,16.7L21.8,16.7z
	 M17.2,18.1c0,0,0.1,0,0.1,0c0.1,0,0.2-0.1,0.2-0.2l0,0c0-0.2,0-0.4,0.1-0.7c0-0.1,0-0.3-0.1-0.3l-1.3-0.8c-0.1,0-0.2,0-0.3,0
	c-0.1,0-0.2,0.1-0.2,0.2c-0.1,0.3-0.1,0.5-0.1,0.8c0,0.1,0,0.3,0.2,0.3l1.4,0.8C17.1,18.2,17.2,18.2,17.2,18.1L17.2,18.1z
	 M23.7,17.1c0.1,0,0.1,0,0.2-0.1l1.5-1.2c0.1-0.1,0.1-0.2,0.1-0.3c-0.1-0.3-0.2-0.6-0.3-0.9c0-0.1-0.1-0.2-0.2-0.2
	c-0.1,0-0.2,0-0.3,0.1l-1.4,1.4c-0.1,0.1-0.1,0.2-0.1,0.3l0,0c0.1,0.2,0.2,0.4,0.2,0.7C23.5,17,23.6,17.1,23.7,17.1L23.7,17.1z
	 M17.5,16.6L17.5,16.6c0.2,0,0.3-0.1,0.3-0.2l0,0c0.1-0.2,0.1-0.4,0.2-0.6c0-0.1,0-0.2,0-0.3l-1.1-1.4c-0.1-0.1-0.3-0.1-0.4,0
	c0,0-0.1,0.1-0.1,0.1c-0.1,0.3-0.2,0.6-0.3,0.8c0,0.1,0,0.2,0.1,0.3l1.2,1.1C17.4,16.6,17.5,16.6,17.5,16.6L17.5,16.6z M20.7,16.3
	c0.1,0,0.2-0.1,0.2-0.2c0,0,0,0,0,0v-0.2h0.2c0.1,0,0.1,0,0.2,0c0,0,0.1-0.1,0.1-0.1v-0.3c0-0.1-0.1-0.2-0.2-0.2h-0.2L21,15
	c0-0.1-0.1-0.2-0.2-0.2h-0.3c-0.1,0-0.2,0.1-0.2,0.2c0,0,0,0,0,0v0.2h-0.2c-0.1,0-0.2,0.1-0.2,0.2v0.3c0,0.1,0,0.1,0,0.2
	c0,0,0.1,0.1,0.1,0.1h0.2v0.2c0,0.1,0.1,0.2,0.2,0.2c0,0,0,0,0,0L20.7,16.3L20.7,16.3z M20.4,16.1L20.4,16.1z M21.1,15.7L21.1,15.7z
	 M20,15.6L20,15.6z M21.2,15.5L21.2,15.5z M20.1,15.4L20.1,15.4z M23.1,15.6c0.1,0,0.2,0,0.3-0.1l1.2-1.7c0.1-0.1,0.1-0.2,0-0.4
	c-0.2-0.3-0.5-0.6-0.7-0.9c-0.1-0.1-0.2-0.1-0.3-0.1c-0.1,0-0.2,0.1-0.2,0.2l-1,1.9c-0.1,0.1-0.1,0.2,0,0.3c0.2,0.2,0.3,0.4,0.4,0.6
	C22.8,15.5,22.9,15.6,23.1,15.6L23.1,15.6z M18.1,15.1c0.1,0,0.2-0.1,0.3-0.1l0,0c0.1-0.2,0.3-0.4,0.4-0.6c0.1-0.1,0.1-0.2,0.1-0.3
	l-0.6-1.8C18.2,12,18,11.9,17.8,12c0,0-0.1,0-0.1,0.1c-0.3,0.3-0.5,0.6-0.7,0.9c-0.1,0.1-0.1,0.2,0,0.3l0.9,1.6
	C17.9,15,18,15,18.1,15.1L18.1,15.1z M21.9,14.2H22c0.1,0,0.2-0.1,0.2-0.2l0.6-2c0-0.1,0-0.3-0.1-0.4c-0.3-0.2-0.7-0.3-1.1-0.4
	c-0.1,0-0.2,0-0.2,0c-0.1,0-0.1,0.1-0.1,0.2l-0.4,2c0,0.2,0.1,0.3,0.2,0.4l0,0c0.2,0.1,0.5,0.2,0.7,0.4
	C21.8,14.2,21.8,14.2,21.9,14.2L21.9,14.2z M19.4,13.8h0.1c0.3-0.1,0.5-0.1,0.8-0.1c0,0,0.1,0,0.1,0c0,0,0.1-0.1,0.1-0.1v-2.2
	c0-0.1,0-0.2-0.1-0.2c-0.1-0.1-0.1-0.1-0.2-0.1h-0.1c-0.4,0-0.9,0.1-1.3,0.2c-0.1,0.1-0.2,0.2-0.2,0.3l0.3,2
	C19.1,13.8,19.2,13.9,19.4,13.8L19.4,13.8z M20.3,13.5L20.3,13.5z M20.4,13.4L20.4,13.4z"/>
</svg>
