<svg xmlns="http://www.w3.org/2000/svg" viewBox="0 0 50.99 31.05"><defs><style>.a{opacity:0.8;}.b{fill:#fff;}.c{fill:#9ea7b3;}</style></defs><title>Asset 29</title><g class="a"><path class="b" d="M17.44,3a2.55,2.55,0,1,1-2.55,2.55A2.55,2.55,0,0,1,17.44,3M3.85,6.83v.43H10l.43.43v.85H20.63A2.34,2.34,0,0,1,23,10.87v.63h0c.6,0,1.47,0,2.25.07s1.38.05,1.71.05.88,0,1.49.09,1.62.12,2.31.12,1.94-.19,3.1-.35,2-.28,2.36-.28h.14c.26,0,.78.14,1.33.25a17.24,17.24,0,0,0,1.78.32h0c.5,0,1.61-.1,2-.14l.32,0a3.13,3.13,0,0,0,.89-.12l.33-.1a2.08,2.08,0,0,1,.11-.85.58.58,0,0,1,.48-.24.52.52,0,0,1,.21,0,3.64,3.64,0,0,1,.82.77.67.67,0,0,1,.07.15,3.3,3.3,0,0,1,.51.29l0,0c.1.06.59.4.63.77a1.51,1.51,0,0,0,.23.41l.08.13c.17.26.41.6.55.76a8.31,8.31,0,0,1,.58,1l.23.43a.59.59,0,0,0,.11.09.74.74,0,0,1,.31.95c-.24.68-1.29.92-1.61.92h0a.49.49,0,0,1-.31-.15s0,0-.06,0l-.45-.05a10.32,10.32,0,0,1-1.14-.16,9.13,9.13,0,0,1-1.12-.37l-.22.08A4.48,4.48,0,0,0,41.55,18a8.75,8.75,0,0,1-3.32,3.16l0,.16a2.8,2.8,0,0,0,.22,1,5.24,5.24,0,0,1,.21.77,4.14,4.14,0,0,1-.05,1.2,3.5,3.5,0,0,0-.06.4,4.13,4.13,0,0,0,.65,2,1.3,1.3,0,0,1,.23.77v.28H37.11l.09-.31a11.36,11.36,0,0,0-.38-2.94,1.3,1.3,0,0,0-.23-.42L36.5,24l-.21.46c-.08.17-.18.35-.2.42a2.5,2.5,0,0,0,.08,2,1.31,1.31,0,0,1,.13.63v.28H34l0-.32s.12-1,.41-3a.73.73,0,0,0-.1-.37.74.74,0,0,1-.1-.38A5.46,5.46,0,0,0,34,21.33c-.61.06-1.31.09-2,.09a13.9,13.9,0,0,1-3.53-.35c-1-.31-2-.62-2.66-.79a9.26,9.26,0,0,1-.35,1.46,2.79,2.79,0,0,0-.17.71,3.39,3.39,0,0,1-.1.91,3.17,3.17,0,0,0-.07.45,4.71,4.71,0,0,0,.25,1.62,4,4,0,0,0,.52,1,2.25,2.25,0,0,1,.5,1.11v.28H23.78V27.5c0-.14,0-.26,0-.36a2.28,2.28,0,0,0-.14-.9c-.09-.3-.2-.76-.33-1.29-.2-.83-.42-1.77-.63-2.35a1.42,1.42,0,0,0-.23-.39,1.61,1.61,0,0,0-.2.38,4.93,4.93,0,0,1-.43.92c-.1.18-.19.35-.24.47a4.65,4.65,0,0,0-.3,1.55,2.29,2.29,0,0,0,.27,1.09,2.18,2.18,0,0,1,.25.88v.28H19.91a1.28,1.28,0,0,1-2-1V19.35a.43.43,0,1,0-.85,0v7.42a1.28,1.28,0,1,1-2.55,0V10.84h0a.21.21,0,0,0-.21-.19H9.53a1.05,1.05,0,0,1-1-1.42l-.7-.7H3V7.25h.43V6.83h.43M8.68,9h0a1.06,1.06,0,0,1,.42-.34V8.53H8.26L8.68,9m11.73,3.64v0l.42-.57v-.21a.21.21,0,0,0-.43,0v.8M17.44,0a5.56,5.56,0,0,0-5.52,5,3,3,0,0,0-2-.73H5.39a3,3,0,0,0-1.54-.43H3.43A3,3,0,0,0,1.1,4.93,3,3,0,0,0,0,7.25V8.53a3,3,0,0,0,3,3H6a4.07,4.07,0,0,0,3.57,2.13h1.93V26.78a4.28,4.28,0,0,0,6,3.92,4.27,4.27,0,0,0,3.2.08h1.15a3,3,0,0,0,1-.17,3,3,0,0,0,1,.17h2.56a3,3,0,0,0,3-3V27.5a4.69,4.69,0,0,0-.9-2.61l-.07-.11-.08-.12-.13-.2a2.72,2.72,0,0,1-.08-.38,17.77,17.77,0,0,0,3.27.33c0,.09,0,.18.06.26-.22,1.59-.32,2.36-.33,2.41l0,.33a3,3,0,0,0,3,3.38H36.3l.41,0,.4,0h2.32a3,3,0,0,0,3-3V27.5a4.29,4.29,0,0,0-.71-2.4.89.89,0,0,1-.14-.37v0a6.56,6.56,0,0,0,0-2l0-.12a10.62,10.62,0,0,0,2.51-2.87l.87.11A3.48,3.48,0,0,0,46,20h.32a4.79,4.79,0,0,0,4.45-2.93,3.73,3.73,0,0,0-.86-3.92A8,8,0,0,0,49,11.71c0-.05-.19-.26-.33-.47l0,0a4.47,4.47,0,0,0-1.78-2.13L46.72,9A5.33,5.33,0,0,0,45,7.6a3.51,3.51,0,0,0-1.41-.29A3.59,3.59,0,0,0,40.75,8.7c-.44,0-.93.08-1.18.09s-1-.18-1.3-.25c-.75-.15-1.21-.25-1.58-.29a4.21,4.21,0,0,0-.49,0,22.54,22.54,0,0,0-2.78.3c-.8.11-2.27.32-2.68.32-.57,0-1.37-.06-2.08-.11s-1.26-.1-1.72-.1l-1.47,0A5.39,5.39,0,0,0,23,6.06c0-.17,0-.34,0-.51A5.56,5.56,0,0,0,17.44,0Z"/></g><path class="c" d="M47.63,15.18a.58.58,0,0,1-.11-.09l-.23-.43a8.3,8.3,0,0,0-.58-1c-.14-.16-.38-.51-.55-.76l-.08-.13a1.51,1.51,0,0,1-.23-.41c0-.36-.53-.7-.63-.77l0,0a3.3,3.3,0,0,0-.51-.29.66.66,0,0,0-.07-.15,3.63,3.63,0,0,0-.82-.77.58.58,0,0,0-.69.2,2.09,2.09,0,0,0-.11.85l-.33.1a3.13,3.13,0,0,1-.89.12l-.32,0c-.38,0-1.55.15-2,.14a17.25,17.25,0,0,1-1.78-.32c-.55-.11-1.06-.22-1.33-.25a16.78,16.78,0,0,0-2.5.27c-1.16.16-2.48.35-3.1.35s-1.55-.07-2.31-.12-1.15-.09-1.49-.09-1,0-1.71-.05-1.66-.07-2.25-.07h0v-.63a2.34,2.34,0,0,0-2.34-2.34H10.38V7.68L10,7.25H3.85V6.83H3.43v.43H3V8.53H7.83l.7.7a1.05,1.05,0,0,0,1,1.42h4.72a.21.21,0,0,1,.21.19h0V26.78a1.28,1.28,0,0,0,2.55,0V19.35a.43.43,0,0,1,.85,0v7.42a1.28,1.28,0,0,0,2,1h1.87V27.5a2.18,2.18,0,0,0-.25-.88,2.29,2.29,0,0,1-.27-1.09,4.64,4.64,0,0,1,.3-1.55c0-.12.14-.29.24-.47a4.93,4.93,0,0,0,.43-.92,1.61,1.61,0,0,1,.2-.38,1.43,1.43,0,0,1,.23.39c.21.57.43,1.52.63,2.35.13.54.24,1,.33,1.29a2.28,2.28,0,0,1,.14.9c0,.1,0,.22,0,.36v.28h2.56V27.5a2.25,2.25,0,0,0-.5-1.11,4,4,0,0,1-.52-1,4.7,4.7,0,0,1-.25-1.62,3.17,3.17,0,0,1,.07-.45,3.38,3.38,0,0,0,.1-.91,2.8,2.8,0,0,1,.17-.71,9.24,9.24,0,0,0,.35-1.46c.65.18,1.69.48,2.66.79a18.2,18.2,0,0,0,5.55.26,5.45,5.45,0,0,1,.33,2.36.73.73,0,0,0,.1.38.72.72,0,0,1,.1.37c-.29,2.06-.41,3-.41,3l0,.32H36.3V27.5a1.31,1.31,0,0,0-.13-.63,2.5,2.5,0,0,1-.08-2c0-.07.12-.25.2-.42L36.5,24l.1.14a1.3,1.3,0,0,1,.23.42,11.35,11.35,0,0,1,.38,2.94l-.09.31h2.32V27.5a1.3,1.3,0,0,0-.23-.77,4.13,4.13,0,0,1-.65-2,3.45,3.45,0,0,1,.06-.4,4.14,4.14,0,0,0,.05-1.2,5.23,5.23,0,0,0-.21-.77,2.8,2.8,0,0,1-.22-1l0-.16A8.75,8.75,0,0,0,41.55,18,4.48,4.48,0,0,1,43,16.35l.22-.08a9.13,9.13,0,0,0,1.12.37,10.33,10.33,0,0,0,1.14.16l.45.05s0,0,.06,0a.49.49,0,0,0,.31.15c.27,0,1.41-.2,1.66-.91A.74.74,0,0,0,47.63,15.18ZM9.11,8.62A1.06,1.06,0,0,0,8.69,9h0l-.43-.43h.85ZM20.84,12l-.42.57v-.78a.21.21,0,1,1,.43,0Zm-6-6.45A2.55,2.55,0,1,0,17.44,3,2.55,2.55,0,0,0,14.89,5.55Z"/></svg>