<svg xmlns="http://www.w3.org/2000/svg" viewBox="0 0 19.03 38"><defs><style>.a{opacity:0.8;}.b{fill:#fff;}.c{fill:#ffab24;}</style></defs><title>Asset 222</title><g class="a"><path class="b" d="M11.51,36.5a2.91,2.91,0,0,1-2-.78,2.91,2.91,0,0,1-2,.78,2.86,2.86,0,0,1-2.89-2.82V24.22a2.69,2.69,0,0,1-.5,0A2.61,2.61,0,0,1,1.5,21.69V14.49a2.39,2.39,0,0,1,0-.27V14c.06-2.45,1.19-4.18,3-4.69a4,4,0,0,1,.95-.13,4.89,4.89,0,1,1,8.08,0,4.11,4.11,0,0,1,.95.13c1.83.51,3,2.25,3,4.65v.3a2.4,2.4,0,0,1,0,.27v7.19a2.61,2.61,0,0,1-2.64,2.58,2.68,2.68,0,0,1-.5,0v9.46A2.86,2.86,0,0,1,11.51,36.5Z"/><path class="b" d="M9.52,3A3.39,3.39,0,1,1,6.13,6.39,3.39,3.39,0,0,1,9.52,3m3.73,7.62a8,8,0,0,1,.82.08c1.48.39,1.92,2,2,3.26,0,.12,0,.24,0,.36a1,1,0,0,1,0,.17v7.19a1.14,1.14,0,0,1-2.27,0V14.47H12.9q0,1,0,1.92,0,2.91,0,5.82h0V33.68A1.35,1.35,0,0,1,11.51,35h0a1.35,1.35,0,0,1-1.39-1.32v-9.3H8.91v9.3A1.35,1.35,0,0,1,7.52,35h0a1.35,1.35,0,0,1-1.39-1.32V22.21h0q0-2.91,0-5.82,0-1,0-1.92H5.27v7.21a1.11,1.11,0,0,1-1.14,1.08A1.11,1.11,0,0,1,3,21.69V14.49a1,1,0,0,1,0-.17c0-.12,0-.24,0-.36,0-1.28.47-2.87,2-3.26a8,8,0,0,1,.82-.08h7.46M8.77,15.16A.9.9,0,0,1,9,14.6a.84.84,0,0,1,.64-.23.66.66,0,0,1,.46.17.59.59,0,0,1,.18.46.55.55,0,0,1-.09.29,1.77,1.77,0,0,1-.24.3c-.1.1-.22.22-.36.33l-.46.42a.94.94,0,0,0-.24.35,1.28,1.28,0,0,0-.07.46v.39h1.34v-.26a.71.71,0,0,1,.07-.3.92.92,0,0,1,.28-.31,5.84,5.84,0,0,0,.53-.46,2.47,2.47,0,0,0,.34-.42,1.48,1.48,0,0,0,.18-.42,1.91,1.91,0,0,0,.05-.47,1.71,1.71,0,0,0-.16-.76,1.6,1.6,0,0,0-.44-.55,1.91,1.91,0,0,0-.64-.33,2.6,2.6,0,0,0-.77-.11,2.33,2.33,0,0,0-1.54.5,2.06,2.06,0,0,0-.7,1.44l1.38.09m.74,4.41a.77.77,0,0,0,.29-.06.73.73,0,0,0,.24-.16.72.72,0,0,0,.16-.24.79.79,0,0,0,0-.59.72.72,0,0,0-.4-.4.78.78,0,0,0-.59,0,.73.73,0,0,0-.24.16.74.74,0,0,0-.16.24.78.78,0,0,0,0,.59.72.72,0,0,0,.4.4.77.77,0,0,0,.29.06M9.52,0A6.39,6.39,0,0,0,3.36,8.11C1.34,9,.08,11.16,0,13.89c0,0,0,.05,0,.08v.18c0,.11,0,.23,0,.34v7.19a4.1,4.1,0,0,0,3.13,4v8A4.36,4.36,0,0,0,7.52,38a4.42,4.42,0,0,0,2-.47,4.42,4.42,0,0,0,2,.47,4.36,4.36,0,0,0,4.39-4.32v-8a4.1,4.1,0,0,0,3.13-4V14.49c0-.11,0-.23,0-.34V14s0-.06,0-.08c-.07-2.73-1.33-4.86-3.35-5.78A6.39,6.39,0,0,0,9.52,0Z"/></g><path class="c" d="M16,14.32c0-.12,0-.24,0-.36,0-1.28-.47-2.87-2-3.26a8,8,0,0,0-.82-.08H5.79a8,8,0,0,0-.82.08C3.49,11.1,3,12.68,3,14c0,.12,0,.24,0,.36a1,1,0,0,0,0,.17v7.19a1.11,1.11,0,0,0,1.14,1.08,1.11,1.11,0,0,0,1.14-1.08V14.47h.86q0,1,0,1.92,0,2.91,0,5.82h0V33.68A1.35,1.35,0,0,0,7.52,35h0a1.35,1.35,0,0,0,1.39-1.32v-9.3h1.21v9.3A1.35,1.35,0,0,0,11.51,35h0a1.35,1.35,0,0,0,1.39-1.32V22.21h0q0-2.91,0-5.82,0-1,0-1.92h.86v7.21a1.14,1.14,0,0,0,2.27,0V14.49A1,1,0,0,0,16,14.32ZM10.2,19.11a.72.72,0,0,1-.16.24.74.74,0,0,1-.24.16.78.78,0,0,1-.59,0,.72.72,0,0,1-.4-.4.78.78,0,0,1,0-.59A.73.73,0,0,1,9,18.28a.73.73,0,0,1,.24-.16.78.78,0,0,1,.59,0,.71.71,0,0,1,.4.4.78.78,0,0,1,0,.59Zm1.38-3.75a1.49,1.49,0,0,1-.18.42,2.45,2.45,0,0,1-.34.42,5.83,5.83,0,0,1-.53.46.92.92,0,0,0-.28.31.71.71,0,0,0-.07.3v.26H8.84v-.39a1.28,1.28,0,0,1,.07-.46.94.94,0,0,1,.24-.35l.46-.42c.14-.12.26-.23.36-.33a1.78,1.78,0,0,0,.24-.3A.55.55,0,0,0,10.3,15a.59.59,0,0,0-.18-.46.66.66,0,0,0-.46-.17A.84.84,0,0,0,9,14.6a.9.9,0,0,0-.25.56l-1.38-.09a2.06,2.06,0,0,1,.7-1.44,2.33,2.33,0,0,1,1.54-.5,2.59,2.59,0,0,1,.77.11,1.91,1.91,0,0,1,.64.33,1.6,1.6,0,0,1,.44.55,1.71,1.71,0,0,1,.16.76A1.91,1.91,0,0,1,11.59,15.36ZM9.52,9.78a3.39,3.39,0,1,1,3.39-3.39A3.39,3.39,0,0,1,9.52,9.78Z"/></svg>