<svg id="e2c33571-d3f4-4d88-bde7-1b2f7f39c615" data-name="Layer 1" xmlns="http://www.w3.org/2000/svg" viewBox="0 0 60 60"><defs><style>.cbf98fa7-e0e2-493a-ae50-c2bea8dbe13b{opacity:0.8;}.\30 d2a7e05-f140-43fa-995d-7b25dffbb8dc{fill:#fff;}.\31 18873be-e3c4-4e66-a79a-6c7d057b933d{fill:#1a2026;}</style></defs><title>–</title><g class="cbf98fa7-e0e2-493a-ae50-c2bea8dbe13b"><path class="0d2a7e05-f140-43fa-995d-7b25dffbb8dc" d="M21.94,17.47A2.55,2.55,0,1,1,19.39,20a2.55,2.55,0,0,1,2.55-2.55M8.35,21.3v0.43h6.11l0.43,0.43V23H25.13a2.34,2.34,0,0,1,2.34,2.34V26h0c0.6,0,1.47,0,2.25.07s1.38,0.05,1.71.05,0.88,0,1.49.09,1.62,0.12,2.31.12,1.94-.19,3.1-0.35,2-.28,2.36-0.28h0.14c0.26,0,.78.14,1.33,0.25a17.25,17.25,0,0,0,1.78.32h0c0.5,0,1.61-.1,2-0.14l0.32,0A3.13,3.13,0,0,0,47.17,26l0.33-.1A2.08,2.08,0,0,1,47.61,25a0.58,0.58,0,0,1,.48-0.24,0.52,0.52,0,0,1,.21,0,3.63,3.63,0,0,1,.82.77,0.67,0.67,0,0,1,.07.15,3.3,3.3,0,0,1,.51.29l0,0a1.39,1.39,0,0,1,.63.77,1.51,1.51,0,0,0,.23.41l0.08,0.13c0.17,0.26.41,0.6,0.55,0.76a8.31,8.31,0,0,1,.58,1L52,29.57a0.59,0.59,0,0,0,.11.09,0.74,0.74,0,0,1,.31.95,1.91,1.91,0,0,1-1.61.92h0a0.49,0.49,0,0,1-.31-0.15,0.08,0.08,0,0,0-.06,0L50,31.28a10.33,10.33,0,0,1-1.14-.16,9.13,9.13,0,0,1-1.12-.37l-0.22.08a4.48,4.48,0,0,0-1.43,1.7,8.75,8.75,0,0,1-3.32,3.16l0,0.16a2.8,2.8,0,0,0,.22,1,5.24,5.24,0,0,1,.21.77,4.14,4.14,0,0,1-.05,1.2,3.5,3.5,0,0,0-.06.4,4.13,4.13,0,0,0,.65,2,1.3,1.3,0,0,1,.23.77v0.28H41.61l0.09-.31A11.36,11.36,0,0,0,41.32,39a1.3,1.3,0,0,0-.23-0.42L41,38.44l-0.21.46c-0.08.17-.18,0.35-0.2,0.42a2.5,2.5,0,0,0,.08,2,1.31,1.31,0,0,1,.13.63v0.28H38.53l0-.32s0.12-1,.41-3a0.73,0.73,0,0,0-.1-0.37,0.74,0.74,0,0,1-.1-0.38,5.46,5.46,0,0,0-.33-2.36c-0.61.06-1.31,0.09-2,.09a13.9,13.9,0,0,1-3.53-.35c-1-.31-2-0.62-2.66-0.79a9.26,9.26,0,0,1-.35,1.46,2.79,2.79,0,0,0-.17.71,3.39,3.39,0,0,1-.1.91,3.17,3.17,0,0,0-.07.45,4.71,4.71,0,0,0,.25,1.62,4,4,0,0,0,.52,1,2.25,2.25,0,0,1,.5,1.11v0.28H28.28V42c0-.14,0-0.26,0-0.36a2.28,2.28,0,0,0-.14-0.9c-0.09-.3-0.2-0.76-0.33-1.29-0.2-.83-0.42-1.77-0.63-2.35a1.42,1.42,0,0,0-.23-0.39,1.61,1.61,0,0,0-.2.38,4.93,4.93,0,0,1-.43.92c-0.1.18-.19,0.35-0.24,0.47a4.65,4.65,0,0,0-.3,1.55A2.29,2.29,0,0,0,26,41.09a2.18,2.18,0,0,1,.25.88v0.28H24.41a1.28,1.28,0,0,1-2-1V33.83a0.43,0.43,0,1,0-.85,0v7.42a1.28,1.28,0,1,1-2.55,0V25.31h0a0.21,0.21,0,0,0-.21-0.19H14a1.05,1.05,0,0,1-1-1.42l-0.7-.7H7.5V21.73H7.93V21.3H8.35m4.83,2.13h0a1.06,1.06,0,0,1,.42-0.34V23H12.76l0.43,0.43m11.73,3.64v0l0.42-.57V26.27a0.21,0.21,0,0,0-.43,0v0.8m-3-12.59a5.56,5.56,0,0,0-5.52,5,3,3,0,0,0-2-.73H9.89a3,3,0,0,0-1.54-.43H7.93A3,3,0,0,0,5.6,19.4a3,3,0,0,0-1.1,2.32V23a3,3,0,0,0,3,3h3A4.07,4.07,0,0,0,14,28.13H16V41.25a4.28,4.28,0,0,0,6,3.92,4.27,4.27,0,0,0,3.2.08h1.15a3,3,0,0,0,1-.17,3,3,0,0,0,1,.17h2.56a3,3,0,0,0,3-3V42a4.69,4.69,0,0,0-.9-2.61l-0.07-.11-0.08-.12-0.13-.2a2.72,2.72,0,0,1-.08-0.38,17.77,17.77,0,0,0,3.27.33c0,0.09,0,.18.06,0.26-0.22,1.59-.32,2.36-0.33,2.41l0,0.33a3,3,0,0,0,3,3.38H40.8l0.41,0,0.4,0h2.32a3,3,0,0,0,3-3V42a4.29,4.29,0,0,0-.71-2.4,0.9,0.9,0,0,1-.14-0.37v0a6.56,6.56,0,0,0,0-2l0-.12a10.61,10.61,0,0,0,2.51-2.87l0.87,0.11a3.47,3.47,0,0,0,1,.26h0.32a4.79,4.79,0,0,0,4.45-2.93,3.73,3.73,0,0,0-.86-3.92,8,8,0,0,0-.91-1.49c0-.05-0.19-0.26-0.33-0.46l0,0a4.47,4.47,0,0,0-1.78-2.12l-0.14-.09a5.33,5.33,0,0,0-1.74-1.38,3.51,3.51,0,0,0-1.4-.29,3.59,3.59,0,0,0-2.84,1.39c-0.44,0-.93.08-1.18,0.09s-1-.18-1.3-0.25c-0.74-.15-1.21-0.25-1.58-0.29a4.22,4.22,0,0,0-.49,0,22.53,22.53,0,0,0-2.78.3c-0.8.11-2.27,0.32-2.68,0.32-0.57,0-1.37-.06-2.08-0.11s-1.26-.1-1.72-0.1l-1.47,0a5.39,5.39,0,0,0-2.49-2.51q0-.25,0-0.51a5.56,5.56,0,0,0-5.55-5.55h0Z"/></g><path class="118873be-e3c4-4e66-a79a-6c7d057b933d" d="M52.13,29.66A0.58,0.58,0,0,1,52,29.57l-0.23-.43a8.3,8.3,0,0,0-.58-1c-0.14-.16-0.38-0.51-0.55-0.76l-0.08-.13a1.51,1.51,0,0,1-.23-0.41,1.39,1.39,0,0,0-.63-0.77l0,0a3.3,3.3,0,0,0-.51-0.29,0.66,0.66,0,0,0-.07-0.15,3.63,3.63,0,0,0-.82-0.77,0.58,0.58,0,0,0-.69.2,2.09,2.09,0,0,0-.11.85l-0.33.1a3.13,3.13,0,0,1-.89.12l-0.32,0c-0.38,0-1.55.15-2,.14a17.25,17.25,0,0,1-1.78-.32c-0.55-.11-1.06-0.22-1.33-0.25a16.78,16.78,0,0,0-2.5.27c-1.16.16-2.48,0.35-3.1,0.35s-1.55-.07-2.31-0.12-1.15-.09-1.49-0.09-1,0-1.71-.05S28.06,26,27.47,26h0V25.34A2.34,2.34,0,0,0,25.13,23H14.88V22.15l-0.43-.43H8.35V21.3H7.93v0.43H7.5V23h4.83l0.7,0.7a1.05,1.05,0,0,0,1,1.42h4.72a0.21,0.21,0,0,1,.21.19h0V41.25a1.28,1.28,0,0,0,2.55,0V33.83a0.43,0.43,0,0,1,.85,0v7.42a1.28,1.28,0,0,0,2,1h1.87V42A2.18,2.18,0,0,0,26,41.09,2.29,2.29,0,0,1,25.76,40a4.64,4.64,0,0,1,.3-1.55c0-.12.14-0.29,0.24-0.47a4.93,4.93,0,0,0,.43-0.92,1.61,1.61,0,0,1,.2-0.38,1.43,1.43,0,0,1,.23.39c0.21,0.57.43,1.52,0.63,2.35,0.13,0.54.24,1,.33,1.29a2.28,2.28,0,0,1,.14.9c0,0.1,0,.22,0,0.36v0.28h2.56V42a2.25,2.25,0,0,0-.5-1.11,4,4,0,0,1-.52-1,4.7,4.7,0,0,1-.25-1.62,3.17,3.17,0,0,1,.07-0.45,3.38,3.38,0,0,0,.1-0.91,2.8,2.8,0,0,1,.17-0.71,9.24,9.24,0,0,0,.35-1.46c0.65,0.18,1.69.48,2.66,0.79a18.2,18.2,0,0,0,5.55.26,5.45,5.45,0,0,1,.33,2.36,0.73,0.73,0,0,0,.1.38,0.72,0.72,0,0,1,.1.37c-0.29,2.06-.41,3-0.41,3l0,0.32H40.8V42a1.31,1.31,0,0,0-.13-0.63,2.5,2.5,0,0,1-.08-2c0-.07.12-0.25,0.2-0.42L41,38.44l0.1,0.14a1.3,1.3,0,0,1,.23.42,11.35,11.35,0,0,1,.38,2.94l-0.09.31h2.32V42a1.3,1.3,0,0,0-.23-0.77,4.13,4.13,0,0,1-.65-2,3.45,3.45,0,0,1,.06-0.4,4.14,4.14,0,0,0,.05-1.2,5.23,5.23,0,0,0-.21-0.77,2.8,2.8,0,0,1-.22-1l0-.16a8.75,8.75,0,0,0,3.32-3.16,4.48,4.48,0,0,1,1.43-1.7l0.22-.08a9.13,9.13,0,0,0,1.12.37,10.33,10.33,0,0,0,1.14.16l0.45,0.05a0.08,0.08,0,0,1,.06,0,0.49,0.49,0,0,0,.31.15,1.92,1.92,0,0,0,1.66-.91A0.74,0.74,0,0,0,52.13,29.66ZM13.61,23.09a1.06,1.06,0,0,0-.42.34h0L12.76,23h0.85v0.09Zm11.74,3.39L24.92,27V26.27a0.21,0.21,0,1,1,.43,0v0.21Zm-6-6.45a2.55,2.55,0,1,0,2.55-2.55A2.55,2.55,0,0,0,19.39,20Z"/></svg>