<svg id="ee1bf769-43fb-4fad-85e0-06063039f2a3" data-name="Layer 1" xmlns="http://www.w3.org/2000/svg" viewBox="0 0 60 60"><defs><style>.dcbbc95b-ecec-45bd-920b-15f9ce15eaa0{opacity:0.8;}.\36 02a2866-7fa9-42d7-820a-8dcd09fb289e{fill:#fff;}.bfc7fa1d-2471-4075-9d03-e9cbcf3b69a5{fill:#5a6066;}</style></defs><title>1</title><g class="dcbbc95b-ecec-45bd-920b-15f9ce15eaa0"><path class="602a2866-7fa9-42d7-820a-8dcd09fb289e" d="M30.11,14.5a0.88,0.88,0,0,1,.64.27,0.89,0.89,0,0,1,.27.64V20a9.91,9.91,0,0,1,6.35,3,10.35,10.35,0,0,1,1.83,2.44,9.68,9.68,0,0,1,1.14,3.93h4.24a0.88,0.88,0,0,1,.63.26,0.9,0.9,0,0,1,.28.64,0.86,0.86,0,0,1-.31.66,0.8,0.8,0,0,1-.6.25H40.36A10.41,10.41,0,0,1,40,33.18a9.91,9.91,0,0,1-2.61,4.29,9.71,9.71,0,0,1-.83.77h0l-0.19.17a9.76,9.76,0,0,1-5.32,2v4.15a0.86,0.86,0,0,1-.31.66,0.8,0.8,0,0,1-.6.25,0.91,0.91,0,0,1-.66-0.28,0.86,0.86,0,0,1-.26-0.62V40.45a10.3,10.3,0,0,1-9.34-9.33H15.41a0.9,0.9,0,0,1-.65-0.28,0.86,0.86,0,0,1-.26-0.62,0.94,0.94,0,0,1,.24-0.63,1,1,0,0,1,.66-0.28h4.46A10.29,10.29,0,0,1,29.21,20V15.41a0.94,0.94,0,0,1,.24-0.63,1,1,0,0,1,.66-0.28m4.05,14.79h2.06v0a6.13,6.13,0,0,0-.47-1.65,6.28,6.28,0,0,0-1.27-1.8,6.07,6.07,0,0,0-.82-0.69h0a5.81,5.81,0,0,0-2.64-1v2a3.9,3.9,0,0,1,1.5.65l0,0a4.54,4.54,0,0,1,.52.46,4,4,0,0,1,1.09,1.84c0,0.06,0,.12,0,0.18m-8.42-3.46h0A6,6,0,0,0,24,29.27v0h2l0-.17h0l0,0a4.13,4.13,0,0,1,1.06-1.84,0.19,0.19,0,0,0,.07-0.07,4,4,0,0,1,2-1v-2a6,6,0,0,0-3.33,1.61l0,0-0.1.07m7.3,7.3h0A3.93,3.93,0,0,1,31,34.26v2.05l0.21,0a5.88,5.88,0,0,0,3.26-1.73l0.08-.07a5.88,5.88,0,0,0,1.64-3.38h-2a3.75,3.75,0,0,1-.35,1v0a4,4,0,0,1-.77,1M29.2,36.28v-2l-0.15,0a4.06,4.06,0,0,1-1.81-1v0l-0.1-.1a3.92,3.92,0,0,1-1.07-2H24a5.88,5.88,0,0,0,1.71,3.45l0.13,0.13a5.9,5.9,0,0,0,3.33,1.59M30.11,11.5h0a4,4,0,0,0-2.66,1.06l-0.21.22a4,4,0,0,0-1,2.6v2.11a13.48,13.48,0,0,0-8.81,8.81h-2a4,4,0,0,0-2.68,1.06l-0.21.22a4,4,0,0,0-1,2.61,3.92,3.92,0,0,0,3.88,3.93h2a13.52,13.52,0,0,0,8.81,8.81V44.6a3.86,3.86,0,0,0,1.14,2.75,3.9,3.9,0,0,0,2.75,1.16A3.95,3.95,0,0,0,34,44.61V42.93a12.67,12.67,0,0,0,4.16-2.15l0.12-.1,0.19-.17,0.08-.07a12.75,12.75,0,0,0,.94-0.87,12.87,12.87,0,0,0,3.32-5.46H44.6a3.95,3.95,0,0,0,3.9-3.89,3.92,3.92,0,0,0-1.17-2.8,3.85,3.85,0,0,0-2.72-1.13H42.83a12.33,12.33,0,0,0-1-2.37,13.3,13.3,0,0,0-2.35-3.12A13,13,0,0,0,34,17.49V15.4a3.92,3.92,0,0,0-3.89-3.9h0Z"/></g><path class="bfc7fa1d-2471-4075-9d03-e9cbcf3b69a5" d="M45.22,29.56a0.88,0.88,0,0,0-.63-0.26H40.35a9.68,9.68,0,0,0-1.14-3.93,10.35,10.35,0,0,0-1.83-2.44A9.91,9.91,0,0,0,31,20V15.4a0.89,0.89,0,0,0-.27-0.64,0.88,0.88,0,0,0-.64-0.27,1,1,0,0,0-.66.28,0.94,0.94,0,0,0-.24.63V20a10.29,10.29,0,0,0-9.34,9.34H15.4a1,1,0,0,0-.66.28,0.94,0.94,0,0,0-.24.63,0.86,0.86,0,0,0,.26.62,0.9,0.9,0,0,0,.65.28h4.46a10.3,10.3,0,0,0,9.34,9.33V44.6a0.86,0.86,0,0,0,.26.62,0.91,0.91,0,0,0,.66.28,0.8,0.8,0,0,0,.6-0.25A0.86,0.86,0,0,0,31,44.59V40.45a9.76,9.76,0,0,0,5.32-2l0.19-.17h0a9.71,9.71,0,0,0,.83-0.77A9.91,9.91,0,0,0,40,33.18a10.41,10.41,0,0,0,.38-2.06H44.6a0.8,0.8,0,0,0,.6-0.25,0.86,0.86,0,0,0,.31-0.66A0.9,0.9,0,0,0,45.22,29.56Zm-16,6.72a5.9,5.9,0,0,1-3.33-1.59l-0.13-.13A5.88,5.88,0,0,1,24,31.11h2a3.92,3.92,0,0,0,1.07,2l0.1,0.1v0a4.06,4.06,0,0,0,1.81,1l0.15,0v2Zm0-10.13a4,4,0,0,0-2,1,0.19,0.19,0,0,1-.07.07,4.13,4.13,0,0,0-1.06,1.84l0,0,0,0.17H24v0a6,6,0,0,1,1.73-3.44h0l0.1-.07,0,0a6,6,0,0,1,3.33-1.61v2Zm5.35,8.34-0.08.07a5.88,5.88,0,0,1-3.26,1.73l-0.21,0V34.26a3.93,3.93,0,0,0,2.06-1.14h0a4,4,0,0,0,.77-1v0a3.74,3.74,0,0,0,.35-1h2A5.88,5.88,0,0,1,34.55,34.49Zm-0.39-5.2c0-.06,0-0.12,0-0.18A4,4,0,0,0,33,27.26a4.53,4.53,0,0,0-.52-0.46l0,0a3.9,3.9,0,0,0-1.5-.65v-2a5.81,5.81,0,0,1,2.64,1h0a6.07,6.07,0,0,1,.82.69,6.28,6.28,0,0,1,1.27,1.8,6.12,6.12,0,0,1,.47,1.65v0H34.16Z"/></svg>