<svg xmlns="http://www.w3.org/2000/svg" viewBox="0 0 44 28.74"><defs><style>.a{opacity:0.8;}.b{fill:#fff;}.c{fill:#4f8317;}</style></defs><title>Asset 36</title><g class="a"><path class="b" d="M18.9,27.24a2.5,2.5,0,0,1-2.29-1.52L15.16,22.6c-.31.53-.64,1-1,1.56s-.73,1.14-1.05,1.71a2.52,2.52,0,0,1-2.2,1.34,2.62,2.62,0,0,1-2.24-3.95l2-3.59.14-1.06L7.55,25a2.11,2.11,0,0,1-1.93,1.1,6.68,6.68,0,0,1-2.94-1L2.54,25a1.88,1.88,0,0,1-1-1.9,1.86,1.86,0,0,1,.28-.78,3.4,3.4,0,0,1,.33-1.09L3.6,18a2.89,2.89,0,0,1,2.69-1.66,3.41,3.41,0,0,1,1.39.3l.37-.71a2.55,2.55,0,0,1,.46-1.71q2.15-3.16,4.28-6.33a3.78,3.78,0,0,1,.3-.41,3.65,3.65,0,1,1,5.39.68,3.29,3.29,0,0,1,.16.37l1.51,3.38,2.57,1.32A2.37,2.37,0,0,1,24,15.94a2.42,2.42,0,0,1-2.33,1.88h0a2.44,2.44,0,0,1-.57-.07,4.35,4.35,0,0,1-1.17-.51l-.23-.13-1.55-.8,3.15,7.2A2.6,2.6,0,0,1,21.1,26,2.64,2.64,0,0,1,18.9,27.24ZM37.57,27A2.63,2.63,0,0,1,36,26.5a2.64,2.64,0,0,1-4.17-2.16v-13H28.94a2.46,2.46,0,0,1-2.39-1.91H23.08A1.5,1.5,0,0,1,21.58,8V6.82a1.5,1.5,0,0,1,.65-1.23,1.5,1.5,0,0,1,1.24-.65h.38a1.5,1.5,0,0,1,1,.38h4.48a1.5,1.5,0,0,1,1.06.44l.38.38a1.51,1.51,0,0,1,.25.32h1.42a3.79,3.79,0,1,1,7.18.07,3.6,3.6,0,0,1,2.88,3.53v5.07a2.46,2.46,0,0,1-2.29,2.45v6.76A2.65,2.65,0,0,1,37.57,27Z"/><path class="b" d="M36,3a2.29,2.29,0,1,1-2.29,2.29A2.29,2.29,0,0,1,36,3M16.1,3.26a2.15,2.15,0,1,1-2.15,2.15A2.15,2.15,0,0,1,16.1,3.26m7.75,3.18v.38h5.48l.38.38V8h9.2a2.1,2.1,0,0,1,2.1,2.1v5.07a1,1,0,1,1-1.91,0V10.89a.19.19,0,1,0-.38,0V24.34a1.14,1.14,0,0,1-2.29,0V17.68a.38.38,0,1,0-.76,0v6.66a1.14,1.14,0,1,1-2.29,0V10h0a.19.19,0,0,0-.19-.17H28.94A.95.95,0,0,1,28,8.59L27.42,8H23.08V6.82h.38V6.43h.38m4.33,1.91h0a1,1,0,0,1,.38-.3V8H27.8l.38.38M15.56,7.84a1.8,1.8,0,0,1,1.69,1.24L19,13l3,1.56h0a.94.94,0,0,1-.42,1.75l-.23,0a5.19,5.19,0,0,1-1.06-.52l-1.78-.92c-.38-.2-.92-.36-1.1-.77l-.56-1.25a20.7,20.7,0,0,1-.5,3.31l3.49,8a1.11,1.11,0,0,1-1,1.63,1,1,0,0,1-.93-.65l-3.21-6.94A9.16,9.16,0,0,1,14,21.56c-.67,1.19-1.53,2.38-2.2,3.57a1,1,0,0,1-.9.58A1.12,1.12,0,0,1,10,24l2.15-3.84L13,13.6l-1.7,2.5a.94.94,0,0,1-.77.41.91.91,0,0,1-.26,0l-4,7.83a.62.62,0,0,1-.59.29,6.63,6.63,0,0,1-2.39-.91.4.4,0,0,1,.13-.75c-.17-.23-.05-.7.11-1L5,18.63a1.41,1.41,0,0,1,1.32-.78A1.76,1.76,0,0,1,8,19.18l1.61-3.06a1,1,0,0,1,.1-1.06Q11.91,11.9,14,8.73a1.76,1.76,0,0,1,.43-.5,1.73,1.73,0,0,1,1.09-.39M22,14.56h0m0,0h0m0,0h0m0,0h0M36,0a5.3,5.3,0,0,0-5.18,4.24,3,3,0,0,0-1.53-.42h-4a3,3,0,0,0-1.47-.38h-.38a3,3,0,0,0-2.3,1.07,5.15,5.15,0,1,0-9.83,2.87c-1.36,2-2.71,4-4.06,6a4.21,4.21,0,0,0-.64,1.48H6.29a4.41,4.41,0,0,0-4,2.49l0,.05L.75,20.63a5,5,0,0,0-.4,1.22,3.36,3.36,0,0,0,1.49,4.51l.11.06A7.93,7.93,0,0,0,5.62,27.6a3.77,3.77,0,0,0,2-.56,4.12,4.12,0,0,0,3.3,1.68,4,4,0,0,0,3.51-2.11c.16-.28.33-.56.51-.86l.28.61a4,4,0,0,0,3.65,2.39,4.11,4.11,0,0,0,3.72-5.85L21,19.27a3.89,3.89,0,0,0,4.38-3A3.9,3.9,0,0,0,23.63,12l-.34-.18-2-1-.31-.7a3,3,0,0,0,2.09.84h2.48a4,4,0,0,0,3.38,1.91h1.43V24.34A4.14,4.14,0,0,0,36,28.19a4.15,4.15,0,0,0,5.67-3.85V18.71A4,4,0,0,0,44,15.13V10.06a5.11,5.11,0,0,0-2.68-4.49q0-.14,0-.28A5.3,5.3,0,0,0,36,0Z"/></g><path class="c" d="M16.1,3.26a2.15,2.15,0,1,1-2.15,2.15A2.15,2.15,0,0,1,16.1,3.26Zm6,11.32,0,0Zm0,0L19,13,17.25,9.08A1.76,1.76,0,0,0,14,8.73q-2.13,3.18-4.28,6.33a1,1,0,0,0-.1,1.06L8,19.18C7.76,17.75,5.6,17.32,5,18.63L3.47,21.89c-.16.34-.28.81-.11,1a.4.4,0,0,0-.13.75c.47.24,2.52,1.46,3,.62l4-7.83a.94.94,0,0,0,1-.37L13,13.6l-.84,6.55L10,24a1.08,1.08,0,1,0,1.83,1.14c.67-1.19,1.53-2.38,2.2-3.57a9.16,9.16,0,0,0,.72-3.41L18,25.09a1.07,1.07,0,1,0,1.91-1l-3.49-8a20.7,20.7,0,0,0,.5-3.31l.56,1.25c.19.42.72.57,1.1.77l1.78.92a5.19,5.19,0,0,0,1.06.52A.93.93,0,0,0,22,14.56ZM36,3a2.29,2.29,0,1,1-2.29,2.29A2.29,2.29,0,0,1,36,3Zm5,7.06v5.07a1,1,0,1,1-1.91,0V10.89a.19.19,0,1,0-.38,0V24.34a1.14,1.14,0,1,1-2.29,0V17.68a.38.38,0,1,0-.76,0v6.66a1.14,1.14,0,1,1-2.29,0V10h0a.19.19,0,0,0-.19-.17H28.94A.95.95,0,0,1,28,8.59L27.42,8H23.08V6.82h.38V6.43h.38v.38h5.48l.38.38V8h9.2A2.1,2.1,0,0,1,41,10.06ZM28.18,8.34a1,1,0,0,1,.38-.3V8H27.8l.38.38Z"/></svg>