<svg xmlns="http://www.w3.org/2000/svg" viewBox="0 0 60 60"><defs><style>.a{opacity:0.8;}.b{fill:#fff;}.c{fill:#acafb2;}</style></defs><title>spoor-red</title><g class="a"><path class="b" d="M43.35,41.43a3.55,3.55,0,0,1-3.55-3.55v-1A2.25,2.25,0,0,1,39,35.21v-6.5a4.27,4.27,0,0,1,.75-2.43,2.17,2.17,0,0,1-.4,0,2.15,2.15,0,0,1-2.08-1.6,2.41,2.41,0,1,1,2.1-4.12h.42a3.4,3.4,0,0,1,2.54,1.13l.24.27a2.28,2.28,0,0,1,1.46,0l.24-.26a3.4,3.4,0,0,1,2.54-1.13h.42a2.41,2.41,0,1,1,2.15,4.11,2.15,2.15,0,0,1-2.08,1.61,2.2,2.2,0,0,1-.43,0,4.28,4.28,0,0,1,.75,2.44v6.5a2.27,2.27,0,0,1-.76,1.69v1A3.55,3.55,0,0,1,43.35,41.43Zm-13.25-.5a1.63,1.63,0,0,1-1.62-1.62V36.38H16.2V39.3a1.63,1.63,0,0,1-1.62,1.62H12a1.62,1.62,0,0,1-1.62-1.62V36.17a2.74,2.74,0,0,1-1.69-2.53V28.07a2.74,2.74,0,0,1,2.05-2.64l2.22-5.88a1.5,1.5,0,0,1,1.4-1H30a1.5,1.5,0,0,1,1.4,1l2.21,5.88a2.74,2.74,0,0,1,2.05,2.65v5.58A2.74,2.74,0,0,1,34.33,36V39.3a1.62,1.62,0,0,1-1.62,1.62Zm.85-10.83a.22.22,0,0,0-.23.22.22.22,0,1,0,.45,0A.22.22,0,0,0,30.95,30.1Zm-17.57,0a.23.23,0,1,0,.22.22A.23.23,0,0,0,13.38,30.1Zm15.81-5-1-2.55H16.09l-1,2.55Z"/><path class="b" d="M30,20.07l2.55,6.76h.39a1.23,1.23,0,0,1,1.23,1.23v5.58a1.23,1.23,0,0,1-1.23,1.24H11.39a1.23,1.23,0,0,1-1.23-1.24V28.07a1.23,1.23,0,0,1,1.23-1.23h.39l2.55-6.76H30M13,26.65h18.4L29.27,21.1H15.05L13,26.65m18,5.4a1.73,1.73,0,1,0-1.73-1.73,1.72,1.72,0,0,0,1.73,1.73m-17.57,0a1.73,1.73,0,1,0-1.73-1.73,1.73,1.73,0,0,0,1.73,1.73M48.93,21.43a.91.91,0,1,1-.88,1.15H46.84a1.42,1.42,0,0,0-1.06.47l-.56.63h1.14a3,3,0,0,0,.81-.14l.16,0a.64.64,0,0,1,.2,0,.65.65,0,0,1-.2,1.26l-.15,0A5.14,5.14,0,0,0,46,24.64H44l-.08.09v.88h.06a.72.72,0,0,1,.71.63,2.73,2.73,0,0,1,1.5,2.47v6.5a.76.76,0,0,1-.31.61V34.07a2.5,2.5,0,0,0-5,0v1.74a.75.75,0,0,1-.3-.6v-6.5a2.8,2.8,0,0,1,1.54-2.49.72.72,0,0,1,.7-.61h0v-.88l-.08-.09h-2a5.13,5.13,0,0,0-1.17.17l-.15,0a.65.65,0,0,1-.2-1.26.64.64,0,0,1,.2,0l.16,0a3,3,0,0,0,.81.14h1.09l-.56-.63a1.42,1.42,0,0,0-1.06-.47H38.63a.91.91,0,1,1,0-.48h1.21a1.9,1.9,0,0,1,1.42.63l.85.95h.63a.77.77,0,0,1,1.22,0h.61l.85-.95a1.91,1.91,0,0,1,1.42-.63h1.21a.91.91,0,0,1,.88-.67m-5.58,8.18a1.27,1.27,0,1,0-1.27-1.27,1.27,1.27,0,0,0,1.27,1.27m0,2.42a2,2,0,0,1,2,2v3.81a2,2,0,0,1-4.09,0V34.08a2,2,0,0,1,2-2M32.71,35.54a.12.12,0,0,1,.12.12V39.3a.12.12,0,0,1-.12.12H30.1A.13.13,0,0,1,30,39.3V35.66a.13.13,0,0,1,.12-.12h2.61m-18.13,0a.12.12,0,0,1,.12.12V39.3a.13.13,0,0,1-.12.12H12a.12.12,0,0,1-.12-.12V35.66a.12.12,0,0,1,.12-.12h2.61M30,17.07H14.33A3,3,0,0,0,11.52,19l-2,5.25a4.24,4.24,0,0,0-2.39,3.81v5.58A4.24,4.24,0,0,0,8.84,37V39.3A3.13,3.13,0,0,0,12,42.43h2.61A3.13,3.13,0,0,0,17.7,39.3V37.88H27V39.3a3.13,3.13,0,0,0,3.12,3.12h2.61a3.13,3.13,0,0,0,3.12-3.12V36.72a4.23,4.23,0,0,0,1.33-3.08V28.07A4.22,4.22,0,0,0,37,26.93a3.63,3.63,0,0,0,.69.47,5.81,5.81,0,0,0-.15,1.31v6.5a3.77,3.77,0,0,0,.76,2.26v.41a5,5,0,0,0,10.09,0v-.41a3.77,3.77,0,0,0,.76-2.26v-6.5a5.87,5.87,0,0,0-.14-1.3,3.67,3.67,0,0,0,1.53-1.5,3.91,3.91,0,1,0-3.8-6.81,4.91,4.91,0,0,0-3.21,1.28h-.39a4.91,4.91,0,0,0-3.21-1.28,3.91,3.91,0,0,0-6.07,2.76L32.79,19A3,3,0,0,0,30,17.07Z"/></g><path class="c" d="M45.39,34.08v3.81a2,2,0,0,1-4.09,0V34.08a2,2,0,1,1,4.09,0Zm4.45-11.73a.91.91,0,0,1-1.79.24H46.84a1.42,1.42,0,0,0-1.06.47l-.56.63h1.14a3,3,0,0,0,.81-.14.61.61,0,0,1,.36,0,.65.65,0,0,1-.2,1.26l-.15,0A5.14,5.14,0,0,0,46,24.64H44l-.08.09v.88h.06a.72.72,0,0,1,.71.63,2.73,2.73,0,0,1,1.5,2.47v6.5a.76.76,0,0,1-.31.61V34.07a2.5,2.5,0,0,0-5,0v1.74a.75.75,0,0,1-.3-.6v-6.5a2.8,2.8,0,0,1,1.54-2.49.72.72,0,0,1,.7-.61h0v-.88l-.08-.09h-2a5.14,5.14,0,0,0-1.17.17l-.15,0a.65.65,0,0,1-.2-1.26.61.61,0,0,1,.36,0,3,3,0,0,0,.81.14h1.09l-.56-.63a1.42,1.42,0,0,0-1.06-.47H38.63a.91.91,0,1,1,0-.48h1.21a1.9,1.9,0,0,1,1.42.63l.85.95h.63a.77.77,0,0,1,1.22,0h.61l.85-.95a1.9,1.9,0,0,1,1.42-.63h1.21a.91.91,0,0,1,1.79.24Zm-5.22,6a1.27,1.27,0,1,0-1.27,1.27A1.27,1.27,0,0,0,44.62,28.33ZM12,39.43h2.61a.13.13,0,0,0,.12-.12V35.66a.12.12,0,0,0-.12-.12H12a.12.12,0,0,0-.12.12V39.3A.12.12,0,0,0,12,39.43Zm2.36-19.35-2.55,6.76h-.39a1.23,1.23,0,0,0-1.23,1.23v5.58a1.23,1.23,0,0,0,1.23,1.24H32.93a1.23,1.23,0,0,0,1.23-1.24V28.07a1.23,1.23,0,0,0-1.23-1.23h-.39L30,20.07Zm14.94,1,2.09,5.55H13l2.09-5.55ZM15.1,30.32a1.73,1.73,0,1,1-1.72-1.72,1.73,1.73,0,0,1,1.72,1.72Zm17.57,0a1.72,1.72,0,1,1-1.72-1.72,1.72,1.72,0,0,1,1.72,1.72Zm.16,9V35.66a.12.12,0,0,0-.12-.12H30.1a.13.13,0,0,0-.12.12V39.3a.13.13,0,0,0,.12.12h2.61A.12.12,0,0,0,32.83,39.3Z"/></svg>