<svg xmlns="http://www.w3.org/2000/svg" viewBox="0 0 45.68 25.86"><defs><style>.a{opacity:0.8;}.b{fill:#fff;}.c{fill:#d0021b;}</style></defs><title>Asset 22</title><g class="a"><path class="b" d="M36.19,24.36a3.55,3.55,0,0,1-3.55-3.55v-1a2.25,2.25,0,0,1-.76-1.69v-6.5a4.27,4.27,0,0,1,.75-2.43,2.17,2.17,0,0,1-.4,0,2.15,2.15,0,0,1-2.08-1.6,2.41,2.41,0,1,1,2.1-4.12h.42a3.4,3.4,0,0,1,2.54,1.13l.24.27a2.28,2.28,0,0,1,1.46,0l.24-.26a3.4,3.4,0,0,1,2.54-1.13h.42a2.41,2.41,0,1,1,2.15,4.11,2.15,2.15,0,0,1-2.08,1.61,2.2,2.2,0,0,1-.43,0,4.28,4.28,0,0,1,.75,2.44v6.5a2.27,2.27,0,0,1-.76,1.69v1A3.55,3.55,0,0,1,36.19,24.36Zm-13.25-.5a1.63,1.63,0,0,1-1.62-1.62V19.31H9v2.92a1.63,1.63,0,0,1-1.62,1.62H4.81a1.62,1.62,0,0,1-1.62-1.62V19.1A2.74,2.74,0,0,1,1.5,16.57V11A2.74,2.74,0,0,1,3.55,8.35L5.77,2.47a1.5,1.5,0,0,1,1.4-1H22.83a1.5,1.5,0,0,1,1.4,1l2.21,5.88A2.74,2.74,0,0,1,28.5,11v5.58a2.74,2.74,0,0,1-1.33,2.35v3.31a1.62,1.62,0,0,1-1.62,1.62ZM23.79,13a.22.22,0,0,0-.23.22.22.22,0,1,0,.45,0A.22.22,0,0,0,23.79,13ZM6.22,13a.23.23,0,1,0,.22.22A.23.23,0,0,0,6.22,13ZM22,8.07l-1-2.55H8.93L8,8.07Z"/><path class="b" d="M22.83,3l2.55,6.76h.39A1.23,1.23,0,0,1,27,11v5.58a1.23,1.23,0,0,1-1.23,1.24H4.23A1.23,1.23,0,0,1,3,16.57V11A1.23,1.23,0,0,1,4.23,9.76h.39L7.17,3H22.83M5.8,9.57H24.2L22.11,4H7.89L5.8,9.57m18,5.4a1.73,1.73,0,1,0-1.73-1.73A1.72,1.72,0,0,0,23.79,15M6.22,15a1.73,1.73,0,1,0-1.73-1.73A1.73,1.73,0,0,0,6.22,15M41.77,4.36a.91.91,0,1,1-.88,1.15H39.68A1.42,1.42,0,0,0,38.63,6l-.56.63H39.2A3,3,0,0,0,40,6.48l.16,0a.64.64,0,0,1,.2,0,.65.65,0,0,1-.2,1.26l-.15,0a5.14,5.14,0,0,0-1.17-.17H36.8l-.08.09v.88h.06a.72.72,0,0,1,.71.63A2.73,2.73,0,0,1,39,11.64v6.5a.76.76,0,0,1-.31.61V17a2.5,2.5,0,0,0-5,0v1.74a.75.75,0,0,1-.3-.6v-6.5a2.8,2.8,0,0,1,1.54-2.49.72.72,0,0,1,.7-.61h0V7.65l-.08-.09h-2a5.13,5.13,0,0,0-1.17.17l-.15,0A.65.65,0,0,1,32,6.49a.64.64,0,0,1,.2,0l.16,0a3,3,0,0,0,.81.14H34.3L33.74,6a1.42,1.42,0,0,0-1.06-.47H31.47a.91.91,0,1,1,0-.48h1.21a1.9,1.9,0,0,1,1.42.63l.85.95h.63a.77.77,0,0,1,1.22,0h.61l.85-.95A1.91,1.91,0,0,1,39.68,5h1.21a.91.91,0,0,1,.88-.67m-5.58,8.18a1.27,1.27,0,1,0-1.27-1.27,1.27,1.27,0,0,0,1.27,1.27m0,2.42a2,2,0,0,1,2,2v3.81a2,2,0,0,1-4.09,0V17a2,2,0,0,1,2-2M25.55,18.47a.12.12,0,0,1,.12.12v3.64a.12.12,0,0,1-.12.12H22.94a.13.13,0,0,1-.12-.12V18.59a.13.13,0,0,1,.12-.12h2.61m-18.13,0a.12.12,0,0,1,.12.12v3.64a.13.13,0,0,1-.12.12H4.81a.12.12,0,0,1-.12-.12V18.59a.12.12,0,0,1,.12-.12H7.42M22.83,0H7.17A3,3,0,0,0,4.36,1.94l-2,5.25A4.24,4.24,0,0,0,0,11v5.58A4.24,4.24,0,0,0,1.68,20v2.28a3.13,3.13,0,0,0,3.12,3.12H7.42a3.13,3.13,0,0,0,3.12-3.12V20.81h9.27v1.42a3.13,3.13,0,0,0,3.12,3.12h2.61a3.13,3.13,0,0,0,3.12-3.12V19.65A4.23,4.23,0,0,0,30,16.57V11a4.22,4.22,0,0,0-.16-1.14,3.63,3.63,0,0,0,.69.47,5.81,5.81,0,0,0-.15,1.31v6.5a3.77,3.77,0,0,0,.76,2.26v.41a5,5,0,0,0,10.09,0V20.4A3.77,3.77,0,0,0,42,18.14v-6.5a5.87,5.87,0,0,0-.14-1.3,3.67,3.67,0,0,0,1.53-1.5A3.91,3.91,0,1,0,39.58,2a4.91,4.91,0,0,0-3.21,1.28H36A4.91,4.91,0,0,0,32.78,2,3.91,3.91,0,0,0,26.71,4.8L25.64,1.94A3,3,0,0,0,22.83,0Z"/></g><path class="c" d="M38.24,17v3.81a2,2,0,1,1-4.09,0V17a2,2,0,1,1,4.09,0ZM42.68,5.27a.91.91,0,0,1-1.79.24H39.68A1.42,1.42,0,0,0,38.63,6l-.56.63H39.2A3,3,0,0,0,40,6.48a.61.61,0,0,1,.36,0,.65.65,0,0,1-.2,1.26l-.15,0a5.14,5.14,0,0,0-1.17-.17H36.8l-.08.09v.88h.06a.72.72,0,0,1,.71.63A2.73,2.73,0,0,1,39,11.64v6.5a.76.76,0,0,1-.31.61V17a2.5,2.5,0,0,0-5,0v1.74a.75.75,0,0,1-.3-.6v-6.5a2.8,2.8,0,0,1,1.54-2.49.72.72,0,0,1,.7-.61h0V7.65l-.08-.09h-2a5.14,5.14,0,0,0-1.17.17l-.15,0A.65.65,0,0,1,32,6.49a.61.61,0,0,1,.36,0,3,3,0,0,0,.81.14H34.3L33.74,6a1.42,1.42,0,0,0-1.06-.47H31.47a.91.91,0,1,1,0-.48h1.21a1.9,1.9,0,0,1,1.42.63l.85.95h.63a.77.77,0,0,1,1.22,0h.61l.85-.95A1.9,1.9,0,0,1,39.68,5h1.21a.91.91,0,0,1,1.79.24Zm-5.22,6a1.27,1.27,0,1,0-1.27,1.27A1.27,1.27,0,0,0,37.46,11.26ZM4.81,22.35H7.42a.13.13,0,0,0,.12-.12V18.59a.12.12,0,0,0-.12-.12H4.81a.12.12,0,0,0-.12.12v3.64A.12.12,0,0,0,4.81,22.35ZM7.17,3,4.62,9.76H4.23A1.23,1.23,0,0,0,3,11v5.58a1.23,1.23,0,0,0,1.23,1.24H25.77A1.23,1.23,0,0,0,27,16.57V11a1.23,1.23,0,0,0-1.23-1.23h-.39L22.83,3ZM22.11,4,24.2,9.57H5.8L7.89,4ZM7.94,13.25a1.73,1.73,0,1,1-1.72-1.72,1.73,1.73,0,0,1,1.72,1.72Zm17.57,0a1.72,1.72,0,1,1-1.72-1.72,1.72,1.72,0,0,1,1.72,1.72Zm.16,9V18.59a.12.12,0,0,0-.12-.12H22.94a.13.13,0,0,0-.12.12v3.64a.13.13,0,0,0,.12.12h2.61A.12.12,0,0,0,25.67,22.23Z"/></svg>