<?xml version="1.0" encoding="utf-8"?>
<!-- Generator: Adobe Illustrator 20.1.0, SVG Export Plug-In . SVG Version: 6.00 Build 0)  -->
<svg version="1.1" id="Layer_1" xmlns="http://www.w3.org/2000/svg" xmlns:xlink="http://www.w3.org/1999/xlink" x="0px" y="0px"
	 viewBox="0 0 45.7 25.9" style="enable-background:new 0 0 45.7 25.9;" xml:space="preserve">
<style type="text/css">
	.st0{opacity:0.8;}
	.st1{fill:#FFFFFF;}
	.st2{fill:#FFAB24;}
</style>
<title>Asset 25</title>
<g class="st0">
	<path class="st1" d="M36.2,24.4c-2,0-3.5-1.6-3.5-3.5v-1c-0.5-0.4-0.8-1-0.8-1.7v-6.5c0-0.9,0.3-1.7,0.7-2.4c-0.1,0-0.3,0-0.4,0
		c-1,0-1.8-0.7-2.1-1.6c-1.3-0.2-2.2-1.5-1.9-2.8c0.2-1.3,1.5-2.2,2.8-1.9c0.5,0.1,0.9,0.3,1.2,0.6h0.4c1,0,1.9,0.4,2.5,1.1l0.2,0.3
		c0.5-0.2,1-0.2,1.5,0l0.2-0.3c0.6-0.7,1.6-1.1,2.5-1.1h0.4c1-0.9,2.5-0.9,3.4,0.1s0.9,2.5-0.1,3.4c-0.3,0.3-0.7,0.5-1.2,0.6
		c-0.2,0.9-1.1,1.6-2.1,1.6c-0.1,0-0.3,0-0.4,0c0.5,0.7,0.8,1.6,0.8,2.4v6.5c0,0.6-0.3,1.3-0.8,1.7v1C39.7,22.8,38.1,24.4,36.2,24.4
		z M22.9,23.9c-0.9,0-1.6-0.7-1.6-1.6v-2.9H9v2.9c0,0.9-0.7,1.6-1.6,1.6H4.8c-0.9,0-1.6-0.7-1.6-1.6l0,0v-3.1
		c-1-0.4-1.7-1.4-1.7-2.5V11c0-1.2,0.8-2.3,2-2.6l2.2-5.9c0.2-0.6,0.8-1,1.4-1h15.7c0.6,0,1.2,0.4,1.4,1l2.2,5.9
		c1.2,0.3,2.1,1.4,2.1,2.6v5.6c0,1-0.5,1.9-1.3,2.4v3.3c0,0.9-0.7,1.6-1.6,1.6h0H22.9z M23.8,13c-0.1,0-0.2,0.1-0.2,0.2c0,0,0,0,0,0
		c0,0.1,0.1,0.2,0.2,0.2s0.2-0.1,0.2-0.2C24,13.1,23.9,13,23.8,13L23.8,13z M6.2,13C6.1,13,6,13.1,6,13.2c0,0.1,0.1,0.2,0.2,0.2
		c0.1,0,0.2-0.1,0.2-0.2c0,0,0,0,0,0C6.4,13.1,6.3,13,6.2,13z M22,8.1l-1-2.6H8.9L8,8.1H22z"/>
	<path class="st1" d="M22.8,3l2.5,6.8h0.4c0.7,0,1.2,0.6,1.2,1.2c0,0,0,0,0,0v5.6c0,0.7-0.5,1.2-1.2,1.2c0,0,0,0,0,0H4.2
		c-0.7,0-1.2-0.6-1.2-1.2c0,0,0,0,0,0V11c0-0.7,0.5-1.2,1.2-1.2c0,0,0,0,0,0h0.4L7.2,3H22.8 M5.8,9.6h18.4L22.1,4H7.9L5.8,9.6
		 M23.8,15c1,0,1.7-0.8,1.7-1.7c0-1-0.8-1.7-1.7-1.7c-1,0-1.7,0.8-1.7,1.7v0C22,14.2,22.8,15,23.8,15C23.8,15,23.8,15,23.8,15
		 M6.2,15c1,0,1.7-0.8,1.7-1.7s-0.8-1.7-1.7-1.7s-1.7,0.8-1.7,1.7c0,0,0,0,0,0C4.5,14.2,5.3,15,6.2,15 M41.8,4.4
		c0.5,0,0.9,0.4,0.9,0.9c0,0.5-0.4,0.9-0.9,0.9c-0.4,0-0.8-0.3-0.9-0.7h-1.2c-0.4,0-0.8,0.2-1,0.5l-0.6,0.6h1.1
		c0.3,0,0.5-0.1,0.8-0.2h0.2c0.1,0,0.1,0,0.2,0c0.3,0.1,0.5,0.5,0.4,0.8c-0.1,0.2-0.3,0.4-0.6,0.4H40c-0.4-0.1-0.8-0.2-1.2-0.2h-2
		l-0.1,0.1v0.9h0.1c0.4,0,0.7,0.3,0.7,0.6c0.9,0.5,1.5,1.4,1.5,2.5v6.5c0,0.2-0.1,0.5-0.3,0.6V17c0-1.4-1.1-2.5-2.5-2.5
		s-2.5,1.1-2.5,2.5v1.7c-0.2-0.1-0.3-0.4-0.3-0.6v-6.5c0-1.1,0.6-2,1.5-2.5c0.1-0.3,0.3-0.6,0.7-0.6l0,0V7.7l-0.1-0.1h-2
		c-0.4,0-0.8,0.1-1.2,0.2h-0.2c-0.4,0-0.6-0.3-0.6-0.7c0-0.2,0.2-0.5,0.4-0.6c0.1,0,0.1,0,0.2,0h0.2c0.3,0.1,0.5,0.1,0.8,0.1h1.1
		L33.7,6c-0.3-0.3-0.7-0.5-1.1-0.5h-1.2c-0.1,0.5-0.6,0.8-1.1,0.6s-0.8-0.6-0.6-1.1c0.1-0.5,0.6-0.8,1.1-0.6
		c0.3,0.1,0.6,0.3,0.6,0.6h1.2c0.5,0,1.1,0.2,1.4,0.6l0.8,0.9h0.6c0.3-0.3,0.7-0.4,1.1-0.1c0.1,0,0.1,0.1,0.1,0.1h0.6l0.8-0.9
		C38.6,5.3,39.1,5,39.7,5h1.2C41,4.6,41.4,4.3,41.8,4.4 M36.2,12.5c0.7,0,1.3-0.6,1.3-1.3S36.9,10,36.2,10s-1.3,0.6-1.3,1.3
		C34.9,11.9,35.5,12.5,36.2,12.5L36.2,12.5 M36.2,14.9c1.1,0,2,0.9,2,2v3.8c0,1.1-0.9,2-2,2c-1.1,0-2-0.9-2-2V17
		C34.1,15.9,35,15,36.2,14.9 M25.5,18.5c0.1,0,0.1,0.1,0.1,0.1v0v3.6c0,0.1-0.1,0.1-0.1,0.1h0h-2.6c-0.1,0-0.1-0.1-0.1-0.1v-3.6
		c0-0.1,0.1-0.1,0.1-0.1H25.5 M7.4,18.5c0.1,0,0.1,0.1,0.1,0.1l0,0v3.6c0,0.1-0.1,0.1-0.1,0.1H4.8c-0.1,0-0.1-0.1-0.1-0.1l0,0v-3.6
		c0-0.1,0.1-0.1,0.1-0.1c0,0,0,0,0,0H7.4 M22.8,0H7.2C5.9,0,4.8,0.8,4.4,1.9l-2,5.2C0.9,7.9,0,9.4,0,11v5.6c0,1.3,0.6,2.6,1.7,3.4
		v2.3c0,1.7,1.4,3.1,3.1,3.1h2.6c1.7,0,3.1-1.4,3.1-3.1v-1.5h9.3v1.4c0,1.7,1.4,3.1,3.1,3.1h2.6c1.7,0,3.1-1.4,3.1-3.1v-2.6
		c0.9-0.8,1.3-1.9,1.3-3.1V11c0-0.4-0.1-0.8-0.2-1.1c0.2,0.2,0.4,0.3,0.7,0.5c-0.1,0.4-0.1,0.9-0.1,1.3v6.5c0,0.8,0.3,1.6,0.8,2.3
		v0.4c0,2.8,2.3,5,5,5s5-2.3,5-5v-0.4c0.5-0.7,0.8-1.4,0.8-2.3v-6.5c0-0.4,0-0.9-0.1-1.3c0.6-0.3,1.2-0.9,1.5-1.5
		c1.9-1.1,2.6-3.4,1.5-5.3c-1.1-1.9-3.4-2.6-5.3-1.5l0,0c-1.2,0-2.3,0.5-3.2,1.3H36C35.1,2.5,34,2,32.8,2c-1.8-1.2-4.2-0.7-5.4,1.1
		c-0.4,0.5-0.6,1.1-0.6,1.7l-1.1-2.9C25.2,0.8,24.1,0,22.8,0z"/>
</g>
<path class="st2" d="M38.2,17v3.8c0,1.1-0.9,2-2,2c-1.1,0-2-0.9-2-2V17c0-1.1,0.9-2,2-2C37.3,15,38.2,15.9,38.2,17z M42.7,5.3
	c0,0.5-0.4,0.9-0.9,0.9c-0.4,0-0.8-0.3-0.9-0.7h-1.2c-0.4,0-0.8,0.2-1,0.5l-0.6,0.6h1.1c0.3,0,0.5-0.1,0.8-0.2c0.1,0,0.2,0,0.4,0
	c0.3,0.1,0.5,0.5,0.4,0.8c-0.1,0.2-0.3,0.4-0.6,0.4H40c-0.4-0.1-0.8-0.2-1.2-0.2h-2l-0.1,0.1v0.9h0.1c0.4,0,0.7,0.3,0.7,0.6
	c0.9,0.5,1.5,1.4,1.5,2.5v6.5c0,0.2-0.1,0.5-0.3,0.6V17c0-1.4-1.1-2.5-2.5-2.5s-2.5,1.1-2.5,2.5v1.7c-0.2-0.1-0.3-0.4-0.3-0.6v-6.5
	c0-1.1,0.6-2,1.5-2.5c0.1-0.3,0.3-0.6,0.7-0.6l0,0V7.7l-0.1-0.1h-2c-0.4,0-0.8,0.1-1.2,0.2h-0.2c-0.4,0-0.6-0.3-0.6-0.7
	c0-0.2,0.2-0.5,0.4-0.6c0.1,0,0.2,0,0.4,0c0.3,0.1,0.5,0.1,0.8,0.1h1.1L33.7,6c-0.3-0.3-0.7-0.5-1.1-0.5h-1.2
	c-0.1,0.5-0.6,0.8-1.1,0.6s-0.8-0.6-0.6-1.1c0.1-0.5,0.6-0.8,1.1-0.6c0.3,0.1,0.6,0.3,0.6,0.6h1.2c0.5,0,1.1,0.2,1.4,0.6l0.8,0.9
	h0.6c0.3-0.3,0.7-0.4,1.1-0.1c0.1,0,0.1,0.1,0.1,0.1h0.6l0.8-0.9C38.6,5.3,39.1,5,39.7,5h1.2C41,4.5,41.5,4.2,42,4.4
	C42.4,4.5,42.7,4.8,42.7,5.3L42.7,5.3z M37.5,11.3c0-0.7-0.6-1.3-1.3-1.3s-1.3,0.6-1.3,1.3s0.6,1.3,1.3,1.3
	C36.9,12.5,37.5,12,37.5,11.3C37.5,11.3,37.5,11.3,37.5,11.3L37.5,11.3z M4.8,22.4h2.6c0.1,0,0.1-0.1,0.1-0.1v-3.6
	c0-0.1-0.1-0.1-0.1-0.1c0,0,0,0,0,0H4.8c-0.1,0-0.1,0.1-0.1,0.1l0,0v3.6C4.7,22.3,4.7,22.4,4.8,22.4C4.8,22.4,4.8,22.4,4.8,22.4z
	 M7.2,3L4.6,9.8H4.2C3.6,9.8,3,10.3,3,11c0,0,0,0,0,0v5.6c0,0.7,0.5,1.2,1.2,1.2c0,0,0,0,0,0h21.5c0.7,0,1.2-0.6,1.2-1.2
	c0,0,0,0,0,0V11c0-0.7-0.6-1.2-1.2-1.2h-0.4L22.8,3H7.2z M22.1,4l2.1,5.6H5.8L7.9,4H22.1z M7.9,13.2c0,1-0.8,1.7-1.7,1.7
	c-1,0-1.7-0.8-1.7-1.7c0-1,0.8-1.7,1.7-1.7c0,0,0,0,0,0C7.2,11.5,7.9,12.3,7.9,13.2z M25.5,13.2c0,0.9-0.8,1.7-1.7,1.7
	c-0.9,0-1.7-0.8-1.7-1.7c0-0.9,0.8-1.7,1.7-1.7l0,0C24.7,11.5,25.5,12.3,25.5,13.2z M25.7,22.2v-3.7c0-0.1-0.1-0.1-0.1-0.1h0h-2.6
	c-0.1,0-0.1,0.1-0.1,0.1v3.6c0,0.1,0.1,0.1,0.1,0.1h2.6C25.6,22.4,25.7,22.3,25.7,22.2L25.7,22.2z"/>
</svg>
