<svg xmlns="http://www.w3.org/2000/svg" viewBox="0 0 60 60"><defs><style>.a{opacity:0.8;}.b,.c{fill:#fff;}.b,.d{fill-rule:evenodd;}.d{fill:#5a6066;}</style></defs><title>DAS map icons 001-077</title><g class="a"><path class="b" d="M8.72,35.86V32h5.73l2.15-3.22H8.72V24.93H17.2L14,21.71H8.72V21.1c0-.34-.14-.61-.31-.61H5.81c-.17,0-.31.27-.31.61V42.9c0,.34.14.62.31.62h2.6c.17,0,.31-.28.31-.62V39.07h9.83l-3.22-3.22Z"/><path class="c" d="M8.41,20.49c.17,0,.31.27.31.61v.61H14l3.22,3.22H8.72v3.86h7.88L14.45,32H8.72v3.86h6.62l3.22,3.22H8.72V42.9c0,.34-.14.62-.31.62H5.81c-.17,0-.31-.27-.31-.62V21.1c0-.34.14-.61.31-.61h2.6m0-3H5.81A3.43,3.43,0,0,0,2.5,21.1V42.9a3.43,3.43,0,0,0,3.31,3.62h2.6a3.43,3.43,0,0,0,3.31-3.62v-.82H25.79L20.67,37l-3.22-3.22-.34-.34,2-3,1.68-2.52h3.67L19.32,22.8,16.1,19.59l-.88-.88H10.91a3.18,3.18,0,0,0-2.5-1.22Z"/><path class="b" d="M54.19,20.49h-2.6c-.17,0-.31.27-.31.61v.61H31.38V21.1c0-.34-.14-.61-.31-.61h-2.6c-.17,0-.31.27-.31.61v.61H18.6l3.22,3.22h6.35v3.86H20.67L18.52,32h9.64v3.86H20l3.22,3.22h5V42.9c0,.34.14.62.31.62h2.6c.17,0,.31-.28.31-.62V39.07h19.9V42.9c0,.34.14.62.31.62h2.6c.17,0,.31-.28.31-.62V21.1C54.5,20.76,54.36,20.49,54.19,20.49ZM51.28,35.86H31.38V32h19.9Zm0-7.08H31.38V24.93h19.9Z"/><path class="c" d="M54.19,20.49c.17,0,.31.27.31.61V42.9c0,.34-.14.62-.31.62h-2.6c-.17,0-.31-.27-.31-.62V39.07H31.38V42.9c0,.34-.14.62-.31.62h-2.6c-.17,0-.31-.27-.31-.62V39.07h-5L20,35.86h8.21V32H18.52l2.15-3.22h7.49V24.93H21.81L18.6,21.71h9.57V21.1c0-.34.14-.61.31-.61h2.6c.17,0,.31.27.31.61v.61h19.9V21.1c0-.34.14-.61.31-.61h2.6m-22.81,8.3h19.9V24.93H31.38v3.86m0,7.08h19.9V32H31.38v3.86M54.19,17.49h-2.6a3.18,3.18,0,0,0-2.5,1.22H33.57a3.18,3.18,0,0,0-2.5-1.22h-2.6A3.18,3.18,0,0,0,26,18.71H11.35l5.12,5.12,2.33,2.33-.64,1L16,30.34l-1.68,2.52H12.71l1,1L12.92,35h1.93l3,3L21,41.2l.88.88h3.23v.82a3.43,3.43,0,0,0,3.31,3.62h2.6a3.43,3.43,0,0,0,3.31-3.62v-.82h13.9v.82a3.43,3.43,0,0,0,3.31,3.62h2.6A3.43,3.43,0,0,0,57.5,42.9V21.1a3.43,3.43,0,0,0-3.31-3.61Z"/></g><path class="d" d="M8.72,35.86V32h5.73l2.15-3.22H8.72V24.93H17.2L14,21.71H8.72V21.1c0-.34-.14-.61-.31-.61H5.81c-.17,0-.31.27-.31.61V42.9c0,.34.14.62.31.62h2.6c.17,0,.31-.28.31-.62V39.07h9.83l-3.22-3.22Z"/><path class="d" d="M54.19,20.49h-2.6c-.17,0-.31.27-.31.61v.61H31.38V21.1c0-.34-.14-.61-.31-.61h-2.6c-.17,0-.31.27-.31.61v.61H18.6l3.22,3.22h6.35v3.86H20.67L18.52,32h9.64v3.86H20l3.22,3.22h5V42.9c0,.34.14.62.31.62h2.6c.17,0,.31-.28.31-.62V39.07h19.9V42.9c0,.34.14.62.31.62h2.6c.17,0,.31-.28.31-.62V21.1C54.5,20.76,54.36,20.49,54.19,20.49ZM51.28,35.86H31.38V32h19.9Zm0-7.08H31.38V24.93h19.9Z"/></svg>