<svg id="Layer_1" data-name="Layer 1" xmlns="http://www.w3.org/2000/svg" viewBox="0 0 60 60"><defs><style>.cls-1{opacity:0.8;}.cls-2{fill:#d0021b;fill-rule:evenodd;}.cls-3{fill:#fff;}</style></defs><title>DAS map icons</title><g class="cls-1"><path class="cls-2" d="M8.72,33.86V30h5.73l2.15-3.22H8.72V22.93H17.2L14,19.71H8.72V19.1a0.55,0.55,0,0,0-.31-0.61H5.81a0.55,0.55,0,0,0-.31.61V40.9a0.55,0.55,0,0,0,.31.62h2.6a0.55,0.55,0,0,0,.31-0.62V37.07h9.83l-3.22-3.22H8.72Z"/><path class="cls-3" d="M8.41,18.49a0.55,0.55,0,0,1,.31.61v0.61H14l3.22,3.22H8.72v3.86h7.88L14.45,30H8.72v3.86h6.62l3.22,3.22H8.72V40.9a0.55,0.55,0,0,1-.31.62H5.81A0.55,0.55,0,0,1,5.5,40.9V19.1a0.55,0.55,0,0,1,.31-0.61h2.6m0-3H5.81A3.43,3.43,0,0,0,2.5,19.1V40.9a3.43,3.43,0,0,0,3.31,3.62h2.6a3.43,3.43,0,0,0,3.31-3.62V40.07H25.79L20.67,35l-3.22-3.22-0.34-.34,2-3,1.68-2.52h3.67L19.32,20.8,16.1,17.59l-0.88-.88H10.91a3.18,3.18,0,0,0-2.5-1.22h0Z"/><path class="cls-2" d="M54.19,18.49h-2.6a0.55,0.55,0,0,0-.31.61v0.61H31.38V19.1a0.55,0.55,0,0,0-.31-0.61h-2.6a0.55,0.55,0,0,0-.31.61v0.61H18.6l3.22,3.22h6.35v3.86H20.67L18.52,30h9.64v3.86H20l3.22,3.22h5V40.9a0.55,0.55,0,0,0,.31.62h2.6a0.55,0.55,0,0,0,.31-0.62V37.07h19.9V40.9a0.55,0.55,0,0,0,.31.62h2.6a0.55,0.55,0,0,0,.31-0.62V19.1A0.55,0.55,0,0,0,54.19,18.49ZM51.28,33.86H31.38V30h19.9v3.86Zm0-7.08H31.38V22.93h19.9v3.86Z"/><path class="cls-3" d="M54.19,18.49a0.55,0.55,0,0,1,.31.61V40.9a0.55,0.55,0,0,1-.31.62h-2.6a0.55,0.55,0,0,1-.31-0.62V37.07H31.38V40.9a0.55,0.55,0,0,1-.31.62h-2.6a0.55,0.55,0,0,1-.31-0.62V37.07h-5L20,33.86h8.21V30H18.52l2.15-3.22h7.49V22.93H21.81L18.6,19.71h9.57V19.1a0.55,0.55,0,0,1,.31-0.61h2.6a0.55,0.55,0,0,1,.31.61v0.61h19.9V19.1a0.55,0.55,0,0,1,.31-0.61h2.6m-22.81,8.3h19.9V22.93H31.38v3.86m0,7.08h19.9V30H31.38v3.86M54.19,15.49h-2.6a3.18,3.18,0,0,0-2.5,1.22H33.57a3.18,3.18,0,0,0-2.5-1.22h-2.6A3.18,3.18,0,0,0,26,16.71H11.35l5.12,5.12,2.33,2.33-0.64,1L16,28.34l-1.68,2.52H12.71l1,1L12.92,33h1.93l3,3L21,39.2l0.88,0.88h3.23V40.9a3.43,3.43,0,0,0,3.31,3.62h2.6a3.43,3.43,0,0,0,3.31-3.62V40.07h13.9V40.9a3.43,3.43,0,0,0,3.31,3.62h2.6A3.43,3.43,0,0,0,57.5,40.9V19.1a3.43,3.43,0,0,0-3.31-3.61h0Z"/></g><path class="cls-2" d="M8.72,33.86V30h5.73l2.15-3.22H8.72V22.93H17.2L14,19.71H8.72V19.1a0.55,0.55,0,0,0-.31-0.61H5.81a0.55,0.55,0,0,0-.31.61V40.9a0.55,0.55,0,0,0,.31.62h2.6a0.55,0.55,0,0,0,.31-0.62V37.07h9.83l-3.22-3.22H8.72Z"/><path class="cls-2" d="M54.19,18.49h-2.6a0.55,0.55,0,0,0-.31.61v0.61H31.38V19.1a0.55,0.55,0,0,0-.31-0.61h-2.6a0.55,0.55,0,0,0-.31.61v0.61H18.6l3.22,3.22h6.35v3.86H20.67L18.52,30h9.64v3.86H20l3.22,3.22h5V40.9a0.55,0.55,0,0,0,.31.62h2.6a0.55,0.55,0,0,0,.31-0.62V37.07h19.9V40.9a0.55,0.55,0,0,0,.31.62h2.6a0.55,0.55,0,0,0,.31-0.62V19.1A0.55,0.55,0,0,0,54.19,18.49ZM51.28,33.86H31.38V30h19.9v3.86Zm0-7.08H31.38V22.93h19.9v3.86Z"/></svg>