<svg id="d40c4202-bfef-4373-85dc-186a450997e9" data-name="Layer 1" xmlns="http://www.w3.org/2000/svg" viewBox="0 0 60 60"><defs><style>.\39 b063ed0-155f-466a-88aa-a60ac569a94d{opacity:0.8;}.\33 411ad57-6573-46ec-bf3a-fed1ec85ea1b{fill:#fff;}.ce6e6ae9-b491-48ba-aebe-a17cfcd9de69{fill:#5a6066;}</style></defs><title>–</title><g class="9b063ed0-155f-466a-88aa-a60ac569a94d"><path class="3411ad57-6573-46ec-bf3a-fed1ec85ea1b" d="M46.38,17.26a2.59,2.59,0,1,1-2.59,2.59,2.59,2.59,0,0,1,2.59-2.59m-32.76,0A2.59,2.59,0,1,1,11,19.85a2.59,2.59,0,0,1,2.59-2.59m18.94,3.89v0.43h6.21L39.2,22v0.86H49.62A2.38,2.38,0,0,1,52,25.26V31a1.08,1.08,0,1,1-2.16,0V26.2a0.22,0.22,0,0,0-.43,0V41.44a1.3,1.3,0,0,1-2.59,0V33.89a0.43,0.43,0,1,0-.86,0v7.55a1.3,1.3,0,0,1-2.59,0V25.23h0A0.21,0.21,0,0,0,43.14,25h-4.8a1.07,1.07,0,0,1-1-1.45l-0.72-.72H31.69v-1.3h0.43V21.15h0.43m4.91,2.16h0A1.08,1.08,0,0,1,37.9,23V22.88H37l0.43,0.43m-9.59-2.16v0.43h0.43v1.3H23.4l-0.72.72a1.07,1.07,0,0,1-1,1.45h-4.8a0.21,0.21,0,0,0-.21.19h0V41.44a1.3,1.3,0,0,1-2.59,0V33.89a0.43,0.43,0,1,0-.86,0v7.55a1.3,1.3,0,0,1-2.59,0V26.2a0.22,0.22,0,0,0-.43,0V31A1.08,1.08,0,1,1,8,31V25.26a2.38,2.38,0,0,1,2.38-2.38H20.8V22l0.43-.43h6.21V21.15h0.43m-5.35,2.16h0L23,22.88H22.1V23a1.08,1.08,0,0,1,.43.34m23.85-9.05a5.6,5.6,0,0,0-5.57,5.12,3,3,0,0,0-2-.8H34.11a3,3,0,0,0-1.55-.43H32.12A3,3,0,0,0,30,19a3,3,0,0,0-2.12-.88H27.44a3,3,0,0,0-1.55.43H21.23a3,3,0,0,0-2,.8A5.59,5.59,0,0,0,8,19.85c0,0.19,0,.37,0,0.55A5.39,5.39,0,0,0,5,25.26V31a4.09,4.09,0,0,0,2.59,3.8v6.64a4.3,4.3,0,0,0,6,3.93,4.3,4.3,0,0,0,6-3.93V28h2a4.09,4.09,0,0,0,3.6-2.16h3A3,3,0,0,0,30,25.36a3,3,0,0,0,1.69.52h3A4.09,4.09,0,0,0,38.33,28h2v13.4a4.3,4.3,0,0,0,6,3.93,4.3,4.3,0,0,0,6-3.93V34.8A4.09,4.09,0,0,0,55,31V25.26a5.39,5.39,0,0,0-3.05-4.85c0-.18,0-0.37,0-0.55a5.6,5.6,0,0,0-5.59-5.59h0Z"/></g><path class="ce6e6ae9-b491-48ba-aebe-a17cfcd9de69" d="M46.38,17.26a2.59,2.59,0,1,1-2.59,2.59A2.59,2.59,0,0,1,46.38,17.26Zm5.62,8V31a1.08,1.08,0,1,1-2.16,0V26.2a0.22,0.22,0,1,0-.43,0V41.44a1.3,1.3,0,1,1-2.59,0V33.89a0.43,0.43,0,0,0-.86,0v7.55a1.3,1.3,0,1,1-2.59,0V25.23h0A0.21,0.21,0,0,0,43.14,25h-4.8a1.07,1.07,0,0,1-1-1.45l-0.72-.72H31.69v-1.3h0.43V21.15h0.43v0.43h6.21L39.2,22v0.86H49.62A2.38,2.38,0,0,1,52,25.26ZM37.47,23.31A1.08,1.08,0,0,1,37.9,23V22.88H37l0.43,0.43h0ZM13.62,17.26a2.59,2.59,0,1,0,2.59,2.59A2.59,2.59,0,0,0,13.62,17.26ZM8,25.26V31a1.08,1.08,0,1,0,2.16,0V26.2a0.22,0.22,0,1,1,.43,0V41.44a1.3,1.3,0,1,0,2.59,0V33.89a0.43,0.43,0,0,1,.86,0v7.55a1.3,1.3,0,1,0,2.59,0V25.23h0A0.21,0.21,0,0,1,16.86,25h4.8a1.07,1.07,0,0,0,1-1.45l0.72-.72h4.91v-1.3H27.88V21.15H27.44v0.43H21.23L20.8,22v0.86H10.38A2.38,2.38,0,0,0,8,25.26Zm14.53-1.95A1.08,1.08,0,0,0,22.1,23V22.88H23l-0.43.43h0Z"/></svg>