<svg xmlns="http://www.w3.org/2000/svg" viewBox="0 0 60 60"><defs><style>.a{opacity:0.8;}.b{fill:#fff;}.c{fill:#5a6066;}</style></defs><title>DAS map icons 078-134</title><g class="a"><path class="b" d="M31.49,31.63a15.87,15.87,0,0,0-6.67-2.57c-.36-.3-4.49-3.84-4.95-4.19-1.29-1-1-1.12-3-1.12,0,0-1.16,0-2.89,0V40.19a27.64,27.64,0,0,0,4.55.31,17.32,17.32,0,0,0,1.91-.1,4.79,4.79,0,0,0,8.42-.66,12,12,0,0,0,2.06-.6S31.89,34,31.49,31.63ZM20.66,30H16.23V26.45H18a.94.94,0,0,1,.73.31c.33.34,1.89,1.7,2.64,2.38Zm3.84,10.22a2.38,2.38,0,1,1,2.38-2.38A2.39,2.39,0,0,1,24.49,40.19ZM40.35,24.3c-2,1-4.11,4.19-5.46,5.17H33.28c-1.49,4.38.13,8.28.92,9,.84.31.83.65,1.49.84a4.77,4.77,0,0,0,8.75.75c.68.08,1.05.15,1.56.21V23.77C43.83,23.79,41.11,23.91,40.35,24.3Zm-.12,15.91a2.38,2.38,0,1,1,2.38-2.38A2.38,2.38,0,0,1,40.23,40.21ZM44,30H39.59l-.13-1.15,1.85-2.17A21.64,21.64,0,0,1,44,26.5ZM38.85,17.37,36,26.58l-.77-.07-.06-3.65L32.4,24.3l-2.64-1.92L29.34,26l-2.28.11.49,1.67L26.9,28l-2.75-3.29,3.53-.17,0-6.87,4.94,4.56Z"/><path class="b" d="M38.85,17.37,36,26.58l-.77-.07-.06-3.65L32.4,24.3l-2.64-1.92L29.34,26l-2.28.11.49,1.67L26.9,28l-2.75-3.29,3.53-.17,0-6.87,4.94,4.56,6.19-4.91m-23,6.37h1c2,0,1.7.12,3,1.12.46.36,4.59,3.89,4.95,4.19a15.87,15.87,0,0,1,6.67,2.57c.4,2.38-.54,7.51-.54,7.51a12,12,0,0,1-2.06.6,4.79,4.79,0,0,1-8.42.66,17.32,17.32,0,0,1-1.91.1A27.63,27.63,0,0,1,14,40.19V23.76l1.88,0M16.23,30h4.42l.69-.83c-.75-.68-2.3-2-2.64-2.38a.94.94,0,0,0-.73-.31H16.23V30m8.26,10.22a2.38,2.38,0,1,0-2.38-2.38,2.39,2.39,0,0,0,2.38,2.38M46,23.77V40.3c-.51-.06-.88-.13-1.56-.21a4.77,4.77,0,0,1-8.75-.75c-.66-.19-.65-.53-1.49-.84-.8-.74-2.41-4.64-.92-9h1.61c1.35-1,3.49-4.14,5.46-5.17.76-.4,3.48-.51,5.65-.54M39.59,30H44V26.5a21.64,21.64,0,0,0-2.71.18l-1.85,2.17L39.59,30m.64,10.22a2.38,2.38,0,1,0-2.38-2.38,2.39,2.39,0,0,0,2.38,2.38M38.85,14.37A3,3,0,0,0,37,15L32.8,18.33l-3.06-2.82a3,3,0,0,0-5,2.19l0,4-.69,0a3,3,0,0,0-2,.94l-.25-.2-.47-.38c-1.42-1.19-2.3-1.38-4.36-1.38h-1l-1.94,0a3,3,0,0,0-2.94,3V40.19a3,3,0,0,0,2.63,3l.54.07a28.36,28.36,0,0,0,4.38.27h.62a7.78,7.78,0,0,0,11.66-1.15c.61-.18,1.08-.37,1.22-.42a3,3,0,0,0,1-.66l.07,0h0l.21.16a7.76,7.76,0,0,0,12.42,1.82H46a3,3,0,0,0,3-3V23.77a3,3,0,0,0-3-3h0a37.16,37.16,0,0,0-5.14.32l.88-2.82a3,3,0,0,0-2.86-3.9Zm0,6h0Z"/></g><path class="c" d="M31.49,31.63a15.87,15.87,0,0,0-6.67-2.57c-.36-.3-4.49-3.84-4.95-4.19-1.29-1-1-1.12-3-1.12,0,0-1.16,0-2.89,0V40.19a27.64,27.64,0,0,0,4.55.31,17.32,17.32,0,0,0,1.91-.1,4.79,4.79,0,0,0,8.42-.66,12,12,0,0,0,2.06-.6S31.89,34,31.49,31.63ZM20.66,30H16.23V26.45H18a.94.94,0,0,1,.73.31c.33.34,1.89,1.7,2.64,2.38Zm3.84,10.22a2.38,2.38,0,1,1,2.38-2.38A2.39,2.39,0,0,1,24.49,40.19Z"/><path class="c" d="M40.35,24.3c-2,1-4.11,4.19-5.46,5.17H33.28c-1.49,4.38.13,8.28.92,9,.84.31.83.65,1.49.84a4.77,4.77,0,0,0,8.75.75c.68.08,1.05.15,1.56.21V23.77C43.83,23.79,41.11,23.91,40.35,24.3Zm-.12,15.91a2.38,2.38,0,1,1,2.38-2.38A2.38,2.38,0,0,1,40.23,40.21ZM44,30H39.59l-.13-1.15,1.85-2.17A21.64,21.64,0,0,1,44,26.5Z"/><polygon class="c" points="32.66 22.28 27.71 17.71 27.68 24.59 24.15 24.76 26.9 28.05 27.54 27.76 27.05 26.09 29.34 25.98 29.75 22.37 32.4 24.3 35.13 22.86 35.19 26.51 35.95 26.58 38.85 17.37 32.66 22.28"/></svg>