<svg xmlns="http://www.w3.org/2000/svg" viewBox="0 0 32 19"><defs><style>.a{opacity:0.8;}.b{fill:#fff;}.c{fill:#d0021b;}</style></defs><title>water_level-red</title><g class="a"><path class="b" d="M6.55,17.5a2.68,2.68,0,0,1-2.64-2.2L1.56,4.72A2.69,2.69,0,0,1,2,2.66,2.66,2.66,0,0,1,3.7,1.55a2.56,2.56,0,0,1,.49,0A2.68,2.68,0,0,1,6.82,3.7l.63,2.72A2.87,2.87,0,0,0,8.88,4.88a2.39,2.39,0,0,1,4.46,0,2.85,2.85,0,0,0,5.33,0,2.39,2.39,0,0,1,4.46,0,2.87,2.87,0,0,0,1.42,1.54l.65-2.79a2.68,2.68,0,0,1,5.26,1L28.08,15.36a2.66,2.66,0,0,1-2.63,2.15Zm16.74-5.36.24-1A7.65,7.65,0,0,1,20.9,9.7a7.58,7.58,0,0,1-9.79,0,7.64,7.64,0,0,1-2.63,1.44l.24,1Z"/><path class="b" d="M4.19,3A1.18,1.18,0,0,1,5.34,4l1,4.19v0a4.38,4.38,0,0,0,3.95-2.8.89.89,0,0,1,1.66,0,4.35,4.35,0,0,0,8.13,0,.89.89,0,0,1,1.66,0,4.37,4.37,0,0,0,3.95,2.8l1-4.24a1.18,1.18,0,0,1,1.15-1L28,3a1.18,1.18,0,0,1,1,1.37L26.62,15a1.18,1.18,0,0,1-1.16,1H6.55a1.18,1.18,0,0,1-1.16-1L3,4.39A1.18,1.18,0,0,1,4,3l.22,0M16,10a6.16,6.16,0,0,1-4.9-2.45A6.17,6.17,0,0,1,6.65,10l.88,3.67H24.47L25.35,10A6.16,6.16,0,0,1,20.9,7.54,6.16,6.16,0,0,1,16,10M4.19,0A4.21,4.21,0,0,0,.74,1.81,4.15,4.15,0,0,0,.07,4.94L.09,5l2.35,10.6A4.18,4.18,0,0,0,6.55,19H25.46a4.18,4.18,0,0,0,4.1-3.36L31.91,5l0-.11a4.18,4.18,0,0,0-8.16-1.82,3.88,3.88,0,0,0-6.51,1.22,1.35,1.35,0,0,1-2.53,0A3.88,3.88,0,0,0,8.23,3.12,4.17,4.17,0,0,0,4.19,0h0Z"/></g><path class="c" d="M28,3a1.17,1.17,0,0,0-1.37,1l-1,4.24a4.37,4.37,0,0,1-3.95-2.8.89.89,0,0,0-1.66,0,4.35,4.35,0,0,1-8.13,0,.89.89,0,0,0-1.66,0,4.38,4.38,0,0,1-3.95,2.8v0L5.34,4A1.18,1.18,0,0,0,3,4.39L5.38,15a1.18,1.18,0,0,0,1.16,1H25.46a1.18,1.18,0,0,0,1.16-1L29,4.39A1.18,1.18,0,0,0,28,3ZM24.47,13.64H7.53L6.65,10a6.17,6.17,0,0,0,4.45-2.43,6.11,6.11,0,0,0,9.79,0A6.16,6.16,0,0,0,25.35,10Z"/></svg>