<svg xmlns="http://www.w3.org/2000/svg" viewBox="0 0 41.99 25.29"><defs><style>.a{opacity:0.8;}.b{fill:#ffab24;}.c{fill:#fff;}</style></defs><title>Asset 57</title><g class="a"><path class="b" d="M10,23.79a4.41,4.41,0,0,1-1.2-.18H8.59a2.88,2.88,0,0,1-1.35-.33H7a5,5,0,0,1-.7-.06,3.38,3.38,0,0,1-.59.05,4.08,4.08,0,0,1-.93-.11,2.86,2.86,0,0,1-2.44-1.57A3,3,0,0,1,2.26,19l-.06-.09a2.94,2.94,0,0,1-.1-3l.29-.6A2.91,2.91,0,0,1,2,14.54a2.94,2.94,0,0,1-.33-2.45,4.32,4.32,0,0,1,.28-.73L2,11.25l0-.14c0-.11,0-.27,0-.37A9.39,9.39,0,0,1,3.1,7,9,9,0,0,1,6.62,3.59a6.63,6.63,0,0,1,2.3-.93l.62-.05a12.45,12.45,0,0,0,1.32-.12,11.1,11.1,0,0,0,1.7-.55l.29-.11A5.66,5.66,0,0,1,14.7,1.5a4.37,4.37,0,0,1,1.21.16l.1,0a25.25,25.25,0,0,0,2.82.68,8,8,0,0,0,1.89.26l.47,0h0l.43-.18A6.84,6.84,0,0,1,24.07,2a8.53,8.53,0,0,1,1,.07l.91.09.7.07h.47a6.62,6.62,0,0,1,1,.07,6.31,6.31,0,0,1,3,1.46,3.81,3.81,0,0,1,.71.84l.22.05.27,0a2.77,2.77,0,0,1,1-.43,2.7,2.7,0,0,1,.6-.07,2.77,2.77,0,0,1,1.24.29,2.51,2.51,0,0,1,1.25,3,3.45,3.45,0,0,1-.46.91l0,.05c-.1.22-.19.43-.3.61a4.23,4.23,0,0,1-.65,1,1.1,1.1,0,0,0,.13.15l.3.33.07.07.29,0,.21,0a2.69,2.69,0,0,1,4.35,1.45,4.25,4.25,0,0,1,0,1.65l0,.19a5.45,5.45,0,0,1-1.54,2.93,8.53,8.53,0,0,1-1.33,1.22,3.54,3.54,0,0,1-.3.77c-.06.12-.12.22-.17.3a3.1,3.1,0,0,1-2.89,1.88l-.31,0a3.22,3.22,0,0,1-1.07.19A3,3,0,0,1,31,20.67a3.4,3.4,0,0,1-1.29-1l-1-1-.58-.57h-.48l-.05.14a2.89,2.89,0,0,1,.68.9,2.89,2.89,0,0,1,.27.48,2.58,2.58,0,0,1-1.35,3.42,3.54,3.54,0,0,1-1.81.46h-.12a5.57,5.57,0,0,1-1.07-.12H23.9l-.61,0a3.33,3.33,0,0,1-1.21-.26l-.33.06-.31,0a3.26,3.26,0,0,1-2.71-1.64,3,3,0,0,1-.25-.5,2.39,2.39,0,0,1-.15-.27,4.87,4.87,0,0,1-.42-1.34c0-.07,0-.15,0-.22l-.78,0a12.81,12.81,0,0,1-4.26-.73,2.94,2.94,0,0,1,.46.55,5.42,5.42,0,0,1,.52,1.17,2.61,2.61,0,0,1-1,2.92,2.85,2.85,0,0,1-1.74.54l-.39,0A3.61,3.61,0,0,1,10,23.79Z"/><path class="c" d="M14.7,3a2.86,2.86,0,0,1,.79.1l.06,0a24.82,24.82,0,0,0,3,.73,9.26,9.26,0,0,0,2.18.29c.29,0,.51,0,.66,0h.08A1,1,0,0,0,21.8,4l.36-.15a5.34,5.34,0,0,1,1.91-.33,7.08,7.08,0,0,1,.86.05L26,3.67l.57.05h.63a5.22,5.22,0,0,1,.79.06,4.88,4.88,0,0,1,2.25,1.11A3.33,3.33,0,0,1,31,6.15a1,1,0,0,1,.42-.09h0a1.3,1.3,0,0,1,.42.08,1.52,1.52,0,0,1,.56.13l.14.07.26-.1a2.49,2.49,0,0,0,.26-.17,1.71,1.71,0,0,1,.63-.33,1.24,1.24,0,0,1,.27,0,1.29,1.29,0,0,1,.57.13A1,1,0,0,1,35.06,7a1.89,1.89,0,0,1-.33.61l-.1.22a4.76,4.76,0,0,1-.26.52,2.3,2.3,0,0,1-.89,1.05c0,.12,0,.25,0,.39a1.9,1.9,0,0,0,.21.92,1.84,1.84,0,0,0,.39.51l.26.28a7.25,7.25,0,0,1,.49.55c.29,0,.63,0,.83,0a1.33,1.33,0,0,1,.63.23,2.66,2.66,0,0,0,.44-.27,1.32,1.32,0,0,1,1-.55,1.23,1.23,0,0,1,1.17,1,3.06,3.06,0,0,1,0,1.1l0,.18a4,4,0,0,1-1.19,2.11,7.33,7.33,0,0,1-1.45,1.25l-.14.3v0a1.83,1.83,0,0,1-.22.71,2.79,2.79,0,0,1-.15.25l0,.06a1.58,1.58,0,0,1-1.57,1,6.33,6.33,0,0,0-.66.08,1.77,1.77,0,0,1-.68.14,1.49,1.49,0,0,1-1-.42,1.9,1.9,0,0,1-.92-.66c-.14-.15-.74-.74-1.11-1.1l-.71-.7a1.94,1.94,0,0,1-.46-.39l-.3.1a1.31,1.31,0,0,1-.88,0,1.27,1.27,0,0,1-.48.15c-.15.18-.34.41-.48.58a6.16,6.16,0,0,0-.47,1.33l0,.22,0,.09L26,19l.24.11A1.44,1.44,0,0,1,27,20h0a1.53,1.53,0,0,1,.2.32,1.08,1.08,0,0,1,0,.91,1.11,1.11,0,0,1-.67.57,1.87,1.87,0,0,1-1.15.29h-.07a4.12,4.12,0,0,1-.94-.13l-.44,0-.47,0a1.61,1.61,0,0,1-1.17-.44,1.58,1.58,0,0,1-.67.24h-.14A1.77,1.77,0,0,1,20,20.82a1.69,1.69,0,0,1-.18-.42,1,1,0,0,1-.14-.22,3.49,3.49,0,0,1-.29-.9,1.85,1.85,0,0,1,.48-1.46l.08-.08.27-.28c-.78.14-1.5.22-1.5.22h0a12.43,12.43,0,0,1-1.62.11,11.4,11.4,0,0,1-3.81-.66,5.2,5.2,0,0,1-2-1.41l-.06,0a1.22,1.22,0,0,0-.3.37,2.58,2.58,0,0,0,0,.38c0,.15,0,.3,0,.44l0,.33c0,.29-.09.6-.1.69a5,5,0,0,0,0,.53l0,.08a6,6,0,0,1,.26.64l0,.1h0a1.35,1.35,0,0,1,.88.61,4,4,0,0,1,.34.77,1.12,1.12,0,0,1-.47,1.3,1.36,1.36,0,0,1-.84.25,3.46,3.46,0,0,1-.5,0,2,2,0,0,1-.64.1,3.19,3.19,0,0,1-1-.17h-.4a1.28,1.28,0,0,1-.91-.35l-.23,0H7.2l-.21,0a4.54,4.54,0,0,1-.65-.07H6.16a1.86,1.86,0,0,1-.47.06A2.74,2.74,0,0,1,5,21.67h0a1.38,1.38,0,0,1-1.27-.76,1.81,1.81,0,0,1,.12-1.62c0-.11.1-.23.14-.35l0-.06,0,0,0-.1c0-.07-.18-.29-.26-.4l-.15-.23a1.53,1.53,0,0,1,0-1.54l0-.07.14-.28a10.15,10.15,0,0,0,.43-1l.06-.16a1,1,0,0,1-.36-.44l-.12-.16a1.37,1.37,0,0,1-.32-.63,1.41,1.41,0,0,1-.24-1.39A2.76,2.76,0,0,1,3.26,12a2.12,2.12,0,0,0,.12-.29,3.28,3.28,0,0,0,.09-.49c0-.08,0-.29,0-.4a7.93,7.93,0,0,1,.92-3.05A7.45,7.45,0,0,1,7.36,4.89a5.23,5.23,0,0,1,1.79-.75l.47,0A13.83,13.83,0,0,0,11.1,4a11.81,11.81,0,0,0,2-.64l.25-.1A4.13,4.13,0,0,1,14.7,3m0-3a7.14,7.14,0,0,0-2.37.41L12,.53a8.85,8.85,0,0,1-1.4.48,11.14,11.14,0,0,1-1.16.1c-.36,0-.58,0-.76.07A8,8,0,0,0,5.88,2.28a10.49,10.49,0,0,0-4,3.94l0,.07a10.88,10.88,0,0,0-1.3,4.38s0,.11,0,.18a5.29,5.29,0,0,0-.31.86,4.45,4.45,0,0,0,.44,3.53l.08.17A4.45,4.45,0,0,0,.64,19.2a4.39,4.39,0,0,0,3.91,5.45,5.56,5.56,0,0,0,1.15.12,5,5,0,0,0,.6,0,6.13,6.13,0,0,0,.61,0,4.41,4.41,0,0,0,1.68.33,5.76,5.76,0,0,0,1.38.17,5.13,5.13,0,0,0,.83-.07h.31a4.37,4.37,0,0,0,2.63-.84,4.16,4.16,0,0,0,1.72-3.71c.4,0,.82.08,1.27.09a7.21,7.21,0,0,0,.28.68q.08.16.16.32a4.89,4.89,0,0,0,4.3,3l.48,0h0a5.36,5.36,0,0,0,1.28.21l.67,0h.18a6.79,6.79,0,0,0,1.19.12h.17a5.17,5.17,0,0,0,2.45-.62,4.09,4.09,0,0,0,2-1.91,4,4,0,0,0,.24-.61l.11.06a4.49,4.49,0,0,0,2.58.82,4.68,4.68,0,0,0,1.39-.21h.11a4.57,4.57,0,0,0,4.11-2.69l.16-.29a5.33,5.33,0,0,0,.26-.57A9.53,9.53,0,0,0,40,17.88a6.79,6.79,0,0,0,1.9-3.76l0-.18a5.59,5.59,0,0,0-.07-2.18,4.22,4.22,0,0,0-4.07-3.21h-.1A5.1,5.1,0,0,0,37.9,8a4,4,0,0,0-2-4.83A4.28,4.28,0,0,0,34,2.71a4.24,4.24,0,0,0-.93.1,4.06,4.06,0,0,0-.51.15q-.16-.17-.33-.32A7.88,7.88,0,0,0,28.42.81,8.26,8.26,0,0,0,27.19.72h-.42l-.51,0-1-.1A10.1,10.1,0,0,0,24.07.51a8.32,8.32,0,0,0-3,.53l-.25.1h-.12a6.29,6.29,0,0,1-1.47-.2l-.12,0A25.78,25.78,0,0,1,16.58.3L16.33.22A5.86,5.86,0,0,0,14.7,0Z"/></g><path class="c" d="M4.7,12.85a5.2,5.2,0,0,1,.16.57c0,.14,0,.25,0,.37s0,.11.1.26a2.77,2.77,0,0,1,.26.73,2.56,2.56,0,0,1-.22.82c-.2.55-.48,1.07-.6,1.32s-.24.46-.11.66.39.57.47.75a1,1,0,0,1,.09,1c-.18.52-.45.91-.31,1.19s.43.2.55.2a1.35,1.35,0,0,0,.94,0,1.51,1.51,0,0,0,.36,0,4,4,0,0,0,.64.07c.12,0,.13-.06.13-.06a2.26,2.26,0,0,0,.25.07c.07,0,.17,0,0-.3A2.12,2.12,0,0,0,7,19.81a1.39,1.39,0,0,1-.38-.44,5,5,0,0,1-.09-.72,2.91,2.91,0,0,1,.21-.84c.1-.26.22-.65.32-.9s.27-.62.27-.62a4.31,4.31,0,0,1-.06,1.1,3,3,0,0,0-.09,1c.05.18.19.3.39.45a5.61,5.61,0,0,1,.82.77.94.94,0,0,1,.08.63,4.4,4.4,0,0,0-.17.6c0,.11,0,.32.37.28.15,0,.45,0,.45,0s.86.37,1.32,0c.17,0,.74.14.89,0s.12-.14.1-.21a3.36,3.36,0,0,0-.21-.5c-.06-.09-.07-.13-.3-.19a1.16,1.16,0,0,1-.47-.21,1.76,1.76,0,0,1-.31-.56c-.09-.29-.24-.58-.29-.72a4.33,4.33,0,0,1-.09-.89c0-.14.1-.75.15-1.1a4.81,4.81,0,0,1,.15-1.06,2,2,0,0,1,.76-.87,1.34,1.34,0,0,0,.57-.68,5.85,5.85,0,0,0,2.26,2,10.4,10.4,0,0,0,5,.51,12.63,12.63,0,0,0,2.86-.58,15.85,15.85,0,0,0,1,1.43.4.4,0,0,1,0,.19.22.22,0,0,0-.14.14c-.15-.07-.28-.09-.35,0a.94.94,0,0,0-.44-.21c-.11,0-.85.78-1,.9a.86.86,0,0,0-.2.63,2.71,2.71,0,0,0,.2.6,1.06,1.06,0,0,1,.24,0,.55.55,0,0,0,0,.58c.16.27.41.45.6.43a.92.92,0,0,0,.45-.26,8.51,8.51,0,0,1,.73-.66,4.23,4.23,0,0,0,.41-.29,1.64,1.64,0,0,0,.33,0,.36.36,0,0,1-.05.12,1.62,1.62,0,0,0-.26.31,1.2,1.2,0,0,0-.18.73c.06.14,0,.27.59.29a3.82,3.82,0,0,0,.93,0,2.74,2.74,0,0,0,.89.15,1.54,1.54,0,0,0,.59-.09c.05,0,0-.16,0-.16a.75.75,0,0,0,.26,0c.08,0,.17-.05.13-.14a2.68,2.68,0,0,1-.2-.33.45.45,0,0,0-.27-.29,3,3,0,0,1-.53-.28,1.56,1.56,0,0,1-.39-.85,4.39,4.39,0,0,1,.08-.49,6.57,6.57,0,0,1,.65-1.75,8.47,8.47,0,0,1,.91-1c.13,0,.37.17.57-.2.07,0,.36,0,.42-.06a.41.41,0,0,0,.45.25c.23-.07.59-.21.64-.33a2.5,2.5,0,0,0,.1-.31l.16-.1s.19.3.23.39a1,1,0,0,0,.55.8c.12.14,1.89,1.84,2,2a1,1,0,0,0,.67.39.61.61,0,0,0,.81.25,4.82,4.82,0,0,1,1-.15s.56,0,.66-.33a2.68,2.68,0,0,1,.26-.49c.1-.19.14-.34.09-.42s.36-.76.36-.84A5.87,5.87,0,0,0,37,15.28a3.94,3.94,0,0,0,1-1.56A5.2,5.2,0,0,0,38,12.8c0-.11-.15-.45-.46-.06a7.72,7.72,0,0,1-2.21,1.2,1.47,1.47,0,0,1-.57.07s-.06-.15-.06-.15h0a2,2,0,0,1,.58-.22c.4-.1.75-.43.3-.48s-1.23,0-1.23,0a5.51,5.51,0,0,0-.69-.84,4.23,4.23,0,0,1-.82-1,2.88,2.88,0,0,1-.32-1.37,3.76,3.76,0,0,0-.14-1.13.64.64,0,0,1,.23,0c.18,0,.57,0,.9-.78.13-.18.34-.79.44-.88a.89.89,0,0,0,.17-.31.28.28,0,0,0-.17,0c-.09,0-.45.33-.68.43s-1,.36-1.06.43c0-.08,0-.33-.17-.39a1.42,1.42,0,0,0-.36-.06c-.15,0-.26-.11-.24,0a.36.36,0,0,1-.1.33.36.36,0,0,0-.11.19.42.42,0,0,1-.2-.05c-.07-.05-.13-.3-.23-.36s-.35-.07-.41-.11a.31.31,0,0,1-.13-.18,3.25,3.25,0,0,0-.66-1.29,3.94,3.94,0,0,0-1.74-.87c-.62-.09-1,0-1.37-.05s-1.24-.11-1.66-.16a5,5,0,0,0-2.29.21,3.21,3.21,0,0,1-1,.33,9.24,9.24,0,0,1-3.23-.28,24,24,0,0,1-3.08-.76,2.78,2.78,0,0,0-1.5.1A14.42,14.42,0,0,1,11.25,5c-.89.14-1.76.14-2,.17a4.34,4.34,0,0,0-1.44.63A6.44,6.44,0,0,0,5.27,8.28a6.9,6.9,0,0,0-.78,2.59c0,.14,0,.41,0,.41a4.15,4.15,0,0,1-.13.69c-.08.3-.25.56-.3.76s-.11.38.08.52.24.21.23.27-.15.1,0,.33a1.43,1.43,0,0,1,.28.42s.24-.15.13-.55-.22-.47-.44-.58c-.05,0-.1-.07-.08-.13s.13-.19.22-.4a2.61,2.61,0,0,0,.1-.32S4.68,12.75,4.7,12.85Z"/><path class="c" d="M14.7,4a1.88,1.88,0,0,1,.51.06,24,24,0,0,0,3.08.76,10.15,10.15,0,0,0,2.42.32c.38,0,.65,0,.81,0a3.21,3.21,0,0,0,1-.33,4.4,4.4,0,0,1,1.55-.26,6.05,6.05,0,0,1,.74,0c.41.05,1.26.12,1.66.16h.73a4.23,4.23,0,0,1,.64,0,3.94,3.94,0,0,1,1.74.87,3.25,3.25,0,0,1,.66,1.29.31.31,0,0,0,.13.18c.06,0,.31.05.41.11s.16.31.23.36a.42.42,0,0,0,.2.05.36.36,0,0,1,.11-.19.36.36,0,0,0,.1-.33s0,0,0,0,.12,0,.22.06a1.43,1.43,0,0,1,.36.06c.14.06.15.31.17.39.07-.07.84-.33,1.06-.43s.59-.41.68-.43H34a.29.29,0,0,1,.12,0,.89.89,0,0,1-.17.31c-.1.09-.31.7-.44.88-.33.76-.72.77-.9.78a.64.64,0,0,0-.23,0,3.75,3.75,0,0,1,.14,1.13,2.88,2.88,0,0,0,.32,1.37,4.23,4.23,0,0,0,.82,1,5.53,5.53,0,0,1,.69.84s.9,0,1.23,0,.1.38-.3.48a2,2,0,0,0-.58.22h0s.06.14.06.15h.06a2.07,2.07,0,0,0,.5-.08,7.72,7.72,0,0,0,2.21-1.2c.11-.13.19-.18.26-.18s.18.17.2.24a5.2,5.2,0,0,1-.06.92,4,4,0,0,1-1,1.56,5.87,5.87,0,0,1-1.49,1.21c0,.08-.35.79-.36.84s0,.23-.09.42a2.7,2.7,0,0,0-.26.49c-.1.33-.62.33-.66.33h0a4.82,4.82,0,0,0-1,.15.77.77,0,0,1-.3.07.68.68,0,0,1-.51-.32,1,1,0,0,1-.67-.39c-.1-.14-1.87-1.84-2-2a1,1,0,0,1-.55-.8c0-.09-.23-.39-.23-.39l-.16.1a2.46,2.46,0,0,1-.1.31c-.05.11-.4.26-.64.33h-.09a.44.44,0,0,1-.36-.26c0,.05-.18.06-.3.06h-.13c-.1.2-.22.26-.33.26a1,1,0,0,1-.24-.05,8.46,8.46,0,0,0-.91,1A6.57,6.57,0,0,0,25,18.46a4.34,4.34,0,0,0-.08.49,1.56,1.56,0,0,0,.39.85,3,3,0,0,0,.53.28.45.45,0,0,1,.27.29,2.69,2.69,0,0,0,.2.33c0,.09-.05.12-.13.14h0a1,1,0,0,1-.21,0s.08.12,0,.16a1.54,1.54,0,0,1-.59.09h0a2.76,2.76,0,0,1-.85-.15,2.73,2.73,0,0,1-.53,0l-.4,0c-.56,0-.53-.14-.59-.29a1.2,1.2,0,0,1,.18-.73,1.62,1.62,0,0,1,.26-.31.36.36,0,0,0,.05-.12,1.64,1.64,0,0,1-.33,0,4.22,4.22,0,0,1-.41.29,8.55,8.55,0,0,0-.73.66.92.92,0,0,1-.45.26h0a.81.81,0,0,1-.57-.43.55.55,0,0,1,0-.58h0a1.33,1.33,0,0,0-.23,0,2.72,2.72,0,0,1-.2-.6.86.86,0,0,1,.2-.63,6.27,6.27,0,0,1,1-.9h0a.94.94,0,0,1,.44.21.17.17,0,0,1,.11,0,.59.59,0,0,1,.24.07.22.22,0,0,1,.14-.14.4.4,0,0,0,0-.19,15.85,15.85,0,0,1-1-1.43,12.62,12.62,0,0,1-2.86.58,11.37,11.37,0,0,1-1.49.1,10.44,10.44,0,0,1-3.49-.61,5.85,5.85,0,0,1-2.26-2,1.34,1.34,0,0,1-.57.68,2,2,0,0,0-.76.87,4.81,4.81,0,0,0-.15,1.06c-.05.36-.14,1-.15,1.1a4.33,4.33,0,0,0,.09.89c.05.13.2.43.29.72a1.76,1.76,0,0,0,.31.56,1.16,1.16,0,0,0,.47.21c.23.06.24.1.3.19a3.38,3.38,0,0,1,.21.5c0,.07.05.1-.1.21a.45.45,0,0,1-.25,0,4,4,0,0,1-.64-.08.85.85,0,0,1-.5.14,2.87,2.87,0,0,1-.83-.18H8.59c-.29,0-.28-.18-.28-.28a4.41,4.41,0,0,1,.17-.6.94.94,0,0,0-.08-.63,5.62,5.62,0,0,0-.82-.77c-.2-.15-.34-.27-.39-.45a3,3,0,0,1,.09-1,4.3,4.3,0,0,0,.06-1.1s-.17.38-.27.62-.22.64-.32.9a2.91,2.91,0,0,0-.21.84,4.94,4.94,0,0,0,.09.72,1.39,1.39,0,0,0,.38.44,2.12,2.12,0,0,1,.45.68c.12.25,0,.3,0,.3h0a2.25,2.25,0,0,1-.25-.07s0,0-.13.06H7a5.19,5.19,0,0,1-.59-.07H6.22L6,20.7a.72.72,0,0,1-.34.07,1.92,1.92,0,0,1-.6-.11H4.93a.39.39,0,0,1-.38-.21c-.14-.28.13-.66.31-1.19a1,1,0,0,0-.09-1c-.08-.17-.34-.54-.47-.75s0-.42.11-.66.39-.77.6-1.32a2.55,2.55,0,0,0,.22-.82A2.77,2.77,0,0,0,5,14c-.09-.14-.09-.13-.1-.26s0-.22,0-.37a5.26,5.26,0,0,0-.16-.57c0-.1-.09-.57-.09-.57a2.58,2.58,0,0,1-.1.32c-.09.2-.2.34-.22.4s0,.09.08.13c.22.11.33.18.44.58s-.1.56-.13.56h0a1.43,1.43,0,0,0-.28-.42c-.19-.23-.05-.28,0-.33s0-.12-.23-.27S4,12.92,4,12.72s.22-.46.3-.76a4.17,4.17,0,0,0,.13-.69s0-.28,0-.41a6.9,6.9,0,0,1,.78-2.59A6.44,6.44,0,0,1,7.85,5.76a4.34,4.34,0,0,1,1.44-.63c.2,0,1.07,0,2-.17a14.42,14.42,0,0,0,2.45-.79,3.11,3.11,0,0,1,1-.17"/></svg>