<svg xmlns="http://www.w3.org/2000/svg" viewBox="0 0 42.01 41.59"><defs><style>.a{opacity:0.8;}.b{fill:#fff;}.c{fill:#d0021b;}</style></defs><title>Asset 80</title><g class="a"><path class="b" d="M6.56,40.09a3.61,3.61,0,0,1-2.07-.7A2.7,2.7,0,0,1,3.66,36a2.29,2.29,0,0,1,.18-.63,2.53,2.53,0,0,1,.5-.73l.08-.08a3.68,3.68,0,0,1-1.8-.69,2.7,2.7,0,0,1-.84-3.41A2.29,2.29,0,0,1,2,29.81a2.52,2.52,0,0,1,.5-.73,2,2,0,0,1,.89-.56,2.3,2.3,0,0,1,1.33-.4,2.51,2.51,0,0,1,.72.1,2.76,2.76,0,0,1-.12-2.88,2.33,2.33,0,0,1,.21-.61A2.46,2.46,0,0,1,6.06,24,2,2,0,0,1,7,23.5a2.23,2.23,0,0,1,1.21-.33,2.28,2.28,0,0,1,1.45.47,2.34,2.34,0,0,1,1.22.95,2,2,0,0,1,.36,1.29l.1-.17a2.52,2.52,0,0,1,.6-.67,2,2,0,0,1,1-.44,2.14,2.14,0,0,1,1-.24,2.36,2.36,0,0,1,1.62.6,2.39,2.39,0,0,1,1.13,1,2,2,0,0,1,.25,1.42,2,2,0,0,1,0,.67,2.4,2.4,0,0,1-1,1.67,2.64,2.64,0,0,1-2.13,1,3,3,0,0,1-.52,0,1.86,1.86,0,0,1,.17.95,2,2,0,0,1,.1.67,2.39,2.39,0,0,1-.76,1.79,2.7,2.7,0,0,1-2.36,1.31,3.32,3.32,0,0,1-1.06-.18,1.88,1.88,0,0,1,.23,1.06,2,2,0,0,1,.1.67,2.39,2.39,0,0,1-.76,1.79A2.7,2.7,0,0,1,6.56,40.09Zm.17-6.42a2.34,2.34,0,0,1,.82.2A2.56,2.56,0,0,1,7.26,33a2,2,0,0,1-.21.21A2.67,2.67,0,0,1,6.73,33.66Zm.62-4.17a2,2,0,0,1,.37,1.16A2.53,2.53,0,0,1,8.19,30a2.23,2.23,0,0,1,.58-.44,2.89,2.89,0,0,1-.63.07A3.2,3.2,0,0,1,7.35,29.49Zm3.06-1.08a2.66,2.66,0,0,1-.66.68,2.65,2.65,0,0,1,1.13,0,2.53,2.53,0,0,1-.26-.82Zm15-7.07a3.4,3.4,0,0,1-2.55-1.27,2.59,2.59,0,0,1-.64-1.61,2.62,2.62,0,0,1-1.4.4,3.39,3.39,0,0,1-2.64-1.43,2.7,2.7,0,0,1,.23-3.5,2.32,2.32,0,0,1,.36-.54,2.59,2.59,0,0,1,.71-.56,2,2,0,0,1,1-.27h0a2,2,0,0,1,.63-.1,2.58,2.58,0,0,1,1.29.35A2.83,2.83,0,0,1,23,10.5a2.31,2.31,0,0,1,.33-.56,2.51,2.51,0,0,1,.67-.6A2,2,0,0,1,25,9a2,2,0,0,1,.75-.14,2.43,2.43,0,0,1,1.83.8,2.37,2.37,0,0,1,1,1.16,2.19,2.19,0,0,1,.17,1,2.5,2.5,0,0,1,.66-.58,2,2,0,0,1,.93-.32,3.48,3.48,0,0,1-2-1.72,2.7,2.7,0,0,1,.77-3.42,2.31,2.31,0,0,1,.45-.49,2.44,2.44,0,0,1,.77-.43,2.18,2.18,0,0,1,.72-.14,1.72,1.72,0,0,1,.33,0l.3,0a2.45,2.45,0,0,1,2.08,1.22,2.35,2.35,0,0,1,.73,1.35,2.52,2.52,0,0,1,0,.26,2.42,2.42,0,0,1,.63-.42,3.84,3.84,0,0,1-.82-1A2.7,2.7,0,0,1,35,2.7a2.32,2.32,0,0,1,.42-.51,2.47,2.47,0,0,1,.75-.48A2.09,2.09,0,0,1,37,1.53h.22a1.86,1.86,0,0,1,.42,0,2.44,2.44,0,0,1,2,1.1,2.33,2.33,0,0,1,.82,1.3,2,2,0,0,1-.15,1.43,2,2,0,0,1-.17.65,2.41,2.41,0,0,1-1.4,1.34l-.26.17a2,2,0,0,1,.37.45,2.34,2.34,0,0,1,.82,1.3,2,2,0,0,1-.15,1.43,2,2,0,0,1-.17.65,2.41,2.41,0,0,1-1.4,1.34,2.64,2.64,0,0,1-1.57.52,3.29,3.29,0,0,1-2.75-1.69,2.65,2.65,0,0,1-.39-1.15,2,2,0,0,1-.58.25,2.67,2.67,0,0,1-.61.29,2.2,2.2,0,0,1,1,.67,2.38,2.38,0,0,1,1,1.15,2,2,0,0,1,.08,1.44,2,2,0,0,1-.07.67,2.4,2.4,0,0,1-1.18,1.55,2.65,2.65,0,0,1-1.89.79,3.4,3.4,0,0,1-2.55-1.27,2.59,2.59,0,0,1-.64-1.62,2,2,0,0,1-.34.22,2.65,2.65,0,0,1-.92.6,2.17,2.17,0,0,1,.93.64,2.37,2.37,0,0,1,1,1.16,2,2,0,0,1,.08,1.44,2,2,0,0,1-.07.67,2.4,2.4,0,0,1-1.18,1.55A2.65,2.65,0,0,1,25.42,21.34Zm-1.36-6.46a2.24,2.24,0,0,1,0,.4,1.93,1.93,0,0,1,.47-.17A3.24,3.24,0,0,1,24.06,14.88Z"/><path class="b" d="M37.6,3c.28,0,.73.22.77.46a.29.29,0,0,1-.12.24c-.09.06-.31.26-.52.26s-.3-.1-.41-.4a.59.59,0,0,1,0-.27A.3.3,0,0,1,37.48,3l.12,0M37,3a.21.21,0,0,1,.15.05.51.51,0,0,1,.13.48c0,.22-.36.38-.63.38a.42.42,0,0,1-.33-.13.26.26,0,0,1-.06-.23.65.65,0,0,1,.2-.29,1,1,0,0,1,.3-.19A.68.68,0,0,1,37,3m1.53.67h0c.24,0,.42.32.47.54.11.47-.12.49-.26.51h-.11a.5.5,0,0,1-.54-.37.61.61,0,0,1,.31-.66l.11,0m-2.42,0a.64.64,0,0,0,.54.31,1.17,1.17,0,0,0,.68-.29c.08.3.56.32.66.32h0a.91.91,0,0,0,.21.75c-.53.37-.23,1.21-.23,1.21a1.13,1.13,0,0,1-.79.32,1.83,1.83,0,0,1-1.47-1,1.28,1.28,0,0,1,.39-1.65M38,4.08h0m.5.78h0a.36.36,0,0,1,.26.52c-.15.33-.4.54-.56.54a.14.14,0,0,1-.1,0c-.27-.26-.11-1,.38-1M31.12,6.22a.21.21,0,0,1,.16.06.51.51,0,0,1,.1.49.62.62,0,0,1-.6.34A.45.45,0,0,1,30.41,7a.26.26,0,0,1,0-.24.65.65,0,0,1,.21-.28,1,1,0,0,1,.31-.17.74.74,0,0,1,.23-.05m.64,0c.28,0,.74.25.77.5a.29.29,0,0,1-.14.23,1.16,1.16,0,0,1-.51.22c-.16,0-.31-.1-.41-.43a.59.59,0,0,1,0-.27.3.3,0,0,1,.2-.25h.09m-1.54.65a.63.63,0,0,0,.56.34A1.21,1.21,0,0,0,31.42,7c.07.34.66.36.66.36a.91.91,0,0,0,.16.76c-.55.33-.3,1.19-.3,1.19a1.14,1.14,0,0,1-.73.27,1.79,1.79,0,0,1-1.48-1.06,1.28,1.28,0,0,1,.48-1.62m2.4.11h0c.24,0,.4.35.43.56.08.47-.15.48-.29.5h-.06a.52.52,0,0,1-.57-.41A.61.61,0,0,1,32.52,7h.09m-.1,1.15h.05a.36.36,0,0,1,.23.53.86.86,0,0,1-.58.51.14.14,0,0,1-.11,0c-.25-.27-.06-1,.41-1m4.3.23c.28,0,.73.22.77.46a.29.29,0,0,1-.12.24c-.09.06-.31.26-.52.26s-.3-.1-.41-.4a.59.59,0,0,1,0-.27.3.3,0,0,1,.19-.26l.12,0m-.65,0a.21.21,0,0,1,.15.05.51.51,0,0,1,.13.48c0,.22-.36.38-.63.38a.42.42,0,0,1-.33-.13.26.26,0,0,1-.06-.23.65.65,0,0,1,.2-.29,1,1,0,0,1,.3-.19.68.68,0,0,1,.24-.07m1.53.67h0c.24,0,.42.32.47.54.11.47-.12.49-.26.51h-.11a.5.5,0,0,1-.54-.37.61.61,0,0,1,.31-.66l.11,0m-2.42,0a.64.64,0,0,0,.54.31,1.17,1.17,0,0,0,.68-.29c.08.3.56.32.66.32h0a.91.91,0,0,0,.21.75c-.53.37-.23,1.21-.23,1.21a1.14,1.14,0,0,1-.79.32,1.83,1.83,0,0,1-1.47-1,1.28,1.28,0,0,1,.39-1.65m1.89.34h0m.5.78h0a.36.36,0,0,1,.26.52c-.15.33-.4.54-.57.54a.14.14,0,0,1-.1,0c-.27-.26-.11-1,.38-1m-11.89.16c.28,0,.66.14.72.34a.29.29,0,0,1-.08.26c-.09.07-.29.34-.53.34s-.28-.09-.42-.34a.59.59,0,0,1-.06-.27.3.3,0,0,1,.15-.29.49.49,0,0,1,.22,0m-.7.14a.2.2,0,0,1,.11,0,.51.51,0,0,1,.2.45c0,.26-.37.48-.66.48a.37.37,0,0,1-.25-.08.26.26,0,0,1-.09-.22.65.65,0,0,1,.15-.32,1,1,0,0,1,.27-.24.57.57,0,0,1,.27-.11m1.62.42c.23,0,.44.26.52.46.18.45,0,.5-.17.54a.85.85,0,0,1-.24,0,.46.46,0,0,1-.46-.3.61.61,0,0,1,.2-.7l.13,0h0m-1.23.24c.08.19.32.23.5.23a1.31,1.31,0,0,0,.22,0,.91.91,0,0,0,.32.71c-.46.44,0,1.23,0,1.23a1.14,1.14,0,0,1-.92.45A1.93,1.93,0,0,1,24.15,13a1.28,1.28,0,0,1,.13-1.69.66.66,0,0,0,.48.23,1.09,1.09,0,0,0,.72-.4m.72.21h0m.65.69a.36.36,0,0,1,.33.47c-.1.37-.34.63-.5.63l-.08,0c-.31-.22-.27-1,.24-1.07m4.36.19c.28,0,.66.14.72.34a.29.29,0,0,1-.08.26c-.09.07-.29.34-.53.34s-.28-.09-.42-.34a.59.59,0,0,1-.06-.27.3.3,0,0,1,.15-.29.49.49,0,0,1,.22,0m-.7.14a.2.2,0,0,1,.11,0,.51.51,0,0,1,.2.45c0,.26-.37.48-.66.48a.37.37,0,0,1-.25-.08.26.26,0,0,1-.09-.22.65.65,0,0,1,.15-.32,1,1,0,0,1,.27-.24.57.57,0,0,1,.27-.11m1.62.42c.23,0,.44.26.52.46.18.45,0,.5-.17.54a.85.85,0,0,1-.24,0,.46.46,0,0,1-.46-.3.61.61,0,0,1,.2-.7l.13,0h0m-1.23.24c.08.19.32.23.5.23a1.31,1.31,0,0,0,.22,0,.91.91,0,0,0,.32.71c-.46.44,0,1.23,0,1.23a1.14,1.14,0,0,1-.92.45,1.93,1.93,0,0,1-1.41-.74,1.28,1.28,0,0,1,.13-1.69.66.66,0,0,0,.48.23,1.09,1.09,0,0,0,.72-.4m.72.21h0M21.13,14c.28,0,.69.16.75.39a.29.29,0,0,1-.1.25c-.09.07-.3.31-.53.31s-.29-.09-.42-.36a.59.59,0,0,1,0-.27A.3.3,0,0,1,21,14a.43.43,0,0,1,.18,0m11.14,0a.36.36,0,0,1,.33.47c-.1.37-.34.63-.5.63l-.08,0c-.31-.22-.27-1,.24-1.07m-11.82.08a.2.2,0,0,1,.12,0,.51.51,0,0,1,.17.46c0,.24-.37.44-.65.44a.39.39,0,0,1-.28-.1.25.25,0,0,1-.08-.23.65.65,0,0,1,.17-.31,1,1,0,0,1,.28-.22.6.6,0,0,1,.26-.09m1.59.52c.24,0,.44.28.51.49.15.46-.07.5-.21.53l-.19,0a.47.47,0,0,1-.49-.32.61.61,0,0,1,.24-.69l.13,0h0m-1.22.17c.08.22.38.26.56.26h.15a.91.91,0,0,0,.28.73c-.49.42-.11,1.23-.11,1.23a1.14,1.14,0,0,1-.87.4,1.89,1.89,0,0,1-1.44-.83,1.28,1.28,0,0,1,.23-1.67.65.65,0,0,0,.5.26,1.12,1.12,0,0,0,.71-.36m.71.25h0m.6.73a.36.36,0,0,1,.31.49c-.12.35-.36.6-.53.6a.13.13,0,0,1-.08,0c-.3-.24-.21-1,.31-1.06m3.5.7c.28,0,.66.14.72.34a.29.29,0,0,1-.08.26c-.09.07-.29.34-.53.34s-.28-.09-.42-.34a.6.6,0,0,1-.06-.27.3.3,0,0,1,.15-.29.49.49,0,0,1,.22,0m-.7.14a.2.2,0,0,1,.11,0,.51.51,0,0,1,.2.45c0,.26-.37.48-.66.48a.37.37,0,0,1-.25-.08.26.26,0,0,1-.09-.22.65.65,0,0,1,.15-.32,1,1,0,0,1,.27-.24.57.57,0,0,1,.27-.11m1.62.42c.23,0,.44.26.52.46.18.45,0,.5-.17.54a.85.85,0,0,1-.24,0,.46.46,0,0,1-.46-.3.61.61,0,0,1,.2-.7l.13,0h0m-1.23.24c.08.19.32.23.5.23a1.31,1.31,0,0,0,.22,0,.91.91,0,0,0,.32.71c-.46.44,0,1.23,0,1.23a1.14,1.14,0,0,1-.92.45A1.93,1.93,0,0,1,24,19.09a1.28,1.28,0,0,1,.13-1.69.66.66,0,0,0,.48.23,1.09,1.09,0,0,0,.72-.4m.72.21h0m.65.69a.36.36,0,0,1,.33.47c-.1.37-.34.63-.5.63l-.08,0c-.31-.22-.27-1,.24-1.07M8.18,24.67a.67.67,0,0,1,.57.21.29.29,0,0,1,0,.27c-.08.1-.24.44-.51.44a.58.58,0,0,1-.42-.26.59.59,0,0,1-.11-.25.3.3,0,0,1,.09-.31.7.7,0,0,1,.42-.11M7.35,25h.08a.51.51,0,0,1,.28.41c0,.28-.34.61-.65.61a.33.33,0,0,1-.17,0,.26.26,0,0,1-.14-.2.65.65,0,0,1,.09-.34,1,1,0,0,1,.22-.28A.48.48,0,0,1,7.35,25m1.7.1a.76.76,0,0,1,.54.35c.26.4.06.5-.06.57a.8.8,0,0,1-.35.09.43.43,0,0,1-.38-.21.61.61,0,0,1,.06-.73A.32.32,0,0,1,9,25.07h.09m-1.22.48a.39.39,0,0,0,.34.15,1.24,1.24,0,0,0,.41-.08.91.91,0,0,0,.46.63c-.37.53.2,1.21.2,1.21a1.17,1.17,0,0,1-1.09.65,2.06,2.06,0,0,1-1.25-.48,1.28,1.28,0,0,1-.2-1.68.71.71,0,0,0,.41.14c.46,0,.74-.54.74-.54m6.06.31c.26,0,.56.09.64.26a.29.29,0,0,1-.05.26c-.08.09-.27.4-.52.4s-.27-.08-.42-.29a.6.6,0,0,1-.09-.26.3.3,0,0,1,.11-.3.61.61,0,0,1,.33-.08m-.77.22.09,0a.51.51,0,0,1,.25.43c0,.27-.36.56-.66.56a.35.35,0,0,1-.2-.06.25.25,0,0,1-.12-.21.65.65,0,0,1,.11-.34,1,1,0,0,1,.24-.27.51.51,0,0,1,.28-.14m-3.73.08a.35.35,0,0,1,.39.4c0,.4-.23.71-.4.71H9.32c-.35-.15-.46-.95,0-1.1h0m5.41.15a.73.73,0,0,1,.53.4c.23.42,0,.51-.11.56a.82.82,0,0,1-.31.07.44.44,0,0,1-.41-.24.61.61,0,0,1,.12-.72.32.32,0,0,1,.12-.05h.06m-1.23.39a.43.43,0,0,0,.39.18,1.29,1.29,0,0,0,.35-.05.91.91,0,0,0,.4.67c-.41.5.11,1.23.11,1.23a1.15,1.15,0,0,1-1,.56,2,2,0,0,1-1.33-.58A1.28,1.28,0,0,1,12.39,27a.69.69,0,0,0,.44.17c.43,0,.73-.49.73-.49m1.47.73a.36.36,0,0,1,.39.43c-.06.39-.27.68-.44.68l-.06,0c-.34-.18-.39-1,.11-1.1h0M4.69,29.62a.62.62,0,0,1,.51.19.29.29,0,0,1,0,.27c-.08.1-.23.47-.5.47a.6.6,0,0,1-.41-.23.59.59,0,0,1-.12-.24.3.3,0,0,1,.07-.31.76.76,0,0,1,.47-.13m-.86.33h.07a.51.51,0,0,1,.3.39c.06.29-.33.64-.63.64a.32.32,0,0,1-.15,0,.26.26,0,0,1-.15-.19.65.65,0,0,1,.07-.35,1,1,0,0,1,.2-.3.46.46,0,0,1,.29-.18m1.71,0a.77.77,0,0,1,.54.33c.28.39.08.5,0,.57a.78.78,0,0,1-.38.11.43.43,0,0,1-.37-.19.61.61,0,0,1,0-.73A.32.32,0,0,1,5.43,30l.1,0m-1.21.55a.37.37,0,0,0,.31.13,1.2,1.2,0,0,0,.44-.1.91.91,0,0,0,.49.61c-.34.54.26,1.2.26,1.2a1.18,1.18,0,0,1-1.14.7,2.1,2.1,0,0,1-1.2-.42A1.28,1.28,0,0,1,3.2,31a.72.72,0,0,0,.38.12c.47,0,.74-.58.74-.58m6.09,0a.62.62,0,0,1,.51.19.29.29,0,0,1,0,.27c-.08.1-.23.47-.5.47A.6.6,0,0,1,10,31.2.59.59,0,0,1,9.87,31a.3.3,0,0,1,.07-.31.76.76,0,0,1,.47-.13m-.86.33h.07a.51.51,0,0,1,.3.39c.06.29-.33.64-.64.64a.32.32,0,0,1-.15,0A.25.25,0,0,1,9,31.66a.65.65,0,0,1,.07-.35,1,1,0,0,1,.2-.3.46.46,0,0,1,.29-.18m1.71,0a.77.77,0,0,1,.54.33c.28.39.08.5,0,.57a.78.78,0,0,1-.38.11.43.43,0,0,1-.37-.19.61.61,0,0,1,0-.73.32.32,0,0,1,.11-.07l.1,0M5.93,31a.34.34,0,0,1,.38.38c0,.41-.2.73-.37.73h0c-.36-.14-.51-.92,0-1.1h.06m4.12.36a.37.37,0,0,0,.31.13,1.2,1.2,0,0,0,.44-.1.91.91,0,0,0,.49.61c-.34.54.26,1.2.26,1.2a1.18,1.18,0,0,1-1.14.7,2.1,2.1,0,0,1-1.2-.42,1.28,1.28,0,0,1-.29-1.66.72.72,0,0,0,.38.12c.47,0,.74-.58.74-.58m1.61.54a.34.34,0,0,1,.38.38c0,.41-.2.73-.37.73h0c-.36-.14-.51-.92,0-1.1h.06m-5.1,3.23a.62.62,0,0,1,.51.19.29.29,0,0,1,0,.27c-.08.1-.23.47-.5.47a.6.6,0,0,1-.41-.23A.59.59,0,0,1,6,35.6a.3.3,0,0,1,.07-.31.76.76,0,0,1,.47-.13m-.86.33h.07a.51.51,0,0,1,.3.39c.06.29-.33.64-.64.64a.32.32,0,0,1-.15,0,.25.25,0,0,1-.15-.19A.65.65,0,0,1,5.21,36a1,1,0,0,1,.2-.3.46.46,0,0,1,.29-.18m1.71,0a.77.77,0,0,1,.54.33c.28.39.08.5,0,.57a.78.78,0,0,1-.38.11.43.43,0,0,1-.37-.19.61.61,0,0,1,0-.73.32.32,0,0,1,.11-.07l.1,0M6.2,36a.37.37,0,0,0,.31.13,1.2,1.2,0,0,0,.44-.1.91.91,0,0,0,.49.61c-.34.54.26,1.2.26,1.2a1.18,1.18,0,0,1-1.14.7,2.1,2.1,0,0,1-1.2-.42,1.28,1.28,0,0,1-.29-1.66.72.72,0,0,0,.38.12c.47,0,.74-.58.74-.58m1.61.54a.34.34,0,0,1,.38.38c0,.41-.2.73-.37.73h0c-.36-.14-.51-.92,0-1.1h.06M37.6,0a3.45,3.45,0,0,0-.5,0H37a3.58,3.58,0,0,0-1.39.29,4,4,0,0,0-1.21.78,3.89,3.89,0,0,0-.55.64,4.52,4.52,0,0,0-1.05,1.62,3.74,3.74,0,0,0-1-.14h-.3l-.34,0a3.66,3.66,0,0,0-1.21.22,4,4,0,0,0-1.25.7,3.91,3.91,0,0,0-.59.6A4.37,4.37,0,0,0,26.6,7.46a4.12,4.12,0,0,0-.81-.08,3.55,3.55,0,0,0-1.07.16,3.56,3.56,0,0,0-1.46.52,4,4,0,0,0-1.52,1.67A4.57,4.57,0,0,0,21.09,11a3.5,3.5,0,0,0-.81.1,3.52,3.52,0,0,0-1.5.44,4,4,0,0,0-1.13.89,3.92,3.92,0,0,0-.49.69A4.15,4.15,0,0,0,17,18.32a4.89,4.89,0,0,0,3.84,2l.4,0a4.44,4.44,0,0,0,.49.7,4.89,4.89,0,0,0,3.7,1.8,4.14,4.14,0,0,0,2.78-1.06,3.93,3.93,0,0,0,1.74-2.38,3.51,3.51,0,0,0,.12-.82,4.42,4.42,0,0,0,.93.1,4.14,4.14,0,0,0,2.78-1.06,3.93,3.93,0,0,0,1.74-2.38,3.53,3.53,0,0,0,.11-.59,4.31,4.31,0,0,0,.75.07A4.13,4.13,0,0,0,38.63,14,4,4,0,0,0,40.7,12a3.49,3.49,0,0,0,.25-.83,3.5,3.5,0,0,0,.16-2.21,3.92,3.92,0,0,0-.44-1.1,4.2,4.2,0,0,0,.82-1.22,3.49,3.49,0,0,0,.25-.82,3.5,3.5,0,0,0,.16-2.21,3.82,3.82,0,0,0-1.15-2A4,4,0,0,0,37.6,0ZM8.18,21.67a3.74,3.74,0,0,0-1.8.44,3.6,3.6,0,0,0-1.34.8,4,4,0,0,0-.87,1.14,3.89,3.89,0,0,0-.3.79,4.51,4.51,0,0,0-.43,2,3.55,3.55,0,0,0-.74.34A3.61,3.61,0,0,0,1.4,28a4,4,0,0,0-.81,1.19,3.9,3.9,0,0,0-.26.8,4.15,4.15,0,0,0,1.42,5.05,5.58,5.58,0,0,0,.5.32l0,.17a4.15,4.15,0,0,0,1.41,5.05,5.05,5.05,0,0,0,2.94,1,4.19,4.19,0,0,0,3.55-1.89A3.94,3.94,0,0,0,11.19,37s0-.09,0-.14A4.14,4.14,0,0,0,14,35,3.94,3.94,0,0,0,15,32.36c0-.09,0-.18,0-.27A4.13,4.13,0,0,0,17,30.83a3.94,3.94,0,0,0,1.42-2.54,3.49,3.49,0,0,0,0-.86A3.5,3.5,0,0,0,18,25.25a3.92,3.92,0,0,0-1.63-1.59,3.86,3.86,0,0,0-2.44-.82,3.69,3.69,0,0,0-1.5.31,3.28,3.28,0,0,0-.6.2,3.91,3.91,0,0,0-1.42-1,3.82,3.82,0,0,0-2.18-.65Z"/></g><path class="c" d="M25.34,17.24c.14.32.72.21.72.21a.91.91,0,0,0,.32.71c-.46.44,0,1.23,0,1.23-.57.72-1.63.54-2.33-.29a1.28,1.28,0,0,1,.13-1.69C24.72,18,25.34,17.24,25.34,17.24Zm-1,.22a.64.64,0,0,0,.91-.4.51.51,0,0,0-.2-.45c-.13-.08-.27,0-.38.07a1,1,0,0,0-.27.24.65.65,0,0,0-.15.32A.26.26,0,0,0,24.35,17.46Zm.93-.69a.59.59,0,0,0,.06.27c.39.7.81.12.95,0a.29.29,0,0,0,.08-.26c-.08-.27-.71-.42-.94-.3A.3.3,0,0,0,25.27,16.76Zm1.14.27a.61.61,0,0,0-.2.7c.14.38.57.3.7.26s.35-.1.17-.54c-.08-.2-.3-.48-.55-.46Zm0,2.18c.16.11.46-.18.58-.6a.36.36,0,0,0-.33-.47C26.19,18.19,26.15,19,26.46,19.21Zm-1-8c.14.32.72.21.72.21a.91.91,0,0,0,.32.71c-.46.44,0,1.23,0,1.23-.57.72-1.63.54-2.33-.29a1.28,1.28,0,0,1,.13-1.69C24.86,12,25.48,11.18,25.48,11.18Zm-1,.22a.64.64,0,0,0,.91-.4.51.51,0,0,0-.2-.45c-.13-.08-.27,0-.38.07a1,1,0,0,0-.27.24.65.65,0,0,0-.15.32A.26.26,0,0,0,24.49,11.4Zm.93-.69a.59.59,0,0,0,.06.27c.39.7.81.12.95,0a.29.29,0,0,0,.08-.26c-.08-.27-.71-.42-.94-.3A.3.3,0,0,0,25.42,10.7Zm1.14.27a.61.61,0,0,0-.2.7c.14.38.57.3.7.26s.35-.1.17-.54c-.08-.2-.3-.48-.55-.46Zm0,2.18c.16.11.46-.18.58-.6a.36.36,0,0,0-.33-.47C26.34,12.13,26.3,12.94,26.61,13.16Zm4.29-.08c.14.32.72.21.72.21a.91.91,0,0,0,.32.71c-.46.44,0,1.23,0,1.23-.57.72-1.63.54-2.33-.29a1.28,1.28,0,0,1,.13-1.69C30.28,13.85,30.9,13.08,30.9,13.08Zm-1,.22a.64.64,0,0,0,.91-.4.51.51,0,0,0-.2-.45c-.13-.08-.27,0-.38.07a1,1,0,0,0-.27.24.65.65,0,0,0-.15.32A.26.26,0,0,0,29.91,13.3Zm.93-.69a.59.59,0,0,0,.06.27c.39.7.81.12.95,0a.29.29,0,0,0,.08-.26c-.08-.27-.71-.42-.94-.3A.3.3,0,0,0,30.84,12.6Zm1.14.27a.61.61,0,0,0-.2.7c.14.38.57.3.7.26s.35-.1.17-.54c-.08-.2-.3-.48-.55-.46Zm0,2.18c.16.11.46-.18.58-.6a.36.36,0,0,0-.33-.47C31.76,14,31.72,14.83,32,15.05ZM7.83,25.54c.2.29.75.07.75.07a.91.91,0,0,0,.46.63c-.37.53.2,1.21.2,1.21-.42.82-1.49.84-2.34.17a1.28,1.28,0,0,1-.2-1.68C7.37,26.41,7.83,25.54,7.83,25.54Zm-.93.41c.3.17.86-.23.81-.57A.51.51,0,0,0,7.43,25c-.14-.06-.27.06-.36.15a1,1,0,0,0-.22.28.65.65,0,0,0-.09.34A.26.26,0,0,0,6.9,25.94Zm.77-.86a.59.59,0,0,0,.11.25c.52.61.81,0,.93-.18a.29.29,0,0,0,0-.27c-.14-.25-.78-.27-1-.11A.3.3,0,0,0,7.67,25.08Zm1.17,0a.61.61,0,0,0-.06.73.54.54,0,0,0,.74.12c.12-.06.33-.17.06-.57-.12-.18-.39-.41-.62-.34A.32.32,0,0,0,8.85,25.13Zm.47,2.13c.17.08.42-.26.45-.7s-.42-.4-.42-.4C8.86,26.31,9,27.1,9.32,27.26Zm-5,3.25c.21.28.75,0,.75,0a.91.91,0,0,0,.49.61c-.34.54.26,1.2.26,1.2-.37.84-1.45.92-2.33.29A1.28,1.28,0,0,1,3.2,31C3.91,31.41,4.32,30.5,4.32,30.5ZM3.42,31c.31.16.85-.27.78-.61a.51.51,0,0,0-.3-.39c-.14,0-.26.07-.35.17a1,1,0,0,0-.2.3.65.65,0,0,0-.07.35A.26.26,0,0,0,3.42,31Zm.73-.9a.59.59,0,0,0,.13.24c.55.58.81-.08.92-.23a.29.29,0,0,0,0-.27c-.15-.24-.8-.23-1-.06A.3.3,0,0,0,4.14,30.06Zm1.18,0a.61.61,0,0,0,0,.73.54.54,0,0,0,.74.08c.12-.07.32-.18,0-.57-.13-.18-.41-.39-.64-.31A.32.32,0,0,0,5.32,30Zm.58,2.1c.18.07.4-.28.41-.73S5.87,31,5.87,31C5.38,31.22,5.54,32,5.9,32.14Zm4.15-.75c.21.28.75,0,.75,0a.91.91,0,0,0,.49.61c-.34.54.26,1.2.26,1.2-.37.84-1.45.92-2.33.29a1.28,1.28,0,0,1-.29-1.66C9.64,32.3,10.05,31.4,10.05,31.4Zm-.91.46c.31.16.85-.27.78-.61a.51.51,0,0,0-.3-.39c-.14,0-.26.07-.35.17a1,1,0,0,0-.2.3.65.65,0,0,0-.07.35A.26.26,0,0,0,9.14,31.85Zm.73-.9a.59.59,0,0,0,.13.24c.55.58.81-.08.92-.23a.29.29,0,0,0,0-.27c-.15-.24-.8-.23-1-.06A.3.3,0,0,0,9.87,31Zm1.18,0a.61.61,0,0,0,0,.73.54.54,0,0,0,.74.08c.12-.07.32-.18,0-.57-.13-.18-.41-.39-.64-.31A.32.32,0,0,0,11,30.93Zm.58,2.1c.18.07.4-.28.41-.73s-.44-.38-.44-.38C11.12,32.11,11.27,32.9,11.63,33Zm1.93-6.35c.17.3.74.12.74.12a.91.91,0,0,0,.4.67c-.41.5.11,1.23.11,1.23-.48.79-1.55.72-2.35,0A1.28,1.28,0,0,1,12.39,27C13,27.53,13.56,26.69,13.56,26.69Zm-1,.33c.29.19.88-.16.85-.5a.51.51,0,0,0-.25-.43c-.13-.07-.27,0-.37.12a1,1,0,0,0-.24.27.65.65,0,0,0-.11.34A.26.26,0,0,0,12.6,27Zm.84-.8a.59.59,0,0,0,.09.26c.47.65.81,0,.94-.11a.29.29,0,0,0,.05-.26c-.12-.26-.76-.33-1-.18A.3.3,0,0,0,13.44,26.22Zm1.17.14a.61.61,0,0,0-.12.72c.19.36.6.23.73.18s.34-.14.11-.56c-.11-.19-.36-.44-.6-.39A.32.32,0,0,0,14.61,26.36Zm.3,2.16c.17.09.44-.23.5-.67s-.39-.43-.39-.43C14.52,27.53,14.58,28.34,14.91,28.52ZM6.2,36c.21.28.75,0,.75,0a.91.91,0,0,0,.49.61c-.34.54.26,1.2.26,1.2-.37.84-1.45.92-2.33.29a1.28,1.28,0,0,1-.29-1.66C5.79,36.95,6.2,36,6.2,36Zm-.91.46c.31.16.85-.27.78-.61a.51.51,0,0,0-.3-.39c-.14,0-.26.07-.35.17a1,1,0,0,0-.2.3.65.65,0,0,0-.07.35A.26.26,0,0,0,5.29,36.5ZM6,35.6a.59.59,0,0,0,.13.24c.55.58.81-.08.92-.23a.29.29,0,0,0,0-.27c-.15-.24-.8-.23-1-.06A.3.3,0,0,0,6,35.6Zm1.18,0a.61.61,0,0,0,0,.73.54.54,0,0,0,.74.08c.12-.07.32-.18,0-.57-.13-.18-.41-.39-.64-.31A.32.32,0,0,0,7.19,35.58Zm.58,2.1c.18.07.4-.28.41-.73s-.44-.38-.44-.38C7.26,36.76,7.42,37.55,7.78,37.68Zm13-22.94c.12.33.71.25.71.25a.91.91,0,0,0,.28.73c-.49.42-.11,1.23-.11,1.23-.61.69-1.66.44-2.31-.43a1.28,1.28,0,0,1,.23-1.67C20.16,15.48,20.82,14.75,20.82,14.75Zm-1,.16a.64.64,0,0,0,.93-.34.51.51,0,0,0-.17-.46c-.12-.09-.27,0-.39.05a1,1,0,0,0-.28.22.65.65,0,0,0-.17.31A.26.26,0,0,0,19.82,14.91Zm1-.64a.59.59,0,0,0,0,.27c.35.72.8.17.94.06a.29.29,0,0,0,.1-.25c-.07-.28-.69-.46-.92-.35A.3.3,0,0,0,20.79,14.27Zm1.13.34a.61.61,0,0,0-.24.69c.12.39.55.33.68.3s.36-.08.2-.53c-.07-.21-.28-.49-.52-.49Zm-.08,2.18c.15.12.47-.15.61-.57a.36.36,0,0,0-.31-.49C21.62,15.75,21.53,16.55,21.83,16.79ZM36.49,9.11c.09.34.68.32.68.32a.91.91,0,0,0,.21.75c-.53.37-.23,1.21-.23,1.21-.67.63-1.69.28-2.26-.65a1.28,1.28,0,0,1,.39-1.65C35.76,9.78,36.49,9.11,36.49,9.11Zm-1,.06a.64.64,0,0,0,1-.25.51.51,0,0,0-.13-.48c-.11-.1-.27,0-.39,0a1,1,0,0,0-.3.19.65.65,0,0,0-.2.29A.26.26,0,0,0,35.48,9.18Zm1-.54a.59.59,0,0,0,0,.27c.28.75.78.24.93.15a.29.29,0,0,0,.12-.24c0-.28-.64-.53-.89-.44A.3.3,0,0,0,36.5,8.63Zm1.09.45a.61.61,0,0,0-.31.66c.08.4.52.39.65.37s.36,0,.26-.51c0-.21-.23-.52-.47-.54Zm-.29,2.16c.14.13.48-.1.66-.51a.36.36,0,0,0-.26-.52C37.19,10.19,37,11,37.29,11.24Zm0-7.49c.09.34.68.32.68.32a.91.91,0,0,0,.21.75c-.53.37-.23,1.21-.23,1.21-.67.63-1.69.28-2.26-.65a1.28,1.28,0,0,1,.39-1.65C36.55,4.42,37.28,3.76,37.28,3.76Zm-1,.06a.64.64,0,0,0,1-.25.51.51,0,0,0-.13-.48c-.11-.1-.27,0-.39,0a1,1,0,0,0-.3.19.65.65,0,0,0-.2.29A.26.26,0,0,0,36.27,3.82Zm1-.54a.59.59,0,0,0,0,.27c.28.75.78.24.93.15a.29.29,0,0,0,.12-.24c0-.28-.64-.53-.89-.44A.3.3,0,0,0,37.29,3.28Zm1.09.45a.61.61,0,0,0-.31.66c.08.4.52.39.65.37s.36,0,.26-.51c0-.21-.23-.52-.47-.54Zm-.29,2.16c.14.13.48-.1.66-.51a.36.36,0,0,0-.26-.52C38,4.83,37.81,5.62,38.09,5.88ZM31.42,7c.07.34.66.36.66.36a.91.91,0,0,0,.16.76c-.55.33-.3,1.19-.3,1.19-.71.59-1.71.18-2.22-.79a1.28,1.28,0,0,1,.48-1.62C30.65,7.58,31.42,7,31.42,7Zm-1,0a.64.64,0,0,0,1-.19.51.51,0,0,0-.1-.49c-.11-.11-.27-.05-.39,0a1,1,0,0,0-.31.17.65.65,0,0,0-.21.28A.26.26,0,0,0,30.41,7Zm1.05-.48a.59.59,0,0,0,0,.27c.23.77.76.29.92.2a.29.29,0,0,0,.14-.23c0-.28-.61-.56-.86-.49A.3.3,0,0,0,31.46,6.48ZM32.52,7a.61.61,0,0,0-.35.64c.06.4.49.42.63.4s.37,0,.29-.5c0-.22-.2-.53-.43-.56ZM32.1,9.13c.13.14.49-.07.69-.47a.36.36,0,0,0-.23-.53C32.05,8.07,31.84,8.85,32.1,9.13Z"/></svg>