<?xml version="1.0" encoding="utf-8"?>
<!-- Generator: Adobe Illustrator 20.1.0, SVG Export Plug-In . SVG Version: 6.00 Build 0)  -->
<svg version="1.1" id="Layer_1" xmlns="http://www.w3.org/2000/svg" xmlns:xlink="http://www.w3.org/1999/xlink" x="0px" y="0px"
	 viewBox="0 0 52 29.5" style="enable-background:new 0 0 52 29.5;" xml:space="preserve">
<style type="text/css">
	.st0{opacity:0.8;}
	.st1{fill:#FFFFFF;}
	.st2{fill:#FFAB24;}
</style>
<title>Asset 10</title>
<g class="st0">
	<path class="st1" d="M14.8,3c0.5,0,0.9,0.2,1.3,0.5C16.5,3.9,18.5,4,19.5,4h0.7c0.4,0,0.7-0.1,1.1-0.1c1.3,0,2.6,0.3,3.7,1
		c0.9,0.4,2.8,3,2.8,3c0.6,0.7,1,1.6,1.1,2.6c0,1.1,0.2,2.2,0.4,3.3l0,0l0.1,0.1v-0.1c0.4-0.1,0.9-0.3,1-0.4
		c0.2-0.1,0.5-0.1,0.8-0.1c0.1,0,0.3,0,0.4,0c0.8,0.2,1.6,0.4,2.4,0.6c0.6,0.2,1.2,0.2,1.9,0.2c0.3,0,0.5,0,0.6,0
		c0.3,0,0.5-0.1,0.8-0.2c0.4-0.1,0.8-0.2,1.2-0.2c0.2,0,0.4,0,0.6,0l1.3,0.1H41c0.2,0,0.3,0,0.5,0c0.5,0.1,1,0.3,1.3,0.7
		c0.2,0.3,0.4,0.6,0.5,1c0,0.1,0.1,0.1,0.1,0.1s0.2,0,0.3,0.1s0.1,0.2,0.2,0.3c0.1,0,0.1,0,0.2,0c0-0.1,0-0.1,0.1-0.1
		c0.1-0.1,0.1-0.2,0.1-0.2l0,0h0.2c0.1,0,0.2,0,0.3,0s0.1,0.2,0.1,0.3s0.6-0.2,0.8-0.3s0.5-0.3,0.5-0.3l0,0h0.1
		c0,0.1-0.1,0.2-0.1,0.2c-0.1,0.1-0.2,0.5-0.3,0.7c-0.3,0.6-0.5,0.6-0.7,0.6c-0.1,0-0.1,0-0.2,0c0.1,0.3,0.1,0.6,0.1,0.9
		c0,0.4,0,0.9,0.3,1.3c0.2,0.3,0.4,0.6,0.6,0.8c0.2,0.2,0.4,0.4,0.5,0.6c0,0,0.7,0,1,0s0.1,0.3-0.2,0.4c-0.2,0-0.3,0.1-0.5,0.2l0,0
		v0.1l0,0c0.1,0,0.3,0,0.4-0.1c0.6-0.2,1.2-0.5,1.7-0.9c0.1-0.1,0.2-0.1,0.2-0.1L49,20c0,0.2,0,0.5,0,0.7c-0.1,0.5-0.4,0.9-0.7,1.2
		c-0.3,0.4-0.7,0.7-1.2,0.9c0,0.1-0.3,0.6-0.3,0.6s0,0.2-0.1,0.3c-0.1,0.1-0.1,0.2-0.2,0.4c-0.1,0.2-0.5,0.2-0.5,0.2l0,0
		c-0.3,0-0.5,0-0.8,0.1c-0.1,0-0.2,0-0.2,0c-0.2,0-0.3-0.1-0.4-0.2c-0.2,0-0.4-0.1-0.5-0.3c-0.1-0.1-1.4-1.4-1.5-1.5
		c-0.2-0.1-0.4-0.3-0.4-0.6c0-0.1-0.2-0.3-0.2-0.3l-0.1,0.1c0,0.1,0,0.2-0.1,0.2c0,0.1-0.3,0.2-0.5,0.2h-0.1c-0.1,0-0.2-0.1-0.3-0.2
		c0,0-0.1,0-0.2,0h-0.1C40.5,22,40.4,22,40.4,22c-0.1,0-0.1,0-0.2,0c-0.3,0.2-0.5,0.5-0.7,0.8c-0.2,0.4-0.4,0.9-0.5,1.3
		c0,0.1,0,0.3-0.1,0.4c0,0.2,0.1,0.5,0.3,0.6c0.1,0.1,0.3,0.2,0.4,0.2c0.1,0,0.2,0.1,0.2,0.2s0.1,0.2,0.2,0.2c0,0.1,0,0.1-0.1,0.1
		l0,0c-0.1,0-0.1,0-0.2,0c0,0,0.1,0.1,0,0.1C39.6,26,39.4,26,39.2,26l0,0c-0.2,0-0.4,0-0.7-0.1c-0.1,0-0.3,0-0.4,0h-0.3
		c-0.4,0-0.4-0.1-0.5-0.2c0-0.2,0-0.4,0.1-0.6c0.1-0.1,0.1-0.2,0.2-0.2v-0.1c-0.1,0-0.2,0-0.3,0L37,25c-0.2,0.2-0.4,0.3-0.6,0.5
		c-0.1,0.1-0.2,0.2-0.3,0.2l0,0c-0.2,0-0.4-0.2-0.4-0.3c-0.1-0.1-0.1-0.3,0-0.5l0,0h-0.2c-0.1-0.1-0.1-0.3-0.2-0.5
		c0-0.2,0-0.4,0.2-0.5c0.2-0.3,0.5-0.5,0.7-0.7l0,0c0.1,0,0.2,0.1,0.3,0.2h0.1c0.1,0,0.1,0,0.2,0c0-0.1,0.1-0.1,0.1-0.1v-0.1
		c-0.3-0.4-0.5-0.7-0.8-1.1c-0.7,0.2-1.5,0.4-2.2,0.5C33.8,23,33.5,23,33.1,23c-0.9,0-1.8-0.2-2.7-0.5c-0.7-0.4-1.3-0.9-1.7-1.5
		c-0.1,0.2-0.2,0.4-0.4,0.5c-0.3,0.2-0.5,0.4-0.6,0.7c-0.1,0.3-0.1,0.5-0.1,0.8s-0.1,0.7-0.1,0.9c0,0.2,0,0.5,0.1,0.7
		c0,0.1,0.2,0.3,0.2,0.5c0.1,0.2,0.1,0.3,0.2,0.4s0.2,0.1,0.4,0.2c0.2,0,0.2,0.1,0.2,0.1c0.1,0.1,0.1,0.3,0.2,0.4
		c0,0.1,0,0.1-0.1,0.2c-0.1,0-0.1,0-0.2,0c-0.2,0-0.3,0-0.5-0.1c-0.1,0.1-0.2,0.1-0.4,0.1c-0.2,0-0.4-0.1-0.6-0.1h-0.4
		c-0.2,0-0.2-0.1-0.2-0.2c0-0.2,0.1-0.3,0.1-0.5s0-0.3-0.1-0.5c-0.2-0.2-0.4-0.4-0.6-0.6c-0.2-0.1-0.3-0.2-0.3-0.4
		c0-0.3,0-0.5,0.1-0.8c0-0.3,0-0.6,0-0.9c0,0-0.1,0.3-0.2,0.5s-0.2,0.5-0.2,0.7c-0.1,0.2-0.1,0.4-0.2,0.6c0,0.2,0,0.4,0.1,0.5
		s0.2,0.2,0.3,0.3c0.2,0.2,0.3,0.3,0.4,0.5s0,0.2,0,0.2l0,0h-0.2c0,0,0,0-0.1,0l0,0c-0.2,0-0.3,0-0.5-0.1h-0.3
		c-0.1,0-0.2,0.1-0.3,0.1c-0.2,0-0.3,0-0.5-0.1h-0.1c-0.1,0-0.2-0.1-0.3-0.2c-0.1-0.2,0.1-0.5,0.2-0.9c0.1-0.2,0.1-0.5-0.1-0.7
		c-0.1-0.1-0.3-0.4-0.4-0.6s0-0.3,0.1-0.5s0.3-0.6,0.5-1c0.1-0.2,0.1-0.4,0.2-0.6c0-0.2-0.1-0.4-0.2-0.6c-0.1-0.1-0.1-0.1-0.1-0.2
		s0-0.2,0-0.3c0-0.1-0.1-0.3-0.1-0.4s-0.1-0.4-0.1-0.4c0,0.1,0,0.2-0.1,0.2c-0.1,0.2-0.2,0.3-0.2,0.3s0,0.1,0.1,0.1s0.3,0.1,0.3,0.5
		S23.5,21,23.5,21l0,0c-0.1-0.1-0.1-0.2-0.2-0.3c-0.1-0.2,0-0.2,0-0.2s0-0.1-0.2-0.2s-0.1-0.3,0-0.5s0.2-0.4,0.2-0.6
		s0.1-0.4,0.1-0.5c0,0,0-0.2,0-0.3c0.1-0.7,0.3-1.4,0.6-2l0.1-0.1l0,0c-0.2-0.4-0.3-0.7-0.3-0.7c-0.3-0.2-0.6-0.5-0.9-0.8
		c0-0.2-1.4-0.3-1.4-0.3h-0.1c-1-0.1-1.9-0.4-2.8-0.9c-0.1,0.1-0.3,0.9-0.3,0.9c0,1,0.3,3,0.3,3c0.1,0.7,0.2,1.4,0.2,2.1
		c-0.1,0.5,0,0.9,0.2,1.3c0.2,0.2,0.3,0.5,0.3,0.8s-0.5,0.4-1.1,0.4c-0.7,0-1.3-0.1-2-0.2c-0.4-0.3,0.7-1,0.7-1
		c0.5-0.3,0.1-1.2,0.1-1.2c-0.3-0.7-0.6-1.5-0.8-2.3c-0.1-0.3-1.1-2.7-1.1-2.7c-0.5,0.9-1.2,1.7-1.9,2.5c-0.6,1-1,2-1.4,3
		c-0.1,0.4,0.3,1.3,0.3,1.3c0.1,0.4-0.3,0.5-0.9,0.5c-0.7,0-1.3-0.1-2-0.2c-0.5-0.4,0.4-0.9,0.4-0.9c0.4-0.3,0.7-1.4,0.7-1.4
		c0-0.7,0.1-1.4,0.4-2.1c0.3-0.6,0.5-1.3,0.6-2l0.6-2.3c0.2-0.9,0.4-1.8,0.5-2.7c-0.2,0.3-1.7,0.6-1.7,0.6c-0.4-0.3-0.3-1.4-0.3-1.4
		C10.2,9.9,9,10,9,10l-0.5,0.2c-0.1,0.2-0.3,0.3-0.5,0.3l-0.4-0.3H7.3c-0.6,0.8-0.9,1.7-0.8,2.7c0.2,1.4,0.8,1.6,1.1,1.6
		c0.1,0,0.2,0,0.2,0c0.5-0.1,0-0.9,0-0.9c0.3-0.1-0.1-0.4-0.1-0.4c0.1-0.1,0.3-0.1,0.4-0.1c0.6,0,0.8,0.8,0.8,0.8
		C9.3,15,8.8,15.8,8,16.1c-0.3,0.1-0.5,0.1-0.8,0c-0.1,0-0.3,0-0.4,0c-2.6-1-2.4-4.4-2.4-4.4H4.3c-0.4,0-0.9-0.2-1.2-0.4
		c0.1,0,0.2,0,0.4,0s0.3,0,0.5,0c-1-0.2-1-0.5-1-0.5h0.2c0.5,0,0.9-0.1,1.4-0.2L4.8,10C5.1,9,5.5,8,6,7c0.2-0.6,0.6-1.1,1-1.6
		c0.4-0.7,1-1.3,1.7-1.8C9,3.5,9.3,3.4,9.6,3.5c0.5,0,0.9,0,1.4,0.1h0.2c0.7,0,2.6-0.2,2.6-0.2C14.1,3.1,14.4,3,14.8,3 M14.8,0
		L14.8,0c-0.7,0-1.4,0.1-2,0.4c-0.6,0.1-1.3,0.1-1.5,0.2c-0.5-0.1-1.1-0.1-1.6-0.1c-0.9,0-1.8,0.2-2.6,0.6C6,1.8,5.2,2.6,4.6,3.7
		C4,4.3,3.6,5,3.3,5.8C3,6.4,2.6,7.2,2.3,7.9C1.1,8.2,0.2,9.2,0,10.5c0,0.3,0,0.6,0,0.9c0,1,0.5,1.9,1.4,2.4l0.2,0.1
		c0.4,2.2,1.9,4,4,4.9C5.7,18.9,6,19,6.2,19c0.3,0.1,0.6,0.1,0.9,0.1c-0.6,0.6-1,1.4-1.1,2.2c-0.1,1.1,0.4,2.2,1.3,2.9
		c0.4,0.3,0.8,0.5,1.2,0.6c0.8,0.2,1.7,0.3,2.6,0.3c1,0.1,2.1-0.3,2.9-0.9l0.2,0.2c0.4,0.4,0.9,0.6,1.5,0.7c0.8,0.1,1.6,0.2,2.5,0.2
		c0.8,0,1.5-0.1,2.2-0.4V25c-0.5,1.8,0.6,3.6,2.4,4c0.2,0,0.4,0.1,0.6,0.1c0.3,0.1,0.6,0.1,0.9,0.1h0.5c0.2,0,0.3,0,0.5,0
		c0.4,0.2,0.8,0.3,1.3,0.2l0,0c0.3,0.1,0.7,0.1,1,0.1c0.2,0,0.4,0,0.6,0h0.2c0.7,0,1.4-0.2,2-0.6c0.9-0.6,1.4-1.7,1.3-2.9
		c0.4,0,0.7,0.1,1.1,0.1c0.1,0.2,0.1,0.4,0.2,0.6l0.1,0.2c0.6,1.3,1.8,2.2,3.2,2.2h0.4l0,0c0.3,0.1,0.7,0.2,1,0.2h0.5h0.2
		c0.3,0.1,0.6,0.1,0.9,0.1h0.1c0.6,0,1.3-0.2,1.8-0.5c0.8-0.4,1.5-1.1,1.7-2L43,27c0.6,0.4,1.3,0.6,2,0.6c0.4,0,0.7-0.1,1.1-0.2h0.1
		c1.3,0,2.5-0.8,3.1-2l0.1-0.2c0.1-0.1,0.1-0.3,0.2-0.5c0.3-0.3,0.6-0.6,0.9-0.9c0.8-0.8,1.3-1.8,1.4-2.9v-0.1
		c0.1-0.5,0.1-1.1,0-1.6c-0.3-1.4-1.6-2.4-3-2.4h-0.2c0.1-0.2,0.2-0.4,0.2-0.5c0.5-1.4-0.2-3-1.5-3.6c-0.4-0.2-0.9-0.3-1.4-0.3
		c-0.2,0-0.5,0-0.7,0.1c-0.1,0-0.3,0.1-0.4,0.1c-0.1-0.1-0.2-0.2-0.3-0.3c-0.8-0.7-1.8-1.2-2.9-1.4c-0.3,0-0.6-0.1-0.9-0.1h-0.3H40
		l-0.8-0.1c-0.3,0-0.6-0.1-0.9-0.1c-0.8,0-1.5,0.1-2.3,0.3L35.8,11h-0.1c-0.4,0-0.8,0-1.1-0.1h-0.1c-0.7-0.1-1.3-0.3-1.9-0.5
		l-0.2-0.1L32,10.2c0-0.1,0-0.2,0-0.2c-0.2-1.5-0.8-3-1.8-4.1c-1.9-2.6-3-3.4-3.6-3.7c-1.6-0.9-3.4-1.4-5.3-1.4
		c-0.4,0-0.9,0-1.3,0.1h-0.5c-0.6,0-1.3,0-1.9-0.1C16.8,0.3,15.8,0,14.8,0L14.8,0z"/>
</g>
<path class="st2" d="M23.9,16.4l-0.1,0.1c-0.3,0.6-0.5,1.3-0.6,2c0,0.1,0,0.3,0,0.3c0,0.2-0.1,0.4-0.1,0.5c-0.1,0.2-0.2,0.4-0.2,0.6
	s-0.1,0.3,0.1,0.4s0.2,0.2,0.2,0.2s-0.1,0.1,0,0.2s0.2,0.2,0.2,0.3c0,0,0.2-0.1,0.1-0.4s-0.2-0.4-0.3-0.5S23.1,20,23.1,20
	s0.1-0.1,0.2-0.3c0-0.1,0.1-0.2,0.1-0.2s0,0.4,0.1,0.4c0,0.1,0.1,0.3,0.1,0.4s0,0.2,0,0.3s0,0.1,0.1,0.2c0.1,0.2,0.2,0.4,0.2,0.6
	s-0.1,0.4-0.2,0.6c-0.2,0.4-0.4,0.8-0.5,1s-0.2,0.4-0.1,0.5s0.3,0.4,0.4,0.6s0.2,0.5,0.1,0.7c-0.1,0.4-0.4,0.7-0.2,0.9
	s0.3,0.2,0.4,0.2c0.2,0.1,0.5,0.1,0.7,0c0.1,0,0.2,0,0.3,0c0.2,0,0.3,0.1,0.5,0.1c0.1,0,0.1,0,0.1,0h0.2c0,0,0.1,0,0-0.2
	s-0.2-0.4-0.4-0.5c-0.1-0.1-0.2-0.2-0.3-0.3c0-0.2-0.1-0.4-0.1-0.5c0-0.2,0.1-0.4,0.2-0.6s0.2-0.5,0.2-0.7s0.2-0.5,0.2-0.5
	c0,0.3,0,0.6,0,0.9c-0.1,0.2-0.1,0.5-0.1,0.8c0,0.1,0.1,0.2,0.3,0.4c0.2,0.2,0.4,0.4,0.6,0.6c0.1,0.2,0.1,0.3,0.1,0.5
	c-0.1,0.2-0.1,0.3-0.1,0.5c0,0.1,0,0.2,0.3,0.2h0.4c0.1,0,0.7,0.3,1,0c0.1,0,0.6,0.1,0.7,0s0.1-0.1,0.1-0.2s-0.1-0.3-0.2-0.4
	c0-0.1,0-0.1-0.2-0.1c-0.1,0-0.3-0.1-0.4-0.2s-0.2-0.3-0.2-0.4c-0.1-0.2-0.2-0.5-0.2-0.5c0-0.2-0.1-0.5-0.1-0.7
	c0-0.1,0.1-0.6,0.1-0.9s0-0.6,0.1-0.8c0.1-0.3,0.3-0.5,0.6-0.7c0.2-0.1,0.4-0.3,0.4-0.5c0.4,0.7,1,1.2,1.7,1.5
	c1.2,0.5,2.5,0.6,3.8,0.5c0.7-0.1,1.5-0.2,2.2-0.5c0.2,0.4,0.5,0.7,0.8,1.1v0.1C37,23.9,37,24,37,24c-0.1-0.1-0.2-0.1-0.3,0
	c-0.1-0.1-0.2-0.1-0.3-0.2c-0.1,0-0.7,0.6-0.8,0.7s-0.2,0.3-0.2,0.5s0.1,0.3,0.2,0.5c0.1,0,0.1,0,0.2,0c-0.1,0.1-0.1,0.3,0,0.5
	s0.3,0.4,0.5,0.3c0.1,0,0.3-0.1,0.3-0.2c0.2-0.2,0.4-0.4,0.6-0.5l0.3-0.2c0.1,0,0.2,0,0.3,0v0.1c-0.1,0.1-0.1,0.2-0.2,0.2
	c-0.1,0.2-0.2,0.4-0.1,0.6c0,0.1,0,0.2,0.5,0.2c0.2,0,0.5,0,0.7,0c0.2,0.1,0.4,0.1,0.7,0.1c0.2,0,0.3,0,0.5-0.1v-0.1
	c0.1,0,0.1,0,0.2,0c0.1,0,0.1,0,0.1-0.1c-0.1-0.1-0.1-0.2-0.2-0.2c0-0.1-0.1-0.2-0.2-0.2c-0.1-0.1-0.3-0.1-0.4-0.2
	c-0.2-0.2-0.3-0.4-0.3-0.6c0-0.1,0-0.3,0.1-0.4c0.1-0.5,0.3-0.9,0.5-1.3c0.2-0.3,0.4-0.6,0.7-0.8c0.1,0,0.3,0.1,0.4-0.2h0.3
	c0.1,0.1,0.2,0.2,0.3,0.2c0.2,0,0.5-0.2,0.5-0.2c0-0.1,0.1-0.2,0.1-0.2l0.1-0.1c0,0,0.2,0.2,0.2,0.3c0,0.3,0.2,0.5,0.4,0.6
	c0.1,0.1,1.5,1.4,1.5,1.5c0.1,0.2,0.3,0.3,0.5,0.3c0.1,0.2,0.4,0.3,0.6,0.2c0.3-0.1,0.5-0.1,0.8-0.1c0,0,0.4,0,0.5-0.2
	c0.1-0.1,0.1-0.3,0.2-0.4c0.1-0.1,0.1-0.3,0.1-0.3l0.3-0.6c0.4-0.2,0.8-0.6,1.2-0.9c0.3-0.3,0.6-0.7,0.7-1.2c0-0.3,0.1-0.6,0-0.9
	c0-0.1-0.1-0.4-0.4,0c-0.5,0.4-1.1,0.7-1.7,0.9c-0.1,0-0.3,0.1-0.4,0v-0.1l0,0c0.1-0.1,0.3-0.1,0.5-0.2c0.3-0.1,0.6-0.3,0.2-0.4
	s-1,0-1,0c-0.2-0.2-0.3-0.5-0.5-0.6c-0.2-0.2-0.5-0.5-0.6-0.8c-0.2-0.3-0.3-0.7-0.2-1c0-0.3,0-0.6-0.1-0.9c0.1,0,0.1,0,0.2,0
	c0.1,0,0.4,0,0.7-0.6c0.1-0.1,0.3-0.6,0.3-0.7c0.1-0.1,0.1-0.2,0.1-0.2h-0.1c-0.1,0-0.3,0.2-0.5,0.3c-0.2,0.1-0.8,0.3-0.8,0.3
	s0-0.2-0.1-0.3c-0.1,0-0.2,0-0.3,0s-0.2-0.1-0.2,0s0,0.2-0.1,0.3L44,16.5c-0.1,0-0.1,0-0.2,0c0,0-0.1-0.2-0.2-0.3s-0.3-0.1-0.3-0.1
	L43.2,16c-0.1-0.4-0.3-0.7-0.5-1c-0.4-0.3-0.8-0.6-1.3-0.7c-0.5-0.1-0.8,0-1.1,0L39,14.2c-0.6-0.1-1.2,0-1.8,0.2
	c-0.2,0.1-0.5,0.2-0.8,0.2c-0.8,0.1-1.7,0-2.5-0.2c-0.8-0.1-1.6-0.3-2.4-0.6c-0.4-0.1-0.8-0.1-1.2,0.1c-0.2,0.1-0.6,0.2-1,0.4
	l0.1,0.1C29.2,13,29,11.8,29,10.7c-0.1-1-0.5-2-1.2-2.8c0,0-1.9-2.6-2.8-3C23.6,4,21.9,3.7,20.2,4c0,0-3.5,0.1-4.1-0.5
	c-0.7-0.6-1.6-0.6-2.3-0.1c-0.9,0.1-1.9,0.2-2.8,0.2c0,0-1.8-0.3-2.3,0.1C8,4.1,7.4,4.7,7,5.4C6.6,5.9,6.2,6.4,6,7
	c-0.5,1-0.9,2-1.2,3l-0.2,0.7c-0.5,0.1-1,0.2-1.6,0.2c0,0,0,0.2,0.9,0.4c-0.3,0-0.6,0-0.9,0c0.4,0.2,0.8,0.4,1.3,0.4
	c0,0-0.2,3.3,2.4,4.3c0,0,2.4,0.4,2.1-1.8c0,0-0.4-1.2-1.2-0.6c0,0,0.3,0.2,0.1,0.4c0,0,0.6,0.7,0,0.9c0,0-1,0.4-1.3-1.6
	c-0.1-1,0.2-1.9,0.8-2.7h0.4L8,10.7c0.2,0,0.4-0.1,0.5-0.3L9,10.1c0,0,1.2-0.1,1.4-0.4c0,0-0.1,1,0.3,1.4c0,0,1.5-0.3,1.7-0.6
	c-0.1,0.9-0.3,1.8-0.5,2.7l-0.6,2.3c-0.1,0.7-0.4,1.4-0.6,2c-0.2,0.7-0.3,1.4-0.4,2.1c0,0-0.3,1.2-0.7,1.4c0,0-0.9,0.5-0.4,0.9
	c0,0,3.2,0.6,2.9-0.3c0,0-0.4-0.9-0.3-1.3c0.4-1,0.9-2,1.4-3c0.7-0.8,1.3-1.6,1.9-2.5c0,0,1,2.4,1.1,2.7c0.2,0.8,0.4,1.6,0.8,2.3
	c0,0,0.4,0.9-0.1,1.2c0,0-1.1,0.7-0.7,1c0,0,3.1,0.5,3.1-0.2c0-0.3-0.1-0.6-0.3-0.8c-0.2-0.4-0.2-0.9-0.2-1.3c0-0.7-0.1-1.4-0.2-2.1
	c0,0-0.3-2-0.3-3c0,0,0.1-0.8,0.3-0.9c0.9,0.5,1.9,0.8,2.9,0.9c0,0,1.4,0.1,1.4,0.3c0.3,0.3,0.5,0.6,0.9,0.8
	C23.6,15.7,23.7,16,23.9,16.4L23.9,16.4z"/>
</svg>
