<svg xmlns="http://www.w3.org/2000/svg" viewBox="0 0 52 29.55"><defs><style>.a{opacity:0.8;}.b{fill:#fff;}.c{fill:#d0021b;}</style></defs><title>Asset 7</title><g class="a"><path class="b" d="M14.82,3a2.11,2.11,0,0,1,1.28.49c.41.43,2.38.49,3.43.49h.67a9,9,0,0,1,1.08-.07A6.76,6.76,0,0,1,25,4.9c.88.42,2.75,3,2.75,3a5.42,5.42,0,0,1,1.13,2.58,17.75,17.75,0,0,0,.4,3.28l0,0,.07.13,0-.15c.44-.15.85-.31,1-.37a2.39,2.39,0,0,1,.76-.13,1.44,1.44,0,0,1,.4,0,18.44,18.44,0,0,0,2.37.58,7.8,7.8,0,0,0,1.86.24c.29,0,.5,0,.62,0a2.47,2.47,0,0,0,.76-.25,3.38,3.38,0,0,1,1.19-.2,4.65,4.65,0,0,1,.57,0l1.27.13h.56a3.25,3.25,0,0,1,.49,0,3,3,0,0,1,1.34.67,2.5,2.5,0,0,1,.5,1,.24.24,0,0,0,.1.14s.24,0,.32.09.12.24.18.28a.32.32,0,0,0,.16,0,.28.28,0,0,1,.09-.15.28.28,0,0,0,.08-.25s0,0,0,0l.17,0a1.09,1.09,0,0,1,.28,0c.11,0,.12.24.13.3s.64-.25.82-.33.45-.31.52-.33h0a.22.22,0,0,1,.09,0,.69.69,0,0,1-.13.24c-.08.07-.24.53-.34.68-.26.58-.55.59-.69.6a.49.49,0,0,0-.18,0,2.89,2.89,0,0,1,.11.87A2.22,2.22,0,0,0,45,18.82a3.26,3.26,0,0,0,.63.79,4.24,4.24,0,0,1,.53.65s.69,0,.95,0,.08.29-.23.37a1.56,1.56,0,0,0-.45.17h0l0,.12h0a1.59,1.59,0,0,0,.39-.06,5.93,5.93,0,0,0,1.7-.92c.08-.1.15-.14.2-.14S49,20,49,20a4,4,0,0,1,0,.71,3,3,0,0,1-.74,1.2,4.51,4.51,0,0,1-1.15.93c0,.06-.27.61-.28.64s0,.17-.07.32a2.06,2.06,0,0,0-.2.38c-.08.25-.48.25-.51.25h0a3.71,3.71,0,0,0-.77.11.6.6,0,0,1-.23.05.52.52,0,0,1-.39-.24.74.74,0,0,1-.51-.3c-.08-.11-1.44-1.42-1.53-1.53a.75.75,0,0,1-.42-.61c0-.07-.18-.3-.18-.3l-.12.08a1.93,1.93,0,0,1-.08.24c0,.09-.31.2-.49.25h-.07a.34.34,0,0,1-.28-.2s-.14,0-.23,0h-.1c-.08.16-.17.2-.25.2a.72.72,0,0,1-.18,0,6.51,6.51,0,0,0-.7.8,5,5,0,0,0-.5,1.34,3.33,3.33,0,0,0-.06.38,1.2,1.2,0,0,0,.3.65,2.33,2.33,0,0,0,.4.21.35.35,0,0,1,.21.22,2.06,2.06,0,0,0,.16.25c0,.07,0,.09-.1.11h0a.77.77,0,0,1-.17,0s.06.09,0,.13a1.18,1.18,0,0,1-.45.07h0a2.12,2.12,0,0,1-.65-.12,2.1,2.1,0,0,1-.41,0h-.31c-.43,0-.4-.11-.45-.22a.92.92,0,0,1,.14-.56,1.25,1.25,0,0,1,.2-.24.28.28,0,0,0,0-.09,1.26,1.26,0,0,1-.26,0l-.32.22a6.53,6.53,0,0,0-.56.51.71.71,0,0,1-.35.2h0a.62.62,0,0,1-.44-.33.42.42,0,0,1,0-.45h0l-.17,0a2.09,2.09,0,0,1-.16-.46.66.66,0,0,1,.16-.49,4.83,4.83,0,0,1,.74-.69h0a.72.72,0,0,1,.34.17.13.13,0,0,1,.09,0,.45.45,0,0,1,.18.05.17.17,0,0,1,.11-.11.31.31,0,0,0,0-.15,12.21,12.21,0,0,1-.78-1.1,9.71,9.71,0,0,1-2.2.45,8.74,8.74,0,0,1-1.14.08,8,8,0,0,1-2.68-.47,4.5,4.5,0,0,1-1.74-1.54,1,1,0,0,1-.43.53,1.55,1.55,0,0,0-.58.67,3.7,3.7,0,0,0-.12.82c0,.28-.11.74-.12.85a3.32,3.32,0,0,0,.07.68c0,.1.16.33.23.55a1.35,1.35,0,0,0,.24.43.89.89,0,0,0,.36.17c.18,0,.19.08.23.15a2.57,2.57,0,0,1,.16.39c0,.06,0,.08-.08.17a.34.34,0,0,1-.19,0,3.09,3.09,0,0,1-.49-.06.65.65,0,0,1-.38.11,2.21,2.21,0,0,1-.64-.14h-.42c-.22,0-.22-.14-.22-.22a3.37,3.37,0,0,1,.13-.46.72.72,0,0,0-.06-.49,4.32,4.32,0,0,0-.63-.59c-.16-.12-.26-.2-.3-.35a2.33,2.33,0,0,1,.07-.76,3.32,3.32,0,0,0,0-.85s-.13.29-.21.48-.17.5-.25.69a2.25,2.25,0,0,0-.16.64,3.81,3.81,0,0,0,.07.55,1.07,1.07,0,0,0,.29.34,1.63,1.63,0,0,1,.35.53c.09.19,0,.23,0,.23h0l-.19-.05s0,0-.1,0h0a4,4,0,0,1-.45-.06h-.28a.56.56,0,0,1-.26.06,1.47,1.47,0,0,1-.46-.09h-.13a.3.3,0,0,1-.29-.16c-.11-.21.1-.51.24-.91a.79.79,0,0,0-.07-.73c-.06-.13-.26-.42-.36-.57s0-.32.09-.51.3-.59.46-1a2,2,0,0,0,.17-.63,2.13,2.13,0,0,0-.2-.56c-.07-.11-.07-.1-.08-.2s0-.17,0-.28a3.94,3.94,0,0,0-.12-.44c0-.07-.07-.44-.07-.44a2,2,0,0,1-.08.24c-.07.16-.16.26-.17.31s0,.07.06.1.26.14.34.45-.08.43-.1.43h0a1.1,1.1,0,0,0-.22-.32c-.15-.17,0-.21,0-.25s0-.09-.18-.2-.1-.25-.06-.4.17-.35.23-.58a3.2,3.2,0,0,0,.1-.53s0-.21,0-.32a5.31,5.31,0,0,1,.6-2l.08-.13h0c-.16-.36-.33-.67-.33-.67a6,6,0,0,1-.85-.82c0-.17-1.36-.31-1.36-.31h-.11a7,7,0,0,1-2.78-.88c-.14.06-.28.85-.28.85,0,1,.34,3,.34,3a20,20,0,0,1,.23,2.15,2.27,2.27,0,0,0,.17,1.33,1.32,1.32,0,0,1,.34.82c0,.29-.54.38-1.15.38a14.37,14.37,0,0,1-2-.18c-.4-.34.68-1,.68-1,.48-.28.08-1.22.08-1.22a10,10,0,0,1-.76-2.29c-.11-.31-1.1-2.69-1.1-2.69a17.12,17.12,0,0,1-1.87,2.52,21.14,21.14,0,0,0-1.44,3c-.11.4.34,1.27.34,1.27.14.37-.32.48-.91.48a12.2,12.2,0,0,1-2-.23c-.51-.4.42-.88.42-.88.42-.25.68-1.39.68-1.39a7.56,7.56,0,0,1,.37-2.09,11.18,11.18,0,0,0,.62-2l.65-2.29a20.14,20.14,0,0,0,.51-2.66c-.2.28-1.7.57-1.7.57-.45-.34-.34-1.36-.34-1.36-.2.34-1.42.4-1.42.4l-.51.25a.52.52,0,0,1-.48.34l-.37-.28-.45,0a3.79,3.79,0,0,0-.76,2.72c.2,1.41.76,1.63,1.09,1.63a.67.67,0,0,0,.24,0c.54-.14,0-.85,0-.85.28-.11-.06-.37-.06-.37a.82.82,0,0,1,.44-.15c.56,0,.8.8.8.8A1.53,1.53,0,0,1,7.2,16.08a2.76,2.76,0,0,1-.43,0c-2.58-1-2.41-4.36-2.41-4.36H4.29a2.63,2.63,0,0,1-1.24-.4,1.58,1.58,0,0,0,.37,0,3.28,3.28,0,0,0,.48,0C3,11.07,3,10.84,3,10.84l.16,0a9.61,9.61,0,0,0,1.4-.21L4.78,10A23.31,23.31,0,0,1,6,7,5.12,5.12,0,0,1,7,5.38,5,5,0,0,1,8.69,3.63a1.88,1.88,0,0,1,.95-.17A10.55,10.55,0,0,1,11,3.57h.21c.7,0,2.56-.24,2.56-.24a1.79,1.79,0,0,1,1-.34m0-3h0a4.72,4.72,0,0,0-2,.44c-.64.08-1.26.13-1.54.15A13.3,13.3,0,0,0,9.63.46a4.63,4.63,0,0,0-2.58.65A8.08,8.08,0,0,0,4.57,3.65,8.08,8.08,0,0,0,3.26,5.84C3,6.4,2.62,7.19,2.32,7.92A3,3,0,0,0,0,10.48a3.13,3.13,0,0,0,0,.93,3,3,0,0,0,1.36,2.4l.19.12a6.83,6.83,0,0,0,4,4.91,3,3,0,0,0,.61.18,5.7,5.7,0,0,0,.95.08,3.48,3.48,0,0,0-1.13,2.23,3.32,3.32,0,0,0,1.3,2.93,3,3,0,0,0,1.25.57,14.69,14.69,0,0,0,2.57.29A4.15,4.15,0,0,0,14,24.2l.21.19a3,3,0,0,0,1.46.68,17.15,17.15,0,0,0,2.45.22,5.27,5.27,0,0,0,2.2-.42l0,.07a3.3,3.3,0,0,0,2.93,4.12,4.22,4.22,0,0,0,.87.09l.46,0a4.4,4.4,0,0,0,.48,0,3.31,3.31,0,0,0,1.28.25h0a4.37,4.37,0,0,0,1.05.13,3.85,3.85,0,0,0,.63-.05h.24a3.27,3.27,0,0,0,2-.63A3.12,3.12,0,0,0,31.57,26a10.67,10.67,0,0,0,1.12.09,5.47,5.47,0,0,0,.23.56l.13.25a3.68,3.68,0,0,0,3.23,2.23l.36,0h0a4.07,4.07,0,0,0,1,.17l.52,0h.15a5.37,5.37,0,0,0,.91.09h.13a3.91,3.91,0,0,0,1.83-.46,3.07,3.07,0,0,0,1.7-2L43,27a3.32,3.32,0,0,0,2,.62,3.52,3.52,0,0,0,1.06-.16h.08a3.47,3.47,0,0,0,3.11-2l.12-.22a4.08,4.08,0,0,0,.2-.45,7.31,7.31,0,0,0,.92-.88A5.22,5.22,0,0,0,51.93,21V20.9a4.24,4.24,0,0,0-.05-1.65,3.17,3.17,0,0,0-3.05-2.41h-.2a3.83,3.83,0,0,0,.23-.54,3,3,0,0,0-1.5-3.62,3.22,3.22,0,0,0-1.44-.34,3.38,3.38,0,0,0-.7.08,3.06,3.06,0,0,0-.43.13,3.66,3.66,0,0,0-.29-.28,6,6,0,0,0-2.87-1.38,6.27,6.27,0,0,0-.94-.07h-.33l-.39,0-.75-.07a7.68,7.68,0,0,0-.94-.06A6.32,6.32,0,0,0,36,11l-.21.08h-.11A4.92,4.92,0,0,1,34.56,11l-.13,0a16.74,16.74,0,0,1-1.93-.46l-.19-.06-.39-.09q0-.12,0-.24A8.39,8.39,0,0,0,30.14,6c-1.93-2.64-3.05-3.43-3.57-3.72A9.93,9.93,0,0,0,21.28.9,12,12,0,0,0,20,1h-.46a14.41,14.41,0,0,1-1.92-.1A5,5,0,0,0,14.82,0Z"/></g><path class="c" d="M23.91,16.41l-.08.13a5.31,5.31,0,0,0-.6,2c0,.1,0,.32,0,.32a3.19,3.19,0,0,1-.1.53c-.06.23-.19.43-.23.58s-.09.29.06.4.19.16.18.2-.12.08,0,.25a1.1,1.1,0,0,1,.22.32s.19-.12.1-.42-.17-.36-.34-.45-.08-.06-.06-.1.1-.15.17-.31a2,2,0,0,0,.08-.24s0,.37.07.44a4,4,0,0,1,.12.44c0,.11,0,.19,0,.28s0,.09.08.2a2.13,2.13,0,0,1,.2.56,2,2,0,0,1-.17.63c-.16.42-.37.83-.46,1s-.19.35-.09.51.3.44.37.57a.79.79,0,0,1,.07.73c-.14.4-.35.7-.24.91s.33.16.42.16a1,1,0,0,0,.72,0,1.17,1.17,0,0,0,.28,0,3,3,0,0,0,.49.06c.09,0,.1,0,.1,0l.19.05c.05,0,.13,0,0-.23a1.63,1.63,0,0,0-.35-.53,1.07,1.07,0,0,1-.29-.34,3.81,3.81,0,0,1-.07-.55,2.24,2.24,0,0,1,.16-.64c.08-.2.17-.5.25-.69s.21-.48.21-.48a3.31,3.31,0,0,1,0,.85,2.33,2.33,0,0,0-.07.76c0,.14.15.23.3.35a4.31,4.31,0,0,1,.63.59.72.72,0,0,1,.06.49,3.38,3.38,0,0,0-.13.46c0,.09,0,.24.29.21h.35c.06,0,.66.28,1,0,.13,0,.57.11.68,0s.09-.11.08-.17a2.59,2.59,0,0,0-.16-.39c0-.07-.05-.1-.23-.15a.89.89,0,0,1-.37-.17,1.35,1.35,0,0,1-.24-.43c-.07-.22-.19-.45-.23-.55a3.33,3.33,0,0,1-.07-.68c0-.11.08-.57.12-.85a3.7,3.7,0,0,1,.12-.82,1.55,1.55,0,0,1,.58-.67,1,1,0,0,0,.43-.53,4.5,4.5,0,0,0,1.74,1.54A8,8,0,0,0,34.1,23a9.71,9.71,0,0,0,2.2-.45,12.19,12.19,0,0,0,.78,1.1.31.31,0,0,1,0,.15.17.17,0,0,0-.11.11c-.12-.06-.22-.07-.27,0a.72.72,0,0,0-.34-.17c-.09,0-.65.6-.75.69a.66.66,0,0,0-.16.49,2.09,2.09,0,0,0,.16.46.82.82,0,0,1,.19,0,.42.42,0,0,0,0,.45c.12.2.32.35.46.33a.71.71,0,0,0,.35-.2,6.55,6.55,0,0,1,.56-.51l.32-.22a1.26,1.26,0,0,0,.26,0,.28.28,0,0,1,0,.09,1.25,1.25,0,0,0-.2.24.92.92,0,0,0-.14.56c0,.11,0,.2.45.22a2.94,2.94,0,0,0,.71,0,2.11,2.11,0,0,0,.68.12,1.18,1.18,0,0,0,.45-.07s0-.13,0-.13a.58.58,0,0,0,.2,0c.06,0,.13,0,.1-.11a2.06,2.06,0,0,1-.16-.25.35.35,0,0,0-.21-.22,2.33,2.33,0,0,1-.4-.21,1.2,1.2,0,0,1-.3-.65,3.38,3.38,0,0,1,.06-.38,5.05,5.05,0,0,1,.5-1.34,6.52,6.52,0,0,1,.7-.8c.1,0,.29.13.43-.16.05,0,.28,0,.33,0a.32.32,0,0,0,.35.19c.18-.05.45-.17.49-.25a1.92,1.92,0,0,0,.08-.24l.12-.08s.15.23.18.3a.75.75,0,0,0,.42.61c.09.11,1.45,1.42,1.53,1.53a.74.74,0,0,0,.51.3.47.47,0,0,0,.62.19,3.71,3.71,0,0,1,.77-.11s.43,0,.51-.25a2.06,2.06,0,0,1,.2-.38c.08-.15.11-.26.07-.32s.28-.58.28-.64a4.51,4.51,0,0,0,1.15-.93,3,3,0,0,0,.74-1.2A4,4,0,0,0,49,20c0-.09-.12-.35-.36,0a5.93,5.93,0,0,1-1.7.92,1.13,1.13,0,0,1-.43.05l0-.12h0a1.56,1.56,0,0,1,.45-.17c.31-.08.57-.33.23-.37s-.95,0-.95,0a4.24,4.24,0,0,0-.53-.65,3.25,3.25,0,0,1-.63-.79,2.22,2.22,0,0,1-.25-1.05,2.89,2.89,0,0,0-.11-.87.49.49,0,0,1,.18,0c.14,0,.44,0,.69-.6.1-.14.26-.61.34-.68a.69.69,0,0,0,.13-.24.22.22,0,0,0-.13,0c-.07,0-.35.25-.52.33s-.76.28-.82.33,0-.25-.13-.3a1.1,1.1,0,0,0-.28,0c-.12,0-.2-.09-.19,0a.28.28,0,0,1-.08.25.28.28,0,0,0-.09.15.32.32,0,0,1-.16,0c-.05,0-.1-.23-.18-.28s-.27-.06-.32-.09a.24.24,0,0,1-.1-.14,2.5,2.5,0,0,0-.5-1,3,3,0,0,0-1.34-.67c-.47-.07-.75,0-1.06,0l-1.27-.13a3.81,3.81,0,0,0-1.76.17,2.47,2.47,0,0,1-.76.25,7.11,7.11,0,0,1-2.49-.21,18.44,18.44,0,0,1-2.37-.58,2.14,2.14,0,0,0-1.16.08c-.16.06-.58.23-1,.39l.07.13a19.57,19.57,0,0,1-.42-3.42A5.42,5.42,0,0,0,27.79,7.9S25.92,5.33,25,4.9A7.16,7.16,0,0,0,20.21,4s-3.54.11-4.1-.48a1.9,1.9,0,0,0-2.32-.14A22.35,22.35,0,0,1,11,3.57s-1.84-.28-2.32.06A5,5,0,0,0,7,5.38,5.13,5.13,0,0,0,6,7,23.31,23.31,0,0,0,4.78,10l-.23.68a6.75,6.75,0,0,1-1.56.2s0,.23.91.45a2.6,2.6,0,0,1-.85,0,2.58,2.58,0,0,0,1.3.4S4.19,15,6.76,16.05c0,0,2.41.42,2.15-1.84,0,0-.37-1.22-1.25-.65,0,0,.34.25.06.37,0,0,.57.71,0,.85,0,0-1,.45-1.33-1.59a3.79,3.79,0,0,1,.76-2.72l.45,0,.37.28a.52.52,0,0,0,.48-.34L9,10.14s1.22-.06,1.42-.4c0,0-.11,1,.34,1.36,0,0,1.5-.28,1.7-.57a20.12,20.12,0,0,1-.51,2.66l-.65,2.29a11.18,11.18,0,0,1-.62,2,7.57,7.57,0,0,0-.37,2.09S10,20.75,9.62,21c0,0-.93.48-.42.88,0,0,3.23.65,2.89-.26,0,0-.45-.88-.34-1.27a21.13,21.13,0,0,1,1.44-3,17.11,17.11,0,0,0,1.87-2.52s1,2.38,1.1,2.69a10,10,0,0,0,.76,2.29s.4.93-.08,1.22c0,0-1.08.71-.68,1,0,0,3.09.51,3.11-.2a1.32,1.32,0,0,0-.34-.82,2.27,2.27,0,0,1-.17-1.33,20,20,0,0,0-.23-2.15s-.31-2-.34-3c0,0,.14-.79.28-.85a6.76,6.76,0,0,0,2.89.88s1.39.14,1.36.31a6,6,0,0,0,.85.82s.17.31.33.67Z"/></svg>